G75*
G70*
%OFA0B0*%
%FSLAX24Y24*%
%IPPOS*%
%LPD*%
%AMOC8*
5,1,8,0,0,1.08239X$1,22.5*
%
%ADD10C,0.0000*%
D10*
X004848Y007428D02*
X004848Y046798D01*
X067840Y046798D01*
X067840Y007428D01*
X004848Y007428D01*
X004948Y007423D02*
X004948Y046803D01*
X067948Y046803D01*
X067948Y007423D01*
X004948Y007423D01*
X005798Y009613D02*
X005800Y009660D01*
X005806Y009706D01*
X005816Y009752D01*
X005829Y009796D01*
X005847Y009840D01*
X005868Y009881D01*
X005892Y009921D01*
X005920Y009959D01*
X005951Y009994D01*
X005985Y010026D01*
X006021Y010055D01*
X006060Y010081D01*
X006100Y010104D01*
X006143Y010123D01*
X006187Y010139D01*
X006232Y010151D01*
X006278Y010159D01*
X006325Y010163D01*
X006371Y010163D01*
X006418Y010159D01*
X006464Y010151D01*
X006509Y010139D01*
X006553Y010123D01*
X006596Y010104D01*
X006636Y010081D01*
X006675Y010055D01*
X006711Y010026D01*
X006745Y009994D01*
X006776Y009959D01*
X006804Y009921D01*
X006828Y009881D01*
X006849Y009840D01*
X006867Y009796D01*
X006880Y009752D01*
X006890Y009706D01*
X006896Y009660D01*
X006898Y009613D01*
X006896Y009566D01*
X006890Y009520D01*
X006880Y009474D01*
X006867Y009430D01*
X006849Y009386D01*
X006828Y009345D01*
X006804Y009305D01*
X006776Y009267D01*
X006745Y009232D01*
X006711Y009200D01*
X006675Y009171D01*
X006636Y009145D01*
X006596Y009122D01*
X006553Y009103D01*
X006509Y009087D01*
X006464Y009075D01*
X006418Y009067D01*
X006371Y009063D01*
X006325Y009063D01*
X006278Y009067D01*
X006232Y009075D01*
X006187Y009087D01*
X006143Y009103D01*
X006100Y009122D01*
X006060Y009145D01*
X006021Y009171D01*
X005985Y009200D01*
X005951Y009232D01*
X005920Y009267D01*
X005892Y009305D01*
X005868Y009345D01*
X005847Y009386D01*
X005829Y009430D01*
X005816Y009474D01*
X005806Y009520D01*
X005800Y009566D01*
X005798Y009613D01*
X005798Y044613D02*
X005800Y044660D01*
X005806Y044706D01*
X005816Y044752D01*
X005829Y044796D01*
X005847Y044840D01*
X005868Y044881D01*
X005892Y044921D01*
X005920Y044959D01*
X005951Y044994D01*
X005985Y045026D01*
X006021Y045055D01*
X006060Y045081D01*
X006100Y045104D01*
X006143Y045123D01*
X006187Y045139D01*
X006232Y045151D01*
X006278Y045159D01*
X006325Y045163D01*
X006371Y045163D01*
X006418Y045159D01*
X006464Y045151D01*
X006509Y045139D01*
X006553Y045123D01*
X006596Y045104D01*
X006636Y045081D01*
X006675Y045055D01*
X006711Y045026D01*
X006745Y044994D01*
X006776Y044959D01*
X006804Y044921D01*
X006828Y044881D01*
X006849Y044840D01*
X006867Y044796D01*
X006880Y044752D01*
X006890Y044706D01*
X006896Y044660D01*
X006898Y044613D01*
X006896Y044566D01*
X006890Y044520D01*
X006880Y044474D01*
X006867Y044430D01*
X006849Y044386D01*
X006828Y044345D01*
X006804Y044305D01*
X006776Y044267D01*
X006745Y044232D01*
X006711Y044200D01*
X006675Y044171D01*
X006636Y044145D01*
X006596Y044122D01*
X006553Y044103D01*
X006509Y044087D01*
X006464Y044075D01*
X006418Y044067D01*
X006371Y044063D01*
X006325Y044063D01*
X006278Y044067D01*
X006232Y044075D01*
X006187Y044087D01*
X006143Y044103D01*
X006100Y044122D01*
X006060Y044145D01*
X006021Y044171D01*
X005985Y044200D01*
X005951Y044232D01*
X005920Y044267D01*
X005892Y044305D01*
X005868Y044345D01*
X005847Y044386D01*
X005829Y044430D01*
X005816Y044474D01*
X005806Y044520D01*
X005800Y044566D01*
X005798Y044613D01*
X066298Y044613D02*
X066300Y044660D01*
X066306Y044706D01*
X066316Y044752D01*
X066329Y044796D01*
X066347Y044840D01*
X066368Y044881D01*
X066392Y044921D01*
X066420Y044959D01*
X066451Y044994D01*
X066485Y045026D01*
X066521Y045055D01*
X066560Y045081D01*
X066600Y045104D01*
X066643Y045123D01*
X066687Y045139D01*
X066732Y045151D01*
X066778Y045159D01*
X066825Y045163D01*
X066871Y045163D01*
X066918Y045159D01*
X066964Y045151D01*
X067009Y045139D01*
X067053Y045123D01*
X067096Y045104D01*
X067136Y045081D01*
X067175Y045055D01*
X067211Y045026D01*
X067245Y044994D01*
X067276Y044959D01*
X067304Y044921D01*
X067328Y044881D01*
X067349Y044840D01*
X067367Y044796D01*
X067380Y044752D01*
X067390Y044706D01*
X067396Y044660D01*
X067398Y044613D01*
X067396Y044566D01*
X067390Y044520D01*
X067380Y044474D01*
X067367Y044430D01*
X067349Y044386D01*
X067328Y044345D01*
X067304Y044305D01*
X067276Y044267D01*
X067245Y044232D01*
X067211Y044200D01*
X067175Y044171D01*
X067136Y044145D01*
X067096Y044122D01*
X067053Y044103D01*
X067009Y044087D01*
X066964Y044075D01*
X066918Y044067D01*
X066871Y044063D01*
X066825Y044063D01*
X066778Y044067D01*
X066732Y044075D01*
X066687Y044087D01*
X066643Y044103D01*
X066600Y044122D01*
X066560Y044145D01*
X066521Y044171D01*
X066485Y044200D01*
X066451Y044232D01*
X066420Y044267D01*
X066392Y044305D01*
X066368Y044345D01*
X066347Y044386D01*
X066329Y044430D01*
X066316Y044474D01*
X066306Y044520D01*
X066300Y044566D01*
X066298Y044613D01*
X066298Y009613D02*
X066300Y009660D01*
X066306Y009706D01*
X066316Y009752D01*
X066329Y009796D01*
X066347Y009840D01*
X066368Y009881D01*
X066392Y009921D01*
X066420Y009959D01*
X066451Y009994D01*
X066485Y010026D01*
X066521Y010055D01*
X066560Y010081D01*
X066600Y010104D01*
X066643Y010123D01*
X066687Y010139D01*
X066732Y010151D01*
X066778Y010159D01*
X066825Y010163D01*
X066871Y010163D01*
X066918Y010159D01*
X066964Y010151D01*
X067009Y010139D01*
X067053Y010123D01*
X067096Y010104D01*
X067136Y010081D01*
X067175Y010055D01*
X067211Y010026D01*
X067245Y009994D01*
X067276Y009959D01*
X067304Y009921D01*
X067328Y009881D01*
X067349Y009840D01*
X067367Y009796D01*
X067380Y009752D01*
X067390Y009706D01*
X067396Y009660D01*
X067398Y009613D01*
X067396Y009566D01*
X067390Y009520D01*
X067380Y009474D01*
X067367Y009430D01*
X067349Y009386D01*
X067328Y009345D01*
X067304Y009305D01*
X067276Y009267D01*
X067245Y009232D01*
X067211Y009200D01*
X067175Y009171D01*
X067136Y009145D01*
X067096Y009122D01*
X067053Y009103D01*
X067009Y009087D01*
X066964Y009075D01*
X066918Y009067D01*
X066871Y009063D01*
X066825Y009063D01*
X066778Y009067D01*
X066732Y009075D01*
X066687Y009087D01*
X066643Y009103D01*
X066600Y009122D01*
X066560Y009145D01*
X066521Y009171D01*
X066485Y009200D01*
X066451Y009232D01*
X066420Y009267D01*
X066392Y009305D01*
X066368Y009345D01*
X066347Y009386D01*
X066329Y009430D01*
X066316Y009474D01*
X066306Y009520D01*
X066300Y009566D01*
X066298Y009613D01*
M02*
