G75*
G70*
%OFA0B0*%
%FSLAX24Y24*%
%IPPOS*%
%LPD*%
%AMOC8*
5,1,8,0,0,1.08239X$1,22.5*
%
%ADD10C,0.0080*%
%ADD11R,0.0200X0.0800*%
%ADD12C,0.0100*%
%ADD13R,0.0230X0.0160*%
%ADD14R,0.0150X0.0200*%
%ADD15R,0.0200X0.0150*%
%ADD16C,0.0050*%
D10*
X009948Y012528D02*
X010098Y012528D01*
X010148Y012578D01*
X011548Y012578D01*
X011598Y012528D01*
X011748Y012528D01*
X011765Y012530D01*
X011782Y012534D01*
X011798Y012541D01*
X011812Y012551D01*
X011825Y012564D01*
X011835Y012578D01*
X011842Y012594D01*
X011846Y012611D01*
X011848Y012628D01*
X011848Y013228D01*
X011846Y013245D01*
X011842Y013262D01*
X011835Y013278D01*
X011825Y013292D01*
X011812Y013305D01*
X011798Y013315D01*
X011782Y013322D01*
X011765Y013326D01*
X011748Y013328D01*
X011598Y013328D01*
X011548Y013278D01*
X010148Y013278D01*
X010098Y013328D01*
X009948Y013328D01*
X009931Y013326D01*
X009914Y013322D01*
X009898Y013315D01*
X009884Y013305D01*
X009871Y013292D01*
X009861Y013278D01*
X009854Y013262D01*
X009850Y013245D01*
X009848Y013228D01*
X009848Y012628D01*
X009850Y012611D01*
X009854Y012594D01*
X009861Y012578D01*
X009871Y012564D01*
X009884Y012551D01*
X009898Y012541D01*
X009914Y012534D01*
X009931Y012530D01*
X009948Y012528D01*
X010248Y012933D02*
X010455Y012933D01*
X010403Y012778D02*
X010403Y013088D01*
X010248Y012933D01*
X010607Y012830D02*
X010814Y013037D01*
X010814Y012830D01*
X010762Y012778D01*
X010659Y012778D01*
X010607Y012830D01*
X010607Y013037D01*
X010659Y013088D01*
X010762Y013088D01*
X010814Y013037D01*
X010966Y013037D02*
X011018Y013088D01*
X011121Y013088D01*
X011173Y013037D01*
X010966Y012830D01*
X011018Y012778D01*
X011121Y012778D01*
X011173Y012830D01*
X011173Y013037D01*
X010966Y013037D02*
X010966Y012830D01*
X010454Y013478D02*
X010247Y013478D01*
X010350Y013478D02*
X010350Y013788D01*
X010247Y013685D01*
X010095Y013737D02*
X010095Y013633D01*
X010043Y013581D01*
X009888Y013581D01*
X009888Y013478D02*
X009888Y013788D01*
X010043Y013788D01*
X010095Y013737D01*
X009991Y013581D02*
X010095Y013478D01*
X007598Y014428D02*
X006098Y014428D01*
X006178Y014718D02*
X006598Y014718D01*
X006388Y014718D02*
X006388Y014998D01*
X006178Y014998D02*
X006598Y014998D01*
X006598Y015178D02*
X006598Y015389D01*
X006528Y015459D01*
X006248Y015459D01*
X006178Y015389D01*
X006178Y015178D01*
X006598Y015178D01*
X006598Y015639D02*
X006178Y015639D01*
X006178Y015849D01*
X006248Y015919D01*
X006528Y015919D01*
X006598Y015849D01*
X006598Y015639D01*
X006598Y016559D02*
X006178Y016559D01*
X006598Y016559D02*
X006598Y016840D01*
X006598Y017020D02*
X006598Y017300D01*
X006598Y017480D02*
X006178Y017480D01*
X006178Y017690D01*
X006248Y017760D01*
X006528Y017760D01*
X006598Y017690D01*
X006598Y017480D01*
X006388Y017160D02*
X006388Y017020D01*
X006178Y017020D02*
X006598Y017020D01*
X006178Y017020D02*
X006178Y017300D01*
X008448Y020028D02*
X008598Y020028D01*
X008648Y020078D01*
X010048Y020078D01*
X010098Y020028D01*
X010248Y020028D01*
X010265Y020030D01*
X010282Y020034D01*
X010298Y020041D01*
X010312Y020051D01*
X010325Y020064D01*
X010335Y020078D01*
X010342Y020094D01*
X010346Y020111D01*
X010348Y020128D01*
X010348Y020728D01*
X010346Y020745D01*
X010342Y020762D01*
X010335Y020778D01*
X010325Y020792D01*
X010312Y020805D01*
X010298Y020815D01*
X010282Y020822D01*
X010265Y020826D01*
X010248Y020828D01*
X010098Y020828D01*
X010048Y020778D01*
X008648Y020778D01*
X008598Y020828D01*
X008448Y020828D01*
X008431Y020826D01*
X008414Y020822D01*
X008398Y020815D01*
X008384Y020805D01*
X008371Y020792D01*
X008361Y020778D01*
X008354Y020762D01*
X008350Y020745D01*
X008348Y020728D01*
X008348Y020128D01*
X008350Y020111D01*
X008354Y020094D01*
X008361Y020078D01*
X008371Y020064D01*
X008384Y020051D01*
X008398Y020041D01*
X008414Y020034D01*
X008431Y020030D01*
X008448Y020028D01*
X009010Y020268D02*
X009217Y020475D01*
X009217Y020527D01*
X009166Y020578D01*
X009062Y020578D01*
X009010Y020527D01*
X009010Y020268D02*
X009217Y020268D01*
X009370Y020268D02*
X009370Y020578D01*
X009525Y020475D02*
X009370Y020371D01*
X009525Y020268D01*
X009669Y020268D02*
X009876Y020475D01*
X009876Y020527D01*
X009824Y020578D01*
X009720Y020578D01*
X009669Y020527D01*
X009669Y020268D02*
X009876Y020268D01*
X009837Y019790D02*
X009888Y019738D01*
X009888Y019635D01*
X009837Y019583D01*
X009681Y019583D01*
X009681Y019480D02*
X009681Y019790D01*
X009837Y019790D01*
X010041Y019790D02*
X010041Y019635D01*
X010144Y019686D01*
X010196Y019686D01*
X010247Y019635D01*
X010247Y019531D01*
X010196Y019480D01*
X010092Y019480D01*
X010041Y019531D01*
X009888Y019480D02*
X009785Y019583D01*
X010041Y019790D02*
X010247Y019790D01*
X010548Y018928D02*
X011148Y018928D01*
X011165Y018926D01*
X011182Y018922D01*
X011198Y018915D01*
X011212Y018905D01*
X011225Y018892D01*
X011235Y018878D01*
X011242Y018862D01*
X011246Y018845D01*
X011248Y018828D01*
X011248Y018678D01*
X011198Y018628D01*
X011198Y017228D01*
X011248Y017178D01*
X011248Y017028D01*
X011246Y017011D01*
X011242Y016994D01*
X011235Y016978D01*
X011225Y016964D01*
X011212Y016951D01*
X011198Y016941D01*
X011182Y016934D01*
X011165Y016930D01*
X011148Y016928D01*
X010548Y016928D01*
X010531Y016930D01*
X010514Y016934D01*
X010498Y016941D01*
X010484Y016951D01*
X010471Y016964D01*
X010461Y016978D01*
X010454Y016994D01*
X010450Y017011D01*
X010448Y017028D01*
X010448Y017178D01*
X010498Y017228D01*
X010498Y018628D01*
X010448Y018678D01*
X010448Y018828D01*
X010450Y018845D01*
X010454Y018862D01*
X010461Y018878D01*
X010471Y018892D01*
X010484Y018905D01*
X010498Y018915D01*
X010514Y018922D01*
X010531Y018926D01*
X010548Y018928D01*
X010749Y018456D02*
X010698Y018404D01*
X010698Y018301D01*
X010749Y018249D01*
X010801Y018105D02*
X010904Y017950D01*
X011008Y018105D01*
X011008Y018249D02*
X010801Y018456D01*
X010749Y018456D01*
X011008Y018456D02*
X011008Y018249D01*
X011008Y017950D02*
X010698Y017950D01*
X010749Y017797D02*
X010698Y017746D01*
X010698Y017642D01*
X010749Y017591D01*
X010749Y017797D02*
X010801Y017797D01*
X011008Y017591D01*
X011008Y017797D01*
X011398Y018250D02*
X011398Y018405D01*
X011449Y018457D01*
X011553Y018457D01*
X011604Y018405D01*
X011604Y018250D01*
X011604Y018353D02*
X011708Y018457D01*
X011708Y018250D02*
X011398Y018250D01*
X011553Y018609D02*
X011553Y018816D01*
X011708Y018764D02*
X011398Y018764D01*
X011553Y018609D01*
X012098Y018278D02*
X012298Y018428D01*
X012298Y019428D01*
X012098Y019578D01*
X012098Y027128D01*
X012898Y027128D01*
X012898Y028728D01*
X012098Y028728D01*
X012098Y035278D01*
X012298Y035428D01*
X012298Y036428D01*
X012098Y036578D01*
X012098Y037128D01*
X012148Y037128D01*
X012148Y037728D01*
X012098Y037728D01*
X012098Y039428D01*
X015598Y039428D01*
X015598Y038928D01*
X015698Y038928D01*
X015698Y038428D01*
X015598Y038428D01*
X015598Y028178D01*
X015698Y028178D01*
X015698Y027678D01*
X015598Y027678D01*
X015598Y017428D01*
X015698Y017428D01*
X015698Y016928D01*
X015598Y016928D01*
X015598Y016428D01*
X012098Y016428D01*
X012098Y018278D01*
X010248Y021028D02*
X010098Y021028D01*
X010048Y021078D01*
X008648Y021078D01*
X008598Y021028D01*
X008448Y021028D01*
X008431Y021030D01*
X008414Y021034D01*
X008398Y021041D01*
X008384Y021051D01*
X008371Y021064D01*
X008361Y021078D01*
X008354Y021094D01*
X008350Y021111D01*
X008348Y021128D01*
X008348Y021728D01*
X008350Y021745D01*
X008354Y021762D01*
X008361Y021778D01*
X008371Y021792D01*
X008384Y021805D01*
X008398Y021815D01*
X008414Y021822D01*
X008431Y021826D01*
X008448Y021828D01*
X008598Y021828D01*
X008648Y021778D01*
X010048Y021778D01*
X010098Y021828D01*
X010248Y021828D01*
X010265Y021826D01*
X010282Y021822D01*
X010298Y021815D01*
X010312Y021805D01*
X010325Y021792D01*
X010335Y021778D01*
X010342Y021762D01*
X010346Y021745D01*
X010348Y021728D01*
X010348Y021128D01*
X010346Y021111D01*
X010342Y021094D01*
X010335Y021078D01*
X010325Y021064D01*
X010312Y021051D01*
X010298Y021041D01*
X010282Y021034D01*
X010265Y021030D01*
X010248Y021028D01*
X009876Y021268D02*
X009669Y021268D01*
X009876Y021475D01*
X009876Y021527D01*
X009824Y021578D01*
X009720Y021578D01*
X009669Y021527D01*
X009525Y021475D02*
X009370Y021371D01*
X009525Y021268D01*
X009370Y021268D02*
X009370Y021578D01*
X009217Y021527D02*
X009166Y021578D01*
X009062Y021578D01*
X009010Y021527D01*
X009217Y021527D02*
X009217Y021475D01*
X009010Y021268D01*
X009217Y021268D01*
X009681Y022039D02*
X009681Y022349D01*
X009837Y022349D01*
X009888Y022297D01*
X009888Y022194D01*
X009837Y022142D01*
X009681Y022142D01*
X009785Y022142D02*
X009888Y022039D01*
X010041Y022090D02*
X010092Y022039D01*
X010196Y022039D01*
X010247Y022090D01*
X010247Y022142D01*
X010196Y022194D01*
X010041Y022194D01*
X010041Y022090D01*
X010041Y022194D02*
X010144Y022297D01*
X010247Y022349D01*
X010196Y024401D02*
X010092Y024401D01*
X010041Y024453D01*
X010041Y024504D01*
X010092Y024556D01*
X010196Y024556D01*
X010247Y024504D01*
X010247Y024453D01*
X010196Y024401D01*
X010196Y024556D02*
X010247Y024608D01*
X010247Y024659D01*
X010196Y024711D01*
X010092Y024711D01*
X010041Y024659D01*
X010041Y024608D01*
X010092Y024556D01*
X009888Y024556D02*
X009837Y024504D01*
X009681Y024504D01*
X009681Y024401D02*
X009681Y024711D01*
X009837Y024711D01*
X009888Y024659D01*
X009888Y024556D01*
X009785Y024504D02*
X009888Y024401D01*
X010098Y025028D02*
X010048Y025078D01*
X008648Y025078D01*
X008598Y025028D01*
X008448Y025028D01*
X008431Y025030D01*
X008414Y025034D01*
X008398Y025041D01*
X008384Y025051D01*
X008371Y025064D01*
X008361Y025078D01*
X008354Y025094D01*
X008350Y025111D01*
X008348Y025128D01*
X008348Y025728D01*
X008350Y025745D01*
X008354Y025762D01*
X008361Y025778D01*
X008371Y025792D01*
X008384Y025805D01*
X008398Y025815D01*
X008414Y025822D01*
X008431Y025826D01*
X008448Y025828D01*
X008598Y025828D01*
X008648Y025778D01*
X010048Y025778D01*
X010098Y025828D01*
X010248Y025828D01*
X010265Y025826D01*
X010282Y025822D01*
X010298Y025815D01*
X010312Y025805D01*
X010325Y025792D01*
X010335Y025778D01*
X010342Y025762D01*
X010346Y025745D01*
X010348Y025728D01*
X010348Y025128D01*
X010346Y025111D01*
X010342Y025094D01*
X010335Y025078D01*
X010325Y025064D01*
X010312Y025051D01*
X010298Y025041D01*
X010282Y025034D01*
X010265Y025030D01*
X010248Y025028D01*
X010098Y025028D01*
X009876Y025268D02*
X009669Y025268D01*
X009876Y025475D01*
X009876Y025527D01*
X009824Y025578D01*
X009720Y025578D01*
X009669Y025527D01*
X009525Y025475D02*
X009370Y025371D01*
X009525Y025268D01*
X009370Y025268D02*
X009370Y025578D01*
X009217Y025527D02*
X009217Y025475D01*
X009010Y025268D01*
X009217Y025268D01*
X009217Y025527D02*
X009166Y025578D01*
X009062Y025578D01*
X009010Y025527D01*
X008598Y026028D02*
X008448Y026028D01*
X008431Y026030D01*
X008414Y026034D01*
X008398Y026041D01*
X008384Y026051D01*
X008371Y026064D01*
X008361Y026078D01*
X008354Y026094D01*
X008350Y026111D01*
X008348Y026128D01*
X008348Y026728D01*
X008350Y026745D01*
X008354Y026762D01*
X008361Y026778D01*
X008371Y026792D01*
X008384Y026805D01*
X008398Y026815D01*
X008414Y026822D01*
X008431Y026826D01*
X008448Y026828D01*
X008598Y026828D01*
X008648Y026778D01*
X010048Y026778D01*
X010098Y026828D01*
X010248Y026828D01*
X010265Y026826D01*
X010282Y026822D01*
X010298Y026815D01*
X010312Y026805D01*
X010325Y026792D01*
X010335Y026778D01*
X010342Y026762D01*
X010346Y026745D01*
X010348Y026728D01*
X010348Y026128D01*
X010346Y026111D01*
X010342Y026094D01*
X010335Y026078D01*
X010325Y026064D01*
X010312Y026051D01*
X010298Y026041D01*
X010282Y026034D01*
X010265Y026030D01*
X010248Y026028D01*
X010098Y026028D01*
X010048Y026078D01*
X008648Y026078D01*
X008598Y026028D01*
X009010Y026268D02*
X009217Y026475D01*
X009217Y026527D01*
X009166Y026578D01*
X009062Y026578D01*
X009010Y026527D01*
X009010Y026268D02*
X009217Y026268D01*
X009370Y026268D02*
X009370Y026578D01*
X009525Y026475D02*
X009370Y026371D01*
X009525Y026268D01*
X009669Y026268D02*
X009876Y026475D01*
X009876Y026527D01*
X009824Y026578D01*
X009720Y026578D01*
X009669Y026527D01*
X009669Y026268D02*
X009876Y026268D01*
X009888Y027157D02*
X009785Y027260D01*
X009837Y027260D02*
X009681Y027260D01*
X009681Y027157D02*
X009681Y027467D01*
X009837Y027467D01*
X009888Y027415D01*
X009888Y027312D01*
X009837Y027260D01*
X010041Y027208D02*
X010092Y027157D01*
X010196Y027157D01*
X010247Y027208D01*
X010247Y027415D01*
X010196Y027467D01*
X010092Y027467D01*
X010041Y027415D01*
X010041Y027364D01*
X010092Y027312D01*
X010247Y027312D01*
X010648Y028928D02*
X011048Y028928D01*
X011074Y028930D01*
X011100Y028935D01*
X011125Y028943D01*
X011148Y028955D01*
X011170Y028969D01*
X011189Y028987D01*
X011207Y029006D01*
X011221Y029028D01*
X011233Y029051D01*
X011241Y029076D01*
X011246Y029102D01*
X011248Y029128D01*
X011248Y037728D01*
X011198Y037778D02*
X011198Y037078D01*
X010498Y037078D01*
X010498Y037778D01*
X011198Y037778D01*
X011248Y037728D02*
X011246Y037754D01*
X011241Y037780D01*
X011233Y037805D01*
X011221Y037828D01*
X011207Y037850D01*
X011189Y037869D01*
X011170Y037887D01*
X011148Y037901D01*
X011125Y037913D01*
X011100Y037921D01*
X011074Y037926D01*
X011048Y037928D01*
X010648Y037928D01*
X010791Y038009D02*
X010688Y038112D01*
X010998Y038112D01*
X010998Y038009D02*
X010998Y038216D01*
X010648Y037928D02*
X010622Y037926D01*
X010596Y037921D01*
X010571Y037913D01*
X010548Y037901D01*
X010526Y037887D01*
X010507Y037869D01*
X010489Y037850D01*
X010475Y037828D01*
X010463Y037805D01*
X010455Y037780D01*
X010450Y037754D01*
X010448Y037728D01*
X010448Y029128D01*
X010450Y029102D01*
X010455Y029076D01*
X010463Y029051D01*
X010475Y029028D01*
X010489Y029006D01*
X010507Y028987D01*
X010526Y028969D01*
X010548Y028955D01*
X010571Y028943D01*
X010596Y028935D01*
X010622Y028930D01*
X010648Y028928D01*
X012098Y028728D02*
X012098Y027128D01*
X016448Y028128D02*
X016448Y036728D01*
X016450Y036754D01*
X016455Y036780D01*
X016463Y036805D01*
X016475Y036828D01*
X016489Y036850D01*
X016507Y036869D01*
X016526Y036887D01*
X016548Y036901D01*
X016571Y036913D01*
X016596Y036921D01*
X016622Y036926D01*
X016648Y036928D01*
X017048Y036928D01*
X017074Y036926D01*
X017100Y036921D01*
X017125Y036913D01*
X017148Y036901D01*
X017170Y036887D01*
X017189Y036869D01*
X017207Y036850D01*
X017221Y036828D01*
X017233Y036805D01*
X017241Y036780D01*
X017246Y036754D01*
X017248Y036728D01*
X017248Y028128D01*
X017198Y028078D02*
X016498Y028078D01*
X016498Y028778D01*
X017198Y028778D01*
X017198Y028078D01*
X017248Y028128D02*
X017246Y028102D01*
X017241Y028076D01*
X017233Y028051D01*
X017221Y028028D01*
X017207Y028006D01*
X017189Y027987D01*
X017170Y027969D01*
X017148Y027955D01*
X017125Y027943D01*
X017100Y027935D01*
X017074Y027930D01*
X017048Y027928D01*
X016648Y027928D01*
X016622Y027930D01*
X016596Y027935D01*
X016571Y027943D01*
X016548Y027955D01*
X016526Y027969D01*
X016507Y027987D01*
X016489Y028006D01*
X016475Y028028D01*
X016463Y028051D01*
X016455Y028076D01*
X016450Y028102D01*
X016448Y028128D01*
X016698Y027671D02*
X017008Y027671D01*
X017008Y027568D02*
X017008Y027775D01*
X016801Y027568D02*
X016698Y027671D01*
X019651Y029979D02*
X020072Y029979D01*
X020072Y029839D02*
X020072Y030119D01*
X020002Y030299D02*
X019721Y030580D01*
X020002Y030580D01*
X020072Y030510D01*
X020072Y030369D01*
X020002Y030299D01*
X019721Y030299D01*
X019651Y030369D01*
X019651Y030510D01*
X019721Y030580D01*
X019721Y030760D02*
X019651Y030830D01*
X019651Y030970D01*
X019721Y031040D01*
X020002Y030760D01*
X020072Y030830D01*
X020072Y030970D01*
X020002Y031040D01*
X019721Y031040D01*
X019791Y031220D02*
X019791Y031430D01*
X019861Y031500D01*
X020072Y031500D01*
X020072Y031220D02*
X019791Y031220D01*
X019721Y030760D02*
X020002Y030760D01*
X020548Y030798D02*
X020848Y030798D01*
X020848Y030428D01*
X021098Y030078D02*
X021124Y030080D01*
X021150Y030085D01*
X021175Y030093D01*
X021198Y030105D01*
X021220Y030119D01*
X021239Y030137D01*
X021257Y030156D01*
X021271Y030178D01*
X021283Y030201D01*
X021291Y030226D01*
X021296Y030252D01*
X021298Y030278D01*
X021298Y031578D01*
X021296Y031604D01*
X021291Y031630D01*
X021283Y031655D01*
X021271Y031678D01*
X021257Y031700D01*
X021239Y031719D01*
X021220Y031737D01*
X021198Y031751D01*
X021175Y031763D01*
X021150Y031771D01*
X021124Y031776D01*
X021098Y031778D01*
X020848Y031428D02*
X020848Y031048D01*
X020548Y031048D01*
X020848Y031048D02*
X021148Y031048D01*
X021148Y030798D02*
X020848Y030798D01*
X020398Y030278D02*
X020400Y030252D01*
X020405Y030226D01*
X020413Y030201D01*
X020425Y030178D01*
X020439Y030156D01*
X020457Y030137D01*
X020476Y030119D01*
X020498Y030105D01*
X020521Y030093D01*
X020546Y030085D01*
X020572Y030080D01*
X020598Y030078D01*
X020398Y030278D02*
X020398Y031578D01*
X020400Y031604D01*
X020405Y031630D01*
X020413Y031655D01*
X020425Y031678D01*
X020439Y031700D01*
X020457Y031719D01*
X020476Y031737D01*
X020498Y031751D01*
X020521Y031763D01*
X020546Y031771D01*
X020572Y031776D01*
X020598Y031778D01*
X021848Y031828D02*
X021848Y032578D01*
X031848Y032578D01*
X031848Y030278D01*
X021848Y030278D01*
X021848Y031028D01*
X021887Y031030D01*
X021926Y031036D01*
X021964Y031045D01*
X022001Y031058D01*
X022037Y031075D01*
X022070Y031095D01*
X022102Y031119D01*
X022131Y031145D01*
X022157Y031174D01*
X022181Y031206D01*
X022201Y031239D01*
X022218Y031275D01*
X022231Y031312D01*
X022240Y031350D01*
X022246Y031389D01*
X022248Y031428D01*
X022246Y031467D01*
X022240Y031506D01*
X022231Y031544D01*
X022218Y031581D01*
X022201Y031617D01*
X022181Y031650D01*
X022157Y031682D01*
X022131Y031711D01*
X022102Y031737D01*
X022070Y031761D01*
X022037Y031781D01*
X022001Y031798D01*
X021964Y031811D01*
X021926Y031820D01*
X021887Y031826D01*
X021848Y031828D01*
X023038Y031738D02*
X023318Y031738D01*
X023318Y031668D01*
X023038Y031388D01*
X023038Y031318D01*
X023498Y031528D02*
X023778Y031528D01*
X023708Y031318D02*
X023708Y031738D01*
X023498Y031528D01*
X023959Y031738D02*
X023959Y031318D01*
X024239Y031318D01*
X024419Y031388D02*
X024489Y031318D01*
X024629Y031318D01*
X024699Y031388D01*
X024699Y031458D01*
X024629Y031528D01*
X024489Y031528D01*
X024419Y031598D01*
X024419Y031668D01*
X024489Y031738D01*
X024629Y031738D01*
X024699Y031668D01*
X024879Y031668D02*
X024949Y031738D01*
X025089Y031738D01*
X025160Y031668D01*
X025160Y031598D01*
X025089Y031528D01*
X025160Y031458D01*
X025160Y031388D01*
X025089Y031318D01*
X024949Y031318D01*
X024879Y031388D01*
X025019Y031528D02*
X025089Y031528D01*
X025340Y031388D02*
X025340Y031318D01*
X025340Y031388D02*
X025620Y031668D01*
X025620Y031738D01*
X025340Y031738D01*
X025800Y031528D02*
X026080Y031528D01*
X026010Y031318D02*
X026010Y031738D01*
X025800Y031528D01*
X026260Y031318D02*
X026260Y031738D01*
X026541Y031318D01*
X026541Y031738D01*
X032132Y031849D02*
X032202Y031779D01*
X032482Y031779D01*
X032552Y031849D01*
X032552Y031989D01*
X032482Y032059D01*
X032342Y032239D02*
X032342Y032519D01*
X032132Y032449D02*
X032342Y032239D01*
X032202Y032059D02*
X032132Y031989D01*
X032132Y031849D01*
X032132Y031612D02*
X032132Y031472D01*
X032132Y031542D02*
X032552Y031542D01*
X032552Y031472D02*
X032552Y031612D01*
X032552Y032449D02*
X032132Y032449D01*
X037187Y032356D02*
X037291Y032460D01*
X037394Y032460D01*
X037498Y032356D01*
X037601Y032460D01*
X037704Y032460D01*
X037808Y032356D01*
X037808Y032150D01*
X037704Y032046D01*
X037704Y031815D02*
X037291Y031815D01*
X037704Y031402D01*
X037808Y031505D01*
X037808Y031712D01*
X037704Y031815D01*
X037291Y031815D02*
X037187Y031712D01*
X037187Y031505D01*
X037291Y031402D01*
X037704Y031402D01*
X037808Y031171D02*
X037808Y030757D01*
X037394Y031171D01*
X037291Y031171D01*
X037187Y031067D01*
X037187Y030860D01*
X037291Y030757D01*
X037291Y030526D02*
X037498Y030526D01*
X037601Y030423D01*
X037601Y030113D01*
X037601Y030319D02*
X037808Y030526D01*
X037808Y030113D02*
X037187Y030113D01*
X037187Y030423D01*
X037291Y030526D01*
X037291Y029882D02*
X037187Y029778D01*
X037187Y029571D01*
X037291Y029468D01*
X037704Y029468D01*
X037808Y029571D01*
X037808Y029778D01*
X037704Y029882D01*
X039098Y029178D02*
X039598Y029178D01*
X039348Y028928D02*
X039348Y029428D01*
X040687Y029468D02*
X040687Y029778D01*
X040791Y029882D01*
X040894Y029882D01*
X040998Y029778D01*
X040998Y029468D01*
X041308Y029468D02*
X040687Y029468D01*
X040998Y029778D02*
X041101Y029882D01*
X041204Y029882D01*
X041308Y029778D01*
X041308Y029468D01*
X041308Y030113D02*
X041308Y030526D01*
X041308Y030319D02*
X040687Y030319D01*
X040894Y030113D01*
X040448Y028078D02*
X040448Y026568D01*
X038248Y026568D01*
X038248Y028078D01*
X036748Y024878D02*
X036748Y010978D01*
X038848Y010978D01*
X038850Y011022D01*
X038856Y011065D01*
X038865Y011107D01*
X038878Y011149D01*
X038895Y011189D01*
X038915Y011228D01*
X038938Y011265D01*
X038965Y011299D01*
X038994Y011332D01*
X039027Y011361D01*
X039061Y011388D01*
X039098Y011411D01*
X039137Y011431D01*
X039177Y011448D01*
X039219Y011461D01*
X039261Y011470D01*
X039304Y011476D01*
X039348Y011478D01*
X039392Y011476D01*
X039435Y011470D01*
X039477Y011461D01*
X039519Y011448D01*
X039559Y011431D01*
X039598Y011411D01*
X039635Y011388D01*
X039669Y011361D01*
X039702Y011332D01*
X039731Y011299D01*
X039758Y011265D01*
X039781Y011228D01*
X039801Y011189D01*
X039818Y011149D01*
X039831Y011107D01*
X039840Y011065D01*
X039846Y011022D01*
X039848Y010978D01*
X041948Y010978D01*
X041948Y024878D01*
X036748Y024878D01*
X033548Y024991D02*
X033268Y024991D01*
X033268Y025201D01*
X033338Y025271D01*
X033548Y025271D01*
X033478Y024811D02*
X033198Y024811D01*
X033478Y024530D01*
X033548Y024601D01*
X033548Y024741D01*
X033478Y024811D01*
X033198Y024811D02*
X033128Y024741D01*
X033128Y024601D01*
X033198Y024530D01*
X033478Y024530D01*
X033478Y024350D02*
X033198Y024350D01*
X033478Y024070D01*
X033548Y024140D01*
X033548Y024280D01*
X033478Y024350D01*
X033478Y024070D02*
X033198Y024070D01*
X033128Y024140D01*
X033128Y024280D01*
X033198Y024350D01*
X032648Y024308D02*
X032348Y024308D01*
X032348Y023928D01*
X032598Y023578D02*
X032624Y023580D01*
X032650Y023585D01*
X032675Y023593D01*
X032698Y023605D01*
X032720Y023619D01*
X032739Y023637D01*
X032757Y023656D01*
X032771Y023678D01*
X032783Y023701D01*
X032791Y023726D01*
X032796Y023752D01*
X032798Y023778D01*
X032798Y025078D01*
X032796Y025104D01*
X032791Y025130D01*
X032783Y025155D01*
X032771Y025178D01*
X032757Y025200D01*
X032739Y025219D01*
X032720Y025237D01*
X032698Y025251D01*
X032675Y025263D01*
X032650Y025271D01*
X032624Y025276D01*
X032598Y025278D01*
X032348Y024928D02*
X032348Y024558D01*
X032648Y024558D01*
X032348Y024558D02*
X032048Y024558D01*
X032048Y024308D02*
X032348Y024308D01*
X031898Y023778D02*
X031900Y023752D01*
X031905Y023726D01*
X031913Y023701D01*
X031925Y023678D01*
X031939Y023656D01*
X031957Y023637D01*
X031976Y023619D01*
X031998Y023605D01*
X032021Y023593D01*
X032046Y023585D01*
X032072Y023580D01*
X032098Y023578D01*
X031898Y023778D02*
X031898Y025078D01*
X031900Y025104D01*
X031905Y025130D01*
X031913Y025155D01*
X031925Y025178D01*
X031939Y025200D01*
X031957Y025219D01*
X031976Y025237D01*
X031998Y025251D01*
X032021Y025263D01*
X032046Y025271D01*
X032072Y025276D01*
X032098Y025278D01*
X031348Y025328D02*
X031348Y026078D01*
X021348Y026078D01*
X021348Y023778D01*
X031348Y023778D01*
X031348Y024528D01*
X031309Y024530D01*
X031270Y024536D01*
X031232Y024545D01*
X031195Y024558D01*
X031159Y024575D01*
X031126Y024595D01*
X031094Y024619D01*
X031065Y024645D01*
X031039Y024674D01*
X031015Y024706D01*
X030995Y024739D01*
X030978Y024775D01*
X030965Y024812D01*
X030956Y024850D01*
X030950Y024889D01*
X030948Y024928D01*
X030950Y024967D01*
X030956Y025006D01*
X030965Y025044D01*
X030978Y025081D01*
X030995Y025117D01*
X031015Y025150D01*
X031039Y025182D01*
X031065Y025211D01*
X031094Y025237D01*
X031126Y025261D01*
X031159Y025281D01*
X031195Y025298D01*
X031232Y025311D01*
X031270Y025320D01*
X031309Y025326D01*
X031348Y025328D01*
X030057Y025038D02*
X030057Y024618D01*
X029777Y025038D01*
X029777Y024618D01*
X029597Y024688D02*
X029527Y024618D01*
X029387Y024618D01*
X029317Y024688D01*
X029317Y024828D02*
X029457Y024898D01*
X029527Y024898D01*
X029597Y024828D01*
X029597Y024688D01*
X029317Y024828D02*
X029317Y025038D01*
X029597Y025038D01*
X029137Y024828D02*
X028857Y024828D01*
X029067Y025038D01*
X029067Y024618D01*
X028676Y024618D02*
X028396Y024618D01*
X028676Y024898D01*
X028676Y024968D01*
X028606Y025038D01*
X028466Y025038D01*
X028396Y024968D01*
X028216Y024968D02*
X028146Y025038D01*
X028006Y025038D01*
X027936Y024968D01*
X027936Y024898D01*
X028006Y024828D01*
X028146Y024828D01*
X028216Y024758D01*
X028216Y024688D01*
X028146Y024618D01*
X028006Y024618D01*
X027936Y024688D01*
X027756Y024618D02*
X027475Y024618D01*
X027475Y025038D01*
X027225Y025038D02*
X027015Y024828D01*
X027295Y024828D01*
X027225Y024618D02*
X027225Y025038D01*
X026835Y025038D02*
X026835Y024968D01*
X026555Y024688D01*
X026555Y024618D01*
X026555Y025038D02*
X026835Y025038D01*
X031656Y022869D02*
X031656Y022589D01*
X031726Y022519D01*
X031866Y022519D01*
X031937Y022589D01*
X032117Y022519D02*
X032397Y022519D01*
X032257Y022519D02*
X032257Y022940D01*
X032117Y022799D01*
X031937Y022869D02*
X031866Y022940D01*
X031726Y022940D01*
X031656Y022869D01*
X032577Y022869D02*
X032577Y022589D01*
X032857Y022869D01*
X032857Y022589D01*
X032787Y022519D01*
X032647Y022519D01*
X032577Y022589D01*
X032577Y022869D02*
X032647Y022940D01*
X032787Y022940D01*
X032857Y022869D01*
X033268Y023610D02*
X033128Y023750D01*
X033548Y023750D01*
X033548Y023610D02*
X033548Y023890D01*
X037291Y032046D02*
X037187Y032150D01*
X037187Y032356D01*
X037498Y032356D02*
X037498Y032253D01*
X037291Y032691D02*
X037187Y032794D01*
X037187Y033001D01*
X037291Y033104D01*
X037394Y033104D01*
X037808Y032691D01*
X037808Y033104D01*
X034888Y032428D02*
X034893Y032647D01*
X034909Y032865D01*
X034936Y033082D01*
X034974Y033298D01*
X035022Y033512D01*
X035080Y033723D01*
X035149Y033931D01*
X035227Y034135D01*
X035316Y034335D01*
X035415Y034530D01*
X035523Y034721D01*
X035640Y034906D01*
X035766Y035085D01*
X035900Y035257D01*
X036043Y035423D01*
X036194Y035582D01*
X036353Y035733D01*
X036519Y035876D01*
X036691Y036010D01*
X036870Y036136D01*
X037055Y036253D01*
X037246Y036361D01*
X037441Y036460D01*
X037641Y036549D01*
X037845Y036627D01*
X038053Y036696D01*
X038264Y036754D01*
X038478Y036802D01*
X038694Y036840D01*
X038911Y036867D01*
X039129Y036883D01*
X039348Y036888D01*
X039567Y036883D01*
X039785Y036867D01*
X040002Y036840D01*
X040218Y036802D01*
X040432Y036754D01*
X040643Y036696D01*
X040851Y036627D01*
X041055Y036549D01*
X041255Y036460D01*
X041450Y036361D01*
X041641Y036253D01*
X041826Y036136D01*
X042005Y036010D01*
X042177Y035876D01*
X042343Y035733D01*
X042502Y035582D01*
X042653Y035423D01*
X042796Y035257D01*
X042930Y035085D01*
X043056Y034906D01*
X043173Y034721D01*
X043281Y034530D01*
X043380Y034335D01*
X043469Y034135D01*
X043547Y033931D01*
X043616Y033723D01*
X043674Y033512D01*
X043722Y033298D01*
X043760Y033082D01*
X043787Y032865D01*
X043803Y032647D01*
X043808Y032428D01*
X043803Y032209D01*
X043787Y031991D01*
X043760Y031774D01*
X043722Y031558D01*
X043674Y031344D01*
X043616Y031133D01*
X043547Y030925D01*
X043469Y030721D01*
X043380Y030521D01*
X043281Y030326D01*
X043173Y030135D01*
X043056Y029950D01*
X042930Y029771D01*
X042796Y029599D01*
X042653Y029433D01*
X042502Y029274D01*
X042343Y029123D01*
X042177Y028980D01*
X042005Y028846D01*
X041826Y028720D01*
X041641Y028603D01*
X041450Y028495D01*
X041255Y028396D01*
X041055Y028307D01*
X040851Y028229D01*
X040643Y028160D01*
X040432Y028102D01*
X040218Y028054D01*
X040002Y028016D01*
X039785Y027989D01*
X039567Y027973D01*
X039348Y027968D01*
X039129Y027973D01*
X038911Y027989D01*
X038694Y028016D01*
X038478Y028054D01*
X038264Y028102D01*
X038053Y028160D01*
X037845Y028229D01*
X037641Y028307D01*
X037441Y028396D01*
X037246Y028495D01*
X037055Y028603D01*
X036870Y028720D01*
X036691Y028846D01*
X036519Y028980D01*
X036353Y029123D01*
X036194Y029274D01*
X036043Y029433D01*
X035900Y029599D01*
X035766Y029771D01*
X035640Y029950D01*
X035523Y030135D01*
X035415Y030326D01*
X035316Y030521D01*
X035227Y030721D01*
X035149Y030925D01*
X035080Y031133D01*
X035022Y031344D01*
X034974Y031558D01*
X034936Y031774D01*
X034909Y031991D01*
X034893Y032209D01*
X034888Y032428D01*
X039098Y035178D02*
X039598Y035178D01*
X040598Y036728D02*
X040598Y037318D01*
X038098Y037318D01*
X038098Y036728D01*
X042848Y040128D02*
X042848Y040728D01*
X042850Y040745D01*
X042854Y040762D01*
X042861Y040778D01*
X042871Y040792D01*
X042884Y040805D01*
X042898Y040815D01*
X042914Y040822D01*
X042931Y040826D01*
X042948Y040828D01*
X043098Y040828D01*
X043148Y040778D01*
X044548Y040778D01*
X044598Y040828D01*
X044748Y040828D01*
X044765Y040826D01*
X044782Y040822D01*
X044798Y040815D01*
X044812Y040805D01*
X044825Y040792D01*
X044835Y040778D01*
X044842Y040762D01*
X044846Y040745D01*
X044848Y040728D01*
X044848Y040128D01*
X044846Y040111D01*
X044842Y040094D01*
X044835Y040078D01*
X044825Y040064D01*
X044812Y040051D01*
X044798Y040041D01*
X044782Y040034D01*
X044765Y040030D01*
X044748Y040028D01*
X044598Y040028D01*
X044548Y040078D01*
X043148Y040078D01*
X043098Y040028D01*
X042948Y040028D01*
X042931Y040030D01*
X042914Y040034D01*
X042898Y040041D01*
X042884Y040051D01*
X042871Y040064D01*
X042861Y040078D01*
X042854Y040094D01*
X042850Y040111D01*
X042848Y040128D01*
X043248Y040278D02*
X043455Y040278D01*
X043351Y040278D02*
X043351Y040588D01*
X043248Y040485D01*
X043607Y040537D02*
X043659Y040588D01*
X043762Y040588D01*
X043814Y040537D01*
X043607Y040330D01*
X043659Y040278D01*
X043762Y040278D01*
X043814Y040330D01*
X043814Y040537D01*
X043966Y040588D02*
X043966Y040278D01*
X043966Y040381D02*
X044121Y040485D01*
X043966Y040381D02*
X044121Y040278D01*
X043607Y040330D02*
X043607Y040537D01*
X043446Y041129D02*
X043239Y041129D01*
X043446Y041336D01*
X043446Y041388D01*
X043394Y041440D01*
X043291Y041440D01*
X043239Y041388D01*
X043087Y041388D02*
X043087Y041285D01*
X043035Y041233D01*
X042880Y041233D01*
X042983Y041233D02*
X043087Y041129D01*
X042880Y041129D02*
X042880Y041440D01*
X043035Y041440D01*
X043087Y041388D01*
X046423Y041657D02*
X046493Y041587D01*
X046773Y041587D01*
X046843Y041657D01*
X046843Y041797D01*
X046773Y041867D01*
X046773Y042047D02*
X046843Y042117D01*
X046843Y042257D01*
X046773Y042327D01*
X046703Y042327D01*
X046633Y042257D01*
X046633Y042047D01*
X046773Y042047D01*
X046633Y042047D02*
X046493Y042187D01*
X046423Y042327D01*
X046493Y041867D02*
X046423Y041797D01*
X046423Y041657D01*
X047198Y040928D02*
X047948Y040928D01*
X047950Y040889D01*
X047956Y040850D01*
X047965Y040812D01*
X047978Y040775D01*
X047995Y040739D01*
X048015Y040706D01*
X048039Y040674D01*
X048065Y040645D01*
X048094Y040619D01*
X048126Y040595D01*
X048159Y040575D01*
X048195Y040558D01*
X048232Y040545D01*
X048270Y040536D01*
X048309Y040530D01*
X048348Y040528D01*
X048387Y040530D01*
X048426Y040536D01*
X048464Y040545D01*
X048501Y040558D01*
X048537Y040575D01*
X048570Y040595D01*
X048602Y040619D01*
X048631Y040645D01*
X048657Y040674D01*
X048681Y040706D01*
X048701Y040739D01*
X048718Y040775D01*
X048731Y040812D01*
X048740Y040850D01*
X048746Y040889D01*
X048748Y040928D01*
X049498Y040928D01*
X049498Y033928D01*
X047198Y033928D01*
X047198Y040928D01*
X047698Y041478D02*
X048998Y041478D01*
X049024Y041480D01*
X049050Y041485D01*
X049075Y041493D01*
X049098Y041505D01*
X049120Y041519D01*
X049139Y041537D01*
X049157Y041556D01*
X049171Y041578D01*
X049183Y041601D01*
X049191Y041626D01*
X049196Y041652D01*
X049198Y041678D01*
X048848Y041928D02*
X048468Y041928D01*
X048468Y042228D01*
X048218Y042228D02*
X048218Y041928D01*
X047848Y041928D01*
X047498Y041678D02*
X047500Y041652D01*
X047505Y041626D01*
X047513Y041601D01*
X047525Y041578D01*
X047539Y041556D01*
X047557Y041537D01*
X047576Y041519D01*
X047598Y041505D01*
X047621Y041493D01*
X047646Y041485D01*
X047672Y041480D01*
X047698Y041478D01*
X048218Y041628D02*
X048218Y041928D01*
X048468Y041928D02*
X048468Y041628D01*
X049198Y042178D02*
X049196Y042204D01*
X049191Y042230D01*
X049183Y042255D01*
X049171Y042278D01*
X049157Y042300D01*
X049139Y042319D01*
X049120Y042337D01*
X049098Y042351D01*
X049075Y042363D01*
X049050Y042371D01*
X049024Y042376D01*
X048998Y042378D01*
X047698Y042378D01*
X047672Y042376D01*
X047646Y042371D01*
X047621Y042363D01*
X047598Y042351D01*
X047576Y042337D01*
X047557Y042319D01*
X047539Y042300D01*
X047525Y042278D01*
X047513Y042255D01*
X047505Y042230D01*
X047500Y042204D01*
X047498Y042178D01*
X047478Y042598D02*
X047478Y043018D01*
X047338Y042878D01*
X047338Y042598D02*
X047618Y042598D01*
X047798Y042668D02*
X048078Y042948D01*
X048078Y042668D01*
X048008Y042598D01*
X047868Y042598D01*
X047798Y042668D01*
X047798Y042948D01*
X047868Y043018D01*
X048008Y043018D01*
X048078Y042948D01*
X048258Y042948D02*
X048328Y043018D01*
X048469Y043018D01*
X048539Y042948D01*
X048258Y042668D01*
X048328Y042598D01*
X048469Y042598D01*
X048539Y042668D01*
X048539Y042948D01*
X048719Y042878D02*
X048929Y042878D01*
X048999Y042808D01*
X048999Y042598D01*
X048719Y042598D02*
X048719Y042878D01*
X048258Y042948D02*
X048258Y042668D01*
X050659Y040703D02*
X050799Y040563D01*
X050659Y040703D02*
X051079Y040703D01*
X051079Y040563D02*
X051079Y040843D01*
X051079Y040382D02*
X051079Y040102D01*
X051079Y040242D02*
X050659Y040242D01*
X050799Y040102D01*
X050729Y039922D02*
X050659Y039852D01*
X050659Y039712D01*
X050729Y039642D01*
X051009Y039642D01*
X051079Y039712D01*
X051079Y039852D01*
X051009Y039922D01*
X051079Y039475D02*
X051079Y039335D01*
X051079Y039405D02*
X050659Y039405D01*
X050659Y039335D02*
X050659Y039475D01*
X048558Y039407D02*
X048138Y039407D01*
X048348Y039197D01*
X048348Y039477D01*
X048558Y039657D02*
X048138Y039657D01*
X048558Y039938D01*
X048138Y039938D01*
X048208Y039017D02*
X048488Y038737D01*
X048558Y038807D01*
X048558Y038947D01*
X048488Y039017D01*
X048208Y039017D01*
X048138Y038947D01*
X048138Y038807D01*
X048208Y038737D01*
X048488Y038737D01*
X048488Y038557D02*
X048558Y038487D01*
X048558Y038346D01*
X048488Y038276D01*
X048348Y038346D02*
X048348Y038487D01*
X048418Y038557D01*
X048488Y038557D01*
X048348Y038346D02*
X048278Y038276D01*
X048208Y038276D01*
X048138Y038346D01*
X048138Y038487D01*
X048208Y038557D01*
X048558Y038096D02*
X048558Y037816D01*
X048138Y037816D01*
X048138Y037566D02*
X048348Y037356D01*
X048348Y037636D01*
X048558Y037566D02*
X048138Y037566D01*
X048138Y037176D02*
X048208Y037176D01*
X048488Y036895D01*
X048558Y036895D01*
X048138Y036895D02*
X048138Y037176D01*
X053580Y041626D02*
X053580Y041766D01*
X053580Y041696D02*
X054000Y041696D01*
X054000Y041626D02*
X054000Y041766D01*
X053930Y041933D02*
X054000Y042003D01*
X054000Y042143D01*
X053930Y042213D01*
X054000Y042394D02*
X053720Y042674D01*
X053650Y042674D01*
X053580Y042604D01*
X053580Y042464D01*
X053650Y042394D01*
X053650Y042213D02*
X053580Y042143D01*
X053580Y042003D01*
X053650Y041933D01*
X053930Y041933D01*
X054000Y042394D02*
X054000Y042674D01*
X055198Y042928D02*
X055948Y042928D01*
X055950Y042889D01*
X055956Y042850D01*
X055965Y042812D01*
X055978Y042775D01*
X055995Y042739D01*
X056015Y042706D01*
X056039Y042674D01*
X056065Y042645D01*
X056094Y042619D01*
X056126Y042595D01*
X056159Y042575D01*
X056195Y042558D01*
X056232Y042545D01*
X056270Y042536D01*
X056309Y042530D01*
X056348Y042528D01*
X056387Y042530D01*
X056426Y042536D01*
X056464Y042545D01*
X056501Y042558D01*
X056537Y042575D01*
X056570Y042595D01*
X056602Y042619D01*
X056631Y042645D01*
X056657Y042674D01*
X056681Y042706D01*
X056701Y042739D01*
X056718Y042775D01*
X056731Y042812D01*
X056740Y042850D01*
X056746Y042889D01*
X056748Y042928D01*
X057498Y042928D01*
X057498Y032928D01*
X055198Y032928D01*
X055198Y042928D01*
X055698Y043478D02*
X056998Y043478D01*
X057024Y043480D01*
X057050Y043485D01*
X057075Y043493D01*
X057098Y043505D01*
X057120Y043519D01*
X057139Y043537D01*
X057157Y043556D01*
X057171Y043578D01*
X057183Y043601D01*
X057191Y043626D01*
X057196Y043652D01*
X057198Y043678D01*
X056848Y043928D02*
X056468Y043928D01*
X056468Y044228D01*
X056218Y044228D02*
X056218Y043928D01*
X055848Y043928D01*
X055498Y043678D02*
X055500Y043652D01*
X055505Y043626D01*
X055513Y043601D01*
X055525Y043578D01*
X055539Y043556D01*
X055557Y043537D01*
X055576Y043519D01*
X055598Y043505D01*
X055621Y043493D01*
X055646Y043485D01*
X055672Y043480D01*
X055698Y043478D01*
X056218Y043628D02*
X056218Y043928D01*
X056468Y043928D02*
X056468Y043628D01*
X057198Y044178D02*
X057196Y044204D01*
X057191Y044230D01*
X057183Y044255D01*
X057171Y044278D01*
X057157Y044300D01*
X057139Y044319D01*
X057120Y044337D01*
X057098Y044351D01*
X057075Y044363D01*
X057050Y044371D01*
X057024Y044376D01*
X056998Y044378D01*
X055698Y044378D01*
X055742Y044566D02*
X055672Y044636D01*
X055952Y044917D01*
X055952Y044636D01*
X055882Y044566D01*
X055742Y044566D01*
X055672Y044636D02*
X055672Y044917D01*
X055742Y044987D01*
X055882Y044987D01*
X055952Y044917D01*
X056132Y044917D02*
X056202Y044987D01*
X056343Y044987D01*
X056413Y044917D01*
X056132Y044636D01*
X056202Y044566D01*
X056343Y044566D01*
X056413Y044636D01*
X056413Y044917D01*
X056593Y044847D02*
X056803Y044847D01*
X056873Y044777D01*
X056873Y044566D01*
X056593Y044566D02*
X056593Y044847D01*
X056132Y044917D02*
X056132Y044636D01*
X055698Y044378D02*
X055672Y044376D01*
X055646Y044371D01*
X055621Y044363D01*
X055598Y044351D01*
X055576Y044337D01*
X055557Y044319D01*
X055539Y044300D01*
X055525Y044278D01*
X055513Y044255D01*
X055505Y044230D01*
X055500Y044204D01*
X055498Y044178D01*
X055492Y044566D02*
X055212Y044566D01*
X055352Y044566D02*
X055352Y044987D01*
X055212Y044847D01*
X054717Y044296D02*
X054717Y044016D01*
X054437Y044296D01*
X054367Y044296D01*
X054297Y044226D01*
X054297Y044086D01*
X054367Y044016D01*
X054367Y043835D02*
X054297Y043765D01*
X054297Y043625D01*
X054367Y043555D01*
X054647Y043555D01*
X054717Y043625D01*
X054717Y043765D01*
X054647Y043835D01*
X056238Y041638D02*
X056658Y041638D01*
X056238Y041357D01*
X056658Y041357D01*
X056588Y041177D02*
X056658Y041107D01*
X056658Y040967D01*
X056588Y040897D01*
X056448Y040897D02*
X056378Y041037D01*
X056378Y041107D01*
X056448Y041177D01*
X056588Y041177D01*
X056448Y040897D02*
X056238Y040897D01*
X056238Y041177D01*
X056448Y040717D02*
X056448Y040437D01*
X056238Y040647D01*
X056658Y040647D01*
X056658Y040257D02*
X056658Y039976D01*
X056378Y040257D01*
X056308Y040257D01*
X056238Y040186D01*
X056238Y040046D01*
X056308Y039976D01*
X056308Y039796D02*
X056238Y039726D01*
X056238Y039586D01*
X056308Y039516D01*
X056378Y039516D01*
X056448Y039586D01*
X056448Y039726D01*
X056518Y039796D01*
X056588Y039796D01*
X056658Y039726D01*
X056658Y039586D01*
X056588Y039516D01*
X056658Y039336D02*
X056658Y039056D01*
X056238Y039056D01*
X056238Y038805D02*
X056448Y038595D01*
X056448Y038876D01*
X056658Y038805D02*
X056238Y038805D01*
X056238Y038415D02*
X056308Y038415D01*
X056588Y038135D01*
X056658Y038135D01*
X056238Y038135D02*
X056238Y038415D01*
X059498Y041078D02*
X059498Y041778D01*
X060198Y041778D01*
X060198Y041078D01*
X059498Y041078D01*
X059448Y041728D02*
X059448Y033128D01*
X059450Y033102D01*
X059455Y033076D01*
X059463Y033051D01*
X059475Y033028D01*
X059489Y033006D01*
X059507Y032987D01*
X059526Y032969D01*
X059548Y032955D01*
X059571Y032943D01*
X059596Y032935D01*
X059622Y032930D01*
X059648Y032928D01*
X060048Y032928D01*
X060074Y032930D01*
X060100Y032935D01*
X060125Y032943D01*
X060148Y032955D01*
X060170Y032969D01*
X060189Y032987D01*
X060207Y033006D01*
X060221Y033028D01*
X060233Y033051D01*
X060241Y033076D01*
X060246Y033102D01*
X060248Y033128D01*
X060248Y041728D01*
X060246Y041754D01*
X060241Y041780D01*
X060233Y041805D01*
X060221Y041828D01*
X060207Y041850D01*
X060189Y041869D01*
X060170Y041887D01*
X060148Y041901D01*
X060125Y041913D01*
X060100Y041921D01*
X060074Y041926D01*
X060048Y041928D01*
X059648Y041928D01*
X059791Y042009D02*
X059688Y042112D01*
X059998Y042112D01*
X059998Y042009D02*
X059998Y042216D01*
X059648Y041928D02*
X059622Y041926D01*
X059596Y041921D01*
X059571Y041913D01*
X059548Y041901D01*
X059526Y041887D01*
X059507Y041869D01*
X059489Y041850D01*
X059475Y041828D01*
X059463Y041805D01*
X059455Y041780D01*
X059450Y041754D01*
X059448Y041728D01*
X060596Y041597D02*
X061017Y041597D01*
X061017Y041737D02*
X061017Y041456D01*
X061017Y041276D02*
X060596Y041276D01*
X060736Y041456D02*
X060596Y041597D01*
X061017Y041276D02*
X060596Y040996D01*
X061017Y040996D01*
X061017Y040816D02*
X060876Y040676D01*
X060876Y040746D02*
X060876Y040536D01*
X061017Y040536D02*
X060596Y040536D01*
X060596Y040746D01*
X060666Y040816D01*
X060806Y040816D01*
X060876Y040746D01*
X060666Y038784D02*
X060946Y038504D01*
X061017Y038504D01*
X061017Y038330D02*
X060876Y038120D01*
X060736Y038330D01*
X060596Y038504D02*
X060596Y038784D01*
X060666Y038784D01*
X060596Y038120D02*
X061017Y038120D01*
X061017Y037870D02*
X060596Y037870D01*
X060806Y037660D01*
X060806Y037940D01*
X060498Y030428D02*
X058198Y030428D01*
X058198Y022428D01*
X058948Y022428D01*
X058950Y022467D01*
X058956Y022506D01*
X058965Y022544D01*
X058978Y022581D01*
X058995Y022617D01*
X059015Y022650D01*
X059039Y022682D01*
X059065Y022711D01*
X059094Y022737D01*
X059126Y022761D01*
X059159Y022781D01*
X059195Y022798D01*
X059232Y022811D01*
X059270Y022820D01*
X059309Y022826D01*
X059348Y022828D01*
X059387Y022826D01*
X059426Y022820D01*
X059464Y022811D01*
X059501Y022798D01*
X059537Y022781D01*
X059570Y022761D01*
X059602Y022737D01*
X059631Y022711D01*
X059657Y022682D01*
X059681Y022650D01*
X059701Y022617D01*
X059718Y022581D01*
X059731Y022544D01*
X059740Y022506D01*
X059746Y022467D01*
X059748Y022428D01*
X060498Y022428D01*
X060498Y030428D01*
X056993Y029994D02*
X056993Y029854D01*
X056923Y029784D01*
X056853Y029784D01*
X056783Y029854D01*
X056783Y029994D01*
X056853Y030064D01*
X056923Y030064D01*
X056993Y029994D01*
X056783Y029994D02*
X056713Y030064D01*
X056643Y030064D01*
X056573Y029994D01*
X056573Y029854D01*
X056643Y029784D01*
X056713Y029784D01*
X056783Y029854D01*
X056643Y029603D02*
X056573Y029533D01*
X056573Y029393D01*
X056643Y029323D01*
X056923Y029323D01*
X056993Y029393D01*
X056993Y029533D01*
X056923Y029603D01*
X056993Y029156D02*
X056993Y029016D01*
X056993Y029086D02*
X056573Y029086D01*
X056573Y029016D02*
X056573Y029156D01*
X059138Y027021D02*
X059558Y027021D01*
X059138Y026741D01*
X059558Y026741D01*
X059488Y026560D02*
X059558Y026490D01*
X059558Y026350D01*
X059488Y026280D01*
X059418Y026280D01*
X059348Y026350D01*
X059348Y026490D01*
X059418Y026560D01*
X059488Y026560D01*
X059348Y026490D02*
X059278Y026560D01*
X059208Y026560D01*
X059138Y026490D01*
X059138Y026350D01*
X059208Y026280D01*
X059278Y026280D01*
X059348Y026350D01*
X059418Y026100D02*
X059488Y026100D01*
X059558Y026030D01*
X059558Y025890D01*
X059488Y025820D01*
X059558Y025640D02*
X059558Y025359D01*
X059558Y025500D02*
X059138Y025500D01*
X059278Y025359D01*
X059208Y025179D02*
X059138Y025109D01*
X059138Y024969D01*
X059208Y024899D01*
X059278Y024899D01*
X059348Y024969D01*
X059348Y025109D01*
X059418Y025179D01*
X059488Y025179D01*
X059558Y025109D01*
X059558Y024969D01*
X059488Y024899D01*
X059558Y024719D02*
X059558Y024439D01*
X059138Y024439D01*
X059138Y024189D02*
X059348Y023978D01*
X059348Y024259D01*
X059558Y024189D02*
X059138Y024189D01*
X059138Y023798D02*
X059208Y023798D01*
X059488Y023518D01*
X059558Y023518D01*
X059138Y023518D02*
X059138Y023798D01*
X058698Y021878D02*
X059998Y021878D01*
X060024Y021876D01*
X060050Y021871D01*
X060075Y021863D01*
X060098Y021851D01*
X060120Y021837D01*
X060139Y021819D01*
X060157Y021800D01*
X060171Y021778D01*
X060183Y021755D01*
X060191Y021730D01*
X060196Y021704D01*
X060198Y021678D01*
X059848Y021428D02*
X059478Y021428D01*
X059478Y021128D01*
X059228Y021128D02*
X059228Y021428D01*
X058848Y021428D01*
X058498Y021178D02*
X058500Y021152D01*
X058505Y021126D01*
X058513Y021101D01*
X058525Y021078D01*
X058539Y021056D01*
X058557Y021037D01*
X058576Y021019D01*
X058598Y021005D01*
X058621Y020993D01*
X058646Y020985D01*
X058672Y020980D01*
X058698Y020978D01*
X059998Y020978D01*
X060024Y020980D01*
X060050Y020985D01*
X060075Y020993D01*
X060098Y021005D01*
X060120Y021019D01*
X060139Y021037D01*
X060157Y021056D01*
X060171Y021078D01*
X060183Y021101D01*
X060191Y021126D01*
X060196Y021152D01*
X060198Y021178D01*
X059759Y020684D02*
X059619Y020684D01*
X059549Y020614D01*
X059549Y020333D01*
X059829Y020614D01*
X059829Y020333D01*
X059759Y020263D01*
X059619Y020263D01*
X059549Y020333D01*
X059369Y020333D02*
X059299Y020263D01*
X059158Y020263D01*
X059088Y020333D01*
X059369Y020614D01*
X059369Y020333D01*
X059369Y020614D02*
X059299Y020684D01*
X059158Y020684D01*
X059088Y020614D01*
X059088Y020333D01*
X058908Y020263D02*
X058628Y020263D01*
X058768Y020263D02*
X058768Y020684D01*
X058628Y020544D01*
X057778Y021031D02*
X057778Y021171D01*
X057708Y021241D01*
X057708Y021421D02*
X057778Y021491D01*
X057778Y021631D01*
X057708Y021701D01*
X057567Y021701D01*
X057497Y021631D01*
X057497Y021561D01*
X057567Y021421D01*
X057357Y021421D01*
X057357Y021701D01*
X057427Y021241D02*
X057357Y021171D01*
X057357Y021031D01*
X057427Y020961D01*
X057708Y020961D01*
X057778Y021031D01*
X058498Y021678D02*
X058500Y021704D01*
X058505Y021730D01*
X058513Y021755D01*
X058525Y021778D01*
X058539Y021800D01*
X058557Y021819D01*
X058576Y021837D01*
X058598Y021851D01*
X058621Y021863D01*
X058646Y021871D01*
X058672Y021876D01*
X058698Y021878D01*
X059228Y021728D02*
X059228Y021428D01*
X059478Y021428D02*
X059478Y021728D01*
X059759Y020684D02*
X059829Y020614D01*
X060009Y020544D02*
X060219Y020544D01*
X060289Y020473D01*
X060289Y020263D01*
X060009Y020263D02*
X060009Y020544D01*
X060498Y019428D02*
X058198Y019428D01*
X058198Y012428D01*
X058948Y012428D01*
X058950Y012467D01*
X058956Y012506D01*
X058965Y012544D01*
X058978Y012581D01*
X058995Y012617D01*
X059015Y012650D01*
X059039Y012682D01*
X059065Y012711D01*
X059094Y012737D01*
X059126Y012761D01*
X059159Y012781D01*
X059195Y012798D01*
X059232Y012811D01*
X059270Y012820D01*
X059309Y012826D01*
X059348Y012828D01*
X059387Y012826D01*
X059426Y012820D01*
X059464Y012811D01*
X059501Y012798D01*
X059537Y012781D01*
X059570Y012761D01*
X059602Y012737D01*
X059631Y012711D01*
X059657Y012682D01*
X059681Y012650D01*
X059701Y012617D01*
X059718Y012581D01*
X059731Y012544D01*
X059740Y012506D01*
X059746Y012467D01*
X059748Y012428D01*
X060498Y012428D01*
X060498Y019428D01*
X059558Y016360D02*
X059138Y016360D01*
X059138Y016080D02*
X059558Y016360D01*
X059558Y016080D02*
X059138Y016080D01*
X059208Y015900D02*
X059138Y015830D01*
X059138Y015690D01*
X059208Y015620D01*
X059208Y015440D02*
X059488Y015159D01*
X059558Y015229D01*
X059558Y015370D01*
X059488Y015440D01*
X059208Y015440D01*
X059138Y015370D01*
X059138Y015229D01*
X059208Y015159D01*
X059488Y015159D01*
X059488Y014979D02*
X059558Y014909D01*
X059558Y014769D01*
X059488Y014699D01*
X059348Y014769D02*
X059348Y014909D01*
X059418Y014979D01*
X059488Y014979D01*
X059348Y014769D02*
X059278Y014699D01*
X059208Y014699D01*
X059138Y014769D01*
X059138Y014909D01*
X059208Y014979D01*
X059558Y014519D02*
X059558Y014239D01*
X059138Y014239D01*
X059138Y013989D02*
X059348Y013778D01*
X059348Y014059D01*
X059558Y013989D02*
X059138Y013989D01*
X059138Y013598D02*
X059208Y013598D01*
X059488Y013318D01*
X059558Y013318D01*
X059138Y013318D02*
X059138Y013598D01*
X059558Y015620D02*
X059278Y015900D01*
X059208Y015900D01*
X059558Y015900D02*
X059558Y015620D01*
X056954Y018043D02*
X056954Y018183D01*
X056954Y018113D02*
X056534Y018113D01*
X056534Y018043D02*
X056534Y018183D01*
X056604Y018350D02*
X056884Y018350D01*
X056954Y018420D01*
X056954Y018560D01*
X056884Y018630D01*
X056884Y018810D02*
X056954Y018880D01*
X056954Y019020D01*
X056884Y019090D01*
X056604Y019090D01*
X056534Y019020D01*
X056534Y018880D01*
X056604Y018810D01*
X056674Y018810D01*
X056744Y018880D01*
X056744Y019090D01*
X056604Y018630D02*
X056534Y018560D01*
X056534Y018420D01*
X056604Y018350D01*
X051998Y019428D02*
X049698Y019428D01*
X049698Y012428D01*
X050448Y012428D01*
X050450Y012467D01*
X050456Y012506D01*
X050465Y012544D01*
X050478Y012581D01*
X050495Y012617D01*
X050515Y012650D01*
X050539Y012682D01*
X050565Y012711D01*
X050594Y012737D01*
X050626Y012761D01*
X050659Y012781D01*
X050695Y012798D01*
X050732Y012811D01*
X050770Y012820D01*
X050809Y012826D01*
X050848Y012828D01*
X050887Y012826D01*
X050926Y012820D01*
X050964Y012811D01*
X051001Y012798D01*
X051037Y012781D01*
X051070Y012761D01*
X051102Y012737D01*
X051131Y012711D01*
X051157Y012682D01*
X051181Y012650D01*
X051201Y012617D01*
X051218Y012581D01*
X051231Y012544D01*
X051240Y012506D01*
X051246Y012467D01*
X051248Y012428D01*
X051998Y012428D01*
X051998Y019428D01*
X051825Y020263D02*
X051825Y020473D01*
X051755Y020544D01*
X051545Y020544D01*
X051545Y020263D01*
X051364Y020333D02*
X051294Y020263D01*
X051154Y020263D01*
X051084Y020333D01*
X051364Y020614D01*
X051364Y020333D01*
X051084Y020333D02*
X051084Y020614D01*
X051154Y020684D01*
X051294Y020684D01*
X051364Y020614D01*
X051498Y020978D02*
X050198Y020978D01*
X050172Y020980D01*
X050146Y020985D01*
X050121Y020993D01*
X050098Y021005D01*
X050076Y021019D01*
X050057Y021037D01*
X050039Y021056D01*
X050025Y021078D01*
X050013Y021101D01*
X050005Y021126D01*
X050000Y021152D01*
X049998Y021178D01*
X050348Y021428D02*
X050728Y021428D01*
X050728Y021128D01*
X050978Y021128D02*
X050978Y021428D01*
X051348Y021428D01*
X051698Y021178D02*
X051696Y021152D01*
X051691Y021126D01*
X051683Y021101D01*
X051671Y021078D01*
X051657Y021056D01*
X051639Y021037D01*
X051620Y021019D01*
X051598Y021005D01*
X051575Y020993D01*
X051550Y020985D01*
X051524Y020980D01*
X051498Y020978D01*
X050978Y021428D02*
X050978Y021728D01*
X050728Y021728D02*
X050728Y021428D01*
X050198Y021878D02*
X050172Y021876D01*
X050146Y021871D01*
X050121Y021863D01*
X050098Y021851D01*
X050076Y021837D01*
X050057Y021819D01*
X050039Y021800D01*
X050025Y021778D01*
X050013Y021755D01*
X050005Y021730D01*
X050000Y021704D01*
X049998Y021678D01*
X050198Y021878D02*
X051498Y021878D01*
X051524Y021876D01*
X051550Y021871D01*
X051575Y021863D01*
X051598Y021851D01*
X051620Y021837D01*
X051639Y021819D01*
X051657Y021800D01*
X051671Y021778D01*
X051683Y021755D01*
X051691Y021730D01*
X051696Y021704D01*
X051698Y021678D01*
X050834Y020684D02*
X050904Y020614D01*
X050624Y020333D01*
X050694Y020263D01*
X050834Y020263D01*
X050904Y020333D01*
X050904Y020614D01*
X050834Y020684D02*
X050694Y020684D01*
X050624Y020614D01*
X050624Y020333D01*
X050444Y020263D02*
X050163Y020263D01*
X050304Y020263D02*
X050304Y020684D01*
X050163Y020544D01*
X049296Y020924D02*
X049296Y021064D01*
X049226Y021134D01*
X049296Y021314D02*
X049296Y021594D01*
X049296Y021454D02*
X048876Y021454D01*
X049016Y021314D01*
X048946Y021134D02*
X048876Y021064D01*
X048876Y020924D01*
X048946Y020854D01*
X049226Y020854D01*
X049296Y020924D01*
X049296Y021775D02*
X049016Y022055D01*
X048946Y022055D01*
X048876Y021985D01*
X048876Y021845D01*
X048946Y021775D01*
X049296Y021775D02*
X049296Y022055D01*
X049698Y022428D02*
X050448Y022428D01*
X050450Y022467D01*
X050456Y022506D01*
X050465Y022544D01*
X050478Y022581D01*
X050495Y022617D01*
X050515Y022650D01*
X050539Y022682D01*
X050565Y022711D01*
X050594Y022737D01*
X050626Y022761D01*
X050659Y022781D01*
X050695Y022798D01*
X050732Y022811D01*
X050770Y022820D01*
X050809Y022826D01*
X050848Y022828D01*
X050887Y022826D01*
X050926Y022820D01*
X050964Y022811D01*
X051001Y022798D01*
X051037Y022781D01*
X051070Y022761D01*
X051102Y022737D01*
X051131Y022711D01*
X051157Y022682D01*
X051181Y022650D01*
X051201Y022617D01*
X051218Y022581D01*
X051231Y022544D01*
X051240Y022506D01*
X051246Y022467D01*
X051248Y022428D01*
X051998Y022428D01*
X051998Y029428D01*
X049698Y029428D01*
X049698Y022428D01*
X050638Y023318D02*
X050638Y023598D01*
X050708Y023598D01*
X050988Y023318D01*
X051058Y023318D01*
X050848Y023778D02*
X050848Y024059D01*
X051058Y023989D02*
X050638Y023989D01*
X050848Y023778D01*
X051058Y024239D02*
X051058Y024519D01*
X050988Y024699D02*
X051058Y024769D01*
X051058Y024909D01*
X050988Y024979D01*
X050918Y024979D01*
X050848Y024909D01*
X050848Y024769D01*
X050778Y024699D01*
X050708Y024699D01*
X050638Y024769D01*
X050638Y024909D01*
X050708Y024979D01*
X050708Y025159D02*
X050638Y025229D01*
X050638Y025370D01*
X050708Y025440D01*
X050778Y025440D01*
X050848Y025370D01*
X050918Y025440D01*
X050988Y025440D01*
X051058Y025370D01*
X051058Y025229D01*
X050988Y025159D01*
X050848Y025300D02*
X050848Y025370D01*
X050708Y025620D02*
X050638Y025690D01*
X050638Y025830D01*
X050708Y025900D01*
X050778Y025900D01*
X051058Y025620D01*
X051058Y025900D01*
X051058Y026080D02*
X050638Y026080D01*
X051058Y026360D01*
X050638Y026360D01*
X048418Y027894D02*
X048418Y028034D01*
X048418Y027964D02*
X047998Y027964D01*
X047998Y027894D02*
X047998Y028034D01*
X048068Y028201D02*
X048348Y028201D01*
X048418Y028271D01*
X048418Y028411D01*
X048348Y028481D01*
X048348Y028661D02*
X048418Y028661D01*
X048348Y028661D02*
X048068Y028941D01*
X047998Y028941D01*
X047998Y028661D01*
X048068Y028481D02*
X047998Y028411D01*
X047998Y028271D01*
X048068Y028201D01*
X050638Y024239D02*
X051058Y024239D01*
X048419Y019055D02*
X048139Y019055D01*
X048419Y018774D01*
X048489Y018845D01*
X048489Y018985D01*
X048419Y019055D01*
X048139Y019055D02*
X048069Y018985D01*
X048069Y018845D01*
X048139Y018774D01*
X048419Y018774D01*
X048489Y018594D02*
X048489Y018314D01*
X048489Y018454D02*
X048069Y018454D01*
X048209Y018314D01*
X048139Y018134D02*
X048069Y018064D01*
X048069Y017924D01*
X048139Y017854D01*
X048419Y017854D01*
X048489Y017924D01*
X048489Y018064D01*
X048419Y018134D01*
X048489Y017687D02*
X048489Y017547D01*
X048489Y017617D02*
X048069Y017617D01*
X048069Y017547D02*
X048069Y017687D01*
X050638Y016360D02*
X051058Y016360D01*
X050638Y016080D01*
X051058Y016080D01*
X050988Y015900D02*
X051058Y015830D01*
X051058Y015690D01*
X050988Y015620D01*
X050918Y015620D01*
X050848Y015690D01*
X050848Y015830D01*
X050918Y015900D01*
X050988Y015900D01*
X050848Y015830D02*
X050778Y015900D01*
X050708Y015900D01*
X050638Y015830D01*
X050638Y015690D01*
X050708Y015620D01*
X050778Y015620D01*
X050848Y015690D01*
X050988Y015440D02*
X051058Y015370D01*
X051058Y015229D01*
X050988Y015159D01*
X050708Y015440D01*
X050988Y015440D01*
X050708Y015440D02*
X050638Y015370D01*
X050638Y015229D01*
X050708Y015159D01*
X050988Y015159D01*
X050988Y014979D02*
X051058Y014909D01*
X051058Y014769D01*
X050988Y014699D01*
X050848Y014769D02*
X050848Y014909D01*
X050918Y014979D01*
X050988Y014979D01*
X050848Y014769D02*
X050778Y014699D01*
X050708Y014699D01*
X050638Y014769D01*
X050638Y014909D01*
X050708Y014979D01*
X051058Y014519D02*
X051058Y014239D01*
X050638Y014239D01*
X050638Y013989D02*
X050848Y013778D01*
X050848Y014059D01*
X051058Y013989D02*
X050638Y013989D01*
X050638Y013598D02*
X050708Y013598D01*
X050988Y013318D01*
X051058Y013318D01*
X050638Y013318D02*
X050638Y013598D01*
X048308Y012079D02*
X048028Y011799D01*
X048308Y011799D01*
X048308Y012079D02*
X048028Y012079D01*
X047847Y012009D02*
X047567Y012009D01*
X047394Y012079D02*
X047184Y011939D01*
X047394Y011799D01*
X047567Y011799D02*
X047567Y012219D01*
X047847Y012219D02*
X047847Y011799D01*
X047184Y011799D02*
X047184Y012219D01*
X047003Y012149D02*
X047003Y012079D01*
X046933Y012009D01*
X046793Y012009D01*
X046723Y012079D01*
X046723Y012149D01*
X046793Y012219D01*
X046933Y012219D01*
X047003Y012149D01*
X046933Y012009D02*
X047003Y011939D01*
X047003Y011869D01*
X046933Y011799D01*
X046793Y011799D01*
X046723Y011869D01*
X046723Y011939D01*
X046793Y012009D01*
X046543Y011939D02*
X046473Y012009D01*
X046263Y012009D01*
X046263Y011869D01*
X046333Y011799D01*
X046473Y011799D01*
X046543Y011869D01*
X046543Y011939D01*
X046403Y012149D02*
X046263Y012009D01*
X046403Y012149D02*
X046543Y012219D01*
X046798Y012528D02*
X044648Y012528D01*
X044648Y012578D01*
X044648Y013278D01*
X044648Y013328D01*
X046798Y013328D01*
X046815Y013326D01*
X046832Y013322D01*
X046848Y013315D01*
X046862Y013305D01*
X046875Y013292D01*
X046885Y013278D01*
X046892Y013262D01*
X046896Y013245D01*
X046898Y013228D01*
X046898Y012628D01*
X046896Y012611D01*
X046892Y012594D01*
X046885Y012578D01*
X046875Y012564D01*
X046862Y012551D01*
X046848Y012541D01*
X046832Y012534D01*
X046815Y012530D01*
X046798Y012528D01*
X046148Y012928D02*
X045948Y012928D01*
X045948Y012728D01*
X045798Y012728D02*
X045798Y013128D01*
X045648Y013128D01*
X045648Y012728D01*
X045798Y012728D01*
X045948Y012928D02*
X045948Y013128D01*
X045498Y013128D02*
X045498Y012928D01*
X045498Y012728D01*
X045498Y012928D02*
X045298Y012928D01*
X045322Y012219D02*
X045182Y012219D01*
X045112Y012149D01*
X044932Y012149D02*
X044932Y012079D01*
X044862Y012009D01*
X044932Y011939D01*
X044932Y011869D01*
X044862Y011799D01*
X044722Y011799D01*
X044652Y011869D01*
X044792Y012009D02*
X044862Y012009D01*
X044932Y012149D02*
X044862Y012219D01*
X044722Y012219D01*
X044652Y012149D01*
X044648Y012578D02*
X044498Y012578D01*
X044498Y013278D01*
X044648Y013278D01*
X044348Y013128D02*
X044148Y013128D01*
X044148Y012728D02*
X044298Y012728D01*
X045322Y012219D02*
X045392Y012149D01*
X045392Y012079D01*
X045112Y011799D01*
X045392Y011799D01*
X045572Y011799D02*
X045642Y011799D01*
X045642Y011869D01*
X045572Y011869D01*
X045572Y011799D01*
X045803Y011799D02*
X045803Y011869D01*
X046083Y012149D01*
X046083Y012219D01*
X045803Y012219D01*
X045392Y013767D02*
X045112Y013767D01*
X045252Y013767D02*
X045252Y014188D01*
X045112Y014047D01*
X044932Y014118D02*
X044932Y013837D01*
X044862Y013767D01*
X044722Y013767D01*
X044652Y013837D01*
X044652Y014118D01*
X044722Y014188D01*
X044862Y014188D01*
X044932Y014118D01*
X044792Y013907D02*
X044932Y013767D01*
X048876Y011682D02*
X049086Y011472D01*
X049086Y011752D01*
X049296Y011682D02*
X048876Y011682D01*
X048946Y011292D02*
X048876Y011221D01*
X048876Y011081D01*
X048946Y011011D01*
X049226Y011011D01*
X049296Y011081D01*
X049296Y011221D01*
X049226Y011292D01*
X049998Y011178D02*
X050000Y011152D01*
X050005Y011126D01*
X050013Y011101D01*
X050025Y011078D01*
X050039Y011056D01*
X050057Y011037D01*
X050076Y011019D01*
X050098Y011005D01*
X050121Y010993D01*
X050146Y010985D01*
X050172Y010980D01*
X050198Y010978D01*
X051498Y010978D01*
X051524Y010980D01*
X051550Y010985D01*
X051575Y010993D01*
X051598Y011005D01*
X051620Y011019D01*
X051639Y011037D01*
X051657Y011056D01*
X051671Y011078D01*
X051683Y011101D01*
X051691Y011126D01*
X051696Y011152D01*
X051698Y011178D01*
X051348Y011428D02*
X050978Y011428D01*
X050978Y011128D01*
X050728Y011128D02*
X050728Y011428D01*
X050348Y011428D01*
X049998Y011678D02*
X050000Y011704D01*
X050005Y011730D01*
X050013Y011755D01*
X050025Y011778D01*
X050039Y011800D01*
X050057Y011819D01*
X050076Y011837D01*
X050098Y011851D01*
X050121Y011863D01*
X050146Y011871D01*
X050172Y011876D01*
X050198Y011878D01*
X051498Y011878D01*
X051524Y011876D01*
X051550Y011871D01*
X051575Y011863D01*
X051598Y011851D01*
X051620Y011837D01*
X051639Y011819D01*
X051657Y011800D01*
X051671Y011778D01*
X051683Y011755D01*
X051691Y011730D01*
X051696Y011704D01*
X051698Y011678D01*
X050978Y011728D02*
X050978Y011428D01*
X050728Y011428D02*
X050728Y011728D01*
X050694Y010644D02*
X050834Y010644D01*
X050904Y010574D01*
X050624Y010294D01*
X050694Y010224D01*
X050834Y010224D01*
X050904Y010294D01*
X050904Y010574D01*
X051084Y010574D02*
X051154Y010644D01*
X051294Y010644D01*
X051364Y010574D01*
X051084Y010294D01*
X051154Y010224D01*
X051294Y010224D01*
X051364Y010294D01*
X051364Y010574D01*
X051545Y010504D02*
X051755Y010504D01*
X051825Y010434D01*
X051825Y010224D01*
X051545Y010224D02*
X051545Y010504D01*
X051084Y010574D02*
X051084Y010294D01*
X050624Y010294D02*
X050624Y010574D01*
X050694Y010644D01*
X050304Y010644D02*
X050304Y010224D01*
X050444Y010224D02*
X050163Y010224D01*
X050163Y010504D02*
X050304Y010644D01*
X057318Y010991D02*
X057388Y010921D01*
X057668Y010921D01*
X057738Y010991D01*
X057738Y011131D01*
X057668Y011201D01*
X057668Y011382D02*
X057738Y011452D01*
X057738Y011592D01*
X057668Y011662D01*
X057598Y011662D01*
X057528Y011592D01*
X057528Y011522D01*
X057528Y011592D02*
X057458Y011662D01*
X057388Y011662D01*
X057318Y011592D01*
X057318Y011452D01*
X057388Y011382D01*
X057388Y011201D02*
X057318Y011131D01*
X057318Y010991D01*
X058698Y010978D02*
X059998Y010978D01*
X060024Y010980D01*
X060050Y010985D01*
X060075Y010993D01*
X060098Y011005D01*
X060120Y011019D01*
X060139Y011037D01*
X060157Y011056D01*
X060171Y011078D01*
X060183Y011101D01*
X060191Y011126D01*
X060196Y011152D01*
X060198Y011178D01*
X059848Y011428D02*
X059478Y011428D01*
X059478Y011128D01*
X059228Y011128D02*
X059228Y011428D01*
X058848Y011428D01*
X058498Y011178D02*
X058500Y011152D01*
X058505Y011126D01*
X058513Y011101D01*
X058525Y011078D01*
X058539Y011056D01*
X058557Y011037D01*
X058576Y011019D01*
X058598Y011005D01*
X058621Y010993D01*
X058646Y010985D01*
X058672Y010980D01*
X058698Y010978D01*
X058768Y010644D02*
X058768Y010224D01*
X058628Y010224D02*
X058908Y010224D01*
X059088Y010294D02*
X059369Y010574D01*
X059369Y010294D01*
X059299Y010224D01*
X059158Y010224D01*
X059088Y010294D01*
X059088Y010574D01*
X059158Y010644D01*
X059299Y010644D01*
X059369Y010574D01*
X059549Y010574D02*
X059619Y010644D01*
X059759Y010644D01*
X059829Y010574D01*
X059549Y010294D01*
X059619Y010224D01*
X059759Y010224D01*
X059829Y010294D01*
X059829Y010574D01*
X060009Y010504D02*
X060219Y010504D01*
X060289Y010434D01*
X060289Y010224D01*
X060009Y010224D02*
X060009Y010504D01*
X059549Y010574D02*
X059549Y010294D01*
X058768Y010644D02*
X058628Y010504D01*
X059228Y011428D02*
X059228Y011728D01*
X059478Y011728D02*
X059478Y011428D01*
X059998Y011878D02*
X060024Y011876D01*
X060050Y011871D01*
X060075Y011863D01*
X060098Y011851D01*
X060120Y011837D01*
X060139Y011819D01*
X060157Y011800D01*
X060171Y011778D01*
X060183Y011755D01*
X060191Y011730D01*
X060196Y011704D01*
X060198Y011678D01*
X059998Y011878D02*
X058698Y011878D01*
X058672Y011876D01*
X058646Y011871D01*
X058621Y011863D01*
X058598Y011851D01*
X058576Y011837D01*
X058557Y011819D01*
X058539Y011800D01*
X058525Y011778D01*
X058513Y011755D01*
X058505Y011730D01*
X058500Y011704D01*
X058498Y011678D01*
X060667Y009266D02*
X060597Y009196D01*
X060597Y008916D01*
X060667Y008846D01*
X060807Y008846D01*
X060877Y008916D01*
X061057Y008846D02*
X061337Y008846D01*
X061197Y008846D02*
X061197Y009266D01*
X061057Y009126D01*
X060877Y009196D02*
X060807Y009266D01*
X060667Y009266D01*
X061517Y009126D02*
X061657Y009266D01*
X061657Y008846D01*
X061517Y008846D02*
X061797Y008846D01*
X062948Y009528D02*
X063148Y009528D01*
X063148Y009928D01*
X063148Y010328D01*
X062948Y010328D01*
X062948Y009528D01*
X063248Y009678D02*
X063448Y009678D01*
X063348Y009778D02*
X063348Y009578D01*
X063398Y009928D02*
X063148Y009928D01*
X063697Y010457D02*
X063663Y010508D01*
X063626Y010557D01*
X063585Y010603D01*
X063543Y010647D01*
X063497Y010689D01*
X063449Y010727D01*
X063399Y010763D01*
X063347Y010795D01*
X063293Y010824D01*
X063237Y010849D01*
X063179Y010871D01*
X063121Y010890D01*
X063061Y010905D01*
X063001Y010916D01*
X062940Y010924D01*
X062879Y010928D01*
X062817Y010928D01*
X062756Y010924D01*
X062695Y010916D01*
X062635Y010905D01*
X062575Y010890D01*
X062517Y010871D01*
X062459Y010849D01*
X062403Y010824D01*
X062349Y010795D01*
X062297Y010763D01*
X062247Y010727D01*
X062199Y010689D01*
X062153Y010647D01*
X062111Y010603D01*
X062070Y010557D01*
X062033Y010508D01*
X061999Y010457D01*
X062298Y009928D02*
X062598Y009928D01*
X061999Y009399D02*
X062033Y009348D01*
X062070Y009299D01*
X062111Y009253D01*
X062153Y009209D01*
X062199Y009167D01*
X062247Y009129D01*
X062297Y009093D01*
X062349Y009061D01*
X062403Y009032D01*
X062459Y009007D01*
X062517Y008985D01*
X062575Y008966D01*
X062635Y008951D01*
X062695Y008940D01*
X062756Y008932D01*
X062817Y008928D01*
X062879Y008928D01*
X062940Y008932D01*
X063001Y008940D01*
X063061Y008951D01*
X063121Y008966D01*
X063179Y008985D01*
X063237Y009007D01*
X063293Y009032D01*
X063347Y009061D01*
X063399Y009093D01*
X063449Y009129D01*
X063497Y009167D01*
X063543Y009209D01*
X063585Y009253D01*
X063626Y009299D01*
X063663Y009348D01*
X063697Y009399D01*
X063943Y009126D02*
X064083Y009266D01*
X064083Y008846D01*
X063943Y008846D02*
X064223Y008846D01*
X064403Y008916D02*
X064684Y009196D01*
X064684Y008916D01*
X064614Y008846D01*
X064473Y008846D01*
X064403Y008916D01*
X064403Y009196D01*
X064473Y009266D01*
X064614Y009266D01*
X064684Y009196D01*
X064864Y009126D02*
X064864Y008916D01*
X064934Y008846D01*
X065144Y008846D01*
X065144Y009126D01*
X065324Y009056D02*
X065464Y009056D01*
X065324Y008846D02*
X065324Y009266D01*
X065604Y009266D01*
X059208Y025820D02*
X059138Y025890D01*
X059138Y026030D01*
X059208Y026100D01*
X059278Y026100D01*
X059348Y026030D01*
X059418Y026100D01*
X059348Y026030D02*
X059348Y025960D01*
X039678Y015751D02*
X039678Y015544D01*
X039574Y015441D01*
X039368Y015441D02*
X039264Y015647D01*
X039264Y015751D01*
X039368Y015854D01*
X039574Y015854D01*
X039678Y015751D01*
X039368Y015441D02*
X039057Y015441D01*
X039057Y015854D01*
X039368Y015210D02*
X039368Y014796D01*
X039057Y015106D01*
X039678Y015106D01*
X039574Y014565D02*
X039678Y014462D01*
X039678Y014255D01*
X039574Y014152D01*
X039471Y014152D01*
X039368Y014255D01*
X039368Y014462D01*
X039471Y014565D01*
X039574Y014565D01*
X039368Y014462D02*
X039264Y014565D01*
X039161Y014565D01*
X039057Y014462D01*
X039057Y014255D01*
X039161Y014152D01*
X039264Y014152D01*
X039368Y014255D01*
X039368Y013921D02*
X039368Y013507D01*
X039057Y013817D01*
X039678Y013817D01*
X039678Y013276D02*
X039471Y013069D01*
X039574Y012863D02*
X039678Y012966D01*
X039678Y013173D01*
X039574Y013276D01*
X039161Y013276D01*
X039057Y013173D01*
X039057Y012966D01*
X039161Y012863D01*
X039574Y012863D01*
X039574Y012632D02*
X039678Y012528D01*
X039678Y012218D01*
X039057Y012218D01*
X039057Y012528D01*
X039161Y012632D01*
X039264Y012632D01*
X039368Y012528D01*
X039368Y012218D01*
X039368Y012528D02*
X039471Y012632D01*
X039574Y012632D01*
X040169Y010495D02*
X040376Y010495D01*
X040272Y010495D02*
X040272Y009874D01*
X040169Y009874D02*
X040376Y009874D01*
X040599Y009978D02*
X040599Y010391D01*
X040702Y010495D01*
X040909Y010495D01*
X041012Y010391D01*
X041243Y010288D02*
X041450Y010495D01*
X041450Y009874D01*
X041243Y009874D02*
X041657Y009874D01*
X041012Y009978D02*
X040909Y009874D01*
X040702Y009874D01*
X040599Y009978D01*
X039226Y008859D02*
X039226Y008649D01*
X039226Y008859D02*
X039156Y008929D01*
X038946Y008929D01*
X038946Y008649D01*
X038766Y008719D02*
X038696Y008649D01*
X038556Y008649D01*
X038486Y008719D01*
X038766Y008999D01*
X038766Y008719D01*
X038486Y008719D02*
X038486Y008999D01*
X038556Y009069D01*
X038696Y009069D01*
X038766Y008999D01*
X038306Y008999D02*
X038025Y008719D01*
X038095Y008649D01*
X038236Y008649D01*
X038306Y008719D01*
X038306Y008999D01*
X038236Y009069D01*
X038095Y009069D01*
X038025Y008999D01*
X038025Y008719D01*
X037845Y008649D02*
X037565Y008649D01*
X037705Y008649D02*
X037705Y009069D01*
X037565Y008929D01*
X037698Y009478D02*
X038998Y009478D01*
X039024Y009480D01*
X039050Y009485D01*
X039075Y009493D01*
X039098Y009505D01*
X039120Y009519D01*
X039139Y009537D01*
X039157Y009556D01*
X039171Y009578D01*
X039183Y009601D01*
X039191Y009626D01*
X039196Y009652D01*
X039198Y009678D01*
X038848Y009928D02*
X038478Y009928D01*
X038478Y009628D01*
X038228Y009628D02*
X038228Y009928D01*
X037848Y009928D01*
X037498Y009678D02*
X037500Y009652D01*
X037505Y009626D01*
X037513Y009601D01*
X037525Y009578D01*
X037539Y009556D01*
X037557Y009537D01*
X037576Y009519D01*
X037598Y009505D01*
X037621Y009493D01*
X037646Y009485D01*
X037672Y009480D01*
X037698Y009478D01*
X038228Y009928D02*
X038228Y010228D01*
X038478Y010228D02*
X038478Y009928D01*
X038998Y010378D02*
X039024Y010376D01*
X039050Y010371D01*
X039075Y010363D01*
X039098Y010351D01*
X039120Y010337D01*
X039139Y010319D01*
X039157Y010300D01*
X039171Y010278D01*
X039183Y010255D01*
X039191Y010230D01*
X039196Y010204D01*
X039198Y010178D01*
X038998Y010378D02*
X037698Y010378D01*
X037672Y010376D01*
X037646Y010371D01*
X037621Y010363D01*
X037598Y010351D01*
X037576Y010337D01*
X037557Y010319D01*
X037539Y010300D01*
X037525Y010278D01*
X037513Y010255D01*
X037505Y010230D01*
X037500Y010204D01*
X037498Y010178D01*
X036797Y010150D02*
X036797Y009870D01*
X036797Y010010D02*
X036377Y010010D01*
X036517Y009870D01*
X036447Y009690D02*
X036377Y009620D01*
X036377Y009479D01*
X036447Y009409D01*
X036727Y009409D01*
X036797Y009479D01*
X036797Y009620D01*
X036727Y009690D01*
X030595Y013177D02*
X030595Y013457D01*
X030595Y013317D02*
X030175Y013317D01*
X030315Y013177D01*
X030245Y013637D02*
X030175Y013707D01*
X030175Y013847D01*
X030245Y013917D01*
X030525Y013637D01*
X030595Y013707D01*
X030595Y013847D01*
X030525Y013917D01*
X030245Y013917D01*
X030245Y014097D02*
X030175Y014167D01*
X030175Y014308D01*
X030245Y014378D01*
X030525Y014097D01*
X030595Y014167D01*
X030595Y014308D01*
X030525Y014378D01*
X030245Y014378D01*
X030315Y014558D02*
X030315Y014768D01*
X030385Y014838D01*
X030595Y014838D01*
X030595Y014558D02*
X030315Y014558D01*
X030245Y014097D02*
X030525Y014097D01*
X030525Y013637D02*
X030245Y013637D01*
X029798Y013278D02*
X029798Y014578D01*
X029796Y014604D01*
X029791Y014630D01*
X029783Y014655D01*
X029771Y014678D01*
X029757Y014700D01*
X029739Y014719D01*
X029720Y014737D01*
X029698Y014751D01*
X029675Y014763D01*
X029650Y014771D01*
X029624Y014776D01*
X029598Y014778D01*
X029348Y014428D02*
X029348Y014058D01*
X029648Y014058D01*
X029648Y013808D02*
X029348Y013808D01*
X029348Y013428D01*
X029598Y013078D02*
X029624Y013080D01*
X029650Y013085D01*
X029675Y013093D01*
X029698Y013105D01*
X029720Y013119D01*
X029739Y013137D01*
X029757Y013156D01*
X029771Y013178D01*
X029783Y013201D01*
X029791Y013226D01*
X029796Y013252D01*
X029798Y013278D01*
X029348Y013808D02*
X029048Y013808D01*
X029048Y014058D02*
X029348Y014058D01*
X028898Y014578D02*
X028900Y014604D01*
X028905Y014630D01*
X028913Y014655D01*
X028925Y014678D01*
X028939Y014700D01*
X028957Y014719D01*
X028976Y014737D01*
X028998Y014751D01*
X029021Y014763D01*
X029046Y014771D01*
X029072Y014776D01*
X029098Y014778D01*
X028898Y014578D02*
X028898Y013278D01*
X028900Y013252D01*
X028905Y013226D01*
X028913Y013201D01*
X028925Y013178D01*
X028939Y013156D01*
X028957Y013137D01*
X028976Y013119D01*
X028998Y013105D01*
X029021Y013093D01*
X029046Y013085D01*
X029072Y013080D01*
X029098Y013078D01*
X028348Y013278D02*
X028348Y014028D01*
X028309Y014030D01*
X028270Y014036D01*
X028232Y014045D01*
X028195Y014058D01*
X028159Y014075D01*
X028126Y014095D01*
X028094Y014119D01*
X028065Y014145D01*
X028039Y014174D01*
X028015Y014206D01*
X027995Y014239D01*
X027978Y014275D01*
X027965Y014312D01*
X027956Y014350D01*
X027950Y014389D01*
X027948Y014428D01*
X027950Y014467D01*
X027956Y014506D01*
X027965Y014544D01*
X027978Y014581D01*
X027995Y014617D01*
X028015Y014650D01*
X028039Y014682D01*
X028065Y014711D01*
X028094Y014737D01*
X028126Y014761D01*
X028159Y014781D01*
X028195Y014798D01*
X028232Y014811D01*
X028270Y014820D01*
X028309Y014826D01*
X028348Y014828D01*
X028348Y015578D01*
X021348Y015578D01*
X021348Y013278D01*
X028348Y013278D01*
X028974Y012416D02*
X028904Y012346D01*
X028904Y012066D01*
X028974Y011996D01*
X029114Y011996D01*
X029184Y012066D01*
X029364Y012066D02*
X029364Y011996D01*
X029364Y012066D02*
X029644Y012346D01*
X029644Y012416D01*
X029364Y012416D01*
X029184Y012346D02*
X029114Y012416D01*
X028974Y012416D01*
X027358Y014218D02*
X027358Y014638D01*
X027077Y014638D02*
X027358Y014218D01*
X027077Y014218D02*
X027077Y014638D01*
X026897Y014568D02*
X026827Y014638D01*
X026687Y014638D01*
X026617Y014568D01*
X026437Y014568D02*
X026437Y014498D01*
X026367Y014428D01*
X026437Y014358D01*
X026437Y014288D01*
X026367Y014218D01*
X026227Y014218D01*
X026157Y014288D01*
X025976Y014288D02*
X025906Y014218D01*
X025766Y014218D01*
X025696Y014288D01*
X025766Y014428D02*
X025906Y014428D01*
X025976Y014358D01*
X025976Y014288D01*
X025766Y014428D02*
X025696Y014498D01*
X025696Y014568D01*
X025766Y014638D01*
X025906Y014638D01*
X025976Y014568D01*
X026157Y014568D02*
X026227Y014638D01*
X026367Y014638D01*
X026437Y014568D01*
X026367Y014428D02*
X026297Y014428D01*
X026617Y014218D02*
X026897Y014498D01*
X026897Y014568D01*
X026897Y014218D02*
X026617Y014218D01*
X025516Y014218D02*
X025236Y014218D01*
X025236Y014638D01*
X024986Y014638D02*
X024776Y014428D01*
X025056Y014428D01*
X024986Y014218D02*
X024986Y014638D01*
X024595Y014638D02*
X024595Y014568D01*
X024315Y014288D01*
X024315Y014218D01*
X024315Y014638D02*
X024595Y014638D01*
X020922Y014622D02*
X020922Y014762D01*
X020922Y014692D02*
X020501Y014692D01*
X020501Y014622D02*
X020501Y014762D01*
X020571Y014929D02*
X020852Y014929D01*
X020922Y014999D01*
X020922Y015139D01*
X020852Y015209D01*
X020852Y015390D02*
X020922Y015460D01*
X020922Y015600D01*
X020852Y015670D01*
X020711Y015670D01*
X020641Y015600D01*
X020641Y015530D01*
X020711Y015390D01*
X020501Y015390D01*
X020501Y015670D01*
X020571Y015209D02*
X020501Y015139D01*
X020501Y014999D01*
X020571Y014929D01*
X017248Y017028D02*
X017248Y017178D01*
X017198Y017228D01*
X017198Y018628D01*
X017248Y018678D01*
X017248Y018828D01*
X017246Y018845D01*
X017242Y018862D01*
X017235Y018878D01*
X017225Y018892D01*
X017212Y018905D01*
X017198Y018915D01*
X017182Y018922D01*
X017165Y018926D01*
X017148Y018928D01*
X016548Y018928D01*
X016531Y018926D01*
X016514Y018922D01*
X016498Y018915D01*
X016484Y018905D01*
X016471Y018892D01*
X016461Y018878D01*
X016454Y018862D01*
X016450Y018845D01*
X016448Y018828D01*
X016448Y018678D01*
X016498Y018628D01*
X016498Y017228D01*
X016448Y017178D01*
X016448Y017028D01*
X016450Y017011D01*
X016454Y016994D01*
X016461Y016978D01*
X016471Y016964D01*
X016484Y016951D01*
X016498Y016941D01*
X016514Y016934D01*
X016531Y016930D01*
X016548Y016928D01*
X017148Y016928D01*
X017165Y016930D01*
X017182Y016934D01*
X017198Y016941D01*
X017212Y016951D01*
X017225Y016964D01*
X017235Y016978D01*
X017242Y016994D01*
X017246Y017011D01*
X017248Y017028D01*
X017008Y017591D02*
X016801Y017797D01*
X016749Y017797D01*
X016698Y017746D01*
X016698Y017642D01*
X016749Y017591D01*
X017008Y017591D02*
X017008Y017797D01*
X017008Y017950D02*
X016698Y017950D01*
X016801Y018105D02*
X016904Y017950D01*
X017008Y018105D01*
X017008Y018249D02*
X016801Y018456D01*
X016749Y018456D01*
X016698Y018404D01*
X016698Y018301D01*
X016749Y018249D01*
X017008Y018249D02*
X017008Y018456D01*
X017398Y018405D02*
X017449Y018457D01*
X017553Y018457D01*
X017604Y018405D01*
X017604Y018250D01*
X017604Y018353D02*
X017708Y018457D01*
X017656Y018609D02*
X017708Y018661D01*
X017708Y018764D01*
X017656Y018816D01*
X017604Y018816D01*
X017553Y018764D01*
X017553Y018712D01*
X017553Y018764D02*
X017501Y018816D01*
X017449Y018816D01*
X017398Y018764D01*
X017398Y018661D01*
X017449Y018609D01*
X017398Y018405D02*
X017398Y018250D01*
X017708Y018250D01*
X017598Y020028D02*
X017648Y020078D01*
X019048Y020078D01*
X019098Y020028D01*
X019248Y020028D01*
X019265Y020030D01*
X019282Y020034D01*
X019298Y020041D01*
X019312Y020051D01*
X019325Y020064D01*
X019335Y020078D01*
X019342Y020094D01*
X019346Y020111D01*
X019348Y020128D01*
X019348Y020728D01*
X019346Y020745D01*
X019342Y020762D01*
X019335Y020778D01*
X019325Y020792D01*
X019312Y020805D01*
X019298Y020815D01*
X019282Y020822D01*
X019265Y020826D01*
X019248Y020828D01*
X019098Y020828D01*
X019048Y020778D01*
X017648Y020778D01*
X017598Y020828D01*
X017448Y020828D01*
X017431Y020826D01*
X017414Y020822D01*
X017398Y020815D01*
X017384Y020805D01*
X017371Y020792D01*
X017361Y020778D01*
X017354Y020762D01*
X017350Y020745D01*
X017348Y020728D01*
X017348Y020128D01*
X017350Y020111D01*
X017354Y020094D01*
X017361Y020078D01*
X017371Y020064D01*
X017384Y020051D01*
X017398Y020041D01*
X017414Y020034D01*
X017431Y020030D01*
X017448Y020028D01*
X017598Y020028D01*
X017748Y020278D02*
X017955Y020485D01*
X017955Y020537D01*
X017903Y020588D01*
X017800Y020588D01*
X017748Y020537D01*
X017748Y020278D02*
X017955Y020278D01*
X018107Y020278D02*
X018107Y020588D01*
X018262Y020485D02*
X018107Y020381D01*
X018262Y020278D01*
X018406Y020278D02*
X018613Y020485D01*
X018613Y020537D01*
X018561Y020588D01*
X018458Y020588D01*
X018406Y020537D01*
X018406Y020278D02*
X018613Y020278D01*
X017747Y020978D02*
X017747Y021030D01*
X017954Y021237D01*
X017954Y021288D01*
X017747Y021288D01*
X017595Y021237D02*
X017595Y021133D01*
X017543Y021081D01*
X017388Y021081D01*
X017388Y020978D02*
X017388Y021288D01*
X017543Y021288D01*
X017595Y021237D01*
X017491Y021081D02*
X017595Y020978D01*
X020651Y023807D02*
X020651Y023948D01*
X020651Y023877D02*
X021071Y023877D01*
X021071Y023807D02*
X021071Y023948D01*
X021001Y024114D02*
X021071Y024184D01*
X021071Y024324D01*
X021001Y024395D01*
X021001Y024575D02*
X021071Y024645D01*
X021071Y024785D01*
X021001Y024855D01*
X020931Y024855D01*
X020861Y024785D01*
X020861Y024575D01*
X021001Y024575D01*
X020861Y024575D02*
X020721Y024715D01*
X020651Y024855D01*
X020721Y024395D02*
X020651Y024324D01*
X020651Y024184D01*
X020721Y024114D01*
X021001Y024114D01*
X020969Y028925D02*
X021110Y028925D01*
X021180Y028995D01*
X021180Y029275D01*
X021110Y029345D01*
X020969Y029345D01*
X020899Y029275D01*
X020899Y029205D01*
X020969Y029135D01*
X021180Y029135D01*
X020969Y028925D02*
X020899Y028995D01*
X020719Y028995D02*
X020649Y028925D01*
X020509Y028925D01*
X020439Y028995D01*
X020439Y029275D01*
X020509Y029345D01*
X020649Y029345D01*
X020719Y029275D01*
X019791Y029839D02*
X019651Y029979D01*
X017893Y033132D02*
X017683Y033342D01*
X018103Y033342D01*
X017893Y033412D02*
X017893Y033132D01*
X017963Y033592D02*
X017823Y033803D01*
X017683Y033976D02*
X017683Y034256D01*
X017753Y034256D01*
X018033Y033976D01*
X018103Y033976D01*
X018103Y033803D02*
X017963Y033592D01*
X018103Y033592D02*
X017683Y033592D01*
X017683Y035418D02*
X017683Y035628D01*
X017753Y035698D01*
X017893Y035698D01*
X017963Y035628D01*
X017963Y035418D01*
X017963Y035558D02*
X018103Y035698D01*
X018103Y035878D02*
X017683Y035878D01*
X018103Y036158D01*
X017683Y036158D01*
X017753Y036338D02*
X017683Y036408D01*
X017683Y036548D01*
X017753Y036619D01*
X017823Y036619D01*
X017893Y036548D01*
X017963Y036619D01*
X018033Y036619D01*
X018103Y036548D01*
X018103Y036408D01*
X018033Y036338D01*
X017893Y036478D02*
X017893Y036548D01*
X018103Y035418D02*
X017683Y035418D01*
X016728Y037836D02*
X016728Y038043D01*
X016728Y037939D02*
X016108Y037939D01*
X016108Y037836D02*
X016108Y038043D01*
X016108Y038266D02*
X016108Y038576D01*
X016211Y038679D01*
X016625Y038679D01*
X016728Y038576D01*
X016728Y038266D01*
X016108Y038266D01*
X016108Y038910D02*
X016728Y038910D01*
X016728Y039324D01*
X016418Y039117D02*
X016418Y038910D01*
X016108Y038910D02*
X016108Y039324D01*
X014558Y038288D02*
X014558Y038008D01*
X014278Y038288D01*
X014208Y038288D01*
X014138Y038218D01*
X014138Y038078D01*
X014208Y038008D01*
X013558Y038008D02*
X013558Y038288D01*
X013558Y038148D02*
X013138Y038148D01*
X013278Y038008D01*
X009926Y038000D02*
X009926Y037719D01*
X009646Y038000D01*
X009576Y038000D01*
X009506Y037930D01*
X009506Y037789D01*
X009576Y037719D01*
X009506Y037539D02*
X009926Y037539D01*
X009506Y037259D01*
X009926Y037259D01*
X009926Y037079D02*
X009786Y036939D01*
X009786Y037009D02*
X009786Y036799D01*
X009926Y036799D02*
X009506Y036799D01*
X009506Y037009D01*
X009576Y037079D01*
X009716Y037079D01*
X009786Y037009D01*
X009576Y035758D02*
X009856Y035477D01*
X009926Y035477D01*
X009926Y035304D02*
X009786Y035094D01*
X009646Y035304D01*
X009506Y035477D02*
X009506Y035758D01*
X009576Y035758D01*
X009506Y035094D02*
X009926Y035094D01*
X009926Y034844D02*
X009506Y034844D01*
X009716Y034633D01*
X009716Y034914D01*
X019698Y038978D02*
X020998Y038978D01*
X021024Y038980D01*
X021050Y038985D01*
X021075Y038993D01*
X021098Y039005D01*
X021120Y039019D01*
X021139Y039037D01*
X021157Y039056D01*
X021171Y039078D01*
X021183Y039101D01*
X021191Y039126D01*
X021196Y039152D01*
X021198Y039178D01*
X020848Y039428D02*
X020468Y039428D01*
X020468Y039728D01*
X020218Y039728D02*
X020218Y039428D01*
X019848Y039428D01*
X019498Y039178D02*
X019500Y039152D01*
X019505Y039126D01*
X019513Y039101D01*
X019525Y039078D01*
X019539Y039056D01*
X019557Y039037D01*
X019576Y039019D01*
X019598Y039005D01*
X019621Y038993D01*
X019646Y038985D01*
X019672Y038980D01*
X019698Y038978D01*
X020218Y039128D02*
X020218Y039428D01*
X020468Y039428D02*
X020468Y039128D01*
X020516Y038688D02*
X020376Y038688D01*
X020306Y038618D01*
X020306Y038337D01*
X020376Y038267D01*
X020516Y038267D01*
X020586Y038337D01*
X020766Y038337D02*
X020766Y038407D01*
X020836Y038477D01*
X020976Y038477D01*
X021046Y038407D01*
X021046Y038337D01*
X020976Y038267D01*
X020836Y038267D01*
X020766Y038337D01*
X020836Y038477D02*
X020766Y038547D01*
X020766Y038618D01*
X020836Y038688D01*
X020976Y038688D01*
X021046Y038618D01*
X021046Y038547D01*
X020976Y038477D01*
X020586Y038618D02*
X020516Y038688D01*
X021190Y037846D02*
X021260Y037846D01*
X021330Y037776D01*
X021400Y037846D01*
X021470Y037846D01*
X021540Y037776D01*
X021540Y037636D01*
X021470Y037566D01*
X021470Y037386D02*
X021540Y037316D01*
X021540Y037176D01*
X021470Y037106D01*
X021190Y037106D01*
X021120Y037176D01*
X021120Y037316D01*
X021190Y037386D01*
X021190Y037566D02*
X021120Y037636D01*
X021120Y037776D01*
X021190Y037846D01*
X021330Y037776D02*
X021330Y037706D01*
X021848Y037528D02*
X021848Y036778D01*
X031848Y036778D01*
X031848Y039078D01*
X021848Y039078D01*
X021848Y038328D01*
X021887Y038326D01*
X021926Y038320D01*
X021964Y038311D01*
X022001Y038298D01*
X022037Y038281D01*
X022070Y038261D01*
X022102Y038237D01*
X022131Y038211D01*
X022157Y038182D01*
X022181Y038150D01*
X022201Y038117D01*
X022218Y038081D01*
X022231Y038044D01*
X022240Y038006D01*
X022246Y037967D01*
X022248Y037928D01*
X022246Y037889D01*
X022240Y037850D01*
X022231Y037812D01*
X022218Y037775D01*
X022201Y037739D01*
X022181Y037706D01*
X022157Y037674D01*
X022131Y037645D01*
X022102Y037619D01*
X022070Y037595D01*
X022037Y037575D01*
X022001Y037558D01*
X021964Y037545D01*
X021926Y037536D01*
X021887Y037530D01*
X021848Y037528D01*
X021540Y036939D02*
X021540Y036799D01*
X021540Y036869D02*
X021120Y036869D01*
X021120Y036799D02*
X021120Y036939D01*
X023038Y037818D02*
X023038Y037888D01*
X023318Y038168D01*
X023318Y038238D01*
X023038Y038238D01*
X023498Y038028D02*
X023778Y038028D01*
X023708Y037818D02*
X023708Y038238D01*
X023498Y038028D01*
X023959Y038238D02*
X023959Y037818D01*
X024239Y037818D01*
X024419Y037888D02*
X024489Y037818D01*
X024629Y037818D01*
X024699Y037888D01*
X024699Y037958D01*
X024629Y038028D01*
X024489Y038028D01*
X024419Y038098D01*
X024419Y038168D01*
X024489Y038238D01*
X024629Y038238D01*
X024699Y038168D01*
X024879Y038168D02*
X024949Y038238D01*
X025089Y038238D01*
X025160Y038168D01*
X025160Y038098D01*
X025089Y038028D01*
X025160Y037958D01*
X025160Y037888D01*
X025089Y037818D01*
X024949Y037818D01*
X024879Y037888D01*
X025019Y038028D02*
X025089Y038028D01*
X025340Y037888D02*
X025340Y037818D01*
X025340Y037888D02*
X025620Y038168D01*
X025620Y038238D01*
X025340Y038238D01*
X025800Y038028D02*
X026080Y038028D01*
X026010Y037818D02*
X026010Y038238D01*
X025800Y038028D01*
X026260Y037818D02*
X026260Y038238D01*
X026541Y037818D01*
X026541Y038238D01*
X021198Y039678D02*
X021196Y039704D01*
X021191Y039730D01*
X021183Y039755D01*
X021171Y039778D01*
X021157Y039800D01*
X021139Y039819D01*
X021120Y039837D01*
X021098Y039851D01*
X021075Y039863D01*
X021050Y039871D01*
X021024Y039876D01*
X020998Y039878D01*
X019698Y039878D01*
X019672Y039876D01*
X019646Y039871D01*
X019621Y039863D01*
X019598Y039851D01*
X019576Y039837D01*
X019557Y039819D01*
X019539Y039800D01*
X019525Y039778D01*
X019513Y039755D01*
X019505Y039730D01*
X019500Y039704D01*
X019498Y039678D01*
X019525Y040236D02*
X019525Y040656D01*
X019385Y040516D01*
X019385Y040236D02*
X019665Y040236D01*
X019845Y040306D02*
X020126Y040586D01*
X020126Y040306D01*
X020055Y040236D01*
X019915Y040236D01*
X019845Y040306D01*
X019845Y040586D01*
X019915Y040656D01*
X020055Y040656D01*
X020126Y040586D01*
X020306Y040586D02*
X020376Y040656D01*
X020516Y040656D01*
X020586Y040586D01*
X020306Y040306D01*
X020376Y040236D01*
X020516Y040236D01*
X020586Y040306D01*
X020586Y040586D01*
X020766Y040516D02*
X020976Y040516D01*
X021046Y040446D01*
X021046Y040236D01*
X020766Y040236D02*
X020766Y040516D01*
X020306Y040586D02*
X020306Y040306D01*
X005848Y013428D02*
X005850Y013491D01*
X005856Y013553D01*
X005866Y013615D01*
X005879Y013677D01*
X005897Y013737D01*
X005918Y013796D01*
X005943Y013854D01*
X005972Y013910D01*
X006004Y013964D01*
X006039Y014016D01*
X006077Y014065D01*
X006119Y014113D01*
X006163Y014157D01*
X006211Y014199D01*
X006260Y014237D01*
X006312Y014272D01*
X006366Y014304D01*
X006422Y014333D01*
X006480Y014358D01*
X006539Y014379D01*
X006599Y014397D01*
X006661Y014410D01*
X006723Y014420D01*
X006785Y014426D01*
X006848Y014428D01*
X006911Y014426D01*
X006973Y014420D01*
X007035Y014410D01*
X007097Y014397D01*
X007157Y014379D01*
X007216Y014358D01*
X007274Y014333D01*
X007330Y014304D01*
X007384Y014272D01*
X007436Y014237D01*
X007485Y014199D01*
X007533Y014157D01*
X007577Y014113D01*
X007619Y014065D01*
X007657Y014016D01*
X007692Y013964D01*
X007724Y013910D01*
X007753Y013854D01*
X007778Y013796D01*
X007799Y013737D01*
X007817Y013677D01*
X007830Y013615D01*
X007840Y013553D01*
X007846Y013491D01*
X007848Y013428D01*
X007846Y013365D01*
X007840Y013303D01*
X007830Y013241D01*
X007817Y013179D01*
X007799Y013119D01*
X007778Y013060D01*
X007753Y013002D01*
X007724Y012946D01*
X007692Y012892D01*
X007657Y012840D01*
X007619Y012791D01*
X007577Y012743D01*
X007533Y012699D01*
X007485Y012657D01*
X007436Y012619D01*
X007384Y012584D01*
X007330Y012552D01*
X007274Y012523D01*
X007216Y012498D01*
X007157Y012477D01*
X007097Y012459D01*
X007035Y012446D01*
X006973Y012436D01*
X006911Y012430D01*
X006848Y012428D01*
X006785Y012430D01*
X006723Y012436D01*
X006661Y012446D01*
X006599Y012459D01*
X006539Y012477D01*
X006480Y012498D01*
X006422Y012523D01*
X006366Y012552D01*
X006312Y012584D01*
X006260Y012619D01*
X006211Y012657D01*
X006163Y012699D01*
X006119Y012743D01*
X006077Y012791D01*
X006039Y012840D01*
X006004Y012892D01*
X005972Y012946D01*
X005943Y013002D01*
X005918Y013060D01*
X005897Y013119D01*
X005879Y013179D01*
X005866Y013241D01*
X005856Y013303D01*
X005850Y013365D01*
X005848Y013428D01*
D11*
X062648Y009928D03*
D12*
X007598Y014428D02*
X007652Y014385D01*
X007704Y014339D01*
X007753Y014290D01*
X007800Y014238D01*
X007843Y014184D01*
X007884Y014128D01*
X007921Y014069D01*
X007955Y014009D01*
X007985Y013946D01*
X008012Y013883D01*
X008036Y013817D01*
X008056Y013751D01*
X008072Y013683D01*
X008084Y013615D01*
X008092Y013546D01*
X008097Y013477D01*
X008098Y013407D01*
X008095Y013338D01*
X008088Y013269D01*
X008077Y013201D01*
X008063Y013133D01*
X008044Y013066D01*
X008022Y013000D01*
X007997Y012935D01*
X007968Y012872D01*
X007935Y012811D01*
X007899Y012752D01*
X007860Y012695D01*
X007818Y012639D01*
X007773Y012587D01*
X007725Y012537D01*
X007674Y012490D01*
X007620Y012445D01*
X007565Y012404D01*
X007507Y012366D01*
X007447Y012331D01*
X007385Y012299D01*
X007322Y012271D01*
X007257Y012247D01*
X007191Y012226D01*
X007123Y012209D01*
X007055Y012195D01*
X006986Y012186D01*
X006917Y012180D01*
X006848Y012178D01*
X006779Y012180D01*
X006710Y012186D01*
X006641Y012195D01*
X006573Y012209D01*
X006505Y012226D01*
X006439Y012247D01*
X006374Y012271D01*
X006311Y012299D01*
X006249Y012331D01*
X006189Y012366D01*
X006131Y012404D01*
X006076Y012445D01*
X006022Y012490D01*
X005971Y012537D01*
X005923Y012587D01*
X005878Y012639D01*
X005836Y012695D01*
X005797Y012752D01*
X005761Y012811D01*
X005728Y012872D01*
X005699Y012935D01*
X005674Y013000D01*
X005652Y013066D01*
X005633Y013133D01*
X005619Y013201D01*
X005608Y013269D01*
X005601Y013338D01*
X005598Y013407D01*
X005599Y013477D01*
X005604Y013546D01*
X005612Y013615D01*
X005624Y013683D01*
X005640Y013751D01*
X005660Y013817D01*
X005684Y013883D01*
X005711Y013946D01*
X005741Y014009D01*
X005775Y014069D01*
X005812Y014128D01*
X005853Y014184D01*
X005896Y014238D01*
X005943Y014290D01*
X005992Y014339D01*
X006044Y014385D01*
X006098Y014428D01*
D13*
X044363Y013128D03*
X044363Y012728D03*
D14*
X019423Y020428D03*
X017273Y020428D03*
X010423Y020428D03*
X010423Y021428D03*
X008273Y021428D03*
X008273Y020428D03*
X008273Y025428D03*
X008273Y026428D03*
X010423Y026428D03*
X010423Y025428D03*
X009773Y012928D03*
X011923Y012928D03*
X042773Y040428D03*
X044923Y040428D03*
D15*
X016848Y019003D03*
X016848Y016853D03*
X010848Y016853D03*
X010848Y019003D03*
D16*
X011443Y010241D02*
X011544Y010139D01*
X011748Y010139D01*
X011850Y010241D01*
X011443Y010241D02*
X011443Y010342D01*
X011850Y010749D01*
X011443Y010749D01*
X012050Y010749D02*
X012457Y010749D01*
X012254Y010749D02*
X012254Y010139D01*
X012457Y010342D01*
X012658Y010241D02*
X012658Y010648D01*
X012760Y010749D01*
X012963Y010749D01*
X013065Y010648D01*
X012658Y010241D01*
X012760Y010139D01*
X012963Y010139D01*
X013065Y010241D01*
X013065Y010648D01*
X013266Y010749D02*
X013673Y010749D01*
X013266Y010342D01*
X013266Y010241D01*
X013368Y010139D01*
X013571Y010139D01*
X013673Y010241D01*
X013875Y010648D02*
X013875Y010749D01*
X013977Y010749D01*
X013977Y010648D01*
X013875Y010648D01*
X014177Y010749D02*
X014584Y010749D01*
X014177Y010342D01*
X014177Y010241D01*
X014279Y010139D01*
X014483Y010139D01*
X014584Y010241D01*
X014785Y010241D02*
X015192Y010648D01*
X015090Y010749D01*
X014887Y010749D01*
X014785Y010648D01*
X014785Y010241D01*
X014887Y010139D01*
X015090Y010139D01*
X015192Y010241D01*
X015192Y010648D01*
X016001Y010648D02*
X016103Y010648D01*
X016103Y010749D01*
X016001Y010749D01*
X016001Y010648D01*
X016001Y010749D02*
X016205Y010953D01*
X016406Y010749D02*
X016711Y010749D01*
X016813Y010648D01*
X016711Y010546D01*
X016406Y010546D01*
X016406Y010444D02*
X016406Y010749D01*
X016406Y010444D02*
X016507Y010342D01*
X016711Y010342D01*
X017013Y010342D02*
X017013Y010648D01*
X017115Y010749D01*
X017217Y010648D01*
X017319Y010749D01*
X017420Y010648D01*
X017420Y010342D01*
X017621Y010444D02*
X017621Y010749D01*
X017926Y010749D01*
X018028Y010648D01*
X017926Y010546D01*
X017621Y010546D01*
X017621Y010444D02*
X017723Y010342D01*
X017926Y010342D01*
X018331Y010139D02*
X018331Y010749D01*
X018230Y010749D02*
X018433Y010749D01*
X018635Y010749D02*
X018838Y010749D01*
X018737Y010749D02*
X018737Y010342D01*
X018838Y010342D01*
X019039Y010241D02*
X019039Y010444D01*
X019141Y010546D01*
X019446Y010546D01*
X019446Y010749D02*
X019446Y010139D01*
X019141Y010139D01*
X019039Y010241D01*
X018737Y010139D02*
X018737Y010037D01*
X018433Y010139D02*
X018331Y010139D01*
X019648Y010648D02*
X019648Y010749D01*
X019750Y010749D01*
X019750Y010648D01*
X019648Y010648D01*
X019951Y010648D02*
X019951Y010241D01*
X020052Y010139D01*
X020358Y010139D01*
X020358Y010749D01*
X020052Y010749D01*
X019951Y010648D01*
X021167Y010546D02*
X021167Y010342D01*
X021370Y010139D01*
X021571Y010241D02*
X021673Y010139D01*
X021876Y010139D01*
X021978Y010241D01*
X021978Y010648D01*
X021876Y010749D01*
X021673Y010749D01*
X021571Y010648D01*
X021370Y010749D02*
X021167Y010546D01*
X022180Y010749D02*
X022383Y010546D01*
X022383Y010342D01*
X022180Y010139D01*
X023193Y010648D02*
X023294Y010648D01*
X023294Y010749D01*
X023193Y010749D01*
X023193Y010648D01*
X023193Y010749D02*
X023396Y010953D01*
X023699Y010749D02*
X023902Y010749D01*
X024004Y010648D01*
X023597Y010241D01*
X023597Y010648D01*
X023699Y010749D01*
X024004Y010648D02*
X024004Y010241D01*
X023902Y010139D01*
X023699Y010139D01*
X023597Y010241D01*
X024206Y010648D02*
X024206Y010749D01*
X024308Y010749D01*
X024308Y010648D01*
X024206Y010648D01*
X024508Y010749D02*
X024915Y010749D01*
X024712Y010749D02*
X024712Y010139D01*
X024915Y010342D01*
X025116Y010342D02*
X025320Y010749D01*
X025523Y010342D01*
X026332Y010241D02*
X026433Y010139D01*
X026637Y010139D01*
X026739Y010241D01*
X026739Y010648D01*
X026637Y010749D01*
X026433Y010749D01*
X026332Y010648D01*
X026939Y010139D02*
X027346Y010139D01*
X027143Y010139D02*
X027143Y010749D01*
X027547Y010749D02*
X027750Y010546D01*
X027649Y010546D02*
X027954Y010546D01*
X027954Y010749D02*
X027954Y010139D01*
X027649Y010139D01*
X027547Y010241D01*
X027547Y010444D01*
X027649Y010546D01*
X028762Y010546D02*
X028966Y010749D01*
X029068Y010749D01*
X029169Y010648D01*
X029169Y010546D01*
X028966Y010342D01*
X028966Y010241D01*
X029068Y010139D01*
X029169Y010241D01*
X029169Y010342D01*
X028762Y010749D01*
X029978Y010749D02*
X030385Y010749D01*
X030385Y010139D01*
X029978Y010139D01*
X030181Y010444D02*
X030385Y010444D01*
X030586Y010241D02*
X030687Y010139D01*
X030993Y010139D01*
X030993Y010749D01*
X030687Y010749D01*
X030586Y010648D01*
X030586Y010241D01*
X031194Y010139D02*
X031398Y010139D01*
X031296Y010139D02*
X031296Y010749D01*
X031398Y010749D02*
X031194Y010749D01*
M02*
