G75*
%MOIN*%
%OFA0B0*%
%FSLAX24Y24*%
%IPPOS*%
%LPD*%
%AMOC8*
5,1,8,0,0,1.08239X$1,22.5*
%
%ADD10C,0.0000*%
%ADD11OC8,0.0640*%
%ADD12C,0.0710*%
%ADD13C,0.1004*%
%ADD14C,0.0160*%
D10*
X057015Y003890D02*
X057015Y043260D01*
X066882Y043260D01*
X066882Y003890D01*
X057015Y003890D01*
X065215Y006140D02*
X065217Y006187D01*
X065223Y006233D01*
X065233Y006279D01*
X065246Y006323D01*
X065264Y006367D01*
X065285Y006408D01*
X065309Y006448D01*
X065337Y006486D01*
X065368Y006521D01*
X065402Y006553D01*
X065438Y006582D01*
X065477Y006608D01*
X065517Y006631D01*
X065560Y006650D01*
X065604Y006666D01*
X065649Y006678D01*
X065695Y006686D01*
X065742Y006690D01*
X065788Y006690D01*
X065835Y006686D01*
X065881Y006678D01*
X065926Y006666D01*
X065970Y006650D01*
X066013Y006631D01*
X066053Y006608D01*
X066092Y006582D01*
X066128Y006553D01*
X066162Y006521D01*
X066193Y006486D01*
X066221Y006448D01*
X066245Y006408D01*
X066266Y006367D01*
X066284Y006323D01*
X066297Y006279D01*
X066307Y006233D01*
X066313Y006187D01*
X066315Y006140D01*
X066313Y006093D01*
X066307Y006047D01*
X066297Y006001D01*
X066284Y005957D01*
X066266Y005913D01*
X066245Y005872D01*
X066221Y005832D01*
X066193Y005794D01*
X066162Y005759D01*
X066128Y005727D01*
X066092Y005698D01*
X066053Y005672D01*
X066013Y005649D01*
X065970Y005630D01*
X065926Y005614D01*
X065881Y005602D01*
X065835Y005594D01*
X065788Y005590D01*
X065742Y005590D01*
X065695Y005594D01*
X065649Y005602D01*
X065604Y005614D01*
X065560Y005630D01*
X065517Y005649D01*
X065477Y005672D01*
X065438Y005698D01*
X065402Y005727D01*
X065368Y005759D01*
X065337Y005794D01*
X065309Y005832D01*
X065285Y005872D01*
X065264Y005913D01*
X065246Y005957D01*
X065233Y006001D01*
X065223Y006047D01*
X065217Y006093D01*
X065215Y006140D01*
X065215Y041140D02*
X065217Y041187D01*
X065223Y041233D01*
X065233Y041279D01*
X065246Y041323D01*
X065264Y041367D01*
X065285Y041408D01*
X065309Y041448D01*
X065337Y041486D01*
X065368Y041521D01*
X065402Y041553D01*
X065438Y041582D01*
X065477Y041608D01*
X065517Y041631D01*
X065560Y041650D01*
X065604Y041666D01*
X065649Y041678D01*
X065695Y041686D01*
X065742Y041690D01*
X065788Y041690D01*
X065835Y041686D01*
X065881Y041678D01*
X065926Y041666D01*
X065970Y041650D01*
X066013Y041631D01*
X066053Y041608D01*
X066092Y041582D01*
X066128Y041553D01*
X066162Y041521D01*
X066193Y041486D01*
X066221Y041448D01*
X066245Y041408D01*
X066266Y041367D01*
X066284Y041323D01*
X066297Y041279D01*
X066307Y041233D01*
X066313Y041187D01*
X066315Y041140D01*
X066313Y041093D01*
X066307Y041047D01*
X066297Y041001D01*
X066284Y040957D01*
X066266Y040913D01*
X066245Y040872D01*
X066221Y040832D01*
X066193Y040794D01*
X066162Y040759D01*
X066128Y040727D01*
X066092Y040698D01*
X066053Y040672D01*
X066013Y040649D01*
X065970Y040630D01*
X065926Y040614D01*
X065881Y040602D01*
X065835Y040594D01*
X065788Y040590D01*
X065742Y040590D01*
X065695Y040594D01*
X065649Y040602D01*
X065604Y040614D01*
X065560Y040630D01*
X065517Y040649D01*
X065477Y040672D01*
X065438Y040698D01*
X065402Y040727D01*
X065368Y040759D01*
X065337Y040794D01*
X065309Y040832D01*
X065285Y040872D01*
X065264Y040913D01*
X065246Y040957D01*
X065233Y041001D01*
X065223Y041047D01*
X065217Y041093D01*
X065215Y041140D01*
D11*
X060265Y041140D03*
X059265Y041140D03*
X059265Y040140D03*
X060265Y040140D03*
X060265Y007140D03*
X059265Y007140D03*
X059265Y006140D03*
X060265Y006140D03*
D12*
X064035Y010156D02*
X064745Y010156D01*
X064745Y012124D02*
X064035Y012124D01*
X064035Y015781D02*
X064745Y015781D01*
X064745Y017749D02*
X064035Y017749D01*
D13*
X063888Y021926D02*
X064892Y021926D01*
X064892Y023485D02*
X063888Y023485D01*
X063888Y025045D02*
X064892Y025045D01*
X064892Y026604D02*
X063888Y026604D01*
D14*
X063244Y027348D02*
X057495Y027348D01*
X057495Y027190D02*
X063085Y027190D01*
X063056Y027160D02*
X062906Y026799D01*
X062906Y026408D01*
X063056Y026047D01*
X063332Y025771D01*
X063431Y025730D01*
X063430Y025729D01*
X063345Y025664D01*
X063269Y025588D01*
X063203Y025502D01*
X063149Y025409D01*
X063108Y025309D01*
X063080Y025205D01*
X063070Y025125D01*
X064310Y025125D01*
X064310Y024965D01*
X063070Y024965D01*
X063080Y024884D01*
X063108Y024780D01*
X063149Y024680D01*
X063203Y024587D01*
X063269Y024501D01*
X063345Y024425D01*
X063430Y024360D01*
X063524Y024306D01*
X063622Y024265D01*
X063524Y024224D01*
X063430Y024170D01*
X063345Y024105D01*
X063269Y024029D01*
X063203Y023943D01*
X063149Y023850D01*
X063108Y023750D01*
X063080Y023646D01*
X063070Y023565D01*
X064310Y023565D01*
X064310Y023405D01*
X063070Y023405D01*
X063080Y023325D01*
X063108Y023221D01*
X063149Y023121D01*
X063203Y023028D01*
X063269Y022942D01*
X063345Y022866D01*
X063430Y022801D01*
X063431Y022800D01*
X063332Y022759D01*
X063056Y022483D01*
X062906Y022122D01*
X062906Y021731D01*
X063056Y021370D01*
X063332Y021094D01*
X063693Y020944D01*
X065087Y020944D01*
X065448Y021094D01*
X065724Y021370D01*
X065874Y021731D01*
X065874Y022122D01*
X065724Y022483D01*
X065448Y022759D01*
X065349Y022800D01*
X065350Y022801D01*
X065435Y022866D01*
X065511Y022942D01*
X065577Y023028D01*
X065631Y023121D01*
X065672Y023221D01*
X065700Y023325D01*
X065710Y023405D01*
X064470Y023405D01*
X064470Y023565D01*
X065710Y023565D01*
X065700Y023646D01*
X065672Y023750D01*
X065631Y023850D01*
X065577Y023943D01*
X065511Y024029D01*
X065435Y024105D01*
X065350Y024170D01*
X065256Y024224D01*
X065158Y024265D01*
X065256Y024306D01*
X065350Y024360D01*
X065435Y024425D01*
X065511Y024501D01*
X065577Y024587D01*
X065631Y024680D01*
X065672Y024780D01*
X065700Y024884D01*
X065710Y024965D01*
X064470Y024965D01*
X064470Y025125D01*
X065710Y025125D01*
X065700Y025205D01*
X065672Y025309D01*
X065631Y025409D01*
X065577Y025502D01*
X065511Y025588D01*
X065435Y025664D01*
X065350Y025729D01*
X065349Y025730D01*
X065448Y025771D01*
X065724Y026047D01*
X065874Y026408D01*
X065874Y026799D01*
X065724Y027160D01*
X065448Y027436D01*
X065087Y027586D01*
X063693Y027586D01*
X063332Y027436D01*
X063056Y027160D01*
X063002Y027031D02*
X057495Y027031D01*
X057495Y026873D02*
X062937Y026873D01*
X062906Y026714D02*
X057495Y026714D01*
X057495Y026556D02*
X062906Y026556D01*
X062911Y026397D02*
X057495Y026397D01*
X057495Y026239D02*
X062976Y026239D01*
X063042Y026080D02*
X057495Y026080D01*
X057495Y025922D02*
X063181Y025922D01*
X063351Y025763D02*
X057495Y025763D01*
X057495Y025605D02*
X063286Y025605D01*
X063171Y025446D02*
X057495Y025446D01*
X057495Y025288D02*
X063102Y025288D01*
X063070Y025129D02*
X057495Y025129D01*
X057495Y024971D02*
X064310Y024971D01*
X064310Y024965D02*
X064470Y024965D01*
X064470Y024223D01*
X064470Y023565D01*
X064310Y023565D01*
X064310Y024965D01*
X064310Y024812D02*
X064470Y024812D01*
X064470Y024654D02*
X064310Y024654D01*
X064310Y024495D02*
X064470Y024495D01*
X064470Y024337D02*
X064310Y024337D01*
X064310Y024178D02*
X064470Y024178D01*
X064470Y024020D02*
X064310Y024020D01*
X064310Y023861D02*
X064470Y023861D01*
X064470Y023703D02*
X064310Y023703D01*
X064310Y023544D02*
X057495Y023544D01*
X057495Y023386D02*
X063072Y023386D01*
X063106Y023227D02*
X057495Y023227D01*
X057495Y023069D02*
X063180Y023069D01*
X063301Y022910D02*
X057495Y022910D01*
X057495Y022752D02*
X063324Y022752D01*
X063166Y022593D02*
X057495Y022593D01*
X057495Y022435D02*
X063036Y022435D01*
X062970Y022276D02*
X057495Y022276D01*
X057495Y022118D02*
X062906Y022118D01*
X062906Y021959D02*
X057495Y021959D01*
X057495Y021801D02*
X062906Y021801D01*
X062943Y021642D02*
X057495Y021642D01*
X057495Y021484D02*
X063009Y021484D01*
X063101Y021325D02*
X057495Y021325D01*
X057495Y021167D02*
X063259Y021167D01*
X063539Y021008D02*
X057495Y021008D01*
X057495Y020850D02*
X066402Y020850D01*
X066402Y021008D02*
X065241Y021008D01*
X065521Y021167D02*
X066402Y021167D01*
X066402Y021325D02*
X065679Y021325D01*
X065771Y021484D02*
X066402Y021484D01*
X066402Y021642D02*
X065837Y021642D01*
X065874Y021801D02*
X066402Y021801D01*
X066402Y021959D02*
X065874Y021959D01*
X065874Y022118D02*
X066402Y022118D01*
X066402Y022276D02*
X065810Y022276D01*
X065744Y022435D02*
X066402Y022435D01*
X066402Y022593D02*
X065614Y022593D01*
X065456Y022752D02*
X066402Y022752D01*
X066402Y022910D02*
X065479Y022910D01*
X065600Y023069D02*
X066402Y023069D01*
X066402Y023227D02*
X065674Y023227D01*
X065708Y023386D02*
X066402Y023386D01*
X066402Y023544D02*
X064470Y023544D01*
X063262Y024020D02*
X057495Y024020D01*
X057495Y024178D02*
X063444Y024178D01*
X063470Y024337D02*
X057495Y024337D01*
X057495Y024495D02*
X063275Y024495D01*
X063165Y024654D02*
X057495Y024654D01*
X057495Y024812D02*
X063099Y024812D01*
X063156Y023861D02*
X057495Y023861D01*
X057495Y023703D02*
X063095Y023703D01*
X064470Y024971D02*
X066402Y024971D01*
X066402Y025129D02*
X065710Y025129D01*
X065678Y025288D02*
X066402Y025288D01*
X066402Y025446D02*
X065609Y025446D01*
X065494Y025605D02*
X066402Y025605D01*
X066402Y025763D02*
X065429Y025763D01*
X065599Y025922D02*
X066402Y025922D01*
X066402Y026080D02*
X065738Y026080D01*
X065804Y026239D02*
X066402Y026239D01*
X066402Y026397D02*
X065869Y026397D01*
X065874Y026556D02*
X066402Y026556D01*
X066402Y026714D02*
X065874Y026714D01*
X065843Y026873D02*
X066402Y026873D01*
X066402Y027031D02*
X065778Y027031D01*
X065695Y027190D02*
X066402Y027190D01*
X066402Y027348D02*
X065536Y027348D01*
X065278Y027507D02*
X066402Y027507D01*
X066402Y027665D02*
X057495Y027665D01*
X057495Y027507D02*
X063502Y027507D01*
X066402Y027824D02*
X057495Y027824D01*
X057495Y027982D02*
X066402Y027982D01*
X066402Y028141D02*
X057495Y028141D01*
X057495Y028299D02*
X066402Y028299D01*
X066402Y028458D02*
X057495Y028458D01*
X057495Y028616D02*
X066402Y028616D01*
X066402Y028775D02*
X057495Y028775D01*
X057495Y028933D02*
X066402Y028933D01*
X066402Y029092D02*
X057495Y029092D01*
X057495Y029250D02*
X066402Y029250D01*
X066402Y029409D02*
X057495Y029409D01*
X057495Y029567D02*
X066402Y029567D01*
X066402Y029726D02*
X057495Y029726D01*
X057495Y029884D02*
X066402Y029884D01*
X066402Y030043D02*
X057495Y030043D01*
X057495Y030201D02*
X066402Y030201D01*
X066402Y030360D02*
X057495Y030360D01*
X057495Y030518D02*
X066402Y030518D01*
X066402Y030677D02*
X057495Y030677D01*
X057495Y030835D02*
X066402Y030835D01*
X066402Y030994D02*
X057495Y030994D01*
X057495Y031152D02*
X066402Y031152D01*
X066402Y031311D02*
X057495Y031311D01*
X057495Y031469D02*
X066402Y031469D01*
X066402Y031628D02*
X057495Y031628D01*
X057495Y031786D02*
X066402Y031786D01*
X066402Y031945D02*
X057495Y031945D01*
X057495Y032103D02*
X066402Y032103D01*
X066402Y032262D02*
X057495Y032262D01*
X057495Y032420D02*
X066402Y032420D01*
X066402Y032579D02*
X057495Y032579D01*
X057495Y032737D02*
X066402Y032737D01*
X066402Y032896D02*
X057495Y032896D01*
X057495Y033054D02*
X066402Y033054D01*
X066402Y033213D02*
X057495Y033213D01*
X057495Y033371D02*
X066402Y033371D01*
X066402Y033530D02*
X057495Y033530D01*
X057495Y033688D02*
X066402Y033688D01*
X066402Y033847D02*
X057495Y033847D01*
X057495Y034005D02*
X066402Y034005D01*
X066402Y034164D02*
X057495Y034164D01*
X057495Y034322D02*
X066402Y034322D01*
X066402Y034481D02*
X057495Y034481D01*
X057495Y034639D02*
X066402Y034639D01*
X066402Y034798D02*
X057495Y034798D01*
X057495Y034956D02*
X066402Y034956D01*
X066402Y035115D02*
X057495Y035115D01*
X057495Y035273D02*
X066402Y035273D01*
X066402Y035432D02*
X057495Y035432D01*
X057495Y035590D02*
X066402Y035590D01*
X066402Y035749D02*
X057495Y035749D01*
X057495Y035907D02*
X066402Y035907D01*
X066402Y036066D02*
X057495Y036066D01*
X057495Y036224D02*
X066402Y036224D01*
X066402Y036383D02*
X057495Y036383D01*
X057495Y036541D02*
X066402Y036541D01*
X066402Y036700D02*
X057495Y036700D01*
X057495Y036858D02*
X066402Y036858D01*
X066402Y037017D02*
X057495Y037017D01*
X057495Y037175D02*
X066402Y037175D01*
X066402Y037334D02*
X057495Y037334D01*
X057495Y037492D02*
X066402Y037492D01*
X066402Y037651D02*
X057495Y037651D01*
X057495Y037809D02*
X066402Y037809D01*
X066402Y037968D02*
X057495Y037968D01*
X057495Y038126D02*
X066402Y038126D01*
X066402Y038285D02*
X057495Y038285D01*
X057495Y038443D02*
X066402Y038443D01*
X066402Y038602D02*
X057495Y038602D01*
X057495Y038760D02*
X066402Y038760D01*
X066402Y038919D02*
X057495Y038919D01*
X057495Y039077D02*
X066402Y039077D01*
X066402Y039236D02*
X057495Y039236D01*
X057495Y039394D02*
X066402Y039394D01*
X066402Y039553D02*
X060583Y039553D01*
X060530Y039500D02*
X060905Y039875D01*
X060905Y040120D01*
X060285Y040120D01*
X060285Y040160D01*
X060905Y040160D01*
X060905Y040405D01*
X060670Y040640D01*
X060905Y040875D01*
X060905Y041120D01*
X060285Y041120D01*
X060285Y041160D01*
X060905Y041160D01*
X060905Y041405D01*
X060530Y041780D01*
X060285Y041780D01*
X060285Y041160D01*
X060245Y041160D01*
X060245Y041780D01*
X060000Y041780D01*
X059765Y041545D01*
X059530Y041780D01*
X059285Y041780D01*
X059285Y041160D01*
X059245Y041160D01*
X059245Y041780D01*
X059000Y041780D01*
X058625Y041405D01*
X058625Y041160D01*
X059245Y041160D01*
X059245Y041120D01*
X058625Y041120D01*
X058625Y040875D01*
X058860Y040640D01*
X058625Y040405D01*
X058625Y040160D01*
X059245Y040160D01*
X059245Y041120D01*
X059285Y041120D01*
X059285Y041160D01*
X060245Y041160D01*
X060245Y041120D01*
X059625Y041120D01*
X059285Y041120D01*
X059285Y040500D01*
X059285Y040160D01*
X059245Y040160D01*
X059245Y040120D01*
X059285Y040120D01*
X059285Y040160D01*
X060245Y040160D01*
X060245Y041120D01*
X060285Y041120D01*
X060285Y040500D01*
X060285Y040160D01*
X060245Y040160D01*
X060245Y040120D01*
X060285Y040120D01*
X060285Y039500D01*
X060530Y039500D01*
X060285Y039553D02*
X060245Y039553D01*
X060245Y039500D02*
X060245Y040120D01*
X059625Y040120D01*
X059285Y040120D01*
X059285Y039500D01*
X059530Y039500D01*
X059765Y039735D01*
X060000Y039500D01*
X060245Y039500D01*
X060245Y039711D02*
X060285Y039711D01*
X060285Y039870D02*
X060245Y039870D01*
X060245Y040028D02*
X060285Y040028D01*
X060285Y040187D02*
X060245Y040187D01*
X060245Y040345D02*
X060285Y040345D01*
X060285Y040504D02*
X060245Y040504D01*
X060245Y040662D02*
X060285Y040662D01*
X060285Y040821D02*
X060245Y040821D01*
X060245Y040979D02*
X060285Y040979D01*
X060285Y041138D02*
X064735Y041138D01*
X064735Y041004D02*
X064735Y041276D01*
X064805Y041538D01*
X064941Y041772D01*
X065133Y041964D01*
X065367Y042100D01*
X065629Y042170D01*
X065901Y042170D01*
X066163Y042100D01*
X066397Y041964D01*
X066402Y041960D01*
X066402Y042780D01*
X057495Y042780D01*
X057495Y004370D01*
X066402Y004370D01*
X066402Y005320D01*
X066397Y005316D01*
X066163Y005180D01*
X065901Y005110D01*
X065629Y005110D01*
X065367Y005180D01*
X065133Y005316D01*
X064941Y005508D01*
X064805Y005742D01*
X064735Y006004D01*
X064735Y006276D01*
X064805Y006538D01*
X064941Y006772D01*
X065133Y006964D01*
X065367Y007100D01*
X065629Y007170D01*
X065901Y007170D01*
X066163Y007100D01*
X066397Y006964D01*
X066402Y006960D01*
X066402Y040320D01*
X066397Y040316D01*
X066163Y040180D01*
X065901Y040110D01*
X065629Y040110D01*
X065367Y040180D01*
X065133Y040316D01*
X064941Y040508D01*
X064805Y040742D01*
X064735Y041004D01*
X064742Y040979D02*
X060905Y040979D01*
X060851Y040821D02*
X064784Y040821D01*
X064852Y040662D02*
X060692Y040662D01*
X060807Y040504D02*
X064945Y040504D01*
X065103Y040345D02*
X060905Y040345D01*
X060905Y040187D02*
X065356Y040187D01*
X066174Y040187D02*
X066402Y040187D01*
X066402Y040028D02*
X060905Y040028D01*
X060900Y039870D02*
X066402Y039870D01*
X066402Y039711D02*
X060741Y039711D01*
X059947Y039553D02*
X059583Y039553D01*
X059741Y039711D02*
X059789Y039711D01*
X059285Y039711D02*
X059245Y039711D01*
X059245Y039553D02*
X059285Y039553D01*
X059245Y039500D02*
X059245Y040120D01*
X058625Y040120D01*
X058625Y039875D01*
X059000Y039500D01*
X059245Y039500D01*
X058947Y039553D02*
X057495Y039553D01*
X057495Y039711D02*
X058789Y039711D01*
X058630Y039870D02*
X057495Y039870D01*
X057495Y040028D02*
X058625Y040028D01*
X058625Y040187D02*
X057495Y040187D01*
X057495Y040345D02*
X058625Y040345D01*
X058723Y040504D02*
X057495Y040504D01*
X057495Y040662D02*
X058838Y040662D01*
X058679Y040821D02*
X057495Y040821D01*
X057495Y040979D02*
X058625Y040979D01*
X058625Y041296D02*
X057495Y041296D01*
X057495Y041138D02*
X059245Y041138D01*
X059285Y041138D02*
X060245Y041138D01*
X060245Y041296D02*
X060285Y041296D01*
X060285Y041455D02*
X060245Y041455D01*
X060245Y041613D02*
X060285Y041613D01*
X060285Y041772D02*
X060245Y041772D01*
X059991Y041772D02*
X059539Y041772D01*
X059697Y041613D02*
X059833Y041613D01*
X059285Y041613D02*
X059245Y041613D01*
X059245Y041455D02*
X059285Y041455D01*
X059285Y041296D02*
X059245Y041296D01*
X059245Y040979D02*
X059285Y040979D01*
X059285Y040821D02*
X059245Y040821D01*
X059245Y040662D02*
X059285Y040662D01*
X059285Y040504D02*
X059245Y040504D01*
X059245Y040345D02*
X059285Y040345D01*
X059285Y040187D02*
X059245Y040187D01*
X059245Y040028D02*
X059285Y040028D01*
X059285Y039870D02*
X059245Y039870D01*
X058674Y041455D02*
X057495Y041455D01*
X057495Y041613D02*
X058833Y041613D01*
X058991Y041772D02*
X057495Y041772D01*
X057495Y041930D02*
X065098Y041930D01*
X064940Y041772D02*
X060539Y041772D01*
X060697Y041613D02*
X064849Y041613D01*
X064783Y041455D02*
X060856Y041455D01*
X060905Y041296D02*
X064740Y041296D01*
X065348Y042089D02*
X057495Y042089D01*
X057495Y042247D02*
X066402Y042247D01*
X066402Y042089D02*
X066182Y042089D01*
X066402Y042406D02*
X057495Y042406D01*
X057495Y042564D02*
X066402Y042564D01*
X066402Y042723D02*
X057495Y042723D01*
X059245Y041772D02*
X059285Y041772D01*
X065681Y024812D02*
X066402Y024812D01*
X066402Y024654D02*
X065615Y024654D01*
X065505Y024495D02*
X066402Y024495D01*
X066402Y024337D02*
X065310Y024337D01*
X065336Y024178D02*
X066402Y024178D01*
X066402Y024020D02*
X065518Y024020D01*
X065624Y023861D02*
X066402Y023861D01*
X066402Y023703D02*
X065685Y023703D01*
X066402Y020691D02*
X057495Y020691D01*
X057495Y020533D02*
X066402Y020533D01*
X066402Y020374D02*
X057495Y020374D01*
X057495Y020216D02*
X066402Y020216D01*
X066402Y020057D02*
X057495Y020057D01*
X057495Y019899D02*
X066402Y019899D01*
X066402Y019740D02*
X057495Y019740D01*
X057495Y019582D02*
X066402Y019582D01*
X066402Y019423D02*
X057495Y019423D01*
X057495Y019265D02*
X066402Y019265D01*
X066402Y019106D02*
X057495Y019106D01*
X057495Y018948D02*
X066402Y018948D01*
X066402Y018789D02*
X057495Y018789D01*
X057495Y018631D02*
X066402Y018631D01*
X066402Y018472D02*
X057495Y018472D01*
X057495Y018314D02*
X063662Y018314D01*
X063659Y018312D02*
X063589Y018258D01*
X063526Y018195D01*
X063473Y018125D01*
X063428Y018048D01*
X063394Y017967D01*
X063372Y017881D01*
X063360Y017793D01*
X063360Y017787D01*
X064352Y017787D01*
X064352Y017712D01*
X063360Y017712D01*
X063360Y017705D01*
X063372Y017617D01*
X063394Y017532D01*
X063428Y017450D01*
X063473Y017373D01*
X063526Y017303D01*
X063589Y017241D01*
X063659Y017187D01*
X063736Y017143D01*
X063818Y017109D01*
X063903Y017086D01*
X063991Y017074D01*
X064352Y017074D01*
X064352Y017712D01*
X064428Y017712D01*
X064428Y017787D01*
X065420Y017787D01*
X065420Y017793D01*
X065408Y017881D01*
X065386Y017967D01*
X065352Y018048D01*
X065307Y018125D01*
X065254Y018195D01*
X065191Y018258D01*
X065121Y018312D01*
X065044Y018356D01*
X064962Y018390D01*
X064877Y018413D01*
X064789Y018424D01*
X064428Y018424D01*
X064428Y017787D01*
X064352Y017787D01*
X064352Y018424D01*
X063991Y018424D01*
X063903Y018413D01*
X063818Y018390D01*
X063736Y018356D01*
X063659Y018312D01*
X063496Y018155D02*
X057495Y018155D01*
X057495Y017997D02*
X063407Y017997D01*
X063366Y017838D02*
X057495Y017838D01*
X057495Y017680D02*
X063363Y017680D01*
X063399Y017521D02*
X057495Y017521D01*
X057495Y017363D02*
X063481Y017363D01*
X063637Y017204D02*
X057495Y017204D01*
X057495Y017046D02*
X066402Y017046D01*
X066402Y017204D02*
X065143Y017204D01*
X065121Y017187D02*
X065191Y017241D01*
X065254Y017303D01*
X065307Y017373D01*
X065352Y017450D01*
X065386Y017532D01*
X065408Y017617D01*
X065420Y017705D01*
X065420Y017712D01*
X064428Y017712D01*
X064428Y017074D01*
X064789Y017074D01*
X064877Y017086D01*
X064962Y017109D01*
X065044Y017143D01*
X065121Y017187D01*
X065299Y017363D02*
X066402Y017363D01*
X066402Y017521D02*
X065381Y017521D01*
X065417Y017680D02*
X066402Y017680D01*
X066402Y017838D02*
X065414Y017838D01*
X065373Y017997D02*
X066402Y017997D01*
X066402Y018155D02*
X065284Y018155D01*
X065118Y018314D02*
X066402Y018314D01*
X066402Y016887D02*
X057495Y016887D01*
X057495Y016729D02*
X066402Y016729D01*
X066402Y016570D02*
X065021Y016570D01*
X064911Y016616D02*
X063869Y016616D01*
X063562Y016489D01*
X063327Y016254D01*
X063200Y015947D01*
X063200Y015615D01*
X063327Y015308D01*
X063562Y015073D01*
X063869Y014946D01*
X064911Y014946D01*
X065218Y015073D01*
X065453Y015308D01*
X065580Y015615D01*
X065580Y015947D01*
X065453Y016254D01*
X065218Y016489D01*
X064911Y016616D01*
X065295Y016412D02*
X066402Y016412D01*
X066402Y016253D02*
X065453Y016253D01*
X065519Y016095D02*
X066402Y016095D01*
X066402Y015936D02*
X065580Y015936D01*
X065580Y015778D02*
X066402Y015778D01*
X066402Y015619D02*
X065580Y015619D01*
X065516Y015461D02*
X066402Y015461D01*
X066402Y015302D02*
X065447Y015302D01*
X065289Y015144D02*
X066402Y015144D01*
X066402Y014985D02*
X065006Y014985D01*
X063774Y014985D02*
X057495Y014985D01*
X057495Y014827D02*
X066402Y014827D01*
X066402Y014668D02*
X057495Y014668D01*
X057495Y014510D02*
X066402Y014510D01*
X066402Y014351D02*
X057495Y014351D01*
X057495Y014193D02*
X066402Y014193D01*
X066402Y014034D02*
X057495Y014034D01*
X057495Y013876D02*
X066402Y013876D01*
X066402Y013717D02*
X057495Y013717D01*
X057495Y013559D02*
X066402Y013559D01*
X066402Y013400D02*
X057495Y013400D01*
X057495Y013242D02*
X066402Y013242D01*
X066402Y013083D02*
X057495Y013083D01*
X057495Y012925D02*
X066402Y012925D01*
X066402Y012766D02*
X064958Y012766D01*
X064962Y012765D02*
X064877Y012788D01*
X064789Y012799D01*
X064428Y012799D01*
X064428Y012162D01*
X065420Y012162D01*
X065420Y012168D01*
X065408Y012256D01*
X065386Y012342D01*
X065352Y012423D01*
X065307Y012500D01*
X065254Y012570D01*
X065191Y012633D01*
X065121Y012687D01*
X065044Y012731D01*
X064962Y012765D01*
X065216Y012608D02*
X066402Y012608D01*
X066402Y012449D02*
X065337Y012449D01*
X065399Y012291D02*
X066402Y012291D01*
X066402Y012132D02*
X064428Y012132D01*
X064428Y012162D02*
X064428Y012087D01*
X065420Y012087D01*
X065420Y012080D01*
X065408Y011992D01*
X065386Y011907D01*
X065352Y011825D01*
X065307Y011748D01*
X065254Y011678D01*
X065191Y011616D01*
X065121Y011562D01*
X065044Y011518D01*
X064962Y011484D01*
X064877Y011461D01*
X064789Y011449D01*
X064428Y011449D01*
X064428Y012087D01*
X064352Y012087D01*
X063360Y012087D01*
X063360Y012080D01*
X063372Y011992D01*
X063394Y011907D01*
X063428Y011825D01*
X063473Y011748D01*
X063526Y011678D01*
X063589Y011616D01*
X063659Y011562D01*
X063736Y011518D01*
X063818Y011484D01*
X063903Y011461D01*
X063991Y011449D01*
X064352Y011449D01*
X064352Y012087D01*
X064352Y012162D01*
X063360Y012162D01*
X063360Y012168D01*
X063372Y012256D01*
X063394Y012342D01*
X063428Y012423D01*
X063473Y012500D01*
X063526Y012570D01*
X063589Y012633D01*
X063659Y012687D01*
X063736Y012731D01*
X063818Y012765D01*
X063903Y012788D01*
X063991Y012799D01*
X064352Y012799D01*
X064352Y012162D01*
X064428Y012162D01*
X064352Y012132D02*
X057495Y012132D01*
X057495Y011974D02*
X063377Y011974D01*
X063434Y011815D02*
X057495Y011815D01*
X057495Y011657D02*
X063548Y011657D01*
X063783Y011498D02*
X057495Y011498D01*
X057495Y011340D02*
X066402Y011340D01*
X066402Y011498D02*
X064997Y011498D01*
X065232Y011657D02*
X066402Y011657D01*
X066402Y011815D02*
X065346Y011815D01*
X065403Y011974D02*
X066402Y011974D01*
X066402Y011181D02*
X057495Y011181D01*
X057495Y011023D02*
X066402Y011023D01*
X066402Y010864D02*
X065217Y010864D01*
X065218Y010864D02*
X064911Y010991D01*
X063869Y010991D01*
X063562Y010864D01*
X063327Y010629D01*
X063200Y010322D01*
X063200Y009990D01*
X063327Y009683D01*
X063562Y009448D01*
X063869Y009321D01*
X064911Y009321D01*
X065218Y009448D01*
X065453Y009683D01*
X065580Y009990D01*
X065580Y010322D01*
X065453Y010629D01*
X065218Y010864D01*
X065376Y010706D02*
X066402Y010706D01*
X066402Y010547D02*
X065487Y010547D01*
X065552Y010389D02*
X066402Y010389D01*
X066402Y010230D02*
X065580Y010230D01*
X065580Y010072D02*
X066402Y010072D01*
X066402Y009913D02*
X065548Y009913D01*
X065483Y009755D02*
X066402Y009755D01*
X066402Y009596D02*
X065366Y009596D01*
X065193Y009438D02*
X066402Y009438D01*
X066402Y009279D02*
X057495Y009279D01*
X057495Y009121D02*
X066402Y009121D01*
X066402Y008962D02*
X057495Y008962D01*
X057495Y008804D02*
X066402Y008804D01*
X066402Y008645D02*
X057495Y008645D01*
X057495Y008487D02*
X066402Y008487D01*
X066402Y008328D02*
X057495Y008328D01*
X057495Y008170D02*
X066402Y008170D01*
X066402Y008011D02*
X057495Y008011D01*
X057495Y007853D02*
X058846Y007853D01*
X058934Y007940D02*
X058465Y007471D01*
X058465Y006809D01*
X058634Y006640D01*
X058465Y006471D01*
X058465Y005809D01*
X058934Y005340D01*
X059596Y005340D01*
X059765Y005509D01*
X059934Y005340D01*
X060596Y005340D01*
X061065Y005809D01*
X061065Y006471D01*
X060896Y006640D01*
X061065Y006809D01*
X061065Y007471D01*
X060596Y007940D01*
X059934Y007940D01*
X059765Y007771D01*
X059596Y007940D01*
X058934Y007940D01*
X058688Y007694D02*
X057495Y007694D01*
X057495Y007536D02*
X058529Y007536D01*
X058465Y007377D02*
X057495Y007377D01*
X057495Y007219D02*
X058465Y007219D01*
X058465Y007060D02*
X057495Y007060D01*
X057495Y006902D02*
X058465Y006902D01*
X058531Y006743D02*
X057495Y006743D01*
X057495Y006585D02*
X058578Y006585D01*
X058465Y006426D02*
X057495Y006426D01*
X057495Y006268D02*
X058465Y006268D01*
X058465Y006109D02*
X057495Y006109D01*
X057495Y005951D02*
X058465Y005951D01*
X058482Y005792D02*
X057495Y005792D01*
X057495Y005634D02*
X058640Y005634D01*
X058799Y005475D02*
X057495Y005475D01*
X057495Y005317D02*
X065132Y005317D01*
X064973Y005475D02*
X060731Y005475D01*
X060890Y005634D02*
X064868Y005634D01*
X064792Y005792D02*
X061048Y005792D01*
X061065Y005951D02*
X064749Y005951D01*
X064735Y006109D02*
X061065Y006109D01*
X061065Y006268D02*
X064735Y006268D01*
X064775Y006426D02*
X061065Y006426D01*
X060952Y006585D02*
X064832Y006585D01*
X064924Y006743D02*
X060999Y006743D01*
X061065Y006902D02*
X065070Y006902D01*
X065298Y007060D02*
X061065Y007060D01*
X061065Y007219D02*
X066402Y007219D01*
X066402Y007377D02*
X061065Y007377D01*
X061001Y007536D02*
X066402Y007536D01*
X066402Y007694D02*
X060842Y007694D01*
X060684Y007853D02*
X066402Y007853D01*
X066402Y007060D02*
X066232Y007060D01*
X066398Y005317D02*
X066402Y005317D01*
X066402Y005158D02*
X066080Y005158D01*
X066402Y005000D02*
X057495Y005000D01*
X057495Y005158D02*
X065450Y005158D01*
X066402Y004841D02*
X057495Y004841D01*
X057495Y004683D02*
X066402Y004683D01*
X066402Y004524D02*
X057495Y004524D01*
X059731Y005475D02*
X059799Y005475D01*
X059846Y007853D02*
X059684Y007853D01*
X057495Y009438D02*
X063587Y009438D01*
X063414Y009596D02*
X057495Y009596D01*
X057495Y009755D02*
X063297Y009755D01*
X063232Y009913D02*
X057495Y009913D01*
X057495Y010072D02*
X063200Y010072D01*
X063200Y010230D02*
X057495Y010230D01*
X057495Y010389D02*
X063228Y010389D01*
X063293Y010547D02*
X057495Y010547D01*
X057495Y010706D02*
X063404Y010706D01*
X063563Y010864D02*
X057495Y010864D01*
X057495Y012291D02*
X063381Y012291D01*
X063443Y012449D02*
X057495Y012449D01*
X057495Y012608D02*
X063564Y012608D01*
X063822Y012766D02*
X057495Y012766D01*
X057495Y015144D02*
X063491Y015144D01*
X063333Y015302D02*
X057495Y015302D01*
X057495Y015461D02*
X063264Y015461D01*
X063200Y015619D02*
X057495Y015619D01*
X057495Y015778D02*
X063200Y015778D01*
X063200Y015936D02*
X057495Y015936D01*
X057495Y016095D02*
X063261Y016095D01*
X063327Y016253D02*
X057495Y016253D01*
X057495Y016412D02*
X063485Y016412D01*
X063759Y016570D02*
X057495Y016570D01*
X064352Y017204D02*
X064428Y017204D01*
X064428Y017363D02*
X064352Y017363D01*
X064352Y017521D02*
X064428Y017521D01*
X064428Y017680D02*
X064352Y017680D01*
X064352Y017838D02*
X064428Y017838D01*
X064428Y017997D02*
X064352Y017997D01*
X064352Y018155D02*
X064428Y018155D01*
X064428Y018314D02*
X064352Y018314D01*
X064352Y012766D02*
X064428Y012766D01*
X064428Y012608D02*
X064352Y012608D01*
X064352Y012449D02*
X064428Y012449D01*
X064428Y012291D02*
X064352Y012291D01*
X064352Y011974D02*
X064428Y011974D01*
X064428Y011815D02*
X064352Y011815D01*
X064352Y011657D02*
X064428Y011657D01*
X064428Y011498D02*
X064352Y011498D01*
M02*
