G75*
%MOIN*%
%OFA0B0*%
%FSLAX24Y24*%
%IPPOS*%
%LPD*%
%AMOC8*
5,1,8,0,0,1.08239X$1,22.5*
%
%ADD10C,0.0000*%
%ADD11C,0.0120*%
%ADD12C,0.0240*%
%ADD13C,0.0080*%
D10*
X057015Y003890D02*
X057015Y043260D01*
X066882Y043260D01*
X066882Y003890D01*
X057015Y003890D01*
X065215Y006140D02*
X065217Y006187D01*
X065223Y006233D01*
X065233Y006279D01*
X065246Y006323D01*
X065264Y006367D01*
X065285Y006408D01*
X065309Y006448D01*
X065337Y006486D01*
X065368Y006521D01*
X065402Y006553D01*
X065438Y006582D01*
X065477Y006608D01*
X065517Y006631D01*
X065560Y006650D01*
X065604Y006666D01*
X065649Y006678D01*
X065695Y006686D01*
X065742Y006690D01*
X065788Y006690D01*
X065835Y006686D01*
X065881Y006678D01*
X065926Y006666D01*
X065970Y006650D01*
X066013Y006631D01*
X066053Y006608D01*
X066092Y006582D01*
X066128Y006553D01*
X066162Y006521D01*
X066193Y006486D01*
X066221Y006448D01*
X066245Y006408D01*
X066266Y006367D01*
X066284Y006323D01*
X066297Y006279D01*
X066307Y006233D01*
X066313Y006187D01*
X066315Y006140D01*
X066313Y006093D01*
X066307Y006047D01*
X066297Y006001D01*
X066284Y005957D01*
X066266Y005913D01*
X066245Y005872D01*
X066221Y005832D01*
X066193Y005794D01*
X066162Y005759D01*
X066128Y005727D01*
X066092Y005698D01*
X066053Y005672D01*
X066013Y005649D01*
X065970Y005630D01*
X065926Y005614D01*
X065881Y005602D01*
X065835Y005594D01*
X065788Y005590D01*
X065742Y005590D01*
X065695Y005594D01*
X065649Y005602D01*
X065604Y005614D01*
X065560Y005630D01*
X065517Y005649D01*
X065477Y005672D01*
X065438Y005698D01*
X065402Y005727D01*
X065368Y005759D01*
X065337Y005794D01*
X065309Y005832D01*
X065285Y005872D01*
X065264Y005913D01*
X065246Y005957D01*
X065233Y006001D01*
X065223Y006047D01*
X065217Y006093D01*
X065215Y006140D01*
X065215Y041140D02*
X065217Y041187D01*
X065223Y041233D01*
X065233Y041279D01*
X065246Y041323D01*
X065264Y041367D01*
X065285Y041408D01*
X065309Y041448D01*
X065337Y041486D01*
X065368Y041521D01*
X065402Y041553D01*
X065438Y041582D01*
X065477Y041608D01*
X065517Y041631D01*
X065560Y041650D01*
X065604Y041666D01*
X065649Y041678D01*
X065695Y041686D01*
X065742Y041690D01*
X065788Y041690D01*
X065835Y041686D01*
X065881Y041678D01*
X065926Y041666D01*
X065970Y041650D01*
X066013Y041631D01*
X066053Y041608D01*
X066092Y041582D01*
X066128Y041553D01*
X066162Y041521D01*
X066193Y041486D01*
X066221Y041448D01*
X066245Y041408D01*
X066266Y041367D01*
X066284Y041323D01*
X066297Y041279D01*
X066307Y041233D01*
X066313Y041187D01*
X066315Y041140D01*
X066313Y041093D01*
X066307Y041047D01*
X066297Y041001D01*
X066284Y040957D01*
X066266Y040913D01*
X066245Y040872D01*
X066221Y040832D01*
X066193Y040794D01*
X066162Y040759D01*
X066128Y040727D01*
X066092Y040698D01*
X066053Y040672D01*
X066013Y040649D01*
X065970Y040630D01*
X065926Y040614D01*
X065881Y040602D01*
X065835Y040594D01*
X065788Y040590D01*
X065742Y040590D01*
X065695Y040594D01*
X065649Y040602D01*
X065604Y040614D01*
X065560Y040630D01*
X065517Y040649D01*
X065477Y040672D01*
X065438Y040698D01*
X065402Y040727D01*
X065368Y040759D01*
X065337Y040794D01*
X065309Y040832D01*
X065285Y040872D01*
X065264Y040913D01*
X065246Y040957D01*
X065233Y041001D01*
X065223Y041047D01*
X065217Y041093D01*
X065215Y041140D01*
D11*
X059719Y038897D02*
X059719Y038457D01*
X058838Y038457D01*
X058838Y038897D01*
X058985Y039044D01*
X059572Y039044D01*
X059719Y038897D01*
X059719Y038123D02*
X058838Y038123D01*
X058838Y037536D02*
X059719Y038123D01*
X059719Y037536D02*
X058838Y037536D01*
X058985Y037203D02*
X058838Y037056D01*
X058838Y036762D01*
X058985Y036615D01*
X059572Y036615D01*
X059719Y036762D01*
X059719Y037056D01*
X059572Y037203D01*
X059278Y037203D01*
X059278Y036909D01*
X059563Y010735D02*
X059710Y010588D01*
X059710Y010295D01*
X059563Y010148D01*
X058976Y010148D01*
X058829Y010295D01*
X058829Y010588D01*
X058976Y010735D01*
X058976Y009814D02*
X058829Y009667D01*
X058829Y009374D01*
X058976Y009227D01*
X059563Y009227D01*
X059710Y009374D01*
X059710Y009667D01*
X059563Y009814D01*
X059416Y008893D02*
X058829Y008893D01*
X058829Y008306D02*
X059416Y008306D01*
X059710Y008600D01*
X059416Y008893D01*
D12*
X059264Y017260D02*
X059264Y018141D01*
X059558Y018434D01*
X059851Y018434D01*
X060145Y018141D01*
X060145Y017260D01*
X058383Y017260D01*
X058383Y018141D01*
X058677Y018434D01*
X058971Y018434D01*
X059264Y018141D01*
X058677Y019102D02*
X059264Y019689D01*
X060145Y019689D01*
X059264Y019689D02*
X058677Y020276D01*
X058383Y020276D01*
X058383Y020943D02*
X058383Y022117D01*
X058383Y021530D02*
X060145Y021530D01*
X060145Y022785D02*
X058383Y022785D01*
X058383Y023959D01*
X059264Y023372D02*
X059264Y022785D01*
X060145Y022785D02*
X060145Y023959D01*
X059851Y024626D02*
X058677Y024626D01*
X058383Y024920D01*
X058383Y025507D01*
X058677Y025801D01*
X059851Y025801D02*
X060145Y025507D01*
X060145Y024920D01*
X059851Y024626D01*
X060145Y026468D02*
X058383Y027642D01*
X058971Y028309D02*
X058383Y028897D01*
X060145Y028897D01*
X060145Y029484D02*
X060145Y028309D01*
X059851Y030151D02*
X059264Y030151D01*
X059264Y031032D01*
X059558Y031325D01*
X059851Y031325D01*
X060145Y031032D01*
X060145Y030445D01*
X059851Y030151D01*
X059264Y030151D02*
X058677Y030738D01*
X058383Y031325D01*
X058383Y019102D02*
X058677Y019102D01*
D13*
X061430Y018561D02*
X061430Y018351D01*
X061850Y018351D01*
X061850Y018561D01*
X061780Y018631D01*
X061500Y018631D01*
X061430Y018561D01*
X061430Y018171D02*
X061850Y018171D01*
X061430Y017890D01*
X061850Y017890D01*
X061780Y017710D02*
X061640Y017710D01*
X061640Y017570D01*
X061500Y017430D02*
X061780Y017430D01*
X061850Y017500D01*
X061850Y017640D01*
X061780Y017710D01*
X061500Y017710D02*
X061430Y017640D01*
X061430Y017500D01*
X061500Y017430D01*
X061430Y015881D02*
X061710Y015881D01*
X061850Y015741D01*
X061710Y015601D01*
X061430Y015601D01*
X061430Y015421D02*
X061430Y015140D01*
X061640Y015140D01*
X061570Y015281D01*
X061570Y015351D01*
X061640Y015421D01*
X061780Y015421D01*
X061850Y015351D01*
X061850Y015210D01*
X061780Y015140D01*
X061640Y014960D02*
X061640Y014680D01*
X061500Y014820D02*
X061780Y014820D01*
X062420Y014801D02*
X062500Y014801D01*
X062500Y018731D01*
X065100Y018731D01*
X066040Y018731D01*
X066040Y014801D01*
X065100Y014801D01*
X062500Y014801D01*
X062420Y014801D02*
X062420Y018731D01*
X062500Y018731D01*
X065100Y018731D02*
X065100Y018101D01*
X065100Y017401D02*
X065100Y016131D01*
X065100Y015431D02*
X065100Y014801D01*
X065100Y013106D02*
X062500Y013106D01*
X062500Y009176D01*
X062420Y009176D01*
X062420Y013106D01*
X062500Y013106D01*
X061850Y013061D02*
X061780Y013131D01*
X061500Y013131D01*
X061430Y013061D01*
X061430Y012851D01*
X061850Y012851D01*
X061850Y013061D01*
X061850Y012671D02*
X061430Y012671D01*
X061430Y012390D02*
X061850Y012671D01*
X061850Y012390D02*
X061430Y012390D01*
X061500Y012210D02*
X061430Y012140D01*
X061430Y012000D01*
X061500Y011930D01*
X061780Y011930D01*
X061850Y012000D01*
X061850Y012140D01*
X061780Y012210D01*
X061640Y012210D01*
X061640Y012070D01*
X061710Y010381D02*
X061430Y010381D01*
X061710Y010381D02*
X061850Y010241D01*
X061710Y010101D01*
X061430Y010101D01*
X061430Y009921D02*
X061430Y009640D01*
X061640Y009640D01*
X061570Y009781D01*
X061570Y009851D01*
X061640Y009921D01*
X061780Y009921D01*
X061850Y009851D01*
X061850Y009710D01*
X061780Y009640D01*
X061640Y009460D02*
X061640Y009180D01*
X061500Y009320D02*
X061780Y009320D01*
X062500Y009176D02*
X065100Y009176D01*
X065100Y009806D01*
X065100Y009176D02*
X066040Y009176D01*
X066040Y013106D01*
X065100Y013106D01*
X065100Y012476D01*
X065100Y011776D02*
X065100Y010506D01*
X060765Y007390D02*
X060515Y007640D01*
X060015Y007640D01*
X059765Y007390D01*
X059765Y005890D01*
X060015Y005640D01*
X060515Y005640D01*
X060765Y005890D01*
X060765Y007390D01*
X059765Y007390D02*
X059515Y007640D01*
X059015Y007640D01*
X058765Y007390D01*
X058765Y005890D01*
X059015Y005640D01*
X059515Y005640D01*
X059765Y005890D01*
X061640Y021180D02*
X061640Y021460D01*
X061640Y021640D02*
X061570Y021781D01*
X061570Y021851D01*
X061640Y021921D01*
X061780Y021921D01*
X061850Y021851D01*
X061850Y021710D01*
X061780Y021640D01*
X061640Y021640D02*
X061430Y021640D01*
X061430Y021921D01*
X061430Y022101D02*
X061710Y022101D01*
X061850Y022241D01*
X061710Y022381D01*
X061430Y022381D01*
X061500Y022930D02*
X061780Y022930D01*
X061850Y023000D01*
X061850Y023140D01*
X061780Y023210D01*
X061640Y023210D01*
X061640Y023070D01*
X061500Y022930D02*
X061430Y023000D01*
X061430Y023140D01*
X061500Y023210D01*
X061430Y023390D02*
X061850Y023671D01*
X061430Y023671D01*
X061430Y023851D02*
X061430Y024061D01*
X061500Y024131D01*
X061780Y024131D01*
X061850Y024061D01*
X061850Y023851D01*
X061430Y023851D01*
X061430Y023390D02*
X061850Y023390D01*
X061780Y024430D02*
X061500Y024430D01*
X061430Y024500D01*
X061430Y024640D01*
X061500Y024710D01*
X061640Y024710D02*
X061640Y024570D01*
X061640Y024710D02*
X061780Y024710D01*
X061850Y024640D01*
X061850Y024500D01*
X061780Y024430D01*
X061850Y024890D02*
X061430Y024890D01*
X061850Y025171D01*
X061430Y025171D01*
X061430Y025351D02*
X061430Y025561D01*
X061500Y025631D01*
X061780Y025631D01*
X061850Y025561D01*
X061850Y025351D01*
X061430Y025351D01*
X061430Y026180D02*
X061850Y026460D01*
X061430Y026460D01*
X061430Y026180D02*
X061850Y026180D01*
X061850Y026640D02*
X061430Y026921D01*
X061500Y027101D02*
X061780Y027101D01*
X061850Y027171D01*
X061850Y027311D01*
X061780Y027381D01*
X061500Y027381D02*
X061430Y027311D01*
X061430Y027171D01*
X061500Y027101D01*
X062441Y027324D02*
X062441Y026615D01*
X063396Y026615D01*
X063396Y021924D01*
X062441Y021924D01*
X062441Y021216D01*
X066290Y021216D01*
X066290Y027324D01*
X062441Y027324D01*
X062441Y026615D02*
X062441Y021924D01*
X061780Y021320D02*
X061500Y021320D01*
X060515Y039640D02*
X060015Y039640D01*
X059765Y039890D01*
X059765Y041390D01*
X060015Y041640D01*
X060515Y041640D01*
X060765Y041390D01*
X060765Y039890D01*
X060515Y039640D01*
X059765Y039890D02*
X059515Y039640D01*
X059015Y039640D01*
X058765Y039890D01*
X058765Y041390D01*
X059015Y041640D01*
X059515Y041640D01*
X059765Y041390D01*
M02*
