G75*
%MOIN*%
%OFA0B0*%
%FSLAX24Y24*%
%IPPOS*%
%LPD*%
%AMOC8*
5,1,8,0,0,1.08239X$1,22.5*
%
%ADD10C,0.0640*%
%ADD11OC8,0.0640*%
%ADD12C,0.0640*%
%ADD13C,0.0720*%
%ADD14OC8,0.0710*%
%ADD15C,0.0710*%
%ADD16C,0.0060*%
%ADD17C,0.1180*%
%ADD18OC8,0.0720*%
%ADD19C,0.0580*%
%ADD20C,0.0560*%
D10*
X014208Y009080D02*
X014208Y009640D01*
X015208Y009640D02*
X015208Y009080D01*
X016208Y009080D02*
X016208Y009640D01*
X017208Y009640D02*
X017208Y009080D01*
X017208Y012080D02*
X017208Y012640D01*
X016208Y012640D02*
X016208Y012080D01*
X015208Y012080D02*
X015208Y012640D01*
X014208Y012640D02*
X014208Y012080D01*
X022458Y012080D02*
X022458Y012640D01*
X023458Y012640D02*
X023458Y012080D01*
X024458Y012080D02*
X024458Y012640D01*
X025458Y012640D02*
X025458Y012080D01*
X026458Y012080D02*
X026458Y012640D01*
X027458Y012640D02*
X027458Y012080D01*
X028458Y012080D02*
X028458Y012640D01*
X031958Y012640D02*
X031958Y012080D01*
X032958Y012080D02*
X032958Y012640D01*
X033958Y012640D02*
X033958Y012080D01*
X034958Y012080D02*
X034958Y012640D01*
X035958Y012640D02*
X035958Y012080D01*
X036958Y012080D02*
X036958Y012640D01*
X037958Y012640D02*
X037958Y012080D01*
X037958Y009640D02*
X037958Y009080D01*
X036958Y009080D02*
X036958Y009640D01*
X035958Y009640D02*
X035958Y009080D01*
X034958Y009080D02*
X034958Y009640D01*
X033958Y009640D02*
X033958Y009080D01*
X032958Y009080D02*
X032958Y009640D01*
X031958Y009640D02*
X031958Y009080D01*
X028458Y009080D02*
X028458Y009640D01*
X027458Y009640D02*
X027458Y009080D01*
X026458Y009080D02*
X026458Y009640D01*
X025458Y009640D02*
X025458Y009080D01*
X024458Y009080D02*
X024458Y009640D01*
X023458Y009640D02*
X023458Y009080D01*
X022458Y009080D02*
X022458Y009640D01*
X023678Y022360D02*
X024238Y022360D01*
X024238Y023360D02*
X023678Y023360D01*
X023678Y024360D02*
X024238Y024360D01*
X024238Y025360D02*
X023678Y025360D01*
X023678Y026360D02*
X024238Y026360D01*
X024238Y027360D02*
X023678Y027360D01*
X023678Y028360D02*
X024238Y028360D01*
X026678Y028360D02*
X027238Y028360D01*
X027238Y027360D02*
X026678Y027360D01*
X026678Y026360D02*
X027238Y026360D01*
X027238Y025360D02*
X026678Y025360D01*
X026678Y024360D02*
X027238Y024360D01*
X027238Y023360D02*
X026678Y023360D01*
X026678Y022360D02*
X027238Y022360D01*
X030178Y022360D02*
X030738Y022360D01*
X030738Y023360D02*
X030178Y023360D01*
X030178Y024360D02*
X030738Y024360D01*
X030738Y025360D02*
X030178Y025360D01*
X030178Y026360D02*
X030738Y026360D01*
X030738Y027360D02*
X030178Y027360D01*
X030178Y028360D02*
X030738Y028360D01*
X033178Y028360D02*
X033738Y028360D01*
X033738Y027360D02*
X033178Y027360D01*
X033178Y026360D02*
X033738Y026360D01*
X033738Y025360D02*
X033178Y025360D01*
X033178Y024360D02*
X033738Y024360D01*
X033738Y023360D02*
X033178Y023360D01*
X033178Y022360D02*
X033738Y022360D01*
X036678Y022360D02*
X037238Y022360D01*
X037238Y023360D02*
X036678Y023360D01*
X036678Y024360D02*
X037238Y024360D01*
X037238Y025360D02*
X036678Y025360D01*
X036678Y026360D02*
X037238Y026360D01*
X037238Y027360D02*
X036678Y027360D01*
X036678Y028360D02*
X037238Y028360D01*
X039678Y028360D02*
X040238Y028360D01*
X040238Y027360D02*
X039678Y027360D01*
X039678Y026360D02*
X040238Y026360D01*
X040238Y025360D02*
X039678Y025360D01*
X039678Y024360D02*
X040238Y024360D01*
X040238Y023360D02*
X039678Y023360D01*
X039678Y022360D02*
X040238Y022360D01*
X042958Y021640D02*
X042958Y021080D01*
X043958Y021080D02*
X043958Y021640D01*
X044958Y021640D02*
X044958Y021080D01*
X045958Y021080D02*
X045958Y021640D01*
X046958Y021640D02*
X046958Y021080D01*
X047958Y021080D02*
X047958Y021640D01*
X048958Y021640D02*
X048958Y021080D01*
X049958Y021080D02*
X049958Y021640D01*
X050958Y021640D02*
X050958Y021080D01*
X051958Y021080D02*
X051958Y021640D01*
X051958Y018640D02*
X051958Y018080D01*
X050958Y018080D02*
X050958Y018640D01*
X049958Y018640D02*
X049958Y018080D01*
X048958Y018080D02*
X048958Y018640D01*
X047958Y018640D02*
X047958Y018080D01*
X046958Y018080D02*
X046958Y018640D01*
X045958Y018640D02*
X045958Y018080D01*
X044958Y018080D02*
X044958Y018640D01*
X043958Y018640D02*
X043958Y018080D01*
X042958Y018080D02*
X042958Y018640D01*
X042958Y016390D02*
X042958Y015830D01*
X043958Y015830D02*
X043958Y016390D01*
X044958Y016390D02*
X044958Y015830D01*
X045958Y015830D02*
X045958Y016390D01*
X046958Y016390D02*
X046958Y015830D01*
X047958Y015830D02*
X047958Y016390D01*
X048958Y016390D02*
X048958Y015830D01*
X049958Y015830D02*
X049958Y016390D01*
X050958Y016390D02*
X050958Y015830D01*
X051958Y015830D02*
X051958Y016390D01*
X051958Y013390D02*
X051958Y012830D01*
X050958Y012830D02*
X050958Y013390D01*
X049958Y013390D02*
X049958Y012830D01*
X048958Y012830D02*
X048958Y013390D01*
X047958Y013390D02*
X047958Y012830D01*
X046958Y012830D02*
X046958Y013390D01*
X045958Y013390D02*
X045958Y012830D01*
X044958Y012830D02*
X044958Y013390D01*
X043958Y013390D02*
X043958Y012830D01*
X042958Y012830D02*
X042958Y013390D01*
X042958Y025080D02*
X042958Y025640D01*
X043958Y025640D02*
X043958Y025080D01*
X044958Y025080D02*
X044958Y025640D01*
X045958Y025640D02*
X045958Y025080D01*
X046958Y025080D02*
X046958Y025640D01*
X047958Y025640D02*
X047958Y025080D01*
X048958Y025080D02*
X048958Y025640D01*
X049958Y025640D02*
X049958Y025080D01*
X050958Y025080D02*
X050958Y025640D01*
X051958Y025640D02*
X051958Y025080D01*
X051958Y028080D02*
X051958Y028640D01*
X050958Y028640D02*
X050958Y028080D01*
X049958Y028080D02*
X049958Y028640D01*
X048958Y028640D02*
X048958Y028080D01*
X047958Y028080D02*
X047958Y028640D01*
X046958Y028640D02*
X046958Y028080D01*
X045958Y028080D02*
X045958Y028640D01*
X044958Y028640D02*
X044958Y028080D01*
X043958Y028080D02*
X043958Y028640D01*
X042958Y028640D02*
X042958Y028080D01*
X042238Y032610D02*
X041678Y032610D01*
X041678Y033610D02*
X042238Y033610D01*
X042238Y034610D02*
X041678Y034610D01*
X041678Y035610D02*
X042238Y035610D01*
X042238Y036610D02*
X041678Y036610D01*
X041678Y037610D02*
X042238Y037610D01*
X042238Y038610D02*
X041678Y038610D01*
X041678Y039610D02*
X042238Y039610D01*
X042238Y040610D02*
X041678Y040610D01*
X041678Y041610D02*
X042238Y041610D01*
X044678Y041610D02*
X045238Y041610D01*
X045238Y040610D02*
X044678Y040610D01*
X044678Y039610D02*
X045238Y039610D01*
X045238Y038610D02*
X044678Y038610D01*
X044678Y037610D02*
X045238Y037610D01*
X045238Y036610D02*
X044678Y036610D01*
X044678Y035610D02*
X045238Y035610D01*
X047678Y035610D02*
X048238Y035610D01*
X048238Y036610D02*
X047678Y036610D01*
X047678Y037610D02*
X048238Y037610D01*
X048238Y038610D02*
X047678Y038610D01*
X047678Y039610D02*
X048238Y039610D01*
X048238Y040610D02*
X047678Y040610D01*
X047678Y041610D02*
X048238Y041610D01*
X050803Y041610D02*
X051363Y041610D01*
X051363Y040610D02*
X050803Y040610D01*
X050803Y039610D02*
X051363Y039610D01*
X051363Y038610D02*
X050803Y038610D01*
X050803Y037610D02*
X051363Y037610D01*
X051363Y036610D02*
X050803Y036610D01*
X050803Y035610D02*
X051363Y035610D01*
X051363Y034610D02*
X050803Y034610D01*
X050803Y033610D02*
X051363Y033610D01*
X051363Y032610D02*
X050803Y032610D01*
X053803Y032610D02*
X054363Y032610D01*
X054363Y033610D02*
X053803Y033610D01*
X053803Y034610D02*
X054363Y034610D01*
X054363Y035610D02*
X053803Y035610D01*
X053803Y036610D02*
X054363Y036610D01*
X054363Y037610D02*
X053803Y037610D01*
X053803Y038610D02*
X054363Y038610D01*
X054363Y039610D02*
X053803Y039610D01*
X053803Y040610D02*
X054363Y040610D01*
X054363Y041610D02*
X053803Y041610D01*
X039238Y041610D02*
X038678Y041610D01*
X038678Y040610D02*
X039238Y040610D01*
X039238Y039610D02*
X038678Y039610D01*
X038678Y038610D02*
X039238Y038610D01*
X039238Y037610D02*
X038678Y037610D01*
X038678Y036610D02*
X039238Y036610D01*
X039238Y035610D02*
X038678Y035610D01*
X038678Y034610D02*
X039238Y034610D01*
X039238Y033610D02*
X038678Y033610D01*
X038678Y032610D02*
X039238Y032610D01*
X036363Y032610D02*
X035803Y032610D01*
X035803Y033610D02*
X036363Y033610D01*
X036363Y034610D02*
X035803Y034610D01*
X035803Y035610D02*
X036363Y035610D01*
X036363Y036610D02*
X035803Y036610D01*
X035803Y037610D02*
X036363Y037610D01*
X036363Y038610D02*
X035803Y038610D01*
X035803Y039610D02*
X036363Y039610D01*
X036363Y040610D02*
X035803Y040610D01*
X035803Y041610D02*
X036363Y041610D01*
X033363Y041610D02*
X032803Y041610D01*
X032803Y040610D02*
X033363Y040610D01*
X033363Y039610D02*
X032803Y039610D01*
X032803Y038610D02*
X033363Y038610D01*
X033363Y037610D02*
X032803Y037610D01*
X032803Y036610D02*
X033363Y036610D01*
X033363Y035610D02*
X032803Y035610D01*
X032803Y034610D02*
X033363Y034610D01*
X033363Y033610D02*
X032803Y033610D01*
X032803Y032610D02*
X033363Y032610D01*
X029363Y032610D02*
X028803Y032610D01*
X028803Y033610D02*
X029363Y033610D01*
X029363Y034610D02*
X028803Y034610D01*
X028803Y035610D02*
X029363Y035610D01*
X029363Y036610D02*
X028803Y036610D01*
X028803Y037610D02*
X029363Y037610D01*
X029363Y038610D02*
X028803Y038610D01*
X028803Y039610D02*
X029363Y039610D01*
X029363Y040610D02*
X028803Y040610D01*
X028803Y041610D02*
X029363Y041610D01*
X026363Y041610D02*
X025803Y041610D01*
X025803Y040610D02*
X026363Y040610D01*
X026363Y039610D02*
X025803Y039610D01*
X025803Y038610D02*
X026363Y038610D01*
X026363Y037610D02*
X025803Y037610D01*
X025803Y036610D02*
X026363Y036610D01*
X026363Y035610D02*
X025803Y035610D01*
X025803Y034610D02*
X026363Y034610D01*
X026363Y033610D02*
X025803Y033610D01*
X025803Y032610D02*
X026363Y032610D01*
X019238Y032610D02*
X018678Y032610D01*
X018678Y033610D02*
X019238Y033610D01*
X019238Y034610D02*
X018678Y034610D01*
X018678Y035610D02*
X019238Y035610D01*
X019238Y036610D02*
X018678Y036610D01*
X018678Y037610D02*
X019238Y037610D01*
X019238Y038610D02*
X018678Y038610D01*
X018678Y039610D02*
X019238Y039610D01*
X019238Y040610D02*
X018678Y040610D01*
X018678Y041610D02*
X019238Y041610D01*
X016238Y041610D02*
X015678Y041610D01*
X015678Y040610D02*
X016238Y040610D01*
X016238Y039610D02*
X015678Y039610D01*
X015678Y038610D02*
X016238Y038610D01*
X016238Y037610D02*
X015678Y037610D01*
X015678Y036610D02*
X016238Y036610D01*
X016238Y035610D02*
X015678Y035610D01*
X015678Y034610D02*
X016238Y034610D01*
X016238Y033610D02*
X015678Y033610D01*
X015678Y032610D02*
X016238Y032610D01*
X056208Y028640D02*
X056208Y028080D01*
X057208Y028080D02*
X057208Y028640D01*
X058208Y028640D02*
X058208Y028080D01*
X059208Y028080D02*
X059208Y028640D01*
X060208Y028640D02*
X060208Y028080D01*
X061208Y028080D02*
X061208Y028640D01*
X062208Y028640D02*
X062208Y028080D01*
X062208Y025640D02*
X062208Y025080D01*
X061208Y025080D02*
X061208Y025640D01*
X060208Y025640D02*
X060208Y025080D01*
X059208Y025080D02*
X059208Y025640D01*
X058208Y025640D02*
X058208Y025080D01*
X057208Y025080D02*
X057208Y025640D01*
X056208Y025640D02*
X056208Y025080D01*
D11*
X054708Y026360D03*
X053458Y025360D03*
X053458Y027360D03*
X054708Y028360D03*
X055708Y033610D03*
X055708Y034610D03*
X055708Y035610D03*
X055708Y036610D03*
X055708Y037610D03*
X055708Y038610D03*
X055708Y039610D03*
X055708Y040610D03*
X058708Y040610D03*
X058708Y039610D03*
X058708Y038610D03*
X058708Y037610D03*
X058708Y036610D03*
X058708Y035610D03*
X058708Y034610D03*
X058708Y033610D03*
X054083Y043235D03*
X052083Y043235D03*
X047958Y043235D03*
X045958Y043235D03*
X041958Y043235D03*
X039958Y043235D03*
X037458Y043860D03*
X035458Y043860D03*
X029083Y043735D03*
X027083Y043735D03*
X023958Y039610D03*
X023958Y038610D03*
X023958Y037610D03*
X023958Y036610D03*
X023958Y035610D03*
X023958Y034610D03*
X023958Y033610D03*
X023958Y032610D03*
X020958Y032610D03*
X020958Y033610D03*
X020958Y034610D03*
X020958Y035610D03*
X020958Y036610D03*
X020958Y037610D03*
X020958Y038610D03*
X020958Y039610D03*
X018958Y043735D03*
X016958Y043735D03*
X024958Y029860D03*
X026958Y029860D03*
X031458Y029860D03*
X033458Y029860D03*
X037958Y029860D03*
X039958Y029860D03*
X053458Y018360D03*
X055458Y018360D03*
X055333Y013110D03*
X053333Y013110D03*
X030458Y012360D03*
X030458Y010360D03*
X020958Y010360D03*
X020958Y012360D03*
X018708Y012110D03*
X018708Y009110D03*
X012458Y010360D03*
X012458Y012360D03*
X014958Y023360D03*
X017958Y023360D03*
X010458Y027360D03*
X007458Y027360D03*
X007458Y029610D03*
X008458Y029610D03*
D12*
X012958Y029360D03*
X012958Y026360D03*
X018958Y026360D03*
X018958Y029360D03*
D13*
X008348Y025960D02*
X008348Y025320D01*
X006568Y025320D02*
X006568Y025960D01*
X006568Y023400D02*
X006568Y022760D01*
X008348Y022760D02*
X008348Y023400D01*
D14*
X012458Y023360D03*
X063458Y009610D03*
X063833Y011610D03*
X063833Y012610D03*
X063833Y013610D03*
X063833Y014610D03*
X063833Y015610D03*
X063833Y016610D03*
X063833Y017610D03*
X063833Y018610D03*
X063833Y019610D03*
X063833Y020610D03*
X063833Y021610D03*
X063833Y022610D03*
X063833Y023610D03*
X063833Y024610D03*
X063833Y025610D03*
X063833Y026610D03*
X063833Y027610D03*
X063833Y028610D03*
X063833Y029610D03*
X063833Y030610D03*
X063833Y031610D03*
X063833Y032610D03*
X063833Y033610D03*
X063833Y034610D03*
X063833Y035610D03*
X063833Y036610D03*
X063833Y037610D03*
X063833Y038610D03*
X063833Y039610D03*
X063833Y040610D03*
X063833Y041610D03*
X063833Y042610D03*
X065833Y041610D03*
X065833Y040610D03*
X065833Y039610D03*
X065833Y038610D03*
X065833Y037610D03*
X065833Y036610D03*
X065833Y035610D03*
X065833Y034610D03*
X065833Y033610D03*
X065833Y032610D03*
X065833Y031610D03*
X065833Y030610D03*
X065833Y029610D03*
X065833Y028610D03*
X065833Y027610D03*
X065833Y026610D03*
X065833Y025610D03*
X065833Y024610D03*
X065833Y023610D03*
X065833Y022610D03*
X065833Y021610D03*
X065833Y020610D03*
X065833Y019610D03*
X065833Y018610D03*
X065833Y017610D03*
X065833Y016610D03*
X065833Y015610D03*
X065833Y014610D03*
X065833Y013610D03*
X065833Y012610D03*
X065833Y011610D03*
D15*
X064458Y009610D03*
X065833Y042610D03*
X013458Y023360D03*
D16*
X004933Y010420D02*
X004933Y007420D01*
X007933Y007420D01*
X004933Y043800D02*
X004933Y046800D01*
X007933Y046800D01*
X064933Y046800D02*
X067933Y046800D01*
X067933Y043800D01*
X067933Y010420D02*
X067933Y007420D01*
X064933Y007420D01*
D17*
X066833Y009610D03*
X066833Y044610D03*
X006333Y044610D03*
X006333Y009610D03*
D18*
X008458Y009610D03*
X008458Y010610D03*
X009458Y010610D03*
X009458Y009610D03*
X007833Y013610D03*
X006833Y013610D03*
X006833Y014610D03*
X007833Y014610D03*
X007833Y015610D03*
X006833Y015610D03*
X006833Y016610D03*
X007833Y016610D03*
X007833Y017610D03*
X006833Y017610D03*
X006833Y018610D03*
X007833Y018610D03*
X007833Y019610D03*
X006833Y019610D03*
X006833Y020610D03*
X007833Y020610D03*
X007833Y033610D03*
X006833Y033610D03*
X006833Y034610D03*
X007833Y034610D03*
X007833Y035610D03*
X006833Y035610D03*
X006833Y036610D03*
X007833Y036610D03*
X007833Y037610D03*
X006833Y037610D03*
X006833Y038610D03*
X007833Y038610D03*
X007833Y039610D03*
X006833Y039610D03*
X006833Y040610D03*
X007833Y040610D03*
X008458Y043610D03*
X008458Y044610D03*
X009458Y044610D03*
X009458Y043610D03*
X039958Y010610D03*
X039958Y009610D03*
X040958Y009610D03*
X041958Y009610D03*
X042958Y009610D03*
X042958Y010610D03*
X041958Y010610D03*
X040958Y010610D03*
X043958Y010610D03*
X044958Y010610D03*
X044958Y009610D03*
X043958Y009610D03*
X045958Y009610D03*
X046958Y009610D03*
X047958Y009610D03*
X047958Y010610D03*
X046958Y010610D03*
X045958Y010610D03*
X048958Y010610D03*
X049958Y010610D03*
X049958Y009610D03*
X048958Y009610D03*
X050958Y009610D03*
X051958Y009610D03*
X052958Y009610D03*
X052958Y010610D03*
X051958Y010610D03*
X050958Y010610D03*
X053958Y010610D03*
X054958Y010610D03*
X054958Y009610D03*
X053958Y009610D03*
X060333Y009610D03*
X061333Y009610D03*
X061333Y010610D03*
X060333Y010610D03*
X060333Y013610D03*
X060333Y014610D03*
X061333Y014610D03*
X061333Y013610D03*
X061333Y015610D03*
X060333Y015610D03*
X060333Y016610D03*
X061333Y016610D03*
X061333Y017610D03*
X060333Y017610D03*
X060333Y018610D03*
X061333Y018610D03*
X061333Y019610D03*
X060333Y019610D03*
X060333Y020610D03*
X061333Y020610D03*
X061333Y033610D03*
X060333Y033610D03*
X060333Y034610D03*
X061333Y034610D03*
X061333Y035610D03*
X060333Y035610D03*
X060333Y036610D03*
X061333Y036610D03*
X061333Y037610D03*
X060333Y037610D03*
X060333Y038610D03*
X061333Y038610D03*
X061333Y039610D03*
X060333Y039610D03*
X060333Y040610D03*
X061333Y040610D03*
X061333Y043610D03*
X060333Y043610D03*
X060333Y044610D03*
X061333Y044610D03*
D19*
X043208Y029735D03*
X040583Y029360D03*
X046458Y024110D03*
X042833Y023110D03*
X040583Y016360D03*
X039708Y016360D03*
X039708Y011860D03*
X031083Y008860D03*
X029708Y008860D03*
X016208Y016985D03*
X010958Y017610D03*
X016208Y021235D03*
X027958Y021610D03*
X030333Y021360D03*
X031458Y023360D03*
X049958Y011360D03*
X054083Y016110D03*
X054083Y017235D03*
X054583Y017735D03*
X056958Y017110D03*
X059333Y012985D03*
X060333Y011610D03*
X059458Y009235D03*
X056958Y023235D03*
X035458Y042235D03*
X035458Y042985D03*
D20*
X030958Y041610D03*
M02*
