%
M48
M72
T01C0.0240
T02C0.0320
T03C0.0360
T04C0.0400
T05C0.1100
%
T01
X16208Y16985
X10958Y17610
X16208Y21235
X27958Y21610
X30333Y21360
X31458Y23360
X39708Y16360
X40583Y16360
X39708Y11860
X31083Y8860
X29708Y8860
X42833Y23110
X46458Y24110
X43208Y29735
X40583Y29360
X30958Y41610
X35458Y42235
X35458Y42985
X56958Y23235
X54583Y17735
X54083Y17235
X54083Y16110
X56958Y17110
X59333Y12985
X60333Y11610
X59458Y9235
X49958Y11360
T02
X49958Y13110
X48958Y13110
X47958Y13110
X46958Y13110
X45958Y13110
X44958Y13110
X43958Y13110
X42958Y13110
X42958Y16110
X43958Y16110
X44958Y16110
X45958Y16110
X46958Y16110
X47958Y16110
X48958Y16110
X49958Y16110
X50958Y16110
X51958Y16110
X51958Y18360
X50958Y18360
X49958Y18360
X48958Y18360
X47958Y18360
X46958Y18360
X45958Y18360
X44958Y18360
X43958Y18360
X42958Y18360
X42958Y21360
X43958Y21360
X44958Y21360
X45958Y21360
X46958Y21360
X47958Y21360
X48958Y21360
X49958Y21360
X50958Y21360
X51958Y21360
X53458Y18360
X55458Y18360
X55333Y13110
X53333Y13110
X51958Y13110
X50958Y13110
X63458Y9610
X64458Y9610
X62208Y25360
X61208Y25360
X60208Y25360
X59208Y25360
X58208Y25360
X57208Y25360
X56208Y25360
X54708Y26360
X53458Y25360
X51958Y25360
X50958Y25360
X49958Y25360
X48958Y25360
X47958Y25360
X46958Y25360
X45958Y25360
X44958Y25360
X43958Y25360
X42958Y25360
X39958Y25360
X39958Y24360
X39958Y23360
X39958Y22360
X36958Y22360
X36958Y23360
X36958Y24360
X36958Y25360
X36958Y26360
X36958Y27360
X36958Y28360
X37958Y29860
X39958Y29860
X39958Y28360
X39958Y27360
X39958Y26360
X42958Y28360
X43958Y28360
X44958Y28360
X45958Y28360
X46958Y28360
X47958Y28360
X48958Y28360
X49958Y28360
X50958Y28360
X51958Y28360
X53458Y27360
X54708Y28360
X56208Y28360
X57208Y28360
X58208Y28360
X59208Y28360
X60208Y28360
X61208Y28360
X62208Y28360
X58708Y33610
X58708Y34610
X58708Y35610
X58708Y36610
X58708Y37610
X58708Y38610
X58708Y39610
X58708Y40610
X55708Y40610
X55708Y39610
X55708Y38610
X55708Y37610
X55708Y36610
X55708Y35610
X55708Y34610
X55708Y33610
X54083Y33610
X54083Y32610
X54083Y34610
X54083Y35610
X54083Y36610
X54083Y37610
X54083Y38610
X54083Y39610
X54083Y40610
X54083Y41610
X54083Y43235
X52083Y43235
X51083Y41610
X51083Y40610
X51083Y39610
X51083Y38610
X51083Y37610
X51083Y36610
X51083Y35610
X51083Y34610
X51083Y33610
X51083Y32610
X47958Y35610
X47958Y36610
X47958Y37610
X47958Y38610
X47958Y39610
X47958Y40610
X47958Y41610
X47958Y43235
X45958Y43235
X44958Y41610
X44958Y40610
X44958Y39610
X44958Y38610
X44958Y37610
X44958Y36610
X44958Y35610
X41958Y35610
X41958Y34610
X41958Y33610
X41958Y32610
X38958Y32610
X38958Y33610
X38958Y34610
X38958Y35610
X38958Y36610
X38958Y37610
X38958Y38610
X38958Y39610
X38958Y40610
X38958Y41610
X39958Y43235
X41958Y43235
X41958Y41610
X41958Y40610
X41958Y39610
X41958Y38610
X41958Y37610
X41958Y36610
X36083Y36610
X36083Y35610
X36083Y34610
X36083Y33610
X36083Y32610
X33083Y32610
X33083Y33610
X33083Y34610
X33083Y35610
X33083Y36610
X33083Y37610
X33083Y38610
X33083Y39610
X33083Y40610
X33083Y41610
X36083Y41610
X36083Y40610
X36083Y39610
X36083Y38610
X36083Y37610
X29083Y37610
X29083Y36610
X29083Y35610
X29083Y34610
X29083Y33610
X29083Y32610
X26083Y32610
X26083Y33610
X26083Y34610
X26083Y35610
X26083Y36610
X26083Y37610
X26083Y38610
X26083Y39610
X26083Y40610
X26083Y41610
X23958Y39610
X23958Y38610
X23958Y37610
X23958Y36610
X23958Y35610
X23958Y34610
X23958Y33610
X23958Y32610
X20958Y32610
X20958Y33610
X20958Y34610
X20958Y35610
X20958Y36610
X20958Y37610
X20958Y38610
X20958Y39610
X18958Y39610
X18958Y40610
X18958Y41610
X18958Y43735
X16958Y43735
X15958Y41610
X15958Y40610
X15958Y39610
X15958Y38610
X15958Y37610
X15958Y36610
X15958Y35610
X15958Y34610
X15958Y33610
X15958Y32610
X18958Y32610
X18958Y33610
X18958Y34610
X18958Y35610
X18958Y36610
X18958Y37610
X18958Y38610
X27083Y43735
X29083Y43735
X29083Y41610
X29083Y40610
X29083Y39610
X29083Y38610
X35458Y43860
X37458Y43860
X33458Y29860
X33458Y28360
X33458Y27360
X33458Y26360
X33458Y25360
X33458Y24360
X33458Y23360
X33458Y22360
X30458Y22360
X30458Y23360
X30458Y24360
X30458Y25360
X30458Y26360
X30458Y27360
X30458Y28360
X31458Y29860
X26958Y29860
X26958Y28360
X26958Y27360
X26958Y26360
X26958Y25360
X26958Y24360
X26958Y23360
X26958Y22360
X23958Y22360
X23958Y23360
X23958Y24360
X23958Y25360
X23958Y26360
X23958Y27360
X23958Y28360
X24958Y29860
X18958Y29360
X18958Y26360
X17958Y23360
X14958Y23360
X13458Y23360
X12458Y23360
X12958Y26360
X10458Y27360
X7458Y27360
X7458Y29610
X8458Y29610
X12958Y29360
X12458Y12360
X14208Y12360
X15208Y12360
X16208Y12360
X17208Y12360
X18708Y12110
X20958Y12360
X22458Y12360
X23458Y12360
X24458Y12360
X25458Y12360
X26458Y12360
X27458Y12360
X28458Y12360
X30458Y12360
X31958Y12360
X32958Y12360
X33958Y12360
X34958Y12360
X35958Y12360
X36958Y12360
X37958Y12360
X37958Y9360
X36958Y9360
X35958Y9360
X34958Y9360
X33958Y9360
X32958Y9360
X31958Y9360
X30458Y10360
X28458Y9360
X27458Y9360
X26458Y9360
X25458Y9360
X24458Y9360
X23458Y9360
X22458Y9360
X20958Y10360
X18708Y9110
X17208Y9360
X16208Y9360
X15208Y9360
X14208Y9360
X12458Y10360
T03
X63833Y11610
X63833Y12610
X63833Y13610
X63833Y14610
X63833Y15610
X63833Y16610
X63833Y17610
X63833Y18610
X63833Y19610
X63833Y20610
X63833Y21610
X63833Y22610
X63833Y23610
X63833Y24610
X63833Y25610
X63833Y26610
X63833Y27610
X63833Y28610
X63833Y29610
X63833Y30610
X63833Y31610
X63833Y32610
X63833Y33610
X63833Y34610
X63833Y35610
X63833Y36610
X63833Y37610
X63833Y38610
X63833Y39610
X63833Y40610
X63833Y41610
X63833Y42610
X65833Y42610
X65833Y41610
X65833Y40610
X65833Y39610
X65833Y38610
X65833Y37610
X65833Y36610
X65833Y35610
X65833Y34610
X65833Y33610
X65833Y32610
X65833Y31610
X65833Y30610
X65833Y29610
X65833Y28610
X65833Y27610
X65833Y26610
X65833Y25610
X65833Y24610
X65833Y23610
X65833Y22610
X65833Y21610
X65833Y20610
X65833Y19610
X65833Y18610
X65833Y17610
X65833Y16610
X65833Y15610
X65833Y14610
X65833Y13610
X65833Y12610
X65833Y11610
T04
X61333Y10610
X60333Y10610
X60333Y9610
X61333Y9610
X61333Y13610
X60333Y13610
X60333Y14610
X61333Y14610
X61333Y15610
X60333Y15610
X60333Y16610
X61333Y16610
X61333Y17610
X60333Y17610
X60333Y18610
X61333Y18610
X61333Y19610
X60333Y19610
X60333Y20610
X61333Y20610
X54958Y10610
X53958Y10610
X52958Y10610
X51958Y10610
X50958Y10610
X49958Y10610
X48958Y10610
X47958Y10610
X46958Y10610
X45958Y10610
X44958Y10610
X43958Y10610
X42958Y10610
X41958Y10610
X40958Y10610
X39958Y10610
X39958Y9610
X40958Y9610
X41958Y9610
X42958Y9610
X43958Y9610
X44958Y9610
X45958Y9610
X46958Y9610
X47958Y9610
X48958Y9610
X49958Y9610
X50958Y9610
X51958Y9610
X52958Y9610
X53958Y9610
X54958Y9610
X60333Y33610
X61333Y33610
X61333Y34610
X60333Y34610
X60333Y35610
X61333Y35610
X61333Y36610
X60333Y36610
X60333Y37610
X61333Y37610
X61333Y38610
X60333Y38610
X60333Y39610
X60333Y40610
X61333Y40610
X61333Y39610
X61333Y43610
X60333Y43610
X60333Y44610
X61333Y44610
X9458Y44610
X8458Y44610
X8458Y43610
X9458Y43610
X7833Y40610
X6833Y40610
X6833Y39610
X7833Y39610
X7833Y38610
X6833Y38610
X6833Y37610
X7833Y37610
X7833Y36610
X6833Y36610
X6833Y35610
X7833Y35610
X7833Y34610
X6833Y34610
X6833Y33610
X7833Y33610
X8348Y25640
X6568Y25640
X6568Y23080
X8348Y23080
X7833Y20610
X6833Y20610
X6833Y19610
X7833Y19610
X7833Y18610
X6833Y18610
X6833Y17610
X7833Y17610
X7833Y16610
X6833Y16610
X6833Y15610
X7833Y15610
X7833Y14610
X6833Y14610
X6833Y13610
X7833Y13610
X8458Y10610
X8458Y9610
X9458Y9610
X9458Y10610
T05
X6333Y9610
X6333Y44610
X66833Y44610
X66833Y9610
M30
