G75*
%MOIN*%
%OFA0B0*%
%FSLAX24Y24*%
%IPPOS*%
%LPD*%
%AMOC8*
5,1,8,0,0,1.08239X$1,22.5*
%
%ADD10C,0.0100*%
%ADD11C,0.0120*%
%ADD12R,0.0150X0.0200*%
%ADD13R,0.0200X0.0150*%
D10*
X008208Y009110D02*
X008708Y009110D01*
X008958Y009360D01*
X008958Y010860D01*
X009208Y011110D01*
X009708Y011110D01*
X009958Y010860D01*
X009958Y009360D01*
X009708Y009110D01*
X009208Y009110D01*
X008958Y009360D01*
X008208Y009110D02*
X007958Y009360D01*
X007958Y010860D01*
X008208Y011110D01*
X008708Y011110D01*
X008958Y010860D01*
X008929Y011410D02*
X009129Y011410D01*
X009196Y011477D01*
X009196Y011744D01*
X009129Y011810D01*
X008929Y011810D01*
X008929Y011410D01*
X008736Y011410D02*
X008736Y011810D01*
X008469Y011810D02*
X008736Y011410D01*
X008469Y011410D02*
X008469Y011810D01*
X008275Y011744D02*
X008209Y011810D01*
X008075Y011810D01*
X008008Y011744D01*
X008008Y011477D01*
X008075Y011410D01*
X008209Y011410D01*
X008275Y011477D01*
X008275Y011610D01*
X008142Y011610D01*
X009390Y011744D02*
X009456Y011810D01*
X009590Y011810D01*
X009656Y011744D01*
X009656Y011677D01*
X009390Y011410D01*
X009656Y011410D01*
X008083Y013110D02*
X006583Y013110D01*
X006333Y013360D01*
X006333Y013860D01*
X006583Y014110D01*
X008083Y014110D01*
X008333Y013860D01*
X008333Y013360D01*
X008083Y013110D01*
X008083Y014110D02*
X008333Y014360D01*
X008333Y014860D01*
X008083Y015110D01*
X006583Y015110D01*
X006333Y014860D01*
X006333Y014360D01*
X006583Y014110D01*
X006583Y015110D02*
X006333Y015360D01*
X006333Y015860D01*
X006583Y016110D01*
X008083Y016110D01*
X008333Y015860D01*
X008333Y015360D01*
X008083Y015110D01*
X008083Y016110D02*
X008333Y016360D01*
X008333Y016860D01*
X008083Y017110D01*
X006583Y017110D01*
X006333Y016860D01*
X006333Y016360D01*
X006583Y016110D01*
X006583Y017110D02*
X006333Y017360D01*
X006333Y017860D01*
X006583Y018110D01*
X008083Y018110D01*
X008333Y017860D01*
X008333Y017360D01*
X008083Y017110D01*
X008083Y018110D02*
X008333Y018360D01*
X008333Y018860D01*
X008083Y019110D01*
X006583Y019110D01*
X006333Y018860D01*
X006333Y018360D01*
X006583Y018110D01*
X006583Y019110D02*
X006333Y019360D01*
X006333Y019860D01*
X006583Y020110D01*
X008083Y020110D01*
X008333Y019860D01*
X008333Y019360D01*
X008083Y019110D01*
X008633Y019912D02*
X008633Y020046D01*
X008633Y019979D02*
X008967Y019979D01*
X009033Y019912D01*
X009033Y019846D01*
X008967Y019779D01*
X009033Y020239D02*
X008633Y020239D01*
X008633Y020439D01*
X008700Y020506D01*
X008833Y020506D01*
X008900Y020439D01*
X008900Y020239D01*
X008833Y020700D02*
X008833Y020966D01*
X008633Y020900D02*
X008833Y020700D01*
X009033Y020900D02*
X008633Y020900D01*
X008333Y020860D02*
X008333Y020360D01*
X008083Y020110D01*
X008333Y020860D02*
X008083Y021110D01*
X006583Y021110D01*
X006333Y020860D01*
X006333Y020360D01*
X006583Y020110D01*
X007158Y023060D02*
X007758Y023060D01*
X008658Y023510D02*
X008658Y025210D01*
X007758Y025660D02*
X007158Y025660D01*
X006258Y025210D02*
X006258Y023510D01*
X005958Y023410D02*
X005958Y023277D01*
X005892Y023210D01*
X005758Y023277D02*
X005758Y023410D01*
X005825Y023477D01*
X005892Y023477D01*
X005958Y023410D01*
X005758Y023277D02*
X005691Y023210D01*
X005625Y023210D01*
X005558Y023277D01*
X005558Y023410D01*
X005625Y023477D01*
X005691Y023670D02*
X005558Y023804D01*
X005958Y023804D01*
X005958Y023937D02*
X005958Y023670D01*
X008008Y026420D02*
X008008Y026710D01*
X008153Y026710D01*
X008202Y026662D01*
X008202Y026565D01*
X008153Y026517D01*
X008008Y026517D01*
X008105Y026517D02*
X008202Y026420D01*
X008367Y026420D02*
X008561Y026420D01*
X008464Y026420D02*
X008464Y026710D01*
X008367Y026613D01*
X008727Y026613D02*
X008775Y026565D01*
X008872Y026565D01*
X008920Y026517D01*
X008920Y026468D01*
X008872Y026420D01*
X008775Y026420D01*
X008727Y026468D01*
X008727Y026517D01*
X008775Y026565D01*
X008727Y026613D02*
X008727Y026662D01*
X008775Y026710D01*
X008872Y026710D01*
X008920Y026662D01*
X008920Y026613D01*
X008872Y026565D01*
X008258Y027010D02*
X009658Y027010D01*
X009708Y026960D01*
X009858Y026960D01*
X009875Y026962D01*
X009892Y026966D01*
X009908Y026973D01*
X009922Y026983D01*
X009935Y026996D01*
X009945Y027010D01*
X009952Y027026D01*
X009956Y027043D01*
X009958Y027060D01*
X009958Y027660D01*
X009956Y027677D01*
X009952Y027694D01*
X009945Y027710D01*
X009935Y027724D01*
X009922Y027737D01*
X009908Y027747D01*
X009892Y027754D01*
X009875Y027758D01*
X009858Y027760D01*
X009708Y027760D01*
X009658Y027710D01*
X008258Y027710D01*
X008208Y027760D01*
X008058Y027760D01*
X008041Y027758D01*
X008024Y027754D01*
X008008Y027747D01*
X007994Y027737D01*
X007981Y027724D01*
X007971Y027710D01*
X007964Y027694D01*
X007960Y027677D01*
X007958Y027660D01*
X007958Y027060D01*
X007960Y027043D01*
X007964Y027026D01*
X007971Y027010D01*
X007981Y026996D01*
X007994Y026983D01*
X008008Y026973D01*
X008024Y026966D01*
X008041Y026962D01*
X008058Y026960D01*
X008208Y026960D01*
X008258Y027010D01*
X008513Y027220D02*
X008513Y027510D01*
X008368Y027365D01*
X008562Y027365D01*
X008727Y027268D02*
X008921Y027462D01*
X008921Y027268D01*
X008873Y027220D01*
X008776Y027220D01*
X008727Y027268D01*
X008727Y027462D01*
X008776Y027510D01*
X008873Y027510D01*
X008921Y027462D01*
X009087Y027462D02*
X009135Y027510D01*
X009232Y027510D01*
X009280Y027462D01*
X009087Y027268D01*
X009135Y027220D01*
X009232Y027220D01*
X009280Y027268D01*
X009280Y027462D01*
X009087Y027462D02*
X009087Y027268D01*
X008958Y028860D02*
X008958Y030360D01*
X009258Y030270D02*
X009258Y029870D01*
X009525Y029870D01*
X009719Y029870D02*
X009986Y029870D01*
X010179Y029870D02*
X010379Y029870D01*
X010446Y029937D01*
X010446Y030204D01*
X010379Y030270D01*
X010179Y030270D01*
X010179Y029870D01*
X009852Y030070D02*
X009719Y030070D01*
X009719Y030270D02*
X009719Y029870D01*
X009719Y030270D02*
X009986Y030270D01*
X010640Y030137D02*
X010773Y030270D01*
X010773Y029870D01*
X010640Y029870D02*
X010906Y029870D01*
X011958Y029860D02*
X011958Y025360D01*
X019458Y025360D01*
X019458Y025610D02*
X012458Y025610D01*
X012428Y025612D01*
X012398Y025617D01*
X012369Y025626D01*
X012342Y025639D01*
X012316Y025654D01*
X012292Y025673D01*
X012271Y025694D01*
X012252Y025718D01*
X012237Y025744D01*
X012224Y025771D01*
X012215Y025800D01*
X012210Y025830D01*
X012208Y025860D01*
X012208Y029860D01*
X011958Y029860D02*
X011960Y029904D01*
X011966Y029947D01*
X011975Y029989D01*
X011988Y030031D01*
X012005Y030071D01*
X012025Y030110D01*
X012048Y030147D01*
X012075Y030181D01*
X012104Y030214D01*
X012137Y030243D01*
X012171Y030270D01*
X012208Y030293D01*
X012247Y030313D01*
X012287Y030330D01*
X012329Y030343D01*
X012371Y030352D01*
X012414Y030358D01*
X012458Y030360D01*
X019458Y030360D01*
X019458Y030110D02*
X012458Y030110D01*
X012428Y030108D01*
X012398Y030103D01*
X012369Y030094D01*
X012342Y030081D01*
X012316Y030066D01*
X012292Y030047D01*
X012271Y030026D01*
X012252Y030002D01*
X012237Y029976D01*
X012224Y029949D01*
X012215Y029920D01*
X012210Y029890D01*
X012208Y029860D01*
X013008Y030667D02*
X013075Y030600D01*
X013209Y030600D01*
X013275Y030667D01*
X013275Y030934D01*
X013209Y031000D01*
X013075Y031000D01*
X013008Y030934D01*
X013008Y030667D01*
X013469Y030667D02*
X013535Y030600D01*
X013669Y030600D01*
X013736Y030667D01*
X013736Y030733D01*
X013669Y030800D01*
X013535Y030800D01*
X013469Y030867D01*
X013469Y030934D01*
X013535Y031000D01*
X013669Y031000D01*
X013736Y030934D01*
X013929Y030934D02*
X013929Y030667D01*
X013996Y030600D01*
X014129Y030600D01*
X014196Y030667D01*
X014390Y030600D02*
X014656Y030600D01*
X014523Y030600D02*
X014523Y031000D01*
X014390Y030867D01*
X014196Y030934D02*
X014129Y031000D01*
X013996Y031000D01*
X013929Y030934D01*
X014958Y029360D02*
X015588Y029360D01*
X016328Y029360D02*
X016958Y029360D01*
X016728Y027857D02*
X016461Y027857D01*
X016268Y027790D02*
X016001Y027790D01*
X016001Y027590D02*
X016001Y027990D01*
X015807Y027990D02*
X015807Y027590D01*
X015540Y027590D02*
X015540Y027990D01*
X015674Y027857D01*
X015807Y027990D01*
X016268Y027990D02*
X016268Y027590D01*
X016461Y027590D02*
X016728Y027590D01*
X016728Y027857D02*
X016461Y027590D01*
X015347Y027657D02*
X015280Y027590D01*
X015147Y027590D01*
X015080Y027657D01*
X015347Y027924D01*
X015347Y027657D01*
X015347Y027924D02*
X015280Y027990D01*
X015147Y027990D01*
X015080Y027924D01*
X015080Y027657D01*
X014887Y027657D02*
X014820Y027590D01*
X014686Y027590D01*
X014620Y027657D01*
X014887Y027924D01*
X014887Y027657D01*
X014887Y027924D02*
X014820Y027990D01*
X014686Y027990D01*
X014620Y027924D01*
X014620Y027657D01*
X014426Y027657D02*
X014359Y027590D01*
X014226Y027590D01*
X014159Y027657D01*
X014426Y027924D01*
X014426Y027657D01*
X014426Y027924D02*
X014359Y027990D01*
X014226Y027990D01*
X014159Y027924D01*
X014159Y027657D01*
X013996Y027657D02*
X013996Y027590D01*
X013929Y027590D01*
X013929Y027657D01*
X013996Y027657D01*
X013736Y027657D02*
X013736Y027723D01*
X013669Y027790D01*
X013469Y027790D01*
X013469Y027657D01*
X013535Y027590D01*
X013669Y027590D01*
X013736Y027657D01*
X013602Y027924D02*
X013736Y027990D01*
X013602Y027924D02*
X013469Y027790D01*
X013275Y027590D02*
X013008Y027590D01*
X013142Y027590D02*
X013142Y027990D01*
X013008Y027857D01*
X011865Y024127D02*
X011865Y023860D01*
X011665Y023860D01*
X011598Y023927D01*
X011598Y024127D01*
X011404Y024194D02*
X011138Y023927D01*
X011204Y023860D01*
X011338Y023860D01*
X011404Y023927D01*
X011404Y024194D01*
X011338Y024260D01*
X011204Y024260D01*
X011138Y024194D01*
X011138Y023927D01*
X010944Y023860D02*
X010677Y023860D01*
X010811Y023860D02*
X010811Y024260D01*
X010677Y024127D01*
X011204Y022810D02*
X011138Y022744D01*
X011138Y022477D01*
X011204Y022410D01*
X011338Y022410D01*
X011404Y022477D01*
X011598Y022410D02*
X011865Y022410D01*
X011731Y022410D02*
X011731Y022810D01*
X011598Y022677D01*
X011404Y022744D02*
X011338Y022810D01*
X011204Y022810D01*
X011958Y023360D02*
X011960Y023423D01*
X011966Y023485D01*
X011976Y023547D01*
X011989Y023609D01*
X012007Y023669D01*
X012028Y023728D01*
X012053Y023786D01*
X012082Y023842D01*
X012114Y023896D01*
X012149Y023948D01*
X012187Y023997D01*
X012229Y024045D01*
X012273Y024089D01*
X012321Y024131D01*
X012370Y024169D01*
X012422Y024204D01*
X012476Y024236D01*
X012532Y024265D01*
X012590Y024290D01*
X012649Y024311D01*
X012709Y024329D01*
X012771Y024342D01*
X012833Y024352D01*
X012895Y024358D01*
X012958Y024360D01*
X013021Y024358D01*
X013083Y024352D01*
X013145Y024342D01*
X013207Y024329D01*
X013267Y024311D01*
X013326Y024290D01*
X013384Y024265D01*
X013440Y024236D01*
X013494Y024204D01*
X013546Y024169D01*
X013595Y024131D01*
X013643Y024089D01*
X013687Y024045D01*
X013729Y023997D01*
X013767Y023948D01*
X013802Y023896D01*
X013834Y023842D01*
X013863Y023786D01*
X013888Y023728D01*
X013909Y023669D01*
X013927Y023609D01*
X013940Y023547D01*
X013950Y023485D01*
X013956Y023423D01*
X013958Y023360D01*
X013956Y023297D01*
X013950Y023235D01*
X013940Y023173D01*
X013927Y023111D01*
X013909Y023051D01*
X013888Y022992D01*
X013863Y022934D01*
X013834Y022878D01*
X013802Y022824D01*
X013767Y022772D01*
X013729Y022723D01*
X013687Y022675D01*
X013643Y022631D01*
X013595Y022589D01*
X013546Y022551D01*
X013494Y022516D01*
X013440Y022484D01*
X013384Y022455D01*
X013326Y022430D01*
X013267Y022409D01*
X013207Y022391D01*
X013145Y022378D01*
X013083Y022368D01*
X013021Y022362D01*
X012958Y022360D01*
X012895Y022362D01*
X012833Y022368D01*
X012771Y022378D01*
X012709Y022391D01*
X012649Y022409D01*
X012590Y022430D01*
X012532Y022455D01*
X012476Y022484D01*
X012422Y022516D01*
X012370Y022551D01*
X012321Y022589D01*
X012273Y022631D01*
X012229Y022675D01*
X012187Y022723D01*
X012149Y022772D01*
X012114Y022824D01*
X012082Y022878D01*
X012053Y022934D01*
X012028Y022992D01*
X012007Y023051D01*
X011989Y023111D01*
X011976Y023173D01*
X011966Y023235D01*
X011960Y023297D01*
X011958Y023360D01*
X013408Y022860D02*
X013508Y022860D01*
X013508Y022760D01*
X013508Y022860D02*
X013508Y022960D01*
X013508Y022860D02*
X013608Y022860D01*
X015458Y023060D02*
X015458Y023660D01*
X015460Y023677D01*
X015464Y023694D01*
X015471Y023710D01*
X015481Y023724D01*
X015494Y023737D01*
X015508Y023747D01*
X015524Y023754D01*
X015541Y023758D01*
X015558Y023760D01*
X015708Y023760D01*
X015758Y023710D01*
X017158Y023710D01*
X017208Y023760D01*
X017358Y023760D01*
X017375Y023758D01*
X017392Y023754D01*
X017408Y023747D01*
X017422Y023737D01*
X017435Y023724D01*
X017445Y023710D01*
X017452Y023694D01*
X017456Y023677D01*
X017458Y023660D01*
X017458Y023060D01*
X017456Y023043D01*
X017452Y023026D01*
X017445Y023010D01*
X017435Y022996D01*
X017422Y022983D01*
X017408Y022973D01*
X017392Y022966D01*
X017375Y022962D01*
X017358Y022960D01*
X017208Y022960D01*
X017158Y023010D01*
X015758Y023010D01*
X015708Y022960D01*
X015558Y022960D01*
X015541Y022962D01*
X015524Y022966D01*
X015508Y022973D01*
X015494Y022983D01*
X015481Y022996D01*
X015471Y023010D01*
X015464Y023026D01*
X015460Y023043D01*
X015458Y023060D01*
X015868Y023220D02*
X016062Y023220D01*
X015965Y023220D02*
X015965Y023510D01*
X015868Y023413D01*
X016227Y023462D02*
X016276Y023510D01*
X016373Y023510D01*
X016421Y023462D01*
X016227Y023268D01*
X016276Y023220D01*
X016373Y023220D01*
X016421Y023268D01*
X016421Y023462D01*
X016587Y023510D02*
X016587Y023220D01*
X016587Y023317D02*
X016732Y023220D01*
X016587Y023317D02*
X016732Y023413D01*
X016227Y023462D02*
X016227Y023268D01*
X016227Y023920D02*
X016227Y023968D01*
X016420Y024162D01*
X016420Y024210D01*
X016227Y024210D01*
X015964Y024210D02*
X015964Y023920D01*
X015867Y023920D02*
X016061Y023920D01*
X015867Y024113D02*
X015964Y024210D01*
X015702Y024162D02*
X015702Y024065D01*
X015653Y024017D01*
X015508Y024017D01*
X015508Y023920D02*
X015508Y024210D01*
X015653Y024210D01*
X015702Y024162D01*
X015605Y024017D02*
X015702Y023920D01*
X019458Y025610D02*
X019488Y025612D01*
X019518Y025617D01*
X019547Y025626D01*
X019574Y025639D01*
X019600Y025654D01*
X019624Y025673D01*
X019645Y025694D01*
X019664Y025718D01*
X019679Y025744D01*
X019692Y025771D01*
X019701Y025800D01*
X019706Y025830D01*
X019708Y025860D01*
X019708Y029860D01*
X019958Y029860D02*
X019956Y029904D01*
X019950Y029947D01*
X019941Y029989D01*
X019928Y030031D01*
X019911Y030071D01*
X019891Y030110D01*
X019868Y030147D01*
X019841Y030181D01*
X019812Y030214D01*
X019779Y030243D01*
X019745Y030270D01*
X019708Y030293D01*
X019669Y030313D01*
X019629Y030330D01*
X019587Y030343D01*
X019545Y030352D01*
X019502Y030358D01*
X019458Y030360D01*
X019458Y030110D02*
X019488Y030108D01*
X019518Y030103D01*
X019547Y030094D01*
X019574Y030081D01*
X019600Y030066D01*
X019624Y030047D01*
X019645Y030026D01*
X019664Y030002D01*
X019679Y029976D01*
X019692Y029949D01*
X019701Y029920D01*
X019706Y029890D01*
X019708Y029860D01*
X019958Y029860D02*
X019958Y025860D01*
X019956Y025816D01*
X019950Y025773D01*
X019941Y025731D01*
X019928Y025689D01*
X019911Y025649D01*
X019891Y025610D01*
X019868Y025573D01*
X019841Y025539D01*
X019812Y025506D01*
X019779Y025477D01*
X019745Y025450D01*
X019708Y025427D01*
X019669Y025407D01*
X019629Y025390D01*
X019587Y025377D01*
X019545Y025368D01*
X019502Y025362D01*
X019458Y025360D01*
X024308Y021860D02*
X026608Y021860D01*
X026608Y028860D01*
X025858Y028860D01*
X025856Y028821D01*
X025850Y028782D01*
X025841Y028744D01*
X025828Y028707D01*
X025811Y028671D01*
X025791Y028638D01*
X025767Y028606D01*
X025741Y028577D01*
X025712Y028551D01*
X025680Y028527D01*
X025647Y028507D01*
X025611Y028490D01*
X025574Y028477D01*
X025536Y028468D01*
X025497Y028462D01*
X025458Y028460D01*
X025419Y028462D01*
X025380Y028468D01*
X025342Y028477D01*
X025305Y028490D01*
X025269Y028507D01*
X025236Y028527D01*
X025204Y028551D01*
X025175Y028577D01*
X025149Y028606D01*
X025125Y028638D01*
X025105Y028671D01*
X025088Y028707D01*
X025075Y028744D01*
X025066Y028782D01*
X025060Y028821D01*
X025058Y028860D01*
X024308Y028860D01*
X024308Y021860D01*
X025258Y024837D02*
X025258Y025104D01*
X025325Y025104D01*
X025592Y024837D01*
X025658Y024837D01*
X025458Y025298D02*
X025458Y025565D01*
X025258Y025498D02*
X025458Y025298D01*
X025658Y025498D02*
X025258Y025498D01*
X025258Y025758D02*
X025658Y025758D01*
X025658Y026025D01*
X025592Y026218D02*
X025658Y026285D01*
X025658Y026419D01*
X025592Y026485D01*
X025525Y026485D01*
X025458Y026419D01*
X025458Y026285D01*
X025391Y026218D01*
X025325Y026218D01*
X025258Y026285D01*
X025258Y026419D01*
X025325Y026485D01*
X025258Y026679D02*
X025258Y026946D01*
X025325Y026946D01*
X025592Y026679D01*
X025658Y026679D01*
X025458Y027139D02*
X025458Y027406D01*
X025258Y027339D02*
X025458Y027139D01*
X025658Y027339D02*
X025258Y027339D01*
X025258Y027600D02*
X025658Y027866D01*
X025258Y027866D01*
X025258Y027600D02*
X025658Y027600D01*
X024776Y029060D02*
X024843Y029127D01*
X024843Y029394D01*
X024776Y029460D01*
X024642Y029460D01*
X024576Y029394D01*
X024576Y029327D01*
X024642Y029260D01*
X024843Y029260D01*
X024776Y029060D02*
X024642Y029060D01*
X024576Y029127D01*
X024382Y029127D02*
X024315Y029060D01*
X024182Y029060D01*
X024115Y029127D01*
X024115Y029394D01*
X024182Y029460D01*
X024315Y029460D01*
X024382Y029394D01*
X023942Y029460D02*
X023808Y029460D01*
X023875Y029460D02*
X023875Y029060D01*
X023808Y029060D02*
X023942Y029060D01*
X025308Y029410D02*
X026608Y029410D01*
X026634Y029412D01*
X026660Y029417D01*
X026685Y029425D01*
X026708Y029437D01*
X026730Y029451D01*
X026749Y029469D01*
X026767Y029488D01*
X026781Y029510D01*
X026793Y029533D01*
X026801Y029558D01*
X026806Y029584D01*
X026808Y029610D01*
X026458Y029860D02*
X026078Y029860D01*
X025828Y029860D02*
X025458Y029860D01*
X025108Y030110D02*
X025110Y030136D01*
X025115Y030162D01*
X025123Y030187D01*
X025135Y030210D01*
X025149Y030232D01*
X025167Y030251D01*
X025186Y030269D01*
X025208Y030283D01*
X025231Y030295D01*
X025256Y030303D01*
X025282Y030308D01*
X025308Y030310D01*
X026608Y030310D01*
X026634Y030308D01*
X026660Y030303D01*
X026685Y030295D01*
X026708Y030283D01*
X026730Y030269D01*
X026749Y030251D01*
X026767Y030232D01*
X026781Y030210D01*
X026793Y030187D01*
X026801Y030162D01*
X026806Y030136D01*
X026808Y030110D01*
X025308Y029410D02*
X025282Y029412D01*
X025256Y029417D01*
X025231Y029425D01*
X025208Y029437D01*
X025186Y029451D01*
X025167Y029469D01*
X025149Y029488D01*
X025135Y029510D01*
X025123Y029533D01*
X025115Y029558D01*
X025110Y029584D01*
X025108Y029610D01*
X026433Y032110D02*
X028733Y032110D01*
X028733Y042110D01*
X027983Y042110D01*
X027981Y042071D01*
X027975Y042032D01*
X027966Y041994D01*
X027953Y041957D01*
X027936Y041921D01*
X027916Y041888D01*
X027892Y041856D01*
X027866Y041827D01*
X027837Y041801D01*
X027805Y041777D01*
X027772Y041757D01*
X027736Y041740D01*
X027699Y041727D01*
X027661Y041718D01*
X027622Y041712D01*
X027583Y041710D01*
X027544Y041712D01*
X027505Y041718D01*
X027467Y041727D01*
X027430Y041740D01*
X027394Y041757D01*
X027361Y041777D01*
X027329Y041801D01*
X027300Y041827D01*
X027274Y041856D01*
X027250Y041888D01*
X027230Y041921D01*
X027213Y041957D01*
X027200Y041994D01*
X027191Y042032D01*
X027185Y042071D01*
X027183Y042110D01*
X026433Y042110D01*
X026433Y032110D01*
X023458Y032310D02*
X023458Y032910D01*
X023456Y032927D01*
X023452Y032944D01*
X023445Y032960D01*
X023435Y032974D01*
X023422Y032987D01*
X023408Y032997D01*
X023392Y033004D01*
X023375Y033008D01*
X023358Y033010D01*
X023208Y033010D01*
X023158Y032960D01*
X021758Y032960D01*
X021708Y033010D01*
X021558Y033010D01*
X021541Y033008D01*
X021524Y033004D01*
X021508Y032997D01*
X021494Y032987D01*
X021481Y032974D01*
X021471Y032960D01*
X021464Y032944D01*
X021460Y032927D01*
X021458Y032910D01*
X021458Y032310D01*
X021460Y032293D01*
X021464Y032276D01*
X021471Y032260D01*
X021481Y032246D01*
X021494Y032233D01*
X021508Y032223D01*
X021524Y032216D01*
X021541Y032212D01*
X021558Y032210D01*
X021708Y032210D01*
X021758Y032260D01*
X023158Y032260D01*
X023208Y032210D01*
X023358Y032210D01*
X023375Y032212D01*
X023392Y032216D01*
X023408Y032223D01*
X023422Y032233D01*
X023435Y032246D01*
X023445Y032260D01*
X023452Y032276D01*
X023456Y032293D01*
X023458Y032310D01*
X023358Y033210D02*
X023208Y033210D01*
X023158Y033260D01*
X021758Y033260D01*
X021708Y033210D01*
X021558Y033210D01*
X021541Y033212D01*
X021524Y033216D01*
X021508Y033223D01*
X021494Y033233D01*
X021481Y033246D01*
X021471Y033260D01*
X021464Y033276D01*
X021460Y033293D01*
X021458Y033310D01*
X021458Y033910D01*
X021460Y033927D01*
X021464Y033944D01*
X021471Y033960D01*
X021481Y033974D01*
X021494Y033987D01*
X021508Y033997D01*
X021524Y034004D01*
X021541Y034008D01*
X021558Y034010D01*
X021708Y034010D01*
X021758Y033960D01*
X023158Y033960D01*
X023208Y034010D01*
X023358Y034010D01*
X023375Y034008D01*
X023392Y034004D01*
X023408Y033997D01*
X023422Y033987D01*
X023435Y033974D01*
X023445Y033960D01*
X023452Y033944D01*
X023456Y033927D01*
X023458Y033910D01*
X023458Y033310D01*
X023456Y033293D01*
X023452Y033276D01*
X023445Y033260D01*
X023435Y033246D01*
X023422Y033233D01*
X023408Y033223D01*
X023392Y033216D01*
X023375Y033212D01*
X023358Y033210D01*
X023358Y034210D02*
X023208Y034210D01*
X023158Y034260D01*
X021758Y034260D01*
X021708Y034210D01*
X021558Y034210D01*
X021541Y034212D01*
X021524Y034216D01*
X021508Y034223D01*
X021494Y034233D01*
X021481Y034246D01*
X021471Y034260D01*
X021464Y034276D01*
X021460Y034293D01*
X021458Y034310D01*
X021458Y034910D01*
X021460Y034927D01*
X021464Y034944D01*
X021471Y034960D01*
X021481Y034974D01*
X021494Y034987D01*
X021508Y034997D01*
X021524Y035004D01*
X021541Y035008D01*
X021558Y035010D01*
X021708Y035010D01*
X021758Y034960D01*
X023158Y034960D01*
X023208Y035010D01*
X023358Y035010D01*
X023375Y035008D01*
X023392Y035004D01*
X023408Y034997D01*
X023422Y034987D01*
X023435Y034974D01*
X023445Y034960D01*
X023452Y034944D01*
X023456Y034927D01*
X023458Y034910D01*
X023458Y034310D01*
X023456Y034293D01*
X023452Y034276D01*
X023445Y034260D01*
X023435Y034246D01*
X023422Y034233D01*
X023408Y034223D01*
X023392Y034216D01*
X023375Y034212D01*
X023358Y034210D01*
X023358Y035210D02*
X023208Y035210D01*
X023158Y035260D01*
X021758Y035260D01*
X021708Y035210D01*
X021558Y035210D01*
X021541Y035212D01*
X021524Y035216D01*
X021508Y035223D01*
X021494Y035233D01*
X021481Y035246D01*
X021471Y035260D01*
X021464Y035276D01*
X021460Y035293D01*
X021458Y035310D01*
X021458Y035910D01*
X021460Y035927D01*
X021464Y035944D01*
X021471Y035960D01*
X021481Y035974D01*
X021494Y035987D01*
X021508Y035997D01*
X021524Y036004D01*
X021541Y036008D01*
X021558Y036010D01*
X021708Y036010D01*
X021758Y035960D01*
X023158Y035960D01*
X023208Y036010D01*
X023358Y036010D01*
X023375Y036008D01*
X023392Y036004D01*
X023408Y035997D01*
X023422Y035987D01*
X023435Y035974D01*
X023445Y035960D01*
X023452Y035944D01*
X023456Y035927D01*
X023458Y035910D01*
X023458Y035310D01*
X023456Y035293D01*
X023452Y035276D01*
X023445Y035260D01*
X023435Y035246D01*
X023422Y035233D01*
X023408Y035223D01*
X023392Y035216D01*
X023375Y035212D01*
X023358Y035210D01*
X023358Y036210D02*
X023208Y036210D01*
X023158Y036260D01*
X021758Y036260D01*
X021708Y036210D01*
X021558Y036210D01*
X021541Y036212D01*
X021524Y036216D01*
X021508Y036223D01*
X021494Y036233D01*
X021481Y036246D01*
X021471Y036260D01*
X021464Y036276D01*
X021460Y036293D01*
X021458Y036310D01*
X021458Y036910D01*
X021460Y036927D01*
X021464Y036944D01*
X021471Y036960D01*
X021481Y036974D01*
X021494Y036987D01*
X021508Y036997D01*
X021524Y037004D01*
X021541Y037008D01*
X021558Y037010D01*
X021708Y037010D01*
X021758Y036960D01*
X023158Y036960D01*
X023208Y037010D01*
X023358Y037010D01*
X023375Y037008D01*
X023392Y037004D01*
X023408Y036997D01*
X023422Y036987D01*
X023435Y036974D01*
X023445Y036960D01*
X023452Y036944D01*
X023456Y036927D01*
X023458Y036910D01*
X023458Y036310D01*
X023456Y036293D01*
X023452Y036276D01*
X023445Y036260D01*
X023435Y036246D01*
X023422Y036233D01*
X023408Y036223D01*
X023392Y036216D01*
X023375Y036212D01*
X023358Y036210D01*
X023358Y037210D02*
X023208Y037210D01*
X023158Y037260D01*
X021758Y037260D01*
X021708Y037210D01*
X021558Y037210D01*
X021541Y037212D01*
X021524Y037216D01*
X021508Y037223D01*
X021494Y037233D01*
X021481Y037246D01*
X021471Y037260D01*
X021464Y037276D01*
X021460Y037293D01*
X021458Y037310D01*
X021458Y037910D01*
X021460Y037927D01*
X021464Y037944D01*
X021471Y037960D01*
X021481Y037974D01*
X021494Y037987D01*
X021508Y037997D01*
X021524Y038004D01*
X021541Y038008D01*
X021558Y038010D01*
X021708Y038010D01*
X021758Y037960D01*
X023158Y037960D01*
X023208Y038010D01*
X023358Y038010D01*
X023375Y038008D01*
X023392Y038004D01*
X023408Y037997D01*
X023422Y037987D01*
X023435Y037974D01*
X023445Y037960D01*
X023452Y037944D01*
X023456Y037927D01*
X023458Y037910D01*
X023458Y037310D01*
X023456Y037293D01*
X023452Y037276D01*
X023445Y037260D01*
X023435Y037246D01*
X023422Y037233D01*
X023408Y037223D01*
X023392Y037216D01*
X023375Y037212D01*
X023358Y037210D01*
X023358Y038210D02*
X023208Y038210D01*
X023158Y038260D01*
X021758Y038260D01*
X021708Y038210D01*
X021558Y038210D01*
X021541Y038212D01*
X021524Y038216D01*
X021508Y038223D01*
X021494Y038233D01*
X021481Y038246D01*
X021471Y038260D01*
X021464Y038276D01*
X021460Y038293D01*
X021458Y038310D01*
X021458Y038910D01*
X021460Y038927D01*
X021464Y038944D01*
X021471Y038960D01*
X021481Y038974D01*
X021494Y038987D01*
X021508Y038997D01*
X021524Y039004D01*
X021541Y039008D01*
X021558Y039010D01*
X021708Y039010D01*
X021758Y038960D01*
X023158Y038960D01*
X023208Y039010D01*
X023358Y039010D01*
X023375Y039008D01*
X023392Y039004D01*
X023408Y038997D01*
X023422Y038987D01*
X023435Y038974D01*
X023445Y038960D01*
X023452Y038944D01*
X023456Y038927D01*
X023458Y038910D01*
X023458Y038310D01*
X023456Y038293D01*
X023452Y038276D01*
X023445Y038260D01*
X023435Y038246D01*
X023422Y038233D01*
X023408Y038223D01*
X023392Y038216D01*
X023375Y038212D01*
X023358Y038210D01*
X023358Y039210D02*
X023208Y039210D01*
X023158Y039260D01*
X021758Y039260D01*
X021708Y039210D01*
X021558Y039210D01*
X021541Y039212D01*
X021524Y039216D01*
X021508Y039223D01*
X021494Y039233D01*
X021481Y039246D01*
X021471Y039260D01*
X021464Y039276D01*
X021460Y039293D01*
X021458Y039310D01*
X021458Y039910D01*
X021460Y039927D01*
X021464Y039944D01*
X021471Y039960D01*
X021481Y039974D01*
X021494Y039987D01*
X021508Y039997D01*
X021524Y040004D01*
X021541Y040008D01*
X021558Y040010D01*
X021708Y040010D01*
X021758Y039960D01*
X023158Y039960D01*
X023208Y040010D01*
X023358Y040010D01*
X023375Y040008D01*
X023392Y040004D01*
X023408Y039997D01*
X023422Y039987D01*
X023435Y039974D01*
X023445Y039960D01*
X023452Y039944D01*
X023456Y039927D01*
X023458Y039910D01*
X023458Y039310D01*
X023456Y039293D01*
X023452Y039276D01*
X023445Y039260D01*
X023435Y039246D01*
X023422Y039233D01*
X023408Y039223D01*
X023392Y039216D01*
X023375Y039212D01*
X023358Y039210D01*
X022732Y039470D02*
X022587Y039567D01*
X022732Y039663D01*
X022587Y039760D02*
X022587Y039470D01*
X022421Y039518D02*
X022373Y039470D01*
X022276Y039470D01*
X022227Y039518D01*
X022421Y039712D01*
X022421Y039518D01*
X022227Y039518D02*
X022227Y039712D01*
X022276Y039760D01*
X022373Y039760D01*
X022421Y039712D01*
X022062Y039470D02*
X021868Y039470D01*
X021965Y039470D02*
X021965Y039760D01*
X021868Y039663D01*
X018608Y042110D02*
X017858Y042110D01*
X017856Y042071D01*
X017850Y042032D01*
X017841Y041994D01*
X017828Y041957D01*
X017811Y041921D01*
X017791Y041888D01*
X017767Y041856D01*
X017741Y041827D01*
X017712Y041801D01*
X017680Y041777D01*
X017647Y041757D01*
X017611Y041740D01*
X017574Y041727D01*
X017536Y041718D01*
X017497Y041712D01*
X017458Y041710D01*
X017419Y041712D01*
X017380Y041718D01*
X017342Y041727D01*
X017305Y041740D01*
X017269Y041757D01*
X017236Y041777D01*
X017204Y041801D01*
X017175Y041827D01*
X017149Y041856D01*
X017125Y041888D01*
X017105Y041921D01*
X017088Y041957D01*
X017075Y041994D01*
X017066Y042032D01*
X017060Y042071D01*
X017058Y042110D01*
X016308Y042110D01*
X016308Y032110D01*
X018608Y032110D01*
X018608Y042110D01*
X017343Y042310D02*
X017076Y042310D01*
X017343Y042577D01*
X017343Y042644D01*
X017276Y042710D01*
X017142Y042710D01*
X017076Y042644D01*
X016882Y042644D02*
X016815Y042710D01*
X016682Y042710D01*
X016615Y042644D01*
X016615Y042377D01*
X016682Y042310D01*
X016815Y042310D01*
X016882Y042377D01*
X016442Y042310D02*
X016308Y042310D01*
X016375Y042310D02*
X016375Y042710D01*
X016308Y042710D02*
X016442Y042710D01*
X017308Y043285D02*
X018608Y043285D01*
X018634Y043287D01*
X018660Y043292D01*
X018685Y043300D01*
X018708Y043312D01*
X018730Y043326D01*
X018749Y043344D01*
X018767Y043363D01*
X018781Y043385D01*
X018793Y043408D01*
X018801Y043433D01*
X018806Y043459D01*
X018808Y043485D01*
X018458Y043735D02*
X018078Y043735D01*
X017828Y043735D02*
X017458Y043735D01*
X017108Y043485D02*
X017110Y043459D01*
X017115Y043433D01*
X017123Y043408D01*
X017135Y043385D01*
X017149Y043363D01*
X017167Y043344D01*
X017186Y043326D01*
X017208Y043312D01*
X017231Y043300D01*
X017256Y043292D01*
X017282Y043287D01*
X017308Y043285D01*
X017108Y043985D02*
X017110Y044011D01*
X017115Y044037D01*
X017123Y044062D01*
X017135Y044085D01*
X017149Y044107D01*
X017167Y044126D01*
X017186Y044144D01*
X017208Y044158D01*
X017231Y044170D01*
X017256Y044178D01*
X017282Y044183D01*
X017308Y044185D01*
X018608Y044185D01*
X018634Y044183D01*
X018660Y044178D01*
X018685Y044170D01*
X018708Y044158D01*
X018730Y044144D01*
X018749Y044126D01*
X018767Y044107D01*
X018781Y044085D01*
X018793Y044062D01*
X018801Y044037D01*
X018806Y044011D01*
X018808Y043985D01*
X017758Y040816D02*
X017358Y040816D01*
X017358Y040550D02*
X017758Y040816D01*
X017758Y040550D02*
X017358Y040550D01*
X017358Y040223D02*
X017758Y040223D01*
X017758Y040356D02*
X017758Y040089D01*
X017758Y039829D02*
X017358Y039829D01*
X017558Y039629D01*
X017558Y039896D01*
X017491Y040089D02*
X017358Y040223D01*
X017358Y039435D02*
X017358Y039168D01*
X017558Y039168D01*
X017491Y039302D01*
X017491Y039369D01*
X017558Y039435D01*
X017692Y039435D01*
X017758Y039369D01*
X017758Y039235D01*
X017692Y039168D01*
X017692Y038975D02*
X017758Y038908D01*
X017758Y038775D01*
X017692Y038708D01*
X017558Y038775D02*
X017558Y038908D01*
X017625Y038975D01*
X017692Y038975D01*
X017558Y038775D02*
X017491Y038708D01*
X017425Y038708D01*
X017358Y038775D01*
X017358Y038908D01*
X017425Y038975D01*
X017758Y038515D02*
X017758Y038248D01*
X017358Y038248D01*
X017358Y037987D02*
X017558Y037787D01*
X017558Y038054D01*
X017758Y037987D02*
X017358Y037987D01*
X017358Y037594D02*
X017425Y037594D01*
X017692Y037327D01*
X017758Y037327D01*
X017358Y037327D02*
X017358Y037594D01*
X009958Y043360D02*
X009958Y044860D01*
X009708Y045110D01*
X009208Y045110D01*
X008958Y044860D01*
X008958Y043360D01*
X009208Y043110D01*
X009708Y043110D01*
X009958Y043360D01*
X008958Y043360D02*
X008708Y043110D01*
X008208Y043110D01*
X007958Y043360D01*
X007958Y044860D01*
X008208Y045110D01*
X008708Y045110D01*
X008958Y044860D01*
X008996Y045410D02*
X009129Y045410D01*
X009196Y045477D01*
X009390Y045410D02*
X009656Y045677D01*
X009656Y045744D01*
X009590Y045810D01*
X009456Y045810D01*
X009390Y045744D01*
X009196Y045744D02*
X009129Y045810D01*
X008996Y045810D01*
X008929Y045744D01*
X008929Y045477D01*
X008996Y045410D01*
X008736Y045477D02*
X008669Y045410D01*
X008535Y045410D01*
X008469Y045477D01*
X008469Y045744D01*
X008535Y045810D01*
X008669Y045810D01*
X008736Y045744D01*
X008275Y045810D02*
X008275Y045543D01*
X008142Y045410D01*
X008008Y045543D01*
X008008Y045810D01*
X009390Y045410D02*
X009656Y045410D01*
X008967Y040966D02*
X009033Y040900D01*
X009033Y040766D01*
X008967Y040700D01*
X008833Y040833D02*
X008833Y040900D01*
X008900Y040966D01*
X008967Y040966D01*
X008833Y040900D02*
X008766Y040966D01*
X008700Y040966D01*
X008633Y040900D01*
X008633Y040766D01*
X008700Y040700D01*
X008700Y040506D02*
X008833Y040506D01*
X008900Y040439D01*
X008900Y040239D01*
X009033Y040239D02*
X008633Y040239D01*
X008633Y040439D01*
X008700Y040506D01*
X008333Y040360D02*
X008083Y040110D01*
X006583Y040110D01*
X006333Y039860D01*
X006333Y039360D01*
X006583Y039110D01*
X008083Y039110D01*
X008333Y038860D01*
X008333Y038360D01*
X008083Y038110D01*
X006583Y038110D01*
X006333Y037860D01*
X006333Y037360D01*
X006583Y037110D01*
X008083Y037110D01*
X008333Y036860D01*
X008333Y036360D01*
X008083Y036110D01*
X006583Y036110D01*
X006333Y035860D01*
X006333Y035360D01*
X006583Y035110D01*
X008083Y035110D01*
X008333Y034860D01*
X008333Y034360D01*
X008083Y034110D01*
X008333Y033860D01*
X008333Y033360D01*
X008083Y033110D01*
X006583Y033110D01*
X006333Y033360D01*
X006333Y033860D01*
X006583Y034110D01*
X008083Y034110D01*
X008083Y035110D02*
X008333Y035360D01*
X008333Y035860D01*
X008083Y036110D01*
X008083Y037110D02*
X008333Y037360D01*
X008333Y037860D01*
X008083Y038110D01*
X008083Y039110D02*
X008333Y039360D01*
X008333Y039860D01*
X008083Y040110D01*
X008333Y040360D02*
X008333Y040860D01*
X008083Y041110D01*
X006583Y041110D01*
X006333Y040860D01*
X006333Y040360D01*
X006583Y040110D01*
X006583Y039110D02*
X006333Y038860D01*
X006333Y038360D01*
X006583Y038110D01*
X006583Y037110D02*
X006333Y036860D01*
X006333Y036360D01*
X006583Y036110D01*
X006583Y035110D02*
X006333Y034860D01*
X006333Y034360D01*
X006583Y034110D01*
X008958Y030360D02*
X008915Y030414D01*
X008869Y030466D01*
X008820Y030515D01*
X008768Y030562D01*
X008714Y030605D01*
X008658Y030646D01*
X008599Y030683D01*
X008539Y030717D01*
X008476Y030747D01*
X008413Y030774D01*
X008347Y030798D01*
X008281Y030818D01*
X008213Y030834D01*
X008145Y030846D01*
X008076Y030854D01*
X008007Y030859D01*
X007937Y030860D01*
X007868Y030857D01*
X007799Y030850D01*
X007731Y030839D01*
X007663Y030825D01*
X007596Y030806D01*
X007530Y030784D01*
X007465Y030759D01*
X007402Y030730D01*
X007341Y030697D01*
X007282Y030661D01*
X007225Y030622D01*
X007169Y030580D01*
X007117Y030535D01*
X007067Y030487D01*
X007020Y030436D01*
X006975Y030382D01*
X006934Y030327D01*
X006896Y030269D01*
X006861Y030209D01*
X006829Y030147D01*
X006801Y030084D01*
X006777Y030019D01*
X006756Y029953D01*
X006739Y029885D01*
X006725Y029817D01*
X006716Y029748D01*
X006710Y029679D01*
X006708Y029610D01*
X006710Y029541D01*
X006716Y029472D01*
X006725Y029403D01*
X006739Y029335D01*
X006756Y029267D01*
X006777Y029201D01*
X006801Y029136D01*
X006829Y029073D01*
X006861Y029011D01*
X006896Y028951D01*
X006934Y028893D01*
X006975Y028838D01*
X007020Y028784D01*
X007067Y028733D01*
X007117Y028685D01*
X007169Y028640D01*
X007225Y028598D01*
X007282Y028559D01*
X007341Y028523D01*
X007402Y028490D01*
X007465Y028461D01*
X007530Y028436D01*
X007596Y028414D01*
X007663Y028395D01*
X007731Y028381D01*
X007799Y028370D01*
X007868Y028363D01*
X007937Y028360D01*
X008007Y028361D01*
X008076Y028366D01*
X008145Y028374D01*
X008213Y028386D01*
X008281Y028402D01*
X008347Y028422D01*
X008413Y028446D01*
X008476Y028473D01*
X008539Y028503D01*
X008599Y028537D01*
X008658Y028574D01*
X008714Y028615D01*
X008768Y028658D01*
X008820Y028705D01*
X008869Y028754D01*
X008915Y028806D01*
X008958Y028860D01*
X008967Y039779D02*
X009033Y039846D01*
X009033Y039912D01*
X008967Y039979D01*
X008633Y039979D01*
X008633Y039912D02*
X008633Y040046D01*
X026433Y042310D02*
X026567Y042310D01*
X026500Y042310D02*
X026500Y042710D01*
X026433Y042710D02*
X026567Y042710D01*
X026740Y042644D02*
X026740Y042377D01*
X026807Y042310D01*
X026940Y042310D01*
X027007Y042377D01*
X027201Y042510D02*
X027468Y042510D01*
X027401Y042310D02*
X027401Y042710D01*
X027201Y042510D01*
X027007Y042644D02*
X026940Y042710D01*
X026807Y042710D01*
X026740Y042644D01*
X027433Y043285D02*
X028733Y043285D01*
X028759Y043287D01*
X028785Y043292D01*
X028810Y043300D01*
X028833Y043312D01*
X028855Y043326D01*
X028874Y043344D01*
X028892Y043363D01*
X028906Y043385D01*
X028918Y043408D01*
X028926Y043433D01*
X028931Y043459D01*
X028933Y043485D01*
X028583Y043735D02*
X028203Y043735D01*
X027953Y043735D02*
X027583Y043735D01*
X027233Y043485D02*
X027235Y043459D01*
X027240Y043433D01*
X027248Y043408D01*
X027260Y043385D01*
X027274Y043363D01*
X027292Y043344D01*
X027311Y043326D01*
X027333Y043312D01*
X027356Y043300D01*
X027381Y043292D01*
X027407Y043287D01*
X027433Y043285D01*
X027233Y043985D02*
X027235Y044011D01*
X027240Y044037D01*
X027248Y044062D01*
X027260Y044085D01*
X027274Y044107D01*
X027292Y044126D01*
X027311Y044144D01*
X027333Y044158D01*
X027356Y044170D01*
X027381Y044178D01*
X027407Y044183D01*
X027433Y044185D01*
X028733Y044185D01*
X028759Y044183D01*
X028785Y044178D01*
X028810Y044170D01*
X028833Y044158D01*
X028855Y044144D01*
X028874Y044126D01*
X028892Y044107D01*
X028906Y044085D01*
X028918Y044062D01*
X028926Y044037D01*
X028931Y044011D01*
X028933Y043985D01*
X027883Y040816D02*
X027483Y040816D01*
X027483Y040550D02*
X027883Y040816D01*
X027883Y040550D02*
X027483Y040550D01*
X027483Y040356D02*
X027483Y040089D01*
X027683Y040089D01*
X027616Y040223D01*
X027616Y040289D01*
X027683Y040356D01*
X027817Y040356D01*
X027883Y040289D01*
X027883Y040156D01*
X027817Y040089D01*
X027683Y039896D02*
X027683Y039629D01*
X027483Y039829D01*
X027883Y039829D01*
X027883Y039435D02*
X027883Y039168D01*
X027616Y039435D01*
X027550Y039435D01*
X027483Y039369D01*
X027483Y039235D01*
X027550Y039168D01*
X027550Y038975D02*
X027483Y038908D01*
X027483Y038775D01*
X027550Y038708D01*
X027616Y038708D01*
X027683Y038775D01*
X027683Y038908D01*
X027750Y038975D01*
X027817Y038975D01*
X027883Y038908D01*
X027883Y038775D01*
X027817Y038708D01*
X027883Y038515D02*
X027883Y038248D01*
X027483Y038248D01*
X027483Y037987D02*
X027683Y037787D01*
X027683Y038054D01*
X027883Y037987D02*
X027483Y037987D01*
X027483Y037594D02*
X027550Y037594D01*
X027817Y037327D01*
X027883Y037327D01*
X027483Y037327D02*
X027483Y037594D01*
X033433Y042110D02*
X034183Y042110D01*
X034201Y042310D02*
X034468Y042310D01*
X034334Y042310D02*
X034334Y042710D01*
X034201Y042577D01*
X034007Y042644D02*
X033940Y042710D01*
X033807Y042710D01*
X033740Y042644D01*
X033740Y042377D01*
X033807Y042310D01*
X033940Y042310D01*
X034007Y042377D01*
X033567Y042310D02*
X033433Y042310D01*
X033500Y042310D02*
X033500Y042710D01*
X033433Y042710D02*
X033567Y042710D01*
X033433Y042110D02*
X033433Y032110D01*
X035733Y032110D01*
X035733Y042110D01*
X034983Y042110D01*
X034861Y042310D02*
X034928Y042377D01*
X034928Y042644D01*
X034861Y042710D01*
X034728Y042710D01*
X034661Y042644D01*
X034661Y042577D01*
X034728Y042510D01*
X034928Y042510D01*
X034861Y042310D02*
X034728Y042310D01*
X034661Y042377D01*
X034983Y042110D02*
X034981Y042071D01*
X034975Y042032D01*
X034966Y041994D01*
X034953Y041957D01*
X034936Y041921D01*
X034916Y041888D01*
X034892Y041856D01*
X034866Y041827D01*
X034837Y041801D01*
X034805Y041777D01*
X034772Y041757D01*
X034736Y041740D01*
X034699Y041727D01*
X034661Y041718D01*
X034622Y041712D01*
X034583Y041710D01*
X034544Y041712D01*
X034505Y041718D01*
X034467Y041727D01*
X034430Y041740D01*
X034394Y041757D01*
X034361Y041777D01*
X034329Y041801D01*
X034300Y041827D01*
X034274Y041856D01*
X034250Y041888D01*
X034230Y041921D01*
X034213Y041957D01*
X034200Y041994D01*
X034191Y042032D01*
X034185Y042071D01*
X034183Y042110D01*
X034483Y040816D02*
X034883Y040816D01*
X034483Y040550D01*
X034883Y040550D01*
X034883Y040356D02*
X034883Y040089D01*
X034883Y040223D02*
X034483Y040223D01*
X034616Y040089D01*
X034683Y039896D02*
X034683Y039629D01*
X034483Y039829D01*
X034883Y039829D01*
X034817Y039435D02*
X034883Y039369D01*
X034883Y039235D01*
X034817Y039168D01*
X034683Y039168D02*
X034616Y039302D01*
X034616Y039369D01*
X034683Y039435D01*
X034817Y039435D01*
X034683Y039168D02*
X034483Y039168D01*
X034483Y039435D01*
X034550Y038975D02*
X034483Y038908D01*
X034483Y038775D01*
X034550Y038708D01*
X034616Y038708D01*
X034683Y038775D01*
X034683Y038908D01*
X034750Y038975D01*
X034817Y038975D01*
X034883Y038908D01*
X034883Y038775D01*
X034817Y038708D01*
X034883Y038515D02*
X034883Y038248D01*
X034483Y038248D01*
X034483Y037987D02*
X034683Y037787D01*
X034683Y038054D01*
X034883Y037987D02*
X034483Y037987D01*
X034483Y037594D02*
X034550Y037594D01*
X034817Y037327D01*
X034883Y037327D01*
X034483Y037327D02*
X034483Y037594D01*
X040358Y037594D02*
X040358Y037327D01*
X040358Y037594D02*
X040425Y037594D01*
X040692Y037327D01*
X040758Y037327D01*
X040558Y037787D02*
X040558Y038054D01*
X040358Y037987D02*
X040558Y037787D01*
X040758Y037987D02*
X040358Y037987D01*
X040358Y038248D02*
X040758Y038248D01*
X040758Y038515D01*
X040692Y038708D02*
X040758Y038775D01*
X040758Y038908D01*
X040692Y038975D01*
X040625Y038975D01*
X040558Y038908D01*
X040558Y038775D01*
X040491Y038708D01*
X040425Y038708D01*
X040358Y038775D01*
X040358Y038908D01*
X040425Y038975D01*
X040425Y039168D02*
X040358Y039235D01*
X040358Y039369D01*
X040425Y039435D01*
X040491Y039435D01*
X040758Y039168D01*
X040758Y039435D01*
X040558Y039629D02*
X040558Y039896D01*
X040558Y040089D02*
X040491Y040223D01*
X040491Y040289D01*
X040558Y040356D01*
X040692Y040356D01*
X040758Y040289D01*
X040758Y040156D01*
X040692Y040089D01*
X040558Y040089D02*
X040358Y040089D01*
X040358Y040356D01*
X040358Y040550D02*
X040758Y040816D01*
X040358Y040816D01*
X040358Y040550D02*
X040758Y040550D01*
X040758Y039829D02*
X040358Y039829D01*
X040558Y039629D01*
X040858Y042110D02*
X040856Y042071D01*
X040850Y042032D01*
X040841Y041994D01*
X040828Y041957D01*
X040811Y041921D01*
X040791Y041888D01*
X040767Y041856D01*
X040741Y041827D01*
X040712Y041801D01*
X040680Y041777D01*
X040647Y041757D01*
X040611Y041740D01*
X040574Y041727D01*
X040536Y041718D01*
X040497Y041712D01*
X040458Y041710D01*
X040419Y041712D01*
X040380Y041718D01*
X040342Y041727D01*
X040305Y041740D01*
X040269Y041757D01*
X040236Y041777D01*
X040204Y041801D01*
X040175Y041827D01*
X040149Y041856D01*
X040125Y041888D01*
X040105Y041921D01*
X040088Y041957D01*
X040075Y041994D01*
X040066Y042032D01*
X040060Y042071D01*
X040058Y042110D01*
X039308Y042110D01*
X039308Y032110D01*
X041608Y032110D01*
X041608Y042110D01*
X040858Y042110D01*
X040308Y042785D02*
X041608Y042785D01*
X041634Y042787D01*
X041660Y042792D01*
X041685Y042800D01*
X041708Y042812D01*
X041730Y042826D01*
X041749Y042844D01*
X041767Y042863D01*
X041781Y042885D01*
X041793Y042908D01*
X041801Y042933D01*
X041806Y042959D01*
X041808Y042985D01*
X041458Y043235D02*
X041078Y043235D01*
X040828Y043235D02*
X040458Y043235D01*
X040108Y042985D02*
X040110Y042959D01*
X040115Y042933D01*
X040123Y042908D01*
X040135Y042885D01*
X040149Y042863D01*
X040167Y042844D01*
X040186Y042826D01*
X040208Y042812D01*
X040231Y042800D01*
X040256Y042792D01*
X040282Y042787D01*
X040308Y042785D01*
X039968Y042644D02*
X039968Y042577D01*
X039901Y042510D01*
X039968Y042443D01*
X039968Y042377D01*
X039901Y042310D01*
X039767Y042310D01*
X039701Y042377D01*
X039834Y042510D02*
X039901Y042510D01*
X039968Y042644D02*
X039901Y042710D01*
X039767Y042710D01*
X039701Y042644D01*
X039507Y042644D02*
X039440Y042710D01*
X039307Y042710D01*
X039240Y042644D01*
X039240Y042377D01*
X039307Y042310D01*
X039440Y042310D01*
X039507Y042377D01*
X039067Y042310D02*
X038933Y042310D01*
X039000Y042310D02*
X039000Y042710D01*
X038933Y042710D02*
X039067Y042710D01*
X040108Y043485D02*
X040110Y043511D01*
X040115Y043537D01*
X040123Y043562D01*
X040135Y043585D01*
X040149Y043607D01*
X040167Y043626D01*
X040186Y043644D01*
X040208Y043658D01*
X040231Y043670D01*
X040256Y043678D01*
X040282Y043683D01*
X040308Y043685D01*
X041608Y043685D01*
X041634Y043683D01*
X041660Y043678D01*
X041685Y043670D01*
X041708Y043658D01*
X041730Y043644D01*
X041749Y043626D01*
X041767Y043607D01*
X041781Y043585D01*
X041793Y043562D01*
X041801Y043537D01*
X041806Y043511D01*
X041808Y043485D01*
X044933Y042710D02*
X045067Y042710D01*
X045000Y042710D02*
X045000Y042310D01*
X044933Y042310D02*
X045067Y042310D01*
X045240Y042377D02*
X045307Y042310D01*
X045440Y042310D01*
X045507Y042377D01*
X045701Y042310D02*
X045968Y042310D01*
X045834Y042310D02*
X045834Y042710D01*
X045701Y042577D01*
X045507Y042644D02*
X045440Y042710D01*
X045307Y042710D01*
X045240Y042644D01*
X045240Y042377D01*
X045308Y042110D02*
X046058Y042110D01*
X046060Y042071D01*
X046066Y042032D01*
X046075Y041994D01*
X046088Y041957D01*
X046105Y041921D01*
X046125Y041888D01*
X046149Y041856D01*
X046175Y041827D01*
X046204Y041801D01*
X046236Y041777D01*
X046269Y041757D01*
X046305Y041740D01*
X046342Y041727D01*
X046380Y041718D01*
X046419Y041712D01*
X046458Y041710D01*
X046497Y041712D01*
X046536Y041718D01*
X046574Y041727D01*
X046611Y041740D01*
X046647Y041757D01*
X046680Y041777D01*
X046712Y041801D01*
X046741Y041827D01*
X046767Y041856D01*
X046791Y041888D01*
X046811Y041921D01*
X046828Y041957D01*
X046841Y041994D01*
X046850Y042032D01*
X046856Y042071D01*
X046858Y042110D01*
X047608Y042110D01*
X047608Y035110D01*
X045308Y035110D01*
X045308Y042110D01*
X046308Y042785D02*
X047608Y042785D01*
X047634Y042787D01*
X047660Y042792D01*
X047685Y042800D01*
X047708Y042812D01*
X047730Y042826D01*
X047749Y042844D01*
X047767Y042863D01*
X047781Y042885D01*
X047793Y042908D01*
X047801Y042933D01*
X047806Y042959D01*
X047808Y042985D01*
X047458Y043235D02*
X047078Y043235D01*
X046828Y043235D02*
X046458Y043235D01*
X046108Y042985D02*
X046110Y042959D01*
X046115Y042933D01*
X046123Y042908D01*
X046135Y042885D01*
X046149Y042863D01*
X046167Y042844D01*
X046186Y042826D01*
X046208Y042812D01*
X046231Y042800D01*
X046256Y042792D01*
X046282Y042787D01*
X046308Y042785D01*
X046108Y043485D02*
X046110Y043511D01*
X046115Y043537D01*
X046123Y043562D01*
X046135Y043585D01*
X046149Y043607D01*
X046167Y043626D01*
X046186Y043644D01*
X046208Y043658D01*
X046231Y043670D01*
X046256Y043678D01*
X046282Y043683D01*
X046308Y043685D01*
X047608Y043685D01*
X047634Y043683D01*
X047660Y043678D01*
X047685Y043670D01*
X047708Y043658D01*
X047730Y043644D01*
X047749Y043626D01*
X047767Y043607D01*
X047781Y043585D01*
X047793Y043562D01*
X047801Y043537D01*
X047806Y043511D01*
X047808Y043485D01*
X046658Y041116D02*
X046258Y041116D01*
X046258Y040850D02*
X046658Y041116D01*
X046658Y040850D02*
X046258Y040850D01*
X046325Y040656D02*
X046391Y040656D01*
X046458Y040589D01*
X046458Y040456D01*
X046391Y040389D01*
X046325Y040389D01*
X046258Y040456D01*
X046258Y040589D01*
X046325Y040656D01*
X046458Y040589D02*
X046525Y040656D01*
X046592Y040656D01*
X046658Y040589D01*
X046658Y040456D01*
X046592Y040389D01*
X046525Y040389D01*
X046458Y040456D01*
X046325Y040196D02*
X046592Y039929D01*
X046658Y039996D01*
X046658Y040129D01*
X046592Y040196D01*
X046325Y040196D01*
X046258Y040129D01*
X046258Y039996D01*
X046325Y039929D01*
X046592Y039929D01*
X046592Y039735D02*
X046658Y039669D01*
X046658Y039535D01*
X046592Y039468D01*
X046458Y039535D02*
X046458Y039669D01*
X046525Y039735D01*
X046592Y039735D01*
X046458Y039535D02*
X046391Y039468D01*
X046325Y039468D01*
X046258Y039535D01*
X046258Y039669D01*
X046325Y039735D01*
X046658Y039275D02*
X046658Y039008D01*
X046258Y039008D01*
X046258Y038748D02*
X046458Y038548D01*
X046458Y038815D01*
X046658Y038748D02*
X046258Y038748D01*
X046258Y038354D02*
X046325Y038354D01*
X046592Y038087D01*
X046658Y038087D01*
X046258Y038087D02*
X046258Y038354D01*
X051433Y042110D02*
X052183Y042110D01*
X051968Y042377D02*
X051968Y042443D01*
X051901Y042510D01*
X051701Y042510D01*
X051701Y042377D01*
X051767Y042310D01*
X051901Y042310D01*
X051968Y042377D01*
X051834Y042644D02*
X051701Y042510D01*
X051834Y042644D02*
X051968Y042710D01*
X051507Y042644D02*
X051440Y042710D01*
X051307Y042710D01*
X051240Y042644D01*
X051240Y042377D01*
X051307Y042310D01*
X051440Y042310D01*
X051507Y042377D01*
X051433Y042110D02*
X051433Y032110D01*
X053733Y032110D01*
X053733Y042110D01*
X052983Y042110D01*
X052981Y042071D01*
X052975Y042032D01*
X052966Y041994D01*
X052953Y041957D01*
X052936Y041921D01*
X052916Y041888D01*
X052892Y041856D01*
X052866Y041827D01*
X052837Y041801D01*
X052805Y041777D01*
X052772Y041757D01*
X052736Y041740D01*
X052699Y041727D01*
X052661Y041718D01*
X052622Y041712D01*
X052583Y041710D01*
X052544Y041712D01*
X052505Y041718D01*
X052467Y041727D01*
X052430Y041740D01*
X052394Y041757D01*
X052361Y041777D01*
X052329Y041801D01*
X052300Y041827D01*
X052274Y041856D01*
X052250Y041888D01*
X052230Y041921D01*
X052213Y041957D01*
X052200Y041994D01*
X052191Y042032D01*
X052185Y042071D01*
X052183Y042110D01*
X052433Y042785D02*
X053733Y042785D01*
X053759Y042787D01*
X053785Y042792D01*
X053810Y042800D01*
X053833Y042812D01*
X053855Y042826D01*
X053874Y042844D01*
X053892Y042863D01*
X053906Y042885D01*
X053918Y042908D01*
X053926Y042933D01*
X053931Y042959D01*
X053933Y042985D01*
X053583Y043235D02*
X053203Y043235D01*
X052953Y043235D02*
X052583Y043235D01*
X052233Y042985D02*
X052235Y042959D01*
X052240Y042933D01*
X052248Y042908D01*
X052260Y042885D01*
X052274Y042863D01*
X052292Y042844D01*
X052311Y042826D01*
X052333Y042812D01*
X052356Y042800D01*
X052381Y042792D01*
X052407Y042787D01*
X052433Y042785D01*
X052233Y043485D02*
X052235Y043511D01*
X052240Y043537D01*
X052248Y043562D01*
X052260Y043585D01*
X052274Y043607D01*
X052292Y043626D01*
X052311Y043644D01*
X052333Y043658D01*
X052356Y043670D01*
X052381Y043678D01*
X052407Y043683D01*
X052433Y043685D01*
X053733Y043685D01*
X053759Y043683D01*
X053785Y043678D01*
X053810Y043670D01*
X053833Y043658D01*
X053855Y043644D01*
X053874Y043626D01*
X053892Y043607D01*
X053906Y043585D01*
X053918Y043562D01*
X053926Y043537D01*
X053931Y043511D01*
X053933Y043485D01*
X051067Y042710D02*
X050933Y042710D01*
X051000Y042710D02*
X051000Y042310D01*
X050933Y042310D02*
X051067Y042310D01*
X052483Y040816D02*
X052883Y040816D01*
X052483Y040550D01*
X052883Y040550D01*
X052883Y040356D02*
X052883Y040089D01*
X052883Y040223D02*
X052483Y040223D01*
X052616Y040089D01*
X052683Y039896D02*
X052683Y039629D01*
X052483Y039829D01*
X052883Y039829D01*
X052817Y039435D02*
X052883Y039369D01*
X052883Y039235D01*
X052817Y039168D01*
X052683Y039168D02*
X052616Y039302D01*
X052616Y039369D01*
X052683Y039435D01*
X052817Y039435D01*
X052683Y039168D02*
X052483Y039168D01*
X052483Y039435D01*
X052550Y038975D02*
X052483Y038908D01*
X052483Y038775D01*
X052550Y038708D01*
X052616Y038708D01*
X052683Y038775D01*
X052683Y038908D01*
X052750Y038975D01*
X052817Y038975D01*
X052883Y038908D01*
X052883Y038775D01*
X052817Y038708D01*
X052883Y038515D02*
X052883Y038248D01*
X052483Y038248D01*
X052483Y037987D02*
X052683Y037787D01*
X052683Y038054D01*
X052883Y037987D02*
X052483Y037987D01*
X052483Y037594D02*
X052550Y037594D01*
X052817Y037327D01*
X052883Y037327D01*
X052483Y037327D02*
X052483Y037594D01*
X056208Y037310D02*
X056208Y037910D01*
X056210Y037927D01*
X056214Y037944D01*
X056221Y037960D01*
X056231Y037974D01*
X056244Y037987D01*
X056258Y037997D01*
X056274Y038004D01*
X056291Y038008D01*
X056308Y038010D01*
X056458Y038010D01*
X056508Y037960D01*
X057908Y037960D01*
X057958Y038010D01*
X058108Y038010D01*
X058125Y038008D01*
X058142Y038004D01*
X058158Y037997D01*
X058172Y037987D01*
X058185Y037974D01*
X058195Y037960D01*
X058202Y037944D01*
X058206Y037927D01*
X058208Y037910D01*
X058208Y037310D01*
X058206Y037293D01*
X058202Y037276D01*
X058195Y037260D01*
X058185Y037246D01*
X058172Y037233D01*
X058158Y037223D01*
X058142Y037216D01*
X058125Y037212D01*
X058108Y037210D01*
X057958Y037210D01*
X057908Y037260D01*
X056508Y037260D01*
X056458Y037210D01*
X056308Y037210D01*
X056291Y037212D01*
X056274Y037216D01*
X056258Y037223D01*
X056244Y037233D01*
X056231Y037246D01*
X056221Y037260D01*
X056214Y037276D01*
X056210Y037293D01*
X056208Y037310D01*
X056308Y037010D02*
X056458Y037010D01*
X056508Y036960D01*
X057908Y036960D01*
X057958Y037010D01*
X058108Y037010D01*
X058125Y037008D01*
X058142Y037004D01*
X058158Y036997D01*
X058172Y036987D01*
X058185Y036974D01*
X058195Y036960D01*
X058202Y036944D01*
X058206Y036927D01*
X058208Y036910D01*
X058208Y036310D01*
X058206Y036293D01*
X058202Y036276D01*
X058195Y036260D01*
X058185Y036246D01*
X058172Y036233D01*
X058158Y036223D01*
X058142Y036216D01*
X058125Y036212D01*
X058108Y036210D01*
X057958Y036210D01*
X057908Y036260D01*
X056508Y036260D01*
X056458Y036210D01*
X056308Y036210D01*
X056291Y036212D01*
X056274Y036216D01*
X056258Y036223D01*
X056244Y036233D01*
X056231Y036246D01*
X056221Y036260D01*
X056214Y036276D01*
X056210Y036293D01*
X056208Y036310D01*
X056208Y036910D01*
X056210Y036927D01*
X056214Y036944D01*
X056221Y036960D01*
X056231Y036974D01*
X056244Y036987D01*
X056258Y036997D01*
X056274Y037004D01*
X056291Y037008D01*
X056308Y037010D01*
X056308Y036010D02*
X056458Y036010D01*
X056508Y035960D01*
X057908Y035960D01*
X057958Y036010D01*
X058108Y036010D01*
X058125Y036008D01*
X058142Y036004D01*
X058158Y035997D01*
X058172Y035987D01*
X058185Y035974D01*
X058195Y035960D01*
X058202Y035944D01*
X058206Y035927D01*
X058208Y035910D01*
X058208Y035310D01*
X058206Y035293D01*
X058202Y035276D01*
X058195Y035260D01*
X058185Y035246D01*
X058172Y035233D01*
X058158Y035223D01*
X058142Y035216D01*
X058125Y035212D01*
X058108Y035210D01*
X057958Y035210D01*
X057908Y035260D01*
X056508Y035260D01*
X056458Y035210D01*
X056308Y035210D01*
X056291Y035212D01*
X056274Y035216D01*
X056258Y035223D01*
X056244Y035233D01*
X056231Y035246D01*
X056221Y035260D01*
X056214Y035276D01*
X056210Y035293D01*
X056208Y035310D01*
X056208Y035910D01*
X056210Y035927D01*
X056214Y035944D01*
X056221Y035960D01*
X056231Y035974D01*
X056244Y035987D01*
X056258Y035997D01*
X056274Y036004D01*
X056291Y036008D01*
X056308Y036010D01*
X056308Y035010D02*
X056458Y035010D01*
X056508Y034960D01*
X057908Y034960D01*
X057958Y035010D01*
X058108Y035010D01*
X058125Y035008D01*
X058142Y035004D01*
X058158Y034997D01*
X058172Y034987D01*
X058185Y034974D01*
X058195Y034960D01*
X058202Y034944D01*
X058206Y034927D01*
X058208Y034910D01*
X058208Y034310D01*
X058206Y034293D01*
X058202Y034276D01*
X058195Y034260D01*
X058185Y034246D01*
X058172Y034233D01*
X058158Y034223D01*
X058142Y034216D01*
X058125Y034212D01*
X058108Y034210D01*
X057958Y034210D01*
X057908Y034260D01*
X056508Y034260D01*
X056458Y034210D01*
X056308Y034210D01*
X056291Y034212D01*
X056274Y034216D01*
X056258Y034223D01*
X056244Y034233D01*
X056231Y034246D01*
X056221Y034260D01*
X056214Y034276D01*
X056210Y034293D01*
X056208Y034310D01*
X056208Y034910D01*
X056210Y034927D01*
X056214Y034944D01*
X056221Y034960D01*
X056231Y034974D01*
X056244Y034987D01*
X056258Y034997D01*
X056274Y035004D01*
X056291Y035008D01*
X056308Y035010D01*
X056308Y034010D02*
X056458Y034010D01*
X056508Y033960D01*
X057908Y033960D01*
X057958Y034010D01*
X058108Y034010D01*
X058125Y034008D01*
X058142Y034004D01*
X058158Y033997D01*
X058172Y033987D01*
X058185Y033974D01*
X058195Y033960D01*
X058202Y033944D01*
X058206Y033927D01*
X058208Y033910D01*
X058208Y033310D01*
X058206Y033293D01*
X058202Y033276D01*
X058195Y033260D01*
X058185Y033246D01*
X058172Y033233D01*
X058158Y033223D01*
X058142Y033216D01*
X058125Y033212D01*
X058108Y033210D01*
X057958Y033210D01*
X057908Y033260D01*
X056508Y033260D01*
X056458Y033210D01*
X056308Y033210D01*
X056291Y033212D01*
X056274Y033216D01*
X056258Y033223D01*
X056244Y033233D01*
X056231Y033246D01*
X056221Y033260D01*
X056214Y033276D01*
X056210Y033293D01*
X056208Y033310D01*
X056208Y033910D01*
X056210Y033927D01*
X056214Y033944D01*
X056221Y033960D01*
X056231Y033974D01*
X056244Y033987D01*
X056258Y033997D01*
X056274Y034004D01*
X056291Y034008D01*
X056308Y034010D01*
X059833Y033860D02*
X059833Y033360D01*
X060083Y033110D01*
X061583Y033110D01*
X061833Y033360D01*
X061833Y033860D01*
X061583Y034110D01*
X060083Y034110D01*
X059833Y033860D01*
X060083Y034110D02*
X059833Y034360D01*
X059833Y034860D01*
X060083Y035110D01*
X061583Y035110D01*
X061833Y034860D01*
X061833Y034360D01*
X061583Y034110D01*
X061583Y035110D02*
X061833Y035360D01*
X061833Y035860D01*
X061583Y036110D01*
X060083Y036110D01*
X059833Y035860D01*
X059833Y035360D01*
X060083Y035110D01*
X060083Y036110D02*
X059833Y036360D01*
X059833Y036860D01*
X060083Y037110D01*
X061583Y037110D01*
X061833Y036860D01*
X061833Y036360D01*
X061583Y036110D01*
X061583Y037110D02*
X061833Y037360D01*
X061833Y037860D01*
X061583Y038110D01*
X060083Y038110D01*
X059833Y037860D01*
X059833Y037360D01*
X060083Y037110D01*
X060083Y038110D02*
X059833Y038360D01*
X059833Y038860D01*
X060083Y039110D01*
X061583Y039110D01*
X061833Y038860D01*
X061833Y038360D01*
X061583Y038110D01*
X061583Y039110D02*
X061833Y039360D01*
X061833Y039860D01*
X061583Y040110D01*
X060083Y040110D01*
X059833Y039860D01*
X059833Y039360D01*
X060083Y039110D01*
X060083Y040110D02*
X059833Y040360D01*
X059833Y040860D01*
X060083Y041110D01*
X061583Y041110D01*
X061833Y040860D01*
X061833Y040360D01*
X061583Y040110D01*
X062133Y040046D02*
X062133Y039912D01*
X062133Y039979D02*
X062467Y039979D01*
X062533Y039912D01*
X062533Y039846D01*
X062467Y039779D01*
X062533Y040239D02*
X062133Y040239D01*
X062133Y040439D01*
X062200Y040506D01*
X062333Y040506D01*
X062400Y040439D01*
X062400Y040239D01*
X062533Y040700D02*
X062533Y040966D01*
X062533Y040833D02*
X062133Y040833D01*
X062266Y040700D01*
X061583Y043110D02*
X061083Y043110D01*
X060833Y043360D01*
X060833Y044860D01*
X061083Y045110D01*
X061583Y045110D01*
X061833Y044860D01*
X061833Y043360D01*
X061583Y043110D01*
X060833Y043360D02*
X060583Y043110D01*
X060083Y043110D01*
X059833Y043360D01*
X059833Y044860D01*
X060083Y045110D01*
X060583Y045110D01*
X060833Y044860D01*
X060804Y045410D02*
X061004Y045410D01*
X061071Y045477D01*
X061071Y045744D01*
X061004Y045810D01*
X060804Y045810D01*
X060804Y045410D01*
X060611Y045410D02*
X060611Y045810D01*
X060344Y045810D02*
X060611Y045410D01*
X060344Y045410D02*
X060344Y045810D01*
X060150Y045744D02*
X060084Y045810D01*
X059950Y045810D01*
X059883Y045744D01*
X059883Y045477D01*
X059950Y045410D01*
X060084Y045410D01*
X060150Y045477D01*
X060150Y045610D01*
X060017Y045610D01*
X061265Y045677D02*
X061398Y045810D01*
X061398Y045410D01*
X061265Y045410D02*
X061531Y045410D01*
X058108Y041010D02*
X057958Y041010D01*
X057908Y040960D01*
X056508Y040960D01*
X056458Y041010D01*
X056308Y041010D01*
X056291Y041008D01*
X056274Y041004D01*
X056258Y040997D01*
X056244Y040987D01*
X056231Y040974D01*
X056221Y040960D01*
X056214Y040944D01*
X056210Y040927D01*
X056208Y040910D01*
X056208Y040310D01*
X056210Y040293D01*
X056214Y040276D01*
X056221Y040260D01*
X056231Y040246D01*
X056244Y040233D01*
X056258Y040223D01*
X056274Y040216D01*
X056291Y040212D01*
X056308Y040210D01*
X056458Y040210D01*
X056508Y040260D01*
X057908Y040260D01*
X057958Y040210D01*
X058108Y040210D01*
X058125Y040212D01*
X058142Y040216D01*
X058158Y040223D01*
X058172Y040233D01*
X058185Y040246D01*
X058195Y040260D01*
X058202Y040276D01*
X058206Y040293D01*
X058208Y040310D01*
X058208Y040910D01*
X058206Y040927D01*
X058202Y040944D01*
X058195Y040960D01*
X058185Y040974D01*
X058172Y040987D01*
X058158Y040997D01*
X058142Y041004D01*
X058125Y041008D01*
X058108Y041010D01*
X057482Y040663D02*
X057337Y040567D01*
X057482Y040470D01*
X057337Y040470D02*
X057337Y040760D01*
X057171Y040712D02*
X056977Y040518D01*
X057026Y040470D01*
X057123Y040470D01*
X057171Y040518D01*
X057171Y040712D01*
X057123Y040760D01*
X057026Y040760D01*
X056977Y040712D01*
X056977Y040518D01*
X056812Y040470D02*
X056618Y040470D01*
X056715Y040470D02*
X056715Y040760D01*
X056618Y040663D01*
X056458Y040010D02*
X056508Y039960D01*
X057908Y039960D01*
X057958Y040010D01*
X058108Y040010D01*
X058125Y040008D01*
X058142Y040004D01*
X058158Y039997D01*
X058172Y039987D01*
X058185Y039974D01*
X058195Y039960D01*
X058202Y039944D01*
X058206Y039927D01*
X058208Y039910D01*
X058208Y039310D01*
X058206Y039293D01*
X058202Y039276D01*
X058195Y039260D01*
X058185Y039246D01*
X058172Y039233D01*
X058158Y039223D01*
X058142Y039216D01*
X058125Y039212D01*
X058108Y039210D01*
X057958Y039210D01*
X057908Y039260D01*
X056508Y039260D01*
X056458Y039210D01*
X056308Y039210D01*
X056291Y039212D01*
X056274Y039216D01*
X056258Y039223D01*
X056244Y039233D01*
X056231Y039246D01*
X056221Y039260D01*
X056214Y039276D01*
X056210Y039293D01*
X056208Y039310D01*
X056208Y039910D01*
X056210Y039927D01*
X056214Y039944D01*
X056221Y039960D01*
X056231Y039974D01*
X056244Y039987D01*
X056258Y039997D01*
X056274Y040004D01*
X056291Y040008D01*
X056308Y040010D01*
X056458Y040010D01*
X056458Y039010D02*
X056508Y038960D01*
X057908Y038960D01*
X057958Y039010D01*
X058108Y039010D01*
X058125Y039008D01*
X058142Y039004D01*
X058158Y038997D01*
X058172Y038987D01*
X058185Y038974D01*
X058195Y038960D01*
X058202Y038944D01*
X058206Y038927D01*
X058208Y038910D01*
X058208Y038310D01*
X058206Y038293D01*
X058202Y038276D01*
X058195Y038260D01*
X058185Y038246D01*
X058172Y038233D01*
X058158Y038223D01*
X058142Y038216D01*
X058125Y038212D01*
X058108Y038210D01*
X057958Y038210D01*
X057908Y038260D01*
X056508Y038260D01*
X056458Y038210D01*
X056308Y038210D01*
X056291Y038212D01*
X056274Y038216D01*
X056258Y038223D01*
X056244Y038233D01*
X056231Y038246D01*
X056221Y038260D01*
X056214Y038276D01*
X056210Y038293D01*
X056208Y038310D01*
X056208Y038910D01*
X056210Y038927D01*
X056214Y038944D01*
X056221Y038960D01*
X056231Y038974D01*
X056244Y038987D01*
X056258Y038997D01*
X056274Y039004D01*
X056291Y039008D01*
X056308Y039010D01*
X056458Y039010D01*
X053058Y028850D02*
X052658Y028850D01*
X052858Y028650D01*
X052858Y028916D01*
X053058Y028456D02*
X053058Y028189D01*
X053058Y028323D02*
X052658Y028323D01*
X052791Y028189D01*
X052725Y027996D02*
X052658Y027929D01*
X052658Y027796D01*
X052725Y027729D01*
X052992Y027729D01*
X053058Y027796D01*
X053058Y027929D01*
X052992Y027996D01*
X053058Y027555D02*
X053058Y027422D01*
X053058Y027489D02*
X052658Y027489D01*
X052658Y027555D02*
X052658Y027422D01*
X052458Y027260D02*
X052458Y028010D01*
X042458Y028010D01*
X042458Y025710D01*
X052458Y025710D01*
X052458Y026460D01*
X052419Y026462D01*
X052380Y026468D01*
X052342Y026477D01*
X052305Y026490D01*
X052269Y026507D01*
X052236Y026527D01*
X052204Y026551D01*
X052175Y026577D01*
X052149Y026606D01*
X052125Y026638D01*
X052105Y026671D01*
X052088Y026707D01*
X052075Y026744D01*
X052066Y026782D01*
X052060Y026821D01*
X052058Y026860D01*
X052060Y026899D01*
X052066Y026938D01*
X052075Y026976D01*
X052088Y027013D01*
X052105Y027049D01*
X052125Y027082D01*
X052149Y027114D01*
X052175Y027143D01*
X052204Y027169D01*
X052236Y027193D01*
X052269Y027213D01*
X052305Y027230D01*
X052342Y027243D01*
X052380Y027252D01*
X052419Y027258D01*
X052458Y027260D01*
X053008Y027010D02*
X053008Y025710D01*
X053010Y025684D01*
X053015Y025658D01*
X053023Y025633D01*
X053035Y025610D01*
X053049Y025588D01*
X053067Y025569D01*
X053086Y025551D01*
X053108Y025537D01*
X053131Y025525D01*
X053156Y025517D01*
X053182Y025512D01*
X053208Y025510D01*
X053458Y025860D02*
X053458Y026240D01*
X053458Y026490D02*
X053458Y026860D01*
X053208Y027210D02*
X053182Y027208D01*
X053156Y027203D01*
X053131Y027195D01*
X053108Y027183D01*
X053086Y027169D01*
X053067Y027151D01*
X053049Y027132D01*
X053035Y027110D01*
X053023Y027087D01*
X053015Y027062D01*
X053010Y027036D01*
X053008Y027010D01*
X053708Y027210D02*
X053734Y027208D01*
X053760Y027203D01*
X053785Y027195D01*
X053808Y027183D01*
X053830Y027169D01*
X053849Y027151D01*
X053867Y027132D01*
X053881Y027110D01*
X053893Y027087D01*
X053901Y027062D01*
X053906Y027036D01*
X053908Y027010D01*
X053908Y025710D01*
X053906Y025684D01*
X053901Y025658D01*
X053893Y025633D01*
X053881Y025610D01*
X053867Y025588D01*
X053849Y025569D01*
X053830Y025551D01*
X053808Y025537D01*
X053785Y025525D01*
X053760Y025517D01*
X053734Y025512D01*
X053708Y025510D01*
X055108Y025611D02*
X055508Y025611D01*
X055508Y025744D02*
X055508Y025477D01*
X055442Y025284D02*
X055508Y025217D01*
X055508Y025084D01*
X055442Y025017D01*
X055175Y025017D01*
X055108Y025084D01*
X055108Y025217D01*
X055175Y025284D01*
X055241Y025477D02*
X055108Y025611D01*
X055175Y025938D02*
X055108Y026004D01*
X055108Y026138D01*
X055175Y026205D01*
X055241Y026205D01*
X055308Y026138D01*
X055375Y026205D01*
X055442Y026205D01*
X055508Y026138D01*
X055508Y026004D01*
X055442Y025938D01*
X055308Y026071D02*
X055308Y026138D01*
X055708Y026460D02*
X055708Y025710D01*
X062708Y025710D01*
X062708Y028010D01*
X055708Y028010D01*
X055708Y027260D01*
X055747Y027258D01*
X055786Y027252D01*
X055824Y027243D01*
X055861Y027230D01*
X055897Y027213D01*
X055930Y027193D01*
X055962Y027169D01*
X055991Y027143D01*
X056017Y027114D01*
X056041Y027082D01*
X056061Y027049D01*
X056078Y027013D01*
X056091Y026976D01*
X056100Y026938D01*
X056106Y026899D01*
X056108Y026860D01*
X056106Y026821D01*
X056100Y026782D01*
X056091Y026744D01*
X056078Y026707D01*
X056061Y026671D01*
X056041Y026638D01*
X056017Y026606D01*
X055991Y026577D01*
X055962Y026551D01*
X055930Y026527D01*
X055897Y026507D01*
X055861Y026490D01*
X055824Y026477D01*
X055786Y026468D01*
X055747Y026462D01*
X055708Y026460D01*
X055158Y026710D02*
X055158Y028010D01*
X055156Y028036D01*
X055151Y028062D01*
X055143Y028087D01*
X055131Y028110D01*
X055117Y028132D01*
X055099Y028151D01*
X055080Y028169D01*
X055058Y028183D01*
X055035Y028195D01*
X055010Y028203D01*
X054984Y028208D01*
X054958Y028210D01*
X054708Y027860D02*
X054708Y027480D01*
X054708Y027230D02*
X054708Y026860D01*
X054458Y026510D02*
X054432Y026512D01*
X054406Y026517D01*
X054381Y026525D01*
X054358Y026537D01*
X054336Y026551D01*
X054317Y026569D01*
X054299Y026588D01*
X054285Y026610D01*
X054273Y026633D01*
X054265Y026658D01*
X054260Y026684D01*
X054258Y026710D01*
X054258Y028010D01*
X054260Y028036D01*
X054265Y028062D01*
X054273Y028087D01*
X054285Y028110D01*
X054299Y028132D01*
X054317Y028151D01*
X054336Y028169D01*
X054358Y028183D01*
X054381Y028195D01*
X054406Y028203D01*
X054432Y028208D01*
X054458Y028210D01*
X055158Y026710D02*
X055156Y026684D01*
X055151Y026658D01*
X055143Y026633D01*
X055131Y026610D01*
X055117Y026588D01*
X055099Y026569D01*
X055080Y026551D01*
X055058Y026537D01*
X055035Y026525D01*
X055010Y026517D01*
X054984Y026512D01*
X054958Y026510D01*
X056608Y026660D02*
X056608Y026727D01*
X056875Y026994D01*
X056875Y027060D01*
X056608Y027060D01*
X057069Y026860D02*
X057336Y026860D01*
X057269Y026660D02*
X057269Y027060D01*
X057069Y026860D01*
X057529Y026660D02*
X057796Y026660D01*
X057990Y026727D02*
X058056Y026660D01*
X058190Y026660D01*
X058256Y026727D01*
X058256Y026793D01*
X058190Y026860D01*
X058056Y026860D01*
X057990Y026927D01*
X057990Y026994D01*
X058056Y027060D01*
X058190Y027060D01*
X058256Y026994D01*
X058450Y026994D02*
X058517Y027060D01*
X058650Y027060D01*
X058717Y026994D01*
X058717Y026927D01*
X058650Y026860D01*
X058717Y026793D01*
X058717Y026727D01*
X058650Y026660D01*
X058517Y026660D01*
X058450Y026727D01*
X058583Y026860D02*
X058650Y026860D01*
X058910Y026994D02*
X058977Y027060D01*
X059110Y027060D01*
X059177Y026994D01*
X059177Y026927D01*
X058910Y026660D01*
X059177Y026660D01*
X059371Y026660D02*
X059371Y027060D01*
X059638Y026660D01*
X059638Y027060D01*
X057529Y027060D02*
X057529Y026660D01*
X055508Y024843D02*
X055508Y024710D01*
X055508Y024777D02*
X055108Y024777D01*
X055108Y024843D02*
X055108Y024710D01*
X051165Y026560D02*
X051165Y026960D01*
X050898Y026960D02*
X051165Y026560D01*
X050898Y026560D02*
X050898Y026960D01*
X050638Y026960D02*
X050638Y026560D01*
X050704Y026760D02*
X050438Y026760D01*
X050638Y026960D01*
X050244Y026760D02*
X049977Y026760D01*
X050177Y026960D01*
X050177Y026560D01*
X049784Y026560D02*
X049517Y026560D01*
X049784Y026827D01*
X049784Y026894D01*
X049717Y026960D01*
X049583Y026960D01*
X049517Y026894D01*
X049323Y026894D02*
X049257Y026960D01*
X049123Y026960D01*
X049056Y026894D01*
X049056Y026827D01*
X049123Y026760D01*
X049257Y026760D01*
X049323Y026693D01*
X049323Y026627D01*
X049257Y026560D01*
X049123Y026560D01*
X049056Y026627D01*
X048863Y026560D02*
X048596Y026560D01*
X048596Y026960D01*
X048336Y026960D02*
X048136Y026760D01*
X048402Y026760D01*
X048336Y026560D02*
X048336Y026960D01*
X047942Y026960D02*
X047942Y026894D01*
X047675Y026627D01*
X047675Y026560D01*
X047675Y026960D02*
X047942Y026960D01*
X052458Y021010D02*
X042458Y021010D01*
X042458Y018710D01*
X052458Y018710D01*
X052458Y019460D01*
X052658Y019489D02*
X053058Y019489D01*
X053058Y019555D02*
X053058Y019422D01*
X052992Y019729D02*
X052725Y019729D01*
X052658Y019796D01*
X052658Y019929D01*
X052725Y019996D01*
X052791Y020189D02*
X052658Y020323D01*
X053058Y020323D01*
X053058Y020456D02*
X053058Y020189D01*
X052992Y019996D02*
X053058Y019929D01*
X053058Y019796D01*
X052992Y019729D01*
X052658Y019555D02*
X052658Y019422D01*
X052458Y019460D02*
X052419Y019462D01*
X052380Y019468D01*
X052342Y019477D01*
X052305Y019490D01*
X052269Y019507D01*
X052236Y019527D01*
X052204Y019551D01*
X052175Y019577D01*
X052149Y019606D01*
X052125Y019638D01*
X052105Y019671D01*
X052088Y019707D01*
X052075Y019744D01*
X052066Y019782D01*
X052060Y019821D01*
X052058Y019860D01*
X052060Y019899D01*
X052066Y019938D01*
X052075Y019976D01*
X052088Y020013D01*
X052105Y020049D01*
X052125Y020082D01*
X052149Y020114D01*
X052175Y020143D01*
X052204Y020169D01*
X052236Y020193D01*
X052269Y020213D01*
X052305Y020230D01*
X052342Y020243D01*
X052380Y020252D01*
X052419Y020258D01*
X052458Y020260D01*
X052458Y021010D01*
X052658Y020916D02*
X052725Y020916D01*
X052992Y020650D01*
X053058Y020650D01*
X052658Y020650D02*
X052658Y020916D01*
X051165Y019960D02*
X051165Y019560D01*
X050898Y019960D01*
X050898Y019560D01*
X050704Y019560D02*
X050438Y019560D01*
X050571Y019560D02*
X050571Y019960D01*
X050438Y019827D01*
X050244Y019760D02*
X049977Y019760D01*
X050177Y019960D01*
X050177Y019560D01*
X049784Y019627D02*
X049717Y019560D01*
X049583Y019560D01*
X049517Y019627D01*
X049517Y019760D02*
X049650Y019827D01*
X049717Y019827D01*
X049784Y019760D01*
X049784Y019627D01*
X049517Y019760D02*
X049517Y019960D01*
X049784Y019960D01*
X049323Y019894D02*
X049257Y019960D01*
X049123Y019960D01*
X049056Y019894D01*
X049056Y019827D01*
X049123Y019760D01*
X049257Y019760D01*
X049323Y019693D01*
X049323Y019627D01*
X049257Y019560D01*
X049123Y019560D01*
X049056Y019627D01*
X048863Y019560D02*
X048596Y019560D01*
X048596Y019960D01*
X048336Y019960D02*
X048136Y019760D01*
X048402Y019760D01*
X048336Y019560D02*
X048336Y019960D01*
X047942Y019960D02*
X047942Y019894D01*
X047675Y019627D01*
X047675Y019560D01*
X047675Y019960D02*
X047942Y019960D01*
X052458Y015760D02*
X042458Y015760D01*
X042458Y013460D01*
X052458Y013460D01*
X052458Y014210D01*
X052658Y014239D02*
X053058Y014239D01*
X053058Y014305D02*
X053058Y014172D01*
X052992Y014479D02*
X053058Y014546D01*
X053058Y014679D01*
X052992Y014746D01*
X053058Y014939D02*
X053058Y015206D01*
X053058Y015073D02*
X052658Y015073D01*
X052791Y014939D01*
X052725Y014746D02*
X052658Y014679D01*
X052658Y014546D01*
X052725Y014479D01*
X052992Y014479D01*
X052658Y014305D02*
X052658Y014172D01*
X052458Y014210D02*
X052419Y014212D01*
X052380Y014218D01*
X052342Y014227D01*
X052305Y014240D01*
X052269Y014257D01*
X052236Y014277D01*
X052204Y014301D01*
X052175Y014327D01*
X052149Y014356D01*
X052125Y014388D01*
X052105Y014421D01*
X052088Y014457D01*
X052075Y014494D01*
X052066Y014532D01*
X052060Y014571D01*
X052058Y014610D01*
X052060Y014649D01*
X052066Y014688D01*
X052075Y014726D01*
X052088Y014763D01*
X052105Y014799D01*
X052125Y014832D01*
X052149Y014864D01*
X052175Y014893D01*
X052204Y014919D01*
X052236Y014943D01*
X052269Y014963D01*
X052305Y014980D01*
X052342Y014993D01*
X052380Y015002D01*
X052419Y015008D01*
X052458Y015010D01*
X052458Y015760D01*
X052658Y015600D02*
X052725Y015666D01*
X052791Y015666D01*
X052858Y015600D01*
X052858Y015466D01*
X052791Y015400D01*
X052725Y015400D01*
X052658Y015466D01*
X052658Y015600D01*
X052858Y015600D02*
X052925Y015666D01*
X052992Y015666D01*
X053058Y015600D01*
X053058Y015466D01*
X052992Y015400D01*
X052925Y015400D01*
X052858Y015466D01*
X051165Y014710D02*
X051165Y014310D01*
X050898Y014710D01*
X050898Y014310D01*
X050704Y014310D02*
X050438Y014310D01*
X050571Y014310D02*
X050571Y014710D01*
X050438Y014577D01*
X050244Y014510D02*
X049977Y014510D01*
X050177Y014710D01*
X050177Y014310D01*
X049784Y014377D02*
X049717Y014310D01*
X049583Y014310D01*
X049517Y014377D01*
X049517Y014510D02*
X049650Y014577D01*
X049717Y014577D01*
X049784Y014510D01*
X049784Y014377D01*
X049517Y014510D02*
X049517Y014710D01*
X049784Y014710D01*
X049323Y014644D02*
X049257Y014710D01*
X049123Y014710D01*
X049056Y014644D01*
X049056Y014577D01*
X049123Y014510D01*
X049257Y014510D01*
X049323Y014443D01*
X049323Y014377D01*
X049257Y014310D01*
X049123Y014310D01*
X049056Y014377D01*
X048863Y014310D02*
X048596Y014310D01*
X048596Y014710D01*
X048336Y014710D02*
X048136Y014510D01*
X048402Y014510D01*
X048336Y014310D02*
X048336Y014710D01*
X047942Y014710D02*
X047942Y014644D01*
X047675Y014377D01*
X047675Y014310D01*
X047675Y014710D02*
X047942Y014710D01*
X047708Y011110D02*
X048208Y011110D01*
X048458Y010860D01*
X048458Y009360D01*
X048208Y009110D01*
X047708Y009110D01*
X047458Y009360D01*
X047458Y010860D01*
X047708Y011110D01*
X047458Y010860D02*
X047208Y011110D01*
X046708Y011110D01*
X046458Y010860D01*
X046458Y009360D01*
X046208Y009110D01*
X045708Y009110D01*
X045458Y009360D01*
X045458Y010860D01*
X045708Y011110D01*
X046208Y011110D01*
X046458Y010860D01*
X045458Y010860D02*
X045208Y011110D01*
X044708Y011110D01*
X044458Y010860D01*
X044458Y009360D01*
X044208Y009110D01*
X043708Y009110D01*
X043458Y009360D01*
X043458Y010860D01*
X043708Y011110D01*
X044208Y011110D01*
X044458Y010860D01*
X043458Y010860D02*
X043208Y011110D01*
X042708Y011110D01*
X042458Y010860D01*
X042458Y009360D01*
X042208Y009110D01*
X041708Y009110D01*
X041458Y009360D01*
X041458Y010860D01*
X041708Y011110D01*
X042208Y011110D01*
X042458Y010860D01*
X041458Y010860D02*
X041208Y011110D01*
X040708Y011110D01*
X040458Y010860D01*
X040458Y009360D01*
X040208Y009110D01*
X039708Y009110D01*
X039458Y009360D01*
X039458Y010860D01*
X039708Y011110D01*
X040208Y011110D01*
X040458Y010860D01*
X039058Y010796D02*
X039058Y010929D01*
X038992Y010996D01*
X039058Y011189D02*
X039058Y011456D01*
X039058Y011323D02*
X038658Y011323D01*
X038791Y011189D01*
X038725Y010996D02*
X038658Y010929D01*
X038658Y010796D01*
X038725Y010729D01*
X038992Y010729D01*
X039058Y010796D01*
X039058Y010555D02*
X039058Y010422D01*
X039058Y010489D02*
X038658Y010489D01*
X038658Y010555D02*
X038658Y010422D01*
X038458Y010460D02*
X038458Y009710D01*
X031458Y009710D01*
X031458Y012010D01*
X038458Y012010D01*
X038458Y011260D01*
X038419Y011258D01*
X038380Y011252D01*
X038342Y011243D01*
X038305Y011230D01*
X038269Y011213D01*
X038236Y011193D01*
X038204Y011169D01*
X038175Y011143D01*
X038149Y011114D01*
X038125Y011082D01*
X038105Y011049D01*
X038088Y011013D01*
X038075Y010976D01*
X038066Y010938D01*
X038060Y010899D01*
X038058Y010860D01*
X038060Y010821D01*
X038066Y010782D01*
X038075Y010744D01*
X038088Y010707D01*
X038105Y010671D01*
X038125Y010638D01*
X038149Y010606D01*
X038175Y010577D01*
X038204Y010551D01*
X038236Y010527D01*
X038269Y010507D01*
X038305Y010490D01*
X038342Y010477D01*
X038380Y010468D01*
X038419Y010462D01*
X038458Y010460D01*
X037465Y010660D02*
X037465Y011060D01*
X037198Y011060D02*
X037198Y010660D01*
X037004Y010727D02*
X036938Y010660D01*
X036804Y010660D01*
X036738Y010727D01*
X036871Y010860D02*
X036938Y010860D01*
X037004Y010793D01*
X037004Y010727D01*
X036938Y010860D02*
X037004Y010927D01*
X037004Y010994D01*
X036938Y011060D01*
X036804Y011060D01*
X036738Y010994D01*
X036544Y010994D02*
X036277Y010727D01*
X036277Y010660D01*
X036084Y010727D02*
X036017Y010660D01*
X035883Y010660D01*
X035817Y010727D01*
X035883Y010860D02*
X036017Y010860D01*
X036084Y010793D01*
X036084Y010727D01*
X035883Y010860D02*
X035817Y010927D01*
X035817Y010994D01*
X035883Y011060D01*
X036017Y011060D01*
X036084Y010994D01*
X036277Y011060D02*
X036544Y011060D01*
X036544Y010994D01*
X037198Y011060D02*
X037465Y010660D01*
X038658Y011783D02*
X039058Y011783D01*
X039058Y011650D02*
X039058Y011916D01*
X038791Y011650D02*
X038658Y011783D01*
X040458Y009360D02*
X040708Y009110D01*
X041208Y009110D01*
X041458Y009360D01*
X042458Y009360D02*
X042708Y009110D01*
X043208Y009110D01*
X043458Y009360D01*
X044458Y009360D02*
X044708Y009110D01*
X045208Y009110D01*
X045458Y009360D01*
X046458Y009360D02*
X046708Y009110D01*
X047208Y009110D01*
X047458Y009360D01*
X048458Y009360D02*
X048708Y009110D01*
X049208Y009110D01*
X049458Y009360D01*
X049458Y010860D01*
X049208Y011110D01*
X048708Y011110D01*
X048458Y010860D01*
X049458Y010860D02*
X049708Y011110D01*
X050208Y011110D01*
X050458Y010860D01*
X050458Y009360D01*
X050208Y009110D01*
X049708Y009110D01*
X049458Y009360D01*
X050458Y009360D02*
X050708Y009110D01*
X051208Y009110D01*
X051458Y009360D01*
X051458Y010860D01*
X051208Y011110D01*
X050708Y011110D01*
X050458Y010860D01*
X051458Y010860D02*
X051708Y011110D01*
X052208Y011110D01*
X052458Y010860D01*
X052458Y009360D01*
X052208Y009110D01*
X051708Y009110D01*
X051458Y009360D01*
X052458Y009360D02*
X052708Y009110D01*
X053208Y009110D01*
X053458Y009360D01*
X053458Y010860D01*
X053208Y011110D01*
X052708Y011110D01*
X052458Y010860D01*
X053458Y010860D02*
X053708Y011110D01*
X054208Y011110D01*
X054458Y010860D01*
X054458Y009360D01*
X054208Y009110D01*
X053708Y009110D01*
X053458Y009360D01*
X053800Y008810D02*
X053934Y008810D01*
X053867Y008810D02*
X053867Y008477D01*
X053800Y008410D01*
X053733Y008410D01*
X053667Y008477D01*
X054127Y008543D02*
X054327Y008543D01*
X054394Y008610D01*
X054394Y008744D01*
X054327Y008810D01*
X054127Y008810D01*
X054127Y008410D01*
X054588Y008410D02*
X054854Y008410D01*
X054721Y008410D02*
X054721Y008810D01*
X054588Y008677D01*
X054708Y009110D02*
X054458Y009360D01*
X054708Y009110D02*
X055208Y009110D01*
X055458Y009360D01*
X055458Y010860D01*
X055208Y011110D01*
X054708Y011110D01*
X054458Y010860D01*
X054983Y012660D02*
X053683Y012660D01*
X053657Y012662D01*
X053631Y012667D01*
X053606Y012675D01*
X053583Y012687D01*
X053561Y012701D01*
X053542Y012719D01*
X053524Y012738D01*
X053510Y012760D01*
X053498Y012783D01*
X053490Y012808D01*
X053485Y012834D01*
X053483Y012860D01*
X053833Y013110D02*
X054213Y013110D01*
X054463Y013110D02*
X054833Y013110D01*
X055183Y013360D02*
X055181Y013386D01*
X055176Y013412D01*
X055168Y013437D01*
X055156Y013460D01*
X055142Y013482D01*
X055124Y013501D01*
X055105Y013519D01*
X055083Y013533D01*
X055060Y013545D01*
X055035Y013553D01*
X055009Y013558D01*
X054983Y013560D01*
X053683Y013560D01*
X053657Y013558D01*
X053631Y013553D01*
X053606Y013545D01*
X053583Y013533D01*
X053561Y013519D01*
X053542Y013501D01*
X053524Y013482D01*
X053510Y013460D01*
X053498Y013437D01*
X053490Y013412D01*
X053485Y013386D01*
X053483Y013360D01*
X054983Y012660D02*
X055009Y012662D01*
X055035Y012667D01*
X055060Y012675D01*
X055083Y012687D01*
X055105Y012701D01*
X055124Y012719D01*
X055142Y012738D01*
X055156Y012760D01*
X055168Y012783D01*
X055176Y012808D01*
X055181Y012834D01*
X055183Y012860D01*
X059833Y013360D02*
X059833Y013860D01*
X060083Y014110D01*
X061583Y014110D01*
X061833Y013860D01*
X061833Y013360D01*
X061583Y013110D01*
X060083Y013110D01*
X059833Y013360D01*
X060083Y014110D02*
X059833Y014360D01*
X059833Y014860D01*
X060083Y015110D01*
X061583Y015110D01*
X061833Y014860D01*
X061833Y014360D01*
X061583Y014110D01*
X061583Y015110D02*
X061833Y015360D01*
X061833Y015860D01*
X061583Y016110D01*
X060083Y016110D01*
X059833Y015860D01*
X059833Y015360D01*
X060083Y015110D01*
X060083Y016110D02*
X059833Y016360D01*
X059833Y016860D01*
X060083Y017110D01*
X061583Y017110D01*
X061833Y016860D01*
X061833Y016360D01*
X061583Y016110D01*
X061583Y017110D02*
X061833Y017360D01*
X061833Y017860D01*
X061583Y018110D01*
X060083Y018110D01*
X059833Y017860D01*
X059833Y017360D01*
X060083Y017110D01*
X060083Y018110D02*
X059833Y018360D01*
X059833Y018860D01*
X060083Y019110D01*
X061583Y019110D01*
X061833Y018860D01*
X061833Y018360D01*
X061583Y018110D01*
X061583Y019110D02*
X061833Y019360D01*
X061833Y019860D01*
X061583Y020110D01*
X060083Y020110D01*
X059833Y019860D01*
X059833Y019360D01*
X060083Y019110D01*
X060083Y020110D02*
X059833Y020360D01*
X059833Y020860D01*
X060083Y021110D01*
X061583Y021110D01*
X061833Y020860D01*
X061833Y020360D01*
X061583Y020110D01*
X062133Y020046D02*
X062133Y019912D01*
X062133Y019979D02*
X062467Y019979D01*
X062533Y019912D01*
X062533Y019846D01*
X062467Y019779D01*
X062533Y020239D02*
X062133Y020239D01*
X062133Y020439D01*
X062200Y020506D01*
X062333Y020506D01*
X062400Y020439D01*
X062400Y020239D01*
X062533Y020700D02*
X062266Y020966D01*
X062200Y020966D01*
X062133Y020900D01*
X062133Y020766D01*
X062200Y020700D01*
X062533Y020700D02*
X062533Y020966D01*
X055108Y018810D02*
X053808Y018810D01*
X053782Y018808D01*
X053756Y018803D01*
X053731Y018795D01*
X053708Y018783D01*
X053686Y018769D01*
X053667Y018751D01*
X053649Y018732D01*
X053635Y018710D01*
X053623Y018687D01*
X053615Y018662D01*
X053610Y018636D01*
X053608Y018610D01*
X053958Y018360D02*
X054338Y018360D01*
X054588Y018360D02*
X054958Y018360D01*
X055308Y018110D02*
X055306Y018084D01*
X055301Y018058D01*
X055293Y018033D01*
X055281Y018010D01*
X055267Y017988D01*
X055249Y017969D01*
X055230Y017951D01*
X055208Y017937D01*
X055185Y017925D01*
X055160Y017917D01*
X055134Y017912D01*
X055108Y017910D01*
X053808Y017910D01*
X053782Y017912D01*
X053756Y017917D01*
X053731Y017925D01*
X053708Y017937D01*
X053686Y017951D01*
X053667Y017969D01*
X053649Y017988D01*
X053635Y018010D01*
X053623Y018033D01*
X053615Y018058D01*
X053610Y018084D01*
X053608Y018110D01*
X055108Y018810D02*
X055134Y018808D01*
X055160Y018803D01*
X055185Y018795D01*
X055208Y018783D01*
X055230Y018769D01*
X055249Y018751D01*
X055267Y018732D01*
X055281Y018710D01*
X055293Y018687D01*
X055301Y018662D01*
X055306Y018636D01*
X055308Y018610D01*
X059883Y011810D02*
X059883Y011543D01*
X060017Y011410D01*
X060150Y011543D01*
X060150Y011810D01*
X060344Y011744D02*
X060344Y011477D01*
X060410Y011410D01*
X060544Y011410D01*
X060611Y011477D01*
X060804Y011477D02*
X060871Y011410D01*
X061004Y011410D01*
X061071Y011477D01*
X061265Y011410D02*
X061531Y011410D01*
X061398Y011410D02*
X061398Y011810D01*
X061265Y011677D01*
X061071Y011744D02*
X061004Y011810D01*
X060871Y011810D01*
X060804Y011744D01*
X060804Y011477D01*
X060611Y011744D02*
X060544Y011810D01*
X060410Y011810D01*
X060344Y011744D01*
X060583Y011110D02*
X060083Y011110D01*
X059833Y010860D01*
X059833Y009360D01*
X060083Y009110D01*
X060583Y009110D01*
X060833Y009360D01*
X060833Y010860D01*
X061083Y011110D01*
X061583Y011110D01*
X061833Y010860D01*
X061833Y009360D01*
X061583Y009110D01*
X061083Y009110D01*
X060833Y009360D01*
X062202Y010835D02*
X062469Y010835D01*
X062336Y010835D02*
X062336Y011235D01*
X062202Y011102D01*
X062663Y011169D02*
X062729Y011235D01*
X062863Y011235D01*
X062929Y011169D01*
X062663Y010902D01*
X062729Y010835D01*
X062863Y010835D01*
X062929Y010902D01*
X062929Y011169D01*
X063123Y011102D02*
X063123Y010902D01*
X063190Y010835D01*
X063390Y010835D01*
X063390Y011102D01*
X062663Y011169D02*
X062663Y010902D01*
X062858Y009610D02*
X062860Y009676D01*
X062866Y009741D01*
X062876Y009806D01*
X062889Y009871D01*
X062907Y009934D01*
X062928Y009997D01*
X062953Y010057D01*
X062982Y010117D01*
X063014Y010174D01*
X063049Y010230D01*
X063088Y010283D01*
X063130Y010334D01*
X063174Y010382D01*
X063222Y010427D01*
X063272Y010470D01*
X063325Y010509D01*
X063380Y010546D01*
X063437Y010579D01*
X063496Y010608D01*
X063556Y010634D01*
X063618Y010656D01*
X063681Y010675D01*
X063745Y010689D01*
X063810Y010700D01*
X063876Y010707D01*
X063942Y010710D01*
X064007Y010709D01*
X064073Y010704D01*
X064138Y010695D01*
X064203Y010682D01*
X064266Y010666D01*
X064329Y010646D01*
X064390Y010621D01*
X064450Y010594D01*
X064508Y010563D01*
X064564Y010528D01*
X064618Y010490D01*
X064669Y010449D01*
X064718Y010405D01*
X064764Y010358D01*
X064808Y010309D01*
X064848Y010257D01*
X064885Y010202D01*
X064919Y010146D01*
X064949Y010087D01*
X064976Y010027D01*
X064999Y009966D01*
X065018Y009903D01*
X065034Y009839D01*
X065046Y009774D01*
X065054Y009709D01*
X065058Y009643D01*
X065058Y009577D01*
X065054Y009511D01*
X065046Y009446D01*
X065034Y009381D01*
X065018Y009317D01*
X064999Y009254D01*
X064976Y009193D01*
X064949Y009133D01*
X064919Y009074D01*
X064885Y009018D01*
X064848Y008963D01*
X064808Y008911D01*
X064764Y008862D01*
X064718Y008815D01*
X064669Y008771D01*
X064618Y008730D01*
X064564Y008692D01*
X064508Y008657D01*
X064450Y008626D01*
X064390Y008599D01*
X064329Y008574D01*
X064266Y008554D01*
X064203Y008538D01*
X064138Y008525D01*
X064073Y008516D01*
X064007Y008511D01*
X063942Y008510D01*
X063876Y008513D01*
X063810Y008520D01*
X063745Y008531D01*
X063681Y008545D01*
X063618Y008564D01*
X063556Y008586D01*
X063496Y008612D01*
X063437Y008641D01*
X063380Y008674D01*
X063325Y008711D01*
X063272Y008750D01*
X063222Y008793D01*
X063174Y008838D01*
X063130Y008886D01*
X063088Y008937D01*
X063049Y008990D01*
X063014Y009046D01*
X062982Y009103D01*
X062953Y009163D01*
X062928Y009223D01*
X062907Y009286D01*
X062889Y009349D01*
X062876Y009414D01*
X062866Y009479D01*
X062860Y009544D01*
X062858Y009610D01*
X064458Y009110D02*
X064608Y009110D01*
X064608Y008960D01*
X064608Y009110D02*
X064608Y009260D01*
X064608Y009110D02*
X064758Y009110D01*
X060833Y010860D02*
X060583Y011110D01*
X055315Y008744D02*
X055315Y008477D01*
X055248Y008410D01*
X055115Y008410D01*
X055048Y008477D01*
X055315Y008744D01*
X055248Y008810D01*
X055115Y008810D01*
X055048Y008744D01*
X055048Y008477D01*
X039608Y021860D02*
X037308Y021860D01*
X037308Y028860D01*
X038058Y028860D01*
X037803Y029127D02*
X037803Y029193D01*
X037736Y029260D01*
X037536Y029260D01*
X037536Y029127D01*
X037603Y029060D01*
X037736Y029060D01*
X037803Y029127D01*
X037669Y029394D02*
X037536Y029260D01*
X037669Y029394D02*
X037803Y029460D01*
X038308Y029410D02*
X039608Y029410D01*
X039634Y029412D01*
X039660Y029417D01*
X039685Y029425D01*
X039708Y029437D01*
X039730Y029451D01*
X039749Y029469D01*
X039767Y029488D01*
X039781Y029510D01*
X039793Y029533D01*
X039801Y029558D01*
X039806Y029584D01*
X039808Y029610D01*
X039458Y029860D02*
X039078Y029860D01*
X038828Y029860D02*
X038458Y029860D01*
X038108Y030110D02*
X038110Y030136D01*
X038115Y030162D01*
X038123Y030187D01*
X038135Y030210D01*
X038149Y030232D01*
X038167Y030251D01*
X038186Y030269D01*
X038208Y030283D01*
X038231Y030295D01*
X038256Y030303D01*
X038282Y030308D01*
X038308Y030310D01*
X039608Y030310D01*
X039634Y030308D01*
X039660Y030303D01*
X039685Y030295D01*
X039708Y030283D01*
X039730Y030269D01*
X039749Y030251D01*
X039767Y030232D01*
X039781Y030210D01*
X039793Y030187D01*
X039801Y030162D01*
X039806Y030136D01*
X039808Y030110D01*
X039608Y028860D02*
X038858Y028860D01*
X038856Y028821D01*
X038850Y028782D01*
X038841Y028744D01*
X038828Y028707D01*
X038811Y028671D01*
X038791Y028638D01*
X038767Y028606D01*
X038741Y028577D01*
X038712Y028551D01*
X038680Y028527D01*
X038647Y028507D01*
X038611Y028490D01*
X038574Y028477D01*
X038536Y028468D01*
X038497Y028462D01*
X038458Y028460D01*
X038419Y028462D01*
X038380Y028468D01*
X038342Y028477D01*
X038305Y028490D01*
X038269Y028507D01*
X038236Y028527D01*
X038204Y028551D01*
X038175Y028577D01*
X038149Y028606D01*
X038125Y028638D01*
X038105Y028671D01*
X038088Y028707D01*
X038075Y028744D01*
X038066Y028782D01*
X038060Y028821D01*
X038058Y028860D01*
X037343Y029060D02*
X037076Y029060D01*
X037209Y029060D02*
X037209Y029460D01*
X037076Y029327D01*
X036882Y029394D02*
X036815Y029460D01*
X036682Y029460D01*
X036615Y029394D01*
X036615Y029127D01*
X036682Y029060D01*
X036815Y029060D01*
X036882Y029127D01*
X036442Y029060D02*
X036308Y029060D01*
X036375Y029060D02*
X036375Y029460D01*
X036308Y029460D02*
X036442Y029460D01*
X038108Y029610D02*
X038110Y029584D01*
X038115Y029558D01*
X038123Y029533D01*
X038135Y029510D01*
X038149Y029488D01*
X038167Y029469D01*
X038186Y029451D01*
X038208Y029437D01*
X038231Y029425D01*
X038256Y029417D01*
X038282Y029412D01*
X038308Y029410D01*
X039608Y028860D02*
X039608Y021860D01*
X038658Y024837D02*
X038592Y024837D01*
X038325Y025104D01*
X038258Y025104D01*
X038258Y024837D01*
X038458Y025298D02*
X038458Y025565D01*
X038258Y025498D02*
X038458Y025298D01*
X038658Y025498D02*
X038258Y025498D01*
X038258Y025758D02*
X038658Y025758D01*
X038658Y026025D01*
X038592Y026218D02*
X038658Y026285D01*
X038658Y026419D01*
X038592Y026485D01*
X038525Y026485D01*
X038458Y026419D01*
X038458Y026285D01*
X038391Y026218D01*
X038325Y026218D01*
X038258Y026285D01*
X038258Y026419D01*
X038325Y026485D01*
X038391Y026679D02*
X038258Y026812D01*
X038658Y026812D01*
X038658Y026679D02*
X038658Y026946D01*
X038458Y027139D02*
X038458Y027406D01*
X038258Y027339D02*
X038458Y027139D01*
X038658Y027339D02*
X038258Y027339D01*
X038258Y027600D02*
X038658Y027866D01*
X038258Y027866D01*
X038258Y027600D02*
X038658Y027600D01*
X033108Y028860D02*
X032358Y028860D01*
X032356Y028821D01*
X032350Y028782D01*
X032341Y028744D01*
X032328Y028707D01*
X032311Y028671D01*
X032291Y028638D01*
X032267Y028606D01*
X032241Y028577D01*
X032212Y028551D01*
X032180Y028527D01*
X032147Y028507D01*
X032111Y028490D01*
X032074Y028477D01*
X032036Y028468D01*
X031997Y028462D01*
X031958Y028460D01*
X031919Y028462D01*
X031880Y028468D01*
X031842Y028477D01*
X031805Y028490D01*
X031769Y028507D01*
X031736Y028527D01*
X031704Y028551D01*
X031675Y028577D01*
X031649Y028606D01*
X031625Y028638D01*
X031605Y028671D01*
X031588Y028707D01*
X031575Y028744D01*
X031566Y028782D01*
X031560Y028821D01*
X031558Y028860D01*
X030808Y028860D01*
X030808Y021860D01*
X033108Y021860D01*
X033108Y028860D01*
X033108Y029410D02*
X031808Y029410D01*
X031782Y029412D01*
X031756Y029417D01*
X031731Y029425D01*
X031708Y029437D01*
X031686Y029451D01*
X031667Y029469D01*
X031649Y029488D01*
X031635Y029510D01*
X031623Y029533D01*
X031615Y029558D01*
X031610Y029584D01*
X031608Y029610D01*
X031428Y029394D02*
X031161Y029127D01*
X031228Y029060D01*
X031361Y029060D01*
X031428Y029127D01*
X031428Y029394D01*
X031361Y029460D01*
X031228Y029460D01*
X031161Y029394D01*
X031161Y029127D01*
X030968Y029060D02*
X030701Y029060D01*
X030834Y029060D02*
X030834Y029460D01*
X030701Y029327D01*
X030507Y029394D02*
X030440Y029460D01*
X030307Y029460D01*
X030240Y029394D01*
X030240Y029127D01*
X030307Y029060D01*
X030440Y029060D01*
X030507Y029127D01*
X030067Y029060D02*
X029933Y029060D01*
X030000Y029060D02*
X030000Y029460D01*
X029933Y029460D02*
X030067Y029460D01*
X031608Y030110D02*
X031610Y030136D01*
X031615Y030162D01*
X031623Y030187D01*
X031635Y030210D01*
X031649Y030232D01*
X031667Y030251D01*
X031686Y030269D01*
X031708Y030283D01*
X031731Y030295D01*
X031756Y030303D01*
X031782Y030308D01*
X031808Y030310D01*
X033108Y030310D01*
X033134Y030308D01*
X033160Y030303D01*
X033185Y030295D01*
X033208Y030283D01*
X033230Y030269D01*
X033249Y030251D01*
X033267Y030232D01*
X033281Y030210D01*
X033293Y030187D01*
X033301Y030162D01*
X033306Y030136D01*
X033308Y030110D01*
X032958Y029860D02*
X032578Y029860D01*
X032328Y029860D02*
X031958Y029860D01*
X033108Y029410D02*
X033134Y029412D01*
X033160Y029417D01*
X033185Y029425D01*
X033208Y029437D01*
X033230Y029451D01*
X033249Y029469D01*
X033267Y029488D01*
X033281Y029510D01*
X033293Y029533D01*
X033301Y029558D01*
X033306Y029584D01*
X033308Y029610D01*
X032158Y027866D02*
X031758Y027866D01*
X031758Y027600D02*
X032158Y027866D01*
X032158Y027600D02*
X031758Y027600D01*
X031758Y027339D02*
X031958Y027139D01*
X031958Y027406D01*
X032158Y027339D02*
X031758Y027339D01*
X031758Y026946D02*
X031825Y026946D01*
X032092Y026679D01*
X032158Y026679D01*
X032092Y026485D02*
X032158Y026419D01*
X032158Y026285D01*
X032092Y026218D01*
X031958Y026285D02*
X031958Y026419D01*
X032025Y026485D01*
X032092Y026485D01*
X031958Y026285D02*
X031891Y026218D01*
X031825Y026218D01*
X031758Y026285D01*
X031758Y026419D01*
X031825Y026485D01*
X031758Y026679D02*
X031758Y026946D01*
X032158Y026025D02*
X032158Y025758D01*
X031758Y025758D01*
X031758Y025498D02*
X031958Y025298D01*
X031958Y025565D01*
X032158Y025498D02*
X031758Y025498D01*
X031758Y025104D02*
X031825Y025104D01*
X032092Y024837D01*
X032158Y024837D01*
X031758Y024837D02*
X031758Y025104D01*
X030908Y012010D02*
X030908Y010710D01*
X030906Y010684D01*
X030901Y010658D01*
X030893Y010633D01*
X030881Y010610D01*
X030867Y010588D01*
X030849Y010569D01*
X030830Y010551D01*
X030808Y010537D01*
X030785Y010525D01*
X030760Y010517D01*
X030734Y010512D01*
X030708Y010510D01*
X030458Y010860D02*
X030458Y011240D01*
X030458Y011490D02*
X030458Y011860D01*
X030208Y012210D02*
X030182Y012208D01*
X030156Y012203D01*
X030131Y012195D01*
X030108Y012183D01*
X030086Y012169D01*
X030067Y012151D01*
X030049Y012132D01*
X030035Y012110D01*
X030023Y012087D01*
X030015Y012062D01*
X030010Y012036D01*
X030008Y012010D01*
X030008Y010710D01*
X030010Y010684D01*
X030015Y010658D01*
X030023Y010633D01*
X030035Y010610D01*
X030049Y010588D01*
X030067Y010569D01*
X030086Y010551D01*
X030108Y010537D01*
X030131Y010525D01*
X030156Y010517D01*
X030182Y010512D01*
X030208Y010510D01*
X028958Y009710D02*
X028958Y012010D01*
X021958Y012010D01*
X021958Y011260D01*
X021997Y011258D01*
X022036Y011252D01*
X022074Y011243D01*
X022111Y011230D01*
X022147Y011213D01*
X022180Y011193D01*
X022212Y011169D01*
X022241Y011143D01*
X022267Y011114D01*
X022291Y011082D01*
X022311Y011049D01*
X022328Y011013D01*
X022341Y010976D01*
X022350Y010938D01*
X022356Y010899D01*
X022358Y010860D01*
X022356Y010821D01*
X022350Y010782D01*
X022341Y010744D01*
X022328Y010707D01*
X022311Y010671D01*
X022291Y010638D01*
X022267Y010606D01*
X022241Y010577D01*
X022212Y010551D01*
X022180Y010527D01*
X022147Y010507D01*
X022111Y010490D01*
X022074Y010477D01*
X022036Y010468D01*
X021997Y010462D01*
X021958Y010460D01*
X021958Y009710D01*
X028958Y009710D01*
X025888Y010660D02*
X025888Y011060D01*
X025621Y011060D02*
X025621Y010660D01*
X025360Y010660D02*
X025360Y011060D01*
X025160Y010860D01*
X025427Y010860D01*
X025621Y011060D02*
X025888Y010660D01*
X024967Y010994D02*
X024700Y010727D01*
X024700Y010660D01*
X024506Y010727D02*
X024440Y010660D01*
X024306Y010660D01*
X024240Y010727D01*
X024306Y010860D02*
X024440Y010860D01*
X024506Y010793D01*
X024506Y010727D01*
X024306Y010860D02*
X024240Y010927D01*
X024240Y010994D01*
X024306Y011060D01*
X024440Y011060D01*
X024506Y010994D01*
X024700Y011060D02*
X024967Y011060D01*
X024967Y010994D01*
X024046Y010660D02*
X023779Y010660D01*
X023779Y011060D01*
X023519Y011060D02*
X023519Y010660D01*
X023586Y010860D02*
X023319Y010860D01*
X023519Y011060D01*
X023125Y011060D02*
X023125Y010994D01*
X022858Y010727D01*
X022858Y010660D01*
X022858Y011060D02*
X023125Y011060D01*
X021758Y010263D02*
X021758Y010129D01*
X021692Y010063D01*
X021558Y010063D02*
X021491Y010196D01*
X021491Y010263D01*
X021558Y010330D01*
X021692Y010330D01*
X021758Y010263D01*
X021558Y010063D02*
X021358Y010063D01*
X021358Y010330D01*
X021408Y010710D02*
X021408Y012010D01*
X021406Y012036D01*
X021401Y012062D01*
X021393Y012087D01*
X021381Y012110D01*
X021367Y012132D01*
X021349Y012151D01*
X021330Y012169D01*
X021308Y012183D01*
X021285Y012195D01*
X021260Y012203D01*
X021234Y012208D01*
X021208Y012210D01*
X020958Y011860D02*
X020958Y011480D01*
X020958Y011230D02*
X020958Y010860D01*
X020708Y010510D02*
X020682Y010512D01*
X020656Y010517D01*
X020631Y010525D01*
X020608Y010537D01*
X020586Y010551D01*
X020567Y010569D01*
X020549Y010588D01*
X020535Y010610D01*
X020523Y010633D01*
X020515Y010658D01*
X020510Y010684D01*
X020508Y010710D01*
X020508Y012010D01*
X020510Y012036D01*
X020515Y012062D01*
X020523Y012087D01*
X020535Y012110D01*
X020549Y012132D01*
X020567Y012151D01*
X020586Y012169D01*
X020608Y012183D01*
X020631Y012195D01*
X020656Y012203D01*
X020682Y012208D01*
X020708Y012210D01*
X019558Y011446D02*
X019510Y011494D01*
X019316Y011494D01*
X019268Y011446D01*
X019268Y011349D01*
X019316Y011301D01*
X019365Y011301D01*
X019413Y011349D01*
X019413Y011494D01*
X019558Y011446D02*
X019558Y011349D01*
X019510Y011301D01*
X019558Y011135D02*
X019558Y010942D01*
X019558Y011039D02*
X019268Y011039D01*
X019365Y010942D01*
X019413Y010776D02*
X019316Y010776D01*
X019268Y010728D01*
X019268Y010583D01*
X019558Y010583D01*
X019462Y010583D02*
X019462Y010728D01*
X019413Y010776D01*
X019462Y010679D02*
X019558Y010776D01*
X018858Y010787D02*
X018568Y010787D01*
X018713Y010642D01*
X018713Y010835D01*
X018762Y011001D02*
X018665Y011146D01*
X018762Y011001D02*
X018858Y011146D01*
X018858Y011001D02*
X018568Y011001D01*
X018358Y011310D02*
X018358Y009910D01*
X018308Y009860D01*
X018308Y009710D01*
X018310Y009693D01*
X018314Y009676D01*
X018321Y009660D01*
X018331Y009646D01*
X018344Y009633D01*
X018358Y009623D01*
X018374Y009616D01*
X018391Y009612D01*
X018408Y009610D01*
X019008Y009610D01*
X019025Y009612D01*
X019042Y009616D01*
X019058Y009623D01*
X019072Y009633D01*
X019085Y009646D01*
X019095Y009660D01*
X019102Y009676D01*
X019106Y009693D01*
X019108Y009710D01*
X019108Y009860D01*
X019058Y009910D01*
X019058Y011310D01*
X019108Y011360D01*
X019108Y011510D01*
X019106Y011527D01*
X019102Y011544D01*
X019095Y011560D01*
X019085Y011574D01*
X019072Y011587D01*
X019058Y011597D01*
X019042Y011604D01*
X019025Y011608D01*
X019008Y011610D01*
X018408Y011610D01*
X018391Y011608D01*
X018374Y011604D01*
X018358Y011597D01*
X018344Y011587D01*
X018331Y011574D01*
X018321Y011560D01*
X018314Y011544D01*
X018310Y011527D01*
X018308Y011510D01*
X018308Y011360D01*
X018358Y011310D01*
X017388Y010994D02*
X017321Y011060D01*
X017187Y011060D01*
X017121Y010994D01*
X016927Y010994D02*
X016927Y010927D01*
X016860Y010860D01*
X016927Y010793D01*
X016927Y010727D01*
X016860Y010660D01*
X016727Y010660D01*
X016660Y010727D01*
X016794Y010860D02*
X016860Y010860D01*
X016927Y010994D02*
X016860Y011060D01*
X016727Y011060D01*
X016660Y010994D01*
X016467Y010994D02*
X016400Y011060D01*
X016267Y011060D01*
X016200Y010994D01*
X016467Y010994D02*
X016467Y010927D01*
X016200Y010660D01*
X016467Y010660D01*
X016006Y010660D02*
X015740Y010660D01*
X015873Y010660D02*
X015873Y011060D01*
X015740Y010927D01*
X015546Y011060D02*
X015279Y010660D01*
X015086Y010660D02*
X015086Y010927D01*
X014952Y011060D01*
X014819Y010927D01*
X014819Y010660D01*
X014625Y010660D02*
X014625Y011060D01*
X014492Y010927D01*
X014358Y011060D01*
X014358Y010660D01*
X014819Y010860D02*
X015086Y010860D01*
X015279Y011060D02*
X015546Y010660D01*
X017121Y010660D02*
X017388Y010927D01*
X017388Y010994D01*
X017388Y010660D02*
X017121Y010660D01*
X017708Y009710D02*
X017708Y012010D01*
X013708Y012010D01*
X013708Y011260D01*
X013747Y011258D01*
X013786Y011252D01*
X013824Y011243D01*
X013861Y011230D01*
X013897Y011213D01*
X013930Y011193D01*
X013962Y011169D01*
X013991Y011143D01*
X014017Y011114D01*
X014041Y011082D01*
X014061Y011049D01*
X014078Y011013D01*
X014091Y010976D01*
X014100Y010938D01*
X014106Y010899D01*
X014108Y010860D01*
X014106Y010821D01*
X014100Y010782D01*
X014091Y010744D01*
X014078Y010707D01*
X014061Y010671D01*
X014041Y010638D01*
X014017Y010606D01*
X013991Y010577D01*
X013962Y010551D01*
X013930Y010527D01*
X013897Y010507D01*
X013861Y010490D01*
X013824Y010477D01*
X013786Y010468D01*
X013747Y010462D01*
X013708Y010460D01*
X013708Y009710D01*
X017708Y009710D01*
X021208Y010510D02*
X021234Y010512D01*
X021260Y010517D01*
X021285Y010525D01*
X021308Y010537D01*
X021330Y010551D01*
X021349Y010569D01*
X021367Y010588D01*
X021381Y010610D01*
X021393Y010633D01*
X021401Y010658D01*
X021406Y010684D01*
X021408Y010710D01*
X021758Y009869D02*
X021758Y009602D01*
X021758Y009736D02*
X021358Y009736D01*
X021491Y009602D01*
X021425Y009409D02*
X021358Y009342D01*
X021358Y009209D01*
X021425Y009142D01*
X021692Y009142D01*
X021758Y009209D01*
X021758Y009342D01*
X021692Y009409D01*
X021758Y008968D02*
X021758Y008835D01*
X021758Y008902D02*
X021358Y008902D01*
X021358Y008968D02*
X021358Y008835D01*
X013433Y008885D02*
X013433Y009018D01*
X013433Y008952D02*
X013033Y008952D01*
X013033Y009018D02*
X013033Y008885D01*
X013100Y009192D02*
X013367Y009192D01*
X013433Y009259D01*
X013433Y009392D01*
X013367Y009459D01*
X013433Y009652D02*
X013433Y009919D01*
X013433Y009786D02*
X013033Y009786D01*
X013166Y009652D01*
X013100Y009459D02*
X013033Y009392D01*
X013033Y009259D01*
X013100Y009192D01*
X013100Y010113D02*
X013033Y010179D01*
X013033Y010313D01*
X013100Y010380D01*
X013166Y010380D01*
X013433Y010113D01*
X013433Y010380D01*
X012908Y010710D02*
X012908Y012010D01*
X012906Y012036D01*
X012901Y012062D01*
X012893Y012087D01*
X012881Y012110D01*
X012867Y012132D01*
X012849Y012151D01*
X012830Y012169D01*
X012808Y012183D01*
X012785Y012195D01*
X012760Y012203D01*
X012734Y012208D01*
X012708Y012210D01*
X012458Y011860D02*
X012458Y011480D01*
X012458Y011230D02*
X012458Y010860D01*
X012208Y010510D02*
X012182Y010512D01*
X012156Y010517D01*
X012131Y010525D01*
X012108Y010537D01*
X012086Y010551D01*
X012067Y010569D01*
X012049Y010588D01*
X012035Y010610D01*
X012023Y010633D01*
X012015Y010658D01*
X012010Y010684D01*
X012008Y010710D01*
X012008Y012010D01*
X012010Y012036D01*
X012015Y012062D01*
X012023Y012087D01*
X012035Y012110D01*
X012049Y012132D01*
X012067Y012151D01*
X012086Y012169D01*
X012108Y012183D01*
X012131Y012195D01*
X012156Y012203D01*
X012182Y012208D01*
X012208Y012210D01*
X012908Y010710D02*
X012906Y010684D01*
X012901Y010658D01*
X012893Y010633D01*
X012881Y010610D01*
X012867Y010588D01*
X012849Y010569D01*
X012830Y010551D01*
X012808Y010537D01*
X012785Y010525D01*
X012760Y010517D01*
X012734Y010512D01*
X012708Y010510D01*
X030708Y012210D02*
X030734Y012208D01*
X030760Y012203D01*
X030785Y012195D01*
X030808Y012183D01*
X030830Y012169D01*
X030849Y012151D01*
X030867Y012132D01*
X030881Y012110D01*
X030893Y012087D01*
X030901Y012062D01*
X030906Y012036D01*
X030908Y012010D01*
X034436Y011060D02*
X034702Y011060D01*
X034702Y010994D01*
X034436Y010727D01*
X034436Y010660D01*
X034896Y010860D02*
X035163Y010860D01*
X035096Y010660D02*
X035096Y011060D01*
X034896Y010860D01*
X035356Y010660D02*
X035623Y010660D01*
X035356Y010660D02*
X035356Y011060D01*
X035808Y043410D02*
X037108Y043410D01*
X037134Y043412D01*
X037160Y043417D01*
X037185Y043425D01*
X037208Y043437D01*
X037230Y043451D01*
X037249Y043469D01*
X037267Y043488D01*
X037281Y043510D01*
X037293Y043533D01*
X037301Y043558D01*
X037306Y043584D01*
X037308Y043610D01*
X036958Y043860D02*
X036578Y043860D01*
X036328Y043860D02*
X035958Y043860D01*
X035608Y043610D02*
X035610Y043584D01*
X035615Y043558D01*
X035623Y043533D01*
X035635Y043510D01*
X035649Y043488D01*
X035667Y043469D01*
X035686Y043451D01*
X035708Y043437D01*
X035731Y043425D01*
X035756Y043417D01*
X035782Y043412D01*
X035808Y043410D01*
X035608Y044110D02*
X035610Y044136D01*
X035615Y044162D01*
X035623Y044187D01*
X035635Y044210D01*
X035649Y044232D01*
X035667Y044251D01*
X035686Y044269D01*
X035708Y044283D01*
X035731Y044295D01*
X035756Y044303D01*
X035782Y044308D01*
X035808Y044310D01*
X037108Y044310D01*
X037134Y044308D01*
X037160Y044303D01*
X037185Y044295D01*
X037208Y044283D01*
X037230Y044269D01*
X037249Y044251D01*
X037267Y044232D01*
X037281Y044210D01*
X037293Y044187D01*
X037301Y044162D01*
X037306Y044136D01*
X037308Y044110D01*
D11*
X036578Y044160D02*
X036578Y043860D01*
X036578Y043560D01*
X036328Y043560D02*
X036328Y043860D01*
X036328Y044160D01*
X040828Y043535D02*
X040828Y043235D01*
X040828Y042935D01*
X041078Y042935D02*
X041078Y043235D01*
X041078Y043535D01*
X046828Y043535D02*
X046828Y043235D01*
X046828Y042935D01*
X047078Y042935D02*
X047078Y043235D01*
X047078Y043535D01*
X052953Y043535D02*
X052953Y043235D01*
X052953Y042935D01*
X053203Y042935D02*
X053203Y043235D01*
X053203Y043535D01*
X039078Y030160D02*
X039078Y029860D01*
X039078Y029560D01*
X038828Y029560D02*
X038828Y029860D01*
X038828Y030160D01*
X032578Y030160D02*
X032578Y029860D01*
X032578Y029560D01*
X032328Y029560D02*
X032328Y029860D01*
X032328Y030160D01*
X026078Y030160D02*
X026078Y029860D01*
X026078Y029560D01*
X025828Y029560D02*
X025828Y029860D01*
X025828Y030160D01*
X016328Y029860D02*
X016328Y029360D01*
X016328Y028860D01*
X016078Y028860D02*
X016078Y029860D01*
X015828Y029860D01*
X015828Y028860D01*
X016078Y028860D01*
X015588Y028860D02*
X015588Y029360D01*
X015588Y029860D01*
X017828Y043435D02*
X017828Y043735D01*
X017828Y044035D01*
X018078Y044035D02*
X018078Y043735D01*
X018078Y043435D01*
X027953Y043435D02*
X027953Y043735D01*
X027953Y044035D01*
X028203Y044035D02*
X028203Y043735D01*
X028203Y043435D01*
X053158Y026490D02*
X053458Y026490D01*
X053758Y026490D01*
X053758Y026240D02*
X053458Y026240D01*
X053158Y026240D01*
X054408Y027230D02*
X054708Y027230D01*
X055008Y027230D01*
X055008Y027480D02*
X054708Y027480D01*
X054408Y027480D01*
X054338Y018660D02*
X054338Y018360D01*
X054338Y018060D01*
X054588Y018060D02*
X054588Y018360D01*
X054588Y018660D01*
X054463Y013410D02*
X054463Y013110D01*
X054463Y012810D01*
X054213Y012810D02*
X054213Y013110D01*
X054213Y013410D01*
X030758Y011490D02*
X030458Y011490D01*
X030158Y011490D01*
X030158Y011240D02*
X030458Y011240D01*
X030758Y011240D01*
X021258Y011230D02*
X020958Y011230D01*
X020658Y011230D01*
X020658Y011480D02*
X020958Y011480D01*
X021258Y011480D01*
X012758Y011480D02*
X012458Y011480D01*
X012158Y011480D01*
X012158Y011230D02*
X012458Y011230D01*
X012758Y011230D01*
D12*
X015383Y023360D03*
X017533Y023360D03*
X010033Y027360D03*
X007883Y027360D03*
X021383Y032610D03*
X021383Y033610D03*
X021383Y034610D03*
X021383Y035610D03*
X021383Y036610D03*
X021383Y037610D03*
X021383Y038610D03*
X021383Y039610D03*
X023533Y039610D03*
X023533Y038610D03*
X023533Y037610D03*
X023533Y036610D03*
X023533Y035610D03*
X023533Y034610D03*
X023533Y033610D03*
X023533Y032610D03*
X056133Y033610D03*
X056133Y034610D03*
X056133Y035610D03*
X056133Y036610D03*
X056133Y037610D03*
X056133Y038610D03*
X056133Y039610D03*
X056133Y040610D03*
X058283Y040610D03*
X058283Y039610D03*
X058283Y038610D03*
X058283Y037610D03*
X058283Y036610D03*
X058283Y035610D03*
X058283Y034610D03*
X058283Y033610D03*
D13*
X018708Y011685D03*
X018708Y009535D03*
M02*
