G75*
%MOIN*%
%OFA0B0*%
%FSLAX24Y24*%
%IPPOS*%
%LPD*%
%AMOC8*
5,1,8,0,0,1.08239X$1,22.5*
%
%ADD10C,0.0230*%
%ADD11C,0.0560*%
%ADD12OC8,0.0560*%
%ADD13C,0.0560*%
%ADD14C,0.0640*%
%ADD15OC8,0.0630*%
%ADD16C,0.0630*%
%ADD17C,0.0500*%
%ADD18OC8,0.0640*%
%ADD19C,0.0500*%
%ADD20C,0.0480*%
%ADD21C,0.0160*%
%ADD22C,0.0320*%
D10*
X056160Y043975D02*
X056160Y045246D01*
X056584Y045246D02*
X056584Y043975D01*
X056796Y044399D02*
X055948Y044399D01*
X055948Y044822D02*
X056584Y044822D01*
X056796Y044822D01*
X057330Y045034D02*
X057330Y044187D01*
X058177Y045034D01*
X058177Y044187D01*
X057965Y043975D01*
X057541Y043975D01*
X057330Y044187D01*
X057330Y045034D02*
X057541Y045246D01*
X057965Y045246D01*
X058177Y045034D01*
D11*
X054363Y041610D02*
X053803Y041610D01*
X053803Y040610D02*
X054363Y040610D01*
X054363Y039610D02*
X053803Y039610D01*
X053803Y038610D02*
X054363Y038610D01*
X054363Y037610D02*
X053803Y037610D01*
X053803Y036610D02*
X054363Y036610D01*
X054363Y035610D02*
X053803Y035610D01*
X053803Y034610D02*
X054363Y034610D01*
X054363Y033610D02*
X053803Y033610D01*
X053803Y032610D02*
X054363Y032610D01*
X051363Y032610D02*
X050803Y032610D01*
X050803Y033610D02*
X051363Y033610D01*
X051363Y034610D02*
X050803Y034610D01*
X050803Y035610D02*
X051363Y035610D01*
X051363Y036610D02*
X050803Y036610D01*
X050803Y037610D02*
X051363Y037610D01*
X051363Y038610D02*
X050803Y038610D01*
X050803Y039610D02*
X051363Y039610D01*
X051363Y040610D02*
X050803Y040610D01*
X050803Y041610D02*
X051363Y041610D01*
X048238Y041610D02*
X047678Y041610D01*
X047678Y040610D02*
X048238Y040610D01*
X048238Y039610D02*
X047678Y039610D01*
X047678Y038610D02*
X048238Y038610D01*
X048238Y037610D02*
X047678Y037610D01*
X047678Y036610D02*
X048238Y036610D01*
X048238Y035610D02*
X047678Y035610D01*
X045238Y035610D02*
X044678Y035610D01*
X044678Y036610D02*
X045238Y036610D01*
X045238Y037610D02*
X044678Y037610D01*
X044678Y038610D02*
X045238Y038610D01*
X045238Y039610D02*
X044678Y039610D01*
X044678Y040610D02*
X045238Y040610D01*
X045238Y041610D02*
X044678Y041610D01*
X042238Y041610D02*
X041678Y041610D01*
X041678Y040610D02*
X042238Y040610D01*
X042238Y039610D02*
X041678Y039610D01*
X041678Y038610D02*
X042238Y038610D01*
X042238Y037610D02*
X041678Y037610D01*
X041678Y036610D02*
X042238Y036610D01*
X042238Y035610D02*
X041678Y035610D01*
X041678Y034610D02*
X042238Y034610D01*
X042238Y033610D02*
X041678Y033610D01*
X041678Y032610D02*
X042238Y032610D01*
X039238Y032610D02*
X038678Y032610D01*
X038678Y033610D02*
X039238Y033610D01*
X039238Y034610D02*
X038678Y034610D01*
X038678Y035610D02*
X039238Y035610D01*
X039238Y036610D02*
X038678Y036610D01*
X038678Y037610D02*
X039238Y037610D01*
X039238Y038610D02*
X038678Y038610D01*
X038678Y039610D02*
X039238Y039610D01*
X039238Y040610D02*
X038678Y040610D01*
X038678Y041610D02*
X039238Y041610D01*
X036363Y041610D02*
X035803Y041610D01*
X035803Y040610D02*
X036363Y040610D01*
X036363Y039610D02*
X035803Y039610D01*
X035803Y038610D02*
X036363Y038610D01*
X036363Y037610D02*
X035803Y037610D01*
X035803Y036610D02*
X036363Y036610D01*
X036363Y035610D02*
X035803Y035610D01*
X035803Y034610D02*
X036363Y034610D01*
X036363Y033610D02*
X035803Y033610D01*
X035803Y032610D02*
X036363Y032610D01*
X033363Y032610D02*
X032803Y032610D01*
X032803Y033610D02*
X033363Y033610D01*
X033363Y034610D02*
X032803Y034610D01*
X032803Y035610D02*
X033363Y035610D01*
X033363Y036610D02*
X032803Y036610D01*
X032803Y037610D02*
X033363Y037610D01*
X033363Y038610D02*
X032803Y038610D01*
X032803Y039610D02*
X033363Y039610D01*
X033363Y040610D02*
X032803Y040610D01*
X032803Y041610D02*
X033363Y041610D01*
X029363Y041610D02*
X028803Y041610D01*
X028803Y040610D02*
X029363Y040610D01*
X029363Y039610D02*
X028803Y039610D01*
X028803Y038610D02*
X029363Y038610D01*
X029363Y037610D02*
X028803Y037610D01*
X028803Y036610D02*
X029363Y036610D01*
X029363Y035610D02*
X028803Y035610D01*
X028803Y034610D02*
X029363Y034610D01*
X029363Y033610D02*
X028803Y033610D01*
X028803Y032610D02*
X029363Y032610D01*
X026363Y032610D02*
X025803Y032610D01*
X025803Y033610D02*
X026363Y033610D01*
X026363Y034610D02*
X025803Y034610D01*
X025803Y035610D02*
X026363Y035610D01*
X026363Y036610D02*
X025803Y036610D01*
X025803Y037610D02*
X026363Y037610D01*
X026363Y038610D02*
X025803Y038610D01*
X025803Y039610D02*
X026363Y039610D01*
X026363Y040610D02*
X025803Y040610D01*
X025803Y041610D02*
X026363Y041610D01*
X019238Y041610D02*
X018678Y041610D01*
X018678Y040610D02*
X019238Y040610D01*
X019238Y039610D02*
X018678Y039610D01*
X018678Y038610D02*
X019238Y038610D01*
X019238Y037610D02*
X018678Y037610D01*
X018678Y036610D02*
X019238Y036610D01*
X019238Y035610D02*
X018678Y035610D01*
X018678Y034610D02*
X019238Y034610D01*
X019238Y033610D02*
X018678Y033610D01*
X018678Y032610D02*
X019238Y032610D01*
X016238Y032610D02*
X015678Y032610D01*
X015678Y033610D02*
X016238Y033610D01*
X016238Y034610D02*
X015678Y034610D01*
X015678Y035610D02*
X016238Y035610D01*
X016238Y036610D02*
X015678Y036610D01*
X015678Y037610D02*
X016238Y037610D01*
X016238Y038610D02*
X015678Y038610D01*
X015678Y039610D02*
X016238Y039610D01*
X016238Y040610D02*
X015678Y040610D01*
X015678Y041610D02*
X016238Y041610D01*
X023678Y028360D02*
X024238Y028360D01*
X024238Y027360D02*
X023678Y027360D01*
X023678Y026360D02*
X024238Y026360D01*
X024238Y025360D02*
X023678Y025360D01*
X023678Y024360D02*
X024238Y024360D01*
X024238Y023360D02*
X023678Y023360D01*
X023678Y022360D02*
X024238Y022360D01*
X026678Y022360D02*
X027238Y022360D01*
X027238Y023360D02*
X026678Y023360D01*
X026678Y024360D02*
X027238Y024360D01*
X027238Y025360D02*
X026678Y025360D01*
X026678Y026360D02*
X027238Y026360D01*
X027238Y027360D02*
X026678Y027360D01*
X026678Y028360D02*
X027238Y028360D01*
X030178Y028360D02*
X030738Y028360D01*
X030738Y027360D02*
X030178Y027360D01*
X030178Y026360D02*
X030738Y026360D01*
X030738Y025360D02*
X030178Y025360D01*
X030178Y024360D02*
X030738Y024360D01*
X030738Y023360D02*
X030178Y023360D01*
X030178Y022360D02*
X030738Y022360D01*
X033178Y022360D02*
X033738Y022360D01*
X033738Y023360D02*
X033178Y023360D01*
X033178Y024360D02*
X033738Y024360D01*
X033738Y025360D02*
X033178Y025360D01*
X033178Y026360D02*
X033738Y026360D01*
X033738Y027360D02*
X033178Y027360D01*
X033178Y028360D02*
X033738Y028360D01*
X036678Y028360D02*
X037238Y028360D01*
X037238Y027360D02*
X036678Y027360D01*
X036678Y026360D02*
X037238Y026360D01*
X037238Y025360D02*
X036678Y025360D01*
X036678Y024360D02*
X037238Y024360D01*
X037238Y023360D02*
X036678Y023360D01*
X036678Y022360D02*
X037238Y022360D01*
X039678Y022360D02*
X040238Y022360D01*
X040238Y023360D02*
X039678Y023360D01*
X039678Y024360D02*
X040238Y024360D01*
X040238Y025360D02*
X039678Y025360D01*
X039678Y026360D02*
X040238Y026360D01*
X040238Y027360D02*
X039678Y027360D01*
X039678Y028360D02*
X040238Y028360D01*
X042958Y028640D02*
X042958Y028080D01*
X043958Y028080D02*
X043958Y028640D01*
X044958Y028640D02*
X044958Y028080D01*
X045958Y028080D02*
X045958Y028640D01*
X046958Y028640D02*
X046958Y028080D01*
X047958Y028080D02*
X047958Y028640D01*
X048958Y028640D02*
X048958Y028080D01*
X049958Y028080D02*
X049958Y028640D01*
X050958Y028640D02*
X050958Y028080D01*
X051958Y028080D02*
X051958Y028640D01*
X051958Y025640D02*
X051958Y025080D01*
X050958Y025080D02*
X050958Y025640D01*
X049958Y025640D02*
X049958Y025080D01*
X048958Y025080D02*
X048958Y025640D01*
X047958Y025640D02*
X047958Y025080D01*
X046958Y025080D02*
X046958Y025640D01*
X045958Y025640D02*
X045958Y025080D01*
X044958Y025080D02*
X044958Y025640D01*
X043958Y025640D02*
X043958Y025080D01*
X042958Y025080D02*
X042958Y025640D01*
X042958Y021640D02*
X042958Y021080D01*
X043958Y021080D02*
X043958Y021640D01*
X044958Y021640D02*
X044958Y021080D01*
X045958Y021080D02*
X045958Y021640D01*
X046958Y021640D02*
X046958Y021080D01*
X047958Y021080D02*
X047958Y021640D01*
X048958Y021640D02*
X048958Y021080D01*
X049958Y021080D02*
X049958Y021640D01*
X050958Y021640D02*
X050958Y021080D01*
X051958Y021080D02*
X051958Y021640D01*
X051958Y018640D02*
X051958Y018080D01*
X050958Y018080D02*
X050958Y018640D01*
X049958Y018640D02*
X049958Y018080D01*
X048958Y018080D02*
X048958Y018640D01*
X047958Y018640D02*
X047958Y018080D01*
X046958Y018080D02*
X046958Y018640D01*
X045958Y018640D02*
X045958Y018080D01*
X044958Y018080D02*
X044958Y018640D01*
X043958Y018640D02*
X043958Y018080D01*
X042958Y018080D02*
X042958Y018640D01*
X042958Y016390D02*
X042958Y015830D01*
X043958Y015830D02*
X043958Y016390D01*
X044958Y016390D02*
X044958Y015830D01*
X045958Y015830D02*
X045958Y016390D01*
X046958Y016390D02*
X046958Y015830D01*
X047958Y015830D02*
X047958Y016390D01*
X048958Y016390D02*
X048958Y015830D01*
X049958Y015830D02*
X049958Y016390D01*
X050958Y016390D02*
X050958Y015830D01*
X051958Y015830D02*
X051958Y016390D01*
X051958Y013390D02*
X051958Y012830D01*
X050958Y012830D02*
X050958Y013390D01*
X049958Y013390D02*
X049958Y012830D01*
X048958Y012830D02*
X048958Y013390D01*
X047958Y013390D02*
X047958Y012830D01*
X046958Y012830D02*
X046958Y013390D01*
X045958Y013390D02*
X045958Y012830D01*
X044958Y012830D02*
X044958Y013390D01*
X043958Y013390D02*
X043958Y012830D01*
X042958Y012830D02*
X042958Y013390D01*
X037958Y012640D02*
X037958Y012080D01*
X036958Y012080D02*
X036958Y012640D01*
X035958Y012640D02*
X035958Y012080D01*
X034958Y012080D02*
X034958Y012640D01*
X033958Y012640D02*
X033958Y012080D01*
X032958Y012080D02*
X032958Y012640D01*
X031958Y012640D02*
X031958Y012080D01*
X031958Y009640D02*
X031958Y009080D01*
X032958Y009080D02*
X032958Y009640D01*
X033958Y009640D02*
X033958Y009080D01*
X034958Y009080D02*
X034958Y009640D01*
X035958Y009640D02*
X035958Y009080D01*
X036958Y009080D02*
X036958Y009640D01*
X037958Y009640D02*
X037958Y009080D01*
X028458Y009080D02*
X028458Y009640D01*
X027458Y009640D02*
X027458Y009080D01*
X026458Y009080D02*
X026458Y009640D01*
X025458Y009640D02*
X025458Y009080D01*
X024458Y009080D02*
X024458Y009640D01*
X023458Y009640D02*
X023458Y009080D01*
X022458Y009080D02*
X022458Y009640D01*
X022458Y012080D02*
X022458Y012640D01*
X023458Y012640D02*
X023458Y012080D01*
X024458Y012080D02*
X024458Y012640D01*
X025458Y012640D02*
X025458Y012080D01*
X026458Y012080D02*
X026458Y012640D01*
X027458Y012640D02*
X027458Y012080D01*
X028458Y012080D02*
X028458Y012640D01*
X017208Y012640D02*
X017208Y012080D01*
X016208Y012080D02*
X016208Y012640D01*
X015208Y012640D02*
X015208Y012080D01*
X014208Y012080D02*
X014208Y012640D01*
X014208Y009640D02*
X014208Y009080D01*
X015208Y009080D02*
X015208Y009640D01*
X016208Y009640D02*
X016208Y009080D01*
X017208Y009080D02*
X017208Y009640D01*
X056208Y025080D02*
X056208Y025640D01*
X057208Y025640D02*
X057208Y025080D01*
X058208Y025080D02*
X058208Y025640D01*
X059208Y025640D02*
X059208Y025080D01*
X060208Y025080D02*
X060208Y025640D01*
X061208Y025640D02*
X061208Y025080D01*
X062208Y025080D02*
X062208Y025640D01*
X062208Y028080D02*
X062208Y028640D01*
X061208Y028640D02*
X061208Y028080D01*
X060208Y028080D02*
X060208Y028640D01*
X059208Y028640D02*
X059208Y028080D01*
X058208Y028080D02*
X058208Y028640D01*
X057208Y028640D02*
X057208Y028080D01*
X056208Y028080D02*
X056208Y028640D01*
D12*
X054708Y028360D03*
X053458Y027360D03*
X054708Y026360D03*
X053458Y025360D03*
X053458Y018360D03*
X055458Y018360D03*
X055333Y013110D03*
X053333Y013110D03*
X039958Y029860D03*
X037958Y029860D03*
X033458Y029860D03*
X031458Y029860D03*
X026958Y029860D03*
X024958Y029860D03*
X023958Y032610D03*
X023958Y033610D03*
X023958Y034610D03*
X023958Y035610D03*
X023958Y036610D03*
X023958Y037610D03*
X023958Y038610D03*
X023958Y039610D03*
X020958Y039610D03*
X020958Y038610D03*
X020958Y037610D03*
X020958Y036610D03*
X020958Y035610D03*
X020958Y034610D03*
X020958Y033610D03*
X020958Y032610D03*
X010458Y027360D03*
X007458Y027360D03*
X007458Y029610D03*
X008458Y029610D03*
X014958Y023360D03*
X017958Y023360D03*
X018708Y012110D03*
X020958Y012360D03*
X020958Y010360D03*
X018708Y009110D03*
X012458Y010360D03*
X012458Y012360D03*
X030458Y012360D03*
X030458Y010360D03*
X055708Y033610D03*
X055708Y034610D03*
X055708Y035610D03*
X055708Y036610D03*
X055708Y037610D03*
X055708Y038610D03*
X055708Y039610D03*
X055708Y040610D03*
X058708Y040610D03*
X058708Y039610D03*
X058708Y038610D03*
X058708Y037610D03*
X058708Y036610D03*
X058708Y035610D03*
X058708Y034610D03*
X058708Y033610D03*
X054083Y043235D03*
X052083Y043235D03*
X047958Y043235D03*
X045958Y043235D03*
X041958Y043235D03*
X039958Y043235D03*
X037458Y043860D03*
X035458Y043860D03*
X029083Y043735D03*
X027083Y043735D03*
X018958Y043735D03*
X016958Y043735D03*
D13*
X018958Y029360D03*
X018958Y026360D03*
X012958Y026360D03*
X012958Y029360D03*
D14*
X008348Y025960D02*
X008348Y025320D01*
X006568Y025320D02*
X006568Y025960D01*
X006568Y023400D02*
X006568Y022760D01*
X008348Y022760D02*
X008348Y023400D01*
D15*
X012458Y023360D03*
X063458Y009610D03*
X063833Y011610D03*
X063833Y012610D03*
X063833Y013610D03*
X063833Y014610D03*
X063833Y015610D03*
X063833Y016610D03*
X063833Y017610D03*
X063833Y018610D03*
X063833Y019610D03*
X063833Y020610D03*
X063833Y021610D03*
X063833Y022610D03*
X063833Y023610D03*
X063833Y024610D03*
X063833Y025610D03*
X063833Y026610D03*
X063833Y027610D03*
X063833Y028610D03*
X063833Y029610D03*
X063833Y030610D03*
X063833Y031610D03*
X063833Y032610D03*
X063833Y033610D03*
X063833Y034610D03*
X063833Y035610D03*
X063833Y036610D03*
X063833Y037610D03*
X063833Y038610D03*
X063833Y039610D03*
X063833Y040610D03*
X063833Y041610D03*
X063833Y042610D03*
X065833Y041610D03*
X065833Y040610D03*
X065833Y039610D03*
X065833Y038610D03*
X065833Y037610D03*
X065833Y036610D03*
X065833Y035610D03*
X065833Y034610D03*
X065833Y033610D03*
X065833Y032610D03*
X065833Y031610D03*
X065833Y030610D03*
X065833Y029610D03*
X065833Y028610D03*
X065833Y027610D03*
X065833Y026610D03*
X065833Y025610D03*
X065833Y024610D03*
X065833Y023610D03*
X065833Y022610D03*
X065833Y021610D03*
X065833Y020610D03*
X065833Y019610D03*
X065833Y018610D03*
X065833Y017610D03*
X065833Y016610D03*
X065833Y015610D03*
X065833Y014610D03*
X065833Y013610D03*
X065833Y012610D03*
X065833Y011610D03*
D16*
X064458Y009610D03*
X065833Y042610D03*
X013458Y023360D03*
D17*
X007683Y007170D02*
X004683Y007170D01*
X004683Y010170D01*
X004683Y044050D02*
X004683Y047050D01*
X007683Y047050D01*
X065183Y047050D02*
X068183Y047050D01*
X068183Y044050D01*
X068183Y010170D02*
X068183Y007170D01*
X065183Y007170D01*
D18*
X061333Y009610D03*
X060333Y009610D03*
X060333Y010610D03*
X061333Y010610D03*
X061333Y013610D03*
X060333Y013610D03*
X060333Y014610D03*
X061333Y014610D03*
X061333Y015610D03*
X060333Y015610D03*
X060333Y016610D03*
X061333Y016610D03*
X061333Y017610D03*
X060333Y017610D03*
X060333Y018610D03*
X061333Y018610D03*
X061333Y019610D03*
X060333Y019610D03*
X060333Y020610D03*
X061333Y020610D03*
X054958Y010610D03*
X053958Y010610D03*
X052958Y010610D03*
X051958Y010610D03*
X050958Y010610D03*
X049958Y010610D03*
X048958Y010610D03*
X047958Y010610D03*
X046958Y010610D03*
X045958Y010610D03*
X044958Y010610D03*
X043958Y010610D03*
X042958Y010610D03*
X041958Y010610D03*
X040958Y010610D03*
X039958Y010610D03*
X039958Y009610D03*
X040958Y009610D03*
X041958Y009610D03*
X042958Y009610D03*
X043958Y009610D03*
X044958Y009610D03*
X045958Y009610D03*
X046958Y009610D03*
X047958Y009610D03*
X048958Y009610D03*
X049958Y009610D03*
X050958Y009610D03*
X051958Y009610D03*
X052958Y009610D03*
X053958Y009610D03*
X054958Y009610D03*
X060333Y033610D03*
X061333Y033610D03*
X061333Y034610D03*
X060333Y034610D03*
X060333Y035610D03*
X061333Y035610D03*
X061333Y036610D03*
X060333Y036610D03*
X060333Y037610D03*
X061333Y037610D03*
X061333Y038610D03*
X060333Y038610D03*
X060333Y039610D03*
X060333Y040610D03*
X061333Y040610D03*
X061333Y039610D03*
X061333Y043610D03*
X060333Y043610D03*
X060333Y044610D03*
X061333Y044610D03*
X009458Y044610D03*
X008458Y044610D03*
X008458Y043610D03*
X009458Y043610D03*
X007833Y040610D03*
X006833Y040610D03*
X006833Y039610D03*
X007833Y039610D03*
X007833Y038610D03*
X006833Y038610D03*
X006833Y037610D03*
X007833Y037610D03*
X007833Y036610D03*
X006833Y036610D03*
X006833Y035610D03*
X007833Y035610D03*
X007833Y034610D03*
X006833Y034610D03*
X006833Y033610D03*
X007833Y033610D03*
X007833Y020610D03*
X006833Y020610D03*
X006833Y019610D03*
X007833Y019610D03*
X007833Y018610D03*
X006833Y018610D03*
X006833Y017610D03*
X007833Y017610D03*
X007833Y016610D03*
X006833Y016610D03*
X006833Y015610D03*
X007833Y015610D03*
X007833Y014610D03*
X006833Y014610D03*
X006833Y013610D03*
X007833Y013610D03*
X008458Y010610D03*
X008458Y009610D03*
X009458Y009610D03*
X009458Y010610D03*
D19*
X016208Y016985D03*
X010958Y017610D03*
X016208Y021235D03*
X027958Y021610D03*
X030333Y021360D03*
X031458Y023360D03*
X039708Y016360D03*
X040583Y016360D03*
X039708Y011860D03*
X031083Y008860D03*
X029708Y008860D03*
X042833Y023110D03*
X046458Y024110D03*
X043208Y029735D03*
X040583Y029360D03*
X054583Y017735D03*
X054083Y017235D03*
X054083Y016110D03*
X056958Y017110D03*
X059333Y012985D03*
X060333Y011610D03*
X059458Y009235D03*
X049958Y011360D03*
X056958Y023235D03*
X035458Y042235D03*
X035458Y042985D03*
D20*
X030958Y041610D03*
D21*
X032333Y042985D01*
X035458Y042985D01*
X035052Y043385D02*
X032254Y043385D01*
X032107Y043324D01*
X030953Y042170D01*
X030847Y042170D01*
X030641Y042085D01*
X030484Y041927D01*
X030398Y041721D01*
X030398Y041510D01*
X029963Y041510D01*
X029963Y041729D01*
X029872Y041950D01*
X029703Y042119D01*
X029563Y042177D01*
X029563Y043366D01*
X029683Y043486D01*
X029683Y043984D01*
X029563Y044104D01*
X029563Y044630D01*
X036978Y044630D01*
X036978Y044229D01*
X036858Y044109D01*
X036858Y043939D01*
X036025Y043106D01*
X035942Y043308D01*
X035848Y043401D01*
X036058Y043611D01*
X036058Y043860D01*
X036058Y044109D01*
X035707Y044460D01*
X035458Y044460D01*
X035210Y044460D01*
X034858Y044109D01*
X034858Y043860D01*
X034858Y043611D01*
X035069Y043401D01*
X035052Y043385D01*
X034972Y043498D02*
X029683Y043498D01*
X029683Y043657D02*
X034858Y043657D01*
X034858Y043815D02*
X029683Y043815D01*
X029683Y043974D02*
X034858Y043974D01*
X034858Y043860D02*
X035458Y043860D01*
X034858Y043860D01*
X034882Y044132D02*
X029563Y044132D01*
X029563Y044291D02*
X035040Y044291D01*
X035199Y044449D02*
X029563Y044449D01*
X029563Y044608D02*
X036978Y044608D01*
X036978Y044449D02*
X035718Y044449D01*
X035876Y044291D02*
X036978Y044291D01*
X036882Y044132D02*
X036035Y044132D01*
X036058Y043974D02*
X036858Y043974D01*
X036735Y043815D02*
X036058Y043815D01*
X036058Y043860D02*
X035458Y043860D01*
X035458Y043860D01*
X035458Y044460D01*
X035458Y043860D01*
X035458Y043860D01*
X036058Y043860D01*
X036058Y043657D02*
X036576Y043657D01*
X036418Y043498D02*
X035945Y043498D01*
X035910Y043340D02*
X036259Y043340D01*
X036101Y043181D02*
X035994Y043181D01*
X035458Y043860D02*
X035458Y043860D01*
X035458Y043974D02*
X035458Y043974D01*
X035458Y044132D02*
X035458Y044132D01*
X035458Y044291D02*
X035458Y044291D01*
X035458Y044449D02*
X035458Y044449D01*
X037141Y042864D02*
X039481Y042864D01*
X039358Y042986D02*
X039710Y042635D01*
X039958Y042635D01*
X039958Y043235D01*
X039358Y043235D01*
X039358Y042986D01*
X039358Y043023D02*
X037300Y043023D01*
X037458Y043181D02*
X039358Y043181D01*
X039358Y043235D02*
X039958Y043235D01*
X039958Y043235D01*
X039958Y043235D01*
X039958Y043835D01*
X039710Y043835D01*
X039358Y043484D01*
X039358Y043235D01*
X039358Y043340D02*
X037786Y043340D01*
X037707Y043260D02*
X038058Y043611D01*
X038058Y044109D01*
X037938Y044229D01*
X037938Y044630D01*
X041478Y044630D01*
X041478Y043604D01*
X041358Y043484D01*
X041358Y042986D01*
X041478Y042866D01*
X041478Y042177D01*
X041338Y042119D01*
X041170Y041950D01*
X041078Y041729D01*
X041078Y041510D01*
X041004Y041510D01*
X040857Y041449D01*
X040418Y041010D01*
X039687Y041010D01*
X039587Y041110D01*
X039747Y041270D01*
X039838Y041491D01*
X039838Y041729D01*
X039747Y041950D01*
X039578Y042119D01*
X039358Y042210D01*
X038559Y042210D01*
X038338Y042119D01*
X038170Y041950D01*
X038078Y041729D01*
X038078Y041510D01*
X036963Y041510D01*
X036963Y041729D01*
X036872Y041950D01*
X036703Y042119D01*
X036563Y042177D01*
X036563Y042286D01*
X037537Y043260D01*
X037707Y043260D01*
X037945Y043498D02*
X039373Y043498D01*
X039531Y043657D02*
X038058Y043657D01*
X038058Y043815D02*
X039690Y043815D01*
X039958Y043815D02*
X039958Y043815D01*
X039958Y043835D02*
X040207Y043835D01*
X040558Y043484D01*
X040558Y043235D01*
X039958Y043235D01*
X039958Y043235D01*
X039958Y042635D01*
X040207Y042635D01*
X040558Y042986D01*
X040558Y043235D01*
X039958Y043235D01*
X039958Y043835D01*
X039958Y043657D02*
X039958Y043657D01*
X039958Y043498D02*
X039958Y043498D01*
X039958Y043340D02*
X039958Y043340D01*
X039958Y043235D02*
X039958Y043235D01*
X039958Y043181D02*
X039958Y043181D01*
X039958Y043023D02*
X039958Y043023D01*
X039958Y042864D02*
X039958Y042864D01*
X039958Y042706D02*
X039958Y042706D01*
X039639Y042706D02*
X036983Y042706D01*
X036824Y042547D02*
X041478Y042547D01*
X041478Y042389D02*
X036666Y042389D01*
X036563Y042230D02*
X041478Y042230D01*
X041291Y042072D02*
X039625Y042072D01*
X039762Y041913D02*
X041154Y041913D01*
X041089Y041755D02*
X039828Y041755D01*
X039838Y041596D02*
X041078Y041596D01*
X040845Y041438D02*
X039816Y041438D01*
X039751Y041279D02*
X040687Y041279D01*
X040528Y041121D02*
X039597Y041121D01*
X038958Y040610D02*
X038458Y041110D01*
X026583Y041110D01*
X026083Y040610D01*
X025455Y040110D02*
X025295Y039950D01*
X025226Y039783D01*
X025172Y039837D01*
X025060Y039949D01*
X024913Y040010D01*
X024407Y040010D01*
X024207Y040210D01*
X023710Y040210D01*
X023358Y039859D01*
X023358Y039510D01*
X021558Y039510D01*
X021558Y039859D01*
X021207Y040210D01*
X020710Y040210D01*
X020510Y040010D01*
X019687Y040010D01*
X019580Y040117D01*
X019629Y040152D01*
X019696Y040219D01*
X019751Y040296D01*
X019794Y040380D01*
X019824Y040469D01*
X019838Y040563D01*
X019838Y040610D01*
X018958Y040610D01*
X018078Y040610D01*
X018078Y040563D01*
X018093Y040469D01*
X018122Y040380D01*
X018165Y040296D01*
X018221Y040219D01*
X018287Y040152D01*
X018337Y040117D01*
X018170Y039950D01*
X018078Y039729D01*
X018078Y039556D01*
X017797Y039837D01*
X017685Y039949D01*
X017538Y040010D01*
X016687Y040010D01*
X016587Y040110D01*
X016747Y040270D01*
X016838Y040491D01*
X016838Y040729D01*
X016747Y040950D01*
X016580Y041117D01*
X016629Y041152D01*
X016696Y041219D01*
X016751Y041296D01*
X016794Y041380D01*
X016824Y041469D01*
X016838Y041563D01*
X016838Y041610D01*
X015958Y041610D01*
X015958Y042210D01*
X015631Y042210D01*
X015538Y042195D01*
X015448Y042166D01*
X015364Y042123D01*
X015287Y042068D01*
X015221Y042001D01*
X015165Y041924D01*
X015122Y041840D01*
X015093Y041750D01*
X015078Y041657D01*
X015078Y041635D01*
X007379Y041635D01*
X007232Y041574D01*
X006908Y041250D01*
X006568Y041250D01*
X006193Y040875D01*
X006193Y040345D01*
X006428Y040110D01*
X006193Y039875D01*
X006193Y039345D01*
X006428Y039110D01*
X006193Y038875D01*
X006193Y038345D01*
X006428Y038110D01*
X006193Y037875D01*
X006193Y037345D01*
X006428Y037110D01*
X006193Y036875D01*
X006193Y036345D01*
X006428Y036110D01*
X006193Y035875D01*
X006193Y035345D01*
X006428Y035110D01*
X006193Y034875D01*
X006193Y034345D01*
X006428Y034110D01*
X006193Y033875D01*
X006193Y033345D01*
X006568Y032970D01*
X007098Y032970D01*
X007333Y033205D01*
X007568Y032970D01*
X008098Y032970D01*
X008473Y033345D01*
X008473Y033875D01*
X008238Y034110D01*
X008473Y034345D01*
X008473Y034875D01*
X008238Y035110D01*
X008473Y035345D01*
X008473Y035875D01*
X008238Y036110D01*
X008473Y036345D01*
X008473Y036875D01*
X008238Y037110D01*
X008338Y037210D01*
X011793Y037210D01*
X015135Y033867D01*
X015078Y033729D01*
X015078Y033491D01*
X015170Y033270D01*
X015337Y033103D01*
X015287Y033068D01*
X015221Y033001D01*
X015165Y032924D01*
X015122Y032840D01*
X015093Y032750D01*
X015078Y032657D01*
X015078Y032610D01*
X015078Y032563D01*
X015093Y032469D01*
X015122Y032380D01*
X015165Y032296D01*
X015221Y032219D01*
X015287Y032152D01*
X015364Y032097D01*
X015448Y032054D01*
X015538Y032025D01*
X015631Y032010D01*
X015958Y032010D01*
X015958Y032610D01*
X015078Y032610D01*
X015958Y032610D01*
X015958Y032610D01*
X015958Y032610D01*
X015958Y032010D01*
X016286Y032010D01*
X016379Y032025D01*
X016469Y032054D01*
X016553Y032097D01*
X016629Y032152D01*
X016696Y032219D01*
X016751Y032296D01*
X016794Y032380D01*
X016824Y032469D01*
X016838Y032563D01*
X016838Y032610D01*
X015958Y032610D01*
X016838Y032610D01*
X016838Y032657D01*
X016824Y032750D01*
X016794Y032840D01*
X016751Y032924D01*
X016696Y033001D01*
X016629Y033068D01*
X016580Y033103D01*
X016687Y033210D01*
X017293Y033210D01*
X017732Y032771D01*
X017879Y032710D01*
X018078Y032710D01*
X018078Y032491D01*
X018170Y032270D01*
X018338Y032101D01*
X018559Y032010D01*
X019358Y032010D01*
X019578Y032101D01*
X019687Y032210D01*
X020510Y032210D01*
X020710Y032010D01*
X021207Y032010D01*
X021558Y032361D01*
X021558Y032710D01*
X023293Y032710D01*
X023358Y032644D01*
X023358Y032361D01*
X023710Y032010D01*
X024207Y032010D01*
X024558Y032361D01*
X024558Y032859D01*
X024307Y033110D01*
X024407Y033210D01*
X024668Y033210D01*
X025107Y032771D01*
X025214Y032726D01*
X025203Y032657D01*
X025203Y032610D01*
X025203Y032563D01*
X025218Y032469D01*
X025247Y032380D01*
X025290Y032296D01*
X025346Y032219D01*
X025412Y032152D01*
X025489Y032097D01*
X025573Y032054D01*
X025663Y032025D01*
X025756Y032010D01*
X026083Y032010D01*
X026083Y032610D01*
X025203Y032610D01*
X026083Y032610D01*
X026083Y032610D01*
X026083Y032610D01*
X026083Y032010D01*
X026411Y032010D01*
X026504Y032025D01*
X026594Y032054D01*
X026678Y032097D01*
X026754Y032152D01*
X026821Y032219D01*
X026876Y032296D01*
X026919Y032380D01*
X026949Y032469D01*
X026963Y032563D01*
X026963Y032610D01*
X026963Y032657D01*
X026955Y032710D01*
X027038Y032710D01*
X027185Y032771D01*
X027297Y032883D01*
X027624Y033210D01*
X028355Y033210D01*
X028455Y033110D01*
X028295Y032950D01*
X028203Y032729D01*
X028203Y032491D01*
X028295Y032270D01*
X028463Y032101D01*
X028684Y032010D01*
X029483Y032010D01*
X029703Y032101D01*
X029872Y032270D01*
X029963Y032491D01*
X029963Y032729D01*
X029872Y032950D01*
X029712Y033110D01*
X029872Y033270D01*
X029963Y033491D01*
X029963Y033710D01*
X032203Y033710D01*
X032203Y033491D01*
X032295Y033270D01*
X032462Y033103D01*
X032412Y033068D01*
X032346Y033001D01*
X032290Y032924D01*
X032247Y032840D01*
X032218Y032750D01*
X032203Y032657D01*
X032203Y032610D01*
X032203Y032563D01*
X032218Y032469D01*
X032247Y032380D01*
X032290Y032296D01*
X032346Y032219D01*
X032412Y032152D01*
X032489Y032097D01*
X032573Y032054D01*
X032663Y032025D01*
X032756Y032010D01*
X033083Y032010D01*
X033083Y032610D01*
X032203Y032610D01*
X033083Y032610D01*
X033083Y032610D01*
X033083Y032610D01*
X033083Y032010D01*
X033411Y032010D01*
X033504Y032025D01*
X033594Y032054D01*
X033678Y032097D01*
X033754Y032152D01*
X033821Y032219D01*
X033876Y032296D01*
X033919Y032380D01*
X033949Y032469D01*
X033963Y032563D01*
X033963Y032610D01*
X033963Y032657D01*
X033949Y032750D01*
X033919Y032840D01*
X033876Y032924D01*
X033821Y033001D01*
X033754Y033068D01*
X033705Y033103D01*
X033872Y033270D01*
X033963Y033491D01*
X033963Y033710D01*
X035203Y033710D01*
X035203Y033491D01*
X035295Y033270D01*
X035455Y033110D01*
X035295Y032950D01*
X035203Y032729D01*
X035203Y032491D01*
X035295Y032270D01*
X035463Y032101D01*
X035684Y032010D01*
X036483Y032010D01*
X036703Y032101D01*
X036812Y032210D01*
X037043Y032210D01*
X037369Y031883D01*
X037482Y031771D01*
X037629Y031710D01*
X040663Y031710D01*
X040810Y031771D01*
X041239Y032200D01*
X041338Y032101D01*
X041559Y032010D01*
X042358Y032010D01*
X042578Y032101D01*
X042747Y032270D01*
X042838Y032491D01*
X042838Y032729D01*
X042747Y032950D01*
X042587Y033110D01*
X042747Y033270D01*
X042838Y033491D01*
X042838Y033710D01*
X050203Y033710D01*
X050203Y033491D01*
X050295Y033270D01*
X050462Y033103D01*
X050412Y033068D01*
X050346Y033001D01*
X050290Y032924D01*
X050247Y032840D01*
X050218Y032750D01*
X050203Y032657D01*
X050203Y032610D01*
X050203Y032563D01*
X050218Y032469D01*
X050247Y032380D01*
X050290Y032296D01*
X050346Y032219D01*
X050412Y032152D01*
X050489Y032097D01*
X050573Y032054D01*
X050663Y032025D01*
X050756Y032010D01*
X051083Y032010D01*
X051083Y032610D01*
X050203Y032610D01*
X051083Y032610D01*
X051083Y032610D01*
X051083Y032610D01*
X051083Y032010D01*
X051411Y032010D01*
X051504Y032025D01*
X051594Y032054D01*
X051678Y032097D01*
X051754Y032152D01*
X051821Y032219D01*
X051876Y032296D01*
X051919Y032380D01*
X051949Y032469D01*
X051963Y032563D01*
X051963Y032610D01*
X051963Y032657D01*
X051949Y032750D01*
X051919Y032840D01*
X051876Y032924D01*
X051821Y033001D01*
X051754Y033068D01*
X051705Y033103D01*
X051872Y033270D01*
X051963Y033491D01*
X051963Y033710D01*
X053203Y033710D01*
X053203Y033491D01*
X053295Y033270D01*
X053455Y033110D01*
X053295Y032950D01*
X053203Y032729D01*
X053203Y032491D01*
X053295Y032270D01*
X053463Y032101D01*
X053684Y032010D01*
X054483Y032010D01*
X054703Y032101D01*
X054872Y032270D01*
X054963Y032491D01*
X054963Y032729D01*
X054872Y032950D01*
X054712Y033110D01*
X054872Y033270D01*
X054963Y033491D01*
X054963Y033710D01*
X055108Y033710D01*
X055108Y033361D01*
X055460Y033010D01*
X055957Y033010D01*
X056308Y033361D01*
X056308Y033710D01*
X058043Y033710D01*
X058108Y033644D01*
X058108Y033361D01*
X058460Y033010D01*
X058957Y033010D01*
X059157Y033210D01*
X059828Y033210D01*
X060068Y032970D01*
X060408Y032970D01*
X060607Y032771D01*
X060754Y032710D01*
X061913Y032710D01*
X062060Y032771D01*
X062172Y032883D01*
X062374Y033085D01*
X063410Y033085D01*
X063198Y032873D01*
X063198Y032347D01*
X063435Y032110D01*
X063198Y031873D01*
X063198Y031347D01*
X063435Y031110D01*
X063198Y030873D01*
X063198Y030347D01*
X063435Y030110D01*
X063198Y029873D01*
X063198Y029347D01*
X063435Y029110D01*
X063355Y029029D01*
X062797Y029587D01*
X062685Y029699D01*
X062538Y029760D01*
X061879Y029760D01*
X061732Y029699D01*
X061273Y029240D01*
X061089Y029240D01*
X060868Y029149D01*
X060708Y028989D01*
X060548Y029149D01*
X060328Y029240D01*
X060089Y029240D01*
X059868Y029149D01*
X059708Y028989D01*
X059548Y029149D01*
X059328Y029240D01*
X059089Y029240D01*
X058868Y029149D01*
X058702Y028982D01*
X058666Y029031D01*
X058599Y029098D01*
X058523Y029153D01*
X058439Y029196D01*
X058349Y029225D01*
X058256Y029240D01*
X058208Y029240D01*
X058161Y029240D01*
X058068Y029225D01*
X057978Y029196D01*
X057894Y029153D01*
X057817Y029098D01*
X057751Y029031D01*
X057708Y028973D01*
X057666Y029031D01*
X057599Y029098D01*
X057523Y029153D01*
X057439Y029196D01*
X057349Y029225D01*
X057256Y029240D01*
X057208Y029240D01*
X057161Y029240D01*
X057068Y029225D01*
X056978Y029196D01*
X056894Y029153D01*
X056817Y029098D01*
X056751Y029031D01*
X056715Y028982D01*
X056548Y029149D01*
X056328Y029240D01*
X056089Y029240D01*
X055868Y029149D01*
X055700Y028980D01*
X055642Y028840D01*
X055188Y028840D01*
X055188Y029705D01*
X055115Y029882D01*
X054980Y030017D01*
X053980Y031017D01*
X053804Y031090D01*
X006188Y031090D01*
X006188Y041286D01*
X006907Y042005D01*
X010679Y042005D01*
X010855Y042078D01*
X013407Y044630D01*
X018478Y044630D01*
X018478Y044104D01*
X018358Y043984D01*
X018358Y043486D01*
X018478Y043366D01*
X018478Y042177D01*
X018338Y042119D01*
X018170Y041950D01*
X018078Y041729D01*
X018078Y041491D01*
X018170Y041270D01*
X018337Y041103D01*
X018287Y041068D01*
X018221Y041001D01*
X018165Y040924D01*
X018122Y040840D01*
X018093Y040750D01*
X018078Y040657D01*
X018078Y040610D01*
X018958Y040610D01*
X018958Y040610D01*
X019838Y040610D01*
X019838Y040657D01*
X019824Y040750D01*
X019794Y040840D01*
X019751Y040924D01*
X019696Y041001D01*
X019629Y041068D01*
X019580Y041103D01*
X019747Y041270D01*
X019838Y041491D01*
X019838Y041729D01*
X019747Y041950D01*
X019578Y042119D01*
X019438Y042177D01*
X019438Y043366D01*
X019558Y043486D01*
X019558Y043984D01*
X019438Y044104D01*
X019438Y044630D01*
X028603Y044630D01*
X028603Y044104D01*
X028483Y043984D01*
X028483Y043486D01*
X028603Y043366D01*
X028603Y042177D01*
X028463Y042119D01*
X028295Y041950D01*
X028203Y041729D01*
X028203Y041510D01*
X026963Y041510D01*
X026963Y041729D01*
X026872Y041950D01*
X026703Y042119D01*
X026483Y042210D01*
X025684Y042210D01*
X025463Y042119D01*
X025295Y041950D01*
X025203Y041729D01*
X025203Y041491D01*
X025295Y041270D01*
X025455Y041110D01*
X025295Y040950D01*
X025203Y040729D01*
X025203Y040491D01*
X025295Y040270D01*
X025455Y040110D01*
X025395Y040170D02*
X024247Y040170D01*
X024406Y040011D02*
X025356Y040011D01*
X025254Y039853D02*
X025156Y039853D01*
X025172Y039837D02*
X025172Y039837D01*
X024833Y039610D02*
X025333Y039110D01*
X026958Y039110D01*
X027458Y039610D01*
X029083Y039610D01*
X029083Y038610D02*
X027458Y038610D01*
X026958Y038110D01*
X025333Y038110D01*
X024833Y038610D01*
X023958Y038610D01*
X023458Y039110D01*
X017958Y039110D01*
X017458Y039610D01*
X015958Y039610D01*
X014958Y040610D01*
X007833Y040610D01*
X007333Y040110D02*
X006833Y039610D01*
X006329Y040011D02*
X006188Y040011D01*
X006188Y039853D02*
X006193Y039853D01*
X006188Y039694D02*
X006193Y039694D01*
X006188Y039536D02*
X006193Y039536D01*
X006188Y039377D02*
X006193Y039377D01*
X006188Y039219D02*
X006320Y039219D01*
X006378Y039060D02*
X006188Y039060D01*
X006188Y038902D02*
X006220Y038902D01*
X006193Y038743D02*
X006188Y038743D01*
X006188Y038585D02*
X006193Y038585D01*
X006188Y038426D02*
X006193Y038426D01*
X006188Y038268D02*
X006271Y038268D01*
X006188Y038109D02*
X006427Y038109D01*
X006269Y037951D02*
X006188Y037951D01*
X006188Y037792D02*
X006193Y037792D01*
X006188Y037634D02*
X006193Y037634D01*
X006188Y037475D02*
X006193Y037475D01*
X006188Y037317D02*
X006222Y037317D01*
X006188Y037158D02*
X006380Y037158D01*
X006318Y037000D02*
X006188Y037000D01*
X006188Y036841D02*
X006193Y036841D01*
X006188Y036683D02*
X006193Y036683D01*
X006188Y036524D02*
X006193Y036524D01*
X006188Y036366D02*
X006193Y036366D01*
X006188Y036207D02*
X006331Y036207D01*
X006367Y036049D02*
X006188Y036049D01*
X006188Y035890D02*
X006208Y035890D01*
X006193Y035732D02*
X006188Y035732D01*
X006188Y035573D02*
X006193Y035573D01*
X006188Y035415D02*
X006193Y035415D01*
X006188Y035256D02*
X006282Y035256D01*
X006188Y035098D02*
X006416Y035098D01*
X006257Y034939D02*
X006188Y034939D01*
X006188Y034781D02*
X006193Y034781D01*
X006188Y034622D02*
X006193Y034622D01*
X006188Y034464D02*
X006193Y034464D01*
X006188Y034305D02*
X006233Y034305D01*
X006188Y034147D02*
X006392Y034147D01*
X006306Y033988D02*
X006188Y033988D01*
X006188Y033830D02*
X006193Y033830D01*
X006188Y033671D02*
X006193Y033671D01*
X006188Y033513D02*
X006193Y033513D01*
X006188Y033354D02*
X006193Y033354D01*
X006188Y033196D02*
X006343Y033196D01*
X006188Y033037D02*
X006501Y033037D01*
X006188Y032879D02*
X015142Y032879D01*
X015088Y032720D02*
X006188Y032720D01*
X006188Y032562D02*
X015079Y032562D01*
X015115Y032403D02*
X006188Y032403D01*
X006188Y032245D02*
X015202Y032245D01*
X015385Y032086D02*
X006188Y032086D01*
X006188Y031928D02*
X037325Y031928D01*
X037167Y032086D02*
X036666Y032086D01*
X037208Y032610D02*
X036083Y032610D01*
X035500Y032086D02*
X033657Y032086D01*
X033839Y032245D02*
X035320Y032245D01*
X035240Y032403D02*
X033927Y032403D01*
X033963Y032562D02*
X035203Y032562D01*
X035203Y032720D02*
X033953Y032720D01*
X033963Y032610D02*
X033083Y032610D01*
X033083Y032610D01*
X033963Y032610D01*
X033900Y032879D02*
X035265Y032879D01*
X035382Y033037D02*
X033785Y033037D01*
X033797Y033196D02*
X035369Y033196D01*
X035260Y033354D02*
X033907Y033354D01*
X033963Y033513D02*
X035203Y033513D01*
X035203Y033671D02*
X033963Y033671D01*
X033083Y034110D02*
X033083Y034610D01*
X033083Y034110D02*
X027458Y034110D01*
X026958Y033610D01*
X026083Y033610D01*
X025333Y034110D02*
X024833Y034610D01*
X023958Y034610D01*
X023458Y035110D01*
X017958Y035110D01*
X017458Y035610D01*
X015958Y035610D01*
X012958Y038610D01*
X007833Y038610D01*
X007333Y038110D02*
X006833Y037610D01*
X007333Y038110D02*
X012458Y038110D01*
X015958Y034610D01*
X017458Y034610D01*
X017958Y034110D01*
X023458Y034110D01*
X023958Y033610D01*
X024833Y033610D01*
X025333Y033110D01*
X026958Y033110D01*
X027458Y033610D01*
X029083Y033610D01*
X028369Y033196D02*
X027610Y033196D01*
X027451Y033037D02*
X028382Y033037D01*
X028265Y032879D02*
X027293Y032879D01*
X027062Y032720D02*
X028203Y032720D01*
X028203Y032562D02*
X026963Y032562D01*
X026963Y032610D02*
X026083Y032610D01*
X026963Y032610D01*
X026927Y032403D02*
X028240Y032403D01*
X028320Y032245D02*
X026839Y032245D01*
X026657Y032086D02*
X028500Y032086D01*
X029666Y032086D02*
X032510Y032086D01*
X032327Y032245D02*
X029846Y032245D01*
X029927Y032403D02*
X032240Y032403D01*
X032204Y032562D02*
X029963Y032562D01*
X029963Y032720D02*
X032213Y032720D01*
X032267Y032879D02*
X029902Y032879D01*
X029785Y033037D02*
X032382Y033037D01*
X032369Y033196D02*
X029797Y033196D01*
X029907Y033354D02*
X032260Y033354D01*
X032203Y033513D02*
X029963Y033513D01*
X029963Y033671D02*
X032203Y033671D01*
X033083Y034110D02*
X037208Y034110D01*
X037708Y033610D01*
X038958Y033610D01*
X040583Y033610D01*
X041083Y034110D01*
X050583Y034110D01*
X051083Y033610D01*
X051583Y034110D01*
X058208Y034110D01*
X058708Y033610D01*
X060333Y033610D01*
X060833Y033110D01*
X061833Y033110D01*
X062208Y033485D01*
X063708Y033485D01*
X063833Y033610D01*
X063333Y033985D02*
X062208Y033985D01*
X061833Y033610D01*
X061333Y033610D01*
X060833Y034110D02*
X060333Y034610D01*
X058708Y034610D01*
X058208Y035110D01*
X051583Y035110D01*
X051083Y034610D01*
X043333Y034610D01*
X042833Y035110D01*
X041083Y035110D01*
X040583Y034610D01*
X038958Y034610D01*
X037708Y034610D01*
X037208Y035110D01*
X027458Y035110D01*
X026958Y034610D01*
X026083Y034610D01*
X025333Y034110D02*
X026958Y034110D01*
X027458Y034610D01*
X029083Y034610D01*
X029083Y035610D02*
X027458Y035610D01*
X026958Y035110D01*
X025333Y035110D01*
X024833Y035610D01*
X023958Y035610D01*
X023458Y036110D01*
X017958Y036110D01*
X017458Y036610D01*
X015958Y036610D01*
X013458Y039110D01*
X007333Y039110D01*
X006833Y038610D01*
X007833Y037610D02*
X011958Y037610D01*
X015958Y033610D01*
X017458Y033610D01*
X017958Y033110D01*
X023458Y033110D01*
X023958Y032610D01*
X024380Y033037D02*
X024841Y033037D01*
X024999Y032879D02*
X024538Y032879D01*
X024558Y032720D02*
X025213Y032720D01*
X025204Y032562D02*
X024558Y032562D01*
X024558Y032403D02*
X025240Y032403D01*
X025327Y032245D02*
X024441Y032245D01*
X024283Y032086D02*
X025510Y032086D01*
X026083Y032086D02*
X026083Y032086D01*
X026083Y032245D02*
X026083Y032245D01*
X026083Y032403D02*
X026083Y032403D01*
X026083Y032562D02*
X026083Y032562D01*
X026083Y032610D02*
X026083Y032610D01*
X024682Y033196D02*
X024392Y033196D01*
X023358Y032562D02*
X021558Y032562D01*
X021558Y032403D02*
X023358Y032403D01*
X023475Y032245D02*
X021441Y032245D01*
X021283Y032086D02*
X023634Y032086D01*
X024380Y030130D02*
X024358Y030109D01*
X024358Y029860D01*
X024358Y029611D01*
X024710Y029260D01*
X024958Y029260D01*
X024958Y029860D01*
X024358Y029860D01*
X024958Y029860D01*
X024958Y029860D01*
X024958Y029860D01*
X024958Y029260D01*
X025207Y029260D01*
X025558Y029611D01*
X025558Y029860D01*
X025558Y030109D01*
X025537Y030130D01*
X026380Y030130D01*
X026358Y030109D01*
X026358Y029611D01*
X026478Y029491D01*
X026478Y028927D01*
X026338Y028869D01*
X026170Y028700D01*
X026078Y028479D01*
X026078Y028241D01*
X026170Y028020D01*
X026330Y027860D01*
X026170Y027700D01*
X026078Y027479D01*
X026078Y027241D01*
X026170Y027020D01*
X026330Y026860D01*
X026174Y026704D01*
X026038Y026760D01*
X024687Y026760D01*
X024587Y026860D01*
X024747Y027020D01*
X024838Y027241D01*
X024838Y027479D01*
X024747Y027700D01*
X024587Y027860D01*
X024747Y028020D01*
X024838Y028241D01*
X024838Y028479D01*
X024747Y028700D01*
X024578Y028869D01*
X024358Y028960D01*
X023559Y028960D01*
X023338Y028869D01*
X023170Y028700D01*
X023078Y028479D01*
X023078Y028241D01*
X023170Y028020D01*
X023330Y027860D01*
X023170Y027700D01*
X023125Y027593D01*
X023119Y027587D01*
X022744Y027212D01*
X022683Y027065D01*
X022683Y024155D01*
X022744Y024008D01*
X022857Y023896D01*
X023135Y023617D01*
X023078Y023479D01*
X023078Y023241D01*
X023170Y023020D01*
X023337Y022853D01*
X023287Y022818D01*
X023221Y022751D01*
X023165Y022674D01*
X023122Y022590D01*
X023093Y022500D01*
X023078Y022407D01*
X023078Y022360D01*
X023078Y022313D01*
X023093Y022219D01*
X023122Y022130D01*
X023165Y022046D01*
X023221Y021969D01*
X023287Y021902D01*
X023364Y021847D01*
X023448Y021804D01*
X023538Y021775D01*
X023631Y021760D01*
X023958Y021760D01*
X023958Y022360D01*
X023078Y022360D01*
X023958Y022360D01*
X023958Y022360D01*
X023958Y022360D01*
X023958Y021760D01*
X024286Y021760D01*
X024379Y021775D01*
X024469Y021804D01*
X024553Y021847D01*
X024629Y021902D01*
X024696Y021969D01*
X024751Y022046D01*
X024794Y022130D01*
X024824Y022219D01*
X024838Y022313D01*
X024838Y022360D01*
X024838Y022407D01*
X024824Y022500D01*
X024794Y022590D01*
X024751Y022674D01*
X024696Y022751D01*
X024629Y022818D01*
X024580Y022853D01*
X024747Y023020D01*
X024838Y023241D01*
X024838Y023460D01*
X025293Y023460D01*
X026135Y022617D01*
X026078Y022479D01*
X026078Y022241D01*
X026170Y022020D01*
X026338Y021851D01*
X026559Y021760D01*
X027358Y021760D01*
X027413Y021783D01*
X027388Y021723D01*
X027388Y021497D01*
X027475Y021287D01*
X027635Y021127D01*
X027845Y021040D01*
X028072Y021040D01*
X028281Y021127D01*
X028442Y021287D01*
X028528Y021497D01*
X028528Y021723D01*
X028442Y021933D01*
X028358Y022016D01*
X028358Y022440D01*
X028297Y022587D01*
X028185Y022699D01*
X027781Y023103D01*
X027838Y023241D01*
X027838Y023460D01*
X029578Y023460D01*
X029578Y023241D01*
X029670Y023020D01*
X029837Y022853D01*
X029787Y022818D01*
X029721Y022751D01*
X029665Y022674D01*
X029622Y022590D01*
X029593Y022500D01*
X029578Y022407D01*
X029578Y022360D01*
X029578Y022313D01*
X029593Y022219D01*
X029622Y022130D01*
X029665Y022046D01*
X029721Y021969D01*
X029787Y021902D01*
X029864Y021847D01*
X029948Y021804D01*
X029966Y021798D01*
X029850Y021683D01*
X029763Y021473D01*
X029763Y021247D01*
X029850Y021037D01*
X029877Y021010D01*
X016732Y021010D01*
X016778Y021122D01*
X016778Y021348D01*
X016692Y021558D01*
X016531Y021718D01*
X016322Y021805D01*
X016095Y021805D01*
X015885Y021718D01*
X015802Y021635D01*
X007379Y021635D01*
X007232Y021574D01*
X006908Y021250D01*
X006568Y021250D01*
X006193Y020875D01*
X006193Y020345D01*
X006428Y020110D01*
X006193Y019875D01*
X006193Y019345D01*
X006428Y019110D01*
X006193Y018875D01*
X006193Y018345D01*
X006428Y018110D01*
X006193Y017875D01*
X006193Y017345D01*
X006428Y017110D01*
X006193Y016875D01*
X006193Y016345D01*
X006428Y016110D01*
X006193Y015875D01*
X006193Y015345D01*
X006428Y015110D01*
X006193Y014875D01*
X006193Y014345D01*
X006428Y014110D01*
X006193Y013875D01*
X006193Y013679D01*
X006188Y013684D01*
X006188Y022235D01*
X006206Y022217D01*
X006441Y022120D01*
X006696Y022120D01*
X006931Y022217D01*
X007111Y022397D01*
X007208Y022633D01*
X007208Y023527D01*
X007720Y023527D01*
X007719Y023525D02*
X007708Y023442D01*
X007708Y023100D01*
X008328Y023100D01*
X008328Y023060D01*
X007708Y023060D01*
X007708Y022718D01*
X007719Y022635D01*
X007741Y022554D01*
X007773Y022476D01*
X007815Y022404D01*
X007866Y022337D01*
X007925Y022278D01*
X007992Y022227D01*
X008065Y022185D01*
X008142Y022153D01*
X008223Y022131D01*
X008306Y022120D01*
X008328Y022120D01*
X008328Y023060D01*
X008368Y023060D01*
X008368Y022120D01*
X008390Y022120D01*
X008473Y022131D01*
X008554Y022153D01*
X008632Y022185D01*
X008705Y022227D01*
X008771Y022278D01*
X008831Y022337D01*
X008882Y022404D01*
X008924Y022476D01*
X008956Y022554D01*
X008977Y022635D01*
X008988Y022718D01*
X008988Y023060D01*
X008368Y023060D01*
X008368Y023100D01*
X008328Y023100D01*
X008328Y024040D01*
X008306Y024040D01*
X008223Y024029D01*
X008142Y024007D01*
X008065Y023975D01*
X007992Y023933D01*
X007925Y023882D01*
X007866Y023823D01*
X007815Y023756D01*
X007773Y023684D01*
X007741Y023606D01*
X007719Y023525D01*
X007708Y023369D02*
X007208Y023369D01*
X007208Y023527D02*
X007111Y023763D01*
X006968Y023905D01*
X006968Y024815D01*
X007111Y024957D01*
X007208Y025193D01*
X007208Y026087D01*
X007191Y026130D01*
X007731Y026130D01*
X007719Y026085D01*
X007708Y026002D01*
X007708Y025660D01*
X008328Y025660D01*
X008328Y025620D01*
X007708Y025620D01*
X007708Y025278D01*
X007719Y025195D01*
X007741Y025114D01*
X007773Y025036D01*
X007815Y024964D01*
X007866Y024897D01*
X007925Y024838D01*
X007992Y024787D01*
X008065Y024745D01*
X008142Y024713D01*
X008223Y024691D01*
X008306Y024680D01*
X008328Y024680D01*
X008328Y025620D01*
X008368Y025620D01*
X008368Y024680D01*
X008390Y024680D01*
X008473Y024691D01*
X008554Y024713D01*
X008632Y024745D01*
X008705Y024787D01*
X008771Y024838D01*
X008831Y024897D01*
X008882Y024964D01*
X008924Y025036D01*
X008956Y025114D01*
X008977Y025195D01*
X008988Y025278D01*
X008988Y025620D01*
X008368Y025620D01*
X008368Y025660D01*
X008988Y025660D01*
X008988Y026002D01*
X008977Y026085D01*
X008965Y026130D01*
X010304Y026130D01*
X010480Y026203D01*
X010615Y026338D01*
X010865Y026588D01*
X010938Y026765D01*
X010938Y026991D01*
X011058Y027111D01*
X011058Y027281D01*
X012626Y028848D01*
X012839Y028760D01*
X013078Y028760D01*
X013298Y028851D01*
X013467Y029020D01*
X013558Y029241D01*
X013558Y029479D01*
X013467Y029700D01*
X013298Y029869D01*
X013078Y029960D01*
X012839Y029960D01*
X012618Y029869D01*
X012590Y029840D01*
X012363Y029840D01*
X012186Y029767D01*
X012051Y029632D01*
X010380Y027960D01*
X010210Y027960D01*
X009858Y027609D01*
X009858Y027111D01*
X009880Y027090D01*
X008037Y027090D01*
X008058Y027111D01*
X008058Y027609D01*
X007858Y027809D01*
X007858Y029161D01*
X007958Y029261D01*
X008210Y029010D01*
X008458Y029010D01*
X008458Y029610D01*
X008458Y029610D01*
X008458Y029010D01*
X008707Y029010D01*
X009058Y029361D01*
X009058Y029610D01*
X009058Y029859D01*
X008787Y030130D01*
X024380Y030130D01*
X024358Y030026D02*
X008891Y030026D01*
X009050Y029867D02*
X012617Y029867D01*
X012128Y029709D02*
X009058Y029709D01*
X009058Y029610D02*
X008458Y029610D01*
X008458Y029610D01*
X009058Y029610D01*
X009058Y029550D02*
X011970Y029550D01*
X011811Y029392D02*
X009058Y029392D01*
X008930Y029233D02*
X011653Y029233D01*
X011494Y029075D02*
X008771Y029075D01*
X008458Y029075D02*
X008458Y029075D01*
X008458Y029233D02*
X008458Y029233D01*
X008458Y029392D02*
X008458Y029392D01*
X008458Y029550D02*
X008458Y029550D01*
X007987Y029233D02*
X007930Y029233D01*
X007858Y029075D02*
X008145Y029075D01*
X007858Y028916D02*
X011336Y028916D01*
X011177Y028758D02*
X007858Y028758D01*
X007858Y028599D02*
X011019Y028599D01*
X010860Y028441D02*
X007858Y028441D01*
X007858Y028282D02*
X010702Y028282D01*
X010543Y028124D02*
X007858Y028124D01*
X007858Y027965D02*
X010385Y027965D01*
X010056Y027807D02*
X007860Y027807D01*
X008019Y027648D02*
X009898Y027648D01*
X009858Y027490D02*
X008058Y027490D01*
X008058Y027331D02*
X009858Y027331D01*
X009858Y027173D02*
X008058Y027173D01*
X007458Y027360D02*
X007458Y029610D01*
X006188Y031135D02*
X063410Y031135D01*
X063302Y030977D02*
X054021Y030977D01*
X054179Y030818D02*
X063198Y030818D01*
X063198Y030660D02*
X054338Y030660D01*
X054496Y030501D02*
X063198Y030501D01*
X063203Y030343D02*
X054655Y030343D01*
X054813Y030184D02*
X063361Y030184D01*
X063351Y030026D02*
X054972Y030026D01*
X055121Y029867D02*
X063198Y029867D01*
X063198Y029709D02*
X062662Y029709D01*
X062834Y029550D02*
X063198Y029550D01*
X063198Y029392D02*
X062992Y029392D01*
X063151Y029233D02*
X063312Y029233D01*
X063309Y029075D02*
X063400Y029075D01*
X063083Y028735D02*
X062458Y029360D01*
X061958Y029360D01*
X061208Y028610D01*
X061208Y028360D01*
X060208Y028360D01*
X059794Y029075D02*
X059622Y029075D01*
X059344Y029233D02*
X060072Y029233D01*
X060344Y029233D02*
X061072Y029233D01*
X060794Y029075D02*
X060622Y029075D01*
X061424Y029392D02*
X055188Y029392D01*
X055188Y029550D02*
X061583Y029550D01*
X061755Y029709D02*
X055187Y029709D01*
X055188Y029233D02*
X056072Y029233D01*
X056344Y029233D02*
X057117Y029233D01*
X057208Y029233D02*
X057208Y029233D01*
X057208Y029240D02*
X057208Y028360D01*
X057208Y028360D01*
X057208Y029240D01*
X057300Y029233D02*
X058117Y029233D01*
X058208Y029233D02*
X058208Y029233D01*
X058208Y029240D02*
X058208Y028360D01*
X057208Y028360D01*
X057808Y028360D01*
X058208Y028360D01*
X058208Y028360D01*
X058208Y028360D01*
X058208Y029240D01*
X058300Y029233D02*
X059072Y029233D01*
X058794Y029075D02*
X058622Y029075D01*
X058208Y029075D02*
X058208Y029075D01*
X058208Y028916D02*
X058208Y028916D01*
X058208Y028758D02*
X058208Y028758D01*
X058208Y028599D02*
X058208Y028599D01*
X058208Y028441D02*
X058208Y028441D01*
X057794Y029075D02*
X057622Y029075D01*
X057208Y029075D02*
X057208Y029075D01*
X057208Y028916D02*
X057208Y028916D01*
X057208Y028758D02*
X057208Y028758D01*
X057208Y028599D02*
X057208Y028599D01*
X057208Y028441D02*
X057208Y028441D01*
X057208Y028360D02*
X057208Y028360D01*
X056794Y029075D02*
X056622Y029075D01*
X055794Y029075D02*
X055188Y029075D01*
X055188Y028916D02*
X055673Y028916D01*
X054228Y028916D02*
X052491Y028916D01*
X052471Y028954D02*
X052416Y029031D01*
X052349Y029098D01*
X052273Y029153D01*
X052189Y029196D01*
X052099Y029225D01*
X052006Y029240D01*
X051958Y029240D01*
X051911Y029240D01*
X051818Y029225D01*
X051728Y029196D01*
X051644Y029153D01*
X051567Y029098D01*
X051501Y029031D01*
X051465Y028982D01*
X051298Y029149D01*
X051078Y029240D01*
X050839Y029240D01*
X050618Y029149D01*
X050458Y028989D01*
X050298Y029149D01*
X050078Y029240D01*
X049839Y029240D01*
X049618Y029149D01*
X049458Y028989D01*
X049298Y029149D01*
X049078Y029240D01*
X048839Y029240D01*
X048618Y029149D01*
X048458Y028989D01*
X048298Y029149D01*
X048078Y029240D01*
X047839Y029240D01*
X047618Y029149D01*
X047458Y028989D01*
X047298Y029149D01*
X047078Y029240D01*
X046839Y029240D01*
X046618Y029149D01*
X046458Y028989D01*
X046298Y029149D01*
X046078Y029240D01*
X045839Y029240D01*
X045618Y029149D01*
X045458Y028989D01*
X045298Y029149D01*
X045078Y029240D01*
X044839Y029240D01*
X044618Y029149D01*
X044458Y028989D01*
X044298Y029149D01*
X044078Y029240D01*
X043839Y029240D01*
X043618Y029149D01*
X043452Y028982D01*
X043416Y029031D01*
X043349Y029098D01*
X043273Y029153D01*
X043250Y029165D01*
X043322Y029165D01*
X043531Y029252D01*
X043692Y029412D01*
X043778Y029622D01*
X043778Y029848D01*
X043692Y030058D01*
X043619Y030130D01*
X053510Y030130D01*
X054228Y029411D01*
X054228Y028729D01*
X054108Y028609D01*
X054108Y028385D01*
X053129Y028385D01*
X052982Y028324D01*
X052869Y028212D01*
X052518Y027860D01*
X052544Y027939D01*
X052558Y028033D01*
X052558Y028360D01*
X052558Y028687D01*
X052544Y028780D01*
X052514Y028870D01*
X052471Y028954D01*
X052372Y029075D02*
X054228Y029075D01*
X054228Y029233D02*
X052050Y029233D01*
X051958Y029233D02*
X051958Y029233D01*
X051958Y029240D02*
X051958Y028360D01*
X051958Y028360D01*
X051958Y029240D01*
X051867Y029233D02*
X051094Y029233D01*
X050822Y029233D02*
X050094Y029233D01*
X049822Y029233D02*
X049094Y029233D01*
X048822Y029233D02*
X048094Y029233D01*
X047822Y029233D02*
X047094Y029233D01*
X046822Y029233D02*
X046094Y029233D01*
X045822Y029233D02*
X045094Y029233D01*
X044822Y029233D02*
X044094Y029233D01*
X043822Y029233D02*
X043486Y029233D01*
X043544Y029075D02*
X043372Y029075D01*
X043671Y029392D02*
X054228Y029392D01*
X054089Y029550D02*
X043749Y029550D01*
X043778Y029709D02*
X053931Y029709D01*
X053772Y029867D02*
X043771Y029867D01*
X043705Y030026D02*
X053614Y030026D01*
X054228Y028758D02*
X052547Y028758D01*
X052558Y028599D02*
X054108Y028599D01*
X054108Y028441D02*
X052558Y028441D01*
X052558Y028360D02*
X051958Y028360D01*
X051958Y028360D01*
X052558Y028360D01*
X052558Y028282D02*
X052940Y028282D01*
X052781Y028124D02*
X052558Y028124D01*
X052548Y027965D02*
X052623Y027965D01*
X053208Y027985D02*
X052583Y027360D01*
X050958Y027360D01*
X050958Y028360D01*
X050544Y029075D02*
X050372Y029075D01*
X049544Y029075D02*
X049372Y029075D01*
X048958Y028360D02*
X048958Y027360D01*
X050958Y027360D01*
X051958Y028441D02*
X051958Y028441D01*
X051958Y028599D02*
X051958Y028599D01*
X051958Y028758D02*
X051958Y028758D01*
X051958Y028916D02*
X051958Y028916D01*
X051958Y029075D02*
X051958Y029075D01*
X051544Y029075D02*
X051372Y029075D01*
X053208Y027985D02*
X054083Y027985D01*
X054708Y027360D01*
X061333Y027360D01*
X062208Y028235D01*
X062208Y028360D01*
X063083Y028735D02*
X063083Y027235D01*
X061208Y025360D01*
X061715Y024738D02*
X061548Y024571D01*
X061328Y024480D01*
X061089Y024480D01*
X060868Y024571D01*
X060708Y024731D01*
X060548Y024571D01*
X060328Y024480D01*
X060089Y024480D01*
X059868Y024571D01*
X059708Y024731D01*
X059548Y024571D01*
X059328Y024480D01*
X059089Y024480D01*
X058868Y024571D01*
X058708Y024731D01*
X058548Y024571D01*
X058328Y024480D01*
X058089Y024480D01*
X057868Y024571D01*
X057708Y024731D01*
X057548Y024571D01*
X057441Y024527D01*
X057435Y024521D01*
X056685Y023771D01*
X056538Y023710D01*
X055504Y023710D01*
X055357Y023771D01*
X055244Y023883D01*
X054037Y025090D01*
X053707Y024760D01*
X053210Y024760D01*
X053090Y024880D01*
X052525Y024880D01*
X052467Y024740D01*
X052298Y024571D01*
X052078Y024480D01*
X051839Y024480D01*
X051618Y024571D01*
X051452Y024738D01*
X051416Y024689D01*
X051349Y024622D01*
X051273Y024567D01*
X051189Y024524D01*
X051099Y024495D01*
X051006Y024480D01*
X050958Y024480D01*
X050958Y025360D01*
X050958Y025360D01*
X050958Y024480D01*
X050911Y024480D01*
X050818Y024495D01*
X050728Y024524D01*
X050644Y024567D01*
X050567Y024622D01*
X050501Y024689D01*
X050465Y024738D01*
X050298Y024571D01*
X050078Y024480D01*
X049839Y024480D01*
X049618Y024571D01*
X049458Y024731D01*
X049298Y024571D01*
X049078Y024480D01*
X048839Y024480D01*
X048701Y024537D01*
X047743Y023579D01*
X047879Y023635D01*
X056552Y023635D01*
X056635Y023718D01*
X056845Y023805D01*
X057072Y023805D01*
X057281Y023718D01*
X057442Y023558D01*
X057528Y023348D01*
X057528Y023122D01*
X057442Y022912D01*
X057414Y022885D01*
X059538Y022885D01*
X059685Y022824D01*
X059797Y022712D01*
X061259Y021250D01*
X061598Y021250D01*
X061753Y021095D01*
X062107Y021449D01*
X062254Y021510D01*
X063198Y021510D01*
X063198Y021873D01*
X063435Y022110D01*
X063198Y022347D01*
X063198Y022873D01*
X063435Y023110D01*
X063198Y023347D01*
X063198Y023873D01*
X063435Y024110D01*
X063198Y024347D01*
X063198Y024873D01*
X063435Y025110D01*
X063198Y025347D01*
X063198Y025873D01*
X063435Y026110D01*
X063198Y026347D01*
X063198Y026784D01*
X062549Y026134D01*
X062599Y026098D01*
X062666Y026031D01*
X062721Y025954D01*
X062764Y025870D01*
X062794Y025780D01*
X062808Y025687D01*
X062808Y025360D01*
X062208Y025360D01*
X062208Y025360D01*
X062208Y024480D01*
X062161Y024480D01*
X062068Y024495D01*
X061978Y024524D01*
X061894Y024567D01*
X061817Y024622D01*
X061751Y024689D01*
X061715Y024738D01*
X061803Y024637D02*
X061613Y024637D01*
X062208Y024637D02*
X062208Y024637D01*
X062208Y024480D02*
X062256Y024480D01*
X062349Y024495D01*
X062439Y024524D01*
X062523Y024567D01*
X062599Y024622D01*
X062666Y024689D01*
X062721Y024766D01*
X062764Y024850D01*
X062794Y024939D01*
X062808Y025033D01*
X062808Y025360D01*
X062208Y025360D01*
X062208Y024480D01*
X062208Y024795D02*
X062208Y024795D01*
X062208Y024954D02*
X062208Y024954D01*
X062208Y025112D02*
X062208Y025112D01*
X062208Y025271D02*
X062208Y025271D01*
X062208Y025360D02*
X062208Y025360D01*
X062808Y025429D02*
X063198Y025429D01*
X063198Y025588D02*
X062808Y025588D01*
X062799Y025746D02*
X063198Y025746D01*
X063230Y025905D02*
X062747Y025905D01*
X062634Y026063D02*
X063388Y026063D01*
X063324Y026222D02*
X062636Y026222D01*
X062794Y026380D02*
X063198Y026380D01*
X063198Y026539D02*
X062953Y026539D01*
X063111Y026697D02*
X063198Y026697D01*
X063275Y025271D02*
X062808Y025271D01*
X062808Y025112D02*
X063433Y025112D01*
X063279Y024954D02*
X062796Y024954D01*
X062737Y024795D02*
X063198Y024795D01*
X063198Y024637D02*
X062613Y024637D01*
X063198Y024478D02*
X057392Y024478D01*
X057234Y024320D02*
X063226Y024320D01*
X063384Y024161D02*
X057075Y024161D01*
X056917Y024003D02*
X063328Y024003D01*
X063198Y023844D02*
X056758Y023844D01*
X056603Y023686D02*
X047850Y023686D01*
X048008Y023844D02*
X055284Y023844D01*
X055125Y024003D02*
X048167Y024003D01*
X048325Y024161D02*
X054967Y024161D01*
X054808Y024320D02*
X048484Y024320D01*
X048642Y024478D02*
X054650Y024478D01*
X054491Y024637D02*
X052363Y024637D01*
X052490Y024795D02*
X053175Y024795D01*
X053742Y024795D02*
X054333Y024795D01*
X054174Y024954D02*
X053900Y024954D01*
X054978Y025781D02*
X055308Y026111D01*
X055308Y026360D01*
X055308Y026460D01*
X055808Y026460D01*
X055808Y026089D01*
X055700Y025980D01*
X055608Y025759D01*
X055608Y025151D01*
X054978Y025781D01*
X055013Y025746D02*
X055608Y025746D01*
X055608Y025588D02*
X055171Y025588D01*
X055330Y025429D02*
X055608Y025429D01*
X055608Y025271D02*
X055488Y025271D01*
X055668Y025905D02*
X055101Y025905D01*
X055260Y026063D02*
X055783Y026063D01*
X055808Y026222D02*
X055308Y026222D01*
X055308Y026360D02*
X054708Y026360D01*
X055308Y026360D01*
X055308Y026380D02*
X055808Y026380D01*
X056208Y026860D02*
X056208Y025360D01*
X056708Y024860D02*
X056333Y024485D01*
X055708Y024485D01*
X053708Y026485D01*
X044958Y026485D01*
X044958Y025360D01*
X043958Y025360D02*
X045208Y024110D01*
X046458Y024110D01*
X046708Y023610D02*
X043083Y023610D01*
X040833Y025860D01*
X036333Y025860D01*
X034333Y023860D01*
X027458Y023860D01*
X026958Y023360D01*
X027958Y022360D01*
X027958Y021610D01*
X027388Y021625D02*
X016624Y021625D01*
X016729Y021467D02*
X027401Y021467D01*
X027466Y021308D02*
X016778Y021308D01*
X016778Y021150D02*
X027613Y021150D01*
X028304Y021150D02*
X029804Y021150D01*
X029763Y021308D02*
X028450Y021308D01*
X028516Y021467D02*
X029763Y021467D01*
X029826Y021625D02*
X028528Y021625D01*
X028503Y021784D02*
X029951Y021784D01*
X029748Y021942D02*
X028432Y021942D01*
X028358Y022101D02*
X029637Y022101D01*
X029587Y022259D02*
X028358Y022259D01*
X028358Y022418D02*
X029580Y022418D01*
X029578Y022360D02*
X030458Y022360D01*
X029578Y022360D01*
X029618Y022576D02*
X028302Y022576D01*
X028149Y022735D02*
X029709Y022735D01*
X029797Y022893D02*
X027991Y022893D01*
X027832Y023052D02*
X029657Y023052D01*
X029591Y023210D02*
X027826Y023210D01*
X027838Y023369D02*
X029578Y023369D01*
X030458Y022360D02*
X030458Y022360D01*
X031338Y022360D01*
X031338Y022407D01*
X031324Y022500D01*
X031294Y022590D01*
X031251Y022674D01*
X031196Y022751D01*
X031129Y022818D01*
X031080Y022853D01*
X031120Y022893D01*
X031135Y022877D01*
X031345Y022790D01*
X031572Y022790D01*
X031781Y022877D01*
X031864Y022960D01*
X032293Y022960D01*
X032635Y022617D01*
X032578Y022479D01*
X032578Y022241D01*
X032670Y022020D01*
X032838Y021851D01*
X033059Y021760D01*
X033858Y021760D01*
X034078Y021851D01*
X034247Y022020D01*
X034338Y022241D01*
X034338Y022479D01*
X034247Y022700D01*
X034087Y022860D01*
X034247Y023020D01*
X034338Y023241D01*
X034338Y023460D01*
X034413Y023460D01*
X034560Y023521D01*
X036137Y025098D01*
X036170Y025020D01*
X036330Y024860D01*
X036170Y024700D01*
X036078Y024479D01*
X036078Y024241D01*
X036170Y024020D01*
X036330Y023860D01*
X036170Y023700D01*
X036078Y023479D01*
X036078Y023241D01*
X036170Y023020D01*
X036337Y022853D01*
X036287Y022818D01*
X036221Y022751D01*
X036165Y022674D01*
X036122Y022590D01*
X036093Y022500D01*
X036078Y022407D01*
X036078Y022360D01*
X036078Y022313D01*
X036093Y022219D01*
X036122Y022130D01*
X036165Y022046D01*
X036221Y021969D01*
X036287Y021902D01*
X036364Y021847D01*
X036448Y021804D01*
X036538Y021775D01*
X036631Y021760D01*
X036958Y021760D01*
X036958Y022360D01*
X036078Y022360D01*
X036958Y022360D01*
X036958Y022360D01*
X036958Y022360D01*
X036958Y021760D01*
X037286Y021760D01*
X037379Y021775D01*
X037469Y021804D01*
X037553Y021847D01*
X037629Y021902D01*
X037696Y021969D01*
X037751Y022046D01*
X037794Y022130D01*
X037824Y022219D01*
X037838Y022313D01*
X037838Y022360D01*
X037838Y022407D01*
X037824Y022500D01*
X037794Y022590D01*
X037751Y022674D01*
X037696Y022751D01*
X037629Y022818D01*
X037580Y022853D01*
X037747Y023020D01*
X037838Y023241D01*
X037838Y023479D01*
X037747Y023700D01*
X037587Y023860D01*
X037747Y024020D01*
X037838Y024241D01*
X037838Y024479D01*
X037747Y024700D01*
X037587Y024860D01*
X037747Y025020D01*
X037838Y025241D01*
X037838Y025460D01*
X039087Y025460D01*
X039078Y025407D01*
X039078Y025360D01*
X039078Y025313D01*
X039093Y025219D01*
X039122Y025130D01*
X039165Y025046D01*
X039221Y024969D01*
X039287Y024902D01*
X039337Y024867D01*
X039170Y024700D01*
X039078Y024479D01*
X039078Y024241D01*
X039170Y024020D01*
X039337Y023853D01*
X039287Y023818D01*
X039221Y023751D01*
X039165Y023674D01*
X039122Y023590D01*
X039093Y023500D01*
X039078Y023407D01*
X039078Y023360D01*
X039078Y023313D01*
X039093Y023219D01*
X039122Y023130D01*
X039165Y023046D01*
X039221Y022969D01*
X039287Y022902D01*
X039337Y022867D01*
X039170Y022700D01*
X039078Y022479D01*
X039078Y022241D01*
X039170Y022020D01*
X039338Y021851D01*
X039559Y021760D01*
X040358Y021760D01*
X040578Y021851D01*
X040747Y022020D01*
X040838Y022241D01*
X040838Y022479D01*
X040747Y022700D01*
X040580Y022867D01*
X040629Y022902D01*
X040696Y022969D01*
X040751Y023046D01*
X040794Y023130D01*
X040824Y023219D01*
X040838Y023313D01*
X040838Y023360D01*
X040838Y023407D01*
X040824Y023500D01*
X040794Y023590D01*
X040751Y023674D01*
X040696Y023751D01*
X040629Y023818D01*
X040580Y023853D01*
X040747Y024020D01*
X040838Y024241D01*
X040838Y024479D01*
X040747Y024700D01*
X040580Y024867D01*
X040629Y024902D01*
X040696Y024969D01*
X040751Y025046D01*
X040794Y025130D01*
X040824Y025219D01*
X040835Y025293D01*
X042532Y023596D01*
X042462Y023545D01*
X042399Y023481D01*
X042346Y023409D01*
X042305Y023329D01*
X042277Y023243D01*
X042263Y023155D01*
X042263Y023110D01*
X042263Y023065D01*
X042272Y023010D01*
X042129Y023010D01*
X041982Y022949D01*
X040793Y021760D01*
X030739Y021760D01*
X030786Y021760D01*
X030879Y021775D01*
X030969Y021804D01*
X031053Y021847D01*
X031129Y021902D01*
X031196Y021969D01*
X031251Y022046D01*
X031294Y022130D01*
X031324Y022219D01*
X031338Y022313D01*
X031338Y022360D01*
X030458Y022360D01*
X030458Y022360D01*
X030739Y021760D02*
X030739Y021760D01*
X030906Y021784D02*
X033002Y021784D01*
X032748Y021942D02*
X031169Y021942D01*
X031280Y022101D02*
X032636Y022101D01*
X032578Y022259D02*
X031330Y022259D01*
X031337Y022418D02*
X032578Y022418D01*
X032618Y022576D02*
X031299Y022576D01*
X031208Y022735D02*
X032518Y022735D01*
X032360Y022893D02*
X031797Y022893D01*
X031458Y023360D02*
X032458Y023360D01*
X033458Y022360D01*
X033914Y021784D02*
X036511Y021784D01*
X036248Y021942D02*
X034169Y021942D01*
X034280Y022101D02*
X036137Y022101D01*
X036087Y022259D02*
X034338Y022259D01*
X034338Y022418D02*
X036080Y022418D01*
X036118Y022576D02*
X034298Y022576D01*
X034212Y022735D02*
X036209Y022735D01*
X036297Y022893D02*
X034120Y022893D01*
X034260Y023052D02*
X036157Y023052D01*
X036091Y023210D02*
X034326Y023210D01*
X034338Y023369D02*
X036078Y023369D01*
X036098Y023527D02*
X034566Y023527D01*
X034725Y023686D02*
X036164Y023686D01*
X036314Y023844D02*
X034883Y023844D01*
X035042Y024003D02*
X036187Y024003D01*
X036111Y024161D02*
X035200Y024161D01*
X035359Y024320D02*
X036078Y024320D01*
X036078Y024478D02*
X035517Y024478D01*
X035676Y024637D02*
X036143Y024637D01*
X036265Y024795D02*
X035834Y024795D01*
X035993Y024954D02*
X036236Y024954D01*
X037652Y024795D02*
X039265Y024795D01*
X039236Y024954D02*
X037680Y024954D01*
X037785Y025112D02*
X039131Y025112D01*
X039085Y025271D02*
X037838Y025271D01*
X037838Y025429D02*
X039082Y025429D01*
X039078Y025360D02*
X039958Y025360D01*
X039078Y025360D01*
X039143Y024637D02*
X037773Y024637D01*
X037838Y024478D02*
X039078Y024478D01*
X039078Y024320D02*
X037838Y024320D01*
X037805Y024161D02*
X039111Y024161D01*
X039187Y024003D02*
X037729Y024003D01*
X037603Y023844D02*
X039324Y023844D01*
X039173Y023686D02*
X037753Y023686D01*
X037819Y023527D02*
X039102Y023527D01*
X039078Y023369D02*
X037838Y023369D01*
X037826Y023210D02*
X039096Y023210D01*
X039078Y023360D02*
X039958Y023360D01*
X039958Y023360D01*
X039078Y023360D01*
X039162Y023052D02*
X037760Y023052D01*
X037620Y022893D02*
X039300Y022893D01*
X039204Y022735D02*
X037708Y022735D01*
X037799Y022576D02*
X039118Y022576D01*
X039078Y022418D02*
X037837Y022418D01*
X037838Y022360D02*
X036958Y022360D01*
X036958Y022360D01*
X037838Y022360D01*
X037830Y022259D02*
X039078Y022259D01*
X039136Y022101D02*
X037780Y022101D01*
X037669Y021942D02*
X039248Y021942D01*
X039502Y021784D02*
X037406Y021784D01*
X036958Y021784D02*
X036958Y021784D01*
X036958Y021942D02*
X036958Y021942D01*
X036958Y022101D02*
X036958Y022101D01*
X036958Y022259D02*
X036958Y022259D01*
X039958Y023360D02*
X039958Y023360D01*
X040838Y023360D01*
X039958Y023360D01*
X040593Y023844D02*
X042284Y023844D01*
X042442Y023686D02*
X040743Y023686D01*
X040815Y023527D02*
X042444Y023527D01*
X042325Y023369D02*
X040838Y023369D01*
X040820Y023210D02*
X042272Y023210D01*
X042263Y023110D02*
X042833Y023110D01*
X042263Y023110D01*
X042265Y023052D02*
X040755Y023052D01*
X040616Y022893D02*
X041926Y022893D01*
X041767Y022735D02*
X040712Y022735D01*
X040798Y022576D02*
X041609Y022576D01*
X041450Y022418D02*
X040838Y022418D01*
X040838Y022259D02*
X041292Y022259D01*
X041133Y022101D02*
X040780Y022101D01*
X040669Y021942D02*
X040975Y021942D01*
X040816Y021784D02*
X040414Y021784D01*
X040958Y021360D02*
X030333Y021360D01*
X026958Y022360D02*
X025458Y023860D01*
X023458Y023860D01*
X023083Y024235D01*
X023083Y026985D01*
X023458Y027360D01*
X023958Y027360D01*
X024591Y026856D02*
X026325Y026856D01*
X026176Y027014D02*
X024741Y027014D01*
X024810Y027173D02*
X026107Y027173D01*
X026078Y027331D02*
X024838Y027331D01*
X024834Y027490D02*
X026083Y027490D01*
X026148Y027648D02*
X024768Y027648D01*
X024640Y027807D02*
X026276Y027807D01*
X026225Y027965D02*
X024692Y027965D01*
X024790Y028124D02*
X026127Y028124D01*
X026078Y028282D02*
X024838Y028282D01*
X024838Y028441D02*
X026078Y028441D01*
X026128Y028599D02*
X024789Y028599D01*
X024689Y028758D02*
X026227Y028758D01*
X026453Y028916D02*
X024464Y028916D01*
X024578Y029392D02*
X019558Y029392D01*
X019558Y029479D02*
X019467Y029700D01*
X019298Y029869D01*
X019078Y029960D01*
X018839Y029960D01*
X018618Y029869D01*
X018450Y029700D01*
X018358Y029479D01*
X018358Y029241D01*
X018450Y029020D01*
X018618Y028851D01*
X018839Y028760D01*
X019078Y028760D01*
X019298Y028851D01*
X019467Y029020D01*
X019558Y029241D01*
X019558Y029479D01*
X019529Y029550D02*
X024420Y029550D01*
X024358Y029709D02*
X019458Y029709D01*
X019300Y029867D02*
X024358Y029867D01*
X024958Y029860D02*
X025558Y029860D01*
X024958Y029860D01*
X024958Y029860D01*
X024958Y029709D02*
X024958Y029709D01*
X024958Y029550D02*
X024958Y029550D01*
X024958Y029392D02*
X024958Y029392D01*
X025338Y029392D02*
X026478Y029392D01*
X026478Y029233D02*
X019555Y029233D01*
X019490Y029075D02*
X026478Y029075D01*
X026420Y029550D02*
X025497Y029550D01*
X025558Y029709D02*
X026358Y029709D01*
X026358Y029867D02*
X025558Y029867D01*
X025558Y030026D02*
X026358Y030026D01*
X027537Y030130D02*
X030880Y030130D01*
X030858Y030109D01*
X030858Y029860D01*
X030858Y029611D01*
X031210Y029260D01*
X031458Y029260D01*
X031458Y029860D01*
X030858Y029860D01*
X031458Y029860D01*
X031458Y029860D01*
X031458Y029860D01*
X031458Y029260D01*
X031707Y029260D01*
X032058Y029611D01*
X032058Y029860D01*
X032058Y030109D01*
X032037Y030130D01*
X032880Y030130D01*
X032858Y030109D01*
X032858Y029611D01*
X032978Y029491D01*
X032978Y028927D01*
X032838Y028869D01*
X032670Y028700D01*
X032578Y028479D01*
X032578Y028260D01*
X031338Y028260D01*
X031338Y028479D01*
X031247Y028700D01*
X031078Y028869D01*
X030858Y028960D01*
X030059Y028960D01*
X029838Y028869D01*
X029730Y028760D01*
X027687Y028760D01*
X027578Y028869D01*
X027438Y028927D01*
X027438Y029491D01*
X027558Y029611D01*
X027558Y030109D01*
X027537Y030130D01*
X027558Y030026D02*
X030858Y030026D01*
X030858Y029867D02*
X027558Y029867D01*
X027558Y029709D02*
X030858Y029709D01*
X030920Y029550D02*
X027497Y029550D01*
X027438Y029392D02*
X031078Y029392D01*
X031458Y029392D02*
X031458Y029392D01*
X031458Y029550D02*
X031458Y029550D01*
X031458Y029709D02*
X031458Y029709D01*
X031458Y029860D02*
X031458Y029860D01*
X032058Y029860D01*
X031458Y029860D01*
X032058Y029867D02*
X032858Y029867D01*
X032858Y029709D02*
X032058Y029709D01*
X031997Y029550D02*
X032920Y029550D01*
X032978Y029392D02*
X031838Y029392D01*
X032058Y030026D02*
X032858Y030026D01*
X032978Y029233D02*
X027438Y029233D01*
X027438Y029075D02*
X032978Y029075D01*
X032953Y028916D02*
X030964Y028916D01*
X031189Y028758D02*
X032727Y028758D01*
X032628Y028599D02*
X031289Y028599D01*
X031338Y028441D02*
X032578Y028441D01*
X032578Y028282D02*
X031338Y028282D01*
X030458Y028360D02*
X026958Y028360D01*
X027458Y027860D02*
X032958Y027860D01*
X033458Y027360D01*
X034087Y027860D02*
X034247Y028020D01*
X034338Y028241D01*
X034338Y028479D01*
X034247Y028700D01*
X034078Y028869D01*
X033938Y028927D01*
X033938Y029491D01*
X034058Y029611D01*
X034058Y030109D01*
X034037Y030130D01*
X037380Y030130D01*
X037358Y030109D01*
X037358Y029860D01*
X037358Y029611D01*
X037710Y029260D01*
X037958Y029260D01*
X037958Y029860D01*
X037358Y029860D01*
X037958Y029860D01*
X037958Y029860D01*
X037958Y029860D01*
X037958Y029260D01*
X038207Y029260D01*
X038558Y029611D01*
X038558Y029860D01*
X038558Y030109D01*
X038537Y030130D01*
X039380Y030130D01*
X039358Y030109D01*
X039358Y029611D01*
X039478Y029491D01*
X039478Y028927D01*
X039338Y028869D01*
X039170Y028700D01*
X039078Y028479D01*
X039078Y028241D01*
X039170Y028020D01*
X039337Y027853D01*
X039287Y027818D01*
X039221Y027751D01*
X039165Y027674D01*
X039122Y027590D01*
X039093Y027500D01*
X039078Y027407D01*
X039078Y027360D01*
X039078Y027313D01*
X039087Y027260D01*
X037838Y027260D01*
X037838Y027479D01*
X037747Y027700D01*
X037587Y027860D01*
X037747Y028020D01*
X037838Y028241D01*
X037838Y028479D01*
X037747Y028700D01*
X037578Y028869D01*
X037358Y028960D01*
X036559Y028960D01*
X036338Y028869D01*
X036170Y028700D01*
X036078Y028479D01*
X036078Y028241D01*
X036170Y028020D01*
X036330Y027860D01*
X036170Y027700D01*
X036078Y027479D01*
X036078Y027260D01*
X034338Y027260D01*
X034338Y027479D01*
X034247Y027700D01*
X034087Y027860D01*
X034140Y027807D02*
X036276Y027807D01*
X036225Y027965D02*
X034192Y027965D01*
X034290Y028124D02*
X036127Y028124D01*
X036078Y028282D02*
X034338Y028282D01*
X034338Y028441D02*
X036078Y028441D01*
X036128Y028599D02*
X034289Y028599D01*
X034189Y028758D02*
X036227Y028758D01*
X036453Y028916D02*
X033964Y028916D01*
X033938Y029075D02*
X039478Y029075D01*
X039478Y029233D02*
X033938Y029233D01*
X033938Y029392D02*
X037578Y029392D01*
X037420Y029550D02*
X033997Y029550D01*
X034058Y029709D02*
X037358Y029709D01*
X037358Y029867D02*
X034058Y029867D01*
X034058Y030026D02*
X037358Y030026D01*
X037958Y029860D02*
X038558Y029860D01*
X037958Y029860D01*
X037958Y029860D01*
X037958Y029709D02*
X037958Y029709D01*
X037958Y029550D02*
X037958Y029550D01*
X037958Y029392D02*
X037958Y029392D01*
X038338Y029392D02*
X039478Y029392D01*
X039420Y029550D02*
X038497Y029550D01*
X038558Y029709D02*
X039358Y029709D01*
X039358Y029867D02*
X038558Y029867D01*
X038558Y030026D02*
X039358Y030026D01*
X039453Y028916D02*
X037464Y028916D01*
X037689Y028758D02*
X039227Y028758D01*
X039128Y028599D02*
X037789Y028599D01*
X037838Y028441D02*
X039078Y028441D01*
X039078Y028282D02*
X037838Y028282D01*
X037790Y028124D02*
X039127Y028124D01*
X039225Y027965D02*
X037692Y027965D01*
X037640Y027807D02*
X039276Y027807D01*
X039152Y027648D02*
X037768Y027648D01*
X037834Y027490D02*
X039091Y027490D01*
X039078Y027360D02*
X039958Y027360D01*
X039078Y027360D01*
X039078Y027331D02*
X037838Y027331D01*
X036148Y027648D02*
X034268Y027648D01*
X034334Y027490D02*
X036083Y027490D01*
X036078Y027331D02*
X034338Y027331D01*
X032458Y026360D02*
X030458Y026360D01*
X027958Y026360D01*
X026958Y025360D01*
X025958Y026360D01*
X023958Y026360D01*
X023958Y025360D02*
X025958Y025360D01*
X026958Y024360D01*
X027958Y025360D01*
X030458Y025360D01*
X032458Y025360D01*
X033458Y024360D01*
X033458Y025360D02*
X032458Y026360D01*
X029953Y028916D02*
X027464Y028916D01*
X027458Y027860D02*
X026958Y027360D01*
X027458Y026860D02*
X056208Y026860D01*
X059208Y026860D01*
X059208Y025360D01*
X058803Y024637D02*
X058613Y024637D01*
X057803Y024637D02*
X057613Y024637D01*
X057208Y024860D02*
X057208Y025360D01*
X057208Y024860D02*
X056458Y024110D01*
X055583Y024110D01*
X053583Y026110D01*
X047708Y026110D01*
X046958Y025360D01*
X046958Y023860D01*
X046708Y023610D01*
X046243Y023210D02*
X046043Y023010D01*
X043395Y023010D01*
X043403Y023065D01*
X043403Y023110D01*
X043403Y023155D01*
X043395Y023210D01*
X046243Y023210D01*
X046084Y023052D02*
X043401Y023052D01*
X043403Y023110D02*
X042833Y023110D01*
X042833Y023110D01*
X043403Y023110D01*
X042833Y023110D02*
X042833Y023110D01*
X042208Y022610D02*
X040958Y021360D01*
X041159Y021010D02*
X041185Y021021D01*
X041297Y021133D01*
X042374Y022210D01*
X042771Y022210D01*
X042728Y022196D01*
X042644Y022153D01*
X042567Y022098D01*
X042501Y022031D01*
X042445Y021954D01*
X042402Y021870D01*
X042373Y021780D01*
X042358Y021687D01*
X042358Y021360D01*
X042358Y021033D01*
X042362Y021010D01*
X041159Y021010D01*
X041314Y021150D02*
X042358Y021150D01*
X042358Y021308D02*
X041472Y021308D01*
X041631Y021467D02*
X042358Y021467D01*
X042358Y021360D02*
X042958Y021360D01*
X042358Y021360D01*
X042358Y021625D02*
X041789Y021625D01*
X041948Y021784D02*
X042374Y021784D01*
X042439Y021942D02*
X042106Y021942D01*
X042265Y022101D02*
X042571Y022101D01*
X042208Y022610D02*
X046208Y022610D01*
X048958Y025360D01*
X049363Y024637D02*
X049553Y024637D01*
X050363Y024637D02*
X050553Y024637D01*
X050958Y024637D02*
X050958Y024637D01*
X050958Y024795D02*
X050958Y024795D01*
X050958Y024954D02*
X050958Y024954D01*
X050958Y025112D02*
X050958Y025112D01*
X050958Y025271D02*
X050958Y025271D01*
X051363Y024637D02*
X051553Y024637D01*
X051083Y022485D02*
X049958Y021360D01*
X049458Y020610D02*
X048958Y021110D01*
X048958Y021360D01*
X048958Y020610D02*
X048458Y020610D01*
X047958Y021110D01*
X047958Y021360D01*
X047958Y020610D02*
X047458Y020610D01*
X046958Y021110D01*
X046958Y021360D01*
X046958Y020610D02*
X046458Y020610D01*
X045958Y021110D01*
X045958Y021360D01*
X045958Y020610D02*
X045458Y020610D01*
X044958Y021110D01*
X044958Y021360D01*
X044958Y020610D02*
X007833Y020610D01*
X007333Y020110D02*
X006833Y019610D01*
X006358Y020040D02*
X006188Y020040D01*
X006188Y019882D02*
X006200Y019882D01*
X006188Y019723D02*
X006193Y019723D01*
X006188Y019565D02*
X006193Y019565D01*
X006188Y019406D02*
X006193Y019406D01*
X006188Y019248D02*
X006291Y019248D01*
X006188Y019089D02*
X006407Y019089D01*
X006249Y018931D02*
X006188Y018931D01*
X006188Y018772D02*
X006193Y018772D01*
X006188Y018614D02*
X006193Y018614D01*
X006188Y018455D02*
X006193Y018455D01*
X006188Y018297D02*
X006242Y018297D01*
X006188Y018138D02*
X006400Y018138D01*
X006298Y017980D02*
X006188Y017980D01*
X006188Y017821D02*
X006193Y017821D01*
X006188Y017663D02*
X006193Y017663D01*
X006188Y017504D02*
X006193Y017504D01*
X006188Y017346D02*
X006193Y017346D01*
X006188Y017187D02*
X006351Y017187D01*
X006347Y017029D02*
X006188Y017029D01*
X006188Y016870D02*
X006193Y016870D01*
X006188Y016712D02*
X006193Y016712D01*
X006188Y016553D02*
X006193Y016553D01*
X006188Y016395D02*
X006193Y016395D01*
X006188Y016236D02*
X006302Y016236D01*
X006396Y016078D02*
X006188Y016078D01*
X006188Y015919D02*
X006237Y015919D01*
X006193Y015761D02*
X006188Y015761D01*
X006188Y015602D02*
X006193Y015602D01*
X006188Y015444D02*
X006193Y015444D01*
X006188Y015285D02*
X006253Y015285D01*
X006188Y015127D02*
X006412Y015127D01*
X006286Y014968D02*
X006188Y014968D01*
X006188Y014810D02*
X006193Y014810D01*
X006188Y014651D02*
X006193Y014651D01*
X006188Y014493D02*
X006193Y014493D01*
X006188Y014334D02*
X006204Y014334D01*
X006188Y014176D02*
X006363Y014176D01*
X006335Y014017D02*
X006188Y014017D01*
X006188Y013859D02*
X006193Y013859D01*
X006188Y013700D02*
X006193Y013700D01*
X006833Y013610D02*
X007583Y012860D01*
X009458Y012860D01*
X009708Y013110D01*
X040583Y013110D01*
X041333Y012360D01*
X043208Y012360D01*
X043958Y013110D01*
X044458Y013860D02*
X009708Y013860D01*
X008958Y014610D01*
X007833Y014610D01*
X007333Y015110D02*
X006833Y014610D01*
X007333Y015110D02*
X008958Y015110D01*
X009833Y014235D01*
X044583Y014235D01*
X044958Y013860D01*
X045458Y013860D01*
X045958Y013360D01*
X045958Y013110D01*
X045958Y013860D02*
X045583Y014235D01*
X045083Y014235D01*
X044708Y014610D01*
X009958Y014610D01*
X008958Y015610D01*
X007833Y015610D01*
X007333Y016110D02*
X006833Y015610D01*
X007333Y016110D02*
X008958Y016110D01*
X010083Y014985D01*
X044833Y014985D01*
X045208Y014610D01*
X045708Y014610D01*
X046083Y014235D01*
X046583Y014235D01*
X046958Y013860D01*
X047458Y013860D01*
X047958Y013360D01*
X047958Y013110D01*
X047958Y013860D02*
X047583Y014235D01*
X047083Y014235D01*
X046708Y014610D01*
X046208Y014610D01*
X045833Y014985D01*
X045333Y014985D01*
X044958Y015360D01*
X010208Y015360D01*
X008958Y016610D01*
X007833Y016610D01*
X007333Y017110D02*
X009583Y017110D01*
X010333Y016360D01*
X039708Y016360D01*
X039302Y015960D02*
X010413Y015960D01*
X010254Y015960D01*
X010118Y016016D01*
X010374Y015760D01*
X042362Y015760D01*
X042358Y015783D01*
X042358Y016110D01*
X042958Y016110D01*
X042958Y016110D01*
X042358Y016110D01*
X042358Y016437D01*
X042373Y016530D01*
X042402Y016620D01*
X042445Y016704D01*
X042501Y016781D01*
X042555Y016835D01*
X040899Y016835D01*
X040955Y016795D01*
X041018Y016731D01*
X041071Y016659D01*
X041112Y016579D01*
X041139Y016493D01*
X041153Y016405D01*
X041153Y016360D01*
X040583Y016360D01*
X040583Y016360D01*
X040583Y015790D01*
X040538Y015790D01*
X040450Y015804D01*
X040365Y015832D01*
X040285Y015872D01*
X040212Y015925D01*
X040149Y015989D01*
X040146Y015992D01*
X040031Y015877D01*
X039822Y015790D01*
X039595Y015790D01*
X039385Y015877D01*
X039302Y015960D01*
X039343Y015919D02*
X010215Y015919D01*
X010374Y015761D02*
X042362Y015761D01*
X042358Y015919D02*
X040946Y015919D01*
X040955Y015925D02*
X041018Y015989D01*
X041071Y016061D01*
X041112Y016141D01*
X041139Y016227D01*
X041153Y016315D01*
X041153Y016360D01*
X040583Y016360D01*
X040583Y015790D01*
X040628Y015790D01*
X040717Y015804D01*
X040802Y015832D01*
X040882Y015872D01*
X040955Y015925D01*
X041079Y016078D02*
X042358Y016078D01*
X042358Y016236D02*
X041141Y016236D01*
X041153Y016395D02*
X042358Y016395D01*
X042380Y016553D02*
X041120Y016553D01*
X041033Y016712D02*
X042450Y016712D01*
X043208Y017610D02*
X010958Y017610D01*
X010708Y018360D02*
X009958Y017610D01*
X007833Y017610D01*
X007333Y017110D02*
X006833Y016610D01*
X006833Y018610D02*
X007333Y019110D01*
X010083Y019110D01*
X010458Y019485D01*
X044583Y019485D01*
X044958Y019110D01*
X045208Y019110D01*
X045958Y018360D01*
X046208Y019110D02*
X046958Y018360D01*
X047208Y019110D02*
X047958Y018360D01*
X047958Y019110D02*
X047583Y019485D01*
X047083Y019485D01*
X046708Y019860D01*
X046208Y019860D01*
X045833Y020235D01*
X045333Y020235D01*
X044958Y020610D01*
X044833Y020235D02*
X010208Y020235D01*
X010083Y020110D01*
X007333Y020110D01*
X006833Y020610D02*
X007458Y021235D01*
X016208Y021235D01*
X016043Y021784D02*
X006188Y021784D01*
X006188Y021942D02*
X023248Y021942D01*
X023137Y022101D02*
X006188Y022101D01*
X006188Y021625D02*
X007355Y021625D01*
X007124Y021467D02*
X006188Y021467D01*
X006188Y021308D02*
X006966Y021308D01*
X006468Y021150D02*
X006188Y021150D01*
X006188Y020991D02*
X006309Y020991D01*
X006193Y020833D02*
X006188Y020833D01*
X006188Y020674D02*
X006193Y020674D01*
X006188Y020516D02*
X006193Y020516D01*
X006188Y020357D02*
X006193Y020357D01*
X006188Y020199D02*
X006340Y020199D01*
X007833Y019610D02*
X010083Y019610D01*
X010333Y019860D01*
X044708Y019860D01*
X045083Y019485D01*
X045583Y019485D01*
X045958Y019110D01*
X046208Y019110D01*
X046083Y019485D02*
X045708Y019860D01*
X045208Y019860D01*
X044833Y020235D01*
X045958Y020610D02*
X046333Y020235D01*
X046833Y020235D01*
X047208Y019860D01*
X047708Y019860D01*
X048083Y019485D01*
X048583Y019485D01*
X048958Y019110D01*
X056958Y019110D01*
X058458Y017610D01*
X060333Y017610D01*
X060833Y017110D02*
X056958Y017110D01*
X056546Y017504D02*
X055105Y017504D01*
X055067Y017412D02*
X055153Y017622D01*
X055153Y017816D01*
X055210Y017760D01*
X055458Y017760D01*
X055458Y018360D01*
X054858Y018360D01*
X054858Y018238D01*
X054697Y018305D01*
X054470Y018305D01*
X054260Y018218D01*
X054177Y018135D01*
X054058Y018135D01*
X054058Y018609D01*
X053957Y018710D01*
X054960Y018710D01*
X054858Y018609D01*
X054858Y018360D01*
X055458Y018360D01*
X055458Y018360D01*
X055458Y018360D01*
X055458Y017760D01*
X055707Y017760D01*
X056058Y018111D01*
X056058Y018360D01*
X056058Y018609D01*
X055957Y018710D01*
X056793Y018710D01*
X057993Y017510D01*
X057364Y017510D01*
X057281Y017593D01*
X057072Y017680D01*
X056845Y017680D01*
X056635Y017593D01*
X056475Y017433D01*
X056388Y017223D01*
X056388Y017010D01*
X054607Y017010D01*
X054653Y017122D01*
X054653Y017165D01*
X054697Y017165D01*
X054906Y017252D01*
X055067Y017412D01*
X055000Y017346D02*
X056439Y017346D01*
X056388Y017187D02*
X054750Y017187D01*
X054615Y017029D02*
X056388Y017029D01*
X056803Y017663D02*
X055153Y017663D01*
X055458Y017821D02*
X055458Y017821D01*
X055458Y017980D02*
X055458Y017980D01*
X055458Y018138D02*
X055458Y018138D01*
X055458Y018297D02*
X055458Y018297D01*
X055458Y018360D02*
X055458Y018360D01*
X056058Y018360D01*
X055458Y018360D01*
X054858Y018297D02*
X054717Y018297D01*
X054858Y018455D02*
X054058Y018455D01*
X054058Y018297D02*
X054449Y018297D01*
X054180Y018138D02*
X054058Y018138D01*
X054053Y018614D02*
X054863Y018614D01*
X054583Y017735D02*
X053208Y017735D01*
X053083Y017610D01*
X050958Y017610D01*
X050208Y016860D01*
X044583Y016860D01*
X043958Y016235D01*
X043958Y016110D01*
X044958Y016110D02*
X044958Y015860D01*
X045458Y015360D01*
X045958Y015360D01*
X046333Y014985D01*
X046833Y014985D01*
X047208Y014610D01*
X047708Y014610D01*
X048083Y014235D01*
X048583Y014235D01*
X048958Y013860D01*
X055708Y013860D01*
X055958Y013610D01*
X060333Y013610D01*
X060833Y014110D02*
X055958Y014110D01*
X055833Y014235D01*
X049083Y014235D01*
X048708Y014610D01*
X048208Y014610D01*
X047833Y014985D01*
X047333Y014985D01*
X046958Y015360D01*
X046458Y015360D01*
X045958Y015860D01*
X045958Y016110D01*
X046958Y016110D02*
X046958Y015860D01*
X047458Y015360D01*
X047958Y015360D01*
X048333Y014985D01*
X048833Y014985D01*
X049208Y014610D01*
X060333Y014610D01*
X060833Y014110D02*
X061333Y014610D01*
X061833Y014610D01*
X062333Y015110D01*
X065333Y015110D01*
X065833Y014610D01*
X066297Y014176D02*
X067553Y014176D01*
X067553Y014334D02*
X066455Y014334D01*
X066468Y014347D02*
X066468Y014873D01*
X066231Y015110D01*
X066468Y015347D01*
X066468Y015873D01*
X066231Y016110D01*
X066468Y016347D01*
X066468Y016873D01*
X066231Y017110D01*
X066468Y017347D01*
X066468Y017873D01*
X066231Y018110D01*
X066468Y018347D01*
X066468Y018873D01*
X066231Y019110D01*
X066468Y019347D01*
X066468Y019873D01*
X066231Y020110D01*
X066468Y020347D01*
X066468Y020873D01*
X066231Y021110D01*
X066468Y021347D01*
X066468Y021873D01*
X066231Y022110D01*
X066468Y022347D01*
X066468Y022873D01*
X066231Y023110D01*
X066468Y023347D01*
X066468Y023873D01*
X066231Y024110D01*
X066468Y024347D01*
X066468Y024873D01*
X066231Y025110D01*
X066468Y025347D01*
X066468Y025873D01*
X066231Y026110D01*
X066468Y026347D01*
X066468Y026873D01*
X066231Y027110D01*
X066468Y027347D01*
X066468Y027873D01*
X066231Y028110D01*
X066468Y028347D01*
X066468Y028873D01*
X066231Y029110D01*
X066468Y029347D01*
X066468Y029873D01*
X066231Y030110D01*
X066468Y030347D01*
X066468Y030873D01*
X066231Y031110D01*
X066468Y031347D01*
X066468Y031873D01*
X066231Y032110D01*
X066468Y032347D01*
X066468Y032873D01*
X066231Y033110D01*
X066468Y033347D01*
X066468Y033873D01*
X066231Y034110D01*
X066468Y034347D01*
X066468Y034873D01*
X066231Y035110D01*
X066468Y035347D01*
X066468Y035873D01*
X066231Y036110D01*
X066468Y036347D01*
X066468Y036873D01*
X066231Y037110D01*
X066468Y037347D01*
X066468Y037873D01*
X066231Y038110D01*
X066468Y038347D01*
X066468Y038873D01*
X066231Y039110D01*
X066468Y039347D01*
X066468Y039873D01*
X066231Y040110D01*
X066468Y040347D01*
X066468Y040873D01*
X066231Y041110D01*
X066468Y041347D01*
X066468Y041600D01*
X065843Y041600D01*
X065843Y041620D01*
X065823Y041620D01*
X065823Y041600D01*
X065198Y041600D01*
X065198Y041510D01*
X064468Y041510D01*
X064468Y041600D01*
X063843Y041600D01*
X063843Y041620D01*
X063823Y041620D01*
X063823Y041600D01*
X063198Y041600D01*
X063198Y041416D01*
X063168Y041385D01*
X062129Y041385D01*
X061982Y041324D01*
X061753Y041095D01*
X061598Y041250D01*
X061068Y041250D01*
X060833Y041015D01*
X060598Y041250D01*
X060068Y041250D01*
X059828Y041010D01*
X059157Y041010D01*
X058957Y041210D01*
X058674Y041210D01*
X058547Y041337D01*
X058435Y041449D01*
X058288Y041510D01*
X054963Y041510D01*
X054963Y041729D01*
X054872Y041950D01*
X054703Y042119D01*
X054563Y042177D01*
X054563Y042866D01*
X054683Y042986D01*
X054683Y043484D01*
X054563Y043604D01*
X054563Y044330D01*
X054490Y044507D01*
X054355Y044642D01*
X053480Y045517D01*
X053304Y045590D01*
X013113Y045590D01*
X012936Y045517D01*
X010385Y042965D01*
X009938Y042965D01*
X009938Y043185D01*
X010098Y043345D01*
X010098Y043875D01*
X009938Y044035D01*
X009938Y044185D01*
X010098Y044345D01*
X010098Y044875D01*
X009723Y045250D01*
X009193Y045250D01*
X009033Y045090D01*
X008883Y045090D01*
X008723Y045250D01*
X008193Y045250D01*
X007818Y044875D01*
X007818Y044345D01*
X008053Y044110D01*
X007818Y043875D01*
X007818Y043345D01*
X008193Y042970D01*
X008723Y042970D01*
X008883Y043130D01*
X008978Y043130D01*
X008978Y042965D01*
X006613Y042965D01*
X006436Y042892D01*
X006301Y042757D01*
X005313Y041769D01*
X005313Y046420D01*
X067553Y046420D01*
X067553Y045205D01*
X067360Y045398D01*
X067018Y045540D01*
X066648Y045540D01*
X066307Y045398D01*
X066045Y045137D01*
X065903Y044795D01*
X065903Y044425D01*
X066045Y044083D01*
X066307Y043822D01*
X066648Y043680D01*
X067018Y043680D01*
X067360Y043822D01*
X067553Y044015D01*
X067553Y010205D01*
X067360Y010398D01*
X067018Y010540D01*
X066648Y010540D01*
X066307Y010398D01*
X066045Y010137D01*
X065903Y009795D01*
X065903Y009425D01*
X066045Y009083D01*
X066307Y008822D01*
X066648Y008680D01*
X067018Y008680D01*
X067360Y008822D01*
X067553Y009015D01*
X067553Y007800D01*
X064077Y007800D01*
X064730Y008453D01*
X064865Y008588D01*
X064938Y008765D01*
X064938Y009192D01*
X064997Y009250D01*
X065093Y009484D01*
X065093Y009736D01*
X064997Y009970D01*
X064938Y010028D01*
X064938Y011080D01*
X064865Y011257D01*
X064468Y011654D01*
X064468Y011873D01*
X064313Y012028D01*
X064313Y012130D01*
X065353Y012130D01*
X065353Y012028D01*
X065198Y011873D01*
X065198Y011347D01*
X065570Y010975D01*
X066096Y010975D01*
X066468Y011347D01*
X066468Y011873D01*
X066313Y012028D01*
X066313Y012192D01*
X066468Y012347D01*
X066468Y012873D01*
X066231Y013110D01*
X066468Y013347D01*
X066468Y013873D01*
X066231Y014110D01*
X066468Y014347D01*
X066468Y014493D02*
X067553Y014493D01*
X067553Y014651D02*
X066468Y014651D01*
X066468Y014810D02*
X067553Y014810D01*
X067553Y014968D02*
X066373Y014968D01*
X066248Y015127D02*
X067553Y015127D01*
X067553Y015285D02*
X066406Y015285D01*
X066468Y015444D02*
X067553Y015444D01*
X067553Y015602D02*
X066468Y015602D01*
X066468Y015761D02*
X067553Y015761D01*
X067553Y015919D02*
X066422Y015919D01*
X066264Y016078D02*
X067553Y016078D01*
X067553Y016236D02*
X066357Y016236D01*
X066468Y016395D02*
X067553Y016395D01*
X067553Y016553D02*
X066468Y016553D01*
X066468Y016712D02*
X067553Y016712D01*
X067553Y016870D02*
X066468Y016870D01*
X066313Y017029D02*
X067553Y017029D01*
X067553Y017187D02*
X066308Y017187D01*
X066467Y017346D02*
X067553Y017346D01*
X067553Y017504D02*
X066468Y017504D01*
X066468Y017663D02*
X067553Y017663D01*
X067553Y017821D02*
X066468Y017821D01*
X066362Y017980D02*
X067553Y017980D01*
X067553Y018138D02*
X066259Y018138D01*
X066418Y018297D02*
X067553Y018297D01*
X067553Y018455D02*
X066468Y018455D01*
X066468Y018614D02*
X067553Y018614D01*
X067553Y018772D02*
X066468Y018772D01*
X066411Y018931D02*
X067553Y018931D01*
X067553Y019089D02*
X066252Y019089D01*
X066369Y019248D02*
X067553Y019248D01*
X067553Y019406D02*
X066468Y019406D01*
X066468Y019565D02*
X067553Y019565D01*
X067553Y019723D02*
X066468Y019723D01*
X066460Y019882D02*
X067553Y019882D01*
X067553Y020040D02*
X066301Y020040D01*
X066320Y020199D02*
X067553Y020199D01*
X067553Y020357D02*
X066468Y020357D01*
X066468Y020516D02*
X067553Y020516D01*
X067553Y020674D02*
X066468Y020674D01*
X066468Y020833D02*
X067553Y020833D01*
X067553Y020991D02*
X066350Y020991D01*
X066271Y021150D02*
X067553Y021150D01*
X067553Y021308D02*
X066429Y021308D01*
X066468Y021467D02*
X067553Y021467D01*
X067553Y021625D02*
X066468Y021625D01*
X066468Y021784D02*
X067553Y021784D01*
X067553Y021942D02*
X066399Y021942D01*
X066241Y022101D02*
X067553Y022101D01*
X067553Y022259D02*
X066380Y022259D01*
X066468Y022418D02*
X067553Y022418D01*
X067553Y022576D02*
X066468Y022576D01*
X066468Y022735D02*
X067553Y022735D01*
X067553Y022893D02*
X066448Y022893D01*
X066290Y023052D02*
X067553Y023052D01*
X067553Y023210D02*
X066331Y023210D01*
X066468Y023369D02*
X067553Y023369D01*
X067553Y023527D02*
X066468Y023527D01*
X066468Y023686D02*
X067553Y023686D01*
X067553Y023844D02*
X066468Y023844D01*
X066339Y024003D02*
X067553Y024003D01*
X067553Y024161D02*
X066282Y024161D01*
X066441Y024320D02*
X067553Y024320D01*
X067553Y024478D02*
X066468Y024478D01*
X066468Y024637D02*
X067553Y024637D01*
X067553Y024795D02*
X066468Y024795D01*
X066388Y024954D02*
X067553Y024954D01*
X067553Y025112D02*
X066233Y025112D01*
X066392Y025271D02*
X067553Y025271D01*
X067553Y025429D02*
X066468Y025429D01*
X066468Y025588D02*
X067553Y025588D01*
X067553Y025746D02*
X066468Y025746D01*
X066437Y025905D02*
X067553Y025905D01*
X067553Y026063D02*
X066278Y026063D01*
X066343Y026222D02*
X067553Y026222D01*
X067553Y026380D02*
X066468Y026380D01*
X066468Y026539D02*
X067553Y026539D01*
X067553Y026697D02*
X066468Y026697D01*
X066468Y026856D02*
X067553Y026856D01*
X067553Y027014D02*
X066327Y027014D01*
X066294Y027173D02*
X067553Y027173D01*
X067553Y027331D02*
X066452Y027331D01*
X066468Y027490D02*
X067553Y027490D01*
X067553Y027648D02*
X066468Y027648D01*
X066468Y027807D02*
X067553Y027807D01*
X067553Y027965D02*
X066376Y027965D01*
X066245Y028124D02*
X067553Y028124D01*
X067553Y028282D02*
X066403Y028282D01*
X066468Y028441D02*
X067553Y028441D01*
X067553Y028599D02*
X066468Y028599D01*
X066468Y028758D02*
X067553Y028758D01*
X067553Y028916D02*
X066425Y028916D01*
X066267Y029075D02*
X067553Y029075D01*
X067553Y029233D02*
X066354Y029233D01*
X066468Y029392D02*
X067553Y029392D01*
X067553Y029550D02*
X066468Y029550D01*
X066468Y029709D02*
X067553Y029709D01*
X067553Y029867D02*
X066468Y029867D01*
X066316Y030026D02*
X067553Y030026D01*
X067553Y030184D02*
X066305Y030184D01*
X066464Y030343D02*
X067553Y030343D01*
X067553Y030501D02*
X066468Y030501D01*
X066468Y030660D02*
X067553Y030660D01*
X067553Y030818D02*
X066468Y030818D01*
X066365Y030977D02*
X067553Y030977D01*
X067553Y031135D02*
X066256Y031135D01*
X066415Y031294D02*
X067553Y031294D01*
X067553Y031452D02*
X066468Y031452D01*
X066468Y031611D02*
X067553Y031611D01*
X067553Y031769D02*
X066468Y031769D01*
X066414Y031928D02*
X067553Y031928D01*
X067553Y032086D02*
X066255Y032086D01*
X066366Y032245D02*
X067553Y032245D01*
X067553Y032403D02*
X066468Y032403D01*
X066468Y032562D02*
X067553Y032562D01*
X067553Y032720D02*
X066468Y032720D01*
X066463Y032879D02*
X067553Y032879D01*
X067553Y033037D02*
X066304Y033037D01*
X066317Y033196D02*
X067553Y033196D01*
X067553Y033354D02*
X066468Y033354D01*
X066468Y033513D02*
X067553Y033513D01*
X067553Y033671D02*
X066468Y033671D01*
X066468Y033830D02*
X067553Y033830D01*
X067553Y033988D02*
X066353Y033988D01*
X066268Y034147D02*
X067553Y034147D01*
X067553Y034305D02*
X066426Y034305D01*
X066468Y034464D02*
X067553Y034464D01*
X067553Y034622D02*
X066468Y034622D01*
X066468Y034781D02*
X067553Y034781D01*
X067553Y034939D02*
X066402Y034939D01*
X066244Y035098D02*
X067553Y035098D01*
X067553Y035256D02*
X066377Y035256D01*
X066468Y035415D02*
X067553Y035415D01*
X067553Y035573D02*
X066468Y035573D01*
X066468Y035732D02*
X067553Y035732D01*
X067553Y035890D02*
X066451Y035890D01*
X066293Y036049D02*
X067553Y036049D01*
X067553Y036207D02*
X066328Y036207D01*
X066468Y036366D02*
X067553Y036366D01*
X067553Y036524D02*
X066468Y036524D01*
X066468Y036683D02*
X067553Y036683D01*
X067553Y036841D02*
X066468Y036841D01*
X066342Y037000D02*
X067553Y037000D01*
X067553Y037158D02*
X066279Y037158D01*
X066438Y037317D02*
X067553Y037317D01*
X067553Y037475D02*
X066468Y037475D01*
X066468Y037634D02*
X067553Y037634D01*
X067553Y037792D02*
X066468Y037792D01*
X066391Y037951D02*
X067553Y037951D01*
X067553Y038109D02*
X066232Y038109D01*
X066389Y038268D02*
X067553Y038268D01*
X067553Y038426D02*
X066468Y038426D01*
X066468Y038585D02*
X067553Y038585D01*
X067553Y038743D02*
X066468Y038743D01*
X066440Y038902D02*
X067553Y038902D01*
X067553Y039060D02*
X066281Y039060D01*
X066340Y039219D02*
X067553Y039219D01*
X067553Y039377D02*
X066468Y039377D01*
X066468Y039536D02*
X067553Y039536D01*
X067553Y039694D02*
X066468Y039694D01*
X066468Y039853D02*
X067553Y039853D01*
X067553Y040011D02*
X066330Y040011D01*
X066291Y040170D02*
X067553Y040170D01*
X067553Y040328D02*
X066449Y040328D01*
X066468Y040487D02*
X067553Y040487D01*
X067553Y040645D02*
X066468Y040645D01*
X066468Y040804D02*
X067553Y040804D01*
X067553Y040962D02*
X066379Y040962D01*
X066242Y041121D02*
X067553Y041121D01*
X067553Y041279D02*
X066400Y041279D01*
X066468Y041438D02*
X067553Y041438D01*
X067553Y041596D02*
X066468Y041596D01*
X066468Y041620D02*
X066468Y041873D01*
X066229Y042112D01*
X066247Y042126D01*
X066318Y042196D01*
X066376Y042277D01*
X066422Y042366D01*
X066453Y042461D01*
X066468Y042560D01*
X066468Y042600D01*
X065843Y042600D01*
X065843Y041620D01*
X066468Y041620D01*
X066468Y041755D02*
X067553Y041755D01*
X067553Y041913D02*
X066428Y041913D01*
X066270Y042072D02*
X067553Y042072D01*
X067553Y042230D02*
X066342Y042230D01*
X066429Y042389D02*
X067553Y042389D01*
X067553Y042547D02*
X066466Y042547D01*
X066468Y042620D02*
X066468Y042660D01*
X066453Y042759D01*
X066422Y042854D01*
X066376Y042943D01*
X066318Y043024D01*
X066247Y043094D01*
X066166Y043153D01*
X066077Y043198D01*
X065982Y043229D01*
X065883Y043245D01*
X065843Y043245D01*
X065843Y042620D01*
X065823Y042620D01*
X065823Y042600D01*
X065198Y042600D01*
X065198Y042560D01*
X065214Y042461D01*
X065245Y042366D01*
X065290Y042277D01*
X065349Y042196D01*
X065420Y042126D01*
X065438Y042112D01*
X065198Y041873D01*
X065198Y041620D01*
X065823Y041620D01*
X065823Y042245D01*
X065823Y042600D01*
X065843Y042600D01*
X065843Y042620D01*
X066468Y042620D01*
X066461Y042706D02*
X067553Y042706D01*
X067553Y042864D02*
X066417Y042864D01*
X066318Y043023D02*
X067553Y043023D01*
X067553Y043181D02*
X066111Y043181D01*
X065843Y043181D02*
X065823Y043181D01*
X065823Y043245D02*
X065783Y043245D01*
X065685Y043229D01*
X065590Y043198D01*
X065501Y043153D01*
X065420Y043094D01*
X065349Y043024D01*
X065290Y042943D01*
X065245Y042854D01*
X065214Y042759D01*
X065198Y042660D01*
X065198Y042620D01*
X065823Y042620D01*
X065823Y043245D01*
X065823Y043023D02*
X065843Y043023D01*
X065843Y042864D02*
X065823Y042864D01*
X065823Y042706D02*
X065843Y042706D01*
X065843Y042547D02*
X065823Y042547D01*
X065823Y042389D02*
X065843Y042389D01*
X065843Y042230D02*
X065823Y042230D01*
X065823Y042072D02*
X065843Y042072D01*
X065843Y041913D02*
X065823Y041913D01*
X065823Y041755D02*
X065843Y041755D01*
X065397Y042072D02*
X064270Y042072D01*
X064231Y042110D02*
X064468Y042347D01*
X064468Y042600D01*
X063843Y042600D01*
X063843Y041620D01*
X064468Y041620D01*
X064468Y041873D01*
X064231Y042110D01*
X064351Y042230D02*
X065324Y042230D01*
X065238Y042389D02*
X064468Y042389D01*
X064468Y042547D02*
X065200Y042547D01*
X065206Y042706D02*
X064468Y042706D01*
X064468Y042620D02*
X064468Y042873D01*
X064096Y043245D01*
X063843Y043245D01*
X063843Y042620D01*
X063823Y042620D01*
X063823Y042600D01*
X063198Y042600D01*
X063198Y042347D01*
X063435Y042110D01*
X063198Y041873D01*
X063198Y041620D01*
X063823Y041620D01*
X063823Y042245D01*
X063823Y042600D01*
X063843Y042600D01*
X063843Y042620D01*
X064468Y042620D01*
X064468Y042864D02*
X065250Y042864D01*
X065348Y043023D02*
X064319Y043023D01*
X064160Y043181D02*
X065555Y043181D01*
X066322Y043815D02*
X061973Y043815D01*
X061973Y043875D02*
X061738Y044110D01*
X061973Y044345D01*
X061973Y044590D01*
X061353Y044590D01*
X061353Y043970D01*
X061353Y043630D01*
X061313Y043630D01*
X061313Y043590D01*
X060693Y043590D01*
X060353Y043590D01*
X060353Y042970D01*
X060598Y042970D01*
X060833Y043205D01*
X061068Y042970D01*
X061313Y042970D01*
X061313Y043590D01*
X061353Y043590D01*
X061353Y042970D01*
X061598Y042970D01*
X061973Y043345D01*
X061973Y043590D01*
X061353Y043590D01*
X061353Y043630D01*
X061973Y043630D01*
X061973Y043875D01*
X061875Y043974D02*
X066155Y043974D01*
X066025Y044132D02*
X061760Y044132D01*
X061919Y044291D02*
X065959Y044291D01*
X065903Y044449D02*
X061973Y044449D01*
X061973Y044630D02*
X061353Y044630D01*
X061313Y044630D01*
X061313Y044590D01*
X060693Y044590D01*
X060353Y044590D01*
X060353Y043970D01*
X060353Y043630D01*
X060313Y043630D01*
X060313Y043590D01*
X059693Y043590D01*
X059693Y043345D01*
X060068Y042970D01*
X060313Y042970D01*
X060313Y043590D01*
X060353Y043590D01*
X060353Y043630D01*
X061313Y043630D01*
X061313Y044590D01*
X061353Y044590D01*
X061353Y044630D01*
X061353Y045250D01*
X061598Y045250D01*
X061973Y044875D01*
X061973Y044630D01*
X061973Y044766D02*
X065903Y044766D01*
X065903Y044608D02*
X061353Y044608D01*
X061313Y044608D02*
X060353Y044608D01*
X060353Y044590D02*
X060353Y044630D01*
X060313Y044630D01*
X060313Y044590D01*
X059693Y044590D01*
X059693Y044345D01*
X059928Y044110D01*
X059693Y043875D01*
X059693Y043630D01*
X060313Y043630D01*
X060313Y044590D01*
X060353Y044590D01*
X060353Y044630D02*
X061313Y044630D01*
X061313Y045250D01*
X061068Y045250D01*
X060833Y045015D01*
X060598Y045250D01*
X060353Y045250D01*
X060353Y044630D01*
X060313Y044630D02*
X060313Y045250D01*
X060068Y045250D01*
X059693Y044875D01*
X059693Y044630D01*
X060313Y044630D01*
X060313Y044608D02*
X058612Y044608D01*
X058612Y044766D02*
X059693Y044766D01*
X059743Y044925D02*
X058612Y044925D01*
X058612Y045083D02*
X059901Y045083D01*
X060060Y045242D02*
X058562Y045242D01*
X058546Y045281D02*
X058423Y045403D01*
X058211Y045615D01*
X058052Y045681D01*
X057455Y045681D01*
X057409Y045662D01*
X057295Y045615D01*
X057173Y045492D01*
X057083Y045403D01*
X057017Y045337D01*
X056953Y045492D01*
X056830Y045615D01*
X056670Y045681D01*
X056497Y045681D01*
X056372Y045629D01*
X056247Y045681D01*
X056074Y045681D01*
X055914Y045615D01*
X055791Y045492D01*
X055725Y045333D01*
X055725Y045201D01*
X055702Y045191D01*
X055580Y045069D01*
X055513Y044909D01*
X055513Y044736D01*
X055565Y044611D01*
X055513Y044485D01*
X055513Y044312D01*
X055580Y044152D01*
X055702Y044030D01*
X055725Y044020D01*
X055725Y043888D01*
X055791Y043729D01*
X055914Y043606D01*
X056074Y043540D01*
X056247Y043540D01*
X056372Y043592D01*
X056497Y043540D01*
X056670Y043540D01*
X056830Y043606D01*
X056953Y043729D01*
X057017Y043884D01*
X057295Y043606D01*
X057455Y043540D01*
X058052Y043540D01*
X058211Y043606D01*
X058334Y043729D01*
X058423Y043818D01*
X058423Y043818D01*
X058546Y043940D01*
X058592Y044052D01*
X058612Y044100D01*
X058612Y045121D01*
X058609Y045128D01*
X058546Y045281D01*
X058426Y045400D02*
X066310Y045400D01*
X066150Y045242D02*
X061607Y045242D01*
X061765Y045083D02*
X066023Y045083D01*
X065957Y044925D02*
X061924Y044925D01*
X061353Y044925D02*
X061313Y044925D01*
X061313Y045083D02*
X061353Y045083D01*
X061353Y045242D02*
X061313Y045242D01*
X061060Y045242D02*
X060607Y045242D01*
X060765Y045083D02*
X060901Y045083D01*
X061313Y044766D02*
X061353Y044766D01*
X061353Y044449D02*
X061313Y044449D01*
X061313Y044291D02*
X061353Y044291D01*
X061353Y044132D02*
X061313Y044132D01*
X061313Y043974D02*
X061353Y043974D01*
X061353Y043815D02*
X061313Y043815D01*
X061313Y043657D02*
X061353Y043657D01*
X061353Y043498D02*
X061313Y043498D01*
X061313Y043340D02*
X061353Y043340D01*
X061353Y043181D02*
X061313Y043181D01*
X061313Y043023D02*
X061353Y043023D01*
X061651Y043023D02*
X063348Y043023D01*
X063198Y042873D02*
X063198Y042620D01*
X063823Y042620D01*
X063823Y043245D01*
X063570Y043245D01*
X063198Y042873D01*
X063198Y042864D02*
X054563Y042864D01*
X054563Y042706D02*
X063198Y042706D01*
X063198Y042547D02*
X054563Y042547D01*
X054563Y042389D02*
X063198Y042389D01*
X063315Y042230D02*
X054563Y042230D01*
X054750Y042072D02*
X063397Y042072D01*
X063238Y041913D02*
X054887Y041913D01*
X054953Y041755D02*
X063198Y041755D01*
X063198Y041596D02*
X054963Y041596D01*
X054955Y040710D02*
X055108Y040710D01*
X055108Y040510D01*
X054955Y040510D01*
X054963Y040563D01*
X054963Y040610D01*
X054963Y040657D01*
X054955Y040710D01*
X054963Y040645D02*
X055108Y040645D01*
X054963Y040610D02*
X054083Y040610D01*
X053203Y040610D01*
X053203Y040563D01*
X053212Y040510D01*
X051963Y040510D01*
X051963Y040710D01*
X053212Y040710D01*
X053203Y040657D01*
X053203Y040610D01*
X054083Y040610D01*
X054083Y040610D01*
X054083Y040610D01*
X054963Y040610D01*
X053203Y040645D02*
X051963Y040645D01*
X051583Y041110D02*
X051083Y040610D01*
X050583Y041110D01*
X041083Y041110D01*
X040583Y040610D01*
X038958Y040610D01*
X038958Y039610D02*
X037708Y039610D01*
X037208Y040110D01*
X027458Y040110D01*
X026958Y039610D01*
X026083Y039610D01*
X025271Y040328D02*
X019768Y040328D01*
X019826Y040487D02*
X025205Y040487D01*
X025203Y040645D02*
X019838Y040645D01*
X019806Y040804D02*
X025234Y040804D01*
X025307Y040962D02*
X019724Y040962D01*
X019597Y041121D02*
X025444Y041121D01*
X025291Y041279D02*
X019751Y041279D01*
X019816Y041438D02*
X025225Y041438D01*
X025203Y041596D02*
X019838Y041596D01*
X019828Y041755D02*
X025214Y041755D01*
X025279Y041913D02*
X019762Y041913D01*
X019625Y042072D02*
X025416Y042072D01*
X026750Y042072D02*
X028416Y042072D01*
X028279Y041913D02*
X026887Y041913D01*
X026953Y041755D02*
X028214Y041755D01*
X028203Y041596D02*
X026963Y041596D01*
X028603Y042230D02*
X019438Y042230D01*
X019438Y042389D02*
X028603Y042389D01*
X028603Y042547D02*
X019438Y042547D01*
X019438Y042706D02*
X028603Y042706D01*
X028603Y042864D02*
X019438Y042864D01*
X019438Y043023D02*
X028603Y043023D01*
X028603Y043181D02*
X027378Y043181D01*
X027332Y043135D02*
X027683Y043486D01*
X027683Y043735D01*
X027683Y043984D01*
X027332Y044335D01*
X027083Y044335D01*
X026835Y044335D01*
X026483Y043984D01*
X026483Y043735D01*
X026483Y043486D01*
X026835Y043135D01*
X027083Y043135D01*
X027083Y043735D01*
X026483Y043735D01*
X027083Y043735D01*
X027083Y043735D01*
X027083Y043735D01*
X027083Y044335D01*
X027083Y043735D01*
X027083Y043735D01*
X027083Y043135D01*
X027332Y043135D01*
X027083Y043181D02*
X027083Y043181D01*
X027083Y043340D02*
X027083Y043340D01*
X027083Y043498D02*
X027083Y043498D01*
X027083Y043657D02*
X027083Y043657D01*
X027083Y043735D02*
X027083Y043735D01*
X027683Y043735D01*
X027083Y043735D01*
X027083Y043815D02*
X027083Y043815D01*
X027083Y043974D02*
X027083Y043974D01*
X027083Y044132D02*
X027083Y044132D01*
X027083Y044291D02*
X027083Y044291D01*
X026790Y044291D02*
X019438Y044291D01*
X019438Y044449D02*
X028603Y044449D01*
X028603Y044291D02*
X027376Y044291D01*
X027535Y044132D02*
X028603Y044132D01*
X028483Y043974D02*
X027683Y043974D01*
X027683Y043815D02*
X028483Y043815D01*
X028483Y043657D02*
X027683Y043657D01*
X027683Y043498D02*
X028483Y043498D01*
X028603Y043340D02*
X027536Y043340D01*
X026789Y043181D02*
X019438Y043181D01*
X019438Y043340D02*
X026630Y043340D01*
X026483Y043498D02*
X019558Y043498D01*
X019558Y043657D02*
X026483Y043657D01*
X026483Y043815D02*
X019558Y043815D01*
X019558Y043974D02*
X026483Y043974D01*
X026632Y044132D02*
X019438Y044132D01*
X019438Y044608D02*
X028603Y044608D01*
X029563Y043340D02*
X032144Y043340D01*
X031964Y043181D02*
X029563Y043181D01*
X029563Y043023D02*
X031805Y043023D01*
X031647Y042864D02*
X029563Y042864D01*
X029563Y042706D02*
X031488Y042706D01*
X031330Y042547D02*
X029563Y042547D01*
X029563Y042389D02*
X031171Y042389D01*
X031013Y042230D02*
X029563Y042230D01*
X029750Y042072D02*
X030628Y042072D01*
X030478Y041913D02*
X029887Y041913D01*
X029953Y041755D02*
X030412Y041755D01*
X030398Y041596D02*
X029963Y041596D01*
X027458Y039110D02*
X037208Y039110D01*
X037708Y038610D01*
X038958Y038610D01*
X040583Y038610D01*
X041083Y039110D01*
X050583Y039110D01*
X051083Y038610D01*
X051583Y039110D01*
X058208Y039110D01*
X058708Y038610D01*
X060333Y038610D01*
X060833Y038110D01*
X061833Y038110D01*
X062208Y038485D01*
X063708Y038485D01*
X063833Y038610D01*
X063458Y039110D02*
X063333Y038985D01*
X062208Y038985D01*
X061833Y038610D01*
X061333Y038610D01*
X060833Y039110D02*
X060333Y039610D01*
X058708Y039610D01*
X058208Y040110D01*
X051583Y040110D01*
X051083Y039610D01*
X050583Y040110D01*
X041083Y040110D01*
X040583Y039610D01*
X038958Y039610D01*
X037708Y039110D02*
X040583Y039110D01*
X041083Y039610D01*
X041958Y039610D01*
X041958Y038610D02*
X041083Y038610D01*
X040583Y038110D01*
X037708Y038110D01*
X037208Y038610D01*
X036083Y038610D01*
X037208Y038110D02*
X027458Y038110D01*
X026958Y037610D01*
X026083Y037610D01*
X025333Y037110D02*
X024833Y037610D01*
X023958Y037610D01*
X023458Y038110D01*
X017958Y038110D01*
X017458Y038610D01*
X015958Y038610D01*
X014458Y040110D01*
X007333Y040110D01*
X006833Y040610D02*
X007458Y041235D01*
X015333Y041235D01*
X015958Y040610D01*
X016585Y041121D02*
X018319Y041121D01*
X018192Y040962D02*
X016735Y040962D01*
X016808Y040804D02*
X018110Y040804D01*
X018078Y040645D02*
X016838Y040645D01*
X016837Y040487D02*
X018090Y040487D01*
X018149Y040328D02*
X016771Y040328D01*
X016646Y040170D02*
X018270Y040170D01*
X018231Y040011D02*
X016686Y040011D01*
X017781Y039853D02*
X018129Y039853D01*
X018078Y039694D02*
X017940Y039694D01*
X018958Y039610D02*
X020958Y039610D01*
X020511Y040011D02*
X019686Y040011D01*
X019646Y040170D02*
X020669Y040170D01*
X021247Y040170D02*
X023669Y040170D01*
X023511Y040011D02*
X021406Y040011D01*
X021558Y039853D02*
X023358Y039853D01*
X023358Y039694D02*
X021558Y039694D01*
X021558Y039536D02*
X023358Y039536D01*
X023958Y039610D02*
X024833Y039610D01*
X026083Y038610D02*
X026958Y038610D01*
X027458Y039110D01*
X027458Y037610D02*
X026958Y037110D01*
X025333Y037110D01*
X024833Y036610D02*
X023958Y036610D01*
X023458Y037110D01*
X017958Y037110D01*
X017458Y037610D01*
X015958Y037610D01*
X013958Y039610D01*
X007833Y039610D01*
X006369Y040170D02*
X006188Y040170D01*
X006188Y040328D02*
X006210Y040328D01*
X006193Y040487D02*
X006188Y040487D01*
X006188Y040645D02*
X006193Y040645D01*
X006188Y040804D02*
X006193Y040804D01*
X006188Y040962D02*
X006280Y040962D01*
X006188Y041121D02*
X006439Y041121D01*
X006188Y041279D02*
X006937Y041279D01*
X007095Y041438D02*
X006340Y041438D01*
X006498Y041596D02*
X007285Y041596D01*
X006815Y041913D02*
X015159Y041913D01*
X015094Y041755D02*
X006657Y041755D01*
X005933Y042389D02*
X005313Y042389D01*
X005313Y042547D02*
X006092Y042547D01*
X006250Y042706D02*
X005313Y042706D01*
X005313Y042864D02*
X006409Y042864D01*
X006518Y043680D02*
X006148Y043680D01*
X005807Y043822D01*
X005545Y044083D01*
X005403Y044425D01*
X005403Y044795D01*
X005545Y045137D01*
X005807Y045398D01*
X006148Y045540D01*
X006518Y045540D01*
X006860Y045398D01*
X007122Y045137D01*
X007263Y044795D01*
X007263Y044425D01*
X007122Y044083D01*
X006860Y043822D01*
X006518Y043680D01*
X006844Y043815D02*
X007818Y043815D01*
X007818Y043657D02*
X005313Y043657D01*
X005313Y043815D02*
X005822Y043815D01*
X005655Y043974D02*
X005313Y043974D01*
X005313Y044132D02*
X005525Y044132D01*
X005459Y044291D02*
X005313Y044291D01*
X005313Y044449D02*
X005403Y044449D01*
X005403Y044608D02*
X005313Y044608D01*
X005313Y044766D02*
X005403Y044766D01*
X005457Y044925D02*
X005313Y044925D01*
X005313Y045083D02*
X005523Y045083D01*
X005650Y045242D02*
X005313Y045242D01*
X005313Y045400D02*
X005810Y045400D01*
X005313Y045559D02*
X013037Y045559D01*
X012820Y045400D02*
X006856Y045400D01*
X007017Y045242D02*
X008185Y045242D01*
X008026Y045083D02*
X007144Y045083D01*
X007210Y044925D02*
X007868Y044925D01*
X007818Y044766D02*
X007263Y044766D01*
X007263Y044608D02*
X007818Y044608D01*
X007818Y044449D02*
X007263Y044449D01*
X007208Y044291D02*
X007873Y044291D01*
X008031Y044132D02*
X007142Y044132D01*
X007012Y043974D02*
X007917Y043974D01*
X007818Y043498D02*
X005313Y043498D01*
X005313Y043340D02*
X007824Y043340D01*
X007982Y043181D02*
X005313Y043181D01*
X005313Y043023D02*
X008141Y043023D01*
X008776Y043023D02*
X008978Y043023D01*
X009938Y043023D02*
X010442Y043023D01*
X010601Y043181D02*
X009938Y043181D01*
X010093Y043340D02*
X010759Y043340D01*
X010918Y043498D02*
X010098Y043498D01*
X010098Y043657D02*
X011076Y043657D01*
X011235Y043815D02*
X010098Y043815D01*
X010000Y043974D02*
X011393Y043974D01*
X011552Y044132D02*
X009938Y044132D01*
X010044Y044291D02*
X011710Y044291D01*
X011869Y044449D02*
X010098Y044449D01*
X010098Y044608D02*
X012027Y044608D01*
X012186Y044766D02*
X010098Y044766D01*
X010049Y044925D02*
X012344Y044925D01*
X012503Y045083D02*
X009890Y045083D01*
X009732Y045242D02*
X012661Y045242D01*
X013385Y044608D02*
X018478Y044608D01*
X018478Y044449D02*
X013226Y044449D01*
X013068Y044291D02*
X016665Y044291D01*
X016710Y044335D02*
X016358Y043984D01*
X016358Y043735D01*
X016358Y043486D01*
X016710Y043135D01*
X016958Y043135D01*
X016958Y043735D01*
X016358Y043735D01*
X016958Y043735D01*
X016958Y043735D01*
X016958Y043735D01*
X016958Y044335D01*
X016710Y044335D01*
X016958Y044335D02*
X017207Y044335D01*
X017558Y043984D01*
X017558Y043735D01*
X016958Y043735D01*
X016958Y043735D01*
X016958Y043135D01*
X017207Y043135D01*
X017558Y043486D01*
X017558Y043735D01*
X016958Y043735D01*
X016958Y044335D01*
X016958Y044291D02*
X016958Y044291D01*
X016958Y044132D02*
X016958Y044132D01*
X016958Y043974D02*
X016958Y043974D01*
X016958Y043815D02*
X016958Y043815D01*
X016958Y043735D02*
X016958Y043735D01*
X016958Y043657D02*
X016958Y043657D01*
X016958Y043498D02*
X016958Y043498D01*
X016958Y043340D02*
X016958Y043340D01*
X016958Y043181D02*
X016958Y043181D01*
X016664Y043181D02*
X011958Y043181D01*
X011800Y043023D02*
X018478Y043023D01*
X018478Y043181D02*
X017253Y043181D01*
X017411Y043340D02*
X018478Y043340D01*
X018358Y043498D02*
X017558Y043498D01*
X017558Y043657D02*
X018358Y043657D01*
X018358Y043815D02*
X017558Y043815D01*
X017558Y043974D02*
X018358Y043974D01*
X018478Y044132D02*
X017410Y044132D01*
X017251Y044291D02*
X018478Y044291D01*
X018478Y042864D02*
X011641Y042864D01*
X011483Y042706D02*
X018478Y042706D01*
X018478Y042547D02*
X011324Y042547D01*
X011166Y042389D02*
X018478Y042389D01*
X018478Y042230D02*
X011007Y042230D01*
X010839Y042072D02*
X015293Y042072D01*
X015958Y042072D02*
X015958Y042072D01*
X015958Y042210D02*
X015958Y041610D01*
X015958Y041610D01*
X016838Y041610D01*
X016838Y041657D01*
X016824Y041750D01*
X016794Y041840D01*
X016751Y041924D01*
X016696Y042001D01*
X016629Y042068D01*
X016553Y042123D01*
X016469Y042166D01*
X016379Y042195D01*
X016286Y042210D01*
X015958Y042210D01*
X015958Y041913D02*
X015958Y041913D01*
X015958Y041755D02*
X015958Y041755D01*
X015958Y041610D02*
X015958Y041610D01*
X016624Y042072D02*
X018291Y042072D01*
X018154Y041913D02*
X016757Y041913D01*
X016822Y041755D02*
X018089Y041755D01*
X018078Y041596D02*
X016838Y041596D01*
X016813Y041438D02*
X018100Y041438D01*
X018166Y041279D02*
X016740Y041279D01*
X016505Y043340D02*
X012117Y043340D01*
X012275Y043498D02*
X016358Y043498D01*
X016358Y043657D02*
X012434Y043657D01*
X012592Y043815D02*
X016358Y043815D01*
X016358Y043974D02*
X012751Y043974D01*
X012909Y044132D02*
X016507Y044132D01*
X018958Y040610D02*
X018958Y040610D01*
X018958Y038610D02*
X020958Y038610D01*
X020958Y037610D02*
X018958Y037610D01*
X018958Y036610D02*
X020958Y036610D01*
X020958Y035610D02*
X018958Y035610D01*
X018958Y034610D02*
X020958Y034610D01*
X020958Y033610D02*
X018958Y033610D01*
X018958Y032610D02*
X020958Y032610D01*
X020634Y032086D02*
X019541Y032086D01*
X018375Y032086D02*
X016532Y032086D01*
X016714Y032245D02*
X018195Y032245D01*
X018115Y032403D02*
X016802Y032403D01*
X016838Y032562D02*
X018078Y032562D01*
X017855Y032720D02*
X016828Y032720D01*
X016775Y032879D02*
X017624Y032879D01*
X017466Y033037D02*
X016660Y033037D01*
X016672Y033196D02*
X017307Y033196D01*
X015958Y032610D02*
X015958Y032610D01*
X015958Y032562D02*
X015958Y032562D01*
X015958Y032403D02*
X015958Y032403D01*
X015958Y032245D02*
X015958Y032245D01*
X015958Y032086D02*
X015958Y032086D01*
X015257Y033037D02*
X008165Y033037D01*
X008324Y033196D02*
X015244Y033196D01*
X015135Y033354D02*
X008473Y033354D01*
X008473Y033513D02*
X015078Y033513D01*
X015078Y033671D02*
X008473Y033671D01*
X008473Y033830D02*
X015120Y033830D01*
X015015Y033988D02*
X008360Y033988D01*
X008275Y034147D02*
X014856Y034147D01*
X014698Y034305D02*
X008433Y034305D01*
X008473Y034464D02*
X014539Y034464D01*
X014381Y034622D02*
X008473Y034622D01*
X008473Y034781D02*
X014222Y034781D01*
X014064Y034939D02*
X008409Y034939D01*
X008251Y035098D02*
X013905Y035098D01*
X013747Y035256D02*
X008384Y035256D01*
X008473Y035415D02*
X013588Y035415D01*
X013430Y035573D02*
X008473Y035573D01*
X008473Y035732D02*
X013271Y035732D01*
X013113Y035890D02*
X008458Y035890D01*
X008300Y036049D02*
X012954Y036049D01*
X012796Y036207D02*
X008335Y036207D01*
X008473Y036366D02*
X012637Y036366D01*
X012479Y036524D02*
X008473Y036524D01*
X008473Y036683D02*
X012320Y036683D01*
X012162Y036841D02*
X008473Y036841D01*
X008349Y037000D02*
X012003Y037000D01*
X011845Y037158D02*
X008286Y037158D01*
X007343Y033196D02*
X007324Y033196D01*
X007165Y033037D02*
X007501Y033037D01*
X006188Y031769D02*
X037486Y031769D01*
X037708Y032110D02*
X040583Y032110D01*
X041083Y032610D01*
X041958Y032610D01*
X041375Y032086D02*
X041125Y032086D01*
X040967Y031928D02*
X063253Y031928D01*
X063198Y031769D02*
X040805Y031769D01*
X040418Y032510D02*
X039830Y032510D01*
X039838Y032563D01*
X039838Y032610D01*
X039838Y032657D01*
X039830Y032710D01*
X040618Y032710D01*
X040418Y032510D01*
X040469Y032562D02*
X039838Y032562D01*
X039838Y032610D02*
X038958Y032610D01*
X038078Y032610D01*
X038078Y032563D01*
X038087Y032510D01*
X037874Y032510D01*
X037674Y032710D01*
X038087Y032710D01*
X038078Y032657D01*
X038078Y032610D01*
X038958Y032610D01*
X038958Y032610D01*
X039838Y032610D01*
X038958Y032610D02*
X038958Y032610D01*
X038079Y032562D02*
X037822Y032562D01*
X037708Y032110D02*
X037208Y032610D01*
X037708Y033110D02*
X037208Y033610D01*
X036083Y033610D01*
X036083Y034610D02*
X037208Y034610D01*
X037708Y034110D01*
X040583Y034110D01*
X041083Y034610D01*
X041958Y034610D01*
X042838Y033671D02*
X050203Y033671D01*
X050203Y033513D02*
X042838Y033513D01*
X042782Y033354D02*
X050260Y033354D01*
X050369Y033196D02*
X042672Y033196D01*
X042660Y033037D02*
X050382Y033037D01*
X050267Y032879D02*
X042777Y032879D01*
X042838Y032720D02*
X050213Y032720D01*
X050204Y032562D02*
X042838Y032562D01*
X042802Y032403D02*
X050240Y032403D01*
X050327Y032245D02*
X042721Y032245D01*
X042541Y032086D02*
X050510Y032086D01*
X051083Y032086D02*
X051083Y032086D01*
X051083Y032245D02*
X051083Y032245D01*
X051083Y032403D02*
X051083Y032403D01*
X051083Y032562D02*
X051083Y032562D01*
X051083Y032610D02*
X051083Y032610D01*
X051963Y032610D01*
X051083Y032610D01*
X051657Y032086D02*
X053500Y032086D01*
X053320Y032245D02*
X051839Y032245D01*
X051927Y032403D02*
X053240Y032403D01*
X053203Y032562D02*
X051963Y032562D01*
X051953Y032720D02*
X053203Y032720D01*
X053265Y032879D02*
X051900Y032879D01*
X051785Y033037D02*
X053382Y033037D01*
X053369Y033196D02*
X051797Y033196D01*
X051907Y033354D02*
X053260Y033354D01*
X053203Y033513D02*
X051963Y033513D01*
X051963Y033671D02*
X053203Y033671D01*
X054797Y033196D02*
X055274Y033196D01*
X055116Y033354D02*
X054907Y033354D01*
X054963Y033513D02*
X055108Y033513D01*
X055108Y033671D02*
X054963Y033671D01*
X054785Y033037D02*
X055433Y033037D01*
X055984Y033037D02*
X058433Y033037D01*
X058274Y033196D02*
X056142Y033196D01*
X056301Y033354D02*
X058116Y033354D01*
X058108Y033513D02*
X056308Y033513D01*
X056308Y033671D02*
X058082Y033671D01*
X059142Y033196D02*
X059843Y033196D01*
X060001Y033037D02*
X058984Y033037D01*
X060499Y032879D02*
X054902Y032879D01*
X054963Y032720D02*
X060730Y032720D01*
X061937Y032720D02*
X063198Y032720D01*
X063198Y032562D02*
X054963Y032562D01*
X054927Y032403D02*
X063198Y032403D01*
X063301Y032245D02*
X054846Y032245D01*
X054666Y032086D02*
X063411Y032086D01*
X063198Y031611D02*
X006188Y031611D01*
X006188Y031452D02*
X063198Y031452D01*
X063252Y031294D02*
X006188Y031294D01*
X011108Y027331D02*
X022864Y027331D01*
X022728Y027173D02*
X011058Y027173D01*
X010961Y027014D02*
X022683Y027014D01*
X022683Y026856D02*
X019297Y026856D01*
X019273Y026873D02*
X019189Y026916D01*
X019099Y026945D01*
X019006Y026960D01*
X018958Y026960D01*
X018911Y026960D01*
X018818Y026945D01*
X018728Y026916D01*
X018644Y026873D01*
X018567Y026818D01*
X018501Y026751D01*
X018445Y026674D01*
X018402Y026590D01*
X018373Y026500D01*
X018358Y026407D01*
X018358Y026360D01*
X018358Y026313D01*
X018373Y026219D01*
X018402Y026130D01*
X018445Y026046D01*
X018501Y025969D01*
X018567Y025902D01*
X018644Y025847D01*
X018728Y025804D01*
X018818Y025775D01*
X018911Y025760D01*
X018958Y025760D01*
X018958Y026360D01*
X018358Y026360D01*
X018958Y026360D01*
X018958Y026360D01*
X018958Y026360D01*
X018958Y026960D01*
X018958Y026360D01*
X018958Y026360D01*
X018958Y025760D01*
X019006Y025760D01*
X019099Y025775D01*
X019189Y025804D01*
X019273Y025847D01*
X019349Y025902D01*
X019416Y025969D01*
X019471Y026046D01*
X019514Y026130D01*
X019544Y026219D01*
X019558Y026313D01*
X019558Y026360D01*
X018958Y026360D01*
X019558Y026360D01*
X019558Y026407D01*
X019544Y026500D01*
X019514Y026590D01*
X019471Y026674D01*
X019416Y026751D01*
X019349Y026818D01*
X019273Y026873D01*
X019455Y026697D02*
X022683Y026697D01*
X022683Y026539D02*
X019531Y026539D01*
X019558Y026380D02*
X022683Y026380D01*
X022683Y026222D02*
X019544Y026222D01*
X019480Y026063D02*
X022683Y026063D01*
X022683Y025905D02*
X019351Y025905D01*
X018958Y025905D02*
X018958Y025905D01*
X018958Y026063D02*
X018958Y026063D01*
X018958Y026222D02*
X018958Y026222D01*
X018958Y026360D02*
X018958Y026360D01*
X018958Y026380D02*
X018958Y026380D01*
X018958Y026539D02*
X018958Y026539D01*
X018958Y026697D02*
X018958Y026697D01*
X018958Y026856D02*
X018958Y026856D01*
X018620Y026856D02*
X013311Y026856D01*
X013298Y026869D02*
X013078Y026960D01*
X012839Y026960D01*
X012618Y026869D01*
X012450Y026700D01*
X012358Y026479D01*
X012358Y026241D01*
X012450Y026020D01*
X012618Y025851D01*
X012839Y025760D01*
X013078Y025760D01*
X013298Y025851D01*
X013467Y026020D01*
X013558Y026241D01*
X013558Y026479D01*
X013467Y026700D01*
X013298Y026869D01*
X013468Y026697D02*
X018462Y026697D01*
X018385Y026539D02*
X013534Y026539D01*
X013558Y026380D02*
X018358Y026380D01*
X018373Y026222D02*
X013550Y026222D01*
X013485Y026063D02*
X018436Y026063D01*
X018565Y025905D02*
X013351Y025905D01*
X012565Y025905D02*
X008988Y025905D01*
X008980Y026063D02*
X012432Y026063D01*
X012366Y026222D02*
X010499Y026222D01*
X010657Y026380D02*
X012358Y026380D01*
X012383Y026539D02*
X010816Y026539D01*
X010910Y026697D02*
X012449Y026697D01*
X012605Y026856D02*
X010938Y026856D01*
X011267Y027490D02*
X023022Y027490D01*
X023148Y027648D02*
X011425Y027648D01*
X011584Y027807D02*
X023276Y027807D01*
X023225Y027965D02*
X011742Y027965D01*
X011901Y028124D02*
X023127Y028124D01*
X023078Y028282D02*
X012059Y028282D01*
X012218Y028441D02*
X023078Y028441D01*
X023128Y028599D02*
X012376Y028599D01*
X012535Y028758D02*
X023227Y028758D01*
X023453Y028916D02*
X019363Y028916D01*
X018554Y028916D02*
X013363Y028916D01*
X013490Y029075D02*
X018427Y029075D01*
X018361Y029233D02*
X013555Y029233D01*
X013558Y029392D02*
X018358Y029392D01*
X018388Y029550D02*
X013529Y029550D01*
X013458Y029709D02*
X018458Y029709D01*
X018617Y029867D02*
X013300Y029867D01*
X008988Y025746D02*
X022683Y025746D01*
X022683Y025588D02*
X008988Y025588D01*
X008988Y025429D02*
X022683Y025429D01*
X022683Y025271D02*
X008987Y025271D01*
X008955Y025112D02*
X022683Y025112D01*
X022683Y024954D02*
X008874Y024954D01*
X008715Y024795D02*
X022683Y024795D01*
X022683Y024637D02*
X006968Y024637D01*
X006968Y024795D02*
X007981Y024795D01*
X007823Y024954D02*
X007107Y024954D01*
X007175Y025112D02*
X007742Y025112D01*
X007709Y025271D02*
X007208Y025271D01*
X007208Y025429D02*
X007708Y025429D01*
X007708Y025588D02*
X007208Y025588D01*
X007208Y025746D02*
X007708Y025746D01*
X007708Y025905D02*
X007208Y025905D01*
X007208Y026063D02*
X007716Y026063D01*
X008328Y025588D02*
X008368Y025588D01*
X008368Y025429D02*
X008328Y025429D01*
X008328Y025271D02*
X008368Y025271D01*
X008368Y025112D02*
X008328Y025112D01*
X008328Y024954D02*
X008368Y024954D01*
X008368Y024795D02*
X008328Y024795D01*
X008368Y024040D02*
X008368Y023100D01*
X008988Y023100D01*
X008988Y023442D01*
X008977Y023525D01*
X008956Y023606D01*
X008924Y023684D01*
X008882Y023756D01*
X008831Y023823D01*
X008771Y023882D01*
X008705Y023933D01*
X008632Y023975D01*
X008554Y024007D01*
X008473Y024029D01*
X008390Y024040D01*
X008368Y024040D01*
X008368Y024003D02*
X008328Y024003D01*
X008328Y023844D02*
X008368Y023844D01*
X008368Y023686D02*
X008328Y023686D01*
X008328Y023527D02*
X008368Y023527D01*
X008368Y023369D02*
X008328Y023369D01*
X008328Y023210D02*
X008368Y023210D01*
X008368Y023052D02*
X008328Y023052D01*
X008328Y022893D02*
X008368Y022893D01*
X008368Y022735D02*
X008328Y022735D01*
X008328Y022576D02*
X008368Y022576D01*
X008368Y022418D02*
X008328Y022418D01*
X008328Y022259D02*
X008368Y022259D01*
X008747Y022259D02*
X023087Y022259D01*
X023080Y022418D02*
X008890Y022418D01*
X008962Y022576D02*
X023118Y022576D01*
X023209Y022735D02*
X013608Y022735D01*
X013585Y022725D02*
X013818Y022822D01*
X013956Y022960D01*
X014510Y022960D01*
X014710Y022760D01*
X015207Y022760D01*
X015558Y023111D01*
X015558Y023609D01*
X015207Y023960D01*
X014710Y023960D01*
X014510Y023760D01*
X013956Y023760D01*
X013818Y023898D01*
X013585Y023995D01*
X013332Y023995D01*
X013099Y023898D01*
X012958Y023758D01*
X012721Y023995D01*
X012458Y023995D01*
X012195Y023995D01*
X011823Y023623D01*
X011823Y023360D01*
X011823Y023097D01*
X012195Y022725D01*
X012458Y022725D01*
X012458Y023360D01*
X011823Y023360D01*
X012458Y023360D01*
X012458Y023360D01*
X012458Y023360D01*
X012458Y023995D01*
X012458Y023360D01*
X012458Y023360D01*
X012458Y022725D01*
X012721Y022725D01*
X012958Y022962D01*
X013099Y022822D01*
X013332Y022725D01*
X013585Y022725D01*
X013309Y022735D02*
X012731Y022735D01*
X012889Y022893D02*
X013027Y022893D01*
X012458Y022893D02*
X012458Y022893D01*
X012458Y022735D02*
X012458Y022735D01*
X012186Y022735D02*
X008988Y022735D01*
X008988Y022893D02*
X012027Y022893D01*
X011869Y023052D02*
X008988Y023052D01*
X008988Y023210D02*
X011823Y023210D01*
X011823Y023369D02*
X008988Y023369D01*
X008977Y023527D02*
X011823Y023527D01*
X011886Y023686D02*
X008922Y023686D01*
X008809Y023844D02*
X012044Y023844D01*
X012458Y023844D02*
X012458Y023844D01*
X012458Y023686D02*
X012458Y023686D01*
X012458Y023527D02*
X012458Y023527D01*
X012458Y023369D02*
X012458Y023369D01*
X012458Y023210D02*
X012458Y023210D01*
X012458Y023052D02*
X012458Y023052D01*
X012872Y023844D02*
X013044Y023844D01*
X013458Y023360D02*
X014958Y023360D01*
X015558Y023369D02*
X017358Y023369D01*
X017358Y023527D02*
X015558Y023527D01*
X015481Y023686D02*
X017435Y023686D01*
X017358Y023609D02*
X017358Y023111D01*
X017710Y022760D01*
X018207Y022760D01*
X018558Y023111D01*
X018558Y023609D01*
X018207Y023960D01*
X017710Y023960D01*
X017358Y023609D01*
X017594Y023844D02*
X015323Y023844D01*
X015558Y023210D02*
X017358Y023210D01*
X017418Y023052D02*
X015498Y023052D01*
X015340Y022893D02*
X017577Y022893D01*
X018340Y022893D02*
X023297Y022893D01*
X023157Y023052D02*
X018498Y023052D01*
X018558Y023210D02*
X023091Y023210D01*
X023078Y023369D02*
X018558Y023369D01*
X018558Y023527D02*
X023098Y023527D01*
X023067Y023686D02*
X018481Y023686D01*
X018323Y023844D02*
X022909Y023844D01*
X022857Y023896D02*
X022857Y023896D01*
X022750Y024003D02*
X008566Y024003D01*
X008131Y024003D02*
X006968Y024003D01*
X006968Y024161D02*
X022683Y024161D01*
X022683Y024320D02*
X006968Y024320D01*
X006968Y024478D02*
X022683Y024478D01*
X024838Y023369D02*
X025384Y023369D01*
X025543Y023210D02*
X024826Y023210D01*
X024760Y023052D02*
X025701Y023052D01*
X025860Y022893D02*
X024620Y022893D01*
X024708Y022735D02*
X026018Y022735D01*
X026118Y022576D02*
X024799Y022576D01*
X024837Y022418D02*
X026078Y022418D01*
X026078Y022259D02*
X024830Y022259D01*
X024838Y022360D02*
X023958Y022360D01*
X024838Y022360D01*
X024780Y022101D02*
X026136Y022101D01*
X026248Y021942D02*
X024669Y021942D01*
X024406Y021784D02*
X026502Y021784D01*
X023958Y021784D02*
X023958Y021784D01*
X023958Y021942D02*
X023958Y021942D01*
X023958Y022101D02*
X023958Y022101D01*
X023958Y022259D02*
X023958Y022259D01*
X023958Y022360D02*
X023958Y022360D01*
X023511Y021784D02*
X016374Y021784D01*
X014577Y022893D02*
X013889Y022893D01*
X013872Y023844D02*
X014594Y023844D01*
X010583Y019110D02*
X010083Y018610D01*
X007833Y018610D01*
X010583Y019110D02*
X044208Y019110D01*
X044958Y018360D01*
X043958Y018360D02*
X043208Y017610D01*
X042958Y018360D02*
X010708Y018360D01*
X007950Y022259D02*
X006972Y022259D01*
X007119Y022418D02*
X007807Y022418D01*
X007735Y022576D02*
X007185Y022576D01*
X007208Y022735D02*
X007708Y022735D01*
X007708Y022893D02*
X007208Y022893D01*
X007208Y023052D02*
X007708Y023052D01*
X007708Y023210D02*
X007208Y023210D01*
X007143Y023686D02*
X007774Y023686D01*
X007887Y023844D02*
X007029Y023844D01*
X006568Y023080D02*
X006568Y025640D01*
X016208Y016985D02*
X017333Y016985D01*
X017583Y017235D01*
X048833Y017235D01*
X049958Y018360D01*
X048958Y018360D02*
X048208Y019110D01*
X047958Y019110D01*
X047208Y019110D02*
X046958Y019110D01*
X046583Y019485D01*
X046083Y019485D01*
X046958Y020610D02*
X047333Y020235D01*
X047833Y020235D01*
X048208Y019860D01*
X048708Y019860D01*
X049083Y019485D01*
X057208Y019485D01*
X058583Y018110D01*
X060833Y018110D01*
X061333Y018610D01*
X061833Y018610D01*
X062333Y019110D01*
X065333Y019110D01*
X065833Y018610D01*
X065333Y018110D02*
X062333Y018110D01*
X061833Y017610D01*
X061333Y017610D01*
X060833Y017110D01*
X060333Y016610D02*
X053333Y016610D01*
X053083Y016860D01*
X051708Y016860D01*
X050958Y016110D01*
X049958Y016110D02*
X051083Y017235D01*
X054083Y017235D01*
X054083Y016110D02*
X060833Y016110D01*
X061333Y016610D01*
X061833Y016610D01*
X062333Y017110D01*
X065333Y017110D01*
X065833Y016610D01*
X065333Y016110D02*
X062333Y016110D01*
X061833Y015610D01*
X061333Y015610D01*
X060833Y015110D01*
X055958Y015110D01*
X055833Y014985D01*
X049333Y014985D01*
X048958Y015360D01*
X048458Y015360D01*
X047958Y015860D01*
X047958Y016110D01*
X048958Y016110D02*
X048958Y015860D01*
X049458Y015360D01*
X055708Y015360D01*
X055958Y015610D01*
X060333Y015610D01*
X061333Y013610D02*
X060708Y012985D01*
X059333Y012985D01*
X058810Y013210D02*
X058763Y013098D01*
X058763Y012872D01*
X058850Y012662D01*
X059010Y012502D01*
X059220Y012415D01*
X059447Y012415D01*
X059656Y012502D01*
X059739Y012585D01*
X060788Y012585D01*
X060935Y012646D01*
X061259Y012970D01*
X061598Y012970D01*
X061838Y013210D01*
X061913Y013210D01*
X062060Y013271D01*
X062172Y013383D01*
X063198Y013383D01*
X063198Y013347D02*
X063435Y013110D01*
X063198Y012873D01*
X063198Y012347D01*
X063353Y012192D01*
X063353Y012028D01*
X063198Y011873D01*
X063198Y011347D01*
X063570Y010975D01*
X063790Y010975D01*
X063978Y010786D01*
X063978Y010028D01*
X063958Y010008D01*
X063721Y010245D01*
X063458Y010245D01*
X063195Y010245D01*
X062823Y009873D01*
X062823Y009610D01*
X062823Y009347D01*
X063195Y008975D01*
X063458Y008975D01*
X063458Y009610D01*
X062823Y009610D01*
X063458Y009610D01*
X063458Y009610D01*
X063458Y009610D01*
X063458Y010245D01*
X063458Y009610D01*
X063458Y009610D01*
X063458Y008975D01*
X063721Y008975D01*
X063958Y009212D01*
X063978Y009192D01*
X063978Y009059D01*
X063385Y008465D01*
X061813Y008465D01*
X061813Y009185D01*
X061973Y009345D01*
X061973Y009875D01*
X061813Y010035D01*
X061813Y010185D01*
X061973Y010345D01*
X061973Y010875D01*
X061598Y011250D01*
X061068Y011250D01*
X060833Y011015D01*
X060689Y011159D01*
X060817Y011287D01*
X060903Y011497D01*
X060903Y011723D01*
X060817Y011933D01*
X060656Y012093D01*
X060447Y012180D01*
X060220Y012180D01*
X060010Y012093D01*
X059850Y011933D01*
X059763Y011723D01*
X059763Y011606D01*
X059232Y011074D01*
X059119Y010962D01*
X059058Y010815D01*
X059058Y009641D01*
X058975Y009558D01*
X058888Y009348D01*
X058888Y009122D01*
X058975Y008912D01*
X059135Y008752D01*
X059345Y008665D01*
X059572Y008665D01*
X059781Y008752D01*
X059853Y008824D01*
X059853Y008465D01*
X056938Y008465D01*
X056938Y011080D01*
X056865Y011257D01*
X055597Y012525D01*
X055933Y012861D01*
X055933Y013110D01*
X055933Y013210D01*
X058810Y013210D01*
X058763Y013066D02*
X055933Y013066D01*
X055933Y013110D02*
X055333Y013110D01*
X055933Y013110D01*
X055933Y012908D02*
X058763Y012908D01*
X058814Y012749D02*
X055821Y012749D01*
X055662Y012591D02*
X058922Y012591D01*
X059179Y012432D02*
X055690Y012432D01*
X055849Y012274D02*
X063272Y012274D01*
X063198Y012432D02*
X059488Y012432D01*
X059874Y011957D02*
X056166Y011957D01*
X056007Y012115D02*
X060063Y012115D01*
X059794Y011798D02*
X056324Y011798D01*
X056483Y011640D02*
X059763Y011640D01*
X059639Y011481D02*
X056641Y011481D01*
X056800Y011323D02*
X059480Y011323D01*
X059322Y011164D02*
X056904Y011164D01*
X056938Y011006D02*
X059163Y011006D01*
X059072Y010847D02*
X056938Y010847D01*
X056938Y010689D02*
X059058Y010689D01*
X059058Y010530D02*
X056938Y010530D01*
X056938Y010372D02*
X059058Y010372D01*
X059058Y010213D02*
X056938Y010213D01*
X056938Y010055D02*
X059058Y010055D01*
X059058Y009896D02*
X056938Y009896D01*
X056938Y009738D02*
X059058Y009738D01*
X058996Y009579D02*
X056938Y009579D01*
X056938Y009421D02*
X058918Y009421D01*
X058888Y009262D02*
X056938Y009262D01*
X056938Y009104D02*
X058896Y009104D01*
X058961Y008945D02*
X056938Y008945D01*
X056938Y008787D02*
X059101Y008787D01*
X059458Y009235D02*
X059458Y010735D01*
X060333Y011610D01*
X060903Y011640D02*
X063198Y011640D01*
X063198Y011798D02*
X060872Y011798D01*
X060793Y011957D02*
X063282Y011957D01*
X063353Y012115D02*
X060604Y012115D01*
X060801Y012591D02*
X063198Y012591D01*
X063198Y012749D02*
X061038Y012749D01*
X061197Y012908D02*
X063233Y012908D01*
X063391Y013066D02*
X061694Y013066D01*
X061948Y013225D02*
X063321Y013225D01*
X063198Y013347D02*
X063198Y013710D01*
X062499Y013710D01*
X062172Y013383D01*
X062331Y013542D02*
X063198Y013542D01*
X063198Y013700D02*
X062489Y013700D01*
X062333Y014110D02*
X061833Y013610D01*
X061333Y013610D01*
X062333Y014110D02*
X065333Y014110D01*
X065833Y013610D01*
X066324Y014017D02*
X067553Y014017D01*
X067553Y013859D02*
X066468Y013859D01*
X066468Y013700D02*
X067553Y013700D01*
X067553Y013542D02*
X066468Y013542D01*
X066468Y013383D02*
X067553Y013383D01*
X067553Y013225D02*
X066346Y013225D01*
X066275Y013066D02*
X067553Y013066D01*
X067553Y012908D02*
X066434Y012908D01*
X066468Y012749D02*
X067553Y012749D01*
X067553Y012591D02*
X066468Y012591D01*
X066468Y012432D02*
X067553Y012432D01*
X067553Y012274D02*
X066395Y012274D01*
X066313Y012115D02*
X067553Y012115D01*
X067553Y011957D02*
X066385Y011957D01*
X066468Y011798D02*
X067553Y011798D01*
X067553Y011640D02*
X066468Y011640D01*
X066468Y011481D02*
X067553Y011481D01*
X067553Y011323D02*
X066444Y011323D01*
X066285Y011164D02*
X067553Y011164D01*
X067553Y011006D02*
X066127Y011006D01*
X065540Y011006D02*
X064938Y011006D01*
X064938Y010847D02*
X067553Y010847D01*
X067553Y010689D02*
X064938Y010689D01*
X064938Y010530D02*
X066624Y010530D01*
X066280Y010372D02*
X064938Y010372D01*
X064938Y010213D02*
X066121Y010213D01*
X066011Y010055D02*
X064938Y010055D01*
X065027Y009896D02*
X065945Y009896D01*
X065903Y009738D02*
X065093Y009738D01*
X065093Y009579D02*
X065903Y009579D01*
X065905Y009421D02*
X065067Y009421D01*
X065002Y009262D02*
X065971Y009262D01*
X066037Y009104D02*
X064938Y009104D01*
X064938Y008945D02*
X066183Y008945D01*
X066391Y008787D02*
X064938Y008787D01*
X064882Y008628D02*
X067553Y008628D01*
X067553Y008470D02*
X064747Y008470D01*
X064588Y008311D02*
X067553Y008311D01*
X067553Y008153D02*
X064430Y008153D01*
X064271Y007994D02*
X067553Y007994D01*
X067553Y007836D02*
X064113Y007836D01*
X063389Y008470D02*
X061813Y008470D01*
X061813Y008628D02*
X063548Y008628D01*
X063706Y008787D02*
X061813Y008787D01*
X061813Y008945D02*
X063865Y008945D01*
X063850Y009104D02*
X063978Y009104D01*
X063458Y009104D02*
X063458Y009104D01*
X063458Y009262D02*
X063458Y009262D01*
X063458Y009421D02*
X063458Y009421D01*
X063458Y009579D02*
X063458Y009579D01*
X063458Y009738D02*
X063458Y009738D01*
X063458Y009896D02*
X063458Y009896D01*
X063458Y010055D02*
X063458Y010055D01*
X063458Y010213D02*
X063458Y010213D01*
X063163Y010213D02*
X061841Y010213D01*
X061813Y010055D02*
X063005Y010055D01*
X062846Y009896D02*
X061952Y009896D01*
X061973Y009738D02*
X062823Y009738D01*
X062823Y009579D02*
X061973Y009579D01*
X061973Y009421D02*
X062823Y009421D01*
X062908Y009262D02*
X061890Y009262D01*
X061813Y009104D02*
X063067Y009104D01*
X063912Y010055D02*
X063978Y010055D01*
X063978Y010213D02*
X063753Y010213D01*
X063978Y010372D02*
X061973Y010372D01*
X061973Y010530D02*
X063978Y010530D01*
X063978Y010689D02*
X061973Y010689D01*
X061973Y010847D02*
X063918Y010847D01*
X063540Y011006D02*
X061843Y011006D01*
X061684Y011164D02*
X063381Y011164D01*
X063223Y011323D02*
X060831Y011323D01*
X060897Y011481D02*
X063198Y011481D01*
X064385Y011957D02*
X065282Y011957D01*
X065353Y012115D02*
X064313Y012115D01*
X064468Y011798D02*
X065198Y011798D01*
X065198Y011640D02*
X064483Y011640D01*
X064641Y011481D02*
X065198Y011481D01*
X065223Y011323D02*
X064800Y011323D01*
X064904Y011164D02*
X065381Y011164D01*
X067042Y010530D02*
X067553Y010530D01*
X067553Y010372D02*
X067387Y010372D01*
X067546Y010213D02*
X067553Y010213D01*
X067553Y008945D02*
X067484Y008945D01*
X067553Y008787D02*
X067275Y008787D01*
X060982Y011164D02*
X060693Y011164D01*
X059853Y008787D02*
X059816Y008787D01*
X059853Y008628D02*
X056938Y008628D01*
X056938Y008470D02*
X059853Y008470D01*
X055333Y013110D02*
X055333Y013110D01*
X050958Y013110D02*
X050958Y012110D01*
X050458Y011610D01*
X050458Y009110D01*
X050208Y008860D01*
X045708Y008860D01*
X044958Y009610D01*
X048708Y011860D02*
X039708Y011860D01*
X037958Y011360D02*
X049958Y011360D01*
X048708Y011860D02*
X049958Y013110D01*
X048958Y013110D02*
X048958Y013360D01*
X048458Y013860D01*
X047958Y013860D01*
X046958Y013235D02*
X046333Y013860D01*
X045958Y013860D01*
X046958Y013235D02*
X046958Y013110D01*
X044958Y013110D02*
X044958Y013360D01*
X044458Y013860D01*
X042958Y013110D02*
X042583Y013485D01*
X007958Y013485D01*
X007833Y013610D01*
X005924Y012591D02*
X005313Y012591D01*
X005313Y012749D02*
X005766Y012749D01*
X005607Y012908D02*
X005313Y012908D01*
X005313Y013066D02*
X005449Y013066D01*
X005313Y013201D02*
X006561Y011953D01*
X006738Y011880D01*
X010260Y011880D01*
X010978Y011161D01*
X010978Y009080D01*
X010978Y008890D01*
X011051Y008713D01*
X011965Y007800D01*
X005313Y007800D01*
X005313Y013201D01*
X005313Y012432D02*
X006083Y012432D01*
X006241Y012274D02*
X005313Y012274D01*
X005313Y012115D02*
X006400Y012115D01*
X006558Y011957D02*
X005313Y011957D01*
X005313Y011798D02*
X010342Y011798D01*
X010500Y011640D02*
X005313Y011640D01*
X005313Y011481D02*
X010659Y011481D01*
X010817Y011323D02*
X005313Y011323D01*
X005313Y011164D02*
X008107Y011164D01*
X008193Y011250D02*
X007818Y010875D01*
X007818Y010630D01*
X008438Y010630D01*
X008438Y010590D01*
X007818Y010590D01*
X007818Y010345D01*
X008053Y010110D01*
X007818Y009875D01*
X007818Y009630D01*
X008438Y009630D01*
X008438Y009590D01*
X007818Y009590D01*
X007818Y009345D01*
X008193Y008970D01*
X008438Y008970D01*
X008438Y009590D01*
X008478Y009590D01*
X008478Y008970D01*
X008723Y008970D01*
X008958Y009205D01*
X009193Y008970D01*
X009438Y008970D01*
X009438Y009590D01*
X008818Y009590D01*
X008478Y009590D01*
X008478Y009630D01*
X008438Y009630D01*
X008438Y010590D01*
X008478Y010590D01*
X008478Y009970D01*
X008478Y009630D01*
X009438Y009630D01*
X009438Y009590D01*
X009478Y009590D01*
X009478Y008970D01*
X009723Y008970D01*
X010098Y009345D01*
X010098Y009590D01*
X009478Y009590D01*
X009478Y009630D01*
X009438Y009630D01*
X009438Y010590D01*
X008818Y010590D01*
X008478Y010590D01*
X008478Y010630D01*
X008438Y010630D01*
X008438Y011250D01*
X008193Y011250D01*
X008438Y011164D02*
X008478Y011164D01*
X008478Y011250D02*
X008478Y010630D01*
X009438Y010630D01*
X009438Y010590D01*
X009478Y010590D01*
X009478Y009970D01*
X009478Y009630D01*
X010098Y009630D01*
X010098Y009875D01*
X009863Y010110D01*
X010098Y010345D01*
X010098Y010590D01*
X009478Y010590D01*
X009478Y010630D01*
X009438Y010630D01*
X009438Y011250D01*
X009193Y011250D01*
X008958Y011015D01*
X008723Y011250D01*
X008478Y011250D01*
X008478Y011006D02*
X008438Y011006D01*
X008438Y010847D02*
X008478Y010847D01*
X008478Y010689D02*
X008438Y010689D01*
X008438Y010530D02*
X008478Y010530D01*
X008478Y010372D02*
X008438Y010372D01*
X008438Y010213D02*
X008478Y010213D01*
X008478Y010055D02*
X008438Y010055D01*
X008438Y009896D02*
X008478Y009896D01*
X008478Y009738D02*
X008438Y009738D01*
X008438Y009579D02*
X008478Y009579D01*
X008478Y009421D02*
X008438Y009421D01*
X008438Y009262D02*
X008478Y009262D01*
X008478Y009104D02*
X008438Y009104D01*
X008060Y009104D02*
X007130Y009104D01*
X007122Y009083D02*
X007263Y009425D01*
X007263Y009795D01*
X007122Y010137D01*
X006860Y010398D01*
X006518Y010540D01*
X006148Y010540D01*
X005807Y010398D01*
X005545Y010137D01*
X005403Y009795D01*
X005403Y009425D01*
X005545Y009083D01*
X005807Y008822D01*
X006148Y008680D01*
X006518Y008680D01*
X006860Y008822D01*
X007122Y009083D01*
X007196Y009262D02*
X007901Y009262D01*
X007818Y009421D02*
X007261Y009421D01*
X007263Y009579D02*
X007818Y009579D01*
X007818Y009738D02*
X007263Y009738D01*
X007221Y009896D02*
X007839Y009896D01*
X007998Y010055D02*
X007156Y010055D01*
X007046Y010213D02*
X007950Y010213D01*
X007818Y010372D02*
X006887Y010372D01*
X006542Y010530D02*
X007818Y010530D01*
X007818Y010689D02*
X005313Y010689D01*
X005313Y010847D02*
X007818Y010847D01*
X007949Y011006D02*
X005313Y011006D01*
X005313Y010530D02*
X006124Y010530D01*
X005780Y010372D02*
X005313Y010372D01*
X005313Y010213D02*
X005621Y010213D01*
X005511Y010055D02*
X005313Y010055D01*
X005313Y009896D02*
X005445Y009896D01*
X005403Y009738D02*
X005313Y009738D01*
X005313Y009579D02*
X005403Y009579D01*
X005405Y009421D02*
X005313Y009421D01*
X005313Y009262D02*
X005471Y009262D01*
X005537Y009104D02*
X005313Y009104D01*
X005313Y008945D02*
X005683Y008945D01*
X005891Y008787D02*
X005313Y008787D01*
X005313Y008628D02*
X011137Y008628D01*
X011021Y008787D02*
X006775Y008787D01*
X006984Y008945D02*
X010978Y008945D01*
X010978Y009104D02*
X009857Y009104D01*
X010015Y009262D02*
X010978Y009262D01*
X010978Y009421D02*
X010098Y009421D01*
X010098Y009579D02*
X010978Y009579D01*
X010978Y009738D02*
X010098Y009738D01*
X010077Y009896D02*
X010978Y009896D01*
X010978Y010055D02*
X009919Y010055D01*
X009966Y010213D02*
X010978Y010213D01*
X010978Y010372D02*
X010098Y010372D01*
X010098Y010530D02*
X010978Y010530D01*
X010978Y010689D02*
X010098Y010689D01*
X010098Y010630D02*
X010098Y010875D01*
X009723Y011250D01*
X009478Y011250D01*
X009478Y010630D01*
X010098Y010630D01*
X010098Y010847D02*
X010978Y010847D01*
X010978Y011006D02*
X009968Y011006D01*
X009809Y011164D02*
X010976Y011164D01*
X011938Y011161D02*
X011938Y010689D01*
X012210Y010960D01*
X012458Y010960D01*
X012458Y010360D01*
X012458Y010360D01*
X012458Y010360D01*
X012458Y009760D01*
X012210Y009760D01*
X011938Y010031D01*
X011938Y009184D01*
X012657Y008465D01*
X015808Y008465D01*
X015808Y008631D01*
X015708Y008731D01*
X015548Y008571D01*
X015328Y008480D01*
X015089Y008480D01*
X014868Y008571D01*
X014708Y008731D01*
X014548Y008571D01*
X014328Y008480D01*
X014089Y008480D01*
X013868Y008571D01*
X013700Y008740D01*
X013608Y008961D01*
X013608Y009759D01*
X013700Y009980D01*
X013868Y010149D01*
X014089Y010240D01*
X014328Y010240D01*
X014548Y010149D01*
X014708Y009989D01*
X014868Y010149D01*
X015089Y010240D01*
X015328Y010240D01*
X015548Y010149D01*
X015708Y009989D01*
X015868Y010149D01*
X016089Y010240D01*
X016328Y010240D01*
X016548Y010149D01*
X016715Y009982D01*
X016751Y010031D01*
X016817Y010098D01*
X016894Y010153D01*
X016978Y010196D01*
X017068Y010225D01*
X017161Y010240D01*
X017208Y010240D01*
X017208Y009360D01*
X017208Y009360D01*
X017208Y009360D01*
X017208Y008480D01*
X017161Y008480D01*
X017068Y008495D01*
X016978Y008524D01*
X016894Y008567D01*
X016817Y008622D01*
X016751Y008689D01*
X016715Y008738D01*
X016608Y008631D01*
X016608Y008465D01*
X018228Y008465D01*
X018228Y008741D01*
X018108Y008861D01*
X018108Y009359D01*
X018460Y009710D01*
X018957Y009710D01*
X019308Y009359D01*
X019308Y008861D01*
X019188Y008741D01*
X019188Y008465D01*
X022058Y008465D01*
X022058Y008631D01*
X021950Y008740D01*
X021858Y008961D01*
X021858Y009759D01*
X021950Y009980D01*
X022118Y010149D01*
X022339Y010240D01*
X022578Y010240D01*
X022798Y010149D01*
X022958Y009989D01*
X023118Y010149D01*
X023197Y010181D01*
X022793Y010585D01*
X021558Y010585D01*
X021558Y010360D01*
X020958Y010360D01*
X020358Y010360D01*
X020358Y010111D01*
X020710Y009760D01*
X020958Y009760D01*
X020958Y010360D01*
X020958Y010360D01*
X020358Y010360D01*
X020358Y010585D01*
X016504Y010585D01*
X016357Y010646D01*
X016244Y010758D01*
X015466Y011537D01*
X015328Y011480D01*
X015089Y011480D01*
X014868Y011571D01*
X014708Y011731D01*
X014548Y011571D01*
X014328Y011480D01*
X014089Y011480D01*
X013868Y011571D01*
X013700Y011740D01*
X013642Y011880D01*
X012827Y011880D01*
X012707Y011760D01*
X012537Y011760D01*
X011938Y011161D01*
X011941Y011164D02*
X015839Y011164D01*
X015997Y011006D02*
X011938Y011006D01*
X011938Y010847D02*
X012097Y010847D01*
X012458Y010847D02*
X012458Y010847D01*
X012458Y010960D02*
X012458Y010360D01*
X012458Y009760D01*
X012707Y009760D01*
X013058Y010111D01*
X013058Y010360D01*
X012458Y010360D01*
X013058Y010360D01*
X013058Y010609D01*
X012707Y010960D01*
X012458Y010960D01*
X012458Y010689D02*
X012458Y010689D01*
X012458Y010530D02*
X012458Y010530D01*
X012458Y010372D02*
X012458Y010372D01*
X012458Y010360D02*
X012458Y010360D01*
X012458Y010213D02*
X012458Y010213D01*
X012458Y010055D02*
X012458Y010055D01*
X012458Y009896D02*
X012458Y009896D01*
X012074Y009896D02*
X011938Y009896D01*
X011938Y009738D02*
X013608Y009738D01*
X013608Y009579D02*
X011938Y009579D01*
X011938Y009421D02*
X013608Y009421D01*
X013608Y009262D02*
X011938Y009262D01*
X012019Y009104D02*
X013608Y009104D01*
X013615Y008945D02*
X012177Y008945D01*
X012336Y008787D02*
X013680Y008787D01*
X013812Y008628D02*
X012494Y008628D01*
X012653Y008470D02*
X015808Y008470D01*
X015808Y008628D02*
X015605Y008628D01*
X014812Y008628D02*
X014605Y008628D01*
X016208Y007985D02*
X016208Y009360D01*
X015774Y010055D02*
X015642Y010055D01*
X015393Y010213D02*
X016024Y010213D01*
X016393Y010213D02*
X017030Y010213D01*
X017208Y010213D02*
X017208Y010213D01*
X017208Y010240D02*
X017208Y009360D01*
X017208Y008480D01*
X017256Y008480D01*
X017349Y008495D01*
X017439Y008524D01*
X017523Y008567D01*
X017599Y008622D01*
X017666Y008689D01*
X017721Y008766D01*
X017764Y008850D01*
X017794Y008939D01*
X017808Y009033D01*
X017808Y009360D01*
X017208Y009360D01*
X017808Y009360D01*
X017808Y009687D01*
X017794Y009780D01*
X017764Y009870D01*
X017721Y009954D01*
X017666Y010031D01*
X017599Y010098D01*
X017523Y010153D01*
X017439Y010196D01*
X017349Y010225D01*
X017256Y010240D01*
X017208Y010240D01*
X017386Y010213D02*
X020358Y010213D01*
X020358Y010372D02*
X013058Y010372D01*
X013058Y010530D02*
X020358Y010530D01*
X020415Y010055D02*
X017642Y010055D01*
X017751Y009896D02*
X020574Y009896D01*
X020958Y009896D02*
X020958Y009896D01*
X020958Y009760D02*
X021207Y009760D01*
X021558Y010111D01*
X021558Y010360D01*
X020958Y010360D01*
X020958Y010360D01*
X020958Y009760D01*
X020958Y010055D02*
X020958Y010055D01*
X020958Y010213D02*
X020958Y010213D01*
X020958Y010360D02*
X020958Y010360D01*
X021558Y010372D02*
X023006Y010372D01*
X022848Y010530D02*
X021558Y010530D01*
X021558Y010213D02*
X022274Y010213D01*
X022024Y010055D02*
X021501Y010055D01*
X021343Y009896D02*
X021915Y009896D01*
X021858Y009738D02*
X017800Y009738D01*
X017808Y009579D02*
X018329Y009579D01*
X018170Y009421D02*
X017808Y009421D01*
X017808Y009262D02*
X018108Y009262D01*
X018108Y009104D02*
X017808Y009104D01*
X017794Y008945D02*
X018108Y008945D01*
X018183Y008787D02*
X017732Y008787D01*
X017605Y008628D02*
X018228Y008628D01*
X018228Y008470D02*
X016608Y008470D01*
X016608Y008628D02*
X016812Y008628D01*
X017208Y008628D02*
X017208Y008628D01*
X017208Y008787D02*
X017208Y008787D01*
X017208Y008945D02*
X017208Y008945D01*
X017208Y009104D02*
X017208Y009104D01*
X017208Y009262D02*
X017208Y009262D01*
X017208Y009360D02*
X017208Y009360D01*
X017208Y009421D02*
X017208Y009421D01*
X017208Y009579D02*
X017208Y009579D01*
X017208Y009738D02*
X017208Y009738D01*
X017208Y009896D02*
X017208Y009896D01*
X017208Y010055D02*
X017208Y010055D01*
X016774Y010055D02*
X016642Y010055D01*
X016314Y010689D02*
X012978Y010689D01*
X012820Y010847D02*
X016156Y010847D01*
X016583Y010985D02*
X022958Y010985D01*
X024458Y009485D01*
X024458Y009360D01*
X024958Y009989D02*
X024798Y010149D01*
X024578Y010240D01*
X024339Y010240D01*
X024290Y010220D01*
X023185Y011324D01*
X023038Y011385D01*
X022879Y011385D01*
X016749Y011385D01*
X016555Y011579D01*
X016708Y011731D01*
X016868Y011571D01*
X017089Y011480D01*
X017328Y011480D01*
X017548Y011571D01*
X017717Y011740D01*
X017808Y011961D01*
X017808Y012710D01*
X020460Y012710D01*
X020358Y012609D01*
X020358Y012111D01*
X020710Y011760D01*
X021207Y011760D01*
X021327Y011880D01*
X021892Y011880D01*
X021950Y011740D01*
X022118Y011571D01*
X022339Y011480D01*
X022578Y011480D01*
X022798Y011571D01*
X022965Y011738D01*
X023001Y011689D01*
X023067Y011622D01*
X023144Y011567D01*
X023228Y011524D01*
X023318Y011495D01*
X023411Y011480D01*
X023458Y011480D01*
X023458Y012360D01*
X023458Y012360D01*
X023458Y011480D01*
X023506Y011480D01*
X023599Y011495D01*
X023689Y011524D01*
X023773Y011567D01*
X023849Y011622D01*
X023916Y011689D01*
X023958Y011747D01*
X024001Y011689D01*
X024067Y011622D01*
X024144Y011567D01*
X024228Y011524D01*
X024318Y011495D01*
X024411Y011480D01*
X024458Y011480D01*
X024458Y012360D01*
X023458Y012360D01*
X024058Y012360D01*
X024458Y012360D01*
X024458Y012360D01*
X024458Y012360D01*
X024458Y011480D01*
X024506Y011480D01*
X024599Y011495D01*
X024689Y011524D01*
X024773Y011567D01*
X024849Y011622D01*
X024916Y011689D01*
X024958Y011747D01*
X025001Y011689D01*
X025067Y011622D01*
X025144Y011567D01*
X025228Y011524D01*
X025318Y011495D01*
X025411Y011480D01*
X025458Y011480D01*
X025458Y012360D01*
X024458Y012360D01*
X025058Y012360D01*
X025458Y012360D01*
X025458Y012360D01*
X025458Y012360D01*
X025458Y011480D01*
X025506Y011480D01*
X025599Y011495D01*
X025689Y011524D01*
X025773Y011567D01*
X025849Y011622D01*
X025916Y011689D01*
X025958Y011747D01*
X026001Y011689D01*
X026067Y011622D01*
X026144Y011567D01*
X026228Y011524D01*
X026318Y011495D01*
X026411Y011480D01*
X026458Y011480D01*
X026458Y012360D01*
X025458Y012360D01*
X026058Y012360D01*
X026458Y012360D01*
X026458Y012360D01*
X026458Y012360D01*
X026458Y011480D01*
X026506Y011480D01*
X026599Y011495D01*
X026689Y011524D01*
X026773Y011567D01*
X026849Y011622D01*
X026916Y011689D01*
X026952Y011738D01*
X027118Y011571D01*
X027339Y011480D01*
X027578Y011480D01*
X027798Y011571D01*
X027958Y011731D01*
X028118Y011571D01*
X028339Y011480D01*
X028578Y011480D01*
X028798Y011571D01*
X028967Y011740D01*
X029058Y011961D01*
X029058Y012710D01*
X029960Y012710D01*
X029858Y012609D01*
X029858Y012360D01*
X029858Y012111D01*
X030210Y011760D01*
X030458Y011760D01*
X030458Y012360D01*
X029858Y012360D01*
X030458Y012360D01*
X030458Y012360D01*
X030458Y012360D01*
X030458Y011760D01*
X030707Y011760D01*
X031058Y012111D01*
X031058Y012360D01*
X030458Y012360D01*
X031058Y012360D01*
X031058Y012609D01*
X030957Y012710D01*
X031362Y012710D01*
X031358Y012687D01*
X031358Y012360D01*
X031358Y012033D01*
X031373Y011939D01*
X031402Y011850D01*
X031445Y011766D01*
X031501Y011689D01*
X031567Y011622D01*
X031644Y011567D01*
X031728Y011524D01*
X031818Y011495D01*
X031911Y011480D01*
X031958Y011480D01*
X031958Y012360D01*
X031358Y012360D01*
X031958Y012360D01*
X031958Y012360D01*
X031958Y012360D01*
X031958Y011480D01*
X032006Y011480D01*
X032099Y011495D01*
X032189Y011524D01*
X032273Y011567D01*
X032349Y011622D01*
X032416Y011689D01*
X032458Y011747D01*
X032501Y011689D01*
X032567Y011622D01*
X032644Y011567D01*
X032728Y011524D01*
X032818Y011495D01*
X032911Y011480D01*
X032958Y011480D01*
X032958Y012360D01*
X032558Y012360D01*
X031958Y012360D01*
X032958Y012360D01*
X032958Y012360D01*
X032958Y012360D01*
X032958Y011480D01*
X033006Y011480D01*
X033099Y011495D01*
X033189Y011524D01*
X033273Y011567D01*
X033349Y011622D01*
X033416Y011689D01*
X033458Y011747D01*
X033501Y011689D01*
X033567Y011622D01*
X033644Y011567D01*
X033728Y011524D01*
X033818Y011495D01*
X033911Y011480D01*
X033958Y011480D01*
X033958Y012360D01*
X033358Y012360D01*
X032958Y012360D01*
X033958Y012360D01*
X033958Y012360D01*
X033958Y012360D01*
X033958Y011480D01*
X034006Y011480D01*
X034099Y011495D01*
X034189Y011524D01*
X034273Y011567D01*
X034349Y011622D01*
X034416Y011689D01*
X034452Y011738D01*
X034478Y011711D01*
X034478Y011309D01*
X034010Y010840D01*
X030827Y010840D01*
X030707Y010960D01*
X030210Y010960D01*
X029858Y010609D01*
X029858Y010111D01*
X029978Y009991D01*
X029978Y009365D01*
X029822Y009430D01*
X029595Y009430D01*
X029385Y009343D01*
X029302Y009260D01*
X029129Y009260D01*
X029058Y009231D01*
X029058Y009360D01*
X029058Y009687D01*
X029044Y009780D01*
X029014Y009870D01*
X028971Y009954D01*
X028916Y010031D01*
X028849Y010098D01*
X028773Y010153D01*
X028689Y010196D01*
X028599Y010225D01*
X028506Y010240D01*
X028458Y010240D01*
X028411Y010240D01*
X028318Y010225D01*
X028228Y010196D01*
X028144Y010153D01*
X028067Y010098D01*
X028001Y010031D01*
X027965Y009982D01*
X027798Y010149D01*
X027578Y010240D01*
X027339Y010240D01*
X027118Y010149D01*
X026958Y009989D01*
X026798Y010149D01*
X026578Y010240D01*
X026339Y010240D01*
X026118Y010149D01*
X025958Y009989D01*
X025798Y010149D01*
X025578Y010240D01*
X025339Y010240D01*
X025118Y010149D01*
X024958Y009989D01*
X024892Y010055D02*
X025024Y010055D01*
X025274Y010213D02*
X024643Y010213D01*
X024138Y010372D02*
X029858Y010372D01*
X029858Y010530D02*
X023979Y010530D01*
X023821Y010689D02*
X029938Y010689D01*
X030097Y010847D02*
X023662Y010847D01*
X023504Y011006D02*
X034175Y011006D01*
X034334Y011164D02*
X023345Y011164D01*
X023187Y011323D02*
X034478Y011323D01*
X034478Y011481D02*
X034012Y011481D01*
X033958Y011481D02*
X033958Y011481D01*
X033905Y011481D02*
X033012Y011481D01*
X032958Y011481D02*
X032958Y011481D01*
X032905Y011481D02*
X032012Y011481D01*
X031958Y011481D02*
X031958Y011481D01*
X031905Y011481D02*
X028580Y011481D01*
X028337Y011481D02*
X027580Y011481D01*
X027337Y011481D02*
X026512Y011481D01*
X026458Y011481D02*
X026458Y011481D01*
X026405Y011481D02*
X025512Y011481D01*
X025458Y011481D02*
X025458Y011481D01*
X025405Y011481D02*
X024512Y011481D01*
X024458Y011481D02*
X024458Y011481D01*
X024405Y011481D02*
X023512Y011481D01*
X023458Y011481D02*
X023458Y011481D01*
X023405Y011481D02*
X022580Y011481D01*
X022337Y011481D02*
X017330Y011481D01*
X017087Y011481D02*
X016653Y011481D01*
X016616Y011640D02*
X016800Y011640D01*
X016583Y010985D02*
X015208Y012360D01*
X014800Y011640D02*
X014616Y011640D01*
X014330Y011481D02*
X015087Y011481D01*
X015330Y011481D02*
X015522Y011481D01*
X015680Y011323D02*
X012100Y011323D01*
X012258Y011481D02*
X014087Y011481D01*
X013800Y011640D02*
X012417Y011640D01*
X012745Y011798D02*
X013676Y011798D01*
X014024Y010213D02*
X013058Y010213D01*
X013001Y010055D02*
X013774Y010055D01*
X013665Y009896D02*
X012843Y009896D01*
X014393Y010213D02*
X015024Y010213D01*
X014774Y010055D02*
X014642Y010055D01*
X017616Y011640D02*
X018330Y011640D01*
X018460Y011510D02*
X018957Y011510D01*
X019308Y011861D01*
X019308Y012359D01*
X018957Y012710D01*
X018460Y012710D01*
X018108Y012359D01*
X018108Y011861D01*
X018460Y011510D01*
X018172Y011798D02*
X017741Y011798D01*
X017807Y011957D02*
X018108Y011957D01*
X018108Y012115D02*
X017808Y012115D01*
X017808Y012274D02*
X018108Y012274D01*
X018182Y012432D02*
X017808Y012432D01*
X017808Y012591D02*
X018340Y012591D01*
X019076Y012591D02*
X020358Y012591D01*
X020358Y012432D02*
X019235Y012432D01*
X019308Y012274D02*
X020358Y012274D01*
X020358Y012115D02*
X019308Y012115D01*
X019308Y011957D02*
X020513Y011957D01*
X020672Y011798D02*
X019245Y011798D01*
X019086Y011640D02*
X022050Y011640D01*
X021926Y011798D02*
X021245Y011798D01*
X022866Y011640D02*
X023050Y011640D01*
X023458Y011640D02*
X023458Y011640D01*
X023458Y011798D02*
X023458Y011798D01*
X023458Y011957D02*
X023458Y011957D01*
X023458Y012115D02*
X023458Y012115D01*
X023458Y012274D02*
X023458Y012274D01*
X023458Y012360D02*
X023458Y012360D01*
X023866Y011640D02*
X024050Y011640D01*
X024458Y011640D02*
X024458Y011640D01*
X024458Y011798D02*
X024458Y011798D01*
X024458Y011957D02*
X024458Y011957D01*
X024458Y012115D02*
X024458Y012115D01*
X024458Y012274D02*
X024458Y012274D01*
X024458Y012360D02*
X024458Y012360D01*
X024866Y011640D02*
X025050Y011640D01*
X025458Y011640D02*
X025458Y011640D01*
X025458Y011798D02*
X025458Y011798D01*
X025458Y011957D02*
X025458Y011957D01*
X025458Y012115D02*
X025458Y012115D01*
X025458Y012274D02*
X025458Y012274D01*
X025458Y012360D02*
X025458Y012360D01*
X025866Y011640D02*
X026050Y011640D01*
X026458Y011640D02*
X026458Y011640D01*
X026458Y011798D02*
X026458Y011798D01*
X026458Y011957D02*
X026458Y011957D01*
X026458Y012115D02*
X026458Y012115D01*
X026458Y012274D02*
X026458Y012274D01*
X026866Y011640D02*
X027050Y011640D01*
X027866Y011640D02*
X028050Y011640D01*
X028866Y011640D02*
X031550Y011640D01*
X031429Y011798D02*
X030745Y011798D01*
X030903Y011957D02*
X031370Y011957D01*
X031358Y012115D02*
X031058Y012115D01*
X031058Y012274D02*
X031358Y012274D01*
X031358Y012432D02*
X031058Y012432D01*
X031058Y012591D02*
X031358Y012591D01*
X031958Y012360D02*
X031958Y012360D01*
X031958Y012274D02*
X031958Y012274D01*
X031958Y012115D02*
X031958Y012115D01*
X031958Y011957D02*
X031958Y011957D01*
X031958Y011798D02*
X031958Y011798D01*
X031958Y011640D02*
X031958Y011640D01*
X032366Y011640D02*
X032550Y011640D01*
X032958Y011640D02*
X032958Y011640D01*
X032958Y011798D02*
X032958Y011798D01*
X032958Y011957D02*
X032958Y011957D01*
X032958Y012115D02*
X032958Y012115D01*
X032958Y012274D02*
X032958Y012274D01*
X032958Y012360D02*
X032958Y012360D01*
X033366Y011640D02*
X033550Y011640D01*
X033958Y011640D02*
X033958Y011640D01*
X033958Y011798D02*
X033958Y011798D01*
X033958Y011957D02*
X033958Y011957D01*
X033958Y012115D02*
X033958Y012115D01*
X033958Y012274D02*
X033958Y012274D01*
X034366Y011640D02*
X034478Y011640D01*
X034017Y010847D02*
X030820Y010847D01*
X030458Y011798D02*
X030458Y011798D01*
X030458Y011957D02*
X030458Y011957D01*
X030458Y012115D02*
X030458Y012115D01*
X030458Y012274D02*
X030458Y012274D01*
X030458Y012360D02*
X030458Y012360D01*
X030013Y011957D02*
X029057Y011957D01*
X029058Y012115D02*
X029858Y012115D01*
X029858Y012274D02*
X029058Y012274D01*
X029058Y012432D02*
X029858Y012432D01*
X029858Y012591D02*
X029058Y012591D01*
X028991Y011798D02*
X030172Y011798D01*
X029858Y010213D02*
X028636Y010213D01*
X028458Y010213D02*
X028458Y010213D01*
X028458Y010240D02*
X028458Y009360D01*
X028458Y010240D01*
X028280Y010213D02*
X027643Y010213D01*
X027892Y010055D02*
X028024Y010055D01*
X028458Y010055D02*
X028458Y010055D01*
X028458Y009896D02*
X028458Y009896D01*
X028458Y009738D02*
X028458Y009738D01*
X028458Y009579D02*
X028458Y009579D01*
X028458Y009421D02*
X028458Y009421D01*
X028458Y009360D02*
X028458Y009360D01*
X029058Y009360D01*
X028458Y009360D01*
X028458Y009360D01*
X029058Y009421D02*
X029572Y009421D01*
X029845Y009421D02*
X029978Y009421D01*
X029978Y009579D02*
X029058Y009579D01*
X029050Y009738D02*
X029978Y009738D01*
X029978Y009896D02*
X029001Y009896D01*
X028892Y010055D02*
X029915Y010055D01*
X029304Y009262D02*
X029058Y009262D01*
X029208Y008860D02*
X028958Y008610D01*
X027958Y008610D01*
X027458Y009110D01*
X027458Y009360D01*
X027024Y010055D02*
X026892Y010055D01*
X026643Y010213D02*
X027274Y010213D01*
X026274Y010213D02*
X025643Y010213D01*
X025892Y010055D02*
X026024Y010055D01*
X025458Y009360D02*
X025458Y007985D01*
X022458Y007985D02*
X022458Y009360D01*
X021858Y009421D02*
X019246Y009421D01*
X019308Y009262D02*
X021858Y009262D01*
X021858Y009104D02*
X019308Y009104D01*
X019308Y008945D02*
X021865Y008945D01*
X021930Y008787D02*
X019233Y008787D01*
X019188Y008628D02*
X022058Y008628D01*
X022058Y008470D02*
X019188Y008470D01*
X019088Y009579D02*
X021858Y009579D01*
X022643Y010213D02*
X023165Y010213D01*
X023024Y010055D02*
X022892Y010055D01*
X029208Y008860D02*
X029708Y008860D01*
X031083Y008860D02*
X031458Y008485D01*
X050833Y008485D01*
X051458Y009110D01*
X051458Y010110D01*
X050958Y010610D01*
X055768Y017821D02*
X057682Y017821D01*
X057840Y017663D02*
X057114Y017663D01*
X057523Y017980D02*
X055926Y017980D01*
X056058Y018138D02*
X057365Y018138D01*
X057206Y018297D02*
X056058Y018297D01*
X056058Y018455D02*
X057048Y018455D01*
X056889Y018614D02*
X056053Y018614D01*
X057458Y019860D02*
X049208Y019860D01*
X048833Y020235D01*
X048333Y020235D01*
X047958Y020610D01*
X048958Y020610D02*
X049333Y020235D01*
X057708Y020235D01*
X058833Y019110D01*
X060833Y019110D01*
X061333Y019610D01*
X061833Y019610D01*
X062333Y020110D01*
X065333Y020110D01*
X065833Y019610D01*
X065833Y020610D02*
X065333Y021110D01*
X062333Y021110D01*
X061833Y020610D01*
X061333Y020610D01*
X059458Y022485D01*
X051083Y022485D01*
X051708Y022110D02*
X050958Y021360D01*
X051708Y022110D02*
X058833Y022110D01*
X060333Y020610D01*
X061042Y021467D02*
X062149Y021467D01*
X061966Y021308D02*
X061201Y021308D01*
X060884Y021625D02*
X063198Y021625D01*
X063198Y021784D02*
X060725Y021784D01*
X060567Y021942D02*
X063267Y021942D01*
X063426Y022101D02*
X060408Y022101D01*
X060250Y022259D02*
X063286Y022259D01*
X063198Y022418D02*
X060091Y022418D01*
X059933Y022576D02*
X063198Y022576D01*
X063198Y022735D02*
X059774Y022735D01*
X059333Y020610D02*
X049458Y020610D01*
X046958Y022235D02*
X047958Y023235D01*
X056958Y023235D01*
X057528Y023210D02*
X063335Y023210D01*
X063377Y023052D02*
X057499Y023052D01*
X057422Y022893D02*
X063218Y022893D01*
X063198Y023369D02*
X057520Y023369D01*
X057454Y023527D02*
X063198Y023527D01*
X063198Y023686D02*
X057314Y023686D01*
X056708Y024860D02*
X056708Y025985D01*
X056958Y026235D01*
X057583Y026235D01*
X058208Y025610D01*
X058208Y025360D01*
X059613Y024637D02*
X059803Y024637D01*
X060613Y024637D02*
X060803Y024637D01*
X060208Y025360D02*
X060208Y026360D01*
X059708Y026860D01*
X059208Y026860D01*
X054708Y026360D02*
X054708Y026360D01*
X054243Y027260D02*
X054058Y027260D01*
X054058Y027360D01*
X054058Y027444D01*
X054243Y027260D01*
X054172Y027331D02*
X054058Y027331D01*
X054058Y027360D02*
X053458Y027360D01*
X054058Y027360D01*
X053458Y027360D02*
X053458Y027360D01*
X048958Y027360D02*
X046958Y027360D01*
X046958Y028360D01*
X046544Y029075D02*
X046372Y029075D01*
X045544Y029075D02*
X045372Y029075D01*
X044958Y028360D02*
X045958Y027360D01*
X046958Y027360D01*
X045493Y027260D02*
X040830Y027260D01*
X040838Y027313D01*
X040838Y027360D01*
X040838Y027407D01*
X040824Y027500D01*
X040794Y027590D01*
X040751Y027674D01*
X040696Y027751D01*
X040629Y027818D01*
X040580Y027853D01*
X040747Y028020D01*
X040838Y028241D01*
X040838Y028479D01*
X040747Y028700D01*
X040657Y028790D01*
X040697Y028790D01*
X040906Y028877D01*
X041067Y029037D01*
X041153Y029247D01*
X041153Y029335D01*
X042802Y029335D01*
X042885Y029252D01*
X042914Y029240D01*
X042911Y029240D01*
X042818Y029225D01*
X042728Y029196D01*
X042644Y029153D01*
X042567Y029098D01*
X042501Y029031D01*
X042445Y028954D01*
X042402Y028870D01*
X042373Y028780D01*
X042358Y028687D01*
X042358Y028360D01*
X042358Y028033D01*
X042373Y027939D01*
X042402Y027850D01*
X042445Y027766D01*
X042501Y027689D01*
X042567Y027622D01*
X042644Y027567D01*
X042728Y027524D01*
X042818Y027495D01*
X042911Y027480D01*
X042958Y027480D01*
X042958Y028360D01*
X042358Y028360D01*
X042958Y028360D01*
X042958Y028360D01*
X042958Y028360D01*
X042958Y027480D01*
X043006Y027480D01*
X043099Y027495D01*
X043189Y027524D01*
X043273Y027567D01*
X043349Y027622D01*
X043416Y027689D01*
X043452Y027738D01*
X043618Y027571D01*
X043839Y027480D01*
X044078Y027480D01*
X044298Y027571D01*
X044458Y027731D01*
X044618Y027571D01*
X044839Y027480D01*
X045078Y027480D01*
X045216Y027537D01*
X045493Y027260D01*
X045422Y027331D02*
X040838Y027331D01*
X040838Y027360D02*
X039958Y027360D01*
X039958Y027360D01*
X040838Y027360D01*
X040825Y027490D02*
X042851Y027490D01*
X042958Y027490D02*
X042958Y027490D01*
X043066Y027490D02*
X043816Y027490D01*
X044101Y027490D02*
X044816Y027490D01*
X045101Y027490D02*
X045263Y027490D01*
X044542Y027648D02*
X044375Y027648D01*
X043542Y027648D02*
X043375Y027648D01*
X042958Y027648D02*
X042958Y027648D01*
X042958Y027807D02*
X042958Y027807D01*
X042958Y027965D02*
X042958Y027965D01*
X042958Y028124D02*
X042958Y028124D01*
X042958Y028282D02*
X042958Y028282D01*
X042358Y028282D02*
X040838Y028282D01*
X040838Y028441D02*
X042358Y028441D01*
X042358Y028599D02*
X040789Y028599D01*
X040689Y028758D02*
X042369Y028758D01*
X042426Y028916D02*
X040945Y028916D01*
X041082Y029075D02*
X042544Y029075D01*
X042867Y029233D02*
X041148Y029233D01*
X040958Y029735D02*
X040583Y029360D01*
X040958Y029735D02*
X043208Y029735D01*
X044372Y029075D02*
X044544Y029075D01*
X042358Y028124D02*
X040790Y028124D01*
X040692Y027965D02*
X042369Y027965D01*
X042424Y027807D02*
X040640Y027807D01*
X040765Y027648D02*
X042542Y027648D01*
X043708Y026485D02*
X044958Y026485D01*
X043708Y026485D02*
X042958Y025360D01*
X041650Y024478D02*
X040838Y024478D01*
X040838Y024320D02*
X041808Y024320D01*
X041967Y024161D02*
X040805Y024161D01*
X040729Y024003D02*
X042125Y024003D01*
X041491Y024637D02*
X040773Y024637D01*
X040652Y024795D02*
X041333Y024795D01*
X041174Y024954D02*
X040680Y024954D01*
X040785Y025112D02*
X041016Y025112D01*
X040857Y025271D02*
X040832Y025271D01*
X039958Y025360D02*
X039958Y025360D01*
X039958Y027360D02*
X039958Y027360D01*
X044833Y022235D02*
X043958Y021360D01*
X042958Y021360D02*
X042958Y021360D01*
X044833Y022235D02*
X046958Y022235D01*
X040583Y016360D02*
X040583Y016360D01*
X040583Y016236D02*
X040583Y016236D01*
X040583Y016078D02*
X040583Y016078D01*
X040583Y015919D02*
X040583Y015919D01*
X040221Y015919D02*
X040073Y015919D01*
X036958Y012360D02*
X037958Y011360D01*
X036611Y010141D02*
X036458Y009989D01*
X036298Y010149D01*
X036078Y010240D01*
X035839Y010240D01*
X035618Y010149D01*
X035452Y009982D01*
X035416Y010031D01*
X035349Y010098D01*
X035273Y010153D01*
X035189Y010196D01*
X035099Y010225D01*
X035006Y010240D01*
X034958Y010240D01*
X034911Y010240D01*
X034818Y010225D01*
X034728Y010196D01*
X034718Y010191D01*
X035230Y010703D01*
X035365Y010838D01*
X035438Y011015D01*
X035438Y011711D01*
X035458Y011731D01*
X035558Y011631D01*
X035558Y011280D01*
X035619Y011133D01*
X035732Y011021D01*
X036611Y010141D01*
X036540Y010213D02*
X036143Y010213D01*
X036381Y010372D02*
X034899Y010372D01*
X034958Y010240D02*
X034958Y009360D01*
X034358Y009360D01*
X033958Y009360D01*
X034958Y009360D01*
X034958Y009360D01*
X034958Y009360D01*
X034958Y010240D01*
X034958Y010213D02*
X034958Y010213D01*
X034958Y010055D02*
X034958Y010055D01*
X034958Y009896D02*
X034958Y009896D01*
X034958Y009738D02*
X034958Y009738D01*
X034958Y009579D02*
X034958Y009579D01*
X034958Y009421D02*
X034958Y009421D01*
X035392Y010055D02*
X035524Y010055D01*
X035774Y010213D02*
X035136Y010213D01*
X035057Y010530D02*
X036223Y010530D01*
X036064Y010689D02*
X035216Y010689D01*
X035369Y010847D02*
X035906Y010847D01*
X035747Y011006D02*
X035435Y011006D01*
X035438Y011164D02*
X035607Y011164D01*
X035558Y011323D02*
X035438Y011323D01*
X035438Y011481D02*
X035558Y011481D01*
X035550Y011640D02*
X035438Y011640D01*
X035958Y011360D02*
X035958Y012360D01*
X035958Y011360D02*
X037958Y009360D01*
X036524Y010055D02*
X036392Y010055D01*
X034780Y010213D02*
X034740Y010213D01*
X033958Y009360D02*
X033958Y009360D01*
X026958Y026360D02*
X027458Y026860D01*
X033083Y032086D02*
X033083Y032086D01*
X033083Y032245D02*
X033083Y032245D01*
X033083Y032403D02*
X033083Y032403D01*
X033083Y032562D02*
X033083Y032562D01*
X036083Y035610D02*
X037208Y035610D01*
X037708Y035110D01*
X040583Y035110D01*
X041083Y035610D01*
X041958Y035610D01*
X041083Y036110D02*
X040583Y035610D01*
X038958Y035610D01*
X037708Y035610D01*
X037208Y036110D01*
X027458Y036110D01*
X026958Y035610D01*
X026083Y035610D01*
X025333Y036110D02*
X024833Y036610D01*
X025333Y036110D02*
X026958Y036110D01*
X027458Y036610D01*
X029083Y036610D01*
X029083Y037610D02*
X027458Y037610D01*
X027458Y037110D02*
X026958Y036610D01*
X026083Y036610D01*
X027458Y037110D02*
X037208Y037110D01*
X037708Y036610D01*
X038958Y036610D01*
X040583Y036610D01*
X041083Y037110D01*
X050583Y037110D01*
X051083Y036610D01*
X051583Y037110D01*
X058208Y037110D01*
X058708Y036610D01*
X060333Y036610D01*
X060833Y036110D01*
X061833Y036110D01*
X062208Y036485D01*
X063708Y036485D01*
X063833Y036610D01*
X063333Y036985D02*
X062208Y036985D01*
X061833Y036610D01*
X061333Y036610D01*
X060833Y037110D02*
X060333Y037610D01*
X058708Y037610D01*
X058208Y038110D01*
X051583Y038110D01*
X051083Y037610D01*
X050583Y038110D01*
X041083Y038110D01*
X040583Y037610D01*
X038958Y037610D01*
X037708Y037610D01*
X037208Y038110D01*
X037208Y037610D02*
X036083Y037610D01*
X037208Y037610D02*
X037708Y037110D01*
X040583Y037110D01*
X041083Y037610D01*
X041958Y037610D01*
X041958Y036610D02*
X041083Y036610D01*
X040583Y036110D01*
X037708Y036110D01*
X037208Y036610D01*
X036083Y036610D01*
X037708Y039110D02*
X037208Y039610D01*
X036083Y039610D01*
X036963Y041596D02*
X038078Y041596D01*
X038089Y041755D02*
X036953Y041755D01*
X036887Y041913D02*
X038154Y041913D01*
X038291Y042072D02*
X036750Y042072D01*
X035458Y042235D02*
X034833Y041610D01*
X033083Y041610D01*
X037938Y044291D02*
X041478Y044291D01*
X041478Y044449D02*
X037938Y044449D01*
X037938Y044608D02*
X041478Y044608D01*
X041478Y044132D02*
X038035Y044132D01*
X038058Y043974D02*
X041478Y043974D01*
X041478Y043815D02*
X040227Y043815D01*
X040385Y043657D02*
X041478Y043657D01*
X041373Y043498D02*
X040544Y043498D01*
X040558Y043340D02*
X041358Y043340D01*
X041358Y043181D02*
X040558Y043181D01*
X040558Y043023D02*
X041358Y043023D01*
X041478Y042864D02*
X040436Y042864D01*
X040277Y042706D02*
X041478Y042706D01*
X042438Y042706D02*
X045639Y042706D01*
X045710Y042635D02*
X045958Y042635D01*
X045958Y043235D01*
X045358Y043235D01*
X045358Y042986D01*
X045710Y042635D01*
X045958Y042635D02*
X045958Y043235D01*
X045958Y043235D01*
X045358Y043235D01*
X045358Y043484D01*
X045710Y043835D01*
X045958Y043835D01*
X045958Y043235D01*
X045958Y043235D01*
X045958Y043235D01*
X045958Y043835D01*
X046207Y043835D01*
X046558Y043484D01*
X046558Y043235D01*
X045958Y043235D01*
X045958Y043235D01*
X046558Y043235D01*
X046558Y042986D01*
X046207Y042635D01*
X045958Y042635D01*
X045958Y042706D02*
X045958Y042706D01*
X045958Y042864D02*
X045958Y042864D01*
X045958Y043023D02*
X045958Y043023D01*
X045958Y043181D02*
X045958Y043181D01*
X045958Y043340D02*
X045958Y043340D01*
X045958Y043498D02*
X045958Y043498D01*
X045958Y043657D02*
X045958Y043657D01*
X045958Y043815D02*
X045958Y043815D01*
X045690Y043815D02*
X042438Y043815D01*
X042438Y043657D02*
X045531Y043657D01*
X045373Y043498D02*
X042544Y043498D01*
X042558Y043484D02*
X042438Y043604D01*
X042438Y044630D01*
X047478Y044630D01*
X047478Y043604D01*
X047358Y043484D01*
X047358Y042986D01*
X047478Y042866D01*
X047478Y042177D01*
X047338Y042119D01*
X047170Y041950D01*
X047078Y041729D01*
X047078Y041510D01*
X045838Y041510D01*
X045838Y041729D01*
X045747Y041950D01*
X045578Y042119D01*
X045358Y042210D01*
X044559Y042210D01*
X044338Y042119D01*
X044170Y041950D01*
X044078Y041729D01*
X044078Y041510D01*
X042838Y041510D01*
X042838Y041729D01*
X042747Y041950D01*
X042578Y042119D01*
X042438Y042177D01*
X042438Y042866D01*
X042558Y042986D01*
X042558Y043484D01*
X042558Y043340D02*
X045358Y043340D01*
X045358Y043181D02*
X042558Y043181D01*
X042558Y043023D02*
X045358Y043023D01*
X045481Y042864D02*
X042438Y042864D01*
X042438Y042547D02*
X047478Y042547D01*
X047478Y042389D02*
X042438Y042389D01*
X042438Y042230D02*
X047478Y042230D01*
X047291Y042072D02*
X045625Y042072D01*
X045762Y041913D02*
X047154Y041913D01*
X047089Y041755D02*
X045828Y041755D01*
X045838Y041596D02*
X047078Y041596D01*
X047087Y040710D02*
X045838Y040710D01*
X045838Y040510D01*
X047087Y040510D01*
X047078Y040563D01*
X047078Y040610D01*
X047958Y040610D01*
X047958Y040610D01*
X047078Y040610D01*
X047078Y040657D01*
X047087Y040710D01*
X047078Y040645D02*
X045838Y040645D01*
X045838Y039710D02*
X045838Y039510D01*
X047087Y039510D01*
X047078Y039563D01*
X047078Y039610D01*
X047958Y039610D01*
X047958Y039610D01*
X047078Y039610D01*
X047078Y039657D01*
X047087Y039710D01*
X045838Y039710D01*
X045838Y039694D02*
X047084Y039694D01*
X047083Y039536D02*
X045838Y039536D01*
X047958Y039610D02*
X048838Y039610D01*
X048838Y039657D01*
X048830Y039710D01*
X050203Y039710D01*
X050203Y039510D01*
X048830Y039510D01*
X048838Y039563D01*
X048838Y039610D01*
X047958Y039610D01*
X047958Y039610D01*
X047958Y040610D02*
X047958Y040610D01*
X048838Y040610D01*
X048838Y040657D01*
X048830Y040710D01*
X050203Y040710D01*
X050203Y040510D01*
X048830Y040510D01*
X048838Y040563D01*
X048838Y040610D01*
X047958Y040610D01*
X048838Y040645D02*
X050203Y040645D01*
X050203Y039694D02*
X048832Y039694D01*
X048834Y039536D02*
X050203Y039536D01*
X050203Y037710D02*
X048830Y037710D01*
X048838Y037657D01*
X048838Y037610D01*
X047958Y037610D01*
X047078Y037610D01*
X047078Y037563D01*
X047087Y037510D01*
X045838Y037510D01*
X045838Y037710D01*
X047087Y037710D01*
X047078Y037657D01*
X047078Y037610D01*
X047958Y037610D01*
X047958Y037610D01*
X047958Y037610D01*
X048838Y037610D01*
X048838Y037563D01*
X048830Y037510D01*
X050203Y037510D01*
X050203Y037710D01*
X050203Y037634D02*
X048838Y037634D01*
X048830Y036710D02*
X050203Y036710D01*
X050203Y036491D01*
X050295Y036270D01*
X050455Y036110D01*
X050295Y035950D01*
X050203Y035729D01*
X050203Y035491D01*
X050247Y035385D01*
X048795Y035385D01*
X048838Y035491D01*
X048838Y035729D01*
X048747Y035950D01*
X048580Y036117D01*
X048629Y036152D01*
X048696Y036219D01*
X048751Y036296D01*
X048794Y036380D01*
X048824Y036469D01*
X048838Y036563D01*
X048838Y036610D01*
X048838Y036657D01*
X048830Y036710D01*
X048834Y036683D02*
X050203Y036683D01*
X050203Y036524D02*
X048832Y036524D01*
X048838Y036610D02*
X047958Y036610D01*
X047078Y036610D01*
X047078Y036563D01*
X047093Y036469D01*
X047122Y036380D01*
X047165Y036296D01*
X047221Y036219D01*
X047287Y036152D01*
X047337Y036117D01*
X047170Y035950D01*
X047078Y035729D01*
X047078Y035491D01*
X047122Y035385D01*
X045796Y035385D01*
X045824Y035469D01*
X045838Y035563D01*
X045838Y035610D01*
X045838Y035657D01*
X045824Y035750D01*
X045794Y035840D01*
X045751Y035924D01*
X045696Y036001D01*
X045629Y036068D01*
X045580Y036103D01*
X045747Y036270D01*
X045838Y036491D01*
X045838Y036710D01*
X047087Y036710D01*
X047078Y036657D01*
X047078Y036610D01*
X047958Y036610D01*
X047958Y036610D01*
X048838Y036610D01*
X048787Y036366D02*
X050255Y036366D01*
X050358Y036207D02*
X048684Y036207D01*
X048648Y036049D02*
X050393Y036049D01*
X050270Y035890D02*
X048772Y035890D01*
X048837Y035732D02*
X050204Y035732D01*
X050203Y035573D02*
X048838Y035573D01*
X048807Y035415D02*
X050235Y035415D01*
X050458Y034985D02*
X044208Y034985D01*
X043083Y036110D01*
X041083Y036110D01*
X041083Y033610D02*
X040583Y033110D01*
X037708Y033110D01*
X041083Y033610D02*
X041958Y033610D01*
X044958Y035610D02*
X044958Y035610D01*
X045838Y035610D01*
X044958Y035610D01*
X045648Y036049D02*
X047268Y036049D01*
X047233Y036207D02*
X045684Y036207D01*
X045787Y036366D02*
X047129Y036366D01*
X047084Y036524D02*
X045838Y036524D01*
X045838Y036683D02*
X047082Y036683D01*
X047145Y035890D02*
X045769Y035890D01*
X045827Y035732D02*
X047079Y035732D01*
X047078Y035573D02*
X045838Y035573D01*
X045806Y035415D02*
X047110Y035415D01*
X047958Y036610D02*
X047958Y036610D01*
X047078Y037634D02*
X045838Y037634D01*
X050458Y034985D02*
X051083Y035610D01*
X051583Y036110D01*
X058208Y036110D01*
X058708Y035610D01*
X060333Y035610D01*
X060833Y035110D01*
X061833Y035110D01*
X062208Y035485D01*
X063708Y035485D01*
X063833Y035610D01*
X063333Y035985D02*
X062208Y035985D01*
X061833Y035610D01*
X061333Y035610D01*
X062208Y034985D02*
X061833Y034610D01*
X061333Y034610D01*
X061833Y034110D02*
X060833Y034110D01*
X061833Y034110D02*
X062208Y034485D01*
X063708Y034485D01*
X063833Y034610D01*
X063333Y034985D02*
X062208Y034985D01*
X063333Y034985D02*
X063458Y035110D01*
X065333Y035110D01*
X065833Y034610D01*
X065333Y034110D02*
X063458Y034110D01*
X063333Y033985D01*
X063362Y033037D02*
X062326Y033037D01*
X062168Y032879D02*
X063204Y032879D01*
X065333Y034110D02*
X065833Y033610D01*
X065833Y035610D02*
X065333Y036110D01*
X063458Y036110D01*
X063333Y035985D01*
X063333Y036985D02*
X063458Y037110D01*
X065333Y037110D01*
X065833Y036610D01*
X065833Y037610D02*
X065333Y038110D01*
X063458Y038110D01*
X063333Y037985D01*
X062208Y037985D01*
X061833Y037610D01*
X061333Y037610D01*
X061833Y037110D02*
X060833Y037110D01*
X061833Y037110D02*
X062208Y037485D01*
X063708Y037485D01*
X063833Y037610D01*
X065333Y039110D02*
X065833Y038610D01*
X065333Y039110D02*
X063458Y039110D01*
X063708Y039485D02*
X062208Y039485D01*
X061833Y039110D01*
X060833Y039110D01*
X061333Y039610D02*
X061833Y039610D01*
X062208Y039985D01*
X063333Y039985D01*
X063458Y040110D01*
X065333Y040110D01*
X065833Y039610D01*
X065833Y040610D02*
X065333Y041110D01*
X063458Y041110D01*
X063333Y040985D01*
X062208Y040985D01*
X061833Y040610D01*
X061333Y040610D01*
X060939Y041121D02*
X060728Y041121D01*
X060333Y040610D02*
X058708Y040610D01*
X058208Y041110D01*
X051583Y041110D01*
X051955Y041510D02*
X051963Y041563D01*
X051963Y041610D01*
X051963Y041657D01*
X051949Y041750D01*
X051919Y041840D01*
X051876Y041924D01*
X051821Y042001D01*
X051754Y042068D01*
X051678Y042123D01*
X051594Y042166D01*
X051504Y042195D01*
X051411Y042210D01*
X051083Y042210D01*
X050756Y042210D01*
X050663Y042195D01*
X050573Y042166D01*
X050489Y042123D01*
X050412Y042068D01*
X050346Y042001D01*
X050290Y041924D01*
X050247Y041840D01*
X050218Y041750D01*
X050203Y041657D01*
X050203Y041610D01*
X050203Y041563D01*
X050212Y041510D01*
X048838Y041510D01*
X048838Y041729D01*
X048747Y041950D01*
X048578Y042119D01*
X048438Y042177D01*
X048438Y042866D01*
X048558Y042986D01*
X048558Y043484D01*
X048438Y043604D01*
X048438Y044630D01*
X053010Y044630D01*
X053603Y044036D01*
X053603Y043604D01*
X053483Y043484D01*
X053483Y042986D01*
X053603Y042866D01*
X053603Y042177D01*
X053463Y042119D01*
X053295Y041950D01*
X053203Y041729D01*
X053203Y041510D01*
X051955Y041510D01*
X051963Y041596D02*
X053203Y041596D01*
X053214Y041755D02*
X051947Y041755D01*
X051963Y041610D02*
X051083Y041610D01*
X050203Y041610D01*
X051083Y041610D01*
X051083Y041610D01*
X051083Y042210D01*
X051083Y041610D01*
X051083Y041610D01*
X051083Y041610D01*
X051963Y041610D01*
X051882Y041913D02*
X053279Y041913D01*
X053416Y042072D02*
X051749Y042072D01*
X051835Y042635D02*
X052083Y042635D01*
X052083Y043235D01*
X051483Y043235D01*
X051483Y042986D01*
X051835Y042635D01*
X051764Y042706D02*
X048438Y042706D01*
X048438Y042864D02*
X051606Y042864D01*
X051483Y043023D02*
X048558Y043023D01*
X048558Y043181D02*
X051483Y043181D01*
X051483Y043235D02*
X052083Y043235D01*
X052083Y043235D01*
X052083Y043235D01*
X052083Y043835D01*
X051835Y043835D01*
X051483Y043484D01*
X051483Y043235D01*
X051483Y043340D02*
X048558Y043340D01*
X048544Y043498D02*
X051498Y043498D01*
X051656Y043657D02*
X048438Y043657D01*
X048438Y043815D02*
X051815Y043815D01*
X052083Y043815D02*
X052083Y043815D01*
X052083Y043835D02*
X052332Y043835D01*
X052683Y043484D01*
X052683Y043235D01*
X052083Y043235D01*
X052083Y043235D01*
X052083Y042635D01*
X052332Y042635D01*
X052683Y042986D01*
X052683Y043235D01*
X052083Y043235D01*
X052083Y043835D01*
X052083Y043657D02*
X052083Y043657D01*
X052083Y043498D02*
X052083Y043498D01*
X052083Y043340D02*
X052083Y043340D01*
X052083Y043235D02*
X052083Y043235D01*
X052083Y043181D02*
X052083Y043181D01*
X052083Y043023D02*
X052083Y043023D01*
X052083Y042864D02*
X052083Y042864D01*
X052083Y042706D02*
X052083Y042706D01*
X052402Y042706D02*
X053603Y042706D01*
X053603Y042864D02*
X052561Y042864D01*
X052683Y043023D02*
X053483Y043023D01*
X053483Y043181D02*
X052683Y043181D01*
X052683Y043340D02*
X053483Y043340D01*
X053498Y043498D02*
X052669Y043498D01*
X052510Y043657D02*
X053603Y043657D01*
X053603Y043815D02*
X052352Y043815D01*
X053190Y044449D02*
X048438Y044449D01*
X048438Y044291D02*
X053349Y044291D01*
X053507Y044132D02*
X048438Y044132D01*
X048438Y043974D02*
X053603Y043974D01*
X053032Y044608D02*
X048438Y044608D01*
X047478Y044608D02*
X042438Y044608D01*
X042438Y044449D02*
X047478Y044449D01*
X047478Y044291D02*
X042438Y044291D01*
X042438Y044132D02*
X047478Y044132D01*
X047478Y043974D02*
X042438Y043974D01*
X042625Y042072D02*
X044291Y042072D01*
X044154Y041913D02*
X042762Y041913D01*
X042828Y041755D02*
X044089Y041755D01*
X044078Y041596D02*
X042838Y041596D01*
X046277Y042706D02*
X047478Y042706D01*
X047478Y042864D02*
X046436Y042864D01*
X046558Y043023D02*
X047358Y043023D01*
X047358Y043181D02*
X046558Y043181D01*
X046558Y043340D02*
X047358Y043340D01*
X047373Y043498D02*
X046544Y043498D01*
X046385Y043657D02*
X047478Y043657D01*
X047478Y043815D02*
X046227Y043815D01*
X048438Y042547D02*
X053603Y042547D01*
X053603Y042389D02*
X048438Y042389D01*
X048438Y042230D02*
X053603Y042230D01*
X054683Y043023D02*
X060016Y043023D01*
X059857Y043181D02*
X054683Y043181D01*
X054683Y043340D02*
X059699Y043340D01*
X059693Y043498D02*
X054669Y043498D01*
X054563Y043657D02*
X055863Y043657D01*
X055756Y043815D02*
X054563Y043815D01*
X054563Y043974D02*
X055725Y043974D01*
X055600Y044132D02*
X054563Y044132D01*
X054563Y044291D02*
X055522Y044291D01*
X055513Y044449D02*
X054514Y044449D01*
X054390Y044608D02*
X055564Y044608D01*
X055513Y044766D02*
X054231Y044766D01*
X054073Y044925D02*
X055520Y044925D01*
X055594Y045083D02*
X053914Y045083D01*
X053756Y045242D02*
X055725Y045242D01*
X055753Y045400D02*
X053597Y045400D01*
X053380Y045559D02*
X055857Y045559D01*
X056887Y045559D02*
X057239Y045559D01*
X057173Y045492D02*
X057173Y045492D01*
X057083Y045403D02*
X057083Y045403D01*
X057080Y045400D02*
X056991Y045400D01*
X058268Y045559D02*
X067553Y045559D01*
X067553Y045717D02*
X005313Y045717D01*
X005313Y045876D02*
X067553Y045876D01*
X067553Y046034D02*
X005313Y046034D01*
X005313Y046193D02*
X067553Y046193D01*
X067553Y046351D02*
X005313Y046351D01*
X008732Y045242D02*
X009185Y045242D01*
X005775Y042230D02*
X005313Y042230D01*
X005313Y042072D02*
X005616Y042072D01*
X005458Y041913D02*
X005313Y041913D01*
X008809Y011164D02*
X009107Y011164D01*
X009438Y011164D02*
X009478Y011164D01*
X009478Y011006D02*
X009438Y011006D01*
X009438Y010847D02*
X009478Y010847D01*
X009478Y010689D02*
X009438Y010689D01*
X009438Y010530D02*
X009478Y010530D01*
X009478Y010372D02*
X009438Y010372D01*
X009438Y010213D02*
X009478Y010213D01*
X009478Y010055D02*
X009438Y010055D01*
X009438Y009896D02*
X009478Y009896D01*
X009478Y009738D02*
X009438Y009738D01*
X009438Y009579D02*
X009478Y009579D01*
X009478Y009421D02*
X009438Y009421D01*
X009438Y009262D02*
X009478Y009262D01*
X009478Y009104D02*
X009438Y009104D01*
X009060Y009104D02*
X008857Y009104D01*
X011295Y008470D02*
X005313Y008470D01*
X005313Y008311D02*
X011454Y008311D01*
X011612Y008153D02*
X005313Y008153D01*
X005313Y007994D02*
X011771Y007994D01*
X011929Y007836D02*
X005313Y007836D01*
X047372Y029075D02*
X047544Y029075D01*
X048372Y029075D02*
X048544Y029075D01*
X059333Y020610D02*
X060333Y019610D01*
X060333Y018610D02*
X058708Y018610D01*
X057458Y019860D01*
X061699Y021150D02*
X061807Y021150D01*
X065333Y018110D02*
X065833Y017610D01*
X065333Y016110D02*
X065833Y015610D01*
X063708Y039485D02*
X063833Y039610D01*
X063708Y040485D02*
X062208Y040485D01*
X061833Y040110D01*
X060833Y040110D01*
X060333Y040610D01*
X059939Y041121D02*
X059046Y041121D01*
X058605Y041279D02*
X061937Y041279D01*
X061778Y041121D02*
X061728Y041121D01*
X063198Y041438D02*
X058446Y041438D01*
X060313Y043023D02*
X060353Y043023D01*
X060353Y043181D02*
X060313Y043181D01*
X060313Y043340D02*
X060353Y043340D01*
X060353Y043498D02*
X060313Y043498D01*
X060313Y043657D02*
X060353Y043657D01*
X060353Y043815D02*
X060313Y043815D01*
X060313Y043974D02*
X060353Y043974D01*
X060353Y044132D02*
X060313Y044132D01*
X060313Y044291D02*
X060353Y044291D01*
X060353Y044449D02*
X060313Y044449D01*
X060313Y044766D02*
X060353Y044766D01*
X060353Y044925D02*
X060313Y044925D01*
X060313Y045083D02*
X060353Y045083D01*
X060353Y045242D02*
X060313Y045242D01*
X059693Y044449D02*
X058612Y044449D01*
X058612Y044291D02*
X059748Y044291D01*
X059906Y044132D02*
X058612Y044132D01*
X058559Y043974D02*
X059792Y043974D01*
X059693Y043815D02*
X058420Y043815D01*
X058334Y043729D02*
X058334Y043729D01*
X058262Y043657D02*
X059693Y043657D01*
X060651Y043023D02*
X061016Y043023D01*
X060857Y043181D02*
X060809Y043181D01*
X061809Y043181D02*
X063506Y043181D01*
X063823Y043181D02*
X063843Y043181D01*
X063843Y043023D02*
X063823Y043023D01*
X063823Y042864D02*
X063843Y042864D01*
X063843Y042706D02*
X063823Y042706D01*
X063823Y042547D02*
X063843Y042547D01*
X063843Y042389D02*
X063823Y042389D01*
X063823Y042230D02*
X063843Y042230D01*
X063843Y042072D02*
X063823Y042072D01*
X063823Y041913D02*
X063843Y041913D01*
X063843Y041755D02*
X063823Y041755D01*
X064428Y041913D02*
X065238Y041913D01*
X065198Y041755D02*
X064468Y041755D01*
X064468Y041596D02*
X065198Y041596D01*
X063833Y040610D02*
X063708Y040485D01*
X061968Y043340D02*
X067553Y043340D01*
X067553Y043498D02*
X061973Y043498D01*
X061973Y043657D02*
X067553Y043657D01*
X067553Y043815D02*
X067344Y043815D01*
X067512Y043974D02*
X067553Y043974D01*
X067517Y045242D02*
X067553Y045242D01*
X067553Y045400D02*
X067356Y045400D01*
X057245Y043657D02*
X056881Y043657D01*
X056988Y043815D02*
X057086Y043815D01*
X051083Y042072D02*
X051083Y042072D01*
X051083Y041913D02*
X051083Y041913D01*
X051083Y041755D02*
X051083Y041755D01*
X050418Y042072D02*
X048625Y042072D01*
X048762Y041913D02*
X050284Y041913D01*
X050219Y041755D02*
X048828Y041755D01*
X048838Y041596D02*
X050203Y041596D01*
D22*
X047958Y041610D02*
X047958Y043235D01*
X047958Y045110D01*
X053208Y045110D01*
X054083Y044235D01*
X054083Y043235D01*
X054083Y041610D01*
X047958Y045110D02*
X041958Y045110D01*
X041958Y043235D01*
X041958Y041610D01*
X037458Y043860D02*
X037458Y045110D01*
X041958Y045110D01*
X037458Y045110D02*
X029083Y045110D01*
X029083Y043735D01*
X029083Y041610D01*
X029083Y045110D02*
X018958Y045110D01*
X018958Y043735D01*
X018958Y041610D01*
X018958Y045110D02*
X013208Y045110D01*
X010583Y042485D01*
X009458Y042485D01*
X009458Y043610D01*
X009458Y044610D01*
X008458Y044610D01*
X008458Y043610D02*
X009458Y043610D01*
X009458Y042485D02*
X006708Y042485D01*
X005708Y041485D01*
X005708Y030610D01*
X026958Y030610D01*
X026958Y029860D01*
X026958Y028360D01*
X026958Y030610D02*
X033458Y030610D01*
X033458Y029860D01*
X033458Y028360D01*
X033458Y030610D02*
X039958Y030610D01*
X053708Y030610D01*
X054708Y029610D01*
X054708Y028360D01*
X056208Y028360D01*
X053458Y025360D02*
X051958Y025360D01*
X051958Y018360D02*
X053458Y018360D01*
X053333Y013110D02*
X051958Y013110D01*
X053333Y013110D02*
X054333Y013110D01*
X056458Y010985D01*
X056458Y007985D01*
X060458Y007985D01*
X060333Y008235D01*
X060333Y009610D01*
X060333Y010610D01*
X061333Y010610D02*
X061333Y009610D01*
X061333Y008235D01*
X061208Y007985D01*
X063583Y007985D01*
X064458Y008860D01*
X064458Y009610D01*
X064458Y010985D01*
X063833Y011610D01*
X063833Y012610D01*
X065833Y012610D01*
X065833Y011610D01*
X061208Y007985D02*
X060458Y007985D01*
X056458Y007985D02*
X030458Y007985D01*
X030458Y010360D01*
X034208Y010360D01*
X034958Y011110D01*
X034958Y012360D01*
X030458Y007985D02*
X025458Y007985D01*
X022458Y007985D01*
X018708Y007985D01*
X018708Y009110D01*
X018708Y007985D02*
X016208Y007985D01*
X012458Y007985D01*
X011458Y008985D01*
X011458Y011360D01*
X012458Y012360D01*
X014208Y012360D01*
X011458Y011360D02*
X010458Y012360D01*
X006833Y012360D01*
X005708Y013485D01*
X005708Y026610D01*
X010208Y026610D01*
X010458Y026860D01*
X010458Y027360D01*
X012458Y029360D01*
X012958Y029360D01*
X005708Y030610D02*
X005708Y026610D01*
X020958Y012360D02*
X022458Y012360D01*
X039958Y028360D02*
X039958Y029860D01*
X039958Y030610D01*
X036083Y041610D02*
X036083Y042485D01*
X037458Y043860D01*
M02*
