G75*
%MOIN*%
%OFA0B0*%
%FSLAX24Y24*%
%IPPOS*%
%LPD*%
%AMOC8*
5,1,8,0,0,1.08239X$1,22.5*
%
%ADD10C,0.0000*%
%ADD11C,0.0230*%
%ADD12C,0.0560*%
%ADD13OC8,0.0560*%
%ADD14OC8,0.0640*%
%ADD15OC8,0.0630*%
%ADD16C,0.0630*%
%ADD17C,0.0160*%
%ADD18C,0.0500*%
%ADD19C,0.0320*%
D10*
X003890Y003890D02*
X003890Y043260D01*
X066882Y043260D01*
X066882Y003890D01*
X003890Y003890D01*
X004715Y006140D02*
X004717Y006187D01*
X004723Y006233D01*
X004733Y006279D01*
X004746Y006323D01*
X004764Y006367D01*
X004785Y006408D01*
X004809Y006448D01*
X004837Y006486D01*
X004868Y006521D01*
X004902Y006553D01*
X004938Y006582D01*
X004977Y006608D01*
X005017Y006631D01*
X005060Y006650D01*
X005104Y006666D01*
X005149Y006678D01*
X005195Y006686D01*
X005242Y006690D01*
X005288Y006690D01*
X005335Y006686D01*
X005381Y006678D01*
X005426Y006666D01*
X005470Y006650D01*
X005513Y006631D01*
X005553Y006608D01*
X005592Y006582D01*
X005628Y006553D01*
X005662Y006521D01*
X005693Y006486D01*
X005721Y006448D01*
X005745Y006408D01*
X005766Y006367D01*
X005784Y006323D01*
X005797Y006279D01*
X005807Y006233D01*
X005813Y006187D01*
X005815Y006140D01*
X005813Y006093D01*
X005807Y006047D01*
X005797Y006001D01*
X005784Y005957D01*
X005766Y005913D01*
X005745Y005872D01*
X005721Y005832D01*
X005693Y005794D01*
X005662Y005759D01*
X005628Y005727D01*
X005592Y005698D01*
X005553Y005672D01*
X005513Y005649D01*
X005470Y005630D01*
X005426Y005614D01*
X005381Y005602D01*
X005335Y005594D01*
X005288Y005590D01*
X005242Y005590D01*
X005195Y005594D01*
X005149Y005602D01*
X005104Y005614D01*
X005060Y005630D01*
X005017Y005649D01*
X004977Y005672D01*
X004938Y005698D01*
X004902Y005727D01*
X004868Y005759D01*
X004837Y005794D01*
X004809Y005832D01*
X004785Y005872D01*
X004764Y005913D01*
X004746Y005957D01*
X004733Y006001D01*
X004723Y006047D01*
X004717Y006093D01*
X004715Y006140D01*
X004715Y041140D02*
X004717Y041187D01*
X004723Y041233D01*
X004733Y041279D01*
X004746Y041323D01*
X004764Y041367D01*
X004785Y041408D01*
X004809Y041448D01*
X004837Y041486D01*
X004868Y041521D01*
X004902Y041553D01*
X004938Y041582D01*
X004977Y041608D01*
X005017Y041631D01*
X005060Y041650D01*
X005104Y041666D01*
X005149Y041678D01*
X005195Y041686D01*
X005242Y041690D01*
X005288Y041690D01*
X005335Y041686D01*
X005381Y041678D01*
X005426Y041666D01*
X005470Y041650D01*
X005513Y041631D01*
X005553Y041608D01*
X005592Y041582D01*
X005628Y041553D01*
X005662Y041521D01*
X005693Y041486D01*
X005721Y041448D01*
X005745Y041408D01*
X005766Y041367D01*
X005784Y041323D01*
X005797Y041279D01*
X005807Y041233D01*
X005813Y041187D01*
X005815Y041140D01*
X005813Y041093D01*
X005807Y041047D01*
X005797Y041001D01*
X005784Y040957D01*
X005766Y040913D01*
X005745Y040872D01*
X005721Y040832D01*
X005693Y040794D01*
X005662Y040759D01*
X005628Y040727D01*
X005592Y040698D01*
X005553Y040672D01*
X005513Y040649D01*
X005470Y040630D01*
X005426Y040614D01*
X005381Y040602D01*
X005335Y040594D01*
X005288Y040590D01*
X005242Y040590D01*
X005195Y040594D01*
X005149Y040602D01*
X005104Y040614D01*
X005060Y040630D01*
X005017Y040649D01*
X004977Y040672D01*
X004938Y040698D01*
X004902Y040727D01*
X004868Y040759D01*
X004837Y040794D01*
X004809Y040832D01*
X004785Y040872D01*
X004764Y040913D01*
X004746Y040957D01*
X004733Y041001D01*
X004723Y041047D01*
X004717Y041093D01*
X004715Y041140D01*
X065215Y041140D02*
X065217Y041187D01*
X065223Y041233D01*
X065233Y041279D01*
X065246Y041323D01*
X065264Y041367D01*
X065285Y041408D01*
X065309Y041448D01*
X065337Y041486D01*
X065368Y041521D01*
X065402Y041553D01*
X065438Y041582D01*
X065477Y041608D01*
X065517Y041631D01*
X065560Y041650D01*
X065604Y041666D01*
X065649Y041678D01*
X065695Y041686D01*
X065742Y041690D01*
X065788Y041690D01*
X065835Y041686D01*
X065881Y041678D01*
X065926Y041666D01*
X065970Y041650D01*
X066013Y041631D01*
X066053Y041608D01*
X066092Y041582D01*
X066128Y041553D01*
X066162Y041521D01*
X066193Y041486D01*
X066221Y041448D01*
X066245Y041408D01*
X066266Y041367D01*
X066284Y041323D01*
X066297Y041279D01*
X066307Y041233D01*
X066313Y041187D01*
X066315Y041140D01*
X066313Y041093D01*
X066307Y041047D01*
X066297Y041001D01*
X066284Y040957D01*
X066266Y040913D01*
X066245Y040872D01*
X066221Y040832D01*
X066193Y040794D01*
X066162Y040759D01*
X066128Y040727D01*
X066092Y040698D01*
X066053Y040672D01*
X066013Y040649D01*
X065970Y040630D01*
X065926Y040614D01*
X065881Y040602D01*
X065835Y040594D01*
X065788Y040590D01*
X065742Y040590D01*
X065695Y040594D01*
X065649Y040602D01*
X065604Y040614D01*
X065560Y040630D01*
X065517Y040649D01*
X065477Y040672D01*
X065438Y040698D01*
X065402Y040727D01*
X065368Y040759D01*
X065337Y040794D01*
X065309Y040832D01*
X065285Y040872D01*
X065264Y040913D01*
X065246Y040957D01*
X065233Y041001D01*
X065223Y041047D01*
X065217Y041093D01*
X065215Y041140D01*
X065215Y006140D02*
X065217Y006187D01*
X065223Y006233D01*
X065233Y006279D01*
X065246Y006323D01*
X065264Y006367D01*
X065285Y006408D01*
X065309Y006448D01*
X065337Y006486D01*
X065368Y006521D01*
X065402Y006553D01*
X065438Y006582D01*
X065477Y006608D01*
X065517Y006631D01*
X065560Y006650D01*
X065604Y006666D01*
X065649Y006678D01*
X065695Y006686D01*
X065742Y006690D01*
X065788Y006690D01*
X065835Y006686D01*
X065881Y006678D01*
X065926Y006666D01*
X065970Y006650D01*
X066013Y006631D01*
X066053Y006608D01*
X066092Y006582D01*
X066128Y006553D01*
X066162Y006521D01*
X066193Y006486D01*
X066221Y006448D01*
X066245Y006408D01*
X066266Y006367D01*
X066284Y006323D01*
X066297Y006279D01*
X066307Y006233D01*
X066313Y006187D01*
X066315Y006140D01*
X066313Y006093D01*
X066307Y006047D01*
X066297Y006001D01*
X066284Y005957D01*
X066266Y005913D01*
X066245Y005872D01*
X066221Y005832D01*
X066193Y005794D01*
X066162Y005759D01*
X066128Y005727D01*
X066092Y005698D01*
X066053Y005672D01*
X066013Y005649D01*
X065970Y005630D01*
X065926Y005614D01*
X065881Y005602D01*
X065835Y005594D01*
X065788Y005590D01*
X065742Y005590D01*
X065695Y005594D01*
X065649Y005602D01*
X065604Y005614D01*
X065560Y005630D01*
X065517Y005649D01*
X065477Y005672D01*
X065438Y005698D01*
X065402Y005727D01*
X065368Y005759D01*
X065337Y005794D01*
X065309Y005832D01*
X065285Y005872D01*
X065264Y005913D01*
X065246Y005957D01*
X065233Y006001D01*
X065223Y006047D01*
X065217Y006093D01*
X065215Y006140D01*
D11*
X009109Y013939D02*
X008261Y013092D01*
X008261Y012880D01*
X007727Y013304D02*
X006880Y013304D01*
X006880Y013727D02*
X007516Y013727D01*
X007727Y013727D01*
X007516Y014151D02*
X007516Y012880D01*
X007092Y012880D02*
X007092Y014151D01*
X008261Y014151D02*
X009109Y014151D01*
X009109Y013939D01*
D12*
X013015Y018110D02*
X013015Y018670D01*
X014015Y018670D02*
X014015Y018110D01*
X015015Y018110D02*
X015015Y018670D01*
X016015Y018670D02*
X016015Y018110D01*
X017015Y018110D02*
X017015Y018670D01*
X018015Y018670D02*
X018015Y018110D01*
X019015Y018110D02*
X019015Y018670D01*
X020015Y018670D02*
X020015Y018110D01*
X021015Y018110D02*
X021015Y018670D01*
X022015Y018670D02*
X022015Y018110D01*
X025140Y018110D02*
X025140Y018670D01*
X026140Y018670D02*
X026140Y018110D01*
X027140Y018110D02*
X027140Y018670D01*
X028140Y018670D02*
X028140Y018110D01*
X029140Y018110D02*
X029140Y018670D01*
X030140Y018670D02*
X030140Y018110D01*
X031140Y018110D02*
X031140Y018670D01*
X032140Y018670D02*
X032140Y018110D01*
X033140Y018110D02*
X033140Y018670D01*
X034140Y018670D02*
X034140Y018110D01*
X037265Y018110D02*
X037265Y018670D01*
X038265Y018670D02*
X038265Y018110D01*
X039265Y018110D02*
X039265Y018670D01*
X040265Y018670D02*
X040265Y018110D01*
X041265Y018110D02*
X041265Y018670D01*
X042265Y018670D02*
X042265Y018110D01*
X043265Y018110D02*
X043265Y018670D01*
X044265Y018670D02*
X044265Y018110D01*
X045265Y018110D02*
X045265Y018670D01*
X046265Y018670D02*
X046265Y018110D01*
X049390Y018110D02*
X049390Y018670D01*
X050390Y018670D02*
X050390Y018110D01*
X051390Y018110D02*
X051390Y018670D01*
X052390Y018670D02*
X052390Y018110D01*
X053390Y018110D02*
X053390Y018670D01*
X054390Y018670D02*
X054390Y018110D01*
X055390Y018110D02*
X055390Y018670D01*
X056390Y018670D02*
X056390Y018110D01*
X057390Y018110D02*
X057390Y018670D01*
X058390Y018670D02*
X058390Y018110D01*
X058390Y021110D02*
X058390Y021670D01*
X057390Y021670D02*
X057390Y021110D01*
X056390Y021110D02*
X056390Y021670D01*
X055390Y021670D02*
X055390Y021110D01*
X054390Y021110D02*
X054390Y021670D01*
X053390Y021670D02*
X053390Y021110D01*
X052390Y021110D02*
X052390Y021670D01*
X051390Y021670D02*
X051390Y021110D01*
X050390Y021110D02*
X050390Y021670D01*
X049390Y021670D02*
X049390Y021110D01*
X046265Y021110D02*
X046265Y021670D01*
X045265Y021670D02*
X045265Y021110D01*
X044265Y021110D02*
X044265Y021670D01*
X043265Y021670D02*
X043265Y021110D01*
X042265Y021110D02*
X042265Y021670D01*
X041265Y021670D02*
X041265Y021110D01*
X040265Y021110D02*
X040265Y021670D01*
X039265Y021670D02*
X039265Y021110D01*
X038265Y021110D02*
X038265Y021670D01*
X037265Y021670D02*
X037265Y021110D01*
X034140Y021110D02*
X034140Y021670D01*
X033140Y021670D02*
X033140Y021110D01*
X032140Y021110D02*
X032140Y021670D01*
X031140Y021670D02*
X031140Y021110D01*
X030140Y021110D02*
X030140Y021670D01*
X029140Y021670D02*
X029140Y021110D01*
X028140Y021110D02*
X028140Y021670D01*
X027140Y021670D02*
X027140Y021110D01*
X026140Y021110D02*
X026140Y021670D01*
X025140Y021670D02*
X025140Y021110D01*
X022015Y021110D02*
X022015Y021670D01*
X021015Y021670D02*
X021015Y021110D01*
X020015Y021110D02*
X020015Y021670D01*
X019015Y021670D02*
X019015Y021110D01*
X018015Y021110D02*
X018015Y021670D01*
X017015Y021670D02*
X017015Y021110D01*
X016015Y021110D02*
X016015Y021670D01*
X015015Y021670D02*
X015015Y021110D01*
X014015Y021110D02*
X014015Y021670D01*
X013015Y021670D02*
X013015Y021110D01*
X013015Y023610D02*
X013015Y024170D01*
X014015Y024170D02*
X014015Y023610D01*
X015015Y023610D02*
X015015Y024170D01*
X016015Y024170D02*
X016015Y023610D01*
X017015Y023610D02*
X017015Y024170D01*
X018015Y024170D02*
X018015Y023610D01*
X019015Y023610D02*
X019015Y024170D01*
X020015Y024170D02*
X020015Y023610D01*
X021015Y023610D02*
X021015Y024170D01*
X022015Y024170D02*
X022015Y023610D01*
X025140Y023610D02*
X025140Y024170D01*
X026140Y024170D02*
X026140Y023610D01*
X027140Y023610D02*
X027140Y024170D01*
X028140Y024170D02*
X028140Y023610D01*
X029140Y023610D02*
X029140Y024170D01*
X030140Y024170D02*
X030140Y023610D01*
X031140Y023610D02*
X031140Y024170D01*
X032140Y024170D02*
X032140Y023610D01*
X033140Y023610D02*
X033140Y024170D01*
X034140Y024170D02*
X034140Y023610D01*
X037265Y023610D02*
X037265Y024170D01*
X038265Y024170D02*
X038265Y023610D01*
X039265Y023610D02*
X039265Y024170D01*
X040265Y024170D02*
X040265Y023610D01*
X041265Y023610D02*
X041265Y024170D01*
X042265Y024170D02*
X042265Y023610D01*
X043265Y023610D02*
X043265Y024170D01*
X044265Y024170D02*
X044265Y023610D01*
X045265Y023610D02*
X045265Y024170D01*
X046265Y024170D02*
X046265Y023610D01*
X049390Y023610D02*
X049390Y024170D01*
X050390Y024170D02*
X050390Y023610D01*
X051390Y023610D02*
X051390Y024170D01*
X052390Y024170D02*
X052390Y023610D01*
X053390Y023610D02*
X053390Y024170D01*
X054390Y024170D02*
X054390Y023610D01*
X055390Y023610D02*
X055390Y024170D01*
X056390Y024170D02*
X056390Y023610D01*
X057390Y023610D02*
X057390Y024170D01*
X058390Y024170D02*
X058390Y023610D01*
X060735Y023265D02*
X061295Y023265D01*
X061295Y022265D02*
X060735Y022265D01*
X060735Y021265D02*
X061295Y021265D01*
X063735Y021265D02*
X064295Y021265D01*
X064295Y022265D02*
X063735Y022265D01*
X063735Y023265D02*
X064295Y023265D01*
X064295Y024265D02*
X063735Y024265D01*
X063735Y025265D02*
X064295Y025265D01*
X064295Y026265D02*
X063735Y026265D01*
X063735Y027265D02*
X064295Y027265D01*
X064295Y028265D02*
X063735Y028265D01*
X061295Y028265D02*
X060735Y028265D01*
X060735Y027265D02*
X061295Y027265D01*
X061295Y026265D02*
X060735Y026265D01*
X060735Y025265D02*
X061295Y025265D01*
X061295Y024265D02*
X060735Y024265D01*
X058390Y026610D02*
X058390Y027170D01*
X057390Y027170D02*
X057390Y026610D01*
X056390Y026610D02*
X056390Y027170D01*
X055390Y027170D02*
X055390Y026610D01*
X054390Y026610D02*
X054390Y027170D01*
X053390Y027170D02*
X053390Y026610D01*
X052390Y026610D02*
X052390Y027170D01*
X051390Y027170D02*
X051390Y026610D01*
X050390Y026610D02*
X050390Y027170D01*
X049390Y027170D02*
X049390Y026610D01*
X046265Y026610D02*
X046265Y027170D01*
X045265Y027170D02*
X045265Y026610D01*
X044265Y026610D02*
X044265Y027170D01*
X043265Y027170D02*
X043265Y026610D01*
X042265Y026610D02*
X042265Y027170D01*
X041265Y027170D02*
X041265Y026610D01*
X040265Y026610D02*
X040265Y027170D01*
X039265Y027170D02*
X039265Y026610D01*
X038265Y026610D02*
X038265Y027170D01*
X037265Y027170D02*
X037265Y026610D01*
X034140Y026610D02*
X034140Y027170D01*
X033140Y027170D02*
X033140Y026610D01*
X032140Y026610D02*
X032140Y027170D01*
X031140Y027170D02*
X031140Y026610D01*
X030140Y026610D02*
X030140Y027170D01*
X029140Y027170D02*
X029140Y026610D01*
X028140Y026610D02*
X028140Y027170D01*
X027140Y027170D02*
X027140Y026610D01*
X026140Y026610D02*
X026140Y027170D01*
X025140Y027170D02*
X025140Y026610D01*
X022015Y026610D02*
X022015Y027170D01*
X021015Y027170D02*
X021015Y026610D01*
X020015Y026610D02*
X020015Y027170D01*
X019015Y027170D02*
X019015Y026610D01*
X018015Y026610D02*
X018015Y027170D01*
X017015Y027170D02*
X017015Y026610D01*
X016015Y026610D02*
X016015Y027170D01*
X015015Y027170D02*
X015015Y026610D01*
X014015Y026610D02*
X014015Y027170D01*
X013015Y027170D02*
X013015Y026610D01*
X013015Y029110D02*
X013015Y029670D01*
X014015Y029670D02*
X014015Y029110D01*
X015015Y029110D02*
X015015Y029670D01*
X016015Y029670D02*
X016015Y029110D01*
X017015Y029110D02*
X017015Y029670D01*
X018015Y029670D02*
X018015Y029110D01*
X019015Y029110D02*
X019015Y029670D01*
X020015Y029670D02*
X020015Y029110D01*
X021015Y029110D02*
X021015Y029670D01*
X022015Y029670D02*
X022015Y029110D01*
X025140Y029110D02*
X025140Y029670D01*
X026140Y029670D02*
X026140Y029110D01*
X027140Y029110D02*
X027140Y029670D01*
X028140Y029670D02*
X028140Y029110D01*
X029140Y029110D02*
X029140Y029670D01*
X030140Y029670D02*
X030140Y029110D01*
X031140Y029110D02*
X031140Y029670D01*
X032140Y029670D02*
X032140Y029110D01*
X033140Y029110D02*
X033140Y029670D01*
X034140Y029670D02*
X034140Y029110D01*
X037265Y029110D02*
X037265Y029670D01*
X038265Y029670D02*
X038265Y029110D01*
X039265Y029110D02*
X039265Y029670D01*
X040265Y029670D02*
X040265Y029110D01*
X041265Y029110D02*
X041265Y029670D01*
X042265Y029670D02*
X042265Y029110D01*
X043265Y029110D02*
X043265Y029670D01*
X044265Y029670D02*
X044265Y029110D01*
X045265Y029110D02*
X045265Y029670D01*
X046265Y029670D02*
X046265Y029110D01*
X049390Y029110D02*
X049390Y029670D01*
X050390Y029670D02*
X050390Y029110D01*
X051390Y029110D02*
X051390Y029670D01*
X052390Y029670D02*
X052390Y029110D01*
X053390Y029110D02*
X053390Y029670D01*
X054390Y029670D02*
X054390Y029110D01*
X055390Y029110D02*
X055390Y029670D01*
X056390Y029670D02*
X056390Y029110D01*
X057390Y029110D02*
X057390Y029670D01*
X058390Y029670D02*
X058390Y029110D01*
X060735Y031265D02*
X061295Y031265D01*
X061295Y032265D02*
X060735Y032265D01*
X060735Y033265D02*
X061295Y033265D01*
X061295Y034265D02*
X060735Y034265D01*
X060735Y035265D02*
X061295Y035265D01*
X061295Y036265D02*
X060735Y036265D01*
X060735Y037265D02*
X061295Y037265D01*
X061295Y038265D02*
X060735Y038265D01*
X058390Y038170D02*
X058390Y037610D01*
X057390Y037610D02*
X057390Y038170D01*
X056390Y038170D02*
X056390Y037610D01*
X055390Y037610D02*
X055390Y038170D01*
X054390Y038170D02*
X054390Y037610D01*
X053390Y037610D02*
X053390Y038170D01*
X052390Y038170D02*
X052390Y037610D01*
X051390Y037610D02*
X051390Y038170D01*
X050390Y038170D02*
X050390Y037610D01*
X049390Y037610D02*
X049390Y038170D01*
X046265Y038170D02*
X046265Y037610D01*
X045265Y037610D02*
X045265Y038170D01*
X044265Y038170D02*
X044265Y037610D01*
X043265Y037610D02*
X043265Y038170D01*
X042265Y038170D02*
X042265Y037610D01*
X041265Y037610D02*
X041265Y038170D01*
X040265Y038170D02*
X040265Y037610D01*
X039265Y037610D02*
X039265Y038170D01*
X038265Y038170D02*
X038265Y037610D01*
X037265Y037610D02*
X037265Y038170D01*
X034140Y038170D02*
X034140Y037610D01*
X033140Y037610D02*
X033140Y038170D01*
X032140Y038170D02*
X032140Y037610D01*
X031140Y037610D02*
X031140Y038170D01*
X030140Y038170D02*
X030140Y037610D01*
X029140Y037610D02*
X029140Y038170D01*
X028140Y038170D02*
X028140Y037610D01*
X027140Y037610D02*
X027140Y038170D01*
X026140Y038170D02*
X026140Y037610D01*
X025140Y037610D02*
X025140Y038170D01*
X022015Y038170D02*
X022015Y037610D01*
X021015Y037610D02*
X021015Y038170D01*
X020015Y038170D02*
X020015Y037610D01*
X019015Y037610D02*
X019015Y038170D01*
X018015Y038170D02*
X018015Y037610D01*
X017015Y037610D02*
X017015Y038170D01*
X016015Y038170D02*
X016015Y037610D01*
X015015Y037610D02*
X015015Y038170D01*
X014015Y038170D02*
X014015Y037610D01*
X013015Y037610D02*
X013015Y038170D01*
X013015Y035170D02*
X013015Y034610D01*
X014015Y034610D02*
X014015Y035170D01*
X015015Y035170D02*
X015015Y034610D01*
X016015Y034610D02*
X016015Y035170D01*
X017015Y035170D02*
X017015Y034610D01*
X018015Y034610D02*
X018015Y035170D01*
X019015Y035170D02*
X019015Y034610D01*
X020015Y034610D02*
X020015Y035170D01*
X021015Y035170D02*
X021015Y034610D01*
X022015Y034610D02*
X022015Y035170D01*
X025140Y035170D02*
X025140Y034610D01*
X026140Y034610D02*
X026140Y035170D01*
X027140Y035170D02*
X027140Y034610D01*
X028140Y034610D02*
X028140Y035170D01*
X029140Y035170D02*
X029140Y034610D01*
X030140Y034610D02*
X030140Y035170D01*
X031140Y035170D02*
X031140Y034610D01*
X032140Y034610D02*
X032140Y035170D01*
X033140Y035170D02*
X033140Y034610D01*
X034140Y034610D02*
X034140Y035170D01*
X037265Y035170D02*
X037265Y034610D01*
X038265Y034610D02*
X038265Y035170D01*
X039265Y035170D02*
X039265Y034610D01*
X040265Y034610D02*
X040265Y035170D01*
X041265Y035170D02*
X041265Y034610D01*
X042265Y034610D02*
X042265Y035170D01*
X043265Y035170D02*
X043265Y034610D01*
X044265Y034610D02*
X044265Y035170D01*
X045265Y035170D02*
X045265Y034610D01*
X046265Y034610D02*
X046265Y035170D01*
X049390Y035170D02*
X049390Y034610D01*
X050390Y034610D02*
X050390Y035170D01*
X051390Y035170D02*
X051390Y034610D01*
X052390Y034610D02*
X052390Y035170D01*
X053390Y035170D02*
X053390Y034610D01*
X054390Y034610D02*
X054390Y035170D01*
X055390Y035170D02*
X055390Y034610D01*
X056390Y034610D02*
X056390Y035170D01*
X057390Y035170D02*
X057390Y034610D01*
X058390Y034610D02*
X058390Y035170D01*
X058390Y032670D02*
X058390Y032110D01*
X057390Y032110D02*
X057390Y032670D01*
X056390Y032670D02*
X056390Y032110D01*
X055390Y032110D02*
X055390Y032670D01*
X054390Y032670D02*
X054390Y032110D01*
X053390Y032110D02*
X053390Y032670D01*
X052390Y032670D02*
X052390Y032110D01*
X051390Y032110D02*
X051390Y032670D01*
X050390Y032670D02*
X050390Y032110D01*
X049390Y032110D02*
X049390Y032670D01*
X046265Y032670D02*
X046265Y032110D01*
X045265Y032110D02*
X045265Y032670D01*
X044265Y032670D02*
X044265Y032110D01*
X043265Y032110D02*
X043265Y032670D01*
X042265Y032670D02*
X042265Y032110D01*
X041265Y032110D02*
X041265Y032670D01*
X040265Y032670D02*
X040265Y032110D01*
X039265Y032110D02*
X039265Y032670D01*
X038265Y032670D02*
X038265Y032110D01*
X037265Y032110D02*
X037265Y032670D01*
X034140Y032670D02*
X034140Y032110D01*
X033140Y032110D02*
X033140Y032670D01*
X032140Y032670D02*
X032140Y032110D01*
X031140Y032110D02*
X031140Y032670D01*
X030140Y032670D02*
X030140Y032110D01*
X029140Y032110D02*
X029140Y032670D01*
X028140Y032670D02*
X028140Y032110D01*
X027140Y032110D02*
X027140Y032670D01*
X026140Y032670D02*
X026140Y032110D01*
X025140Y032110D02*
X025140Y032670D01*
X022015Y032670D02*
X022015Y032110D01*
X021015Y032110D02*
X021015Y032670D01*
X020015Y032670D02*
X020015Y032110D01*
X019015Y032110D02*
X019015Y032670D01*
X018015Y032670D02*
X018015Y032110D01*
X017015Y032110D02*
X017015Y032670D01*
X016015Y032670D02*
X016015Y032110D01*
X015015Y032110D02*
X015015Y032670D01*
X014015Y032670D02*
X014015Y032110D01*
X013015Y032110D02*
X013015Y032670D01*
X024890Y012045D02*
X024890Y011485D01*
X025890Y011485D02*
X025890Y012045D01*
X026890Y012045D02*
X026890Y011485D01*
X027890Y011485D02*
X027890Y012045D01*
X028890Y012045D02*
X028890Y011485D01*
X029890Y011485D02*
X029890Y012045D01*
X030890Y012045D02*
X030890Y011485D01*
X030890Y009045D02*
X030890Y008485D01*
X029890Y008485D02*
X029890Y009045D01*
X028890Y009045D02*
X028890Y008485D01*
X027890Y008485D02*
X027890Y009045D01*
X026890Y009045D02*
X026890Y008485D01*
X025890Y008485D02*
X025890Y009045D01*
X024890Y009045D02*
X024890Y008485D01*
X063735Y031265D02*
X064295Y031265D01*
X064295Y032265D02*
X063735Y032265D01*
X063735Y033265D02*
X064295Y033265D01*
X064295Y034265D02*
X063735Y034265D01*
X063735Y035265D02*
X064295Y035265D01*
X064295Y036265D02*
X063735Y036265D01*
X063735Y037265D02*
X064295Y037265D01*
X064295Y038265D02*
X063735Y038265D01*
D13*
X063015Y029890D03*
X061015Y029890D03*
X048140Y030390D03*
X048140Y032390D03*
X048140Y035890D03*
X048140Y037890D03*
X036015Y037890D03*
X036015Y035890D03*
X036015Y032390D03*
X036015Y030390D03*
X036015Y026890D03*
X036015Y024890D03*
X036015Y021390D03*
X036015Y019390D03*
X023890Y019390D03*
X023890Y021390D03*
X023890Y024890D03*
X023890Y026890D03*
X023890Y030390D03*
X023890Y032390D03*
X023890Y035765D03*
X023890Y037765D03*
X011890Y037765D03*
X011890Y035765D03*
X011765Y032390D03*
X009765Y032390D03*
X011765Y026890D03*
X011765Y024890D03*
X011765Y021390D03*
X011765Y019390D03*
X023515Y011765D03*
X023515Y009765D03*
X048140Y019390D03*
X048140Y021390D03*
X048140Y024890D03*
X048140Y026890D03*
X061015Y019890D03*
X063015Y019890D03*
D14*
X060265Y017140D03*
X059265Y017140D03*
X059265Y016140D03*
X060265Y016140D03*
X060265Y015140D03*
X059265Y015140D03*
X059265Y014140D03*
X060265Y014140D03*
X060265Y013140D03*
X059265Y013140D03*
X059265Y012140D03*
X060265Y012140D03*
X060265Y011140D03*
X059265Y011140D03*
X059265Y010140D03*
X060265Y010140D03*
X060265Y007140D03*
X059265Y007140D03*
X059265Y006140D03*
X060265Y006140D03*
X053890Y006140D03*
X053890Y007140D03*
X052890Y007140D03*
X051890Y007140D03*
X051890Y006140D03*
X052890Y006140D03*
X050890Y006140D03*
X049890Y006140D03*
X049890Y007140D03*
X050890Y007140D03*
X048890Y007140D03*
X047890Y007140D03*
X046890Y007140D03*
X046890Y006140D03*
X047890Y006140D03*
X048890Y006140D03*
X045890Y006140D03*
X044890Y006140D03*
X044890Y007140D03*
X045890Y007140D03*
X043890Y007140D03*
X042890Y007140D03*
X041890Y007140D03*
X041890Y006140D03*
X042890Y006140D03*
X043890Y006140D03*
X040890Y006140D03*
X039890Y006140D03*
X039890Y007140D03*
X040890Y007140D03*
X038890Y007140D03*
X037890Y007140D03*
X036890Y007140D03*
X036890Y006140D03*
X037890Y006140D03*
X038890Y006140D03*
X033890Y006140D03*
X032890Y006140D03*
X032890Y007140D03*
X033890Y007140D03*
X031890Y007140D03*
X030890Y007140D03*
X029890Y007140D03*
X029890Y006140D03*
X030890Y006140D03*
X031890Y006140D03*
X028890Y006140D03*
X027890Y006140D03*
X027890Y007140D03*
X028890Y007140D03*
X026890Y007140D03*
X025890Y007140D03*
X024890Y007140D03*
X024890Y006140D03*
X025890Y006140D03*
X026890Y006140D03*
X023890Y006140D03*
X022890Y006140D03*
X022890Y007140D03*
X023890Y007140D03*
X021890Y007140D03*
X020890Y007140D03*
X019890Y007140D03*
X019890Y006140D03*
X020890Y006140D03*
X021890Y006140D03*
X018890Y006140D03*
X017890Y006140D03*
X017890Y007140D03*
X018890Y007140D03*
X016890Y007140D03*
X015890Y007140D03*
X015890Y006140D03*
X016890Y006140D03*
X014890Y006140D03*
X013890Y006140D03*
X012890Y006140D03*
X012890Y007140D03*
X013890Y007140D03*
X014890Y007140D03*
X011890Y007140D03*
X010890Y007140D03*
X010890Y006140D03*
X011890Y006140D03*
X008390Y006140D03*
X007390Y006140D03*
X007390Y007140D03*
X008390Y007140D03*
X006765Y030140D03*
X005765Y030140D03*
X005765Y031140D03*
X006765Y031140D03*
X006765Y032140D03*
X005765Y032140D03*
X005765Y033140D03*
X006765Y033140D03*
X006765Y034140D03*
X005765Y034140D03*
X005765Y035140D03*
X006765Y035140D03*
X006765Y036140D03*
X005765Y036140D03*
X005765Y037140D03*
X006765Y037140D03*
X007390Y040140D03*
X008390Y040140D03*
X008390Y041140D03*
X007390Y041140D03*
X059265Y041140D03*
X060265Y041140D03*
X060265Y040140D03*
X059265Y040140D03*
D15*
X062390Y008140D03*
D16*
X062390Y007140D03*
D17*
X062979Y006902D02*
X065211Y006902D01*
X065238Y006928D02*
X064977Y006667D01*
X064835Y006325D01*
X064835Y005955D01*
X064977Y005613D01*
X065238Y005352D01*
X065580Y005210D01*
X065950Y005210D01*
X066292Y005352D01*
X066502Y005562D01*
X066502Y004270D01*
X004270Y004270D01*
X004270Y026988D01*
X004301Y026913D01*
X011370Y019844D01*
X011165Y019639D01*
X011165Y019390D01*
X011765Y019390D01*
X012365Y019390D01*
X012365Y019490D01*
X015474Y019490D01*
X015753Y019211D01*
X015675Y019179D01*
X015515Y019019D01*
X015355Y019179D01*
X015134Y019270D01*
X014896Y019270D01*
X014675Y019179D01*
X014515Y019019D01*
X014355Y019179D01*
X014134Y019270D01*
X013896Y019270D01*
X013675Y019179D01*
X013515Y019019D01*
X013355Y019179D01*
X013134Y019270D01*
X012896Y019270D01*
X012675Y019179D01*
X012506Y019010D01*
X012415Y018789D01*
X004270Y018789D01*
X004270Y018631D02*
X012415Y018631D01*
X012415Y018789D02*
X012415Y017991D01*
X012506Y017770D01*
X012675Y017601D01*
X012896Y017510D01*
X013134Y017510D01*
X013355Y017601D01*
X013515Y017761D01*
X013675Y017601D01*
X013782Y017557D01*
X014426Y016913D01*
X014538Y016801D01*
X014685Y016740D01*
X025470Y016740D01*
X025617Y016801D01*
X026140Y017324D01*
X026288Y017176D01*
X026435Y017115D01*
X028070Y017115D01*
X028070Y016902D01*
X028157Y016692D01*
X028317Y016532D01*
X028527Y016445D01*
X028644Y016445D01*
X030674Y014415D01*
X021806Y014415D01*
X020085Y016136D01*
X020085Y016253D01*
X028836Y016253D01*
X028678Y016412D02*
X020019Y016412D01*
X019998Y016463D02*
X019838Y016623D01*
X019628Y016710D01*
X019402Y016710D01*
X019192Y016623D01*
X019032Y016463D01*
X019015Y016422D01*
X018998Y016463D01*
X018838Y016623D01*
X018628Y016710D01*
X018402Y016710D01*
X018192Y016623D01*
X018032Y016463D01*
X018015Y016422D01*
X017998Y016463D01*
X017838Y016623D01*
X017628Y016710D01*
X017402Y016710D01*
X017192Y016623D01*
X017032Y016463D01*
X017015Y016422D01*
X016998Y016463D01*
X016838Y016623D01*
X016628Y016710D01*
X016402Y016710D01*
X016192Y016623D01*
X016032Y016463D01*
X015945Y016253D01*
X004270Y016253D01*
X004270Y016095D02*
X015945Y016095D01*
X015945Y016027D02*
X015945Y016253D01*
X016011Y016412D02*
X004270Y016412D01*
X004270Y016570D02*
X016139Y016570D01*
X016515Y016140D02*
X019765Y012890D01*
X032890Y012890D01*
X034640Y011140D01*
X059265Y011140D01*
X059765Y011640D02*
X060265Y011140D01*
X059765Y011640D02*
X034640Y011640D01*
X033015Y013265D01*
X020390Y013265D01*
X017515Y016140D01*
X017891Y016570D02*
X018139Y016570D01*
X018515Y016140D02*
X021015Y013640D01*
X033140Y013640D01*
X034640Y012140D01*
X053765Y012140D01*
X054515Y012640D02*
X034640Y012640D01*
X033265Y014015D01*
X021640Y014015D01*
X019515Y016140D01*
X019891Y016570D02*
X028279Y016570D01*
X028142Y016729D02*
X004270Y016729D01*
X004270Y016887D02*
X014452Y016887D01*
X014294Y017046D02*
X004270Y017046D01*
X004270Y017204D02*
X014135Y017204D01*
X013977Y017363D02*
X004270Y017363D01*
X004270Y017521D02*
X012869Y017521D01*
X013161Y017521D02*
X013818Y017521D01*
X013597Y017680D02*
X013433Y017680D01*
X014015Y017890D02*
X014015Y018390D01*
X014015Y017890D02*
X014765Y017140D01*
X025390Y017140D01*
X026140Y017890D01*
X026140Y018390D01*
X026140Y017890D02*
X026515Y017515D01*
X037890Y017515D01*
X038265Y017890D01*
X038640Y017515D01*
X044265Y017515D01*
X044640Y017140D01*
X047390Y017140D01*
X049640Y017140D01*
X050390Y017890D01*
X050390Y018390D01*
X050890Y017761D02*
X051050Y017601D01*
X051271Y017510D01*
X051509Y017510D01*
X051730Y017601D01*
X051890Y017761D01*
X052050Y017601D01*
X052271Y017510D01*
X052509Y017510D01*
X052730Y017601D01*
X052890Y017761D01*
X053050Y017601D01*
X053271Y017510D01*
X053509Y017510D01*
X053730Y017601D01*
X053890Y017761D01*
X054050Y017601D01*
X054271Y017510D01*
X054509Y017510D01*
X054730Y017601D01*
X054890Y017761D01*
X055050Y017601D01*
X055271Y017510D01*
X055509Y017510D01*
X055730Y017601D01*
X055890Y017761D01*
X056050Y017601D01*
X056271Y017510D01*
X056509Y017510D01*
X056730Y017601D01*
X056890Y017761D01*
X057050Y017601D01*
X057271Y017510D01*
X057509Y017510D01*
X057730Y017601D01*
X057897Y017768D01*
X057932Y017719D01*
X057999Y017652D01*
X058076Y017597D01*
X058160Y017554D01*
X058249Y017525D01*
X058343Y017510D01*
X058390Y017510D01*
X058437Y017510D01*
X058530Y017525D01*
X058620Y017554D01*
X058704Y017597D01*
X058781Y017652D01*
X058848Y017719D01*
X058865Y017743D01*
X058865Y017645D01*
X058625Y017405D01*
X058625Y016875D01*
X058860Y016640D01*
X058625Y016405D01*
X058625Y016040D01*
X057085Y016040D01*
X057085Y016070D01*
X057253Y016070D01*
X057463Y016157D01*
X057623Y016317D01*
X057710Y016527D01*
X057710Y016753D01*
X057623Y016963D01*
X057463Y017123D01*
X057253Y017210D01*
X057027Y017210D01*
X056817Y017123D01*
X056734Y017040D01*
X050106Y017040D01*
X050617Y017551D01*
X050623Y017557D01*
X050730Y017601D01*
X050890Y017761D01*
X050808Y017680D02*
X050972Y017680D01*
X051244Y017521D02*
X050587Y017521D01*
X050428Y017363D02*
X058625Y017363D01*
X058625Y017204D02*
X057268Y017204D01*
X057012Y017204D02*
X050270Y017204D01*
X050111Y017046D02*
X056739Y017046D01*
X056536Y017521D02*
X057244Y017521D01*
X057536Y017521D02*
X058273Y017521D01*
X058390Y017521D02*
X058390Y017521D01*
X058390Y017510D02*
X058390Y018390D01*
X058390Y017510D01*
X058507Y017521D02*
X058741Y017521D01*
X058808Y017680D02*
X058865Y017680D01*
X058390Y017680D02*
X058390Y017680D01*
X058390Y017838D02*
X058390Y017838D01*
X058390Y017997D02*
X058390Y017997D01*
X058390Y018155D02*
X058390Y018155D01*
X058390Y018314D02*
X058390Y018314D01*
X058390Y018390D02*
X058390Y018390D01*
X057972Y017680D02*
X057808Y017680D01*
X057541Y017046D02*
X058625Y017046D01*
X058625Y016887D02*
X057655Y016887D01*
X057710Y016729D02*
X058771Y016729D01*
X058790Y016570D02*
X057710Y016570D01*
X057662Y016412D02*
X058631Y016412D01*
X058625Y016253D02*
X057559Y016253D01*
X057313Y016095D02*
X058625Y016095D01*
X059265Y016140D02*
X059765Y016640D01*
X059765Y018765D01*
X058640Y019890D01*
X056265Y019890D01*
X055390Y020765D01*
X055390Y021390D01*
X055890Y020890D02*
X055890Y021890D01*
X055515Y022265D01*
X054765Y022265D01*
X054390Y021890D01*
X054390Y021390D01*
X053390Y021390D02*
X053390Y020765D01*
X054640Y019515D01*
X058515Y019515D01*
X059265Y018765D01*
X059265Y017140D01*
X060265Y017140D02*
X060265Y018765D01*
X058765Y020265D01*
X056515Y020265D01*
X055890Y020890D01*
X056390Y020890D02*
X056640Y020640D01*
X058890Y020640D01*
X060765Y018765D01*
X060765Y016640D01*
X060265Y016140D01*
X059765Y015640D02*
X060265Y015140D01*
X059765Y015640D02*
X043140Y015640D01*
X041765Y017015D01*
X040765Y017015D02*
X042640Y015140D01*
X059265Y015140D01*
X057140Y016640D02*
X044140Y016640D01*
X043765Y017015D01*
X043640Y016140D02*
X042765Y017015D01*
X043640Y016140D02*
X056515Y016140D01*
X056244Y017521D02*
X055536Y017521D01*
X055244Y017521D02*
X054536Y017521D01*
X054244Y017521D02*
X053536Y017521D01*
X053244Y017521D02*
X052536Y017521D01*
X052244Y017521D02*
X051536Y017521D01*
X051808Y017680D02*
X051972Y017680D01*
X052808Y017680D02*
X052972Y017680D01*
X053808Y017680D02*
X053972Y017680D01*
X054808Y017680D02*
X054972Y017680D01*
X055390Y018390D02*
X055390Y018890D01*
X055140Y019140D01*
X054515Y019140D01*
X053765Y019890D01*
X044265Y019890D01*
X043265Y018890D01*
X043265Y018390D01*
X044265Y018390D02*
X045265Y018390D01*
X045772Y019012D02*
X045605Y019179D01*
X045384Y019270D01*
X045146Y019270D01*
X044925Y019179D01*
X044765Y019019D01*
X044605Y019179D01*
X044384Y019270D01*
X044211Y019270D01*
X044431Y019490D01*
X047540Y019490D01*
X047540Y019390D01*
X048140Y019390D01*
X048740Y019390D01*
X048740Y019490D01*
X053599Y019490D01*
X053980Y019109D01*
X053890Y019019D01*
X053730Y019179D01*
X053509Y019270D01*
X053271Y019270D01*
X053050Y019179D01*
X052890Y019019D01*
X052730Y019179D01*
X052509Y019270D01*
X052271Y019270D01*
X052050Y019179D01*
X051890Y019019D01*
X051730Y019179D01*
X051509Y019270D01*
X051271Y019270D01*
X051050Y019179D01*
X050890Y019019D01*
X050730Y019179D01*
X050509Y019270D01*
X050271Y019270D01*
X050050Y019179D01*
X049890Y019019D01*
X049730Y019179D01*
X049509Y019270D01*
X049271Y019270D01*
X049050Y019179D01*
X048881Y019010D01*
X048790Y018789D01*
X046854Y018789D01*
X046850Y018810D02*
X046821Y018900D01*
X046778Y018984D01*
X046723Y019061D01*
X046656Y019128D01*
X046579Y019183D01*
X046495Y019226D01*
X046405Y019255D01*
X046312Y019270D01*
X046265Y019270D01*
X046265Y018390D01*
X046265Y018390D01*
X046865Y018390D01*
X046865Y018717D01*
X046850Y018810D01*
X046797Y018948D02*
X047734Y018948D01*
X047891Y018790D02*
X047540Y019141D01*
X047540Y019390D01*
X048140Y019390D01*
X048140Y019390D01*
X048740Y019390D01*
X048740Y019141D01*
X048389Y018790D01*
X048140Y018790D01*
X048140Y019390D01*
X048140Y019390D01*
X048140Y019390D01*
X048140Y018790D01*
X047891Y018790D01*
X048140Y018948D02*
X048140Y018948D01*
X048140Y019106D02*
X048140Y019106D01*
X048140Y019265D02*
X048140Y019265D01*
X048546Y018948D02*
X048856Y018948D01*
X048790Y018789D02*
X048790Y017991D01*
X048881Y017770D01*
X049050Y017601D01*
X049198Y017540D01*
X047796Y017540D01*
X047713Y017623D01*
X047503Y017710D01*
X047277Y017710D01*
X047067Y017623D01*
X046984Y017540D01*
X046452Y017540D01*
X046495Y017554D01*
X046579Y017597D01*
X046656Y017652D01*
X046723Y017719D01*
X046778Y017796D01*
X046821Y017880D01*
X046850Y017969D01*
X046865Y018063D01*
X046865Y018390D01*
X046265Y018390D01*
X046265Y018390D01*
X046265Y019270D01*
X046218Y019270D01*
X046124Y019255D01*
X046035Y019226D01*
X045951Y019183D01*
X045874Y019128D01*
X045807Y019061D01*
X045772Y019012D01*
X045852Y019106D02*
X045678Y019106D01*
X045398Y019265D02*
X046183Y019265D01*
X046265Y019265D02*
X046265Y019265D01*
X046347Y019265D02*
X047540Y019265D01*
X047540Y019423D02*
X044364Y019423D01*
X044398Y019265D02*
X045132Y019265D01*
X044852Y019106D02*
X044678Y019106D01*
X043265Y018890D02*
X042265Y019890D01*
X032140Y019890D01*
X031140Y018890D01*
X031140Y018390D01*
X031140Y018890D02*
X030140Y019890D01*
X020015Y019890D01*
X019015Y018890D01*
X019015Y018390D01*
X019961Y019270D02*
X020181Y019490D01*
X023290Y019490D01*
X023290Y019390D01*
X023890Y019390D01*
X023890Y019390D01*
X023290Y019390D01*
X023290Y019141D01*
X023641Y018790D01*
X023849Y018790D01*
X022974Y017915D01*
X022583Y017915D01*
X022600Y017969D01*
X022615Y018063D01*
X022615Y018390D01*
X022615Y018717D01*
X022600Y018810D01*
X022571Y018900D01*
X022528Y018984D01*
X022473Y019061D01*
X022406Y019128D01*
X022329Y019183D01*
X022245Y019226D01*
X022155Y019255D01*
X022062Y019270D01*
X022015Y019270D01*
X022015Y018390D01*
X022015Y018390D01*
X022615Y018390D01*
X022015Y018390D01*
X022015Y018390D01*
X022015Y019270D01*
X021968Y019270D01*
X021874Y019255D01*
X021785Y019226D01*
X021701Y019183D01*
X021624Y019128D01*
X021557Y019061D01*
X021522Y019012D01*
X021355Y019179D01*
X021134Y019270D01*
X020896Y019270D01*
X020675Y019179D01*
X020515Y019019D01*
X020355Y019179D01*
X020134Y019270D01*
X019961Y019270D01*
X020148Y019265D02*
X020882Y019265D01*
X021148Y019265D02*
X021933Y019265D01*
X022015Y019265D02*
X022015Y019265D01*
X022097Y019265D02*
X023290Y019265D01*
X023290Y019423D02*
X020114Y019423D01*
X020428Y019106D02*
X020602Y019106D01*
X021428Y019106D02*
X021602Y019106D01*
X022015Y019106D02*
X022015Y019106D01*
X022015Y018948D02*
X022015Y018948D01*
X022015Y018789D02*
X022015Y018789D01*
X022015Y018631D02*
X022015Y018631D01*
X022015Y018472D02*
X022015Y018472D01*
X022615Y018472D02*
X023531Y018472D01*
X023373Y018314D02*
X022615Y018314D01*
X022615Y018155D02*
X023214Y018155D01*
X023056Y017997D02*
X022605Y017997D01*
X022615Y018631D02*
X023690Y018631D01*
X023848Y018789D02*
X022604Y018789D01*
X022547Y018948D02*
X023484Y018948D01*
X023325Y019106D02*
X022428Y019106D01*
X023140Y017515D02*
X025140Y019515D01*
X028515Y019515D01*
X029140Y018890D01*
X029140Y018390D01*
X028640Y017015D02*
X031265Y014390D01*
X033390Y014390D01*
X034640Y013140D01*
X059265Y013140D01*
X059765Y013640D02*
X060265Y013140D01*
X059765Y013640D02*
X034640Y013640D01*
X033515Y014765D01*
X031890Y014765D01*
X029640Y017015D01*
X030640Y017015D02*
X032515Y015140D01*
X033640Y015140D01*
X034640Y014140D01*
X055265Y014140D01*
X056015Y014640D02*
X034640Y014640D01*
X033765Y015515D01*
X033140Y015515D01*
X031640Y017015D01*
X029470Y015619D02*
X020602Y015619D01*
X020760Y015461D02*
X029629Y015461D01*
X029787Y015302D02*
X020919Y015302D01*
X021077Y015144D02*
X029946Y015144D01*
X030104Y014985D02*
X021236Y014985D01*
X021394Y014827D02*
X030263Y014827D01*
X030421Y014668D02*
X021553Y014668D01*
X021711Y014510D02*
X030580Y014510D01*
X029312Y015778D02*
X020443Y015778D01*
X020285Y015936D02*
X029153Y015936D01*
X028995Y016095D02*
X020126Y016095D01*
X020085Y016253D02*
X019998Y016463D01*
X019139Y016570D02*
X018891Y016570D01*
X017139Y016570D02*
X016891Y016570D01*
X016890Y017515D02*
X023140Y017515D01*
X025703Y016887D02*
X028076Y016887D01*
X028070Y017046D02*
X025861Y017046D01*
X026020Y017204D02*
X026260Y017204D01*
X027515Y020265D02*
X028140Y020890D01*
X028765Y020265D01*
X039640Y020265D01*
X040265Y020890D01*
X040890Y020265D01*
X051765Y020265D01*
X052390Y020890D01*
X052390Y021390D01*
X050390Y021390D02*
X050390Y020890D01*
X050140Y020640D01*
X045515Y020640D01*
X045265Y020890D01*
X045265Y021390D01*
X046265Y021390D02*
X046265Y021765D01*
X046765Y022265D01*
X054015Y022265D01*
X054390Y022640D01*
X057640Y022640D01*
X058390Y021890D01*
X058390Y021390D01*
X058990Y021325D02*
X060135Y021325D01*
X060135Y021384D02*
X060135Y021146D01*
X060226Y020925D01*
X060395Y020756D01*
X060616Y020665D01*
X061414Y020665D01*
X061490Y020696D01*
X061490Y020264D01*
X061264Y020490D01*
X060766Y020490D01*
X060415Y020139D01*
X060415Y019681D01*
X059117Y020979D01*
X058990Y021032D01*
X058990Y021789D01*
X058899Y022010D01*
X058730Y022179D01*
X058623Y022223D01*
X058617Y022229D01*
X057867Y022979D01*
X057720Y023040D01*
X057582Y023040D01*
X057730Y023101D01*
X057897Y023268D01*
X057932Y023219D01*
X057999Y023152D01*
X058076Y023097D01*
X058160Y023054D01*
X058249Y023025D01*
X058343Y023010D01*
X058390Y023010D01*
X058437Y023010D01*
X058530Y023025D01*
X058620Y023054D01*
X058704Y023097D01*
X058781Y023152D01*
X058848Y023219D01*
X058903Y023296D01*
X058946Y023380D01*
X058975Y023469D01*
X058990Y023563D01*
X058990Y023890D01*
X058990Y024217D01*
X058975Y024310D01*
X058958Y024365D01*
X060135Y024365D01*
X060135Y024146D01*
X060226Y023925D01*
X060386Y023765D01*
X060226Y023605D01*
X060135Y023384D01*
X060135Y023146D01*
X060226Y022925D01*
X060393Y022758D01*
X060344Y022723D01*
X060277Y022656D01*
X060222Y022579D01*
X060179Y022495D01*
X060150Y022405D01*
X060135Y022312D01*
X060135Y022265D01*
X061015Y022265D01*
X061015Y022265D01*
X060135Y022265D01*
X060135Y022218D01*
X060150Y022124D01*
X060179Y022035D01*
X060222Y021951D01*
X060277Y021874D01*
X060344Y021807D01*
X060393Y021772D01*
X060226Y021605D01*
X060135Y021384D01*
X060176Y021484D02*
X058990Y021484D01*
X058990Y021642D02*
X060264Y021642D01*
X060354Y021801D02*
X058985Y021801D01*
X058920Y021959D02*
X060218Y021959D01*
X060152Y022118D02*
X058791Y022118D01*
X058570Y022276D02*
X060135Y022276D01*
X060159Y022435D02*
X058411Y022435D01*
X058253Y022593D02*
X060232Y022593D01*
X060384Y022752D02*
X058094Y022752D01*
X057936Y022910D02*
X060241Y022910D01*
X060167Y023069D02*
X058649Y023069D01*
X058853Y023227D02*
X060135Y023227D01*
X060135Y023386D02*
X058948Y023386D01*
X058987Y023544D02*
X060201Y023544D01*
X060324Y023703D02*
X058990Y023703D01*
X058990Y023861D02*
X060290Y023861D01*
X060187Y024020D02*
X058990Y024020D01*
X058990Y023890D02*
X058390Y023890D01*
X058390Y023890D01*
X058990Y023890D01*
X058990Y024178D02*
X060135Y024178D01*
X060135Y024337D02*
X058967Y024337D01*
X058390Y023890D02*
X058390Y023010D01*
X058390Y023890D01*
X058390Y023890D01*
X058390Y023861D02*
X058390Y023861D01*
X058390Y023703D02*
X058390Y023703D01*
X058390Y023544D02*
X058390Y023544D01*
X058390Y023386D02*
X058390Y023386D01*
X058390Y023227D02*
X058390Y023227D01*
X058390Y023069D02*
X058390Y023069D01*
X058131Y023069D02*
X057651Y023069D01*
X057856Y023227D02*
X057927Y023227D01*
X057390Y023890D02*
X056390Y023890D01*
X055390Y023890D02*
X055390Y024390D01*
X055765Y024765D01*
X062515Y024765D01*
X063015Y024265D01*
X064015Y024265D01*
X064890Y024890D02*
X064890Y011515D01*
X061515Y008140D01*
X059515Y008140D01*
X056640Y005265D01*
X036515Y005265D01*
X035390Y006390D01*
X035390Y007390D01*
X033140Y009640D01*
X025765Y009640D01*
X025390Y009265D01*
X025390Y008140D01*
X025015Y007765D01*
X024515Y007765D01*
X023890Y007140D01*
X022890Y007140D02*
X022890Y007890D01*
X023765Y008765D01*
X024890Y008765D01*
X024290Y009165D02*
X023685Y009165D01*
X023538Y009104D01*
X023426Y008992D01*
X022551Y008117D01*
X022490Y007970D01*
X022490Y007645D01*
X022390Y007545D01*
X022155Y007780D01*
X021625Y007780D01*
X021390Y007545D01*
X021155Y007780D01*
X020625Y007780D01*
X020390Y007545D01*
X020155Y007780D01*
X019625Y007780D01*
X019390Y007545D01*
X019155Y007780D01*
X018625Y007780D01*
X018390Y007545D01*
X018155Y007780D01*
X017625Y007780D01*
X017390Y007545D01*
X017155Y007780D01*
X016625Y007780D01*
X016390Y007545D01*
X016155Y007780D01*
X015625Y007780D01*
X015390Y007545D01*
X015155Y007780D01*
X014625Y007780D01*
X014390Y007545D01*
X014155Y007780D01*
X013625Y007780D01*
X013390Y007545D01*
X013155Y007780D01*
X012790Y007780D01*
X012790Y008474D01*
X016431Y012115D01*
X023016Y012115D01*
X022915Y012014D01*
X022915Y011516D01*
X023266Y011165D01*
X023764Y011165D01*
X024115Y011516D01*
X024115Y012014D01*
X024014Y012115D01*
X024290Y012115D01*
X024290Y011366D01*
X024381Y011145D01*
X024550Y010976D01*
X024771Y010885D01*
X025009Y010885D01*
X025230Y010976D01*
X025390Y011136D01*
X025550Y010976D01*
X025771Y010885D01*
X026009Y010885D01*
X026230Y010976D01*
X026390Y011136D01*
X026550Y010976D01*
X026771Y010885D01*
X027009Y010885D01*
X027230Y010976D01*
X027390Y011136D01*
X027550Y010976D01*
X027771Y010885D01*
X028009Y010885D01*
X028230Y010976D01*
X028390Y011136D01*
X028550Y010976D01*
X028771Y010885D01*
X029009Y010885D01*
X029230Y010976D01*
X029390Y011136D01*
X029550Y010976D01*
X029771Y010885D01*
X030009Y010885D01*
X030230Y010976D01*
X030390Y011136D01*
X030550Y010976D01*
X030771Y010885D01*
X031009Y010885D01*
X031230Y010976D01*
X031399Y011145D01*
X031490Y011366D01*
X031490Y012115D01*
X032474Y012115D01*
X034176Y010413D01*
X034288Y010301D01*
X034435Y010240D01*
X042991Y010240D01*
X042945Y010128D01*
X042945Y009902D01*
X043032Y009692D01*
X043192Y009532D01*
X043402Y009445D01*
X043628Y009445D01*
X043838Y009532D01*
X043921Y009615D01*
X048349Y009615D01*
X050405Y007560D01*
X050390Y007545D01*
X050155Y007780D01*
X049625Y007780D01*
X049390Y007545D01*
X049155Y007780D01*
X048625Y007780D01*
X048390Y007545D01*
X048155Y007780D01*
X047625Y007780D01*
X047390Y007545D01*
X047155Y007780D01*
X046625Y007780D01*
X046390Y007545D01*
X046155Y007780D01*
X045625Y007780D01*
X045390Y007545D01*
X045155Y007780D01*
X044625Y007780D01*
X044390Y007545D01*
X044155Y007780D01*
X043625Y007780D01*
X043390Y007545D01*
X043155Y007780D01*
X042625Y007780D01*
X042390Y007545D01*
X042155Y007780D01*
X041625Y007780D01*
X041390Y007545D01*
X041155Y007780D01*
X040625Y007780D01*
X040390Y007545D01*
X040155Y007780D01*
X039625Y007780D01*
X039390Y007545D01*
X039155Y007780D01*
X038625Y007780D01*
X038390Y007545D01*
X038155Y007780D01*
X037625Y007780D01*
X037390Y007545D01*
X037155Y007780D01*
X036625Y007780D01*
X036250Y007405D01*
X036250Y006875D01*
X036485Y006640D01*
X036250Y006405D01*
X036250Y006096D01*
X035790Y006556D01*
X035790Y007470D01*
X035729Y007617D01*
X033367Y009979D01*
X033220Y010040D01*
X025685Y010040D01*
X025538Y009979D01*
X025163Y009604D01*
X025147Y009588D01*
X025009Y009645D01*
X024771Y009645D01*
X024550Y009554D01*
X024381Y009385D01*
X024290Y009165D01*
X024337Y009279D02*
X023878Y009279D01*
X023764Y009165D02*
X024115Y009516D01*
X024115Y009765D01*
X024115Y010014D01*
X023764Y010365D01*
X023515Y010365D01*
X023515Y009765D01*
X023515Y009765D01*
X024115Y009765D01*
X023515Y009765D01*
X023515Y009765D01*
X023515Y009765D01*
X022915Y009765D01*
X022915Y010014D01*
X023266Y010365D01*
X023515Y010365D01*
X023515Y009765D01*
X023515Y009165D01*
X023764Y009165D01*
X023578Y009121D02*
X013436Y009121D01*
X013595Y009279D02*
X023152Y009279D01*
X023266Y009165D02*
X022915Y009516D01*
X022915Y009765D01*
X023515Y009765D01*
X023515Y009765D01*
X023515Y009165D01*
X023266Y009165D01*
X023396Y008962D02*
X013278Y008962D01*
X013119Y008804D02*
X023238Y008804D01*
X023079Y008645D02*
X012961Y008645D01*
X012802Y008487D02*
X022921Y008487D01*
X022762Y008328D02*
X012790Y008328D01*
X012790Y008170D02*
X022604Y008170D01*
X022507Y008011D02*
X012790Y008011D01*
X012790Y007853D02*
X022490Y007853D01*
X022490Y007694D02*
X022241Y007694D01*
X021539Y007694D02*
X021241Y007694D01*
X020539Y007694D02*
X020241Y007694D01*
X019539Y007694D02*
X019241Y007694D01*
X018539Y007694D02*
X018241Y007694D01*
X017539Y007694D02*
X017241Y007694D01*
X016539Y007694D02*
X016241Y007694D01*
X015539Y007694D02*
X015241Y007694D01*
X014539Y007694D02*
X014241Y007694D01*
X013539Y007694D02*
X013241Y007694D01*
X011990Y007780D02*
X011990Y008720D01*
X012051Y008867D01*
X015926Y012742D01*
X016038Y012854D01*
X016185Y012915D01*
X019174Y012915D01*
X016519Y015570D01*
X016402Y015570D01*
X016192Y015657D01*
X016032Y015817D01*
X015945Y016027D01*
X015983Y015936D02*
X004270Y015936D01*
X004270Y015778D02*
X016071Y015778D01*
X016283Y015619D02*
X004270Y015619D01*
X004270Y015461D02*
X016629Y015461D01*
X016787Y015302D02*
X004270Y015302D01*
X004270Y015144D02*
X016946Y015144D01*
X017104Y014985D02*
X004270Y014985D01*
X004270Y014827D02*
X017263Y014827D01*
X017421Y014668D02*
X004270Y014668D01*
X004270Y014510D02*
X006835Y014510D01*
X006845Y014520D02*
X006723Y014397D01*
X006657Y014238D01*
X006657Y014106D01*
X006634Y014096D01*
X006511Y013974D01*
X006445Y013814D01*
X006445Y013641D01*
X006497Y013516D01*
X006445Y013390D01*
X006445Y013217D01*
X006511Y013057D01*
X006634Y012935D01*
X006657Y012925D01*
X006657Y012793D01*
X006723Y012634D01*
X006845Y012511D01*
X007005Y012445D01*
X007178Y012445D01*
X007304Y012497D01*
X007429Y012445D01*
X007602Y012445D01*
X007762Y012511D01*
X007884Y012634D01*
X007888Y012643D01*
X007892Y012634D01*
X008015Y012511D01*
X008175Y012445D01*
X008348Y012445D01*
X008508Y012511D01*
X008630Y012634D01*
X008696Y012793D01*
X008696Y012912D01*
X009355Y013570D01*
X009477Y013693D01*
X009542Y013848D01*
X009544Y013853D01*
X009544Y014238D01*
X009477Y014397D01*
X009355Y014520D01*
X009195Y014586D01*
X008175Y014586D01*
X008015Y014520D01*
X007892Y014397D01*
X007888Y014388D01*
X007884Y014397D01*
X007762Y014520D01*
X007602Y014586D01*
X007429Y014586D01*
X007304Y014534D01*
X007178Y014586D01*
X007005Y014586D01*
X006845Y014520D01*
X006704Y014351D02*
X004270Y014351D01*
X004270Y014193D02*
X006657Y014193D01*
X006571Y014034D02*
X004270Y014034D01*
X004270Y013876D02*
X006471Y013876D01*
X006445Y013717D02*
X004270Y013717D01*
X004270Y013559D02*
X006479Y013559D01*
X006449Y013400D02*
X004270Y013400D01*
X004270Y013242D02*
X006445Y013242D01*
X006501Y013083D02*
X004270Y013083D01*
X004270Y012925D02*
X006657Y012925D01*
X006668Y012766D02*
X004270Y012766D01*
X004270Y012608D02*
X006749Y012608D01*
X006996Y012449D02*
X004270Y012449D01*
X004270Y012291D02*
X015475Y012291D01*
X015633Y012449D02*
X008357Y012449D01*
X008165Y012449D02*
X007612Y012449D01*
X007419Y012449D02*
X007188Y012449D01*
X007858Y012608D02*
X007918Y012608D01*
X008604Y012608D02*
X015792Y012608D01*
X015950Y012766D02*
X008685Y012766D01*
X008709Y012925D02*
X019165Y012925D01*
X019006Y013083D02*
X008868Y013083D01*
X009026Y013242D02*
X018848Y013242D01*
X018689Y013400D02*
X009185Y013400D01*
X009343Y013559D02*
X018531Y013559D01*
X018372Y013717D02*
X009487Y013717D01*
X009544Y013876D02*
X018214Y013876D01*
X018055Y014034D02*
X009544Y014034D01*
X009544Y014193D02*
X017897Y014193D01*
X017738Y014351D02*
X009497Y014351D01*
X009365Y014510D02*
X017580Y014510D01*
X016265Y012515D02*
X032640Y012515D01*
X034515Y010640D01*
X053140Y010640D01*
X054515Y009265D01*
X060765Y009265D01*
X061890Y010390D01*
X061890Y022890D01*
X061515Y023265D01*
X061015Y023265D01*
X062265Y021015D02*
X063515Y022265D01*
X064015Y022265D01*
X064015Y021265D02*
X064015Y011140D01*
X061390Y008515D01*
X059390Y008515D01*
X056515Y005640D01*
X040140Y005640D01*
X039890Y005890D01*
X039890Y006140D01*
X039539Y007694D02*
X039241Y007694D01*
X038539Y007694D02*
X038241Y007694D01*
X037539Y007694D02*
X037241Y007694D01*
X036539Y007694D02*
X035652Y007694D01*
X035763Y007536D02*
X036380Y007536D01*
X036250Y007377D02*
X035790Y007377D01*
X035790Y007219D02*
X036250Y007219D01*
X036250Y007060D02*
X035790Y007060D01*
X035790Y006902D02*
X036250Y006902D01*
X036382Y006743D02*
X035790Y006743D01*
X035790Y006585D02*
X036429Y006585D01*
X036271Y006426D02*
X035920Y006426D01*
X036078Y006268D02*
X036250Y006268D01*
X036237Y006109D02*
X036250Y006109D01*
X035739Y005475D02*
X005915Y005475D01*
X005792Y005352D02*
X006053Y005613D01*
X006195Y005955D01*
X006195Y006325D01*
X006053Y006667D01*
X005792Y006928D01*
X005450Y007070D01*
X005080Y007070D01*
X004738Y006928D01*
X004477Y006667D01*
X004335Y006325D01*
X004335Y005955D01*
X004477Y005613D01*
X004738Y005352D01*
X005080Y005210D01*
X005450Y005210D01*
X005792Y005352D01*
X005707Y005317D02*
X035898Y005317D01*
X036056Y005158D02*
X004270Y005158D01*
X004270Y005000D02*
X036215Y005000D01*
X036288Y004926D02*
X036435Y004865D01*
X056720Y004865D01*
X056867Y004926D01*
X056979Y005038D01*
X058720Y006780D01*
X058860Y006640D01*
X058625Y006405D01*
X058625Y005875D01*
X059000Y005500D01*
X059530Y005500D01*
X059765Y005735D01*
X060000Y005500D01*
X060530Y005500D01*
X060905Y005875D01*
X060905Y006405D01*
X060670Y006640D01*
X060905Y006875D01*
X060905Y007405D01*
X060570Y007740D01*
X061595Y007740D01*
X061742Y007801D01*
X061786Y007846D01*
X061992Y007640D01*
X061852Y007500D01*
X061755Y007266D01*
X061755Y007014D01*
X061852Y006780D01*
X062030Y006602D01*
X062264Y006505D01*
X062516Y006505D01*
X062750Y006602D01*
X062928Y006780D01*
X063025Y007014D01*
X063025Y007266D01*
X062928Y007500D01*
X062788Y007640D01*
X063025Y007877D01*
X063025Y008140D01*
X063025Y008403D01*
X062684Y008744D01*
X065229Y011288D01*
X065290Y011435D01*
X065290Y024970D01*
X065229Y025117D01*
X065117Y025229D01*
X064848Y025498D01*
X064804Y025605D01*
X064644Y025765D01*
X064804Y025925D01*
X064848Y026032D01*
X065117Y026301D01*
X065229Y026413D01*
X065290Y026560D01*
X065290Y027470D01*
X065229Y027617D01*
X065117Y027729D01*
X065117Y027729D01*
X064854Y027992D01*
X064838Y028008D01*
X064851Y028035D01*
X064880Y028124D01*
X064895Y028218D01*
X064895Y028265D01*
X064895Y028312D01*
X064880Y028405D01*
X064851Y028495D01*
X064808Y028579D01*
X064753Y028656D01*
X064749Y028660D01*
X065064Y028660D01*
X065067Y028657D01*
X065277Y028570D01*
X065503Y028570D01*
X065713Y028657D01*
X065873Y028817D01*
X065960Y029027D01*
X065960Y029253D01*
X065873Y029463D01*
X065713Y029623D01*
X065503Y029710D01*
X065277Y029710D01*
X065067Y029623D01*
X065064Y029620D01*
X063594Y029620D01*
X063615Y029641D01*
X063615Y029890D01*
X063615Y030139D01*
X063264Y030490D01*
X063015Y030490D01*
X063015Y029890D01*
X063015Y029890D01*
X063615Y029890D01*
X063015Y029890D01*
X063015Y029890D01*
X063015Y030490D01*
X062766Y030490D01*
X062415Y030139D01*
X062415Y029919D01*
X062172Y030162D01*
X062037Y030297D01*
X061860Y030370D01*
X061384Y030370D01*
X061264Y030490D01*
X060766Y030490D01*
X060415Y030139D01*
X060415Y029665D01*
X059671Y029665D01*
X059588Y029748D01*
X059378Y029835D01*
X059152Y029835D01*
X058982Y029765D01*
X058975Y029810D01*
X058958Y029865D01*
X059720Y029865D01*
X059867Y029926D01*
X060242Y030301D01*
X060354Y030413D01*
X060415Y030560D01*
X060415Y030748D01*
X060616Y030665D01*
X061414Y030665D01*
X061635Y030756D01*
X061804Y030925D01*
X061895Y031146D01*
X061895Y031384D01*
X061804Y031605D01*
X061637Y031772D01*
X061686Y031807D01*
X061753Y031874D01*
X061808Y031951D01*
X061851Y032035D01*
X061880Y032124D01*
X061895Y032218D01*
X061895Y032265D01*
X061895Y032312D01*
X061894Y032321D01*
X062288Y031926D01*
X062435Y031865D01*
X063286Y031865D01*
X063386Y031765D01*
X063226Y031605D01*
X063135Y031384D01*
X063135Y031146D01*
X063226Y030925D01*
X063395Y030756D01*
X063616Y030665D01*
X064414Y030665D01*
X064635Y030756D01*
X064804Y030925D01*
X064895Y031146D01*
X064895Y031384D01*
X064804Y031605D01*
X064644Y031765D01*
X064804Y031925D01*
X064895Y032146D01*
X064895Y032384D01*
X064804Y032605D01*
X064644Y032765D01*
X064804Y032925D01*
X064895Y033146D01*
X064895Y033384D01*
X064804Y033605D01*
X064644Y033765D01*
X064804Y033925D01*
X064895Y034146D01*
X064895Y034384D01*
X064804Y034605D01*
X064644Y034765D01*
X064804Y034925D01*
X064895Y035146D01*
X064895Y035384D01*
X064804Y035605D01*
X064644Y035765D01*
X064804Y035925D01*
X064895Y036146D01*
X064895Y036384D01*
X064804Y036605D01*
X064644Y036765D01*
X064804Y036925D01*
X064895Y037146D01*
X064895Y037384D01*
X064804Y037605D01*
X064637Y037772D01*
X064686Y037807D01*
X064753Y037874D01*
X064808Y037951D01*
X064851Y038035D01*
X064880Y038124D01*
X064895Y038218D01*
X064895Y038265D01*
X064895Y038312D01*
X064880Y038405D01*
X064851Y038495D01*
X064808Y038579D01*
X064753Y038656D01*
X064686Y038723D01*
X064609Y038778D01*
X064525Y038821D01*
X064435Y038850D01*
X064342Y038865D01*
X064015Y038865D01*
X064015Y038265D01*
X064015Y038265D01*
X064895Y038265D01*
X064015Y038265D01*
X064015Y038265D01*
X064015Y038265D01*
X063135Y038265D01*
X063135Y038312D01*
X063150Y038405D01*
X063179Y038495D01*
X063222Y038579D01*
X063277Y038656D01*
X063344Y038723D01*
X063421Y038778D01*
X063505Y038821D01*
X063594Y038850D01*
X063688Y038865D01*
X064015Y038865D01*
X064015Y038265D01*
X063135Y038265D01*
X063135Y038218D01*
X063150Y038124D01*
X063179Y038035D01*
X063222Y037951D01*
X063277Y037874D01*
X063344Y037807D01*
X063393Y037772D01*
X063286Y037665D01*
X063060Y037665D01*
X062913Y037604D01*
X062801Y037492D01*
X061850Y037492D01*
X061895Y037384D02*
X061804Y037605D01*
X061644Y037765D01*
X061804Y037925D01*
X061895Y038146D01*
X061895Y038384D01*
X061804Y038605D01*
X061635Y038774D01*
X061414Y038865D01*
X060616Y038865D01*
X060395Y038774D01*
X060226Y038605D01*
X060135Y038384D01*
X060135Y038146D01*
X060226Y037925D01*
X060386Y037765D01*
X060226Y037605D01*
X060135Y037384D01*
X060135Y037146D01*
X060226Y036925D01*
X060386Y036765D01*
X060226Y036605D01*
X060135Y036384D01*
X060135Y036165D01*
X060060Y036165D01*
X059913Y036104D01*
X059801Y035992D01*
X058990Y035181D01*
X058990Y035217D01*
X058975Y035310D01*
X058946Y035400D01*
X058903Y035484D01*
X058848Y035561D01*
X058781Y035628D01*
X058704Y035683D01*
X058620Y035726D01*
X058530Y035755D01*
X058437Y035770D01*
X058390Y035770D01*
X058390Y034890D01*
X058390Y034890D01*
X058390Y035770D01*
X058343Y035770D01*
X058249Y035755D01*
X058160Y035726D01*
X058076Y035683D01*
X057999Y035628D01*
X057932Y035561D01*
X057897Y035512D01*
X057730Y035679D01*
X057623Y035723D01*
X057617Y035729D01*
X057242Y036104D01*
X057095Y036165D01*
X048935Y036165D01*
X048788Y036104D01*
X048740Y036056D01*
X048740Y036139D01*
X048389Y036490D01*
X048140Y036490D01*
X048140Y035890D01*
X048140Y035890D01*
X048140Y036490D01*
X047891Y036490D01*
X047540Y036139D01*
X047540Y036056D01*
X047492Y036104D01*
X047345Y036165D01*
X045685Y036165D01*
X045538Y036104D01*
X045426Y035992D01*
X045265Y035831D01*
X044992Y036104D01*
X044845Y036165D01*
X036810Y036165D01*
X036663Y036104D01*
X036615Y036056D01*
X036615Y036139D01*
X036264Y036490D01*
X036015Y036490D01*
X036015Y035890D01*
X036015Y035890D01*
X036015Y036490D01*
X035766Y036490D01*
X035415Y036139D01*
X035415Y036056D01*
X035367Y036104D01*
X035220Y036165D01*
X033435Y036165D01*
X033288Y036104D01*
X033176Y035992D01*
X033140Y035956D01*
X032992Y036104D01*
X032845Y036165D01*
X030935Y036165D01*
X030788Y036104D01*
X030676Y035992D01*
X030397Y035713D01*
X030373Y035723D01*
X030367Y035729D01*
X029481Y036615D01*
X033845Y036615D01*
X033992Y036676D01*
X034140Y036824D01*
X034176Y036788D01*
X034288Y036676D01*
X034435Y036615D01*
X045970Y036615D01*
X046117Y036676D01*
X046265Y036824D01*
X046301Y036788D01*
X046413Y036676D01*
X046560Y036615D01*
X058095Y036615D01*
X058242Y036676D01*
X058617Y037051D01*
X058623Y037057D01*
X058730Y037101D01*
X058899Y037270D01*
X058990Y037491D01*
X058990Y038289D01*
X058899Y038510D01*
X058730Y038679D01*
X058509Y038770D01*
X058271Y038770D01*
X058050Y038679D01*
X057883Y038512D01*
X057848Y038561D01*
X057781Y038628D01*
X057704Y038683D01*
X057620Y038726D01*
X057530Y038755D01*
X057437Y038770D01*
X057390Y038770D01*
X057390Y037890D01*
X057390Y037890D01*
X057390Y038770D01*
X057343Y038770D01*
X057249Y038755D01*
X057160Y038726D01*
X057076Y038683D01*
X056999Y038628D01*
X056932Y038561D01*
X056897Y038512D01*
X056730Y038679D01*
X056509Y038770D01*
X056271Y038770D01*
X056050Y038679D01*
X055890Y038519D01*
X055730Y038679D01*
X055509Y038770D01*
X055271Y038770D01*
X055050Y038679D01*
X054890Y038519D01*
X054730Y038679D01*
X054509Y038770D01*
X054271Y038770D01*
X054050Y038679D01*
X053890Y038519D01*
X053730Y038679D01*
X053509Y038770D01*
X053271Y038770D01*
X053050Y038679D01*
X052890Y038519D01*
X052730Y038679D01*
X052623Y038723D01*
X052617Y038729D01*
X051992Y039354D01*
X051845Y039415D01*
X040810Y039415D01*
X040663Y039354D01*
X040551Y039242D01*
X040265Y038956D01*
X039867Y039354D01*
X039720Y039415D01*
X039335Y039415D01*
X039335Y039615D01*
X039359Y039615D01*
X039442Y039532D01*
X039652Y039445D01*
X039878Y039445D01*
X040088Y039532D01*
X040248Y039692D01*
X040335Y039902D01*
X040335Y040128D01*
X040289Y040240D01*
X041099Y040240D01*
X041195Y040144D01*
X041195Y040027D01*
X041282Y039817D01*
X041442Y039657D01*
X041652Y039570D01*
X041878Y039570D01*
X042088Y039657D01*
X042248Y039817D01*
X042265Y039858D01*
X042282Y039817D01*
X042442Y039657D01*
X042652Y039570D01*
X042878Y039570D01*
X043088Y039657D01*
X043248Y039817D01*
X043335Y040027D01*
X043335Y040253D01*
X043248Y040463D01*
X043088Y040623D01*
X042878Y040710D01*
X042761Y040710D01*
X042481Y040990D01*
X049474Y040990D01*
X050320Y040144D01*
X050320Y040027D01*
X050407Y039817D01*
X050567Y039657D01*
X050777Y039570D01*
X051003Y039570D01*
X051213Y039657D01*
X051373Y039817D01*
X051390Y039858D01*
X051407Y039817D01*
X051567Y039657D01*
X051777Y039570D01*
X052003Y039570D01*
X052213Y039657D01*
X052373Y039817D01*
X052460Y040027D01*
X052460Y040253D01*
X052373Y040463D01*
X052213Y040623D01*
X052003Y040710D01*
X051886Y040710D01*
X050856Y041740D01*
X051724Y041740D01*
X053320Y040144D01*
X053320Y040027D01*
X053407Y039817D01*
X053567Y039657D01*
X053777Y039570D01*
X054003Y039570D01*
X054213Y039657D01*
X054373Y039817D01*
X054390Y039858D01*
X054407Y039817D01*
X054567Y039657D01*
X054777Y039570D01*
X055003Y039570D01*
X055213Y039657D01*
X055373Y039817D01*
X055460Y040027D01*
X055460Y040253D01*
X055373Y040463D01*
X055213Y040623D01*
X055003Y040710D01*
X054886Y040710D01*
X052742Y042854D01*
X052679Y042880D01*
X066502Y042880D01*
X066502Y041718D01*
X066292Y041928D01*
X065950Y042070D01*
X065580Y042070D01*
X065238Y041928D01*
X064977Y041667D01*
X064835Y041325D01*
X064835Y040955D01*
X064977Y040613D01*
X065238Y040352D01*
X065580Y040210D01*
X065950Y040210D01*
X066292Y040352D01*
X066502Y040562D01*
X066502Y006718D01*
X066292Y006928D01*
X065950Y007070D01*
X065580Y007070D01*
X065238Y006928D01*
X065053Y006743D02*
X062891Y006743D01*
X062708Y006585D02*
X064942Y006585D01*
X064877Y006426D02*
X060884Y006426D01*
X060905Y006268D02*
X064835Y006268D01*
X064835Y006109D02*
X060905Y006109D01*
X060905Y005951D02*
X064837Y005951D01*
X064903Y005792D02*
X060822Y005792D01*
X060664Y005634D02*
X064968Y005634D01*
X065115Y005475D02*
X057416Y005475D01*
X057574Y005634D02*
X058866Y005634D01*
X058708Y005792D02*
X057733Y005792D01*
X057891Y005951D02*
X058625Y005951D01*
X058625Y006109D02*
X058050Y006109D01*
X058208Y006268D02*
X058625Y006268D01*
X058646Y006426D02*
X058367Y006426D01*
X058525Y006585D02*
X058804Y006585D01*
X058757Y006743D02*
X058684Y006743D01*
X059664Y005634D02*
X059866Y005634D01*
X060726Y006585D02*
X062072Y006585D01*
X061889Y006743D02*
X060773Y006743D01*
X060905Y006902D02*
X061801Y006902D01*
X061755Y007060D02*
X060905Y007060D01*
X060905Y007219D02*
X061755Y007219D01*
X061801Y007377D02*
X060905Y007377D01*
X060775Y007536D02*
X061887Y007536D01*
X061938Y007694D02*
X060616Y007694D01*
X060890Y008890D02*
X054140Y008890D01*
X052890Y007640D01*
X052890Y007140D01*
X050890Y007140D02*
X050890Y007640D01*
X048515Y010015D01*
X043515Y010015D01*
X042987Y010230D02*
X023899Y010230D01*
X024057Y010072D02*
X042945Y010072D01*
X042945Y009913D02*
X033433Y009913D01*
X033591Y009755D02*
X043006Y009755D01*
X043128Y009596D02*
X033750Y009596D01*
X033908Y009438D02*
X048527Y009438D01*
X048368Y009596D02*
X043902Y009596D01*
X044241Y007694D02*
X044539Y007694D01*
X045241Y007694D02*
X045539Y007694D01*
X046241Y007694D02*
X046539Y007694D01*
X047241Y007694D02*
X047539Y007694D01*
X048241Y007694D02*
X048539Y007694D01*
X049241Y007694D02*
X049539Y007694D01*
X049953Y008011D02*
X035335Y008011D01*
X035493Y007853D02*
X050112Y007853D01*
X050241Y007694D02*
X050270Y007694D01*
X049795Y008170D02*
X035176Y008170D01*
X035018Y008328D02*
X049636Y008328D01*
X049478Y008487D02*
X034859Y008487D01*
X034701Y008645D02*
X049319Y008645D01*
X049161Y008804D02*
X034542Y008804D01*
X034384Y008962D02*
X049002Y008962D01*
X048844Y009121D02*
X034225Y009121D01*
X034067Y009279D02*
X048685Y009279D01*
X043539Y007694D02*
X043241Y007694D01*
X042539Y007694D02*
X042241Y007694D01*
X041539Y007694D02*
X041241Y007694D01*
X040539Y007694D02*
X040241Y007694D01*
X036288Y004926D02*
X035163Y006051D01*
X035051Y006163D01*
X034990Y006310D01*
X034990Y007224D01*
X032974Y009240D01*
X031458Y009240D01*
X031475Y009185D01*
X031490Y009092D01*
X031490Y008765D01*
X030890Y008765D01*
X030890Y008765D01*
X031490Y008765D01*
X031490Y008438D01*
X031475Y008344D01*
X031446Y008255D01*
X031403Y008171D01*
X031348Y008094D01*
X031281Y008027D01*
X031204Y007972D01*
X031120Y007929D01*
X031030Y007900D01*
X030937Y007885D01*
X030890Y007885D01*
X030890Y008765D01*
X030890Y008765D01*
X030890Y007885D01*
X030843Y007885D01*
X030749Y007900D01*
X030660Y007929D01*
X030576Y007972D01*
X030499Y008027D01*
X030432Y008094D01*
X030397Y008143D01*
X030230Y007976D01*
X030009Y007885D01*
X029771Y007885D01*
X029550Y007976D01*
X029390Y008136D01*
X029230Y007976D01*
X029123Y007932D01*
X029117Y007926D01*
X028971Y007780D01*
X029155Y007780D01*
X029390Y007545D01*
X029625Y007780D01*
X030155Y007780D01*
X030390Y007545D01*
X030625Y007780D01*
X031155Y007780D01*
X031390Y007545D01*
X031625Y007780D01*
X032155Y007780D01*
X032390Y007545D01*
X032625Y007780D01*
X033155Y007780D01*
X033390Y007545D01*
X033625Y007780D01*
X034155Y007780D01*
X034530Y007405D01*
X034530Y006875D01*
X034295Y006640D01*
X034530Y006405D01*
X034530Y005875D01*
X034155Y005500D01*
X033625Y005500D01*
X033390Y005735D01*
X033155Y005500D01*
X032625Y005500D01*
X032390Y005735D01*
X032155Y005500D01*
X031625Y005500D01*
X031390Y005735D01*
X031155Y005500D01*
X030625Y005500D01*
X030390Y005735D01*
X030155Y005500D01*
X029625Y005500D01*
X029390Y005735D01*
X029155Y005500D01*
X028625Y005500D01*
X028390Y005735D01*
X028155Y005500D01*
X027625Y005500D01*
X027390Y005735D01*
X027155Y005500D01*
X026625Y005500D01*
X026390Y005735D01*
X026155Y005500D01*
X025625Y005500D01*
X025390Y005735D01*
X025155Y005500D01*
X024625Y005500D01*
X024390Y005735D01*
X024155Y005500D01*
X023625Y005500D01*
X023390Y005735D01*
X023155Y005500D01*
X022625Y005500D01*
X022390Y005735D01*
X022155Y005500D01*
X021625Y005500D01*
X021390Y005735D01*
X021155Y005500D01*
X020625Y005500D01*
X020390Y005735D01*
X020155Y005500D01*
X019625Y005500D01*
X019390Y005735D01*
X019155Y005500D01*
X018625Y005500D01*
X018390Y005735D01*
X018155Y005500D01*
X017625Y005500D01*
X017390Y005735D01*
X017155Y005500D01*
X016625Y005500D01*
X016390Y005735D01*
X016155Y005500D01*
X015625Y005500D01*
X015390Y005735D01*
X015155Y005500D01*
X014625Y005500D01*
X014390Y005735D01*
X014155Y005500D01*
X013625Y005500D01*
X013390Y005735D01*
X013155Y005500D01*
X012625Y005500D01*
X012390Y005735D01*
X012155Y005500D01*
X011625Y005500D01*
X011390Y005735D01*
X011155Y005500D01*
X010625Y005500D01*
X010250Y005875D01*
X010250Y006405D01*
X010485Y006640D01*
X010250Y006875D01*
X010250Y007405D01*
X010625Y007780D01*
X011155Y007780D01*
X011390Y007545D01*
X011625Y007780D01*
X011990Y007780D01*
X011990Y007853D02*
X004270Y007853D01*
X004270Y008011D02*
X011990Y008011D01*
X011990Y008170D02*
X004270Y008170D01*
X004270Y008328D02*
X011990Y008328D01*
X011990Y008487D02*
X004270Y008487D01*
X004270Y008645D02*
X011990Y008645D01*
X012025Y008804D02*
X004270Y008804D01*
X004270Y008962D02*
X012146Y008962D01*
X012305Y009121D02*
X004270Y009121D01*
X004270Y009279D02*
X012463Y009279D01*
X012622Y009438D02*
X004270Y009438D01*
X004270Y009596D02*
X012780Y009596D01*
X012939Y009755D02*
X004270Y009755D01*
X004270Y009913D02*
X013097Y009913D01*
X013256Y010072D02*
X004270Y010072D01*
X004270Y010230D02*
X013414Y010230D01*
X013573Y010389D02*
X004270Y010389D01*
X004270Y010547D02*
X013731Y010547D01*
X013890Y010706D02*
X004270Y010706D01*
X004270Y010864D02*
X014048Y010864D01*
X014207Y011023D02*
X004270Y011023D01*
X004270Y011181D02*
X014365Y011181D01*
X014524Y011340D02*
X004270Y011340D01*
X004270Y011498D02*
X014682Y011498D01*
X014841Y011657D02*
X004270Y011657D01*
X004270Y011815D02*
X014999Y011815D01*
X015158Y011974D02*
X004270Y011974D01*
X004270Y012132D02*
X015316Y012132D01*
X015814Y011498D02*
X022933Y011498D01*
X022915Y011657D02*
X015972Y011657D01*
X016131Y011815D02*
X022915Y011815D01*
X022915Y011974D02*
X016289Y011974D01*
X016265Y012515D02*
X012390Y008640D01*
X012390Y006640D01*
X011890Y006140D01*
X012289Y005634D02*
X012491Y005634D01*
X013289Y005634D02*
X013491Y005634D01*
X014289Y005634D02*
X014491Y005634D01*
X015289Y005634D02*
X015491Y005634D01*
X016289Y005634D02*
X016491Y005634D01*
X017289Y005634D02*
X017491Y005634D01*
X018289Y005634D02*
X018491Y005634D01*
X019289Y005634D02*
X019491Y005634D01*
X020289Y005634D02*
X020491Y005634D01*
X021289Y005634D02*
X021491Y005634D01*
X022289Y005634D02*
X022491Y005634D01*
X023289Y005634D02*
X023491Y005634D01*
X024289Y005634D02*
X024491Y005634D01*
X025289Y005634D02*
X025491Y005634D01*
X026289Y005634D02*
X026491Y005634D01*
X027289Y005634D02*
X027491Y005634D01*
X028289Y005634D02*
X028491Y005634D01*
X029289Y005634D02*
X029491Y005634D01*
X030289Y005634D02*
X030491Y005634D01*
X031289Y005634D02*
X031491Y005634D01*
X032289Y005634D02*
X032491Y005634D01*
X033289Y005634D02*
X033491Y005634D01*
X034289Y005634D02*
X035581Y005634D01*
X035422Y005792D02*
X034447Y005792D01*
X034530Y005951D02*
X035264Y005951D01*
X035105Y006109D02*
X034530Y006109D01*
X034530Y006268D02*
X035008Y006268D01*
X034990Y006426D02*
X034509Y006426D01*
X034351Y006585D02*
X034990Y006585D01*
X034990Y006743D02*
X034398Y006743D01*
X034530Y006902D02*
X034990Y006902D01*
X034990Y007060D02*
X034530Y007060D01*
X034530Y007219D02*
X034990Y007219D01*
X034837Y007377D02*
X034530Y007377D01*
X034400Y007536D02*
X034679Y007536D01*
X034520Y007694D02*
X034241Y007694D01*
X034362Y007853D02*
X029043Y007853D01*
X029241Y007694D02*
X029539Y007694D01*
X029515Y008011D02*
X029265Y008011D01*
X028890Y008265D02*
X028890Y008765D01*
X028890Y008265D02*
X028265Y007640D01*
X026390Y007640D01*
X025890Y007140D01*
X023515Y009279D02*
X023515Y009279D01*
X023515Y009438D02*
X023515Y009438D01*
X023515Y009596D02*
X023515Y009596D01*
X023515Y009755D02*
X023515Y009755D01*
X023515Y009913D02*
X023515Y009913D01*
X023515Y010072D02*
X023515Y010072D01*
X023515Y010230D02*
X023515Y010230D01*
X023131Y010230D02*
X014546Y010230D01*
X014704Y010389D02*
X034201Y010389D01*
X034042Y010547D02*
X014863Y010547D01*
X015021Y010706D02*
X033884Y010706D01*
X033725Y010864D02*
X015180Y010864D01*
X015338Y011023D02*
X024504Y011023D01*
X024366Y011181D02*
X023780Y011181D01*
X023938Y011340D02*
X024301Y011340D01*
X024290Y011498D02*
X024097Y011498D01*
X024115Y011657D02*
X024290Y011657D01*
X024290Y011815D02*
X024115Y011815D01*
X024115Y011974D02*
X024290Y011974D01*
X023250Y011181D02*
X015497Y011181D01*
X015655Y011340D02*
X023092Y011340D01*
X022973Y010072D02*
X014387Y010072D01*
X014229Y009913D02*
X022915Y009913D01*
X022915Y009755D02*
X014070Y009755D01*
X013912Y009596D02*
X022915Y009596D01*
X022994Y009438D02*
X013753Y009438D01*
X011539Y007694D02*
X011241Y007694D01*
X010539Y007694D02*
X008741Y007694D01*
X008655Y007780D02*
X008410Y007780D01*
X008410Y007160D01*
X009030Y007160D01*
X009030Y007405D01*
X008655Y007780D01*
X008410Y007694D02*
X008370Y007694D01*
X008370Y007780D02*
X008125Y007780D01*
X007890Y007545D01*
X007655Y007780D01*
X007410Y007780D01*
X007410Y007160D01*
X007370Y007160D01*
X007370Y007780D01*
X007125Y007780D01*
X006750Y007405D01*
X006750Y007160D01*
X007370Y007160D01*
X007370Y007120D01*
X006750Y007120D01*
X006750Y006875D01*
X006985Y006640D01*
X006750Y006405D01*
X006750Y006160D01*
X007370Y006160D01*
X007370Y007120D01*
X007410Y007120D01*
X007410Y007160D01*
X008370Y007160D01*
X008370Y007780D01*
X008370Y007536D02*
X008410Y007536D01*
X008410Y007377D02*
X008370Y007377D01*
X008370Y007219D02*
X008410Y007219D01*
X008410Y007160D02*
X008370Y007160D01*
X008370Y007120D01*
X008030Y007120D01*
X007410Y007120D01*
X007410Y006500D01*
X007410Y006160D01*
X007370Y006160D01*
X007370Y006120D01*
X007410Y006120D01*
X007410Y006160D01*
X008370Y006160D01*
X008370Y007120D01*
X008410Y007120D01*
X008410Y007160D01*
X008410Y007120D02*
X009030Y007120D01*
X009030Y006875D01*
X008795Y006640D01*
X009030Y006405D01*
X009030Y006160D01*
X008410Y006160D01*
X008410Y006120D01*
X009030Y006120D01*
X009030Y005875D01*
X008655Y005500D01*
X008410Y005500D01*
X008410Y006120D01*
X008370Y006120D01*
X008370Y005500D01*
X008125Y005500D01*
X007890Y005735D01*
X007655Y005500D01*
X007410Y005500D01*
X007410Y006120D01*
X008030Y006120D01*
X008370Y006120D01*
X008370Y006160D01*
X008410Y006160D01*
X008410Y006500D01*
X008410Y007120D01*
X008410Y007060D02*
X008370Y007060D01*
X008370Y006902D02*
X008410Y006902D01*
X008410Y006743D02*
X008370Y006743D01*
X008370Y006585D02*
X008410Y006585D01*
X008410Y006426D02*
X008370Y006426D01*
X008370Y006268D02*
X008410Y006268D01*
X008410Y006109D02*
X008370Y006109D01*
X008370Y005951D02*
X008410Y005951D01*
X008410Y005792D02*
X008370Y005792D01*
X008370Y005634D02*
X008410Y005634D01*
X008789Y005634D02*
X010491Y005634D01*
X010333Y005792D02*
X008947Y005792D01*
X009030Y005951D02*
X010250Y005951D01*
X010250Y006109D02*
X009030Y006109D01*
X009030Y006268D02*
X010250Y006268D01*
X010271Y006426D02*
X009009Y006426D01*
X008851Y006585D02*
X010429Y006585D01*
X010382Y006743D02*
X008898Y006743D01*
X009030Y006902D02*
X010250Y006902D01*
X010250Y007060D02*
X009030Y007060D01*
X009030Y007219D02*
X010250Y007219D01*
X010250Y007377D02*
X009030Y007377D01*
X008900Y007536D02*
X010380Y007536D01*
X008039Y007694D02*
X007741Y007694D01*
X007410Y007694D02*
X007370Y007694D01*
X007370Y007536D02*
X007410Y007536D01*
X007410Y007377D02*
X007370Y007377D01*
X007370Y007219D02*
X007410Y007219D01*
X007410Y007060D02*
X007370Y007060D01*
X007370Y006902D02*
X007410Y006902D01*
X007410Y006743D02*
X007370Y006743D01*
X007370Y006585D02*
X007410Y006585D01*
X007410Y006426D02*
X007370Y006426D01*
X007370Y006268D02*
X007410Y006268D01*
X007370Y006120D02*
X006750Y006120D01*
X006750Y005875D01*
X007125Y005500D01*
X007370Y005500D01*
X007370Y006120D01*
X007370Y006109D02*
X007410Y006109D01*
X007410Y005951D02*
X007370Y005951D01*
X007370Y005792D02*
X007410Y005792D01*
X007410Y005634D02*
X007370Y005634D01*
X006991Y005634D02*
X006062Y005634D01*
X006127Y005792D02*
X006833Y005792D01*
X006750Y005951D02*
X006193Y005951D01*
X006195Y006109D02*
X006750Y006109D01*
X006750Y006268D02*
X006195Y006268D01*
X006153Y006426D02*
X006771Y006426D01*
X006929Y006585D02*
X006088Y006585D01*
X005977Y006743D02*
X006882Y006743D01*
X006750Y006902D02*
X005819Y006902D01*
X005474Y007060D02*
X006750Y007060D01*
X006750Y007219D02*
X004270Y007219D01*
X004270Y007377D02*
X006750Y007377D01*
X006880Y007536D02*
X004270Y007536D01*
X004270Y007694D02*
X007039Y007694D01*
X005056Y007060D02*
X004270Y007060D01*
X004270Y006902D02*
X004711Y006902D01*
X004553Y006743D02*
X004270Y006743D01*
X004270Y006585D02*
X004442Y006585D01*
X004377Y006426D02*
X004270Y006426D01*
X004270Y006268D02*
X004335Y006268D01*
X004335Y006109D02*
X004270Y006109D01*
X004270Y005951D02*
X004337Y005951D01*
X004270Y005792D02*
X004403Y005792D01*
X004468Y005634D02*
X004270Y005634D01*
X004270Y005475D02*
X004615Y005475D01*
X004823Y005317D02*
X004270Y005317D01*
X004270Y004841D02*
X066502Y004841D01*
X066502Y004683D02*
X004270Y004683D01*
X004270Y004524D02*
X066502Y004524D01*
X066502Y004366D02*
X004270Y004366D01*
X007789Y005634D02*
X007991Y005634D01*
X011289Y005634D02*
X011491Y005634D01*
X009355Y013570D02*
X009355Y013570D01*
X008004Y014510D02*
X007772Y014510D01*
X004270Y017680D02*
X012597Y017680D01*
X012478Y017838D02*
X004270Y017838D01*
X004270Y017997D02*
X012415Y017997D01*
X012415Y018155D02*
X004270Y018155D01*
X004270Y018314D02*
X012415Y018314D01*
X012415Y018472D02*
X004270Y018472D01*
X004270Y018948D02*
X011359Y018948D01*
X011516Y018790D02*
X011765Y018790D01*
X012014Y018790D01*
X012365Y019141D01*
X012365Y019390D01*
X011765Y019390D01*
X011765Y019390D01*
X011765Y018790D01*
X011765Y019390D01*
X011765Y019390D01*
X011765Y019390D01*
X011165Y019390D01*
X011165Y019141D01*
X011516Y018790D01*
X011765Y018948D02*
X011765Y018948D01*
X011765Y019106D02*
X011765Y019106D01*
X011765Y019265D02*
X011765Y019265D01*
X012171Y018948D02*
X012481Y018948D01*
X012602Y019106D02*
X012330Y019106D01*
X012365Y019265D02*
X012882Y019265D01*
X013148Y019265D02*
X013882Y019265D01*
X014148Y019265D02*
X014882Y019265D01*
X015148Y019265D02*
X015700Y019265D01*
X015602Y019106D02*
X015428Y019106D01*
X015541Y019423D02*
X012365Y019423D01*
X011890Y019890D02*
X015640Y019890D01*
X016515Y019015D01*
X016515Y017890D01*
X016890Y017515D01*
X014602Y019106D02*
X014428Y019106D01*
X013602Y019106D02*
X013428Y019106D01*
X011890Y019890D02*
X004640Y027140D01*
X004640Y031515D01*
X005265Y032140D01*
X005765Y032140D01*
X006265Y032640D02*
X007765Y032640D01*
X011390Y036265D01*
X020890Y036265D01*
X021390Y035765D01*
X022890Y035765D01*
X023515Y035140D01*
X024265Y035140D01*
X024890Y035765D01*
X026765Y035765D01*
X027140Y035390D01*
X027140Y034890D01*
X028140Y034890D02*
X028140Y035390D01*
X027265Y036265D01*
X021390Y036265D01*
X021015Y036640D01*
X011140Y036640D01*
X007640Y033140D01*
X006765Y033140D01*
X006265Y032640D02*
X005765Y033140D01*
X007405Y032240D02*
X007845Y032240D01*
X007992Y032301D01*
X011290Y035599D01*
X011290Y035516D01*
X011641Y035165D01*
X011890Y035165D01*
X012139Y035165D01*
X012490Y035516D01*
X012490Y035765D01*
X012490Y035865D01*
X020724Y035865D01*
X020842Y035748D01*
X020675Y035679D01*
X020515Y035519D01*
X020355Y035679D01*
X020134Y035770D01*
X019896Y035770D01*
X019675Y035679D01*
X019515Y035519D01*
X019355Y035679D01*
X019134Y035770D01*
X018896Y035770D01*
X018675Y035679D01*
X018515Y035519D01*
X018355Y035679D01*
X018134Y035770D01*
X017896Y035770D01*
X017675Y035679D01*
X017515Y035519D01*
X017355Y035679D01*
X017134Y035770D01*
X016896Y035770D01*
X016675Y035679D01*
X016515Y035519D01*
X016355Y035679D01*
X016134Y035770D01*
X015896Y035770D01*
X015675Y035679D01*
X015515Y035519D01*
X015355Y035679D01*
X015134Y035770D01*
X014896Y035770D01*
X014675Y035679D01*
X014515Y035519D01*
X014355Y035679D01*
X014134Y035770D01*
X013896Y035770D01*
X013675Y035679D01*
X013515Y035519D01*
X013355Y035679D01*
X013134Y035770D01*
X012896Y035770D01*
X012675Y035679D01*
X012506Y035510D01*
X012415Y035289D01*
X012415Y034491D01*
X012506Y034270D01*
X012675Y034101D01*
X012896Y034010D01*
X013134Y034010D01*
X013355Y034101D01*
X013515Y034261D01*
X013675Y034101D01*
X013896Y034010D01*
X014134Y034010D01*
X014355Y034101D01*
X014515Y034261D01*
X014675Y034101D01*
X014896Y034010D01*
X015134Y034010D01*
X015355Y034101D01*
X015515Y034261D01*
X015675Y034101D01*
X015896Y034010D01*
X016134Y034010D01*
X016355Y034101D01*
X016515Y034261D01*
X016675Y034101D01*
X016896Y034010D01*
X017134Y034010D01*
X017355Y034101D01*
X017515Y034261D01*
X017675Y034101D01*
X017896Y034010D01*
X018134Y034010D01*
X018355Y034101D01*
X018515Y034261D01*
X018675Y034101D01*
X018782Y034057D01*
X019551Y033288D01*
X019663Y033176D01*
X019670Y033173D01*
X019515Y033019D01*
X019355Y033179D01*
X019134Y033270D01*
X018896Y033270D01*
X018675Y033179D01*
X018515Y033019D01*
X018355Y033179D01*
X018134Y033270D01*
X017896Y033270D01*
X017675Y033179D01*
X017515Y033019D01*
X017355Y033179D01*
X017134Y033270D01*
X016896Y033270D01*
X016675Y033179D01*
X016515Y033019D01*
X016355Y033179D01*
X016134Y033270D01*
X015896Y033270D01*
X015675Y033179D01*
X015515Y033019D01*
X015355Y033179D01*
X015134Y033270D01*
X014896Y033270D01*
X014675Y033179D01*
X014515Y033019D01*
X014355Y033179D01*
X014134Y033270D01*
X013896Y033270D01*
X013675Y033179D01*
X013515Y033019D01*
X013355Y033179D01*
X013134Y033270D01*
X012896Y033270D01*
X012675Y033179D01*
X012506Y033010D01*
X012448Y032870D01*
X012134Y032870D01*
X012014Y032990D01*
X011516Y032990D01*
X011165Y032639D01*
X011165Y032141D01*
X011516Y031790D01*
X012014Y031790D01*
X012134Y031910D01*
X012448Y031910D01*
X012506Y031770D01*
X012675Y031601D01*
X012896Y031510D01*
X013134Y031510D01*
X013355Y031601D01*
X013515Y031761D01*
X013675Y031601D01*
X013896Y031510D01*
X014134Y031510D01*
X014355Y031601D01*
X014515Y031761D01*
X014675Y031601D01*
X014896Y031510D01*
X015134Y031510D01*
X015355Y031601D01*
X015515Y031761D01*
X015675Y031601D01*
X015782Y031557D01*
X016426Y030913D01*
X016538Y030801D01*
X016685Y030740D01*
X023391Y030740D01*
X023290Y030639D01*
X023290Y030390D01*
X023890Y030390D01*
X024490Y030390D01*
X024490Y030639D01*
X024389Y030740D01*
X027470Y030740D01*
X027617Y030801D01*
X028140Y031324D01*
X028551Y030913D01*
X028663Y030801D01*
X028810Y030740D01*
X035516Y030740D01*
X035415Y030639D01*
X035415Y030390D01*
X036015Y030390D01*
X036615Y030390D01*
X036615Y030639D01*
X036514Y030740D01*
X039595Y030740D01*
X039742Y030801D01*
X039854Y030913D01*
X039854Y030913D01*
X040265Y031324D01*
X040676Y030913D01*
X040788Y030801D01*
X040935Y030740D01*
X047641Y030740D01*
X047540Y030639D01*
X047540Y030556D01*
X047492Y030604D01*
X047345Y030665D01*
X037560Y030665D01*
X037413Y030604D01*
X037301Y030492D01*
X037032Y030223D01*
X036925Y030179D01*
X036756Y030010D01*
X036665Y029790D01*
X035681Y029790D01*
X034867Y030604D01*
X034720Y030665D01*
X025435Y030665D01*
X025288Y030604D01*
X025176Y030492D01*
X024907Y030223D01*
X024800Y030179D01*
X024631Y030010D01*
X024540Y029790D01*
X023431Y029790D01*
X022617Y030604D01*
X022470Y030665D01*
X013310Y030665D01*
X013163Y030604D01*
X013051Y030492D01*
X012782Y030223D01*
X012675Y030179D01*
X012506Y030010D01*
X012415Y029789D01*
X012415Y028991D01*
X012446Y028915D01*
X012181Y028915D01*
X009617Y031479D01*
X009470Y031540D01*
X007270Y031540D01*
X007170Y031640D01*
X007405Y031875D01*
X007405Y032240D01*
X007405Y032103D02*
X009203Y032103D01*
X009165Y032141D02*
X009516Y031790D01*
X009765Y031790D01*
X010014Y031790D01*
X010365Y032141D01*
X010365Y032390D01*
X010365Y032639D01*
X010014Y032990D01*
X009765Y032990D01*
X009765Y032390D01*
X010365Y032390D01*
X009765Y032390D01*
X009765Y032390D01*
X009765Y032390D01*
X009765Y031790D01*
X009765Y032390D01*
X009765Y032390D01*
X009765Y032390D01*
X009165Y032390D01*
X009165Y032639D01*
X009516Y032990D01*
X009765Y032990D01*
X009765Y032390D01*
X009165Y032390D01*
X009165Y032141D01*
X009165Y032262D02*
X007897Y032262D01*
X008111Y032420D02*
X009165Y032420D01*
X009165Y032579D02*
X008269Y032579D01*
X008428Y032737D02*
X009264Y032737D01*
X009422Y032896D02*
X008586Y032896D01*
X008745Y033054D02*
X012551Y033054D01*
X012459Y032896D02*
X012108Y032896D01*
X011422Y032896D02*
X010108Y032896D01*
X010266Y032737D02*
X011264Y032737D01*
X011165Y032579D02*
X010365Y032579D01*
X010365Y032420D02*
X011165Y032420D01*
X011165Y032262D02*
X010365Y032262D01*
X010327Y032103D02*
X011203Y032103D01*
X011362Y031945D02*
X010168Y031945D01*
X009765Y031945D02*
X009765Y031945D01*
X009765Y032103D02*
X009765Y032103D01*
X009765Y032262D02*
X009765Y032262D01*
X009765Y032420D02*
X009765Y032420D01*
X009765Y032579D02*
X009765Y032579D01*
X009765Y032737D02*
X009765Y032737D01*
X009765Y032896D02*
X009765Y032896D01*
X009062Y033371D02*
X019468Y033371D01*
X019310Y033530D02*
X009220Y033530D01*
X009379Y033688D02*
X019151Y033688D01*
X018993Y033847D02*
X009537Y033847D01*
X009696Y034005D02*
X018834Y034005D01*
X018613Y034164D02*
X018417Y034164D01*
X019015Y034390D02*
X019015Y034890D01*
X019015Y034390D02*
X019890Y033515D01*
X030265Y033515D01*
X031140Y034390D01*
X031140Y034890D01*
X031140Y034390D02*
X031515Y034015D01*
X042890Y034015D01*
X043265Y034390D01*
X043640Y034015D01*
X055015Y034015D01*
X055390Y034390D01*
X055390Y034890D01*
X055890Y034261D02*
X056050Y034101D01*
X056271Y034010D01*
X056509Y034010D01*
X056730Y034101D01*
X056890Y034261D01*
X057050Y034101D01*
X057271Y034010D01*
X057509Y034010D01*
X057730Y034101D01*
X057897Y034268D01*
X057932Y034219D01*
X057999Y034152D01*
X058076Y034097D01*
X058160Y034054D01*
X058249Y034025D01*
X058343Y034010D01*
X058390Y034010D01*
X058437Y034010D01*
X058530Y034025D01*
X058620Y034054D01*
X058704Y034097D01*
X058740Y034123D01*
X058740Y033806D01*
X058390Y033456D01*
X058242Y033604D01*
X058095Y033665D01*
X055215Y033665D01*
X055242Y033676D01*
X055617Y034051D01*
X055623Y034057D01*
X055730Y034101D01*
X055890Y034261D01*
X055792Y034164D02*
X055988Y034164D01*
X055571Y034005D02*
X058740Y034005D01*
X058740Y033847D02*
X055412Y033847D01*
X055254Y033688D02*
X058622Y033688D01*
X058464Y033530D02*
X058316Y033530D01*
X058015Y033265D02*
X058390Y032890D01*
X059140Y033640D01*
X059140Y034765D01*
X060140Y035765D01*
X061640Y035765D01*
X063140Y037265D01*
X063390Y037265D01*
X063640Y037265D01*
X064015Y037265D01*
X064737Y036858D02*
X066502Y036858D01*
X066502Y036700D02*
X064709Y036700D01*
X064830Y036541D02*
X066502Y036541D01*
X066502Y036383D02*
X064895Y036383D01*
X064895Y036224D02*
X066502Y036224D01*
X066502Y036066D02*
X064862Y036066D01*
X064786Y035907D02*
X066502Y035907D01*
X066502Y035749D02*
X064660Y035749D01*
X064810Y035590D02*
X066502Y035590D01*
X066502Y035432D02*
X064875Y035432D01*
X064895Y035273D02*
X066502Y035273D01*
X066502Y035115D02*
X064882Y035115D01*
X064816Y034956D02*
X066502Y034956D01*
X066502Y034798D02*
X064676Y034798D01*
X064769Y034639D02*
X066502Y034639D01*
X066502Y034481D02*
X064855Y034481D01*
X064895Y034322D02*
X066502Y034322D01*
X066502Y034164D02*
X064895Y034164D01*
X064837Y034005D02*
X066502Y034005D01*
X066502Y033847D02*
X064725Y033847D01*
X064720Y033688D02*
X066502Y033688D01*
X066502Y033530D02*
X064835Y033530D01*
X064895Y033371D02*
X066502Y033371D01*
X066502Y033213D02*
X064895Y033213D01*
X064857Y033054D02*
X066502Y033054D01*
X066502Y032896D02*
X064774Y032896D01*
X064671Y032737D02*
X066502Y032737D01*
X066502Y032579D02*
X064815Y032579D01*
X064880Y032420D02*
X066502Y032420D01*
X066502Y032262D02*
X064895Y032262D01*
X064877Y032103D02*
X066502Y032103D01*
X066502Y031945D02*
X064812Y031945D01*
X064665Y031786D02*
X066502Y031786D01*
X066502Y031628D02*
X064781Y031628D01*
X064860Y031469D02*
X066502Y031469D01*
X066502Y031311D02*
X064895Y031311D01*
X064895Y031152D02*
X066502Y031152D01*
X066502Y030994D02*
X064832Y030994D01*
X064714Y030835D02*
X066502Y030835D01*
X066502Y030677D02*
X064442Y030677D01*
X063588Y030677D02*
X061442Y030677D01*
X061714Y030835D02*
X063316Y030835D01*
X063198Y030994D02*
X061832Y030994D01*
X061895Y031152D02*
X063135Y031152D01*
X063135Y031311D02*
X061895Y031311D01*
X061860Y031469D02*
X063170Y031469D01*
X063249Y031628D02*
X061781Y031628D01*
X061657Y031786D02*
X063365Y031786D01*
X064015Y032265D02*
X062515Y032265D01*
X061515Y033265D01*
X061015Y033265D01*
X060390Y033765D02*
X062515Y033765D01*
X063015Y034265D01*
X064015Y034265D01*
X061953Y032262D02*
X061895Y032262D01*
X061895Y032265D02*
X061015Y032265D01*
X061895Y032265D01*
X061873Y032103D02*
X062111Y032103D01*
X062270Y031945D02*
X061804Y031945D01*
X061015Y032265D02*
X061015Y032265D01*
X060015Y033390D02*
X060390Y033765D01*
X060015Y033390D02*
X060015Y030640D01*
X059640Y030265D01*
X055765Y030265D01*
X055390Y029890D01*
X055390Y029390D01*
X055390Y028890D01*
X055015Y028515D01*
X043640Y028515D01*
X043265Y028890D01*
X043265Y029390D01*
X043265Y028890D02*
X042890Y028515D01*
X031515Y028515D01*
X031140Y028890D01*
X031140Y029390D01*
X031140Y028890D02*
X030765Y028515D01*
X019390Y028515D01*
X019015Y028890D01*
X019015Y029390D01*
X018015Y029390D02*
X018015Y028765D01*
X017765Y028515D01*
X017140Y028515D01*
X016390Y027765D01*
X011765Y027765D01*
X009390Y030140D01*
X006765Y030140D01*
X007256Y029726D02*
X009239Y029726D01*
X009224Y029740D02*
X011495Y027469D01*
X011165Y027139D01*
X011165Y026641D01*
X011516Y026290D01*
X012014Y026290D01*
X012134Y026410D01*
X012448Y026410D01*
X012506Y026270D01*
X012675Y026101D01*
X012896Y026010D01*
X013134Y026010D01*
X013355Y026101D01*
X013515Y026261D01*
X013675Y026101D01*
X013896Y026010D01*
X014134Y026010D01*
X014355Y026101D01*
X014515Y026261D01*
X014675Y026101D01*
X014896Y026010D01*
X015134Y026010D01*
X015355Y026101D01*
X015515Y026261D01*
X015675Y026101D01*
X015896Y026010D01*
X016134Y026010D01*
X016355Y026101D01*
X016515Y026261D01*
X016675Y026101D01*
X016896Y026010D01*
X017134Y026010D01*
X017355Y026101D01*
X017515Y026261D01*
X017675Y026101D01*
X017896Y026010D01*
X018134Y026010D01*
X018355Y026101D01*
X018515Y026261D01*
X018675Y026101D01*
X018896Y026010D01*
X019134Y026010D01*
X019355Y026101D01*
X019515Y026261D01*
X019675Y026101D01*
X019896Y026010D01*
X020134Y026010D01*
X020355Y026101D01*
X020515Y026261D01*
X020675Y026101D01*
X020896Y026010D01*
X021134Y026010D01*
X021355Y026101D01*
X021515Y026261D01*
X021675Y026101D01*
X021782Y026057D01*
X022051Y025788D01*
X022163Y025676D01*
X022310Y025615D01*
X033845Y025615D01*
X033992Y025676D01*
X034140Y025824D01*
X034176Y025788D01*
X034288Y025676D01*
X034435Y025615D01*
X045970Y025615D01*
X046117Y025676D01*
X046265Y025824D01*
X046301Y025788D01*
X046413Y025676D01*
X046560Y025615D01*
X058095Y025615D01*
X058242Y025676D01*
X058617Y026051D01*
X058623Y026057D01*
X058730Y026101D01*
X058899Y026270D01*
X058990Y026491D01*
X058990Y027289D01*
X058899Y027510D01*
X058730Y027679D01*
X058582Y027740D01*
X059365Y027740D01*
X059365Y026556D01*
X058349Y025540D01*
X050060Y025540D01*
X049913Y025479D01*
X049801Y025367D01*
X049157Y024723D01*
X049050Y024679D01*
X048881Y024510D01*
X048790Y024290D01*
X048181Y024290D01*
X048181Y024290D01*
X048389Y024290D01*
X048740Y024641D01*
X048740Y024890D01*
X048740Y025139D01*
X048389Y025490D01*
X048140Y025490D01*
X048140Y024890D01*
X048140Y024890D01*
X048740Y024890D01*
X048140Y024890D01*
X048140Y024890D01*
X048140Y025490D01*
X047891Y025490D01*
X047540Y025139D01*
X047540Y024931D01*
X046992Y025479D01*
X046845Y025540D01*
X037935Y025540D01*
X037788Y025479D01*
X037676Y025367D01*
X037032Y024723D01*
X036925Y024679D01*
X036756Y024510D01*
X036665Y024290D01*
X036056Y024290D01*
X036056Y024290D01*
X036264Y024290D01*
X036615Y024641D01*
X036615Y024890D01*
X036615Y025139D01*
X036264Y025490D01*
X036015Y025490D01*
X036015Y024890D01*
X036015Y024890D01*
X036615Y024890D01*
X036015Y024890D01*
X036015Y024890D01*
X036015Y025490D01*
X035766Y025490D01*
X035415Y025139D01*
X035415Y024931D01*
X034867Y025479D01*
X034720Y025540D01*
X025810Y025540D01*
X025663Y025479D01*
X025551Y025367D01*
X024907Y024723D01*
X024800Y024679D01*
X024631Y024510D01*
X024540Y024290D01*
X023931Y024290D01*
X023931Y024290D01*
X024139Y024290D01*
X024490Y024641D01*
X024490Y024890D01*
X024490Y025139D01*
X024139Y025490D01*
X023890Y025490D01*
X023890Y024890D01*
X023890Y024890D01*
X024490Y024890D01*
X023890Y024890D01*
X023890Y024890D01*
X023890Y025490D01*
X023641Y025490D01*
X023290Y025139D01*
X023290Y024931D01*
X022742Y025479D01*
X022595Y025540D01*
X013685Y025540D01*
X013538Y025479D01*
X013426Y025367D01*
X012782Y024723D01*
X012675Y024679D01*
X012506Y024510D01*
X012415Y024289D01*
X012415Y023491D01*
X012498Y023290D01*
X010806Y023290D01*
X005415Y028681D01*
X005415Y029585D01*
X005500Y029500D01*
X006030Y029500D01*
X006265Y029735D01*
X006500Y029500D01*
X007030Y029500D01*
X007270Y029740D01*
X009224Y029740D01*
X009397Y029567D02*
X007097Y029567D01*
X006433Y029567D02*
X006097Y029567D01*
X006256Y029726D02*
X006274Y029726D01*
X005765Y030140D02*
X006265Y030640D01*
X009390Y030640D01*
X011890Y028140D01*
X016265Y028140D01*
X017015Y028890D01*
X017015Y029390D01*
X016015Y029390D02*
X016015Y028890D01*
X015640Y028515D01*
X012015Y028515D01*
X009390Y031140D01*
X006765Y031140D01*
X007183Y031628D02*
X012649Y031628D01*
X012500Y031786D02*
X007316Y031786D01*
X007405Y031945D02*
X009362Y031945D01*
X009627Y031469D02*
X015870Y031469D01*
X016029Y031311D02*
X009785Y031311D01*
X009944Y031152D02*
X016187Y031152D01*
X016346Y030994D02*
X010102Y030994D01*
X010261Y030835D02*
X016504Y030835D01*
X016765Y031140D02*
X027390Y031140D01*
X028140Y031890D01*
X028890Y031140D01*
X039515Y031140D01*
X040265Y031890D01*
X041015Y031140D01*
X051640Y031140D01*
X052390Y031890D01*
X053140Y031140D01*
X058640Y031140D01*
X059515Y032015D01*
X059515Y034640D01*
X060140Y035265D01*
X061015Y035265D01*
X060135Y036224D02*
X048654Y036224D01*
X048740Y036066D02*
X048750Y036066D01*
X049015Y035765D02*
X057015Y035765D01*
X057390Y035390D01*
X057390Y034890D01*
X057792Y034164D02*
X057988Y034164D01*
X058390Y034164D02*
X058390Y034164D01*
X058390Y034010D02*
X058390Y034890D01*
X058390Y034890D01*
X058390Y034010D01*
X058390Y034322D02*
X058390Y034322D01*
X058390Y034481D02*
X058390Y034481D01*
X058390Y034639D02*
X058390Y034639D01*
X058390Y034798D02*
X058390Y034798D01*
X058390Y034956D02*
X058390Y034956D01*
X058390Y035115D02*
X058390Y035115D01*
X058390Y035273D02*
X058390Y035273D01*
X058390Y035432D02*
X058390Y035432D01*
X058390Y035590D02*
X058390Y035590D01*
X058390Y035749D02*
X058390Y035749D01*
X058551Y035749D02*
X059558Y035749D01*
X059716Y035907D02*
X057439Y035907D01*
X057597Y035749D02*
X058229Y035749D01*
X057962Y035590D02*
X057818Y035590D01*
X057280Y036066D02*
X059875Y036066D01*
X060135Y036383D02*
X048496Y036383D01*
X048140Y036383D02*
X048140Y036383D01*
X048140Y036224D02*
X048140Y036224D01*
X048140Y036066D02*
X048140Y036066D01*
X048140Y035907D02*
X048140Y035907D01*
X047784Y036383D02*
X036371Y036383D01*
X036529Y036224D02*
X047626Y036224D01*
X047540Y036066D02*
X047530Y036066D01*
X047265Y035765D02*
X047765Y035265D01*
X048515Y035265D01*
X049015Y035765D01*
X048790Y034974D02*
X048790Y034491D01*
X048821Y034415D01*
X046833Y034415D01*
X046850Y034469D01*
X046865Y034563D01*
X046865Y034890D01*
X046865Y035217D01*
X046850Y035310D01*
X046833Y035365D01*
X047099Y035365D01*
X047426Y035038D01*
X047538Y034926D01*
X047685Y034865D01*
X048595Y034865D01*
X048742Y034926D01*
X048790Y034974D01*
X048790Y034956D02*
X048772Y034956D01*
X048790Y034798D02*
X046865Y034798D01*
X046865Y034890D02*
X046265Y034890D01*
X046865Y034890D01*
X046865Y034956D02*
X047508Y034956D01*
X047350Y035115D02*
X046865Y035115D01*
X046856Y035273D02*
X047191Y035273D01*
X047265Y035765D02*
X045765Y035765D01*
X045265Y035265D01*
X045265Y034890D01*
X045265Y035265D02*
X044765Y035765D01*
X036890Y035765D01*
X036390Y035265D01*
X035640Y035265D01*
X035140Y035765D01*
X033515Y035765D01*
X033140Y035390D01*
X033140Y034890D01*
X033140Y035390D02*
X032765Y035765D01*
X031015Y035765D01*
X030640Y035390D01*
X030640Y034390D01*
X030140Y033890D01*
X021515Y033890D01*
X021015Y034390D01*
X021015Y034890D01*
X020587Y035590D02*
X020443Y035590D01*
X020186Y035749D02*
X020841Y035749D01*
X019844Y035749D02*
X019186Y035749D01*
X019443Y035590D02*
X019587Y035590D01*
X018844Y035749D02*
X018186Y035749D01*
X018443Y035590D02*
X018587Y035590D01*
X017844Y035749D02*
X017186Y035749D01*
X017443Y035590D02*
X017587Y035590D01*
X016844Y035749D02*
X016186Y035749D01*
X016443Y035590D02*
X016587Y035590D01*
X015844Y035749D02*
X015186Y035749D01*
X015443Y035590D02*
X015587Y035590D01*
X014844Y035749D02*
X014186Y035749D01*
X014443Y035590D02*
X014587Y035590D01*
X013844Y035749D02*
X013186Y035749D01*
X013443Y035590D02*
X013587Y035590D01*
X012844Y035749D02*
X012490Y035749D01*
X012490Y035765D02*
X011890Y035765D01*
X012490Y035765D01*
X012490Y035590D02*
X012587Y035590D01*
X012474Y035432D02*
X012405Y035432D01*
X012415Y035273D02*
X012247Y035273D01*
X012415Y035115D02*
X010805Y035115D01*
X010964Y035273D02*
X011533Y035273D01*
X011375Y035432D02*
X011122Y035432D01*
X011281Y035590D02*
X011290Y035590D01*
X011890Y035590D02*
X011890Y035590D01*
X011890Y035432D02*
X011890Y035432D01*
X011890Y035273D02*
X011890Y035273D01*
X011890Y035165D02*
X011890Y035765D01*
X011890Y035765D01*
X011890Y035765D01*
X011890Y035165D01*
X012415Y034956D02*
X010647Y034956D01*
X010488Y034798D02*
X012415Y034798D01*
X012415Y034639D02*
X010330Y034639D01*
X010171Y034481D02*
X012419Y034481D01*
X012485Y034322D02*
X010013Y034322D01*
X009854Y034164D02*
X012613Y034164D01*
X013417Y034164D02*
X013613Y034164D01*
X014417Y034164D02*
X014613Y034164D01*
X015417Y034164D02*
X015613Y034164D01*
X016417Y034164D02*
X016613Y034164D01*
X017417Y034164D02*
X017613Y034164D01*
X017757Y033213D02*
X017273Y033213D01*
X017479Y033054D02*
X017551Y033054D01*
X018273Y033213D02*
X018757Y033213D01*
X018551Y033054D02*
X018479Y033054D01*
X019273Y033213D02*
X019627Y033213D01*
X019551Y033054D02*
X019479Y033054D01*
X021015Y032390D02*
X021015Y031890D01*
X021390Y031515D01*
X025765Y031515D01*
X026140Y031890D01*
X026140Y032390D01*
X028140Y032390D02*
X028140Y031890D01*
X028126Y031311D02*
X028154Y031311D01*
X028312Y031152D02*
X027968Y031152D01*
X027809Y030994D02*
X028471Y030994D01*
X028629Y030835D02*
X027651Y030835D01*
X025515Y030265D02*
X025140Y029890D01*
X025140Y029390D01*
X023265Y029390D01*
X022390Y030265D01*
X013390Y030265D01*
X013015Y029890D01*
X013015Y029390D01*
X012415Y029409D02*
X011687Y029409D01*
X011529Y029567D02*
X012415Y029567D01*
X012415Y029726D02*
X011370Y029726D01*
X011212Y029884D02*
X012454Y029884D01*
X012539Y030043D02*
X011053Y030043D01*
X010895Y030201D02*
X012729Y030201D01*
X012919Y030360D02*
X010736Y030360D01*
X010578Y030518D02*
X013077Y030518D01*
X012415Y029250D02*
X011846Y029250D01*
X012004Y029092D02*
X012415Y029092D01*
X012439Y028933D02*
X012163Y028933D01*
X011141Y027824D02*
X006272Y027824D01*
X006114Y027982D02*
X010982Y027982D01*
X010824Y028141D02*
X005955Y028141D01*
X005797Y028299D02*
X010665Y028299D01*
X010507Y028458D02*
X005638Y028458D01*
X005480Y028616D02*
X010348Y028616D01*
X010190Y028775D02*
X005415Y028775D01*
X005415Y028933D02*
X010031Y028933D01*
X009873Y029092D02*
X005415Y029092D01*
X005415Y029250D02*
X009714Y029250D01*
X009556Y029409D02*
X005415Y029409D01*
X005415Y029567D02*
X005433Y029567D01*
X005015Y028515D02*
X010640Y022890D01*
X013140Y022890D01*
X013515Y023265D01*
X013515Y024390D01*
X013890Y024765D01*
X014640Y024765D01*
X015015Y024390D01*
X015015Y023890D01*
X014015Y023890D02*
X014015Y023265D01*
X014640Y022640D01*
X025390Y022640D01*
X026140Y023390D01*
X026890Y022640D01*
X037515Y022640D01*
X038265Y023390D01*
X039015Y022640D01*
X049765Y022640D01*
X050390Y023265D01*
X050390Y023890D01*
X049890Y023390D02*
X049890Y024390D01*
X050265Y024765D01*
X055015Y024765D01*
X055390Y024390D01*
X058015Y026015D02*
X058390Y026390D01*
X058390Y026890D01*
X058990Y026873D02*
X059365Y026873D01*
X059365Y027031D02*
X058990Y027031D01*
X058990Y027190D02*
X059365Y027190D01*
X059365Y027348D02*
X058966Y027348D01*
X058900Y027507D02*
X059365Y027507D01*
X059365Y027665D02*
X058743Y027665D01*
X058990Y026714D02*
X059365Y026714D01*
X059365Y026556D02*
X058990Y026556D01*
X058951Y026397D02*
X059206Y026397D01*
X059048Y026239D02*
X058867Y026239D01*
X058889Y026080D02*
X058678Y026080D01*
X058731Y025922D02*
X058487Y025922D01*
X058572Y025763D02*
X058329Y025763D01*
X058414Y025605D02*
X008491Y025605D01*
X008333Y025763D02*
X022076Y025763D01*
X021918Y025922D02*
X008174Y025922D01*
X008016Y026080D02*
X012727Y026080D01*
X012538Y026239D02*
X007857Y026239D01*
X007699Y026397D02*
X011409Y026397D01*
X011251Y026556D02*
X007540Y026556D01*
X007382Y026714D02*
X011165Y026714D01*
X011165Y026873D02*
X007223Y026873D01*
X007065Y027031D02*
X011165Y027031D01*
X011216Y027190D02*
X006906Y027190D01*
X006748Y027348D02*
X011375Y027348D01*
X011458Y027507D02*
X006589Y027507D01*
X006431Y027665D02*
X011299Y027665D01*
X012121Y026397D02*
X012454Y026397D01*
X013303Y026080D02*
X013727Y026080D01*
X013538Y026239D02*
X013492Y026239D01*
X014303Y026080D02*
X014727Y026080D01*
X014538Y026239D02*
X014492Y026239D01*
X015303Y026080D02*
X015727Y026080D01*
X015538Y026239D02*
X015492Y026239D01*
X016303Y026080D02*
X016727Y026080D01*
X016538Y026239D02*
X016492Y026239D01*
X017303Y026080D02*
X017727Y026080D01*
X017538Y026239D02*
X017492Y026239D01*
X018303Y026080D02*
X018727Y026080D01*
X018538Y026239D02*
X018492Y026239D01*
X019303Y026080D02*
X019727Y026080D01*
X019538Y026239D02*
X019492Y026239D01*
X020303Y026080D02*
X020727Y026080D01*
X020538Y026239D02*
X020492Y026239D01*
X021303Y026080D02*
X021727Y026080D01*
X021538Y026239D02*
X021492Y026239D01*
X022015Y026390D02*
X022390Y026015D01*
X033765Y026015D01*
X034140Y026390D01*
X034515Y026015D01*
X045890Y026015D01*
X046265Y026390D01*
X046640Y026015D01*
X058015Y026015D01*
X058515Y025140D02*
X059765Y026390D01*
X059765Y027765D01*
X060265Y028265D01*
X061015Y028265D01*
X061390Y028890D02*
X061890Y028390D01*
X061890Y025640D01*
X061515Y025265D01*
X061015Y025265D01*
X058515Y025140D02*
X050140Y025140D01*
X049390Y024390D01*
X049390Y023890D01*
X048015Y023890D01*
X046765Y025140D01*
X038015Y025140D01*
X037265Y024390D01*
X037265Y023890D01*
X035890Y023890D01*
X034640Y025140D01*
X025890Y025140D01*
X025140Y024390D01*
X025140Y023890D01*
X023765Y023890D01*
X022515Y025140D01*
X013765Y025140D01*
X013015Y024390D01*
X013015Y023890D01*
X012415Y023861D02*
X010235Y023861D01*
X010393Y023703D02*
X012415Y023703D01*
X012415Y023544D02*
X010552Y023544D01*
X010710Y023386D02*
X012459Y023386D01*
X012415Y024020D02*
X010076Y024020D01*
X009918Y024178D02*
X012415Y024178D01*
X012435Y024337D02*
X012060Y024337D01*
X012014Y024290D02*
X012365Y024641D01*
X012365Y024890D01*
X012365Y025139D01*
X012014Y025490D01*
X011765Y025490D01*
X011765Y024890D01*
X011765Y024890D01*
X012365Y024890D01*
X011765Y024890D01*
X011765Y024890D01*
X011765Y024890D01*
X011165Y024890D01*
X011165Y025139D01*
X011516Y025490D01*
X011765Y025490D01*
X011765Y024890D01*
X011765Y024290D01*
X012014Y024290D01*
X011765Y024290D02*
X011765Y024890D01*
X011765Y024890D01*
X011165Y024890D01*
X011165Y024641D01*
X011516Y024290D01*
X011765Y024290D01*
X011765Y024337D02*
X011765Y024337D01*
X011765Y024495D02*
X011765Y024495D01*
X011765Y024654D02*
X011765Y024654D01*
X011765Y024812D02*
X011765Y024812D01*
X011765Y024971D02*
X011765Y024971D01*
X011765Y025129D02*
X011765Y025129D01*
X011765Y025288D02*
X011765Y025288D01*
X011765Y025446D02*
X011765Y025446D01*
X012057Y025446D02*
X013505Y025446D01*
X013347Y025288D02*
X012216Y025288D01*
X012365Y025129D02*
X013188Y025129D01*
X013030Y024971D02*
X012365Y024971D01*
X012365Y024812D02*
X012871Y024812D01*
X012650Y024654D02*
X012365Y024654D01*
X012500Y024495D02*
X012219Y024495D01*
X011470Y024337D02*
X009759Y024337D01*
X009601Y024495D02*
X011311Y024495D01*
X011165Y024654D02*
X009442Y024654D01*
X009284Y024812D02*
X011165Y024812D01*
X011165Y024971D02*
X009125Y024971D01*
X008967Y025129D02*
X011165Y025129D01*
X011314Y025288D02*
X008808Y025288D01*
X008650Y025446D02*
X011473Y025446D01*
X008463Y022752D02*
X004270Y022752D01*
X004270Y022910D02*
X008304Y022910D01*
X008146Y023069D02*
X004270Y023069D01*
X004270Y023227D02*
X007987Y023227D01*
X007829Y023386D02*
X004270Y023386D01*
X004270Y023544D02*
X007670Y023544D01*
X007512Y023703D02*
X004270Y023703D01*
X004270Y023861D02*
X007353Y023861D01*
X007195Y024020D02*
X004270Y024020D01*
X004270Y024178D02*
X007036Y024178D01*
X006878Y024337D02*
X004270Y024337D01*
X004270Y024495D02*
X006719Y024495D01*
X006561Y024654D02*
X004270Y024654D01*
X004270Y024812D02*
X006402Y024812D01*
X006244Y024971D02*
X004270Y024971D01*
X004270Y025129D02*
X006085Y025129D01*
X005927Y025288D02*
X004270Y025288D01*
X004270Y025446D02*
X005768Y025446D01*
X005610Y025605D02*
X004270Y025605D01*
X004270Y025763D02*
X005451Y025763D01*
X005293Y025922D02*
X004270Y025922D01*
X004270Y026080D02*
X005134Y026080D01*
X004976Y026239D02*
X004270Y026239D01*
X004270Y026397D02*
X004817Y026397D01*
X004659Y026556D02*
X004270Y026556D01*
X004270Y026714D02*
X004500Y026714D01*
X004342Y026873D02*
X004270Y026873D01*
X005015Y028515D02*
X005015Y030890D01*
X005265Y031140D01*
X005765Y031140D01*
X008903Y033213D02*
X012757Y033213D01*
X013273Y033213D02*
X013757Y033213D01*
X013551Y033054D02*
X013479Y033054D01*
X014273Y033213D02*
X014757Y033213D01*
X014551Y033054D02*
X014479Y033054D01*
X015273Y033213D02*
X015757Y033213D01*
X015551Y033054D02*
X015479Y033054D01*
X016273Y033213D02*
X016757Y033213D01*
X016551Y033054D02*
X016479Y033054D01*
X016015Y032390D02*
X016015Y031890D01*
X016765Y031140D01*
X015649Y031628D02*
X015381Y031628D01*
X014649Y031628D02*
X014381Y031628D01*
X013649Y031628D02*
X013381Y031628D01*
X010419Y030677D02*
X023328Y030677D01*
X023290Y030518D02*
X022703Y030518D01*
X022861Y030360D02*
X023290Y030360D01*
X023290Y030390D02*
X023290Y030141D01*
X023641Y029790D01*
X023890Y029790D01*
X024139Y029790D01*
X024490Y030141D01*
X024490Y030390D01*
X023890Y030390D01*
X023890Y030390D01*
X023890Y029790D01*
X023890Y030390D01*
X023890Y030390D01*
X023890Y030390D01*
X023290Y030390D01*
X023290Y030201D02*
X023020Y030201D01*
X023178Y030043D02*
X023389Y030043D01*
X023337Y029884D02*
X023547Y029884D01*
X023890Y029884D02*
X023890Y029884D01*
X023890Y030043D02*
X023890Y030043D01*
X023890Y030201D02*
X023890Y030201D01*
X023890Y030360D02*
X023890Y030360D01*
X024233Y029884D02*
X024579Y029884D01*
X024664Y030043D02*
X024391Y030043D01*
X024490Y030201D02*
X024854Y030201D01*
X025044Y030360D02*
X024490Y030360D01*
X024490Y030518D02*
X025202Y030518D01*
X025515Y030265D02*
X034640Y030265D01*
X035515Y029390D01*
X037265Y029390D01*
X037265Y029890D01*
X037640Y030265D01*
X047265Y030265D01*
X048140Y029390D01*
X049390Y029390D01*
X049390Y029890D01*
X050265Y030765D01*
X059265Y030765D01*
X060142Y030201D02*
X060478Y030201D01*
X060415Y030043D02*
X059983Y030043D01*
X059766Y029884D02*
X060415Y029884D01*
X060415Y029726D02*
X059611Y029726D01*
X059265Y029265D02*
X061515Y029265D01*
X063515Y027265D01*
X064015Y027265D01*
X063515Y027765D02*
X063140Y028140D01*
X063140Y029140D01*
X063615Y029726D02*
X066502Y029726D01*
X066502Y029884D02*
X063615Y029884D01*
X063615Y030043D02*
X066502Y030043D01*
X066502Y030201D02*
X063552Y030201D01*
X063394Y030360D02*
X066502Y030360D01*
X066502Y030518D02*
X060397Y030518D01*
X060415Y030677D02*
X060588Y030677D01*
X060636Y030360D02*
X060300Y030360D01*
X061886Y030360D02*
X062636Y030360D01*
X062478Y030201D02*
X062133Y030201D01*
X062291Y030043D02*
X062415Y030043D01*
X063015Y030043D02*
X063015Y030043D01*
X063015Y030201D02*
X063015Y030201D01*
X063015Y030360D02*
X063015Y030360D01*
X061390Y028890D02*
X060390Y028890D01*
X059640Y028140D01*
X053140Y028140D01*
X052390Y027390D01*
X052390Y026890D01*
X052390Y027390D02*
X051640Y028140D01*
X040890Y028140D01*
X040265Y027515D01*
X040265Y026890D01*
X040265Y027515D02*
X039640Y028140D01*
X028890Y028140D01*
X028140Y027390D01*
X028140Y026890D01*
X028140Y027390D02*
X027390Y028140D01*
X017265Y028140D01*
X016015Y026890D01*
X018015Y028890D02*
X018015Y029390D01*
X021015Y027390D02*
X021390Y027765D01*
X025765Y027765D01*
X026140Y027390D01*
X026140Y026890D01*
X025630Y025446D02*
X024182Y025446D01*
X024341Y025288D02*
X025472Y025288D01*
X025313Y025129D02*
X024490Y025129D01*
X024490Y024971D02*
X025155Y024971D01*
X024996Y024812D02*
X024490Y024812D01*
X024490Y024654D02*
X024775Y024654D01*
X024625Y024495D02*
X024344Y024495D01*
X024185Y024337D02*
X024560Y024337D01*
X023890Y024971D02*
X023890Y024971D01*
X023890Y025129D02*
X023890Y025129D01*
X023890Y025288D02*
X023890Y025288D01*
X023890Y025446D02*
X023890Y025446D01*
X023598Y025446D02*
X022775Y025446D01*
X022933Y025288D02*
X023439Y025288D01*
X023290Y025129D02*
X023092Y025129D01*
X023250Y024971D02*
X023290Y024971D01*
X022753Y024337D02*
X022592Y024337D01*
X022600Y024310D02*
X022571Y024400D01*
X022528Y024484D01*
X022473Y024561D01*
X022406Y024628D01*
X022329Y024683D01*
X022245Y024726D01*
X022202Y024740D01*
X022349Y024740D01*
X023538Y023551D01*
X023685Y023490D01*
X023845Y023490D01*
X024540Y023490D01*
X024571Y023415D01*
X022583Y023415D01*
X022600Y023469D01*
X022615Y023563D01*
X022615Y023890D01*
X022615Y024217D01*
X022600Y024310D01*
X022615Y024178D02*
X022911Y024178D01*
X023070Y024020D02*
X022615Y024020D01*
X022615Y023890D02*
X022015Y023890D01*
X022015Y023890D01*
X022615Y023890D01*
X022615Y023861D02*
X023228Y023861D01*
X023387Y023703D02*
X022615Y023703D01*
X022612Y023544D02*
X023555Y023544D01*
X022594Y024495D02*
X022520Y024495D01*
X022436Y024654D02*
X022370Y024654D01*
X022015Y026390D02*
X022015Y026890D01*
X021015Y026890D02*
X021015Y027390D01*
X022583Y028915D02*
X022600Y028969D01*
X022615Y029063D01*
X022615Y029390D01*
X022615Y029474D01*
X022926Y029163D01*
X023038Y029051D01*
X023185Y028990D01*
X024540Y028990D01*
X024571Y028915D01*
X022583Y028915D01*
X022588Y028933D02*
X024564Y028933D01*
X022998Y029092D02*
X022615Y029092D01*
X022615Y029250D02*
X022839Y029250D01*
X022681Y029409D02*
X022615Y029409D01*
X022615Y029390D02*
X022015Y029390D01*
X022015Y029390D01*
X022615Y029390D01*
X024452Y030677D02*
X035453Y030677D01*
X035415Y030518D02*
X034953Y030518D01*
X035111Y030360D02*
X035415Y030360D01*
X035415Y030390D02*
X035415Y030141D01*
X035766Y029790D01*
X036015Y029790D01*
X036264Y029790D01*
X036615Y030141D01*
X036615Y030390D01*
X036015Y030390D01*
X036015Y030390D01*
X036015Y030390D01*
X036015Y029790D01*
X036015Y030390D01*
X036015Y030390D01*
X035415Y030390D01*
X035415Y030201D02*
X035270Y030201D01*
X035428Y030043D02*
X035514Y030043D01*
X035587Y029884D02*
X035672Y029884D01*
X036015Y029884D02*
X036015Y029884D01*
X036015Y030043D02*
X036015Y030043D01*
X036015Y030201D02*
X036015Y030201D01*
X036015Y030360D02*
X036015Y030360D01*
X036358Y029884D02*
X036704Y029884D01*
X036789Y030043D02*
X036516Y030043D01*
X036615Y030201D02*
X036979Y030201D01*
X037169Y030360D02*
X036615Y030360D01*
X036615Y030518D02*
X037327Y030518D01*
X036577Y030677D02*
X047578Y030677D01*
X048140Y030390D02*
X048740Y030390D01*
X048740Y030639D01*
X048639Y030740D01*
X049674Y030740D01*
X049157Y030223D01*
X049050Y030179D01*
X048881Y030010D01*
X048790Y029790D01*
X048306Y029790D01*
X048306Y029790D01*
X048389Y029790D01*
X048740Y030141D01*
X048740Y030390D01*
X048140Y030390D01*
X048140Y030390D01*
X048740Y030360D02*
X049294Y030360D01*
X049452Y030518D02*
X048740Y030518D01*
X048702Y030677D02*
X049611Y030677D01*
X049104Y030201D02*
X048740Y030201D01*
X048641Y030043D02*
X048914Y030043D01*
X048829Y029884D02*
X048483Y029884D01*
X047714Y029250D02*
X046865Y029250D01*
X046865Y029390D02*
X046265Y029390D01*
X046865Y029390D01*
X046865Y029717D01*
X046850Y029810D01*
X046833Y029865D01*
X047099Y029865D01*
X047801Y029163D01*
X047913Y029051D01*
X048060Y028990D01*
X048790Y028990D01*
X048821Y028915D01*
X046833Y028915D01*
X046850Y028969D01*
X046865Y029063D01*
X046865Y029390D01*
X046865Y029409D02*
X047556Y029409D01*
X047397Y029567D02*
X046865Y029567D01*
X046864Y029726D02*
X047239Y029726D01*
X046265Y029390D02*
X046265Y029390D01*
X046865Y029092D02*
X047873Y029092D01*
X048814Y028933D02*
X046838Y028933D01*
X045640Y027765D02*
X045265Y027390D01*
X045265Y026890D01*
X045640Y027765D02*
X050015Y027765D01*
X050390Y027390D01*
X050390Y026890D01*
X049880Y025446D02*
X048432Y025446D01*
X048591Y025288D02*
X049722Y025288D01*
X049563Y025129D02*
X048740Y025129D01*
X048740Y024971D02*
X049405Y024971D01*
X049246Y024812D02*
X048740Y024812D01*
X048740Y024654D02*
X049025Y024654D01*
X048875Y024495D02*
X048594Y024495D01*
X048435Y024337D02*
X048810Y024337D01*
X048140Y024971D02*
X048140Y024971D01*
X048140Y025129D02*
X048140Y025129D01*
X048140Y025288D02*
X048140Y025288D01*
X048140Y025446D02*
X048140Y025446D01*
X047848Y025446D02*
X047025Y025446D01*
X047183Y025288D02*
X047689Y025288D01*
X047540Y025129D02*
X047342Y025129D01*
X047500Y024971D02*
X047540Y024971D01*
X047003Y024337D02*
X046842Y024337D01*
X046850Y024310D02*
X046821Y024400D01*
X046778Y024484D01*
X046723Y024561D01*
X046656Y024628D01*
X046579Y024683D01*
X046495Y024726D01*
X046452Y024740D01*
X046599Y024740D01*
X047676Y023663D01*
X047788Y023551D01*
X047935Y023490D01*
X048790Y023490D01*
X048821Y023415D01*
X046833Y023415D01*
X046850Y023469D01*
X046865Y023563D01*
X046865Y023890D01*
X046865Y024217D01*
X046850Y024310D01*
X046865Y024178D02*
X047161Y024178D01*
X047320Y024020D02*
X046865Y024020D01*
X046865Y023890D02*
X046265Y023890D01*
X046265Y023890D01*
X046865Y023890D01*
X046865Y023861D02*
X047478Y023861D01*
X047637Y023703D02*
X046865Y023703D01*
X046862Y023544D02*
X047805Y023544D01*
X046844Y024495D02*
X046770Y024495D01*
X046686Y024654D02*
X046620Y024654D01*
X046326Y025763D02*
X046204Y025763D01*
X046265Y026390D02*
X046265Y026890D01*
X043265Y024390D02*
X042890Y024765D01*
X038140Y024765D01*
X037765Y024390D01*
X037765Y023390D01*
X037390Y023015D01*
X031515Y023015D01*
X031140Y023390D01*
X031140Y023890D01*
X031140Y024390D01*
X030765Y024765D01*
X026015Y024765D01*
X025640Y024390D01*
X025640Y023390D01*
X025265Y023015D01*
X019390Y023015D01*
X019015Y023390D01*
X019015Y023890D01*
X021015Y021390D02*
X021015Y020890D01*
X021265Y020640D01*
X025890Y020640D01*
X026140Y020890D01*
X026140Y021390D01*
X027515Y020265D02*
X016640Y020265D01*
X016015Y020890D01*
X016015Y021390D01*
X011316Y019899D02*
X004270Y019899D01*
X004270Y020057D02*
X011157Y020057D01*
X010999Y020216D02*
X004270Y020216D01*
X004270Y020374D02*
X010840Y020374D01*
X010682Y020533D02*
X004270Y020533D01*
X004270Y020691D02*
X010523Y020691D01*
X010365Y020850D02*
X004270Y020850D01*
X004270Y021008D02*
X010206Y021008D01*
X010048Y021167D02*
X004270Y021167D01*
X004270Y021325D02*
X009889Y021325D01*
X009731Y021484D02*
X004270Y021484D01*
X004270Y021642D02*
X009572Y021642D01*
X009414Y021801D02*
X004270Y021801D01*
X004270Y021959D02*
X009255Y021959D01*
X009097Y022118D02*
X004270Y022118D01*
X004270Y022276D02*
X008938Y022276D01*
X008780Y022435D02*
X004270Y022435D01*
X004270Y022593D02*
X008621Y022593D01*
X011266Y019740D02*
X004270Y019740D01*
X004270Y019582D02*
X011165Y019582D01*
X011165Y019423D02*
X004270Y019423D01*
X004270Y019265D02*
X011165Y019265D01*
X011200Y019106D02*
X004270Y019106D01*
X022015Y021390D02*
X022015Y021890D01*
X022390Y022265D01*
X033765Y022265D01*
X034140Y021890D01*
X034140Y021390D01*
X033140Y021390D02*
X033140Y020890D01*
X033390Y020640D01*
X038015Y020640D01*
X038265Y020890D01*
X038265Y021390D01*
X040265Y021390D02*
X040265Y020890D01*
X042099Y019490D02*
X042319Y019270D01*
X042146Y019270D01*
X041925Y019179D01*
X041765Y019019D01*
X041605Y019179D01*
X041384Y019270D01*
X041146Y019270D01*
X040925Y019179D01*
X040765Y019019D01*
X040605Y019179D01*
X040384Y019270D01*
X040146Y019270D01*
X039925Y019179D01*
X039765Y019019D01*
X039605Y019179D01*
X039384Y019270D01*
X039146Y019270D01*
X038925Y019179D01*
X038765Y019019D01*
X038605Y019179D01*
X038384Y019270D01*
X038146Y019270D01*
X037925Y019179D01*
X037765Y019019D01*
X037605Y019179D01*
X037384Y019270D01*
X037146Y019270D01*
X036925Y019179D01*
X036756Y019010D01*
X036665Y018789D01*
X034729Y018789D01*
X034725Y018810D02*
X034696Y018900D01*
X034653Y018984D01*
X034598Y019061D01*
X034531Y019128D01*
X034454Y019183D01*
X034370Y019226D01*
X034280Y019255D01*
X034187Y019270D01*
X034140Y019270D01*
X034140Y018390D01*
X034140Y018390D01*
X034740Y018390D01*
X034740Y018717D01*
X034725Y018810D01*
X034672Y018948D02*
X035609Y018948D01*
X035766Y018790D02*
X036015Y018790D01*
X036264Y018790D01*
X036615Y019141D01*
X036615Y019390D01*
X036615Y019490D01*
X042099Y019490D01*
X042166Y019423D02*
X036615Y019423D01*
X036615Y019390D02*
X036015Y019390D01*
X036015Y019390D01*
X036615Y019390D01*
X036615Y019265D02*
X037132Y019265D01*
X037398Y019265D02*
X038132Y019265D01*
X038398Y019265D02*
X039132Y019265D01*
X039398Y019265D02*
X040132Y019265D01*
X040398Y019265D02*
X041132Y019265D01*
X041398Y019265D02*
X042132Y019265D01*
X041852Y019106D02*
X041678Y019106D01*
X040852Y019106D02*
X040678Y019106D01*
X039852Y019106D02*
X039678Y019106D01*
X038852Y019106D02*
X038678Y019106D01*
X037852Y019106D02*
X037678Y019106D01*
X036852Y019106D02*
X036580Y019106D01*
X036731Y018948D02*
X036421Y018948D01*
X036665Y018789D02*
X036665Y017991D01*
X036696Y017915D01*
X034708Y017915D01*
X034725Y017969D01*
X034740Y018063D01*
X034740Y018390D01*
X034140Y018390D01*
X034140Y018390D01*
X034140Y019270D01*
X034093Y019270D01*
X033999Y019255D01*
X033910Y019226D01*
X033826Y019183D01*
X033749Y019128D01*
X033682Y019061D01*
X033647Y019012D01*
X033480Y019179D01*
X033259Y019270D01*
X033021Y019270D01*
X032800Y019179D01*
X032640Y019019D01*
X032480Y019179D01*
X032259Y019270D01*
X032086Y019270D01*
X032306Y019490D01*
X035415Y019490D01*
X035415Y019390D01*
X036015Y019390D01*
X036015Y018790D01*
X036015Y019390D01*
X036015Y019390D01*
X036015Y019390D01*
X035415Y019390D01*
X035415Y019141D01*
X035766Y018790D01*
X036015Y018948D02*
X036015Y018948D01*
X036015Y019106D02*
X036015Y019106D01*
X036015Y019265D02*
X036015Y019265D01*
X035450Y019106D02*
X034553Y019106D01*
X034222Y019265D02*
X035415Y019265D01*
X035415Y019423D02*
X032239Y019423D01*
X032273Y019265D02*
X033007Y019265D01*
X033273Y019265D02*
X034058Y019265D01*
X034140Y019265D02*
X034140Y019265D01*
X034140Y019106D02*
X034140Y019106D01*
X034140Y018948D02*
X034140Y018948D01*
X034140Y018789D02*
X034140Y018789D01*
X034140Y018631D02*
X034140Y018631D01*
X034140Y018472D02*
X034140Y018472D01*
X034740Y018472D02*
X036665Y018472D01*
X036665Y018314D02*
X034740Y018314D01*
X034740Y018155D02*
X036665Y018155D01*
X036665Y017997D02*
X034730Y017997D01*
X034740Y018631D02*
X036665Y018631D01*
X038265Y018390D02*
X038265Y017890D01*
X033727Y019106D02*
X033553Y019106D01*
X032727Y019106D02*
X032553Y019106D01*
X028140Y020890D02*
X028140Y021390D01*
X026140Y023390D02*
X026140Y023890D01*
X033140Y026890D02*
X033140Y027390D01*
X033515Y027765D01*
X037890Y027765D01*
X038265Y027390D01*
X038265Y026890D01*
X037755Y025446D02*
X036307Y025446D01*
X036466Y025288D02*
X037597Y025288D01*
X037438Y025129D02*
X036615Y025129D01*
X036615Y024971D02*
X037280Y024971D01*
X037121Y024812D02*
X036615Y024812D01*
X036615Y024654D02*
X036900Y024654D01*
X036750Y024495D02*
X036469Y024495D01*
X036310Y024337D02*
X036685Y024337D01*
X036015Y024971D02*
X036015Y024971D01*
X036015Y025129D02*
X036015Y025129D01*
X036015Y025288D02*
X036015Y025288D01*
X036015Y025446D02*
X036015Y025446D01*
X035723Y025446D02*
X034900Y025446D01*
X035058Y025288D02*
X035564Y025288D01*
X035415Y025129D02*
X035217Y025129D01*
X035375Y024971D02*
X035415Y024971D01*
X034878Y024337D02*
X034717Y024337D01*
X034725Y024310D02*
X034696Y024400D01*
X034653Y024484D01*
X034598Y024561D01*
X034531Y024628D01*
X034454Y024683D01*
X034370Y024726D01*
X034327Y024740D01*
X034474Y024740D01*
X035551Y023663D01*
X035663Y023551D01*
X035810Y023490D01*
X036665Y023490D01*
X036696Y023415D01*
X034708Y023415D01*
X034725Y023469D01*
X034740Y023563D01*
X034740Y023890D01*
X034740Y024217D01*
X034725Y024310D01*
X034740Y024178D02*
X035036Y024178D01*
X035195Y024020D02*
X034740Y024020D01*
X034740Y023890D02*
X034140Y023890D01*
X034140Y023890D01*
X034740Y023890D01*
X034740Y023861D02*
X035353Y023861D01*
X035512Y023703D02*
X034740Y023703D01*
X034737Y023544D02*
X035680Y023544D01*
X034719Y024495D02*
X034645Y024495D01*
X034561Y024654D02*
X034495Y024654D01*
X034201Y025763D02*
X034079Y025763D01*
X034140Y026390D02*
X034140Y026890D01*
X034708Y028915D02*
X034725Y028969D01*
X034740Y029063D01*
X034740Y029390D01*
X034740Y029599D01*
X035176Y029163D01*
X035288Y029051D01*
X035435Y028990D01*
X036665Y028990D01*
X036696Y028915D01*
X034708Y028915D01*
X034713Y028933D02*
X036689Y028933D01*
X035248Y029092D02*
X034740Y029092D01*
X034740Y029250D02*
X035089Y029250D01*
X034931Y029409D02*
X034740Y029409D01*
X034740Y029390D02*
X034140Y029390D01*
X034140Y029390D01*
X034740Y029390D01*
X034740Y029567D02*
X034772Y029567D01*
X033515Y031515D02*
X037890Y031515D01*
X038265Y031890D01*
X038265Y032390D01*
X040265Y032390D02*
X040265Y031890D01*
X040251Y031311D02*
X040279Y031311D01*
X040437Y031152D02*
X040093Y031152D01*
X039934Y030994D02*
X040596Y030994D01*
X040676Y030913D02*
X040676Y030913D01*
X040754Y030835D02*
X039776Y030835D01*
X036696Y034415D02*
X034708Y034415D01*
X034725Y034469D01*
X034740Y034563D01*
X034740Y034890D01*
X034740Y035217D01*
X034725Y035310D01*
X034708Y035365D01*
X034974Y035365D01*
X035301Y035038D01*
X035413Y034926D01*
X035560Y034865D01*
X036470Y034865D01*
X036617Y034926D01*
X036665Y034974D01*
X036665Y034491D01*
X036696Y034415D01*
X036669Y034481D02*
X034727Y034481D01*
X034740Y034639D02*
X036665Y034639D01*
X036665Y034798D02*
X034740Y034798D01*
X034740Y034890D02*
X034140Y034890D01*
X034740Y034890D01*
X034740Y034956D02*
X035383Y034956D01*
X035225Y035115D02*
X034740Y035115D01*
X034731Y035273D02*
X035066Y035273D01*
X034140Y034890D02*
X034140Y034890D01*
X033250Y036066D02*
X033030Y036066D01*
X034015Y036700D02*
X034265Y036700D01*
X034515Y037015D02*
X045890Y037015D01*
X046265Y037390D01*
X046640Y037015D01*
X058015Y037015D01*
X058390Y037390D01*
X058390Y037890D01*
X058990Y037968D02*
X060209Y037968D01*
X060143Y038126D02*
X058990Y038126D01*
X058990Y038285D02*
X060135Y038285D01*
X060159Y038443D02*
X058926Y038443D01*
X058807Y038602D02*
X060225Y038602D01*
X060382Y038760D02*
X058533Y038760D01*
X058247Y038760D02*
X057500Y038760D01*
X057390Y038760D02*
X057390Y038760D01*
X057280Y038760D02*
X056533Y038760D01*
X056247Y038760D02*
X055533Y038760D01*
X055247Y038760D02*
X054533Y038760D01*
X054247Y038760D02*
X053533Y038760D01*
X053247Y038760D02*
X052586Y038760D01*
X052427Y038919D02*
X066502Y038919D01*
X066502Y039077D02*
X052269Y039077D01*
X052110Y039236D02*
X066502Y039236D01*
X066502Y039394D02*
X051895Y039394D01*
X051765Y039015D02*
X052390Y038390D01*
X052390Y037890D01*
X052807Y038602D02*
X052973Y038602D01*
X053807Y038602D02*
X053973Y038602D01*
X054807Y038602D02*
X054973Y038602D01*
X055807Y038602D02*
X055973Y038602D01*
X056807Y038602D02*
X056973Y038602D01*
X057390Y038602D02*
X057390Y038602D01*
X057390Y038443D02*
X057390Y038443D01*
X057390Y038285D02*
X057390Y038285D01*
X057390Y038126D02*
X057390Y038126D01*
X057390Y037968D02*
X057390Y037968D01*
X057807Y038602D02*
X057973Y038602D01*
X058990Y037809D02*
X060342Y037809D01*
X060272Y037651D02*
X058990Y037651D01*
X058990Y037492D02*
X060180Y037492D01*
X060135Y037334D02*
X058925Y037334D01*
X058804Y037175D02*
X060135Y037175D01*
X060188Y037017D02*
X058582Y037017D01*
X058424Y036858D02*
X060293Y036858D01*
X060321Y036700D02*
X058265Y036700D01*
X058818Y035590D02*
X059399Y035590D01*
X059241Y035432D02*
X058930Y035432D01*
X058981Y035273D02*
X059082Y035273D01*
X060200Y036541D02*
X029555Y036541D01*
X029713Y036383D02*
X035659Y036383D01*
X035501Y036224D02*
X029872Y036224D01*
X030030Y036066D02*
X030750Y036066D01*
X030591Y035907D02*
X030189Y035907D01*
X030347Y035749D02*
X030433Y035749D01*
X030140Y035390D02*
X030140Y034890D01*
X030140Y035390D02*
X028890Y036640D01*
X021515Y036640D01*
X021140Y037015D01*
X010765Y037015D01*
X007890Y034140D01*
X007890Y034640D02*
X012765Y039515D01*
X038765Y039515D01*
X039335Y039553D02*
X039421Y039553D01*
X039770Y039394D02*
X040760Y039394D01*
X040545Y039236D02*
X039985Y039236D01*
X040144Y039077D02*
X040386Y039077D01*
X040890Y039015D02*
X040265Y038390D01*
X040265Y037890D01*
X040265Y038390D02*
X039640Y039015D01*
X028765Y039015D01*
X028140Y038390D01*
X028140Y037890D01*
X028140Y038390D02*
X027515Y039015D01*
X016640Y039015D01*
X016015Y038390D01*
X016015Y037890D01*
X012765Y040015D02*
X007890Y035140D01*
X006765Y035140D01*
X006265Y034640D02*
X007890Y034640D01*
X006265Y034640D02*
X005765Y035140D01*
X005390Y035640D02*
X004515Y036515D01*
X004515Y038015D01*
X005265Y038765D01*
X008140Y038765D01*
X011890Y042515D01*
X052515Y042515D01*
X054890Y040140D01*
X055119Y040662D02*
X058838Y040662D01*
X058860Y040640D02*
X058625Y040875D01*
X058625Y041120D01*
X059245Y041120D01*
X059245Y041160D01*
X059245Y041780D01*
X059000Y041780D01*
X058625Y041405D01*
X058625Y041160D01*
X059245Y041160D01*
X059285Y041160D01*
X059285Y041780D01*
X059530Y041780D01*
X059765Y041545D01*
X060000Y041780D01*
X060245Y041780D01*
X060245Y041160D01*
X060285Y041160D01*
X060905Y041160D01*
X060905Y041405D01*
X060530Y041780D01*
X060285Y041780D01*
X060285Y041160D01*
X060285Y041120D01*
X060905Y041120D01*
X060905Y040875D01*
X060670Y040640D01*
X060905Y040405D01*
X060905Y040160D01*
X060285Y040160D01*
X060285Y040120D01*
X060905Y040120D01*
X060905Y039875D01*
X060530Y039500D01*
X060285Y039500D01*
X060285Y040120D01*
X060245Y040120D01*
X060245Y039500D01*
X060000Y039500D01*
X059765Y039735D01*
X059530Y039500D01*
X059285Y039500D01*
X059285Y040120D01*
X059285Y040160D01*
X060245Y040160D01*
X060245Y041120D01*
X060285Y041120D01*
X060285Y040500D01*
X060285Y040160D01*
X060245Y040160D01*
X060245Y040120D01*
X059625Y040120D01*
X059285Y040120D01*
X059245Y040120D01*
X059245Y039500D01*
X059000Y039500D01*
X058625Y039875D01*
X058625Y040120D01*
X059245Y040120D01*
X059245Y040160D01*
X059245Y041120D01*
X059285Y041120D01*
X059285Y041160D01*
X060245Y041160D01*
X060245Y041120D01*
X059625Y041120D01*
X059285Y041120D01*
X059285Y040500D01*
X059285Y040160D01*
X059245Y040160D01*
X058625Y040160D01*
X058625Y040405D01*
X058860Y040640D01*
X058723Y040504D02*
X055333Y040504D01*
X055422Y040345D02*
X058625Y040345D01*
X058625Y040187D02*
X055460Y040187D01*
X055460Y040028D02*
X058625Y040028D01*
X058630Y039870D02*
X055395Y039870D01*
X055267Y039711D02*
X058789Y039711D01*
X058947Y039553D02*
X040109Y039553D01*
X040256Y039711D02*
X041388Y039711D01*
X041260Y039870D02*
X040322Y039870D01*
X040335Y040028D02*
X041195Y040028D01*
X041153Y040187D02*
X040311Y040187D01*
X039765Y040015D02*
X012765Y040015D01*
X012890Y040640D02*
X008515Y036265D01*
X008140Y036265D01*
X007640Y036890D02*
X008640Y036890D01*
X012765Y041015D01*
X041890Y041015D01*
X042765Y040140D01*
X042994Y040662D02*
X049802Y040662D01*
X049644Y040821D02*
X042650Y040821D01*
X042492Y040979D02*
X049485Y040979D01*
X049640Y041390D02*
X012265Y041390D01*
X008515Y037640D01*
X006265Y037640D01*
X005765Y037140D01*
X005515Y036640D02*
X006265Y036640D01*
X006765Y037140D01*
X006765Y036140D02*
X006265Y035640D01*
X005390Y035640D01*
X005390Y036140D02*
X005765Y036140D01*
X005390Y036140D02*
X004890Y036640D01*
X004890Y037890D01*
X005390Y038390D01*
X008265Y038390D01*
X012015Y042140D01*
X051890Y042140D01*
X053890Y040140D01*
X054267Y039711D02*
X054513Y039711D01*
X053513Y039711D02*
X052267Y039711D01*
X052395Y039870D02*
X053385Y039870D01*
X053320Y040028D02*
X052460Y040028D01*
X052460Y040187D02*
X053278Y040187D01*
X053119Y040345D02*
X052422Y040345D01*
X052333Y040504D02*
X052961Y040504D01*
X052802Y040662D02*
X052119Y040662D01*
X051775Y040821D02*
X052644Y040821D01*
X052485Y040979D02*
X051617Y040979D01*
X051458Y041138D02*
X052327Y041138D01*
X052168Y041296D02*
X051300Y041296D01*
X051141Y041455D02*
X052010Y041455D01*
X051851Y041613D02*
X050983Y041613D01*
X050265Y041765D02*
X012140Y041765D01*
X008390Y038015D01*
X005515Y038015D01*
X005265Y037765D01*
X005265Y036890D01*
X005515Y036640D01*
X011890Y035749D02*
X011890Y035749D01*
X012890Y040640D02*
X041265Y040640D01*
X041765Y040140D01*
X042142Y039711D02*
X042388Y039711D01*
X043142Y039711D02*
X050513Y039711D01*
X050385Y039870D02*
X043270Y039870D01*
X043335Y040028D02*
X050320Y040028D01*
X050278Y040187D02*
X043335Y040187D01*
X043297Y040345D02*
X050119Y040345D01*
X049961Y040504D02*
X043208Y040504D01*
X040890Y039015D02*
X051765Y039015D01*
X051513Y039711D02*
X051267Y039711D01*
X050890Y040140D02*
X049640Y041390D01*
X050265Y041765D02*
X051890Y040140D01*
X053666Y041930D02*
X065242Y041930D01*
X065081Y041772D02*
X060539Y041772D01*
X060697Y041613D02*
X064954Y041613D01*
X064889Y041455D02*
X060856Y041455D01*
X060905Y041296D02*
X064835Y041296D01*
X064835Y041138D02*
X060285Y041138D01*
X060245Y041138D02*
X059285Y041138D01*
X059245Y041138D02*
X054458Y041138D01*
X054300Y041296D02*
X058625Y041296D01*
X058674Y041455D02*
X054141Y041455D01*
X053983Y041613D02*
X058833Y041613D01*
X058991Y041772D02*
X053824Y041772D01*
X053507Y042089D02*
X066502Y042089D01*
X066502Y042247D02*
X053349Y042247D01*
X053190Y042406D02*
X066502Y042406D01*
X066502Y042564D02*
X053032Y042564D01*
X052873Y042723D02*
X066502Y042723D01*
X066502Y041930D02*
X066288Y041930D01*
X066449Y041772D02*
X066502Y041772D01*
X064835Y040979D02*
X060905Y040979D01*
X060851Y040821D02*
X064891Y040821D01*
X064956Y040662D02*
X060692Y040662D01*
X060807Y040504D02*
X065086Y040504D01*
X065254Y040345D02*
X060905Y040345D01*
X060905Y040187D02*
X066502Y040187D01*
X066502Y040345D02*
X066276Y040345D01*
X066444Y040504D02*
X066502Y040504D01*
X066502Y040028D02*
X060905Y040028D01*
X060900Y039870D02*
X066502Y039870D01*
X066502Y039711D02*
X060741Y039711D01*
X060583Y039553D02*
X066502Y039553D01*
X066502Y038760D02*
X064634Y038760D01*
X064792Y038602D02*
X066502Y038602D01*
X066502Y038443D02*
X064868Y038443D01*
X064895Y038285D02*
X066502Y038285D01*
X066502Y038126D02*
X064880Y038126D01*
X064817Y037968D02*
X066502Y037968D01*
X066502Y037809D02*
X064688Y037809D01*
X064758Y037651D02*
X066502Y037651D01*
X066502Y037492D02*
X064850Y037492D01*
X064895Y037334D02*
X066502Y037334D01*
X066502Y037175D02*
X064895Y037175D01*
X064842Y037017D02*
X066502Y037017D01*
X064015Y038285D02*
X064015Y038285D01*
X064015Y038443D02*
X064015Y038443D01*
X064015Y038602D02*
X064015Y038602D01*
X064015Y038760D02*
X064015Y038760D01*
X063396Y038760D02*
X061648Y038760D01*
X061805Y038602D02*
X063238Y038602D01*
X063162Y038443D02*
X061871Y038443D01*
X061895Y038285D02*
X063135Y038285D01*
X063150Y038126D02*
X061887Y038126D01*
X061821Y037968D02*
X063213Y037968D01*
X063342Y037809D02*
X061688Y037809D01*
X061758Y037651D02*
X063026Y037651D01*
X062801Y037492D02*
X061836Y036527D01*
X061804Y036605D01*
X061644Y036765D01*
X061804Y036925D01*
X061895Y037146D01*
X061895Y037384D01*
X061895Y037334D02*
X062643Y037334D01*
X062484Y037175D02*
X061895Y037175D01*
X061842Y037017D02*
X062326Y037017D01*
X062167Y036858D02*
X061737Y036858D01*
X061709Y036700D02*
X062009Y036700D01*
X061850Y036541D02*
X061830Y036541D01*
X060285Y039553D02*
X060245Y039553D01*
X060245Y039711D02*
X060285Y039711D01*
X060285Y039870D02*
X060245Y039870D01*
X060245Y040028D02*
X060285Y040028D01*
X060285Y040187D02*
X060245Y040187D01*
X060245Y040345D02*
X060285Y040345D01*
X060285Y040504D02*
X060245Y040504D01*
X060245Y040662D02*
X060285Y040662D01*
X060285Y040821D02*
X060245Y040821D01*
X060245Y040979D02*
X060285Y040979D01*
X060285Y041296D02*
X060245Y041296D01*
X060245Y041455D02*
X060285Y041455D01*
X060285Y041613D02*
X060245Y041613D01*
X060245Y041772D02*
X060285Y041772D01*
X059991Y041772D02*
X059539Y041772D01*
X059697Y041613D02*
X059833Y041613D01*
X059285Y041613D02*
X059245Y041613D01*
X059245Y041455D02*
X059285Y041455D01*
X059285Y041296D02*
X059245Y041296D01*
X059245Y040979D02*
X059285Y040979D01*
X059285Y040821D02*
X059245Y040821D01*
X059245Y040662D02*
X059285Y040662D01*
X059285Y040504D02*
X059245Y040504D01*
X059245Y040345D02*
X059285Y040345D01*
X059285Y040187D02*
X059245Y040187D01*
X059245Y040028D02*
X059285Y040028D01*
X059285Y039870D02*
X059245Y039870D01*
X059245Y039711D02*
X059285Y039711D01*
X059285Y039553D02*
X059245Y039553D01*
X059583Y039553D02*
X059947Y039553D01*
X059789Y039711D02*
X059741Y039711D01*
X058679Y040821D02*
X054775Y040821D01*
X054617Y040979D02*
X058625Y040979D01*
X059245Y041772D02*
X059285Y041772D01*
X050390Y038390D02*
X050390Y037890D01*
X050390Y038390D02*
X050140Y038640D01*
X045515Y038640D01*
X045265Y038390D01*
X045265Y037890D01*
X046265Y037890D02*
X046265Y037390D01*
X046140Y036700D02*
X046390Y036700D01*
X045500Y036066D02*
X045030Y036066D01*
X045189Y035907D02*
X045341Y035907D01*
X046265Y034890D02*
X046265Y034890D01*
X046865Y034639D02*
X048790Y034639D01*
X048794Y034481D02*
X046852Y034481D01*
X046640Y033265D02*
X058015Y033265D01*
X058390Y032890D02*
X058390Y032390D01*
X056988Y034164D02*
X056792Y034164D01*
X052390Y032390D02*
X052390Y031890D01*
X050390Y031890D02*
X050390Y032390D01*
X050390Y031890D02*
X050015Y031515D01*
X045640Y031515D01*
X045265Y031890D01*
X045265Y032390D01*
X046265Y032390D02*
X046265Y032890D01*
X046640Y033265D01*
X046265Y032890D02*
X045890Y033265D01*
X034515Y033265D01*
X034140Y032890D01*
X033890Y033140D01*
X022265Y033140D01*
X022015Y032890D01*
X022015Y032390D01*
X022524Y034290D02*
X022528Y034296D01*
X022571Y034380D01*
X022600Y034469D01*
X022615Y034563D01*
X022615Y034890D01*
X022615Y035217D01*
X022600Y035310D01*
X022583Y035365D01*
X022724Y035365D01*
X023176Y034913D01*
X023288Y034801D01*
X023435Y034740D01*
X024345Y034740D01*
X024492Y034801D01*
X024540Y034849D01*
X024540Y034491D01*
X024623Y034290D01*
X022524Y034290D01*
X022542Y034322D02*
X024610Y034322D01*
X024544Y034481D02*
X022602Y034481D01*
X022615Y034639D02*
X024540Y034639D01*
X024540Y034798D02*
X024483Y034798D01*
X023296Y034798D02*
X022615Y034798D01*
X022615Y034890D02*
X022015Y034890D01*
X022615Y034890D01*
X022615Y034956D02*
X023133Y034956D01*
X022975Y035115D02*
X022615Y035115D01*
X022606Y035273D02*
X022816Y035273D01*
X022015Y034890D02*
X022015Y034890D01*
X022390Y037015D02*
X033765Y037015D01*
X034140Y037390D01*
X034515Y037015D01*
X034140Y037390D02*
X034140Y037890D01*
X033390Y038640D02*
X038015Y038640D01*
X038265Y038390D01*
X038265Y037890D01*
X036015Y036383D02*
X036015Y036383D01*
X036015Y036224D02*
X036015Y036224D01*
X036015Y036066D02*
X036015Y036066D01*
X036015Y035907D02*
X036015Y035907D01*
X036615Y036066D02*
X036625Y036066D01*
X036647Y034956D02*
X036665Y034956D01*
X035415Y036066D02*
X035405Y036066D01*
X033140Y037890D02*
X033140Y038390D01*
X033390Y038640D01*
X026140Y038390D02*
X026140Y037890D01*
X026140Y038390D02*
X025890Y038640D01*
X021265Y038640D01*
X021015Y038390D01*
X021015Y037890D01*
X022015Y037890D02*
X022015Y037390D01*
X022390Y037015D01*
X033140Y032390D02*
X033140Y031890D01*
X033515Y031515D01*
X034140Y032390D02*
X034140Y032890D01*
X043265Y034390D02*
X043265Y034890D01*
X056390Y029390D02*
X057390Y029390D01*
X063515Y027765D02*
X064515Y027765D01*
X064890Y027390D01*
X064890Y026640D01*
X064515Y026265D01*
X064015Y026265D01*
X064645Y025763D02*
X066502Y025763D01*
X066502Y025605D02*
X064804Y025605D01*
X064900Y025446D02*
X066502Y025446D01*
X066502Y025288D02*
X065058Y025288D01*
X065217Y025129D02*
X066502Y025129D01*
X066502Y024971D02*
X065290Y024971D01*
X065290Y024812D02*
X066502Y024812D01*
X066502Y024654D02*
X065290Y024654D01*
X065290Y024495D02*
X066502Y024495D01*
X066502Y024337D02*
X065290Y024337D01*
X065290Y024178D02*
X066502Y024178D01*
X066502Y024020D02*
X065290Y024020D01*
X065290Y023861D02*
X066502Y023861D01*
X066502Y023703D02*
X065290Y023703D01*
X065290Y023544D02*
X066502Y023544D01*
X066502Y023386D02*
X065290Y023386D01*
X065290Y023227D02*
X066502Y023227D01*
X066502Y023069D02*
X065290Y023069D01*
X065290Y022910D02*
X066502Y022910D01*
X066502Y022752D02*
X065290Y022752D01*
X065290Y022593D02*
X066502Y022593D01*
X066502Y022435D02*
X065290Y022435D01*
X065290Y022276D02*
X066502Y022276D01*
X066502Y022118D02*
X065290Y022118D01*
X065290Y021959D02*
X066502Y021959D01*
X066502Y021801D02*
X065290Y021801D01*
X065290Y021642D02*
X066502Y021642D01*
X066502Y021484D02*
X065290Y021484D01*
X065290Y021325D02*
X066502Y021325D01*
X066502Y021167D02*
X065290Y021167D01*
X065290Y021008D02*
X066502Y021008D01*
X066502Y020850D02*
X065290Y020850D01*
X065290Y020691D02*
X066502Y020691D01*
X066502Y020533D02*
X065290Y020533D01*
X065290Y020374D02*
X066502Y020374D01*
X066502Y020216D02*
X065290Y020216D01*
X065290Y020057D02*
X066502Y020057D01*
X066502Y019899D02*
X065290Y019899D01*
X065290Y019740D02*
X066502Y019740D01*
X066502Y019582D02*
X065290Y019582D01*
X065290Y019423D02*
X066502Y019423D01*
X066502Y019265D02*
X065290Y019265D01*
X065290Y019106D02*
X066502Y019106D01*
X066502Y018948D02*
X065290Y018948D01*
X065290Y018789D02*
X066502Y018789D01*
X066502Y018631D02*
X065290Y018631D01*
X065290Y018472D02*
X066502Y018472D01*
X066502Y018314D02*
X065290Y018314D01*
X065290Y018155D02*
X066502Y018155D01*
X066502Y017997D02*
X065290Y017997D01*
X065290Y017838D02*
X066502Y017838D01*
X066502Y017680D02*
X065290Y017680D01*
X065290Y017521D02*
X066502Y017521D01*
X066502Y017363D02*
X065290Y017363D01*
X065290Y017204D02*
X066502Y017204D01*
X066502Y017046D02*
X065290Y017046D01*
X065290Y016887D02*
X066502Y016887D01*
X066502Y016729D02*
X065290Y016729D01*
X065290Y016570D02*
X066502Y016570D01*
X066502Y016412D02*
X065290Y016412D01*
X065290Y016253D02*
X066502Y016253D01*
X066502Y016095D02*
X065290Y016095D01*
X065290Y015936D02*
X066502Y015936D01*
X066502Y015778D02*
X065290Y015778D01*
X065290Y015619D02*
X066502Y015619D01*
X066502Y015461D02*
X065290Y015461D01*
X065290Y015302D02*
X066502Y015302D01*
X066502Y015144D02*
X065290Y015144D01*
X065290Y014985D02*
X066502Y014985D01*
X066502Y014827D02*
X065290Y014827D01*
X065290Y014668D02*
X066502Y014668D01*
X066502Y014510D02*
X065290Y014510D01*
X065290Y014351D02*
X066502Y014351D01*
X066502Y014193D02*
X065290Y014193D01*
X065290Y014034D02*
X066502Y014034D01*
X066502Y013876D02*
X065290Y013876D01*
X065290Y013717D02*
X066502Y013717D01*
X066502Y013559D02*
X065290Y013559D01*
X065290Y013400D02*
X066502Y013400D01*
X066502Y013242D02*
X065290Y013242D01*
X065290Y013083D02*
X066502Y013083D01*
X066502Y012925D02*
X065290Y012925D01*
X065290Y012766D02*
X066502Y012766D01*
X066502Y012608D02*
X065290Y012608D01*
X065290Y012449D02*
X066502Y012449D01*
X066502Y012291D02*
X065290Y012291D01*
X065290Y012132D02*
X066502Y012132D01*
X066502Y011974D02*
X065290Y011974D01*
X065290Y011815D02*
X066502Y011815D01*
X066502Y011657D02*
X065290Y011657D01*
X065290Y011498D02*
X066502Y011498D01*
X066502Y011340D02*
X065250Y011340D01*
X065122Y011181D02*
X066502Y011181D01*
X066502Y011023D02*
X064963Y011023D01*
X064805Y010864D02*
X066502Y010864D01*
X066502Y010706D02*
X064646Y010706D01*
X064488Y010547D02*
X066502Y010547D01*
X066502Y010389D02*
X064329Y010389D01*
X064171Y010230D02*
X066502Y010230D01*
X066502Y010072D02*
X064012Y010072D01*
X063854Y009913D02*
X066502Y009913D01*
X066502Y009755D02*
X063695Y009755D01*
X063537Y009596D02*
X066502Y009596D01*
X066502Y009438D02*
X063378Y009438D01*
X063220Y009279D02*
X066502Y009279D01*
X066502Y009121D02*
X063061Y009121D01*
X062903Y008962D02*
X066502Y008962D01*
X066502Y008804D02*
X062744Y008804D01*
X062783Y008645D02*
X066502Y008645D01*
X066502Y008487D02*
X062942Y008487D01*
X063025Y008328D02*
X066502Y008328D01*
X066502Y008170D02*
X063025Y008170D01*
X063025Y008140D02*
X062390Y008140D01*
X062390Y008140D01*
X063025Y008140D01*
X063025Y008011D02*
X066502Y008011D01*
X066502Y007853D02*
X063001Y007853D01*
X062842Y007694D02*
X066502Y007694D01*
X066502Y007536D02*
X062893Y007536D01*
X062979Y007377D02*
X066502Y007377D01*
X066502Y007219D02*
X063025Y007219D01*
X063025Y007060D02*
X065556Y007060D01*
X065974Y007060D02*
X066502Y007060D01*
X066502Y006902D02*
X066319Y006902D01*
X066477Y006743D02*
X066502Y006743D01*
X066502Y005475D02*
X066415Y005475D01*
X066502Y005317D02*
X066207Y005317D01*
X066502Y005158D02*
X057099Y005158D01*
X057257Y005317D02*
X065323Y005317D01*
X066502Y005000D02*
X056940Y005000D01*
X060890Y008890D02*
X062265Y010265D01*
X062265Y021015D01*
X062665Y020849D02*
X062665Y020389D01*
X062766Y020490D01*
X063015Y020490D01*
X063264Y020490D01*
X063615Y020139D01*
X063615Y019890D01*
X063015Y019890D01*
X063015Y019890D01*
X063015Y019890D01*
X063015Y020490D01*
X063015Y019890D01*
X063615Y019890D01*
X063615Y019641D01*
X063264Y019290D01*
X063015Y019290D01*
X063015Y019890D01*
X063015Y019890D01*
X063015Y019290D01*
X062766Y019290D01*
X062665Y019391D01*
X062665Y010356D01*
X063615Y011306D01*
X063615Y020665D01*
X063395Y020756D01*
X063226Y020925D01*
X063135Y021146D01*
X063135Y021319D01*
X062665Y020849D01*
X062665Y020850D02*
X063302Y020850D01*
X063192Y021008D02*
X062824Y021008D01*
X062982Y021167D02*
X063135Y021167D01*
X063553Y020691D02*
X062665Y020691D01*
X062665Y020533D02*
X063615Y020533D01*
X063615Y020374D02*
X063380Y020374D01*
X063538Y020216D02*
X063615Y020216D01*
X063615Y020057D02*
X063615Y020057D01*
X063615Y019899D02*
X063615Y019899D01*
X063615Y019740D02*
X063615Y019740D01*
X063615Y019582D02*
X063555Y019582D01*
X063615Y019423D02*
X063397Y019423D01*
X063615Y019265D02*
X062665Y019265D01*
X062665Y019106D02*
X063615Y019106D01*
X063615Y018948D02*
X062665Y018948D01*
X062665Y018789D02*
X063615Y018789D01*
X063615Y018631D02*
X062665Y018631D01*
X062665Y018472D02*
X063615Y018472D01*
X063615Y018314D02*
X062665Y018314D01*
X062665Y018155D02*
X063615Y018155D01*
X063615Y017997D02*
X062665Y017997D01*
X062665Y017838D02*
X063615Y017838D01*
X063615Y017680D02*
X062665Y017680D01*
X062665Y017521D02*
X063615Y017521D01*
X063615Y017363D02*
X062665Y017363D01*
X062665Y017204D02*
X063615Y017204D01*
X063615Y017046D02*
X062665Y017046D01*
X062665Y016887D02*
X063615Y016887D01*
X063615Y016729D02*
X062665Y016729D01*
X062665Y016570D02*
X063615Y016570D01*
X063615Y016412D02*
X062665Y016412D01*
X062665Y016253D02*
X063615Y016253D01*
X063615Y016095D02*
X062665Y016095D01*
X062665Y015936D02*
X063615Y015936D01*
X063615Y015778D02*
X062665Y015778D01*
X062665Y015619D02*
X063615Y015619D01*
X063615Y015461D02*
X062665Y015461D01*
X062665Y015302D02*
X063615Y015302D01*
X063615Y015144D02*
X062665Y015144D01*
X062665Y014985D02*
X063615Y014985D01*
X063615Y014827D02*
X062665Y014827D01*
X062665Y014668D02*
X063615Y014668D01*
X063615Y014510D02*
X062665Y014510D01*
X062665Y014351D02*
X063615Y014351D01*
X063615Y014193D02*
X062665Y014193D01*
X062665Y014034D02*
X063615Y014034D01*
X063615Y013876D02*
X062665Y013876D01*
X062665Y013717D02*
X063615Y013717D01*
X063615Y013559D02*
X062665Y013559D01*
X062665Y013400D02*
X063615Y013400D01*
X063615Y013242D02*
X062665Y013242D01*
X062665Y013083D02*
X063615Y013083D01*
X063615Y012925D02*
X062665Y012925D01*
X062665Y012766D02*
X063615Y012766D01*
X063615Y012608D02*
X062665Y012608D01*
X062665Y012449D02*
X063615Y012449D01*
X063615Y012291D02*
X062665Y012291D01*
X062665Y012132D02*
X063615Y012132D01*
X063615Y011974D02*
X062665Y011974D01*
X062665Y011815D02*
X063615Y011815D01*
X063615Y011657D02*
X062665Y011657D01*
X062665Y011498D02*
X063615Y011498D01*
X063615Y011340D02*
X062665Y011340D01*
X062665Y011181D02*
X063490Y011181D01*
X063332Y011023D02*
X062665Y011023D01*
X062665Y010864D02*
X063173Y010864D01*
X063015Y010706D02*
X062665Y010706D01*
X062665Y010547D02*
X062856Y010547D01*
X062698Y010389D02*
X062665Y010389D01*
X056972Y017680D02*
X056808Y017680D01*
X055972Y017680D02*
X055808Y017680D01*
X053977Y019106D02*
X053803Y019106D01*
X053825Y019265D02*
X053523Y019265D01*
X053666Y019423D02*
X048740Y019423D01*
X048740Y019265D02*
X049257Y019265D01*
X049523Y019265D02*
X050257Y019265D01*
X050523Y019265D02*
X051257Y019265D01*
X051523Y019265D02*
X052257Y019265D01*
X052523Y019265D02*
X053257Y019265D01*
X052977Y019106D02*
X052803Y019106D01*
X051977Y019106D02*
X051803Y019106D01*
X050977Y019106D02*
X050803Y019106D01*
X049977Y019106D02*
X049803Y019106D01*
X048977Y019106D02*
X048705Y019106D01*
X048790Y018631D02*
X046865Y018631D01*
X046865Y018472D02*
X048790Y018472D01*
X048790Y018314D02*
X046865Y018314D01*
X046865Y018155D02*
X048790Y018155D01*
X048790Y017997D02*
X046855Y017997D01*
X046800Y017838D02*
X048853Y017838D01*
X048972Y017680D02*
X047577Y017680D01*
X047203Y017680D02*
X046683Y017680D01*
X046265Y018472D02*
X046265Y018472D01*
X046265Y018631D02*
X046265Y018631D01*
X046265Y018789D02*
X046265Y018789D01*
X046265Y018948D02*
X046265Y018948D01*
X046265Y019106D02*
X046265Y019106D01*
X046678Y019106D02*
X047575Y019106D01*
X049515Y023015D02*
X043640Y023015D01*
X043265Y023390D01*
X043265Y023890D01*
X043265Y024390D01*
X038265Y023890D02*
X038265Y023390D01*
X049515Y023015D02*
X049890Y023390D01*
X056390Y021390D02*
X056390Y020890D01*
X058990Y021167D02*
X060135Y021167D01*
X060192Y021008D02*
X059047Y021008D01*
X059246Y020850D02*
X060302Y020850D01*
X060553Y020691D02*
X059405Y020691D01*
X059563Y020533D02*
X061490Y020533D01*
X061477Y020691D02*
X061490Y020691D01*
X061490Y020374D02*
X061380Y020374D01*
X060650Y020374D02*
X059722Y020374D01*
X059880Y020216D02*
X060492Y020216D01*
X060415Y020057D02*
X060039Y020057D01*
X060197Y019899D02*
X060415Y019899D01*
X060415Y019740D02*
X060356Y019740D01*
X063015Y019740D02*
X063015Y019740D01*
X063015Y019582D02*
X063015Y019582D01*
X063015Y019423D02*
X063015Y019423D01*
X063015Y019899D02*
X063015Y019899D01*
X063015Y020057D02*
X063015Y020057D01*
X063015Y020216D02*
X063015Y020216D01*
X063015Y020374D02*
X063015Y020374D01*
X064890Y024890D02*
X064515Y025265D01*
X064015Y025265D01*
X064800Y025922D02*
X066502Y025922D01*
X066502Y026080D02*
X064896Y026080D01*
X065054Y026239D02*
X066502Y026239D01*
X066502Y026397D02*
X065213Y026397D01*
X065288Y026556D02*
X066502Y026556D01*
X066502Y026714D02*
X065290Y026714D01*
X065290Y026873D02*
X066502Y026873D01*
X066502Y027031D02*
X065290Y027031D01*
X065290Y027190D02*
X066502Y027190D01*
X066502Y027348D02*
X065290Y027348D01*
X065275Y027507D02*
X066502Y027507D01*
X066502Y027665D02*
X065181Y027665D01*
X065022Y027824D02*
X066502Y027824D01*
X066502Y027982D02*
X064864Y027982D01*
X064854Y027992D02*
X064854Y027992D01*
X064883Y028141D02*
X066502Y028141D01*
X066502Y028299D02*
X064895Y028299D01*
X064895Y028265D02*
X064015Y028265D01*
X064015Y028265D01*
X064895Y028265D01*
X064863Y028458D02*
X066502Y028458D01*
X066502Y028616D02*
X065615Y028616D01*
X065831Y028775D02*
X066502Y028775D01*
X066502Y028933D02*
X065921Y028933D01*
X065960Y029092D02*
X066502Y029092D01*
X066502Y029250D02*
X065960Y029250D01*
X065896Y029409D02*
X066502Y029409D01*
X066502Y029567D02*
X065769Y029567D01*
X065165Y028616D02*
X064782Y028616D01*
X034045Y008170D02*
X031402Y008170D01*
X031470Y008328D02*
X033886Y008328D01*
X033728Y008487D02*
X031490Y008487D01*
X031490Y008645D02*
X033569Y008645D01*
X033411Y008804D02*
X031490Y008804D01*
X031490Y008962D02*
X033252Y008962D01*
X033094Y009121D02*
X031486Y009121D01*
X030890Y008645D02*
X030890Y008645D01*
X030890Y008487D02*
X030890Y008487D01*
X030890Y008328D02*
X030890Y008328D01*
X030890Y008170D02*
X030890Y008170D01*
X030890Y008011D02*
X030890Y008011D01*
X031258Y008011D02*
X034203Y008011D01*
X033539Y007694D02*
X033241Y007694D01*
X032539Y007694D02*
X032241Y007694D01*
X031539Y007694D02*
X031241Y007694D01*
X030539Y007694D02*
X030241Y007694D01*
X030265Y008011D02*
X030522Y008011D01*
X030504Y011023D02*
X030276Y011023D01*
X029504Y011023D02*
X029276Y011023D01*
X028504Y011023D02*
X028276Y011023D01*
X027504Y011023D02*
X027276Y011023D01*
X026504Y011023D02*
X026276Y011023D01*
X025504Y011023D02*
X025276Y011023D01*
X025472Y009913D02*
X024115Y009913D01*
X024115Y009755D02*
X025314Y009755D01*
X025155Y009596D02*
X025128Y009596D01*
X024652Y009596D02*
X024115Y009596D01*
X024036Y009438D02*
X024434Y009438D01*
X031276Y011023D02*
X033567Y011023D01*
X033408Y011181D02*
X031414Y011181D01*
X031479Y011340D02*
X033250Y011340D01*
X033091Y011498D02*
X031490Y011498D01*
X031490Y011657D02*
X032933Y011657D01*
X032774Y011815D02*
X031490Y011815D01*
X031490Y011974D02*
X032616Y011974D01*
D18*
X031640Y017015D03*
X030640Y017015D03*
X029640Y017015D03*
X028640Y017015D03*
X019515Y016140D03*
X018515Y016140D03*
X017515Y016140D03*
X016515Y016140D03*
X040765Y017015D03*
X041765Y017015D03*
X042765Y017015D03*
X043765Y017015D03*
X047390Y017140D03*
X054515Y012640D03*
X053765Y012140D03*
X055265Y014140D03*
X056015Y014640D03*
X056515Y016140D03*
X057140Y016640D03*
X043515Y010015D03*
X065390Y029140D03*
X059265Y029265D03*
X059265Y030765D03*
X054890Y040140D03*
X053890Y040140D03*
X051890Y040140D03*
X050890Y040140D03*
X042765Y040140D03*
X041765Y040140D03*
X039765Y040015D03*
X038765Y039515D03*
X008140Y036265D03*
X007640Y036890D03*
X007890Y034140D03*
D19*
X011765Y032390D02*
X013015Y032390D01*
X013015Y026890D02*
X011765Y026890D01*
X011765Y021390D02*
X013015Y021390D01*
X023890Y021390D02*
X025140Y021390D01*
X025140Y026890D02*
X023890Y026890D01*
X023890Y032390D02*
X025140Y032390D01*
X025140Y037890D02*
X024015Y037890D01*
X023890Y037765D01*
X036015Y037890D02*
X037265Y037890D01*
X037265Y032390D02*
X036015Y032390D01*
X036015Y026890D02*
X037265Y026890D01*
X037265Y021390D02*
X036015Y021390D01*
X048140Y021390D02*
X049390Y021390D01*
X049390Y026890D02*
X048140Y026890D01*
X048140Y032390D02*
X049390Y032390D01*
X049390Y037890D02*
X048140Y037890D01*
X061015Y029890D02*
X061765Y029890D01*
X062515Y029140D01*
X063140Y029140D01*
X065390Y029140D01*
M02*
