G75*
%MOIN*%
%OFA0B0*%
%FSLAX24Y24*%
%IPPOS*%
%LPD*%
%AMOC8*
5,1,8,0,0,1.08239X$1,22.5*
%
%ADD10C,0.0560*%
%ADD11OC8,0.0560*%
%ADD12OC8,0.0640*%
%ADD13OC8,0.0630*%
%ADD14C,0.0630*%
%ADD15C,0.0160*%
%ADD16C,0.0500*%
%ADD17C,0.0320*%
D10*
X024890Y008485D02*
X024890Y009045D01*
X025890Y009045D02*
X025890Y008485D01*
X026890Y008485D02*
X026890Y009045D01*
X027890Y009045D02*
X027890Y008485D01*
X028890Y008485D02*
X028890Y009045D01*
X029890Y009045D02*
X029890Y008485D01*
X030890Y008485D02*
X030890Y009045D01*
X030890Y011485D02*
X030890Y012045D01*
X029890Y012045D02*
X029890Y011485D01*
X028890Y011485D02*
X028890Y012045D01*
X027890Y012045D02*
X027890Y011485D01*
X026890Y011485D02*
X026890Y012045D01*
X025890Y012045D02*
X025890Y011485D01*
X024890Y011485D02*
X024890Y012045D01*
X025140Y018110D02*
X025140Y018670D01*
X026140Y018670D02*
X026140Y018110D01*
X027140Y018110D02*
X027140Y018670D01*
X028140Y018670D02*
X028140Y018110D01*
X029140Y018110D02*
X029140Y018670D01*
X030140Y018670D02*
X030140Y018110D01*
X031140Y018110D02*
X031140Y018670D01*
X032140Y018670D02*
X032140Y018110D01*
X033140Y018110D02*
X033140Y018670D01*
X034140Y018670D02*
X034140Y018110D01*
X037265Y018110D02*
X037265Y018670D01*
X038265Y018670D02*
X038265Y018110D01*
X039265Y018110D02*
X039265Y018670D01*
X040265Y018670D02*
X040265Y018110D01*
X041265Y018110D02*
X041265Y018670D01*
X042265Y018670D02*
X042265Y018110D01*
X043265Y018110D02*
X043265Y018670D01*
X044265Y018670D02*
X044265Y018110D01*
X045265Y018110D02*
X045265Y018670D01*
X046265Y018670D02*
X046265Y018110D01*
X049390Y018110D02*
X049390Y018670D01*
X050390Y018670D02*
X050390Y018110D01*
X051390Y018110D02*
X051390Y018670D01*
X052390Y018670D02*
X052390Y018110D01*
X053390Y018110D02*
X053390Y018670D01*
X054390Y018670D02*
X054390Y018110D01*
X055390Y018110D02*
X055390Y018670D01*
X056390Y018670D02*
X056390Y018110D01*
X057390Y018110D02*
X057390Y018670D01*
X058390Y018670D02*
X058390Y018110D01*
X058390Y021110D02*
X058390Y021670D01*
X057390Y021670D02*
X057390Y021110D01*
X056390Y021110D02*
X056390Y021670D01*
X055390Y021670D02*
X055390Y021110D01*
X054390Y021110D02*
X054390Y021670D01*
X053390Y021670D02*
X053390Y021110D01*
X052390Y021110D02*
X052390Y021670D01*
X051390Y021670D02*
X051390Y021110D01*
X050390Y021110D02*
X050390Y021670D01*
X049390Y021670D02*
X049390Y021110D01*
X046265Y021110D02*
X046265Y021670D01*
X045265Y021670D02*
X045265Y021110D01*
X044265Y021110D02*
X044265Y021670D01*
X043265Y021670D02*
X043265Y021110D01*
X042265Y021110D02*
X042265Y021670D01*
X041265Y021670D02*
X041265Y021110D01*
X040265Y021110D02*
X040265Y021670D01*
X039265Y021670D02*
X039265Y021110D01*
X038265Y021110D02*
X038265Y021670D01*
X037265Y021670D02*
X037265Y021110D01*
X034140Y021110D02*
X034140Y021670D01*
X033140Y021670D02*
X033140Y021110D01*
X032140Y021110D02*
X032140Y021670D01*
X031140Y021670D02*
X031140Y021110D01*
X030140Y021110D02*
X030140Y021670D01*
X029140Y021670D02*
X029140Y021110D01*
X028140Y021110D02*
X028140Y021670D01*
X027140Y021670D02*
X027140Y021110D01*
X026140Y021110D02*
X026140Y021670D01*
X025140Y021670D02*
X025140Y021110D01*
X022015Y021110D02*
X022015Y021670D01*
X021015Y021670D02*
X021015Y021110D01*
X020015Y021110D02*
X020015Y021670D01*
X019015Y021670D02*
X019015Y021110D01*
X018015Y021110D02*
X018015Y021670D01*
X017015Y021670D02*
X017015Y021110D01*
X016015Y021110D02*
X016015Y021670D01*
X015015Y021670D02*
X015015Y021110D01*
X014015Y021110D02*
X014015Y021670D01*
X013015Y021670D02*
X013015Y021110D01*
X013015Y018670D02*
X013015Y018110D01*
X014015Y018110D02*
X014015Y018670D01*
X015015Y018670D02*
X015015Y018110D01*
X016015Y018110D02*
X016015Y018670D01*
X017015Y018670D02*
X017015Y018110D01*
X018015Y018110D02*
X018015Y018670D01*
X019015Y018670D02*
X019015Y018110D01*
X020015Y018110D02*
X020015Y018670D01*
X021015Y018670D02*
X021015Y018110D01*
X022015Y018110D02*
X022015Y018670D01*
X022015Y023610D02*
X022015Y024170D01*
X021015Y024170D02*
X021015Y023610D01*
X020015Y023610D02*
X020015Y024170D01*
X019015Y024170D02*
X019015Y023610D01*
X018015Y023610D02*
X018015Y024170D01*
X017015Y024170D02*
X017015Y023610D01*
X016015Y023610D02*
X016015Y024170D01*
X015015Y024170D02*
X015015Y023610D01*
X014015Y023610D02*
X014015Y024170D01*
X013015Y024170D02*
X013015Y023610D01*
X013015Y026610D02*
X013015Y027170D01*
X014015Y027170D02*
X014015Y026610D01*
X015015Y026610D02*
X015015Y027170D01*
X016015Y027170D02*
X016015Y026610D01*
X017015Y026610D02*
X017015Y027170D01*
X018015Y027170D02*
X018015Y026610D01*
X019015Y026610D02*
X019015Y027170D01*
X020015Y027170D02*
X020015Y026610D01*
X021015Y026610D02*
X021015Y027170D01*
X022015Y027170D02*
X022015Y026610D01*
X025140Y026610D02*
X025140Y027170D01*
X026140Y027170D02*
X026140Y026610D01*
X027140Y026610D02*
X027140Y027170D01*
X028140Y027170D02*
X028140Y026610D01*
X029140Y026610D02*
X029140Y027170D01*
X030140Y027170D02*
X030140Y026610D01*
X031140Y026610D02*
X031140Y027170D01*
X032140Y027170D02*
X032140Y026610D01*
X033140Y026610D02*
X033140Y027170D01*
X034140Y027170D02*
X034140Y026610D01*
X037265Y026610D02*
X037265Y027170D01*
X038265Y027170D02*
X038265Y026610D01*
X039265Y026610D02*
X039265Y027170D01*
X040265Y027170D02*
X040265Y026610D01*
X041265Y026610D02*
X041265Y027170D01*
X042265Y027170D02*
X042265Y026610D01*
X043265Y026610D02*
X043265Y027170D01*
X044265Y027170D02*
X044265Y026610D01*
X045265Y026610D02*
X045265Y027170D01*
X046265Y027170D02*
X046265Y026610D01*
X049390Y026610D02*
X049390Y027170D01*
X050390Y027170D02*
X050390Y026610D01*
X051390Y026610D02*
X051390Y027170D01*
X052390Y027170D02*
X052390Y026610D01*
X053390Y026610D02*
X053390Y027170D01*
X054390Y027170D02*
X054390Y026610D01*
X055390Y026610D02*
X055390Y027170D01*
X056390Y027170D02*
X056390Y026610D01*
X057390Y026610D02*
X057390Y027170D01*
X058390Y027170D02*
X058390Y026610D01*
X060735Y026265D02*
X061295Y026265D01*
X061295Y025265D02*
X060735Y025265D01*
X060735Y024265D02*
X061295Y024265D01*
X061295Y023265D02*
X060735Y023265D01*
X060735Y022265D02*
X061295Y022265D01*
X061295Y021265D02*
X060735Y021265D01*
X063735Y021265D02*
X064295Y021265D01*
X064295Y022265D02*
X063735Y022265D01*
X063735Y023265D02*
X064295Y023265D01*
X064295Y024265D02*
X063735Y024265D01*
X063735Y025265D02*
X064295Y025265D01*
X064295Y026265D02*
X063735Y026265D01*
X063735Y027265D02*
X064295Y027265D01*
X064295Y028265D02*
X063735Y028265D01*
X061295Y028265D02*
X060735Y028265D01*
X060735Y027265D02*
X061295Y027265D01*
X058390Y029110D02*
X058390Y029670D01*
X057390Y029670D02*
X057390Y029110D01*
X056390Y029110D02*
X056390Y029670D01*
X055390Y029670D02*
X055390Y029110D01*
X054390Y029110D02*
X054390Y029670D01*
X053390Y029670D02*
X053390Y029110D01*
X052390Y029110D02*
X052390Y029670D01*
X051390Y029670D02*
X051390Y029110D01*
X050390Y029110D02*
X050390Y029670D01*
X049390Y029670D02*
X049390Y029110D01*
X046265Y029110D02*
X046265Y029670D01*
X045265Y029670D02*
X045265Y029110D01*
X044265Y029110D02*
X044265Y029670D01*
X043265Y029670D02*
X043265Y029110D01*
X042265Y029110D02*
X042265Y029670D01*
X041265Y029670D02*
X041265Y029110D01*
X040265Y029110D02*
X040265Y029670D01*
X039265Y029670D02*
X039265Y029110D01*
X038265Y029110D02*
X038265Y029670D01*
X037265Y029670D02*
X037265Y029110D01*
X034140Y029110D02*
X034140Y029670D01*
X033140Y029670D02*
X033140Y029110D01*
X032140Y029110D02*
X032140Y029670D01*
X031140Y029670D02*
X031140Y029110D01*
X030140Y029110D02*
X030140Y029670D01*
X029140Y029670D02*
X029140Y029110D01*
X028140Y029110D02*
X028140Y029670D01*
X027140Y029670D02*
X027140Y029110D01*
X026140Y029110D02*
X026140Y029670D01*
X025140Y029670D02*
X025140Y029110D01*
X022015Y029110D02*
X022015Y029670D01*
X021015Y029670D02*
X021015Y029110D01*
X020015Y029110D02*
X020015Y029670D01*
X019015Y029670D02*
X019015Y029110D01*
X018015Y029110D02*
X018015Y029670D01*
X017015Y029670D02*
X017015Y029110D01*
X016015Y029110D02*
X016015Y029670D01*
X015015Y029670D02*
X015015Y029110D01*
X014015Y029110D02*
X014015Y029670D01*
X013015Y029670D02*
X013015Y029110D01*
X013015Y032110D02*
X013015Y032670D01*
X014015Y032670D02*
X014015Y032110D01*
X015015Y032110D02*
X015015Y032670D01*
X016015Y032670D02*
X016015Y032110D01*
X017015Y032110D02*
X017015Y032670D01*
X018015Y032670D02*
X018015Y032110D01*
X019015Y032110D02*
X019015Y032670D01*
X020015Y032670D02*
X020015Y032110D01*
X021015Y032110D02*
X021015Y032670D01*
X022015Y032670D02*
X022015Y032110D01*
X025140Y032110D02*
X025140Y032670D01*
X026140Y032670D02*
X026140Y032110D01*
X027140Y032110D02*
X027140Y032670D01*
X028140Y032670D02*
X028140Y032110D01*
X029140Y032110D02*
X029140Y032670D01*
X030140Y032670D02*
X030140Y032110D01*
X031140Y032110D02*
X031140Y032670D01*
X032140Y032670D02*
X032140Y032110D01*
X033140Y032110D02*
X033140Y032670D01*
X034140Y032670D02*
X034140Y032110D01*
X037265Y032110D02*
X037265Y032670D01*
X038265Y032670D02*
X038265Y032110D01*
X039265Y032110D02*
X039265Y032670D01*
X040265Y032670D02*
X040265Y032110D01*
X041265Y032110D02*
X041265Y032670D01*
X042265Y032670D02*
X042265Y032110D01*
X043265Y032110D02*
X043265Y032670D01*
X044265Y032670D02*
X044265Y032110D01*
X045265Y032110D02*
X045265Y032670D01*
X046265Y032670D02*
X046265Y032110D01*
X049390Y032110D02*
X049390Y032670D01*
X050390Y032670D02*
X050390Y032110D01*
X051390Y032110D02*
X051390Y032670D01*
X052390Y032670D02*
X052390Y032110D01*
X053390Y032110D02*
X053390Y032670D01*
X054390Y032670D02*
X054390Y032110D01*
X055390Y032110D02*
X055390Y032670D01*
X056390Y032670D02*
X056390Y032110D01*
X057390Y032110D02*
X057390Y032670D01*
X058390Y032670D02*
X058390Y032110D01*
X060735Y032265D02*
X061295Y032265D01*
X061295Y031265D02*
X060735Y031265D01*
X060735Y033265D02*
X061295Y033265D01*
X061295Y034265D02*
X060735Y034265D01*
X060735Y035265D02*
X061295Y035265D01*
X061295Y036265D02*
X060735Y036265D01*
X060735Y037265D02*
X061295Y037265D01*
X061295Y038265D02*
X060735Y038265D01*
X058390Y038170D02*
X058390Y037610D01*
X057390Y037610D02*
X057390Y038170D01*
X056390Y038170D02*
X056390Y037610D01*
X055390Y037610D02*
X055390Y038170D01*
X054390Y038170D02*
X054390Y037610D01*
X053390Y037610D02*
X053390Y038170D01*
X052390Y038170D02*
X052390Y037610D01*
X051390Y037610D02*
X051390Y038170D01*
X050390Y038170D02*
X050390Y037610D01*
X049390Y037610D02*
X049390Y038170D01*
X046265Y038170D02*
X046265Y037610D01*
X045265Y037610D02*
X045265Y038170D01*
X044265Y038170D02*
X044265Y037610D01*
X043265Y037610D02*
X043265Y038170D01*
X042265Y038170D02*
X042265Y037610D01*
X041265Y037610D02*
X041265Y038170D01*
X040265Y038170D02*
X040265Y037610D01*
X039265Y037610D02*
X039265Y038170D01*
X038265Y038170D02*
X038265Y037610D01*
X037265Y037610D02*
X037265Y038170D01*
X034140Y038170D02*
X034140Y037610D01*
X033140Y037610D02*
X033140Y038170D01*
X032140Y038170D02*
X032140Y037610D01*
X031140Y037610D02*
X031140Y038170D01*
X030140Y038170D02*
X030140Y037610D01*
X029140Y037610D02*
X029140Y038170D01*
X028140Y038170D02*
X028140Y037610D01*
X027140Y037610D02*
X027140Y038170D01*
X026140Y038170D02*
X026140Y037610D01*
X025140Y037610D02*
X025140Y038170D01*
X022015Y038170D02*
X022015Y037610D01*
X021015Y037610D02*
X021015Y038170D01*
X020015Y038170D02*
X020015Y037610D01*
X019015Y037610D02*
X019015Y038170D01*
X018015Y038170D02*
X018015Y037610D01*
X017015Y037610D02*
X017015Y038170D01*
X016015Y038170D02*
X016015Y037610D01*
X015015Y037610D02*
X015015Y038170D01*
X014015Y038170D02*
X014015Y037610D01*
X013015Y037610D02*
X013015Y038170D01*
X013015Y035170D02*
X013015Y034610D01*
X014015Y034610D02*
X014015Y035170D01*
X015015Y035170D02*
X015015Y034610D01*
X016015Y034610D02*
X016015Y035170D01*
X017015Y035170D02*
X017015Y034610D01*
X018015Y034610D02*
X018015Y035170D01*
X019015Y035170D02*
X019015Y034610D01*
X020015Y034610D02*
X020015Y035170D01*
X021015Y035170D02*
X021015Y034610D01*
X022015Y034610D02*
X022015Y035170D01*
X025140Y035170D02*
X025140Y034610D01*
X026140Y034610D02*
X026140Y035170D01*
X027140Y035170D02*
X027140Y034610D01*
X028140Y034610D02*
X028140Y035170D01*
X029140Y035170D02*
X029140Y034610D01*
X030140Y034610D02*
X030140Y035170D01*
X031140Y035170D02*
X031140Y034610D01*
X032140Y034610D02*
X032140Y035170D01*
X033140Y035170D02*
X033140Y034610D01*
X034140Y034610D02*
X034140Y035170D01*
X037265Y035170D02*
X037265Y034610D01*
X038265Y034610D02*
X038265Y035170D01*
X039265Y035170D02*
X039265Y034610D01*
X040265Y034610D02*
X040265Y035170D01*
X041265Y035170D02*
X041265Y034610D01*
X042265Y034610D02*
X042265Y035170D01*
X043265Y035170D02*
X043265Y034610D01*
X044265Y034610D02*
X044265Y035170D01*
X045265Y035170D02*
X045265Y034610D01*
X046265Y034610D02*
X046265Y035170D01*
X049390Y035170D02*
X049390Y034610D01*
X050390Y034610D02*
X050390Y035170D01*
X051390Y035170D02*
X051390Y034610D01*
X052390Y034610D02*
X052390Y035170D01*
X053390Y035170D02*
X053390Y034610D01*
X054390Y034610D02*
X054390Y035170D01*
X055390Y035170D02*
X055390Y034610D01*
X056390Y034610D02*
X056390Y035170D01*
X057390Y035170D02*
X057390Y034610D01*
X058390Y034610D02*
X058390Y035170D01*
X063735Y035265D02*
X064295Y035265D01*
X064295Y034265D02*
X063735Y034265D01*
X063735Y033265D02*
X064295Y033265D01*
X064295Y032265D02*
X063735Y032265D01*
X063735Y031265D02*
X064295Y031265D01*
X064295Y036265D02*
X063735Y036265D01*
X063735Y037265D02*
X064295Y037265D01*
X064295Y038265D02*
X063735Y038265D01*
X058390Y024170D02*
X058390Y023610D01*
X057390Y023610D02*
X057390Y024170D01*
X056390Y024170D02*
X056390Y023610D01*
X055390Y023610D02*
X055390Y024170D01*
X054390Y024170D02*
X054390Y023610D01*
X053390Y023610D02*
X053390Y024170D01*
X052390Y024170D02*
X052390Y023610D01*
X051390Y023610D02*
X051390Y024170D01*
X050390Y024170D02*
X050390Y023610D01*
X049390Y023610D02*
X049390Y024170D01*
X046265Y024170D02*
X046265Y023610D01*
X045265Y023610D02*
X045265Y024170D01*
X044265Y024170D02*
X044265Y023610D01*
X043265Y023610D02*
X043265Y024170D01*
X042265Y024170D02*
X042265Y023610D01*
X041265Y023610D02*
X041265Y024170D01*
X040265Y024170D02*
X040265Y023610D01*
X039265Y023610D02*
X039265Y024170D01*
X038265Y024170D02*
X038265Y023610D01*
X037265Y023610D02*
X037265Y024170D01*
X034140Y024170D02*
X034140Y023610D01*
X033140Y023610D02*
X033140Y024170D01*
X032140Y024170D02*
X032140Y023610D01*
X031140Y023610D02*
X031140Y024170D01*
X030140Y024170D02*
X030140Y023610D01*
X029140Y023610D02*
X029140Y024170D01*
X028140Y024170D02*
X028140Y023610D01*
X027140Y023610D02*
X027140Y024170D01*
X026140Y024170D02*
X026140Y023610D01*
X025140Y023610D02*
X025140Y024170D01*
D11*
X023890Y024890D03*
X023890Y026890D03*
X023890Y030390D03*
X023890Y032390D03*
X023890Y035765D03*
X023890Y037765D03*
X011890Y037765D03*
X011890Y035765D03*
X011765Y032390D03*
X009765Y032390D03*
X011765Y026890D03*
X011765Y024890D03*
X011765Y021390D03*
X011765Y019390D03*
X023890Y019390D03*
X023890Y021390D03*
X036015Y021390D03*
X036015Y019390D03*
X036015Y024890D03*
X036015Y026890D03*
X036015Y030390D03*
X036015Y032390D03*
X036015Y035890D03*
X036015Y037890D03*
X048140Y037890D03*
X048140Y035890D03*
X048140Y032390D03*
X048140Y030390D03*
X048140Y026890D03*
X048140Y024890D03*
X048140Y021390D03*
X048140Y019390D03*
X061015Y019890D03*
X063015Y019890D03*
X063015Y029890D03*
X061015Y029890D03*
X023515Y011765D03*
X023515Y009765D03*
D12*
X023890Y007140D03*
X022890Y007140D03*
X022890Y006140D03*
X023890Y006140D03*
X024890Y006140D03*
X025890Y006140D03*
X026890Y006140D03*
X026890Y007140D03*
X025890Y007140D03*
X024890Y007140D03*
X027890Y007140D03*
X028890Y007140D03*
X028890Y006140D03*
X027890Y006140D03*
X029890Y006140D03*
X030890Y006140D03*
X031890Y006140D03*
X031890Y007140D03*
X030890Y007140D03*
X029890Y007140D03*
X032890Y007140D03*
X033890Y007140D03*
X033890Y006140D03*
X032890Y006140D03*
X036890Y006140D03*
X037890Y006140D03*
X038890Y006140D03*
X038890Y007140D03*
X037890Y007140D03*
X036890Y007140D03*
X039890Y007140D03*
X040890Y007140D03*
X040890Y006140D03*
X039890Y006140D03*
X041890Y006140D03*
X042890Y006140D03*
X043890Y006140D03*
X043890Y007140D03*
X042890Y007140D03*
X041890Y007140D03*
X044890Y007140D03*
X045890Y007140D03*
X045890Y006140D03*
X044890Y006140D03*
X046890Y006140D03*
X047890Y006140D03*
X048890Y006140D03*
X048890Y007140D03*
X047890Y007140D03*
X046890Y007140D03*
X049890Y007140D03*
X050890Y007140D03*
X050890Y006140D03*
X049890Y006140D03*
X051890Y006140D03*
X052890Y006140D03*
X052890Y007140D03*
X051890Y007140D03*
X053890Y007140D03*
X053890Y006140D03*
X059265Y006140D03*
X060265Y006140D03*
X060265Y007140D03*
X059265Y007140D03*
X059265Y010140D03*
X060265Y010140D03*
X060265Y011140D03*
X059265Y011140D03*
X059265Y012140D03*
X060265Y012140D03*
X060265Y013140D03*
X059265Y013140D03*
X059265Y014140D03*
X060265Y014140D03*
X060265Y015140D03*
X059265Y015140D03*
X059265Y016140D03*
X060265Y016140D03*
X060265Y017140D03*
X059265Y017140D03*
X059265Y040140D03*
X060265Y040140D03*
X060265Y041140D03*
X059265Y041140D03*
X021890Y007140D03*
X020890Y007140D03*
X019890Y007140D03*
X019890Y006140D03*
X020890Y006140D03*
X021890Y006140D03*
X018890Y006140D03*
X017890Y006140D03*
X017890Y007140D03*
X018890Y007140D03*
X016890Y007140D03*
X015890Y007140D03*
X015890Y006140D03*
X016890Y006140D03*
X014890Y006140D03*
X013890Y006140D03*
X012890Y006140D03*
X012890Y007140D03*
X013890Y007140D03*
X014890Y007140D03*
X011890Y007140D03*
X010890Y007140D03*
X010890Y006140D03*
X011890Y006140D03*
X008390Y006140D03*
X007390Y006140D03*
X007390Y007140D03*
X008390Y007140D03*
X006765Y030140D03*
X005765Y030140D03*
X005765Y031140D03*
X006765Y031140D03*
X006765Y032140D03*
X005765Y032140D03*
X005765Y033140D03*
X006765Y033140D03*
X006765Y034140D03*
X005765Y034140D03*
X005765Y035140D03*
X006765Y035140D03*
X006765Y036140D03*
X005765Y036140D03*
X005765Y037140D03*
X006765Y037140D03*
X007390Y040140D03*
X008390Y040140D03*
X008390Y041140D03*
X007390Y041140D03*
D13*
X062390Y008140D03*
D14*
X062390Y007140D03*
D15*
X004270Y005423D02*
X004270Y004270D01*
X066502Y004270D01*
X066502Y005157D01*
X066236Y005003D01*
X065926Y004920D01*
X065604Y004920D01*
X065294Y005003D01*
X065016Y005164D01*
X064789Y005391D01*
X064628Y005669D01*
X064545Y005979D01*
X064545Y006301D01*
X064628Y006611D01*
X064789Y006889D01*
X065016Y007116D01*
X065294Y007277D01*
X065604Y007360D01*
X065926Y007360D01*
X066236Y007277D01*
X066502Y007123D01*
X066502Y040157D01*
X066236Y040003D01*
X065926Y039920D01*
X065604Y039920D01*
X065294Y040003D01*
X065016Y040164D01*
X064789Y040391D01*
X064628Y040669D01*
X064545Y040979D01*
X060905Y040979D01*
X060905Y040875D02*
X060905Y041120D01*
X060285Y041120D01*
X060285Y041160D01*
X060905Y041160D01*
X060905Y041405D01*
X060530Y041780D01*
X060285Y041780D01*
X060285Y041160D01*
X060245Y041160D01*
X060245Y041780D01*
X060000Y041780D01*
X059765Y041545D01*
X059530Y041780D01*
X059285Y041780D01*
X059285Y041160D01*
X059245Y041160D01*
X059245Y041780D01*
X059000Y041780D01*
X058625Y041405D01*
X058625Y041160D01*
X059245Y041160D01*
X059245Y041120D01*
X058625Y041120D01*
X058625Y040875D01*
X058860Y040640D01*
X058625Y040405D01*
X058625Y040160D01*
X059245Y040160D01*
X059245Y041120D01*
X059285Y041120D01*
X059285Y041160D01*
X060245Y041160D01*
X060245Y041120D01*
X059625Y041120D01*
X059285Y041120D01*
X059285Y040500D01*
X059285Y040160D01*
X059245Y040160D01*
X059245Y040120D01*
X059285Y040120D01*
X059285Y040160D01*
X060245Y040160D01*
X060245Y041120D01*
X060285Y041120D01*
X060285Y040500D01*
X060285Y040160D01*
X060905Y040160D01*
X060905Y040405D01*
X060670Y040640D01*
X060905Y040875D01*
X060851Y040821D02*
X064588Y040821D01*
X064545Y040979D02*
X064545Y041301D01*
X064628Y041611D01*
X064789Y041889D01*
X065016Y042116D01*
X065294Y042277D01*
X065604Y042360D01*
X065926Y042360D01*
X066236Y042277D01*
X066502Y042123D01*
X066502Y042880D01*
X004270Y042880D01*
X004270Y041857D01*
X004289Y041889D01*
X004516Y042116D01*
X004794Y042277D01*
X005104Y042360D01*
X005426Y042360D01*
X005736Y042277D01*
X006014Y042116D01*
X006241Y041889D01*
X006402Y041611D01*
X006485Y041301D01*
X006485Y040979D01*
X006750Y040979D01*
X006750Y040875D02*
X006985Y040640D01*
X006750Y040405D01*
X006750Y039875D01*
X007125Y039500D01*
X007655Y039500D01*
X007815Y039660D01*
X007965Y039660D01*
X008125Y039500D01*
X008476Y039500D01*
X010410Y037566D01*
X010410Y022170D01*
X010483Y021993D01*
X010618Y021858D01*
X011165Y021311D01*
X011165Y021141D01*
X011516Y020790D01*
X011865Y020790D01*
X011865Y019990D01*
X011765Y019990D01*
X011765Y019390D01*
X011765Y019390D01*
X011765Y018790D01*
X011865Y018790D01*
X011865Y015935D01*
X011926Y015788D01*
X012990Y014724D01*
X012990Y007780D01*
X012625Y007780D01*
X012390Y007545D01*
X012155Y007780D01*
X011625Y007780D01*
X011390Y007545D01*
X011155Y007780D01*
X010625Y007780D01*
X010250Y007405D01*
X010250Y006875D01*
X010485Y006640D01*
X010250Y006405D01*
X010250Y005875D01*
X010625Y005500D01*
X010714Y005500D01*
X011176Y005038D01*
X011288Y004926D01*
X011435Y004865D01*
X013970Y004865D01*
X014117Y004926D01*
X014617Y005426D01*
X014691Y005500D01*
X015155Y005500D01*
X015390Y005735D01*
X015625Y005500D01*
X016155Y005500D01*
X016390Y005735D01*
X016625Y005500D01*
X017155Y005500D01*
X017390Y005735D01*
X017625Y005500D01*
X018155Y005500D01*
X018390Y005735D01*
X018625Y005500D01*
X019155Y005500D01*
X019390Y005735D01*
X019625Y005500D01*
X020155Y005500D01*
X020390Y005735D01*
X020625Y005500D01*
X021155Y005500D01*
X021390Y005735D01*
X021625Y005500D01*
X022155Y005500D01*
X022390Y005735D01*
X022625Y005500D01*
X023155Y005500D01*
X023390Y005735D01*
X023625Y005500D01*
X024155Y005500D01*
X024390Y005735D01*
X024625Y005500D01*
X025155Y005500D01*
X025390Y005735D01*
X025625Y005500D01*
X026155Y005500D01*
X026390Y005735D01*
X026625Y005500D01*
X027155Y005500D01*
X027390Y005735D01*
X027625Y005500D01*
X028155Y005500D01*
X028390Y005735D01*
X028625Y005500D01*
X029155Y005500D01*
X029390Y005735D01*
X029625Y005500D01*
X030155Y005500D01*
X030390Y005735D01*
X030625Y005500D01*
X031155Y005500D01*
X031390Y005735D01*
X031625Y005500D01*
X032155Y005500D01*
X032390Y005735D01*
X032625Y005500D01*
X033155Y005500D01*
X033390Y005735D01*
X033625Y005500D01*
X034155Y005500D01*
X034530Y005875D01*
X034530Y006405D01*
X034295Y006640D01*
X034530Y006875D01*
X034530Y007405D01*
X034320Y007615D01*
X036460Y007615D01*
X036250Y007405D01*
X036250Y006875D01*
X036485Y006640D01*
X036250Y006405D01*
X036250Y005875D01*
X036625Y005500D01*
X037155Y005500D01*
X037390Y005735D01*
X037625Y005500D01*
X038155Y005500D01*
X038390Y005735D01*
X038625Y005500D01*
X039155Y005500D01*
X039390Y005735D01*
X039625Y005500D01*
X040155Y005500D01*
X040390Y005735D01*
X040625Y005500D01*
X041155Y005500D01*
X041390Y005735D01*
X041625Y005500D01*
X042155Y005500D01*
X042390Y005735D01*
X042625Y005500D01*
X043155Y005500D01*
X043390Y005735D01*
X043625Y005500D01*
X044155Y005500D01*
X044390Y005735D01*
X044625Y005500D01*
X044714Y005500D01*
X044926Y005288D01*
X045038Y005176D01*
X045185Y005115D01*
X055220Y005115D01*
X055367Y005176D01*
X058431Y008240D01*
X060470Y008240D01*
X060617Y008301D01*
X061492Y009176D01*
X061604Y009288D01*
X061665Y009435D01*
X061665Y018345D01*
X061604Y018492D01*
X060806Y019290D01*
X060936Y019290D01*
X061608Y018618D01*
X061743Y018483D01*
X061920Y018410D01*
X064910Y018410D01*
X064910Y009964D01*
X063025Y008079D01*
X063025Y008140D01*
X063025Y008403D01*
X062653Y008775D01*
X062390Y008775D01*
X062390Y008140D01*
X062390Y008140D01*
X063025Y008140D01*
X062390Y008140D01*
X062390Y008140D01*
X062390Y008140D01*
X061755Y008140D01*
X061755Y008403D01*
X062127Y008775D01*
X062390Y008775D01*
X062390Y008140D01*
X061755Y008140D01*
X061755Y007877D01*
X061992Y007640D01*
X061972Y007620D01*
X060690Y007620D01*
X060530Y007780D01*
X060000Y007780D01*
X059840Y007620D01*
X059690Y007620D01*
X059530Y007780D01*
X059000Y007780D01*
X058625Y007405D01*
X058625Y006875D01*
X058785Y006715D01*
X058785Y006565D01*
X058625Y006405D01*
X058625Y005875D01*
X059000Y005500D01*
X059530Y005500D01*
X059765Y005735D01*
X060000Y005500D01*
X060530Y005500D01*
X060905Y005875D01*
X060905Y006405D01*
X060745Y006565D01*
X060745Y006660D01*
X061972Y006660D01*
X062030Y006602D01*
X062264Y006505D01*
X062516Y006505D01*
X062750Y006602D01*
X062808Y006660D01*
X062860Y006660D01*
X063037Y006733D01*
X063172Y006868D01*
X063172Y006868D01*
X065662Y009358D01*
X065797Y009493D01*
X065870Y009670D01*
X065870Y028814D01*
X065873Y028817D01*
X065960Y029027D01*
X065960Y029253D01*
X065873Y029463D01*
X065870Y029466D01*
X065870Y038485D01*
X065797Y038662D01*
X065172Y039287D01*
X065037Y039422D01*
X064860Y039495D01*
X057714Y039495D01*
X057162Y040047D01*
X055797Y041412D01*
X055662Y041547D01*
X055485Y041620D01*
X008815Y041620D01*
X008655Y041780D01*
X008125Y041780D01*
X007965Y041620D01*
X007815Y041620D01*
X007655Y041780D01*
X007125Y041780D01*
X006750Y041405D01*
X006750Y040875D01*
X006804Y040821D02*
X006442Y040821D01*
X006402Y040669D02*
X006485Y040979D01*
X006485Y041138D02*
X006750Y041138D01*
X006750Y041296D02*
X006485Y041296D01*
X006444Y041455D02*
X006799Y041455D01*
X006958Y041613D02*
X006401Y041613D01*
X006309Y041772D02*
X007116Y041772D01*
X007664Y041772D02*
X008116Y041772D01*
X008664Y041772D02*
X058991Y041772D01*
X058833Y041613D02*
X055502Y041613D01*
X055754Y041455D02*
X058674Y041455D01*
X058625Y041296D02*
X055913Y041296D01*
X055797Y041412D02*
X055797Y041412D01*
X056071Y041138D02*
X059245Y041138D01*
X059285Y041138D02*
X060245Y041138D01*
X060285Y041138D02*
X064545Y041138D01*
X064545Y041296D02*
X060905Y041296D01*
X060856Y041455D02*
X064586Y041455D01*
X064629Y041613D02*
X060697Y041613D01*
X060539Y041772D02*
X064721Y041772D01*
X064830Y041930D02*
X006200Y041930D01*
X006042Y042089D02*
X064988Y042089D01*
X065242Y042247D02*
X005788Y042247D01*
X004742Y042247D02*
X004270Y042247D01*
X004270Y042089D02*
X004488Y042089D01*
X004330Y041930D02*
X004270Y041930D01*
X004270Y042406D02*
X066502Y042406D01*
X066502Y042564D02*
X004270Y042564D01*
X004270Y042723D02*
X066502Y042723D01*
X066502Y042247D02*
X066288Y042247D01*
X064632Y040662D02*
X060692Y040662D01*
X060807Y040504D02*
X064724Y040504D01*
X064835Y040345D02*
X060905Y040345D01*
X060905Y040187D02*
X064993Y040187D01*
X065251Y040028D02*
X060905Y040028D01*
X060905Y040120D02*
X060905Y039875D01*
X060530Y039500D01*
X060285Y039500D01*
X060285Y040120D01*
X060285Y040160D01*
X060245Y040160D01*
X060245Y040120D01*
X060285Y040120D01*
X060905Y040120D01*
X060900Y039870D02*
X066502Y039870D01*
X066502Y040028D02*
X066279Y040028D01*
X066502Y039711D02*
X060741Y039711D01*
X060583Y039553D02*
X066502Y039553D01*
X066502Y039394D02*
X065065Y039394D01*
X065172Y039287D02*
X065172Y039287D01*
X065223Y039236D02*
X066502Y039236D01*
X066502Y039077D02*
X065382Y039077D01*
X065540Y038919D02*
X066502Y038919D01*
X066502Y038760D02*
X065699Y038760D01*
X065822Y038602D02*
X066502Y038602D01*
X066502Y038443D02*
X065870Y038443D01*
X065870Y038285D02*
X066502Y038285D01*
X066502Y038126D02*
X065870Y038126D01*
X065870Y037968D02*
X066502Y037968D01*
X066502Y037809D02*
X065870Y037809D01*
X065870Y037651D02*
X066502Y037651D01*
X066502Y037492D02*
X065870Y037492D01*
X065870Y037334D02*
X066502Y037334D01*
X066502Y037175D02*
X065870Y037175D01*
X065870Y037017D02*
X066502Y037017D01*
X066502Y036858D02*
X065870Y036858D01*
X065870Y036700D02*
X066502Y036700D01*
X066502Y036541D02*
X065870Y036541D01*
X065870Y036383D02*
X066502Y036383D01*
X066502Y036224D02*
X065870Y036224D01*
X065870Y036066D02*
X066502Y036066D01*
X066502Y035907D02*
X065870Y035907D01*
X065870Y035749D02*
X066502Y035749D01*
X066502Y035590D02*
X065870Y035590D01*
X065870Y035432D02*
X066502Y035432D01*
X066502Y035273D02*
X065870Y035273D01*
X065870Y035115D02*
X066502Y035115D01*
X066502Y034956D02*
X065870Y034956D01*
X065870Y034798D02*
X066502Y034798D01*
X066502Y034639D02*
X065870Y034639D01*
X065870Y034481D02*
X066502Y034481D01*
X066502Y034322D02*
X065870Y034322D01*
X065870Y034164D02*
X066502Y034164D01*
X066502Y034005D02*
X065870Y034005D01*
X065870Y033847D02*
X066502Y033847D01*
X066502Y033688D02*
X065870Y033688D01*
X065870Y033530D02*
X066502Y033530D01*
X066502Y033371D02*
X065870Y033371D01*
X065870Y033213D02*
X066502Y033213D01*
X066502Y033054D02*
X065870Y033054D01*
X065870Y032896D02*
X066502Y032896D01*
X066502Y032737D02*
X065870Y032737D01*
X065870Y032579D02*
X066502Y032579D01*
X066502Y032420D02*
X065870Y032420D01*
X065870Y032262D02*
X066502Y032262D01*
X066502Y032103D02*
X065870Y032103D01*
X065870Y031945D02*
X066502Y031945D01*
X066502Y031786D02*
X065870Y031786D01*
X065870Y031628D02*
X066502Y031628D01*
X066502Y031469D02*
X065870Y031469D01*
X065870Y031311D02*
X066502Y031311D01*
X066502Y031152D02*
X065870Y031152D01*
X065870Y030994D02*
X066502Y030994D01*
X066502Y030835D02*
X065870Y030835D01*
X065870Y030677D02*
X066502Y030677D01*
X066502Y030518D02*
X065870Y030518D01*
X065870Y030360D02*
X066502Y030360D01*
X066502Y030201D02*
X065870Y030201D01*
X065870Y030043D02*
X066502Y030043D01*
X066502Y029884D02*
X065870Y029884D01*
X065870Y029726D02*
X066502Y029726D01*
X066502Y029567D02*
X065870Y029567D01*
X065896Y029409D02*
X066502Y029409D01*
X066502Y029250D02*
X065960Y029250D01*
X065960Y029092D02*
X066502Y029092D01*
X066502Y028933D02*
X065921Y028933D01*
X065870Y028775D02*
X066502Y028775D01*
X066502Y028616D02*
X065870Y028616D01*
X065870Y028458D02*
X066502Y028458D01*
X066502Y028299D02*
X065870Y028299D01*
X065870Y028141D02*
X066502Y028141D01*
X066502Y027982D02*
X065870Y027982D01*
X065870Y027824D02*
X066502Y027824D01*
X066502Y027665D02*
X065870Y027665D01*
X065870Y027507D02*
X066502Y027507D01*
X066502Y027348D02*
X065870Y027348D01*
X065870Y027190D02*
X066502Y027190D01*
X066502Y027031D02*
X065870Y027031D01*
X065870Y026873D02*
X066502Y026873D01*
X066502Y026714D02*
X065870Y026714D01*
X065870Y026556D02*
X066502Y026556D01*
X066502Y026397D02*
X065870Y026397D01*
X065870Y026239D02*
X066502Y026239D01*
X066502Y026080D02*
X065870Y026080D01*
X065870Y025922D02*
X066502Y025922D01*
X066502Y025763D02*
X065870Y025763D01*
X065870Y025605D02*
X066502Y025605D01*
X066502Y025446D02*
X065870Y025446D01*
X065870Y025288D02*
X066502Y025288D01*
X066502Y025129D02*
X065870Y025129D01*
X065870Y024971D02*
X066502Y024971D01*
X066502Y024812D02*
X065870Y024812D01*
X065870Y024654D02*
X066502Y024654D01*
X066502Y024495D02*
X065870Y024495D01*
X065870Y024337D02*
X066502Y024337D01*
X066502Y024178D02*
X065870Y024178D01*
X065870Y024020D02*
X066502Y024020D01*
X066502Y023861D02*
X065870Y023861D01*
X065870Y023703D02*
X066502Y023703D01*
X066502Y023544D02*
X065870Y023544D01*
X065870Y023386D02*
X066502Y023386D01*
X066502Y023227D02*
X065870Y023227D01*
X065870Y023069D02*
X066502Y023069D01*
X066502Y022910D02*
X065870Y022910D01*
X065870Y022752D02*
X066502Y022752D01*
X066502Y022593D02*
X065870Y022593D01*
X065870Y022435D02*
X066502Y022435D01*
X066502Y022276D02*
X065870Y022276D01*
X065870Y022118D02*
X066502Y022118D01*
X066502Y021959D02*
X065870Y021959D01*
X065870Y021801D02*
X066502Y021801D01*
X066502Y021642D02*
X065870Y021642D01*
X065870Y021484D02*
X066502Y021484D01*
X066502Y021325D02*
X065870Y021325D01*
X065870Y021167D02*
X066502Y021167D01*
X066502Y021008D02*
X065870Y021008D01*
X065870Y020850D02*
X066502Y020850D01*
X066502Y020691D02*
X065870Y020691D01*
X065870Y020533D02*
X066502Y020533D01*
X066502Y020374D02*
X065870Y020374D01*
X065870Y020216D02*
X066502Y020216D01*
X066502Y020057D02*
X065870Y020057D01*
X065870Y019899D02*
X066502Y019899D01*
X066502Y019740D02*
X065870Y019740D01*
X065870Y019582D02*
X066502Y019582D01*
X066502Y019423D02*
X065870Y019423D01*
X065870Y019265D02*
X066502Y019265D01*
X066502Y019106D02*
X065870Y019106D01*
X065870Y018948D02*
X066502Y018948D01*
X066502Y018789D02*
X065870Y018789D01*
X065870Y018631D02*
X066502Y018631D01*
X066502Y018472D02*
X065870Y018472D01*
X065870Y018314D02*
X066502Y018314D01*
X066502Y018155D02*
X065870Y018155D01*
X065870Y017997D02*
X066502Y017997D01*
X066502Y017838D02*
X065870Y017838D01*
X065870Y017680D02*
X066502Y017680D01*
X066502Y017521D02*
X065870Y017521D01*
X065870Y017363D02*
X066502Y017363D01*
X066502Y017204D02*
X065870Y017204D01*
X065870Y017046D02*
X066502Y017046D01*
X066502Y016887D02*
X065870Y016887D01*
X065870Y016729D02*
X066502Y016729D01*
X066502Y016570D02*
X065870Y016570D01*
X065870Y016412D02*
X066502Y016412D01*
X066502Y016253D02*
X065870Y016253D01*
X065870Y016095D02*
X066502Y016095D01*
X066502Y015936D02*
X065870Y015936D01*
X065870Y015778D02*
X066502Y015778D01*
X066502Y015619D02*
X065870Y015619D01*
X065870Y015461D02*
X066502Y015461D01*
X066502Y015302D02*
X065870Y015302D01*
X065870Y015144D02*
X066502Y015144D01*
X066502Y014985D02*
X065870Y014985D01*
X065870Y014827D02*
X066502Y014827D01*
X066502Y014668D02*
X065870Y014668D01*
X065870Y014510D02*
X066502Y014510D01*
X066502Y014351D02*
X065870Y014351D01*
X065870Y014193D02*
X066502Y014193D01*
X066502Y014034D02*
X065870Y014034D01*
X065870Y013876D02*
X066502Y013876D01*
X066502Y013717D02*
X065870Y013717D01*
X065870Y013559D02*
X066502Y013559D01*
X066502Y013400D02*
X065870Y013400D01*
X065870Y013242D02*
X066502Y013242D01*
X066502Y013083D02*
X065870Y013083D01*
X065870Y012925D02*
X066502Y012925D01*
X066502Y012766D02*
X065870Y012766D01*
X065870Y012608D02*
X066502Y012608D01*
X066502Y012449D02*
X065870Y012449D01*
X065870Y012291D02*
X066502Y012291D01*
X066502Y012132D02*
X065870Y012132D01*
X065870Y011974D02*
X066502Y011974D01*
X066502Y011815D02*
X065870Y011815D01*
X065870Y011657D02*
X066502Y011657D01*
X066502Y011498D02*
X065870Y011498D01*
X065870Y011340D02*
X066502Y011340D01*
X066502Y011181D02*
X065870Y011181D01*
X065870Y011023D02*
X066502Y011023D01*
X066502Y010864D02*
X065870Y010864D01*
X065870Y010706D02*
X066502Y010706D01*
X066502Y010547D02*
X065870Y010547D01*
X065870Y010389D02*
X066502Y010389D01*
X066502Y010230D02*
X065870Y010230D01*
X065870Y010072D02*
X066502Y010072D01*
X066502Y009913D02*
X065870Y009913D01*
X065870Y009755D02*
X066502Y009755D01*
X066502Y009596D02*
X065840Y009596D01*
X065741Y009438D02*
X066502Y009438D01*
X066502Y009279D02*
X065583Y009279D01*
X065424Y009121D02*
X066502Y009121D01*
X066502Y008962D02*
X065266Y008962D01*
X065107Y008804D02*
X066502Y008804D01*
X066502Y008645D02*
X064949Y008645D01*
X064790Y008487D02*
X066502Y008487D01*
X066502Y008328D02*
X064632Y008328D01*
X064473Y008170D02*
X066502Y008170D01*
X066502Y008011D02*
X064315Y008011D01*
X064156Y007853D02*
X066502Y007853D01*
X066502Y007694D02*
X063998Y007694D01*
X063839Y007536D02*
X066502Y007536D01*
X066502Y007377D02*
X063681Y007377D01*
X063522Y007219D02*
X065193Y007219D01*
X064960Y007060D02*
X063364Y007060D01*
X063205Y006902D02*
X064801Y006902D01*
X064704Y006743D02*
X063047Y006743D01*
X062708Y006585D02*
X064621Y006585D01*
X064579Y006426D02*
X060884Y006426D01*
X060905Y006268D02*
X064545Y006268D01*
X064545Y006109D02*
X060905Y006109D01*
X060905Y005951D02*
X064553Y005951D01*
X064595Y005792D02*
X060822Y005792D01*
X060664Y005634D02*
X064649Y005634D01*
X064740Y005475D02*
X055666Y005475D01*
X055824Y005634D02*
X058866Y005634D01*
X058708Y005792D02*
X055983Y005792D01*
X056141Y005951D02*
X058625Y005951D01*
X058625Y006109D02*
X056300Y006109D01*
X056458Y006268D02*
X058625Y006268D01*
X058646Y006426D02*
X056617Y006426D01*
X056775Y006585D02*
X058785Y006585D01*
X058757Y006743D02*
X056934Y006743D01*
X057092Y006902D02*
X058625Y006902D01*
X058625Y007060D02*
X057251Y007060D01*
X057409Y007219D02*
X058625Y007219D01*
X058625Y007377D02*
X057568Y007377D01*
X057726Y007536D02*
X058755Y007536D01*
X058914Y007694D02*
X057885Y007694D01*
X058043Y007853D02*
X061779Y007853D01*
X061755Y008011D02*
X058202Y008011D01*
X058360Y008170D02*
X061755Y008170D01*
X061755Y008328D02*
X060644Y008328D01*
X060802Y008487D02*
X061838Y008487D01*
X061997Y008645D02*
X060961Y008645D01*
X061119Y008804D02*
X063750Y008804D01*
X063908Y008962D02*
X061278Y008962D01*
X061436Y009121D02*
X064067Y009121D01*
X064225Y009279D02*
X061595Y009279D01*
X061665Y009438D02*
X064384Y009438D01*
X064542Y009596D02*
X061665Y009596D01*
X061665Y009755D02*
X064701Y009755D01*
X064859Y009913D02*
X061665Y009913D01*
X061665Y010072D02*
X064910Y010072D01*
X064910Y010230D02*
X061665Y010230D01*
X061665Y010389D02*
X064910Y010389D01*
X064910Y010547D02*
X061665Y010547D01*
X061665Y010706D02*
X064910Y010706D01*
X064910Y010864D02*
X061665Y010864D01*
X061665Y011023D02*
X064910Y011023D01*
X064910Y011181D02*
X061665Y011181D01*
X061665Y011340D02*
X064910Y011340D01*
X064910Y011498D02*
X061665Y011498D01*
X061665Y011657D02*
X064910Y011657D01*
X064910Y011815D02*
X061665Y011815D01*
X061665Y011974D02*
X064910Y011974D01*
X064910Y012132D02*
X061665Y012132D01*
X061665Y012291D02*
X064910Y012291D01*
X064910Y012449D02*
X061665Y012449D01*
X061665Y012608D02*
X064910Y012608D01*
X064910Y012766D02*
X061665Y012766D01*
X061665Y012925D02*
X064910Y012925D01*
X064910Y013083D02*
X061665Y013083D01*
X061665Y013242D02*
X064910Y013242D01*
X064910Y013400D02*
X061665Y013400D01*
X061665Y013559D02*
X064910Y013559D01*
X064910Y013717D02*
X061665Y013717D01*
X061665Y013876D02*
X064910Y013876D01*
X064910Y014034D02*
X061665Y014034D01*
X061665Y014193D02*
X064910Y014193D01*
X064910Y014351D02*
X061665Y014351D01*
X061665Y014510D02*
X064910Y014510D01*
X064910Y014668D02*
X061665Y014668D01*
X061665Y014827D02*
X064910Y014827D01*
X064910Y014985D02*
X061665Y014985D01*
X061665Y015144D02*
X064910Y015144D01*
X064910Y015302D02*
X061665Y015302D01*
X061665Y015461D02*
X064910Y015461D01*
X064910Y015619D02*
X061665Y015619D01*
X061665Y015778D02*
X064910Y015778D01*
X064910Y015936D02*
X061665Y015936D01*
X061665Y016095D02*
X064910Y016095D01*
X064910Y016253D02*
X061665Y016253D01*
X061665Y016412D02*
X064910Y016412D01*
X064910Y016570D02*
X061665Y016570D01*
X061665Y016729D02*
X064910Y016729D01*
X064910Y016887D02*
X061665Y016887D01*
X061665Y017046D02*
X064910Y017046D01*
X064910Y017204D02*
X061665Y017204D01*
X061665Y017363D02*
X064910Y017363D01*
X064910Y017521D02*
X061665Y017521D01*
X061665Y017680D02*
X064910Y017680D01*
X064910Y017838D02*
X061665Y017838D01*
X061665Y017997D02*
X064910Y017997D01*
X064910Y018155D02*
X061665Y018155D01*
X061665Y018314D02*
X064910Y018314D01*
X064910Y019370D02*
X063344Y019370D01*
X063615Y019641D01*
X063615Y019890D01*
X063615Y020139D01*
X063264Y020490D01*
X063015Y020490D01*
X063015Y019890D01*
X063015Y019890D01*
X063615Y019890D01*
X063015Y019890D01*
X063015Y019890D01*
X063015Y019890D01*
X062415Y019890D01*
X062415Y020139D01*
X062766Y020490D01*
X063015Y020490D01*
X063015Y019890D01*
X062415Y019890D01*
X062415Y019641D01*
X062686Y019370D01*
X062214Y019370D01*
X061615Y019969D01*
X061615Y020139D01*
X061495Y020259D01*
X061495Y020698D01*
X061635Y020756D01*
X061804Y020925D01*
X061895Y021146D01*
X061895Y021384D01*
X061804Y021605D01*
X061637Y021772D01*
X061686Y021807D01*
X061753Y021874D01*
X061808Y021951D01*
X061851Y022035D01*
X061880Y022124D01*
X061895Y022218D01*
X061895Y022265D01*
X061895Y022312D01*
X061880Y022405D01*
X061851Y022495D01*
X061808Y022579D01*
X061753Y022656D01*
X061686Y022723D01*
X061637Y022758D01*
X061804Y022925D01*
X061848Y023032D01*
X061854Y023038D01*
X062229Y023413D01*
X062290Y023560D01*
X062290Y026470D01*
X062229Y026617D01*
X062117Y026729D01*
X061838Y027008D01*
X061848Y027032D01*
X062117Y027301D01*
X062229Y027413D01*
X062290Y027560D01*
X062290Y028595D01*
X062229Y028742D01*
X061472Y029499D01*
X061615Y029641D01*
X061615Y030139D01*
X061495Y030259D01*
X061495Y030698D01*
X061635Y030756D01*
X061804Y030925D01*
X061848Y031032D01*
X061854Y031038D01*
X062229Y031413D01*
X062290Y031560D01*
X062290Y032970D01*
X062229Y033117D01*
X062117Y033229D01*
X062081Y033265D01*
X062229Y033413D01*
X062290Y033560D01*
X062290Y034865D01*
X063286Y034865D01*
X063386Y034765D01*
X063226Y034605D01*
X063135Y034384D01*
X063135Y034146D01*
X063226Y033925D01*
X063386Y033765D01*
X063226Y033605D01*
X063182Y033498D01*
X062913Y033229D01*
X062801Y033117D01*
X062740Y032970D01*
X062740Y030685D01*
X062801Y030538D01*
X062849Y030490D01*
X062766Y030490D01*
X062415Y030139D01*
X062415Y029890D01*
X063015Y029890D01*
X063015Y029890D01*
X062415Y029890D01*
X062415Y029641D01*
X062766Y029290D01*
X062849Y029290D01*
X062538Y028979D01*
X062426Y028867D01*
X062365Y028720D01*
X062365Y022935D01*
X062426Y022788D01*
X063176Y022038D01*
X063182Y022032D01*
X063226Y021925D01*
X063386Y021765D01*
X063226Y021605D01*
X063135Y021384D01*
X063135Y021146D01*
X063226Y020925D01*
X063395Y020756D01*
X063616Y020665D01*
X064414Y020665D01*
X064635Y020756D01*
X064760Y020882D01*
X064867Y020926D01*
X064910Y020969D01*
X064910Y019370D01*
X064910Y019423D02*
X063397Y019423D01*
X063555Y019582D02*
X064910Y019582D01*
X064910Y019740D02*
X063615Y019740D01*
X063615Y019899D02*
X064910Y019899D01*
X064910Y020057D02*
X063615Y020057D01*
X063538Y020216D02*
X064910Y020216D01*
X064910Y020374D02*
X063380Y020374D01*
X063553Y020691D02*
X061495Y020691D01*
X061495Y020533D02*
X064910Y020533D01*
X064910Y020691D02*
X064477Y020691D01*
X064728Y020850D02*
X064910Y020850D01*
X064640Y021265D02*
X064015Y021265D01*
X064640Y021265D02*
X064890Y021515D01*
X064890Y022515D01*
X064640Y022765D01*
X063515Y022765D01*
X063140Y023140D01*
X063140Y028515D01*
X064015Y029390D01*
X064015Y031265D01*
X063140Y030765D02*
X063640Y030265D01*
X063640Y029515D01*
X062765Y028640D01*
X062765Y023015D01*
X063515Y022265D01*
X064015Y022265D01*
X063351Y021801D02*
X061676Y021801D01*
X061766Y021642D02*
X063264Y021642D01*
X063176Y021484D02*
X061854Y021484D01*
X061895Y021325D02*
X063135Y021325D01*
X063135Y021167D02*
X061895Y021167D01*
X061838Y021008D02*
X063192Y021008D01*
X063302Y020850D02*
X061728Y020850D01*
X061495Y020374D02*
X062650Y020374D01*
X062492Y020216D02*
X061538Y020216D01*
X061615Y020057D02*
X062415Y020057D01*
X062415Y019899D02*
X061685Y019899D01*
X061844Y019740D02*
X062415Y019740D01*
X062475Y019582D02*
X062002Y019582D01*
X062161Y019423D02*
X062633Y019423D01*
X063015Y019899D02*
X063015Y019899D01*
X063015Y020057D02*
X063015Y020057D01*
X063015Y020216D02*
X063015Y020216D01*
X063015Y020374D02*
X063015Y020374D01*
X061015Y021265D02*
X060515Y021265D01*
X060140Y021640D01*
X060140Y023890D01*
X060515Y024265D01*
X061015Y024265D01*
X061890Y023640D02*
X061515Y023265D01*
X061015Y023265D01*
X061646Y022752D02*
X062463Y022752D01*
X062376Y022910D02*
X061789Y022910D01*
X061884Y023069D02*
X062365Y023069D01*
X062365Y023227D02*
X062043Y023227D01*
X062201Y023386D02*
X062365Y023386D01*
X062365Y023544D02*
X062283Y023544D01*
X062290Y023703D02*
X062365Y023703D01*
X062365Y023861D02*
X062290Y023861D01*
X062290Y024020D02*
X062365Y024020D01*
X062365Y024178D02*
X062290Y024178D01*
X062290Y024337D02*
X062365Y024337D01*
X062365Y024495D02*
X062290Y024495D01*
X062290Y024654D02*
X062365Y024654D01*
X062365Y024812D02*
X062290Y024812D01*
X062290Y024971D02*
X062365Y024971D01*
X062365Y025129D02*
X062290Y025129D01*
X062290Y025288D02*
X062365Y025288D01*
X062365Y025446D02*
X062290Y025446D01*
X062290Y025605D02*
X062365Y025605D01*
X062365Y025763D02*
X062290Y025763D01*
X062290Y025922D02*
X062365Y025922D01*
X062365Y026080D02*
X062290Y026080D01*
X062290Y026239D02*
X062365Y026239D01*
X062365Y026397D02*
X062290Y026397D01*
X062254Y026556D02*
X062365Y026556D01*
X062365Y026714D02*
X062132Y026714D01*
X061973Y026873D02*
X062365Y026873D01*
X062365Y027031D02*
X061848Y027031D01*
X062005Y027190D02*
X062365Y027190D01*
X062365Y027348D02*
X062164Y027348D01*
X062268Y027507D02*
X062365Y027507D01*
X062365Y027665D02*
X062290Y027665D01*
X062290Y027824D02*
X062365Y027824D01*
X062365Y027982D02*
X062290Y027982D01*
X062290Y028141D02*
X062365Y028141D01*
X062365Y028299D02*
X062290Y028299D01*
X062290Y028458D02*
X062365Y028458D01*
X062365Y028616D02*
X062281Y028616D01*
X062196Y028775D02*
X062388Y028775D01*
X062492Y028933D02*
X062038Y028933D01*
X061879Y029092D02*
X062651Y029092D01*
X062809Y029250D02*
X061721Y029250D01*
X061562Y029409D02*
X062648Y029409D01*
X062489Y029567D02*
X061541Y029567D01*
X061615Y029726D02*
X062415Y029726D01*
X062415Y029884D02*
X061615Y029884D01*
X061615Y030043D02*
X062415Y030043D01*
X062478Y030201D02*
X061552Y030201D01*
X061495Y030360D02*
X062636Y030360D01*
X062821Y030518D02*
X061495Y030518D01*
X061495Y030677D02*
X062744Y030677D01*
X062740Y030835D02*
X061714Y030835D01*
X061832Y030994D02*
X062740Y030994D01*
X062740Y031152D02*
X061968Y031152D01*
X062126Y031311D02*
X062740Y031311D01*
X062740Y031469D02*
X062252Y031469D01*
X062290Y031628D02*
X062740Y031628D01*
X062740Y031786D02*
X062290Y031786D01*
X062290Y031945D02*
X062740Y031945D01*
X062740Y032103D02*
X062290Y032103D01*
X062290Y032262D02*
X062740Y032262D01*
X062740Y032420D02*
X062290Y032420D01*
X062290Y032579D02*
X062740Y032579D01*
X062740Y032737D02*
X062290Y032737D01*
X062290Y032896D02*
X062740Y032896D01*
X062775Y033054D02*
X062255Y033054D01*
X062133Y033213D02*
X062897Y033213D01*
X063055Y033371D02*
X062187Y033371D01*
X062277Y033530D02*
X063195Y033530D01*
X063310Y033688D02*
X062290Y033688D01*
X062290Y033847D02*
X063305Y033847D01*
X063193Y034005D02*
X062290Y034005D01*
X062290Y034164D02*
X063135Y034164D01*
X063135Y034322D02*
X062290Y034322D01*
X062290Y034481D02*
X063175Y034481D01*
X063261Y034639D02*
X062290Y034639D01*
X062290Y034798D02*
X063354Y034798D01*
X064015Y035265D02*
X061890Y035265D01*
X061890Y033640D01*
X061515Y033265D01*
X061890Y032890D01*
X061890Y031640D01*
X061515Y031265D01*
X061015Y031265D01*
X061015Y029890D02*
X061015Y029390D01*
X061890Y028515D01*
X061890Y027640D01*
X061515Y027265D01*
X061015Y027265D01*
X060515Y026765D02*
X061515Y026765D01*
X061890Y026390D01*
X061890Y023640D01*
X061798Y022593D02*
X062621Y022593D01*
X062780Y022435D02*
X061871Y022435D01*
X061895Y022276D02*
X062938Y022276D01*
X063097Y022118D02*
X061878Y022118D01*
X061895Y022265D02*
X061015Y022265D01*
X061895Y022265D01*
X061812Y021959D02*
X063212Y021959D01*
X064015Y023265D02*
X065390Y023265D01*
X064515Y025265D02*
X064015Y025265D01*
X064515Y025265D02*
X064890Y025640D01*
X064890Y035890D01*
X064515Y036265D01*
X064015Y036265D01*
X063386Y035765D02*
X063286Y035665D01*
X062290Y035665D01*
X062290Y035970D01*
X062229Y036117D01*
X062117Y036229D01*
X061848Y036498D01*
X061804Y036605D01*
X061644Y036765D01*
X061804Y036925D01*
X061895Y037146D01*
X061895Y037384D01*
X061804Y037605D01*
X061644Y037765D01*
X061804Y037925D01*
X061895Y038146D01*
X061895Y038384D01*
X061833Y038535D01*
X063199Y038535D01*
X063179Y038495D01*
X063150Y038405D01*
X063135Y038312D01*
X063135Y038265D01*
X064015Y038265D01*
X064015Y038265D01*
X063135Y038265D01*
X063135Y038218D01*
X063150Y038124D01*
X063179Y038035D01*
X063222Y037951D01*
X063277Y037874D01*
X063344Y037807D01*
X063393Y037772D01*
X063226Y037605D01*
X063135Y037384D01*
X063135Y037146D01*
X063226Y036925D01*
X063386Y036765D01*
X063226Y036605D01*
X063135Y036384D01*
X063135Y036146D01*
X063226Y035925D01*
X063386Y035765D01*
X063370Y035749D02*
X062290Y035749D01*
X062290Y035907D02*
X063244Y035907D01*
X063168Y036066D02*
X062250Y036066D01*
X062122Y036224D02*
X063135Y036224D01*
X063135Y036383D02*
X061963Y036383D01*
X061830Y036541D02*
X063200Y036541D01*
X063321Y036700D02*
X061709Y036700D01*
X061737Y036858D02*
X063293Y036858D01*
X063188Y037017D02*
X061842Y037017D01*
X061895Y037175D02*
X063135Y037175D01*
X063135Y037334D02*
X061895Y037334D01*
X061850Y037492D02*
X063180Y037492D01*
X063272Y037651D02*
X061758Y037651D01*
X061688Y037809D02*
X063342Y037809D01*
X063213Y037968D02*
X061821Y037968D01*
X061887Y038126D02*
X063150Y038126D01*
X063135Y038285D02*
X061895Y038285D01*
X061871Y038443D02*
X063162Y038443D01*
X061015Y038265D02*
X060140Y038265D01*
X059265Y037390D01*
X059265Y030765D01*
X058864Y030360D02*
X057790Y030360D01*
X057790Y030470D02*
X057729Y030617D01*
X057617Y030729D01*
X057617Y030729D01*
X057290Y031056D01*
X057290Y031518D01*
X057343Y031510D01*
X057390Y031510D01*
X057437Y031510D01*
X057530Y031525D01*
X057620Y031554D01*
X057704Y031597D01*
X057781Y031652D01*
X057848Y031719D01*
X057883Y031768D01*
X058050Y031601D01*
X058271Y031510D01*
X058509Y031510D01*
X058730Y031601D01*
X058865Y031736D01*
X058865Y031171D01*
X058782Y031088D01*
X058695Y030878D01*
X058695Y030652D01*
X058782Y030442D01*
X058942Y030282D01*
X059152Y030195D01*
X059365Y030195D01*
X059365Y029835D01*
X059152Y029835D01*
X058982Y029765D01*
X058975Y029810D01*
X058946Y029900D01*
X058903Y029984D01*
X058848Y030061D01*
X058781Y030128D01*
X058704Y030183D01*
X058620Y030226D01*
X058530Y030255D01*
X058437Y030270D01*
X058390Y030270D01*
X058390Y029390D01*
X058390Y029390D01*
X058390Y030270D01*
X058343Y030270D01*
X058249Y030255D01*
X058160Y030226D01*
X058076Y030183D01*
X057999Y030128D01*
X057932Y030061D01*
X057897Y030012D01*
X057790Y030119D01*
X057790Y030470D01*
X057770Y030518D02*
X058750Y030518D01*
X058695Y030677D02*
X057669Y030677D01*
X057511Y030835D02*
X058695Y030835D01*
X058743Y030994D02*
X057352Y030994D01*
X057290Y031152D02*
X058846Y031152D01*
X058865Y031311D02*
X057290Y031311D01*
X057290Y031469D02*
X058865Y031469D01*
X058865Y031628D02*
X058756Y031628D01*
X058024Y031628D02*
X057747Y031628D01*
X057390Y031628D02*
X057390Y031628D01*
X057390Y031510D02*
X057390Y032390D01*
X057390Y032390D01*
X057390Y033270D01*
X057437Y033270D01*
X057530Y033255D01*
X057620Y033226D01*
X057704Y033183D01*
X057781Y033128D01*
X057848Y033061D01*
X057883Y033012D01*
X058050Y033179D01*
X058271Y033270D01*
X058509Y033270D01*
X058730Y033179D01*
X058865Y033044D01*
X058865Y034243D01*
X058848Y034219D01*
X058781Y034152D01*
X058704Y034097D01*
X058620Y034054D01*
X058530Y034025D01*
X058437Y034010D01*
X058390Y034010D01*
X058390Y034890D01*
X058390Y034890D01*
X058390Y035770D01*
X058437Y035770D01*
X058530Y035755D01*
X058620Y035726D01*
X058704Y035683D01*
X058781Y035628D01*
X058848Y035561D01*
X058865Y035537D01*
X058865Y037236D01*
X058730Y037101D01*
X058509Y037010D01*
X058271Y037010D01*
X058050Y037101D01*
X057883Y037268D01*
X057848Y037219D01*
X057781Y037152D01*
X057704Y037097D01*
X057620Y037054D01*
X057530Y037025D01*
X057437Y037010D01*
X057390Y037010D01*
X057390Y037890D01*
X057390Y037890D01*
X057390Y037010D01*
X057343Y037010D01*
X057290Y037018D01*
X057290Y036310D01*
X057229Y036163D01*
X056790Y035724D01*
X056790Y035619D01*
X056890Y035519D01*
X057050Y035679D01*
X057271Y035770D01*
X057509Y035770D01*
X057730Y035679D01*
X057897Y035512D01*
X057932Y035561D01*
X057999Y035628D01*
X058076Y035683D01*
X058160Y035726D01*
X058249Y035755D01*
X058343Y035770D01*
X058390Y035770D01*
X058390Y034890D01*
X058390Y034890D01*
X058390Y034010D01*
X058343Y034010D01*
X058249Y034025D01*
X058160Y034054D01*
X058076Y034097D01*
X057999Y034152D01*
X057932Y034219D01*
X057897Y034268D01*
X057730Y034101D01*
X057509Y034010D01*
X057271Y034010D01*
X057050Y034101D01*
X056890Y034261D01*
X056790Y034161D01*
X056790Y033806D01*
X057117Y033479D01*
X057117Y033479D01*
X057229Y033367D01*
X057274Y033259D01*
X057343Y033270D01*
X057390Y033270D01*
X057390Y032390D01*
X057390Y032390D01*
X057390Y031510D01*
X057390Y031786D02*
X057390Y031786D01*
X057390Y031945D02*
X057390Y031945D01*
X057390Y032103D02*
X057390Y032103D01*
X057390Y032262D02*
X057390Y032262D01*
X057390Y032420D02*
X057390Y032420D01*
X057390Y032579D02*
X057390Y032579D01*
X057390Y032737D02*
X057390Y032737D01*
X057390Y032896D02*
X057390Y032896D01*
X057390Y033054D02*
X057390Y033054D01*
X057390Y033213D02*
X057390Y033213D01*
X057225Y033371D02*
X058865Y033371D01*
X058865Y033213D02*
X058648Y033213D01*
X058854Y033054D02*
X058865Y033054D01*
X058865Y033530D02*
X057066Y033530D01*
X056908Y033688D02*
X058865Y033688D01*
X058865Y033847D02*
X056790Y033847D01*
X056790Y034005D02*
X058865Y034005D01*
X058865Y034164D02*
X058792Y034164D01*
X058390Y034164D02*
X058390Y034164D01*
X058390Y034322D02*
X058390Y034322D01*
X058390Y034481D02*
X058390Y034481D01*
X058390Y034639D02*
X058390Y034639D01*
X058390Y034798D02*
X058390Y034798D01*
X058390Y034956D02*
X058390Y034956D01*
X058390Y035115D02*
X058390Y035115D01*
X058390Y035273D02*
X058390Y035273D01*
X058390Y035432D02*
X058390Y035432D01*
X058390Y035590D02*
X058390Y035590D01*
X058390Y035749D02*
X058390Y035749D01*
X058551Y035749D02*
X058865Y035749D01*
X058865Y035907D02*
X056973Y035907D01*
X057131Y036066D02*
X058865Y036066D01*
X058865Y036224D02*
X057254Y036224D01*
X057290Y036383D02*
X058865Y036383D01*
X058865Y036541D02*
X057290Y036541D01*
X057290Y036700D02*
X058865Y036700D01*
X058865Y036858D02*
X057290Y036858D01*
X057290Y037017D02*
X057301Y037017D01*
X057390Y037017D02*
X057390Y037017D01*
X057479Y037017D02*
X058255Y037017D01*
X058525Y037017D02*
X058865Y037017D01*
X058865Y037175D02*
X058804Y037175D01*
X057976Y037175D02*
X057804Y037175D01*
X057390Y037175D02*
X057390Y037175D01*
X057390Y037334D02*
X057390Y037334D01*
X057390Y037492D02*
X057390Y037492D01*
X057390Y037651D02*
X057390Y037651D01*
X057390Y037809D02*
X057390Y037809D01*
X056390Y037890D02*
X056390Y036390D01*
X055890Y035890D01*
X055890Y033640D01*
X056390Y033140D01*
X056390Y032390D01*
X056390Y030890D01*
X056890Y030390D01*
X056890Y028140D01*
X056390Y027640D01*
X056390Y026890D01*
X056390Y025390D01*
X056890Y024890D01*
X056890Y022640D01*
X056390Y022140D01*
X056390Y021390D01*
X056890Y022140D02*
X057390Y022640D01*
X057390Y023890D01*
X057390Y024890D01*
X056890Y025390D01*
X056890Y027640D01*
X057390Y028140D01*
X057390Y029390D01*
X057390Y030390D01*
X056890Y030890D01*
X056890Y033140D01*
X056390Y033640D01*
X056390Y034890D01*
X056390Y035890D01*
X056890Y036390D01*
X056890Y039640D01*
X057181Y040028D02*
X058625Y040028D01*
X058625Y040120D02*
X058625Y039875D01*
X059000Y039500D01*
X059245Y039500D01*
X059245Y040120D01*
X058625Y040120D01*
X058625Y040187D02*
X057022Y040187D01*
X057162Y040047D02*
X057162Y040047D01*
X057339Y039870D02*
X058630Y039870D01*
X058789Y039711D02*
X057498Y039711D01*
X057656Y039553D02*
X058947Y039553D01*
X059245Y039553D02*
X059285Y039553D01*
X059285Y039500D02*
X059530Y039500D01*
X059765Y039735D01*
X060000Y039500D01*
X060245Y039500D01*
X060245Y040120D01*
X059625Y040120D01*
X059285Y040120D01*
X059285Y039500D01*
X059285Y039711D02*
X059245Y039711D01*
X059245Y039870D02*
X059285Y039870D01*
X059285Y040028D02*
X059245Y040028D01*
X059245Y040187D02*
X059285Y040187D01*
X059285Y040345D02*
X059245Y040345D01*
X059245Y040504D02*
X059285Y040504D01*
X059285Y040662D02*
X059245Y040662D01*
X059245Y040821D02*
X059285Y040821D01*
X059285Y040979D02*
X059245Y040979D01*
X059245Y041296D02*
X059285Y041296D01*
X059285Y041455D02*
X059245Y041455D01*
X059245Y041613D02*
X059285Y041613D01*
X059285Y041772D02*
X059245Y041772D01*
X059539Y041772D02*
X059991Y041772D01*
X059833Y041613D02*
X059697Y041613D01*
X060245Y041613D02*
X060285Y041613D01*
X060285Y041455D02*
X060245Y041455D01*
X060245Y041296D02*
X060285Y041296D01*
X060285Y040979D02*
X060245Y040979D01*
X060245Y040821D02*
X060285Y040821D01*
X060285Y040662D02*
X060245Y040662D01*
X060245Y040504D02*
X060285Y040504D01*
X060285Y040345D02*
X060245Y040345D01*
X060245Y040187D02*
X060285Y040187D01*
X060285Y040028D02*
X060245Y040028D01*
X060245Y039870D02*
X060285Y039870D01*
X060285Y039711D02*
X060245Y039711D01*
X060245Y039553D02*
X060285Y039553D01*
X059947Y039553D02*
X059583Y039553D01*
X059741Y039711D02*
X059789Y039711D01*
X058625Y040345D02*
X056864Y040345D01*
X056705Y040504D02*
X058723Y040504D01*
X058838Y040662D02*
X056547Y040662D01*
X056388Y040821D02*
X058679Y040821D01*
X058625Y040979D02*
X056230Y040979D01*
X054890Y040140D02*
X054890Y036390D01*
X054390Y035890D01*
X054390Y034890D01*
X054390Y033640D01*
X054890Y033140D01*
X054890Y030890D01*
X054390Y030390D01*
X054390Y029390D01*
X054390Y028140D01*
X054890Y027640D01*
X054890Y025390D01*
X054390Y024890D01*
X054390Y023890D01*
X054390Y022640D01*
X054890Y022140D01*
X054890Y019890D01*
X054390Y019390D01*
X054390Y018390D01*
X053390Y018390D02*
X053390Y019390D01*
X053890Y019890D01*
X053890Y022140D01*
X053390Y022640D01*
X053390Y023890D01*
X053390Y024890D01*
X053890Y025390D01*
X053890Y027640D01*
X053390Y028140D01*
X053390Y029390D01*
X053390Y030390D01*
X053890Y030890D01*
X053890Y033140D01*
X053390Y033640D01*
X053390Y034890D01*
X053390Y035890D01*
X053890Y036390D01*
X053890Y040140D01*
X051890Y040140D02*
X051890Y036390D01*
X052390Y035890D01*
X052390Y034890D01*
X052390Y033640D01*
X052890Y033140D01*
X052890Y030890D01*
X052390Y030390D01*
X052390Y029390D01*
X052390Y028140D01*
X052890Y027640D01*
X052890Y025390D01*
X052390Y024890D01*
X052390Y023890D01*
X052390Y022640D01*
X052890Y022140D01*
X052890Y019890D01*
X052390Y019390D01*
X052390Y018390D01*
X051390Y018390D02*
X051390Y019390D01*
X051890Y019890D01*
X051890Y022140D01*
X051390Y022640D01*
X051390Y023890D01*
X051390Y024890D01*
X051890Y025390D01*
X051890Y027640D01*
X051390Y028140D01*
X051390Y029390D01*
X051390Y030390D01*
X051890Y030890D01*
X051890Y033140D01*
X051390Y033640D01*
X051390Y034890D01*
X051390Y035890D01*
X050890Y036390D01*
X050890Y040140D01*
X050490Y039734D02*
X050490Y038770D01*
X050271Y038770D01*
X050050Y038679D01*
X049890Y038519D01*
X049730Y038679D01*
X049509Y038770D01*
X049271Y038770D01*
X049050Y038679D01*
X048881Y038510D01*
X048790Y038289D01*
X048790Y037491D01*
X048881Y037270D01*
X049050Y037101D01*
X049271Y037010D01*
X049509Y037010D01*
X049730Y037101D01*
X049890Y037261D01*
X050050Y037101D01*
X050271Y037010D01*
X050490Y037010D01*
X050490Y036310D01*
X050551Y036163D01*
X050663Y036051D01*
X050990Y035724D01*
X050990Y035619D01*
X050890Y035519D01*
X050730Y035679D01*
X050509Y035770D01*
X050271Y035770D01*
X050050Y035679D01*
X049890Y035519D01*
X049730Y035679D01*
X049509Y035770D01*
X049271Y035770D01*
X049050Y035679D01*
X048881Y035510D01*
X048790Y035289D01*
X048790Y034491D01*
X048881Y034270D01*
X048990Y034161D01*
X048990Y033119D01*
X048881Y033010D01*
X048790Y032789D01*
X048790Y031991D01*
X048881Y031770D01*
X049050Y031601D01*
X049271Y031510D01*
X049490Y031510D01*
X049490Y030270D01*
X049271Y030270D01*
X049050Y030179D01*
X048881Y030010D01*
X048790Y029789D01*
X048790Y028991D01*
X048881Y028770D01*
X049050Y028601D01*
X049271Y028510D01*
X049490Y028510D01*
X049490Y027770D01*
X049271Y027770D01*
X049050Y027679D01*
X048881Y027510D01*
X048790Y027289D01*
X048790Y026491D01*
X048881Y026270D01*
X049050Y026101D01*
X049271Y026010D01*
X049490Y026010D01*
X049490Y024770D01*
X049271Y024770D01*
X049050Y024679D01*
X048881Y024510D01*
X048790Y024289D01*
X048790Y023491D01*
X048881Y023270D01*
X049050Y023101D01*
X049271Y023010D01*
X049490Y023010D01*
X049490Y022270D01*
X049271Y022270D01*
X049050Y022179D01*
X048881Y022010D01*
X048790Y021789D01*
X048790Y020991D01*
X048881Y020770D01*
X048990Y020661D01*
X048990Y019119D01*
X048881Y019010D01*
X048790Y018789D01*
X046854Y018789D01*
X046850Y018810D02*
X046821Y018900D01*
X046778Y018984D01*
X046723Y019061D01*
X046656Y019128D01*
X046579Y019183D01*
X046495Y019226D01*
X046405Y019255D01*
X046312Y019270D01*
X046265Y019270D01*
X046265Y018390D01*
X046265Y018390D01*
X046865Y018390D01*
X046865Y018717D01*
X046850Y018810D01*
X046797Y018948D02*
X047734Y018948D01*
X047891Y018790D02*
X047540Y019141D01*
X047540Y019390D01*
X048140Y019390D01*
X048140Y019390D01*
X048140Y019990D01*
X048389Y019990D01*
X048740Y019639D01*
X048740Y019390D01*
X048140Y019390D01*
X048140Y019390D01*
X048140Y019390D01*
X048140Y019990D01*
X047891Y019990D01*
X047540Y019639D01*
X047540Y019390D01*
X048140Y019390D01*
X048740Y019390D01*
X048740Y019141D01*
X048389Y018790D01*
X048140Y018790D01*
X048140Y019390D01*
X048140Y019390D01*
X048140Y018790D01*
X047891Y018790D01*
X048140Y018948D02*
X048140Y018948D01*
X048140Y019106D02*
X048140Y019106D01*
X048140Y019265D02*
X048140Y019265D01*
X048140Y019423D02*
X048140Y019423D01*
X048140Y019582D02*
X048140Y019582D01*
X048140Y019740D02*
X048140Y019740D01*
X048140Y019899D02*
X048140Y019899D01*
X048480Y019899D02*
X048990Y019899D01*
X048990Y020057D02*
X046665Y020057D01*
X046665Y019899D02*
X047800Y019899D01*
X047641Y019740D02*
X046636Y019740D01*
X046665Y019810D02*
X046604Y019663D01*
X046492Y019551D01*
X046209Y019269D01*
X046218Y019270D01*
X046265Y019270D01*
X046265Y018390D01*
X046265Y018390D01*
X046865Y018390D01*
X046865Y018063D01*
X046861Y018040D01*
X048790Y018040D01*
X048790Y018789D01*
X048790Y018631D02*
X046865Y018631D01*
X046865Y018472D02*
X048790Y018472D01*
X048790Y018314D02*
X046865Y018314D01*
X046865Y018155D02*
X048790Y018155D01*
X049390Y018390D02*
X049390Y021390D01*
X048790Y021325D02*
X048740Y021325D01*
X048740Y021167D02*
X048790Y021167D01*
X048740Y021141D02*
X048740Y021639D01*
X048389Y021990D01*
X048219Y021990D01*
X047870Y022339D01*
X047870Y024311D01*
X047891Y024290D01*
X048140Y024290D01*
X048389Y024290D01*
X048740Y024641D01*
X048740Y024890D01*
X048740Y025139D01*
X048389Y025490D01*
X048140Y025490D01*
X048140Y024890D01*
X048140Y024890D01*
X048740Y024890D01*
X048140Y024890D01*
X048140Y024890D01*
X048140Y025490D01*
X047891Y025490D01*
X047870Y025469D01*
X047870Y026311D01*
X047891Y026290D01*
X048389Y026290D01*
X048740Y026641D01*
X048740Y027139D01*
X048389Y027490D01*
X047891Y027490D01*
X047870Y027469D01*
X047870Y029811D01*
X047891Y029790D01*
X048140Y029790D01*
X048389Y029790D01*
X048740Y030141D01*
X048740Y030390D01*
X048740Y030639D01*
X048389Y030990D01*
X048140Y030990D01*
X048140Y030390D01*
X048140Y030390D01*
X048740Y030390D01*
X048140Y030390D01*
X048140Y030390D01*
X048140Y030990D01*
X047891Y030990D01*
X047870Y030969D01*
X047870Y031811D01*
X047891Y031790D01*
X048389Y031790D01*
X048740Y032141D01*
X048740Y032639D01*
X048389Y032990D01*
X047891Y032990D01*
X047870Y032969D01*
X047870Y035311D01*
X047891Y035290D01*
X048140Y035290D01*
X048389Y035290D01*
X048740Y035641D01*
X048740Y035890D01*
X048740Y036139D01*
X048389Y036490D01*
X048140Y036490D01*
X048140Y035890D01*
X048140Y035890D01*
X048740Y035890D01*
X048140Y035890D01*
X048140Y035890D01*
X048140Y036490D01*
X047891Y036490D01*
X047870Y036469D01*
X047870Y037311D01*
X047891Y037290D01*
X048389Y037290D01*
X048740Y037641D01*
X048740Y038139D01*
X048389Y038490D01*
X047891Y038490D01*
X047870Y038469D01*
X047870Y040660D01*
X050656Y040660D01*
X050567Y040623D01*
X050407Y040463D01*
X050320Y040253D01*
X050320Y040027D01*
X050407Y039817D01*
X050490Y039734D01*
X050490Y039711D02*
X047870Y039711D01*
X047870Y039553D02*
X050490Y039553D01*
X050490Y039394D02*
X047870Y039394D01*
X047870Y039236D02*
X050490Y039236D01*
X050490Y039077D02*
X047870Y039077D01*
X047870Y038919D02*
X050490Y038919D01*
X050247Y038760D02*
X049533Y038760D01*
X049247Y038760D02*
X047870Y038760D01*
X047870Y038602D02*
X048973Y038602D01*
X048854Y038443D02*
X048435Y038443D01*
X048594Y038285D02*
X048790Y038285D01*
X048790Y038126D02*
X048740Y038126D01*
X048740Y037968D02*
X048790Y037968D01*
X048790Y037809D02*
X048740Y037809D01*
X048740Y037651D02*
X048790Y037651D01*
X048790Y037492D02*
X048591Y037492D01*
X048432Y037334D02*
X048855Y037334D01*
X048976Y037175D02*
X047870Y037175D01*
X047870Y037017D02*
X049255Y037017D01*
X049525Y037017D02*
X050255Y037017D01*
X050490Y036858D02*
X047870Y036858D01*
X047870Y036700D02*
X050490Y036700D01*
X050490Y036541D02*
X047870Y036541D01*
X048140Y036383D02*
X048140Y036383D01*
X048140Y036224D02*
X048140Y036224D01*
X048140Y036066D02*
X048140Y036066D01*
X048140Y035907D02*
X048140Y035907D01*
X048140Y035890D02*
X048140Y035290D01*
X048140Y035890D01*
X048140Y035890D01*
X048140Y035749D02*
X048140Y035749D01*
X048140Y035590D02*
X048140Y035590D01*
X048140Y035432D02*
X048140Y035432D01*
X047870Y035273D02*
X048790Y035273D01*
X048790Y035115D02*
X047870Y035115D01*
X047870Y034956D02*
X048790Y034956D01*
X048790Y034798D02*
X047870Y034798D01*
X047870Y034639D02*
X048790Y034639D01*
X048794Y034481D02*
X047870Y034481D01*
X047870Y034322D02*
X048860Y034322D01*
X048988Y034164D02*
X047870Y034164D01*
X047870Y034005D02*
X048990Y034005D01*
X048990Y033847D02*
X047870Y033847D01*
X047870Y033688D02*
X048990Y033688D01*
X048990Y033530D02*
X047870Y033530D01*
X047870Y033371D02*
X048990Y033371D01*
X048990Y033213D02*
X047870Y033213D01*
X047870Y033054D02*
X048926Y033054D01*
X048834Y032896D02*
X048483Y032896D01*
X048641Y032737D02*
X048790Y032737D01*
X048790Y032579D02*
X048740Y032579D01*
X048740Y032420D02*
X048790Y032420D01*
X048790Y032262D02*
X048740Y032262D01*
X048702Y032103D02*
X048790Y032103D01*
X048809Y031945D02*
X048543Y031945D01*
X048875Y031786D02*
X047870Y031786D01*
X047870Y031628D02*
X049024Y031628D01*
X049490Y031469D02*
X047870Y031469D01*
X047870Y031311D02*
X049490Y031311D01*
X049490Y031152D02*
X047870Y031152D01*
X047870Y030994D02*
X049490Y030994D01*
X049490Y030835D02*
X048543Y030835D01*
X048702Y030677D02*
X049490Y030677D01*
X049490Y030518D02*
X048740Y030518D01*
X048740Y030360D02*
X049490Y030360D01*
X049104Y030201D02*
X048740Y030201D01*
X048641Y030043D02*
X048914Y030043D01*
X048829Y029884D02*
X048483Y029884D01*
X048140Y029884D02*
X048140Y029884D01*
X048140Y029790D02*
X048140Y030390D01*
X048140Y030390D01*
X048140Y029790D01*
X048140Y030043D02*
X048140Y030043D01*
X048140Y030201D02*
X048140Y030201D01*
X048140Y030360D02*
X048140Y030360D01*
X048140Y030518D02*
X048140Y030518D01*
X048140Y030677D02*
X048140Y030677D01*
X048140Y030835D02*
X048140Y030835D01*
X046910Y030835D02*
X046165Y030835D01*
X046165Y030677D02*
X046910Y030677D01*
X046910Y030518D02*
X046165Y030518D01*
X046165Y030360D02*
X046910Y030360D01*
X046910Y030201D02*
X046544Y030201D01*
X046579Y030183D02*
X046495Y030226D01*
X046405Y030255D01*
X046312Y030270D01*
X046265Y030270D01*
X046265Y029390D01*
X046265Y029390D01*
X046865Y029390D01*
X046865Y029717D01*
X046850Y029810D01*
X046821Y029900D01*
X046778Y029984D01*
X046723Y030061D01*
X046656Y030128D01*
X046579Y030183D01*
X046736Y030043D02*
X046910Y030043D01*
X046910Y029884D02*
X046826Y029884D01*
X046864Y029726D02*
X046910Y029726D01*
X046910Y029567D02*
X046865Y029567D01*
X046865Y029409D02*
X046910Y029409D01*
X046865Y029390D02*
X046265Y029390D01*
X046265Y029390D01*
X046265Y030270D01*
X046218Y030270D01*
X046165Y030262D01*
X046165Y031510D01*
X046384Y031510D01*
X046605Y031601D01*
X046774Y031770D01*
X046865Y031991D01*
X046865Y032789D01*
X046774Y033010D01*
X046605Y033179D01*
X046384Y033270D01*
X046146Y033270D01*
X046144Y033269D01*
X046104Y033367D01*
X045665Y033806D01*
X045665Y034161D01*
X045772Y034268D01*
X045807Y034219D01*
X045874Y034152D01*
X045951Y034097D01*
X046035Y034054D01*
X046124Y034025D01*
X046218Y034010D01*
X046265Y034010D01*
X046312Y034010D01*
X046405Y034025D01*
X046495Y034054D01*
X046579Y034097D01*
X046656Y034152D01*
X046723Y034219D01*
X046778Y034296D01*
X046821Y034380D01*
X046850Y034469D01*
X046865Y034563D01*
X046865Y034890D01*
X046865Y035217D01*
X046850Y035310D01*
X046821Y035400D01*
X046778Y035484D01*
X046723Y035561D01*
X046656Y035628D01*
X046579Y035683D01*
X046495Y035726D01*
X046405Y035755D01*
X046312Y035770D01*
X046265Y035770D01*
X046265Y034890D01*
X046265Y034890D01*
X046865Y034890D01*
X046265Y034890D01*
X046265Y034890D01*
X046265Y035770D01*
X046218Y035770D01*
X046124Y035755D01*
X046035Y035726D01*
X045951Y035683D01*
X045874Y035628D01*
X045807Y035561D01*
X045772Y035512D01*
X045605Y035679D01*
X045384Y035770D01*
X045146Y035770D01*
X044925Y035679D01*
X044765Y035519D01*
X044665Y035619D01*
X044665Y035724D01*
X044992Y036051D01*
X045104Y036163D01*
X045165Y036310D01*
X045165Y037010D01*
X045384Y037010D01*
X045605Y037101D01*
X045765Y037261D01*
X045925Y037101D01*
X046146Y037010D01*
X046384Y037010D01*
X046605Y037101D01*
X046774Y037270D01*
X046865Y037491D01*
X046865Y038289D01*
X046774Y038510D01*
X046605Y038679D01*
X046384Y038770D01*
X046146Y038770D01*
X045925Y038679D01*
X045765Y038519D01*
X045605Y038679D01*
X045384Y038770D01*
X045165Y038770D01*
X045165Y040660D01*
X046910Y040660D01*
X046910Y022045D01*
X046983Y021868D01*
X047118Y021733D01*
X047540Y021311D01*
X047540Y021141D01*
X047891Y020790D01*
X048389Y020790D01*
X048740Y021141D01*
X048790Y021008D02*
X048607Y021008D01*
X048448Y020850D02*
X048848Y020850D01*
X048960Y020691D02*
X046695Y020691D01*
X046665Y020661D02*
X046774Y020770D01*
X046865Y020991D01*
X046865Y021789D01*
X046774Y022010D01*
X046605Y022179D01*
X046384Y022270D01*
X046165Y022270D01*
X046165Y023018D01*
X046218Y023010D01*
X046265Y023010D01*
X046312Y023010D01*
X046405Y023025D01*
X046495Y023054D01*
X046579Y023097D01*
X046656Y023152D01*
X046723Y023219D01*
X046778Y023296D01*
X046821Y023380D01*
X046850Y023469D01*
X046865Y023563D01*
X046865Y023890D01*
X046865Y024217D01*
X046850Y024310D01*
X046821Y024400D01*
X046778Y024484D01*
X046723Y024561D01*
X046656Y024628D01*
X046579Y024683D01*
X046495Y024726D01*
X046405Y024755D01*
X046312Y024770D01*
X046265Y024770D01*
X046265Y023890D01*
X046265Y023890D01*
X046865Y023890D01*
X046265Y023890D01*
X046265Y023890D01*
X046265Y024770D01*
X046218Y024770D01*
X046165Y024762D01*
X046165Y026010D01*
X046384Y026010D01*
X046605Y026101D01*
X046774Y026270D01*
X046865Y026491D01*
X046865Y027289D01*
X046774Y027510D01*
X046605Y027679D01*
X046384Y027770D01*
X046165Y027770D01*
X046165Y028518D01*
X046218Y028510D01*
X046265Y028510D01*
X046312Y028510D01*
X046405Y028525D01*
X046495Y028554D01*
X046579Y028597D01*
X046656Y028652D01*
X046723Y028719D01*
X046778Y028796D01*
X046821Y028880D01*
X046850Y028969D01*
X046865Y029063D01*
X046865Y029390D01*
X046865Y029250D02*
X046910Y029250D01*
X046910Y029092D02*
X046865Y029092D01*
X046838Y028933D02*
X046910Y028933D01*
X046910Y028775D02*
X046763Y028775D01*
X046910Y028616D02*
X046606Y028616D01*
X046265Y028616D02*
X046265Y028616D01*
X046265Y028510D02*
X046265Y029390D01*
X046265Y029390D01*
X046265Y028510D01*
X046165Y028458D02*
X046910Y028458D01*
X046910Y028299D02*
X046165Y028299D01*
X046165Y028141D02*
X046910Y028141D01*
X046910Y027982D02*
X046165Y027982D01*
X046165Y027824D02*
X046910Y027824D01*
X046910Y027665D02*
X046618Y027665D01*
X046775Y027507D02*
X046910Y027507D01*
X046910Y027348D02*
X046841Y027348D01*
X046865Y027190D02*
X046910Y027190D01*
X046910Y027031D02*
X046865Y027031D01*
X046865Y026873D02*
X046910Y026873D01*
X046910Y026714D02*
X046865Y026714D01*
X046865Y026556D02*
X046910Y026556D01*
X046910Y026397D02*
X046826Y026397D01*
X046742Y026239D02*
X046910Y026239D01*
X046910Y026080D02*
X046553Y026080D01*
X046910Y025922D02*
X046165Y025922D01*
X046165Y025763D02*
X046910Y025763D01*
X046910Y025605D02*
X046165Y025605D01*
X046165Y025446D02*
X046910Y025446D01*
X046910Y025288D02*
X046165Y025288D01*
X046165Y025129D02*
X046910Y025129D01*
X046910Y024971D02*
X046165Y024971D01*
X046165Y024812D02*
X046910Y024812D01*
X046910Y024654D02*
X046620Y024654D01*
X046770Y024495D02*
X046910Y024495D01*
X046910Y024337D02*
X046842Y024337D01*
X046865Y024178D02*
X046910Y024178D01*
X046910Y024020D02*
X046865Y024020D01*
X046865Y023861D02*
X046910Y023861D01*
X046910Y023703D02*
X046865Y023703D01*
X046862Y023544D02*
X046910Y023544D01*
X046910Y023386D02*
X046823Y023386D01*
X046910Y023227D02*
X046728Y023227D01*
X046910Y023069D02*
X046524Y023069D01*
X046265Y023069D02*
X046265Y023069D01*
X046265Y023010D02*
X046265Y023890D01*
X046265Y023890D01*
X046265Y023010D01*
X046165Y022910D02*
X046910Y022910D01*
X046910Y022752D02*
X046165Y022752D01*
X046165Y022593D02*
X046910Y022593D01*
X046910Y022435D02*
X046165Y022435D01*
X046165Y022276D02*
X046910Y022276D01*
X046910Y022118D02*
X046666Y022118D01*
X046795Y021959D02*
X046945Y021959D01*
X046860Y021801D02*
X047051Y021801D01*
X047209Y021642D02*
X046865Y021642D01*
X046865Y021484D02*
X047368Y021484D01*
X047526Y021325D02*
X046865Y021325D01*
X046865Y021167D02*
X047540Y021167D01*
X047673Y021008D02*
X046865Y021008D01*
X046807Y020850D02*
X047832Y020850D01*
X048740Y021484D02*
X048790Y021484D01*
X048790Y021642D02*
X048736Y021642D01*
X048795Y021801D02*
X048578Y021801D01*
X048419Y021959D02*
X048860Y021959D01*
X048989Y022118D02*
X048091Y022118D01*
X047933Y022276D02*
X049490Y022276D01*
X049490Y022435D02*
X047870Y022435D01*
X047870Y022593D02*
X049490Y022593D01*
X049490Y022752D02*
X047870Y022752D01*
X047870Y022910D02*
X049490Y022910D01*
X049129Y023069D02*
X047870Y023069D01*
X047870Y023227D02*
X048924Y023227D01*
X048834Y023386D02*
X047870Y023386D01*
X047870Y023544D02*
X048790Y023544D01*
X048790Y023703D02*
X047870Y023703D01*
X047870Y023861D02*
X048790Y023861D01*
X048790Y024020D02*
X047870Y024020D01*
X047870Y024178D02*
X048790Y024178D01*
X048810Y024337D02*
X048435Y024337D01*
X048594Y024495D02*
X048875Y024495D01*
X048740Y024654D02*
X049025Y024654D01*
X048740Y024812D02*
X049490Y024812D01*
X049490Y024971D02*
X048740Y024971D01*
X048740Y025129D02*
X049490Y025129D01*
X049490Y025288D02*
X048591Y025288D01*
X048432Y025446D02*
X049490Y025446D01*
X049490Y025605D02*
X047870Y025605D01*
X047870Y025763D02*
X049490Y025763D01*
X049490Y025922D02*
X047870Y025922D01*
X047870Y026080D02*
X049102Y026080D01*
X048913Y026239D02*
X047870Y026239D01*
X048496Y026397D02*
X048829Y026397D01*
X048790Y026556D02*
X048654Y026556D01*
X048740Y026714D02*
X048790Y026714D01*
X048790Y026873D02*
X048740Y026873D01*
X048740Y027031D02*
X048790Y027031D01*
X048790Y027190D02*
X048689Y027190D01*
X048814Y027348D02*
X048530Y027348D01*
X048880Y027507D02*
X047870Y027507D01*
X047870Y027665D02*
X049037Y027665D01*
X049490Y027824D02*
X047870Y027824D01*
X047870Y027982D02*
X049490Y027982D01*
X049490Y028141D02*
X047870Y028141D01*
X047870Y028299D02*
X049490Y028299D01*
X049490Y028458D02*
X047870Y028458D01*
X047870Y028616D02*
X049035Y028616D01*
X048880Y028775D02*
X047870Y028775D01*
X047870Y028933D02*
X048814Y028933D01*
X048790Y029092D02*
X047870Y029092D01*
X047870Y029250D02*
X048790Y029250D01*
X048790Y029409D02*
X047870Y029409D01*
X047870Y029567D02*
X048790Y029567D01*
X048790Y029726D02*
X047870Y029726D01*
X046910Y030994D02*
X046165Y030994D01*
X046165Y031152D02*
X046910Y031152D01*
X046910Y031311D02*
X046165Y031311D01*
X046165Y031469D02*
X046910Y031469D01*
X046910Y031628D02*
X046631Y031628D01*
X046780Y031786D02*
X046910Y031786D01*
X046910Y031945D02*
X046846Y031945D01*
X046865Y032103D02*
X046910Y032103D01*
X046910Y032262D02*
X046865Y032262D01*
X046865Y032420D02*
X046910Y032420D01*
X046910Y032579D02*
X046865Y032579D01*
X046865Y032737D02*
X046910Y032737D01*
X046910Y032896D02*
X046821Y032896D01*
X046910Y033054D02*
X046729Y033054D01*
X046910Y033213D02*
X046523Y033213D01*
X046910Y033371D02*
X046100Y033371D01*
X045941Y033530D02*
X046910Y033530D01*
X046910Y033688D02*
X045783Y033688D01*
X045665Y033847D02*
X046910Y033847D01*
X046910Y034005D02*
X045665Y034005D01*
X045667Y034164D02*
X045863Y034164D01*
X046265Y034164D02*
X046265Y034164D01*
X046265Y034010D02*
X046265Y034890D01*
X046265Y034890D01*
X046265Y034010D01*
X046265Y034322D02*
X046265Y034322D01*
X046265Y034481D02*
X046265Y034481D01*
X046265Y034639D02*
X046265Y034639D01*
X046265Y034798D02*
X046265Y034798D01*
X046265Y034956D02*
X046265Y034956D01*
X046265Y035115D02*
X046265Y035115D01*
X046265Y035273D02*
X046265Y035273D01*
X046265Y035432D02*
X046265Y035432D01*
X046265Y035590D02*
X046265Y035590D01*
X046265Y035749D02*
X046265Y035749D01*
X046426Y035749D02*
X046910Y035749D01*
X046910Y035907D02*
X044848Y035907D01*
X044992Y036051D02*
X044992Y036051D01*
X045006Y036066D02*
X046910Y036066D01*
X046910Y036224D02*
X045129Y036224D01*
X045165Y036383D02*
X046910Y036383D01*
X046910Y036541D02*
X045165Y036541D01*
X045165Y036700D02*
X046910Y036700D01*
X046910Y036858D02*
X045165Y036858D01*
X045400Y037017D02*
X046130Y037017D01*
X046400Y037017D02*
X046910Y037017D01*
X046910Y037175D02*
X046679Y037175D01*
X046800Y037334D02*
X046910Y037334D01*
X046910Y037492D02*
X046865Y037492D01*
X046865Y037651D02*
X046910Y037651D01*
X046910Y037809D02*
X046865Y037809D01*
X046865Y037968D02*
X046910Y037968D01*
X046910Y038126D02*
X046865Y038126D01*
X046865Y038285D02*
X046910Y038285D01*
X046910Y038443D02*
X046801Y038443D01*
X046910Y038602D02*
X046682Y038602D01*
X046910Y038760D02*
X046408Y038760D01*
X046122Y038760D02*
X045408Y038760D01*
X045165Y038919D02*
X046910Y038919D01*
X046910Y039077D02*
X045165Y039077D01*
X045165Y039236D02*
X046910Y039236D01*
X046910Y039394D02*
X045165Y039394D01*
X045165Y039553D02*
X046910Y039553D01*
X046910Y039711D02*
X045165Y039711D01*
X045165Y039870D02*
X046910Y039870D01*
X046910Y040028D02*
X045165Y040028D01*
X045165Y040187D02*
X046910Y040187D01*
X046910Y040345D02*
X045165Y040345D01*
X045165Y040504D02*
X046910Y040504D01*
X047870Y040504D02*
X050447Y040504D01*
X050358Y040345D02*
X047870Y040345D01*
X047870Y040187D02*
X050320Y040187D01*
X050320Y040028D02*
X047870Y040028D01*
X047870Y039870D02*
X050385Y039870D01*
X049973Y038602D02*
X049807Y038602D01*
X049804Y037175D02*
X049976Y037175D01*
X050490Y036383D02*
X048496Y036383D01*
X048654Y036224D02*
X050526Y036224D01*
X050649Y036066D02*
X048740Y036066D01*
X048740Y035907D02*
X050807Y035907D01*
X050966Y035749D02*
X050561Y035749D01*
X050818Y035590D02*
X050962Y035590D01*
X050219Y035749D02*
X049561Y035749D01*
X049818Y035590D02*
X049962Y035590D01*
X049219Y035749D02*
X048740Y035749D01*
X048689Y035590D02*
X048962Y035590D01*
X048849Y035432D02*
X048530Y035432D01*
X049390Y034890D02*
X049390Y032390D01*
X049890Y033140D02*
X049890Y019890D01*
X050390Y019390D01*
X050390Y018390D01*
X050890Y017890D02*
X050640Y017640D01*
X046890Y017640D01*
X046140Y016890D01*
X046140Y008890D01*
X044890Y007640D01*
X044890Y007140D01*
X044890Y006140D02*
X044890Y005890D01*
X045265Y005515D01*
X055140Y005515D01*
X058265Y008640D01*
X060390Y008640D01*
X061265Y009515D01*
X061265Y018265D01*
X059765Y019765D01*
X059765Y025640D01*
X060390Y026265D01*
X061015Y026265D01*
X060515Y026265D01*
X059765Y027015D01*
X059765Y036515D01*
X060515Y037265D01*
X061015Y037265D01*
X061015Y036265D02*
X061515Y036265D01*
X061890Y035890D01*
X061890Y035265D01*
X061015Y034265D02*
X060515Y034265D01*
X060140Y033890D01*
X060140Y027140D01*
X060515Y026765D01*
X059887Y026328D02*
X059426Y025867D01*
X059365Y025720D01*
X059365Y019685D01*
X059426Y019538D01*
X059538Y019426D01*
X060865Y018099D01*
X060865Y017445D01*
X060530Y017780D01*
X060000Y017780D01*
X059765Y017545D01*
X059530Y017780D01*
X059000Y017780D01*
X058625Y017405D01*
X058625Y016875D01*
X058860Y016640D01*
X058625Y016405D01*
X058625Y015875D01*
X058860Y015640D01*
X058625Y015405D01*
X058625Y015040D01*
X058306Y015040D01*
X057540Y015806D01*
X057540Y016234D01*
X057623Y016317D01*
X057710Y016527D01*
X057710Y016753D01*
X057623Y016963D01*
X057463Y017123D01*
X057253Y017210D01*
X057027Y017210D01*
X056817Y017123D01*
X056657Y016963D01*
X056570Y016753D01*
X056570Y016710D01*
X056402Y016710D01*
X056290Y016664D01*
X056290Y017510D01*
X056509Y017510D01*
X056730Y017601D01*
X056890Y017761D01*
X057050Y017601D01*
X057271Y017510D01*
X057509Y017510D01*
X057730Y017601D01*
X057897Y017768D01*
X057932Y017719D01*
X057999Y017652D01*
X058076Y017597D01*
X058160Y017554D01*
X058249Y017525D01*
X058343Y017510D01*
X058390Y017510D01*
X058437Y017510D01*
X058530Y017525D01*
X058620Y017554D01*
X058704Y017597D01*
X058781Y017652D01*
X058848Y017719D01*
X058903Y017796D01*
X058946Y017880D01*
X058975Y017969D01*
X058990Y018063D01*
X058990Y018390D01*
X058990Y018717D01*
X058975Y018810D01*
X058946Y018900D01*
X058903Y018984D01*
X058848Y019061D01*
X058781Y019128D01*
X058704Y019183D01*
X058620Y019226D01*
X058530Y019255D01*
X058437Y019270D01*
X058390Y019270D01*
X058390Y018390D01*
X058390Y018390D01*
X058990Y018390D01*
X058390Y018390D01*
X058390Y018390D01*
X058390Y019270D01*
X058343Y019270D01*
X058249Y019255D01*
X058160Y019226D01*
X058076Y019183D01*
X057999Y019128D01*
X057932Y019061D01*
X057897Y019012D01*
X057730Y019179D01*
X057509Y019270D01*
X057271Y019270D01*
X057050Y019179D01*
X056890Y019019D01*
X056790Y019119D01*
X056790Y019224D01*
X057229Y019663D01*
X057290Y019810D01*
X057290Y020518D01*
X057343Y020510D01*
X057390Y020510D01*
X057437Y020510D01*
X057530Y020525D01*
X057620Y020554D01*
X057704Y020597D01*
X057781Y020652D01*
X057848Y020719D01*
X057883Y020768D01*
X058050Y020601D01*
X058271Y020510D01*
X058509Y020510D01*
X058730Y020601D01*
X058899Y020770D01*
X058990Y020991D01*
X058990Y021789D01*
X058899Y022010D01*
X058730Y022179D01*
X058509Y022270D01*
X058271Y022270D01*
X058050Y022179D01*
X057883Y022012D01*
X057848Y022061D01*
X057781Y022128D01*
X057704Y022183D01*
X057620Y022226D01*
X057561Y022245D01*
X057617Y022301D01*
X057729Y022413D01*
X057790Y022560D01*
X057790Y023161D01*
X057897Y023268D01*
X057932Y023219D01*
X057999Y023152D01*
X058076Y023097D01*
X058160Y023054D01*
X058249Y023025D01*
X058343Y023010D01*
X058390Y023010D01*
X058437Y023010D01*
X058530Y023025D01*
X058620Y023054D01*
X058704Y023097D01*
X058781Y023152D01*
X058848Y023219D01*
X058903Y023296D01*
X058946Y023380D01*
X058975Y023469D01*
X058990Y023563D01*
X058990Y023890D01*
X058990Y024217D01*
X058975Y024310D01*
X058946Y024400D01*
X058903Y024484D01*
X058848Y024561D01*
X058781Y024628D01*
X058704Y024683D01*
X058620Y024726D01*
X058530Y024755D01*
X058437Y024770D01*
X058390Y024770D01*
X058390Y023890D01*
X058390Y023890D01*
X058990Y023890D01*
X058390Y023890D01*
X058390Y023890D01*
X058390Y024770D01*
X058343Y024770D01*
X058249Y024755D01*
X058160Y024726D01*
X058076Y024683D01*
X057999Y024628D01*
X057932Y024561D01*
X057897Y024512D01*
X057790Y024619D01*
X057790Y024970D01*
X057729Y025117D01*
X057617Y025229D01*
X057290Y025556D01*
X057290Y026018D01*
X057343Y026010D01*
X057390Y026010D01*
X057437Y026010D01*
X057530Y026025D01*
X057620Y026054D01*
X057704Y026097D01*
X057781Y026152D01*
X057848Y026219D01*
X057883Y026268D01*
X058050Y026101D01*
X058271Y026010D01*
X058509Y026010D01*
X058730Y026101D01*
X058899Y026270D01*
X058990Y026491D01*
X058990Y026924D01*
X059365Y027299D01*
X059365Y026935D01*
X059426Y026788D01*
X059887Y026328D01*
X059817Y026397D02*
X058951Y026397D01*
X058990Y026556D02*
X059659Y026556D01*
X059500Y026714D02*
X058990Y026714D01*
X058990Y026873D02*
X059391Y026873D01*
X059365Y027031D02*
X059097Y027031D01*
X059255Y027190D02*
X059365Y027190D01*
X059265Y027765D02*
X058390Y026890D01*
X057883Y027512D02*
X057848Y027561D01*
X057781Y027628D01*
X057704Y027683D01*
X057620Y027726D01*
X057561Y027745D01*
X057617Y027801D01*
X057729Y027913D01*
X057790Y028060D01*
X057790Y028661D01*
X057897Y028768D01*
X057932Y028719D01*
X057999Y028652D01*
X058076Y028597D01*
X058160Y028554D01*
X058249Y028525D01*
X058343Y028510D01*
X058390Y028510D01*
X058437Y028510D01*
X058530Y028525D01*
X058620Y028554D01*
X058704Y028597D01*
X058781Y028652D01*
X058848Y028719D01*
X058865Y028743D01*
X058865Y027931D01*
X058647Y027713D01*
X058509Y027770D01*
X058271Y027770D01*
X058050Y027679D01*
X057883Y027512D01*
X057729Y027665D02*
X058037Y027665D01*
X057758Y027982D02*
X058865Y027982D01*
X058865Y028141D02*
X057790Y028141D01*
X057790Y028299D02*
X058865Y028299D01*
X058865Y028458D02*
X057790Y028458D01*
X057790Y028616D02*
X058049Y028616D01*
X058390Y028616D02*
X058390Y028616D01*
X058390Y028510D02*
X058390Y029390D01*
X058390Y029390D01*
X058390Y028510D01*
X058390Y028775D02*
X058390Y028775D01*
X058390Y028933D02*
X058390Y028933D01*
X058390Y029092D02*
X058390Y029092D01*
X058390Y029250D02*
X058390Y029250D01*
X058390Y029409D02*
X058390Y029409D01*
X058390Y029567D02*
X058390Y029567D01*
X058390Y029726D02*
X058390Y029726D01*
X058390Y029884D02*
X058390Y029884D01*
X058390Y030043D02*
X058390Y030043D01*
X058390Y030201D02*
X058390Y030201D01*
X058669Y030201D02*
X059137Y030201D01*
X059365Y030043D02*
X058861Y030043D01*
X058951Y029884D02*
X059365Y029884D01*
X059265Y029265D02*
X059265Y027765D01*
X058758Y027824D02*
X057639Y027824D01*
X058731Y028616D02*
X058865Y028616D01*
X057919Y030043D02*
X057866Y030043D01*
X057790Y030201D02*
X058111Y030201D01*
X055390Y030890D02*
X054890Y030390D01*
X054890Y028140D01*
X055390Y027640D01*
X055390Y026890D01*
X055390Y025390D01*
X054890Y024890D01*
X054890Y022640D01*
X055390Y022140D01*
X055390Y021390D01*
X054390Y021390D02*
X054390Y022140D01*
X053890Y022640D01*
X053890Y024890D01*
X054390Y025390D01*
X054390Y026890D01*
X054390Y027640D01*
X053890Y028140D01*
X053890Y030390D01*
X054390Y030890D01*
X054390Y032390D01*
X054390Y033140D01*
X053890Y033640D01*
X053890Y035890D01*
X054390Y036390D01*
X054390Y037890D01*
X053390Y037890D02*
X053390Y036390D01*
X052890Y035890D01*
X052890Y033640D01*
X053390Y033140D01*
X053390Y032390D01*
X053390Y030890D01*
X052890Y030390D01*
X052890Y028140D01*
X053390Y027640D01*
X053390Y026890D01*
X053390Y025390D01*
X052890Y024890D01*
X052890Y022640D01*
X053390Y022140D01*
X053390Y021390D01*
X050890Y022140D02*
X050390Y022640D01*
X050390Y023890D01*
X050390Y024890D01*
X050890Y025390D01*
X050890Y027640D01*
X050390Y028140D01*
X050390Y029390D01*
X046265Y029409D02*
X046265Y029409D01*
X046265Y029567D02*
X046265Y029567D01*
X046265Y029726D02*
X046265Y029726D01*
X046265Y029884D02*
X046265Y029884D01*
X046265Y030043D02*
X046265Y030043D01*
X046265Y030201D02*
X046265Y030201D01*
X046265Y029250D02*
X046265Y029250D01*
X046265Y029092D02*
X046265Y029092D01*
X046265Y028933D02*
X046265Y028933D01*
X046265Y028775D02*
X046265Y028775D01*
X045265Y029390D02*
X044265Y029390D01*
X044265Y028140D01*
X044765Y027640D01*
X044765Y025390D01*
X044265Y024890D01*
X044265Y023890D01*
X045265Y023890D01*
X044265Y023890D02*
X044265Y022640D01*
X044765Y022140D01*
X044765Y019890D01*
X044265Y019390D01*
X044265Y018390D01*
X044365Y017510D02*
X044365Y015306D01*
X043176Y014117D01*
X043115Y013970D01*
X043115Y010421D01*
X043032Y010338D01*
X042945Y010128D01*
X042945Y009902D01*
X043032Y009692D01*
X043192Y009532D01*
X043297Y009488D01*
X042224Y008415D01*
X031486Y008415D01*
X031490Y008438D01*
X031490Y008765D01*
X031490Y009092D01*
X031475Y009185D01*
X031446Y009275D01*
X031403Y009359D01*
X031348Y009436D01*
X031281Y009503D01*
X031204Y009558D01*
X031120Y009601D01*
X031030Y009630D01*
X030957Y009642D01*
X033867Y012551D01*
X033979Y012663D01*
X034040Y012810D01*
X034040Y017518D01*
X034093Y017510D01*
X034140Y017510D01*
X034187Y017510D01*
X034280Y017525D01*
X034370Y017554D01*
X034454Y017597D01*
X034531Y017652D01*
X034598Y017719D01*
X034653Y017796D01*
X034696Y017880D01*
X034725Y017969D01*
X034740Y018063D01*
X034740Y018390D01*
X034740Y018717D01*
X034725Y018810D01*
X034696Y018900D01*
X034653Y018984D01*
X034598Y019061D01*
X034531Y019128D01*
X034454Y019183D01*
X034370Y019226D01*
X034280Y019255D01*
X034187Y019270D01*
X034140Y019270D01*
X034140Y018390D01*
X034140Y018390D01*
X034740Y018390D01*
X034140Y018390D01*
X034140Y018390D01*
X034140Y019270D01*
X034093Y019270D01*
X034084Y019269D01*
X034367Y019551D01*
X034479Y019663D01*
X034540Y019810D01*
X034540Y020661D01*
X034649Y020770D01*
X034740Y020991D01*
X034740Y021789D01*
X034649Y022010D01*
X034480Y022179D01*
X034259Y022270D01*
X034021Y022270D01*
X033800Y022179D01*
X033640Y022019D01*
X033480Y022179D01*
X033259Y022270D01*
X033021Y022270D01*
X033019Y022269D01*
X032979Y022367D01*
X032540Y022806D01*
X032540Y023161D01*
X032640Y023261D01*
X032800Y023101D01*
X033021Y023010D01*
X033259Y023010D01*
X033480Y023101D01*
X033647Y023268D01*
X033682Y023219D01*
X033749Y023152D01*
X033826Y023097D01*
X033910Y023054D01*
X033999Y023025D01*
X034093Y023010D01*
X034140Y023010D01*
X034187Y023010D01*
X034280Y023025D01*
X034370Y023054D01*
X034454Y023097D01*
X034531Y023152D01*
X034598Y023219D01*
X034653Y023296D01*
X034696Y023380D01*
X034725Y023469D01*
X034740Y023563D01*
X034740Y023890D01*
X034740Y024217D01*
X034725Y024310D01*
X034696Y024400D01*
X034653Y024484D01*
X034598Y024561D01*
X034531Y024628D01*
X034454Y024683D01*
X034370Y024726D01*
X034280Y024755D01*
X034187Y024770D01*
X034140Y024770D01*
X034140Y023890D01*
X034140Y023890D01*
X034740Y023890D01*
X034140Y023890D01*
X034140Y023890D01*
X034140Y024770D01*
X034093Y024770D01*
X033999Y024755D01*
X033910Y024726D01*
X033826Y024683D01*
X033749Y024628D01*
X033682Y024561D01*
X033647Y024512D01*
X033480Y024679D01*
X033259Y024770D01*
X033021Y024770D01*
X032800Y024679D01*
X032640Y024519D01*
X032540Y024619D01*
X032540Y024724D01*
X032867Y025051D01*
X032979Y025163D01*
X033040Y025310D01*
X033040Y026010D01*
X033259Y026010D01*
X033480Y026101D01*
X033640Y026261D01*
X033800Y026101D01*
X034021Y026010D01*
X034259Y026010D01*
X034480Y026101D01*
X034649Y026270D01*
X034740Y026491D01*
X034740Y027289D01*
X034649Y027510D01*
X034480Y027679D01*
X034259Y027770D01*
X034021Y027770D01*
X033800Y027679D01*
X033640Y027519D01*
X033480Y027679D01*
X033259Y027770D01*
X033021Y027770D01*
X033019Y027769D01*
X032979Y027867D01*
X032540Y028306D01*
X032540Y028661D01*
X032640Y028761D01*
X032800Y028601D01*
X033021Y028510D01*
X033259Y028510D01*
X033480Y028601D01*
X033647Y028768D01*
X033682Y028719D01*
X033749Y028652D01*
X033826Y028597D01*
X033910Y028554D01*
X033999Y028525D01*
X034093Y028510D01*
X034140Y028510D01*
X034187Y028510D01*
X034280Y028525D01*
X034370Y028554D01*
X034454Y028597D01*
X034531Y028652D01*
X034598Y028719D01*
X034653Y028796D01*
X034696Y028880D01*
X034725Y028969D01*
X034740Y029063D01*
X034740Y029390D01*
X034740Y029717D01*
X034725Y029810D01*
X034696Y029900D01*
X034653Y029984D01*
X034598Y030061D01*
X034531Y030128D01*
X034454Y030183D01*
X034370Y030226D01*
X034280Y030255D01*
X034187Y030270D01*
X034140Y030270D01*
X034140Y029390D01*
X034140Y029390D01*
X034740Y029390D01*
X034140Y029390D01*
X034140Y029390D01*
X034140Y030270D01*
X034093Y030270D01*
X033999Y030255D01*
X033910Y030226D01*
X033826Y030183D01*
X033749Y030128D01*
X033682Y030061D01*
X033647Y030012D01*
X033480Y030179D01*
X033259Y030270D01*
X033021Y030270D01*
X032800Y030179D01*
X032640Y030019D01*
X032540Y030119D01*
X032540Y030224D01*
X032867Y030551D01*
X032979Y030663D01*
X033040Y030810D01*
X033040Y031510D01*
X033259Y031510D01*
X033480Y031601D01*
X033640Y031761D01*
X033800Y031601D01*
X034021Y031510D01*
X034259Y031510D01*
X034480Y031601D01*
X034649Y031770D01*
X034740Y031991D01*
X034740Y032789D01*
X034649Y033010D01*
X034480Y033179D01*
X034259Y033270D01*
X034021Y033270D01*
X033800Y033179D01*
X033640Y033019D01*
X033480Y033179D01*
X033259Y033270D01*
X033021Y033270D01*
X033019Y033269D01*
X032979Y033367D01*
X032540Y033806D01*
X032540Y034161D01*
X032640Y034261D01*
X032800Y034101D01*
X033021Y034010D01*
X033259Y034010D01*
X033480Y034101D01*
X033647Y034268D01*
X033682Y034219D01*
X033749Y034152D01*
X033826Y034097D01*
X033910Y034054D01*
X033999Y034025D01*
X034093Y034010D01*
X034140Y034010D01*
X034187Y034010D01*
X034280Y034025D01*
X034370Y034054D01*
X034454Y034097D01*
X034531Y034152D01*
X034598Y034219D01*
X034653Y034296D01*
X034696Y034380D01*
X034725Y034469D01*
X034740Y034563D01*
X034740Y034890D01*
X034740Y035217D01*
X034725Y035310D01*
X034696Y035400D01*
X034653Y035484D01*
X034598Y035561D01*
X034531Y035628D01*
X034454Y035683D01*
X034370Y035726D01*
X034280Y035755D01*
X034187Y035770D01*
X034140Y035770D01*
X034140Y034890D01*
X034140Y034890D01*
X034740Y034890D01*
X034140Y034890D01*
X034140Y034890D01*
X034140Y035770D01*
X034093Y035770D01*
X033999Y035755D01*
X033910Y035726D01*
X033826Y035683D01*
X033749Y035628D01*
X033682Y035561D01*
X033647Y035512D01*
X033480Y035679D01*
X033259Y035770D01*
X033021Y035770D01*
X032800Y035679D01*
X032640Y035519D01*
X032540Y035619D01*
X032540Y035724D01*
X032867Y036051D01*
X032979Y036163D01*
X033040Y036310D01*
X033040Y037010D01*
X033259Y037010D01*
X033480Y037101D01*
X033640Y037261D01*
X033800Y037101D01*
X034021Y037010D01*
X034259Y037010D01*
X034480Y037101D01*
X034649Y037270D01*
X034740Y037491D01*
X034740Y038289D01*
X034649Y038510D01*
X034480Y038679D01*
X034259Y038770D01*
X034021Y038770D01*
X033800Y038679D01*
X033640Y038519D01*
X033480Y038679D01*
X033259Y038770D01*
X033040Y038770D01*
X033040Y040660D01*
X034785Y040660D01*
X034785Y022045D01*
X034858Y021868D01*
X034993Y021733D01*
X035415Y021311D01*
X035415Y021141D01*
X035766Y020790D01*
X036264Y020790D01*
X036615Y021141D01*
X036615Y021639D01*
X036264Y021990D01*
X036094Y021990D01*
X035745Y022339D01*
X035745Y024311D01*
X035766Y024290D01*
X036015Y024290D01*
X036264Y024290D01*
X036615Y024641D01*
X036615Y024890D01*
X036615Y025139D01*
X036264Y025490D01*
X036015Y025490D01*
X036015Y024890D01*
X036015Y024890D01*
X036615Y024890D01*
X036015Y024890D01*
X036015Y024890D01*
X036015Y025490D01*
X035766Y025490D01*
X035745Y025469D01*
X035745Y026311D01*
X035766Y026290D01*
X036264Y026290D01*
X036615Y026641D01*
X036615Y027139D01*
X036264Y027490D01*
X035766Y027490D01*
X035745Y027469D01*
X035745Y029811D01*
X035766Y029790D01*
X036015Y029790D01*
X036264Y029790D01*
X036615Y030141D01*
X036615Y030390D01*
X036615Y030639D01*
X036264Y030990D01*
X036015Y030990D01*
X036015Y030390D01*
X036015Y030390D01*
X036615Y030390D01*
X036015Y030390D01*
X036015Y030390D01*
X036015Y030990D01*
X035766Y030990D01*
X035745Y030969D01*
X035745Y031811D01*
X035766Y031790D01*
X036264Y031790D01*
X036615Y032141D01*
X036615Y032639D01*
X036264Y032990D01*
X035766Y032990D01*
X035745Y032969D01*
X035745Y035311D01*
X035766Y035290D01*
X036015Y035290D01*
X036264Y035290D01*
X036615Y035641D01*
X036615Y035890D01*
X036615Y036139D01*
X036264Y036490D01*
X036015Y036490D01*
X036015Y035890D01*
X036015Y035890D01*
X036615Y035890D01*
X036015Y035890D01*
X036015Y035890D01*
X036015Y036490D01*
X035766Y036490D01*
X035745Y036469D01*
X035745Y037311D01*
X035766Y037290D01*
X036264Y037290D01*
X036615Y037641D01*
X036615Y038139D01*
X036264Y038490D01*
X035766Y038490D01*
X035745Y038469D01*
X035745Y040660D01*
X041531Y040660D01*
X041442Y040623D01*
X041282Y040463D01*
X041195Y040253D01*
X041195Y040027D01*
X041282Y039817D01*
X041365Y039734D01*
X041365Y038770D01*
X041146Y038770D01*
X040925Y038679D01*
X040765Y038519D01*
X040605Y038679D01*
X040384Y038770D01*
X040165Y038770D01*
X040165Y039609D01*
X040248Y039692D01*
X040335Y039902D01*
X040335Y040128D01*
X040248Y040338D01*
X040088Y040498D01*
X039878Y040585D01*
X039652Y040585D01*
X039442Y040498D01*
X039282Y040338D01*
X039195Y040128D01*
X039195Y039902D01*
X039202Y039884D01*
X039088Y039998D01*
X038878Y040085D01*
X038652Y040085D01*
X038442Y039998D01*
X038282Y039838D01*
X038195Y039628D01*
X038195Y039402D01*
X038282Y039192D01*
X038365Y039109D01*
X038365Y038770D01*
X038146Y038770D01*
X037925Y038679D01*
X037765Y038519D01*
X037605Y038679D01*
X037384Y038770D01*
X037146Y038770D01*
X036925Y038679D01*
X036756Y038510D01*
X036665Y038289D01*
X036665Y037491D01*
X036756Y037270D01*
X036925Y037101D01*
X037146Y037010D01*
X037384Y037010D01*
X037605Y037101D01*
X037765Y037261D01*
X037925Y037101D01*
X038146Y037010D01*
X038365Y037010D01*
X038365Y036310D01*
X038426Y036163D01*
X038538Y036051D01*
X038865Y035724D01*
X038865Y035619D01*
X038765Y035519D01*
X038605Y035679D01*
X038384Y035770D01*
X038146Y035770D01*
X037925Y035679D01*
X037765Y035519D01*
X037605Y035679D01*
X037384Y035770D01*
X037146Y035770D01*
X036925Y035679D01*
X036756Y035510D01*
X036665Y035289D01*
X036665Y034491D01*
X036756Y034270D01*
X036865Y034161D01*
X036865Y033119D01*
X036756Y033010D01*
X036665Y032789D01*
X036665Y031991D01*
X036756Y031770D01*
X036925Y031601D01*
X037146Y031510D01*
X037365Y031510D01*
X037365Y030270D01*
X037146Y030270D01*
X036925Y030179D01*
X036756Y030010D01*
X036665Y029789D01*
X036665Y028991D01*
X036756Y028770D01*
X036925Y028601D01*
X037146Y028510D01*
X037365Y028510D01*
X037365Y027770D01*
X037146Y027770D01*
X036925Y027679D01*
X036756Y027510D01*
X036665Y027289D01*
X036665Y026491D01*
X036756Y026270D01*
X036925Y026101D01*
X037146Y026010D01*
X037365Y026010D01*
X037365Y024770D01*
X037146Y024770D01*
X036925Y024679D01*
X036756Y024510D01*
X036665Y024289D01*
X036665Y023491D01*
X036756Y023270D01*
X036925Y023101D01*
X037146Y023010D01*
X037365Y023010D01*
X037365Y022270D01*
X037146Y022270D01*
X036925Y022179D01*
X036756Y022010D01*
X036665Y021789D01*
X036665Y020991D01*
X036756Y020770D01*
X036865Y020661D01*
X036865Y019119D01*
X036756Y019010D01*
X036665Y018789D01*
X034729Y018789D01*
X034740Y018631D02*
X036665Y018631D01*
X036665Y018789D02*
X036665Y017991D01*
X036756Y017770D01*
X036925Y017601D01*
X037146Y017510D01*
X037384Y017510D01*
X037605Y017601D01*
X037765Y017761D01*
X037925Y017601D01*
X038146Y017510D01*
X038384Y017510D01*
X038605Y017601D01*
X038765Y017761D01*
X038925Y017601D01*
X039146Y017510D01*
X039384Y017510D01*
X039605Y017601D01*
X039765Y017761D01*
X039925Y017601D01*
X040146Y017510D01*
X040365Y017510D01*
X040365Y017421D01*
X040282Y017338D01*
X040195Y017128D01*
X040195Y016902D01*
X040282Y016692D01*
X040442Y016532D01*
X040652Y016445D01*
X040878Y016445D01*
X041088Y016532D01*
X041248Y016692D01*
X041265Y016733D01*
X041282Y016692D01*
X041442Y016532D01*
X041652Y016445D01*
X041878Y016445D01*
X042088Y016532D01*
X042248Y016692D01*
X042265Y016733D01*
X042282Y016692D01*
X042442Y016532D01*
X042652Y016445D01*
X042878Y016445D01*
X043088Y016532D01*
X043248Y016692D01*
X043265Y016733D01*
X043282Y016692D01*
X043442Y016532D01*
X043652Y016445D01*
X043878Y016445D01*
X044088Y016532D01*
X044248Y016692D01*
X044335Y016902D01*
X044335Y017128D01*
X044248Y017338D01*
X044165Y017421D01*
X044165Y017510D01*
X044365Y017510D01*
X044365Y017363D02*
X044224Y017363D01*
X044304Y017204D02*
X044365Y017204D01*
X044365Y017046D02*
X044335Y017046D01*
X044329Y016887D02*
X044365Y016887D01*
X044365Y016729D02*
X044263Y016729D01*
X044365Y016570D02*
X044126Y016570D01*
X044365Y016412D02*
X034040Y016412D01*
X034040Y016570D02*
X040404Y016570D01*
X040267Y016729D02*
X034040Y016729D01*
X034040Y016887D02*
X040201Y016887D01*
X040195Y017046D02*
X034040Y017046D01*
X034040Y017204D02*
X040226Y017204D01*
X040306Y017363D02*
X034040Y017363D01*
X034140Y017510D02*
X034140Y018390D01*
X034140Y017510D01*
X034140Y017521D02*
X034140Y017521D01*
X034257Y017521D02*
X037119Y017521D01*
X037411Y017521D02*
X038119Y017521D01*
X038411Y017521D02*
X039119Y017521D01*
X039411Y017521D02*
X040119Y017521D01*
X039847Y017680D02*
X039683Y017680D01*
X039265Y018390D02*
X039265Y019390D01*
X039765Y019890D01*
X039765Y022140D01*
X039265Y022640D01*
X039265Y023890D01*
X039265Y024890D01*
X039765Y025390D01*
X039765Y027640D01*
X039265Y028140D01*
X039265Y029390D01*
X039265Y030390D01*
X039765Y030890D01*
X039765Y033140D01*
X039265Y033640D01*
X039265Y034890D01*
X039265Y035890D01*
X038765Y036390D01*
X038765Y039515D01*
X038229Y039711D02*
X035745Y039711D01*
X035745Y039553D02*
X038195Y039553D01*
X038198Y039394D02*
X035745Y039394D01*
X035745Y039236D02*
X038264Y039236D01*
X038365Y039077D02*
X035745Y039077D01*
X035745Y038919D02*
X038365Y038919D01*
X038122Y038760D02*
X037408Y038760D01*
X037122Y038760D02*
X035745Y038760D01*
X035745Y038602D02*
X036848Y038602D01*
X036729Y038443D02*
X036310Y038443D01*
X036469Y038285D02*
X036665Y038285D01*
X036665Y038126D02*
X036615Y038126D01*
X036615Y037968D02*
X036665Y037968D01*
X036665Y037809D02*
X036615Y037809D01*
X036615Y037651D02*
X036665Y037651D01*
X036665Y037492D02*
X036466Y037492D01*
X036307Y037334D02*
X036730Y037334D01*
X036851Y037175D02*
X035745Y037175D01*
X035745Y037017D02*
X037130Y037017D01*
X037400Y037017D02*
X038130Y037017D01*
X038365Y036858D02*
X035745Y036858D01*
X035745Y036700D02*
X038365Y036700D01*
X038365Y036541D02*
X035745Y036541D01*
X036015Y036383D02*
X036015Y036383D01*
X036015Y036224D02*
X036015Y036224D01*
X036015Y036066D02*
X036015Y036066D01*
X036015Y035907D02*
X036015Y035907D01*
X036015Y035890D02*
X036015Y035290D01*
X036015Y035890D01*
X036015Y035890D01*
X036015Y035749D02*
X036015Y035749D01*
X036015Y035590D02*
X036015Y035590D01*
X036015Y035432D02*
X036015Y035432D01*
X035745Y035273D02*
X036665Y035273D01*
X036665Y035115D02*
X035745Y035115D01*
X035745Y034956D02*
X036665Y034956D01*
X036665Y034798D02*
X035745Y034798D01*
X035745Y034639D02*
X036665Y034639D01*
X036669Y034481D02*
X035745Y034481D01*
X035745Y034322D02*
X036735Y034322D01*
X036863Y034164D02*
X035745Y034164D01*
X035745Y034005D02*
X036865Y034005D01*
X036865Y033847D02*
X035745Y033847D01*
X035745Y033688D02*
X036865Y033688D01*
X036865Y033530D02*
X035745Y033530D01*
X035745Y033371D02*
X036865Y033371D01*
X036865Y033213D02*
X035745Y033213D01*
X035745Y033054D02*
X036801Y033054D01*
X036709Y032896D02*
X036358Y032896D01*
X036516Y032737D02*
X036665Y032737D01*
X036665Y032579D02*
X036615Y032579D01*
X036615Y032420D02*
X036665Y032420D01*
X036665Y032262D02*
X036615Y032262D01*
X036577Y032103D02*
X036665Y032103D01*
X036684Y031945D02*
X036418Y031945D01*
X036750Y031786D02*
X035745Y031786D01*
X035745Y031628D02*
X036899Y031628D01*
X037365Y031469D02*
X035745Y031469D01*
X035745Y031311D02*
X037365Y031311D01*
X037365Y031152D02*
X035745Y031152D01*
X035745Y030994D02*
X037365Y030994D01*
X037365Y030835D02*
X036418Y030835D01*
X036577Y030677D02*
X037365Y030677D01*
X037365Y030518D02*
X036615Y030518D01*
X036615Y030360D02*
X037365Y030360D01*
X036979Y030201D02*
X036615Y030201D01*
X036516Y030043D02*
X036789Y030043D01*
X036704Y029884D02*
X036358Y029884D01*
X036015Y029884D02*
X036015Y029884D01*
X036015Y029790D02*
X036015Y030390D01*
X036015Y030390D01*
X036015Y029790D01*
X036015Y030043D02*
X036015Y030043D01*
X036015Y030201D02*
X036015Y030201D01*
X036015Y030360D02*
X036015Y030360D01*
X036015Y030518D02*
X036015Y030518D01*
X036015Y030677D02*
X036015Y030677D01*
X036015Y030835D02*
X036015Y030835D01*
X034785Y030835D02*
X033040Y030835D01*
X033040Y030994D02*
X034785Y030994D01*
X034785Y031152D02*
X033040Y031152D01*
X033040Y031311D02*
X034785Y031311D01*
X034785Y031469D02*
X033040Y031469D01*
X033506Y031628D02*
X033774Y031628D01*
X034506Y031628D02*
X034785Y031628D01*
X034785Y031786D02*
X034655Y031786D01*
X034721Y031945D02*
X034785Y031945D01*
X034785Y032103D02*
X034740Y032103D01*
X034740Y032262D02*
X034785Y032262D01*
X034785Y032420D02*
X034740Y032420D01*
X034740Y032579D02*
X034785Y032579D01*
X034785Y032737D02*
X034740Y032737D01*
X034696Y032896D02*
X034785Y032896D01*
X034785Y033054D02*
X034604Y033054D01*
X034785Y033213D02*
X034398Y033213D01*
X034785Y033371D02*
X032975Y033371D01*
X032816Y033530D02*
X034785Y033530D01*
X034785Y033688D02*
X032658Y033688D01*
X032540Y033847D02*
X034785Y033847D01*
X034785Y034005D02*
X032540Y034005D01*
X032542Y034164D02*
X032738Y034164D01*
X032140Y033640D02*
X032140Y034890D01*
X032140Y035890D01*
X032640Y036390D01*
X032640Y041140D01*
X032240Y040660D02*
X032240Y038770D01*
X032021Y038770D01*
X031800Y038679D01*
X031640Y038519D01*
X031480Y038679D01*
X031259Y038770D01*
X031021Y038770D01*
X030800Y038679D01*
X030640Y038519D01*
X030480Y038679D01*
X030259Y038770D01*
X030021Y038770D01*
X029800Y038679D01*
X029640Y038519D01*
X029480Y038679D01*
X029259Y038770D01*
X029021Y038770D01*
X028800Y038679D01*
X028640Y038519D01*
X028480Y038679D01*
X028259Y038770D01*
X028021Y038770D01*
X027800Y038679D01*
X027640Y038519D01*
X027480Y038679D01*
X027259Y038770D01*
X027021Y038770D01*
X026800Y038679D01*
X026640Y038519D01*
X026480Y038679D01*
X026259Y038770D01*
X026021Y038770D01*
X025800Y038679D01*
X025640Y038519D01*
X025480Y038679D01*
X025259Y038770D01*
X025021Y038770D01*
X024800Y038679D01*
X024631Y038510D01*
X024540Y038289D01*
X024540Y037491D01*
X024631Y037270D01*
X024800Y037101D01*
X025021Y037010D01*
X025259Y037010D01*
X025480Y037101D01*
X025640Y037261D01*
X025800Y037101D01*
X026021Y037010D01*
X026259Y037010D01*
X026480Y037101D01*
X026640Y037261D01*
X026800Y037101D01*
X027021Y037010D01*
X027259Y037010D01*
X027480Y037101D01*
X027640Y037261D01*
X027800Y037101D01*
X028021Y037010D01*
X028259Y037010D01*
X028480Y037101D01*
X028640Y037261D01*
X028740Y037161D01*
X028740Y036556D01*
X028413Y036229D01*
X028301Y036117D01*
X028240Y035970D01*
X028240Y035770D01*
X028021Y035770D01*
X027800Y035679D01*
X027640Y035519D01*
X027480Y035679D01*
X027259Y035770D01*
X027021Y035770D01*
X026800Y035679D01*
X026640Y035519D01*
X026480Y035679D01*
X026259Y035770D01*
X026021Y035770D01*
X025800Y035679D01*
X025640Y035519D01*
X025480Y035679D01*
X025259Y035770D01*
X025021Y035770D01*
X024800Y035679D01*
X024631Y035510D01*
X024540Y035289D01*
X024540Y034491D01*
X024631Y034270D01*
X024740Y034161D01*
X024740Y033119D01*
X024631Y033010D01*
X024540Y032789D01*
X024540Y031991D01*
X024631Y031770D01*
X024800Y031601D01*
X025021Y031510D01*
X025240Y031510D01*
X025240Y030270D01*
X025021Y030270D01*
X024800Y030179D01*
X024631Y030010D01*
X024540Y029789D01*
X024540Y028991D01*
X024631Y028770D01*
X024800Y028601D01*
X025021Y028510D01*
X025240Y028510D01*
X025240Y027770D01*
X025021Y027770D01*
X024800Y027679D01*
X024631Y027510D01*
X024540Y027289D01*
X024540Y026491D01*
X024631Y026270D01*
X024800Y026101D01*
X025021Y026010D01*
X025240Y026010D01*
X025240Y024770D01*
X025021Y024770D01*
X024800Y024679D01*
X024631Y024510D01*
X024540Y024289D01*
X024540Y023491D01*
X024631Y023270D01*
X024800Y023101D01*
X025021Y023010D01*
X025240Y023010D01*
X025240Y022270D01*
X025021Y022270D01*
X024800Y022179D01*
X024631Y022010D01*
X024540Y021789D01*
X024540Y020991D01*
X024631Y020770D01*
X024740Y020661D01*
X024740Y019119D01*
X024631Y019010D01*
X024540Y018789D01*
X023620Y018789D01*
X023641Y018790D02*
X023890Y018790D01*
X024139Y018790D01*
X024490Y019141D01*
X024490Y019390D01*
X024490Y019639D01*
X024139Y019990D01*
X023890Y019990D01*
X023890Y019390D01*
X023890Y019390D01*
X024490Y019390D01*
X023890Y019390D01*
X023890Y019390D01*
X023890Y019990D01*
X023641Y019990D01*
X023620Y019969D01*
X023620Y020811D01*
X023641Y020790D01*
X024139Y020790D01*
X024490Y021141D01*
X024490Y021639D01*
X024139Y021990D01*
X023641Y021990D01*
X023620Y021969D01*
X023620Y024311D01*
X023641Y024290D01*
X023890Y024290D01*
X024139Y024290D01*
X024490Y024641D01*
X024490Y024890D01*
X024490Y025139D01*
X024139Y025490D01*
X023890Y025490D01*
X023890Y024890D01*
X023890Y024890D01*
X024490Y024890D01*
X023890Y024890D01*
X023890Y024890D01*
X023890Y025490D01*
X023641Y025490D01*
X023620Y025469D01*
X023620Y026311D01*
X023641Y026290D01*
X024139Y026290D01*
X024490Y026641D01*
X024490Y027139D01*
X024139Y027490D01*
X023641Y027490D01*
X023620Y027469D01*
X023620Y029811D01*
X023641Y029790D01*
X023890Y029790D01*
X024139Y029790D01*
X024490Y030141D01*
X024490Y030390D01*
X024490Y030639D01*
X024139Y030990D01*
X023890Y030990D01*
X023890Y030390D01*
X023890Y030390D01*
X024490Y030390D01*
X023890Y030390D01*
X023890Y030390D01*
X023890Y030990D01*
X023641Y030990D01*
X023620Y030969D01*
X023620Y031811D01*
X023641Y031790D01*
X024139Y031790D01*
X024490Y032141D01*
X024490Y032639D01*
X024139Y032990D01*
X023641Y032990D01*
X023620Y032969D01*
X023620Y035186D01*
X023641Y035165D01*
X023890Y035165D01*
X024139Y035165D01*
X024490Y035516D01*
X024490Y035765D01*
X024490Y036014D01*
X024139Y036365D01*
X023890Y036365D01*
X023890Y035765D01*
X023890Y035765D01*
X024490Y035765D01*
X023890Y035765D01*
X023890Y035765D01*
X023890Y036365D01*
X023641Y036365D01*
X023620Y036344D01*
X023620Y037186D01*
X023641Y037165D01*
X024139Y037165D01*
X024490Y037516D01*
X024490Y038014D01*
X024139Y038365D01*
X023641Y038365D01*
X023620Y038344D01*
X023620Y040660D01*
X032240Y040660D01*
X032240Y040504D02*
X023620Y040504D01*
X023620Y040345D02*
X032240Y040345D01*
X032240Y040187D02*
X023620Y040187D01*
X023620Y040028D02*
X032240Y040028D01*
X032240Y039870D02*
X023620Y039870D01*
X023620Y039711D02*
X032240Y039711D01*
X032240Y039553D02*
X023620Y039553D01*
X023620Y039394D02*
X032240Y039394D01*
X032240Y039236D02*
X023620Y039236D01*
X023620Y039077D02*
X032240Y039077D01*
X032240Y038919D02*
X023620Y038919D01*
X023620Y038760D02*
X024997Y038760D01*
X025283Y038760D02*
X025997Y038760D01*
X026283Y038760D02*
X026997Y038760D01*
X027283Y038760D02*
X027997Y038760D01*
X028283Y038760D02*
X028997Y038760D01*
X029283Y038760D02*
X029997Y038760D01*
X030283Y038760D02*
X030997Y038760D01*
X031283Y038760D02*
X031997Y038760D01*
X031723Y038602D02*
X031557Y038602D01*
X031140Y037890D02*
X031140Y036390D01*
X030640Y035890D01*
X030640Y033640D01*
X031140Y033140D01*
X031140Y032390D01*
X031140Y030890D01*
X030640Y030390D01*
X030640Y028140D01*
X031140Y027640D01*
X031140Y026890D01*
X031140Y025390D01*
X030640Y024890D01*
X030640Y022640D01*
X031140Y022140D01*
X031140Y021390D01*
X031140Y019890D01*
X030640Y019390D01*
X030640Y017015D01*
X031001Y016570D02*
X031279Y016570D01*
X031317Y016532D02*
X031527Y016445D01*
X031753Y016445D01*
X031963Y016532D01*
X032123Y016692D01*
X032210Y016902D01*
X032210Y017128D01*
X032123Y017338D01*
X032040Y017421D01*
X032040Y017510D01*
X032259Y017510D01*
X032480Y017601D01*
X032640Y017761D01*
X032800Y017601D01*
X033021Y017510D01*
X033240Y017510D01*
X033240Y013056D01*
X031448Y011263D01*
X031490Y011366D01*
X031490Y012164D01*
X031399Y012385D01*
X031230Y012554D01*
X031009Y012645D01*
X030771Y012645D01*
X030550Y012554D01*
X030390Y012394D01*
X030230Y012554D01*
X030009Y012645D01*
X029771Y012645D01*
X029550Y012554D01*
X029390Y012394D01*
X029230Y012554D01*
X029009Y012645D01*
X028771Y012645D01*
X028550Y012554D01*
X028390Y012394D01*
X028230Y012554D01*
X028009Y012645D01*
X027771Y012645D01*
X027550Y012554D01*
X027390Y012394D01*
X027230Y012554D01*
X027009Y012645D01*
X026771Y012645D01*
X026550Y012554D01*
X026390Y012394D01*
X026230Y012554D01*
X026009Y012645D01*
X025771Y012645D01*
X025550Y012554D01*
X025390Y012394D01*
X025230Y012554D01*
X025009Y012645D01*
X024771Y012645D01*
X024550Y012554D01*
X024381Y012385D01*
X024323Y012245D01*
X023884Y012245D01*
X023764Y012365D01*
X023620Y012365D01*
X023620Y018811D01*
X023641Y018790D01*
X023620Y018631D02*
X024540Y018631D01*
X024540Y018789D02*
X024540Y017991D01*
X024631Y017770D01*
X024800Y017601D01*
X025021Y017510D01*
X025259Y017510D01*
X025480Y017601D01*
X025640Y017761D01*
X025800Y017601D01*
X026021Y017510D01*
X026259Y017510D01*
X026480Y017601D01*
X026640Y017761D01*
X026800Y017601D01*
X027021Y017510D01*
X027259Y017510D01*
X027480Y017601D01*
X027640Y017761D01*
X027800Y017601D01*
X028021Y017510D01*
X028240Y017510D01*
X028240Y017421D01*
X028157Y017338D01*
X028070Y017128D01*
X028070Y016902D01*
X028157Y016692D01*
X028317Y016532D01*
X028527Y016445D01*
X028753Y016445D01*
X028963Y016532D01*
X029123Y016692D01*
X029140Y016733D01*
X029157Y016692D01*
X029317Y016532D01*
X029527Y016445D01*
X029753Y016445D01*
X029963Y016532D01*
X030123Y016692D01*
X030140Y016733D01*
X030157Y016692D01*
X030317Y016532D01*
X030527Y016445D01*
X030753Y016445D01*
X030963Y016532D01*
X031123Y016692D01*
X031140Y016733D01*
X031157Y016692D01*
X031317Y016532D01*
X031142Y016729D02*
X031138Y016729D01*
X031640Y017015D02*
X031640Y019390D01*
X032140Y019890D01*
X032140Y021390D01*
X032140Y022140D01*
X031640Y022640D01*
X031640Y024890D01*
X032140Y025390D01*
X032140Y026890D01*
X032140Y027640D01*
X031640Y028140D01*
X031640Y030390D01*
X032140Y030890D01*
X032140Y032390D01*
X032140Y033140D01*
X031640Y033640D01*
X031640Y035890D01*
X032140Y036390D01*
X032140Y037890D01*
X033040Y038919D02*
X034785Y038919D01*
X034785Y039077D02*
X033040Y039077D01*
X033040Y039236D02*
X034785Y039236D01*
X034785Y039394D02*
X033040Y039394D01*
X033040Y039553D02*
X034785Y039553D01*
X034785Y039711D02*
X033040Y039711D01*
X033040Y039870D02*
X034785Y039870D01*
X034785Y040028D02*
X033040Y040028D01*
X033040Y040187D02*
X034785Y040187D01*
X034785Y040345D02*
X033040Y040345D01*
X033040Y040504D02*
X034785Y040504D01*
X035745Y040504D02*
X039455Y040504D01*
X039289Y040345D02*
X035745Y040345D01*
X035745Y040187D02*
X039219Y040187D01*
X039195Y040028D02*
X039016Y040028D01*
X038514Y040028D02*
X035745Y040028D01*
X035745Y039870D02*
X038313Y039870D01*
X039765Y040015D02*
X039765Y036390D01*
X040265Y035890D01*
X040265Y034890D01*
X040265Y033640D01*
X040765Y033140D01*
X040765Y030890D01*
X040265Y030390D01*
X040265Y029390D01*
X040265Y028140D01*
X040765Y027640D01*
X040765Y025390D01*
X040265Y024890D01*
X040265Y023890D01*
X040265Y022640D01*
X040765Y022140D01*
X040765Y019890D01*
X040265Y019390D01*
X040265Y018390D01*
X041265Y018390D02*
X041265Y019390D01*
X041765Y019890D01*
X041765Y022140D01*
X041265Y022640D01*
X041265Y023890D01*
X041265Y024890D01*
X041765Y025390D01*
X041765Y027640D01*
X041265Y028140D01*
X041265Y029390D01*
X041265Y030390D01*
X041765Y030890D01*
X041765Y033140D01*
X041265Y033640D01*
X041265Y034890D01*
X041265Y035890D01*
X041765Y036390D01*
X041765Y040140D01*
X041233Y040345D02*
X040241Y040345D01*
X040311Y040187D02*
X041195Y040187D01*
X041195Y040028D02*
X040335Y040028D01*
X040322Y039870D02*
X041260Y039870D01*
X041365Y039711D02*
X040256Y039711D01*
X040165Y039553D02*
X041365Y039553D01*
X041365Y039394D02*
X040165Y039394D01*
X040165Y039236D02*
X041365Y039236D01*
X041365Y039077D02*
X040165Y039077D01*
X040165Y038919D02*
X041365Y038919D01*
X041122Y038760D02*
X040408Y038760D01*
X040682Y038602D02*
X040848Y038602D01*
X041265Y037890D02*
X041265Y036390D01*
X040765Y035890D01*
X040765Y033640D01*
X041265Y033140D01*
X041265Y032390D01*
X041265Y030890D01*
X040765Y030390D01*
X040765Y028140D01*
X041265Y027640D01*
X041265Y026890D01*
X041265Y025390D01*
X040765Y024890D01*
X040765Y022640D01*
X041265Y022140D01*
X041265Y021390D01*
X041265Y019890D01*
X040765Y019390D01*
X040765Y017015D01*
X041126Y016570D02*
X041404Y016570D01*
X041267Y016729D02*
X041263Y016729D01*
X041765Y017015D02*
X041765Y019390D01*
X042265Y019890D01*
X042265Y021390D01*
X042265Y022140D01*
X041765Y022640D01*
X041765Y024890D01*
X042265Y025390D01*
X042265Y026890D01*
X042265Y027640D01*
X041765Y028140D01*
X041765Y030390D01*
X042265Y030890D01*
X042265Y032390D01*
X042265Y033140D01*
X041765Y033640D01*
X041765Y035890D01*
X042265Y036390D01*
X042265Y037890D01*
X043265Y037890D02*
X043265Y036390D01*
X042765Y035890D01*
X042765Y033640D01*
X043265Y033140D01*
X043265Y032390D01*
X043265Y030890D01*
X042765Y030390D01*
X042765Y028140D01*
X043265Y027640D01*
X043265Y026890D01*
X043265Y025390D01*
X042765Y024890D01*
X042765Y022640D01*
X043265Y022140D01*
X043265Y021390D01*
X043265Y019890D01*
X042765Y019390D01*
X042765Y017015D01*
X043126Y016570D02*
X043404Y016570D01*
X043267Y016729D02*
X043263Y016729D01*
X043765Y017015D02*
X043765Y019390D01*
X044265Y019890D01*
X044265Y021390D01*
X044265Y022140D01*
X043765Y022640D01*
X043765Y024890D01*
X044265Y025390D01*
X044265Y026890D01*
X044265Y027640D01*
X043765Y028140D01*
X043765Y030390D01*
X044265Y030890D01*
X044265Y032390D01*
X044265Y033140D01*
X043765Y033640D01*
X043765Y035890D01*
X044265Y036390D01*
X044265Y037890D01*
X045679Y037175D02*
X045851Y037175D01*
X044765Y036390D02*
X044765Y041140D01*
X042765Y040140D02*
X042765Y036390D01*
X042265Y035890D01*
X042265Y034890D01*
X042265Y033640D01*
X042765Y033140D01*
X042765Y030890D01*
X042265Y030390D01*
X042265Y029390D01*
X042265Y028140D01*
X042765Y027640D01*
X042765Y025390D01*
X042265Y024890D01*
X042265Y023890D01*
X042265Y022640D01*
X042765Y022140D01*
X042765Y019890D01*
X042265Y019390D01*
X042265Y018390D01*
X042263Y016729D02*
X042267Y016729D01*
X042404Y016570D02*
X042126Y016570D01*
X044365Y016253D02*
X034040Y016253D01*
X034040Y016095D02*
X044365Y016095D01*
X044365Y015936D02*
X034040Y015936D01*
X034040Y015778D02*
X044365Y015778D01*
X044365Y015619D02*
X034040Y015619D01*
X034040Y015461D02*
X044365Y015461D01*
X044361Y015302D02*
X034040Y015302D01*
X034040Y015144D02*
X044203Y015144D01*
X044044Y014985D02*
X034040Y014985D01*
X034040Y014827D02*
X043886Y014827D01*
X043727Y014668D02*
X034040Y014668D01*
X034040Y014510D02*
X043569Y014510D01*
X043410Y014351D02*
X034040Y014351D01*
X034040Y014193D02*
X043252Y014193D01*
X043142Y014034D02*
X034040Y014034D01*
X034040Y013876D02*
X043115Y013876D01*
X043115Y013717D02*
X034040Y013717D01*
X034040Y013559D02*
X043115Y013559D01*
X043115Y013400D02*
X034040Y013400D01*
X034040Y013242D02*
X043115Y013242D01*
X043115Y013083D02*
X034040Y013083D01*
X034040Y012925D02*
X043115Y012925D01*
X043115Y012766D02*
X034022Y012766D01*
X033923Y012608D02*
X043115Y012608D01*
X043115Y012449D02*
X033765Y012449D01*
X033606Y012291D02*
X043115Y012291D01*
X043115Y012132D02*
X033448Y012132D01*
X033289Y011974D02*
X043115Y011974D01*
X043115Y011815D02*
X033131Y011815D01*
X032972Y011657D02*
X043115Y011657D01*
X043115Y011498D02*
X032814Y011498D01*
X032655Y011340D02*
X043115Y011340D01*
X043115Y011181D02*
X032497Y011181D01*
X032338Y011023D02*
X043115Y011023D01*
X043115Y010864D02*
X032180Y010864D01*
X032021Y010706D02*
X043115Y010706D01*
X043115Y010547D02*
X031863Y010547D01*
X031704Y010389D02*
X043082Y010389D01*
X042987Y010230D02*
X031546Y010230D01*
X031387Y010072D02*
X042945Y010072D01*
X042945Y009913D02*
X031229Y009913D01*
X031070Y009755D02*
X043006Y009755D01*
X043128Y009596D02*
X031130Y009596D01*
X031346Y009438D02*
X043247Y009438D01*
X043088Y009279D02*
X031444Y009279D01*
X031486Y009121D02*
X042930Y009121D01*
X042771Y008962D02*
X031490Y008962D01*
X031490Y008804D02*
X042613Y008804D01*
X042454Y008645D02*
X031490Y008645D01*
X031490Y008765D02*
X030890Y008765D01*
X031490Y008765D01*
X031490Y008487D02*
X042296Y008487D01*
X042390Y008015D02*
X045765Y011390D01*
X045765Y019390D01*
X046265Y019890D01*
X046265Y021390D01*
X046665Y020661D02*
X046665Y019810D01*
X046522Y019582D02*
X047540Y019582D01*
X047540Y019423D02*
X046364Y019423D01*
X046347Y019265D02*
X047540Y019265D01*
X047575Y019106D02*
X046678Y019106D01*
X046265Y019106D02*
X046265Y019106D01*
X046265Y018948D02*
X046265Y018948D01*
X046265Y018789D02*
X046265Y018789D01*
X046265Y018631D02*
X046265Y018631D01*
X046265Y018472D02*
X046265Y018472D01*
X046265Y019265D02*
X046265Y019265D01*
X046665Y020216D02*
X048990Y020216D01*
X048990Y020374D02*
X046665Y020374D01*
X046665Y020533D02*
X048990Y020533D01*
X048990Y019740D02*
X048639Y019740D01*
X048740Y019582D02*
X048990Y019582D01*
X048990Y019423D02*
X048740Y019423D01*
X048740Y019265D02*
X048990Y019265D01*
X048977Y019106D02*
X048705Y019106D01*
X048856Y018948D02*
X048546Y018948D01*
X050890Y017890D02*
X050890Y022140D01*
X048140Y024290D02*
X048140Y024890D01*
X048140Y024890D01*
X048140Y024290D01*
X048140Y024337D02*
X048140Y024337D01*
X048140Y024495D02*
X048140Y024495D01*
X048140Y024654D02*
X048140Y024654D01*
X048140Y024812D02*
X048140Y024812D01*
X048140Y024971D02*
X048140Y024971D01*
X048140Y025129D02*
X048140Y025129D01*
X048140Y025288D02*
X048140Y025288D01*
X048140Y025446D02*
X048140Y025446D01*
X046265Y024654D02*
X046265Y024654D01*
X046265Y024495D02*
X046265Y024495D01*
X046265Y024337D02*
X046265Y024337D01*
X046265Y024178D02*
X046265Y024178D01*
X046265Y024020D02*
X046265Y024020D01*
X046265Y023861D02*
X046265Y023861D01*
X046265Y023703D02*
X046265Y023703D01*
X046265Y023544D02*
X046265Y023544D01*
X046265Y023386D02*
X046265Y023386D01*
X046265Y023227D02*
X046265Y023227D01*
X045765Y020265D02*
X045765Y033140D01*
X045265Y033640D01*
X045265Y034890D01*
X044265Y034890D02*
X044265Y033640D01*
X044765Y033140D01*
X044765Y030890D01*
X044265Y030390D01*
X044265Y029390D01*
X038765Y027640D02*
X038765Y025390D01*
X038265Y024890D01*
X038265Y023890D01*
X037365Y024812D02*
X036615Y024812D01*
X036615Y024654D02*
X036900Y024654D01*
X036750Y024495D02*
X036469Y024495D01*
X036310Y024337D02*
X036685Y024337D01*
X036665Y024178D02*
X035745Y024178D01*
X035745Y024020D02*
X036665Y024020D01*
X036665Y023861D02*
X035745Y023861D01*
X035745Y023703D02*
X036665Y023703D01*
X036665Y023544D02*
X035745Y023544D01*
X035745Y023386D02*
X036709Y023386D01*
X036799Y023227D02*
X035745Y023227D01*
X035745Y023069D02*
X037004Y023069D01*
X037365Y022910D02*
X035745Y022910D01*
X035745Y022752D02*
X037365Y022752D01*
X037365Y022593D02*
X035745Y022593D01*
X035745Y022435D02*
X037365Y022435D01*
X037365Y022276D02*
X035808Y022276D01*
X035966Y022118D02*
X036864Y022118D01*
X036735Y021959D02*
X036294Y021959D01*
X036453Y021801D02*
X036670Y021801D01*
X036665Y021642D02*
X036611Y021642D01*
X036615Y021484D02*
X036665Y021484D01*
X036665Y021325D02*
X036615Y021325D01*
X036615Y021167D02*
X036665Y021167D01*
X036665Y021008D02*
X036482Y021008D01*
X036323Y020850D02*
X036723Y020850D01*
X036835Y020691D02*
X034570Y020691D01*
X034540Y020533D02*
X036865Y020533D01*
X036865Y020374D02*
X034540Y020374D01*
X034540Y020216D02*
X036865Y020216D01*
X036865Y020057D02*
X034540Y020057D01*
X034540Y019899D02*
X035675Y019899D01*
X035766Y019990D02*
X035415Y019639D01*
X035415Y019390D01*
X036015Y019390D01*
X036015Y019390D01*
X036015Y019990D01*
X036264Y019990D01*
X036615Y019639D01*
X036615Y019390D01*
X036015Y019390D01*
X036015Y019390D01*
X036015Y019390D01*
X036015Y019990D01*
X035766Y019990D01*
X036015Y019899D02*
X036015Y019899D01*
X036015Y019740D02*
X036015Y019740D01*
X036015Y019582D02*
X036015Y019582D01*
X036015Y019423D02*
X036015Y019423D01*
X036015Y019390D02*
X035415Y019390D01*
X035415Y019141D01*
X035766Y018790D01*
X036015Y018790D01*
X036264Y018790D01*
X036615Y019141D01*
X036615Y019390D01*
X036015Y019390D01*
X036015Y018790D01*
X036015Y019390D01*
X036015Y019390D01*
X036015Y019265D02*
X036015Y019265D01*
X036015Y019106D02*
X036015Y019106D01*
X036015Y018948D02*
X036015Y018948D01*
X036421Y018948D02*
X036731Y018948D01*
X036852Y019106D02*
X036580Y019106D01*
X036615Y019265D02*
X036865Y019265D01*
X036865Y019423D02*
X036615Y019423D01*
X036615Y019582D02*
X036865Y019582D01*
X036865Y019740D02*
X036514Y019740D01*
X036355Y019899D02*
X036865Y019899D01*
X035516Y019740D02*
X034511Y019740D01*
X034397Y019582D02*
X035415Y019582D01*
X035415Y019423D02*
X034239Y019423D01*
X034222Y019265D02*
X035415Y019265D01*
X035450Y019106D02*
X034553Y019106D01*
X034672Y018948D02*
X035609Y018948D01*
X034740Y018472D02*
X036665Y018472D01*
X036665Y018314D02*
X034740Y018314D01*
X034740Y018155D02*
X036665Y018155D01*
X036665Y017997D02*
X034730Y017997D01*
X034675Y017838D02*
X036728Y017838D01*
X036847Y017680D02*
X034558Y017680D01*
X034140Y017680D02*
X034140Y017680D01*
X034140Y017838D02*
X034140Y017838D01*
X034140Y017997D02*
X034140Y017997D01*
X034140Y018155D02*
X034140Y018155D01*
X034140Y018314D02*
X034140Y018314D01*
X034140Y018390D02*
X034140Y018390D01*
X034140Y018472D02*
X034140Y018472D01*
X034140Y018631D02*
X034140Y018631D01*
X034140Y018789D02*
X034140Y018789D01*
X034140Y018948D02*
X034140Y018948D01*
X034140Y019106D02*
X034140Y019106D01*
X034140Y019265D02*
X034140Y019265D01*
X033640Y019390D02*
X034140Y019890D01*
X034140Y021390D01*
X034740Y021325D02*
X035401Y021325D01*
X035415Y021167D02*
X034740Y021167D01*
X034740Y021008D02*
X035548Y021008D01*
X035707Y020850D02*
X034682Y020850D01*
X034740Y021484D02*
X035243Y021484D01*
X035084Y021642D02*
X034740Y021642D01*
X034735Y021801D02*
X034926Y021801D01*
X034820Y021959D02*
X034670Y021959D01*
X034785Y022118D02*
X034541Y022118D01*
X034785Y022276D02*
X033017Y022276D01*
X032911Y022435D02*
X034785Y022435D01*
X034785Y022593D02*
X032753Y022593D01*
X032594Y022752D02*
X034785Y022752D01*
X034785Y022910D02*
X032540Y022910D01*
X032540Y023069D02*
X032879Y023069D01*
X032674Y023227D02*
X032606Y023227D01*
X032140Y022640D02*
X032140Y023890D01*
X032140Y024890D01*
X032640Y025390D01*
X032640Y027640D01*
X032140Y028140D01*
X032140Y029390D01*
X032140Y030390D01*
X032640Y030890D01*
X032640Y033140D01*
X032140Y033640D01*
X033398Y033213D02*
X033882Y033213D01*
X033676Y033054D02*
X033604Y033054D01*
X034140Y034010D02*
X034140Y034890D01*
X034140Y034010D01*
X034140Y034164D02*
X034140Y034164D01*
X034140Y034322D02*
X034140Y034322D01*
X034140Y034481D02*
X034140Y034481D01*
X034140Y034639D02*
X034140Y034639D01*
X034140Y034798D02*
X034140Y034798D01*
X034140Y034890D02*
X034140Y034890D01*
X034140Y034956D02*
X034140Y034956D01*
X034140Y035115D02*
X034140Y035115D01*
X034140Y035273D02*
X034140Y035273D01*
X034140Y035432D02*
X034140Y035432D01*
X034140Y035590D02*
X034140Y035590D01*
X034140Y035749D02*
X034140Y035749D01*
X034301Y035749D02*
X034785Y035749D01*
X034785Y035907D02*
X032723Y035907D01*
X032881Y036066D02*
X034785Y036066D01*
X034785Y036224D02*
X033004Y036224D01*
X033040Y036383D02*
X034785Y036383D01*
X034785Y036541D02*
X033040Y036541D01*
X033040Y036700D02*
X034785Y036700D01*
X034785Y036858D02*
X033040Y036858D01*
X033275Y037017D02*
X034005Y037017D01*
X034275Y037017D02*
X034785Y037017D01*
X034785Y037175D02*
X034554Y037175D01*
X034675Y037334D02*
X034785Y037334D01*
X034785Y037492D02*
X034740Y037492D01*
X034740Y037651D02*
X034785Y037651D01*
X034785Y037809D02*
X034740Y037809D01*
X034740Y037968D02*
X034785Y037968D01*
X034785Y038126D02*
X034740Y038126D01*
X034740Y038285D02*
X034785Y038285D01*
X034785Y038443D02*
X034676Y038443D01*
X034785Y038602D02*
X034557Y038602D01*
X034785Y038760D02*
X034283Y038760D01*
X033997Y038760D02*
X033283Y038760D01*
X033557Y038602D02*
X033723Y038602D01*
X033726Y037175D02*
X033554Y037175D01*
X033311Y035749D02*
X033979Y035749D01*
X033712Y035590D02*
X033568Y035590D01*
X032969Y035749D02*
X032564Y035749D01*
X032568Y035590D02*
X032712Y035590D01*
X034568Y035590D02*
X034785Y035590D01*
X034785Y035432D02*
X034680Y035432D01*
X034731Y035273D02*
X034785Y035273D01*
X034785Y035115D02*
X034740Y035115D01*
X034740Y034956D02*
X034785Y034956D01*
X034785Y034798D02*
X034740Y034798D01*
X034740Y034639D02*
X034785Y034639D01*
X034785Y034481D02*
X034727Y034481D01*
X034667Y034322D02*
X034785Y034322D01*
X034785Y034164D02*
X034542Y034164D01*
X033738Y034164D02*
X033542Y034164D01*
X030640Y033140D02*
X030140Y033640D01*
X030140Y034890D01*
X029140Y034890D02*
X029140Y033640D01*
X029640Y033140D01*
X029640Y030890D01*
X029140Y030390D01*
X029140Y029390D01*
X029140Y028140D01*
X029640Y027640D01*
X029640Y025390D01*
X029140Y024890D01*
X029140Y023890D01*
X029140Y022640D01*
X029640Y022140D01*
X029640Y019890D01*
X029140Y019390D01*
X029140Y018390D01*
X030140Y018390D02*
X030140Y019390D01*
X030640Y019890D01*
X030640Y022140D01*
X030140Y022640D01*
X030140Y023890D01*
X030140Y024890D01*
X030640Y025390D01*
X030640Y027640D01*
X030140Y028140D01*
X030140Y029390D01*
X030140Y030390D01*
X030640Y030890D01*
X030640Y033140D01*
X030140Y033140D02*
X030140Y032390D01*
X030140Y030890D01*
X029640Y030390D01*
X029640Y028140D01*
X030140Y027640D01*
X030140Y026890D01*
X030140Y025390D01*
X029640Y024890D01*
X029640Y022640D01*
X030140Y022140D01*
X030140Y021390D01*
X030140Y019890D01*
X029640Y019390D01*
X029640Y017015D01*
X030001Y016570D02*
X030279Y016570D01*
X030142Y016729D02*
X030138Y016729D01*
X029279Y016570D02*
X029001Y016570D01*
X029138Y016729D02*
X029142Y016729D01*
X028640Y017015D02*
X028640Y019390D01*
X029140Y019890D01*
X029140Y021390D01*
X029140Y022140D01*
X028640Y022640D01*
X028640Y024890D01*
X029140Y025390D01*
X029140Y026890D01*
X029140Y027640D01*
X028640Y028140D01*
X028640Y030390D01*
X029140Y030890D01*
X029140Y032390D01*
X029140Y033140D01*
X028640Y033640D01*
X028640Y035890D01*
X029140Y036390D01*
X029140Y037890D01*
X028723Y038602D02*
X028557Y038602D01*
X027723Y038602D02*
X027557Y038602D01*
X026723Y038602D02*
X026557Y038602D01*
X025723Y038602D02*
X025557Y038602D01*
X024723Y038602D02*
X023620Y038602D01*
X023620Y038443D02*
X024604Y038443D01*
X024540Y038285D02*
X024219Y038285D01*
X024377Y038126D02*
X024540Y038126D01*
X024540Y037968D02*
X024490Y037968D01*
X024490Y037809D02*
X024540Y037809D01*
X024540Y037651D02*
X024490Y037651D01*
X024466Y037492D02*
X024540Y037492D01*
X024605Y037334D02*
X024307Y037334D01*
X024149Y037175D02*
X024726Y037175D01*
X025005Y037017D02*
X023620Y037017D01*
X023620Y037175D02*
X023631Y037175D01*
X023620Y036858D02*
X028740Y036858D01*
X028740Y036700D02*
X023620Y036700D01*
X023620Y036541D02*
X028725Y036541D01*
X028567Y036383D02*
X023620Y036383D01*
X023890Y036224D02*
X023890Y036224D01*
X023890Y036066D02*
X023890Y036066D01*
X023890Y035907D02*
X023890Y035907D01*
X023890Y035765D02*
X023890Y035165D01*
X023890Y035765D01*
X023890Y035765D01*
X023890Y035749D02*
X023890Y035749D01*
X023890Y035590D02*
X023890Y035590D01*
X023890Y035432D02*
X023890Y035432D01*
X023890Y035273D02*
X023890Y035273D01*
X023620Y035115D02*
X024540Y035115D01*
X024540Y035273D02*
X024247Y035273D01*
X024405Y035432D02*
X024599Y035432D01*
X024490Y035590D02*
X024712Y035590D01*
X024490Y035749D02*
X024969Y035749D01*
X025311Y035749D02*
X025969Y035749D01*
X025712Y035590D02*
X025568Y035590D01*
X026311Y035749D02*
X026969Y035749D01*
X026712Y035590D02*
X026568Y035590D01*
X027311Y035749D02*
X027969Y035749D01*
X027712Y035590D02*
X027568Y035590D01*
X028240Y035907D02*
X024490Y035907D01*
X024438Y036066D02*
X028280Y036066D01*
X028408Y036224D02*
X024279Y036224D01*
X025275Y037017D02*
X026005Y037017D01*
X026275Y037017D02*
X027005Y037017D01*
X027275Y037017D02*
X028005Y037017D01*
X028275Y037017D02*
X028740Y037017D01*
X028726Y037175D02*
X028554Y037175D01*
X027726Y037175D02*
X027554Y037175D01*
X026726Y037175D02*
X026554Y037175D01*
X025726Y037175D02*
X025554Y037175D01*
X024540Y034956D02*
X023620Y034956D01*
X023620Y034798D02*
X024540Y034798D01*
X024540Y034639D02*
X023620Y034639D01*
X023620Y034481D02*
X024544Y034481D01*
X024610Y034322D02*
X023620Y034322D01*
X023620Y034164D02*
X024738Y034164D01*
X024740Y034005D02*
X023620Y034005D01*
X023620Y033847D02*
X024740Y033847D01*
X024740Y033688D02*
X023620Y033688D01*
X023620Y033530D02*
X024740Y033530D01*
X024740Y033371D02*
X023620Y033371D01*
X023620Y033213D02*
X024740Y033213D01*
X024676Y033054D02*
X023620Y033054D01*
X024233Y032896D02*
X024584Y032896D01*
X024540Y032737D02*
X024391Y032737D01*
X024490Y032579D02*
X024540Y032579D01*
X024540Y032420D02*
X024490Y032420D01*
X024490Y032262D02*
X024540Y032262D01*
X024540Y032103D02*
X024452Y032103D01*
X024559Y031945D02*
X024293Y031945D01*
X024625Y031786D02*
X023620Y031786D01*
X023620Y031628D02*
X024774Y031628D01*
X025240Y031469D02*
X023620Y031469D01*
X023620Y031311D02*
X025240Y031311D01*
X025240Y031152D02*
X023620Y031152D01*
X023620Y030994D02*
X025240Y030994D01*
X025240Y030835D02*
X024293Y030835D01*
X024452Y030677D02*
X025240Y030677D01*
X025240Y030518D02*
X024490Y030518D01*
X024490Y030360D02*
X025240Y030360D01*
X024854Y030201D02*
X024490Y030201D01*
X024391Y030043D02*
X024664Y030043D01*
X024579Y029884D02*
X024233Y029884D01*
X023890Y029884D02*
X023890Y029884D01*
X023890Y029790D02*
X023890Y030390D01*
X023890Y030390D01*
X023890Y029790D01*
X023890Y030043D02*
X023890Y030043D01*
X023890Y030201D02*
X023890Y030201D01*
X023890Y030360D02*
X023890Y030360D01*
X023890Y030518D02*
X023890Y030518D01*
X023890Y030677D02*
X023890Y030677D01*
X023890Y030835D02*
X023890Y030835D01*
X023620Y029726D02*
X024540Y029726D01*
X024540Y029567D02*
X023620Y029567D01*
X023620Y029409D02*
X024540Y029409D01*
X024540Y029250D02*
X023620Y029250D01*
X023620Y029092D02*
X024540Y029092D01*
X024564Y028933D02*
X023620Y028933D01*
X023620Y028775D02*
X024630Y028775D01*
X024785Y028616D02*
X023620Y028616D01*
X023620Y028458D02*
X025240Y028458D01*
X025240Y028299D02*
X023620Y028299D01*
X023620Y028141D02*
X025240Y028141D01*
X025240Y027982D02*
X023620Y027982D01*
X023620Y027824D02*
X025240Y027824D01*
X024787Y027665D02*
X023620Y027665D01*
X023620Y027507D02*
X024630Y027507D01*
X024564Y027348D02*
X024280Y027348D01*
X024439Y027190D02*
X024540Y027190D01*
X024540Y027031D02*
X024490Y027031D01*
X024490Y026873D02*
X024540Y026873D01*
X024540Y026714D02*
X024490Y026714D01*
X024540Y026556D02*
X024404Y026556D01*
X024246Y026397D02*
X024579Y026397D01*
X024663Y026239D02*
X023620Y026239D01*
X023620Y026080D02*
X024852Y026080D01*
X025240Y025922D02*
X023620Y025922D01*
X023620Y025763D02*
X025240Y025763D01*
X025240Y025605D02*
X023620Y025605D01*
X023890Y025446D02*
X023890Y025446D01*
X023890Y025288D02*
X023890Y025288D01*
X023890Y025129D02*
X023890Y025129D01*
X023890Y024971D02*
X023890Y024971D01*
X023890Y024890D02*
X023890Y024290D01*
X023890Y024890D01*
X023890Y024890D01*
X023890Y024812D02*
X023890Y024812D01*
X023890Y024654D02*
X023890Y024654D01*
X023890Y024495D02*
X023890Y024495D01*
X023890Y024337D02*
X023890Y024337D01*
X024185Y024337D02*
X024560Y024337D01*
X024540Y024178D02*
X023620Y024178D01*
X023620Y024020D02*
X024540Y024020D01*
X024540Y023861D02*
X023620Y023861D01*
X023620Y023703D02*
X024540Y023703D01*
X024540Y023544D02*
X023620Y023544D01*
X023620Y023386D02*
X024584Y023386D01*
X024674Y023227D02*
X023620Y023227D01*
X023620Y023069D02*
X024879Y023069D01*
X025240Y022910D02*
X023620Y022910D01*
X023620Y022752D02*
X025240Y022752D01*
X025240Y022593D02*
X023620Y022593D01*
X023620Y022435D02*
X025240Y022435D01*
X025240Y022276D02*
X023620Y022276D01*
X023620Y022118D02*
X024739Y022118D01*
X024610Y021959D02*
X024169Y021959D01*
X024328Y021801D02*
X024545Y021801D01*
X024540Y021642D02*
X024486Y021642D01*
X024490Y021484D02*
X024540Y021484D01*
X024540Y021325D02*
X024490Y021325D01*
X024490Y021167D02*
X024540Y021167D01*
X024540Y021008D02*
X024357Y021008D01*
X024198Y020850D02*
X024598Y020850D01*
X024710Y020691D02*
X023620Y020691D01*
X023620Y020533D02*
X024740Y020533D01*
X024740Y020374D02*
X023620Y020374D01*
X023620Y020216D02*
X024740Y020216D01*
X024740Y020057D02*
X023620Y020057D01*
X023890Y019899D02*
X023890Y019899D01*
X023890Y019740D02*
X023890Y019740D01*
X023890Y019582D02*
X023890Y019582D01*
X023890Y019423D02*
X023890Y019423D01*
X023890Y019390D02*
X023890Y018790D01*
X023890Y019390D01*
X023890Y019390D01*
X023890Y019265D02*
X023890Y019265D01*
X023890Y019106D02*
X023890Y019106D01*
X023890Y018948D02*
X023890Y018948D01*
X024296Y018948D02*
X024606Y018948D01*
X024727Y019106D02*
X024455Y019106D01*
X024490Y019265D02*
X024740Y019265D01*
X024740Y019423D02*
X024490Y019423D01*
X024490Y019582D02*
X024740Y019582D01*
X024740Y019740D02*
X024389Y019740D01*
X024230Y019899D02*
X024740Y019899D01*
X025640Y019890D02*
X026140Y019390D01*
X026140Y018390D01*
X026558Y017680D02*
X026722Y017680D01*
X026994Y017521D02*
X026286Y017521D01*
X025994Y017521D02*
X025286Y017521D01*
X024994Y017521D02*
X023620Y017521D01*
X023620Y017363D02*
X028181Y017363D01*
X028101Y017204D02*
X023620Y017204D01*
X023620Y017046D02*
X028070Y017046D01*
X028076Y016887D02*
X023620Y016887D01*
X023620Y016729D02*
X028142Y016729D01*
X028279Y016570D02*
X023620Y016570D01*
X023620Y016412D02*
X033240Y016412D01*
X033240Y016570D02*
X032001Y016570D01*
X032138Y016729D02*
X033240Y016729D01*
X033240Y016887D02*
X032204Y016887D01*
X032210Y017046D02*
X033240Y017046D01*
X033240Y017204D02*
X032179Y017204D01*
X032099Y017363D02*
X033240Y017363D01*
X032994Y017521D02*
X032286Y017521D01*
X032558Y017680D02*
X032722Y017680D01*
X033140Y018390D02*
X032140Y018390D01*
X032140Y019390D01*
X032640Y019890D01*
X032640Y022140D01*
X032140Y022640D01*
X032140Y023890D02*
X033140Y023890D01*
X033606Y023227D02*
X033677Y023227D01*
X033881Y023069D02*
X033401Y023069D01*
X034140Y023069D02*
X034140Y023069D01*
X034140Y023010D02*
X034140Y023890D01*
X034140Y023890D01*
X034140Y023010D01*
X034140Y023227D02*
X034140Y023227D01*
X034140Y023386D02*
X034140Y023386D01*
X034140Y023544D02*
X034140Y023544D01*
X034140Y023703D02*
X034140Y023703D01*
X034140Y023861D02*
X034140Y023861D01*
X034140Y024020D02*
X034140Y024020D01*
X034140Y024178D02*
X034140Y024178D01*
X034140Y024337D02*
X034140Y024337D01*
X034140Y024495D02*
X034140Y024495D01*
X034140Y024654D02*
X034140Y024654D01*
X034495Y024654D02*
X034785Y024654D01*
X034785Y024812D02*
X032628Y024812D01*
X032540Y024654D02*
X032775Y024654D01*
X032786Y024971D02*
X034785Y024971D01*
X034785Y025129D02*
X032945Y025129D01*
X033031Y025288D02*
X034785Y025288D01*
X034785Y025446D02*
X033040Y025446D01*
X033040Y025605D02*
X034785Y025605D01*
X034785Y025763D02*
X033040Y025763D01*
X033040Y025922D02*
X034785Y025922D01*
X034785Y026080D02*
X034428Y026080D01*
X034617Y026239D02*
X034785Y026239D01*
X034785Y026397D02*
X034701Y026397D01*
X034740Y026556D02*
X034785Y026556D01*
X034785Y026714D02*
X034740Y026714D01*
X034740Y026873D02*
X034785Y026873D01*
X034785Y027031D02*
X034740Y027031D01*
X034740Y027190D02*
X034785Y027190D01*
X034785Y027348D02*
X034716Y027348D01*
X034650Y027507D02*
X034785Y027507D01*
X034785Y027665D02*
X034493Y027665D01*
X034785Y027824D02*
X032997Y027824D01*
X032864Y027982D02*
X034785Y027982D01*
X034785Y028141D02*
X032705Y028141D01*
X032547Y028299D02*
X034785Y028299D01*
X034785Y028458D02*
X032540Y028458D01*
X032540Y028616D02*
X032785Y028616D01*
X033495Y028616D02*
X033799Y028616D01*
X034140Y028616D02*
X034140Y028616D01*
X034140Y028510D02*
X034140Y029390D01*
X034140Y029390D01*
X034140Y028510D01*
X034140Y028775D02*
X034140Y028775D01*
X034140Y028933D02*
X034140Y028933D01*
X034140Y029092D02*
X034140Y029092D01*
X034140Y029250D02*
X034140Y029250D01*
X034140Y029409D02*
X034140Y029409D01*
X034140Y029567D02*
X034140Y029567D01*
X034140Y029726D02*
X034140Y029726D01*
X034140Y029884D02*
X034140Y029884D01*
X034140Y030043D02*
X034140Y030043D01*
X034140Y030201D02*
X034140Y030201D01*
X034419Y030201D02*
X034785Y030201D01*
X034785Y030043D02*
X034611Y030043D01*
X034701Y029884D02*
X034785Y029884D01*
X034785Y029726D02*
X034739Y029726D01*
X034740Y029567D02*
X034785Y029567D01*
X034785Y029409D02*
X034740Y029409D01*
X034740Y029250D02*
X034785Y029250D01*
X034785Y029092D02*
X034740Y029092D01*
X034713Y028933D02*
X034785Y028933D01*
X034785Y028775D02*
X034638Y028775D01*
X034785Y028616D02*
X034481Y028616D01*
X033787Y027665D02*
X033493Y027665D01*
X033617Y026239D02*
X033663Y026239D01*
X033852Y026080D02*
X033428Y026080D01*
X033505Y024654D02*
X033785Y024654D01*
X034645Y024495D02*
X034785Y024495D01*
X034785Y024337D02*
X034717Y024337D01*
X034740Y024178D02*
X034785Y024178D01*
X034785Y024020D02*
X034740Y024020D01*
X034740Y023861D02*
X034785Y023861D01*
X034785Y023703D02*
X034740Y023703D01*
X034737Y023544D02*
X034785Y023544D01*
X034785Y023386D02*
X034698Y023386D01*
X034785Y023227D02*
X034603Y023227D01*
X034785Y023069D02*
X034399Y023069D01*
X033739Y022118D02*
X033541Y022118D01*
X033640Y019390D02*
X033640Y012890D01*
X029890Y009140D01*
X029890Y008765D01*
X029390Y009394D02*
X029230Y009554D01*
X029009Y009645D01*
X028771Y009645D01*
X028550Y009554D01*
X028390Y009394D01*
X028230Y009554D01*
X028009Y009645D01*
X027951Y009645D01*
X027617Y009979D01*
X027470Y010040D01*
X025310Y010040D01*
X025163Y009979D01*
X025051Y009867D01*
X024829Y009645D01*
X024771Y009645D01*
X024550Y009554D01*
X024381Y009385D01*
X024290Y009164D01*
X024290Y008366D01*
X024332Y008263D01*
X023431Y009165D01*
X023515Y009165D01*
X023764Y009165D01*
X024115Y009516D01*
X024115Y009765D01*
X024115Y010014D01*
X023764Y010365D01*
X023515Y010365D01*
X023515Y009765D01*
X023515Y009765D01*
X024115Y009765D01*
X023515Y009765D01*
X023515Y009765D01*
X023515Y009765D01*
X022915Y009765D01*
X022915Y010014D01*
X023266Y010365D01*
X023515Y010365D01*
X023515Y009765D01*
X023515Y009165D01*
X023515Y009765D01*
X023515Y009765D01*
X022915Y009765D01*
X022915Y009681D01*
X021915Y010681D01*
X021915Y017518D01*
X021968Y017510D01*
X022015Y017510D01*
X022062Y017510D01*
X022155Y017525D01*
X022245Y017554D01*
X022329Y017597D01*
X022406Y017652D01*
X022473Y017719D01*
X022528Y017796D01*
X022571Y017880D01*
X022600Y017969D01*
X022615Y018063D01*
X022615Y018390D01*
X022615Y018717D01*
X022600Y018810D01*
X022571Y018900D01*
X022528Y018984D01*
X022473Y019061D01*
X022406Y019128D01*
X022329Y019183D01*
X022245Y019226D01*
X022155Y019255D01*
X022062Y019270D01*
X022015Y019270D01*
X022015Y018390D01*
X022015Y018390D01*
X022615Y018390D01*
X022015Y018390D01*
X022015Y018390D01*
X022015Y019270D01*
X021968Y019270D01*
X021915Y019262D01*
X021915Y020510D01*
X022134Y020510D01*
X022355Y020601D01*
X022524Y020770D01*
X022615Y020991D01*
X022615Y021789D01*
X022524Y022010D01*
X022355Y022179D01*
X022134Y022270D01*
X021915Y022270D01*
X021915Y023018D01*
X021968Y023010D01*
X022015Y023010D01*
X022062Y023010D01*
X022155Y023025D01*
X022245Y023054D01*
X022329Y023097D01*
X022406Y023152D01*
X022473Y023219D01*
X022528Y023296D01*
X022571Y023380D01*
X022600Y023469D01*
X022615Y023563D01*
X022615Y023890D01*
X022615Y024217D01*
X022600Y024310D01*
X022571Y024400D01*
X022528Y024484D01*
X022473Y024561D01*
X022406Y024628D01*
X022329Y024683D01*
X022245Y024726D01*
X022155Y024755D01*
X022062Y024770D01*
X022015Y024770D01*
X022015Y023890D01*
X022015Y023890D01*
X022615Y023890D01*
X022015Y023890D01*
X022015Y023890D01*
X022015Y024770D01*
X021968Y024770D01*
X021915Y024762D01*
X021915Y026010D01*
X022134Y026010D01*
X022355Y026101D01*
X022524Y026270D01*
X022615Y026491D01*
X022615Y027289D01*
X022524Y027510D01*
X022355Y027679D01*
X022134Y027770D01*
X021915Y027770D01*
X021915Y028518D01*
X021968Y028510D01*
X022015Y028510D01*
X022062Y028510D01*
X022155Y028525D01*
X022245Y028554D01*
X022329Y028597D01*
X022406Y028652D01*
X022473Y028719D01*
X022528Y028796D01*
X022571Y028880D01*
X022600Y028969D01*
X022615Y029063D01*
X022615Y029390D01*
X022615Y029717D01*
X022600Y029810D01*
X022571Y029900D01*
X022528Y029984D01*
X022473Y030061D01*
X022406Y030128D01*
X022329Y030183D01*
X022245Y030226D01*
X022155Y030255D01*
X022062Y030270D01*
X022015Y030270D01*
X022015Y029390D01*
X022015Y029390D01*
X022615Y029390D01*
X022015Y029390D01*
X022015Y029390D01*
X022015Y030270D01*
X021968Y030270D01*
X021915Y030262D01*
X021915Y031510D01*
X022134Y031510D01*
X022355Y031601D01*
X022524Y031770D01*
X022615Y031991D01*
X022615Y032789D01*
X022524Y033010D01*
X022355Y033179D01*
X022134Y033270D01*
X021915Y033270D01*
X021915Y034018D01*
X021968Y034010D01*
X022015Y034010D01*
X022062Y034010D01*
X022155Y034025D01*
X022245Y034054D01*
X022329Y034097D01*
X022406Y034152D01*
X022473Y034219D01*
X022528Y034296D01*
X022571Y034380D01*
X022600Y034469D01*
X022615Y034563D01*
X022615Y034890D01*
X022615Y035217D01*
X022600Y035310D01*
X022571Y035400D01*
X022528Y035484D01*
X022473Y035561D01*
X022406Y035628D01*
X022329Y035683D01*
X022245Y035726D01*
X022155Y035755D01*
X022062Y035770D01*
X022015Y035770D01*
X022015Y034890D01*
X022015Y034890D01*
X022615Y034890D01*
X022015Y034890D01*
X022015Y034890D01*
X022015Y035770D01*
X021968Y035770D01*
X021915Y035762D01*
X021915Y036724D01*
X022242Y037051D01*
X022248Y037057D01*
X022355Y037101D01*
X022524Y037270D01*
X022615Y037491D01*
X022615Y038289D01*
X022524Y038510D01*
X022355Y038679D01*
X022134Y038770D01*
X021896Y038770D01*
X021675Y038679D01*
X021515Y038519D01*
X021355Y038679D01*
X021134Y038770D01*
X020915Y038770D01*
X020915Y040660D01*
X022660Y040660D01*
X022660Y012045D01*
X022733Y011868D01*
X022868Y011733D01*
X022915Y011686D01*
X022915Y011516D01*
X023266Y011165D01*
X023764Y011165D01*
X023884Y011285D01*
X024323Y011285D01*
X024381Y011145D01*
X024550Y010976D01*
X024771Y010885D01*
X025009Y010885D01*
X025230Y010976D01*
X025390Y011136D01*
X025550Y010976D01*
X025771Y010885D01*
X026009Y010885D01*
X026230Y010976D01*
X026390Y011136D01*
X026550Y010976D01*
X026657Y010932D01*
X026926Y010663D01*
X027038Y010551D01*
X027185Y010490D01*
X028595Y010490D01*
X028742Y010551D01*
X029117Y010926D01*
X029123Y010932D01*
X029230Y010976D01*
X029390Y011136D01*
X029550Y010976D01*
X029771Y010885D01*
X030009Y010885D01*
X030230Y010976D01*
X030390Y011136D01*
X030550Y010976D01*
X030771Y010885D01*
X031009Y010885D01*
X031112Y010927D01*
X029829Y009645D01*
X029771Y009645D01*
X029550Y009554D01*
X029390Y009394D01*
X029346Y009438D02*
X029434Y009438D01*
X029652Y009596D02*
X029128Y009596D01*
X028652Y009596D02*
X028128Y009596D01*
X028346Y009438D02*
X028434Y009438D01*
X027890Y009140D02*
X027890Y008765D01*
X027890Y009140D02*
X027390Y009640D01*
X025390Y009640D01*
X024890Y009140D01*
X024890Y008765D01*
X024290Y008804D02*
X023792Y008804D01*
X023634Y008962D02*
X024290Y008962D01*
X024290Y009121D02*
X023475Y009121D01*
X023515Y009279D02*
X023515Y009279D01*
X023515Y009438D02*
X023515Y009438D01*
X023515Y009596D02*
X023515Y009596D01*
X023515Y009755D02*
X023515Y009755D01*
X023515Y009913D02*
X023515Y009913D01*
X023515Y010072D02*
X023515Y010072D01*
X023515Y010230D02*
X023515Y010230D01*
X023899Y010230D02*
X030414Y010230D01*
X030256Y010072D02*
X024057Y010072D01*
X024115Y009913D02*
X025097Y009913D01*
X024939Y009755D02*
X024115Y009755D01*
X024115Y009596D02*
X024652Y009596D01*
X024434Y009438D02*
X024036Y009438D01*
X023878Y009279D02*
X024337Y009279D01*
X024290Y008645D02*
X023951Y008645D01*
X024109Y008487D02*
X024290Y008487D01*
X024306Y008328D02*
X024268Y008328D01*
X025390Y007640D02*
X025890Y008140D01*
X025890Y008765D01*
X026890Y008765D02*
X026890Y008265D01*
X027140Y008015D01*
X042390Y008015D01*
X043515Y010015D02*
X043515Y013890D01*
X044765Y015140D01*
X044765Y019265D01*
X045765Y020265D01*
X047390Y017140D02*
X047390Y009515D01*
X046390Y008515D01*
X046390Y006640D01*
X045890Y006140D01*
X044898Y005317D02*
X014507Y005317D01*
X014666Y005475D02*
X044739Y005475D01*
X044491Y005634D02*
X044289Y005634D01*
X043491Y005634D02*
X043289Y005634D01*
X042491Y005634D02*
X042289Y005634D01*
X041491Y005634D02*
X041289Y005634D01*
X040491Y005634D02*
X040289Y005634D01*
X039491Y005634D02*
X039289Y005634D01*
X038491Y005634D02*
X038289Y005634D01*
X037491Y005634D02*
X037289Y005634D01*
X036491Y005634D02*
X034289Y005634D01*
X034447Y005792D02*
X036333Y005792D01*
X036250Y005951D02*
X034530Y005951D01*
X034530Y006109D02*
X036250Y006109D01*
X036250Y006268D02*
X034530Y006268D01*
X034509Y006426D02*
X036271Y006426D01*
X036429Y006585D02*
X034351Y006585D01*
X034398Y006743D02*
X036382Y006743D01*
X036250Y006902D02*
X034530Y006902D01*
X034530Y007060D02*
X036250Y007060D01*
X036250Y007219D02*
X034530Y007219D01*
X034530Y007377D02*
X036250Y007377D01*
X036380Y007536D02*
X034400Y007536D01*
X033491Y005634D02*
X033289Y005634D01*
X032491Y005634D02*
X032289Y005634D01*
X031491Y005634D02*
X031289Y005634D01*
X030491Y005634D02*
X030289Y005634D01*
X029491Y005634D02*
X029289Y005634D01*
X028491Y005634D02*
X028289Y005634D01*
X027491Y005634D02*
X027289Y005634D01*
X026491Y005634D02*
X026289Y005634D01*
X025890Y006140D02*
X025390Y006640D01*
X025390Y007640D01*
X024890Y007140D02*
X021515Y010515D01*
X021515Y036890D01*
X022015Y037390D01*
X022015Y037890D01*
X022615Y037968D02*
X022660Y037968D01*
X022660Y038126D02*
X022615Y038126D01*
X022615Y038285D02*
X022660Y038285D01*
X022660Y038443D02*
X022551Y038443D01*
X022660Y038602D02*
X022432Y038602D01*
X022660Y038760D02*
X022158Y038760D01*
X021872Y038760D02*
X021158Y038760D01*
X020915Y038919D02*
X022660Y038919D01*
X022660Y039077D02*
X020915Y039077D01*
X020915Y039236D02*
X022660Y039236D01*
X022660Y039394D02*
X020915Y039394D01*
X020915Y039553D02*
X022660Y039553D01*
X022660Y039711D02*
X020915Y039711D01*
X020915Y039870D02*
X022660Y039870D01*
X022660Y040028D02*
X020915Y040028D01*
X020915Y040187D02*
X022660Y040187D01*
X022660Y040345D02*
X020915Y040345D01*
X020915Y040504D02*
X022660Y040504D01*
X020515Y041140D02*
X020515Y036390D01*
X020015Y035890D01*
X020015Y034890D01*
X020015Y033640D01*
X020515Y033140D01*
X020515Y030890D01*
X020015Y030390D01*
X020015Y029390D01*
X021015Y029390D01*
X020015Y029390D02*
X020015Y028140D01*
X020515Y027640D01*
X020515Y025390D01*
X020015Y024890D01*
X020015Y023890D01*
X021015Y023890D01*
X020015Y023890D02*
X020015Y022640D01*
X020515Y022140D01*
X020515Y019890D01*
X020015Y019390D01*
X020015Y018390D01*
X021015Y018390D01*
X022015Y018390D02*
X022015Y017510D01*
X022015Y018390D01*
X022015Y018390D01*
X022015Y018314D02*
X022015Y018314D01*
X022015Y018472D02*
X022015Y018472D01*
X022015Y018631D02*
X022015Y018631D01*
X022015Y018789D02*
X022015Y018789D01*
X022015Y018948D02*
X022015Y018948D01*
X022015Y019106D02*
X022015Y019106D01*
X022015Y019265D02*
X022015Y019265D01*
X021933Y019265D02*
X021915Y019265D01*
X021915Y019423D02*
X022660Y019423D01*
X022660Y019265D02*
X022097Y019265D01*
X021915Y019582D02*
X022660Y019582D01*
X022660Y019740D02*
X021915Y019740D01*
X021915Y019899D02*
X022660Y019899D01*
X022660Y020057D02*
X021915Y020057D01*
X021915Y020216D02*
X022660Y020216D01*
X022660Y020374D02*
X021915Y020374D01*
X022189Y020533D02*
X022660Y020533D01*
X022660Y020691D02*
X022445Y020691D01*
X022557Y020850D02*
X022660Y020850D01*
X022660Y021008D02*
X022615Y021008D01*
X022615Y021167D02*
X022660Y021167D01*
X022660Y021325D02*
X022615Y021325D01*
X022615Y021484D02*
X022660Y021484D01*
X022660Y021642D02*
X022615Y021642D01*
X022610Y021801D02*
X022660Y021801D01*
X022660Y021959D02*
X022545Y021959D01*
X022660Y022118D02*
X022416Y022118D01*
X022660Y022276D02*
X021915Y022276D01*
X021915Y022435D02*
X022660Y022435D01*
X022660Y022593D02*
X021915Y022593D01*
X021915Y022752D02*
X022660Y022752D01*
X022660Y022910D02*
X021915Y022910D01*
X022015Y023010D02*
X022015Y023890D01*
X022015Y023010D01*
X022015Y023069D02*
X022015Y023069D01*
X022015Y023227D02*
X022015Y023227D01*
X022015Y023386D02*
X022015Y023386D01*
X022015Y023544D02*
X022015Y023544D01*
X022015Y023703D02*
X022015Y023703D01*
X022015Y023861D02*
X022015Y023861D01*
X022015Y023890D02*
X022015Y023890D01*
X022015Y024020D02*
X022015Y024020D01*
X022015Y024178D02*
X022015Y024178D01*
X022015Y024337D02*
X022015Y024337D01*
X022015Y024495D02*
X022015Y024495D01*
X022015Y024654D02*
X022015Y024654D01*
X021915Y024812D02*
X022660Y024812D01*
X022660Y024654D02*
X022370Y024654D01*
X022520Y024495D02*
X022660Y024495D01*
X022660Y024337D02*
X022592Y024337D01*
X022615Y024178D02*
X022660Y024178D01*
X022660Y024020D02*
X022615Y024020D01*
X022615Y023861D02*
X022660Y023861D01*
X022660Y023703D02*
X022615Y023703D01*
X022612Y023544D02*
X022660Y023544D01*
X022660Y023386D02*
X022573Y023386D01*
X022660Y023227D02*
X022478Y023227D01*
X022660Y023069D02*
X022274Y023069D01*
X020015Y022140D02*
X020015Y021390D01*
X020015Y019890D01*
X019515Y019390D01*
X019515Y016140D01*
X018515Y016140D02*
X018515Y019390D01*
X019015Y019890D01*
X019015Y021390D01*
X019015Y022140D01*
X018515Y022640D01*
X018515Y024890D01*
X019015Y025390D01*
X019015Y026890D01*
X019015Y027640D01*
X018515Y028140D01*
X018515Y030390D01*
X019015Y030890D01*
X019015Y032390D01*
X019015Y033140D01*
X018515Y033640D01*
X018515Y035890D01*
X019015Y036390D01*
X019015Y037890D01*
X018015Y037890D02*
X018015Y036390D01*
X017515Y035890D01*
X017515Y033640D01*
X018015Y033140D01*
X018015Y032390D01*
X018015Y030890D01*
X017515Y030390D01*
X017515Y028140D01*
X018015Y027640D01*
X018015Y026890D01*
X018015Y025390D01*
X017515Y024890D01*
X017515Y022640D01*
X018015Y022140D01*
X018015Y021390D01*
X018015Y019890D01*
X017515Y019390D01*
X017515Y016140D01*
X016515Y016140D02*
X016515Y019390D01*
X017015Y019890D01*
X017015Y021390D01*
X017015Y022140D01*
X016515Y022640D01*
X016515Y024890D01*
X017015Y025390D01*
X017015Y026890D01*
X017015Y027640D01*
X016515Y028140D01*
X016515Y030390D01*
X017015Y030890D01*
X017015Y032390D01*
X017015Y033140D01*
X016515Y033640D01*
X016515Y035890D01*
X017015Y036390D01*
X017015Y037890D01*
X016015Y037890D02*
X016015Y037265D01*
X014515Y035765D01*
X012765Y035765D01*
X012265Y035265D01*
X012265Y016015D01*
X013390Y014890D01*
X013390Y006640D01*
X013890Y006140D01*
X014390Y005765D02*
X014390Y012890D01*
X015515Y014015D01*
X015515Y019390D01*
X016015Y019890D01*
X016015Y021390D01*
X015515Y022140D02*
X015515Y019890D01*
X015015Y019390D01*
X015015Y018390D01*
X016015Y018390D02*
X016015Y019390D01*
X016515Y019890D01*
X016515Y022140D01*
X016015Y022640D01*
X016015Y023890D01*
X016015Y024890D01*
X016515Y025390D01*
X016515Y027640D01*
X016015Y028140D01*
X016015Y029390D01*
X016015Y030390D01*
X016515Y030890D01*
X016515Y033140D01*
X016015Y033640D01*
X016015Y034890D01*
X015015Y034890D02*
X015015Y033640D01*
X015515Y033140D01*
X015515Y030890D01*
X015015Y030390D01*
X015015Y029390D01*
X015015Y028140D01*
X015515Y027640D01*
X015515Y025390D01*
X015015Y024890D01*
X015015Y023890D01*
X015015Y022640D01*
X015515Y022140D01*
X017015Y022640D02*
X017515Y022140D01*
X017515Y019890D01*
X017015Y019390D01*
X017015Y018390D01*
X018015Y018390D02*
X018015Y019390D01*
X018515Y019890D01*
X018515Y022140D01*
X018015Y022640D01*
X018015Y023890D01*
X018015Y024890D01*
X018515Y025390D01*
X018515Y027640D01*
X018015Y028140D01*
X018015Y029390D01*
X018015Y030390D01*
X018515Y030890D01*
X018515Y033140D01*
X018015Y033640D01*
X018015Y034890D01*
X017015Y034890D02*
X017015Y033640D01*
X017515Y033140D01*
X017515Y030890D01*
X017015Y030390D01*
X017015Y029390D01*
X017015Y028140D01*
X017515Y027640D01*
X017515Y025390D01*
X017015Y024890D01*
X017015Y023890D01*
X017015Y022640D01*
X019515Y022640D02*
X019515Y024890D01*
X020015Y025390D01*
X020015Y026890D01*
X020015Y027640D01*
X019515Y028140D01*
X019515Y030390D01*
X020015Y030890D01*
X020015Y032390D01*
X020015Y033140D01*
X019515Y033640D01*
X019515Y035890D01*
X020015Y036390D01*
X020015Y037890D01*
X021432Y038602D02*
X021598Y038602D01*
X022615Y037809D02*
X022660Y037809D01*
X022660Y037651D02*
X022615Y037651D01*
X022615Y037492D02*
X022660Y037492D01*
X022660Y037334D02*
X022550Y037334D01*
X022660Y037175D02*
X022429Y037175D01*
X022207Y037017D02*
X022660Y037017D01*
X022660Y036858D02*
X022049Y036858D01*
X021915Y036700D02*
X022660Y036700D01*
X022660Y036541D02*
X021915Y036541D01*
X021915Y036383D02*
X022660Y036383D01*
X022660Y036224D02*
X021915Y036224D01*
X021915Y036066D02*
X022660Y036066D01*
X022660Y035907D02*
X021915Y035907D01*
X022015Y035749D02*
X022015Y035749D01*
X022015Y035590D02*
X022015Y035590D01*
X022015Y035432D02*
X022015Y035432D01*
X022015Y035273D02*
X022015Y035273D01*
X022015Y035115D02*
X022015Y035115D01*
X022015Y034956D02*
X022015Y034956D01*
X022015Y034890D02*
X022015Y034010D01*
X022015Y034890D01*
X022015Y034890D01*
X022015Y034798D02*
X022015Y034798D01*
X022015Y034639D02*
X022015Y034639D01*
X022015Y034481D02*
X022015Y034481D01*
X022015Y034322D02*
X022015Y034322D01*
X022015Y034164D02*
X022015Y034164D01*
X021915Y034005D02*
X022660Y034005D01*
X022660Y033847D02*
X021915Y033847D01*
X021915Y033688D02*
X022660Y033688D01*
X022660Y033530D02*
X021915Y033530D01*
X021915Y033371D02*
X022660Y033371D01*
X022660Y033213D02*
X022273Y033213D01*
X022479Y033054D02*
X022660Y033054D01*
X022660Y032896D02*
X022571Y032896D01*
X022615Y032737D02*
X022660Y032737D01*
X022660Y032579D02*
X022615Y032579D01*
X022615Y032420D02*
X022660Y032420D01*
X022660Y032262D02*
X022615Y032262D01*
X022615Y032103D02*
X022660Y032103D01*
X022660Y031945D02*
X022596Y031945D01*
X022660Y031786D02*
X022530Y031786D01*
X022660Y031628D02*
X022381Y031628D01*
X022660Y031469D02*
X021915Y031469D01*
X021915Y031311D02*
X022660Y031311D01*
X022660Y031152D02*
X021915Y031152D01*
X021915Y030994D02*
X022660Y030994D01*
X022660Y030835D02*
X021915Y030835D01*
X021915Y030677D02*
X022660Y030677D01*
X022660Y030518D02*
X021915Y030518D01*
X021915Y030360D02*
X022660Y030360D01*
X022660Y030201D02*
X022294Y030201D01*
X022486Y030043D02*
X022660Y030043D01*
X022660Y029884D02*
X022576Y029884D01*
X022614Y029726D02*
X022660Y029726D01*
X022660Y029567D02*
X022615Y029567D01*
X022615Y029409D02*
X022660Y029409D01*
X022660Y029250D02*
X022615Y029250D01*
X022615Y029092D02*
X022660Y029092D01*
X022660Y028933D02*
X022588Y028933D01*
X022660Y028775D02*
X022513Y028775D01*
X022660Y028616D02*
X022356Y028616D01*
X022015Y028616D02*
X022015Y028616D01*
X022015Y028510D02*
X022015Y029390D01*
X022015Y029390D01*
X022015Y028510D01*
X021915Y028458D02*
X022660Y028458D01*
X022660Y028299D02*
X021915Y028299D01*
X021915Y028141D02*
X022660Y028141D01*
X022660Y027982D02*
X021915Y027982D01*
X021915Y027824D02*
X022660Y027824D01*
X022660Y027665D02*
X022368Y027665D01*
X022525Y027507D02*
X022660Y027507D01*
X022660Y027348D02*
X022591Y027348D01*
X022615Y027190D02*
X022660Y027190D01*
X022660Y027031D02*
X022615Y027031D01*
X022615Y026873D02*
X022660Y026873D01*
X022660Y026714D02*
X022615Y026714D01*
X022615Y026556D02*
X022660Y026556D01*
X022660Y026397D02*
X022576Y026397D01*
X022492Y026239D02*
X022660Y026239D01*
X022660Y026080D02*
X022303Y026080D01*
X022660Y025922D02*
X021915Y025922D01*
X021915Y025763D02*
X022660Y025763D01*
X022660Y025605D02*
X021915Y025605D01*
X021915Y025446D02*
X022660Y025446D01*
X022660Y025288D02*
X021915Y025288D01*
X021915Y025129D02*
X022660Y025129D01*
X022660Y024971D02*
X021915Y024971D01*
X024182Y025446D02*
X025240Y025446D01*
X025240Y025288D02*
X024341Y025288D01*
X024490Y025129D02*
X025240Y025129D01*
X025240Y024971D02*
X024490Y024971D01*
X024490Y024812D02*
X025240Y024812D01*
X024775Y024654D02*
X024490Y024654D01*
X024625Y024495D02*
X024344Y024495D01*
X026140Y024890D02*
X026140Y023890D01*
X026140Y024890D02*
X026640Y025390D01*
X026640Y027640D01*
X026140Y028140D01*
X026140Y029390D01*
X027140Y029390D02*
X027140Y028140D01*
X027640Y027640D01*
X027640Y025390D01*
X027140Y024890D01*
X027140Y023890D01*
X027140Y022640D01*
X027640Y022140D01*
X027640Y020015D01*
X027140Y019515D01*
X027140Y018390D01*
X027558Y017680D02*
X027722Y017680D01*
X027994Y017521D02*
X027286Y017521D01*
X028140Y018390D02*
X028140Y019390D01*
X028640Y019890D01*
X028640Y022140D01*
X028140Y022640D01*
X028140Y023890D01*
X028140Y024890D01*
X028640Y025390D01*
X028640Y027640D01*
X028140Y028140D01*
X028140Y029390D01*
X028140Y030890D01*
X028640Y031390D01*
X028640Y033140D01*
X028140Y033640D01*
X028140Y034890D01*
X027140Y034890D02*
X027140Y033640D01*
X027640Y033140D01*
X027640Y031390D01*
X027140Y030890D01*
X027140Y029390D01*
X025140Y032390D02*
X025140Y034890D01*
X026140Y034890D02*
X026140Y033640D01*
X025640Y033140D01*
X025640Y019890D01*
X025140Y021390D02*
X025140Y018390D01*
X024540Y018314D02*
X023620Y018314D01*
X023620Y018472D02*
X024540Y018472D01*
X024540Y018155D02*
X023620Y018155D01*
X023620Y017997D02*
X024540Y017997D01*
X024603Y017838D02*
X023620Y017838D01*
X023620Y017680D02*
X024722Y017680D01*
X025558Y017680D02*
X025722Y017680D01*
X023620Y016253D02*
X033240Y016253D01*
X033240Y016095D02*
X023620Y016095D01*
X023620Y015936D02*
X033240Y015936D01*
X033240Y015778D02*
X023620Y015778D01*
X023620Y015619D02*
X033240Y015619D01*
X033240Y015461D02*
X023620Y015461D01*
X023620Y015302D02*
X033240Y015302D01*
X033240Y015144D02*
X023620Y015144D01*
X023620Y014985D02*
X033240Y014985D01*
X033240Y014827D02*
X023620Y014827D01*
X023620Y014668D02*
X033240Y014668D01*
X033240Y014510D02*
X023620Y014510D01*
X023620Y014351D02*
X033240Y014351D01*
X033240Y014193D02*
X023620Y014193D01*
X023620Y014034D02*
X033240Y014034D01*
X033240Y013876D02*
X023620Y013876D01*
X023620Y013717D02*
X033240Y013717D01*
X033240Y013559D02*
X023620Y013559D01*
X023620Y013400D02*
X033240Y013400D01*
X033240Y013242D02*
X023620Y013242D01*
X023620Y013083D02*
X033240Y013083D01*
X033109Y012925D02*
X023620Y012925D01*
X023620Y012766D02*
X032950Y012766D01*
X032792Y012608D02*
X031100Y012608D01*
X031335Y012449D02*
X032633Y012449D01*
X032475Y012291D02*
X031438Y012291D01*
X031490Y012132D02*
X032316Y012132D01*
X032158Y011974D02*
X031490Y011974D01*
X031490Y011815D02*
X031999Y011815D01*
X031841Y011657D02*
X031490Y011657D01*
X031490Y011498D02*
X031682Y011498D01*
X031524Y011340D02*
X031479Y011340D01*
X031048Y010864D02*
X029055Y010864D01*
X028896Y010706D02*
X030890Y010706D01*
X030731Y010547D02*
X028732Y010547D01*
X028515Y010890D02*
X028890Y011265D01*
X028890Y011765D01*
X029890Y011765D01*
X029504Y011023D02*
X029276Y011023D01*
X028515Y010890D02*
X027265Y010890D01*
X026890Y011265D01*
X026890Y011765D01*
X025890Y011765D01*
X024890Y011765D01*
X024366Y011181D02*
X023780Y011181D01*
X023250Y011181D02*
X021915Y011181D01*
X021915Y011023D02*
X024504Y011023D01*
X025276Y011023D02*
X025504Y011023D01*
X026276Y011023D02*
X026504Y011023D01*
X026725Y010864D02*
X021915Y010864D01*
X021915Y010706D02*
X026884Y010706D01*
X027048Y010547D02*
X022049Y010547D01*
X022207Y010389D02*
X030573Y010389D01*
X030504Y011023D02*
X030276Y011023D01*
X030097Y009913D02*
X027683Y009913D01*
X027841Y009755D02*
X029939Y009755D01*
X030890Y008765D02*
X030890Y008765D01*
X030445Y012449D02*
X030335Y012449D01*
X030100Y012608D02*
X030680Y012608D01*
X029680Y012608D02*
X029100Y012608D01*
X029335Y012449D02*
X029445Y012449D01*
X028680Y012608D02*
X028100Y012608D01*
X028335Y012449D02*
X028445Y012449D01*
X027680Y012608D02*
X027100Y012608D01*
X027335Y012449D02*
X027445Y012449D01*
X026680Y012608D02*
X026100Y012608D01*
X026335Y012449D02*
X026445Y012449D01*
X025680Y012608D02*
X025100Y012608D01*
X025335Y012449D02*
X025445Y012449D01*
X024680Y012608D02*
X023620Y012608D01*
X023620Y012449D02*
X024445Y012449D01*
X024342Y012291D02*
X023838Y012291D01*
X022786Y011815D02*
X021915Y011815D01*
X021915Y011657D02*
X022915Y011657D01*
X022933Y011498D02*
X021915Y011498D01*
X021915Y011340D02*
X023092Y011340D01*
X022689Y011974D02*
X021915Y011974D01*
X021915Y012132D02*
X022660Y012132D01*
X022660Y012291D02*
X021915Y012291D01*
X021915Y012449D02*
X022660Y012449D01*
X022660Y012608D02*
X021915Y012608D01*
X021915Y012766D02*
X022660Y012766D01*
X022660Y012925D02*
X021915Y012925D01*
X021915Y013083D02*
X022660Y013083D01*
X022660Y013242D02*
X021915Y013242D01*
X021915Y013400D02*
X022660Y013400D01*
X022660Y013559D02*
X021915Y013559D01*
X021915Y013717D02*
X022660Y013717D01*
X022660Y013876D02*
X021915Y013876D01*
X021915Y014034D02*
X022660Y014034D01*
X022660Y014193D02*
X021915Y014193D01*
X021915Y014351D02*
X022660Y014351D01*
X022660Y014510D02*
X021915Y014510D01*
X021915Y014668D02*
X022660Y014668D01*
X022660Y014827D02*
X021915Y014827D01*
X021915Y014985D02*
X022660Y014985D01*
X022660Y015144D02*
X021915Y015144D01*
X021915Y015302D02*
X022660Y015302D01*
X022660Y015461D02*
X021915Y015461D01*
X021915Y015619D02*
X022660Y015619D01*
X022660Y015778D02*
X021915Y015778D01*
X021915Y015936D02*
X022660Y015936D01*
X022660Y016095D02*
X021915Y016095D01*
X021915Y016253D02*
X022660Y016253D01*
X022660Y016412D02*
X021915Y016412D01*
X021915Y016570D02*
X022660Y016570D01*
X022660Y016729D02*
X021915Y016729D01*
X021915Y016887D02*
X022660Y016887D01*
X022660Y017046D02*
X021915Y017046D01*
X021915Y017204D02*
X022660Y017204D01*
X022660Y017363D02*
X021915Y017363D01*
X022015Y017521D02*
X022015Y017521D01*
X022132Y017521D02*
X022660Y017521D01*
X022660Y017680D02*
X022433Y017680D01*
X022550Y017838D02*
X022660Y017838D01*
X022660Y017997D02*
X022605Y017997D01*
X022615Y018155D02*
X022660Y018155D01*
X022660Y018314D02*
X022615Y018314D01*
X022615Y018472D02*
X022660Y018472D01*
X022660Y018631D02*
X022615Y018631D01*
X022604Y018789D02*
X022660Y018789D01*
X022660Y018948D02*
X022547Y018948D01*
X022660Y019106D02*
X022428Y019106D01*
X022015Y018155D02*
X022015Y018155D01*
X022015Y017997D02*
X022015Y017997D01*
X022015Y017838D02*
X022015Y017838D01*
X022015Y017680D02*
X022015Y017680D01*
X019015Y018390D02*
X019015Y011140D01*
X018390Y010515D01*
X018390Y006640D01*
X018890Y006140D01*
X019289Y005634D02*
X019491Y005634D01*
X020289Y005634D02*
X020491Y005634D01*
X021289Y005634D02*
X021491Y005634D01*
X022289Y005634D02*
X022491Y005634D01*
X023289Y005634D02*
X023491Y005634D01*
X024289Y005634D02*
X024491Y005634D01*
X025289Y005634D02*
X025491Y005634D01*
X022915Y009755D02*
X022841Y009755D01*
X022915Y009913D02*
X022683Y009913D01*
X022524Y010072D02*
X022973Y010072D01*
X023131Y010230D02*
X022366Y010230D01*
X018491Y005634D02*
X018289Y005634D01*
X017491Y005634D02*
X017289Y005634D01*
X016491Y005634D02*
X016289Y005634D01*
X015491Y005634D02*
X015289Y005634D01*
X014390Y005765D02*
X013890Y005265D01*
X011515Y005265D01*
X010890Y005890D01*
X010890Y006140D01*
X010429Y006585D02*
X008851Y006585D01*
X008795Y006640D02*
X009030Y006405D01*
X009030Y006160D01*
X008410Y006160D01*
X008410Y006120D01*
X009030Y006120D01*
X009030Y005875D01*
X008655Y005500D01*
X008410Y005500D01*
X008410Y006120D01*
X008370Y006120D01*
X008370Y005500D01*
X008125Y005500D01*
X007890Y005735D01*
X007655Y005500D01*
X007410Y005500D01*
X007410Y006120D01*
X007410Y006160D01*
X008370Y006160D01*
X008370Y007120D01*
X008410Y007120D01*
X008410Y007160D01*
X009030Y007160D01*
X009030Y007405D01*
X008655Y007780D01*
X008410Y007780D01*
X008410Y007160D01*
X008370Y007160D01*
X008370Y007780D01*
X008125Y007780D01*
X007890Y007545D01*
X007655Y007780D01*
X007410Y007780D01*
X007410Y007160D01*
X007370Y007160D01*
X007370Y007780D01*
X007125Y007780D01*
X006750Y007405D01*
X006750Y007160D01*
X007370Y007160D01*
X007370Y007120D01*
X006750Y007120D01*
X006750Y006875D01*
X006985Y006640D01*
X006750Y006405D01*
X006750Y006160D01*
X007370Y006160D01*
X007370Y007120D01*
X007410Y007120D01*
X007410Y007160D01*
X008370Y007160D01*
X008370Y007120D01*
X008030Y007120D01*
X007410Y007120D01*
X007410Y006500D01*
X007410Y006160D01*
X007370Y006160D01*
X007370Y006120D01*
X007410Y006120D01*
X007750Y006120D01*
X008370Y006120D01*
X008370Y006160D01*
X008410Y006160D01*
X008410Y006500D01*
X008410Y007120D01*
X009030Y007120D01*
X009030Y006875D01*
X008795Y006640D01*
X008898Y006743D02*
X010382Y006743D01*
X010250Y006902D02*
X009030Y006902D01*
X009030Y007060D02*
X010250Y007060D01*
X010250Y007219D02*
X009030Y007219D01*
X009030Y007377D02*
X010250Y007377D01*
X010380Y007536D02*
X008900Y007536D01*
X008741Y007694D02*
X010539Y007694D01*
X011241Y007694D02*
X011539Y007694D01*
X012241Y007694D02*
X012539Y007694D01*
X012990Y007853D02*
X004270Y007853D01*
X004270Y008011D02*
X012990Y008011D01*
X012990Y008170D02*
X004270Y008170D01*
X004270Y008328D02*
X012990Y008328D01*
X012990Y008487D02*
X004270Y008487D01*
X004270Y008645D02*
X012990Y008645D01*
X012990Y008804D02*
X004270Y008804D01*
X004270Y008962D02*
X012990Y008962D01*
X012990Y009121D02*
X004270Y009121D01*
X004270Y009279D02*
X012990Y009279D01*
X012990Y009438D02*
X004270Y009438D01*
X004270Y009596D02*
X012990Y009596D01*
X012990Y009755D02*
X004270Y009755D01*
X004270Y009913D02*
X012990Y009913D01*
X012990Y010072D02*
X004270Y010072D01*
X004270Y010230D02*
X012990Y010230D01*
X012990Y010389D02*
X004270Y010389D01*
X004270Y010547D02*
X012990Y010547D01*
X012990Y010706D02*
X004270Y010706D01*
X004270Y010864D02*
X012990Y010864D01*
X012990Y011023D02*
X004270Y011023D01*
X004270Y011181D02*
X012990Y011181D01*
X012990Y011340D02*
X004270Y011340D01*
X004270Y011498D02*
X012990Y011498D01*
X012990Y011657D02*
X004270Y011657D01*
X004270Y011815D02*
X012990Y011815D01*
X012990Y011974D02*
X004270Y011974D01*
X004270Y012132D02*
X012990Y012132D01*
X012990Y012291D02*
X004270Y012291D01*
X004270Y012449D02*
X012990Y012449D01*
X012990Y012608D02*
X004270Y012608D01*
X004270Y012766D02*
X012990Y012766D01*
X012990Y012925D02*
X004270Y012925D01*
X004270Y013083D02*
X012990Y013083D01*
X012990Y013242D02*
X004270Y013242D01*
X004270Y013400D02*
X012990Y013400D01*
X012990Y013559D02*
X004270Y013559D01*
X004270Y013717D02*
X012990Y013717D01*
X012990Y013876D02*
X004270Y013876D01*
X004270Y014034D02*
X012990Y014034D01*
X012990Y014193D02*
X004270Y014193D01*
X004270Y014351D02*
X012990Y014351D01*
X012990Y014510D02*
X004270Y014510D01*
X004270Y014668D02*
X012990Y014668D01*
X012888Y014827D02*
X004270Y014827D01*
X004270Y014985D02*
X012729Y014985D01*
X012571Y015144D02*
X004270Y015144D01*
X004270Y015302D02*
X012412Y015302D01*
X012254Y015461D02*
X004270Y015461D01*
X004270Y015619D02*
X012095Y015619D01*
X011937Y015778D02*
X004270Y015778D01*
X004270Y015936D02*
X011865Y015936D01*
X011865Y016095D02*
X004270Y016095D01*
X004270Y016253D02*
X011865Y016253D01*
X011865Y016412D02*
X004270Y016412D01*
X004270Y016570D02*
X011865Y016570D01*
X011865Y016729D02*
X004270Y016729D01*
X004270Y016887D02*
X011865Y016887D01*
X011865Y017046D02*
X004270Y017046D01*
X004270Y017204D02*
X011865Y017204D01*
X011865Y017363D02*
X004270Y017363D01*
X004270Y017521D02*
X011865Y017521D01*
X011865Y017680D02*
X004270Y017680D01*
X004270Y017838D02*
X011865Y017838D01*
X011865Y017997D02*
X004270Y017997D01*
X004270Y018155D02*
X011865Y018155D01*
X011865Y018314D02*
X004270Y018314D01*
X004270Y018472D02*
X011865Y018472D01*
X011865Y018631D02*
X004270Y018631D01*
X004270Y018789D02*
X011865Y018789D01*
X011765Y018790D02*
X011765Y019390D01*
X011765Y019390D01*
X011765Y019390D01*
X011165Y019390D01*
X011165Y019639D01*
X011516Y019990D01*
X011765Y019990D01*
X011765Y019390D01*
X011165Y019390D01*
X011165Y019141D01*
X011516Y018790D01*
X011765Y018790D01*
X011765Y018948D02*
X011765Y018948D01*
X011765Y019106D02*
X011765Y019106D01*
X011765Y019265D02*
X011765Y019265D01*
X011765Y019423D02*
X011765Y019423D01*
X011765Y019582D02*
X011765Y019582D01*
X011765Y019740D02*
X011765Y019740D01*
X011765Y019899D02*
X011765Y019899D01*
X011865Y020057D02*
X004270Y020057D01*
X004270Y019899D02*
X011425Y019899D01*
X011266Y019740D02*
X004270Y019740D01*
X004270Y019582D02*
X011165Y019582D01*
X011165Y019423D02*
X004270Y019423D01*
X004270Y019265D02*
X011165Y019265D01*
X011200Y019106D02*
X004270Y019106D01*
X004270Y018948D02*
X011359Y018948D01*
X011865Y020216D02*
X004270Y020216D01*
X004270Y020374D02*
X011865Y020374D01*
X011865Y020533D02*
X004270Y020533D01*
X004270Y020691D02*
X011865Y020691D01*
X011457Y020850D02*
X004270Y020850D01*
X004270Y021008D02*
X011298Y021008D01*
X011165Y021167D02*
X004270Y021167D01*
X004270Y021325D02*
X011151Y021325D01*
X010993Y021484D02*
X004270Y021484D01*
X004270Y021642D02*
X010834Y021642D01*
X010676Y021801D02*
X004270Y021801D01*
X004270Y021959D02*
X010517Y021959D01*
X010432Y022118D02*
X004270Y022118D01*
X004270Y022276D02*
X010410Y022276D01*
X010410Y022435D02*
X004270Y022435D01*
X004270Y022593D02*
X010410Y022593D01*
X010410Y022752D02*
X004270Y022752D01*
X004270Y022910D02*
X010410Y022910D01*
X010410Y023069D02*
X004270Y023069D01*
X004270Y023227D02*
X010410Y023227D01*
X010410Y023386D02*
X004270Y023386D01*
X004270Y023544D02*
X010410Y023544D01*
X010410Y023703D02*
X004270Y023703D01*
X004270Y023861D02*
X010410Y023861D01*
X010410Y024020D02*
X004270Y024020D01*
X004270Y024178D02*
X010410Y024178D01*
X010410Y024337D02*
X004270Y024337D01*
X004270Y024495D02*
X010410Y024495D01*
X010410Y024654D02*
X004270Y024654D01*
X004270Y024812D02*
X010410Y024812D01*
X010410Y024971D02*
X004270Y024971D01*
X004270Y025129D02*
X010410Y025129D01*
X010410Y025288D02*
X004270Y025288D01*
X004270Y025446D02*
X010410Y025446D01*
X010410Y025605D02*
X004270Y025605D01*
X004270Y025763D02*
X010410Y025763D01*
X010410Y025922D02*
X004270Y025922D01*
X004270Y026080D02*
X010410Y026080D01*
X010410Y026239D02*
X004270Y026239D01*
X004270Y026397D02*
X010410Y026397D01*
X010410Y026556D02*
X004270Y026556D01*
X004270Y026714D02*
X010410Y026714D01*
X010410Y026873D02*
X004270Y026873D01*
X004270Y027031D02*
X010410Y027031D01*
X010410Y027190D02*
X004270Y027190D01*
X004270Y027348D02*
X010410Y027348D01*
X010410Y027507D02*
X004270Y027507D01*
X004270Y027665D02*
X010410Y027665D01*
X010410Y027824D02*
X004270Y027824D01*
X004270Y027982D02*
X010410Y027982D01*
X010410Y028141D02*
X004270Y028141D01*
X004270Y028299D02*
X010410Y028299D01*
X010410Y028458D02*
X004270Y028458D01*
X004270Y028616D02*
X010410Y028616D01*
X010410Y028775D02*
X004270Y028775D01*
X004270Y028933D02*
X010410Y028933D01*
X010410Y029092D02*
X004270Y029092D01*
X004270Y029250D02*
X010410Y029250D01*
X010410Y029409D02*
X004270Y029409D01*
X004270Y029567D02*
X005433Y029567D01*
X005500Y029500D02*
X006030Y029500D01*
X006265Y029735D01*
X006500Y029500D01*
X007030Y029500D01*
X007405Y029875D01*
X007405Y030405D01*
X007170Y030640D01*
X007405Y030875D01*
X007405Y031405D01*
X007170Y031640D01*
X007270Y031740D01*
X007345Y031740D01*
X007492Y031801D01*
X008117Y032426D01*
X008229Y032538D01*
X008290Y032685D01*
X008290Y033734D01*
X008373Y033817D01*
X008460Y034027D01*
X008460Y034253D01*
X008373Y034463D01*
X008213Y034623D01*
X008108Y034667D01*
X008367Y034926D01*
X008479Y035038D01*
X008540Y035185D01*
X008540Y035859D01*
X008623Y035942D01*
X008710Y036152D01*
X008710Y036378D01*
X008623Y036588D01*
X008463Y036748D01*
X008253Y036835D01*
X008210Y036835D01*
X008210Y037003D01*
X008123Y037213D01*
X007963Y037373D01*
X007753Y037460D01*
X007527Y037460D01*
X007402Y037408D01*
X007030Y037780D01*
X006500Y037780D01*
X006265Y037545D01*
X006030Y037780D01*
X005500Y037780D01*
X005125Y037405D01*
X005125Y036875D01*
X005360Y036640D01*
X005125Y036405D01*
X005125Y035941D01*
X005051Y035867D01*
X004676Y035492D01*
X004615Y035345D01*
X004615Y033935D01*
X004676Y033788D01*
X004788Y033676D01*
X005125Y033339D01*
X005125Y032875D01*
X005360Y032640D01*
X005125Y032405D01*
X005125Y031875D01*
X005360Y031640D01*
X005125Y031405D01*
X005125Y030875D01*
X005360Y030640D01*
X005125Y030405D01*
X005125Y029875D01*
X005500Y029500D01*
X005274Y029726D02*
X004270Y029726D01*
X004270Y029884D02*
X005125Y029884D01*
X005125Y030043D02*
X004270Y030043D01*
X004270Y030201D02*
X005125Y030201D01*
X005125Y030360D02*
X004270Y030360D01*
X004270Y030518D02*
X005238Y030518D01*
X005323Y030677D02*
X004270Y030677D01*
X004270Y030835D02*
X005165Y030835D01*
X005125Y030994D02*
X004270Y030994D01*
X004270Y031152D02*
X005125Y031152D01*
X005125Y031311D02*
X004270Y031311D01*
X004270Y031469D02*
X005189Y031469D01*
X005347Y031628D02*
X004270Y031628D01*
X004270Y031786D02*
X005214Y031786D01*
X005125Y031945D02*
X004270Y031945D01*
X004270Y032103D02*
X005125Y032103D01*
X005125Y032262D02*
X004270Y032262D01*
X004270Y032420D02*
X005140Y032420D01*
X005298Y032579D02*
X004270Y032579D01*
X004270Y032737D02*
X005263Y032737D01*
X005125Y032896D02*
X004270Y032896D01*
X004270Y033054D02*
X005125Y033054D01*
X005125Y033213D02*
X004270Y033213D01*
X004270Y033371D02*
X005093Y033371D01*
X004935Y033530D02*
X004270Y033530D01*
X004270Y033688D02*
X004776Y033688D01*
X004652Y033847D02*
X004270Y033847D01*
X004270Y034005D02*
X004615Y034005D01*
X004615Y034164D02*
X004270Y034164D01*
X004270Y034322D02*
X004615Y034322D01*
X004615Y034481D02*
X004270Y034481D01*
X004270Y034639D02*
X004615Y034639D01*
X004615Y034798D02*
X004270Y034798D01*
X004270Y034956D02*
X004615Y034956D01*
X004615Y035115D02*
X004270Y035115D01*
X004270Y035273D02*
X004615Y035273D01*
X004651Y035432D02*
X004270Y035432D01*
X004270Y035590D02*
X004774Y035590D01*
X004933Y035749D02*
X004270Y035749D01*
X004270Y035907D02*
X005091Y035907D01*
X005125Y036066D02*
X004270Y036066D01*
X004270Y036224D02*
X005125Y036224D01*
X005125Y036383D02*
X004270Y036383D01*
X004270Y036541D02*
X005261Y036541D01*
X005300Y036700D02*
X004270Y036700D01*
X004270Y036858D02*
X005142Y036858D01*
X005125Y037017D02*
X004270Y037017D01*
X004270Y037175D02*
X005125Y037175D01*
X005125Y037334D02*
X004270Y037334D01*
X004270Y037492D02*
X005212Y037492D01*
X005370Y037651D02*
X004270Y037651D01*
X004270Y037809D02*
X010167Y037809D01*
X010009Y037968D02*
X004270Y037968D01*
X004270Y038126D02*
X009850Y038126D01*
X009692Y038285D02*
X004270Y038285D01*
X004270Y038443D02*
X009533Y038443D01*
X009375Y038602D02*
X004270Y038602D01*
X004270Y038760D02*
X009216Y038760D01*
X009058Y038919D02*
X004270Y038919D01*
X004270Y039077D02*
X008899Y039077D01*
X008741Y039236D02*
X004270Y039236D01*
X004270Y039394D02*
X008582Y039394D01*
X008072Y039553D02*
X007708Y039553D01*
X007072Y039553D02*
X004270Y039553D01*
X004270Y039711D02*
X006914Y039711D01*
X006755Y039870D02*
X004270Y039870D01*
X004270Y040028D02*
X004751Y040028D01*
X004794Y040003D02*
X005104Y039920D01*
X005426Y039920D01*
X005736Y040003D01*
X006014Y040164D01*
X006241Y040391D01*
X006402Y040669D01*
X006398Y040662D02*
X006963Y040662D01*
X006848Y040504D02*
X006306Y040504D01*
X006195Y040345D02*
X006750Y040345D01*
X006750Y040187D02*
X006037Y040187D01*
X005779Y040028D02*
X006750Y040028D01*
X004794Y040003D02*
X004516Y040164D01*
X004289Y040391D01*
X004270Y040423D01*
X004270Y006857D01*
X004289Y006889D01*
X004516Y007116D01*
X004794Y007277D01*
X005104Y007360D01*
X005426Y007360D01*
X005736Y007277D01*
X006014Y007116D01*
X006241Y006889D01*
X006402Y006611D01*
X006485Y006301D01*
X006485Y005979D01*
X006402Y005669D01*
X006241Y005391D01*
X006014Y005164D01*
X005736Y005003D01*
X005426Y004920D01*
X005104Y004920D01*
X004794Y005003D01*
X004516Y005164D01*
X004289Y005391D01*
X004270Y005423D01*
X004270Y005317D02*
X004363Y005317D01*
X004270Y005158D02*
X004526Y005158D01*
X004270Y005000D02*
X004808Y005000D01*
X004270Y004841D02*
X066502Y004841D01*
X066502Y004683D02*
X004270Y004683D01*
X004270Y004524D02*
X066502Y004524D01*
X066502Y004366D02*
X004270Y004366D01*
X005722Y005000D02*
X011215Y005000D01*
X011176Y005038D02*
X011176Y005038D01*
X011056Y005158D02*
X006004Y005158D01*
X006167Y005317D02*
X010898Y005317D01*
X010739Y005475D02*
X006290Y005475D01*
X006381Y005634D02*
X006991Y005634D01*
X007125Y005500D02*
X006750Y005875D01*
X006750Y006120D01*
X007370Y006120D01*
X007370Y005500D01*
X007125Y005500D01*
X007370Y005634D02*
X007410Y005634D01*
X007410Y005792D02*
X007370Y005792D01*
X007370Y005951D02*
X007410Y005951D01*
X007410Y006109D02*
X007370Y006109D01*
X007370Y006268D02*
X007410Y006268D01*
X007410Y006426D02*
X007370Y006426D01*
X007370Y006585D02*
X007410Y006585D01*
X007410Y006743D02*
X007370Y006743D01*
X007370Y006902D02*
X007410Y006902D01*
X007410Y007060D02*
X007370Y007060D01*
X007370Y007219D02*
X007410Y007219D01*
X007410Y007377D02*
X007370Y007377D01*
X007370Y007536D02*
X007410Y007536D01*
X007410Y007694D02*
X007370Y007694D01*
X007039Y007694D02*
X004270Y007694D01*
X004270Y007536D02*
X006880Y007536D01*
X006750Y007377D02*
X004270Y007377D01*
X004270Y007219D02*
X004693Y007219D01*
X004460Y007060D02*
X004270Y007060D01*
X004270Y006902D02*
X004301Y006902D01*
X005837Y007219D02*
X006750Y007219D01*
X006750Y007060D02*
X006070Y007060D01*
X006229Y006902D02*
X006750Y006902D01*
X006882Y006743D02*
X006326Y006743D01*
X006409Y006585D02*
X006929Y006585D01*
X006771Y006426D02*
X006451Y006426D01*
X006485Y006268D02*
X006750Y006268D01*
X006750Y006109D02*
X006485Y006109D01*
X006477Y005951D02*
X006750Y005951D01*
X006833Y005792D02*
X006435Y005792D01*
X007789Y005634D02*
X007991Y005634D01*
X008370Y005634D02*
X008410Y005634D01*
X008410Y005792D02*
X008370Y005792D01*
X008370Y005951D02*
X008410Y005951D01*
X008410Y006109D02*
X008370Y006109D01*
X008370Y006268D02*
X008410Y006268D01*
X008410Y006426D02*
X008370Y006426D01*
X008370Y006585D02*
X008410Y006585D01*
X008410Y006743D02*
X008370Y006743D01*
X008370Y006902D02*
X008410Y006902D01*
X008410Y007060D02*
X008370Y007060D01*
X008370Y007219D02*
X008410Y007219D01*
X008410Y007377D02*
X008370Y007377D01*
X008370Y007536D02*
X008410Y007536D01*
X008410Y007694D02*
X008370Y007694D01*
X008039Y007694D02*
X007741Y007694D01*
X009009Y006426D02*
X010271Y006426D01*
X010250Y006268D02*
X009030Y006268D01*
X009030Y006109D02*
X010250Y006109D01*
X010250Y005951D02*
X009030Y005951D01*
X008947Y005792D02*
X010333Y005792D01*
X010491Y005634D02*
X008789Y005634D01*
X014190Y005000D02*
X065308Y005000D01*
X065026Y005158D02*
X055323Y005158D01*
X055507Y005317D02*
X064863Y005317D01*
X066222Y005000D02*
X066502Y005000D01*
X066502Y007219D02*
X066337Y007219D01*
X063591Y008645D02*
X062783Y008645D01*
X062942Y008487D02*
X063433Y008487D01*
X063274Y008328D02*
X063025Y008328D01*
X063025Y008170D02*
X063116Y008170D01*
X062390Y008170D02*
X062390Y008170D01*
X062390Y008328D02*
X062390Y008328D01*
X062390Y008487D02*
X062390Y008487D01*
X062390Y008645D02*
X062390Y008645D01*
X061938Y007694D02*
X060616Y007694D01*
X059914Y007694D02*
X059616Y007694D01*
X060745Y006585D02*
X062072Y006585D01*
X059866Y005634D02*
X059664Y005634D01*
X053890Y007140D02*
X053890Y007640D01*
X053140Y008390D01*
X053140Y013640D01*
X055890Y016390D01*
X055890Y033140D01*
X055390Y033640D01*
X055390Y034890D01*
X054890Y035890D02*
X054890Y033640D01*
X055390Y033140D01*
X055390Y032390D01*
X055390Y030890D01*
X057647Y033213D02*
X058132Y033213D01*
X057926Y033054D02*
X057853Y033054D01*
X057792Y034164D02*
X057988Y034164D01*
X056988Y034164D02*
X056792Y034164D01*
X056818Y035590D02*
X056962Y035590D01*
X056814Y035749D02*
X057219Y035749D01*
X057561Y035749D02*
X058229Y035749D01*
X057962Y035590D02*
X057818Y035590D01*
X058818Y035590D02*
X058865Y035590D01*
X061015Y033265D02*
X061515Y033265D01*
X063140Y032890D02*
X063140Y030765D01*
X063140Y032890D02*
X063515Y033265D01*
X064015Y033265D01*
X055390Y036390D02*
X054890Y035890D01*
X055390Y036390D02*
X055390Y037890D01*
X050390Y034890D02*
X050390Y033640D01*
X049890Y033140D01*
X046910Y034164D02*
X046667Y034164D01*
X046792Y034322D02*
X046910Y034322D01*
X046910Y034481D02*
X046852Y034481D01*
X046865Y034639D02*
X046910Y034639D01*
X046910Y034798D02*
X046865Y034798D01*
X046865Y034956D02*
X046910Y034956D01*
X046910Y035115D02*
X046865Y035115D01*
X046856Y035273D02*
X046910Y035273D01*
X046910Y035432D02*
X046805Y035432D01*
X046910Y035590D02*
X046693Y035590D01*
X046104Y035749D02*
X045436Y035749D01*
X045693Y035590D02*
X045837Y035590D01*
X045094Y035749D02*
X044689Y035749D01*
X044693Y035590D02*
X044837Y035590D01*
X044265Y035890D02*
X044765Y036390D01*
X044265Y035890D02*
X044265Y034890D01*
X045682Y038602D02*
X045848Y038602D01*
X041322Y040504D02*
X040075Y040504D01*
X037848Y038602D02*
X037682Y038602D01*
X037679Y037175D02*
X037851Y037175D01*
X038365Y036383D02*
X036371Y036383D01*
X036529Y036224D02*
X038401Y036224D01*
X038524Y036066D02*
X036615Y036066D01*
X036615Y035907D02*
X038682Y035907D01*
X038841Y035749D02*
X038436Y035749D01*
X038693Y035590D02*
X038837Y035590D01*
X038094Y035749D02*
X037436Y035749D01*
X037693Y035590D02*
X037837Y035590D01*
X037094Y035749D02*
X036615Y035749D01*
X036564Y035590D02*
X036837Y035590D01*
X036724Y035432D02*
X036405Y035432D01*
X037265Y034890D02*
X037265Y032390D01*
X037765Y033140D02*
X037765Y019890D01*
X038265Y019390D01*
X038265Y018390D01*
X038683Y017680D02*
X038847Y017680D01*
X037847Y017680D02*
X037683Y017680D01*
X037265Y018390D02*
X037265Y021390D01*
X036015Y024290D02*
X036015Y024890D01*
X036015Y024890D01*
X036015Y024290D01*
X036015Y024337D02*
X036015Y024337D01*
X036015Y024495D02*
X036015Y024495D01*
X036015Y024654D02*
X036015Y024654D01*
X036015Y024812D02*
X036015Y024812D01*
X036015Y024971D02*
X036015Y024971D01*
X036015Y025129D02*
X036015Y025129D01*
X036015Y025288D02*
X036015Y025288D01*
X036015Y025446D02*
X036015Y025446D01*
X036307Y025446D02*
X037365Y025446D01*
X037365Y025288D02*
X036466Y025288D01*
X036615Y025129D02*
X037365Y025129D01*
X037365Y024971D02*
X036615Y024971D01*
X037365Y025605D02*
X035745Y025605D01*
X035745Y025763D02*
X037365Y025763D01*
X037365Y025922D02*
X035745Y025922D01*
X035745Y026080D02*
X036977Y026080D01*
X036788Y026239D02*
X035745Y026239D01*
X036371Y026397D02*
X036704Y026397D01*
X036665Y026556D02*
X036529Y026556D01*
X036615Y026714D02*
X036665Y026714D01*
X036665Y026873D02*
X036615Y026873D01*
X036615Y027031D02*
X036665Y027031D01*
X036665Y027190D02*
X036564Y027190D01*
X036689Y027348D02*
X036405Y027348D01*
X036755Y027507D02*
X035745Y027507D01*
X035745Y027665D02*
X036912Y027665D01*
X037365Y027824D02*
X035745Y027824D01*
X035745Y027982D02*
X037365Y027982D01*
X037365Y028141D02*
X035745Y028141D01*
X035745Y028299D02*
X037365Y028299D01*
X037365Y028458D02*
X035745Y028458D01*
X035745Y028616D02*
X036910Y028616D01*
X036755Y028775D02*
X035745Y028775D01*
X035745Y028933D02*
X036689Y028933D01*
X036665Y029092D02*
X035745Y029092D01*
X035745Y029250D02*
X036665Y029250D01*
X036665Y029409D02*
X035745Y029409D01*
X035745Y029567D02*
X036665Y029567D01*
X036665Y029726D02*
X035745Y029726D01*
X034785Y030360D02*
X032675Y030360D01*
X032540Y030201D02*
X032854Y030201D01*
X032664Y030043D02*
X032616Y030043D01*
X032834Y030518D02*
X034785Y030518D01*
X034785Y030677D02*
X032985Y030677D01*
X033426Y030201D02*
X033861Y030201D01*
X033669Y030043D02*
X033616Y030043D01*
X033140Y029390D02*
X032140Y029390D01*
X030140Y033140D02*
X029640Y033640D01*
X029640Y035890D01*
X030140Y036390D01*
X030140Y037890D01*
X029723Y038602D02*
X029557Y038602D01*
X030557Y038602D02*
X030723Y038602D01*
X038265Y034890D02*
X038265Y033640D01*
X037765Y033140D01*
X038265Y029390D02*
X038265Y028140D01*
X038765Y027640D01*
X022015Y028775D02*
X022015Y028775D01*
X022015Y028933D02*
X022015Y028933D01*
X022015Y029092D02*
X022015Y029092D01*
X022015Y029250D02*
X022015Y029250D01*
X022015Y029409D02*
X022015Y029409D01*
X022015Y029567D02*
X022015Y029567D01*
X022015Y029726D02*
X022015Y029726D01*
X022015Y029884D02*
X022015Y029884D01*
X022015Y030043D02*
X022015Y030043D01*
X022015Y030201D02*
X022015Y030201D01*
X022417Y034164D02*
X022660Y034164D01*
X022660Y034322D02*
X022542Y034322D01*
X022602Y034481D02*
X022660Y034481D01*
X022660Y034639D02*
X022615Y034639D01*
X022615Y034798D02*
X022660Y034798D01*
X022660Y034956D02*
X022615Y034956D01*
X022615Y035115D02*
X022660Y035115D01*
X022660Y035273D02*
X022606Y035273D01*
X022555Y035432D02*
X022660Y035432D01*
X022660Y035590D02*
X022443Y035590D01*
X022660Y035749D02*
X022176Y035749D01*
X015237Y037052D02*
X014349Y036165D01*
X012685Y036165D01*
X012538Y036104D01*
X012469Y036035D01*
X012139Y036365D01*
X011890Y036365D01*
X011890Y035765D01*
X011890Y035765D01*
X011890Y036365D01*
X011641Y036365D01*
X011370Y036094D01*
X011370Y037285D01*
X011521Y037285D01*
X011641Y037165D01*
X012139Y037165D01*
X012384Y037410D01*
X012448Y037410D01*
X012506Y037270D01*
X012675Y037101D01*
X012896Y037010D01*
X013134Y037010D01*
X013355Y037101D01*
X013515Y037261D01*
X013675Y037101D01*
X013896Y037010D01*
X014134Y037010D01*
X014355Y037101D01*
X014515Y037261D01*
X014675Y037101D01*
X014896Y037010D01*
X015134Y037010D01*
X015237Y037052D01*
X015201Y037017D02*
X015150Y037017D01*
X015042Y036858D02*
X011370Y036858D01*
X011370Y036700D02*
X014884Y036700D01*
X014725Y036541D02*
X011370Y036541D01*
X011370Y036383D02*
X014567Y036383D01*
X014408Y036224D02*
X012279Y036224D01*
X012438Y036066D02*
X012500Y036066D01*
X011890Y036066D02*
X011890Y036066D01*
X011890Y036224D02*
X011890Y036224D01*
X011890Y035907D02*
X011890Y035907D01*
X011501Y036224D02*
X011370Y036224D01*
X011370Y037017D02*
X012880Y037017D01*
X013150Y037017D02*
X013880Y037017D01*
X014150Y037017D02*
X014880Y037017D01*
X014601Y037175D02*
X014429Y037175D01*
X013601Y037175D02*
X013429Y037175D01*
X012601Y037175D02*
X012149Y037175D01*
X012307Y037334D02*
X012480Y037334D01*
X011631Y037175D02*
X011370Y037175D01*
X010410Y037175D02*
X008139Y037175D01*
X008205Y037017D02*
X010410Y037017D01*
X010410Y036858D02*
X008210Y036858D01*
X008512Y036700D02*
X010410Y036700D01*
X010410Y036541D02*
X008643Y036541D01*
X008708Y036383D02*
X010410Y036383D01*
X010410Y036224D02*
X008710Y036224D01*
X008674Y036066D02*
X010410Y036066D01*
X010410Y035907D02*
X008588Y035907D01*
X008540Y035749D02*
X010410Y035749D01*
X010410Y035590D02*
X008540Y035590D01*
X008540Y035432D02*
X010410Y035432D01*
X010410Y035273D02*
X008540Y035273D01*
X008511Y035115D02*
X010410Y035115D01*
X010410Y034956D02*
X008397Y034956D01*
X008238Y034798D02*
X010410Y034798D01*
X010410Y034639D02*
X008175Y034639D01*
X008356Y034481D02*
X010410Y034481D01*
X010410Y034322D02*
X008432Y034322D01*
X008460Y034164D02*
X010410Y034164D01*
X010410Y034005D02*
X008451Y034005D01*
X008385Y033847D02*
X010410Y033847D01*
X010410Y033688D02*
X008290Y033688D01*
X008290Y033530D02*
X010410Y033530D01*
X010410Y033371D02*
X008290Y033371D01*
X008290Y033213D02*
X010410Y033213D01*
X010410Y033054D02*
X008290Y033054D01*
X008290Y032896D02*
X009422Y032896D01*
X009516Y032990D02*
X009165Y032639D01*
X009165Y032390D01*
X009765Y032390D01*
X010365Y032390D01*
X010365Y032639D01*
X010014Y032990D01*
X009765Y032990D01*
X009765Y032390D01*
X009765Y032390D01*
X009765Y032390D01*
X010365Y032390D01*
X010365Y032141D01*
X010014Y031790D01*
X009765Y031790D01*
X009765Y032390D01*
X009765Y032390D01*
X009765Y032390D01*
X009765Y032990D01*
X009516Y032990D01*
X009765Y032896D02*
X009765Y032896D01*
X009765Y032737D02*
X009765Y032737D01*
X009765Y032579D02*
X009765Y032579D01*
X009765Y032420D02*
X009765Y032420D01*
X009765Y032390D02*
X009165Y032390D01*
X009165Y032141D01*
X009516Y031790D01*
X009765Y031790D01*
X009765Y032390D01*
X009765Y032262D02*
X009765Y032262D01*
X009765Y032103D02*
X009765Y032103D01*
X009765Y031945D02*
X009765Y031945D01*
X010168Y031945D02*
X010410Y031945D01*
X010410Y032103D02*
X010327Y032103D01*
X010365Y032262D02*
X010410Y032262D01*
X010410Y032420D02*
X010365Y032420D01*
X010365Y032579D02*
X010410Y032579D01*
X010410Y032737D02*
X010266Y032737D01*
X010410Y032896D02*
X010108Y032896D01*
X009264Y032737D02*
X008290Y032737D01*
X008246Y032579D02*
X009165Y032579D01*
X009165Y032420D02*
X008111Y032420D01*
X007952Y032262D02*
X009165Y032262D01*
X009203Y032103D02*
X007794Y032103D01*
X007635Y031945D02*
X009362Y031945D01*
X010410Y031786D02*
X007456Y031786D01*
X007183Y031628D02*
X010410Y031628D01*
X010410Y031469D02*
X007341Y031469D01*
X007405Y031311D02*
X010410Y031311D01*
X010410Y031152D02*
X007405Y031152D01*
X007405Y030994D02*
X010410Y030994D01*
X010410Y030835D02*
X007365Y030835D01*
X007207Y030677D02*
X010410Y030677D01*
X010410Y030518D02*
X007292Y030518D01*
X007405Y030360D02*
X010410Y030360D01*
X010410Y030201D02*
X007405Y030201D01*
X007405Y030043D02*
X010410Y030043D01*
X010410Y029884D02*
X007405Y029884D01*
X007256Y029726D02*
X010410Y029726D01*
X010410Y029567D02*
X007097Y029567D01*
X006433Y029567D02*
X006097Y029567D01*
X006256Y029726D02*
X006274Y029726D01*
X006765Y032140D02*
X007265Y032140D01*
X007890Y032765D01*
X007890Y034140D01*
X007515Y034640D02*
X008140Y035265D01*
X008140Y036265D01*
X008140Y035640D01*
X007640Y036140D02*
X007640Y036890D01*
X008003Y037334D02*
X010410Y037334D01*
X010410Y037492D02*
X007318Y037492D01*
X007160Y037651D02*
X010326Y037651D01*
X007640Y036140D02*
X007140Y035640D01*
X005390Y035640D01*
X005015Y035265D01*
X005015Y034015D01*
X005390Y033640D01*
X006265Y033640D01*
X006765Y034140D01*
X006265Y034640D02*
X007515Y034640D01*
X006265Y034640D02*
X005765Y034140D01*
X006160Y037651D02*
X006370Y037651D01*
X004493Y040187D02*
X004270Y040187D01*
X004270Y040345D02*
X004335Y040345D01*
X013015Y034890D02*
X013015Y032390D01*
X013515Y033140D02*
X013515Y019890D01*
X014015Y019390D01*
X014015Y018390D01*
X013015Y018390D02*
X013015Y021390D01*
X011865Y021990D02*
X011844Y021990D01*
X011370Y022464D01*
X011370Y024436D01*
X011516Y024290D01*
X011765Y024290D01*
X011865Y024290D01*
X011865Y021990D01*
X011865Y022118D02*
X011716Y022118D01*
X011865Y022276D02*
X011558Y022276D01*
X011399Y022435D02*
X011865Y022435D01*
X011865Y022593D02*
X011370Y022593D01*
X011370Y022752D02*
X011865Y022752D01*
X011865Y022910D02*
X011370Y022910D01*
X011370Y023069D02*
X011865Y023069D01*
X011865Y023227D02*
X011370Y023227D01*
X011370Y023386D02*
X011865Y023386D01*
X011865Y023544D02*
X011370Y023544D01*
X011370Y023703D02*
X011865Y023703D01*
X011865Y023861D02*
X011370Y023861D01*
X011370Y024020D02*
X011865Y024020D01*
X011865Y024178D02*
X011370Y024178D01*
X011370Y024337D02*
X011470Y024337D01*
X011765Y024337D02*
X011765Y024337D01*
X011765Y024290D02*
X011765Y024890D01*
X011765Y024890D01*
X011765Y025490D01*
X011865Y025490D01*
X011865Y026290D01*
X011516Y026290D01*
X011396Y026410D01*
X011370Y026410D01*
X011370Y025344D01*
X011516Y025490D01*
X011765Y025490D01*
X011765Y024890D01*
X011765Y024890D01*
X011765Y024290D01*
X011765Y024495D02*
X011765Y024495D01*
X011765Y024654D02*
X011765Y024654D01*
X011765Y024812D02*
X011765Y024812D01*
X011765Y024971D02*
X011765Y024971D01*
X011765Y025129D02*
X011765Y025129D01*
X011765Y025288D02*
X011765Y025288D01*
X011765Y025446D02*
X011765Y025446D01*
X011865Y025605D02*
X011370Y025605D01*
X011370Y025763D02*
X011865Y025763D01*
X011865Y025922D02*
X011370Y025922D01*
X011370Y026080D02*
X011865Y026080D01*
X011865Y026239D02*
X011370Y026239D01*
X011370Y026397D02*
X011409Y026397D01*
X011370Y025446D02*
X011473Y025446D01*
X014015Y024890D02*
X014015Y023890D01*
X014015Y024890D02*
X014515Y025390D01*
X014515Y027640D01*
X014015Y028140D01*
X014015Y029390D01*
X013515Y033140D02*
X014015Y033640D01*
X014015Y034890D01*
X019515Y022640D02*
X020015Y022140D01*
X014349Y005158D02*
X045082Y005158D01*
X053765Y011140D02*
X054765Y010140D01*
X059265Y010140D01*
X059765Y010640D02*
X055515Y010640D01*
X054515Y011640D01*
X054515Y012640D01*
X053765Y012140D02*
X053765Y011140D01*
X055265Y013140D02*
X056265Y012140D01*
X059265Y012140D01*
X059765Y012640D02*
X060265Y012140D01*
X059765Y012640D02*
X057015Y012640D01*
X056015Y013640D01*
X056015Y014640D01*
X056515Y015140D02*
X057515Y014140D01*
X059265Y014140D01*
X059765Y014640D02*
X060265Y014140D01*
X059765Y014640D02*
X058140Y014640D01*
X057140Y015640D01*
X057140Y016640D01*
X057541Y017046D02*
X058625Y017046D01*
X058625Y017204D02*
X057268Y017204D01*
X057012Y017204D02*
X056290Y017204D01*
X056290Y017046D02*
X056739Y017046D01*
X056625Y016887D02*
X056290Y016887D01*
X056290Y016729D02*
X056570Y016729D01*
X056515Y016140D02*
X056515Y015140D01*
X057568Y015778D02*
X058722Y015778D01*
X058625Y015936D02*
X057540Y015936D01*
X057540Y016095D02*
X058625Y016095D01*
X058625Y016253D02*
X057559Y016253D01*
X057662Y016412D02*
X058631Y016412D01*
X058790Y016570D02*
X057710Y016570D01*
X057710Y016729D02*
X058771Y016729D01*
X058625Y016887D02*
X057655Y016887D01*
X058625Y017363D02*
X056290Y017363D01*
X056536Y017521D02*
X057244Y017521D01*
X057536Y017521D02*
X058273Y017521D01*
X058390Y017521D02*
X058390Y017521D01*
X058390Y017510D02*
X058390Y018390D01*
X058390Y017510D01*
X058507Y017521D02*
X058741Y017521D01*
X058808Y017680D02*
X058899Y017680D01*
X058925Y017838D02*
X060865Y017838D01*
X060865Y017680D02*
X060631Y017680D01*
X060789Y017521D02*
X060865Y017521D01*
X060865Y017997D02*
X058980Y017997D01*
X058990Y018155D02*
X060809Y018155D01*
X060651Y018314D02*
X058990Y018314D01*
X058990Y018472D02*
X060492Y018472D01*
X060334Y018631D02*
X058990Y018631D01*
X058979Y018789D02*
X060175Y018789D01*
X060017Y018948D02*
X058922Y018948D01*
X058803Y019106D02*
X059858Y019106D01*
X059700Y019265D02*
X058472Y019265D01*
X058390Y019265D02*
X058390Y019265D01*
X058308Y019265D02*
X057523Y019265D01*
X057257Y019265D02*
X056830Y019265D01*
X056803Y019106D02*
X056977Y019106D01*
X056989Y019423D02*
X059541Y019423D01*
X059408Y019582D02*
X057147Y019582D01*
X057261Y019740D02*
X059365Y019740D01*
X059365Y019899D02*
X057290Y019899D01*
X057290Y020057D02*
X059365Y020057D01*
X059365Y020216D02*
X057290Y020216D01*
X057290Y020374D02*
X059365Y020374D01*
X059365Y020533D02*
X058564Y020533D01*
X058820Y020691D02*
X059365Y020691D01*
X059365Y020850D02*
X058932Y020850D01*
X058990Y021008D02*
X059365Y021008D01*
X059365Y021167D02*
X058990Y021167D01*
X058990Y021325D02*
X059365Y021325D01*
X059365Y021484D02*
X058990Y021484D01*
X058990Y021642D02*
X059365Y021642D01*
X059365Y021801D02*
X058985Y021801D01*
X058920Y021959D02*
X059365Y021959D01*
X059365Y022118D02*
X058791Y022118D01*
X059365Y022276D02*
X057592Y022276D01*
X057738Y022435D02*
X059365Y022435D01*
X059365Y022593D02*
X057790Y022593D01*
X057790Y022752D02*
X059365Y022752D01*
X059365Y022910D02*
X057790Y022910D01*
X057790Y023069D02*
X058131Y023069D01*
X057927Y023227D02*
X057856Y023227D01*
X058390Y023227D02*
X058390Y023227D01*
X058390Y023069D02*
X058390Y023069D01*
X058390Y023010D02*
X058390Y023890D01*
X058390Y023890D01*
X058390Y023010D01*
X058649Y023069D02*
X059365Y023069D01*
X059365Y023227D02*
X058853Y023227D01*
X058948Y023386D02*
X059365Y023386D01*
X059365Y023544D02*
X058987Y023544D01*
X058990Y023703D02*
X059365Y023703D01*
X059365Y023861D02*
X058990Y023861D01*
X058990Y024020D02*
X059365Y024020D01*
X059365Y024178D02*
X058990Y024178D01*
X058967Y024337D02*
X059365Y024337D01*
X059365Y024495D02*
X058895Y024495D01*
X058745Y024654D02*
X059365Y024654D01*
X059365Y024812D02*
X057790Y024812D01*
X057790Y024654D02*
X058035Y024654D01*
X058390Y024654D02*
X058390Y024654D01*
X058390Y024495D02*
X058390Y024495D01*
X058390Y024337D02*
X058390Y024337D01*
X058390Y024178D02*
X058390Y024178D01*
X058390Y024020D02*
X058390Y024020D01*
X058390Y023861D02*
X058390Y023861D01*
X058390Y023703D02*
X058390Y023703D01*
X058390Y023544D02*
X058390Y023544D01*
X058390Y023386D02*
X058390Y023386D01*
X057989Y022118D02*
X057791Y022118D01*
X057390Y021390D02*
X057390Y020510D01*
X057390Y021390D01*
X057390Y021390D01*
X057390Y021325D02*
X057390Y021325D01*
X057390Y021167D02*
X057390Y021167D01*
X057390Y021008D02*
X057390Y021008D01*
X057390Y020850D02*
X057390Y020850D01*
X057390Y020691D02*
X057390Y020691D01*
X057390Y020533D02*
X057390Y020533D01*
X057554Y020533D02*
X058216Y020533D01*
X057960Y020691D02*
X057820Y020691D01*
X056890Y019890D02*
X056390Y019390D01*
X056390Y018390D01*
X057390Y018390D01*
X057808Y017680D02*
X057972Y017680D01*
X058390Y017680D02*
X058390Y017680D01*
X058390Y017838D02*
X058390Y017838D01*
X058390Y017997D02*
X058390Y017997D01*
X058390Y018155D02*
X058390Y018155D01*
X058390Y018314D02*
X058390Y018314D01*
X058390Y018390D02*
X058390Y018390D01*
X058390Y018472D02*
X058390Y018472D01*
X058390Y018631D02*
X058390Y018631D01*
X058390Y018789D02*
X058390Y018789D01*
X058390Y018948D02*
X058390Y018948D01*
X058390Y019106D02*
X058390Y019106D01*
X057977Y019106D02*
X057803Y019106D01*
X056890Y019890D02*
X056890Y022140D01*
X057790Y024971D02*
X059365Y024971D01*
X059365Y025129D02*
X057717Y025129D01*
X057558Y025288D02*
X059365Y025288D01*
X059365Y025446D02*
X057400Y025446D01*
X057290Y025605D02*
X059365Y025605D01*
X059383Y025763D02*
X057290Y025763D01*
X057290Y025922D02*
X059481Y025922D01*
X059639Y026080D02*
X058678Y026080D01*
X058867Y026239D02*
X059798Y026239D01*
X058102Y026080D02*
X057671Y026080D01*
X057862Y026239D02*
X057913Y026239D01*
X057390Y026239D02*
X057390Y026239D01*
X057390Y026397D02*
X057390Y026397D01*
X057390Y026556D02*
X057390Y026556D01*
X057390Y026714D02*
X057390Y026714D01*
X057390Y026873D02*
X057390Y026873D01*
X057390Y026890D02*
X057390Y026010D01*
X057390Y026890D01*
X057390Y026890D01*
X057390Y026080D02*
X057390Y026080D01*
X061015Y022265D02*
X061015Y022265D01*
X060962Y019265D02*
X060831Y019265D01*
X060990Y019106D02*
X061120Y019106D01*
X061148Y018948D02*
X061279Y018948D01*
X061307Y018789D02*
X061437Y018789D01*
X061465Y018631D02*
X061596Y018631D01*
X061612Y018472D02*
X061770Y018472D01*
X059899Y017680D02*
X059631Y017680D01*
X058839Y015619D02*
X057727Y015619D01*
X057885Y015461D02*
X058680Y015461D01*
X058625Y015302D02*
X058044Y015302D01*
X058202Y015144D02*
X058625Y015144D01*
X056972Y017680D02*
X056808Y017680D01*
X055265Y014140D02*
X055265Y013140D01*
X059765Y010640D02*
X060265Y010140D01*
X060245Y041772D02*
X060285Y041772D01*
D16*
X054890Y040140D03*
X053890Y040140D03*
X051890Y040140D03*
X050890Y040140D03*
X042765Y040140D03*
X041765Y040140D03*
X039765Y040015D03*
X038765Y039515D03*
X059265Y030765D03*
X059265Y029265D03*
X065390Y029140D03*
X057140Y016640D03*
X056515Y016140D03*
X056015Y014640D03*
X055265Y014140D03*
X054515Y012640D03*
X053765Y012140D03*
X047390Y017140D03*
X043765Y017015D03*
X042765Y017015D03*
X041765Y017015D03*
X040765Y017015D03*
X031640Y017015D03*
X030640Y017015D03*
X029640Y017015D03*
X028640Y017015D03*
X019515Y016140D03*
X018515Y016140D03*
X017515Y016140D03*
X016515Y016140D03*
X007890Y034140D03*
X008140Y036265D03*
X007640Y036890D03*
X043515Y010015D03*
D17*
X059265Y007140D02*
X059265Y006140D01*
X060265Y006140D02*
X060265Y007140D01*
X062390Y007140D01*
X062765Y007140D01*
X065390Y009765D01*
X065390Y018890D01*
X062015Y018890D01*
X061015Y019890D01*
X061015Y021265D01*
X065390Y023265D02*
X065390Y018890D01*
X065390Y023265D02*
X065390Y029140D01*
X065390Y038390D01*
X064765Y039015D01*
X057515Y039015D01*
X056890Y039640D01*
X055390Y041140D01*
X047390Y041140D01*
X044765Y041140D01*
X035265Y041140D01*
X032640Y041140D01*
X023140Y041140D01*
X020515Y041140D01*
X008390Y041140D01*
X007390Y041140D01*
X008390Y041140D02*
X008390Y040140D01*
X008515Y040140D01*
X010890Y037765D01*
X011890Y037765D01*
X012015Y037890D01*
X013015Y037890D01*
X010890Y037765D02*
X010890Y032390D01*
X011765Y032390D01*
X010890Y032390D02*
X010890Y026890D01*
X011765Y026890D01*
X010890Y026890D02*
X010890Y022265D01*
X011765Y021390D01*
X023140Y021390D02*
X023140Y012140D01*
X023515Y011765D01*
X024890Y011765D01*
X023890Y021390D02*
X023140Y021390D01*
X023140Y026890D01*
X023890Y026890D01*
X023140Y026890D02*
X023140Y032390D01*
X023890Y032390D01*
X023140Y032390D02*
X023140Y037765D01*
X023890Y037765D01*
X023140Y037765D02*
X023140Y041140D01*
X035265Y041140D02*
X035265Y037890D01*
X036015Y037890D01*
X035265Y037890D02*
X035265Y032390D01*
X036015Y032390D01*
X035265Y032390D02*
X035265Y026890D01*
X036015Y026890D01*
X035265Y026890D02*
X035265Y022140D01*
X036015Y021390D01*
X047390Y022140D02*
X047390Y026890D01*
X048140Y026890D01*
X047390Y026890D02*
X047390Y032390D01*
X048140Y032390D01*
X047390Y032390D02*
X047390Y037890D01*
X048140Y037890D01*
X047390Y037890D02*
X047390Y041140D01*
X061015Y031265D02*
X061015Y029890D01*
X048140Y021390D02*
X047390Y022140D01*
X059265Y007140D02*
X060265Y007140D01*
X008390Y040140D02*
X007390Y040140D01*
M02*
