G75*
%MOIN*%
%OFA0B0*%
%FSLAX24Y24*%
%IPPOS*%
%LPD*%
%AMOC8*
5,1,8,0,0,1.08239X$1,22.5*
%
%ADD10C,0.1180*%
%ADD11C,0.0640*%
%ADD12OC8,0.0640*%
%ADD13OC8,0.0720*%
%ADD14OC8,0.0710*%
%ADD15C,0.0710*%
%ADD16C,0.0580*%
D10*
X005265Y006140D03*
X005265Y041140D03*
X065765Y041140D03*
X065765Y006140D03*
D11*
X058390Y018110D02*
X058390Y018670D01*
X057390Y018670D02*
X057390Y018110D01*
X056390Y018110D02*
X056390Y018670D01*
X055390Y018670D02*
X055390Y018110D01*
X054390Y018110D02*
X054390Y018670D01*
X053390Y018670D02*
X053390Y018110D01*
X052390Y018110D02*
X052390Y018670D01*
X051390Y018670D02*
X051390Y018110D01*
X050390Y018110D02*
X050390Y018670D01*
X049390Y018670D02*
X049390Y018110D01*
X046265Y018110D02*
X046265Y018670D01*
X045265Y018670D02*
X045265Y018110D01*
X044265Y018110D02*
X044265Y018670D01*
X043265Y018670D02*
X043265Y018110D01*
X042265Y018110D02*
X042265Y018670D01*
X041265Y018670D02*
X041265Y018110D01*
X040265Y018110D02*
X040265Y018670D01*
X039265Y018670D02*
X039265Y018110D01*
X038265Y018110D02*
X038265Y018670D01*
X037265Y018670D02*
X037265Y018110D01*
X034140Y018110D02*
X034140Y018670D01*
X033140Y018670D02*
X033140Y018110D01*
X032140Y018110D02*
X032140Y018670D01*
X031140Y018670D02*
X031140Y018110D01*
X030140Y018110D02*
X030140Y018670D01*
X029140Y018670D02*
X029140Y018110D01*
X028140Y018110D02*
X028140Y018670D01*
X027140Y018670D02*
X027140Y018110D01*
X026140Y018110D02*
X026140Y018670D01*
X025140Y018670D02*
X025140Y018110D01*
X022015Y018110D02*
X022015Y018670D01*
X021015Y018670D02*
X021015Y018110D01*
X020015Y018110D02*
X020015Y018670D01*
X019015Y018670D02*
X019015Y018110D01*
X018015Y018110D02*
X018015Y018670D01*
X017015Y018670D02*
X017015Y018110D01*
X016015Y018110D02*
X016015Y018670D01*
X015015Y018670D02*
X015015Y018110D01*
X014015Y018110D02*
X014015Y018670D01*
X013015Y018670D02*
X013015Y018110D01*
X013015Y021110D02*
X013015Y021670D01*
X014015Y021670D02*
X014015Y021110D01*
X015015Y021110D02*
X015015Y021670D01*
X016015Y021670D02*
X016015Y021110D01*
X017015Y021110D02*
X017015Y021670D01*
X018015Y021670D02*
X018015Y021110D01*
X019015Y021110D02*
X019015Y021670D01*
X020015Y021670D02*
X020015Y021110D01*
X021015Y021110D02*
X021015Y021670D01*
X022015Y021670D02*
X022015Y021110D01*
X025140Y021110D02*
X025140Y021670D01*
X026140Y021670D02*
X026140Y021110D01*
X027140Y021110D02*
X027140Y021670D01*
X028140Y021670D02*
X028140Y021110D01*
X029140Y021110D02*
X029140Y021670D01*
X030140Y021670D02*
X030140Y021110D01*
X031140Y021110D02*
X031140Y021670D01*
X032140Y021670D02*
X032140Y021110D01*
X033140Y021110D02*
X033140Y021670D01*
X034140Y021670D02*
X034140Y021110D01*
X037265Y021110D02*
X037265Y021670D01*
X038265Y021670D02*
X038265Y021110D01*
X039265Y021110D02*
X039265Y021670D01*
X040265Y021670D02*
X040265Y021110D01*
X041265Y021110D02*
X041265Y021670D01*
X042265Y021670D02*
X042265Y021110D01*
X043265Y021110D02*
X043265Y021670D01*
X044265Y021670D02*
X044265Y021110D01*
X045265Y021110D02*
X045265Y021670D01*
X046265Y021670D02*
X046265Y021110D01*
X049390Y021110D02*
X049390Y021670D01*
X050390Y021670D02*
X050390Y021110D01*
X051390Y021110D02*
X051390Y021670D01*
X052390Y021670D02*
X052390Y021110D01*
X053390Y021110D02*
X053390Y021670D01*
X054390Y021670D02*
X054390Y021110D01*
X055390Y021110D02*
X055390Y021670D01*
X056390Y021670D02*
X056390Y021110D01*
X057390Y021110D02*
X057390Y021670D01*
X058390Y021670D02*
X058390Y021110D01*
X060735Y021265D02*
X061295Y021265D01*
X061295Y022265D02*
X060735Y022265D01*
X060735Y023265D02*
X061295Y023265D01*
X061295Y024265D02*
X060735Y024265D01*
X060735Y025265D02*
X061295Y025265D01*
X061295Y026265D02*
X060735Y026265D01*
X060735Y027265D02*
X061295Y027265D01*
X061295Y028265D02*
X060735Y028265D01*
X058390Y029110D02*
X058390Y029670D01*
X057390Y029670D02*
X057390Y029110D01*
X056390Y029110D02*
X056390Y029670D01*
X055390Y029670D02*
X055390Y029110D01*
X054390Y029110D02*
X054390Y029670D01*
X053390Y029670D02*
X053390Y029110D01*
X052390Y029110D02*
X052390Y029670D01*
X051390Y029670D02*
X051390Y029110D01*
X050390Y029110D02*
X050390Y029670D01*
X049390Y029670D02*
X049390Y029110D01*
X049390Y027170D02*
X049390Y026610D01*
X050390Y026610D02*
X050390Y027170D01*
X051390Y027170D02*
X051390Y026610D01*
X052390Y026610D02*
X052390Y027170D01*
X053390Y027170D02*
X053390Y026610D01*
X054390Y026610D02*
X054390Y027170D01*
X055390Y027170D02*
X055390Y026610D01*
X056390Y026610D02*
X056390Y027170D01*
X057390Y027170D02*
X057390Y026610D01*
X058390Y026610D02*
X058390Y027170D01*
X058390Y024170D02*
X058390Y023610D01*
X057390Y023610D02*
X057390Y024170D01*
X056390Y024170D02*
X056390Y023610D01*
X055390Y023610D02*
X055390Y024170D01*
X054390Y024170D02*
X054390Y023610D01*
X053390Y023610D02*
X053390Y024170D01*
X052390Y024170D02*
X052390Y023610D01*
X051390Y023610D02*
X051390Y024170D01*
X050390Y024170D02*
X050390Y023610D01*
X049390Y023610D02*
X049390Y024170D01*
X046265Y024170D02*
X046265Y023610D01*
X045265Y023610D02*
X045265Y024170D01*
X044265Y024170D02*
X044265Y023610D01*
X043265Y023610D02*
X043265Y024170D01*
X042265Y024170D02*
X042265Y023610D01*
X041265Y023610D02*
X041265Y024170D01*
X040265Y024170D02*
X040265Y023610D01*
X039265Y023610D02*
X039265Y024170D01*
X038265Y024170D02*
X038265Y023610D01*
X037265Y023610D02*
X037265Y024170D01*
X034140Y024170D02*
X034140Y023610D01*
X033140Y023610D02*
X033140Y024170D01*
X032140Y024170D02*
X032140Y023610D01*
X031140Y023610D02*
X031140Y024170D01*
X030140Y024170D02*
X030140Y023610D01*
X029140Y023610D02*
X029140Y024170D01*
X028140Y024170D02*
X028140Y023610D01*
X027140Y023610D02*
X027140Y024170D01*
X026140Y024170D02*
X026140Y023610D01*
X025140Y023610D02*
X025140Y024170D01*
X022015Y024170D02*
X022015Y023610D01*
X021015Y023610D02*
X021015Y024170D01*
X020015Y024170D02*
X020015Y023610D01*
X019015Y023610D02*
X019015Y024170D01*
X018015Y024170D02*
X018015Y023610D01*
X017015Y023610D02*
X017015Y024170D01*
X016015Y024170D02*
X016015Y023610D01*
X015015Y023610D02*
X015015Y024170D01*
X014015Y024170D02*
X014015Y023610D01*
X013015Y023610D02*
X013015Y024170D01*
X013015Y026610D02*
X013015Y027170D01*
X014015Y027170D02*
X014015Y026610D01*
X015015Y026610D02*
X015015Y027170D01*
X016015Y027170D02*
X016015Y026610D01*
X017015Y026610D02*
X017015Y027170D01*
X018015Y027170D02*
X018015Y026610D01*
X019015Y026610D02*
X019015Y027170D01*
X020015Y027170D02*
X020015Y026610D01*
X021015Y026610D02*
X021015Y027170D01*
X022015Y027170D02*
X022015Y026610D01*
X025140Y026610D02*
X025140Y027170D01*
X026140Y027170D02*
X026140Y026610D01*
X027140Y026610D02*
X027140Y027170D01*
X028140Y027170D02*
X028140Y026610D01*
X029140Y026610D02*
X029140Y027170D01*
X030140Y027170D02*
X030140Y026610D01*
X031140Y026610D02*
X031140Y027170D01*
X032140Y027170D02*
X032140Y026610D01*
X033140Y026610D02*
X033140Y027170D01*
X034140Y027170D02*
X034140Y026610D01*
X037265Y026610D02*
X037265Y027170D01*
X038265Y027170D02*
X038265Y026610D01*
X039265Y026610D02*
X039265Y027170D01*
X040265Y027170D02*
X040265Y026610D01*
X041265Y026610D02*
X041265Y027170D01*
X042265Y027170D02*
X042265Y026610D01*
X043265Y026610D02*
X043265Y027170D01*
X044265Y027170D02*
X044265Y026610D01*
X045265Y026610D02*
X045265Y027170D01*
X046265Y027170D02*
X046265Y026610D01*
X046265Y029110D02*
X046265Y029670D01*
X045265Y029670D02*
X045265Y029110D01*
X044265Y029110D02*
X044265Y029670D01*
X043265Y029670D02*
X043265Y029110D01*
X042265Y029110D02*
X042265Y029670D01*
X041265Y029670D02*
X041265Y029110D01*
X040265Y029110D02*
X040265Y029670D01*
X039265Y029670D02*
X039265Y029110D01*
X038265Y029110D02*
X038265Y029670D01*
X037265Y029670D02*
X037265Y029110D01*
X034140Y029110D02*
X034140Y029670D01*
X033140Y029670D02*
X033140Y029110D01*
X032140Y029110D02*
X032140Y029670D01*
X031140Y029670D02*
X031140Y029110D01*
X030140Y029110D02*
X030140Y029670D01*
X029140Y029670D02*
X029140Y029110D01*
X028140Y029110D02*
X028140Y029670D01*
X027140Y029670D02*
X027140Y029110D01*
X026140Y029110D02*
X026140Y029670D01*
X025140Y029670D02*
X025140Y029110D01*
X022015Y029110D02*
X022015Y029670D01*
X021015Y029670D02*
X021015Y029110D01*
X020015Y029110D02*
X020015Y029670D01*
X019015Y029670D02*
X019015Y029110D01*
X018015Y029110D02*
X018015Y029670D01*
X017015Y029670D02*
X017015Y029110D01*
X016015Y029110D02*
X016015Y029670D01*
X015015Y029670D02*
X015015Y029110D01*
X014015Y029110D02*
X014015Y029670D01*
X013015Y029670D02*
X013015Y029110D01*
X013015Y032110D02*
X013015Y032670D01*
X014015Y032670D02*
X014015Y032110D01*
X015015Y032110D02*
X015015Y032670D01*
X016015Y032670D02*
X016015Y032110D01*
X017015Y032110D02*
X017015Y032670D01*
X018015Y032670D02*
X018015Y032110D01*
X019015Y032110D02*
X019015Y032670D01*
X020015Y032670D02*
X020015Y032110D01*
X021015Y032110D02*
X021015Y032670D01*
X022015Y032670D02*
X022015Y032110D01*
X025140Y032110D02*
X025140Y032670D01*
X026140Y032670D02*
X026140Y032110D01*
X027140Y032110D02*
X027140Y032670D01*
X028140Y032670D02*
X028140Y032110D01*
X029140Y032110D02*
X029140Y032670D01*
X030140Y032670D02*
X030140Y032110D01*
X031140Y032110D02*
X031140Y032670D01*
X032140Y032670D02*
X032140Y032110D01*
X033140Y032110D02*
X033140Y032670D01*
X034140Y032670D02*
X034140Y032110D01*
X037265Y032110D02*
X037265Y032670D01*
X038265Y032670D02*
X038265Y032110D01*
X039265Y032110D02*
X039265Y032670D01*
X040265Y032670D02*
X040265Y032110D01*
X041265Y032110D02*
X041265Y032670D01*
X042265Y032670D02*
X042265Y032110D01*
X043265Y032110D02*
X043265Y032670D01*
X044265Y032670D02*
X044265Y032110D01*
X045265Y032110D02*
X045265Y032670D01*
X046265Y032670D02*
X046265Y032110D01*
X049390Y032110D02*
X049390Y032670D01*
X050390Y032670D02*
X050390Y032110D01*
X051390Y032110D02*
X051390Y032670D01*
X052390Y032670D02*
X052390Y032110D01*
X053390Y032110D02*
X053390Y032670D01*
X054390Y032670D02*
X054390Y032110D01*
X055390Y032110D02*
X055390Y032670D01*
X056390Y032670D02*
X056390Y032110D01*
X057390Y032110D02*
X057390Y032670D01*
X058390Y032670D02*
X058390Y032110D01*
X060735Y032265D02*
X061295Y032265D01*
X061295Y031265D02*
X060735Y031265D01*
X060735Y033265D02*
X061295Y033265D01*
X061295Y034265D02*
X060735Y034265D01*
X060735Y035265D02*
X061295Y035265D01*
X061295Y036265D02*
X060735Y036265D01*
X060735Y037265D02*
X061295Y037265D01*
X061295Y038265D02*
X060735Y038265D01*
X058390Y038170D02*
X058390Y037610D01*
X057390Y037610D02*
X057390Y038170D01*
X056390Y038170D02*
X056390Y037610D01*
X055390Y037610D02*
X055390Y038170D01*
X054390Y038170D02*
X054390Y037610D01*
X053390Y037610D02*
X053390Y038170D01*
X052390Y038170D02*
X052390Y037610D01*
X051390Y037610D02*
X051390Y038170D01*
X050390Y038170D02*
X050390Y037610D01*
X049390Y037610D02*
X049390Y038170D01*
X046265Y038170D02*
X046265Y037610D01*
X045265Y037610D02*
X045265Y038170D01*
X044265Y038170D02*
X044265Y037610D01*
X043265Y037610D02*
X043265Y038170D01*
X042265Y038170D02*
X042265Y037610D01*
X041265Y037610D02*
X041265Y038170D01*
X040265Y038170D02*
X040265Y037610D01*
X039265Y037610D02*
X039265Y038170D01*
X038265Y038170D02*
X038265Y037610D01*
X037265Y037610D02*
X037265Y038170D01*
X034140Y038170D02*
X034140Y037610D01*
X033140Y037610D02*
X033140Y038170D01*
X032140Y038170D02*
X032140Y037610D01*
X031140Y037610D02*
X031140Y038170D01*
X030140Y038170D02*
X030140Y037610D01*
X029140Y037610D02*
X029140Y038170D01*
X028140Y038170D02*
X028140Y037610D01*
X027140Y037610D02*
X027140Y038170D01*
X026140Y038170D02*
X026140Y037610D01*
X025140Y037610D02*
X025140Y038170D01*
X022015Y038170D02*
X022015Y037610D01*
X021015Y037610D02*
X021015Y038170D01*
X020015Y038170D02*
X020015Y037610D01*
X019015Y037610D02*
X019015Y038170D01*
X018015Y038170D02*
X018015Y037610D01*
X017015Y037610D02*
X017015Y038170D01*
X016015Y038170D02*
X016015Y037610D01*
X015015Y037610D02*
X015015Y038170D01*
X014015Y038170D02*
X014015Y037610D01*
X013015Y037610D02*
X013015Y038170D01*
X013015Y035170D02*
X013015Y034610D01*
X014015Y034610D02*
X014015Y035170D01*
X015015Y035170D02*
X015015Y034610D01*
X016015Y034610D02*
X016015Y035170D01*
X017015Y035170D02*
X017015Y034610D01*
X018015Y034610D02*
X018015Y035170D01*
X019015Y035170D02*
X019015Y034610D01*
X020015Y034610D02*
X020015Y035170D01*
X021015Y035170D02*
X021015Y034610D01*
X022015Y034610D02*
X022015Y035170D01*
X025140Y035170D02*
X025140Y034610D01*
X026140Y034610D02*
X026140Y035170D01*
X027140Y035170D02*
X027140Y034610D01*
X028140Y034610D02*
X028140Y035170D01*
X029140Y035170D02*
X029140Y034610D01*
X030140Y034610D02*
X030140Y035170D01*
X031140Y035170D02*
X031140Y034610D01*
X032140Y034610D02*
X032140Y035170D01*
X033140Y035170D02*
X033140Y034610D01*
X034140Y034610D02*
X034140Y035170D01*
X037265Y035170D02*
X037265Y034610D01*
X038265Y034610D02*
X038265Y035170D01*
X039265Y035170D02*
X039265Y034610D01*
X040265Y034610D02*
X040265Y035170D01*
X041265Y035170D02*
X041265Y034610D01*
X042265Y034610D02*
X042265Y035170D01*
X043265Y035170D02*
X043265Y034610D01*
X044265Y034610D02*
X044265Y035170D01*
X045265Y035170D02*
X045265Y034610D01*
X046265Y034610D02*
X046265Y035170D01*
X049390Y035170D02*
X049390Y034610D01*
X050390Y034610D02*
X050390Y035170D01*
X051390Y035170D02*
X051390Y034610D01*
X052390Y034610D02*
X052390Y035170D01*
X053390Y035170D02*
X053390Y034610D01*
X054390Y034610D02*
X054390Y035170D01*
X055390Y035170D02*
X055390Y034610D01*
X056390Y034610D02*
X056390Y035170D01*
X057390Y035170D02*
X057390Y034610D01*
X058390Y034610D02*
X058390Y035170D01*
X063735Y035265D02*
X064295Y035265D01*
X064295Y034265D02*
X063735Y034265D01*
X063735Y033265D02*
X064295Y033265D01*
X064295Y032265D02*
X063735Y032265D01*
X063735Y031265D02*
X064295Y031265D01*
X064295Y028265D02*
X063735Y028265D01*
X063735Y027265D02*
X064295Y027265D01*
X064295Y026265D02*
X063735Y026265D01*
X063735Y025265D02*
X064295Y025265D01*
X064295Y024265D02*
X063735Y024265D01*
X063735Y023265D02*
X064295Y023265D01*
X064295Y022265D02*
X063735Y022265D01*
X063735Y021265D02*
X064295Y021265D01*
X064295Y036265D02*
X063735Y036265D01*
X063735Y037265D02*
X064295Y037265D01*
X064295Y038265D02*
X063735Y038265D01*
X030890Y012045D02*
X030890Y011485D01*
X029890Y011485D02*
X029890Y012045D01*
X028890Y012045D02*
X028890Y011485D01*
X027890Y011485D02*
X027890Y012045D01*
X026890Y012045D02*
X026890Y011485D01*
X025890Y011485D02*
X025890Y012045D01*
X024890Y012045D02*
X024890Y011485D01*
X024890Y009045D02*
X024890Y008485D01*
X025890Y008485D02*
X025890Y009045D01*
X026890Y009045D02*
X026890Y008485D01*
X027890Y008485D02*
X027890Y009045D01*
X028890Y009045D02*
X028890Y008485D01*
X029890Y008485D02*
X029890Y009045D01*
X030890Y009045D02*
X030890Y008485D01*
D12*
X023515Y009765D03*
X023515Y011765D03*
X023890Y019390D03*
X023890Y021390D03*
X023890Y024890D03*
X023890Y026890D03*
X023890Y030390D03*
X023890Y032390D03*
X023890Y035765D03*
X023890Y037765D03*
X011890Y037765D03*
X011890Y035765D03*
X011765Y032390D03*
X009765Y032390D03*
X011765Y026890D03*
X011765Y024890D03*
X011765Y021390D03*
X011765Y019390D03*
X036015Y019390D03*
X036015Y021390D03*
X036015Y024890D03*
X036015Y026890D03*
X036015Y030390D03*
X036015Y032390D03*
X036015Y035890D03*
X036015Y037890D03*
X048140Y037890D03*
X048140Y035890D03*
X048140Y032390D03*
X048140Y030390D03*
X048140Y026890D03*
X048140Y024890D03*
X048140Y021390D03*
X048140Y019390D03*
X061015Y019890D03*
X063015Y019890D03*
X063015Y029890D03*
X061015Y029890D03*
D13*
X060265Y040140D03*
X059265Y040140D03*
X059265Y041140D03*
X060265Y041140D03*
X060265Y017140D03*
X059265Y017140D03*
X059265Y016140D03*
X060265Y016140D03*
X060265Y015140D03*
X059265Y015140D03*
X059265Y014140D03*
X060265Y014140D03*
X060265Y013140D03*
X059265Y013140D03*
X059265Y012140D03*
X060265Y012140D03*
X060265Y011140D03*
X059265Y011140D03*
X059265Y010140D03*
X060265Y010140D03*
X060265Y007140D03*
X059265Y007140D03*
X059265Y006140D03*
X060265Y006140D03*
X053890Y006140D03*
X053890Y007140D03*
X052890Y007140D03*
X051890Y007140D03*
X051890Y006140D03*
X052890Y006140D03*
X050890Y006140D03*
X049890Y006140D03*
X049890Y007140D03*
X050890Y007140D03*
X048890Y007140D03*
X047890Y007140D03*
X046890Y007140D03*
X046890Y006140D03*
X047890Y006140D03*
X048890Y006140D03*
X045890Y006140D03*
X044890Y006140D03*
X044890Y007140D03*
X045890Y007140D03*
X043890Y007140D03*
X042890Y007140D03*
X041890Y007140D03*
X041890Y006140D03*
X042890Y006140D03*
X043890Y006140D03*
X040890Y006140D03*
X039890Y006140D03*
X039890Y007140D03*
X040890Y007140D03*
X038890Y007140D03*
X037890Y007140D03*
X036890Y007140D03*
X036890Y006140D03*
X037890Y006140D03*
X038890Y006140D03*
X033890Y006140D03*
X032890Y006140D03*
X032890Y007140D03*
X033890Y007140D03*
X031890Y007140D03*
X030890Y007140D03*
X029890Y007140D03*
X029890Y006140D03*
X030890Y006140D03*
X031890Y006140D03*
X028890Y006140D03*
X027890Y006140D03*
X027890Y007140D03*
X028890Y007140D03*
X026890Y007140D03*
X025890Y007140D03*
X024890Y007140D03*
X024890Y006140D03*
X025890Y006140D03*
X026890Y006140D03*
X023890Y006140D03*
X022890Y006140D03*
X022890Y007140D03*
X023890Y007140D03*
X021890Y007140D03*
X020890Y007140D03*
X019890Y007140D03*
X019890Y006140D03*
X020890Y006140D03*
X021890Y006140D03*
X018890Y006140D03*
X017890Y006140D03*
X017890Y007140D03*
X018890Y007140D03*
X016890Y007140D03*
X015890Y007140D03*
X015890Y006140D03*
X016890Y006140D03*
X014890Y006140D03*
X013890Y006140D03*
X012890Y006140D03*
X012890Y007140D03*
X013890Y007140D03*
X014890Y007140D03*
X011890Y007140D03*
X010890Y007140D03*
X010890Y006140D03*
X011890Y006140D03*
X008390Y006140D03*
X007390Y006140D03*
X007390Y007140D03*
X008390Y007140D03*
X006765Y030140D03*
X005765Y030140D03*
X005765Y031140D03*
X006765Y031140D03*
X006765Y032140D03*
X005765Y032140D03*
X005765Y033140D03*
X006765Y033140D03*
X006765Y034140D03*
X005765Y034140D03*
X005765Y035140D03*
X006765Y035140D03*
X006765Y036140D03*
X005765Y036140D03*
X005765Y037140D03*
X006765Y037140D03*
X007390Y040140D03*
X008390Y040140D03*
X008390Y041140D03*
X007390Y041140D03*
D14*
X062390Y008140D03*
D15*
X062390Y007140D03*
D16*
X054515Y012640D03*
X053765Y012140D03*
X055265Y014140D03*
X056015Y014640D03*
X056515Y016140D03*
X057140Y016640D03*
X047390Y017140D03*
X043765Y017015D03*
X042765Y017015D03*
X041765Y017015D03*
X040765Y017015D03*
X031640Y017015D03*
X030640Y017015D03*
X029640Y017015D03*
X028640Y017015D03*
X019515Y016140D03*
X018515Y016140D03*
X017515Y016140D03*
X016515Y016140D03*
X007890Y034140D03*
X008140Y036265D03*
X007640Y036890D03*
X038765Y039515D03*
X039765Y040015D03*
X041765Y040140D03*
X042765Y040140D03*
X050890Y040140D03*
X051890Y040140D03*
X053890Y040140D03*
X054890Y040140D03*
X059265Y030765D03*
X059265Y029265D03*
X065390Y029140D03*
X043515Y010015D03*
M02*
