%
M48
M72
T01C0.0240
T02C0.0320
T03C0.0400
T04C0.1100
%
T01
X16515Y16140
X17515Y16140
X18515Y16140
X19515Y16140
X28640Y17015
X29640Y17015
X30640Y17015
X31640Y17015
X40765Y17015
X41765Y17015
X42765Y17015
X43765Y17015
X47390Y17140
X54515Y12640
X53765Y12140
X55265Y14140
X56015Y14640
X56515Y16140
X57140Y16640
X43515Y10015
X65390Y29140
X59265Y29265
X59265Y30765
X54890Y40140
X53890Y40140
X51890Y40140
X50890Y40140
X42765Y40140
X41765Y40140
X39765Y40015
X38765Y39515
X8140Y36265
X7640Y36890
X7890Y34140
T02
X9765Y32390
X11765Y32390
X13015Y32390
X14015Y32390
X15015Y32390
X16015Y32390
X17015Y32390
X18015Y32390
X19015Y32390
X20015Y32390
X21015Y32390
X22015Y32390
X23890Y32390
X25140Y32390
X26140Y32390
X27140Y32390
X28140Y32390
X29140Y32390
X30140Y32390
X31140Y32390
X32140Y32390
X33140Y32390
X34140Y32390
X36015Y32390
X37265Y32390
X38265Y32390
X39265Y32390
X40265Y32390
X41265Y32390
X42265Y32390
X43265Y32390
X44265Y32390
X45265Y32390
X46265Y32390
X48140Y32390
X49390Y32390
X50390Y32390
X51390Y32390
X52390Y32390
X53390Y32390
X54390Y32390
X55390Y32390
X56390Y32390
X57390Y32390
X58390Y32390
X61015Y32265
X61015Y31265
X61015Y29890
X63015Y29890
X64015Y31265
X64015Y32265
X64015Y33265
X64015Y34265
X64015Y35265
X64015Y36265
X64015Y37265
X64015Y38265
X61015Y38265
X61015Y37265
X61015Y36265
X61015Y35265
X61015Y34265
X61015Y33265
X58390Y34890
X57390Y34890
X56390Y34890
X55390Y34890
X54390Y34890
X53390Y34890
X52390Y34890
X51390Y34890
X50390Y34890
X49390Y34890
X48140Y35890
X46265Y34890
X45265Y34890
X44265Y34890
X43265Y34890
X42265Y34890
X41265Y34890
X40265Y34890
X39265Y34890
X38265Y34890
X37265Y34890
X36015Y35890
X34140Y34890
X33140Y34890
X32140Y34890
X31140Y34890
X30140Y34890
X29140Y34890
X28140Y34890
X27140Y34890
X26140Y34890
X25140Y34890
X23890Y35765
X22015Y34890
X21015Y34890
X20015Y34890
X19015Y34890
X18015Y34890
X17015Y34890
X16015Y34890
X15015Y34890
X14015Y34890
X13015Y34890
X11890Y35765
X11890Y37765
X13015Y37890
X14015Y37890
X15015Y37890
X16015Y37890
X17015Y37890
X18015Y37890
X19015Y37890
X20015Y37890
X21015Y37890
X22015Y37890
X23890Y37765
X25140Y37890
X26140Y37890
X27140Y37890
X28140Y37890
X29140Y37890
X30140Y37890
X31140Y37890
X32140Y37890
X33140Y37890
X34140Y37890
X36015Y37890
X37265Y37890
X38265Y37890
X39265Y37890
X40265Y37890
X41265Y37890
X42265Y37890
X43265Y37890
X44265Y37890
X45265Y37890
X46265Y37890
X48140Y37890
X49390Y37890
X50390Y37890
X51390Y37890
X52390Y37890
X53390Y37890
X54390Y37890
X55390Y37890
X56390Y37890
X57390Y37890
X58390Y37890
X48140Y30390
X49390Y29390
X50390Y29390
X51390Y29390
X52390Y29390
X53390Y29390
X54390Y29390
X55390Y29390
X56390Y29390
X57390Y29390
X58390Y29390
X61015Y28265
X61015Y27265
X61015Y26265
X61015Y25265
X61015Y24265
X61015Y23265
X61015Y22265
X61015Y21265
X61015Y19890
X63015Y19890
X64015Y21265
X64015Y22265
X64015Y23265
X64015Y24265
X64015Y25265
X64015Y26265
X64015Y27265
X64015Y28265
X58390Y26890
X57390Y26890
X56390Y26890
X55390Y26890
X54390Y26890
X53390Y26890
X52390Y26890
X51390Y26890
X50390Y26890
X49390Y26890
X48140Y26890
X46265Y26890
X45265Y26890
X44265Y26890
X43265Y26890
X42265Y26890
X41265Y26890
X40265Y26890
X39265Y26890
X38265Y26890
X37265Y26890
X36015Y26890
X34140Y26890
X33140Y26890
X32140Y26890
X31140Y26890
X30140Y26890
X29140Y26890
X28140Y26890
X27140Y26890
X26140Y26890
X25140Y26890
X23890Y26890
X22015Y26890
X21015Y26890
X20015Y26890
X19015Y26890
X18015Y26890
X17015Y26890
X16015Y26890
X15015Y26890
X14015Y26890
X13015Y26890
X11765Y26890
X11765Y24890
X13015Y23890
X14015Y23890
X15015Y23890
X16015Y23890
X17015Y23890
X18015Y23890
X19015Y23890
X20015Y23890
X21015Y23890
X22015Y23890
X23890Y24890
X25140Y23890
X26140Y23890
X27140Y23890
X28140Y23890
X29140Y23890
X30140Y23890
X31140Y23890
X32140Y23890
X33140Y23890
X34140Y23890
X36015Y24890
X37265Y23890
X38265Y23890
X39265Y23890
X40265Y23890
X41265Y23890
X42265Y23890
X43265Y23890
X44265Y23890
X45265Y23890
X46265Y23890
X48140Y24890
X49390Y23890
X50390Y23890
X51390Y23890
X52390Y23890
X53390Y23890
X54390Y23890
X55390Y23890
X56390Y23890
X57390Y23890
X58390Y23890
X58390Y21390
X57390Y21390
X56390Y21390
X55390Y21390
X54390Y21390
X53390Y21390
X52390Y21390
X51390Y21390
X50390Y21390
X49390Y21390
X48140Y21390
X46265Y21390
X45265Y21390
X44265Y21390
X43265Y21390
X42265Y21390
X41265Y21390
X40265Y21390
X39265Y21390
X38265Y21390
X37265Y21390
X36015Y21390
X34140Y21390
X33140Y21390
X32140Y21390
X31140Y21390
X30140Y21390
X29140Y21390
X28140Y21390
X27140Y21390
X26140Y21390
X25140Y21390
X23890Y21390
X22015Y21390
X21015Y21390
X20015Y21390
X19015Y21390
X18015Y21390
X17015Y21390
X16015Y21390
X15015Y21390
X14015Y21390
X13015Y21390
X11765Y21390
X11765Y19390
X13015Y18390
X14015Y18390
X15015Y18390
X16015Y18390
X17015Y18390
X18015Y18390
X19015Y18390
X20015Y18390
X21015Y18390
X22015Y18390
X23890Y19390
X25140Y18390
X26140Y18390
X27140Y18390
X28140Y18390
X29140Y18390
X30140Y18390
X31140Y18390
X32140Y18390
X33140Y18390
X34140Y18390
X36015Y19390
X37265Y18390
X38265Y18390
X39265Y18390
X40265Y18390
X41265Y18390
X42265Y18390
X43265Y18390
X44265Y18390
X45265Y18390
X46265Y18390
X48140Y19390
X49390Y18390
X50390Y18390
X51390Y18390
X52390Y18390
X53390Y18390
X54390Y18390
X55390Y18390
X56390Y18390
X57390Y18390
X58390Y18390
X62390Y8140
X62390Y7140
X30890Y8765
X29890Y8765
X28890Y8765
X27890Y8765
X26890Y8765
X25890Y8765
X24890Y8765
X23515Y9765
X23515Y11765
X24890Y11765
X25890Y11765
X26890Y11765
X27890Y11765
X28890Y11765
X29890Y11765
X30890Y11765
X31140Y29390
X30140Y29390
X29140Y29390
X28140Y29390
X27140Y29390
X26140Y29390
X25140Y29390
X23890Y30390
X22015Y29390
X21015Y29390
X20015Y29390
X19015Y29390
X18015Y29390
X17015Y29390
X16015Y29390
X15015Y29390
X14015Y29390
X13015Y29390
X32140Y29390
X33140Y29390
X34140Y29390
X36015Y30390
X37265Y29390
X38265Y29390
X39265Y29390
X40265Y29390
X41265Y29390
X42265Y29390
X43265Y29390
X44265Y29390
X45265Y29390
X46265Y29390
T03
X59265Y40140
X60265Y40140
X60265Y41140
X59265Y41140
X59265Y17140
X60265Y17140
X60265Y16140
X59265Y16140
X59265Y15140
X60265Y15140
X60265Y14140
X59265Y14140
X59265Y13140
X60265Y13140
X60265Y12140
X59265Y12140
X59265Y11140
X60265Y11140
X60265Y10140
X59265Y10140
X59265Y7140
X60265Y7140
X60265Y6140
X59265Y6140
X53890Y6140
X53890Y7140
X52890Y7140
X51890Y7140
X51890Y6140
X52890Y6140
X50890Y6140
X49890Y6140
X49890Y7140
X50890Y7140
X48890Y7140
X47890Y7140
X46890Y7140
X46890Y6140
X47890Y6140
X48890Y6140
X45890Y6140
X44890Y6140
X44890Y7140
X45890Y7140
X43890Y7140
X42890Y7140
X41890Y7140
X41890Y6140
X42890Y6140
X43890Y6140
X40890Y6140
X39890Y6140
X39890Y7140
X40890Y7140
X38890Y7140
X37890Y7140
X36890Y7140
X36890Y6140
X37890Y6140
X38890Y6140
X33890Y6140
X32890Y6140
X32890Y7140
X33890Y7140
X31890Y7140
X30890Y7140
X29890Y7140
X29890Y6140
X30890Y6140
X31890Y6140
X28890Y6140
X27890Y6140
X27890Y7140
X28890Y7140
X26890Y7140
X25890Y7140
X24890Y7140
X24890Y6140
X25890Y6140
X26890Y6140
X23890Y6140
X22890Y6140
X22890Y7140
X23890Y7140
X21890Y7140
X20890Y7140
X19890Y7140
X19890Y6140
X20890Y6140
X21890Y6140
X18890Y6140
X17890Y6140
X17890Y7140
X18890Y7140
X16890Y7140
X15890Y7140
X15890Y6140
X16890Y6140
X14890Y6140
X13890Y6140
X12890Y6140
X12890Y7140
X13890Y7140
X14890Y7140
X11890Y7140
X10890Y7140
X10890Y6140
X11890Y6140
X8390Y6140
X7390Y6140
X7390Y7140
X8390Y7140
X6765Y30140
X5765Y30140
X5765Y31140
X6765Y31140
X6765Y32140
X5765Y32140
X5765Y33140
X6765Y33140
X6765Y34140
X5765Y34140
X5765Y35140
X6765Y35140
X6765Y36140
X5765Y36140
X5765Y37140
X6765Y37140
X7390Y40140
X8390Y40140
X8390Y41140
X7390Y41140
T04
X5265Y6140
X5265Y41140
X65765Y41140
X65765Y6140
M30
