G75*
%MOIN*%
%OFA0B0*%
%FSLAX24Y24*%
%IPPOS*%
%LPD*%
%AMOC8*
5,1,8,0,0,1.08239X$1,22.5*
%
%ADD10C,0.0100*%
%ADD11C,0.0120*%
%ADD12R,0.0200X0.0800*%
%ADD13C,0.0110*%
%ADD14R,0.0150X0.0200*%
D10*
X006890Y005890D02*
X007140Y005640D01*
X007640Y005640D01*
X007890Y005890D01*
X007890Y007390D01*
X008140Y007640D01*
X008640Y007640D01*
X008890Y007390D01*
X008890Y005890D01*
X008640Y005640D01*
X008140Y005640D01*
X007890Y005890D01*
X006890Y005890D02*
X006890Y007390D01*
X007140Y007640D01*
X007640Y007640D01*
X007890Y007390D01*
X007861Y007940D02*
X008061Y007940D01*
X008128Y008007D01*
X008128Y008274D01*
X008061Y008340D01*
X007861Y008340D01*
X007861Y007940D01*
X007667Y007940D02*
X007667Y008340D01*
X007400Y008340D02*
X007667Y007940D01*
X007400Y007940D02*
X007400Y008340D01*
X007207Y008274D02*
X007140Y008340D01*
X007007Y008340D01*
X006940Y008274D01*
X006940Y008007D01*
X007007Y007940D01*
X007140Y007940D01*
X007207Y008007D01*
X007207Y008140D01*
X007073Y008140D01*
X008321Y008274D02*
X008388Y008340D01*
X008521Y008340D01*
X008588Y008274D01*
X008588Y008207D01*
X008321Y007940D01*
X008588Y007940D01*
X010390Y007390D02*
X010390Y005890D01*
X010640Y005640D01*
X011140Y005640D01*
X011390Y005890D01*
X011390Y007390D01*
X011140Y007640D01*
X010640Y007640D01*
X010390Y007390D01*
X011390Y007390D02*
X011640Y007640D01*
X012140Y007640D01*
X012390Y007390D01*
X012390Y005890D01*
X012140Y005640D01*
X011640Y005640D01*
X011390Y005890D01*
X012390Y005890D02*
X012640Y005640D01*
X013140Y005640D01*
X013390Y005890D01*
X013390Y007390D01*
X013140Y007640D01*
X012640Y007640D01*
X012390Y007390D01*
X013390Y007390D02*
X013640Y007640D01*
X014140Y007640D01*
X014390Y007390D01*
X014390Y005890D01*
X014140Y005640D01*
X013640Y005640D01*
X013390Y005890D01*
X014390Y005890D02*
X014640Y005640D01*
X015140Y005640D01*
X015390Y005890D01*
X015390Y007390D01*
X015140Y007640D01*
X014640Y007640D01*
X014390Y007390D01*
X015390Y007390D02*
X015640Y007640D01*
X016140Y007640D01*
X016390Y007390D01*
X016390Y005890D01*
X016140Y005640D01*
X015640Y005640D01*
X015390Y005890D01*
X016390Y005890D02*
X016640Y005640D01*
X017140Y005640D01*
X017390Y005890D01*
X017390Y007390D01*
X017640Y007640D01*
X018140Y007640D01*
X018390Y007390D01*
X018390Y005890D01*
X018140Y005640D01*
X017640Y005640D01*
X017390Y005890D01*
X018390Y005890D02*
X018640Y005640D01*
X019140Y005640D01*
X019390Y005890D01*
X019390Y007390D01*
X019640Y007640D01*
X020140Y007640D01*
X020390Y007390D01*
X020390Y005890D01*
X020140Y005640D01*
X019640Y005640D01*
X019390Y005890D01*
X020390Y005890D02*
X020640Y005640D01*
X021140Y005640D01*
X021390Y005890D01*
X021390Y007390D01*
X021640Y007640D01*
X022140Y007640D01*
X022390Y007390D01*
X022390Y005890D01*
X022140Y005640D01*
X021640Y005640D01*
X021390Y005890D01*
X022390Y005890D02*
X022640Y005640D01*
X023140Y005640D01*
X023390Y005890D01*
X023390Y007390D01*
X023640Y007640D01*
X024140Y007640D01*
X024390Y007390D01*
X024390Y005890D01*
X024140Y005640D01*
X023640Y005640D01*
X023390Y005890D01*
X024390Y005890D02*
X024640Y005640D01*
X025140Y005640D01*
X025390Y005890D01*
X025390Y007390D01*
X025640Y007640D01*
X026140Y007640D01*
X026390Y007390D01*
X026390Y005890D01*
X026140Y005640D01*
X025640Y005640D01*
X025390Y005890D01*
X026390Y005890D02*
X026640Y005640D01*
X027140Y005640D01*
X027390Y005890D01*
X027390Y007390D01*
X027640Y007640D01*
X028140Y007640D01*
X028390Y007390D01*
X028390Y005890D01*
X028140Y005640D01*
X027640Y005640D01*
X027390Y005890D01*
X028390Y005890D02*
X028640Y005640D01*
X029140Y005640D01*
X029390Y005890D01*
X029390Y007390D01*
X029140Y007640D01*
X028640Y007640D01*
X028390Y007390D01*
X029390Y007390D02*
X029640Y007640D01*
X030140Y007640D01*
X030390Y007390D01*
X030390Y005890D01*
X030140Y005640D01*
X029640Y005640D01*
X029390Y005890D01*
X030390Y005890D02*
X030640Y005640D01*
X031140Y005640D01*
X031390Y005890D01*
X031390Y007390D01*
X031140Y007640D01*
X030640Y007640D01*
X030390Y007390D01*
X031390Y007390D02*
X031640Y007640D01*
X032140Y007640D01*
X032390Y007390D01*
X032390Y005890D01*
X032140Y005640D01*
X031640Y005640D01*
X031390Y005890D01*
X032390Y005890D02*
X032640Y005640D01*
X033140Y005640D01*
X033390Y005890D01*
X033390Y007390D01*
X033140Y007640D01*
X032640Y007640D01*
X032390Y007390D01*
X033390Y007390D02*
X033640Y007640D01*
X034140Y007640D01*
X034390Y007390D01*
X034390Y005890D01*
X034140Y005640D01*
X033640Y005640D01*
X033390Y005890D01*
X033326Y005340D02*
X033192Y005340D01*
X033259Y005340D02*
X033259Y005007D01*
X033192Y004940D01*
X033126Y004940D01*
X033059Y005007D01*
X033519Y005073D02*
X033719Y005073D01*
X033786Y005140D01*
X033786Y005274D01*
X033719Y005340D01*
X033519Y005340D01*
X033519Y004940D01*
X033980Y005007D02*
X034046Y004940D01*
X034180Y004940D01*
X034246Y005007D01*
X034246Y005274D01*
X034180Y005340D01*
X034046Y005340D01*
X033980Y005274D01*
X033980Y005207D01*
X034046Y005140D01*
X034246Y005140D01*
X036390Y005890D02*
X036640Y005640D01*
X037140Y005640D01*
X037390Y005890D01*
X037390Y007390D01*
X037640Y007640D01*
X038140Y007640D01*
X038390Y007390D01*
X038390Y005890D01*
X038140Y005640D01*
X037640Y005640D01*
X037390Y005890D01*
X036390Y005890D02*
X036390Y007390D01*
X036640Y007640D01*
X037140Y007640D01*
X037390Y007390D01*
X038390Y007390D02*
X038640Y007640D01*
X039140Y007640D01*
X039390Y007390D01*
X039390Y005890D01*
X039140Y005640D01*
X038640Y005640D01*
X038390Y005890D01*
X039390Y005890D02*
X039640Y005640D01*
X040140Y005640D01*
X040390Y005890D01*
X040390Y007390D01*
X040640Y007640D01*
X041140Y007640D01*
X041390Y007390D01*
X041390Y005890D01*
X041140Y005640D01*
X040640Y005640D01*
X040390Y005890D01*
X041390Y005890D02*
X041640Y005640D01*
X042140Y005640D01*
X042390Y005890D01*
X042390Y007390D01*
X042640Y007640D01*
X043140Y007640D01*
X043390Y007390D01*
X043390Y005890D01*
X043140Y005640D01*
X042640Y005640D01*
X042390Y005890D01*
X043390Y005890D02*
X043640Y005640D01*
X044140Y005640D01*
X044390Y005890D01*
X044390Y007390D01*
X044640Y007640D01*
X045140Y007640D01*
X045390Y007390D01*
X045390Y005890D01*
X045140Y005640D01*
X044640Y005640D01*
X044390Y005890D01*
X045390Y005890D02*
X045640Y005640D01*
X046140Y005640D01*
X046390Y005890D01*
X046390Y007390D01*
X046640Y007640D01*
X047140Y007640D01*
X047390Y007390D01*
X047390Y005890D01*
X047140Y005640D01*
X046640Y005640D01*
X046390Y005890D01*
X047390Y005890D02*
X047640Y005640D01*
X048140Y005640D01*
X048390Y005890D01*
X048390Y007390D01*
X048140Y007640D01*
X047640Y007640D01*
X047390Y007390D01*
X046390Y007390D02*
X046140Y007640D01*
X045640Y007640D01*
X045390Y007390D01*
X044390Y007390D02*
X044140Y007640D01*
X043640Y007640D01*
X043390Y007390D01*
X042390Y007390D02*
X042140Y007640D01*
X041640Y007640D01*
X041390Y007390D01*
X040390Y007390D02*
X040140Y007640D01*
X039640Y007640D01*
X039390Y007390D01*
X039140Y011490D02*
X038990Y011490D01*
X038973Y011492D01*
X038956Y011496D01*
X038940Y011503D01*
X038926Y011513D01*
X038913Y011526D01*
X038903Y011540D01*
X038896Y011556D01*
X038892Y011573D01*
X038890Y011590D01*
X038890Y012190D01*
X038892Y012207D01*
X038896Y012224D01*
X038903Y012240D01*
X038913Y012254D01*
X038926Y012267D01*
X038940Y012277D01*
X038956Y012284D01*
X038973Y012288D01*
X038990Y012290D01*
X039140Y012290D01*
X039190Y012240D01*
X040590Y012240D01*
X040640Y012290D01*
X040790Y012290D01*
X040807Y012288D01*
X040824Y012284D01*
X040840Y012277D01*
X040854Y012267D01*
X040867Y012254D01*
X040877Y012240D01*
X040884Y012224D01*
X040888Y012207D01*
X040890Y012190D01*
X040890Y011590D01*
X040888Y011573D01*
X040884Y011556D01*
X040877Y011540D01*
X040867Y011526D01*
X040854Y011513D01*
X040840Y011503D01*
X040824Y011496D01*
X040807Y011492D01*
X040790Y011490D01*
X040640Y011490D01*
X040590Y011540D01*
X039190Y011540D01*
X039140Y011490D01*
X039300Y011750D02*
X039300Y011798D01*
X039493Y011992D01*
X039493Y012040D01*
X039300Y012040D01*
X039659Y011992D02*
X039707Y012040D01*
X039804Y012040D01*
X039853Y011992D01*
X039659Y011798D01*
X039707Y011750D01*
X039804Y011750D01*
X039853Y011798D01*
X039853Y011992D01*
X039659Y011992D02*
X039659Y011798D01*
X039140Y012490D02*
X038990Y012490D01*
X038973Y012492D01*
X038956Y012496D01*
X038940Y012503D01*
X038926Y012513D01*
X038913Y012526D01*
X038903Y012540D01*
X038896Y012556D01*
X038892Y012573D01*
X038890Y012590D01*
X038890Y013190D01*
X038892Y013207D01*
X038896Y013224D01*
X038903Y013240D01*
X038913Y013254D01*
X038926Y013267D01*
X038940Y013277D01*
X038956Y013284D01*
X038973Y013288D01*
X038990Y013290D01*
X039140Y013290D01*
X039190Y013240D01*
X040590Y013240D01*
X040640Y013290D01*
X040790Y013290D01*
X040807Y013288D01*
X040824Y013284D01*
X040840Y013277D01*
X040854Y013267D01*
X040867Y013254D01*
X040877Y013240D01*
X040884Y013224D01*
X040888Y013207D01*
X040890Y013190D01*
X040890Y012590D01*
X040888Y012573D01*
X040884Y012556D01*
X040877Y012540D01*
X040867Y012526D01*
X040854Y012513D01*
X040840Y012503D01*
X040824Y012496D01*
X040807Y012492D01*
X040790Y012490D01*
X040640Y012490D01*
X040590Y012540D01*
X039190Y012540D01*
X039140Y012490D01*
X039140Y013490D02*
X038990Y013490D01*
X038973Y013492D01*
X038956Y013496D01*
X038940Y013503D01*
X038926Y013513D01*
X038913Y013526D01*
X038903Y013540D01*
X038896Y013556D01*
X038892Y013573D01*
X038890Y013590D01*
X038890Y014190D01*
X038892Y014207D01*
X038896Y014224D01*
X038903Y014240D01*
X038913Y014254D01*
X038926Y014267D01*
X038940Y014277D01*
X038956Y014284D01*
X038973Y014288D01*
X038990Y014290D01*
X039140Y014290D01*
X039190Y014240D01*
X040590Y014240D01*
X040640Y014290D01*
X040790Y014290D01*
X040807Y014288D01*
X040824Y014284D01*
X040840Y014277D01*
X040854Y014267D01*
X040867Y014254D01*
X040877Y014240D01*
X040884Y014224D01*
X040888Y014207D01*
X040890Y014190D01*
X040890Y013590D01*
X040888Y013573D01*
X040884Y013556D01*
X040877Y013540D01*
X040867Y013526D01*
X040854Y013513D01*
X040840Y013503D01*
X040824Y013496D01*
X040807Y013492D01*
X040790Y013490D01*
X040640Y013490D01*
X040590Y013540D01*
X039190Y013540D01*
X039140Y013490D01*
X039140Y014490D02*
X038990Y014490D01*
X038973Y014492D01*
X038956Y014496D01*
X038940Y014503D01*
X038926Y014513D01*
X038913Y014526D01*
X038903Y014540D01*
X038896Y014556D01*
X038892Y014573D01*
X038890Y014590D01*
X038890Y015190D01*
X038892Y015207D01*
X038896Y015224D01*
X038903Y015240D01*
X038913Y015254D01*
X038926Y015267D01*
X038940Y015277D01*
X038956Y015284D01*
X038973Y015288D01*
X038990Y015290D01*
X039140Y015290D01*
X039190Y015240D01*
X040590Y015240D01*
X040640Y015290D01*
X040790Y015290D01*
X040807Y015288D01*
X040824Y015284D01*
X040840Y015277D01*
X040854Y015267D01*
X040867Y015254D01*
X040877Y015240D01*
X040884Y015224D01*
X040888Y015207D01*
X040890Y015190D01*
X040890Y014590D01*
X040888Y014573D01*
X040884Y014556D01*
X040877Y014540D01*
X040867Y014526D01*
X040854Y014513D01*
X040840Y014503D01*
X040824Y014496D01*
X040807Y014492D01*
X040790Y014490D01*
X040640Y014490D01*
X040590Y014540D01*
X039190Y014540D01*
X039140Y014490D01*
X039140Y015490D02*
X038990Y015490D01*
X038973Y015492D01*
X038956Y015496D01*
X038940Y015503D01*
X038926Y015513D01*
X038913Y015526D01*
X038903Y015540D01*
X038896Y015556D01*
X038892Y015573D01*
X038890Y015590D01*
X038890Y016190D01*
X038892Y016207D01*
X038896Y016224D01*
X038903Y016240D01*
X038913Y016254D01*
X038926Y016267D01*
X038940Y016277D01*
X038956Y016284D01*
X038973Y016288D01*
X038990Y016290D01*
X039140Y016290D01*
X039190Y016240D01*
X040590Y016240D01*
X040640Y016290D01*
X040790Y016290D01*
X040807Y016288D01*
X040824Y016284D01*
X040840Y016277D01*
X040854Y016267D01*
X040867Y016254D01*
X040877Y016240D01*
X040884Y016224D01*
X040888Y016207D01*
X040890Y016190D01*
X040890Y015590D01*
X040888Y015573D01*
X040884Y015556D01*
X040877Y015540D01*
X040867Y015526D01*
X040854Y015513D01*
X040840Y015503D01*
X040824Y015496D01*
X040807Y015492D01*
X040790Y015490D01*
X040640Y015490D01*
X040590Y015540D01*
X039190Y015540D01*
X039140Y015490D01*
X039140Y016490D02*
X038990Y016490D01*
X038973Y016492D01*
X038956Y016496D01*
X038940Y016503D01*
X038926Y016513D01*
X038913Y016526D01*
X038903Y016540D01*
X038896Y016556D01*
X038892Y016573D01*
X038890Y016590D01*
X038890Y017190D01*
X038892Y017207D01*
X038896Y017224D01*
X038903Y017240D01*
X038913Y017254D01*
X038926Y017267D01*
X038940Y017277D01*
X038956Y017284D01*
X038973Y017288D01*
X038990Y017290D01*
X039140Y017290D01*
X039190Y017240D01*
X040590Y017240D01*
X040640Y017290D01*
X040790Y017290D01*
X040807Y017288D01*
X040824Y017284D01*
X040840Y017277D01*
X040854Y017267D01*
X040867Y017254D01*
X040877Y017240D01*
X040884Y017224D01*
X040888Y017207D01*
X040890Y017190D01*
X040890Y016590D01*
X040888Y016573D01*
X040884Y016556D01*
X040877Y016540D01*
X040867Y016526D01*
X040854Y016513D01*
X040840Y016503D01*
X040824Y016496D01*
X040807Y016492D01*
X040790Y016490D01*
X040640Y016490D01*
X040590Y016540D01*
X039190Y016540D01*
X039140Y016490D01*
X039140Y017490D02*
X038990Y017490D01*
X038973Y017492D01*
X038956Y017496D01*
X038940Y017503D01*
X038926Y017513D01*
X038913Y017526D01*
X038903Y017540D01*
X038896Y017556D01*
X038892Y017573D01*
X038890Y017590D01*
X038890Y018190D01*
X038892Y018207D01*
X038896Y018224D01*
X038903Y018240D01*
X038913Y018254D01*
X038926Y018267D01*
X038940Y018277D01*
X038956Y018284D01*
X038973Y018288D01*
X038990Y018290D01*
X039140Y018290D01*
X039190Y018240D01*
X040590Y018240D01*
X040640Y018290D01*
X040790Y018290D01*
X040807Y018288D01*
X040824Y018284D01*
X040840Y018277D01*
X040854Y018267D01*
X040867Y018254D01*
X040877Y018240D01*
X040884Y018224D01*
X040888Y018207D01*
X040890Y018190D01*
X040890Y017590D01*
X040888Y017573D01*
X040884Y017556D01*
X040877Y017540D01*
X040867Y017526D01*
X040854Y017513D01*
X040840Y017503D01*
X040824Y017496D01*
X040807Y017492D01*
X040790Y017490D01*
X040640Y017490D01*
X040590Y017540D01*
X039190Y017540D01*
X039140Y017490D01*
X039140Y018490D02*
X038990Y018490D01*
X038973Y018492D01*
X038956Y018496D01*
X038940Y018503D01*
X038926Y018513D01*
X038913Y018526D01*
X038903Y018540D01*
X038896Y018556D01*
X038892Y018573D01*
X038890Y018590D01*
X038890Y019190D01*
X038892Y019207D01*
X038896Y019224D01*
X038903Y019240D01*
X038913Y019254D01*
X038926Y019267D01*
X038940Y019277D01*
X038956Y019284D01*
X038973Y019288D01*
X038990Y019290D01*
X039140Y019290D01*
X039190Y019240D01*
X040590Y019240D01*
X040640Y019290D01*
X040790Y019290D01*
X040807Y019288D01*
X040824Y019284D01*
X040840Y019277D01*
X040854Y019267D01*
X040867Y019254D01*
X040877Y019240D01*
X040884Y019224D01*
X040888Y019207D01*
X040890Y019190D01*
X040890Y018590D01*
X040888Y018573D01*
X040884Y018556D01*
X040877Y018540D01*
X040867Y018526D01*
X040854Y018513D01*
X040840Y018503D01*
X040824Y018496D01*
X040807Y018492D01*
X040790Y018490D01*
X040640Y018490D01*
X040590Y018540D01*
X039190Y018540D01*
X039140Y018490D01*
X039140Y019490D02*
X038990Y019490D01*
X038973Y019492D01*
X038956Y019496D01*
X038940Y019503D01*
X038926Y019513D01*
X038913Y019526D01*
X038903Y019540D01*
X038896Y019556D01*
X038892Y019573D01*
X038890Y019590D01*
X038890Y020190D01*
X038892Y020207D01*
X038896Y020224D01*
X038903Y020240D01*
X038913Y020254D01*
X038926Y020267D01*
X038940Y020277D01*
X038956Y020284D01*
X038973Y020288D01*
X038990Y020290D01*
X039140Y020290D01*
X039190Y020240D01*
X040590Y020240D01*
X040640Y020290D01*
X040790Y020290D01*
X040807Y020288D01*
X040824Y020284D01*
X040840Y020277D01*
X040854Y020267D01*
X040867Y020254D01*
X040877Y020240D01*
X040884Y020224D01*
X040888Y020207D01*
X040890Y020190D01*
X040890Y019590D01*
X040888Y019573D01*
X040884Y019556D01*
X040877Y019540D01*
X040867Y019526D01*
X040854Y019513D01*
X040840Y019503D01*
X040824Y019496D01*
X040807Y019492D01*
X040790Y019490D01*
X040640Y019490D01*
X040590Y019540D01*
X039190Y019540D01*
X039140Y019490D01*
X039140Y020490D02*
X038990Y020490D01*
X038973Y020492D01*
X038956Y020496D01*
X038940Y020503D01*
X038926Y020513D01*
X038913Y020526D01*
X038903Y020540D01*
X038896Y020556D01*
X038892Y020573D01*
X038890Y020590D01*
X038890Y021190D01*
X038892Y021207D01*
X038896Y021224D01*
X038903Y021240D01*
X038913Y021254D01*
X038926Y021267D01*
X038940Y021277D01*
X038956Y021284D01*
X038973Y021288D01*
X038990Y021290D01*
X039140Y021290D01*
X039190Y021240D01*
X040590Y021240D01*
X040640Y021290D01*
X040790Y021290D01*
X040807Y021288D01*
X040824Y021284D01*
X040840Y021277D01*
X040854Y021267D01*
X040867Y021254D01*
X040877Y021240D01*
X040884Y021224D01*
X040888Y021207D01*
X040890Y021190D01*
X040890Y020590D01*
X040888Y020573D01*
X040884Y020556D01*
X040877Y020540D01*
X040867Y020526D01*
X040854Y020513D01*
X040840Y020503D01*
X040824Y020496D01*
X040807Y020492D01*
X040790Y020490D01*
X040640Y020490D01*
X040590Y020540D01*
X039190Y020540D01*
X039140Y020490D01*
X039140Y021490D02*
X038990Y021490D01*
X038973Y021492D01*
X038956Y021496D01*
X038940Y021503D01*
X038926Y021513D01*
X038913Y021526D01*
X038903Y021540D01*
X038896Y021556D01*
X038892Y021573D01*
X038890Y021590D01*
X038890Y022190D01*
X038892Y022207D01*
X038896Y022224D01*
X038903Y022240D01*
X038913Y022254D01*
X038926Y022267D01*
X038940Y022277D01*
X038956Y022284D01*
X038973Y022288D01*
X038990Y022290D01*
X039140Y022290D01*
X039190Y022240D01*
X040590Y022240D01*
X040640Y022290D01*
X040790Y022290D01*
X040807Y022288D01*
X040824Y022284D01*
X040840Y022277D01*
X040854Y022267D01*
X040867Y022254D01*
X040877Y022240D01*
X040884Y022224D01*
X040888Y022207D01*
X040890Y022190D01*
X040890Y021590D01*
X040888Y021573D01*
X040884Y021556D01*
X040877Y021540D01*
X040867Y021526D01*
X040854Y021513D01*
X040840Y021503D01*
X040824Y021496D01*
X040807Y021492D01*
X040790Y021490D01*
X040640Y021490D01*
X040590Y021540D01*
X039190Y021540D01*
X039140Y021490D01*
X036990Y023340D02*
X036990Y011440D01*
X034890Y011440D01*
X034888Y011484D01*
X034882Y011527D01*
X034873Y011569D01*
X034860Y011611D01*
X034843Y011651D01*
X034823Y011690D01*
X034800Y011727D01*
X034773Y011761D01*
X034744Y011794D01*
X034711Y011823D01*
X034677Y011850D01*
X034640Y011873D01*
X034601Y011893D01*
X034561Y011910D01*
X034519Y011923D01*
X034477Y011932D01*
X034434Y011938D01*
X034390Y011940D01*
X034346Y011938D01*
X034303Y011932D01*
X034261Y011923D01*
X034219Y011910D01*
X034179Y011893D01*
X034140Y011873D01*
X034103Y011850D01*
X034069Y011823D01*
X034036Y011794D01*
X034007Y011761D01*
X033980Y011727D01*
X033957Y011690D01*
X033937Y011651D01*
X033920Y011611D01*
X033907Y011569D01*
X033898Y011527D01*
X033892Y011484D01*
X033890Y011440D01*
X031790Y011440D01*
X031790Y023340D01*
X036990Y023340D01*
X037740Y024640D02*
X043040Y024640D01*
X043040Y040640D01*
X040790Y040640D01*
X040788Y040601D01*
X040782Y040562D01*
X040773Y040524D01*
X040760Y040487D01*
X040743Y040451D01*
X040723Y040418D01*
X040699Y040386D01*
X040673Y040357D01*
X040644Y040331D01*
X040612Y040307D01*
X040579Y040287D01*
X040543Y040270D01*
X040506Y040257D01*
X040468Y040248D01*
X040429Y040242D01*
X040390Y040240D01*
X040351Y040242D01*
X040312Y040248D01*
X040274Y040257D01*
X040237Y040270D01*
X040201Y040287D01*
X040168Y040307D01*
X040136Y040331D01*
X040107Y040357D01*
X040081Y040386D01*
X040057Y040418D01*
X040037Y040451D01*
X040020Y040487D01*
X040007Y040524D01*
X039998Y040562D01*
X039992Y040601D01*
X039990Y040640D01*
X037740Y040640D01*
X037740Y024640D01*
X030040Y024640D02*
X024740Y024640D01*
X024740Y040640D01*
X026990Y040640D01*
X026992Y040601D01*
X026998Y040562D01*
X027007Y040524D01*
X027020Y040487D01*
X027037Y040451D01*
X027057Y040418D01*
X027081Y040386D01*
X027107Y040357D01*
X027136Y040331D01*
X027168Y040307D01*
X027201Y040287D01*
X027237Y040270D01*
X027274Y040257D01*
X027312Y040248D01*
X027351Y040242D01*
X027390Y040240D01*
X027429Y040242D01*
X027468Y040248D01*
X027506Y040257D01*
X027543Y040270D01*
X027579Y040287D01*
X027612Y040307D01*
X027644Y040331D01*
X027673Y040357D01*
X027699Y040386D01*
X027723Y040418D01*
X027743Y040451D01*
X027760Y040487D01*
X027773Y040524D01*
X027782Y040562D01*
X027788Y040601D01*
X027790Y040640D01*
X030040Y040640D01*
X030040Y024640D01*
X029790Y023290D02*
X029640Y023290D01*
X029590Y023240D01*
X028190Y023240D01*
X028140Y023290D01*
X027990Y023290D01*
X027973Y023288D01*
X027956Y023284D01*
X027940Y023277D01*
X027926Y023267D01*
X027913Y023254D01*
X027903Y023240D01*
X027896Y023224D01*
X027892Y023207D01*
X027890Y023190D01*
X027890Y022590D01*
X027892Y022573D01*
X027896Y022556D01*
X027903Y022540D01*
X027913Y022526D01*
X027926Y022513D01*
X027940Y022503D01*
X027956Y022496D01*
X027973Y022492D01*
X027990Y022490D01*
X028140Y022490D01*
X028190Y022540D01*
X029590Y022540D01*
X029640Y022490D01*
X029790Y022490D01*
X029807Y022492D01*
X029824Y022496D01*
X029840Y022503D01*
X029854Y022513D01*
X029867Y022526D01*
X029877Y022540D01*
X029884Y022556D01*
X029888Y022573D01*
X029890Y022590D01*
X029890Y023190D01*
X029888Y023207D01*
X029884Y023224D01*
X029877Y023240D01*
X029867Y023254D01*
X029854Y023267D01*
X029840Y023277D01*
X029824Y023284D01*
X029807Y023288D01*
X029790Y023290D01*
X029790Y022290D02*
X029640Y022290D01*
X029590Y022240D01*
X028190Y022240D01*
X028140Y022290D01*
X027990Y022290D01*
X027973Y022288D01*
X027956Y022284D01*
X027940Y022277D01*
X027926Y022267D01*
X027913Y022254D01*
X027903Y022240D01*
X027896Y022224D01*
X027892Y022207D01*
X027890Y022190D01*
X027890Y021590D01*
X027892Y021573D01*
X027896Y021556D01*
X027903Y021540D01*
X027913Y021526D01*
X027926Y021513D01*
X027940Y021503D01*
X027956Y021496D01*
X027973Y021492D01*
X027990Y021490D01*
X028140Y021490D01*
X028190Y021540D01*
X029590Y021540D01*
X029640Y021490D01*
X029790Y021490D01*
X029807Y021492D01*
X029824Y021496D01*
X029840Y021503D01*
X029854Y021513D01*
X029867Y021526D01*
X029877Y021540D01*
X029884Y021556D01*
X029888Y021573D01*
X029890Y021590D01*
X029890Y022190D01*
X029888Y022207D01*
X029884Y022224D01*
X029877Y022240D01*
X029867Y022254D01*
X029854Y022267D01*
X029840Y022277D01*
X029824Y022284D01*
X029807Y022288D01*
X029790Y022290D01*
X029790Y021290D02*
X029640Y021290D01*
X029590Y021240D01*
X028190Y021240D01*
X028140Y021290D01*
X027990Y021290D01*
X027973Y021288D01*
X027956Y021284D01*
X027940Y021277D01*
X027926Y021267D01*
X027913Y021254D01*
X027903Y021240D01*
X027896Y021224D01*
X027892Y021207D01*
X027890Y021190D01*
X027890Y020590D01*
X027892Y020573D01*
X027896Y020556D01*
X027903Y020540D01*
X027913Y020526D01*
X027926Y020513D01*
X027940Y020503D01*
X027956Y020496D01*
X027973Y020492D01*
X027990Y020490D01*
X028140Y020490D01*
X028190Y020540D01*
X029590Y020540D01*
X029640Y020490D01*
X029790Y020490D01*
X029807Y020492D01*
X029824Y020496D01*
X029840Y020503D01*
X029854Y020513D01*
X029867Y020526D01*
X029877Y020540D01*
X029884Y020556D01*
X029888Y020573D01*
X029890Y020590D01*
X029890Y021190D01*
X029888Y021207D01*
X029884Y021224D01*
X029877Y021240D01*
X029867Y021254D01*
X029854Y021267D01*
X029840Y021277D01*
X029824Y021284D01*
X029807Y021288D01*
X029790Y021290D01*
X029790Y020290D02*
X029640Y020290D01*
X029590Y020240D01*
X028190Y020240D01*
X028140Y020290D01*
X027990Y020290D01*
X027973Y020288D01*
X027956Y020284D01*
X027940Y020277D01*
X027926Y020267D01*
X027913Y020254D01*
X027903Y020240D01*
X027896Y020224D01*
X027892Y020207D01*
X027890Y020190D01*
X027890Y019590D01*
X027892Y019573D01*
X027896Y019556D01*
X027903Y019540D01*
X027913Y019526D01*
X027926Y019513D01*
X027940Y019503D01*
X027956Y019496D01*
X027973Y019492D01*
X027990Y019490D01*
X028140Y019490D01*
X028190Y019540D01*
X029590Y019540D01*
X029640Y019490D01*
X029790Y019490D01*
X029807Y019492D01*
X029824Y019496D01*
X029840Y019503D01*
X029854Y019513D01*
X029867Y019526D01*
X029877Y019540D01*
X029884Y019556D01*
X029888Y019573D01*
X029890Y019590D01*
X029890Y020190D01*
X029888Y020207D01*
X029884Y020224D01*
X029877Y020240D01*
X029867Y020254D01*
X029854Y020267D01*
X029840Y020277D01*
X029824Y020284D01*
X029807Y020288D01*
X029790Y020290D01*
X029790Y019290D02*
X029640Y019290D01*
X029590Y019240D01*
X028190Y019240D01*
X028140Y019290D01*
X027990Y019290D01*
X027973Y019288D01*
X027956Y019284D01*
X027940Y019277D01*
X027926Y019267D01*
X027913Y019254D01*
X027903Y019240D01*
X027896Y019224D01*
X027892Y019207D01*
X027890Y019190D01*
X027890Y018590D01*
X027892Y018573D01*
X027896Y018556D01*
X027903Y018540D01*
X027913Y018526D01*
X027926Y018513D01*
X027940Y018503D01*
X027956Y018496D01*
X027973Y018492D01*
X027990Y018490D01*
X028140Y018490D01*
X028190Y018540D01*
X029590Y018540D01*
X029640Y018490D01*
X029790Y018490D01*
X029807Y018492D01*
X029824Y018496D01*
X029840Y018503D01*
X029854Y018513D01*
X029867Y018526D01*
X029877Y018540D01*
X029884Y018556D01*
X029888Y018573D01*
X029890Y018590D01*
X029890Y019190D01*
X029888Y019207D01*
X029884Y019224D01*
X029877Y019240D01*
X029867Y019254D01*
X029854Y019267D01*
X029840Y019277D01*
X029824Y019284D01*
X029807Y019288D01*
X029790Y019290D01*
X023790Y018390D02*
X021490Y018390D01*
X021490Y010390D01*
X022240Y010390D01*
X022242Y010429D01*
X022248Y010468D01*
X022257Y010506D01*
X022270Y010543D01*
X022287Y010579D01*
X022307Y010612D01*
X022331Y010644D01*
X022357Y010673D01*
X022386Y010699D01*
X022418Y010723D01*
X022451Y010743D01*
X022487Y010760D01*
X022524Y010773D01*
X022562Y010782D01*
X022601Y010788D01*
X022640Y010790D01*
X022679Y010788D01*
X022718Y010782D01*
X022756Y010773D01*
X022793Y010760D01*
X022829Y010743D01*
X022862Y010723D01*
X022894Y010699D01*
X022923Y010673D01*
X022949Y010644D01*
X022973Y010612D01*
X022993Y010579D01*
X023010Y010543D01*
X023023Y010506D01*
X023032Y010468D01*
X023038Y010429D01*
X023040Y010390D01*
X023790Y010390D01*
X023790Y018390D01*
X022840Y014980D02*
X022440Y014980D01*
X022440Y014713D02*
X022840Y014980D01*
X022840Y014713D02*
X022440Y014713D01*
X022506Y014519D02*
X022440Y014453D01*
X022440Y014319D01*
X022506Y014252D01*
X022573Y014252D01*
X022640Y014319D01*
X022640Y014519D01*
X022773Y014519D02*
X022506Y014519D01*
X022773Y014519D02*
X022840Y014453D01*
X022840Y014319D01*
X022773Y014252D01*
X022773Y014059D02*
X022840Y013992D01*
X022840Y013859D01*
X022773Y013792D01*
X022640Y013925D02*
X022640Y013992D01*
X022707Y014059D01*
X022773Y014059D01*
X022640Y013992D02*
X022573Y014059D01*
X022506Y014059D01*
X022440Y013992D01*
X022440Y013859D01*
X022506Y013792D01*
X022440Y013465D02*
X022840Y013465D01*
X022840Y013332D02*
X022840Y013598D01*
X022573Y013332D02*
X022440Y013465D01*
X022506Y013138D02*
X022440Y013071D01*
X022440Y012938D01*
X022506Y012871D01*
X022573Y012871D01*
X022640Y012938D01*
X022640Y013071D01*
X022707Y013138D01*
X022773Y013138D01*
X022840Y013071D01*
X022840Y012938D01*
X022773Y012871D01*
X022840Y012678D02*
X022840Y012411D01*
X022440Y012411D01*
X022440Y012151D02*
X022640Y011950D01*
X022640Y012217D01*
X022840Y012151D02*
X022440Y012151D01*
X022440Y011757D02*
X022506Y011757D01*
X022773Y011490D01*
X022840Y011490D01*
X022440Y011490D02*
X022440Y011757D01*
X022790Y010090D02*
X021490Y010090D01*
X021464Y010088D01*
X021438Y010083D01*
X021413Y010075D01*
X021390Y010063D01*
X021368Y010049D01*
X021349Y010031D01*
X021331Y010012D01*
X021317Y009990D01*
X021305Y009967D01*
X021297Y009942D01*
X021292Y009916D01*
X021290Y009890D01*
X021640Y009640D02*
X022020Y009640D01*
X022270Y009640D02*
X022640Y009640D01*
X022990Y009390D02*
X022988Y009364D01*
X022983Y009338D01*
X022975Y009313D01*
X022963Y009290D01*
X022949Y009268D01*
X022931Y009249D01*
X022912Y009231D01*
X022890Y009217D01*
X022867Y009205D01*
X022842Y009197D01*
X022816Y009192D01*
X022790Y009190D01*
X021490Y009190D01*
X021464Y009192D01*
X021438Y009197D01*
X021413Y009205D01*
X021390Y009217D01*
X021368Y009231D01*
X021349Y009249D01*
X021331Y009268D01*
X021317Y009290D01*
X021305Y009313D01*
X021297Y009338D01*
X021292Y009364D01*
X021290Y009390D01*
X022790Y010090D02*
X022816Y010088D01*
X022842Y010083D01*
X022867Y010075D01*
X022890Y010063D01*
X022912Y010049D01*
X022931Y010031D01*
X022949Y010012D01*
X022963Y009990D01*
X022975Y009967D01*
X022983Y009942D01*
X022988Y009916D01*
X022990Y009890D01*
X023612Y010065D02*
X023746Y010065D01*
X023679Y010065D02*
X023679Y009665D01*
X023612Y009665D02*
X023746Y009665D01*
X023919Y009732D02*
X023986Y009665D01*
X024119Y009665D01*
X024186Y009732D01*
X024380Y009665D02*
X024646Y009932D01*
X024646Y009999D01*
X024580Y010065D01*
X024446Y010065D01*
X024380Y009999D01*
X024186Y009999D02*
X024119Y010065D01*
X023986Y010065D01*
X023919Y009999D01*
X023919Y009732D01*
X024380Y009665D02*
X024646Y009665D01*
X024640Y007640D02*
X025140Y007640D01*
X025390Y007390D01*
X024640Y007640D02*
X024390Y007390D01*
X023390Y007390D02*
X023140Y007640D01*
X022640Y007640D01*
X022390Y007390D01*
X021390Y007390D02*
X021140Y007640D01*
X020640Y007640D01*
X020390Y007390D01*
X019390Y007390D02*
X019140Y007640D01*
X018640Y007640D01*
X018390Y007390D01*
X017390Y007390D02*
X017140Y007640D01*
X016640Y007640D01*
X016390Y007390D01*
X017040Y009190D02*
X015740Y009190D01*
X015714Y009192D01*
X015688Y009197D01*
X015663Y009205D01*
X015640Y009217D01*
X015618Y009231D01*
X015599Y009249D01*
X015581Y009268D01*
X015567Y009290D01*
X015555Y009313D01*
X015547Y009338D01*
X015542Y009364D01*
X015540Y009390D01*
X015890Y009640D02*
X016270Y009640D01*
X016520Y009640D02*
X016890Y009640D01*
X017240Y009390D02*
X017238Y009364D01*
X017233Y009338D01*
X017225Y009313D01*
X017213Y009290D01*
X017199Y009268D01*
X017181Y009249D01*
X017162Y009231D01*
X017140Y009217D01*
X017117Y009205D01*
X017092Y009197D01*
X017066Y009192D01*
X017040Y009190D01*
X017240Y009890D02*
X017238Y009916D01*
X017233Y009942D01*
X017225Y009967D01*
X017213Y009990D01*
X017199Y010012D01*
X017181Y010031D01*
X017162Y010049D01*
X017140Y010063D01*
X017117Y010075D01*
X017092Y010083D01*
X017066Y010088D01*
X017040Y010090D01*
X015740Y010090D01*
X015714Y010088D01*
X015688Y010083D01*
X015663Y010075D01*
X015640Y010063D01*
X015618Y010049D01*
X015599Y010031D01*
X015581Y010012D01*
X015567Y009990D01*
X015555Y009967D01*
X015547Y009942D01*
X015542Y009916D01*
X015540Y009890D01*
X015740Y010390D02*
X016490Y010390D01*
X016492Y010429D01*
X016498Y010468D01*
X016507Y010506D01*
X016520Y010543D01*
X016537Y010579D01*
X016557Y010612D01*
X016581Y010644D01*
X016607Y010673D01*
X016636Y010699D01*
X016668Y010723D01*
X016701Y010743D01*
X016737Y010760D01*
X016774Y010773D01*
X016812Y010782D01*
X016851Y010788D01*
X016890Y010790D01*
X016929Y010788D01*
X016968Y010782D01*
X017006Y010773D01*
X017043Y010760D01*
X017079Y010743D01*
X017112Y010723D01*
X017144Y010699D01*
X017173Y010673D01*
X017199Y010644D01*
X017223Y010612D01*
X017243Y010579D01*
X017260Y010543D01*
X017273Y010506D01*
X017282Y010468D01*
X017288Y010429D01*
X017290Y010390D01*
X018040Y010390D01*
X018040Y018390D01*
X015740Y018390D01*
X015740Y010390D01*
X016690Y011490D02*
X016690Y011757D01*
X016756Y011757D01*
X017023Y011490D01*
X017090Y011490D01*
X016890Y011950D02*
X016890Y012217D01*
X017090Y012151D02*
X016690Y012151D01*
X016890Y011950D01*
X016690Y012411D02*
X017090Y012411D01*
X017090Y012678D01*
X017023Y012871D02*
X017090Y012938D01*
X017090Y013071D01*
X017023Y013138D01*
X016957Y013138D01*
X016890Y013071D01*
X016890Y012938D01*
X016823Y012871D01*
X016756Y012871D01*
X016690Y012938D01*
X016690Y013071D01*
X016756Y013138D01*
X016823Y013332D02*
X016690Y013465D01*
X017090Y013465D01*
X017090Y013332D02*
X017090Y013598D01*
X017023Y013792D02*
X017090Y013859D01*
X017090Y013992D01*
X017023Y014059D01*
X016957Y014059D01*
X016890Y013992D01*
X016890Y013925D01*
X016890Y013992D02*
X016823Y014059D01*
X016756Y014059D01*
X016690Y013992D01*
X016690Y013859D01*
X016756Y013792D01*
X016756Y014252D02*
X016823Y014252D01*
X016890Y014319D01*
X016890Y014519D01*
X017023Y014519D02*
X016756Y014519D01*
X016690Y014453D01*
X016690Y014319D01*
X016756Y014252D01*
X017023Y014252D02*
X017090Y014319D01*
X017090Y014453D01*
X017023Y014519D01*
X017090Y014713D02*
X016690Y014713D01*
X017090Y014980D01*
X016690Y014980D01*
X012290Y018390D02*
X009990Y018390D01*
X009990Y010390D01*
X010740Y010390D01*
X010742Y010429D01*
X010748Y010468D01*
X010757Y010506D01*
X010770Y010543D01*
X010787Y010579D01*
X010807Y010612D01*
X010831Y010644D01*
X010857Y010673D01*
X010886Y010699D01*
X010918Y010723D01*
X010951Y010743D01*
X010987Y010760D01*
X011024Y010773D01*
X011062Y010782D01*
X011101Y010788D01*
X011140Y010790D01*
X011179Y010788D01*
X011218Y010782D01*
X011256Y010773D01*
X011293Y010760D01*
X011329Y010743D01*
X011362Y010723D01*
X011394Y010699D01*
X011423Y010673D01*
X011449Y010644D01*
X011473Y010612D01*
X011493Y010579D01*
X011510Y010543D01*
X011523Y010506D01*
X011532Y010468D01*
X011538Y010429D01*
X011540Y010390D01*
X012290Y010390D01*
X012290Y018390D01*
X008690Y019490D02*
X008690Y019623D01*
X008690Y019557D02*
X008290Y019557D01*
X008290Y019623D02*
X008290Y019490D01*
X008356Y019797D02*
X008623Y019797D01*
X008690Y019864D01*
X008690Y019997D01*
X008623Y020064D01*
X008623Y020257D02*
X008557Y020257D01*
X008490Y020324D01*
X008490Y020457D01*
X008557Y020524D01*
X008623Y020524D01*
X008690Y020457D01*
X008690Y020324D01*
X008623Y020257D01*
X008490Y020324D02*
X008423Y020257D01*
X008356Y020257D01*
X008290Y020324D01*
X008290Y020457D01*
X008356Y020524D01*
X008423Y020524D01*
X008490Y020457D01*
X008890Y020490D02*
X008890Y021240D01*
X008590Y021490D02*
X008590Y022790D01*
X008588Y022816D01*
X008583Y022842D01*
X008575Y022867D01*
X008563Y022890D01*
X008549Y022912D01*
X008531Y022931D01*
X008512Y022949D01*
X008490Y022963D01*
X008467Y022975D01*
X008442Y022983D01*
X008416Y022988D01*
X008390Y022990D01*
X008140Y022640D02*
X008140Y022260D01*
X008140Y022010D02*
X008140Y021640D01*
X007890Y021290D02*
X007864Y021292D01*
X007838Y021297D01*
X007813Y021305D01*
X007790Y021317D01*
X007768Y021331D01*
X007749Y021349D01*
X007731Y021368D01*
X007717Y021390D01*
X007705Y021413D01*
X007697Y021438D01*
X007692Y021464D01*
X007690Y021490D01*
X007690Y022790D01*
X007692Y022816D01*
X007697Y022842D01*
X007705Y022867D01*
X007717Y022890D01*
X007731Y022912D01*
X007749Y022931D01*
X007768Y022949D01*
X007790Y022963D01*
X007813Y022975D01*
X007838Y022983D01*
X007864Y022988D01*
X007890Y022990D01*
X008890Y022790D02*
X008890Y022040D01*
X008929Y022038D01*
X008968Y022032D01*
X009006Y022023D01*
X009043Y022010D01*
X009079Y021993D01*
X009112Y021973D01*
X009144Y021949D01*
X009173Y021923D01*
X009199Y021894D01*
X009223Y021862D01*
X009243Y021829D01*
X009260Y021793D01*
X009273Y021756D01*
X009282Y021718D01*
X009288Y021679D01*
X009290Y021640D01*
X009288Y021601D01*
X009282Y021562D01*
X009273Y021524D01*
X009260Y021487D01*
X009243Y021451D01*
X009223Y021418D01*
X009199Y021386D01*
X009173Y021357D01*
X009144Y021331D01*
X009112Y021307D01*
X009079Y021287D01*
X009043Y021270D01*
X009006Y021257D01*
X008968Y021248D01*
X008929Y021242D01*
X008890Y021240D01*
X008590Y021490D02*
X008588Y021464D01*
X008583Y021438D01*
X008575Y021413D01*
X008563Y021390D01*
X008549Y021368D01*
X008531Y021349D01*
X008512Y021331D01*
X008490Y021317D01*
X008467Y021305D01*
X008442Y021297D01*
X008416Y021292D01*
X008390Y021290D01*
X008890Y020490D02*
X015890Y020490D01*
X015890Y022790D01*
X008890Y022790D01*
X009790Y021840D02*
X010057Y021840D01*
X010057Y021774D01*
X009790Y021507D01*
X009790Y021440D01*
X010250Y021640D02*
X010451Y021840D01*
X010451Y021440D01*
X010517Y021640D02*
X010250Y021640D01*
X010711Y021840D02*
X010711Y021440D01*
X010978Y021440D01*
X011171Y021507D02*
X011238Y021440D01*
X011371Y021440D01*
X011438Y021507D01*
X011438Y021573D01*
X011371Y021640D01*
X011238Y021640D01*
X011171Y021707D01*
X011171Y021774D01*
X011238Y021840D01*
X011371Y021840D01*
X011438Y021774D01*
X011632Y021774D02*
X011698Y021840D01*
X011832Y021840D01*
X011898Y021774D01*
X011632Y021507D01*
X011698Y021440D01*
X011832Y021440D01*
X011898Y021507D01*
X011898Y021774D01*
X012092Y021774D02*
X012092Y021707D01*
X012159Y021640D01*
X012292Y021640D01*
X012359Y021573D01*
X012359Y021507D01*
X012292Y021440D01*
X012159Y021440D01*
X012092Y021507D01*
X012092Y021573D01*
X012159Y021640D01*
X012292Y021640D02*
X012359Y021707D01*
X012359Y021774D01*
X012292Y021840D01*
X012159Y021840D01*
X012092Y021774D01*
X011632Y021774D02*
X011632Y021507D01*
X012552Y021440D02*
X012552Y021840D01*
X012819Y021440D01*
X012819Y021840D01*
X011740Y024640D02*
X017040Y024640D01*
X017040Y040640D01*
X014790Y040640D01*
X014788Y040601D01*
X014782Y040562D01*
X014773Y040524D01*
X014760Y040487D01*
X014743Y040451D01*
X014723Y040418D01*
X014699Y040386D01*
X014673Y040357D01*
X014644Y040331D01*
X014612Y040307D01*
X014579Y040287D01*
X014543Y040270D01*
X014506Y040257D01*
X014468Y040248D01*
X014429Y040242D01*
X014390Y040240D01*
X014351Y040242D01*
X014312Y040248D01*
X014274Y040257D01*
X014237Y040270D01*
X014201Y040287D01*
X014168Y040307D01*
X014136Y040331D01*
X014107Y040357D01*
X014081Y040386D01*
X014057Y040418D01*
X014037Y040451D01*
X014020Y040487D01*
X014007Y040524D01*
X013998Y040562D01*
X013992Y040601D01*
X013990Y040640D01*
X011740Y040640D01*
X011740Y024640D01*
X008356Y020064D02*
X008290Y019997D01*
X008290Y019864D01*
X008356Y019797D01*
X007765Y017496D02*
X007765Y017230D01*
X007565Y017430D01*
X007965Y017430D01*
X007765Y017036D02*
X007832Y016969D01*
X007832Y016769D01*
X007965Y016769D02*
X007565Y016769D01*
X007565Y016969D01*
X007631Y017036D01*
X007765Y017036D01*
X007565Y016576D02*
X007565Y016442D01*
X007565Y016509D02*
X007898Y016509D01*
X007965Y016442D01*
X007965Y016376D01*
X007898Y016309D01*
X007265Y016390D02*
X007265Y015890D01*
X007015Y015640D01*
X005515Y015640D01*
X005265Y015390D01*
X005265Y014890D01*
X005515Y014640D01*
X007015Y014640D01*
X007265Y014390D01*
X007265Y013890D01*
X007015Y013640D01*
X005515Y013640D01*
X005265Y013390D01*
X005265Y012890D01*
X005515Y012640D01*
X007015Y012640D01*
X007265Y012390D01*
X007265Y011890D01*
X007015Y011640D01*
X005515Y011640D01*
X005265Y011390D01*
X005265Y010890D01*
X005515Y010640D01*
X005265Y010390D01*
X005265Y009890D01*
X005515Y009640D01*
X007015Y009640D01*
X007265Y009890D01*
X007265Y010390D01*
X007015Y010640D01*
X005515Y010640D01*
X005515Y011640D02*
X005265Y011890D01*
X005265Y012390D01*
X005515Y012640D01*
X005515Y013640D02*
X005265Y013890D01*
X005265Y014390D01*
X005515Y014640D01*
X005515Y015640D02*
X005265Y015890D01*
X005265Y016390D01*
X005515Y016640D01*
X007015Y016640D01*
X007265Y016390D01*
X007015Y016640D02*
X007265Y016890D01*
X007265Y017390D01*
X007015Y017640D01*
X005515Y017640D01*
X005265Y017390D01*
X005265Y016890D01*
X005515Y016640D01*
X007015Y015640D02*
X007265Y015390D01*
X007265Y014890D01*
X007015Y014640D01*
X007015Y013640D02*
X007265Y013390D01*
X007265Y012890D01*
X007015Y012640D01*
X007015Y011640D02*
X007265Y011390D01*
X007265Y010890D01*
X007015Y010640D01*
X009990Y010090D02*
X011290Y010090D01*
X011316Y010088D01*
X011342Y010083D01*
X011367Y010075D01*
X011390Y010063D01*
X011412Y010049D01*
X011431Y010031D01*
X011449Y010012D01*
X011463Y009990D01*
X011475Y009967D01*
X011483Y009942D01*
X011488Y009916D01*
X011490Y009890D01*
X011140Y009640D02*
X010770Y009640D01*
X010520Y009640D02*
X010140Y009640D01*
X009790Y009890D02*
X009792Y009916D01*
X009797Y009942D01*
X009805Y009967D01*
X009817Y009990D01*
X009831Y010012D01*
X009849Y010031D01*
X009868Y010049D01*
X009890Y010063D01*
X009913Y010075D01*
X009938Y010083D01*
X009964Y010088D01*
X009990Y010090D01*
X009790Y009390D02*
X009792Y009364D01*
X009797Y009338D01*
X009805Y009313D01*
X009817Y009290D01*
X009831Y009268D01*
X009849Y009249D01*
X009868Y009231D01*
X009890Y009217D01*
X009913Y009205D01*
X009938Y009197D01*
X009964Y009192D01*
X009990Y009190D01*
X011290Y009190D01*
X011316Y009192D01*
X011342Y009197D01*
X011367Y009205D01*
X011390Y009217D01*
X011412Y009231D01*
X011431Y009249D01*
X011449Y009268D01*
X011463Y009290D01*
X011475Y009313D01*
X011483Y009338D01*
X011488Y009364D01*
X011490Y009390D01*
X012112Y009790D02*
X012246Y009790D01*
X012179Y009790D02*
X012179Y010190D01*
X012112Y010190D02*
X012246Y010190D01*
X012419Y010124D02*
X012419Y009857D01*
X012486Y009790D01*
X012619Y009790D01*
X012686Y009857D01*
X012880Y009990D02*
X013146Y009990D01*
X013080Y009790D02*
X013080Y010190D01*
X012880Y009990D01*
X012686Y010124D02*
X012619Y010190D01*
X012486Y010190D01*
X012419Y010124D01*
X011340Y011490D02*
X011273Y011490D01*
X011006Y011757D01*
X010940Y011757D01*
X010940Y011490D01*
X011140Y011950D02*
X011140Y012217D01*
X011340Y012151D02*
X010940Y012151D01*
X011140Y011950D01*
X011340Y012411D02*
X011340Y012678D01*
X011273Y012871D02*
X011340Y012938D01*
X011340Y013071D01*
X011273Y013138D01*
X011207Y013138D01*
X011140Y013071D01*
X011140Y012938D01*
X011073Y012871D01*
X011006Y012871D01*
X010940Y012938D01*
X010940Y013071D01*
X011006Y013138D01*
X011073Y013332D02*
X010940Y013465D01*
X011340Y013465D01*
X011340Y013332D02*
X011340Y013598D01*
X011273Y013792D02*
X011340Y013859D01*
X011340Y013992D01*
X011273Y014059D01*
X011207Y014059D01*
X011140Y013992D01*
X011140Y013925D01*
X011140Y013992D02*
X011073Y014059D01*
X011006Y014059D01*
X010940Y013992D01*
X010940Y013859D01*
X011006Y013792D01*
X011006Y014252D02*
X011073Y014252D01*
X011140Y014319D01*
X011140Y014519D01*
X011273Y014519D02*
X011006Y014519D01*
X010940Y014453D01*
X010940Y014319D01*
X011006Y014252D01*
X011273Y014252D02*
X011340Y014319D01*
X011340Y014453D01*
X011273Y014519D01*
X011340Y014713D02*
X010940Y014713D01*
X011340Y014980D01*
X010940Y014980D01*
X010940Y012411D02*
X011340Y012411D01*
X017862Y010190D02*
X017996Y010190D01*
X017929Y010190D02*
X017929Y009790D01*
X017862Y009790D02*
X017996Y009790D01*
X018169Y009857D02*
X018236Y009790D01*
X018369Y009790D01*
X018436Y009857D01*
X018630Y009857D02*
X018696Y009790D01*
X018830Y009790D01*
X018896Y009857D01*
X018896Y009923D01*
X018830Y009990D01*
X018763Y009990D01*
X018830Y009990D02*
X018896Y010057D01*
X018896Y010124D01*
X018830Y010190D01*
X018696Y010190D01*
X018630Y010124D01*
X018436Y010124D02*
X018369Y010190D01*
X018236Y010190D01*
X018169Y010124D01*
X018169Y009857D01*
X026390Y007390D02*
X026640Y007640D01*
X027140Y007640D01*
X027390Y007390D01*
X031740Y010190D02*
X033040Y010190D01*
X033066Y010192D01*
X033092Y010197D01*
X033117Y010205D01*
X033140Y010217D01*
X033162Y010231D01*
X033181Y010249D01*
X033199Y010268D01*
X033213Y010290D01*
X033225Y010313D01*
X033233Y010338D01*
X033238Y010364D01*
X033240Y010390D01*
X032890Y010640D02*
X032520Y010640D01*
X032270Y010640D02*
X031890Y010640D01*
X031540Y010390D02*
X031542Y010364D01*
X031547Y010338D01*
X031555Y010313D01*
X031567Y010290D01*
X031581Y010268D01*
X031599Y010249D01*
X031618Y010231D01*
X031640Y010217D01*
X031663Y010205D01*
X031688Y010197D01*
X031714Y010192D01*
X031740Y010190D01*
X031540Y010890D02*
X031542Y010916D01*
X031547Y010942D01*
X031555Y010967D01*
X031567Y010990D01*
X031581Y011012D01*
X031599Y011031D01*
X031618Y011049D01*
X031640Y011063D01*
X031663Y011075D01*
X031688Y011083D01*
X031714Y011088D01*
X031740Y011090D01*
X033040Y011090D01*
X033066Y011088D01*
X033092Y011083D01*
X033117Y011075D01*
X033140Y011063D01*
X033162Y011049D01*
X033181Y011031D01*
X033199Y011012D01*
X033213Y010990D01*
X033225Y010967D01*
X033233Y010942D01*
X033238Y010916D01*
X033240Y010890D01*
X046240Y010890D02*
X046990Y010890D01*
X046992Y010929D01*
X046998Y010968D01*
X047007Y011006D01*
X047020Y011043D01*
X047037Y011079D01*
X047057Y011112D01*
X047081Y011144D01*
X047107Y011173D01*
X047136Y011199D01*
X047168Y011223D01*
X047201Y011243D01*
X047237Y011260D01*
X047274Y011273D01*
X047312Y011282D01*
X047351Y011288D01*
X047390Y011290D01*
X047429Y011288D01*
X047468Y011282D01*
X047506Y011273D01*
X047543Y011260D01*
X047579Y011243D01*
X047612Y011223D01*
X047644Y011199D01*
X047673Y011173D01*
X047699Y011144D01*
X047723Y011112D01*
X047743Y011079D01*
X047760Y011043D01*
X047773Y011006D01*
X047782Y010968D01*
X047788Y010929D01*
X047790Y010890D01*
X048540Y010890D01*
X048540Y017890D01*
X046240Y017890D01*
X046240Y010890D01*
X047190Y011790D02*
X047190Y012057D01*
X047256Y012057D01*
X047523Y011790D01*
X047590Y011790D01*
X047390Y012250D02*
X047390Y012517D01*
X047590Y012451D02*
X047190Y012451D01*
X047390Y012250D01*
X047190Y012711D02*
X047590Y012711D01*
X047590Y012978D01*
X047523Y013171D02*
X047590Y013238D01*
X047590Y013371D01*
X047523Y013438D01*
X047457Y013438D01*
X047390Y013371D01*
X047390Y013238D01*
X047323Y013171D01*
X047256Y013171D01*
X047190Y013238D01*
X047190Y013371D01*
X047256Y013438D01*
X047256Y013632D02*
X047190Y013698D01*
X047190Y013832D01*
X047256Y013898D01*
X047523Y013632D01*
X047590Y013698D01*
X047590Y013832D01*
X047523Y013898D01*
X047256Y013898D01*
X047256Y014092D02*
X047190Y014159D01*
X047190Y014292D01*
X047256Y014359D01*
X047523Y014092D01*
X047590Y014159D01*
X047590Y014292D01*
X047523Y014359D01*
X047256Y014359D01*
X047190Y014552D02*
X047590Y014819D01*
X047190Y014819D01*
X047190Y014552D02*
X047590Y014552D01*
X047523Y014092D02*
X047256Y014092D01*
X047256Y013632D02*
X047523Y013632D01*
X047662Y010690D02*
X047796Y010690D01*
X047729Y010690D02*
X047729Y010290D01*
X047662Y010290D02*
X047796Y010290D01*
X047969Y010357D02*
X048036Y010290D01*
X048169Y010290D01*
X048236Y010357D01*
X048430Y010357D02*
X048496Y010290D01*
X048630Y010290D01*
X048696Y010357D01*
X048696Y010490D01*
X048630Y010557D01*
X048563Y010557D01*
X048430Y010490D01*
X048430Y010690D01*
X048696Y010690D01*
X048236Y010624D02*
X048169Y010690D01*
X048036Y010690D01*
X047969Y010624D01*
X047969Y010357D01*
X047540Y009840D02*
X046240Y009840D01*
X046214Y009838D01*
X046188Y009833D01*
X046163Y009825D01*
X046140Y009813D01*
X046118Y009799D01*
X046099Y009781D01*
X046081Y009762D01*
X046067Y009740D01*
X046055Y009717D01*
X046047Y009692D01*
X046042Y009666D01*
X046040Y009640D01*
X046390Y009390D02*
X046770Y009390D01*
X047020Y009390D02*
X047390Y009390D01*
X047740Y009640D02*
X047738Y009666D01*
X047733Y009692D01*
X047725Y009717D01*
X047713Y009740D01*
X047699Y009762D01*
X047681Y009781D01*
X047662Y009799D01*
X047640Y009813D01*
X047617Y009825D01*
X047592Y009833D01*
X047566Y009838D01*
X047540Y009840D01*
X047740Y009140D02*
X047738Y009114D01*
X047733Y009088D01*
X047725Y009063D01*
X047713Y009040D01*
X047699Y009018D01*
X047681Y008999D01*
X047662Y008981D01*
X047640Y008967D01*
X047617Y008955D01*
X047592Y008947D01*
X047566Y008942D01*
X047540Y008940D01*
X046240Y008940D01*
X046214Y008942D01*
X046188Y008947D01*
X046163Y008955D01*
X046140Y008967D01*
X046118Y008981D01*
X046099Y008999D01*
X046081Y009018D01*
X046067Y009040D01*
X046055Y009063D01*
X046047Y009088D01*
X046042Y009114D01*
X046040Y009140D01*
X048390Y007390D02*
X048640Y007640D01*
X049140Y007640D01*
X049390Y007390D01*
X049390Y005890D01*
X049140Y005640D01*
X048640Y005640D01*
X048390Y005890D01*
X049390Y005890D02*
X049640Y005640D01*
X050140Y005640D01*
X050390Y005890D01*
X050390Y007390D01*
X050140Y007640D01*
X049640Y007640D01*
X049390Y007390D01*
X050390Y007390D02*
X050640Y007640D01*
X051140Y007640D01*
X051390Y007390D01*
X051390Y005890D01*
X051140Y005640D01*
X050640Y005640D01*
X050390Y005890D01*
X051390Y005890D02*
X051640Y005640D01*
X052140Y005640D01*
X052390Y005890D01*
X052390Y007390D01*
X052140Y007640D01*
X051640Y007640D01*
X051390Y007390D01*
X052390Y007390D02*
X052640Y007640D01*
X053140Y007640D01*
X053390Y007390D01*
X053390Y005890D01*
X053140Y005640D01*
X052640Y005640D01*
X052390Y005890D01*
X052732Y005340D02*
X052865Y005340D01*
X052799Y005340D02*
X052799Y005007D01*
X052732Y004940D01*
X052665Y004940D01*
X052598Y005007D01*
X053059Y005073D02*
X053259Y005073D01*
X053326Y005140D01*
X053326Y005274D01*
X053259Y005340D01*
X053059Y005340D01*
X053059Y004940D01*
X053519Y004940D02*
X053786Y004940D01*
X053653Y004940D02*
X053653Y005340D01*
X053519Y005207D01*
X053640Y005640D02*
X053390Y005890D01*
X053640Y005640D02*
X054140Y005640D01*
X054390Y005890D01*
X054390Y007390D01*
X054140Y007640D01*
X053640Y007640D01*
X053390Y007390D01*
X054046Y005340D02*
X054180Y005340D01*
X054246Y005274D01*
X053980Y005007D01*
X054046Y004940D01*
X054180Y004940D01*
X054246Y005007D01*
X054246Y005274D01*
X054046Y005340D02*
X053980Y005274D01*
X053980Y005007D01*
X058765Y005890D02*
X058765Y007390D01*
X059015Y007640D01*
X059515Y007640D01*
X059765Y007390D01*
X059765Y005890D01*
X060015Y005640D01*
X060515Y005640D01*
X060765Y005890D01*
X060765Y007390D01*
X060515Y007640D01*
X060015Y007640D01*
X059765Y007390D01*
X059803Y007940D02*
X059936Y007940D01*
X060003Y008007D01*
X060196Y007940D02*
X060463Y007940D01*
X060330Y007940D02*
X060330Y008340D01*
X060196Y008207D01*
X060003Y008274D02*
X059936Y008340D01*
X059803Y008340D01*
X059736Y008274D01*
X059736Y008007D01*
X059803Y007940D01*
X059542Y008007D02*
X059476Y007940D01*
X059342Y007940D01*
X059275Y008007D01*
X059275Y008274D01*
X059342Y008340D01*
X059476Y008340D01*
X059542Y008274D01*
X059082Y008340D02*
X059082Y008073D01*
X058948Y007940D01*
X058815Y008073D01*
X058815Y008340D01*
X059015Y009640D02*
X058765Y009890D01*
X058765Y010390D01*
X059015Y010640D01*
X060515Y010640D01*
X060765Y010390D01*
X060765Y009890D01*
X060515Y009640D01*
X059015Y009640D01*
X059015Y010640D02*
X058765Y010890D01*
X058765Y011390D01*
X059015Y011640D01*
X060515Y011640D01*
X060765Y011390D01*
X060765Y010890D01*
X060515Y010640D01*
X060515Y011640D02*
X060765Y011890D01*
X060765Y012390D01*
X060515Y012640D01*
X059015Y012640D01*
X058765Y012390D01*
X058765Y011890D01*
X059015Y011640D01*
X059015Y012640D02*
X058765Y012890D01*
X058765Y013390D01*
X059015Y013640D01*
X060515Y013640D01*
X060765Y013390D01*
X060765Y012890D01*
X060515Y012640D01*
X060515Y013640D02*
X060765Y013890D01*
X060765Y014390D01*
X060515Y014640D01*
X059015Y014640D01*
X058765Y014390D01*
X058765Y013890D01*
X059015Y013640D01*
X059015Y014640D02*
X058765Y014890D01*
X058765Y015390D01*
X059015Y015640D01*
X060515Y015640D01*
X060765Y015390D01*
X060765Y014890D01*
X060515Y014640D01*
X060515Y015640D02*
X060765Y015890D01*
X060765Y016390D01*
X060515Y016640D01*
X059015Y016640D01*
X058765Y016390D01*
X058765Y015890D01*
X059015Y015640D01*
X059015Y016640D02*
X058765Y016890D01*
X058765Y017390D01*
X059015Y017640D01*
X060515Y017640D01*
X060765Y017390D01*
X060765Y016890D01*
X060515Y016640D01*
X061065Y016576D02*
X061065Y016442D01*
X061065Y016509D02*
X061398Y016509D01*
X061465Y016442D01*
X061465Y016376D01*
X061398Y016309D01*
X061332Y016769D02*
X061332Y016969D01*
X061265Y017036D01*
X061131Y017036D01*
X061065Y016969D01*
X061065Y016769D01*
X061465Y016769D01*
X061465Y017230D02*
X061198Y017496D01*
X061131Y017496D01*
X061065Y017430D01*
X061065Y017296D01*
X061131Y017230D01*
X061465Y017230D02*
X061465Y017496D01*
X063765Y019265D02*
X063765Y019765D01*
X064015Y020015D01*
X063765Y020265D01*
X063765Y020765D01*
X064015Y021015D01*
X063765Y021265D01*
X063765Y021765D01*
X064015Y022015D01*
X063765Y022265D01*
X063765Y022765D01*
X064015Y023015D01*
X063765Y023265D01*
X063765Y023765D01*
X064015Y024015D01*
X063765Y024265D01*
X063765Y024765D01*
X064015Y025015D01*
X063765Y025265D01*
X063765Y025765D01*
X064015Y026015D01*
X063765Y026265D01*
X063765Y026765D01*
X064015Y027015D01*
X063765Y027265D01*
X063765Y027765D01*
X064015Y028015D01*
X064515Y028015D01*
X064765Y027765D01*
X064765Y027265D01*
X064515Y027015D01*
X064765Y026765D01*
X064765Y026265D01*
X064515Y026015D01*
X064015Y026015D01*
X064515Y026015D02*
X064765Y025765D01*
X064765Y025265D01*
X064515Y025015D01*
X064765Y024765D01*
X064765Y024265D01*
X064515Y024015D01*
X064765Y023765D01*
X064765Y023265D01*
X064515Y023015D01*
X064015Y023015D01*
X064515Y023015D02*
X064765Y022765D01*
X064765Y022265D01*
X064515Y022015D01*
X064765Y021765D01*
X064765Y021265D01*
X064515Y021015D01*
X064765Y020765D01*
X064765Y020265D01*
X064515Y020015D01*
X064765Y019765D01*
X064765Y019265D01*
X064515Y019015D01*
X064015Y019015D01*
X063765Y019265D01*
X064015Y020015D02*
X064515Y020015D01*
X064515Y021015D02*
X064015Y021015D01*
X064015Y022015D02*
X064515Y022015D01*
X064515Y024015D02*
X064015Y024015D01*
X064015Y025015D02*
X064515Y025015D01*
X065368Y026714D02*
X065435Y026781D01*
X065435Y026847D01*
X065368Y026914D01*
X065035Y026914D01*
X065035Y026847D02*
X065035Y026981D01*
X065035Y027174D02*
X065035Y027374D01*
X065101Y027441D01*
X065235Y027441D01*
X065302Y027374D01*
X065302Y027174D01*
X065435Y027174D02*
X065035Y027174D01*
X065035Y027635D02*
X065035Y027901D01*
X065101Y027901D01*
X065368Y027635D01*
X065435Y027635D01*
X064515Y027015D02*
X064015Y027015D01*
X056040Y024640D02*
X050740Y024640D01*
X050740Y040640D01*
X052990Y040640D01*
X052992Y040601D01*
X052998Y040562D01*
X053007Y040524D01*
X053020Y040487D01*
X053037Y040451D01*
X053057Y040418D01*
X053081Y040386D01*
X053107Y040357D01*
X053136Y040331D01*
X053168Y040307D01*
X053201Y040287D01*
X053237Y040270D01*
X053274Y040257D01*
X053312Y040248D01*
X053351Y040242D01*
X053390Y040240D01*
X053429Y040242D01*
X053468Y040248D01*
X053506Y040257D01*
X053543Y040270D01*
X053579Y040287D01*
X053612Y040307D01*
X053644Y040331D01*
X053673Y040357D01*
X053699Y040386D01*
X053723Y040418D01*
X053743Y040451D01*
X053760Y040487D01*
X053773Y040524D01*
X053782Y040562D01*
X053788Y040601D01*
X053790Y040640D01*
X056040Y040640D01*
X056040Y024640D01*
X056040Y017890D02*
X053740Y017890D01*
X053740Y010890D01*
X054490Y010890D01*
X054492Y010929D01*
X054498Y010968D01*
X054507Y011006D01*
X054520Y011043D01*
X054537Y011079D01*
X054557Y011112D01*
X054581Y011144D01*
X054607Y011173D01*
X054636Y011199D01*
X054668Y011223D01*
X054701Y011243D01*
X054737Y011260D01*
X054774Y011273D01*
X054812Y011282D01*
X054851Y011288D01*
X054890Y011290D01*
X054929Y011288D01*
X054968Y011282D01*
X055006Y011273D01*
X055043Y011260D01*
X055079Y011243D01*
X055112Y011223D01*
X055144Y011199D01*
X055173Y011173D01*
X055199Y011144D01*
X055223Y011112D01*
X055243Y011079D01*
X055260Y011043D01*
X055273Y011006D01*
X055282Y010968D01*
X055288Y010929D01*
X055290Y010890D01*
X056040Y010890D01*
X056040Y017890D01*
X055090Y014819D02*
X054690Y014819D01*
X054690Y014552D02*
X055090Y014819D01*
X055090Y014552D02*
X054690Y014552D01*
X054756Y014359D02*
X054690Y014292D01*
X054690Y014159D01*
X054756Y014092D01*
X054756Y013898D02*
X054823Y013898D01*
X054890Y013832D01*
X054957Y013898D01*
X055023Y013898D01*
X055090Y013832D01*
X055090Y013698D01*
X055023Y013632D01*
X054890Y013765D02*
X054890Y013832D01*
X054756Y013898D02*
X054690Y013832D01*
X054690Y013698D01*
X054756Y013632D01*
X054756Y013438D02*
X054690Y013371D01*
X054690Y013238D01*
X054756Y013171D01*
X054823Y013171D01*
X054890Y013238D01*
X054890Y013371D01*
X054957Y013438D01*
X055023Y013438D01*
X055090Y013371D01*
X055090Y013238D01*
X055023Y013171D01*
X055090Y012978D02*
X055090Y012711D01*
X054690Y012711D01*
X054690Y012451D02*
X054890Y012250D01*
X054890Y012517D01*
X055090Y012451D02*
X054690Y012451D01*
X054690Y012057D02*
X054756Y012057D01*
X055023Y011790D01*
X055090Y011790D01*
X054690Y011790D02*
X054690Y012057D01*
X055537Y010690D02*
X055671Y010690D01*
X055604Y010690D02*
X055604Y010290D01*
X055537Y010290D02*
X055671Y010290D01*
X055844Y010357D02*
X055911Y010290D01*
X056044Y010290D01*
X056111Y010357D01*
X056305Y010357D02*
X056371Y010290D01*
X056505Y010290D01*
X056571Y010357D01*
X056571Y010423D01*
X056505Y010490D01*
X056305Y010490D01*
X056305Y010357D01*
X056305Y010490D02*
X056438Y010624D01*
X056571Y010690D01*
X056111Y010624D02*
X056044Y010690D01*
X055911Y010690D01*
X055844Y010624D01*
X055844Y010357D01*
X055040Y010340D02*
X053740Y010340D01*
X053714Y010338D01*
X053688Y010333D01*
X053663Y010325D01*
X053640Y010313D01*
X053618Y010299D01*
X053599Y010281D01*
X053581Y010262D01*
X053567Y010240D01*
X053555Y010217D01*
X053547Y010192D01*
X053542Y010166D01*
X053540Y010140D01*
X053890Y009890D02*
X054270Y009890D01*
X054520Y009890D02*
X054890Y009890D01*
X055240Y009640D02*
X055238Y009614D01*
X055233Y009588D01*
X055225Y009563D01*
X055213Y009540D01*
X055199Y009518D01*
X055181Y009499D01*
X055162Y009481D01*
X055140Y009467D01*
X055117Y009455D01*
X055092Y009447D01*
X055066Y009442D01*
X055040Y009440D01*
X053740Y009440D01*
X053714Y009442D01*
X053688Y009447D01*
X053663Y009455D01*
X053640Y009467D01*
X053618Y009481D01*
X053599Y009499D01*
X053581Y009518D01*
X053567Y009540D01*
X053555Y009563D01*
X053547Y009588D01*
X053542Y009614D01*
X053540Y009640D01*
X055040Y010340D02*
X055066Y010338D01*
X055092Y010333D01*
X055117Y010325D01*
X055140Y010313D01*
X055162Y010299D01*
X055181Y010281D01*
X055199Y010262D01*
X055213Y010240D01*
X055225Y010217D01*
X055233Y010192D01*
X055238Y010166D01*
X055240Y010140D01*
X055090Y014092D02*
X054823Y014359D01*
X054756Y014359D01*
X055090Y014359D02*
X055090Y014092D01*
X061915Y007390D02*
X062115Y007390D01*
X062015Y007290D02*
X062015Y007490D01*
X062215Y007540D02*
X062215Y007140D01*
X062215Y006740D01*
X062415Y006740D01*
X062415Y007540D01*
X062215Y007540D01*
X062215Y007140D02*
X061965Y007140D01*
X061385Y006606D02*
X061416Y006544D01*
X061451Y006485D01*
X061488Y006427D01*
X061529Y006372D01*
X061573Y006318D01*
X061620Y006268D01*
X061669Y006220D01*
X061721Y006175D01*
X061775Y006132D01*
X061832Y006093D01*
X061890Y006057D01*
X061951Y006024D01*
X062013Y005995D01*
X062077Y005969D01*
X062142Y005947D01*
X062208Y005928D01*
X062276Y005913D01*
X062343Y005902D01*
X062412Y005894D01*
X062481Y005890D01*
X062549Y005890D01*
X062618Y005894D01*
X062687Y005902D01*
X062754Y005913D01*
X062822Y005928D01*
X062888Y005947D01*
X062953Y005969D01*
X063017Y005995D01*
X063079Y006024D01*
X063140Y006057D01*
X063198Y006093D01*
X063255Y006132D01*
X063309Y006175D01*
X063361Y006220D01*
X063410Y006268D01*
X063457Y006318D01*
X063501Y006372D01*
X063542Y006427D01*
X063579Y006485D01*
X063614Y006544D01*
X063645Y006606D01*
X063890Y006307D02*
X064023Y006440D01*
X064023Y006040D01*
X063890Y006040D02*
X064157Y006040D01*
X064350Y006107D02*
X064617Y006374D01*
X064617Y006107D01*
X064551Y006040D01*
X064417Y006040D01*
X064350Y006107D01*
X064350Y006374D01*
X064417Y006440D01*
X064551Y006440D01*
X064617Y006374D01*
X064811Y006307D02*
X064811Y006107D01*
X064878Y006040D01*
X065078Y006040D01*
X065078Y006307D01*
X063065Y007140D02*
X062765Y007140D01*
X063645Y007674D02*
X063614Y007736D01*
X063579Y007795D01*
X063542Y007853D01*
X063501Y007908D01*
X063457Y007962D01*
X063410Y008012D01*
X063361Y008060D01*
X063309Y008105D01*
X063255Y008148D01*
X063198Y008187D01*
X063140Y008223D01*
X063079Y008256D01*
X063017Y008285D01*
X062953Y008311D01*
X062888Y008333D01*
X062822Y008352D01*
X062754Y008367D01*
X062687Y008378D01*
X062618Y008386D01*
X062549Y008390D01*
X062481Y008390D01*
X062412Y008386D01*
X062343Y008378D01*
X062276Y008367D01*
X062208Y008352D01*
X062142Y008333D01*
X062077Y008311D01*
X062013Y008285D01*
X061951Y008256D01*
X061890Y008223D01*
X061832Y008187D01*
X061775Y008148D01*
X061721Y008105D01*
X061669Y008060D01*
X061620Y008012D01*
X061573Y007962D01*
X061529Y007908D01*
X061488Y007853D01*
X061451Y007795D01*
X061416Y007736D01*
X061385Y007674D01*
X059765Y005890D02*
X059515Y005640D01*
X059015Y005640D01*
X058765Y005890D01*
X009515Y031890D02*
X009515Y032390D01*
X009265Y032640D01*
X009515Y032890D01*
X009515Y033390D01*
X009265Y033640D01*
X009515Y033890D01*
X009515Y034390D01*
X009265Y034640D01*
X008765Y034640D01*
X008515Y034390D01*
X008515Y033890D01*
X008765Y033640D01*
X009265Y033640D01*
X008765Y033640D02*
X008515Y033390D01*
X008515Y032890D01*
X008765Y032640D01*
X008515Y032390D01*
X008515Y031890D01*
X008765Y031640D01*
X009265Y031640D01*
X009515Y031890D01*
X009265Y032640D02*
X008765Y032640D01*
X008245Y032648D02*
X008178Y032581D01*
X008112Y032581D01*
X008045Y032648D01*
X008045Y032781D01*
X008112Y032848D01*
X008178Y032848D01*
X008245Y032781D01*
X008245Y032648D01*
X008045Y032648D02*
X007978Y032581D01*
X007911Y032581D01*
X007845Y032648D01*
X007845Y032781D01*
X007911Y032848D01*
X007978Y032848D01*
X008045Y032781D01*
X008045Y032387D02*
X008112Y032321D01*
X008112Y032120D01*
X008245Y032120D02*
X007845Y032120D01*
X007845Y032321D01*
X007911Y032387D01*
X008045Y032387D01*
X007845Y031927D02*
X007845Y031793D01*
X007845Y031860D02*
X008178Y031860D01*
X008245Y031793D01*
X008245Y031727D01*
X008178Y031660D01*
X007265Y031890D02*
X007265Y032390D01*
X007015Y032640D01*
X005515Y032640D01*
X005265Y032390D01*
X005265Y031890D01*
X005515Y031640D01*
X007015Y031640D01*
X007265Y031390D01*
X007265Y030890D01*
X007015Y030640D01*
X007265Y030390D01*
X007265Y029890D01*
X007015Y029640D01*
X005515Y029640D01*
X005265Y029890D01*
X005265Y030390D01*
X005515Y030640D01*
X007015Y030640D01*
X005515Y030640D02*
X005265Y030890D01*
X005265Y031390D01*
X005515Y031640D01*
X005515Y032640D02*
X005265Y032890D01*
X005265Y033390D01*
X005515Y033640D01*
X007015Y033640D01*
X007265Y033390D01*
X007265Y032890D01*
X007015Y032640D01*
X007265Y031890D02*
X007015Y031640D01*
X007015Y033640D02*
X007265Y033890D01*
X007265Y034390D01*
X007015Y034640D01*
X005515Y034640D01*
X005265Y034390D01*
X005265Y033890D01*
X005515Y033640D01*
X005515Y034640D02*
X005265Y034890D01*
X005265Y035390D01*
X005515Y035640D01*
X007015Y035640D01*
X007265Y035390D01*
X007265Y034890D01*
X007015Y034640D01*
X007015Y035640D02*
X007265Y035890D01*
X007265Y036390D01*
X007015Y036640D01*
X005515Y036640D01*
X005265Y036390D01*
X005265Y035890D01*
X005515Y035640D01*
X005515Y036640D02*
X005265Y036890D01*
X005265Y037390D01*
X005515Y037640D01*
X007015Y037640D01*
X007265Y037390D01*
X007265Y036890D01*
X007015Y036640D01*
X007565Y036576D02*
X007565Y036442D01*
X007565Y036509D02*
X007898Y036509D01*
X007965Y036442D01*
X007965Y036376D01*
X007898Y036309D01*
X007832Y036769D02*
X007832Y036969D01*
X007765Y037036D01*
X007631Y037036D01*
X007565Y036969D01*
X007565Y036769D01*
X007965Y036769D01*
X007898Y037230D02*
X007965Y037296D01*
X007965Y037430D01*
X007898Y037496D01*
X007832Y037496D01*
X007765Y037430D01*
X007765Y037363D01*
X007765Y037430D02*
X007698Y037496D01*
X007631Y037496D01*
X007565Y037430D01*
X007565Y037296D01*
X007631Y037230D01*
X008515Y037390D02*
X008515Y036890D01*
X008765Y036640D01*
X009265Y036640D01*
X009515Y036890D01*
X009515Y037390D01*
X009265Y037640D01*
X008765Y037640D01*
X008515Y037390D01*
X008765Y036640D02*
X008515Y036390D01*
X008515Y035890D01*
X008765Y035640D01*
X009265Y035640D01*
X009515Y035890D01*
X009515Y036390D01*
X009265Y036640D01*
X009265Y035640D02*
X009515Y035390D01*
X009515Y034890D01*
X009265Y034640D01*
X008765Y034640D02*
X008515Y034890D01*
X008515Y035390D01*
X008765Y035640D01*
X008640Y039640D02*
X008140Y039640D01*
X007890Y039890D01*
X007890Y041390D01*
X008140Y041640D01*
X008640Y041640D01*
X008890Y041390D01*
X008890Y039890D01*
X008640Y039640D01*
X007890Y039890D02*
X007640Y039640D01*
X007140Y039640D01*
X006890Y039890D01*
X006890Y041390D01*
X007140Y041640D01*
X007640Y041640D01*
X007890Y041390D01*
X007928Y041940D02*
X008061Y041940D01*
X008128Y042007D01*
X008321Y041940D02*
X008588Y042207D01*
X008588Y042274D01*
X008521Y042340D01*
X008388Y042340D01*
X008321Y042274D01*
X008128Y042274D02*
X008061Y042340D01*
X007928Y042340D01*
X007861Y042274D01*
X007861Y042007D01*
X007928Y041940D01*
X007667Y042007D02*
X007601Y041940D01*
X007467Y041940D01*
X007400Y042007D01*
X007400Y042274D01*
X007467Y042340D01*
X007601Y042340D01*
X007667Y042274D01*
X007207Y042340D02*
X007207Y042073D01*
X007073Y041940D01*
X006940Y042073D01*
X006940Y042340D01*
X008321Y041940D02*
X008588Y041940D01*
X015740Y041840D02*
X017040Y041840D01*
X017066Y041838D01*
X017092Y041833D01*
X017117Y041825D01*
X017140Y041813D01*
X017162Y041799D01*
X017181Y041781D01*
X017199Y041762D01*
X017213Y041740D01*
X017225Y041717D01*
X017233Y041692D01*
X017238Y041666D01*
X017240Y041640D01*
X016890Y041390D02*
X016510Y041390D01*
X016260Y041390D02*
X015890Y041390D01*
X015540Y041140D02*
X015542Y041114D01*
X015547Y041088D01*
X015555Y041063D01*
X015567Y041040D01*
X015581Y041018D01*
X015599Y040999D01*
X015618Y040981D01*
X015640Y040967D01*
X015663Y040955D01*
X015688Y040947D01*
X015714Y040942D01*
X015740Y040940D01*
X017040Y040940D01*
X017066Y040942D01*
X017092Y040947D01*
X017117Y040955D01*
X017140Y040967D01*
X017162Y040981D01*
X017181Y040999D01*
X017199Y041018D01*
X017213Y041040D01*
X017225Y041063D01*
X017233Y041088D01*
X017238Y041114D01*
X017240Y041140D01*
X015740Y041840D02*
X015714Y041838D01*
X015688Y041833D01*
X015663Y041825D01*
X015640Y041813D01*
X015618Y041799D01*
X015599Y041781D01*
X015581Y041762D01*
X015567Y041740D01*
X015555Y041717D01*
X015547Y041692D01*
X015542Y041666D01*
X015540Y041640D01*
X028540Y041640D02*
X028542Y041666D01*
X028547Y041692D01*
X028555Y041717D01*
X028567Y041740D01*
X028581Y041762D01*
X028599Y041781D01*
X028618Y041799D01*
X028640Y041813D01*
X028663Y041825D01*
X028688Y041833D01*
X028714Y041838D01*
X028740Y041840D01*
X030040Y041840D01*
X030066Y041838D01*
X030092Y041833D01*
X030117Y041825D01*
X030140Y041813D01*
X030162Y041799D01*
X030181Y041781D01*
X030199Y041762D01*
X030213Y041740D01*
X030225Y041717D01*
X030233Y041692D01*
X030238Y041666D01*
X030240Y041640D01*
X029890Y041390D02*
X029510Y041390D01*
X029260Y041390D02*
X028890Y041390D01*
X028540Y041140D02*
X028542Y041114D01*
X028547Y041088D01*
X028555Y041063D01*
X028567Y041040D01*
X028581Y041018D01*
X028599Y040999D01*
X028618Y040981D01*
X028640Y040967D01*
X028663Y040955D01*
X028688Y040947D01*
X028714Y040942D01*
X028740Y040940D01*
X030040Y040940D01*
X030066Y040942D01*
X030092Y040947D01*
X030117Y040955D01*
X030140Y040967D01*
X030162Y040981D01*
X030181Y040999D01*
X030199Y041018D01*
X030213Y041040D01*
X030225Y041063D01*
X030233Y041088D01*
X030238Y041114D01*
X030240Y041140D01*
X041540Y041140D02*
X041542Y041114D01*
X041547Y041088D01*
X041555Y041063D01*
X041567Y041040D01*
X041581Y041018D01*
X041599Y040999D01*
X041618Y040981D01*
X041640Y040967D01*
X041663Y040955D01*
X041688Y040947D01*
X041714Y040942D01*
X041740Y040940D01*
X043040Y040940D01*
X043066Y040942D01*
X043092Y040947D01*
X043117Y040955D01*
X043140Y040967D01*
X043162Y040981D01*
X043181Y040999D01*
X043199Y041018D01*
X043213Y041040D01*
X043225Y041063D01*
X043233Y041088D01*
X043238Y041114D01*
X043240Y041140D01*
X042890Y041390D02*
X042510Y041390D01*
X042260Y041390D02*
X041890Y041390D01*
X041540Y041640D02*
X041542Y041666D01*
X041547Y041692D01*
X041555Y041717D01*
X041567Y041740D01*
X041581Y041762D01*
X041599Y041781D01*
X041618Y041799D01*
X041640Y041813D01*
X041663Y041825D01*
X041688Y041833D01*
X041714Y041838D01*
X041740Y041840D01*
X043040Y041840D01*
X043066Y041838D01*
X043092Y041833D01*
X043117Y041825D01*
X043140Y041813D01*
X043162Y041799D01*
X043181Y041781D01*
X043199Y041762D01*
X043213Y041740D01*
X043225Y041717D01*
X043233Y041692D01*
X043238Y041666D01*
X043240Y041640D01*
X054540Y041640D02*
X054542Y041666D01*
X054547Y041692D01*
X054555Y041717D01*
X054567Y041740D01*
X054581Y041762D01*
X054599Y041781D01*
X054618Y041799D01*
X054640Y041813D01*
X054663Y041825D01*
X054688Y041833D01*
X054714Y041838D01*
X054740Y041840D01*
X056040Y041840D01*
X056066Y041838D01*
X056092Y041833D01*
X056117Y041825D01*
X056140Y041813D01*
X056162Y041799D01*
X056181Y041781D01*
X056199Y041762D01*
X056213Y041740D01*
X056225Y041717D01*
X056233Y041692D01*
X056238Y041666D01*
X056240Y041640D01*
X055890Y041390D02*
X055510Y041390D01*
X055260Y041390D02*
X054890Y041390D01*
X054540Y041140D02*
X054542Y041114D01*
X054547Y041088D01*
X054555Y041063D01*
X054567Y041040D01*
X054581Y041018D01*
X054599Y040999D01*
X054618Y040981D01*
X054640Y040967D01*
X054663Y040955D01*
X054688Y040947D01*
X054714Y040942D01*
X054740Y040940D01*
X056040Y040940D01*
X056066Y040942D01*
X056092Y040947D01*
X056117Y040955D01*
X056140Y040967D01*
X056162Y040981D01*
X056181Y040999D01*
X056199Y041018D01*
X056213Y041040D01*
X056225Y041063D01*
X056233Y041088D01*
X056238Y041114D01*
X056240Y041140D01*
X058765Y041390D02*
X058765Y039890D01*
X059015Y039640D01*
X059515Y039640D01*
X059765Y039890D01*
X059765Y041390D01*
X060015Y041640D01*
X060515Y041640D01*
X060765Y041390D01*
X060765Y039890D01*
X060515Y039640D01*
X060015Y039640D01*
X059765Y039890D01*
X059765Y041390D02*
X059515Y041640D01*
X059015Y041640D01*
X058765Y041390D01*
X058882Y041940D02*
X059015Y041940D01*
X059082Y042007D01*
X059082Y042140D01*
X058948Y042140D01*
X058815Y042007D02*
X058882Y041940D01*
X058815Y042007D02*
X058815Y042274D01*
X058882Y042340D01*
X059015Y042340D01*
X059082Y042274D01*
X059275Y042340D02*
X059542Y041940D01*
X059542Y042340D01*
X059736Y042340D02*
X059736Y041940D01*
X059936Y041940D01*
X060003Y042007D01*
X060003Y042274D01*
X059936Y042340D01*
X059736Y042340D01*
X059275Y042340D02*
X059275Y041940D01*
X060196Y041940D02*
X060463Y041940D01*
X060330Y041940D02*
X060330Y042340D01*
X060196Y042207D01*
D11*
X055510Y041690D02*
X055510Y041390D01*
X055510Y041090D01*
X055260Y041090D02*
X055260Y041390D01*
X055260Y041690D01*
X042510Y041690D02*
X042510Y041390D01*
X042510Y041090D01*
X042260Y041090D02*
X042260Y041390D01*
X042260Y041690D01*
X029510Y041690D02*
X029510Y041390D01*
X029510Y041090D01*
X029260Y041090D02*
X029260Y041390D01*
X029260Y041690D01*
X016510Y041690D02*
X016510Y041390D01*
X016510Y041090D01*
X016260Y041090D02*
X016260Y041390D01*
X016260Y041690D01*
X008440Y022260D02*
X008140Y022260D01*
X007840Y022260D01*
X007840Y022010D02*
X008140Y022010D01*
X008440Y022010D01*
X010520Y009940D02*
X010520Y009640D01*
X010520Y009340D01*
X010770Y009340D02*
X010770Y009640D01*
X010770Y009940D01*
X016270Y009940D02*
X016270Y009640D01*
X016270Y009340D01*
X016520Y009340D02*
X016520Y009640D01*
X016520Y009940D01*
X022020Y009940D02*
X022020Y009640D01*
X022020Y009340D01*
X022270Y009340D02*
X022270Y009640D01*
X022270Y009940D01*
X032270Y010340D02*
X032270Y010640D01*
X032270Y010940D01*
X032520Y010940D02*
X032520Y010640D01*
X032520Y010340D01*
X046770Y009690D02*
X046770Y009390D01*
X046770Y009090D01*
X047020Y009090D02*
X047020Y009390D01*
X047020Y009690D01*
X054270Y009590D02*
X054270Y009890D01*
X054270Y010190D01*
X054520Y010190D02*
X054520Y009890D01*
X054520Y009590D01*
D12*
X062715Y007140D03*
D13*
X036694Y010095D02*
X036300Y010095D01*
X036497Y010095D02*
X036497Y010686D01*
X036300Y010489D01*
X036050Y010587D02*
X035951Y010686D01*
X035754Y010686D01*
X035656Y010587D01*
X035656Y010193D01*
X035754Y010095D01*
X035951Y010095D01*
X036050Y010193D01*
X035423Y010095D02*
X035226Y010095D01*
X035325Y010095D02*
X035325Y010686D01*
X035423Y010686D02*
X035226Y010686D01*
X034685Y012695D02*
X034587Y012695D01*
X034193Y013089D01*
X034094Y013089D01*
X034094Y012695D01*
X034390Y013340D02*
X034390Y013733D01*
X034685Y013635D02*
X034094Y013635D01*
X034390Y013340D01*
X034685Y013984D02*
X034685Y014378D01*
X034587Y014629D02*
X034685Y014727D01*
X034685Y014924D01*
X034587Y015022D01*
X034488Y015022D01*
X034390Y014924D01*
X034390Y014727D01*
X034291Y014629D01*
X034193Y014629D01*
X034094Y014727D01*
X034094Y014924D01*
X034193Y015022D01*
X034291Y015273D02*
X034094Y015470D01*
X034685Y015470D01*
X034685Y015273D02*
X034685Y015667D01*
X034587Y015918D02*
X034685Y016016D01*
X034685Y016213D01*
X034587Y016311D01*
X034390Y016311D01*
X034291Y016213D01*
X034291Y016115D01*
X034390Y015918D01*
X034094Y015918D01*
X034094Y016311D01*
X034390Y016562D02*
X034390Y016956D01*
X034685Y016858D02*
X034094Y016858D01*
X034390Y016562D01*
X034685Y017207D02*
X034094Y017207D01*
X034685Y017601D01*
X034094Y017601D01*
X034094Y013984D02*
X034685Y013984D01*
X040291Y033544D02*
X040094Y033741D01*
X040291Y033938D01*
X040685Y033938D01*
X040685Y034189D02*
X040094Y034189D01*
X040291Y034385D01*
X040094Y034582D01*
X040685Y034582D01*
X040685Y034833D02*
X040291Y035227D01*
X040193Y035227D01*
X040094Y035128D01*
X040094Y034932D01*
X040193Y034833D01*
X040685Y034833D02*
X040685Y035227D01*
X040587Y035478D02*
X040685Y035576D01*
X040685Y035773D01*
X040587Y035871D01*
X040193Y035871D01*
X040094Y035773D01*
X040094Y035576D01*
X040193Y035478D01*
X040291Y035478D01*
X040390Y035576D01*
X040390Y035871D01*
X040390Y036122D02*
X040390Y036319D01*
X040685Y036122D02*
X040094Y036122D01*
X040094Y036516D01*
X040193Y036767D02*
X040094Y036865D01*
X040094Y037062D01*
X040193Y037160D01*
X040587Y036767D01*
X040685Y036865D01*
X040685Y037062D01*
X040587Y037160D01*
X040193Y037160D01*
X040193Y037411D02*
X040094Y037510D01*
X040094Y037707D01*
X040193Y037805D01*
X040291Y037805D01*
X040685Y037411D01*
X040685Y037805D01*
X040587Y038056D02*
X040193Y038450D01*
X040587Y038450D01*
X040685Y038351D01*
X040685Y038154D01*
X040587Y038056D01*
X040193Y038056D01*
X040094Y038154D01*
X040094Y038351D01*
X040193Y038450D01*
X040094Y038700D02*
X040094Y038996D01*
X040193Y039094D01*
X040390Y039094D01*
X040488Y038996D01*
X040488Y038700D01*
X040685Y038700D02*
X040094Y038700D01*
X039429Y040845D02*
X039233Y040845D01*
X039134Y040943D01*
X038883Y040943D02*
X038785Y040845D01*
X038588Y040845D01*
X038490Y040943D01*
X038490Y041337D01*
X038588Y041436D01*
X038785Y041436D01*
X038883Y041337D01*
X039134Y041337D02*
X039233Y041436D01*
X039429Y041436D01*
X039528Y041337D01*
X039528Y041239D01*
X039429Y041140D01*
X039528Y041042D01*
X039528Y040943D01*
X039429Y040845D01*
X039429Y041140D02*
X039331Y041140D01*
X038239Y040943D02*
X038239Y041436D01*
X037845Y041436D02*
X037845Y040943D01*
X037943Y040845D01*
X038140Y040845D01*
X038239Y040943D01*
X040193Y036767D02*
X040587Y036767D01*
X040390Y033938D02*
X040390Y033544D01*
X040291Y033544D02*
X040685Y033544D01*
X050845Y040943D02*
X050943Y040845D01*
X051140Y040845D01*
X051239Y040943D01*
X051239Y041436D01*
X051490Y041337D02*
X051490Y040943D01*
X051588Y040845D01*
X051785Y040845D01*
X051883Y040943D01*
X052134Y041140D02*
X052528Y041140D01*
X052429Y040845D02*
X052429Y041436D01*
X052134Y041140D01*
X051883Y041337D02*
X051785Y041436D01*
X051588Y041436D01*
X051490Y041337D01*
X050845Y041436D02*
X050845Y040943D01*
X053094Y038996D02*
X053193Y039094D01*
X053390Y039094D01*
X053488Y038996D01*
X053488Y038700D01*
X053685Y038700D02*
X053094Y038700D01*
X053094Y038996D01*
X053193Y038450D02*
X053094Y038351D01*
X053094Y038154D01*
X053193Y038056D01*
X053587Y038056D01*
X053193Y038450D01*
X053587Y038450D01*
X053685Y038351D01*
X053685Y038154D01*
X053587Y038056D01*
X053685Y037805D02*
X053685Y037411D01*
X053291Y037805D01*
X053193Y037805D01*
X053094Y037707D01*
X053094Y037510D01*
X053193Y037411D01*
X053193Y037160D02*
X053094Y037062D01*
X053094Y036865D01*
X053193Y036767D01*
X053587Y036767D01*
X053193Y037160D01*
X053587Y037160D01*
X053685Y037062D01*
X053685Y036865D01*
X053587Y036767D01*
X053390Y036319D02*
X053390Y036122D01*
X053390Y035871D02*
X053390Y035576D01*
X053291Y035478D01*
X053193Y035478D01*
X053094Y035576D01*
X053094Y035773D01*
X053193Y035871D01*
X053587Y035871D01*
X053685Y035773D01*
X053685Y035576D01*
X053587Y035478D01*
X053685Y035227D02*
X053685Y034833D01*
X053291Y035227D01*
X053193Y035227D01*
X053094Y035128D01*
X053094Y034932D01*
X053193Y034833D01*
X053094Y034582D02*
X053685Y034582D01*
X053685Y034189D02*
X053094Y034189D01*
X053291Y034385D01*
X053094Y034582D01*
X053291Y033938D02*
X053094Y033741D01*
X053291Y033544D01*
X053685Y033544D01*
X053390Y033544D02*
X053390Y033938D01*
X053291Y033938D02*
X053685Y033938D01*
X053685Y036122D02*
X053094Y036122D01*
X053094Y036516D01*
X027685Y036865D02*
X027587Y036767D01*
X027193Y037160D01*
X027587Y037160D01*
X027685Y037062D01*
X027685Y036865D01*
X027587Y036767D02*
X027193Y036767D01*
X027094Y036865D01*
X027094Y037062D01*
X027193Y037160D01*
X027193Y037411D02*
X027094Y037510D01*
X027094Y037707D01*
X027193Y037805D01*
X027291Y037805D01*
X027685Y037411D01*
X027685Y037805D01*
X027587Y038056D02*
X027685Y038154D01*
X027685Y038351D01*
X027587Y038450D01*
X027193Y038450D01*
X027587Y038056D01*
X027193Y038056D01*
X027094Y038154D01*
X027094Y038351D01*
X027193Y038450D01*
X027094Y038700D02*
X027094Y038996D01*
X027193Y039094D01*
X027390Y039094D01*
X027488Y038996D01*
X027488Y038700D01*
X027685Y038700D02*
X027094Y038700D01*
X026528Y040845D02*
X026134Y040845D01*
X026528Y041239D01*
X026528Y041337D01*
X026429Y041436D01*
X026233Y041436D01*
X026134Y041337D01*
X025883Y041337D02*
X025785Y041436D01*
X025588Y041436D01*
X025490Y041337D01*
X025490Y040943D01*
X025588Y040845D01*
X025785Y040845D01*
X025883Y040943D01*
X025239Y040943D02*
X025239Y041436D01*
X024845Y041436D02*
X024845Y040943D01*
X024943Y040845D01*
X025140Y040845D01*
X025239Y040943D01*
X027094Y036516D02*
X027094Y036122D01*
X027685Y036122D01*
X027587Y035871D02*
X027685Y035773D01*
X027685Y035576D01*
X027587Y035478D01*
X027390Y035576D02*
X027390Y035871D01*
X027587Y035871D02*
X027193Y035871D01*
X027094Y035773D01*
X027094Y035576D01*
X027193Y035478D01*
X027291Y035478D01*
X027390Y035576D01*
X027291Y035227D02*
X027193Y035227D01*
X027094Y035128D01*
X027094Y034932D01*
X027193Y034833D01*
X027094Y034582D02*
X027685Y034582D01*
X027685Y034833D02*
X027291Y035227D01*
X027685Y035227D02*
X027685Y034833D01*
X027291Y034385D02*
X027094Y034582D01*
X027291Y034385D02*
X027094Y034189D01*
X027685Y034189D01*
X027685Y033938D02*
X027291Y033938D01*
X027094Y033741D01*
X027291Y033544D01*
X027685Y033544D01*
X027390Y033544D02*
X027390Y033938D01*
X027390Y036122D02*
X027390Y036319D01*
X014685Y036122D02*
X014094Y036122D01*
X014094Y036516D01*
X014193Y036767D02*
X014094Y036865D01*
X014094Y037062D01*
X014193Y037160D01*
X014587Y036767D01*
X014685Y036865D01*
X014685Y037062D01*
X014587Y037160D01*
X014193Y037160D01*
X014193Y037411D02*
X014094Y037510D01*
X014094Y037707D01*
X014193Y037805D01*
X014291Y037805D01*
X014685Y037411D01*
X014685Y037805D01*
X014587Y038056D02*
X014193Y038450D01*
X014587Y038450D01*
X014685Y038351D01*
X014685Y038154D01*
X014587Y038056D01*
X014193Y038056D01*
X014094Y038154D01*
X014094Y038351D01*
X014193Y038450D01*
X014094Y038700D02*
X014094Y038996D01*
X014193Y039094D01*
X014390Y039094D01*
X014488Y038996D01*
X014488Y038700D01*
X014685Y038700D02*
X014094Y038700D01*
X013528Y040845D02*
X013134Y040845D01*
X013331Y040845D02*
X013331Y041436D01*
X013134Y041239D01*
X012883Y041337D02*
X012785Y041436D01*
X012588Y041436D01*
X012490Y041337D01*
X012490Y040943D01*
X012588Y040845D01*
X012785Y040845D01*
X012883Y040943D01*
X012239Y040943D02*
X012239Y041436D01*
X011845Y041436D02*
X011845Y040943D01*
X011943Y040845D01*
X012140Y040845D01*
X012239Y040943D01*
X014193Y036767D02*
X014587Y036767D01*
X014390Y036319D02*
X014390Y036122D01*
X014390Y035871D02*
X014390Y035576D01*
X014291Y035478D01*
X014193Y035478D01*
X014094Y035576D01*
X014094Y035773D01*
X014193Y035871D01*
X014587Y035871D01*
X014685Y035773D01*
X014685Y035576D01*
X014587Y035478D01*
X014685Y035227D02*
X014685Y034833D01*
X014291Y035227D01*
X014193Y035227D01*
X014094Y035128D01*
X014094Y034932D01*
X014193Y034833D01*
X014094Y034582D02*
X014685Y034582D01*
X014685Y034189D02*
X014094Y034189D01*
X014291Y034385D01*
X014094Y034582D01*
X014291Y033938D02*
X014094Y033741D01*
X014291Y033544D01*
X014685Y033544D01*
X014390Y033544D02*
X014390Y033938D01*
X014291Y033938D02*
X014685Y033938D01*
D14*
X027815Y022890D03*
X027815Y021890D03*
X027815Y020890D03*
X027815Y019890D03*
X027815Y018890D03*
X029965Y018890D03*
X029965Y019890D03*
X029965Y020890D03*
X029965Y021890D03*
X029965Y022890D03*
X038815Y021890D03*
X038815Y020890D03*
X038815Y019890D03*
X038815Y018890D03*
X038815Y017890D03*
X038815Y016890D03*
X038815Y015890D03*
X038815Y014890D03*
X038815Y013890D03*
X038815Y012890D03*
X038815Y011890D03*
X040965Y011890D03*
X040965Y012890D03*
X040965Y013890D03*
X040965Y014890D03*
X040965Y015890D03*
X040965Y016890D03*
X040965Y017890D03*
X040965Y018890D03*
X040965Y019890D03*
X040965Y020890D03*
X040965Y021890D03*
M02*
