G75*
%MOIN*%
%OFA0B0*%
%FSLAX24Y24*%
%IPPOS*%
%LPD*%
%AMOC8*
5,1,8,0,0,1.08239X$1,22.5*
%
%ADD10C,0.0230*%
%ADD11C,0.0560*%
%ADD12OC8,0.0560*%
%ADD13C,0.0560*%
%ADD14C,0.0640*%
%ADD15OC8,0.0630*%
%ADD16C,0.0630*%
%ADD17C,0.0000*%
%ADD18OC8,0.0640*%
%ADD19C,0.0710*%
%ADD20C,0.0500*%
%ADD21C,0.0160*%
%ADD22C,0.0320*%
D10*
X062823Y044774D02*
X063671Y044774D01*
X063671Y045197D02*
X063459Y045197D01*
X062823Y045197D01*
X063035Y045621D02*
X063035Y044350D01*
X063459Y044350D02*
X063459Y045621D01*
X064205Y045409D02*
X064416Y045621D01*
X064840Y045621D01*
X065052Y045409D01*
X064205Y044562D01*
X064416Y044350D01*
X064840Y044350D01*
X065052Y044562D01*
X065052Y045409D01*
X064205Y045409D02*
X064205Y044562D01*
D11*
X054363Y041610D02*
X053803Y041610D01*
X053803Y040610D02*
X054363Y040610D01*
X054363Y039610D02*
X053803Y039610D01*
X053803Y038610D02*
X054363Y038610D01*
X054363Y037610D02*
X053803Y037610D01*
X053803Y036610D02*
X054363Y036610D01*
X054363Y035610D02*
X053803Y035610D01*
X053803Y034610D02*
X054363Y034610D01*
X054363Y033610D02*
X053803Y033610D01*
X053803Y032610D02*
X054363Y032610D01*
X055458Y031640D02*
X055458Y031080D01*
X056458Y031080D02*
X056458Y031640D01*
X057458Y031640D02*
X057458Y031080D01*
X058458Y031080D02*
X058458Y031640D01*
X059458Y031640D02*
X059458Y031080D01*
X060458Y031080D02*
X060458Y031640D01*
X061458Y031640D02*
X061458Y031080D01*
X061458Y028640D02*
X061458Y028080D01*
X060458Y028080D02*
X060458Y028640D01*
X059458Y028640D02*
X059458Y028080D01*
X058458Y028080D02*
X058458Y028640D01*
X057458Y028640D02*
X057458Y028080D01*
X056458Y028080D02*
X056458Y028640D01*
X055458Y028640D02*
X055458Y028080D01*
X051958Y028080D02*
X051958Y028640D01*
X050958Y028640D02*
X050958Y028080D01*
X049958Y028080D02*
X049958Y028640D01*
X048958Y028640D02*
X048958Y028080D01*
X047958Y028080D02*
X047958Y028640D01*
X046958Y028640D02*
X046958Y028080D01*
X045958Y028080D02*
X045958Y028640D01*
X044958Y028640D02*
X044958Y028080D01*
X043958Y028080D02*
X043958Y028640D01*
X042958Y028640D02*
X042958Y028080D01*
X042958Y025640D02*
X042958Y025080D01*
X043958Y025080D02*
X043958Y025640D01*
X044958Y025640D02*
X044958Y025080D01*
X045958Y025080D02*
X045958Y025640D01*
X046958Y025640D02*
X046958Y025080D01*
X047958Y025080D02*
X047958Y025640D01*
X048958Y025640D02*
X048958Y025080D01*
X049958Y025080D02*
X049958Y025640D01*
X050958Y025640D02*
X050958Y025080D01*
X051958Y025080D02*
X051958Y025640D01*
X051958Y021640D02*
X051958Y021080D01*
X050958Y021080D02*
X050958Y021640D01*
X049958Y021640D02*
X049958Y021080D01*
X048958Y021080D02*
X048958Y021640D01*
X047958Y021640D02*
X047958Y021080D01*
X046958Y021080D02*
X046958Y021640D01*
X045958Y021640D02*
X045958Y021080D01*
X044958Y021080D02*
X044958Y021640D01*
X043958Y021640D02*
X043958Y021080D01*
X042958Y021080D02*
X042958Y021640D01*
X042958Y018640D02*
X042958Y018080D01*
X043958Y018080D02*
X043958Y018640D01*
X044958Y018640D02*
X044958Y018080D01*
X045958Y018080D02*
X045958Y018640D01*
X046958Y018640D02*
X046958Y018080D01*
X047958Y018080D02*
X047958Y018640D01*
X048958Y018640D02*
X048958Y018080D01*
X049958Y018080D02*
X049958Y018640D01*
X050958Y018640D02*
X050958Y018080D01*
X051958Y018080D02*
X051958Y018640D01*
X051958Y016390D02*
X051958Y015830D01*
X050958Y015830D02*
X050958Y016390D01*
X049958Y016390D02*
X049958Y015830D01*
X048958Y015830D02*
X048958Y016390D01*
X047958Y016390D02*
X047958Y015830D01*
X046958Y015830D02*
X046958Y016390D01*
X045958Y016390D02*
X045958Y015830D01*
X044958Y015830D02*
X044958Y016390D01*
X043958Y016390D02*
X043958Y015830D01*
X042958Y015830D02*
X042958Y016390D01*
X042958Y013390D02*
X042958Y012830D01*
X043958Y012830D02*
X043958Y013390D01*
X044958Y013390D02*
X044958Y012830D01*
X045958Y012830D02*
X045958Y013390D01*
X046958Y013390D02*
X046958Y012830D01*
X047958Y012830D02*
X047958Y013390D01*
X048958Y013390D02*
X048958Y012830D01*
X049958Y012830D02*
X049958Y013390D01*
X050958Y013390D02*
X050958Y012830D01*
X051958Y012830D02*
X051958Y013390D01*
X039238Y022360D02*
X038678Y022360D01*
X038678Y023360D02*
X039238Y023360D01*
X039238Y024360D02*
X038678Y024360D01*
X038678Y025360D02*
X039238Y025360D01*
X039238Y026360D02*
X038678Y026360D01*
X038678Y027360D02*
X039238Y027360D01*
X039238Y028360D02*
X038678Y028360D01*
X036238Y028360D02*
X035678Y028360D01*
X035678Y027360D02*
X036238Y027360D01*
X036238Y026360D02*
X035678Y026360D01*
X035678Y025360D02*
X036238Y025360D01*
X036238Y024360D02*
X035678Y024360D01*
X035678Y023360D02*
X036238Y023360D01*
X036238Y022360D02*
X035678Y022360D01*
X033738Y022360D02*
X033178Y022360D01*
X033178Y023360D02*
X033738Y023360D01*
X033738Y024360D02*
X033178Y024360D01*
X033178Y025360D02*
X033738Y025360D01*
X033738Y026360D02*
X033178Y026360D01*
X033178Y027360D02*
X033738Y027360D01*
X033738Y028360D02*
X033178Y028360D01*
X030738Y028360D02*
X030178Y028360D01*
X030178Y027360D02*
X030738Y027360D01*
X030738Y026360D02*
X030178Y026360D01*
X030178Y025360D02*
X030738Y025360D01*
X030738Y024360D02*
X030178Y024360D01*
X030178Y023360D02*
X030738Y023360D01*
X030738Y022360D02*
X030178Y022360D01*
X027238Y022360D02*
X026678Y022360D01*
X026678Y023360D02*
X027238Y023360D01*
X027238Y024360D02*
X026678Y024360D01*
X026678Y025360D02*
X027238Y025360D01*
X027238Y026360D02*
X026678Y026360D01*
X026678Y027360D02*
X027238Y027360D01*
X027238Y028360D02*
X026678Y028360D01*
X024238Y028360D02*
X023678Y028360D01*
X023678Y027360D02*
X024238Y027360D01*
X024238Y026360D02*
X023678Y026360D01*
X023678Y025360D02*
X024238Y025360D01*
X024238Y024360D02*
X023678Y024360D01*
X023678Y023360D02*
X024238Y023360D01*
X024238Y022360D02*
X023678Y022360D01*
X023708Y012640D02*
X023708Y012080D01*
X024708Y012080D02*
X024708Y012640D01*
X025708Y012640D02*
X025708Y012080D01*
X026708Y012080D02*
X026708Y012640D01*
X029833Y012640D02*
X029833Y012080D01*
X030833Y012080D02*
X030833Y012640D01*
X031833Y012640D02*
X031833Y012080D01*
X032833Y012080D02*
X032833Y012640D01*
X033833Y012640D02*
X033833Y012080D01*
X034833Y012080D02*
X034833Y012640D01*
X035833Y012640D02*
X035833Y012080D01*
X035833Y009640D02*
X035833Y009080D01*
X034833Y009080D02*
X034833Y009640D01*
X033833Y009640D02*
X033833Y009080D01*
X032833Y009080D02*
X032833Y009640D01*
X031833Y009640D02*
X031833Y009080D01*
X030833Y009080D02*
X030833Y009640D01*
X029833Y009640D02*
X029833Y009080D01*
X026708Y009080D02*
X026708Y009640D01*
X025708Y009640D02*
X025708Y009080D01*
X024708Y009080D02*
X024708Y009640D01*
X023708Y009640D02*
X023708Y009080D01*
X022708Y009080D02*
X022708Y009640D01*
X021708Y009640D02*
X021708Y009080D01*
X020708Y009080D02*
X020708Y009640D01*
X020708Y012080D02*
X020708Y012640D01*
X021708Y012640D02*
X021708Y012080D01*
X022708Y012080D02*
X022708Y012640D01*
X016208Y012640D02*
X016208Y012080D01*
X015208Y012080D02*
X015208Y012640D01*
X014208Y012640D02*
X014208Y012080D01*
X013208Y012080D02*
X013208Y012640D01*
X013208Y009640D02*
X013208Y009080D01*
X014208Y009080D02*
X014208Y009640D01*
X015208Y009640D02*
X015208Y009080D01*
X016208Y009080D02*
X016208Y009640D01*
X016238Y032610D02*
X015678Y032610D01*
X015678Y033610D02*
X016238Y033610D01*
X016238Y034610D02*
X015678Y034610D01*
X015678Y035610D02*
X016238Y035610D01*
X016238Y036610D02*
X015678Y036610D01*
X015678Y037610D02*
X016238Y037610D01*
X016238Y038610D02*
X015678Y038610D01*
X015678Y039610D02*
X016238Y039610D01*
X016238Y040610D02*
X015678Y040610D01*
X015678Y041610D02*
X016238Y041610D01*
X018678Y041610D02*
X019238Y041610D01*
X019238Y040610D02*
X018678Y040610D01*
X018678Y039610D02*
X019238Y039610D01*
X019238Y038610D02*
X018678Y038610D01*
X018678Y037610D02*
X019238Y037610D01*
X019238Y036610D02*
X018678Y036610D01*
X018678Y035610D02*
X019238Y035610D01*
X019238Y034610D02*
X018678Y034610D01*
X018678Y033610D02*
X019238Y033610D01*
X019238Y032610D02*
X018678Y032610D01*
X025803Y032610D02*
X026363Y032610D01*
X026363Y033610D02*
X025803Y033610D01*
X025803Y034610D02*
X026363Y034610D01*
X026363Y035610D02*
X025803Y035610D01*
X025803Y036610D02*
X026363Y036610D01*
X026363Y037610D02*
X025803Y037610D01*
X025803Y038610D02*
X026363Y038610D01*
X026363Y039610D02*
X025803Y039610D01*
X025803Y040610D02*
X026363Y040610D01*
X026363Y041610D02*
X025803Y041610D01*
X028803Y041610D02*
X029363Y041610D01*
X029363Y040610D02*
X028803Y040610D01*
X028803Y039610D02*
X029363Y039610D01*
X029363Y038610D02*
X028803Y038610D01*
X028803Y037610D02*
X029363Y037610D01*
X029363Y036610D02*
X028803Y036610D01*
X028803Y035610D02*
X029363Y035610D01*
X029363Y034610D02*
X028803Y034610D01*
X028803Y033610D02*
X029363Y033610D01*
X029363Y032610D02*
X028803Y032610D01*
X032803Y032610D02*
X033363Y032610D01*
X033363Y033610D02*
X032803Y033610D01*
X032803Y034610D02*
X033363Y034610D01*
X033363Y035610D02*
X032803Y035610D01*
X032803Y036610D02*
X033363Y036610D01*
X033363Y037610D02*
X032803Y037610D01*
X032803Y038610D02*
X033363Y038610D01*
X033363Y039610D02*
X032803Y039610D01*
X032803Y040610D02*
X033363Y040610D01*
X033363Y041610D02*
X032803Y041610D01*
X035803Y041610D02*
X036363Y041610D01*
X036363Y040610D02*
X035803Y040610D01*
X035803Y039610D02*
X036363Y039610D01*
X036363Y038610D02*
X035803Y038610D01*
X035803Y037610D02*
X036363Y037610D01*
X036363Y036610D02*
X035803Y036610D01*
X035803Y035610D02*
X036363Y035610D01*
X036363Y034610D02*
X035803Y034610D01*
X035803Y033610D02*
X036363Y033610D01*
X036363Y032610D02*
X035803Y032610D01*
X038678Y032610D02*
X039238Y032610D01*
X039238Y033610D02*
X038678Y033610D01*
X038678Y034610D02*
X039238Y034610D01*
X039238Y035610D02*
X038678Y035610D01*
X038678Y036610D02*
X039238Y036610D01*
X039238Y037610D02*
X038678Y037610D01*
X038678Y038610D02*
X039238Y038610D01*
X039238Y039610D02*
X038678Y039610D01*
X038678Y040610D02*
X039238Y040610D01*
X039238Y041610D02*
X038678Y041610D01*
X041678Y041610D02*
X042238Y041610D01*
X042238Y040610D02*
X041678Y040610D01*
X041678Y039610D02*
X042238Y039610D01*
X042238Y038610D02*
X041678Y038610D01*
X041678Y037610D02*
X042238Y037610D01*
X042238Y036610D02*
X041678Y036610D01*
X041678Y035610D02*
X042238Y035610D01*
X042238Y034610D02*
X041678Y034610D01*
X041678Y033610D02*
X042238Y033610D01*
X042238Y032610D02*
X041678Y032610D01*
X044678Y035610D02*
X045238Y035610D01*
X045238Y036610D02*
X044678Y036610D01*
X044678Y037610D02*
X045238Y037610D01*
X045238Y038610D02*
X044678Y038610D01*
X044678Y039610D02*
X045238Y039610D01*
X045238Y040610D02*
X044678Y040610D01*
X044678Y041610D02*
X045238Y041610D01*
X047678Y041610D02*
X048238Y041610D01*
X048238Y040610D02*
X047678Y040610D01*
X047678Y039610D02*
X048238Y039610D01*
X048238Y038610D02*
X047678Y038610D01*
X047678Y037610D02*
X048238Y037610D01*
X048238Y036610D02*
X047678Y036610D01*
X047678Y035610D02*
X048238Y035610D01*
X050803Y035610D02*
X051363Y035610D01*
X051363Y034610D02*
X050803Y034610D01*
X050803Y033610D02*
X051363Y033610D01*
X051363Y032610D02*
X050803Y032610D01*
X050803Y036610D02*
X051363Y036610D01*
X051363Y037610D02*
X050803Y037610D01*
X050803Y038610D02*
X051363Y038610D01*
X051363Y039610D02*
X050803Y039610D01*
X050803Y040610D02*
X051363Y040610D01*
X051363Y041610D02*
X050803Y041610D01*
D12*
X052083Y043235D03*
X054083Y043235D03*
X055708Y040610D03*
X055708Y039610D03*
X055708Y038610D03*
X055708Y037610D03*
X055708Y036610D03*
X055708Y035610D03*
X055708Y034610D03*
X055708Y033610D03*
X058708Y033610D03*
X058708Y034610D03*
X058708Y035610D03*
X058708Y036610D03*
X058708Y037610D03*
X058708Y038610D03*
X058708Y039610D03*
X058708Y040610D03*
X047958Y043235D03*
X045958Y043235D03*
X041958Y043235D03*
X039958Y043235D03*
X037458Y043860D03*
X035458Y043860D03*
X029083Y043735D03*
X027083Y043735D03*
X023958Y039610D03*
X023958Y038610D03*
X023958Y037610D03*
X023958Y036610D03*
X023958Y035610D03*
X023958Y034610D03*
X023958Y033610D03*
X023958Y032610D03*
X020958Y032610D03*
X020958Y033610D03*
X020958Y034610D03*
X020958Y035610D03*
X020958Y036610D03*
X020958Y037610D03*
X020958Y038610D03*
X020958Y039610D03*
X018958Y043735D03*
X016958Y043735D03*
X024958Y029860D03*
X026958Y029860D03*
X031458Y029860D03*
X033458Y029860D03*
X036958Y029860D03*
X038958Y029860D03*
X053458Y027360D03*
X054083Y028610D03*
X054083Y030610D03*
X053458Y025360D03*
X053458Y018360D03*
X055458Y018360D03*
X055458Y013110D03*
X053458Y013110D03*
X028333Y012360D03*
X028333Y010360D03*
X019208Y010360D03*
X017708Y009110D03*
X017708Y012110D03*
X019208Y012360D03*
X011458Y012360D03*
X011458Y010360D03*
X014958Y023360D03*
X017958Y023360D03*
X010458Y027360D03*
X007458Y027360D03*
X007458Y029610D03*
X008458Y029610D03*
D13*
X012958Y029360D03*
X012958Y026360D03*
X018958Y026360D03*
X018958Y029360D03*
D14*
X008348Y025960D02*
X008348Y025320D01*
X006568Y025320D02*
X006568Y025960D01*
X006568Y023400D02*
X006568Y022760D01*
X008348Y022760D02*
X008348Y023400D01*
D15*
X012458Y023360D03*
X063458Y009610D03*
X063833Y011610D03*
X063833Y012610D03*
X063833Y013610D03*
X063833Y014610D03*
X063833Y015610D03*
X063833Y016610D03*
X063833Y017610D03*
X063833Y018610D03*
X063833Y019610D03*
X063833Y020610D03*
X063833Y021610D03*
X063833Y022610D03*
X063833Y023610D03*
X063833Y024610D03*
X063833Y025610D03*
X063833Y026610D03*
X063833Y027610D03*
X063833Y028610D03*
X063833Y029610D03*
X063833Y030610D03*
X063833Y031610D03*
X063833Y032610D03*
X063833Y033610D03*
X063833Y034610D03*
X063833Y035610D03*
X063833Y036610D03*
X063833Y037610D03*
X063833Y038610D03*
X063833Y039610D03*
X063833Y040610D03*
X063833Y041610D03*
X063833Y042610D03*
X065833Y041610D03*
X065833Y040610D03*
X065833Y039610D03*
X065833Y038610D03*
X065833Y037610D03*
X065833Y036610D03*
X065833Y035610D03*
X065833Y034610D03*
X065833Y033610D03*
X065833Y032610D03*
X065833Y031610D03*
X065833Y030610D03*
X065833Y029610D03*
X065833Y028610D03*
X065833Y027610D03*
X065833Y026610D03*
X065833Y025610D03*
X065833Y024610D03*
X065833Y023610D03*
X065833Y022610D03*
X065833Y021610D03*
X065833Y020610D03*
X065833Y019610D03*
X065833Y018610D03*
X065833Y017610D03*
X065833Y016610D03*
X065833Y015610D03*
X065833Y014610D03*
X065833Y013610D03*
X065833Y012610D03*
X065833Y011610D03*
D16*
X064458Y009610D03*
X065833Y042610D03*
X013458Y023360D03*
D17*
X004933Y007420D02*
X004933Y046800D01*
X067933Y046800D01*
X067933Y007420D01*
X004933Y007420D01*
X005783Y009610D02*
X005785Y009657D01*
X005791Y009703D01*
X005801Y009749D01*
X005814Y009793D01*
X005832Y009837D01*
X005853Y009878D01*
X005877Y009918D01*
X005905Y009956D01*
X005936Y009991D01*
X005970Y010023D01*
X006006Y010052D01*
X006045Y010078D01*
X006085Y010101D01*
X006128Y010120D01*
X006172Y010136D01*
X006217Y010148D01*
X006263Y010156D01*
X006310Y010160D01*
X006356Y010160D01*
X006403Y010156D01*
X006449Y010148D01*
X006494Y010136D01*
X006538Y010120D01*
X006581Y010101D01*
X006621Y010078D01*
X006660Y010052D01*
X006696Y010023D01*
X006730Y009991D01*
X006761Y009956D01*
X006789Y009918D01*
X006813Y009878D01*
X006834Y009837D01*
X006852Y009793D01*
X006865Y009749D01*
X006875Y009703D01*
X006881Y009657D01*
X006883Y009610D01*
X006881Y009563D01*
X006875Y009517D01*
X006865Y009471D01*
X006852Y009427D01*
X006834Y009383D01*
X006813Y009342D01*
X006789Y009302D01*
X006761Y009264D01*
X006730Y009229D01*
X006696Y009197D01*
X006660Y009168D01*
X006621Y009142D01*
X006581Y009119D01*
X006538Y009100D01*
X006494Y009084D01*
X006449Y009072D01*
X006403Y009064D01*
X006356Y009060D01*
X006310Y009060D01*
X006263Y009064D01*
X006217Y009072D01*
X006172Y009084D01*
X006128Y009100D01*
X006085Y009119D01*
X006045Y009142D01*
X006006Y009168D01*
X005970Y009197D01*
X005936Y009229D01*
X005905Y009264D01*
X005877Y009302D01*
X005853Y009342D01*
X005832Y009383D01*
X005814Y009427D01*
X005801Y009471D01*
X005791Y009517D01*
X005785Y009563D01*
X005783Y009610D01*
X005783Y044610D02*
X005785Y044657D01*
X005791Y044703D01*
X005801Y044749D01*
X005814Y044793D01*
X005832Y044837D01*
X005853Y044878D01*
X005877Y044918D01*
X005905Y044956D01*
X005936Y044991D01*
X005970Y045023D01*
X006006Y045052D01*
X006045Y045078D01*
X006085Y045101D01*
X006128Y045120D01*
X006172Y045136D01*
X006217Y045148D01*
X006263Y045156D01*
X006310Y045160D01*
X006356Y045160D01*
X006403Y045156D01*
X006449Y045148D01*
X006494Y045136D01*
X006538Y045120D01*
X006581Y045101D01*
X006621Y045078D01*
X006660Y045052D01*
X006696Y045023D01*
X006730Y044991D01*
X006761Y044956D01*
X006789Y044918D01*
X006813Y044878D01*
X006834Y044837D01*
X006852Y044793D01*
X006865Y044749D01*
X006875Y044703D01*
X006881Y044657D01*
X006883Y044610D01*
X006881Y044563D01*
X006875Y044517D01*
X006865Y044471D01*
X006852Y044427D01*
X006834Y044383D01*
X006813Y044342D01*
X006789Y044302D01*
X006761Y044264D01*
X006730Y044229D01*
X006696Y044197D01*
X006660Y044168D01*
X006621Y044142D01*
X006581Y044119D01*
X006538Y044100D01*
X006494Y044084D01*
X006449Y044072D01*
X006403Y044064D01*
X006356Y044060D01*
X006310Y044060D01*
X006263Y044064D01*
X006217Y044072D01*
X006172Y044084D01*
X006128Y044100D01*
X006085Y044119D01*
X006045Y044142D01*
X006006Y044168D01*
X005970Y044197D01*
X005936Y044229D01*
X005905Y044264D01*
X005877Y044302D01*
X005853Y044342D01*
X005832Y044383D01*
X005814Y044427D01*
X005801Y044471D01*
X005791Y044517D01*
X005785Y044563D01*
X005783Y044610D01*
X066283Y044610D02*
X066285Y044657D01*
X066291Y044703D01*
X066301Y044749D01*
X066314Y044793D01*
X066332Y044837D01*
X066353Y044878D01*
X066377Y044918D01*
X066405Y044956D01*
X066436Y044991D01*
X066470Y045023D01*
X066506Y045052D01*
X066545Y045078D01*
X066585Y045101D01*
X066628Y045120D01*
X066672Y045136D01*
X066717Y045148D01*
X066763Y045156D01*
X066810Y045160D01*
X066856Y045160D01*
X066903Y045156D01*
X066949Y045148D01*
X066994Y045136D01*
X067038Y045120D01*
X067081Y045101D01*
X067121Y045078D01*
X067160Y045052D01*
X067196Y045023D01*
X067230Y044991D01*
X067261Y044956D01*
X067289Y044918D01*
X067313Y044878D01*
X067334Y044837D01*
X067352Y044793D01*
X067365Y044749D01*
X067375Y044703D01*
X067381Y044657D01*
X067383Y044610D01*
X067381Y044563D01*
X067375Y044517D01*
X067365Y044471D01*
X067352Y044427D01*
X067334Y044383D01*
X067313Y044342D01*
X067289Y044302D01*
X067261Y044264D01*
X067230Y044229D01*
X067196Y044197D01*
X067160Y044168D01*
X067121Y044142D01*
X067081Y044119D01*
X067038Y044100D01*
X066994Y044084D01*
X066949Y044072D01*
X066903Y044064D01*
X066856Y044060D01*
X066810Y044060D01*
X066763Y044064D01*
X066717Y044072D01*
X066672Y044084D01*
X066628Y044100D01*
X066585Y044119D01*
X066545Y044142D01*
X066506Y044168D01*
X066470Y044197D01*
X066436Y044229D01*
X066405Y044264D01*
X066377Y044302D01*
X066353Y044342D01*
X066332Y044383D01*
X066314Y044427D01*
X066301Y044471D01*
X066291Y044517D01*
X066285Y044563D01*
X066283Y044610D01*
X066283Y009610D02*
X066285Y009657D01*
X066291Y009703D01*
X066301Y009749D01*
X066314Y009793D01*
X066332Y009837D01*
X066353Y009878D01*
X066377Y009918D01*
X066405Y009956D01*
X066436Y009991D01*
X066470Y010023D01*
X066506Y010052D01*
X066545Y010078D01*
X066585Y010101D01*
X066628Y010120D01*
X066672Y010136D01*
X066717Y010148D01*
X066763Y010156D01*
X066810Y010160D01*
X066856Y010160D01*
X066903Y010156D01*
X066949Y010148D01*
X066994Y010136D01*
X067038Y010120D01*
X067081Y010101D01*
X067121Y010078D01*
X067160Y010052D01*
X067196Y010023D01*
X067230Y009991D01*
X067261Y009956D01*
X067289Y009918D01*
X067313Y009878D01*
X067334Y009837D01*
X067352Y009793D01*
X067365Y009749D01*
X067375Y009703D01*
X067381Y009657D01*
X067383Y009610D01*
X067381Y009563D01*
X067375Y009517D01*
X067365Y009471D01*
X067352Y009427D01*
X067334Y009383D01*
X067313Y009342D01*
X067289Y009302D01*
X067261Y009264D01*
X067230Y009229D01*
X067196Y009197D01*
X067160Y009168D01*
X067121Y009142D01*
X067081Y009119D01*
X067038Y009100D01*
X066994Y009084D01*
X066949Y009072D01*
X066903Y009064D01*
X066856Y009060D01*
X066810Y009060D01*
X066763Y009064D01*
X066717Y009072D01*
X066672Y009084D01*
X066628Y009100D01*
X066585Y009119D01*
X066545Y009142D01*
X066506Y009168D01*
X066470Y009197D01*
X066436Y009229D01*
X066405Y009264D01*
X066377Y009302D01*
X066353Y009342D01*
X066332Y009383D01*
X066314Y009427D01*
X066301Y009471D01*
X066291Y009517D01*
X066285Y009563D01*
X066283Y009610D01*
D18*
X061333Y009610D03*
X060333Y009610D03*
X060333Y010610D03*
X061333Y010610D03*
X061333Y013610D03*
X060333Y013610D03*
X060333Y014610D03*
X061333Y014610D03*
X061333Y015610D03*
X060333Y015610D03*
X060333Y016610D03*
X061333Y016610D03*
X061333Y017610D03*
X060333Y017610D03*
X060333Y018610D03*
X061333Y018610D03*
X061333Y019610D03*
X060333Y019610D03*
X060333Y020610D03*
X060333Y021610D03*
X061333Y021610D03*
X061333Y020610D03*
X061333Y022610D03*
X060333Y022610D03*
X060333Y023610D03*
X061333Y023610D03*
X061333Y024610D03*
X060333Y024610D03*
X060333Y025610D03*
X061333Y025610D03*
X061333Y026610D03*
X060333Y026610D03*
X060333Y033610D03*
X061333Y033610D03*
X061333Y034610D03*
X060333Y034610D03*
X060333Y035610D03*
X061333Y035610D03*
X061333Y036610D03*
X060333Y036610D03*
X060333Y037610D03*
X061333Y037610D03*
X061333Y038610D03*
X060333Y038610D03*
X060333Y039610D03*
X060333Y040610D03*
X061333Y040610D03*
X061333Y039610D03*
X061333Y043610D03*
X060333Y043610D03*
X060333Y044610D03*
X061333Y044610D03*
X054958Y010610D03*
X053958Y010610D03*
X052958Y010610D03*
X051958Y010610D03*
X050958Y010610D03*
X049958Y010610D03*
X048958Y010610D03*
X047958Y010610D03*
X046958Y010610D03*
X045958Y010610D03*
X044958Y010610D03*
X043958Y010610D03*
X042958Y010610D03*
X041958Y010610D03*
X040958Y010610D03*
X039958Y010610D03*
X038958Y010610D03*
X037958Y010610D03*
X037958Y009610D03*
X038958Y009610D03*
X039958Y009610D03*
X040958Y009610D03*
X041958Y009610D03*
X042958Y009610D03*
X043958Y009610D03*
X044958Y009610D03*
X045958Y009610D03*
X046958Y009610D03*
X047958Y009610D03*
X048958Y009610D03*
X049958Y009610D03*
X050958Y009610D03*
X051958Y009610D03*
X052958Y009610D03*
X053958Y009610D03*
X054958Y009610D03*
X009458Y009610D03*
X008458Y009610D03*
X008458Y010610D03*
X009458Y010610D03*
X007833Y013610D03*
X006833Y013610D03*
X006833Y014610D03*
X007833Y014610D03*
X007833Y015610D03*
X006833Y015610D03*
X006833Y016610D03*
X007833Y016610D03*
X007833Y017610D03*
X006833Y017610D03*
X006833Y018610D03*
X007833Y018610D03*
X007833Y019610D03*
X006833Y019610D03*
X006833Y020610D03*
X007833Y020610D03*
X007833Y033610D03*
X006833Y033610D03*
X006833Y034610D03*
X007833Y034610D03*
X007833Y035610D03*
X006833Y035610D03*
X006833Y036610D03*
X007833Y036610D03*
X007833Y037610D03*
X006833Y037610D03*
X006833Y038610D03*
X007833Y038610D03*
X007833Y039610D03*
X006833Y039610D03*
X006833Y040610D03*
X007833Y040610D03*
X008458Y043610D03*
X008458Y044610D03*
X009458Y044610D03*
X009458Y043610D03*
D19*
X056099Y043715D02*
X056099Y043005D01*
X058068Y043005D02*
X058068Y043715D01*
D20*
X035958Y031235D03*
X031458Y023360D03*
X028083Y021735D03*
X030083Y021110D03*
X038958Y016360D03*
X038958Y011860D03*
X029208Y008610D03*
X027583Y008610D03*
X016208Y016985D03*
X010958Y017610D03*
X016208Y021235D03*
X030958Y041610D03*
X035458Y042235D03*
X035458Y042985D03*
X046458Y024110D03*
X054583Y017735D03*
X054083Y017235D03*
X054083Y016110D03*
X056958Y017110D03*
X059333Y012985D03*
X049958Y011360D03*
X056958Y023235D03*
D21*
X050833Y023235D01*
X049833Y022235D01*
X044833Y022235D01*
X043958Y021360D01*
X044958Y021360D02*
X044958Y021110D01*
X045458Y020610D01*
X045958Y020610D01*
X046333Y020235D01*
X046833Y020235D01*
X047208Y019860D01*
X047708Y019860D01*
X048083Y019485D01*
X048583Y019485D01*
X048958Y019110D01*
X056958Y019110D01*
X058458Y017610D01*
X060333Y017610D01*
X060833Y017110D02*
X056958Y017110D01*
X056546Y017504D02*
X055105Y017504D01*
X055067Y017412D02*
X055153Y017622D01*
X055153Y017816D01*
X055210Y017760D01*
X055458Y017760D01*
X055458Y018360D01*
X054858Y018360D01*
X054858Y018238D01*
X054697Y018305D01*
X054470Y018305D01*
X054260Y018218D01*
X054177Y018135D01*
X054058Y018135D01*
X054058Y018609D01*
X053957Y018710D01*
X054960Y018710D01*
X054858Y018609D01*
X054858Y018360D01*
X055458Y018360D01*
X055458Y018360D01*
X055458Y018360D01*
X055458Y017760D01*
X055707Y017760D01*
X056058Y018111D01*
X056058Y018360D01*
X056058Y018609D01*
X055957Y018710D01*
X056793Y018710D01*
X057993Y017510D01*
X057364Y017510D01*
X057281Y017593D01*
X057072Y017680D01*
X056845Y017680D01*
X056635Y017593D01*
X056475Y017433D01*
X056388Y017223D01*
X056388Y017010D01*
X054607Y017010D01*
X054653Y017122D01*
X054653Y017165D01*
X054697Y017165D01*
X054906Y017252D01*
X055067Y017412D01*
X055000Y017346D02*
X056439Y017346D01*
X056388Y017187D02*
X054750Y017187D01*
X054615Y017029D02*
X056388Y017029D01*
X056803Y017663D02*
X055153Y017663D01*
X055458Y017821D02*
X055458Y017821D01*
X055458Y017980D02*
X055458Y017980D01*
X055458Y018138D02*
X055458Y018138D01*
X055458Y018297D02*
X055458Y018297D01*
X055458Y018360D02*
X055458Y018360D01*
X056058Y018360D01*
X055458Y018360D01*
X054858Y018297D02*
X054717Y018297D01*
X054858Y018455D02*
X054058Y018455D01*
X054058Y018297D02*
X054449Y018297D01*
X054180Y018138D02*
X054058Y018138D01*
X054053Y018614D02*
X054863Y018614D01*
X054583Y017735D02*
X053208Y017735D01*
X053083Y017610D01*
X050958Y017610D01*
X050208Y016860D01*
X044583Y016860D01*
X043958Y016235D01*
X043958Y016110D01*
X044958Y016110D02*
X044958Y015860D01*
X045458Y015360D01*
X045958Y015360D01*
X046333Y014985D01*
X046833Y014985D01*
X047208Y014610D01*
X047708Y014610D01*
X048083Y014235D01*
X048583Y014235D01*
X048958Y013860D01*
X055708Y013860D01*
X055958Y013610D01*
X060333Y013610D01*
X060833Y014110D02*
X055958Y014110D01*
X055833Y014235D01*
X049083Y014235D01*
X048708Y014610D01*
X048208Y014610D01*
X047833Y014985D01*
X047333Y014985D01*
X046958Y015360D01*
X046458Y015360D01*
X045958Y015860D01*
X045958Y016110D01*
X046958Y016110D02*
X046958Y015860D01*
X047458Y015360D01*
X047958Y015360D01*
X048333Y014985D01*
X048833Y014985D01*
X049208Y014610D01*
X060333Y014610D01*
X060833Y014110D02*
X061333Y014610D01*
X061804Y014176D02*
X063370Y014176D01*
X063435Y014110D02*
X063198Y013873D01*
X063198Y013347D01*
X063435Y013110D01*
X063198Y012873D01*
X063198Y012347D01*
X063353Y012192D01*
X063353Y012028D01*
X063198Y011873D01*
X063198Y011347D01*
X063570Y010975D01*
X063790Y010975D01*
X063978Y010786D01*
X063978Y010028D01*
X063958Y010008D01*
X063721Y010245D01*
X063458Y010245D01*
X063195Y010245D01*
X062823Y009873D01*
X062823Y009610D01*
X062823Y009347D01*
X063195Y008975D01*
X063458Y008975D01*
X063458Y009610D01*
X062823Y009610D01*
X063458Y009610D01*
X063458Y009610D01*
X063458Y009610D01*
X063458Y010245D01*
X063458Y009610D01*
X063458Y009610D01*
X063458Y008975D01*
X063721Y008975D01*
X063958Y009212D01*
X063978Y009192D01*
X063978Y009059D01*
X063385Y008465D01*
X061813Y008465D01*
X061813Y009185D01*
X061973Y009345D01*
X061973Y009875D01*
X061813Y010035D01*
X061813Y010185D01*
X061973Y010345D01*
X061973Y010875D01*
X061598Y011250D01*
X061068Y011250D01*
X060833Y011015D01*
X060598Y011250D01*
X060068Y011250D01*
X059693Y010875D01*
X059693Y010345D01*
X059853Y010185D01*
X059853Y010035D01*
X059693Y009875D01*
X059693Y009345D01*
X059853Y009185D01*
X059853Y008465D01*
X056938Y008465D01*
X056938Y011080D01*
X056865Y011257D01*
X056730Y011392D01*
X055612Y012510D01*
X055707Y012510D01*
X056058Y012861D01*
X056058Y013110D01*
X056058Y013210D01*
X058810Y013210D01*
X058763Y013098D01*
X058763Y012872D01*
X058850Y012662D01*
X059010Y012502D01*
X059220Y012415D01*
X059447Y012415D01*
X059656Y012502D01*
X059739Y012585D01*
X060788Y012585D01*
X060935Y012646D01*
X061259Y012970D01*
X061598Y012970D01*
X061973Y013345D01*
X061973Y013875D01*
X061738Y014110D01*
X061973Y014345D01*
X061973Y014875D01*
X061738Y015110D01*
X061973Y015345D01*
X061973Y015875D01*
X061738Y016110D01*
X061973Y016345D01*
X061973Y016875D01*
X061738Y017110D01*
X061973Y017345D01*
X061973Y017875D01*
X061738Y018110D01*
X061973Y018345D01*
X061973Y018875D01*
X061738Y019110D01*
X061973Y019345D01*
X061973Y019875D01*
X061738Y020110D01*
X061973Y020345D01*
X061973Y020875D01*
X061738Y021110D01*
X061753Y021125D01*
X061994Y020883D01*
X062107Y020771D01*
X062254Y020710D01*
X063198Y020710D01*
X063198Y020347D01*
X063435Y020110D01*
X063198Y019873D01*
X063198Y019347D01*
X063435Y019110D01*
X063198Y018873D01*
X063198Y018347D01*
X063435Y018110D01*
X063198Y017873D01*
X063198Y017347D01*
X063435Y017110D01*
X063198Y016873D01*
X063198Y016347D01*
X063435Y016110D01*
X063198Y015873D01*
X063198Y015347D01*
X063435Y015110D01*
X063198Y014873D01*
X063198Y014347D01*
X063435Y014110D01*
X063342Y014017D02*
X061831Y014017D01*
X061973Y013859D02*
X063198Y013859D01*
X063198Y013700D02*
X061973Y013700D01*
X061973Y013542D02*
X063198Y013542D01*
X063198Y013383D02*
X061973Y013383D01*
X061853Y013225D02*
X063321Y013225D01*
X063391Y013066D02*
X061694Y013066D01*
X061197Y012908D02*
X063233Y012908D01*
X063198Y012749D02*
X061038Y012749D01*
X060801Y012591D02*
X063198Y012591D01*
X063198Y012432D02*
X059488Y012432D01*
X059179Y012432D02*
X055690Y012432D01*
X055787Y012591D02*
X058922Y012591D01*
X058814Y012749D02*
X055946Y012749D01*
X056058Y012908D02*
X058763Y012908D01*
X058763Y013066D02*
X056058Y013066D01*
X056058Y013110D02*
X055458Y013110D01*
X056058Y013110D01*
X055458Y013110D02*
X055458Y013110D01*
X055849Y012274D02*
X063272Y012274D01*
X063353Y012115D02*
X056007Y012115D01*
X056166Y011957D02*
X063282Y011957D01*
X063198Y011798D02*
X056324Y011798D01*
X056483Y011640D02*
X063198Y011640D01*
X063198Y011481D02*
X056641Y011481D01*
X056730Y011392D02*
X056730Y011392D01*
X056800Y011323D02*
X063223Y011323D01*
X063381Y011164D02*
X061684Y011164D01*
X061843Y011006D02*
X063540Y011006D01*
X063918Y010847D02*
X061973Y010847D01*
X061973Y010689D02*
X063978Y010689D01*
X063978Y010530D02*
X061973Y010530D01*
X061973Y010372D02*
X063978Y010372D01*
X063978Y010213D02*
X063753Y010213D01*
X063912Y010055D02*
X063978Y010055D01*
X063458Y010055D02*
X063458Y010055D01*
X063458Y010213D02*
X063458Y010213D01*
X063163Y010213D02*
X061841Y010213D01*
X061813Y010055D02*
X063005Y010055D01*
X062846Y009896D02*
X061952Y009896D01*
X061973Y009738D02*
X062823Y009738D01*
X062823Y009579D02*
X061973Y009579D01*
X061973Y009421D02*
X062823Y009421D01*
X062908Y009262D02*
X061890Y009262D01*
X061813Y009104D02*
X063067Y009104D01*
X063458Y009104D02*
X063458Y009104D01*
X063458Y009262D02*
X063458Y009262D01*
X063458Y009421D02*
X063458Y009421D01*
X063458Y009579D02*
X063458Y009579D01*
X063458Y009738D02*
X063458Y009738D01*
X063458Y009896D02*
X063458Y009896D01*
X063850Y009104D02*
X063978Y009104D01*
X063865Y008945D02*
X061813Y008945D01*
X061813Y008787D02*
X063706Y008787D01*
X063548Y008628D02*
X061813Y008628D01*
X061813Y008470D02*
X063389Y008470D01*
X064077Y007800D02*
X064730Y008453D01*
X064865Y008588D01*
X064938Y008765D01*
X064938Y009192D01*
X064997Y009250D01*
X065093Y009484D01*
X065093Y009736D01*
X064997Y009970D01*
X064938Y010028D01*
X064938Y011080D01*
X064865Y011257D01*
X064468Y011654D01*
X064468Y011873D01*
X064313Y012028D01*
X064313Y012130D01*
X065353Y012130D01*
X065353Y012028D01*
X065198Y011873D01*
X065198Y011347D01*
X065570Y010975D01*
X066096Y010975D01*
X066468Y011347D01*
X066468Y011873D01*
X066313Y012028D01*
X066313Y012192D01*
X066468Y012347D01*
X066468Y012873D01*
X066231Y013110D01*
X066468Y013347D01*
X066468Y013873D01*
X066231Y014110D01*
X066468Y014347D01*
X066468Y014873D01*
X066231Y015110D01*
X066468Y015347D01*
X066468Y015873D01*
X066231Y016110D01*
X066468Y016347D01*
X066468Y016873D01*
X066231Y017110D01*
X066468Y017347D01*
X066468Y017873D01*
X066231Y018110D01*
X066468Y018347D01*
X066468Y018873D01*
X066231Y019110D01*
X066468Y019347D01*
X066468Y019873D01*
X066231Y020110D01*
X066468Y020347D01*
X066468Y020873D01*
X066231Y021110D01*
X066468Y021347D01*
X066468Y021873D01*
X066231Y022110D01*
X066468Y022347D01*
X066468Y022873D01*
X066231Y023110D01*
X066468Y023347D01*
X066468Y023873D01*
X066231Y024110D01*
X066468Y024347D01*
X066468Y024873D01*
X066231Y025110D01*
X066468Y025347D01*
X066468Y025873D01*
X066231Y026110D01*
X066468Y026347D01*
X066468Y026873D01*
X066231Y027110D01*
X066468Y027347D01*
X066468Y027873D01*
X066231Y028110D01*
X066468Y028347D01*
X066468Y028873D01*
X066231Y029110D01*
X066468Y029347D01*
X066468Y029873D01*
X066231Y030110D01*
X066468Y030347D01*
X066468Y030873D01*
X066231Y031110D01*
X066468Y031347D01*
X066468Y031873D01*
X066231Y032110D01*
X066468Y032347D01*
X066468Y032873D01*
X066231Y033110D01*
X066468Y033347D01*
X066468Y033873D01*
X066231Y034110D01*
X066468Y034347D01*
X066468Y034873D01*
X066231Y035110D01*
X066468Y035347D01*
X066468Y035873D01*
X066231Y036110D01*
X066468Y036347D01*
X066468Y036873D01*
X066231Y037110D01*
X066468Y037347D01*
X066468Y037873D01*
X066231Y038110D01*
X066468Y038347D01*
X066468Y038873D01*
X066231Y039110D01*
X066468Y039347D01*
X066468Y039873D01*
X066231Y040110D01*
X066468Y040347D01*
X066468Y040873D01*
X066231Y041110D01*
X066468Y041347D01*
X066468Y041600D01*
X065843Y041600D01*
X065843Y041620D01*
X065823Y041620D01*
X065823Y041600D01*
X065198Y041600D01*
X065198Y041510D01*
X064468Y041510D01*
X064468Y041600D01*
X063843Y041600D01*
X063843Y041620D01*
X063823Y041620D01*
X063823Y041600D01*
X063198Y041600D01*
X063198Y041416D01*
X063168Y041385D01*
X062129Y041385D01*
X061982Y041324D01*
X061753Y041095D01*
X061598Y041250D01*
X061068Y041250D01*
X060833Y041015D01*
X060598Y041250D01*
X060068Y041250D01*
X059828Y041010D01*
X059157Y041010D01*
X058957Y041210D01*
X058674Y041210D01*
X058547Y041337D01*
X058435Y041449D01*
X058288Y041510D01*
X054963Y041510D01*
X054963Y041729D01*
X054872Y041950D01*
X054703Y042119D01*
X054563Y042177D01*
X054563Y042866D01*
X054683Y042986D01*
X054683Y043484D01*
X054563Y043604D01*
X054563Y044217D01*
X055424Y043356D01*
X055424Y042871D01*
X055527Y042623D01*
X055717Y042433D01*
X055965Y042330D01*
X056233Y042330D01*
X056481Y042433D01*
X056671Y042623D01*
X056774Y042871D01*
X056774Y043849D01*
X056671Y044097D01*
X056481Y044287D01*
X056233Y044390D01*
X055965Y044390D01*
X055811Y044326D01*
X054756Y045382D01*
X054621Y045517D01*
X054445Y045590D01*
X013113Y045590D01*
X012936Y045517D01*
X012801Y045382D01*
X010385Y042965D01*
X009938Y042965D01*
X009938Y043185D01*
X010098Y043345D01*
X010098Y043875D01*
X009938Y044035D01*
X009938Y044185D01*
X010098Y044345D01*
X010098Y044875D01*
X009723Y045250D01*
X009193Y045250D01*
X009033Y045090D01*
X008883Y045090D01*
X008723Y045250D01*
X008193Y045250D01*
X007818Y044875D01*
X007818Y044345D01*
X008053Y044110D01*
X007818Y043875D01*
X007818Y043345D01*
X008193Y042970D01*
X008723Y042970D01*
X008883Y043130D01*
X008978Y043130D01*
X008978Y042965D01*
X006613Y042965D01*
X006436Y042892D01*
X006301Y042757D01*
X005436Y041892D01*
X005313Y041769D01*
X005313Y046420D01*
X067553Y046420D01*
X067553Y045205D01*
X067360Y045398D01*
X067018Y045540D01*
X066648Y045540D01*
X066307Y045398D01*
X066045Y045137D01*
X065903Y044795D01*
X065903Y044425D01*
X066045Y044083D01*
X066307Y043822D01*
X066648Y043680D01*
X067018Y043680D01*
X067360Y043822D01*
X067553Y044015D01*
X067553Y010205D01*
X067360Y010398D01*
X067018Y010540D01*
X066648Y010540D01*
X066307Y010398D01*
X066045Y010137D01*
X065903Y009795D01*
X065903Y009425D01*
X066045Y009083D01*
X066307Y008822D01*
X066648Y008680D01*
X067018Y008680D01*
X067360Y008822D01*
X067553Y009015D01*
X067553Y007800D01*
X064077Y007800D01*
X064113Y007836D02*
X067553Y007836D01*
X067553Y007994D02*
X064271Y007994D01*
X064430Y008153D02*
X067553Y008153D01*
X067553Y008311D02*
X064588Y008311D01*
X064747Y008470D02*
X067553Y008470D01*
X067553Y008628D02*
X064882Y008628D01*
X064938Y008787D02*
X066391Y008787D01*
X066183Y008945D02*
X064938Y008945D01*
X064938Y009104D02*
X066037Y009104D01*
X065971Y009262D02*
X065002Y009262D01*
X065067Y009421D02*
X065905Y009421D01*
X065903Y009579D02*
X065093Y009579D01*
X065093Y009738D02*
X065903Y009738D01*
X065945Y009896D02*
X065027Y009896D01*
X064938Y010055D02*
X066011Y010055D01*
X066121Y010213D02*
X064938Y010213D01*
X064938Y010372D02*
X066280Y010372D01*
X066624Y010530D02*
X064938Y010530D01*
X064938Y010689D02*
X067553Y010689D01*
X067553Y010847D02*
X064938Y010847D01*
X064938Y011006D02*
X065540Y011006D01*
X065381Y011164D02*
X064904Y011164D01*
X064800Y011323D02*
X065223Y011323D01*
X065198Y011481D02*
X064641Y011481D01*
X064483Y011640D02*
X065198Y011640D01*
X065198Y011798D02*
X064468Y011798D01*
X064385Y011957D02*
X065282Y011957D01*
X065353Y012115D02*
X064313Y012115D01*
X066313Y012115D02*
X067553Y012115D01*
X067553Y011957D02*
X066385Y011957D01*
X066468Y011798D02*
X067553Y011798D01*
X067553Y011640D02*
X066468Y011640D01*
X066468Y011481D02*
X067553Y011481D01*
X067553Y011323D02*
X066444Y011323D01*
X066285Y011164D02*
X067553Y011164D01*
X067553Y011006D02*
X066127Y011006D01*
X067042Y010530D02*
X067553Y010530D01*
X067553Y010372D02*
X067387Y010372D01*
X067546Y010213D02*
X067553Y010213D01*
X067553Y008945D02*
X067484Y008945D01*
X067553Y008787D02*
X067275Y008787D01*
X067553Y012274D02*
X066395Y012274D01*
X066468Y012432D02*
X067553Y012432D01*
X067553Y012591D02*
X066468Y012591D01*
X066468Y012749D02*
X067553Y012749D01*
X067553Y012908D02*
X066434Y012908D01*
X066275Y013066D02*
X067553Y013066D01*
X067553Y013225D02*
X066346Y013225D01*
X066468Y013383D02*
X067553Y013383D01*
X067553Y013542D02*
X066468Y013542D01*
X066468Y013700D02*
X067553Y013700D01*
X067553Y013859D02*
X066468Y013859D01*
X066324Y014017D02*
X067553Y014017D01*
X067553Y014176D02*
X066297Y014176D01*
X066455Y014334D02*
X067553Y014334D01*
X067553Y014493D02*
X066468Y014493D01*
X066468Y014651D02*
X067553Y014651D01*
X067553Y014810D02*
X066468Y014810D01*
X066373Y014968D02*
X067553Y014968D01*
X067553Y015127D02*
X066248Y015127D01*
X066406Y015285D02*
X067553Y015285D01*
X067553Y015444D02*
X066468Y015444D01*
X066468Y015602D02*
X067553Y015602D01*
X067553Y015761D02*
X066468Y015761D01*
X066422Y015919D02*
X067553Y015919D01*
X067553Y016078D02*
X066264Y016078D01*
X066357Y016236D02*
X067553Y016236D01*
X067553Y016395D02*
X066468Y016395D01*
X066468Y016553D02*
X067553Y016553D01*
X067553Y016712D02*
X066468Y016712D01*
X066468Y016870D02*
X067553Y016870D01*
X067553Y017029D02*
X066313Y017029D01*
X066308Y017187D02*
X067553Y017187D01*
X067553Y017346D02*
X066467Y017346D01*
X066468Y017504D02*
X067553Y017504D01*
X067553Y017663D02*
X066468Y017663D01*
X066468Y017821D02*
X067553Y017821D01*
X067553Y017980D02*
X066362Y017980D01*
X066259Y018138D02*
X067553Y018138D01*
X067553Y018297D02*
X066418Y018297D01*
X066468Y018455D02*
X067553Y018455D01*
X067553Y018614D02*
X066468Y018614D01*
X066468Y018772D02*
X067553Y018772D01*
X067553Y018931D02*
X066411Y018931D01*
X066252Y019089D02*
X067553Y019089D01*
X067553Y019248D02*
X066369Y019248D01*
X066468Y019406D02*
X067553Y019406D01*
X067553Y019565D02*
X066468Y019565D01*
X066468Y019723D02*
X067553Y019723D01*
X067553Y019882D02*
X066460Y019882D01*
X066301Y020040D02*
X067553Y020040D01*
X067553Y020199D02*
X066320Y020199D01*
X066468Y020357D02*
X067553Y020357D01*
X067553Y020516D02*
X066468Y020516D01*
X066468Y020674D02*
X067553Y020674D01*
X067553Y020833D02*
X066468Y020833D01*
X066350Y020991D02*
X067553Y020991D01*
X067553Y021150D02*
X066271Y021150D01*
X066429Y021308D02*
X067553Y021308D01*
X067553Y021467D02*
X066468Y021467D01*
X066468Y021625D02*
X067553Y021625D01*
X067553Y021784D02*
X066468Y021784D01*
X066399Y021942D02*
X067553Y021942D01*
X067553Y022101D02*
X066241Y022101D01*
X066380Y022259D02*
X067553Y022259D01*
X067553Y022418D02*
X066468Y022418D01*
X066468Y022576D02*
X067553Y022576D01*
X067553Y022735D02*
X066468Y022735D01*
X066448Y022893D02*
X067553Y022893D01*
X067553Y023052D02*
X066290Y023052D01*
X066331Y023210D02*
X067553Y023210D01*
X067553Y023369D02*
X066468Y023369D01*
X066468Y023527D02*
X067553Y023527D01*
X067553Y023686D02*
X066468Y023686D01*
X066468Y023844D02*
X067553Y023844D01*
X067553Y024003D02*
X066339Y024003D01*
X066282Y024161D02*
X067553Y024161D01*
X067553Y024320D02*
X066441Y024320D01*
X066468Y024478D02*
X067553Y024478D01*
X067553Y024637D02*
X066468Y024637D01*
X066468Y024795D02*
X067553Y024795D01*
X067553Y024954D02*
X066388Y024954D01*
X066233Y025112D02*
X067553Y025112D01*
X067553Y025271D02*
X066392Y025271D01*
X066468Y025429D02*
X067553Y025429D01*
X067553Y025588D02*
X066468Y025588D01*
X066468Y025746D02*
X067553Y025746D01*
X067553Y025905D02*
X066437Y025905D01*
X066278Y026063D02*
X067553Y026063D01*
X067553Y026222D02*
X066343Y026222D01*
X066468Y026380D02*
X067553Y026380D01*
X067553Y026539D02*
X066468Y026539D01*
X066468Y026697D02*
X067553Y026697D01*
X067553Y026856D02*
X066468Y026856D01*
X066327Y027014D02*
X067553Y027014D01*
X067553Y027173D02*
X066294Y027173D01*
X066452Y027331D02*
X067553Y027331D01*
X067553Y027490D02*
X066468Y027490D01*
X066468Y027648D02*
X067553Y027648D01*
X067553Y027807D02*
X066468Y027807D01*
X066376Y027965D02*
X067553Y027965D01*
X067553Y028124D02*
X066245Y028124D01*
X066403Y028282D02*
X067553Y028282D01*
X067553Y028441D02*
X066468Y028441D01*
X066468Y028599D02*
X067553Y028599D01*
X067553Y028758D02*
X066468Y028758D01*
X066425Y028916D02*
X067553Y028916D01*
X067553Y029075D02*
X066267Y029075D01*
X066354Y029233D02*
X067553Y029233D01*
X067553Y029392D02*
X066468Y029392D01*
X066468Y029550D02*
X067553Y029550D01*
X067553Y029709D02*
X066468Y029709D01*
X066468Y029867D02*
X067553Y029867D01*
X067553Y030026D02*
X066316Y030026D01*
X066305Y030184D02*
X067553Y030184D01*
X067553Y030343D02*
X066464Y030343D01*
X066468Y030501D02*
X067553Y030501D01*
X067553Y030660D02*
X066468Y030660D01*
X066468Y030818D02*
X067553Y030818D01*
X067553Y030977D02*
X066365Y030977D01*
X066256Y031135D02*
X067553Y031135D01*
X067553Y031294D02*
X066415Y031294D01*
X066468Y031452D02*
X067553Y031452D01*
X067553Y031611D02*
X066468Y031611D01*
X066468Y031769D02*
X067553Y031769D01*
X067553Y031928D02*
X066414Y031928D01*
X066255Y032086D02*
X067553Y032086D01*
X067553Y032245D02*
X066366Y032245D01*
X066468Y032403D02*
X067553Y032403D01*
X067553Y032562D02*
X066468Y032562D01*
X066468Y032720D02*
X067553Y032720D01*
X067553Y032879D02*
X066463Y032879D01*
X066304Y033037D02*
X067553Y033037D01*
X067553Y033196D02*
X066317Y033196D01*
X066468Y033354D02*
X067553Y033354D01*
X067553Y033513D02*
X066468Y033513D01*
X066468Y033671D02*
X067553Y033671D01*
X067553Y033830D02*
X066468Y033830D01*
X066353Y033988D02*
X067553Y033988D01*
X067553Y034147D02*
X066268Y034147D01*
X066426Y034305D02*
X067553Y034305D01*
X067553Y034464D02*
X066468Y034464D01*
X066468Y034622D02*
X067553Y034622D01*
X067553Y034781D02*
X066468Y034781D01*
X066402Y034939D02*
X067553Y034939D01*
X067553Y035098D02*
X066244Y035098D01*
X066377Y035256D02*
X067553Y035256D01*
X067553Y035415D02*
X066468Y035415D01*
X066468Y035573D02*
X067553Y035573D01*
X067553Y035732D02*
X066468Y035732D01*
X066451Y035890D02*
X067553Y035890D01*
X067553Y036049D02*
X066293Y036049D01*
X066328Y036207D02*
X067553Y036207D01*
X067553Y036366D02*
X066468Y036366D01*
X066468Y036524D02*
X067553Y036524D01*
X067553Y036683D02*
X066468Y036683D01*
X066468Y036841D02*
X067553Y036841D01*
X067553Y037000D02*
X066342Y037000D01*
X066279Y037158D02*
X067553Y037158D01*
X067553Y037317D02*
X066438Y037317D01*
X066468Y037475D02*
X067553Y037475D01*
X067553Y037634D02*
X066468Y037634D01*
X066468Y037792D02*
X067553Y037792D01*
X067553Y037951D02*
X066391Y037951D01*
X066232Y038109D02*
X067553Y038109D01*
X067553Y038268D02*
X066389Y038268D01*
X066468Y038426D02*
X067553Y038426D01*
X067553Y038585D02*
X066468Y038585D01*
X066468Y038743D02*
X067553Y038743D01*
X067553Y038902D02*
X066440Y038902D01*
X066281Y039060D02*
X067553Y039060D01*
X067553Y039219D02*
X066340Y039219D01*
X066468Y039377D02*
X067553Y039377D01*
X067553Y039536D02*
X066468Y039536D01*
X066468Y039694D02*
X067553Y039694D01*
X067553Y039853D02*
X066468Y039853D01*
X066330Y040011D02*
X067553Y040011D01*
X067553Y040170D02*
X066291Y040170D01*
X066449Y040328D02*
X067553Y040328D01*
X067553Y040487D02*
X066468Y040487D01*
X066468Y040645D02*
X067553Y040645D01*
X067553Y040804D02*
X066468Y040804D01*
X066379Y040962D02*
X067553Y040962D01*
X067553Y041121D02*
X066242Y041121D01*
X066400Y041279D02*
X067553Y041279D01*
X067553Y041438D02*
X066468Y041438D01*
X066468Y041596D02*
X067553Y041596D01*
X067553Y041755D02*
X066468Y041755D01*
X066468Y041873D02*
X066229Y042112D01*
X066247Y042126D01*
X066318Y042196D01*
X066376Y042277D01*
X066422Y042366D01*
X066453Y042461D01*
X066468Y042560D01*
X066468Y042600D01*
X065843Y042600D01*
X065843Y041620D01*
X066468Y041620D01*
X066468Y041873D01*
X066428Y041913D02*
X067553Y041913D01*
X067553Y042072D02*
X066270Y042072D01*
X066342Y042230D02*
X067553Y042230D01*
X067553Y042389D02*
X066429Y042389D01*
X066466Y042547D02*
X067553Y042547D01*
X067553Y042706D02*
X066461Y042706D01*
X066468Y042660D02*
X066453Y042759D01*
X066422Y042854D01*
X066376Y042943D01*
X066318Y043024D01*
X066247Y043094D01*
X066166Y043153D01*
X066077Y043198D01*
X065982Y043229D01*
X065883Y043245D01*
X065843Y043245D01*
X065843Y042620D01*
X065823Y042620D01*
X065823Y042600D01*
X065198Y042600D01*
X065198Y042560D01*
X065214Y042461D01*
X065245Y042366D01*
X065290Y042277D01*
X065349Y042196D01*
X065420Y042126D01*
X065438Y042112D01*
X065198Y041873D01*
X065198Y041620D01*
X065823Y041620D01*
X065823Y042245D01*
X065823Y042600D01*
X065843Y042600D01*
X065843Y042620D01*
X066468Y042620D01*
X066468Y042660D01*
X066417Y042864D02*
X067553Y042864D01*
X067553Y043023D02*
X066318Y043023D01*
X066111Y043181D02*
X067553Y043181D01*
X067553Y043340D02*
X061968Y043340D01*
X061973Y043345D02*
X061973Y043590D01*
X061353Y043590D01*
X061353Y042970D01*
X061598Y042970D01*
X061973Y043345D01*
X061973Y043498D02*
X067553Y043498D01*
X067553Y043657D02*
X061973Y043657D01*
X061973Y043630D02*
X061973Y043875D01*
X061738Y044110D01*
X061973Y044345D01*
X061973Y044590D01*
X061353Y044590D01*
X061353Y043970D01*
X061353Y043630D01*
X061313Y043630D01*
X061313Y043590D01*
X060693Y043590D01*
X060353Y043590D01*
X060353Y042970D01*
X060598Y042970D01*
X060833Y043205D01*
X061068Y042970D01*
X061313Y042970D01*
X061313Y043590D01*
X061353Y043590D01*
X061353Y043630D01*
X061973Y043630D01*
X061973Y043815D02*
X066322Y043815D01*
X066155Y043974D02*
X065068Y043974D01*
X065086Y043981D02*
X065209Y044104D01*
X065298Y044193D01*
X065298Y044193D01*
X065421Y044315D01*
X065467Y044427D01*
X065487Y044475D01*
X065487Y045496D01*
X065484Y045503D01*
X065421Y045656D01*
X065298Y045778D01*
X065086Y045990D01*
X064927Y046056D01*
X064330Y046056D01*
X064284Y046037D01*
X064170Y045990D01*
X064048Y045867D01*
X063958Y045778D01*
X063892Y045712D01*
X063828Y045867D01*
X063705Y045990D01*
X063545Y046056D01*
X063372Y046056D01*
X063247Y046004D01*
X063122Y046056D01*
X062949Y046056D01*
X062789Y045990D01*
X062666Y045867D01*
X062600Y045708D01*
X062600Y045576D01*
X062577Y045566D01*
X062455Y045444D01*
X062388Y045284D01*
X062388Y045111D01*
X062440Y044986D01*
X062388Y044860D01*
X062388Y044687D01*
X062455Y044527D01*
X062577Y044405D01*
X062600Y044395D01*
X062600Y044263D01*
X062666Y044104D01*
X062789Y043981D01*
X062949Y043915D01*
X063122Y043915D01*
X063247Y043967D01*
X063372Y043915D01*
X063545Y043915D01*
X063705Y043981D01*
X063828Y044104D01*
X063892Y044259D01*
X064170Y043981D01*
X064330Y043915D01*
X064927Y043915D01*
X065086Y043981D01*
X065209Y044104D02*
X065209Y044104D01*
X065237Y044132D02*
X066025Y044132D01*
X065959Y044291D02*
X065396Y044291D01*
X065476Y044449D02*
X065903Y044449D01*
X065903Y044608D02*
X065487Y044608D01*
X065487Y044766D02*
X065903Y044766D01*
X065957Y044925D02*
X065487Y044925D01*
X065487Y045083D02*
X066023Y045083D01*
X066150Y045242D02*
X065487Y045242D01*
X065487Y045400D02*
X066310Y045400D01*
X065461Y045559D02*
X067553Y045559D01*
X067553Y045717D02*
X065359Y045717D01*
X065201Y045876D02*
X067553Y045876D01*
X067553Y046034D02*
X064980Y046034D01*
X064277Y046034D02*
X063599Y046034D01*
X063820Y045876D02*
X064056Y045876D01*
X064048Y045867D02*
X064048Y045867D01*
X063958Y045778D02*
X063958Y045778D01*
X063897Y045717D02*
X063890Y045717D01*
X063319Y046034D02*
X063175Y046034D01*
X062895Y046034D02*
X005313Y046034D01*
X005313Y045876D02*
X062674Y045876D01*
X062604Y045717D02*
X005313Y045717D01*
X005313Y045559D02*
X013037Y045559D01*
X012820Y045400D02*
X006856Y045400D01*
X006860Y045398D02*
X006518Y045540D01*
X006148Y045540D01*
X005807Y045398D01*
X005545Y045137D01*
X005403Y044795D01*
X005403Y044425D01*
X005545Y044083D01*
X005807Y043822D01*
X006148Y043680D01*
X006518Y043680D01*
X006860Y043822D01*
X007122Y044083D01*
X007263Y044425D01*
X007263Y044795D01*
X007122Y045137D01*
X006860Y045398D01*
X007017Y045242D02*
X008185Y045242D01*
X008026Y045083D02*
X007144Y045083D01*
X007210Y044925D02*
X007868Y044925D01*
X007818Y044766D02*
X007263Y044766D01*
X007263Y044608D02*
X007818Y044608D01*
X007818Y044449D02*
X007263Y044449D01*
X007208Y044291D02*
X007873Y044291D01*
X008031Y044132D02*
X007142Y044132D01*
X007012Y043974D02*
X007917Y043974D01*
X007818Y043815D02*
X006844Y043815D01*
X007818Y043657D02*
X005313Y043657D01*
X005313Y043815D02*
X005822Y043815D01*
X005655Y043974D02*
X005313Y043974D01*
X005313Y044132D02*
X005525Y044132D01*
X005459Y044291D02*
X005313Y044291D01*
X005313Y044449D02*
X005403Y044449D01*
X005403Y044608D02*
X005313Y044608D01*
X005313Y044766D02*
X005403Y044766D01*
X005457Y044925D02*
X005313Y044925D01*
X005313Y045083D02*
X005523Y045083D01*
X005650Y045242D02*
X005313Y045242D01*
X005313Y045400D02*
X005810Y045400D01*
X005313Y046193D02*
X067553Y046193D01*
X067553Y046351D02*
X005313Y046351D01*
X005313Y043498D02*
X007818Y043498D01*
X007824Y043340D02*
X005313Y043340D01*
X005313Y043181D02*
X007982Y043181D01*
X008141Y043023D02*
X005313Y043023D01*
X005313Y042864D02*
X006409Y042864D01*
X006250Y042706D02*
X005313Y042706D01*
X005313Y042547D02*
X006092Y042547D01*
X005933Y042389D02*
X005313Y042389D01*
X005313Y042230D02*
X005775Y042230D01*
X005616Y042072D02*
X005313Y042072D01*
X005313Y041913D02*
X005458Y041913D01*
X006188Y041286D02*
X006907Y042005D01*
X010679Y042005D01*
X010855Y042078D01*
X013407Y044630D01*
X018478Y044630D01*
X018478Y044104D01*
X018358Y043984D01*
X018358Y043486D01*
X018478Y043366D01*
X018478Y042177D01*
X018338Y042119D01*
X018170Y041950D01*
X018078Y041729D01*
X018078Y041491D01*
X018170Y041270D01*
X018337Y041103D01*
X018287Y041068D01*
X018221Y041001D01*
X018165Y040924D01*
X018122Y040840D01*
X018093Y040750D01*
X018078Y040657D01*
X018078Y040610D01*
X018078Y040563D01*
X018093Y040469D01*
X018122Y040380D01*
X018165Y040296D01*
X018221Y040219D01*
X018287Y040152D01*
X018337Y040117D01*
X018170Y039950D01*
X018078Y039729D01*
X018078Y039556D01*
X017797Y039837D01*
X017685Y039949D01*
X017538Y040010D01*
X016687Y040010D01*
X016587Y040110D01*
X016747Y040270D01*
X016838Y040491D01*
X016838Y040729D01*
X016747Y040950D01*
X016580Y041117D01*
X016629Y041152D01*
X016696Y041219D01*
X016751Y041296D01*
X016794Y041380D01*
X016824Y041469D01*
X016838Y041563D01*
X016838Y041610D01*
X015958Y041610D01*
X015958Y042210D01*
X015631Y042210D01*
X015538Y042195D01*
X015448Y042166D01*
X015364Y042123D01*
X015287Y042068D01*
X015221Y042001D01*
X015165Y041924D01*
X015122Y041840D01*
X015093Y041750D01*
X015078Y041657D01*
X015078Y041635D01*
X007379Y041635D01*
X007232Y041574D01*
X006908Y041250D01*
X006568Y041250D01*
X006193Y040875D01*
X006193Y040345D01*
X006428Y040110D01*
X006193Y039875D01*
X006193Y039345D01*
X006428Y039110D01*
X006193Y038875D01*
X006193Y038345D01*
X006428Y038110D01*
X006193Y037875D01*
X006193Y037345D01*
X006428Y037110D01*
X006193Y036875D01*
X006193Y036345D01*
X006428Y036110D01*
X006193Y035875D01*
X006193Y035345D01*
X006428Y035110D01*
X006193Y034875D01*
X006193Y034345D01*
X006428Y034110D01*
X006193Y033875D01*
X006193Y033345D01*
X006568Y032970D01*
X007098Y032970D01*
X007333Y033205D01*
X007568Y032970D01*
X008098Y032970D01*
X008473Y033345D01*
X008473Y033875D01*
X008238Y034110D01*
X008473Y034345D01*
X008473Y034875D01*
X008238Y035110D01*
X008473Y035345D01*
X008473Y035875D01*
X008238Y036110D01*
X008473Y036345D01*
X008473Y036875D01*
X008238Y037110D01*
X008338Y037210D01*
X011793Y037210D01*
X015135Y033867D01*
X015078Y033729D01*
X015078Y033491D01*
X015170Y033270D01*
X015337Y033103D01*
X015287Y033068D01*
X015221Y033001D01*
X015165Y032924D01*
X015122Y032840D01*
X015093Y032750D01*
X015078Y032657D01*
X015078Y032610D01*
X015078Y032563D01*
X015093Y032469D01*
X015122Y032380D01*
X015165Y032296D01*
X015221Y032219D01*
X015287Y032152D01*
X015364Y032097D01*
X015448Y032054D01*
X015538Y032025D01*
X015631Y032010D01*
X015958Y032010D01*
X015958Y032610D01*
X015078Y032610D01*
X015958Y032610D01*
X015958Y032610D01*
X015958Y032610D01*
X015958Y032010D01*
X016286Y032010D01*
X016379Y032025D01*
X016469Y032054D01*
X016553Y032097D01*
X016629Y032152D01*
X016696Y032219D01*
X016751Y032296D01*
X016794Y032380D01*
X016824Y032469D01*
X016838Y032563D01*
X016838Y032610D01*
X015958Y032610D01*
X016838Y032610D01*
X016838Y032657D01*
X016824Y032750D01*
X016794Y032840D01*
X016751Y032924D01*
X016696Y033001D01*
X016629Y033068D01*
X016580Y033103D01*
X016687Y033210D01*
X017293Y033210D01*
X017732Y032771D01*
X017879Y032710D01*
X018078Y032710D01*
X018078Y032491D01*
X018170Y032270D01*
X018338Y032101D01*
X018559Y032010D01*
X019358Y032010D01*
X019578Y032101D01*
X019687Y032210D01*
X020510Y032210D01*
X020710Y032010D01*
X021207Y032010D01*
X021558Y032361D01*
X021558Y032710D01*
X023293Y032710D01*
X023358Y032644D01*
X023358Y032361D01*
X023710Y032010D01*
X024207Y032010D01*
X024558Y032361D01*
X024558Y032859D01*
X024307Y033110D01*
X024407Y033210D01*
X024668Y033210D01*
X025107Y032771D01*
X025214Y032726D01*
X025203Y032657D01*
X025203Y032610D01*
X025203Y032563D01*
X025218Y032469D01*
X025247Y032380D01*
X025290Y032296D01*
X025346Y032219D01*
X025412Y032152D01*
X025489Y032097D01*
X025573Y032054D01*
X025663Y032025D01*
X025756Y032010D01*
X026083Y032010D01*
X026083Y032610D01*
X025203Y032610D01*
X026083Y032610D01*
X026083Y032610D01*
X026083Y032610D01*
X026083Y032010D01*
X026411Y032010D01*
X026504Y032025D01*
X026594Y032054D01*
X026678Y032097D01*
X026754Y032152D01*
X026821Y032219D01*
X026876Y032296D01*
X026919Y032380D01*
X026949Y032469D01*
X026963Y032563D01*
X026963Y032610D01*
X026963Y032657D01*
X026955Y032710D01*
X027038Y032710D01*
X027185Y032771D01*
X027297Y032883D01*
X027624Y033210D01*
X028355Y033210D01*
X028455Y033110D01*
X028295Y032950D01*
X028203Y032729D01*
X028203Y032491D01*
X028295Y032270D01*
X028463Y032101D01*
X028684Y032010D01*
X029483Y032010D01*
X029703Y032101D01*
X029872Y032270D01*
X029963Y032491D01*
X029963Y032729D01*
X029872Y032950D01*
X029712Y033110D01*
X029872Y033270D01*
X029963Y033491D01*
X029963Y033710D01*
X032203Y033710D01*
X032203Y033491D01*
X032295Y033270D01*
X032462Y033103D01*
X032412Y033068D01*
X032346Y033001D01*
X032290Y032924D01*
X032247Y032840D01*
X032218Y032750D01*
X032203Y032657D01*
X032203Y032610D01*
X032203Y032563D01*
X032218Y032469D01*
X032247Y032380D01*
X032290Y032296D01*
X032346Y032219D01*
X032412Y032152D01*
X032489Y032097D01*
X032573Y032054D01*
X032663Y032025D01*
X032756Y032010D01*
X033083Y032010D01*
X033083Y032610D01*
X032203Y032610D01*
X033083Y032610D01*
X033083Y032610D01*
X033083Y032610D01*
X033083Y032010D01*
X033411Y032010D01*
X033504Y032025D01*
X033594Y032054D01*
X033678Y032097D01*
X033754Y032152D01*
X033821Y032219D01*
X033876Y032296D01*
X033919Y032380D01*
X033949Y032469D01*
X033963Y032563D01*
X033963Y032610D01*
X033963Y032657D01*
X033949Y032750D01*
X033919Y032840D01*
X033876Y032924D01*
X033821Y033001D01*
X033754Y033068D01*
X033705Y033103D01*
X033872Y033270D01*
X033963Y033491D01*
X033963Y033710D01*
X035203Y033710D01*
X035203Y033491D01*
X035295Y033270D01*
X035455Y033110D01*
X035295Y032950D01*
X035203Y032729D01*
X035203Y032491D01*
X035295Y032270D01*
X035463Y032101D01*
X035684Y032010D01*
X036483Y032010D01*
X036703Y032101D01*
X036812Y032210D01*
X037043Y032210D01*
X037369Y031883D01*
X037482Y031771D01*
X037629Y031710D01*
X040663Y031710D01*
X040810Y031771D01*
X041239Y032200D01*
X041338Y032101D01*
X041559Y032010D01*
X042358Y032010D01*
X042578Y032101D01*
X042747Y032270D01*
X042838Y032491D01*
X042838Y032729D01*
X042747Y032950D01*
X042587Y033110D01*
X042747Y033270D01*
X042838Y033491D01*
X042838Y033710D01*
X050203Y033710D01*
X050203Y033491D01*
X050295Y033270D01*
X050462Y033103D01*
X050412Y033068D01*
X050346Y033001D01*
X050290Y032924D01*
X050247Y032840D01*
X050218Y032750D01*
X050203Y032657D01*
X050203Y032610D01*
X050203Y032563D01*
X050218Y032469D01*
X050247Y032380D01*
X050290Y032296D01*
X050346Y032219D01*
X050412Y032152D01*
X050489Y032097D01*
X050573Y032054D01*
X050663Y032025D01*
X050756Y032010D01*
X051083Y032010D01*
X051083Y032610D01*
X050203Y032610D01*
X051083Y032610D01*
X051083Y032610D01*
X051083Y032610D01*
X051083Y032010D01*
X051411Y032010D01*
X051504Y032025D01*
X051594Y032054D01*
X051678Y032097D01*
X051754Y032152D01*
X051821Y032219D01*
X051876Y032296D01*
X051919Y032380D01*
X051949Y032469D01*
X051963Y032563D01*
X051963Y032610D01*
X051963Y032657D01*
X051949Y032750D01*
X051919Y032840D01*
X051876Y032924D01*
X051821Y033001D01*
X051754Y033068D01*
X051705Y033103D01*
X051872Y033270D01*
X051963Y033491D01*
X051963Y033710D01*
X053203Y033710D01*
X053203Y033491D01*
X053295Y033270D01*
X053455Y033110D01*
X053295Y032950D01*
X053203Y032729D01*
X053203Y032491D01*
X053295Y032270D01*
X053463Y032101D01*
X053684Y032010D01*
X054043Y032010D01*
X053668Y031635D01*
X036364Y031635D01*
X036281Y031718D01*
X036072Y031805D01*
X035845Y031805D01*
X035635Y031718D01*
X035475Y031558D01*
X035388Y031348D01*
X035388Y031122D01*
X035401Y031090D01*
X033554Y031090D01*
X006188Y031090D01*
X006188Y041286D01*
X006188Y041279D02*
X006937Y041279D01*
X007095Y041438D02*
X006340Y041438D01*
X006498Y041596D02*
X007285Y041596D01*
X007458Y041235D02*
X006833Y040610D01*
X006369Y040170D02*
X006188Y040170D01*
X006188Y040328D02*
X006210Y040328D01*
X006193Y040487D02*
X006188Y040487D01*
X006188Y040645D02*
X006193Y040645D01*
X006188Y040804D02*
X006193Y040804D01*
X006188Y040962D02*
X006280Y040962D01*
X006188Y041121D02*
X006439Y041121D01*
X006657Y041755D02*
X015094Y041755D01*
X015159Y041913D02*
X006815Y041913D01*
X007458Y041235D02*
X015333Y041235D01*
X015958Y040610D01*
X016585Y041121D02*
X018319Y041121D01*
X018192Y040962D02*
X016735Y040962D01*
X016808Y040804D02*
X018110Y040804D01*
X018078Y040645D02*
X016838Y040645D01*
X016837Y040487D02*
X018090Y040487D01*
X018078Y040610D02*
X018958Y040610D01*
X018958Y040610D01*
X018078Y040610D01*
X018149Y040328D02*
X016771Y040328D01*
X016646Y040170D02*
X018270Y040170D01*
X018231Y040011D02*
X016686Y040011D01*
X015958Y039610D02*
X014958Y040610D01*
X007833Y040610D01*
X007333Y040110D02*
X006833Y039610D01*
X006329Y040011D02*
X006188Y040011D01*
X006188Y039853D02*
X006193Y039853D01*
X006188Y039694D02*
X006193Y039694D01*
X006188Y039536D02*
X006193Y039536D01*
X006188Y039377D02*
X006193Y039377D01*
X006188Y039219D02*
X006320Y039219D01*
X006378Y039060D02*
X006188Y039060D01*
X006188Y038902D02*
X006220Y038902D01*
X006193Y038743D02*
X006188Y038743D01*
X006188Y038585D02*
X006193Y038585D01*
X006188Y038426D02*
X006193Y038426D01*
X006188Y038268D02*
X006271Y038268D01*
X006188Y038109D02*
X006427Y038109D01*
X006269Y037951D02*
X006188Y037951D01*
X006188Y037792D02*
X006193Y037792D01*
X006188Y037634D02*
X006193Y037634D01*
X006188Y037475D02*
X006193Y037475D01*
X006188Y037317D02*
X006222Y037317D01*
X006188Y037158D02*
X006380Y037158D01*
X006318Y037000D02*
X006188Y037000D01*
X006188Y036841D02*
X006193Y036841D01*
X006188Y036683D02*
X006193Y036683D01*
X006188Y036524D02*
X006193Y036524D01*
X006188Y036366D02*
X006193Y036366D01*
X006188Y036207D02*
X006331Y036207D01*
X006367Y036049D02*
X006188Y036049D01*
X006188Y035890D02*
X006208Y035890D01*
X006193Y035732D02*
X006188Y035732D01*
X006188Y035573D02*
X006193Y035573D01*
X006188Y035415D02*
X006193Y035415D01*
X006188Y035256D02*
X006282Y035256D01*
X006188Y035098D02*
X006416Y035098D01*
X006257Y034939D02*
X006188Y034939D01*
X006188Y034781D02*
X006193Y034781D01*
X006188Y034622D02*
X006193Y034622D01*
X006188Y034464D02*
X006193Y034464D01*
X006188Y034305D02*
X006233Y034305D01*
X006188Y034147D02*
X006392Y034147D01*
X006306Y033988D02*
X006188Y033988D01*
X006188Y033830D02*
X006193Y033830D01*
X006188Y033671D02*
X006193Y033671D01*
X006188Y033513D02*
X006193Y033513D01*
X006188Y033354D02*
X006193Y033354D01*
X006188Y033196D02*
X006343Y033196D01*
X006188Y033037D02*
X006501Y033037D01*
X006188Y032879D02*
X015142Y032879D01*
X015088Y032720D02*
X006188Y032720D01*
X006188Y032562D02*
X015079Y032562D01*
X015115Y032403D02*
X006188Y032403D01*
X006188Y032245D02*
X015202Y032245D01*
X015385Y032086D02*
X006188Y032086D01*
X006188Y031928D02*
X037325Y031928D01*
X037369Y031883D02*
X037369Y031883D01*
X037486Y031769D02*
X036159Y031769D01*
X035758Y031769D02*
X006188Y031769D01*
X006188Y031611D02*
X035528Y031611D01*
X035431Y031452D02*
X006188Y031452D01*
X006188Y031294D02*
X035388Y031294D01*
X035388Y031135D02*
X006188Y031135D01*
X007458Y029610D02*
X007458Y027360D01*
X008058Y027331D02*
X009858Y027331D01*
X009858Y027173D02*
X008058Y027173D01*
X008058Y027111D02*
X008058Y027609D01*
X007858Y027809D01*
X007858Y029161D01*
X007958Y029261D01*
X008210Y029010D01*
X008458Y029010D01*
X008458Y029610D01*
X008458Y029610D01*
X008458Y029010D01*
X008707Y029010D01*
X009058Y029361D01*
X009058Y029610D01*
X009058Y029859D01*
X008787Y030130D01*
X024380Y030130D01*
X024358Y030109D01*
X024358Y029860D01*
X024358Y029611D01*
X024710Y029260D01*
X024958Y029260D01*
X024958Y029860D01*
X024358Y029860D01*
X024958Y029860D01*
X024958Y029860D01*
X024958Y029860D01*
X024958Y029260D01*
X025207Y029260D01*
X025558Y029611D01*
X025558Y029860D01*
X025558Y030109D01*
X025537Y030130D01*
X026380Y030130D01*
X026358Y030109D01*
X026358Y029611D01*
X026478Y029491D01*
X026478Y028927D01*
X026338Y028869D01*
X026170Y028700D01*
X026078Y028479D01*
X026078Y028241D01*
X026170Y028020D01*
X026330Y027860D01*
X026170Y027700D01*
X026078Y027479D01*
X026078Y027241D01*
X026170Y027020D01*
X026330Y026860D01*
X026174Y026704D01*
X026038Y026760D01*
X024687Y026760D01*
X024587Y026860D01*
X024747Y027020D01*
X024838Y027241D01*
X024838Y027479D01*
X024747Y027700D01*
X024587Y027860D01*
X024747Y028020D01*
X024838Y028241D01*
X024838Y028479D01*
X024747Y028700D01*
X024578Y028869D01*
X024358Y028960D01*
X023559Y028960D01*
X023338Y028869D01*
X023170Y028700D01*
X023078Y028479D01*
X023078Y028241D01*
X023170Y028020D01*
X023330Y027860D01*
X023170Y027700D01*
X023125Y027593D01*
X023119Y027587D01*
X022744Y027212D01*
X022683Y027065D01*
X022683Y024155D01*
X022744Y024008D01*
X022857Y023896D01*
X023135Y023617D01*
X023078Y023479D01*
X023078Y023241D01*
X023170Y023020D01*
X023337Y022853D01*
X023287Y022818D01*
X023221Y022751D01*
X023165Y022674D01*
X023122Y022590D01*
X023093Y022500D01*
X023078Y022407D01*
X023078Y022360D01*
X023078Y022313D01*
X023093Y022219D01*
X023122Y022130D01*
X023165Y022046D01*
X023221Y021969D01*
X023287Y021902D01*
X023364Y021847D01*
X023448Y021804D01*
X023538Y021775D01*
X023631Y021760D01*
X023958Y021760D01*
X023958Y022360D01*
X023078Y022360D01*
X023958Y022360D01*
X023958Y022360D01*
X023958Y022360D01*
X023958Y021760D01*
X024286Y021760D01*
X024379Y021775D01*
X024469Y021804D01*
X024553Y021847D01*
X024629Y021902D01*
X024696Y021969D01*
X024751Y022046D01*
X024794Y022130D01*
X024824Y022219D01*
X024838Y022313D01*
X024838Y022360D01*
X024838Y022407D01*
X024824Y022500D01*
X024794Y022590D01*
X024751Y022674D01*
X024696Y022751D01*
X024629Y022818D01*
X024580Y022853D01*
X024747Y023020D01*
X024838Y023241D01*
X024838Y023460D01*
X025293Y023460D01*
X026135Y022617D01*
X026078Y022479D01*
X026078Y022241D01*
X026170Y022020D01*
X026338Y021851D01*
X026559Y021760D01*
X027358Y021760D01*
X027513Y021824D01*
X027513Y021622D01*
X027600Y021412D01*
X027760Y021252D01*
X027970Y021165D01*
X028197Y021165D01*
X028406Y021252D01*
X028567Y021412D01*
X028653Y021622D01*
X028653Y021848D01*
X028567Y022058D01*
X028483Y022141D01*
X028483Y022315D01*
X028422Y022462D01*
X028310Y022574D01*
X027781Y023103D01*
X027838Y023241D01*
X027838Y023460D01*
X029578Y023460D01*
X029578Y023241D01*
X029670Y023020D01*
X029837Y022853D01*
X029787Y022818D01*
X029721Y022751D01*
X029665Y022674D01*
X029622Y022590D01*
X029593Y022500D01*
X029578Y022407D01*
X029578Y022360D01*
X029578Y022313D01*
X029593Y022219D01*
X029622Y022130D01*
X029665Y022046D01*
X029721Y021969D01*
X029787Y021902D01*
X029864Y021847D01*
X029948Y021804D01*
X030038Y021775D01*
X030131Y021760D01*
X030458Y021760D01*
X030458Y022360D01*
X029578Y022360D01*
X030458Y022360D01*
X030458Y022360D01*
X030458Y022360D01*
X030458Y021760D01*
X030786Y021760D01*
X030879Y021775D01*
X030969Y021804D01*
X031053Y021847D01*
X031129Y021902D01*
X031196Y021969D01*
X031251Y022046D01*
X031294Y022130D01*
X031324Y022219D01*
X031338Y022313D01*
X031338Y022360D01*
X031338Y022407D01*
X031324Y022500D01*
X031294Y022590D01*
X031251Y022674D01*
X031196Y022751D01*
X031129Y022818D01*
X031080Y022853D01*
X031120Y022893D01*
X031135Y022877D01*
X031345Y022790D01*
X031572Y022790D01*
X031781Y022877D01*
X031864Y022960D01*
X032293Y022960D01*
X032635Y022617D01*
X032578Y022479D01*
X032578Y022241D01*
X032670Y022020D01*
X032838Y021851D01*
X033059Y021760D01*
X033858Y021760D01*
X034078Y021851D01*
X034247Y022020D01*
X034338Y022241D01*
X034338Y022479D01*
X034247Y022700D01*
X034087Y022860D01*
X034247Y023020D01*
X034338Y023241D01*
X034338Y023479D01*
X034318Y023529D01*
X034685Y023896D01*
X034797Y024008D01*
X034858Y024155D01*
X034858Y025319D01*
X034999Y025460D01*
X035078Y025460D01*
X035078Y025241D01*
X035170Y025020D01*
X035330Y024860D01*
X035170Y024700D01*
X035078Y024479D01*
X035078Y024241D01*
X035170Y024020D01*
X035330Y023860D01*
X035170Y023700D01*
X035078Y023479D01*
X035078Y023241D01*
X035170Y023020D01*
X035337Y022853D01*
X035287Y022818D01*
X035221Y022751D01*
X035165Y022674D01*
X035122Y022590D01*
X035093Y022500D01*
X035078Y022407D01*
X035078Y022360D01*
X035078Y022313D01*
X035093Y022219D01*
X035122Y022130D01*
X035165Y022046D01*
X035221Y021969D01*
X035287Y021902D01*
X035364Y021847D01*
X035448Y021804D01*
X035538Y021775D01*
X035631Y021760D01*
X035958Y021760D01*
X035958Y022360D01*
X035078Y022360D01*
X035958Y022360D01*
X035958Y022360D01*
X035958Y022360D01*
X035958Y021760D01*
X036286Y021760D01*
X036379Y021775D01*
X036469Y021804D01*
X036553Y021847D01*
X036629Y021902D01*
X036696Y021969D01*
X036751Y022046D01*
X036794Y022130D01*
X036824Y022219D01*
X036838Y022313D01*
X036838Y022360D01*
X036838Y022407D01*
X036824Y022500D01*
X036794Y022590D01*
X036751Y022674D01*
X036696Y022751D01*
X036629Y022818D01*
X036580Y022853D01*
X036747Y023020D01*
X036838Y023241D01*
X036838Y023479D01*
X036747Y023700D01*
X036587Y023860D01*
X036747Y024020D01*
X036838Y024241D01*
X036838Y024479D01*
X036747Y024700D01*
X036587Y024860D01*
X036747Y025020D01*
X036838Y025241D01*
X036838Y025460D01*
X038087Y025460D01*
X038078Y025407D01*
X038078Y025360D01*
X038078Y025313D01*
X038093Y025219D01*
X038122Y025130D01*
X038165Y025046D01*
X038221Y024969D01*
X038287Y024902D01*
X038337Y024867D01*
X038170Y024700D01*
X038078Y024479D01*
X038078Y024241D01*
X038170Y024020D01*
X038337Y023853D01*
X038287Y023818D01*
X038221Y023751D01*
X038165Y023674D01*
X038122Y023590D01*
X038093Y023500D01*
X038078Y023407D01*
X038078Y023360D01*
X038078Y023313D01*
X038093Y023219D01*
X038122Y023130D01*
X038165Y023046D01*
X038221Y022969D01*
X038287Y022902D01*
X038337Y022867D01*
X038170Y022700D01*
X038078Y022479D01*
X038078Y022241D01*
X038170Y022020D01*
X038338Y021851D01*
X038559Y021760D01*
X039358Y021760D01*
X039578Y021851D01*
X039747Y022020D01*
X039838Y022241D01*
X039838Y022479D01*
X039747Y022700D01*
X039580Y022867D01*
X039629Y022902D01*
X039696Y022969D01*
X039751Y023046D01*
X039794Y023130D01*
X039824Y023219D01*
X039838Y023313D01*
X039838Y023360D01*
X039838Y023407D01*
X039824Y023500D01*
X039794Y023590D01*
X039751Y023674D01*
X039696Y023751D01*
X039629Y023818D01*
X039580Y023853D01*
X039747Y024020D01*
X039838Y024241D01*
X039838Y024479D01*
X039747Y024700D01*
X039580Y024867D01*
X039629Y024902D01*
X039696Y024969D01*
X039751Y025046D01*
X039794Y025130D01*
X039824Y025219D01*
X039838Y025313D01*
X039838Y025360D01*
X039838Y025407D01*
X039830Y025460D01*
X040668Y025460D01*
X042744Y023383D01*
X042857Y023271D01*
X043004Y023210D01*
X046243Y023210D01*
X046043Y023010D01*
X042129Y023010D01*
X041982Y022949D01*
X041869Y022837D01*
X041869Y022837D01*
X040543Y021510D01*
X030489Y021510D01*
X030406Y021593D01*
X030197Y021680D01*
X029970Y021680D01*
X029760Y021593D01*
X029600Y021433D01*
X029513Y021223D01*
X029513Y021010D01*
X016732Y021010D01*
X016778Y021122D01*
X016778Y021348D01*
X016692Y021558D01*
X016531Y021718D01*
X016322Y021805D01*
X016095Y021805D01*
X015885Y021718D01*
X015802Y021635D01*
X007379Y021635D01*
X007232Y021574D01*
X006908Y021250D01*
X006568Y021250D01*
X006193Y020875D01*
X006193Y020345D01*
X006428Y020110D01*
X006193Y019875D01*
X006193Y019345D01*
X006428Y019110D01*
X006193Y018875D01*
X006193Y018345D01*
X006428Y018110D01*
X006193Y017875D01*
X006193Y017345D01*
X006428Y017110D01*
X006193Y016875D01*
X006193Y016345D01*
X006428Y016110D01*
X006193Y015875D01*
X006193Y015345D01*
X006428Y015110D01*
X006193Y014875D01*
X006193Y014345D01*
X006428Y014110D01*
X006193Y013875D01*
X006193Y013679D01*
X006188Y013684D01*
X006188Y022235D01*
X006206Y022217D01*
X006441Y022120D01*
X006696Y022120D01*
X006931Y022217D01*
X007111Y022397D01*
X007208Y022633D01*
X007208Y023527D01*
X007720Y023527D01*
X007719Y023525D02*
X007708Y023442D01*
X007708Y023100D01*
X008328Y023100D01*
X008328Y023060D01*
X007708Y023060D01*
X007708Y022718D01*
X007719Y022635D01*
X007741Y022554D01*
X007773Y022476D01*
X007815Y022404D01*
X007866Y022337D01*
X007925Y022278D01*
X007992Y022227D01*
X008065Y022185D01*
X008142Y022153D01*
X008223Y022131D01*
X008306Y022120D01*
X008328Y022120D01*
X008328Y023060D01*
X008368Y023060D01*
X008368Y022120D01*
X008390Y022120D01*
X008473Y022131D01*
X008554Y022153D01*
X008632Y022185D01*
X008705Y022227D01*
X008771Y022278D01*
X008831Y022337D01*
X008882Y022404D01*
X008924Y022476D01*
X008956Y022554D01*
X008977Y022635D01*
X008988Y022718D01*
X008988Y023060D01*
X008368Y023060D01*
X008368Y023100D01*
X008328Y023100D01*
X008328Y024040D01*
X008306Y024040D01*
X008223Y024029D01*
X008142Y024007D01*
X008065Y023975D01*
X007992Y023933D01*
X007925Y023882D01*
X007866Y023823D01*
X007815Y023756D01*
X007773Y023684D01*
X007741Y023606D01*
X007719Y023525D01*
X007708Y023369D02*
X007208Y023369D01*
X007208Y023527D02*
X007111Y023763D01*
X006968Y023905D01*
X006968Y024815D01*
X007111Y024957D01*
X007208Y025193D01*
X007208Y026087D01*
X007191Y026130D01*
X007731Y026130D01*
X007719Y026085D01*
X007708Y026002D01*
X007708Y025660D01*
X008328Y025660D01*
X008328Y025620D01*
X007708Y025620D01*
X007708Y025278D01*
X007719Y025195D01*
X007741Y025114D01*
X007773Y025036D01*
X007815Y024964D01*
X007866Y024897D01*
X007925Y024838D01*
X007992Y024787D01*
X008065Y024745D01*
X008142Y024713D01*
X008223Y024691D01*
X008306Y024680D01*
X008328Y024680D01*
X008328Y025620D01*
X008368Y025620D01*
X008368Y024680D01*
X008390Y024680D01*
X008473Y024691D01*
X008554Y024713D01*
X008632Y024745D01*
X008705Y024787D01*
X008771Y024838D01*
X008831Y024897D01*
X008882Y024964D01*
X008924Y025036D01*
X008956Y025114D01*
X008977Y025195D01*
X008988Y025278D01*
X008988Y025620D01*
X008368Y025620D01*
X008368Y025660D01*
X008988Y025660D01*
X008988Y026002D01*
X008977Y026085D01*
X008965Y026130D01*
X010304Y026130D01*
X010480Y026203D01*
X010615Y026338D01*
X010865Y026588D01*
X010938Y026765D01*
X010938Y026991D01*
X011058Y027111D01*
X011058Y027281D01*
X012626Y028848D01*
X012839Y028760D01*
X013078Y028760D01*
X013298Y028851D01*
X013467Y029020D01*
X013558Y029241D01*
X013558Y029479D01*
X013467Y029700D01*
X013298Y029869D01*
X013078Y029960D01*
X012839Y029960D01*
X012618Y029869D01*
X012590Y029840D01*
X012363Y029840D01*
X012186Y029767D01*
X012051Y029632D01*
X010380Y027960D01*
X010210Y027960D01*
X009858Y027609D01*
X009858Y027111D01*
X009880Y027090D01*
X008037Y027090D01*
X008058Y027111D01*
X008058Y027490D02*
X009858Y027490D01*
X009898Y027648D02*
X008019Y027648D01*
X007860Y027807D02*
X010056Y027807D01*
X010385Y027965D02*
X007858Y027965D01*
X007858Y028124D02*
X010543Y028124D01*
X010702Y028282D02*
X007858Y028282D01*
X007858Y028441D02*
X010860Y028441D01*
X011019Y028599D02*
X007858Y028599D01*
X007858Y028758D02*
X011177Y028758D01*
X011336Y028916D02*
X007858Y028916D01*
X007858Y029075D02*
X008145Y029075D01*
X007987Y029233D02*
X007930Y029233D01*
X008458Y029233D02*
X008458Y029233D01*
X008458Y029075D02*
X008458Y029075D01*
X008771Y029075D02*
X011494Y029075D01*
X011653Y029233D02*
X008930Y029233D01*
X009058Y029392D02*
X011811Y029392D01*
X011970Y029550D02*
X009058Y029550D01*
X009058Y029610D02*
X008458Y029610D01*
X009058Y029610D01*
X009058Y029709D02*
X012128Y029709D01*
X012617Y029867D02*
X009050Y029867D01*
X008891Y030026D02*
X024358Y030026D01*
X024358Y029867D02*
X019300Y029867D01*
X019298Y029869D02*
X019078Y029960D01*
X018839Y029960D01*
X018618Y029869D01*
X018450Y029700D01*
X018358Y029479D01*
X018358Y029241D01*
X018450Y029020D01*
X018618Y028851D01*
X018839Y028760D01*
X019078Y028760D01*
X019298Y028851D01*
X019467Y029020D01*
X019558Y029241D01*
X019558Y029479D01*
X019467Y029700D01*
X019298Y029869D01*
X019458Y029709D02*
X024358Y029709D01*
X024420Y029550D02*
X019529Y029550D01*
X019558Y029392D02*
X024578Y029392D01*
X024958Y029392D02*
X024958Y029392D01*
X024958Y029550D02*
X024958Y029550D01*
X024958Y029709D02*
X024958Y029709D01*
X024958Y029860D02*
X024958Y029860D01*
X025558Y029860D01*
X024958Y029860D01*
X025558Y029867D02*
X026358Y029867D01*
X026358Y029709D02*
X025558Y029709D01*
X025497Y029550D02*
X026420Y029550D01*
X026478Y029392D02*
X025338Y029392D01*
X025558Y030026D02*
X026358Y030026D01*
X026478Y029233D02*
X019555Y029233D01*
X019490Y029075D02*
X026478Y029075D01*
X026453Y028916D02*
X024464Y028916D01*
X024689Y028758D02*
X026227Y028758D01*
X026128Y028599D02*
X024789Y028599D01*
X024838Y028441D02*
X026078Y028441D01*
X026078Y028282D02*
X024838Y028282D01*
X024790Y028124D02*
X026127Y028124D01*
X026225Y027965D02*
X024692Y027965D01*
X024640Y027807D02*
X026276Y027807D01*
X026148Y027648D02*
X024768Y027648D01*
X024834Y027490D02*
X026083Y027490D01*
X026078Y027331D02*
X024838Y027331D01*
X024810Y027173D02*
X026107Y027173D01*
X026176Y027014D02*
X024741Y027014D01*
X024591Y026856D02*
X026325Y026856D01*
X025958Y026360D02*
X023958Y026360D01*
X023083Y026985D02*
X023458Y027360D01*
X023958Y027360D01*
X023276Y027807D02*
X011584Y027807D01*
X011742Y027965D02*
X023225Y027965D01*
X023127Y028124D02*
X011901Y028124D01*
X012059Y028282D02*
X023078Y028282D01*
X023078Y028441D02*
X012218Y028441D01*
X012376Y028599D02*
X023128Y028599D01*
X023227Y028758D02*
X012535Y028758D01*
X013363Y028916D02*
X018554Y028916D01*
X018427Y029075D02*
X013490Y029075D01*
X013555Y029233D02*
X018361Y029233D01*
X018358Y029392D02*
X013558Y029392D01*
X013529Y029550D02*
X018388Y029550D01*
X018458Y029709D02*
X013458Y029709D01*
X013300Y029867D02*
X018617Y029867D01*
X019363Y028916D02*
X023453Y028916D01*
X023148Y027648D02*
X011425Y027648D01*
X011267Y027490D02*
X023022Y027490D01*
X022864Y027331D02*
X011108Y027331D01*
X011058Y027173D02*
X022728Y027173D01*
X022683Y027014D02*
X010961Y027014D01*
X010938Y026856D02*
X012605Y026856D01*
X012618Y026869D02*
X012450Y026700D01*
X012358Y026479D01*
X012358Y026241D01*
X012450Y026020D01*
X012618Y025851D01*
X012839Y025760D01*
X013078Y025760D01*
X013298Y025851D01*
X013467Y026020D01*
X013558Y026241D01*
X013558Y026479D01*
X013467Y026700D01*
X013298Y026869D01*
X013078Y026960D01*
X012839Y026960D01*
X012618Y026869D01*
X012449Y026697D02*
X010910Y026697D01*
X010816Y026539D02*
X012383Y026539D01*
X012358Y026380D02*
X010657Y026380D01*
X010499Y026222D02*
X012366Y026222D01*
X012432Y026063D02*
X008980Y026063D01*
X008988Y025905D02*
X012565Y025905D01*
X013351Y025905D02*
X018565Y025905D01*
X018567Y025902D02*
X018644Y025847D01*
X018728Y025804D01*
X018818Y025775D01*
X018911Y025760D01*
X018958Y025760D01*
X018958Y026360D01*
X018358Y026360D01*
X018358Y026313D01*
X018373Y026219D01*
X018402Y026130D01*
X018445Y026046D01*
X018501Y025969D01*
X018567Y025902D01*
X018436Y026063D02*
X013485Y026063D01*
X013550Y026222D02*
X018373Y026222D01*
X018358Y026360D02*
X018958Y026360D01*
X018958Y026360D01*
X018958Y026360D01*
X018958Y026960D01*
X018911Y026960D01*
X018818Y026945D01*
X018728Y026916D01*
X018644Y026873D01*
X018567Y026818D01*
X018501Y026751D01*
X018445Y026674D01*
X018402Y026590D01*
X018373Y026500D01*
X018358Y026407D01*
X018358Y026360D01*
X018358Y026380D02*
X013558Y026380D01*
X013534Y026539D02*
X018385Y026539D01*
X018462Y026697D02*
X013468Y026697D01*
X013311Y026856D02*
X018620Y026856D01*
X018958Y026856D02*
X018958Y026856D01*
X018958Y026960D02*
X019006Y026960D01*
X019099Y026945D01*
X019189Y026916D01*
X019273Y026873D01*
X019349Y026818D01*
X019416Y026751D01*
X019471Y026674D01*
X019514Y026590D01*
X019544Y026500D01*
X019558Y026407D01*
X019558Y026360D01*
X018958Y026360D01*
X018958Y026360D01*
X018958Y025760D01*
X019006Y025760D01*
X019099Y025775D01*
X019189Y025804D01*
X019273Y025847D01*
X019349Y025902D01*
X019416Y025969D01*
X019471Y026046D01*
X019514Y026130D01*
X019544Y026219D01*
X019558Y026313D01*
X019558Y026360D01*
X018958Y026360D01*
X018958Y026960D01*
X018958Y026697D02*
X018958Y026697D01*
X018958Y026539D02*
X018958Y026539D01*
X018958Y026380D02*
X018958Y026380D01*
X018958Y026360D02*
X018958Y026360D01*
X018958Y026222D02*
X018958Y026222D01*
X018958Y026063D02*
X018958Y026063D01*
X018958Y025905D02*
X018958Y025905D01*
X019351Y025905D02*
X022683Y025905D01*
X022683Y026063D02*
X019480Y026063D01*
X019544Y026222D02*
X022683Y026222D01*
X022683Y026380D02*
X019558Y026380D01*
X019531Y026539D02*
X022683Y026539D01*
X022683Y026697D02*
X019455Y026697D01*
X019297Y026856D02*
X022683Y026856D01*
X023083Y026985D02*
X023083Y024235D01*
X023458Y023860D01*
X025458Y023860D01*
X026958Y022360D01*
X026502Y021784D02*
X024406Y021784D01*
X024669Y021942D02*
X026248Y021942D01*
X026136Y022101D02*
X024780Y022101D01*
X024830Y022259D02*
X026078Y022259D01*
X026078Y022418D02*
X024837Y022418D01*
X024838Y022360D02*
X023958Y022360D01*
X023958Y022360D01*
X024838Y022360D01*
X024799Y022576D02*
X026118Y022576D01*
X026018Y022735D02*
X024708Y022735D01*
X024620Y022893D02*
X025860Y022893D01*
X025701Y023052D02*
X024760Y023052D01*
X024826Y023210D02*
X025543Y023210D01*
X025384Y023369D02*
X024838Y023369D01*
X023958Y022259D02*
X023958Y022259D01*
X023958Y022101D02*
X023958Y022101D01*
X023958Y021942D02*
X023958Y021942D01*
X023958Y021784D02*
X023958Y021784D01*
X023511Y021784D02*
X016374Y021784D01*
X016624Y021625D02*
X027513Y021625D01*
X027513Y021784D02*
X027414Y021784D01*
X027578Y021467D02*
X016729Y021467D01*
X016778Y021308D02*
X027704Y021308D01*
X028083Y021735D02*
X028083Y022235D01*
X026958Y023360D01*
X027458Y023860D01*
X034083Y023860D01*
X034458Y024235D01*
X034458Y025485D01*
X034833Y025860D01*
X040833Y025860D01*
X043083Y023610D01*
X046708Y023610D01*
X046958Y023860D01*
X046958Y025360D01*
X047708Y026110D01*
X055833Y026110D01*
X056458Y026735D01*
X056458Y028360D01*
X055958Y028860D02*
X056333Y029235D01*
X057083Y029235D01*
X057458Y028860D01*
X057458Y028360D01*
X056958Y027731D02*
X057118Y027571D01*
X057339Y027480D01*
X057578Y027480D01*
X057798Y027571D01*
X057958Y027731D01*
X058118Y027571D01*
X058339Y027480D01*
X058578Y027480D01*
X058798Y027571D01*
X058958Y027731D01*
X059118Y027571D01*
X059339Y027480D01*
X059578Y027480D01*
X059798Y027571D01*
X059958Y027731D01*
X060118Y027571D01*
X060339Y027480D01*
X060578Y027480D01*
X060798Y027571D01*
X060965Y027738D01*
X061001Y027689D01*
X061067Y027622D01*
X061144Y027567D01*
X061228Y027524D01*
X061318Y027495D01*
X061411Y027480D01*
X061458Y027480D01*
X061458Y028360D01*
X061458Y029240D01*
X061411Y029240D01*
X061318Y029225D01*
X061228Y029196D01*
X061144Y029153D01*
X061067Y029098D01*
X061001Y029031D01*
X060965Y028982D01*
X060858Y029089D01*
X060858Y030631D01*
X060958Y030731D01*
X061118Y030571D01*
X061339Y030480D01*
X061578Y030480D01*
X061798Y030571D01*
X061967Y030740D01*
X062058Y030961D01*
X062058Y031759D01*
X061967Y031980D01*
X061798Y032149D01*
X061691Y032193D01*
X061685Y032199D01*
X061674Y032210D01*
X063335Y032210D01*
X063435Y032110D01*
X063198Y031873D01*
X063198Y031347D01*
X063435Y031110D01*
X063198Y030873D01*
X063198Y030347D01*
X063435Y030110D01*
X063198Y029873D01*
X063198Y029347D01*
X063435Y029110D01*
X063198Y028873D01*
X063198Y028347D01*
X063435Y028110D01*
X063198Y027873D01*
X063198Y027347D01*
X063435Y027110D01*
X063198Y026873D01*
X063198Y026347D01*
X063435Y026110D01*
X063198Y025873D01*
X063198Y025347D01*
X063435Y025110D01*
X063198Y024873D01*
X063198Y024347D01*
X063435Y024110D01*
X063198Y023873D01*
X063198Y023347D01*
X063435Y023110D01*
X063198Y022873D01*
X063198Y022347D01*
X063435Y022110D01*
X063198Y021873D01*
X063198Y021510D01*
X062499Y021510D01*
X062060Y021949D01*
X061913Y022010D01*
X061838Y022010D01*
X061738Y022110D01*
X061973Y022345D01*
X061973Y022875D01*
X061738Y023110D01*
X061973Y023345D01*
X061973Y023875D01*
X061738Y024110D01*
X061973Y024345D01*
X061973Y024875D01*
X061738Y025110D01*
X061973Y025345D01*
X061973Y025875D01*
X061738Y026110D01*
X061973Y026345D01*
X061973Y026875D01*
X061598Y027250D01*
X061068Y027250D01*
X060833Y027015D01*
X060598Y027250D01*
X060068Y027250D01*
X059693Y026875D01*
X059693Y026345D01*
X059928Y026110D01*
X059693Y025875D01*
X059693Y025345D01*
X059928Y025110D01*
X059693Y024875D01*
X059693Y024345D01*
X059928Y024110D01*
X059693Y023875D01*
X059693Y023345D01*
X059928Y023110D01*
X059693Y022875D01*
X059693Y022345D01*
X059928Y022110D01*
X059726Y021908D01*
X058922Y022712D01*
X058810Y022824D01*
X058663Y022885D01*
X057414Y022885D01*
X057442Y022912D01*
X057528Y023122D01*
X057528Y023348D01*
X057442Y023558D01*
X057281Y023718D01*
X057072Y023805D01*
X056845Y023805D01*
X056635Y023718D01*
X056552Y023635D01*
X050754Y023635D01*
X050607Y023574D01*
X049668Y022635D01*
X046799Y022635D01*
X048701Y024537D01*
X048839Y024480D01*
X049078Y024480D01*
X049298Y024571D01*
X049458Y024731D01*
X049618Y024571D01*
X049839Y024480D01*
X050078Y024480D01*
X050298Y024571D01*
X050465Y024738D01*
X050501Y024689D01*
X050567Y024622D01*
X050644Y024567D01*
X050728Y024524D01*
X050818Y024495D01*
X050911Y024480D01*
X050958Y024480D01*
X050958Y025360D01*
X050958Y025360D01*
X050958Y024480D01*
X051006Y024480D01*
X051099Y024495D01*
X051189Y024524D01*
X051273Y024567D01*
X051349Y024622D01*
X051416Y024689D01*
X051452Y024738D01*
X051618Y024571D01*
X051839Y024480D01*
X052078Y024480D01*
X052298Y024571D01*
X052467Y024740D01*
X052525Y024880D01*
X053090Y024880D01*
X053210Y024760D01*
X053707Y024760D01*
X054058Y025111D01*
X054058Y025609D01*
X053957Y025710D01*
X055913Y025710D01*
X056060Y025771D01*
X056685Y026396D01*
X056797Y026508D01*
X056858Y026655D01*
X056858Y027631D01*
X056958Y027731D01*
X056875Y027648D02*
X057042Y027648D01*
X056858Y027490D02*
X057316Y027490D01*
X057601Y027490D02*
X058316Y027490D01*
X058601Y027490D02*
X059316Y027490D01*
X059601Y027490D02*
X060316Y027490D01*
X060601Y027490D02*
X061351Y027490D01*
X061458Y027490D02*
X061458Y027490D01*
X061458Y027480D02*
X061506Y027480D01*
X061599Y027495D01*
X061689Y027524D01*
X061773Y027567D01*
X061849Y027622D01*
X061916Y027689D01*
X061971Y027766D01*
X062014Y027850D01*
X062044Y027939D01*
X062058Y028033D01*
X062058Y028360D01*
X062058Y028687D01*
X062044Y028780D01*
X062014Y028870D01*
X061971Y028954D01*
X061916Y029031D01*
X061849Y029098D01*
X061773Y029153D01*
X061689Y029196D01*
X061599Y029225D01*
X061506Y029240D01*
X061458Y029240D01*
X061458Y028360D01*
X061458Y028360D01*
X061458Y028360D01*
X061458Y027480D01*
X061566Y027490D02*
X063198Y027490D01*
X063198Y027648D02*
X061875Y027648D01*
X061992Y027807D02*
X063198Y027807D01*
X063290Y027965D02*
X062048Y027965D01*
X062058Y028124D02*
X063422Y028124D01*
X063263Y028282D02*
X062058Y028282D01*
X062058Y028360D02*
X061458Y028360D01*
X062058Y028360D01*
X062058Y028441D02*
X063198Y028441D01*
X063198Y028599D02*
X062058Y028599D01*
X062047Y028758D02*
X063198Y028758D01*
X063241Y028916D02*
X061991Y028916D01*
X061872Y029075D02*
X063400Y029075D01*
X063312Y029233D02*
X061550Y029233D01*
X061458Y029233D02*
X061458Y029233D01*
X061367Y029233D02*
X060858Y029233D01*
X060858Y029392D02*
X063198Y029392D01*
X063198Y029550D02*
X060858Y029550D01*
X060858Y029709D02*
X063198Y029709D01*
X063198Y029867D02*
X060858Y029867D01*
X060858Y030026D02*
X063351Y030026D01*
X063361Y030184D02*
X060858Y030184D01*
X060858Y030343D02*
X063203Y030343D01*
X063198Y030501D02*
X061628Y030501D01*
X061886Y030660D02*
X063198Y030660D01*
X063198Y030818D02*
X061999Y030818D01*
X062058Y030977D02*
X063302Y030977D01*
X063410Y031135D02*
X062058Y031135D01*
X062058Y031294D02*
X063252Y031294D01*
X063198Y031452D02*
X062058Y031452D01*
X062058Y031611D02*
X063198Y031611D01*
X063198Y031769D02*
X062054Y031769D01*
X061989Y031928D02*
X063253Y031928D01*
X063411Y032086D02*
X061861Y032086D01*
X061458Y031860D02*
X061458Y031360D01*
X061458Y031860D02*
X061083Y032235D01*
X059333Y032235D01*
X058958Y031860D01*
X058958Y030735D01*
X058583Y030360D01*
X054958Y030360D01*
X053333Y028735D01*
X053333Y028110D01*
X052583Y027360D01*
X050958Y027360D01*
X050958Y028360D01*
X051465Y028982D02*
X051298Y029149D01*
X051078Y029240D01*
X050839Y029240D01*
X050618Y029149D01*
X050458Y028989D01*
X050298Y029149D01*
X050078Y029240D01*
X049839Y029240D01*
X049618Y029149D01*
X049458Y028989D01*
X049298Y029149D01*
X049078Y029240D01*
X048839Y029240D01*
X048618Y029149D01*
X048458Y028989D01*
X048298Y029149D01*
X048078Y029240D01*
X047839Y029240D01*
X047618Y029149D01*
X047458Y028989D01*
X047298Y029149D01*
X047078Y029240D01*
X046839Y029240D01*
X046618Y029149D01*
X046458Y028989D01*
X046298Y029149D01*
X046078Y029240D01*
X045839Y029240D01*
X045618Y029149D01*
X045458Y028989D01*
X045298Y029149D01*
X045078Y029240D01*
X044839Y029240D01*
X044618Y029149D01*
X044458Y028989D01*
X044298Y029149D01*
X044078Y029240D01*
X043839Y029240D01*
X043618Y029149D01*
X043452Y028982D01*
X043416Y029031D01*
X043349Y029098D01*
X043273Y029153D01*
X043189Y029196D01*
X043099Y029225D01*
X043006Y029240D01*
X042958Y029240D01*
X042911Y029240D01*
X042818Y029225D01*
X042728Y029196D01*
X042644Y029153D01*
X042567Y029098D01*
X042501Y029031D01*
X042445Y028954D01*
X042402Y028870D01*
X042373Y028780D01*
X042358Y028687D01*
X042358Y028360D01*
X042358Y028033D01*
X042373Y027939D01*
X042402Y027850D01*
X042445Y027766D01*
X042501Y027689D01*
X042567Y027622D01*
X042644Y027567D01*
X042728Y027524D01*
X042818Y027495D01*
X042911Y027480D01*
X042958Y027480D01*
X042958Y028360D01*
X042358Y028360D01*
X042958Y028360D01*
X042958Y028360D01*
X042958Y029240D01*
X042958Y028360D01*
X042958Y028360D01*
X042958Y028360D01*
X042958Y027480D01*
X043006Y027480D01*
X043099Y027495D01*
X043189Y027524D01*
X043273Y027567D01*
X043349Y027622D01*
X043416Y027689D01*
X043452Y027738D01*
X043618Y027571D01*
X043839Y027480D01*
X044078Y027480D01*
X044298Y027571D01*
X044458Y027731D01*
X044618Y027571D01*
X044839Y027480D01*
X045078Y027480D01*
X045216Y027537D01*
X045493Y027260D01*
X039830Y027260D01*
X039838Y027313D01*
X039838Y027360D01*
X039838Y027407D01*
X039824Y027500D01*
X039794Y027590D01*
X039751Y027674D01*
X039696Y027751D01*
X039629Y027818D01*
X039580Y027853D01*
X039747Y028020D01*
X039838Y028241D01*
X039838Y028479D01*
X039747Y028700D01*
X039578Y028869D01*
X039358Y028960D01*
X038559Y028960D01*
X038338Y028869D01*
X038170Y028700D01*
X038078Y028479D01*
X038078Y028241D01*
X038170Y028020D01*
X038337Y027853D01*
X038287Y027818D01*
X038221Y027751D01*
X038165Y027674D01*
X038122Y027590D01*
X038093Y027500D01*
X038078Y027407D01*
X038078Y027360D01*
X038078Y027313D01*
X038087Y027260D01*
X036838Y027260D01*
X036838Y027479D01*
X036747Y027700D01*
X036587Y027860D01*
X036747Y028020D01*
X036838Y028241D01*
X036838Y028479D01*
X036747Y028700D01*
X036578Y028869D01*
X036358Y028960D01*
X035559Y028960D01*
X035338Y028869D01*
X035170Y028700D01*
X035078Y028479D01*
X035078Y028241D01*
X035170Y028020D01*
X035330Y027860D01*
X035170Y027700D01*
X035078Y027479D01*
X035078Y027260D01*
X034338Y027260D01*
X034338Y027479D01*
X034247Y027700D01*
X034087Y027860D01*
X034247Y028020D01*
X034338Y028241D01*
X034338Y028479D01*
X034247Y028700D01*
X034078Y028869D01*
X033938Y028927D01*
X033938Y029491D01*
X034058Y029611D01*
X034058Y030109D01*
X034037Y030130D01*
X036380Y030130D01*
X036358Y030109D01*
X036358Y029860D01*
X036358Y029611D01*
X036710Y029260D01*
X036958Y029260D01*
X036958Y029860D01*
X036358Y029860D01*
X036958Y029860D01*
X036958Y029860D01*
X036958Y029860D01*
X036958Y029260D01*
X037207Y029260D01*
X037558Y029611D01*
X037558Y029860D01*
X037558Y030109D01*
X037537Y030130D01*
X038380Y030130D01*
X038358Y030109D01*
X038358Y029611D01*
X038710Y029260D01*
X039207Y029260D01*
X039558Y029611D01*
X039558Y030109D01*
X039537Y030130D01*
X053715Y030130D01*
X053835Y030010D01*
X054043Y030010D01*
X052994Y028962D01*
X052933Y028815D01*
X052933Y028276D01*
X052518Y027860D01*
X052544Y027939D01*
X052558Y028033D01*
X052558Y028360D01*
X052558Y028687D01*
X052544Y028780D01*
X052514Y028870D01*
X052471Y028954D01*
X052416Y029031D01*
X052349Y029098D01*
X052273Y029153D01*
X052189Y029196D01*
X052099Y029225D01*
X052006Y029240D01*
X051958Y029240D01*
X051911Y029240D01*
X051818Y029225D01*
X051728Y029196D01*
X051644Y029153D01*
X051567Y029098D01*
X051501Y029031D01*
X051465Y028982D01*
X051544Y029075D02*
X051372Y029075D01*
X051094Y029233D02*
X051867Y029233D01*
X051958Y029233D02*
X051958Y029233D01*
X051958Y029240D02*
X051958Y028360D01*
X051958Y028360D01*
X051958Y029240D01*
X052050Y029233D02*
X053266Y029233D01*
X053424Y029392D02*
X039338Y029392D01*
X039497Y029550D02*
X053583Y029550D01*
X053741Y029709D02*
X039558Y029709D01*
X039558Y029867D02*
X053900Y029867D01*
X053819Y030026D02*
X039558Y030026D01*
X039464Y028916D02*
X042426Y028916D01*
X042369Y028758D02*
X039689Y028758D01*
X039789Y028599D02*
X042358Y028599D01*
X042358Y028441D02*
X039838Y028441D01*
X039838Y028282D02*
X042358Y028282D01*
X042358Y028124D02*
X039790Y028124D01*
X039692Y027965D02*
X042369Y027965D01*
X042424Y027807D02*
X039640Y027807D01*
X039765Y027648D02*
X042542Y027648D01*
X042851Y027490D02*
X039825Y027490D01*
X039838Y027360D02*
X038958Y027360D01*
X038078Y027360D01*
X038958Y027360D01*
X038958Y027360D01*
X038958Y027360D01*
X039838Y027360D01*
X039838Y027331D02*
X045422Y027331D01*
X045263Y027490D02*
X045101Y027490D01*
X044816Y027490D02*
X044101Y027490D01*
X043816Y027490D02*
X043066Y027490D01*
X042958Y027490D02*
X042958Y027490D01*
X042958Y027648D02*
X042958Y027648D01*
X042958Y027807D02*
X042958Y027807D01*
X042958Y027965D02*
X042958Y027965D01*
X042958Y028124D02*
X042958Y028124D01*
X042958Y028282D02*
X042958Y028282D01*
X042958Y028441D02*
X042958Y028441D01*
X042958Y028599D02*
X042958Y028599D01*
X042958Y028758D02*
X042958Y028758D01*
X042958Y028916D02*
X042958Y028916D01*
X042958Y029075D02*
X042958Y029075D01*
X042958Y029233D02*
X042958Y029233D01*
X042867Y029233D02*
X033938Y029233D01*
X033938Y029075D02*
X042544Y029075D01*
X043050Y029233D02*
X043822Y029233D01*
X044094Y029233D02*
X044822Y029233D01*
X045094Y029233D02*
X045822Y029233D01*
X046094Y029233D02*
X046822Y029233D01*
X047094Y029233D02*
X047822Y029233D01*
X048094Y029233D02*
X048822Y029233D01*
X049094Y029233D02*
X049822Y029233D01*
X050094Y029233D02*
X050822Y029233D01*
X050544Y029075D02*
X050372Y029075D01*
X049544Y029075D02*
X049372Y029075D01*
X048958Y028360D02*
X048958Y027360D01*
X050958Y027360D01*
X051958Y028360D02*
X051958Y028360D01*
X052558Y028360D01*
X051958Y028360D01*
X051958Y028441D02*
X051958Y028441D01*
X051958Y028599D02*
X051958Y028599D01*
X051958Y028758D02*
X051958Y028758D01*
X051958Y028916D02*
X051958Y028916D01*
X051958Y029075D02*
X051958Y029075D01*
X052372Y029075D02*
X053107Y029075D01*
X052975Y028916D02*
X052491Y028916D01*
X052547Y028758D02*
X052933Y028758D01*
X052933Y028599D02*
X052558Y028599D01*
X052558Y028441D02*
X052933Y028441D01*
X052933Y028282D02*
X052558Y028282D01*
X052558Y028124D02*
X052781Y028124D01*
X052623Y027965D02*
X052548Y027965D01*
X053458Y027360D02*
X054058Y027360D01*
X054058Y027609D01*
X053707Y027960D01*
X053704Y027960D01*
X053733Y028030D01*
X053733Y028111D01*
X053835Y028010D01*
X054083Y028010D01*
X054083Y028610D01*
X054083Y028610D01*
X054083Y028010D01*
X054332Y028010D01*
X054683Y028361D01*
X054683Y028610D01*
X054683Y028859D01*
X054353Y029189D01*
X055124Y029960D01*
X055883Y029960D01*
X055857Y029949D01*
X055744Y029837D01*
X055119Y029212D01*
X055075Y029105D01*
X054950Y028980D01*
X054858Y028759D01*
X054858Y027961D01*
X054950Y027740D01*
X055058Y027631D01*
X055058Y027276D01*
X055043Y027260D01*
X054058Y027260D01*
X054058Y027360D01*
X053458Y027360D01*
X053458Y027360D01*
X054058Y027331D02*
X055058Y027331D01*
X055058Y027490D02*
X054058Y027490D01*
X054019Y027648D02*
X055042Y027648D01*
X054922Y027807D02*
X053860Y027807D01*
X053706Y027965D02*
X054858Y027965D01*
X054858Y028124D02*
X054445Y028124D01*
X054604Y028282D02*
X054858Y028282D01*
X054858Y028441D02*
X054683Y028441D01*
X054683Y028599D02*
X054858Y028599D01*
X054858Y028758D02*
X054683Y028758D01*
X054683Y028610D02*
X054083Y028610D01*
X054083Y028610D01*
X054683Y028610D01*
X054626Y028916D02*
X054923Y028916D01*
X055044Y029075D02*
X054467Y029075D01*
X054397Y029233D02*
X055141Y029233D01*
X055299Y029392D02*
X054556Y029392D01*
X054714Y029550D02*
X055458Y029550D01*
X055616Y029709D02*
X054873Y029709D01*
X055031Y029867D02*
X055775Y029867D01*
X056083Y029610D02*
X057833Y029610D01*
X058458Y028985D01*
X058458Y028360D01*
X059458Y028360D01*
X060458Y028360D02*
X060458Y031360D01*
X059458Y031360D01*
X060858Y030501D02*
X061288Y030501D01*
X061030Y030660D02*
X060886Y030660D01*
X060872Y029075D02*
X061044Y029075D01*
X061458Y029075D02*
X061458Y029075D01*
X061458Y028916D02*
X061458Y028916D01*
X061458Y028758D02*
X061458Y028758D01*
X061458Y028599D02*
X061458Y028599D01*
X061458Y028441D02*
X061458Y028441D01*
X061458Y028360D02*
X061458Y028360D01*
X061458Y028282D02*
X061458Y028282D01*
X061458Y028124D02*
X061458Y028124D01*
X061458Y027965D02*
X061458Y027965D01*
X061458Y027807D02*
X061458Y027807D01*
X061458Y027648D02*
X061458Y027648D01*
X061042Y027648D02*
X060875Y027648D01*
X060991Y027173D02*
X060676Y027173D01*
X059991Y027173D02*
X056858Y027173D01*
X056858Y027331D02*
X063214Y027331D01*
X063373Y027173D02*
X061676Y027173D01*
X061834Y027014D02*
X063339Y027014D01*
X063198Y026856D02*
X061973Y026856D01*
X061973Y026697D02*
X063198Y026697D01*
X063198Y026539D02*
X061973Y026539D01*
X061973Y026380D02*
X063198Y026380D01*
X063324Y026222D02*
X061850Y026222D01*
X061785Y026063D02*
X063388Y026063D01*
X063230Y025905D02*
X061944Y025905D01*
X061973Y025746D02*
X063198Y025746D01*
X063198Y025588D02*
X061973Y025588D01*
X061973Y025429D02*
X063198Y025429D01*
X063275Y025271D02*
X061899Y025271D01*
X061740Y025112D02*
X063433Y025112D01*
X063279Y024954D02*
X061895Y024954D01*
X061973Y024795D02*
X063198Y024795D01*
X063198Y024637D02*
X061973Y024637D01*
X061973Y024478D02*
X063198Y024478D01*
X063226Y024320D02*
X061948Y024320D01*
X061789Y024161D02*
X063384Y024161D01*
X063328Y024003D02*
X061846Y024003D01*
X061973Y023844D02*
X063198Y023844D01*
X063198Y023686D02*
X061973Y023686D01*
X061973Y023527D02*
X063198Y023527D01*
X063198Y023369D02*
X061973Y023369D01*
X061838Y023210D02*
X063335Y023210D01*
X063377Y023052D02*
X061797Y023052D01*
X061955Y022893D02*
X063218Y022893D01*
X063198Y022735D02*
X061973Y022735D01*
X061973Y022576D02*
X063198Y022576D01*
X063198Y022418D02*
X061973Y022418D01*
X061887Y022259D02*
X063286Y022259D01*
X063426Y022101D02*
X061748Y022101D01*
X062067Y021942D02*
X063267Y021942D01*
X063198Y021784D02*
X062225Y021784D01*
X062384Y021625D02*
X063198Y021625D01*
X063198Y020674D02*
X061973Y020674D01*
X061973Y020516D02*
X063198Y020516D01*
X063198Y020357D02*
X061973Y020357D01*
X061827Y020199D02*
X063347Y020199D01*
X063365Y020040D02*
X061808Y020040D01*
X061967Y019882D02*
X063207Y019882D01*
X063198Y019723D02*
X061973Y019723D01*
X061973Y019565D02*
X063198Y019565D01*
X063198Y019406D02*
X061973Y019406D01*
X061876Y019248D02*
X063298Y019248D01*
X063414Y019089D02*
X061759Y019089D01*
X061918Y018931D02*
X063256Y018931D01*
X063198Y018772D02*
X061973Y018772D01*
X061973Y018614D02*
X063198Y018614D01*
X063198Y018455D02*
X061973Y018455D01*
X061925Y018297D02*
X063249Y018297D01*
X063407Y018138D02*
X061766Y018138D01*
X061869Y017980D02*
X063305Y017980D01*
X063198Y017821D02*
X061973Y017821D01*
X061973Y017663D02*
X063198Y017663D01*
X063198Y017504D02*
X061973Y017504D01*
X061973Y017346D02*
X063200Y017346D01*
X063358Y017187D02*
X061815Y017187D01*
X061820Y017029D02*
X063354Y017029D01*
X063198Y016870D02*
X061973Y016870D01*
X061973Y016712D02*
X063198Y016712D01*
X063198Y016553D02*
X061973Y016553D01*
X061973Y016395D02*
X063198Y016395D01*
X063309Y016236D02*
X061864Y016236D01*
X061771Y016078D02*
X063403Y016078D01*
X063244Y015919D02*
X061929Y015919D01*
X061973Y015761D02*
X063198Y015761D01*
X063198Y015602D02*
X061973Y015602D01*
X061973Y015444D02*
X063198Y015444D01*
X063260Y015285D02*
X061913Y015285D01*
X061755Y015127D02*
X063419Y015127D01*
X063293Y014968D02*
X061880Y014968D01*
X061973Y014810D02*
X063198Y014810D01*
X063198Y014651D02*
X061973Y014651D01*
X061973Y014493D02*
X063198Y014493D01*
X063211Y014334D02*
X061962Y014334D01*
X061333Y013610D02*
X060708Y012985D01*
X059333Y012985D01*
X059982Y011164D02*
X056904Y011164D01*
X056938Y011006D02*
X059824Y011006D01*
X059693Y010847D02*
X056938Y010847D01*
X056938Y010689D02*
X059693Y010689D01*
X059693Y010530D02*
X056938Y010530D01*
X056938Y010372D02*
X059693Y010372D01*
X059825Y010213D02*
X056938Y010213D01*
X056938Y010055D02*
X059853Y010055D01*
X059714Y009896D02*
X056938Y009896D01*
X056938Y009738D02*
X059693Y009738D01*
X059693Y009579D02*
X056938Y009579D01*
X056938Y009421D02*
X059693Y009421D01*
X059776Y009262D02*
X056938Y009262D01*
X056938Y009104D02*
X059853Y009104D01*
X059853Y008945D02*
X056938Y008945D01*
X056938Y008787D02*
X059853Y008787D01*
X059853Y008628D02*
X056938Y008628D01*
X056938Y008470D02*
X059853Y008470D01*
X060684Y011164D02*
X060982Y011164D01*
X060833Y015110D02*
X055958Y015110D01*
X055833Y014985D01*
X049333Y014985D01*
X048958Y015360D01*
X048458Y015360D01*
X047958Y015860D01*
X047958Y016110D01*
X048958Y016110D02*
X048958Y015860D01*
X049458Y015360D01*
X055708Y015360D01*
X055958Y015610D01*
X060333Y015610D01*
X060833Y015110D02*
X061333Y015610D01*
X060833Y016110D02*
X054083Y016110D01*
X053333Y016610D02*
X053083Y016860D01*
X051708Y016860D01*
X050958Y016110D01*
X049958Y016110D02*
X051083Y017235D01*
X054083Y017235D01*
X053333Y016610D02*
X060333Y016610D01*
X060833Y016110D02*
X061333Y016610D01*
X060833Y017110D02*
X061333Y017610D01*
X060833Y018110D02*
X058583Y018110D01*
X057208Y019485D01*
X049083Y019485D01*
X048708Y019860D01*
X048208Y019860D01*
X047833Y020235D01*
X047333Y020235D01*
X046958Y020610D01*
X046458Y020610D01*
X045958Y021110D01*
X045958Y021360D01*
X046958Y021360D02*
X046958Y021110D01*
X047458Y020610D01*
X047958Y020610D01*
X048333Y020235D01*
X048833Y020235D01*
X049208Y019860D01*
X057458Y019860D01*
X058708Y018610D01*
X060333Y018610D01*
X060833Y018110D02*
X061333Y018610D01*
X060833Y019110D02*
X058833Y019110D01*
X057708Y020235D01*
X049333Y020235D01*
X048958Y020610D01*
X048458Y020610D01*
X047958Y021110D01*
X047958Y021360D01*
X048958Y021360D02*
X048958Y021110D01*
X049458Y020610D01*
X059333Y020610D01*
X060333Y019610D01*
X060833Y019110D02*
X061333Y019610D01*
X061333Y020610D02*
X060833Y021110D01*
X059958Y021110D01*
X058583Y022485D01*
X051083Y022485D01*
X049958Y021360D01*
X050958Y021360D02*
X051708Y022110D01*
X058458Y022110D01*
X059958Y020610D01*
X060333Y020610D01*
X061333Y021610D02*
X061833Y021610D01*
X062333Y021110D01*
X065333Y021110D01*
X065833Y021610D01*
X062045Y020833D02*
X061973Y020833D01*
X061994Y020883D02*
X061994Y020883D01*
X061887Y020991D02*
X061857Y020991D01*
X059919Y022101D02*
X059533Y022101D01*
X059375Y022259D02*
X059779Y022259D01*
X059693Y022418D02*
X059216Y022418D01*
X059058Y022576D02*
X059693Y022576D01*
X059693Y022735D02*
X058899Y022735D01*
X058922Y022712D02*
X058922Y022712D01*
X059711Y022893D02*
X057422Y022893D01*
X057499Y023052D02*
X059870Y023052D01*
X059828Y023210D02*
X057528Y023210D01*
X057520Y023369D02*
X059693Y023369D01*
X059693Y023527D02*
X057454Y023527D01*
X057314Y023686D02*
X059693Y023686D01*
X059693Y023844D02*
X048008Y023844D01*
X047850Y023686D02*
X056603Y023686D01*
X056000Y025746D02*
X059693Y025746D01*
X059693Y025588D02*
X054058Y025588D01*
X054058Y025429D02*
X059693Y025429D01*
X059768Y025271D02*
X054058Y025271D01*
X054058Y025112D02*
X059926Y025112D01*
X059772Y024954D02*
X053900Y024954D01*
X053742Y024795D02*
X059693Y024795D01*
X059693Y024637D02*
X052363Y024637D01*
X052490Y024795D02*
X053175Y024795D01*
X051553Y024637D02*
X051363Y024637D01*
X050958Y024637D02*
X050958Y024637D01*
X050958Y024795D02*
X050958Y024795D01*
X050958Y024954D02*
X050958Y024954D01*
X050958Y025112D02*
X050958Y025112D01*
X050958Y025271D02*
X050958Y025271D01*
X050553Y024637D02*
X050363Y024637D01*
X049553Y024637D02*
X049363Y024637D01*
X048642Y024478D02*
X059693Y024478D01*
X059719Y024320D02*
X048484Y024320D01*
X048325Y024161D02*
X059877Y024161D01*
X059821Y024003D02*
X048167Y024003D01*
X047691Y023527D02*
X050560Y023527D01*
X050401Y023369D02*
X047533Y023369D01*
X047374Y023210D02*
X050243Y023210D01*
X050084Y023052D02*
X047216Y023052D01*
X047057Y022893D02*
X049926Y022893D01*
X049767Y022735D02*
X046899Y022735D01*
X046208Y022610D02*
X042208Y022610D01*
X040708Y021110D01*
X030083Y021110D01*
X029548Y021308D02*
X028462Y021308D01*
X028589Y021467D02*
X029634Y021467D01*
X029837Y021625D02*
X028653Y021625D01*
X028653Y021784D02*
X030011Y021784D01*
X029748Y021942D02*
X028615Y021942D01*
X028524Y022101D02*
X029637Y022101D01*
X029587Y022259D02*
X028483Y022259D01*
X028441Y022418D02*
X029580Y022418D01*
X029618Y022576D02*
X028308Y022576D01*
X028149Y022735D02*
X029709Y022735D01*
X029797Y022893D02*
X027991Y022893D01*
X027832Y023052D02*
X029657Y023052D01*
X029591Y023210D02*
X027826Y023210D01*
X027838Y023369D02*
X029578Y023369D01*
X030458Y022360D02*
X031338Y022360D01*
X030458Y022360D01*
X030458Y022360D01*
X030458Y022259D02*
X030458Y022259D01*
X030458Y022101D02*
X030458Y022101D01*
X030458Y021942D02*
X030458Y021942D01*
X030458Y021784D02*
X030458Y021784D01*
X030329Y021625D02*
X040658Y021625D01*
X040816Y021784D02*
X039414Y021784D01*
X039669Y021942D02*
X040975Y021942D01*
X041133Y022101D02*
X039780Y022101D01*
X039838Y022259D02*
X041292Y022259D01*
X041450Y022418D02*
X039838Y022418D01*
X039798Y022576D02*
X041609Y022576D01*
X041767Y022735D02*
X039712Y022735D01*
X039616Y022893D02*
X041926Y022893D01*
X042601Y023527D02*
X039815Y023527D01*
X039838Y023369D02*
X042759Y023369D01*
X043004Y023210D02*
X039820Y023210D01*
X039838Y023360D02*
X038958Y023360D01*
X038078Y023360D01*
X038958Y023360D01*
X038958Y023360D01*
X039838Y023360D01*
X039755Y023052D02*
X046084Y023052D01*
X046208Y022610D02*
X048958Y025360D01*
X048958Y027360D02*
X046958Y027360D01*
X046958Y028360D01*
X046544Y029075D02*
X046372Y029075D01*
X045544Y029075D02*
X045372Y029075D01*
X044958Y028360D02*
X045958Y027360D01*
X046958Y027360D01*
X047372Y029075D02*
X047544Y029075D01*
X048372Y029075D02*
X048544Y029075D01*
X044544Y029075D02*
X044372Y029075D01*
X043544Y029075D02*
X043372Y029075D01*
X043375Y027648D02*
X043542Y027648D01*
X044375Y027648D02*
X044542Y027648D01*
X044958Y026485D02*
X043583Y026485D01*
X042958Y025860D01*
X042958Y025360D01*
X041650Y024478D02*
X039838Y024478D01*
X039838Y024320D02*
X041808Y024320D01*
X041967Y024161D02*
X039805Y024161D01*
X039729Y024003D02*
X042125Y024003D01*
X042284Y023844D02*
X039593Y023844D01*
X039743Y023686D02*
X042442Y023686D01*
X041491Y024637D02*
X039773Y024637D01*
X039652Y024795D02*
X041333Y024795D01*
X041174Y024954D02*
X039680Y024954D01*
X039785Y025112D02*
X041016Y025112D01*
X040857Y025271D02*
X039832Y025271D01*
X039838Y025360D02*
X038958Y025360D01*
X038078Y025360D01*
X038958Y025360D01*
X038958Y025360D01*
X039838Y025360D01*
X039835Y025429D02*
X040699Y025429D01*
X038958Y025360D02*
X038958Y025360D01*
X038236Y024954D02*
X036680Y024954D01*
X036652Y024795D02*
X038265Y024795D01*
X038143Y024637D02*
X036773Y024637D01*
X036838Y024478D02*
X038078Y024478D01*
X038078Y024320D02*
X036838Y024320D01*
X036805Y024161D02*
X038111Y024161D01*
X038187Y024003D02*
X036729Y024003D01*
X036603Y023844D02*
X038324Y023844D01*
X038173Y023686D02*
X036753Y023686D01*
X036819Y023527D02*
X038102Y023527D01*
X038078Y023369D02*
X036838Y023369D01*
X036826Y023210D02*
X038096Y023210D01*
X038162Y023052D02*
X036760Y023052D01*
X036620Y022893D02*
X038300Y022893D01*
X038204Y022735D02*
X036708Y022735D01*
X036799Y022576D02*
X038118Y022576D01*
X038078Y022418D02*
X036837Y022418D01*
X036838Y022360D02*
X035958Y022360D01*
X035958Y022360D01*
X036838Y022360D01*
X036830Y022259D02*
X038078Y022259D01*
X038136Y022101D02*
X036780Y022101D01*
X036669Y021942D02*
X038248Y021942D01*
X038502Y021784D02*
X036406Y021784D01*
X035958Y021784D02*
X035958Y021784D01*
X035958Y021942D02*
X035958Y021942D01*
X035958Y022101D02*
X035958Y022101D01*
X035958Y022259D02*
X035958Y022259D01*
X035511Y021784D02*
X033914Y021784D01*
X034169Y021942D02*
X035248Y021942D01*
X035137Y022101D02*
X034280Y022101D01*
X034338Y022259D02*
X035087Y022259D01*
X035080Y022418D02*
X034338Y022418D01*
X034298Y022576D02*
X035118Y022576D01*
X035209Y022735D02*
X034212Y022735D01*
X034120Y022893D02*
X035297Y022893D01*
X035157Y023052D02*
X034260Y023052D01*
X034326Y023210D02*
X035091Y023210D01*
X035078Y023369D02*
X034338Y023369D01*
X034319Y023527D02*
X035098Y023527D01*
X035164Y023686D02*
X034475Y023686D01*
X034633Y023844D02*
X035314Y023844D01*
X035187Y024003D02*
X034792Y024003D01*
X034858Y024161D02*
X035111Y024161D01*
X035078Y024320D02*
X034858Y024320D01*
X034858Y024478D02*
X035078Y024478D01*
X035143Y024637D02*
X034858Y024637D01*
X034858Y024795D02*
X035265Y024795D01*
X035236Y024954D02*
X034858Y024954D01*
X034858Y025112D02*
X035132Y025112D01*
X035078Y025271D02*
X034858Y025271D01*
X034968Y025429D02*
X035078Y025429D01*
X033458Y025360D02*
X032458Y026360D01*
X030458Y026360D01*
X027958Y026360D01*
X026958Y025360D01*
X025958Y026360D01*
X026958Y026360D02*
X027458Y026860D01*
X055208Y026860D01*
X055458Y027110D01*
X055458Y028360D01*
X055458Y028985D01*
X056083Y029610D01*
X055958Y028860D02*
X055958Y026860D01*
X055583Y026485D01*
X044958Y026485D01*
X044958Y025360D01*
X043958Y025360D02*
X045208Y024110D01*
X046458Y024110D01*
X042771Y022210D02*
X042728Y022196D01*
X042644Y022153D01*
X042567Y022098D01*
X042501Y022031D01*
X042445Y021954D01*
X042402Y021870D01*
X042373Y021780D01*
X042358Y021687D01*
X042358Y021360D01*
X042358Y021033D01*
X042362Y021010D01*
X041174Y021010D01*
X042374Y022210D01*
X042771Y022210D01*
X042571Y022101D02*
X042265Y022101D01*
X042106Y021942D02*
X042439Y021942D01*
X042374Y021784D02*
X041948Y021784D01*
X041789Y021625D02*
X042358Y021625D01*
X042358Y021467D02*
X041631Y021467D01*
X041472Y021308D02*
X042358Y021308D01*
X042358Y021360D02*
X042958Y021360D01*
X042958Y021360D01*
X042358Y021360D01*
X042358Y021150D02*
X041314Y021150D01*
X038958Y023360D02*
X038958Y023360D01*
X038131Y025112D02*
X036785Y025112D01*
X036838Y025271D02*
X038085Y025271D01*
X038082Y025429D02*
X036838Y025429D01*
X036838Y027331D02*
X038078Y027331D01*
X038091Y027490D02*
X036834Y027490D01*
X036768Y027648D02*
X038152Y027648D01*
X038276Y027807D02*
X036640Y027807D01*
X036692Y027965D02*
X038225Y027965D01*
X038127Y028124D02*
X036790Y028124D01*
X036838Y028282D02*
X038078Y028282D01*
X038078Y028441D02*
X036838Y028441D01*
X036789Y028599D02*
X038128Y028599D01*
X038227Y028758D02*
X036689Y028758D01*
X036464Y028916D02*
X038453Y028916D01*
X038578Y029392D02*
X037338Y029392D01*
X037497Y029550D02*
X038420Y029550D01*
X038358Y029709D02*
X037558Y029709D01*
X037558Y029860D02*
X036958Y029860D01*
X037558Y029860D01*
X037558Y029867D02*
X038358Y029867D01*
X038358Y030026D02*
X037558Y030026D01*
X036958Y029860D02*
X036958Y029860D01*
X036958Y029709D02*
X036958Y029709D01*
X036958Y029550D02*
X036958Y029550D01*
X036958Y029392D02*
X036958Y029392D01*
X036578Y029392D02*
X033938Y029392D01*
X033997Y029550D02*
X036420Y029550D01*
X036358Y029709D02*
X034058Y029709D01*
X034058Y029867D02*
X036358Y029867D01*
X036358Y030026D02*
X034058Y030026D01*
X032978Y029491D02*
X032978Y028927D01*
X032838Y028869D01*
X032670Y028700D01*
X032578Y028479D01*
X032578Y028260D01*
X031338Y028260D01*
X031338Y028479D01*
X031247Y028700D01*
X031078Y028869D01*
X030858Y028960D01*
X030059Y028960D01*
X029838Y028869D01*
X029730Y028760D01*
X027687Y028760D01*
X027578Y028869D01*
X027438Y028927D01*
X027438Y029491D01*
X027558Y029611D01*
X027558Y030109D01*
X027537Y030130D01*
X030880Y030130D01*
X030858Y030109D01*
X030858Y029860D01*
X030858Y029611D01*
X031210Y029260D01*
X031458Y029260D01*
X031458Y029860D01*
X030858Y029860D01*
X031458Y029860D01*
X031458Y029860D01*
X031458Y029860D01*
X031458Y029260D01*
X031707Y029260D01*
X032058Y029611D01*
X032058Y029860D01*
X032058Y030109D01*
X032037Y030130D01*
X032880Y030130D01*
X032858Y030109D01*
X032858Y029611D01*
X032978Y029491D01*
X032920Y029550D02*
X031997Y029550D01*
X032058Y029709D02*
X032858Y029709D01*
X032858Y029867D02*
X032058Y029867D01*
X032058Y029860D02*
X031458Y029860D01*
X031458Y029860D01*
X032058Y029860D01*
X032058Y030026D02*
X032858Y030026D01*
X032978Y029392D02*
X031838Y029392D01*
X031458Y029392D02*
X031458Y029392D01*
X031458Y029550D02*
X031458Y029550D01*
X031458Y029709D02*
X031458Y029709D01*
X031078Y029392D02*
X027438Y029392D01*
X027438Y029233D02*
X032978Y029233D01*
X032978Y029075D02*
X027438Y029075D01*
X027464Y028916D02*
X029953Y028916D01*
X030458Y028360D02*
X026958Y028360D01*
X027458Y027860D02*
X032958Y027860D01*
X033458Y027360D01*
X034140Y027807D02*
X035276Y027807D01*
X035225Y027965D02*
X034192Y027965D01*
X034290Y028124D02*
X035127Y028124D01*
X035078Y028282D02*
X034338Y028282D01*
X034338Y028441D02*
X035078Y028441D01*
X035128Y028599D02*
X034289Y028599D01*
X034189Y028758D02*
X035227Y028758D01*
X035453Y028916D02*
X033964Y028916D01*
X032953Y028916D02*
X030964Y028916D01*
X031189Y028758D02*
X032727Y028758D01*
X032628Y028599D02*
X031289Y028599D01*
X031338Y028441D02*
X032578Y028441D01*
X032578Y028282D02*
X031338Y028282D01*
X030920Y029550D02*
X027497Y029550D01*
X027558Y029709D02*
X030858Y029709D01*
X030858Y029867D02*
X027558Y029867D01*
X027558Y030026D02*
X030858Y030026D01*
X029666Y032086D02*
X032510Y032086D01*
X032327Y032245D02*
X029846Y032245D01*
X029927Y032403D02*
X032240Y032403D01*
X032204Y032562D02*
X029963Y032562D01*
X029963Y032720D02*
X032213Y032720D01*
X032267Y032879D02*
X029902Y032879D01*
X029785Y033037D02*
X032382Y033037D01*
X032369Y033196D02*
X029797Y033196D01*
X029907Y033354D02*
X032260Y033354D01*
X032203Y033513D02*
X029963Y033513D01*
X029963Y033671D02*
X032203Y033671D01*
X033083Y034110D02*
X033083Y034610D01*
X033083Y034110D02*
X027458Y034110D01*
X026958Y033610D01*
X026083Y033610D01*
X025333Y034110D02*
X024833Y034610D01*
X023958Y034610D01*
X023458Y035110D01*
X017958Y035110D01*
X017458Y035610D01*
X015958Y035610D01*
X012958Y038610D01*
X007833Y038610D01*
X007333Y038110D02*
X006833Y037610D01*
X007333Y038110D02*
X012458Y038110D01*
X015958Y034610D01*
X017458Y034610D01*
X017958Y034110D01*
X023458Y034110D01*
X023958Y033610D01*
X024833Y033610D01*
X025333Y033110D01*
X026958Y033110D01*
X027458Y033610D01*
X029083Y033610D01*
X028369Y033196D02*
X027610Y033196D01*
X027451Y033037D02*
X028382Y033037D01*
X028265Y032879D02*
X027293Y032879D01*
X027062Y032720D02*
X028203Y032720D01*
X028203Y032562D02*
X026963Y032562D01*
X026963Y032610D02*
X026083Y032610D01*
X026963Y032610D01*
X026927Y032403D02*
X028240Y032403D01*
X028320Y032245D02*
X026839Y032245D01*
X026657Y032086D02*
X028500Y032086D01*
X026083Y032086D02*
X026083Y032086D01*
X026083Y032245D02*
X026083Y032245D01*
X026083Y032403D02*
X026083Y032403D01*
X026083Y032562D02*
X026083Y032562D01*
X026083Y032610D02*
X026083Y032610D01*
X025510Y032086D02*
X024283Y032086D01*
X024441Y032245D02*
X025327Y032245D01*
X025240Y032403D02*
X024558Y032403D01*
X024558Y032562D02*
X025204Y032562D01*
X025213Y032720D02*
X024558Y032720D01*
X024538Y032879D02*
X024999Y032879D01*
X024841Y033037D02*
X024380Y033037D01*
X024392Y033196D02*
X024682Y033196D01*
X023958Y032610D02*
X023458Y033110D01*
X017958Y033110D01*
X017458Y033610D01*
X015958Y033610D01*
X011958Y037610D01*
X007833Y037610D01*
X008286Y037158D02*
X011845Y037158D01*
X012003Y037000D02*
X008349Y037000D01*
X008473Y036841D02*
X012162Y036841D01*
X012320Y036683D02*
X008473Y036683D01*
X008473Y036524D02*
X012479Y036524D01*
X012637Y036366D02*
X008473Y036366D01*
X008335Y036207D02*
X012796Y036207D01*
X012954Y036049D02*
X008300Y036049D01*
X008458Y035890D02*
X013113Y035890D01*
X013271Y035732D02*
X008473Y035732D01*
X008473Y035573D02*
X013430Y035573D01*
X013588Y035415D02*
X008473Y035415D01*
X008384Y035256D02*
X013747Y035256D01*
X013905Y035098D02*
X008251Y035098D01*
X008409Y034939D02*
X014064Y034939D01*
X014222Y034781D02*
X008473Y034781D01*
X008473Y034622D02*
X014381Y034622D01*
X014539Y034464D02*
X008473Y034464D01*
X008433Y034305D02*
X014698Y034305D01*
X014856Y034147D02*
X008275Y034147D01*
X008360Y033988D02*
X015015Y033988D01*
X015120Y033830D02*
X008473Y033830D01*
X008473Y033671D02*
X015078Y033671D01*
X015078Y033513D02*
X008473Y033513D01*
X008473Y033354D02*
X015135Y033354D01*
X015244Y033196D02*
X008324Y033196D01*
X008165Y033037D02*
X015257Y033037D01*
X015958Y032610D02*
X015958Y032610D01*
X015958Y032562D02*
X015958Y032562D01*
X015958Y032403D02*
X015958Y032403D01*
X015958Y032245D02*
X015958Y032245D01*
X015958Y032086D02*
X015958Y032086D01*
X016532Y032086D02*
X018375Y032086D01*
X018195Y032245D02*
X016714Y032245D01*
X016802Y032403D02*
X018115Y032403D01*
X018078Y032562D02*
X016838Y032562D01*
X016828Y032720D02*
X017855Y032720D01*
X017624Y032879D02*
X016775Y032879D01*
X016660Y033037D02*
X017466Y033037D01*
X017307Y033196D02*
X016672Y033196D01*
X018958Y033610D02*
X020958Y033610D01*
X020958Y032610D02*
X018958Y032610D01*
X019541Y032086D02*
X020634Y032086D01*
X021283Y032086D02*
X023634Y032086D01*
X023475Y032245D02*
X021441Y032245D01*
X021558Y032403D02*
X023358Y032403D01*
X023358Y032562D02*
X021558Y032562D01*
X020958Y034610D02*
X018958Y034610D01*
X018958Y035610D02*
X020958Y035610D01*
X020958Y036610D02*
X018958Y036610D01*
X017958Y036110D02*
X017458Y036610D01*
X015958Y036610D01*
X013458Y039110D01*
X007333Y039110D01*
X006833Y038610D01*
X007833Y039610D02*
X013958Y039610D01*
X015958Y037610D01*
X017458Y037610D01*
X017958Y037110D01*
X023458Y037110D01*
X023958Y036610D01*
X024833Y036610D01*
X025333Y036110D01*
X026958Y036110D01*
X027458Y036610D01*
X029083Y036610D01*
X029083Y035610D02*
X027458Y035610D01*
X026958Y035110D01*
X025333Y035110D01*
X024833Y035610D01*
X023958Y035610D01*
X023458Y036110D01*
X017958Y036110D01*
X018958Y037610D02*
X020958Y037610D01*
X020958Y038610D02*
X018958Y038610D01*
X017958Y038110D02*
X017458Y038610D01*
X015958Y038610D01*
X014458Y040110D01*
X007333Y040110D01*
X010839Y042072D02*
X015293Y042072D01*
X015958Y042072D02*
X015958Y042072D01*
X015958Y042210D02*
X015958Y041610D01*
X015958Y041610D01*
X016838Y041610D01*
X016838Y041657D01*
X016824Y041750D01*
X016794Y041840D01*
X016751Y041924D01*
X016696Y042001D01*
X016629Y042068D01*
X016553Y042123D01*
X016469Y042166D01*
X016379Y042195D01*
X016286Y042210D01*
X015958Y042210D01*
X015958Y041913D02*
X015958Y041913D01*
X015958Y041755D02*
X015958Y041755D01*
X015958Y041610D02*
X015958Y041610D01*
X016624Y042072D02*
X018291Y042072D01*
X018154Y041913D02*
X016757Y041913D01*
X016822Y041755D02*
X018089Y041755D01*
X018078Y041596D02*
X016838Y041596D01*
X016813Y041438D02*
X018100Y041438D01*
X018166Y041279D02*
X016740Y041279D01*
X018478Y042230D02*
X011007Y042230D01*
X011166Y042389D02*
X018478Y042389D01*
X018478Y042547D02*
X011324Y042547D01*
X011483Y042706D02*
X018478Y042706D01*
X018478Y042864D02*
X011641Y042864D01*
X011800Y043023D02*
X018478Y043023D01*
X018478Y043181D02*
X017253Y043181D01*
X017207Y043135D02*
X017558Y043486D01*
X017558Y043735D01*
X017558Y043984D01*
X017207Y044335D01*
X016958Y044335D01*
X016710Y044335D01*
X016358Y043984D01*
X016358Y043735D01*
X016358Y043486D01*
X016710Y043135D01*
X016958Y043135D01*
X016958Y043735D01*
X016358Y043735D01*
X016958Y043735D01*
X016958Y043735D01*
X016958Y043735D01*
X016958Y044335D01*
X016958Y043735D01*
X016958Y043735D01*
X016958Y043135D01*
X017207Y043135D01*
X016958Y043181D02*
X016958Y043181D01*
X016958Y043340D02*
X016958Y043340D01*
X016958Y043498D02*
X016958Y043498D01*
X016958Y043657D02*
X016958Y043657D01*
X016958Y043735D02*
X016958Y043735D01*
X017558Y043735D01*
X016958Y043735D01*
X016958Y043815D02*
X016958Y043815D01*
X016958Y043974D02*
X016958Y043974D01*
X016958Y044132D02*
X016958Y044132D01*
X016958Y044291D02*
X016958Y044291D01*
X016665Y044291D02*
X013068Y044291D01*
X013226Y044449D02*
X018478Y044449D01*
X018478Y044291D02*
X017251Y044291D01*
X017410Y044132D02*
X018478Y044132D01*
X018358Y043974D02*
X017558Y043974D01*
X017558Y043815D02*
X018358Y043815D01*
X018358Y043657D02*
X017558Y043657D01*
X017558Y043498D02*
X018358Y043498D01*
X018478Y043340D02*
X017411Y043340D01*
X016664Y043181D02*
X011958Y043181D01*
X012117Y043340D02*
X016505Y043340D01*
X016358Y043498D02*
X012275Y043498D01*
X012434Y043657D02*
X016358Y043657D01*
X016358Y043815D02*
X012592Y043815D01*
X012751Y043974D02*
X016358Y043974D01*
X016507Y044132D02*
X012909Y044132D01*
X013385Y044608D02*
X018478Y044608D01*
X019438Y044608D02*
X028603Y044608D01*
X028603Y044630D02*
X028603Y044104D01*
X028483Y043984D01*
X028483Y043486D01*
X028603Y043366D01*
X028603Y042177D01*
X028463Y042119D01*
X028295Y041950D01*
X028203Y041729D01*
X028203Y041510D01*
X026963Y041510D01*
X026963Y041729D01*
X026872Y041950D01*
X026703Y042119D01*
X026483Y042210D01*
X025684Y042210D01*
X025463Y042119D01*
X025295Y041950D01*
X025203Y041729D01*
X025203Y041491D01*
X025295Y041270D01*
X025455Y041110D01*
X025295Y040950D01*
X025203Y040729D01*
X025203Y040491D01*
X025295Y040270D01*
X025455Y040110D01*
X025295Y039950D01*
X025226Y039783D01*
X025172Y039837D01*
X025060Y039949D01*
X024913Y040010D01*
X024407Y040010D01*
X024207Y040210D01*
X023710Y040210D01*
X023358Y039859D01*
X023358Y039510D01*
X021558Y039510D01*
X021558Y039859D01*
X021207Y040210D01*
X020710Y040210D01*
X020510Y040010D01*
X019687Y040010D01*
X019580Y040117D01*
X019629Y040152D01*
X019696Y040219D01*
X019751Y040296D01*
X019794Y040380D01*
X019824Y040469D01*
X019838Y040563D01*
X019838Y040610D01*
X018958Y040610D01*
X019838Y040610D01*
X019838Y040657D01*
X019824Y040750D01*
X019794Y040840D01*
X019751Y040924D01*
X019696Y041001D01*
X019629Y041068D01*
X019580Y041103D01*
X019747Y041270D01*
X019838Y041491D01*
X019838Y041729D01*
X019747Y041950D01*
X019578Y042119D01*
X019438Y042177D01*
X019438Y043366D01*
X019558Y043486D01*
X019558Y043984D01*
X019438Y044104D01*
X019438Y044630D01*
X028603Y044630D01*
X028603Y044449D02*
X019438Y044449D01*
X019438Y044291D02*
X026790Y044291D01*
X026835Y044335D02*
X026483Y043984D01*
X026483Y043735D01*
X026483Y043486D01*
X026835Y043135D01*
X027083Y043135D01*
X027083Y043735D01*
X026483Y043735D01*
X027083Y043735D01*
X027083Y043735D01*
X027083Y043735D01*
X027083Y044335D01*
X026835Y044335D01*
X027083Y044335D02*
X027332Y044335D01*
X027683Y043984D01*
X027683Y043735D01*
X027083Y043735D01*
X027083Y043735D01*
X027083Y043135D01*
X027332Y043135D01*
X027683Y043486D01*
X027683Y043735D01*
X027083Y043735D01*
X027083Y044335D01*
X027083Y044291D02*
X027083Y044291D01*
X027083Y044132D02*
X027083Y044132D01*
X027083Y043974D02*
X027083Y043974D01*
X027083Y043815D02*
X027083Y043815D01*
X027083Y043735D02*
X027083Y043735D01*
X027083Y043657D02*
X027083Y043657D01*
X027083Y043498D02*
X027083Y043498D01*
X027083Y043340D02*
X027083Y043340D01*
X027083Y043181D02*
X027083Y043181D01*
X026789Y043181D02*
X019438Y043181D01*
X019438Y043023D02*
X028603Y043023D01*
X028603Y043181D02*
X027378Y043181D01*
X027536Y043340D02*
X028603Y043340D01*
X028483Y043498D02*
X027683Y043498D01*
X027683Y043657D02*
X028483Y043657D01*
X028483Y043815D02*
X027683Y043815D01*
X027683Y043974D02*
X028483Y043974D01*
X028603Y044132D02*
X027535Y044132D01*
X027376Y044291D02*
X028603Y044291D01*
X029563Y044291D02*
X035040Y044291D01*
X035199Y044449D02*
X029563Y044449D01*
X029563Y044608D02*
X036978Y044608D01*
X036978Y044630D02*
X036978Y044229D01*
X036858Y044109D01*
X036858Y043939D01*
X036025Y043106D01*
X035942Y043308D01*
X035848Y043401D01*
X036058Y043611D01*
X036058Y043860D01*
X036058Y044109D01*
X035707Y044460D01*
X035458Y044460D01*
X035210Y044460D01*
X034858Y044109D01*
X034858Y043860D01*
X034858Y043611D01*
X035069Y043401D01*
X035052Y043385D01*
X032254Y043385D01*
X032107Y043324D01*
X031994Y043212D01*
X031994Y043212D01*
X030963Y042180D01*
X030845Y042180D01*
X030635Y042093D01*
X030475Y041933D01*
X030388Y041723D01*
X030388Y041510D01*
X029963Y041510D01*
X029963Y041729D01*
X029872Y041950D01*
X029703Y042119D01*
X029563Y042177D01*
X029563Y043366D01*
X029683Y043486D01*
X029683Y043984D01*
X029563Y044104D01*
X029563Y044630D01*
X036978Y044630D01*
X036978Y044449D02*
X035718Y044449D01*
X035876Y044291D02*
X036978Y044291D01*
X036882Y044132D02*
X036035Y044132D01*
X036058Y043974D02*
X036858Y043974D01*
X036735Y043815D02*
X036058Y043815D01*
X036058Y043860D02*
X035458Y043860D01*
X034858Y043860D01*
X035458Y043860D01*
X035458Y043860D01*
X035458Y044460D01*
X035458Y043860D01*
X035458Y043860D01*
X036058Y043860D01*
X036058Y043657D02*
X036576Y043657D01*
X036418Y043498D02*
X035945Y043498D01*
X035910Y043340D02*
X036259Y043340D01*
X036101Y043181D02*
X035994Y043181D01*
X035458Y042985D02*
X032333Y042985D01*
X030958Y041610D01*
X030388Y041596D02*
X029963Y041596D01*
X029953Y041755D02*
X030401Y041755D01*
X030467Y041913D02*
X029887Y041913D01*
X029750Y042072D02*
X030614Y042072D01*
X031013Y042230D02*
X029563Y042230D01*
X029563Y042389D02*
X031171Y042389D01*
X031330Y042547D02*
X029563Y042547D01*
X029563Y042706D02*
X031488Y042706D01*
X031647Y042864D02*
X029563Y042864D01*
X029563Y043023D02*
X031805Y043023D01*
X031964Y043181D02*
X029563Y043181D01*
X029563Y043340D02*
X032144Y043340D01*
X033083Y041610D02*
X034833Y041610D01*
X035458Y042235D01*
X036563Y042230D02*
X041478Y042230D01*
X041478Y042177D02*
X041338Y042119D01*
X041170Y041950D01*
X041078Y041729D01*
X041078Y041510D01*
X041004Y041510D01*
X040857Y041449D01*
X040418Y041010D01*
X039687Y041010D01*
X039587Y041110D01*
X039747Y041270D01*
X039838Y041491D01*
X039838Y041729D01*
X039747Y041950D01*
X039578Y042119D01*
X039358Y042210D01*
X038559Y042210D01*
X038338Y042119D01*
X038170Y041950D01*
X038078Y041729D01*
X038078Y041510D01*
X036963Y041510D01*
X036963Y041729D01*
X036872Y041950D01*
X036703Y042119D01*
X036563Y042177D01*
X036563Y042286D01*
X037537Y043260D01*
X037707Y043260D01*
X038058Y043611D01*
X038058Y044109D01*
X037938Y044229D01*
X037938Y044630D01*
X041478Y044630D01*
X041478Y043604D01*
X041358Y043484D01*
X041358Y042986D01*
X041478Y042866D01*
X041478Y042177D01*
X041478Y042389D02*
X036666Y042389D01*
X036824Y042547D02*
X041478Y042547D01*
X041478Y042706D02*
X040277Y042706D01*
X040207Y042635D02*
X040558Y042986D01*
X040558Y043235D01*
X040558Y043484D01*
X040207Y043835D01*
X039958Y043835D01*
X039710Y043835D01*
X039358Y043484D01*
X039358Y043235D01*
X039358Y042986D01*
X039710Y042635D01*
X039958Y042635D01*
X039958Y043235D01*
X039358Y043235D01*
X039958Y043235D01*
X039958Y043235D01*
X039958Y043235D01*
X039958Y043835D01*
X039958Y043235D01*
X039958Y043235D01*
X039958Y042635D01*
X040207Y042635D01*
X039958Y042706D02*
X039958Y042706D01*
X039958Y042864D02*
X039958Y042864D01*
X039958Y043023D02*
X039958Y043023D01*
X039958Y043181D02*
X039958Y043181D01*
X039958Y043235D02*
X039958Y043235D01*
X040558Y043235D01*
X039958Y043235D01*
X039958Y043340D02*
X039958Y043340D01*
X039958Y043498D02*
X039958Y043498D01*
X039958Y043657D02*
X039958Y043657D01*
X039958Y043815D02*
X039958Y043815D01*
X039690Y043815D02*
X038058Y043815D01*
X038058Y043657D02*
X039531Y043657D01*
X039373Y043498D02*
X037945Y043498D01*
X037786Y043340D02*
X039358Y043340D01*
X039358Y043181D02*
X037458Y043181D01*
X037300Y043023D02*
X039358Y043023D01*
X039481Y042864D02*
X037141Y042864D01*
X036983Y042706D02*
X039639Y042706D01*
X039625Y042072D02*
X041291Y042072D01*
X041154Y041913D02*
X039762Y041913D01*
X039828Y041755D02*
X041089Y041755D01*
X041078Y041596D02*
X039838Y041596D01*
X039816Y041438D02*
X040845Y041438D01*
X040687Y041279D02*
X039751Y041279D01*
X039597Y041121D02*
X040528Y041121D01*
X040583Y040610D02*
X038958Y040610D01*
X038458Y041110D01*
X026583Y041110D01*
X026083Y040610D01*
X025395Y040170D02*
X024247Y040170D01*
X024406Y040011D02*
X025356Y040011D01*
X025254Y039853D02*
X025156Y039853D01*
X024833Y039610D02*
X025333Y039110D01*
X026958Y039110D01*
X027458Y039610D01*
X029083Y039610D01*
X029083Y038610D02*
X027458Y038610D01*
X026958Y038110D01*
X025333Y038110D01*
X024833Y038610D01*
X023958Y038610D01*
X023458Y039110D01*
X017958Y039110D01*
X017458Y039610D01*
X015958Y039610D01*
X017781Y039853D02*
X018129Y039853D01*
X018078Y039694D02*
X017940Y039694D01*
X018958Y039610D02*
X020958Y039610D01*
X020511Y040011D02*
X019686Y040011D01*
X019646Y040170D02*
X020669Y040170D01*
X021247Y040170D02*
X023669Y040170D01*
X023511Y040011D02*
X021406Y040011D01*
X021558Y039853D02*
X023358Y039853D01*
X023358Y039694D02*
X021558Y039694D01*
X021558Y039536D02*
X023358Y039536D01*
X023958Y039610D02*
X024833Y039610D01*
X025271Y040328D02*
X019768Y040328D01*
X019826Y040487D02*
X025205Y040487D01*
X025203Y040645D02*
X019838Y040645D01*
X019806Y040804D02*
X025234Y040804D01*
X025307Y040962D02*
X019724Y040962D01*
X019597Y041121D02*
X025444Y041121D01*
X025291Y041279D02*
X019751Y041279D01*
X019816Y041438D02*
X025225Y041438D01*
X025203Y041596D02*
X019838Y041596D01*
X019828Y041755D02*
X025214Y041755D01*
X025279Y041913D02*
X019762Y041913D01*
X019625Y042072D02*
X025416Y042072D01*
X026750Y042072D02*
X028416Y042072D01*
X028279Y041913D02*
X026887Y041913D01*
X026953Y041755D02*
X028214Y041755D01*
X028203Y041596D02*
X026963Y041596D01*
X028603Y042230D02*
X019438Y042230D01*
X019438Y042389D02*
X028603Y042389D01*
X028603Y042547D02*
X019438Y042547D01*
X019438Y042706D02*
X028603Y042706D01*
X028603Y042864D02*
X019438Y042864D01*
X019438Y043340D02*
X026630Y043340D01*
X026483Y043498D02*
X019558Y043498D01*
X019558Y043657D02*
X026483Y043657D01*
X026483Y043815D02*
X019558Y043815D01*
X019558Y043974D02*
X026483Y043974D01*
X026632Y044132D02*
X019438Y044132D01*
X018958Y040610D02*
X018958Y040610D01*
X017958Y038110D02*
X023458Y038110D01*
X023958Y037610D01*
X024833Y037610D01*
X025333Y037110D01*
X026958Y037110D01*
X027458Y037610D01*
X029083Y037610D01*
X027458Y037110D02*
X026958Y036610D01*
X026083Y036610D01*
X026083Y035610D02*
X026958Y035610D01*
X027458Y036110D01*
X037208Y036110D01*
X037708Y035610D01*
X038958Y035610D01*
X040583Y035610D01*
X041083Y036110D01*
X043083Y036110D01*
X044208Y034985D01*
X050458Y034985D01*
X051083Y035610D01*
X051583Y036110D01*
X058208Y036110D01*
X058708Y035610D01*
X060333Y035610D01*
X060833Y035110D01*
X061833Y035110D01*
X062208Y035485D01*
X063708Y035485D01*
X063833Y035610D01*
X063333Y035985D02*
X062208Y035985D01*
X061833Y035610D01*
X061333Y035610D01*
X060833Y036110D02*
X060333Y036610D01*
X058708Y036610D01*
X058208Y037110D01*
X051583Y037110D01*
X051083Y036610D01*
X050583Y037110D01*
X041083Y037110D01*
X040583Y036610D01*
X038958Y036610D01*
X037708Y036610D01*
X037208Y037110D01*
X027458Y037110D01*
X026958Y037610D02*
X026083Y037610D01*
X026958Y037610D02*
X027458Y038110D01*
X037208Y038110D01*
X037708Y037610D01*
X038958Y037610D01*
X040583Y037610D01*
X041083Y038110D01*
X050583Y038110D01*
X051083Y037610D01*
X051583Y038110D01*
X058208Y038110D01*
X058708Y037610D01*
X060333Y037610D01*
X060833Y037110D01*
X061833Y037110D01*
X062208Y037485D01*
X063708Y037485D01*
X063833Y037610D01*
X063333Y037985D02*
X062208Y037985D01*
X061833Y037610D01*
X061333Y037610D01*
X060833Y038110D02*
X060333Y038610D01*
X058708Y038610D01*
X058208Y039110D01*
X051583Y039110D01*
X051083Y038610D01*
X050583Y039110D01*
X041083Y039110D01*
X040583Y038610D01*
X038958Y038610D01*
X037708Y038610D01*
X037208Y039110D01*
X027458Y039110D01*
X026958Y038610D01*
X026083Y038610D01*
X026083Y039610D02*
X026958Y039610D01*
X027458Y040110D01*
X037208Y040110D01*
X037708Y039610D01*
X038958Y039610D01*
X040583Y039610D01*
X041083Y040110D01*
X050583Y040110D01*
X051083Y039610D01*
X051583Y040110D01*
X058208Y040110D01*
X058708Y039610D01*
X060333Y039610D01*
X060833Y039110D01*
X061833Y039110D01*
X062208Y039485D01*
X063708Y039485D01*
X063833Y039610D01*
X063333Y039985D02*
X062208Y039985D01*
X061833Y039610D01*
X061333Y039610D01*
X060833Y040110D02*
X060333Y040610D01*
X058708Y040610D01*
X058208Y041110D01*
X051583Y041110D01*
X051083Y040610D01*
X050583Y041110D01*
X041083Y041110D01*
X040583Y040610D01*
X041083Y039610D02*
X041958Y039610D01*
X041083Y039610D02*
X040583Y039110D01*
X037708Y039110D01*
X037208Y039610D01*
X036083Y039610D01*
X036083Y038610D02*
X037208Y038610D01*
X037708Y038110D01*
X040583Y038110D01*
X041083Y038610D01*
X041958Y038610D01*
X041958Y037610D02*
X041083Y037610D01*
X040583Y037110D01*
X037708Y037110D01*
X037208Y037610D01*
X036083Y037610D01*
X036083Y036610D02*
X037208Y036610D01*
X037708Y036110D01*
X040583Y036110D01*
X041083Y036610D01*
X041958Y036610D01*
X041958Y035610D02*
X041083Y035610D01*
X040583Y035110D01*
X037708Y035110D01*
X037208Y035610D01*
X036083Y035610D01*
X037208Y035110D02*
X027458Y035110D01*
X026958Y034610D01*
X026083Y034610D01*
X025333Y034110D02*
X026958Y034110D01*
X027458Y034610D01*
X029083Y034610D01*
X033083Y034110D02*
X037208Y034110D01*
X037708Y033610D01*
X038958Y033610D01*
X040583Y033610D01*
X041083Y034110D01*
X050583Y034110D01*
X051083Y033610D01*
X051583Y034110D01*
X058208Y034110D01*
X058708Y033610D01*
X060333Y033610D01*
X060833Y033110D01*
X061833Y033110D01*
X062208Y033485D01*
X063708Y033485D01*
X063833Y033610D01*
X063333Y033985D02*
X062208Y033985D01*
X061833Y033610D01*
X061333Y033610D01*
X060833Y034110D02*
X060333Y034610D01*
X058708Y034610D01*
X058208Y035110D01*
X051583Y035110D01*
X051083Y034610D01*
X043333Y034610D01*
X042833Y035110D01*
X041083Y035110D01*
X040583Y034610D01*
X038958Y034610D01*
X037708Y034610D01*
X037208Y035110D01*
X037208Y034610D02*
X036083Y034610D01*
X037208Y034610D02*
X037708Y034110D01*
X040583Y034110D01*
X041083Y034610D01*
X041958Y034610D01*
X042838Y033671D02*
X050203Y033671D01*
X050203Y033513D02*
X042838Y033513D01*
X042782Y033354D02*
X050260Y033354D01*
X050369Y033196D02*
X042672Y033196D01*
X042660Y033037D02*
X050382Y033037D01*
X050267Y032879D02*
X042777Y032879D01*
X042838Y032720D02*
X050213Y032720D01*
X050204Y032562D02*
X042838Y032562D01*
X042802Y032403D02*
X050240Y032403D01*
X050327Y032245D02*
X042721Y032245D01*
X042541Y032086D02*
X050510Y032086D01*
X051083Y032086D02*
X051083Y032086D01*
X051083Y032245D02*
X051083Y032245D01*
X051083Y032403D02*
X051083Y032403D01*
X051083Y032562D02*
X051083Y032562D01*
X051083Y032610D02*
X051083Y032610D01*
X051963Y032610D01*
X051083Y032610D01*
X051657Y032086D02*
X053500Y032086D01*
X053320Y032245D02*
X051839Y032245D01*
X051927Y032403D02*
X053240Y032403D01*
X053203Y032562D02*
X051963Y032562D01*
X051953Y032720D02*
X053203Y032720D01*
X053265Y032879D02*
X051900Y032879D01*
X051785Y033037D02*
X053382Y033037D01*
X053369Y033196D02*
X051797Y033196D01*
X051907Y033354D02*
X053260Y033354D01*
X053203Y033513D02*
X051963Y033513D01*
X051963Y033671D02*
X053203Y033671D01*
X055208Y032610D02*
X053833Y031235D01*
X035958Y031235D01*
X035500Y032086D02*
X033657Y032086D01*
X033839Y032245D02*
X035320Y032245D01*
X035240Y032403D02*
X033927Y032403D01*
X033963Y032562D02*
X035203Y032562D01*
X035203Y032720D02*
X033953Y032720D01*
X033963Y032610D02*
X033083Y032610D01*
X033083Y032610D01*
X033963Y032610D01*
X033900Y032879D02*
X035265Y032879D01*
X035382Y033037D02*
X033785Y033037D01*
X033797Y033196D02*
X035369Y033196D01*
X035260Y033354D02*
X033907Y033354D01*
X033963Y033513D02*
X035203Y033513D01*
X035203Y033671D02*
X033963Y033671D01*
X033083Y032562D02*
X033083Y032562D01*
X033083Y032403D02*
X033083Y032403D01*
X033083Y032245D02*
X033083Y032245D01*
X033083Y032086D02*
X033083Y032086D01*
X036083Y032610D02*
X037208Y032610D01*
X037708Y032110D01*
X040583Y032110D01*
X041083Y032610D01*
X041958Y032610D01*
X041375Y032086D02*
X041125Y032086D01*
X040967Y031928D02*
X053960Y031928D01*
X053802Y031769D02*
X040805Y031769D01*
X040418Y032510D02*
X039830Y032510D01*
X039838Y032563D01*
X039838Y032610D01*
X039838Y032657D01*
X039830Y032710D01*
X040618Y032710D01*
X040418Y032510D01*
X040469Y032562D02*
X039838Y032562D01*
X039838Y032610D02*
X038958Y032610D01*
X038078Y032610D01*
X038078Y032563D01*
X038087Y032510D01*
X037874Y032510D01*
X037674Y032710D01*
X038087Y032710D01*
X038078Y032657D01*
X038078Y032610D01*
X038958Y032610D01*
X038958Y032610D01*
X039838Y032610D01*
X038958Y032610D02*
X038958Y032610D01*
X038079Y032562D02*
X037822Y032562D01*
X037708Y033110D02*
X037208Y033610D01*
X036083Y033610D01*
X036666Y032086D02*
X037167Y032086D01*
X037708Y033110D02*
X040583Y033110D01*
X041083Y033610D01*
X041958Y033610D01*
X044958Y035610D02*
X044958Y035610D01*
X045838Y035610D01*
X045838Y035657D01*
X045824Y035750D01*
X045794Y035840D01*
X045751Y035924D01*
X045696Y036001D01*
X045629Y036068D01*
X045580Y036103D01*
X045747Y036270D01*
X045838Y036491D01*
X045838Y036710D01*
X047087Y036710D01*
X047078Y036657D01*
X047078Y036610D01*
X047078Y036563D01*
X047093Y036469D01*
X047122Y036380D01*
X047165Y036296D01*
X047221Y036219D01*
X047287Y036152D01*
X047337Y036117D01*
X047170Y035950D01*
X047078Y035729D01*
X047078Y035491D01*
X047122Y035385D01*
X045796Y035385D01*
X045824Y035469D01*
X045838Y035563D01*
X045838Y035610D01*
X044958Y035610D01*
X045648Y036049D02*
X047268Y036049D01*
X047233Y036207D02*
X045684Y036207D01*
X045787Y036366D02*
X047129Y036366D01*
X047084Y036524D02*
X045838Y036524D01*
X045838Y036683D02*
X047082Y036683D01*
X047078Y036610D02*
X047958Y036610D01*
X047078Y036610D01*
X047145Y035890D02*
X045769Y035890D01*
X045827Y035732D02*
X047079Y035732D01*
X047078Y035573D02*
X045838Y035573D01*
X045806Y035415D02*
X047110Y035415D01*
X047958Y036610D02*
X047958Y036610D01*
X048838Y036610D01*
X048838Y036657D01*
X048830Y036710D01*
X050203Y036710D01*
X050203Y036491D01*
X050295Y036270D01*
X050455Y036110D01*
X050295Y035950D01*
X050203Y035729D01*
X050203Y035491D01*
X050247Y035385D01*
X048795Y035385D01*
X048838Y035491D01*
X048838Y035729D01*
X048747Y035950D01*
X048580Y036117D01*
X048629Y036152D01*
X048696Y036219D01*
X048751Y036296D01*
X048794Y036380D01*
X048824Y036469D01*
X048838Y036563D01*
X048838Y036610D01*
X047958Y036610D01*
X047958Y036610D01*
X048684Y036207D02*
X050358Y036207D01*
X050393Y036049D02*
X048648Y036049D01*
X048772Y035890D02*
X050270Y035890D01*
X050204Y035732D02*
X048837Y035732D01*
X048838Y035573D02*
X050203Y035573D01*
X050235Y035415D02*
X048807Y035415D01*
X048787Y036366D02*
X050255Y036366D01*
X050203Y036524D02*
X048832Y036524D01*
X048834Y036683D02*
X050203Y036683D01*
X050203Y037510D02*
X048830Y037510D01*
X048838Y037563D01*
X048838Y037610D01*
X048838Y037657D01*
X048830Y037710D01*
X050203Y037710D01*
X050203Y037510D01*
X050203Y037634D02*
X048838Y037634D01*
X048838Y037610D02*
X047958Y037610D01*
X047078Y037610D01*
X047078Y037563D01*
X047087Y037510D01*
X045838Y037510D01*
X045838Y037710D01*
X047087Y037710D01*
X047078Y037657D01*
X047078Y037610D01*
X047958Y037610D01*
X047958Y037610D01*
X047958Y037610D01*
X048838Y037610D01*
X047078Y037634D02*
X045838Y037634D01*
X045838Y039510D02*
X045838Y039710D01*
X047087Y039710D01*
X047078Y039657D01*
X047078Y039610D01*
X047078Y039563D01*
X047087Y039510D01*
X045838Y039510D01*
X045838Y039536D02*
X047083Y039536D01*
X047078Y039610D02*
X047958Y039610D01*
X047958Y039610D01*
X047078Y039610D01*
X047084Y039694D02*
X045838Y039694D01*
X045838Y040510D02*
X045838Y040710D01*
X047087Y040710D01*
X047078Y040657D01*
X047078Y040610D01*
X047078Y040563D01*
X047087Y040510D01*
X045838Y040510D01*
X045838Y040645D02*
X047078Y040645D01*
X047078Y040610D02*
X047958Y040610D01*
X047078Y040610D01*
X047958Y040610D02*
X047958Y040610D01*
X048838Y040610D01*
X048838Y040657D01*
X048830Y040710D01*
X050203Y040710D01*
X050203Y040510D01*
X048830Y040510D01*
X048838Y040563D01*
X048838Y040610D01*
X047958Y040610D01*
X047958Y040610D01*
X047958Y039610D02*
X048838Y039610D01*
X048838Y039657D01*
X048830Y039710D01*
X050203Y039710D01*
X050203Y039510D01*
X048830Y039510D01*
X048838Y039563D01*
X048838Y039610D01*
X047958Y039610D01*
X047958Y039610D01*
X048832Y039694D02*
X050203Y039694D01*
X050203Y039536D02*
X048834Y039536D01*
X048838Y040645D02*
X050203Y040645D01*
X050212Y041510D02*
X048838Y041510D01*
X048838Y041729D01*
X048747Y041950D01*
X048578Y042119D01*
X048438Y042177D01*
X048438Y042866D01*
X048558Y042986D01*
X048558Y043484D01*
X048438Y043604D01*
X048438Y044630D01*
X053010Y044630D01*
X053603Y044036D01*
X053603Y043604D01*
X053483Y043484D01*
X053483Y042986D01*
X053603Y042866D01*
X053603Y042177D01*
X053463Y042119D01*
X053295Y041950D01*
X053203Y041729D01*
X053203Y041510D01*
X051955Y041510D01*
X051963Y041563D01*
X051963Y041610D01*
X051963Y041657D01*
X051949Y041750D01*
X051919Y041840D01*
X051876Y041924D01*
X051821Y042001D01*
X051754Y042068D01*
X051678Y042123D01*
X051594Y042166D01*
X051504Y042195D01*
X051411Y042210D01*
X051083Y042210D01*
X050756Y042210D01*
X050663Y042195D01*
X050573Y042166D01*
X050489Y042123D01*
X050412Y042068D01*
X050346Y042001D01*
X050290Y041924D01*
X050247Y041840D01*
X050218Y041750D01*
X050203Y041657D01*
X050203Y041610D01*
X050203Y041563D01*
X050212Y041510D01*
X050203Y041596D02*
X048838Y041596D01*
X048828Y041755D02*
X050219Y041755D01*
X050203Y041610D02*
X051083Y041610D01*
X050203Y041610D01*
X050284Y041913D02*
X048762Y041913D01*
X048625Y042072D02*
X050418Y042072D01*
X051083Y042072D02*
X051083Y042072D01*
X051083Y042210D02*
X051083Y041610D01*
X051083Y041610D01*
X051083Y041610D01*
X051083Y042210D01*
X051083Y041913D02*
X051083Y041913D01*
X051083Y041755D02*
X051083Y041755D01*
X051083Y041610D02*
X051963Y041610D01*
X051083Y041610D01*
X051083Y041610D01*
X051749Y042072D02*
X053416Y042072D01*
X053279Y041913D02*
X051882Y041913D01*
X051947Y041755D02*
X053214Y041755D01*
X053203Y041596D02*
X051963Y041596D01*
X051963Y040710D02*
X051963Y040510D01*
X053212Y040510D01*
X053203Y040563D01*
X053203Y040610D01*
X054083Y040610D01*
X054083Y040610D01*
X053203Y040610D01*
X053203Y040657D01*
X053212Y040710D01*
X051963Y040710D01*
X051963Y040645D02*
X053203Y040645D01*
X054083Y040610D02*
X054963Y040610D01*
X054963Y040657D01*
X054955Y040710D01*
X055108Y040710D01*
X055108Y040510D01*
X054955Y040510D01*
X054963Y040563D01*
X054963Y040610D01*
X054083Y040610D01*
X054083Y040610D01*
X054963Y040645D02*
X055108Y040645D01*
X054963Y041596D02*
X063198Y041596D01*
X063198Y041620D02*
X063823Y041620D01*
X063823Y041975D01*
X063823Y042600D01*
X063198Y042600D01*
X063198Y042347D01*
X063435Y042110D01*
X063198Y041873D01*
X063198Y041620D01*
X063198Y041755D02*
X054953Y041755D01*
X054887Y041913D02*
X063238Y041913D01*
X063397Y042072D02*
X054750Y042072D01*
X054563Y042230D02*
X063315Y042230D01*
X063198Y042389D02*
X058343Y042389D01*
X058367Y042398D02*
X058443Y042443D01*
X058514Y042496D01*
X058576Y042559D01*
X058630Y042629D01*
X058674Y042706D01*
X058708Y042788D01*
X058731Y042873D01*
X058743Y042961D01*
X058743Y043322D01*
X058105Y043322D01*
X058105Y042330D01*
X058112Y042330D01*
X058200Y042342D01*
X058285Y042364D01*
X058367Y042398D01*
X058564Y042547D02*
X063198Y042547D01*
X063198Y042620D02*
X063823Y042620D01*
X063823Y042600D01*
X063843Y042600D01*
X063843Y041620D01*
X064468Y041620D01*
X064468Y041873D01*
X064231Y042110D01*
X064468Y042347D01*
X064468Y042600D01*
X063843Y042600D01*
X063843Y042620D01*
X063823Y042620D01*
X063823Y043245D01*
X063570Y043245D01*
X063198Y042873D01*
X063198Y042620D01*
X063198Y042706D02*
X058674Y042706D01*
X058729Y042864D02*
X063198Y042864D01*
X063348Y043023D02*
X061651Y043023D01*
X061809Y043181D02*
X063506Y043181D01*
X063823Y043181D02*
X063843Y043181D01*
X063843Y043245D02*
X063843Y042620D01*
X064468Y042620D01*
X064468Y042873D01*
X064096Y043245D01*
X063843Y043245D01*
X063823Y043023D02*
X063843Y043023D01*
X063843Y042864D02*
X063823Y042864D01*
X063823Y042706D02*
X063843Y042706D01*
X063843Y042547D02*
X063823Y042547D01*
X063823Y042389D02*
X063843Y042389D01*
X063843Y042230D02*
X063823Y042230D01*
X063823Y042072D02*
X063843Y042072D01*
X063843Y041913D02*
X063823Y041913D01*
X063823Y041755D02*
X063843Y041755D01*
X064270Y042072D02*
X065397Y042072D01*
X065324Y042230D02*
X064351Y042230D01*
X064468Y042389D02*
X065238Y042389D01*
X065200Y042547D02*
X064468Y042547D01*
X064468Y042706D02*
X065206Y042706D01*
X065198Y042660D02*
X065198Y042620D01*
X065823Y042620D01*
X065823Y043245D01*
X065783Y043245D01*
X065685Y043229D01*
X065590Y043198D01*
X065501Y043153D01*
X065420Y043094D01*
X065349Y043024D01*
X065290Y042943D01*
X065245Y042854D01*
X065214Y042759D01*
X065198Y042660D01*
X065250Y042864D02*
X064468Y042864D01*
X064319Y043023D02*
X065348Y043023D01*
X065555Y043181D02*
X064160Y043181D01*
X064188Y043974D02*
X063687Y043974D01*
X063839Y044132D02*
X064019Y044132D01*
X062807Y043974D02*
X061875Y043974D01*
X061760Y044132D02*
X062655Y044132D01*
X062600Y044291D02*
X061919Y044291D01*
X061973Y044449D02*
X062533Y044449D01*
X062421Y044608D02*
X061353Y044608D01*
X061353Y044590D02*
X061353Y044630D01*
X061313Y044630D01*
X061313Y044590D01*
X060693Y044590D01*
X060353Y044590D01*
X060353Y043970D01*
X060353Y043630D01*
X060313Y043630D01*
X060313Y043590D01*
X059693Y043590D01*
X059693Y043345D01*
X060068Y042970D01*
X060313Y042970D01*
X060313Y043590D01*
X060353Y043590D01*
X060353Y043630D01*
X061313Y043630D01*
X061313Y044590D01*
X061353Y044590D01*
X061353Y044630D02*
X061973Y044630D01*
X061973Y044875D01*
X061598Y045250D01*
X061353Y045250D01*
X061353Y044630D01*
X061313Y044630D02*
X061313Y045250D01*
X061068Y045250D01*
X060833Y045015D01*
X060598Y045250D01*
X060353Y045250D01*
X060353Y044630D01*
X060313Y044630D01*
X060313Y044590D01*
X059693Y044590D01*
X059693Y044345D01*
X059928Y044110D01*
X059693Y043875D01*
X059693Y043630D01*
X060313Y043630D01*
X060313Y044590D01*
X060353Y044590D01*
X060353Y044630D01*
X061313Y044630D01*
X061313Y044608D02*
X060353Y044608D01*
X060313Y044608D02*
X055530Y044608D01*
X055372Y044766D02*
X059693Y044766D01*
X059693Y044875D02*
X059693Y044630D01*
X060313Y044630D01*
X060313Y045250D01*
X060068Y045250D01*
X059693Y044875D01*
X059743Y044925D02*
X055213Y044925D01*
X055055Y045083D02*
X059901Y045083D01*
X060060Y045242D02*
X054896Y045242D01*
X054738Y045400D02*
X062436Y045400D01*
X062388Y045242D02*
X061607Y045242D01*
X061765Y045083D02*
X062400Y045083D01*
X062415Y044925D02*
X061924Y044925D01*
X061973Y044766D02*
X062388Y044766D01*
X062569Y045559D02*
X054520Y045559D01*
X053032Y044608D02*
X048438Y044608D01*
X048438Y044449D02*
X053190Y044449D01*
X053349Y044291D02*
X048438Y044291D01*
X048438Y044132D02*
X053507Y044132D01*
X053603Y043974D02*
X048438Y043974D01*
X048438Y043815D02*
X051815Y043815D01*
X051835Y043835D02*
X051483Y043484D01*
X051483Y043235D01*
X051483Y042986D01*
X051835Y042635D01*
X052083Y042635D01*
X052083Y043235D01*
X051483Y043235D01*
X052083Y043235D01*
X052083Y043235D01*
X052083Y043235D01*
X052083Y043835D01*
X051835Y043835D01*
X052083Y043835D02*
X052332Y043835D01*
X052683Y043484D01*
X052683Y043235D01*
X052083Y043235D01*
X052083Y043235D01*
X052083Y042635D01*
X052332Y042635D01*
X052683Y042986D01*
X052683Y043235D01*
X052083Y043235D01*
X052083Y043835D01*
X052083Y043815D02*
X052083Y043815D01*
X052083Y043657D02*
X052083Y043657D01*
X052083Y043498D02*
X052083Y043498D01*
X052083Y043340D02*
X052083Y043340D01*
X052083Y043235D02*
X052083Y043235D01*
X052083Y043181D02*
X052083Y043181D01*
X052083Y043023D02*
X052083Y043023D01*
X052083Y042864D02*
X052083Y042864D01*
X052083Y042706D02*
X052083Y042706D01*
X051764Y042706D02*
X048438Y042706D01*
X048438Y042864D02*
X051606Y042864D01*
X051483Y043023D02*
X048558Y043023D01*
X048558Y043181D02*
X051483Y043181D01*
X051483Y043340D02*
X048558Y043340D01*
X048544Y043498D02*
X051498Y043498D01*
X051656Y043657D02*
X048438Y043657D01*
X047478Y043657D02*
X046385Y043657D01*
X046227Y043815D02*
X047478Y043815D01*
X047478Y043974D02*
X042438Y043974D01*
X042438Y044132D02*
X047478Y044132D01*
X047478Y044291D02*
X042438Y044291D01*
X042438Y044449D02*
X047478Y044449D01*
X047478Y044608D02*
X042438Y044608D01*
X042438Y044630D02*
X047478Y044630D01*
X047478Y043604D01*
X047358Y043484D01*
X047358Y042986D01*
X047478Y042866D01*
X047478Y042177D01*
X047338Y042119D01*
X047170Y041950D01*
X047078Y041729D01*
X047078Y041510D01*
X045838Y041510D01*
X045838Y041729D01*
X045747Y041950D01*
X045578Y042119D01*
X045358Y042210D01*
X044559Y042210D01*
X044338Y042119D01*
X044170Y041950D01*
X044078Y041729D01*
X044078Y041510D01*
X042838Y041510D01*
X042838Y041729D01*
X042747Y041950D01*
X042578Y042119D01*
X042438Y042177D01*
X042438Y042866D01*
X042558Y042986D01*
X042558Y043484D01*
X042438Y043604D01*
X042438Y044630D01*
X042438Y043815D02*
X045690Y043815D01*
X045710Y043835D02*
X045358Y043484D01*
X045358Y043235D01*
X045358Y042986D01*
X045710Y042635D01*
X045958Y042635D01*
X045958Y043235D01*
X045358Y043235D01*
X045958Y043235D01*
X045958Y043235D01*
X045958Y043235D01*
X045958Y043835D01*
X045710Y043835D01*
X045958Y043835D02*
X045958Y043235D01*
X045958Y043235D01*
X045958Y042635D01*
X046207Y042635D01*
X046558Y042986D01*
X046558Y043235D01*
X046558Y043484D01*
X046207Y043835D01*
X045958Y043835D01*
X045958Y043815D02*
X045958Y043815D01*
X045958Y043657D02*
X045958Y043657D01*
X045958Y043498D02*
X045958Y043498D01*
X045958Y043340D02*
X045958Y043340D01*
X045958Y043235D02*
X046558Y043235D01*
X045958Y043235D01*
X045958Y043235D01*
X045958Y043181D02*
X045958Y043181D01*
X045958Y043023D02*
X045958Y043023D01*
X045958Y042864D02*
X045958Y042864D01*
X045958Y042706D02*
X045958Y042706D01*
X045639Y042706D02*
X042438Y042706D01*
X042438Y042864D02*
X045481Y042864D01*
X045358Y043023D02*
X042558Y043023D01*
X042558Y043181D02*
X045358Y043181D01*
X045358Y043340D02*
X042558Y043340D01*
X042544Y043498D02*
X045373Y043498D01*
X045531Y043657D02*
X042438Y043657D01*
X041478Y043657D02*
X040385Y043657D01*
X040227Y043815D02*
X041478Y043815D01*
X041478Y043974D02*
X038058Y043974D01*
X038035Y044132D02*
X041478Y044132D01*
X041478Y044291D02*
X037938Y044291D01*
X037938Y044449D02*
X041478Y044449D01*
X041478Y044608D02*
X037938Y044608D01*
X035458Y044449D02*
X035458Y044449D01*
X035458Y044291D02*
X035458Y044291D01*
X035458Y044132D02*
X035458Y044132D01*
X035458Y043974D02*
X035458Y043974D01*
X035458Y043860D02*
X035458Y043860D01*
X034858Y043815D02*
X029683Y043815D01*
X029683Y043657D02*
X034858Y043657D01*
X034972Y043498D02*
X029683Y043498D01*
X029683Y043974D02*
X034858Y043974D01*
X034882Y044132D02*
X029563Y044132D01*
X036750Y042072D02*
X038291Y042072D01*
X038154Y041913D02*
X036887Y041913D01*
X036953Y041755D02*
X038089Y041755D01*
X038078Y041596D02*
X036963Y041596D01*
X040436Y042864D02*
X041478Y042864D01*
X041358Y043023D02*
X040558Y043023D01*
X040558Y043181D02*
X041358Y043181D01*
X041358Y043340D02*
X040558Y043340D01*
X040544Y043498D02*
X041373Y043498D01*
X042438Y042547D02*
X047478Y042547D01*
X047478Y042389D02*
X042438Y042389D01*
X042438Y042230D02*
X047478Y042230D01*
X047291Y042072D02*
X045625Y042072D01*
X045762Y041913D02*
X047154Y041913D01*
X047089Y041755D02*
X045828Y041755D01*
X045838Y041596D02*
X047078Y041596D01*
X047478Y042706D02*
X046277Y042706D01*
X046436Y042864D02*
X047478Y042864D01*
X047358Y043023D02*
X046558Y043023D01*
X046558Y043181D02*
X047358Y043181D01*
X047358Y043340D02*
X046558Y043340D01*
X046544Y043498D02*
X047373Y043498D01*
X048438Y042547D02*
X053603Y042547D01*
X053603Y042389D02*
X048438Y042389D01*
X048438Y042230D02*
X053603Y042230D01*
X053603Y042706D02*
X052402Y042706D01*
X052561Y042864D02*
X053603Y042864D01*
X053483Y043023D02*
X052683Y043023D01*
X052683Y043181D02*
X053483Y043181D01*
X053483Y043340D02*
X052683Y043340D01*
X052669Y043498D02*
X053498Y043498D01*
X053603Y043657D02*
X052510Y043657D01*
X052352Y043815D02*
X053603Y043815D01*
X054563Y043815D02*
X054965Y043815D01*
X054807Y043974D02*
X054563Y043974D01*
X054563Y044132D02*
X054648Y044132D01*
X054563Y043657D02*
X055124Y043657D01*
X055282Y043498D02*
X054669Y043498D01*
X054683Y043340D02*
X055424Y043340D01*
X055424Y043181D02*
X054683Y043181D01*
X054683Y043023D02*
X055424Y043023D01*
X055427Y042864D02*
X054563Y042864D01*
X054563Y042706D02*
X055492Y042706D01*
X055602Y042547D02*
X054563Y042547D01*
X054563Y042389D02*
X055823Y042389D01*
X056375Y042389D02*
X057792Y042389D01*
X057768Y042398D02*
X057850Y042364D01*
X057936Y042342D01*
X058023Y042330D01*
X058030Y042330D01*
X058030Y043322D01*
X058105Y043322D01*
X058105Y043398D01*
X058030Y043398D01*
X058030Y044390D01*
X058023Y044390D01*
X057936Y044378D01*
X057850Y044356D01*
X057768Y044322D01*
X057692Y044277D01*
X057622Y044224D01*
X057559Y044161D01*
X057505Y044091D01*
X057461Y044014D01*
X057427Y043932D01*
X057404Y043847D01*
X057393Y043759D01*
X057393Y043398D01*
X058030Y043398D01*
X058030Y043322D01*
X057393Y043322D01*
X057393Y042961D01*
X057404Y042873D01*
X057427Y042788D01*
X057461Y042706D01*
X057505Y042629D01*
X057559Y042559D01*
X057622Y042496D01*
X057692Y042443D01*
X057768Y042398D01*
X057571Y042547D02*
X056596Y042547D01*
X056706Y042706D02*
X057461Y042706D01*
X057407Y042864D02*
X056771Y042864D01*
X056774Y043023D02*
X057393Y043023D01*
X057393Y043181D02*
X056774Y043181D01*
X056774Y043340D02*
X058030Y043340D01*
X058105Y043340D02*
X059699Y043340D01*
X059693Y043498D02*
X058743Y043498D01*
X058743Y043398D02*
X058743Y043759D01*
X058731Y043847D01*
X058708Y043932D01*
X058674Y044014D01*
X058630Y044091D01*
X058576Y044161D01*
X058514Y044224D01*
X058443Y044277D01*
X058367Y044322D01*
X058285Y044356D01*
X058200Y044378D01*
X058112Y044390D01*
X058105Y044390D01*
X058105Y043398D01*
X058743Y043398D01*
X058743Y043181D02*
X059857Y043181D01*
X060016Y043023D02*
X058743Y043023D01*
X058743Y043657D02*
X059693Y043657D01*
X059693Y043815D02*
X058735Y043815D01*
X058691Y043974D02*
X059792Y043974D01*
X059906Y044132D02*
X058598Y044132D01*
X058421Y044291D02*
X059748Y044291D01*
X059693Y044449D02*
X055689Y044449D01*
X056473Y044291D02*
X057714Y044291D01*
X057537Y044132D02*
X056637Y044132D01*
X056723Y043974D02*
X057444Y043974D01*
X057400Y043815D02*
X056774Y043815D01*
X056774Y043657D02*
X057393Y043657D01*
X057393Y043498D02*
X056774Y043498D01*
X058030Y043498D02*
X058105Y043498D01*
X058105Y043657D02*
X058030Y043657D01*
X058030Y043815D02*
X058105Y043815D01*
X058105Y043974D02*
X058030Y043974D01*
X058030Y044132D02*
X058105Y044132D01*
X058105Y044291D02*
X058030Y044291D01*
X058030Y043181D02*
X058105Y043181D01*
X058105Y043023D02*
X058030Y043023D01*
X058030Y042864D02*
X058105Y042864D01*
X058105Y042706D02*
X058030Y042706D01*
X058030Y042547D02*
X058105Y042547D01*
X058105Y042389D02*
X058030Y042389D01*
X058446Y041438D02*
X063198Y041438D01*
X063458Y041110D02*
X063333Y040985D01*
X062208Y040985D01*
X061833Y040610D01*
X061333Y040610D01*
X060939Y041121D02*
X060728Y041121D01*
X059939Y041121D02*
X059046Y041121D01*
X058605Y041279D02*
X061937Y041279D01*
X061778Y041121D02*
X061728Y041121D01*
X062208Y040485D02*
X061833Y040110D01*
X060833Y040110D01*
X062208Y040485D02*
X063708Y040485D01*
X063833Y040610D01*
X063458Y040110D02*
X063333Y039985D01*
X063458Y040110D02*
X065333Y040110D01*
X065833Y039610D01*
X065333Y039110D02*
X063458Y039110D01*
X063333Y038985D01*
X062208Y038985D01*
X061833Y038610D01*
X061333Y038610D01*
X061833Y038110D02*
X060833Y038110D01*
X061833Y038110D02*
X062208Y038485D01*
X063708Y038485D01*
X063833Y038610D01*
X063458Y038110D02*
X063333Y037985D01*
X063458Y038110D02*
X065333Y038110D01*
X065833Y037610D01*
X065333Y037110D02*
X063458Y037110D01*
X063333Y036985D01*
X062208Y036985D01*
X061833Y036610D01*
X061333Y036610D01*
X061833Y036110D02*
X060833Y036110D01*
X061833Y036110D02*
X062208Y036485D01*
X063708Y036485D01*
X063833Y036610D01*
X063458Y036110D02*
X063333Y035985D01*
X063458Y036110D02*
X065333Y036110D01*
X065833Y035610D01*
X065333Y035110D02*
X063458Y035110D01*
X063333Y034985D01*
X062208Y034985D01*
X061833Y034610D01*
X061333Y034610D01*
X061833Y034110D02*
X060833Y034110D01*
X061833Y034110D02*
X062208Y034485D01*
X063708Y034485D01*
X063833Y034610D01*
X063458Y034110D02*
X063333Y033985D01*
X063458Y034110D02*
X065333Y034110D01*
X065833Y033610D01*
X065833Y034610D02*
X065333Y035110D01*
X065833Y036610D02*
X065333Y037110D01*
X065833Y038610D02*
X065333Y039110D01*
X065833Y040610D02*
X065333Y041110D01*
X063458Y041110D01*
X064468Y041596D02*
X065198Y041596D01*
X065198Y041755D02*
X064468Y041755D01*
X064428Y041913D02*
X065238Y041913D01*
X065823Y041913D02*
X065843Y041913D01*
X065843Y041755D02*
X065823Y041755D01*
X065823Y042072D02*
X065843Y042072D01*
X065843Y042230D02*
X065823Y042230D01*
X065823Y042389D02*
X065843Y042389D01*
X065843Y042547D02*
X065823Y042547D01*
X065823Y042706D02*
X065843Y042706D01*
X065843Y042864D02*
X065823Y042864D01*
X065823Y043023D02*
X065843Y043023D01*
X065843Y043181D02*
X065823Y043181D01*
X067344Y043815D02*
X067553Y043815D01*
X067553Y043974D02*
X067512Y043974D01*
X067517Y045242D02*
X067553Y045242D01*
X067553Y045400D02*
X067356Y045400D01*
X061353Y045242D02*
X061313Y045242D01*
X061313Y045083D02*
X061353Y045083D01*
X061353Y044925D02*
X061313Y044925D01*
X061313Y044766D02*
X061353Y044766D01*
X061353Y044449D02*
X061313Y044449D01*
X061313Y044291D02*
X061353Y044291D01*
X061353Y044132D02*
X061313Y044132D01*
X061313Y043974D02*
X061353Y043974D01*
X061353Y043815D02*
X061313Y043815D01*
X061313Y043657D02*
X061353Y043657D01*
X061353Y043498D02*
X061313Y043498D01*
X061313Y043340D02*
X061353Y043340D01*
X061353Y043181D02*
X061313Y043181D01*
X061313Y043023D02*
X061353Y043023D01*
X061016Y043023D02*
X060651Y043023D01*
X060809Y043181D02*
X060857Y043181D01*
X060353Y043181D02*
X060313Y043181D01*
X060313Y043023D02*
X060353Y043023D01*
X060353Y043340D02*
X060313Y043340D01*
X060313Y043498D02*
X060353Y043498D01*
X060353Y043657D02*
X060313Y043657D01*
X060313Y043815D02*
X060353Y043815D01*
X060353Y043974D02*
X060313Y043974D01*
X060313Y044132D02*
X060353Y044132D01*
X060353Y044291D02*
X060313Y044291D01*
X060313Y044449D02*
X060353Y044449D01*
X060353Y044766D02*
X060313Y044766D01*
X060313Y044925D02*
X060353Y044925D01*
X060353Y045083D02*
X060313Y045083D01*
X060313Y045242D02*
X060353Y045242D01*
X060607Y045242D02*
X061060Y045242D01*
X060901Y045083D02*
X060765Y045083D01*
X063833Y032610D02*
X055208Y032610D01*
X056458Y031360D02*
X057058Y031360D01*
X057458Y031360D01*
X056458Y031360D01*
X056458Y031360D01*
X057458Y031360D02*
X057458Y031360D01*
X054083Y028599D02*
X054083Y028599D01*
X054083Y028441D02*
X054083Y028441D01*
X054083Y028282D02*
X054083Y028282D01*
X054083Y028124D02*
X054083Y028124D01*
X056352Y026063D02*
X059881Y026063D01*
X059817Y026222D02*
X056511Y026222D01*
X056669Y026380D02*
X059693Y026380D01*
X059693Y026539D02*
X056810Y026539D01*
X056858Y026697D02*
X059693Y026697D01*
X059693Y026856D02*
X056858Y026856D01*
X056858Y027014D02*
X059832Y027014D01*
X059875Y027648D02*
X060042Y027648D01*
X059042Y027648D02*
X058875Y027648D01*
X058042Y027648D02*
X057875Y027648D01*
X056194Y025905D02*
X059723Y025905D01*
X059692Y021942D02*
X059760Y021942D01*
X056889Y018614D02*
X056053Y018614D01*
X056058Y018455D02*
X057048Y018455D01*
X057206Y018297D02*
X056058Y018297D01*
X056058Y018138D02*
X057365Y018138D01*
X057523Y017980D02*
X055926Y017980D01*
X055768Y017821D02*
X057682Y017821D01*
X057840Y017663D02*
X057114Y017663D01*
X050958Y013110D02*
X050958Y012110D01*
X050458Y011610D01*
X050458Y009110D01*
X050208Y008860D01*
X045708Y008860D01*
X044958Y009610D01*
X043208Y012360D02*
X041333Y012360D01*
X040583Y013110D01*
X009708Y013110D01*
X009458Y012860D01*
X007583Y012860D01*
X006833Y013610D01*
X006335Y014017D02*
X006188Y014017D01*
X006188Y013859D02*
X006193Y013859D01*
X006188Y013700D02*
X006193Y013700D01*
X006188Y014176D02*
X006363Y014176D01*
X006204Y014334D02*
X006188Y014334D01*
X006188Y014493D02*
X006193Y014493D01*
X006188Y014651D02*
X006193Y014651D01*
X006188Y014810D02*
X006193Y014810D01*
X006188Y014968D02*
X006286Y014968D01*
X006188Y015127D02*
X006412Y015127D01*
X006253Y015285D02*
X006188Y015285D01*
X006188Y015444D02*
X006193Y015444D01*
X006188Y015602D02*
X006193Y015602D01*
X006188Y015761D02*
X006193Y015761D01*
X006188Y015919D02*
X006237Y015919D01*
X006188Y016078D02*
X006396Y016078D01*
X006302Y016236D02*
X006188Y016236D01*
X006188Y016395D02*
X006193Y016395D01*
X006188Y016553D02*
X006193Y016553D01*
X006188Y016712D02*
X006193Y016712D01*
X006188Y016870D02*
X006193Y016870D01*
X006188Y017029D02*
X006347Y017029D01*
X006351Y017187D02*
X006188Y017187D01*
X006188Y017346D02*
X006193Y017346D01*
X006188Y017504D02*
X006193Y017504D01*
X006188Y017663D02*
X006193Y017663D01*
X006188Y017821D02*
X006193Y017821D01*
X006188Y017980D02*
X006298Y017980D01*
X006400Y018138D02*
X006188Y018138D01*
X006188Y018297D02*
X006242Y018297D01*
X006193Y018455D02*
X006188Y018455D01*
X006188Y018614D02*
X006193Y018614D01*
X006188Y018772D02*
X006193Y018772D01*
X006188Y018931D02*
X006249Y018931D01*
X006188Y019089D02*
X006407Y019089D01*
X006291Y019248D02*
X006188Y019248D01*
X006188Y019406D02*
X006193Y019406D01*
X006188Y019565D02*
X006193Y019565D01*
X006188Y019723D02*
X006193Y019723D01*
X006188Y019882D02*
X006200Y019882D01*
X006188Y020040D02*
X006358Y020040D01*
X006340Y020199D02*
X006188Y020199D01*
X006188Y020357D02*
X006193Y020357D01*
X006188Y020516D02*
X006193Y020516D01*
X006188Y020674D02*
X006193Y020674D01*
X006188Y020833D02*
X006193Y020833D01*
X006188Y020991D02*
X006309Y020991D01*
X006188Y021150D02*
X006468Y021150D01*
X006188Y021308D02*
X006966Y021308D01*
X007124Y021467D02*
X006188Y021467D01*
X006188Y021625D02*
X007355Y021625D01*
X007458Y021235D02*
X006833Y020610D01*
X007333Y020110D02*
X006833Y019610D01*
X007333Y019110D02*
X006833Y018610D01*
X007333Y019110D02*
X010083Y019110D01*
X010458Y019485D01*
X044583Y019485D01*
X044958Y019110D01*
X045208Y019110D01*
X045958Y018360D01*
X046208Y019110D02*
X046958Y018360D01*
X047208Y019110D02*
X047958Y018360D01*
X047958Y019110D02*
X047583Y019485D01*
X047083Y019485D01*
X046708Y019860D01*
X046208Y019860D01*
X045833Y020235D01*
X045333Y020235D01*
X044958Y020610D01*
X007833Y020610D01*
X007333Y020110D02*
X010083Y020110D01*
X010208Y020235D01*
X044833Y020235D01*
X045208Y019860D01*
X045708Y019860D01*
X046083Y019485D01*
X046583Y019485D01*
X046958Y019110D01*
X047208Y019110D01*
X047958Y019110D02*
X048208Y019110D01*
X048958Y018360D01*
X049958Y018360D02*
X048833Y017235D01*
X017583Y017235D01*
X017333Y016985D01*
X016208Y016985D01*
X010958Y017610D02*
X043208Y017610D01*
X043958Y018360D01*
X044208Y019110D02*
X044958Y018360D01*
X044208Y019110D02*
X010583Y019110D01*
X010083Y018610D01*
X007833Y018610D01*
X007833Y017610D02*
X009958Y017610D01*
X010708Y018360D01*
X042958Y018360D01*
X042555Y016835D02*
X042501Y016781D01*
X042445Y016704D01*
X042402Y016620D01*
X042373Y016530D01*
X042358Y016437D01*
X042358Y016110D01*
X042358Y015783D01*
X042362Y015760D01*
X010374Y015760D01*
X010118Y016016D01*
X010254Y015960D01*
X010413Y015960D01*
X038552Y015960D01*
X038635Y015877D01*
X038845Y015790D01*
X039072Y015790D01*
X039281Y015877D01*
X039442Y016037D01*
X039528Y016247D01*
X039528Y016473D01*
X039442Y016683D01*
X039289Y016835D01*
X042555Y016835D01*
X042450Y016712D02*
X039413Y016712D01*
X039495Y016553D02*
X042380Y016553D01*
X042358Y016395D02*
X039528Y016395D01*
X039524Y016236D02*
X042358Y016236D01*
X042358Y016110D02*
X042958Y016110D01*
X042358Y016110D01*
X042358Y016078D02*
X039458Y016078D01*
X039323Y015919D02*
X042358Y015919D01*
X042362Y015761D02*
X010374Y015761D01*
X010215Y015919D02*
X038593Y015919D01*
X038958Y016360D02*
X010333Y016360D01*
X009583Y017110D01*
X007333Y017110D01*
X006833Y016610D01*
X007333Y016110D02*
X006833Y015610D01*
X007333Y015110D02*
X006833Y014610D01*
X007333Y015110D02*
X008958Y015110D01*
X009833Y014235D01*
X044583Y014235D01*
X044958Y013860D01*
X045458Y013860D01*
X045958Y013360D01*
X045958Y013110D01*
X045958Y013860D02*
X045583Y014235D01*
X045083Y014235D01*
X044708Y014610D01*
X009958Y014610D01*
X008958Y015610D01*
X007833Y015610D01*
X007333Y016110D02*
X008958Y016110D01*
X010083Y014985D01*
X044833Y014985D01*
X045208Y014610D01*
X045708Y014610D01*
X046083Y014235D01*
X046583Y014235D01*
X046958Y013860D01*
X047458Y013860D01*
X047958Y013360D01*
X047958Y013110D01*
X047958Y013860D02*
X047583Y014235D01*
X047083Y014235D01*
X046708Y014610D01*
X046208Y014610D01*
X045833Y014985D01*
X045333Y014985D01*
X044958Y015360D01*
X010208Y015360D01*
X008958Y016610D01*
X007833Y016610D01*
X007833Y014610D02*
X008958Y014610D01*
X009708Y013860D01*
X044458Y013860D01*
X044958Y013360D01*
X044958Y013110D01*
X043958Y013110D02*
X043208Y012360D01*
X042958Y013110D02*
X042583Y013485D01*
X007958Y013485D01*
X007833Y013610D01*
X005924Y012591D02*
X005313Y012591D01*
X005313Y012749D02*
X005766Y012749D01*
X005607Y012908D02*
X005313Y012908D01*
X005313Y013066D02*
X005449Y013066D01*
X005313Y013201D02*
X006561Y011953D01*
X006738Y011880D01*
X006929Y011880D01*
X009260Y011880D01*
X009978Y011161D01*
X009978Y010995D01*
X009723Y011250D01*
X009478Y011250D01*
X009478Y010630D01*
X009438Y010630D01*
X009438Y010590D01*
X008818Y010590D01*
X008478Y010590D01*
X008478Y010250D01*
X008478Y009630D01*
X008438Y009630D01*
X008438Y009590D01*
X007818Y009590D01*
X007818Y009345D01*
X008193Y008970D01*
X008438Y008970D01*
X008438Y009590D01*
X008478Y009590D01*
X008478Y008970D01*
X008723Y008970D01*
X008958Y009205D01*
X009193Y008970D01*
X009438Y008970D01*
X009438Y009590D01*
X009098Y009590D01*
X008478Y009590D01*
X008478Y009630D01*
X009438Y009630D01*
X009438Y009590D01*
X009478Y009590D01*
X009478Y008970D01*
X009723Y008970D01*
X009978Y009225D01*
X009978Y008890D01*
X010051Y008713D01*
X010965Y007800D01*
X005313Y007800D01*
X005313Y013201D01*
X005313Y012432D02*
X006083Y012432D01*
X006241Y012274D02*
X005313Y012274D01*
X005313Y012115D02*
X006400Y012115D01*
X006558Y011957D02*
X005313Y011957D01*
X005313Y011798D02*
X009342Y011798D01*
X009500Y011640D02*
X005313Y011640D01*
X005313Y011481D02*
X009659Y011481D01*
X009817Y011323D02*
X005313Y011323D01*
X005313Y011164D02*
X008107Y011164D01*
X008193Y011250D02*
X007818Y010875D01*
X007818Y010630D01*
X008438Y010630D01*
X008438Y010590D01*
X007818Y010590D01*
X007818Y010345D01*
X008053Y010110D01*
X007818Y009875D01*
X007818Y009630D01*
X008438Y009630D01*
X008438Y010590D01*
X008478Y010590D01*
X008478Y010630D01*
X008438Y010630D01*
X008438Y011250D01*
X008193Y011250D01*
X008438Y011164D02*
X008478Y011164D01*
X008478Y011250D02*
X008478Y010630D01*
X009438Y010630D01*
X009438Y011250D01*
X009193Y011250D01*
X008958Y011015D01*
X008723Y011250D01*
X008478Y011250D01*
X008478Y011006D02*
X008438Y011006D01*
X008438Y010847D02*
X008478Y010847D01*
X008478Y010689D02*
X008438Y010689D01*
X008438Y010530D02*
X008478Y010530D01*
X008478Y010372D02*
X008438Y010372D01*
X008438Y010213D02*
X008478Y010213D01*
X008478Y010055D02*
X008438Y010055D01*
X008438Y009896D02*
X008478Y009896D01*
X008478Y009738D02*
X008438Y009738D01*
X008438Y009579D02*
X008478Y009579D01*
X008478Y009421D02*
X008438Y009421D01*
X008438Y009262D02*
X008478Y009262D01*
X008478Y009104D02*
X008438Y009104D01*
X008060Y009104D02*
X007130Y009104D01*
X007122Y009083D02*
X007263Y009425D01*
X007263Y009795D01*
X007122Y010137D01*
X006860Y010398D01*
X006518Y010540D01*
X006148Y010540D01*
X005807Y010398D01*
X005545Y010137D01*
X005403Y009795D01*
X005403Y009425D01*
X005545Y009083D01*
X005807Y008822D01*
X006148Y008680D01*
X006518Y008680D01*
X006860Y008822D01*
X007122Y009083D01*
X007196Y009262D02*
X007901Y009262D01*
X007818Y009421D02*
X007261Y009421D01*
X007263Y009579D02*
X007818Y009579D01*
X007818Y009738D02*
X007263Y009738D01*
X007221Y009896D02*
X007839Y009896D01*
X007998Y010055D02*
X007156Y010055D01*
X007046Y010213D02*
X007950Y010213D01*
X007818Y010372D02*
X006887Y010372D01*
X006542Y010530D02*
X007818Y010530D01*
X007818Y010689D02*
X005313Y010689D01*
X005313Y010847D02*
X007818Y010847D01*
X007949Y011006D02*
X005313Y011006D01*
X005313Y010530D02*
X006124Y010530D01*
X005780Y010372D02*
X005313Y010372D01*
X005313Y010213D02*
X005621Y010213D01*
X005511Y010055D02*
X005313Y010055D01*
X005313Y009896D02*
X005445Y009896D01*
X005403Y009738D02*
X005313Y009738D01*
X005313Y009579D02*
X005403Y009579D01*
X005405Y009421D02*
X005313Y009421D01*
X005313Y009262D02*
X005471Y009262D01*
X005537Y009104D02*
X005313Y009104D01*
X005313Y008945D02*
X005683Y008945D01*
X005891Y008787D02*
X005313Y008787D01*
X005313Y008628D02*
X010137Y008628D01*
X010021Y008787D02*
X006775Y008787D01*
X006984Y008945D02*
X009978Y008945D01*
X009978Y009104D02*
X009857Y009104D01*
X009478Y009104D02*
X009438Y009104D01*
X009438Y009262D02*
X009478Y009262D01*
X009478Y009421D02*
X009438Y009421D01*
X009438Y009579D02*
X009478Y009579D01*
X009478Y009630D02*
X009438Y009630D01*
X009438Y010590D01*
X009478Y010590D01*
X009478Y009970D01*
X009478Y009630D01*
X009478Y009738D02*
X009438Y009738D01*
X009438Y009896D02*
X009478Y009896D01*
X009478Y010055D02*
X009438Y010055D01*
X009438Y010213D02*
X009478Y010213D01*
X009478Y010372D02*
X009438Y010372D01*
X009438Y010530D02*
X009478Y010530D01*
X009478Y010689D02*
X009438Y010689D01*
X009438Y010847D02*
X009478Y010847D01*
X009478Y011006D02*
X009438Y011006D01*
X009438Y011164D02*
X009478Y011164D01*
X009809Y011164D02*
X009976Y011164D01*
X009968Y011006D02*
X009978Y011006D01*
X009107Y011164D02*
X008809Y011164D01*
X010938Y011161D02*
X010938Y010689D01*
X011210Y010960D01*
X011458Y010960D01*
X011458Y010360D01*
X011458Y010360D01*
X011458Y010360D01*
X011458Y009760D01*
X011210Y009760D01*
X010938Y010031D01*
X010938Y009184D01*
X011657Y008465D01*
X014808Y008465D01*
X014808Y008631D01*
X014708Y008731D01*
X014548Y008571D01*
X014328Y008480D01*
X014089Y008480D01*
X013868Y008571D01*
X013708Y008731D01*
X013548Y008571D01*
X013328Y008480D01*
X013089Y008480D01*
X012868Y008571D01*
X012700Y008740D01*
X012608Y008961D01*
X012608Y009759D01*
X012700Y009980D01*
X012868Y010149D01*
X013089Y010240D01*
X013328Y010240D01*
X013548Y010149D01*
X013708Y009989D01*
X013868Y010149D01*
X014089Y010240D01*
X014328Y010240D01*
X014548Y010149D01*
X014708Y009989D01*
X014868Y010149D01*
X015089Y010240D01*
X015328Y010240D01*
X015548Y010149D01*
X015715Y009982D01*
X015751Y010031D01*
X015817Y010098D01*
X015894Y010153D01*
X015978Y010196D01*
X016068Y010225D01*
X016161Y010240D01*
X016208Y010240D01*
X016208Y009360D01*
X016208Y009360D01*
X016208Y009360D01*
X016208Y008480D01*
X016161Y008480D01*
X016068Y008495D01*
X015978Y008524D01*
X015894Y008567D01*
X015817Y008622D01*
X015751Y008689D01*
X015715Y008738D01*
X015608Y008631D01*
X015608Y008465D01*
X017228Y008465D01*
X017228Y008741D01*
X017108Y008861D01*
X017108Y009359D01*
X017460Y009710D01*
X017957Y009710D01*
X018308Y009359D01*
X018308Y008861D01*
X018188Y008741D01*
X018188Y008465D01*
X020308Y008465D01*
X020308Y008631D01*
X020200Y008740D01*
X020108Y008961D01*
X020108Y009759D01*
X020200Y009980D01*
X020368Y010149D01*
X020589Y010240D01*
X020828Y010240D01*
X021048Y010149D01*
X021208Y009989D01*
X021368Y010149D01*
X021447Y010181D01*
X021043Y010585D01*
X019808Y010585D01*
X019808Y010360D01*
X019208Y010360D01*
X018608Y010360D01*
X018608Y010111D01*
X018960Y009760D01*
X019208Y009760D01*
X019208Y010360D01*
X019208Y010360D01*
X018608Y010360D01*
X018608Y010585D01*
X015504Y010585D01*
X015357Y010646D01*
X015244Y010758D01*
X014466Y011537D01*
X014328Y011480D01*
X014089Y011480D01*
X013868Y011571D01*
X013708Y011731D01*
X013548Y011571D01*
X013328Y011480D01*
X013089Y011480D01*
X012868Y011571D01*
X012700Y011740D01*
X012642Y011880D01*
X011827Y011880D01*
X011707Y011760D01*
X011537Y011760D01*
X010938Y011161D01*
X010941Y011164D02*
X014839Y011164D01*
X014997Y011006D02*
X010938Y011006D01*
X010938Y010847D02*
X011097Y010847D01*
X011458Y010847D02*
X011458Y010847D01*
X011458Y010960D02*
X011458Y010360D01*
X011458Y009760D01*
X011707Y009760D01*
X012058Y010111D01*
X012058Y010360D01*
X011458Y010360D01*
X012058Y010360D01*
X012058Y010609D01*
X011707Y010960D01*
X011458Y010960D01*
X011458Y010689D02*
X011458Y010689D01*
X011458Y010530D02*
X011458Y010530D01*
X011458Y010372D02*
X011458Y010372D01*
X011458Y010360D02*
X011458Y010360D01*
X011458Y010213D02*
X011458Y010213D01*
X011458Y010055D02*
X011458Y010055D01*
X011458Y009896D02*
X011458Y009896D01*
X011074Y009896D02*
X010938Y009896D01*
X010938Y009738D02*
X012608Y009738D01*
X012608Y009579D02*
X010938Y009579D01*
X010938Y009421D02*
X012608Y009421D01*
X012608Y009262D02*
X010938Y009262D01*
X011019Y009104D02*
X012608Y009104D01*
X012615Y008945D02*
X011177Y008945D01*
X011336Y008787D02*
X012680Y008787D01*
X012812Y008628D02*
X011494Y008628D01*
X011653Y008470D02*
X014808Y008470D01*
X014808Y008628D02*
X014605Y008628D01*
X013812Y008628D02*
X013605Y008628D01*
X015208Y007985D02*
X015208Y009360D01*
X014774Y010055D02*
X014642Y010055D01*
X014393Y010213D02*
X015024Y010213D01*
X015393Y010213D02*
X016030Y010213D01*
X016208Y010213D02*
X016208Y010213D01*
X016208Y010240D02*
X016208Y009360D01*
X016208Y008480D01*
X016256Y008480D01*
X016349Y008495D01*
X016439Y008524D01*
X016523Y008567D01*
X016599Y008622D01*
X016666Y008689D01*
X016721Y008766D01*
X016764Y008850D01*
X016794Y008939D01*
X016808Y009033D01*
X016808Y009360D01*
X016208Y009360D01*
X016808Y009360D01*
X016808Y009687D01*
X016794Y009780D01*
X016764Y009870D01*
X016721Y009954D01*
X016666Y010031D01*
X016599Y010098D01*
X016523Y010153D01*
X016439Y010196D01*
X016349Y010225D01*
X016256Y010240D01*
X016208Y010240D01*
X016386Y010213D02*
X018608Y010213D01*
X018608Y010372D02*
X012058Y010372D01*
X012058Y010530D02*
X018608Y010530D01*
X018665Y010055D02*
X016642Y010055D01*
X016751Y009896D02*
X018824Y009896D01*
X019208Y009896D02*
X019208Y009896D01*
X019208Y009760D02*
X019457Y009760D01*
X019808Y010111D01*
X019808Y010360D01*
X019208Y010360D01*
X019208Y010360D01*
X019208Y009760D01*
X019208Y010055D02*
X019208Y010055D01*
X019208Y010213D02*
X019208Y010213D01*
X019208Y010360D02*
X019208Y010360D01*
X019808Y010372D02*
X021256Y010372D01*
X021098Y010530D02*
X019808Y010530D01*
X019808Y010213D02*
X020524Y010213D01*
X020274Y010055D02*
X019751Y010055D01*
X019593Y009896D02*
X020165Y009896D01*
X020108Y009738D02*
X016800Y009738D01*
X016808Y009579D02*
X017329Y009579D01*
X017170Y009421D02*
X016808Y009421D01*
X016808Y009262D02*
X017108Y009262D01*
X017108Y009104D02*
X016808Y009104D01*
X016794Y008945D02*
X017108Y008945D01*
X017183Y008787D02*
X016732Y008787D01*
X016605Y008628D02*
X017228Y008628D01*
X017228Y008470D02*
X015608Y008470D01*
X015608Y008628D02*
X015812Y008628D01*
X016208Y008628D02*
X016208Y008628D01*
X016208Y008787D02*
X016208Y008787D01*
X016208Y008945D02*
X016208Y008945D01*
X016208Y009104D02*
X016208Y009104D01*
X016208Y009262D02*
X016208Y009262D01*
X016208Y009360D02*
X016208Y009360D01*
X016208Y009421D02*
X016208Y009421D01*
X016208Y009579D02*
X016208Y009579D01*
X016208Y009738D02*
X016208Y009738D01*
X016208Y009896D02*
X016208Y009896D01*
X016208Y010055D02*
X016208Y010055D01*
X015774Y010055D02*
X015642Y010055D01*
X015314Y010689D02*
X011978Y010689D01*
X011820Y010847D02*
X015156Y010847D01*
X015583Y010985D02*
X021208Y010985D01*
X022708Y009485D01*
X022708Y009360D01*
X023208Y009989D02*
X023048Y010149D01*
X022828Y010240D01*
X022589Y010240D01*
X022540Y010220D01*
X021435Y011324D01*
X021288Y011385D01*
X021129Y011385D01*
X015749Y011385D01*
X015555Y011579D01*
X015708Y011731D01*
X015868Y011571D01*
X016089Y011480D01*
X016328Y011480D01*
X016548Y011571D01*
X016717Y011740D01*
X016808Y011961D01*
X016808Y012710D01*
X018710Y012710D01*
X018608Y012609D01*
X018608Y012111D01*
X018960Y011760D01*
X019457Y011760D01*
X019577Y011880D01*
X020142Y011880D01*
X020200Y011740D01*
X020368Y011571D01*
X020589Y011480D01*
X020828Y011480D01*
X021048Y011571D01*
X021215Y011738D01*
X021251Y011689D01*
X021317Y011622D01*
X021394Y011567D01*
X021478Y011524D01*
X021568Y011495D01*
X021661Y011480D01*
X021708Y011480D01*
X021708Y012360D01*
X021708Y012360D01*
X021708Y011480D01*
X021756Y011480D01*
X021849Y011495D01*
X021939Y011524D01*
X022023Y011567D01*
X022099Y011622D01*
X022166Y011689D01*
X022208Y011747D01*
X022251Y011689D01*
X022317Y011622D01*
X022394Y011567D01*
X022478Y011524D01*
X022568Y011495D01*
X022661Y011480D01*
X022708Y011480D01*
X022708Y012360D01*
X021708Y012360D01*
X022308Y012360D01*
X022708Y012360D01*
X022708Y012360D01*
X022708Y012360D01*
X022708Y011480D01*
X022756Y011480D01*
X022849Y011495D01*
X022939Y011524D01*
X023023Y011567D01*
X023099Y011622D01*
X023166Y011689D01*
X023208Y011747D01*
X023251Y011689D01*
X023317Y011622D01*
X023394Y011567D01*
X023478Y011524D01*
X023568Y011495D01*
X023661Y011480D01*
X023708Y011480D01*
X023708Y012360D01*
X022708Y012360D01*
X023308Y012360D01*
X023708Y012360D01*
X023708Y012360D01*
X023708Y012360D01*
X023708Y011480D01*
X023756Y011480D01*
X023849Y011495D01*
X023939Y011524D01*
X024023Y011567D01*
X024099Y011622D01*
X024166Y011689D01*
X024208Y011747D01*
X024251Y011689D01*
X024317Y011622D01*
X024394Y011567D01*
X024478Y011524D01*
X024568Y011495D01*
X024661Y011480D01*
X024708Y011480D01*
X024708Y012360D01*
X023708Y012360D01*
X024308Y012360D01*
X024708Y012360D01*
X024708Y012360D01*
X024708Y012360D01*
X024708Y011480D01*
X024756Y011480D01*
X024849Y011495D01*
X024939Y011524D01*
X025023Y011567D01*
X025099Y011622D01*
X025166Y011689D01*
X025202Y011738D01*
X025368Y011571D01*
X025589Y011480D01*
X025828Y011480D01*
X026048Y011571D01*
X026208Y011731D01*
X026368Y011571D01*
X026589Y011480D01*
X026828Y011480D01*
X027048Y011571D01*
X027217Y011740D01*
X027308Y011961D01*
X027308Y012710D01*
X027835Y012710D01*
X027733Y012609D01*
X027733Y012360D01*
X027733Y012111D01*
X028085Y011760D01*
X028333Y011760D01*
X028333Y012360D01*
X027733Y012360D01*
X028333Y012360D01*
X028333Y012360D01*
X028333Y012360D01*
X028333Y011760D01*
X028582Y011760D01*
X028933Y012111D01*
X028933Y012360D01*
X028333Y012360D01*
X028933Y012360D01*
X028933Y012609D01*
X028832Y012710D01*
X029237Y012710D01*
X029233Y012687D01*
X029233Y012360D01*
X029233Y012033D01*
X029248Y011939D01*
X029277Y011850D01*
X029320Y011766D01*
X029376Y011689D01*
X029442Y011622D01*
X029519Y011567D01*
X029603Y011524D01*
X029693Y011495D01*
X029786Y011480D01*
X029833Y011480D01*
X029833Y012360D01*
X029233Y012360D01*
X029833Y012360D01*
X029833Y012360D01*
X029833Y012360D01*
X029833Y011480D01*
X029881Y011480D01*
X029974Y011495D01*
X030064Y011524D01*
X030148Y011567D01*
X030224Y011622D01*
X030291Y011689D01*
X030333Y011747D01*
X030376Y011689D01*
X030442Y011622D01*
X030519Y011567D01*
X030603Y011524D01*
X030693Y011495D01*
X030786Y011480D01*
X030833Y011480D01*
X030833Y012360D01*
X030433Y012360D01*
X029833Y012360D01*
X030833Y012360D01*
X030833Y012360D01*
X030833Y012360D01*
X030833Y011480D01*
X030881Y011480D01*
X030974Y011495D01*
X031064Y011524D01*
X031148Y011567D01*
X031224Y011622D01*
X031291Y011689D01*
X031333Y011747D01*
X031376Y011689D01*
X031442Y011622D01*
X031519Y011567D01*
X031603Y011524D01*
X031693Y011495D01*
X031786Y011480D01*
X031833Y011480D01*
X031833Y012360D01*
X031233Y012360D01*
X030833Y012360D01*
X031833Y012360D01*
X031833Y012360D01*
X031833Y012360D01*
X031833Y011480D01*
X031881Y011480D01*
X031974Y011495D01*
X032064Y011524D01*
X032148Y011567D01*
X032224Y011622D01*
X032291Y011689D01*
X032327Y011738D01*
X032353Y011711D01*
X032353Y011309D01*
X031885Y010840D01*
X028702Y010840D01*
X028582Y010960D01*
X028085Y010960D01*
X027733Y010609D01*
X027733Y010111D01*
X027853Y009991D01*
X027853Y009115D01*
X027697Y009180D01*
X027470Y009180D01*
X027308Y009113D01*
X027308Y009360D01*
X027308Y009687D01*
X027294Y009780D01*
X027264Y009870D01*
X027221Y009954D01*
X027166Y010031D01*
X027099Y010098D01*
X027023Y010153D01*
X026939Y010196D01*
X026849Y010225D01*
X026756Y010240D01*
X026708Y010240D01*
X026661Y010240D01*
X026568Y010225D01*
X026478Y010196D01*
X026394Y010153D01*
X026317Y010098D01*
X026251Y010031D01*
X026215Y009982D01*
X026048Y010149D01*
X025828Y010240D01*
X025589Y010240D01*
X025368Y010149D01*
X025208Y009989D01*
X025048Y010149D01*
X024828Y010240D01*
X024589Y010240D01*
X024368Y010149D01*
X024208Y009989D01*
X024048Y010149D01*
X023828Y010240D01*
X023589Y010240D01*
X023368Y010149D01*
X023208Y009989D01*
X023142Y010055D02*
X023274Y010055D01*
X023524Y010213D02*
X022893Y010213D01*
X022388Y010372D02*
X027733Y010372D01*
X027733Y010530D02*
X022229Y010530D01*
X022071Y010689D02*
X027813Y010689D01*
X027972Y010847D02*
X021912Y010847D01*
X021754Y011006D02*
X032050Y011006D01*
X032209Y011164D02*
X021595Y011164D01*
X021437Y011323D02*
X032353Y011323D01*
X032353Y011481D02*
X031887Y011481D01*
X031833Y011481D02*
X031833Y011481D01*
X031780Y011481D02*
X030887Y011481D01*
X030833Y011481D02*
X030833Y011481D01*
X030780Y011481D02*
X029887Y011481D01*
X029833Y011481D02*
X029833Y011481D01*
X029780Y011481D02*
X026830Y011481D01*
X026587Y011481D02*
X025830Y011481D01*
X025587Y011481D02*
X024762Y011481D01*
X024708Y011481D02*
X024708Y011481D01*
X024655Y011481D02*
X023762Y011481D01*
X023708Y011481D02*
X023708Y011481D01*
X023655Y011481D02*
X022762Y011481D01*
X022708Y011481D02*
X022708Y011481D01*
X022655Y011481D02*
X021762Y011481D01*
X021708Y011481D02*
X021708Y011481D01*
X021655Y011481D02*
X020830Y011481D01*
X020587Y011481D02*
X016330Y011481D01*
X016087Y011481D02*
X015653Y011481D01*
X015616Y011640D02*
X015800Y011640D01*
X015583Y010985D02*
X014208Y012360D01*
X013800Y011640D02*
X013616Y011640D01*
X013330Y011481D02*
X014087Y011481D01*
X014330Y011481D02*
X014522Y011481D01*
X014680Y011323D02*
X011100Y011323D01*
X011258Y011481D02*
X013087Y011481D01*
X012800Y011640D02*
X011417Y011640D01*
X011745Y011798D02*
X012676Y011798D01*
X013024Y010213D02*
X012058Y010213D01*
X012001Y010055D02*
X012774Y010055D01*
X012665Y009896D02*
X011843Y009896D01*
X013393Y010213D02*
X014024Y010213D01*
X013774Y010055D02*
X013642Y010055D01*
X016616Y011640D02*
X017330Y011640D01*
X017460Y011510D02*
X017957Y011510D01*
X018308Y011861D01*
X018308Y012359D01*
X017957Y012710D01*
X017460Y012710D01*
X017108Y012359D01*
X017108Y011861D01*
X017460Y011510D01*
X017172Y011798D02*
X016741Y011798D01*
X016807Y011957D02*
X017108Y011957D01*
X017108Y012115D02*
X016808Y012115D01*
X016808Y012274D02*
X017108Y012274D01*
X017182Y012432D02*
X016808Y012432D01*
X016808Y012591D02*
X017340Y012591D01*
X018076Y012591D02*
X018608Y012591D01*
X018608Y012432D02*
X018235Y012432D01*
X018308Y012274D02*
X018608Y012274D01*
X018608Y012115D02*
X018308Y012115D01*
X018308Y011957D02*
X018763Y011957D01*
X018922Y011798D02*
X018245Y011798D01*
X018086Y011640D02*
X020300Y011640D01*
X020176Y011798D02*
X019495Y011798D01*
X021116Y011640D02*
X021300Y011640D01*
X021708Y011640D02*
X021708Y011640D01*
X021708Y011798D02*
X021708Y011798D01*
X021708Y011957D02*
X021708Y011957D01*
X021708Y012115D02*
X021708Y012115D01*
X021708Y012274D02*
X021708Y012274D01*
X021708Y012360D02*
X021708Y012360D01*
X022116Y011640D02*
X022300Y011640D01*
X022708Y011640D02*
X022708Y011640D01*
X022708Y011798D02*
X022708Y011798D01*
X022708Y011957D02*
X022708Y011957D01*
X022708Y012115D02*
X022708Y012115D01*
X022708Y012274D02*
X022708Y012274D01*
X022708Y012360D02*
X022708Y012360D01*
X023116Y011640D02*
X023300Y011640D01*
X023708Y011640D02*
X023708Y011640D01*
X023708Y011798D02*
X023708Y011798D01*
X023708Y011957D02*
X023708Y011957D01*
X023708Y012115D02*
X023708Y012115D01*
X023708Y012274D02*
X023708Y012274D01*
X023708Y012360D02*
X023708Y012360D01*
X024116Y011640D02*
X024300Y011640D01*
X024708Y011640D02*
X024708Y011640D01*
X024708Y011798D02*
X024708Y011798D01*
X024708Y011957D02*
X024708Y011957D01*
X024708Y012115D02*
X024708Y012115D01*
X024708Y012274D02*
X024708Y012274D01*
X025116Y011640D02*
X025300Y011640D01*
X026116Y011640D02*
X026300Y011640D01*
X027116Y011640D02*
X029425Y011640D01*
X029304Y011798D02*
X028620Y011798D01*
X028778Y011957D02*
X029245Y011957D01*
X029233Y012115D02*
X028933Y012115D01*
X028933Y012274D02*
X029233Y012274D01*
X029233Y012432D02*
X028933Y012432D01*
X028933Y012591D02*
X029233Y012591D01*
X029833Y012360D02*
X029833Y012360D01*
X029833Y012274D02*
X029833Y012274D01*
X029833Y012115D02*
X029833Y012115D01*
X029833Y011957D02*
X029833Y011957D01*
X029833Y011798D02*
X029833Y011798D01*
X029833Y011640D02*
X029833Y011640D01*
X030241Y011640D02*
X030425Y011640D01*
X030833Y011640D02*
X030833Y011640D01*
X030833Y011798D02*
X030833Y011798D01*
X030833Y011957D02*
X030833Y011957D01*
X030833Y012115D02*
X030833Y012115D01*
X030833Y012274D02*
X030833Y012274D01*
X030833Y012360D02*
X030833Y012360D01*
X031241Y011640D02*
X031425Y011640D01*
X031833Y011640D02*
X031833Y011640D01*
X031833Y011798D02*
X031833Y011798D01*
X031833Y011957D02*
X031833Y011957D01*
X031833Y012115D02*
X031833Y012115D01*
X031833Y012274D02*
X031833Y012274D01*
X032241Y011640D02*
X032353Y011640D01*
X031892Y010847D02*
X028695Y010847D01*
X028333Y011798D02*
X028333Y011798D01*
X028333Y011957D02*
X028333Y011957D01*
X028333Y012115D02*
X028333Y012115D01*
X028333Y012274D02*
X028333Y012274D01*
X028333Y012360D02*
X028333Y012360D01*
X027888Y011957D02*
X027307Y011957D01*
X027308Y012115D02*
X027733Y012115D01*
X027733Y012274D02*
X027308Y012274D01*
X027308Y012432D02*
X027733Y012432D01*
X027733Y012591D02*
X027308Y012591D01*
X027241Y011798D02*
X028047Y011798D01*
X027733Y010213D02*
X026886Y010213D01*
X026708Y010213D02*
X026708Y010213D01*
X026708Y010240D02*
X026708Y009360D01*
X026708Y010240D01*
X026530Y010213D02*
X025893Y010213D01*
X026142Y010055D02*
X026274Y010055D01*
X026708Y010055D02*
X026708Y010055D01*
X026708Y009896D02*
X026708Y009896D01*
X026708Y009738D02*
X026708Y009738D01*
X026708Y009579D02*
X026708Y009579D01*
X026708Y009421D02*
X026708Y009421D01*
X026708Y009360D02*
X026708Y009360D01*
X027308Y009360D01*
X026708Y009360D01*
X026708Y009360D01*
X027308Y009421D02*
X027853Y009421D01*
X027853Y009579D02*
X027308Y009579D01*
X027300Y009738D02*
X027853Y009738D01*
X027853Y009896D02*
X027251Y009896D01*
X027142Y010055D02*
X027790Y010055D01*
X027853Y009262D02*
X027308Y009262D01*
X027583Y008610D02*
X026208Y008610D01*
X025708Y009110D01*
X025708Y009360D01*
X025274Y010055D02*
X025142Y010055D01*
X024893Y010213D02*
X025524Y010213D01*
X024524Y010213D02*
X023893Y010213D01*
X024142Y010055D02*
X024274Y010055D01*
X023708Y009360D02*
X023708Y007985D01*
X021274Y010055D02*
X021142Y010055D01*
X020893Y010213D02*
X021415Y010213D01*
X020708Y009360D02*
X020708Y007985D01*
X020308Y008470D02*
X018188Y008470D01*
X018188Y008628D02*
X020308Y008628D01*
X020180Y008787D02*
X018233Y008787D01*
X018308Y008945D02*
X020115Y008945D01*
X020108Y009104D02*
X018308Y009104D01*
X018308Y009262D02*
X020108Y009262D01*
X020108Y009421D02*
X018246Y009421D01*
X018088Y009579D02*
X020108Y009579D01*
X029208Y008610D02*
X029333Y008485D01*
X050833Y008485D01*
X051458Y009110D01*
X051458Y010110D01*
X050958Y010610D01*
X049958Y011360D02*
X035833Y011360D01*
X034833Y012360D01*
X033833Y012360D02*
X033833Y011360D01*
X035833Y009360D01*
X034486Y010141D02*
X034333Y009989D01*
X034173Y010149D01*
X033953Y010240D01*
X033714Y010240D01*
X033493Y010149D01*
X033327Y009982D01*
X033291Y010031D01*
X033224Y010098D01*
X033148Y010153D01*
X033064Y010196D01*
X032974Y010225D01*
X032881Y010240D01*
X032833Y010240D01*
X032786Y010240D01*
X032693Y010225D01*
X032603Y010196D01*
X032593Y010191D01*
X033105Y010703D01*
X033240Y010838D01*
X033313Y011015D01*
X033313Y011711D01*
X033333Y011731D01*
X033433Y011631D01*
X033433Y011280D01*
X033494Y011133D01*
X033607Y011021D01*
X034486Y010141D01*
X034415Y010213D02*
X034018Y010213D01*
X034256Y010372D02*
X032774Y010372D01*
X032833Y010240D02*
X032833Y009360D01*
X032233Y009360D01*
X031833Y009360D01*
X032833Y009360D01*
X032833Y009360D01*
X032833Y009360D01*
X032833Y010240D01*
X032833Y010213D02*
X032833Y010213D01*
X032833Y010055D02*
X032833Y010055D01*
X032833Y009896D02*
X032833Y009896D01*
X032833Y009738D02*
X032833Y009738D01*
X032833Y009579D02*
X032833Y009579D01*
X032833Y009421D02*
X032833Y009421D01*
X033267Y010055D02*
X033399Y010055D01*
X033649Y010213D02*
X033011Y010213D01*
X032932Y010530D02*
X034098Y010530D01*
X033939Y010689D02*
X033091Y010689D01*
X033244Y010847D02*
X033781Y010847D01*
X033622Y011006D02*
X033310Y011006D01*
X033313Y011164D02*
X033482Y011164D01*
X033433Y011323D02*
X033313Y011323D01*
X033313Y011481D02*
X033433Y011481D01*
X033425Y011640D02*
X033313Y011640D01*
X032655Y010213D02*
X032615Y010213D01*
X031833Y009360D02*
X031833Y009360D01*
X034267Y010055D02*
X034399Y010055D01*
X038958Y011860D02*
X048708Y011860D01*
X049958Y013110D01*
X048958Y013110D02*
X048958Y013360D01*
X048458Y013860D01*
X047958Y013860D01*
X046958Y013235D02*
X046333Y013860D01*
X045958Y013860D01*
X046958Y013235D02*
X046958Y013110D01*
X042958Y016110D02*
X042958Y016110D01*
X045083Y019485D02*
X044708Y019860D01*
X010333Y019860D01*
X010083Y019610D01*
X007833Y019610D01*
X007458Y021235D02*
X016208Y021235D01*
X016043Y021784D02*
X006188Y021784D01*
X006188Y021942D02*
X023248Y021942D01*
X023137Y022101D02*
X006188Y022101D01*
X006972Y022259D02*
X007950Y022259D01*
X007807Y022418D02*
X007119Y022418D01*
X007185Y022576D02*
X007735Y022576D01*
X007708Y022735D02*
X007208Y022735D01*
X007208Y022893D02*
X007708Y022893D01*
X007708Y023052D02*
X007208Y023052D01*
X007208Y023210D02*
X007708Y023210D01*
X007774Y023686D02*
X007143Y023686D01*
X007029Y023844D02*
X007887Y023844D01*
X008131Y024003D02*
X006968Y024003D01*
X006968Y024161D02*
X022683Y024161D01*
X022683Y024320D02*
X006968Y024320D01*
X006968Y024478D02*
X022683Y024478D01*
X022683Y024637D02*
X006968Y024637D01*
X006968Y024795D02*
X007981Y024795D01*
X007823Y024954D02*
X007107Y024954D01*
X007175Y025112D02*
X007742Y025112D01*
X007709Y025271D02*
X007208Y025271D01*
X007208Y025429D02*
X007708Y025429D01*
X007708Y025588D02*
X007208Y025588D01*
X007208Y025746D02*
X007708Y025746D01*
X007708Y025905D02*
X007208Y025905D01*
X007208Y026063D02*
X007716Y026063D01*
X008328Y025588D02*
X008368Y025588D01*
X008368Y025429D02*
X008328Y025429D01*
X008328Y025271D02*
X008368Y025271D01*
X008368Y025112D02*
X008328Y025112D01*
X008328Y024954D02*
X008368Y024954D01*
X008368Y024795D02*
X008328Y024795D01*
X008715Y024795D02*
X022683Y024795D01*
X022683Y024954D02*
X008874Y024954D01*
X008955Y025112D02*
X022683Y025112D01*
X022683Y025271D02*
X008987Y025271D01*
X008988Y025429D02*
X022683Y025429D01*
X022683Y025588D02*
X008988Y025588D01*
X008988Y025746D02*
X022683Y025746D01*
X023958Y025360D02*
X025958Y025360D01*
X026958Y024360D01*
X027958Y025360D01*
X030458Y025360D01*
X032458Y025360D01*
X033458Y024360D01*
X032458Y023360D02*
X031458Y023360D01*
X031797Y022893D02*
X032360Y022893D01*
X032518Y022735D02*
X031208Y022735D01*
X031299Y022576D02*
X032618Y022576D01*
X032578Y022418D02*
X031337Y022418D01*
X031330Y022259D02*
X032578Y022259D01*
X032636Y022101D02*
X031280Y022101D01*
X031169Y021942D02*
X032748Y021942D01*
X033002Y021784D02*
X030906Y021784D01*
X029513Y021150D02*
X016778Y021150D01*
X017710Y022760D02*
X018207Y022760D01*
X018558Y023111D01*
X018558Y023609D01*
X018207Y023960D01*
X017710Y023960D01*
X017358Y023609D01*
X017358Y023111D01*
X017710Y022760D01*
X017577Y022893D02*
X015340Y022893D01*
X015207Y022760D02*
X015558Y023111D01*
X015558Y023609D01*
X015207Y023960D01*
X014710Y023960D01*
X014510Y023760D01*
X013956Y023760D01*
X013818Y023898D01*
X013585Y023995D01*
X013332Y023995D01*
X013099Y023898D01*
X012958Y023758D01*
X012721Y023995D01*
X012458Y023995D01*
X012195Y023995D01*
X011823Y023623D01*
X011823Y023360D01*
X011823Y023097D01*
X012195Y022725D01*
X012458Y022725D01*
X012458Y023360D01*
X011823Y023360D01*
X012458Y023360D01*
X012458Y023360D01*
X012458Y023360D01*
X012458Y023995D01*
X012458Y023360D01*
X012458Y023360D01*
X012458Y022725D01*
X012721Y022725D01*
X012958Y022962D01*
X013099Y022822D01*
X013332Y022725D01*
X013585Y022725D01*
X013818Y022822D01*
X013956Y022960D01*
X014510Y022960D01*
X014710Y022760D01*
X015207Y022760D01*
X015498Y023052D02*
X017418Y023052D01*
X017358Y023210D02*
X015558Y023210D01*
X015558Y023369D02*
X017358Y023369D01*
X017358Y023527D02*
X015558Y023527D01*
X015481Y023686D02*
X017435Y023686D01*
X017594Y023844D02*
X015323Y023844D01*
X014958Y023360D02*
X013458Y023360D01*
X013027Y022893D02*
X012889Y022893D01*
X012731Y022735D02*
X013309Y022735D01*
X013608Y022735D02*
X023209Y022735D01*
X023297Y022893D02*
X018340Y022893D01*
X018498Y023052D02*
X023157Y023052D01*
X023091Y023210D02*
X018558Y023210D01*
X018558Y023369D02*
X023078Y023369D01*
X023098Y023527D02*
X018558Y023527D01*
X018481Y023686D02*
X023067Y023686D01*
X022909Y023844D02*
X018323Y023844D01*
X014594Y023844D02*
X013872Y023844D01*
X013044Y023844D02*
X012872Y023844D01*
X012458Y023844D02*
X012458Y023844D01*
X012458Y023686D02*
X012458Y023686D01*
X012458Y023527D02*
X012458Y023527D01*
X012458Y023369D02*
X012458Y023369D01*
X012458Y023210D02*
X012458Y023210D01*
X012458Y023052D02*
X012458Y023052D01*
X012458Y022893D02*
X012458Y022893D01*
X012458Y022735D02*
X012458Y022735D01*
X012186Y022735D02*
X008988Y022735D01*
X008988Y022893D02*
X012027Y022893D01*
X011869Y023052D02*
X008988Y023052D01*
X008988Y023100D02*
X008988Y023442D01*
X008977Y023525D01*
X008956Y023606D01*
X008924Y023684D01*
X008882Y023756D01*
X008831Y023823D01*
X008771Y023882D01*
X008705Y023933D01*
X008632Y023975D01*
X008554Y024007D01*
X008473Y024029D01*
X008390Y024040D01*
X008368Y024040D01*
X008368Y023100D01*
X008988Y023100D01*
X008988Y023210D02*
X011823Y023210D01*
X011823Y023369D02*
X008988Y023369D01*
X008977Y023527D02*
X011823Y023527D01*
X011886Y023686D02*
X008922Y023686D01*
X008809Y023844D02*
X012044Y023844D01*
X013889Y022893D02*
X014577Y022893D01*
X008962Y022576D02*
X023118Y022576D01*
X023080Y022418D02*
X008890Y022418D01*
X008747Y022259D02*
X023087Y022259D01*
X022750Y024003D02*
X008566Y024003D01*
X008368Y024003D02*
X008328Y024003D01*
X008328Y023844D02*
X008368Y023844D01*
X008368Y023686D02*
X008328Y023686D01*
X008328Y023527D02*
X008368Y023527D01*
X008368Y023369D02*
X008328Y023369D01*
X008328Y023210D02*
X008368Y023210D01*
X008368Y023052D02*
X008328Y023052D01*
X008328Y022893D02*
X008368Y022893D01*
X008368Y022735D02*
X008328Y022735D01*
X008328Y022576D02*
X008368Y022576D01*
X008368Y022418D02*
X008328Y022418D01*
X008328Y022259D02*
X008368Y022259D01*
X006568Y023080D02*
X006568Y025640D01*
X008458Y029392D02*
X008458Y029392D01*
X008458Y029550D02*
X008458Y029550D01*
X008458Y029610D02*
X008458Y029610D01*
X007501Y033037D02*
X007165Y033037D01*
X007324Y033196D02*
X007343Y033196D01*
X008776Y043023D02*
X008978Y043023D01*
X009938Y043023D02*
X010442Y043023D01*
X010601Y043181D02*
X009938Y043181D01*
X010093Y043340D02*
X010759Y043340D01*
X010918Y043498D02*
X010098Y043498D01*
X010098Y043657D02*
X011076Y043657D01*
X011235Y043815D02*
X010098Y043815D01*
X010000Y043974D02*
X011393Y043974D01*
X011552Y044132D02*
X009938Y044132D01*
X010044Y044291D02*
X011710Y044291D01*
X011869Y044449D02*
X010098Y044449D01*
X010098Y044608D02*
X012027Y044608D01*
X012186Y044766D02*
X010098Y044766D01*
X010049Y044925D02*
X012344Y044925D01*
X012503Y045083D02*
X009890Y045083D01*
X009732Y045242D02*
X012661Y045242D01*
X009185Y045242D02*
X008732Y045242D01*
X026958Y027360D02*
X027458Y027860D01*
X032458Y023360D02*
X033458Y022360D01*
X034338Y027331D02*
X035078Y027331D01*
X035083Y027490D02*
X034334Y027490D01*
X034268Y027648D02*
X035148Y027648D01*
X045083Y019485D02*
X045583Y019485D01*
X045958Y019110D01*
X046208Y019110D01*
X044078Y041596D02*
X042838Y041596D01*
X042828Y041755D02*
X044089Y041755D01*
X044154Y041913D02*
X042762Y041913D01*
X042625Y042072D02*
X044291Y042072D01*
X009060Y009104D02*
X008857Y009104D01*
X010295Y008470D02*
X005313Y008470D01*
X005313Y008311D02*
X010454Y008311D01*
X010612Y008153D02*
X005313Y008153D01*
X005313Y007994D02*
X010771Y007994D01*
X010929Y007836D02*
X005313Y007836D01*
D22*
X010458Y008985D02*
X011458Y007985D01*
X015208Y007985D01*
X017708Y007985D01*
X017708Y009110D01*
X017708Y007985D02*
X020708Y007985D01*
X023708Y007985D01*
X028333Y007985D01*
X028333Y010360D01*
X032083Y010360D01*
X032833Y011110D01*
X032833Y012360D01*
X028333Y007985D02*
X056458Y007985D01*
X060333Y007985D01*
X060333Y009610D01*
X060333Y010610D01*
X061333Y010610D02*
X061333Y009610D01*
X061333Y007985D01*
X063583Y007985D01*
X064458Y008860D01*
X064458Y009610D01*
X064458Y010985D01*
X063833Y011610D01*
X063833Y012610D01*
X065833Y012610D01*
X065833Y011610D01*
X061333Y007985D02*
X060333Y007985D01*
X056458Y007985D02*
X056458Y010985D01*
X054333Y013110D01*
X053458Y013110D01*
X051958Y013110D01*
X051958Y018360D02*
X053458Y018360D01*
X053458Y025360D02*
X051958Y025360D01*
X054083Y030610D02*
X054833Y031360D01*
X055458Y031360D01*
X054083Y030610D02*
X038958Y030610D01*
X038958Y029860D01*
X038958Y030610D02*
X033458Y030610D01*
X033458Y029860D01*
X033458Y028360D01*
X033458Y030610D02*
X026958Y030610D01*
X026958Y029860D01*
X026958Y028360D01*
X026958Y030610D02*
X005708Y030610D01*
X005708Y041485D01*
X006708Y042485D01*
X009458Y042485D01*
X009458Y043610D01*
X009458Y044610D01*
X008458Y044610D01*
X008458Y043610D02*
X009458Y043610D01*
X009458Y042485D02*
X010583Y042485D01*
X013208Y045110D01*
X018958Y045110D01*
X018958Y043735D01*
X018958Y041610D01*
X018958Y045110D02*
X029083Y045110D01*
X029083Y043735D01*
X029083Y041610D01*
X029083Y045110D02*
X037458Y045110D01*
X037458Y043860D01*
X036083Y042485D01*
X036083Y041610D01*
X037458Y045110D02*
X041958Y045110D01*
X041958Y043235D01*
X041958Y041610D01*
X041958Y045110D02*
X047958Y045110D01*
X047958Y043235D01*
X047958Y041610D01*
X047958Y045110D02*
X053208Y045110D01*
X054349Y045110D01*
X056099Y043360D01*
X054083Y043235D02*
X054083Y041610D01*
X054083Y043235D02*
X054083Y044235D01*
X053208Y045110D01*
X012958Y029360D02*
X012458Y029360D01*
X010458Y027360D01*
X010458Y026860D01*
X010208Y026610D01*
X005708Y026610D01*
X005708Y013485D01*
X006833Y012360D01*
X009458Y012360D01*
X010458Y011360D01*
X011458Y012360D01*
X013208Y012360D01*
X010458Y011360D02*
X010458Y008985D01*
X019208Y012360D02*
X020708Y012360D01*
X005708Y026610D02*
X005708Y030610D01*
M02*
