G75*
%MOIN*%
%OFA0B0*%
%FSLAX24Y24*%
%IPPOS*%
%LPD*%
%AMOC8*
5,1,8,0,0,1.08239X$1,22.5*
%
%ADD10C,0.0560*%
%ADD11OC8,0.0560*%
%ADD12OC8,0.0640*%
%ADD13OC8,0.0630*%
%ADD14C,0.0630*%
%ADD15C,0.0160*%
%ADD16C,0.0500*%
%ADD17C,0.0480*%
%ADD18C,0.0320*%
%ADD19R,0.0480X0.0480*%
D10*
X021180Y004775D02*
X021180Y005335D01*
X022180Y005335D02*
X022180Y004775D01*
X023180Y004775D02*
X023180Y005335D01*
X024180Y005335D02*
X024180Y004775D01*
X025180Y004775D02*
X025180Y005335D01*
X026180Y005335D02*
X026180Y004775D01*
X027180Y004775D02*
X027180Y005335D01*
X027180Y007775D02*
X027180Y008335D01*
X026180Y008335D02*
X026180Y007775D01*
X025180Y007775D02*
X025180Y008335D01*
X024180Y008335D02*
X024180Y007775D01*
X023180Y007775D02*
X023180Y008335D01*
X022180Y008335D02*
X022180Y007775D01*
X021180Y007775D02*
X021180Y008335D01*
X021430Y014400D02*
X021430Y014960D01*
X022430Y014960D02*
X022430Y014400D01*
X023430Y014400D02*
X023430Y014960D01*
X024430Y014960D02*
X024430Y014400D01*
X025430Y014400D02*
X025430Y014960D01*
X026430Y014960D02*
X026430Y014400D01*
X027430Y014400D02*
X027430Y014960D01*
X028430Y014960D02*
X028430Y014400D01*
X029430Y014400D02*
X029430Y014960D01*
X030430Y014960D02*
X030430Y014400D01*
X033555Y014400D02*
X033555Y014960D01*
X034555Y014960D02*
X034555Y014400D01*
X035555Y014400D02*
X035555Y014960D01*
X036555Y014960D02*
X036555Y014400D01*
X037555Y014400D02*
X037555Y014960D01*
X038555Y014960D02*
X038555Y014400D01*
X039555Y014400D02*
X039555Y014960D01*
X040555Y014960D02*
X040555Y014400D01*
X041555Y014400D02*
X041555Y014960D01*
X042555Y014960D02*
X042555Y014400D01*
X045680Y014400D02*
X045680Y014960D01*
X046680Y014960D02*
X046680Y014400D01*
X047680Y014400D02*
X047680Y014960D01*
X048680Y014960D02*
X048680Y014400D01*
X049680Y014400D02*
X049680Y014960D01*
X050680Y014960D02*
X050680Y014400D01*
X051680Y014400D02*
X051680Y014960D01*
X052680Y014960D02*
X052680Y014400D01*
X053680Y014400D02*
X053680Y014960D01*
X054680Y014960D02*
X054680Y014400D01*
X054680Y017400D02*
X054680Y017960D01*
X053680Y017960D02*
X053680Y017400D01*
X052680Y017400D02*
X052680Y017960D01*
X051680Y017960D02*
X051680Y017400D01*
X050680Y017400D02*
X050680Y017960D01*
X049680Y017960D02*
X049680Y017400D01*
X048680Y017400D02*
X048680Y017960D01*
X047680Y017960D02*
X047680Y017400D01*
X046680Y017400D02*
X046680Y017960D01*
X045680Y017960D02*
X045680Y017400D01*
X042555Y017400D02*
X042555Y017960D01*
X041555Y017960D02*
X041555Y017400D01*
X040555Y017400D02*
X040555Y017960D01*
X039555Y017960D02*
X039555Y017400D01*
X038555Y017400D02*
X038555Y017960D01*
X037555Y017960D02*
X037555Y017400D01*
X036555Y017400D02*
X036555Y017960D01*
X035555Y017960D02*
X035555Y017400D01*
X034555Y017400D02*
X034555Y017960D01*
X033555Y017960D02*
X033555Y017400D01*
X030430Y017400D02*
X030430Y017960D01*
X029430Y017960D02*
X029430Y017400D01*
X028430Y017400D02*
X028430Y017960D01*
X027430Y017960D02*
X027430Y017400D01*
X026430Y017400D02*
X026430Y017960D01*
X025430Y017960D02*
X025430Y017400D01*
X024430Y017400D02*
X024430Y017960D01*
X023430Y017960D02*
X023430Y017400D01*
X022430Y017400D02*
X022430Y017960D01*
X021430Y017960D02*
X021430Y017400D01*
X018305Y017400D02*
X018305Y017960D01*
X017305Y017960D02*
X017305Y017400D01*
X016305Y017400D02*
X016305Y017960D01*
X015305Y017960D02*
X015305Y017400D01*
X014305Y017400D02*
X014305Y017960D01*
X013305Y017960D02*
X013305Y017400D01*
X012305Y017400D02*
X012305Y017960D01*
X011305Y017960D02*
X011305Y017400D01*
X010305Y017400D02*
X010305Y017960D01*
X009305Y017960D02*
X009305Y017400D01*
X009305Y014960D02*
X009305Y014400D01*
X010305Y014400D02*
X010305Y014960D01*
X011305Y014960D02*
X011305Y014400D01*
X012305Y014400D02*
X012305Y014960D01*
X013305Y014960D02*
X013305Y014400D01*
X014305Y014400D02*
X014305Y014960D01*
X015305Y014960D02*
X015305Y014400D01*
X016305Y014400D02*
X016305Y014960D01*
X017305Y014960D02*
X017305Y014400D01*
X018305Y014400D02*
X018305Y014960D01*
X018305Y019900D02*
X018305Y020460D01*
X017305Y020460D02*
X017305Y019900D01*
X016305Y019900D02*
X016305Y020460D01*
X015305Y020460D02*
X015305Y019900D01*
X014305Y019900D02*
X014305Y020460D01*
X013305Y020460D02*
X013305Y019900D01*
X012305Y019900D02*
X012305Y020460D01*
X011305Y020460D02*
X011305Y019900D01*
X010305Y019900D02*
X010305Y020460D01*
X009305Y020460D02*
X009305Y019900D01*
X009305Y022900D02*
X009305Y023460D01*
X010305Y023460D02*
X010305Y022900D01*
X011305Y022900D02*
X011305Y023460D01*
X012305Y023460D02*
X012305Y022900D01*
X013305Y022900D02*
X013305Y023460D01*
X014305Y023460D02*
X014305Y022900D01*
X015305Y022900D02*
X015305Y023460D01*
X016305Y023460D02*
X016305Y022900D01*
X017305Y022900D02*
X017305Y023460D01*
X018305Y023460D02*
X018305Y022900D01*
X021430Y022900D02*
X021430Y023460D01*
X022430Y023460D02*
X022430Y022900D01*
X023430Y022900D02*
X023430Y023460D01*
X024430Y023460D02*
X024430Y022900D01*
X025430Y022900D02*
X025430Y023460D01*
X026430Y023460D02*
X026430Y022900D01*
X027430Y022900D02*
X027430Y023460D01*
X028430Y023460D02*
X028430Y022900D01*
X029430Y022900D02*
X029430Y023460D01*
X030430Y023460D02*
X030430Y022900D01*
X033555Y022900D02*
X033555Y023460D01*
X034555Y023460D02*
X034555Y022900D01*
X035555Y022900D02*
X035555Y023460D01*
X036555Y023460D02*
X036555Y022900D01*
X037555Y022900D02*
X037555Y023460D01*
X038555Y023460D02*
X038555Y022900D01*
X039555Y022900D02*
X039555Y023460D01*
X040555Y023460D02*
X040555Y022900D01*
X041555Y022900D02*
X041555Y023460D01*
X042555Y023460D02*
X042555Y022900D01*
X045680Y022900D02*
X045680Y023460D01*
X046680Y023460D02*
X046680Y022900D01*
X047680Y022900D02*
X047680Y023460D01*
X048680Y023460D02*
X048680Y022900D01*
X049680Y022900D02*
X049680Y023460D01*
X050680Y023460D02*
X050680Y022900D01*
X051680Y022900D02*
X051680Y023460D01*
X052680Y023460D02*
X052680Y022900D01*
X053680Y022900D02*
X053680Y023460D01*
X054680Y023460D02*
X054680Y022900D01*
X057025Y022555D02*
X057585Y022555D01*
X057585Y021555D02*
X057025Y021555D01*
X057025Y020555D02*
X057585Y020555D01*
X057585Y019555D02*
X057025Y019555D01*
X057025Y018555D02*
X057585Y018555D01*
X057585Y017555D02*
X057025Y017555D01*
X060025Y017555D02*
X060585Y017555D01*
X060585Y018555D02*
X060025Y018555D01*
X060025Y019555D02*
X060585Y019555D01*
X060585Y020555D02*
X060025Y020555D01*
X060025Y021555D02*
X060585Y021555D01*
X060585Y022555D02*
X060025Y022555D01*
X060025Y023555D02*
X060585Y023555D01*
X060585Y024555D02*
X060025Y024555D01*
X057585Y024555D02*
X057025Y024555D01*
X057025Y023555D02*
X057585Y023555D01*
X054680Y025400D02*
X054680Y025960D01*
X053680Y025960D02*
X053680Y025400D01*
X052680Y025400D02*
X052680Y025960D01*
X051680Y025960D02*
X051680Y025400D01*
X050680Y025400D02*
X050680Y025960D01*
X049680Y025960D02*
X049680Y025400D01*
X048680Y025400D02*
X048680Y025960D01*
X047680Y025960D02*
X047680Y025400D01*
X046680Y025400D02*
X046680Y025960D01*
X045680Y025960D02*
X045680Y025400D01*
X042555Y025400D02*
X042555Y025960D01*
X041555Y025960D02*
X041555Y025400D01*
X040555Y025400D02*
X040555Y025960D01*
X039555Y025960D02*
X039555Y025400D01*
X038555Y025400D02*
X038555Y025960D01*
X037555Y025960D02*
X037555Y025400D01*
X036555Y025400D02*
X036555Y025960D01*
X035555Y025960D02*
X035555Y025400D01*
X034555Y025400D02*
X034555Y025960D01*
X033555Y025960D02*
X033555Y025400D01*
X030430Y025400D02*
X030430Y025960D01*
X029430Y025960D02*
X029430Y025400D01*
X028430Y025400D02*
X028430Y025960D01*
X027430Y025960D02*
X027430Y025400D01*
X026430Y025400D02*
X026430Y025960D01*
X025430Y025960D02*
X025430Y025400D01*
X024430Y025400D02*
X024430Y025960D01*
X023430Y025960D02*
X023430Y025400D01*
X022430Y025400D02*
X022430Y025960D01*
X021430Y025960D02*
X021430Y025400D01*
X018305Y025400D02*
X018305Y025960D01*
X017305Y025960D02*
X017305Y025400D01*
X016305Y025400D02*
X016305Y025960D01*
X015305Y025960D02*
X015305Y025400D01*
X014305Y025400D02*
X014305Y025960D01*
X013305Y025960D02*
X013305Y025400D01*
X012305Y025400D02*
X012305Y025960D01*
X011305Y025960D02*
X011305Y025400D01*
X010305Y025400D02*
X010305Y025960D01*
X009305Y025960D02*
X009305Y025400D01*
X009305Y028400D02*
X009305Y028960D01*
X010305Y028960D02*
X010305Y028400D01*
X011305Y028400D02*
X011305Y028960D01*
X012305Y028960D02*
X012305Y028400D01*
X013305Y028400D02*
X013305Y028960D01*
X014305Y028960D02*
X014305Y028400D01*
X015305Y028400D02*
X015305Y028960D01*
X016305Y028960D02*
X016305Y028400D01*
X017305Y028400D02*
X017305Y028960D01*
X018305Y028960D02*
X018305Y028400D01*
X021430Y028400D02*
X021430Y028960D01*
X022430Y028960D02*
X022430Y028400D01*
X023430Y028400D02*
X023430Y028960D01*
X024430Y028960D02*
X024430Y028400D01*
X025430Y028400D02*
X025430Y028960D01*
X026430Y028960D02*
X026430Y028400D01*
X027430Y028400D02*
X027430Y028960D01*
X028430Y028960D02*
X028430Y028400D01*
X029430Y028400D02*
X029430Y028960D01*
X030430Y028960D02*
X030430Y028400D01*
X033555Y028400D02*
X033555Y028960D01*
X034555Y028960D02*
X034555Y028400D01*
X035555Y028400D02*
X035555Y028960D01*
X036555Y028960D02*
X036555Y028400D01*
X037555Y028400D02*
X037555Y028960D01*
X038555Y028960D02*
X038555Y028400D01*
X039555Y028400D02*
X039555Y028960D01*
X040555Y028960D02*
X040555Y028400D01*
X041555Y028400D02*
X041555Y028960D01*
X042555Y028960D02*
X042555Y028400D01*
X045680Y028400D02*
X045680Y028960D01*
X046680Y028960D02*
X046680Y028400D01*
X047680Y028400D02*
X047680Y028960D01*
X048680Y028960D02*
X048680Y028400D01*
X049680Y028400D02*
X049680Y028960D01*
X050680Y028960D02*
X050680Y028400D01*
X051680Y028400D02*
X051680Y028960D01*
X052680Y028960D02*
X052680Y028400D01*
X053680Y028400D02*
X053680Y028960D01*
X054680Y028960D02*
X054680Y028400D01*
X057025Y028555D02*
X057585Y028555D01*
X057585Y027555D02*
X057025Y027555D01*
X060025Y027555D02*
X060585Y027555D01*
X060585Y028555D02*
X060025Y028555D01*
X060025Y029555D02*
X060585Y029555D01*
X060585Y030555D02*
X060025Y030555D01*
X060025Y031555D02*
X060585Y031555D01*
X060585Y032555D02*
X060025Y032555D01*
X060025Y033555D02*
X060585Y033555D01*
X060585Y034555D02*
X060025Y034555D01*
X057585Y034555D02*
X057025Y034555D01*
X057025Y033555D02*
X057585Y033555D01*
X057585Y032555D02*
X057025Y032555D01*
X057025Y031555D02*
X057585Y031555D01*
X057585Y030555D02*
X057025Y030555D01*
X057025Y029555D02*
X057585Y029555D01*
X054680Y030900D02*
X054680Y031460D01*
X053680Y031460D02*
X053680Y030900D01*
X052680Y030900D02*
X052680Y031460D01*
X051680Y031460D02*
X051680Y030900D01*
X050680Y030900D02*
X050680Y031460D01*
X049680Y031460D02*
X049680Y030900D01*
X048680Y030900D02*
X048680Y031460D01*
X047680Y031460D02*
X047680Y030900D01*
X046680Y030900D02*
X046680Y031460D01*
X045680Y031460D02*
X045680Y030900D01*
X042555Y030900D02*
X042555Y031460D01*
X041555Y031460D02*
X041555Y030900D01*
X040555Y030900D02*
X040555Y031460D01*
X039555Y031460D02*
X039555Y030900D01*
X038555Y030900D02*
X038555Y031460D01*
X037555Y031460D02*
X037555Y030900D01*
X036555Y030900D02*
X036555Y031460D01*
X035555Y031460D02*
X035555Y030900D01*
X034555Y030900D02*
X034555Y031460D01*
X033555Y031460D02*
X033555Y030900D01*
X030430Y030900D02*
X030430Y031460D01*
X029430Y031460D02*
X029430Y030900D01*
X028430Y030900D02*
X028430Y031460D01*
X027430Y031460D02*
X027430Y030900D01*
X026430Y030900D02*
X026430Y031460D01*
X025430Y031460D02*
X025430Y030900D01*
X024430Y030900D02*
X024430Y031460D01*
X023430Y031460D02*
X023430Y030900D01*
X022430Y030900D02*
X022430Y031460D01*
X021430Y031460D02*
X021430Y030900D01*
X018305Y030900D02*
X018305Y031460D01*
X017305Y031460D02*
X017305Y030900D01*
X016305Y030900D02*
X016305Y031460D01*
X015305Y031460D02*
X015305Y030900D01*
X014305Y030900D02*
X014305Y031460D01*
X013305Y031460D02*
X013305Y030900D01*
X012305Y030900D02*
X012305Y031460D01*
X011305Y031460D02*
X011305Y030900D01*
X010305Y030900D02*
X010305Y031460D01*
X009305Y031460D02*
X009305Y030900D01*
X009305Y033900D02*
X009305Y034460D01*
X010305Y034460D02*
X010305Y033900D01*
X011305Y033900D02*
X011305Y034460D01*
X012305Y034460D02*
X012305Y033900D01*
X013305Y033900D02*
X013305Y034460D01*
X014305Y034460D02*
X014305Y033900D01*
X015305Y033900D02*
X015305Y034460D01*
X016305Y034460D02*
X016305Y033900D01*
X017305Y033900D02*
X017305Y034460D01*
X018305Y034460D02*
X018305Y033900D01*
X021430Y033900D02*
X021430Y034460D01*
X022430Y034460D02*
X022430Y033900D01*
X023430Y033900D02*
X023430Y034460D01*
X024430Y034460D02*
X024430Y033900D01*
X025430Y033900D02*
X025430Y034460D01*
X026430Y034460D02*
X026430Y033900D01*
X027430Y033900D02*
X027430Y034460D01*
X028430Y034460D02*
X028430Y033900D01*
X029430Y033900D02*
X029430Y034460D01*
X030430Y034460D02*
X030430Y033900D01*
X033555Y033900D02*
X033555Y034460D01*
X034555Y034460D02*
X034555Y033900D01*
X035555Y033900D02*
X035555Y034460D01*
X036555Y034460D02*
X036555Y033900D01*
X037555Y033900D02*
X037555Y034460D01*
X038555Y034460D02*
X038555Y033900D01*
X039555Y033900D02*
X039555Y034460D01*
X040555Y034460D02*
X040555Y033900D01*
X041555Y033900D02*
X041555Y034460D01*
X042555Y034460D02*
X042555Y033900D01*
X045680Y033900D02*
X045680Y034460D01*
X046680Y034460D02*
X046680Y033900D01*
X047680Y033900D02*
X047680Y034460D01*
X048680Y034460D02*
X048680Y033900D01*
X049680Y033900D02*
X049680Y034460D01*
X050680Y034460D02*
X050680Y033900D01*
X051680Y033900D02*
X051680Y034460D01*
X052680Y034460D02*
X052680Y033900D01*
X053680Y033900D02*
X053680Y034460D01*
X054680Y034460D02*
X054680Y033900D01*
X054680Y020460D02*
X054680Y019900D01*
X053680Y019900D02*
X053680Y020460D01*
X052680Y020460D02*
X052680Y019900D01*
X051680Y019900D02*
X051680Y020460D01*
X050680Y020460D02*
X050680Y019900D01*
X049680Y019900D02*
X049680Y020460D01*
X048680Y020460D02*
X048680Y019900D01*
X047680Y019900D02*
X047680Y020460D01*
X046680Y020460D02*
X046680Y019900D01*
X045680Y019900D02*
X045680Y020460D01*
X042555Y020460D02*
X042555Y019900D01*
X041555Y019900D02*
X041555Y020460D01*
X040555Y020460D02*
X040555Y019900D01*
X039555Y019900D02*
X039555Y020460D01*
X038555Y020460D02*
X038555Y019900D01*
X037555Y019900D02*
X037555Y020460D01*
X036555Y020460D02*
X036555Y019900D01*
X035555Y019900D02*
X035555Y020460D01*
X034555Y020460D02*
X034555Y019900D01*
X033555Y019900D02*
X033555Y020460D01*
X030430Y020460D02*
X030430Y019900D01*
X029430Y019900D02*
X029430Y020460D01*
X028430Y020460D02*
X028430Y019900D01*
X027430Y019900D02*
X027430Y020460D01*
X026430Y020460D02*
X026430Y019900D01*
X025430Y019900D02*
X025430Y020460D01*
X024430Y020460D02*
X024430Y019900D01*
X023430Y019900D02*
X023430Y020460D01*
X022430Y020460D02*
X022430Y019900D01*
X021430Y019900D02*
X021430Y020460D01*
D11*
X020180Y021180D03*
X020180Y023180D03*
X020180Y026680D03*
X020180Y028680D03*
X020180Y032055D03*
X020180Y034055D03*
X008180Y034055D03*
X008180Y032055D03*
X008055Y028680D03*
X006055Y028680D03*
X008055Y023180D03*
X008055Y021180D03*
X008055Y017680D03*
X008055Y015680D03*
X020180Y015680D03*
X020180Y017680D03*
X032305Y017680D03*
X032305Y015680D03*
X032305Y021180D03*
X032305Y023180D03*
X032305Y026680D03*
X032305Y028680D03*
X032305Y032180D03*
X032305Y034180D03*
X044430Y034180D03*
X044430Y032180D03*
X044430Y028680D03*
X044430Y026680D03*
X044430Y023180D03*
X044430Y021180D03*
X044430Y017680D03*
X044430Y015680D03*
X057305Y016180D03*
X059305Y016180D03*
X059305Y026180D03*
X057305Y026180D03*
X019805Y008055D03*
X019805Y006055D03*
D12*
X020180Y003430D03*
X019180Y003430D03*
X019180Y002430D03*
X020180Y002430D03*
X021180Y002430D03*
X021180Y003430D03*
X022180Y003430D03*
X023180Y003430D03*
X023180Y002430D03*
X022180Y002430D03*
X024180Y002430D03*
X025180Y002430D03*
X025180Y003430D03*
X024180Y003430D03*
X026180Y003430D03*
X027180Y003430D03*
X027180Y002430D03*
X026180Y002430D03*
X028180Y002430D03*
X028180Y003430D03*
X029180Y003430D03*
X030180Y003430D03*
X030180Y002430D03*
X029180Y002430D03*
X035180Y002430D03*
X035180Y003430D03*
X036180Y003430D03*
X037180Y003430D03*
X037180Y002430D03*
X036180Y002430D03*
X038180Y002430D03*
X039180Y002430D03*
X039180Y003430D03*
X038180Y003430D03*
X040180Y003430D03*
X041180Y003430D03*
X041180Y002430D03*
X040180Y002430D03*
X042180Y002430D03*
X042180Y003430D03*
X043180Y003430D03*
X044180Y003430D03*
X044180Y002430D03*
X043180Y002430D03*
X045180Y002430D03*
X046180Y002430D03*
X046180Y003430D03*
X045180Y003430D03*
X047180Y003430D03*
X047180Y002430D03*
X048180Y002430D03*
X049180Y002430D03*
X049180Y003430D03*
X048180Y003430D03*
X050180Y003430D03*
X050180Y002430D03*
X055555Y002430D03*
X055555Y003430D03*
X056555Y003430D03*
X056555Y002430D03*
X056555Y006430D03*
X056555Y007430D03*
X055555Y007430D03*
X055555Y006430D03*
X055555Y008430D03*
X055555Y009430D03*
X056555Y009430D03*
X056555Y008430D03*
X056555Y010430D03*
X056555Y011430D03*
X055555Y011430D03*
X055555Y010430D03*
X055555Y012430D03*
X055555Y013430D03*
X056555Y013430D03*
X056555Y012430D03*
X056555Y036430D03*
X055555Y036430D03*
X055555Y037430D03*
X056555Y037430D03*
X004680Y037430D03*
X003680Y037430D03*
X003680Y036430D03*
X004680Y036430D03*
X003055Y033430D03*
X002055Y033430D03*
X002055Y032430D03*
X003055Y032430D03*
X003055Y031430D03*
X002055Y031430D03*
X002055Y030430D03*
X003055Y030430D03*
X003055Y029430D03*
X002055Y029430D03*
X002055Y028430D03*
X003055Y028430D03*
X003055Y027430D03*
X002055Y027430D03*
X002055Y026430D03*
X003055Y026430D03*
X003680Y003430D03*
X003680Y002430D03*
X004680Y002430D03*
X004680Y003430D03*
X007180Y003430D03*
X008180Y003430D03*
X008180Y002430D03*
X007180Y002430D03*
X009180Y002430D03*
X009180Y003430D03*
X010180Y003430D03*
X011180Y003430D03*
X011180Y002430D03*
X010180Y002430D03*
X012180Y002430D03*
X013180Y002430D03*
X013180Y003430D03*
X012180Y003430D03*
X014180Y003430D03*
X015180Y003430D03*
X015180Y002430D03*
X014180Y002430D03*
X016180Y002430D03*
X016180Y003430D03*
X017180Y003430D03*
X018180Y003430D03*
X018180Y002430D03*
X017180Y002430D03*
D13*
X058680Y004430D03*
D14*
X058680Y003430D03*
D15*
X000560Y001713D02*
X000560Y000560D01*
X062792Y000560D01*
X062792Y001447D01*
X062526Y001293D01*
X062216Y001210D01*
X061894Y001210D01*
X061584Y001293D01*
X061306Y001454D01*
X061079Y001681D01*
X060918Y001959D01*
X060835Y002269D01*
X060835Y002591D01*
X060918Y002901D01*
X061079Y003179D01*
X061306Y003406D01*
X061584Y003567D01*
X061894Y003650D01*
X062216Y003650D01*
X062526Y003567D01*
X062792Y003413D01*
X062792Y036447D01*
X062526Y036293D01*
X062216Y036210D01*
X061894Y036210D01*
X061584Y036293D01*
X061306Y036454D01*
X061079Y036681D01*
X060918Y036959D01*
X060835Y037269D01*
X057195Y037269D01*
X057195Y037165D02*
X057195Y037410D01*
X056575Y037410D01*
X056575Y037450D01*
X057195Y037450D01*
X057195Y037695D01*
X056820Y038070D01*
X056575Y038070D01*
X056575Y037450D01*
X056535Y037450D01*
X056535Y038070D01*
X056290Y038070D01*
X056055Y037835D01*
X055820Y038070D01*
X055575Y038070D01*
X055575Y037450D01*
X055535Y037450D01*
X055535Y038070D01*
X055290Y038070D01*
X054915Y037695D01*
X054915Y037450D01*
X055535Y037450D01*
X055535Y037410D01*
X054915Y037410D01*
X054915Y037165D01*
X055150Y036930D01*
X054915Y036695D01*
X054915Y036450D01*
X055535Y036450D01*
X055535Y037410D01*
X055575Y037410D01*
X055575Y037450D01*
X056535Y037450D01*
X056535Y037410D01*
X055915Y037410D01*
X055575Y037410D01*
X055575Y036790D01*
X055575Y036450D01*
X055535Y036450D01*
X055535Y036410D01*
X055575Y036410D01*
X055575Y036450D01*
X056535Y036450D01*
X056535Y037410D01*
X056575Y037410D01*
X056575Y036790D01*
X056575Y036450D01*
X057195Y036450D01*
X057195Y036695D01*
X056960Y036930D01*
X057195Y037165D01*
X057141Y037111D02*
X060878Y037111D01*
X060835Y037269D02*
X060835Y037591D01*
X060918Y037901D01*
X061079Y038179D01*
X061306Y038406D01*
X061584Y038567D01*
X061894Y038650D01*
X062216Y038650D01*
X062526Y038567D01*
X062792Y038413D01*
X062792Y039170D01*
X000560Y039170D01*
X000560Y038147D01*
X000579Y038179D01*
X000806Y038406D01*
X001084Y038567D01*
X001394Y038650D01*
X001716Y038650D01*
X002026Y038567D01*
X002304Y038406D01*
X002531Y038179D01*
X002692Y037901D01*
X002775Y037591D01*
X002775Y037269D01*
X003040Y037269D01*
X003040Y037165D02*
X003275Y036930D01*
X003040Y036695D01*
X003040Y036165D01*
X003415Y035790D01*
X003945Y035790D01*
X004105Y035950D01*
X004255Y035950D01*
X004415Y035790D01*
X004766Y035790D01*
X006700Y033856D01*
X006700Y018460D01*
X006773Y018283D01*
X006908Y018148D01*
X007455Y017601D01*
X007455Y017431D01*
X007806Y017080D01*
X008155Y017080D01*
X008155Y016280D01*
X008055Y016280D01*
X008055Y015680D01*
X008055Y015680D01*
X008055Y015080D01*
X008155Y015080D01*
X008155Y012225D01*
X008216Y012078D01*
X009280Y011014D01*
X009280Y004070D01*
X008915Y004070D01*
X008680Y003835D01*
X008445Y004070D01*
X007915Y004070D01*
X007680Y003835D01*
X007445Y004070D01*
X006915Y004070D01*
X006540Y003695D01*
X006540Y003165D01*
X006775Y002930D01*
X006540Y002695D01*
X006540Y002165D01*
X006915Y001790D01*
X007004Y001790D01*
X007466Y001328D01*
X007578Y001216D01*
X007725Y001155D01*
X010260Y001155D01*
X010407Y001216D01*
X010981Y001790D01*
X011445Y001790D01*
X011680Y002025D01*
X011915Y001790D01*
X012445Y001790D01*
X012680Y002025D01*
X012915Y001790D01*
X013445Y001790D01*
X013680Y002025D01*
X013915Y001790D01*
X014445Y001790D01*
X014680Y002025D01*
X014915Y001790D01*
X015445Y001790D01*
X015680Y002025D01*
X015915Y001790D01*
X016445Y001790D01*
X016680Y002025D01*
X016915Y001790D01*
X017445Y001790D01*
X017680Y002025D01*
X017915Y001790D01*
X018445Y001790D01*
X018680Y002025D01*
X018915Y001790D01*
X019445Y001790D01*
X019680Y002025D01*
X019915Y001790D01*
X020445Y001790D01*
X020680Y002025D01*
X020915Y001790D01*
X021445Y001790D01*
X021680Y002025D01*
X021915Y001790D01*
X022445Y001790D01*
X022680Y002025D01*
X022915Y001790D01*
X023445Y001790D01*
X023680Y002025D01*
X023915Y001790D01*
X024445Y001790D01*
X024680Y002025D01*
X024915Y001790D01*
X025445Y001790D01*
X025680Y002025D01*
X025915Y001790D01*
X026445Y001790D01*
X026680Y002025D01*
X026915Y001790D01*
X027445Y001790D01*
X027680Y002025D01*
X027915Y001790D01*
X028445Y001790D01*
X028680Y002025D01*
X028915Y001790D01*
X029445Y001790D01*
X029680Y002025D01*
X029915Y001790D01*
X030445Y001790D01*
X030820Y002165D01*
X030820Y002695D01*
X030585Y002930D01*
X030820Y003165D01*
X030820Y003695D01*
X030610Y003905D01*
X034750Y003905D01*
X034540Y003695D01*
X034540Y003165D01*
X034775Y002930D01*
X034540Y002695D01*
X034540Y002165D01*
X034915Y001790D01*
X035445Y001790D01*
X035680Y002025D01*
X035915Y001790D01*
X036445Y001790D01*
X036680Y002025D01*
X036915Y001790D01*
X037445Y001790D01*
X037680Y002025D01*
X037915Y001790D01*
X038445Y001790D01*
X038680Y002025D01*
X038915Y001790D01*
X039445Y001790D01*
X039680Y002025D01*
X039915Y001790D01*
X040445Y001790D01*
X040680Y002025D01*
X040915Y001790D01*
X041004Y001790D01*
X041216Y001578D01*
X041328Y001466D01*
X041475Y001405D01*
X051510Y001405D01*
X051657Y001466D01*
X054721Y004530D01*
X056760Y004530D01*
X056907Y004591D01*
X057782Y005466D01*
X057894Y005578D01*
X057955Y005725D01*
X057955Y014635D01*
X057894Y014782D01*
X057096Y015580D01*
X057226Y015580D01*
X057898Y014908D01*
X058033Y014773D01*
X058210Y014700D01*
X061200Y014700D01*
X061200Y006254D01*
X059315Y004369D01*
X059315Y004430D01*
X059315Y004693D01*
X058943Y005065D01*
X058680Y005065D01*
X058680Y004430D01*
X058680Y004430D01*
X059315Y004430D01*
X058680Y004430D01*
X058680Y004430D01*
X058680Y004430D01*
X058045Y004430D01*
X058045Y004693D01*
X058417Y005065D01*
X058680Y005065D01*
X058680Y004430D01*
X058045Y004430D01*
X058045Y004167D01*
X058282Y003930D01*
X058262Y003910D01*
X056980Y003910D01*
X056820Y004070D01*
X056290Y004070D01*
X056130Y003910D01*
X055980Y003910D01*
X055820Y004070D01*
X055290Y004070D01*
X054915Y003695D01*
X054915Y003165D01*
X055075Y003005D01*
X055075Y002855D01*
X054915Y002695D01*
X054915Y002165D01*
X055290Y001790D01*
X055820Y001790D01*
X056055Y002025D01*
X056290Y001790D01*
X056820Y001790D01*
X057195Y002165D01*
X057195Y002695D01*
X057035Y002855D01*
X057035Y002950D01*
X058262Y002950D01*
X058320Y002892D01*
X058554Y002795D01*
X058806Y002795D01*
X059040Y002892D01*
X059098Y002950D01*
X059150Y002950D01*
X059327Y003023D01*
X059462Y003158D01*
X059462Y003158D01*
X061952Y005648D01*
X062087Y005783D01*
X062160Y005960D01*
X062160Y024977D01*
X062191Y025009D01*
X062240Y025126D01*
X062240Y025734D01*
X062191Y025851D01*
X062160Y025883D01*
X062160Y034775D01*
X062087Y034952D01*
X061462Y035577D01*
X061327Y035712D01*
X061150Y035785D01*
X054004Y035785D01*
X053452Y036337D01*
X051952Y037837D01*
X051775Y037910D01*
X005105Y037910D01*
X004945Y038070D01*
X004415Y038070D01*
X004255Y037910D01*
X004105Y037910D01*
X003945Y038070D01*
X003415Y038070D01*
X003040Y037695D01*
X003040Y037165D01*
X003094Y037111D02*
X002732Y037111D01*
X002692Y036959D02*
X002775Y037269D01*
X002775Y037428D02*
X003040Y037428D01*
X003040Y037586D02*
X002775Y037586D01*
X002734Y037745D02*
X003089Y037745D01*
X003248Y037903D02*
X002691Y037903D01*
X002599Y038062D02*
X003406Y038062D01*
X003954Y038062D02*
X004406Y038062D01*
X004954Y038062D02*
X055281Y038062D01*
X055123Y037903D02*
X051792Y037903D01*
X052044Y037745D02*
X054964Y037745D01*
X054915Y037586D02*
X052203Y037586D01*
X052361Y037428D02*
X055535Y037428D01*
X055575Y037428D02*
X056535Y037428D01*
X056575Y037428D02*
X060835Y037428D01*
X060835Y037586D02*
X057195Y037586D01*
X057146Y037745D02*
X060876Y037745D01*
X060919Y037903D02*
X056987Y037903D01*
X056829Y038062D02*
X061011Y038062D01*
X061120Y038220D02*
X002490Y038220D01*
X002332Y038379D02*
X061278Y038379D01*
X061532Y038537D02*
X002078Y038537D01*
X001032Y038537D02*
X000560Y038537D01*
X000560Y038379D02*
X000778Y038379D01*
X000620Y038220D02*
X000560Y038220D01*
X000560Y038696D02*
X062792Y038696D01*
X062792Y038854D02*
X000560Y038854D01*
X000560Y039013D02*
X062792Y039013D01*
X062792Y038537D02*
X062578Y038537D01*
X060922Y036952D02*
X056982Y036952D01*
X057097Y036794D02*
X061014Y036794D01*
X061125Y036635D02*
X057195Y036635D01*
X057195Y036477D02*
X061283Y036477D01*
X061541Y036318D02*
X057195Y036318D01*
X057195Y036410D02*
X056575Y036410D01*
X056575Y036450D01*
X056535Y036450D01*
X056535Y036410D01*
X056575Y036410D01*
X056575Y035790D01*
X056820Y035790D01*
X057195Y036165D01*
X057195Y036410D01*
X057190Y036160D02*
X062792Y036160D01*
X062792Y036318D02*
X062569Y036318D01*
X062792Y036001D02*
X057031Y036001D01*
X056873Y035843D02*
X062792Y035843D01*
X062792Y035684D02*
X061355Y035684D01*
X061462Y035577D02*
X061462Y035577D01*
X061513Y035526D02*
X062792Y035526D01*
X062792Y035367D02*
X061672Y035367D01*
X061830Y035209D02*
X062792Y035209D01*
X062792Y035050D02*
X061989Y035050D01*
X062112Y034892D02*
X062792Y034892D01*
X062792Y034733D02*
X062160Y034733D01*
X062160Y034575D02*
X062792Y034575D01*
X062792Y034416D02*
X062160Y034416D01*
X062160Y034258D02*
X062792Y034258D01*
X062792Y034099D02*
X062160Y034099D01*
X062160Y033941D02*
X062792Y033941D01*
X062792Y033782D02*
X062160Y033782D01*
X062160Y033624D02*
X062792Y033624D01*
X062792Y033465D02*
X062160Y033465D01*
X062160Y033307D02*
X062792Y033307D01*
X062792Y033148D02*
X062160Y033148D01*
X062160Y032990D02*
X062792Y032990D01*
X062792Y032831D02*
X062160Y032831D01*
X062160Y032673D02*
X062792Y032673D01*
X062792Y032514D02*
X062160Y032514D01*
X062160Y032356D02*
X062792Y032356D01*
X062792Y032197D02*
X062160Y032197D01*
X062160Y032039D02*
X062792Y032039D01*
X062792Y031880D02*
X062160Y031880D01*
X062160Y031722D02*
X062792Y031722D01*
X062792Y031563D02*
X062160Y031563D01*
X062160Y031405D02*
X062792Y031405D01*
X062792Y031246D02*
X062160Y031246D01*
X062160Y031088D02*
X062792Y031088D01*
X062792Y030929D02*
X062160Y030929D01*
X062160Y030771D02*
X062792Y030771D01*
X062792Y030612D02*
X062160Y030612D01*
X062160Y030454D02*
X062792Y030454D01*
X062792Y030295D02*
X062160Y030295D01*
X062160Y030137D02*
X062792Y030137D01*
X062792Y029978D02*
X062160Y029978D01*
X062160Y029820D02*
X062792Y029820D01*
X062792Y029661D02*
X062160Y029661D01*
X062160Y029503D02*
X062792Y029503D01*
X062792Y029344D02*
X062160Y029344D01*
X062160Y029186D02*
X062792Y029186D01*
X062792Y029027D02*
X062160Y029027D01*
X062160Y028869D02*
X062792Y028869D01*
X062792Y028710D02*
X062160Y028710D01*
X062160Y028552D02*
X062792Y028552D01*
X062792Y028393D02*
X062160Y028393D01*
X062160Y028235D02*
X062792Y028235D01*
X062792Y028076D02*
X062160Y028076D01*
X062160Y027918D02*
X062792Y027918D01*
X062792Y027759D02*
X062160Y027759D01*
X062160Y027601D02*
X062792Y027601D01*
X062792Y027442D02*
X062160Y027442D01*
X062160Y027284D02*
X062792Y027284D01*
X062792Y027125D02*
X062160Y027125D01*
X062160Y026967D02*
X062792Y026967D01*
X062792Y026808D02*
X062160Y026808D01*
X062160Y026650D02*
X062792Y026650D01*
X062792Y026491D02*
X062160Y026491D01*
X062160Y026333D02*
X062792Y026333D01*
X062792Y026174D02*
X062160Y026174D01*
X062160Y026016D02*
X062792Y026016D01*
X062792Y025857D02*
X062186Y025857D01*
X062240Y025699D02*
X062792Y025699D01*
X062792Y025540D02*
X062240Y025540D01*
X062240Y025382D02*
X062792Y025382D01*
X062792Y025223D02*
X062240Y025223D01*
X062214Y025065D02*
X062792Y025065D01*
X062792Y024906D02*
X062160Y024906D01*
X062160Y024748D02*
X062792Y024748D01*
X062792Y024589D02*
X062160Y024589D01*
X062160Y024431D02*
X062792Y024431D01*
X062792Y024272D02*
X062160Y024272D01*
X062160Y024114D02*
X062792Y024114D01*
X062792Y023955D02*
X062160Y023955D01*
X062160Y023797D02*
X062792Y023797D01*
X062792Y023638D02*
X062160Y023638D01*
X062160Y023480D02*
X062792Y023480D01*
X062792Y023321D02*
X062160Y023321D01*
X062160Y023163D02*
X062792Y023163D01*
X062792Y023004D02*
X062160Y023004D01*
X062160Y022846D02*
X062792Y022846D01*
X062792Y022687D02*
X062160Y022687D01*
X062160Y022529D02*
X062792Y022529D01*
X062792Y022370D02*
X062160Y022370D01*
X062160Y022212D02*
X062792Y022212D01*
X062792Y022053D02*
X062160Y022053D01*
X062160Y021895D02*
X062792Y021895D01*
X062792Y021736D02*
X062160Y021736D01*
X062160Y021578D02*
X062792Y021578D01*
X062792Y021419D02*
X062160Y021419D01*
X062160Y021261D02*
X062792Y021261D01*
X062792Y021102D02*
X062160Y021102D01*
X062160Y020944D02*
X062792Y020944D01*
X062792Y020785D02*
X062160Y020785D01*
X062160Y020627D02*
X062792Y020627D01*
X062792Y020468D02*
X062160Y020468D01*
X062160Y020310D02*
X062792Y020310D01*
X062792Y020151D02*
X062160Y020151D01*
X062160Y019993D02*
X062792Y019993D01*
X062792Y019834D02*
X062160Y019834D01*
X062160Y019676D02*
X062792Y019676D01*
X062792Y019517D02*
X062160Y019517D01*
X062160Y019359D02*
X062792Y019359D01*
X062792Y019200D02*
X062160Y019200D01*
X062160Y019042D02*
X062792Y019042D01*
X062792Y018883D02*
X062160Y018883D01*
X062160Y018725D02*
X062792Y018725D01*
X062792Y018566D02*
X062160Y018566D01*
X062160Y018408D02*
X062792Y018408D01*
X062792Y018249D02*
X062160Y018249D01*
X062160Y018091D02*
X062792Y018091D01*
X062792Y017932D02*
X062160Y017932D01*
X062160Y017774D02*
X062792Y017774D01*
X062792Y017615D02*
X062160Y017615D01*
X062160Y017457D02*
X062792Y017457D01*
X062792Y017298D02*
X062160Y017298D01*
X062160Y017140D02*
X062792Y017140D01*
X062792Y016981D02*
X062160Y016981D01*
X062160Y016823D02*
X062792Y016823D01*
X062792Y016664D02*
X062160Y016664D01*
X062160Y016506D02*
X062792Y016506D01*
X062792Y016347D02*
X062160Y016347D01*
X062160Y016189D02*
X062792Y016189D01*
X062792Y016030D02*
X062160Y016030D01*
X062160Y015872D02*
X062792Y015872D01*
X062792Y015713D02*
X062160Y015713D01*
X062160Y015555D02*
X062792Y015555D01*
X062792Y015396D02*
X062160Y015396D01*
X062160Y015238D02*
X062792Y015238D01*
X062792Y015079D02*
X062160Y015079D01*
X062160Y014921D02*
X062792Y014921D01*
X062792Y014762D02*
X062160Y014762D01*
X062160Y014604D02*
X062792Y014604D01*
X062792Y014445D02*
X062160Y014445D01*
X062160Y014287D02*
X062792Y014287D01*
X062792Y014128D02*
X062160Y014128D01*
X062160Y013970D02*
X062792Y013970D01*
X062792Y013811D02*
X062160Y013811D01*
X062160Y013653D02*
X062792Y013653D01*
X062792Y013494D02*
X062160Y013494D01*
X062160Y013336D02*
X062792Y013336D01*
X062792Y013177D02*
X062160Y013177D01*
X062160Y013019D02*
X062792Y013019D01*
X062792Y012860D02*
X062160Y012860D01*
X062160Y012702D02*
X062792Y012702D01*
X062792Y012543D02*
X062160Y012543D01*
X062160Y012385D02*
X062792Y012385D01*
X062792Y012226D02*
X062160Y012226D01*
X062160Y012068D02*
X062792Y012068D01*
X062792Y011909D02*
X062160Y011909D01*
X062160Y011751D02*
X062792Y011751D01*
X062792Y011592D02*
X062160Y011592D01*
X062160Y011434D02*
X062792Y011434D01*
X062792Y011275D02*
X062160Y011275D01*
X062160Y011117D02*
X062792Y011117D01*
X062792Y010958D02*
X062160Y010958D01*
X062160Y010800D02*
X062792Y010800D01*
X062792Y010641D02*
X062160Y010641D01*
X062160Y010483D02*
X062792Y010483D01*
X062792Y010324D02*
X062160Y010324D01*
X062160Y010166D02*
X062792Y010166D01*
X062792Y010007D02*
X062160Y010007D01*
X062160Y009849D02*
X062792Y009849D01*
X062792Y009690D02*
X062160Y009690D01*
X062160Y009532D02*
X062792Y009532D01*
X062792Y009373D02*
X062160Y009373D01*
X062160Y009215D02*
X062792Y009215D01*
X062792Y009056D02*
X062160Y009056D01*
X062160Y008898D02*
X062792Y008898D01*
X062792Y008739D02*
X062160Y008739D01*
X062160Y008581D02*
X062792Y008581D01*
X062792Y008422D02*
X062160Y008422D01*
X062160Y008264D02*
X062792Y008264D01*
X062792Y008105D02*
X062160Y008105D01*
X062160Y007947D02*
X062792Y007947D01*
X062792Y007788D02*
X062160Y007788D01*
X062160Y007630D02*
X062792Y007630D01*
X062792Y007471D02*
X062160Y007471D01*
X062160Y007313D02*
X062792Y007313D01*
X062792Y007154D02*
X062160Y007154D01*
X062160Y006996D02*
X062792Y006996D01*
X062792Y006837D02*
X062160Y006837D01*
X062160Y006679D02*
X062792Y006679D01*
X062792Y006520D02*
X062160Y006520D01*
X062160Y006362D02*
X062792Y006362D01*
X062792Y006203D02*
X062160Y006203D01*
X062160Y006045D02*
X062792Y006045D01*
X062792Y005886D02*
X062130Y005886D01*
X062031Y005728D02*
X062792Y005728D01*
X062792Y005569D02*
X061873Y005569D01*
X061952Y005648D02*
X061952Y005648D01*
X061714Y005411D02*
X062792Y005411D01*
X062792Y005252D02*
X061556Y005252D01*
X061397Y005094D02*
X062792Y005094D01*
X062792Y004935D02*
X061239Y004935D01*
X061080Y004777D02*
X062792Y004777D01*
X062792Y004618D02*
X060922Y004618D01*
X060763Y004460D02*
X062792Y004460D01*
X062792Y004301D02*
X060605Y004301D01*
X060446Y004143D02*
X062792Y004143D01*
X062792Y003984D02*
X060288Y003984D01*
X060129Y003826D02*
X062792Y003826D01*
X062792Y003667D02*
X059971Y003667D01*
X059812Y003509D02*
X061483Y003509D01*
X061250Y003350D02*
X059654Y003350D01*
X059495Y003192D02*
X061091Y003192D01*
X060994Y003033D02*
X059337Y003033D01*
X058998Y002875D02*
X060911Y002875D01*
X060869Y002716D02*
X057174Y002716D01*
X057195Y002558D02*
X060835Y002558D01*
X060835Y002399D02*
X057195Y002399D01*
X057195Y002241D02*
X060843Y002241D01*
X060885Y002082D02*
X057112Y002082D01*
X056954Y001924D02*
X060939Y001924D01*
X061030Y001765D02*
X051956Y001765D01*
X052114Y001924D02*
X055156Y001924D01*
X054998Y002082D02*
X052273Y002082D01*
X052431Y002241D02*
X054915Y002241D01*
X054915Y002399D02*
X052590Y002399D01*
X052748Y002558D02*
X054915Y002558D01*
X054936Y002716D02*
X052907Y002716D01*
X053065Y002875D02*
X055075Y002875D01*
X055047Y003033D02*
X053224Y003033D01*
X053382Y003192D02*
X054915Y003192D01*
X054915Y003350D02*
X053541Y003350D01*
X053699Y003509D02*
X054915Y003509D01*
X054915Y003667D02*
X053858Y003667D01*
X054016Y003826D02*
X055045Y003826D01*
X055204Y003984D02*
X054175Y003984D01*
X054333Y004143D02*
X058069Y004143D01*
X058045Y004301D02*
X054492Y004301D01*
X054650Y004460D02*
X058045Y004460D01*
X058045Y004618D02*
X056934Y004618D01*
X057092Y004777D02*
X058128Y004777D01*
X058287Y004935D02*
X057251Y004935D01*
X057409Y005094D02*
X060040Y005094D01*
X060198Y005252D02*
X057568Y005252D01*
X057726Y005411D02*
X060357Y005411D01*
X060515Y005569D02*
X057885Y005569D01*
X057955Y005728D02*
X060674Y005728D01*
X060832Y005886D02*
X057955Y005886D01*
X057955Y006045D02*
X060991Y006045D01*
X061149Y006203D02*
X057955Y006203D01*
X057955Y006362D02*
X061200Y006362D01*
X061200Y006520D02*
X057955Y006520D01*
X057955Y006679D02*
X061200Y006679D01*
X061200Y006837D02*
X057955Y006837D01*
X057955Y006996D02*
X061200Y006996D01*
X061200Y007154D02*
X057955Y007154D01*
X057955Y007313D02*
X061200Y007313D01*
X061200Y007471D02*
X057955Y007471D01*
X057955Y007630D02*
X061200Y007630D01*
X061200Y007788D02*
X057955Y007788D01*
X057955Y007947D02*
X061200Y007947D01*
X061200Y008105D02*
X057955Y008105D01*
X057955Y008264D02*
X061200Y008264D01*
X061200Y008422D02*
X057955Y008422D01*
X057955Y008581D02*
X061200Y008581D01*
X061200Y008739D02*
X057955Y008739D01*
X057955Y008898D02*
X061200Y008898D01*
X061200Y009056D02*
X057955Y009056D01*
X057955Y009215D02*
X061200Y009215D01*
X061200Y009373D02*
X057955Y009373D01*
X057955Y009532D02*
X061200Y009532D01*
X061200Y009690D02*
X057955Y009690D01*
X057955Y009849D02*
X061200Y009849D01*
X061200Y010007D02*
X057955Y010007D01*
X057955Y010166D02*
X061200Y010166D01*
X061200Y010324D02*
X057955Y010324D01*
X057955Y010483D02*
X061200Y010483D01*
X061200Y010641D02*
X057955Y010641D01*
X057955Y010800D02*
X061200Y010800D01*
X061200Y010958D02*
X057955Y010958D01*
X057955Y011117D02*
X061200Y011117D01*
X061200Y011275D02*
X057955Y011275D01*
X057955Y011434D02*
X061200Y011434D01*
X061200Y011592D02*
X057955Y011592D01*
X057955Y011751D02*
X061200Y011751D01*
X061200Y011909D02*
X057955Y011909D01*
X057955Y012068D02*
X061200Y012068D01*
X061200Y012226D02*
X057955Y012226D01*
X057955Y012385D02*
X061200Y012385D01*
X061200Y012543D02*
X057955Y012543D01*
X057955Y012702D02*
X061200Y012702D01*
X061200Y012860D02*
X057955Y012860D01*
X057955Y013019D02*
X061200Y013019D01*
X061200Y013177D02*
X057955Y013177D01*
X057955Y013336D02*
X061200Y013336D01*
X061200Y013494D02*
X057955Y013494D01*
X057955Y013653D02*
X061200Y013653D01*
X061200Y013811D02*
X057955Y013811D01*
X057955Y013970D02*
X061200Y013970D01*
X061200Y014128D02*
X057955Y014128D01*
X057955Y014287D02*
X061200Y014287D01*
X061200Y014445D02*
X057955Y014445D01*
X057955Y014604D02*
X061200Y014604D01*
X061200Y015660D02*
X059634Y015660D01*
X059905Y015931D01*
X059905Y016180D01*
X059905Y016429D01*
X059554Y016780D01*
X059305Y016780D01*
X059305Y016180D01*
X059305Y016180D01*
X059905Y016180D01*
X059305Y016180D01*
X059305Y016180D01*
X059305Y016180D01*
X058705Y016180D01*
X058705Y016429D01*
X059056Y016780D01*
X059305Y016780D01*
X059305Y016180D01*
X058705Y016180D01*
X058705Y015931D01*
X058976Y015660D01*
X058504Y015660D01*
X057905Y016259D01*
X057905Y016429D01*
X057785Y016549D01*
X057785Y016988D01*
X057925Y017046D01*
X058094Y017215D01*
X058185Y017436D01*
X058185Y017674D01*
X058094Y017895D01*
X057927Y018062D01*
X057976Y018097D01*
X058043Y018164D01*
X058098Y018241D01*
X058141Y018325D01*
X058170Y018414D01*
X058185Y018508D01*
X058185Y018555D01*
X058185Y018602D01*
X058170Y018695D01*
X058141Y018785D01*
X058098Y018869D01*
X058043Y018946D01*
X057976Y019013D01*
X057927Y019048D01*
X058094Y019215D01*
X058138Y019322D01*
X058144Y019328D01*
X058144Y019328D01*
X058519Y019703D01*
X058580Y019850D01*
X058580Y022760D01*
X058519Y022907D01*
X058407Y023019D01*
X058407Y023019D01*
X058144Y023282D01*
X058128Y023298D01*
X058138Y023322D01*
X058407Y023591D01*
X058519Y023703D01*
X058580Y023850D01*
X058580Y024885D01*
X058519Y025032D01*
X057762Y025789D01*
X057905Y025931D01*
X057905Y026429D01*
X057785Y026549D01*
X057785Y026988D01*
X057925Y027046D01*
X058094Y027215D01*
X058138Y027322D01*
X058144Y027328D01*
X058519Y027703D01*
X058580Y027850D01*
X058580Y029260D01*
X058519Y029407D01*
X058407Y029519D01*
X058371Y029555D01*
X058519Y029703D01*
X058580Y029850D01*
X058580Y031155D01*
X059576Y031155D01*
X059676Y031055D01*
X059516Y030895D01*
X059425Y030674D01*
X059425Y030436D01*
X059516Y030215D01*
X059676Y030055D01*
X059516Y029895D01*
X059472Y029788D01*
X059203Y029519D01*
X059091Y029407D01*
X059030Y029260D01*
X059030Y026975D01*
X059091Y026828D01*
X059139Y026780D01*
X059056Y026780D01*
X058705Y026429D01*
X058705Y026180D01*
X059305Y026180D01*
X059305Y026180D01*
X058705Y026180D01*
X058705Y025931D01*
X059056Y025580D01*
X059139Y025580D01*
X058828Y025269D01*
X058716Y025157D01*
X058655Y025010D01*
X058655Y019225D01*
X058716Y019078D01*
X059466Y018328D01*
X059472Y018322D01*
X059516Y018215D01*
X059676Y018055D01*
X059516Y017895D01*
X059425Y017674D01*
X059425Y017436D01*
X059516Y017215D01*
X059685Y017046D01*
X059906Y016955D01*
X060704Y016955D01*
X060925Y017046D01*
X061050Y017172D01*
X061157Y017216D01*
X061200Y017259D01*
X061200Y015660D01*
X061200Y015713D02*
X059687Y015713D01*
X059845Y015872D02*
X061200Y015872D01*
X061200Y016030D02*
X059905Y016030D01*
X059905Y016189D02*
X061200Y016189D01*
X061200Y016347D02*
X059905Y016347D01*
X059828Y016506D02*
X061200Y016506D01*
X061200Y016664D02*
X059670Y016664D01*
X059843Y016981D02*
X057785Y016981D01*
X057785Y016823D02*
X061200Y016823D01*
X061200Y016981D02*
X060767Y016981D01*
X061018Y017140D02*
X061200Y017140D01*
X060930Y017555D02*
X060305Y017555D01*
X060930Y017555D02*
X061180Y017805D01*
X061180Y018805D01*
X060930Y019055D01*
X059805Y019055D01*
X059430Y019430D01*
X059430Y024805D01*
X060305Y025680D01*
X060305Y027555D01*
X059430Y027055D02*
X059930Y026555D01*
X059930Y025805D01*
X059055Y024930D01*
X059055Y019305D01*
X059805Y018555D01*
X060305Y018555D01*
X059641Y018091D02*
X057966Y018091D01*
X058056Y017932D02*
X059554Y017932D01*
X059466Y017774D02*
X058144Y017774D01*
X058185Y017615D02*
X059425Y017615D01*
X059425Y017457D02*
X058185Y017457D01*
X058128Y017298D02*
X059482Y017298D01*
X059592Y017140D02*
X058018Y017140D01*
X057305Y017555D02*
X056805Y017555D01*
X056430Y017930D01*
X056430Y020180D01*
X056805Y020555D01*
X057305Y020555D01*
X058180Y019930D02*
X057805Y019555D01*
X057305Y019555D01*
X058079Y019200D02*
X058666Y019200D01*
X058655Y019359D02*
X058174Y019359D01*
X058333Y019517D02*
X058655Y019517D01*
X058655Y019676D02*
X058491Y019676D01*
X058573Y019834D02*
X058655Y019834D01*
X058655Y019993D02*
X058580Y019993D01*
X058580Y020151D02*
X058655Y020151D01*
X058655Y020310D02*
X058580Y020310D01*
X058580Y020468D02*
X058655Y020468D01*
X058655Y020627D02*
X058580Y020627D01*
X058580Y020785D02*
X058655Y020785D01*
X058655Y020944D02*
X058580Y020944D01*
X058580Y021102D02*
X058655Y021102D01*
X058655Y021261D02*
X058580Y021261D01*
X058580Y021419D02*
X058655Y021419D01*
X058655Y021578D02*
X058580Y021578D01*
X058580Y021736D02*
X058655Y021736D01*
X058655Y021895D02*
X058580Y021895D01*
X058580Y022053D02*
X058655Y022053D01*
X058655Y022212D02*
X058580Y022212D01*
X058580Y022370D02*
X058655Y022370D01*
X058655Y022529D02*
X058580Y022529D01*
X058580Y022687D02*
X058655Y022687D01*
X058655Y022846D02*
X058544Y022846D01*
X058655Y023004D02*
X058422Y023004D01*
X058263Y023163D02*
X058655Y023163D01*
X058655Y023321D02*
X058138Y023321D01*
X058144Y023282D02*
X058144Y023282D01*
X058295Y023480D02*
X058655Y023480D01*
X058655Y023638D02*
X058454Y023638D01*
X058558Y023797D02*
X058655Y023797D01*
X058655Y023955D02*
X058580Y023955D01*
X058580Y024114D02*
X058655Y024114D01*
X058655Y024272D02*
X058580Y024272D01*
X058580Y024431D02*
X058655Y024431D01*
X058655Y024589D02*
X058580Y024589D01*
X058580Y024748D02*
X058655Y024748D01*
X058655Y024906D02*
X058571Y024906D01*
X058486Y025065D02*
X058678Y025065D01*
X058782Y025223D02*
X058328Y025223D01*
X058169Y025382D02*
X058941Y025382D01*
X059099Y025540D02*
X058011Y025540D01*
X057852Y025699D02*
X058938Y025699D01*
X058779Y025857D02*
X057831Y025857D01*
X057905Y026016D02*
X058705Y026016D01*
X058705Y026174D02*
X057905Y026174D01*
X057905Y026333D02*
X058705Y026333D01*
X058768Y026491D02*
X057842Y026491D01*
X057785Y026650D02*
X058926Y026650D01*
X059111Y026808D02*
X057785Y026808D01*
X057785Y026967D02*
X059034Y026967D01*
X059030Y027125D02*
X058004Y027125D01*
X058122Y027284D02*
X059030Y027284D01*
X059030Y027442D02*
X058258Y027442D01*
X058416Y027601D02*
X059030Y027601D01*
X059030Y027759D02*
X058542Y027759D01*
X058580Y027918D02*
X059030Y027918D01*
X059030Y028076D02*
X058580Y028076D01*
X058580Y028235D02*
X059030Y028235D01*
X059030Y028393D02*
X058580Y028393D01*
X058580Y028552D02*
X059030Y028552D01*
X059030Y028710D02*
X058580Y028710D01*
X058580Y028869D02*
X059030Y028869D01*
X059030Y029027D02*
X058580Y029027D01*
X058580Y029186D02*
X059030Y029186D01*
X059065Y029344D02*
X058545Y029344D01*
X058423Y029503D02*
X059187Y029503D01*
X059345Y029661D02*
X058477Y029661D01*
X058567Y029820D02*
X059485Y029820D01*
X059600Y029978D02*
X058580Y029978D01*
X058580Y030137D02*
X059595Y030137D01*
X059483Y030295D02*
X058580Y030295D01*
X058580Y030454D02*
X059425Y030454D01*
X059425Y030612D02*
X058580Y030612D01*
X058580Y030771D02*
X059465Y030771D01*
X059551Y030929D02*
X058580Y030929D01*
X058580Y031088D02*
X059644Y031088D01*
X060305Y031555D02*
X058180Y031555D01*
X058180Y029930D01*
X057805Y029555D01*
X058180Y029180D01*
X058180Y027930D01*
X057805Y027555D01*
X057305Y027555D01*
X055555Y027055D02*
X055555Y033680D01*
X056430Y034555D01*
X057305Y034555D01*
X057934Y034055D02*
X058094Y034215D01*
X058185Y034436D01*
X058185Y034674D01*
X058123Y034825D01*
X059489Y034825D01*
X059469Y034785D01*
X059440Y034695D01*
X059425Y034602D01*
X059425Y034555D01*
X060305Y034555D01*
X060305Y034555D01*
X059425Y034555D01*
X059425Y034508D01*
X059440Y034414D01*
X059469Y034325D01*
X059512Y034241D01*
X059567Y034164D01*
X059634Y034097D01*
X059683Y034062D01*
X059516Y033895D01*
X059425Y033674D01*
X059425Y033436D01*
X059516Y033215D01*
X059676Y033055D01*
X059516Y032895D01*
X059425Y032674D01*
X059425Y032436D01*
X059516Y032215D01*
X059676Y032055D01*
X059576Y031955D01*
X058580Y031955D01*
X058580Y032260D01*
X058519Y032407D01*
X058407Y032519D01*
X058138Y032788D01*
X058094Y032895D01*
X057934Y033055D01*
X058094Y033215D01*
X058185Y033436D01*
X058185Y033674D01*
X058094Y033895D01*
X057934Y034055D01*
X057978Y034099D02*
X059632Y034099D01*
X059562Y033941D02*
X058048Y033941D01*
X058140Y033782D02*
X059470Y033782D01*
X059425Y033624D02*
X058185Y033624D01*
X058185Y033465D02*
X059425Y033465D01*
X059478Y033307D02*
X058132Y033307D01*
X058027Y033148D02*
X059583Y033148D01*
X059611Y032990D02*
X057999Y032990D01*
X058120Y032831D02*
X059490Y032831D01*
X059425Y032673D02*
X058253Y032673D01*
X058412Y032514D02*
X059425Y032514D01*
X059458Y032356D02*
X058540Y032356D01*
X058580Y032197D02*
X059534Y032197D01*
X059660Y032039D02*
X058580Y032039D01*
X058180Y032180D02*
X058180Y031555D01*
X058180Y032180D02*
X057805Y032555D01*
X057305Y032555D01*
X056805Y033555D02*
X056055Y032805D01*
X056055Y023305D01*
X056805Y022555D01*
X057305Y022555D01*
X056680Y022555D01*
X056055Y021930D01*
X056055Y016055D01*
X057555Y014555D01*
X057555Y005805D01*
X056680Y004930D01*
X054555Y004930D01*
X051430Y001805D01*
X041555Y001805D01*
X041180Y002180D01*
X041180Y002430D01*
X040781Y001924D02*
X040579Y001924D01*
X041029Y001765D02*
X010956Y001765D01*
X010797Y001607D02*
X041188Y001607D01*
X041372Y001448D02*
X010639Y001448D01*
X010480Y001290D02*
X061598Y001290D01*
X061316Y001448D02*
X051613Y001448D01*
X051797Y001607D02*
X061153Y001607D01*
X062512Y001290D02*
X062792Y001290D01*
X062792Y001131D02*
X000560Y001131D01*
X000560Y000973D02*
X062792Y000973D01*
X062792Y000814D02*
X000560Y000814D01*
X000560Y000656D02*
X062792Y000656D01*
X062792Y003509D02*
X062627Y003509D01*
X059881Y004935D02*
X059073Y004935D01*
X059232Y004777D02*
X059723Y004777D01*
X059564Y004618D02*
X059315Y004618D01*
X059315Y004460D02*
X059406Y004460D01*
X058680Y004460D02*
X058680Y004460D01*
X058680Y004618D02*
X058680Y004618D01*
X058680Y004777D02*
X058680Y004777D01*
X058680Y004935D02*
X058680Y004935D01*
X058228Y003984D02*
X056906Y003984D01*
X056204Y003984D02*
X055906Y003984D01*
X057035Y002875D02*
X058362Y002875D01*
X056156Y001924D02*
X055954Y001924D01*
X050180Y003430D02*
X050180Y003930D01*
X049430Y004680D01*
X049430Y009930D01*
X052180Y012680D01*
X052180Y029430D01*
X051680Y029930D01*
X051680Y031180D01*
X050680Y031180D02*
X050680Y032180D01*
X051180Y032680D01*
X051180Y036430D01*
X050180Y036430D02*
X050180Y032680D01*
X049680Y032180D01*
X049680Y031180D01*
X049680Y029930D01*
X050180Y029430D01*
X050180Y027180D01*
X049680Y026680D01*
X049680Y025680D01*
X049680Y024430D01*
X050180Y023930D01*
X050180Y021680D01*
X049680Y021180D01*
X049680Y020180D01*
X049680Y018930D01*
X050180Y018430D01*
X050180Y016180D01*
X049680Y015680D01*
X049680Y014680D01*
X050680Y014680D02*
X050680Y015680D01*
X051180Y016180D01*
X051180Y018430D01*
X050680Y018930D01*
X050680Y020180D01*
X050680Y021180D01*
X051180Y021680D01*
X051180Y023930D01*
X050680Y024430D01*
X050680Y025680D01*
X050680Y026680D01*
X051180Y027180D01*
X051180Y029430D01*
X050680Y029930D01*
X050680Y031180D01*
X050180Y032180D02*
X050180Y029930D01*
X050680Y029430D01*
X050680Y028680D01*
X050680Y027180D01*
X050180Y026680D01*
X050180Y024430D01*
X050680Y023930D01*
X050680Y023180D01*
X050680Y021680D01*
X050180Y021180D01*
X050180Y018930D01*
X050680Y018430D01*
X050680Y017680D01*
X049680Y017680D02*
X049680Y018430D01*
X049180Y018930D01*
X049180Y021180D01*
X049680Y021680D01*
X049680Y023180D01*
X049680Y023930D01*
X049180Y024430D01*
X049180Y026680D01*
X049680Y027180D01*
X049680Y028680D01*
X049680Y029430D01*
X049180Y029930D01*
X049180Y032180D01*
X049680Y032680D01*
X049680Y034180D01*
X050680Y034180D02*
X050680Y032680D01*
X050180Y032180D01*
X051180Y032180D02*
X051180Y029930D01*
X051680Y029430D01*
X051680Y028680D01*
X051680Y027180D01*
X051180Y026680D01*
X051180Y024430D01*
X051680Y023930D01*
X051680Y023180D01*
X051680Y021680D01*
X051180Y021180D01*
X051180Y018930D01*
X051680Y018430D01*
X051680Y017680D01*
X052680Y017680D02*
X052680Y018430D01*
X053180Y018930D01*
X053180Y021180D01*
X052680Y021680D01*
X052680Y023180D01*
X052680Y023930D01*
X053180Y024430D01*
X053180Y026680D01*
X052680Y027180D01*
X052680Y028680D01*
X052680Y029430D01*
X052180Y029930D01*
X052180Y032180D01*
X052680Y032680D01*
X052680Y034180D01*
X053680Y034180D02*
X053680Y034180D01*
X053680Y033300D01*
X053727Y033300D01*
X053820Y033315D01*
X053910Y033344D01*
X053994Y033387D01*
X054071Y033442D01*
X054138Y033509D01*
X054173Y033558D01*
X054340Y033391D01*
X054561Y033300D01*
X054799Y033300D01*
X055020Y033391D01*
X055155Y033526D01*
X055155Y031827D01*
X055138Y031851D01*
X055071Y031918D01*
X054994Y031973D01*
X054910Y032016D01*
X054820Y032045D01*
X054727Y032060D01*
X054680Y032060D01*
X054680Y031180D01*
X054680Y031180D01*
X054680Y030300D01*
X054727Y030300D01*
X054820Y030315D01*
X054910Y030344D01*
X054994Y030387D01*
X055071Y030442D01*
X055138Y030509D01*
X055155Y030533D01*
X055155Y029334D01*
X055020Y029469D01*
X054799Y029560D01*
X054561Y029560D01*
X054340Y029469D01*
X054173Y029302D01*
X054138Y029351D01*
X054071Y029418D01*
X053994Y029473D01*
X053910Y029516D01*
X053820Y029545D01*
X053727Y029560D01*
X053680Y029560D01*
X053680Y028680D01*
X053680Y028680D01*
X053680Y027800D01*
X053727Y027800D01*
X053820Y027815D01*
X053910Y027844D01*
X053994Y027887D01*
X054071Y027942D01*
X054138Y028009D01*
X054173Y028058D01*
X054340Y027891D01*
X054561Y027800D01*
X054799Y027800D01*
X055020Y027891D01*
X055155Y028026D01*
X055155Y027447D01*
X055080Y027372D01*
X054995Y027166D01*
X054995Y026944D01*
X055080Y026738D01*
X055238Y026580D01*
X055444Y026495D01*
X055655Y026495D01*
X055655Y026115D01*
X055444Y026115D01*
X055274Y026045D01*
X055265Y026100D01*
X055236Y026190D01*
X055193Y026274D01*
X055138Y026351D01*
X055071Y026418D01*
X054994Y026473D01*
X054910Y026516D01*
X054820Y026545D01*
X054727Y026560D01*
X054680Y026560D01*
X054680Y025680D01*
X054680Y025680D01*
X054680Y026560D01*
X054633Y026560D01*
X054539Y026545D01*
X054450Y026516D01*
X054366Y026473D01*
X054289Y026418D01*
X054222Y026351D01*
X054187Y026302D01*
X054080Y026409D01*
X054080Y026760D01*
X054019Y026907D01*
X053907Y027019D01*
X053580Y027346D01*
X053580Y027808D01*
X053633Y027800D01*
X053680Y027800D01*
X053680Y028680D01*
X053680Y028680D01*
X053680Y029560D01*
X053633Y029560D01*
X053564Y029549D01*
X053519Y029657D01*
X053080Y030096D01*
X053080Y030451D01*
X053180Y030551D01*
X053340Y030391D01*
X053561Y030300D01*
X053799Y030300D01*
X054020Y030391D01*
X054187Y030558D01*
X054222Y030509D01*
X054289Y030442D01*
X054366Y030387D01*
X054450Y030344D01*
X054539Y030315D01*
X054633Y030300D01*
X054680Y030300D01*
X054680Y031180D01*
X054680Y031180D01*
X054680Y032060D01*
X054633Y032060D01*
X054539Y032045D01*
X054450Y032016D01*
X054366Y031973D01*
X054289Y031918D01*
X054222Y031851D01*
X054187Y031802D01*
X054020Y031969D01*
X053799Y032060D01*
X053561Y032060D01*
X053340Y031969D01*
X053180Y031809D01*
X053080Y031909D01*
X053080Y032014D01*
X053519Y032453D01*
X053580Y032600D01*
X053580Y033308D01*
X053633Y033300D01*
X053680Y033300D01*
X053680Y034180D01*
X053680Y034099D02*
X053680Y034099D01*
X053680Y033941D02*
X053680Y033941D01*
X053680Y033782D02*
X053680Y033782D01*
X053680Y033624D02*
X053680Y033624D01*
X053680Y033465D02*
X053680Y033465D01*
X053680Y033307D02*
X053680Y033307D01*
X053591Y033307D02*
X053580Y033307D01*
X053580Y033148D02*
X055155Y033148D01*
X055155Y032990D02*
X053580Y032990D01*
X053580Y032831D02*
X055155Y032831D01*
X055155Y032673D02*
X053580Y032673D01*
X053544Y032514D02*
X055155Y032514D01*
X055155Y032356D02*
X053421Y032356D01*
X053263Y032197D02*
X055155Y032197D01*
X055155Y032039D02*
X054841Y032039D01*
X054680Y032039D02*
X054680Y032039D01*
X054680Y031880D02*
X054680Y031880D01*
X054680Y031722D02*
X054680Y031722D01*
X054680Y031563D02*
X054680Y031563D01*
X054680Y031405D02*
X054680Y031405D01*
X054680Y031246D02*
X054680Y031246D01*
X054680Y031088D02*
X054680Y031088D01*
X054680Y030929D02*
X054680Y030929D01*
X054680Y030771D02*
X054680Y030771D01*
X054680Y030612D02*
X054680Y030612D01*
X054680Y030454D02*
X054680Y030454D01*
X055082Y030454D02*
X055155Y030454D01*
X055155Y030295D02*
X053080Y030295D01*
X053080Y030137D02*
X055155Y030137D01*
X055155Y029978D02*
X053198Y029978D01*
X053356Y029820D02*
X055155Y029820D01*
X055155Y029661D02*
X053515Y029661D01*
X053680Y029503D02*
X053680Y029503D01*
X053680Y029344D02*
X053680Y029344D01*
X053680Y029186D02*
X053680Y029186D01*
X053680Y029027D02*
X053680Y029027D01*
X053680Y028869D02*
X053680Y028869D01*
X053680Y028710D02*
X053680Y028710D01*
X053680Y028552D02*
X053680Y028552D01*
X053680Y028393D02*
X053680Y028393D01*
X053680Y028235D02*
X053680Y028235D01*
X053680Y028076D02*
X053680Y028076D01*
X053680Y027918D02*
X053680Y027918D01*
X053580Y027759D02*
X055155Y027759D01*
X055155Y027601D02*
X053580Y027601D01*
X053580Y027442D02*
X055150Y027442D01*
X055044Y027284D02*
X053642Y027284D01*
X053801Y027125D02*
X054995Y027125D01*
X054995Y026967D02*
X053959Y026967D01*
X054060Y026808D02*
X055051Y026808D01*
X055168Y026650D02*
X054080Y026650D01*
X054080Y026491D02*
X054401Y026491D01*
X054209Y026333D02*
X054156Y026333D01*
X054680Y026333D02*
X054680Y026333D01*
X054680Y026491D02*
X054680Y026491D01*
X054959Y026491D02*
X055655Y026491D01*
X055655Y026333D02*
X055151Y026333D01*
X055241Y026174D02*
X055655Y026174D01*
X055555Y025555D02*
X055555Y024055D01*
X054680Y023180D01*
X055280Y023163D02*
X055681Y023163D01*
X055655Y023225D02*
X055716Y023078D01*
X056177Y022618D01*
X055716Y022157D01*
X055655Y022010D01*
X055655Y015975D01*
X055716Y015828D01*
X055828Y015716D01*
X057155Y014389D01*
X057155Y013735D01*
X056820Y014070D01*
X056290Y014070D01*
X056055Y013835D01*
X055820Y014070D01*
X055290Y014070D01*
X054915Y013695D01*
X054915Y013165D01*
X055150Y012930D01*
X054915Y012695D01*
X054915Y012165D01*
X055150Y011930D01*
X054915Y011695D01*
X054915Y011330D01*
X054596Y011330D01*
X053830Y012096D01*
X053830Y012538D01*
X053905Y012613D01*
X053990Y012819D01*
X053990Y013041D01*
X053905Y013247D01*
X053747Y013405D01*
X053541Y013490D01*
X053319Y013490D01*
X053113Y013405D01*
X052955Y013247D01*
X052870Y013041D01*
X052870Y012990D01*
X052694Y012990D01*
X052580Y012943D01*
X052580Y013800D01*
X052799Y013800D01*
X053020Y013891D01*
X053180Y014051D01*
X053340Y013891D01*
X053561Y013800D01*
X053799Y013800D01*
X054020Y013891D01*
X054187Y014058D01*
X054222Y014009D01*
X054289Y013942D01*
X054366Y013887D01*
X054450Y013844D01*
X054539Y013815D01*
X054633Y013800D01*
X054680Y013800D01*
X054727Y013800D01*
X054820Y013815D01*
X054910Y013844D01*
X054994Y013887D01*
X055071Y013942D01*
X055138Y014009D01*
X055193Y014086D01*
X055236Y014170D01*
X055265Y014259D01*
X055280Y014353D01*
X055280Y014680D01*
X055280Y015007D01*
X055265Y015100D01*
X055236Y015190D01*
X055193Y015274D01*
X055138Y015351D01*
X055071Y015418D01*
X054994Y015473D01*
X054910Y015516D01*
X054820Y015545D01*
X054727Y015560D01*
X054680Y015560D01*
X054680Y014680D01*
X054680Y014680D01*
X055280Y014680D01*
X054680Y014680D01*
X054680Y014680D01*
X054680Y015560D01*
X054633Y015560D01*
X054539Y015545D01*
X054450Y015516D01*
X054366Y015473D01*
X054289Y015418D01*
X054222Y015351D01*
X054187Y015302D01*
X054020Y015469D01*
X053799Y015560D01*
X053561Y015560D01*
X053340Y015469D01*
X053180Y015309D01*
X053080Y015409D01*
X053080Y015514D01*
X053519Y015953D01*
X053580Y016100D01*
X053580Y016808D01*
X053633Y016800D01*
X053680Y016800D01*
X053727Y016800D01*
X053820Y016815D01*
X053910Y016844D01*
X053994Y016887D01*
X054071Y016942D01*
X054138Y017009D01*
X054173Y017058D01*
X054340Y016891D01*
X054561Y016800D01*
X054799Y016800D01*
X055020Y016891D01*
X055189Y017060D01*
X055280Y017281D01*
X055280Y018079D01*
X055189Y018300D01*
X055020Y018469D01*
X054799Y018560D01*
X054561Y018560D01*
X054340Y018469D01*
X054173Y018302D01*
X054138Y018351D01*
X054071Y018418D01*
X053994Y018473D01*
X053910Y018516D01*
X053851Y018535D01*
X053907Y018591D01*
X054019Y018703D01*
X054080Y018850D01*
X054080Y019451D01*
X054187Y019558D01*
X054222Y019509D01*
X054289Y019442D01*
X054366Y019387D01*
X054450Y019344D01*
X054539Y019315D01*
X054633Y019300D01*
X054680Y019300D01*
X054727Y019300D01*
X054820Y019315D01*
X054910Y019344D01*
X054994Y019387D01*
X055071Y019442D01*
X055138Y019509D01*
X055193Y019586D01*
X055236Y019670D01*
X055265Y019759D01*
X055280Y019853D01*
X055280Y020180D01*
X055280Y020507D01*
X055265Y020600D01*
X055236Y020690D01*
X055193Y020774D01*
X055138Y020851D01*
X055071Y020918D01*
X054994Y020973D01*
X054910Y021016D01*
X054820Y021045D01*
X054727Y021060D01*
X054680Y021060D01*
X054680Y020180D01*
X054680Y020180D01*
X055280Y020180D01*
X054680Y020180D01*
X054680Y020180D01*
X054680Y021060D01*
X054633Y021060D01*
X054539Y021045D01*
X054450Y021016D01*
X054366Y020973D01*
X054289Y020918D01*
X054222Y020851D01*
X054187Y020802D01*
X054080Y020909D01*
X054080Y021260D01*
X054019Y021407D01*
X053907Y021519D01*
X053907Y021519D01*
X053580Y021846D01*
X053580Y022308D01*
X053633Y022300D01*
X053680Y022300D01*
X053727Y022300D01*
X053820Y022315D01*
X053910Y022344D01*
X053994Y022387D01*
X054071Y022442D01*
X054138Y022509D01*
X054173Y022558D01*
X054340Y022391D01*
X054561Y022300D01*
X054799Y022300D01*
X055020Y022391D01*
X055189Y022560D01*
X055280Y022781D01*
X055280Y023214D01*
X055655Y023589D01*
X055655Y023225D01*
X055655Y023321D02*
X055387Y023321D01*
X055545Y023480D02*
X055655Y023480D01*
X055048Y024114D02*
X053929Y024114D01*
X053907Y024091D02*
X054019Y024203D01*
X054080Y024350D01*
X054080Y024951D01*
X054187Y025058D01*
X054222Y025009D01*
X054289Y024942D01*
X054366Y024887D01*
X054450Y024844D01*
X054539Y024815D01*
X054633Y024800D01*
X054680Y024800D01*
X054727Y024800D01*
X054820Y024815D01*
X054910Y024844D01*
X054994Y024887D01*
X055071Y024942D01*
X055138Y025009D01*
X055155Y025033D01*
X055155Y024221D01*
X054937Y024003D01*
X054799Y024060D01*
X054561Y024060D01*
X054340Y023969D01*
X054173Y023802D01*
X054138Y023851D01*
X054071Y023918D01*
X053994Y023973D01*
X053910Y024016D01*
X053851Y024035D01*
X053907Y024091D01*
X053907Y024091D01*
X054019Y023955D02*
X054327Y023955D01*
X054048Y024272D02*
X055155Y024272D01*
X055155Y024431D02*
X054080Y024431D01*
X054080Y024589D02*
X055155Y024589D01*
X055155Y024748D02*
X054080Y024748D01*
X054080Y024906D02*
X054339Y024906D01*
X054680Y024906D02*
X054680Y024906D01*
X054680Y024800D02*
X054680Y025680D01*
X054680Y025680D01*
X054680Y024800D01*
X054680Y025065D02*
X054680Y025065D01*
X054680Y025223D02*
X054680Y025223D01*
X054680Y025382D02*
X054680Y025382D01*
X054680Y025540D02*
X054680Y025540D01*
X054680Y025699D02*
X054680Y025699D01*
X054680Y025857D02*
X054680Y025857D01*
X054680Y026016D02*
X054680Y026016D01*
X054680Y026174D02*
X054680Y026174D01*
X053680Y025680D02*
X053680Y026680D01*
X053180Y027180D01*
X053180Y029430D01*
X052680Y029930D01*
X052680Y031180D01*
X052680Y032180D01*
X053180Y032680D01*
X053180Y035930D01*
X053471Y036318D02*
X054915Y036318D01*
X054915Y036410D02*
X054915Y036165D01*
X055290Y035790D01*
X055535Y035790D01*
X055535Y036410D01*
X054915Y036410D01*
X054915Y036477D02*
X053312Y036477D01*
X053154Y036635D02*
X054915Y036635D01*
X055013Y036794D02*
X052995Y036794D01*
X052837Y036952D02*
X055128Y036952D01*
X054969Y037111D02*
X052678Y037111D01*
X052520Y037269D02*
X054915Y037269D01*
X055535Y037269D02*
X055575Y037269D01*
X055575Y037111D02*
X055535Y037111D01*
X055535Y036952D02*
X055575Y036952D01*
X055575Y036794D02*
X055535Y036794D01*
X055535Y036635D02*
X055575Y036635D01*
X055575Y036477D02*
X055535Y036477D01*
X055575Y036410D02*
X055915Y036410D01*
X056535Y036410D01*
X056535Y035790D01*
X056290Y035790D01*
X056055Y036025D01*
X055820Y035790D01*
X055575Y035790D01*
X055575Y036410D01*
X055575Y036318D02*
X055535Y036318D01*
X055535Y036160D02*
X055575Y036160D01*
X055575Y036001D02*
X055535Y036001D01*
X055535Y035843D02*
X055575Y035843D01*
X055873Y035843D02*
X056237Y035843D01*
X056079Y036001D02*
X056031Y036001D01*
X056535Y036001D02*
X056575Y036001D01*
X056575Y035843D02*
X056535Y035843D01*
X056535Y036160D02*
X056575Y036160D01*
X056575Y036318D02*
X056535Y036318D01*
X056535Y036477D02*
X056575Y036477D01*
X056575Y036635D02*
X056535Y036635D01*
X056535Y036794D02*
X056575Y036794D01*
X056575Y036952D02*
X056535Y036952D01*
X056535Y037111D02*
X056575Y037111D01*
X056575Y037269D02*
X056535Y037269D01*
X056535Y037586D02*
X056575Y037586D01*
X056575Y037745D02*
X056535Y037745D01*
X056535Y037903D02*
X056575Y037903D01*
X056575Y038062D02*
X056535Y038062D01*
X056281Y038062D02*
X055829Y038062D01*
X055987Y037903D02*
X056123Y037903D01*
X055575Y037903D02*
X055535Y037903D01*
X055535Y037745D02*
X055575Y037745D01*
X055575Y037586D02*
X055535Y037586D01*
X055535Y038062D02*
X055575Y038062D01*
X054920Y036160D02*
X053629Y036160D01*
X053788Y036001D02*
X055079Y036001D01*
X055237Y035843D02*
X053946Y035843D01*
X051680Y034180D02*
X051680Y032680D01*
X051180Y032180D01*
X053104Y032039D02*
X053509Y032039D01*
X053252Y031880D02*
X053108Y031880D01*
X053851Y032039D02*
X054519Y032039D01*
X054252Y031880D02*
X054108Y031880D01*
X055108Y031880D02*
X055155Y031880D01*
X055155Y033307D02*
X054815Y033307D01*
X054545Y033307D02*
X053769Y033307D01*
X054094Y033465D02*
X054266Y033465D01*
X055094Y033465D02*
X055155Y033465D01*
X056805Y033555D02*
X057305Y033555D01*
X058111Y034258D02*
X059503Y034258D01*
X059440Y034416D02*
X058177Y034416D01*
X058185Y034575D02*
X059425Y034575D01*
X059452Y034733D02*
X058161Y034733D01*
X060305Y032555D02*
X060805Y032555D01*
X061180Y032180D01*
X061180Y021930D01*
X060805Y021555D01*
X060305Y021555D01*
X058180Y022680D02*
X058180Y019930D01*
X057936Y019042D02*
X058753Y019042D01*
X058911Y018883D02*
X058088Y018883D01*
X058161Y018725D02*
X059070Y018725D01*
X059228Y018566D02*
X058185Y018566D01*
X058185Y018555D02*
X057305Y018555D01*
X057305Y018555D01*
X058185Y018555D01*
X058168Y018408D02*
X059387Y018408D01*
X059502Y018249D02*
X058102Y018249D01*
X057785Y016664D02*
X058940Y016664D01*
X058782Y016506D02*
X057828Y016506D01*
X057905Y016347D02*
X058705Y016347D01*
X058705Y016189D02*
X057975Y016189D01*
X058134Y016030D02*
X058705Y016030D01*
X058765Y015872D02*
X058292Y015872D01*
X058451Y015713D02*
X058923Y015713D01*
X059305Y016189D02*
X059305Y016189D01*
X059305Y016347D02*
X059305Y016347D01*
X059305Y016506D02*
X059305Y016506D01*
X059305Y016664D02*
X059305Y016664D01*
X057569Y015238D02*
X057438Y015238D01*
X057410Y015396D02*
X057280Y015396D01*
X057252Y015555D02*
X057121Y015555D01*
X057597Y015079D02*
X057727Y015079D01*
X057755Y014921D02*
X057886Y014921D01*
X057902Y014762D02*
X058060Y014762D01*
X057099Y014445D02*
X055280Y014445D01*
X055280Y014604D02*
X056941Y014604D01*
X056782Y014762D02*
X055280Y014762D01*
X055280Y014921D02*
X056624Y014921D01*
X056465Y015079D02*
X055269Y015079D01*
X055212Y015238D02*
X056307Y015238D01*
X056148Y015396D02*
X055093Y015396D01*
X054762Y015555D02*
X055990Y015555D01*
X055831Y015713D02*
X053279Y015713D01*
X053437Y015872D02*
X055698Y015872D01*
X055655Y016030D02*
X053551Y016030D01*
X053580Y016189D02*
X055655Y016189D01*
X055655Y016347D02*
X053580Y016347D01*
X053580Y016506D02*
X055655Y016506D01*
X055655Y016664D02*
X053580Y016664D01*
X053680Y016800D02*
X053680Y017680D01*
X053680Y016800D01*
X053680Y016823D02*
X053680Y016823D01*
X053680Y016981D02*
X053680Y016981D01*
X053680Y017140D02*
X053680Y017140D01*
X053680Y017298D02*
X053680Y017298D01*
X053680Y017457D02*
X053680Y017457D01*
X053680Y017615D02*
X053680Y017615D01*
X053680Y017680D02*
X053680Y017680D01*
X054110Y016981D02*
X054250Y016981D01*
X054506Y016823D02*
X053844Y016823D01*
X053180Y016180D02*
X052680Y015680D01*
X052680Y014680D01*
X053680Y014680D01*
X054098Y013970D02*
X054262Y013970D01*
X054563Y013811D02*
X053826Y013811D01*
X053534Y013811D02*
X052826Y013811D01*
X052580Y013653D02*
X054915Y013653D01*
X054915Y013494D02*
X052580Y013494D01*
X052580Y013336D02*
X053044Y013336D01*
X052926Y013177D02*
X052580Y013177D01*
X052580Y013019D02*
X052870Y013019D01*
X053430Y012930D02*
X053430Y011930D01*
X054430Y010930D01*
X056055Y010930D01*
X056555Y010430D01*
X055555Y010430D02*
X053805Y010430D01*
X052805Y011430D01*
X052805Y012430D01*
X053830Y012385D02*
X054915Y012385D01*
X054915Y012543D02*
X053835Y012543D01*
X053941Y012702D02*
X054921Y012702D01*
X055080Y012860D02*
X053990Y012860D01*
X053990Y013019D02*
X055061Y013019D01*
X054915Y013177D02*
X053934Y013177D01*
X053816Y013336D02*
X054915Y013336D01*
X055031Y013811D02*
X054797Y013811D01*
X054680Y013811D02*
X054680Y013811D01*
X054680Y013800D02*
X054680Y014680D01*
X054680Y013800D01*
X054680Y013970D02*
X054680Y013970D01*
X054680Y014128D02*
X054680Y014128D01*
X054680Y014287D02*
X054680Y014287D01*
X054680Y014445D02*
X054680Y014445D01*
X054680Y014604D02*
X054680Y014604D01*
X054680Y014680D02*
X054680Y014680D01*
X054680Y014762D02*
X054680Y014762D01*
X054680Y014921D02*
X054680Y014921D01*
X054680Y015079D02*
X054680Y015079D01*
X054680Y015238D02*
X054680Y015238D01*
X054680Y015396D02*
X054680Y015396D01*
X054680Y015555D02*
X054680Y015555D01*
X054598Y015555D02*
X053813Y015555D01*
X053547Y015555D02*
X053120Y015555D01*
X053093Y015396D02*
X053267Y015396D01*
X054093Y015396D02*
X054267Y015396D01*
X053180Y016180D02*
X053180Y018430D01*
X053680Y018930D01*
X053680Y020180D01*
X053680Y021180D01*
X053180Y021680D01*
X053180Y023930D01*
X053680Y024430D01*
X053680Y025680D01*
X055021Y024906D02*
X055155Y024906D01*
X057305Y025680D02*
X057305Y026180D01*
X057305Y025680D02*
X058180Y024805D01*
X058180Y023930D01*
X057805Y023555D01*
X057305Y023555D01*
X056805Y023055D02*
X057805Y023055D01*
X058180Y022680D01*
X056805Y023055D02*
X056430Y023430D01*
X056430Y030180D01*
X056805Y030555D01*
X057305Y030555D01*
X057305Y029555D02*
X057805Y029555D01*
X059430Y029180D02*
X059430Y027055D01*
X059430Y029180D02*
X059805Y029555D01*
X060305Y029555D01*
X055155Y029503D02*
X054938Y029503D01*
X055144Y029344D02*
X055155Y029344D01*
X054422Y029503D02*
X053937Y029503D01*
X054143Y029344D02*
X054216Y029344D01*
X054278Y030454D02*
X054082Y030454D01*
X053278Y030454D02*
X053082Y030454D01*
X054037Y027918D02*
X054314Y027918D01*
X055046Y027918D02*
X055155Y027918D01*
X049180Y027180D02*
X048680Y026680D01*
X048680Y025680D01*
X048680Y024430D01*
X049180Y023930D01*
X049180Y021680D01*
X048680Y021180D01*
X048680Y020180D01*
X048680Y018930D01*
X049180Y018430D01*
X049180Y016180D01*
X048680Y015680D01*
X048680Y014680D01*
X047680Y014680D02*
X047680Y015680D01*
X048180Y016180D01*
X048180Y018430D01*
X047680Y018930D01*
X047680Y020180D01*
X047680Y021180D01*
X048180Y021680D01*
X048180Y023930D01*
X047680Y024430D01*
X047680Y025680D01*
X047680Y026680D01*
X048180Y027180D01*
X048180Y029430D01*
X047680Y029930D01*
X047680Y031180D01*
X047680Y032180D01*
X047180Y032680D01*
X047180Y036430D01*
X046780Y036024D02*
X046780Y035060D01*
X046561Y035060D01*
X046340Y034969D01*
X046180Y034809D01*
X046020Y034969D01*
X045799Y035060D01*
X045561Y035060D01*
X045340Y034969D01*
X045171Y034800D01*
X045080Y034579D01*
X045080Y033781D01*
X045171Y033560D01*
X045340Y033391D01*
X045561Y033300D01*
X045799Y033300D01*
X046020Y033391D01*
X046180Y033551D01*
X046340Y033391D01*
X046561Y033300D01*
X046780Y033300D01*
X046780Y032600D01*
X046841Y032453D01*
X046953Y032341D01*
X046953Y032341D01*
X047280Y032014D01*
X047280Y031909D01*
X047180Y031809D01*
X047020Y031969D01*
X046799Y032060D01*
X046561Y032060D01*
X046340Y031969D01*
X046180Y031809D01*
X046020Y031969D01*
X045799Y032060D01*
X045561Y032060D01*
X045340Y031969D01*
X045171Y031800D01*
X045080Y031579D01*
X045080Y030781D01*
X045171Y030560D01*
X045280Y030451D01*
X045280Y029409D01*
X045171Y029300D01*
X045080Y029079D01*
X045080Y028281D01*
X045171Y028060D01*
X045340Y027891D01*
X045561Y027800D01*
X045780Y027800D01*
X045780Y026560D01*
X045561Y026560D01*
X045340Y026469D01*
X045171Y026300D01*
X045080Y026079D01*
X045080Y025281D01*
X045171Y025060D01*
X045340Y024891D01*
X045561Y024800D01*
X045780Y024800D01*
X045780Y024060D01*
X045561Y024060D01*
X045340Y023969D01*
X045171Y023800D01*
X045080Y023579D01*
X045080Y022781D01*
X045171Y022560D01*
X045340Y022391D01*
X045561Y022300D01*
X045780Y022300D01*
X045780Y021060D01*
X045561Y021060D01*
X045340Y020969D01*
X045171Y020800D01*
X045080Y020579D01*
X045080Y019781D01*
X045171Y019560D01*
X045340Y019391D01*
X045561Y019300D01*
X045780Y019300D01*
X045780Y018560D01*
X045561Y018560D01*
X045340Y018469D01*
X045171Y018300D01*
X045080Y018079D01*
X045080Y017281D01*
X045171Y017060D01*
X045280Y016951D01*
X045280Y015409D01*
X045171Y015300D01*
X045080Y015079D01*
X043144Y015079D01*
X043140Y015100D02*
X043155Y015007D01*
X043155Y014680D01*
X042555Y014680D01*
X042555Y014680D01*
X042555Y015560D01*
X042602Y015560D01*
X042695Y015545D01*
X042785Y015516D01*
X042869Y015473D01*
X042946Y015418D01*
X043013Y015351D01*
X043068Y015274D01*
X043111Y015190D01*
X043140Y015100D01*
X043087Y015238D02*
X044024Y015238D01*
X044181Y015080D02*
X043830Y015431D01*
X043830Y015680D01*
X044430Y015680D01*
X044430Y015680D01*
X044430Y016280D01*
X044679Y016280D01*
X045030Y015929D01*
X045030Y015680D01*
X044430Y015680D01*
X044430Y015680D01*
X044430Y015680D01*
X044430Y016280D01*
X044181Y016280D01*
X043830Y015929D01*
X043830Y015680D01*
X044430Y015680D01*
X045030Y015680D01*
X045030Y015431D01*
X044679Y015080D01*
X044430Y015080D01*
X044430Y015680D01*
X044430Y015680D01*
X044430Y015080D01*
X044181Y015080D01*
X044430Y015238D02*
X044430Y015238D01*
X044430Y015396D02*
X044430Y015396D01*
X044430Y015555D02*
X044430Y015555D01*
X044430Y015713D02*
X044430Y015713D01*
X044430Y015872D02*
X044430Y015872D01*
X044430Y016030D02*
X044430Y016030D01*
X044430Y016189D02*
X044430Y016189D01*
X044770Y016189D02*
X045280Y016189D01*
X045280Y016347D02*
X042955Y016347D01*
X042955Y016189D02*
X044090Y016189D01*
X043931Y016030D02*
X042926Y016030D01*
X042955Y016100D02*
X042955Y016951D01*
X043064Y017060D01*
X043155Y017281D01*
X043155Y018079D01*
X043064Y018300D01*
X042895Y018469D01*
X042674Y018560D01*
X042455Y018560D01*
X042455Y019308D01*
X042508Y019300D01*
X042555Y019300D01*
X042602Y019300D01*
X042695Y019315D01*
X042785Y019344D01*
X042869Y019387D01*
X042946Y019442D01*
X043013Y019509D01*
X043068Y019586D01*
X043111Y019670D01*
X043140Y019759D01*
X043155Y019853D01*
X043155Y020180D01*
X043155Y020507D01*
X043140Y020600D01*
X043111Y020690D01*
X043068Y020774D01*
X043013Y020851D01*
X042946Y020918D01*
X042869Y020973D01*
X042785Y021016D01*
X042695Y021045D01*
X042602Y021060D01*
X042555Y021060D01*
X042555Y020180D01*
X042555Y020180D01*
X043155Y020180D01*
X042555Y020180D01*
X042555Y020180D01*
X042555Y021060D01*
X042508Y021060D01*
X042455Y021052D01*
X042455Y022300D01*
X042674Y022300D01*
X042895Y022391D01*
X043064Y022560D01*
X043155Y022781D01*
X043155Y023579D01*
X043064Y023800D01*
X042895Y023969D01*
X042674Y024060D01*
X042455Y024060D01*
X042455Y024808D01*
X042508Y024800D01*
X042555Y024800D01*
X042602Y024800D01*
X042695Y024815D01*
X042785Y024844D01*
X042869Y024887D01*
X042946Y024942D01*
X043013Y025009D01*
X043068Y025086D01*
X043111Y025170D01*
X043140Y025259D01*
X043155Y025353D01*
X043155Y025680D01*
X043155Y026007D01*
X043140Y026100D01*
X043111Y026190D01*
X043068Y026274D01*
X043013Y026351D01*
X042946Y026418D01*
X042869Y026473D01*
X042785Y026516D01*
X042695Y026545D01*
X042602Y026560D01*
X042555Y026560D01*
X042555Y025680D01*
X042555Y025680D01*
X043155Y025680D01*
X042555Y025680D01*
X042555Y025680D01*
X042555Y026560D01*
X042508Y026560D01*
X042455Y026552D01*
X042455Y027800D01*
X042674Y027800D01*
X042895Y027891D01*
X043064Y028060D01*
X043155Y028281D01*
X043155Y029079D01*
X043064Y029300D01*
X042895Y029469D01*
X042674Y029560D01*
X042436Y029560D01*
X042434Y029559D01*
X042394Y029657D01*
X041955Y030096D01*
X041955Y030451D01*
X042062Y030558D01*
X042097Y030509D01*
X042164Y030442D01*
X042241Y030387D01*
X042325Y030344D01*
X042414Y030315D01*
X042508Y030300D01*
X042555Y030300D01*
X042602Y030300D01*
X042695Y030315D01*
X042785Y030344D01*
X042869Y030387D01*
X042946Y030442D01*
X043013Y030509D01*
X043068Y030586D01*
X043111Y030670D01*
X043140Y030759D01*
X043155Y030853D01*
X043155Y031180D01*
X043155Y031507D01*
X043140Y031600D01*
X043111Y031690D01*
X043068Y031774D01*
X043013Y031851D01*
X042946Y031918D01*
X042869Y031973D01*
X042785Y032016D01*
X042695Y032045D01*
X042602Y032060D01*
X042555Y032060D01*
X042555Y031180D01*
X042555Y031180D01*
X043155Y031180D01*
X042555Y031180D01*
X042555Y031180D01*
X042555Y032060D01*
X042508Y032060D01*
X042414Y032045D01*
X042325Y032016D01*
X042241Y031973D01*
X042164Y031918D01*
X042097Y031851D01*
X042062Y031802D01*
X041895Y031969D01*
X041674Y032060D01*
X041436Y032060D01*
X041215Y031969D01*
X041055Y031809D01*
X040955Y031909D01*
X040955Y032014D01*
X041282Y032341D01*
X041394Y032453D01*
X041455Y032600D01*
X041455Y033300D01*
X041674Y033300D01*
X041895Y033391D01*
X042055Y033551D01*
X042215Y033391D01*
X042436Y033300D01*
X042674Y033300D01*
X042895Y033391D01*
X043064Y033560D01*
X043155Y033781D01*
X043155Y034579D01*
X043064Y034800D01*
X042895Y034969D01*
X042674Y035060D01*
X042436Y035060D01*
X042215Y034969D01*
X042055Y034809D01*
X041895Y034969D01*
X041674Y035060D01*
X041455Y035060D01*
X041455Y036950D01*
X043200Y036950D01*
X043200Y018335D01*
X043273Y018158D01*
X043408Y018023D01*
X043830Y017601D01*
X043830Y017431D01*
X044181Y017080D01*
X044679Y017080D01*
X045030Y017431D01*
X045030Y017929D01*
X044679Y018280D01*
X044509Y018280D01*
X044160Y018629D01*
X044160Y020601D01*
X044181Y020580D01*
X044430Y020580D01*
X044679Y020580D01*
X045030Y020931D01*
X045030Y021180D01*
X045030Y021429D01*
X044679Y021780D01*
X044430Y021780D01*
X044430Y021180D01*
X044430Y021180D01*
X045030Y021180D01*
X044430Y021180D01*
X044430Y021180D01*
X044430Y021780D01*
X044181Y021780D01*
X044160Y021759D01*
X044160Y022601D01*
X044181Y022580D01*
X044679Y022580D01*
X045030Y022931D01*
X045030Y023429D01*
X044679Y023780D01*
X044181Y023780D01*
X044160Y023759D01*
X044160Y026101D01*
X044181Y026080D01*
X044430Y026080D01*
X044679Y026080D01*
X045030Y026431D01*
X045030Y026680D01*
X045030Y026929D01*
X044679Y027280D01*
X044430Y027280D01*
X044430Y026680D01*
X044430Y026680D01*
X045030Y026680D01*
X044430Y026680D01*
X044430Y026680D01*
X044430Y027280D01*
X044181Y027280D01*
X044160Y027259D01*
X044160Y028101D01*
X044181Y028080D01*
X044679Y028080D01*
X045030Y028431D01*
X045030Y028929D01*
X044679Y029280D01*
X044181Y029280D01*
X044160Y029259D01*
X044160Y031601D01*
X044181Y031580D01*
X044430Y031580D01*
X044679Y031580D01*
X045030Y031931D01*
X045030Y032180D01*
X045030Y032429D01*
X044679Y032780D01*
X044430Y032780D01*
X044430Y032180D01*
X044430Y032180D01*
X045030Y032180D01*
X044430Y032180D01*
X044430Y032180D01*
X044430Y032780D01*
X044181Y032780D01*
X044160Y032759D01*
X044160Y033601D01*
X044181Y033580D01*
X044679Y033580D01*
X045030Y033931D01*
X045030Y034429D01*
X044679Y034780D01*
X044181Y034780D01*
X044160Y034759D01*
X044160Y036950D01*
X046946Y036950D01*
X046857Y036913D01*
X046697Y036753D01*
X046610Y036543D01*
X046610Y036317D01*
X046697Y036107D01*
X046780Y036024D01*
X046780Y036001D02*
X044160Y036001D01*
X044160Y035843D02*
X046780Y035843D01*
X046780Y035684D02*
X044160Y035684D01*
X044160Y035526D02*
X046780Y035526D01*
X046780Y035367D02*
X044160Y035367D01*
X044160Y035209D02*
X046780Y035209D01*
X046537Y035050D02*
X045823Y035050D01*
X045537Y035050D02*
X044160Y035050D01*
X044160Y034892D02*
X045263Y034892D01*
X045144Y034733D02*
X044725Y034733D01*
X044884Y034575D02*
X045080Y034575D01*
X045080Y034416D02*
X045030Y034416D01*
X045030Y034258D02*
X045080Y034258D01*
X045080Y034099D02*
X045030Y034099D01*
X045030Y033941D02*
X045080Y033941D01*
X045080Y033782D02*
X044881Y033782D01*
X044722Y033624D02*
X045145Y033624D01*
X045266Y033465D02*
X044160Y033465D01*
X044160Y033307D02*
X045545Y033307D01*
X045815Y033307D02*
X046545Y033307D01*
X046780Y033148D02*
X044160Y033148D01*
X044160Y032990D02*
X046780Y032990D01*
X046780Y032831D02*
X044160Y032831D01*
X044430Y032673D02*
X044430Y032673D01*
X044430Y032514D02*
X044430Y032514D01*
X044430Y032356D02*
X044430Y032356D01*
X044430Y032197D02*
X044430Y032197D01*
X044430Y032180D02*
X044430Y031580D01*
X044430Y032180D01*
X044430Y032180D01*
X044430Y032039D02*
X044430Y032039D01*
X044430Y031880D02*
X044430Y031880D01*
X044430Y031722D02*
X044430Y031722D01*
X044160Y031563D02*
X045080Y031563D01*
X045080Y031405D02*
X044160Y031405D01*
X044160Y031246D02*
X045080Y031246D01*
X045080Y031088D02*
X044160Y031088D01*
X044160Y030929D02*
X045080Y030929D01*
X045084Y030771D02*
X044160Y030771D01*
X044160Y030612D02*
X045150Y030612D01*
X045278Y030454D02*
X044160Y030454D01*
X044160Y030295D02*
X045280Y030295D01*
X045280Y030137D02*
X044160Y030137D01*
X044160Y029978D02*
X045280Y029978D01*
X045280Y029820D02*
X044160Y029820D01*
X044160Y029661D02*
X045280Y029661D01*
X045280Y029503D02*
X044160Y029503D01*
X044160Y029344D02*
X045216Y029344D01*
X045124Y029186D02*
X044773Y029186D01*
X044931Y029027D02*
X045080Y029027D01*
X045080Y028869D02*
X045030Y028869D01*
X045030Y028710D02*
X045080Y028710D01*
X045080Y028552D02*
X045030Y028552D01*
X044992Y028393D02*
X045080Y028393D01*
X045099Y028235D02*
X044833Y028235D01*
X045165Y028076D02*
X044160Y028076D01*
X044160Y027918D02*
X045314Y027918D01*
X045780Y027759D02*
X044160Y027759D01*
X044160Y027601D02*
X045780Y027601D01*
X045780Y027442D02*
X044160Y027442D01*
X044160Y027284D02*
X045780Y027284D01*
X045780Y027125D02*
X044833Y027125D01*
X044992Y026967D02*
X045780Y026967D01*
X045780Y026808D02*
X045030Y026808D01*
X045030Y026650D02*
X045780Y026650D01*
X045394Y026491D02*
X045030Y026491D01*
X044931Y026333D02*
X045204Y026333D01*
X045119Y026174D02*
X044773Y026174D01*
X044430Y026174D02*
X044430Y026174D01*
X044430Y026080D02*
X044430Y026680D01*
X044430Y026680D01*
X044430Y026080D01*
X044430Y026333D02*
X044430Y026333D01*
X044430Y026491D02*
X044430Y026491D01*
X044430Y026650D02*
X044430Y026650D01*
X044430Y026808D02*
X044430Y026808D01*
X044430Y026967D02*
X044430Y026967D01*
X044430Y027125D02*
X044430Y027125D01*
X043200Y027125D02*
X042455Y027125D01*
X042455Y026967D02*
X043200Y026967D01*
X043200Y026808D02*
X042455Y026808D01*
X042455Y026650D02*
X043200Y026650D01*
X043200Y026491D02*
X042834Y026491D01*
X043026Y026333D02*
X043200Y026333D01*
X043200Y026174D02*
X043116Y026174D01*
X043154Y026016D02*
X043200Y026016D01*
X043200Y025857D02*
X043155Y025857D01*
X043155Y025699D02*
X043200Y025699D01*
X043200Y025540D02*
X043155Y025540D01*
X043155Y025382D02*
X043200Y025382D01*
X043200Y025223D02*
X043128Y025223D01*
X043200Y025065D02*
X043053Y025065D01*
X043200Y024906D02*
X042896Y024906D01*
X042555Y024906D02*
X042555Y024906D01*
X042555Y024800D02*
X042555Y025680D01*
X042555Y025680D01*
X042555Y024800D01*
X042455Y024748D02*
X043200Y024748D01*
X043200Y024589D02*
X042455Y024589D01*
X042455Y024431D02*
X043200Y024431D01*
X043200Y024272D02*
X042455Y024272D01*
X042455Y024114D02*
X043200Y024114D01*
X043200Y023955D02*
X042908Y023955D01*
X043065Y023797D02*
X043200Y023797D01*
X043200Y023638D02*
X043131Y023638D01*
X043155Y023480D02*
X043200Y023480D01*
X043200Y023321D02*
X043155Y023321D01*
X043155Y023163D02*
X043200Y023163D01*
X043200Y023004D02*
X043155Y023004D01*
X043155Y022846D02*
X043200Y022846D01*
X043200Y022687D02*
X043116Y022687D01*
X043032Y022529D02*
X043200Y022529D01*
X043200Y022370D02*
X042843Y022370D01*
X043200Y022212D02*
X042455Y022212D01*
X042455Y022053D02*
X043200Y022053D01*
X043200Y021895D02*
X042455Y021895D01*
X042455Y021736D02*
X043200Y021736D01*
X043200Y021578D02*
X042455Y021578D01*
X042455Y021419D02*
X043200Y021419D01*
X043200Y021261D02*
X042455Y021261D01*
X042455Y021102D02*
X043200Y021102D01*
X043200Y020944D02*
X042910Y020944D01*
X043060Y020785D02*
X043200Y020785D01*
X043200Y020627D02*
X043132Y020627D01*
X043155Y020468D02*
X043200Y020468D01*
X043200Y020310D02*
X043155Y020310D01*
X043155Y020151D02*
X043200Y020151D01*
X043200Y019993D02*
X043155Y019993D01*
X043152Y019834D02*
X043200Y019834D01*
X043200Y019676D02*
X043113Y019676D01*
X043200Y019517D02*
X043018Y019517D01*
X043200Y019359D02*
X042814Y019359D01*
X042555Y019359D02*
X042555Y019359D01*
X042555Y019300D02*
X042555Y020180D01*
X042555Y019300D01*
X042455Y019200D02*
X043200Y019200D01*
X043200Y019042D02*
X042455Y019042D01*
X042455Y018883D02*
X043200Y018883D01*
X043200Y018725D02*
X042455Y018725D01*
X042455Y018566D02*
X043200Y018566D01*
X043200Y018408D02*
X042956Y018408D01*
X043085Y018249D02*
X043235Y018249D01*
X043150Y018091D02*
X043341Y018091D01*
X043499Y017932D02*
X043155Y017932D01*
X043155Y017774D02*
X043658Y017774D01*
X043816Y017615D02*
X043155Y017615D01*
X043155Y017457D02*
X043830Y017457D01*
X043963Y017298D02*
X043155Y017298D01*
X043097Y017140D02*
X044122Y017140D01*
X044738Y017140D02*
X045138Y017140D01*
X045080Y017298D02*
X044897Y017298D01*
X045030Y017457D02*
X045080Y017457D01*
X045080Y017615D02*
X045030Y017615D01*
X045030Y017774D02*
X045080Y017774D01*
X045080Y017932D02*
X045026Y017932D01*
X045085Y018091D02*
X044868Y018091D01*
X044709Y018249D02*
X045150Y018249D01*
X045279Y018408D02*
X044381Y018408D01*
X044223Y018566D02*
X045780Y018566D01*
X045780Y018725D02*
X044160Y018725D01*
X044160Y018883D02*
X045780Y018883D01*
X045780Y019042D02*
X044160Y019042D01*
X044160Y019200D02*
X045780Y019200D01*
X045419Y019359D02*
X044160Y019359D01*
X044160Y019517D02*
X045214Y019517D01*
X045124Y019676D02*
X044160Y019676D01*
X044160Y019834D02*
X045080Y019834D01*
X045080Y019993D02*
X044160Y019993D01*
X044160Y020151D02*
X045080Y020151D01*
X045080Y020310D02*
X044160Y020310D01*
X044160Y020468D02*
X045080Y020468D01*
X045100Y020627D02*
X044725Y020627D01*
X044884Y020785D02*
X045165Y020785D01*
X045030Y020944D02*
X045315Y020944D01*
X045030Y021102D02*
X045780Y021102D01*
X045780Y021261D02*
X045030Y021261D01*
X045030Y021419D02*
X045780Y021419D01*
X045780Y021578D02*
X044881Y021578D01*
X044722Y021736D02*
X045780Y021736D01*
X045780Y021895D02*
X044160Y021895D01*
X044160Y022053D02*
X045780Y022053D01*
X045780Y022212D02*
X044160Y022212D01*
X044160Y022370D02*
X045392Y022370D01*
X045203Y022529D02*
X044160Y022529D01*
X044786Y022687D02*
X045119Y022687D01*
X045080Y022846D02*
X044944Y022846D01*
X045030Y023004D02*
X045080Y023004D01*
X045080Y023163D02*
X045030Y023163D01*
X045030Y023321D02*
X045080Y023321D01*
X045080Y023480D02*
X044979Y023480D01*
X045104Y023638D02*
X044820Y023638D01*
X045170Y023797D02*
X044160Y023797D01*
X044160Y023955D02*
X045327Y023955D01*
X045780Y024114D02*
X044160Y024114D01*
X044160Y024272D02*
X045780Y024272D01*
X045780Y024431D02*
X044160Y024431D01*
X044160Y024589D02*
X045780Y024589D01*
X045780Y024748D02*
X044160Y024748D01*
X044160Y024906D02*
X045325Y024906D01*
X045170Y025065D02*
X044160Y025065D01*
X044160Y025223D02*
X045104Y025223D01*
X045080Y025382D02*
X044160Y025382D01*
X044160Y025540D02*
X045080Y025540D01*
X045080Y025699D02*
X044160Y025699D01*
X044160Y025857D02*
X045080Y025857D01*
X045080Y026016D02*
X044160Y026016D01*
X042555Y026016D02*
X042555Y026016D01*
X042555Y026174D02*
X042555Y026174D01*
X042555Y026333D02*
X042555Y026333D01*
X042555Y026491D02*
X042555Y026491D01*
X042555Y025857D02*
X042555Y025857D01*
X042555Y025699D02*
X042555Y025699D01*
X042555Y025540D02*
X042555Y025540D01*
X042555Y025382D02*
X042555Y025382D01*
X042555Y025223D02*
X042555Y025223D01*
X042555Y025065D02*
X042555Y025065D01*
X041555Y025680D02*
X040555Y025680D01*
X040555Y024430D01*
X041055Y023930D01*
X041055Y021680D01*
X040555Y021180D01*
X040555Y020180D01*
X041555Y020180D01*
X040555Y020180D02*
X040555Y018930D01*
X041055Y018430D01*
X041055Y016180D01*
X040555Y015680D01*
X040555Y014680D01*
X040455Y013800D02*
X040655Y013800D01*
X040655Y011596D01*
X039466Y010407D01*
X039405Y010260D01*
X039405Y006697D01*
X039330Y006622D01*
X039245Y006416D01*
X039245Y006194D01*
X039330Y005988D01*
X039488Y005830D01*
X039595Y005786D01*
X038514Y004705D01*
X027776Y004705D01*
X027780Y004728D01*
X027780Y005055D01*
X027780Y005382D01*
X027765Y005475D01*
X027736Y005565D01*
X027693Y005649D01*
X027638Y005726D01*
X027571Y005793D01*
X027494Y005848D01*
X027410Y005891D01*
X027320Y005920D01*
X027247Y005932D01*
X030157Y008841D01*
X030269Y008953D01*
X030330Y009100D01*
X030330Y013808D01*
X030383Y013800D01*
X030430Y013800D01*
X030477Y013800D01*
X030570Y013815D01*
X030660Y013844D01*
X030744Y013887D01*
X030821Y013942D01*
X030888Y014009D01*
X030943Y014086D01*
X030986Y014170D01*
X031015Y014259D01*
X031030Y014353D01*
X031030Y014680D01*
X031030Y015007D01*
X031015Y015100D01*
X030986Y015190D01*
X030943Y015274D01*
X030888Y015351D01*
X030821Y015418D01*
X030744Y015473D01*
X030660Y015516D01*
X030570Y015545D01*
X030477Y015560D01*
X030430Y015560D01*
X030430Y014680D01*
X030430Y014680D01*
X031030Y014680D01*
X030430Y014680D01*
X030430Y014680D01*
X030430Y015560D01*
X030383Y015560D01*
X030374Y015559D01*
X030657Y015841D01*
X030769Y015953D01*
X030830Y016100D01*
X030830Y016951D01*
X030939Y017060D01*
X031030Y017281D01*
X031030Y018079D01*
X030939Y018300D01*
X030770Y018469D01*
X030549Y018560D01*
X030311Y018560D01*
X030090Y018469D01*
X029930Y018309D01*
X029770Y018469D01*
X029549Y018560D01*
X029311Y018560D01*
X029309Y018559D01*
X029269Y018657D01*
X028830Y019096D01*
X028830Y019451D01*
X028930Y019551D01*
X029090Y019391D01*
X029311Y019300D01*
X029549Y019300D01*
X029770Y019391D01*
X029937Y019558D01*
X029972Y019509D01*
X030039Y019442D01*
X030116Y019387D01*
X030200Y019344D01*
X030289Y019315D01*
X030383Y019300D01*
X030430Y019300D01*
X030477Y019300D01*
X030570Y019315D01*
X030660Y019344D01*
X030744Y019387D01*
X030821Y019442D01*
X030888Y019509D01*
X030943Y019586D01*
X030986Y019670D01*
X031015Y019759D01*
X031030Y019853D01*
X031030Y020180D01*
X031030Y020507D01*
X031015Y020600D01*
X030986Y020690D01*
X030943Y020774D01*
X030888Y020851D01*
X030821Y020918D01*
X030744Y020973D01*
X030660Y021016D01*
X030570Y021045D01*
X030477Y021060D01*
X030430Y021060D01*
X030430Y020180D01*
X030430Y020180D01*
X031030Y020180D01*
X030430Y020180D01*
X030430Y020180D01*
X030430Y021060D01*
X030383Y021060D01*
X030289Y021045D01*
X030200Y021016D01*
X030116Y020973D01*
X030039Y020918D01*
X029972Y020851D01*
X029937Y020802D01*
X029770Y020969D01*
X029549Y021060D01*
X029311Y021060D01*
X029090Y020969D01*
X028930Y020809D01*
X028830Y020909D01*
X028830Y021014D01*
X029157Y021341D01*
X029269Y021453D01*
X029330Y021600D01*
X029330Y022300D01*
X029549Y022300D01*
X029770Y022391D01*
X029930Y022551D01*
X030090Y022391D01*
X030311Y022300D01*
X030549Y022300D01*
X030770Y022391D01*
X030939Y022560D01*
X031030Y022781D01*
X031030Y023579D01*
X030939Y023800D01*
X030770Y023969D01*
X030549Y024060D01*
X030311Y024060D01*
X030090Y023969D01*
X029930Y023809D01*
X029770Y023969D01*
X029549Y024060D01*
X029311Y024060D01*
X029309Y024059D01*
X029269Y024157D01*
X028830Y024596D01*
X028830Y024951D01*
X028930Y025051D01*
X029090Y024891D01*
X029311Y024800D01*
X029549Y024800D01*
X029770Y024891D01*
X029937Y025058D01*
X029972Y025009D01*
X030039Y024942D01*
X030116Y024887D01*
X030200Y024844D01*
X030289Y024815D01*
X030383Y024800D01*
X030430Y024800D01*
X030477Y024800D01*
X030570Y024815D01*
X030660Y024844D01*
X030744Y024887D01*
X030821Y024942D01*
X030888Y025009D01*
X030943Y025086D01*
X030986Y025170D01*
X031015Y025259D01*
X031030Y025353D01*
X031030Y025680D01*
X031030Y026007D01*
X031015Y026100D01*
X030986Y026190D01*
X030943Y026274D01*
X030888Y026351D01*
X030821Y026418D01*
X030744Y026473D01*
X030660Y026516D01*
X030570Y026545D01*
X030477Y026560D01*
X030430Y026560D01*
X030430Y025680D01*
X030430Y025680D01*
X031030Y025680D01*
X030430Y025680D01*
X030430Y025680D01*
X030430Y026560D01*
X030383Y026560D01*
X030289Y026545D01*
X030200Y026516D01*
X030116Y026473D01*
X030039Y026418D01*
X029972Y026351D01*
X029937Y026302D01*
X029770Y026469D01*
X029549Y026560D01*
X029311Y026560D01*
X029090Y026469D01*
X028930Y026309D01*
X028830Y026409D01*
X028830Y026514D01*
X029157Y026841D01*
X029269Y026953D01*
X029330Y027100D01*
X029330Y027800D01*
X029549Y027800D01*
X029770Y027891D01*
X029930Y028051D01*
X030090Y027891D01*
X030311Y027800D01*
X030549Y027800D01*
X030770Y027891D01*
X030939Y028060D01*
X031030Y028281D01*
X031030Y029079D01*
X030939Y029300D01*
X030770Y029469D01*
X030549Y029560D01*
X030311Y029560D01*
X030090Y029469D01*
X029930Y029309D01*
X029770Y029469D01*
X029549Y029560D01*
X029311Y029560D01*
X029309Y029559D01*
X029269Y029657D01*
X028830Y030096D01*
X028830Y030451D01*
X028930Y030551D01*
X029090Y030391D01*
X029311Y030300D01*
X029549Y030300D01*
X029770Y030391D01*
X029937Y030558D01*
X029972Y030509D01*
X030039Y030442D01*
X030116Y030387D01*
X030200Y030344D01*
X030289Y030315D01*
X030383Y030300D01*
X030430Y030300D01*
X030477Y030300D01*
X030570Y030315D01*
X030660Y030344D01*
X030744Y030387D01*
X030821Y030442D01*
X030888Y030509D01*
X030943Y030586D01*
X030986Y030670D01*
X031015Y030759D01*
X031030Y030853D01*
X031030Y031180D01*
X031030Y031507D01*
X031015Y031600D01*
X030986Y031690D01*
X030943Y031774D01*
X030888Y031851D01*
X030821Y031918D01*
X030744Y031973D01*
X030660Y032016D01*
X030570Y032045D01*
X030477Y032060D01*
X030430Y032060D01*
X030430Y031180D01*
X030430Y031180D01*
X031030Y031180D01*
X030430Y031180D01*
X030430Y031180D01*
X030430Y032060D01*
X030383Y032060D01*
X030289Y032045D01*
X030200Y032016D01*
X030116Y031973D01*
X030039Y031918D01*
X029972Y031851D01*
X029937Y031802D01*
X029770Y031969D01*
X029549Y032060D01*
X029311Y032060D01*
X029090Y031969D01*
X028930Y031809D01*
X028830Y031909D01*
X028830Y032014D01*
X029157Y032341D01*
X029269Y032453D01*
X029330Y032600D01*
X029330Y033300D01*
X029549Y033300D01*
X029770Y033391D01*
X029930Y033551D01*
X030090Y033391D01*
X030311Y033300D01*
X030549Y033300D01*
X030770Y033391D01*
X030939Y033560D01*
X031030Y033781D01*
X031030Y034579D01*
X030939Y034800D01*
X030770Y034969D01*
X030549Y035060D01*
X030311Y035060D01*
X030090Y034969D01*
X029930Y034809D01*
X029770Y034969D01*
X029549Y035060D01*
X029330Y035060D01*
X029330Y036950D01*
X031075Y036950D01*
X031075Y018335D01*
X031148Y018158D01*
X031283Y018023D01*
X031705Y017601D01*
X031705Y017431D01*
X032056Y017080D01*
X032554Y017080D01*
X032905Y017431D01*
X032905Y017929D01*
X032554Y018280D01*
X032384Y018280D01*
X032035Y018629D01*
X032035Y020601D01*
X032056Y020580D01*
X032305Y020580D01*
X032554Y020580D01*
X032905Y020931D01*
X032905Y021180D01*
X032905Y021429D01*
X032554Y021780D01*
X032305Y021780D01*
X032305Y021180D01*
X032305Y021180D01*
X032905Y021180D01*
X032305Y021180D01*
X032305Y021180D01*
X032305Y021780D01*
X032056Y021780D01*
X032035Y021759D01*
X032035Y022601D01*
X032056Y022580D01*
X032554Y022580D01*
X032905Y022931D01*
X032905Y023429D01*
X032554Y023780D01*
X032056Y023780D01*
X032035Y023759D01*
X032035Y026101D01*
X032056Y026080D01*
X032305Y026080D01*
X032554Y026080D01*
X032905Y026431D01*
X032905Y026680D01*
X032905Y026929D01*
X032554Y027280D01*
X032305Y027280D01*
X032305Y026680D01*
X032305Y026680D01*
X032905Y026680D01*
X032305Y026680D01*
X032305Y026680D01*
X032305Y027280D01*
X032056Y027280D01*
X032035Y027259D01*
X032035Y028101D01*
X032056Y028080D01*
X032554Y028080D01*
X032905Y028431D01*
X032905Y028929D01*
X032554Y029280D01*
X032056Y029280D01*
X032035Y029259D01*
X032035Y031601D01*
X032056Y031580D01*
X032305Y031580D01*
X032554Y031580D01*
X032905Y031931D01*
X032905Y032180D01*
X032905Y032429D01*
X032554Y032780D01*
X032305Y032780D01*
X032305Y032180D01*
X032305Y032180D01*
X032905Y032180D01*
X032305Y032180D01*
X032305Y032180D01*
X032305Y032780D01*
X032056Y032780D01*
X032035Y032759D01*
X032035Y033601D01*
X032056Y033580D01*
X032554Y033580D01*
X032905Y033931D01*
X032905Y034429D01*
X032554Y034780D01*
X032056Y034780D01*
X032035Y034759D01*
X032035Y036950D01*
X037821Y036950D01*
X037732Y036913D01*
X037572Y036753D01*
X037485Y036543D01*
X037485Y036317D01*
X037572Y036107D01*
X037655Y036024D01*
X037655Y035060D01*
X037436Y035060D01*
X037215Y034969D01*
X037055Y034809D01*
X036895Y034969D01*
X036674Y035060D01*
X036455Y035060D01*
X036455Y035899D01*
X036538Y035982D01*
X036625Y036192D01*
X036625Y036418D01*
X036538Y036628D01*
X036378Y036788D01*
X036168Y036875D01*
X035942Y036875D01*
X035732Y036788D01*
X035572Y036628D01*
X035485Y036418D01*
X035485Y036192D01*
X035492Y036174D01*
X035378Y036288D01*
X035168Y036375D01*
X034942Y036375D01*
X034732Y036288D01*
X034572Y036128D01*
X034485Y035918D01*
X034485Y035692D01*
X034572Y035482D01*
X034655Y035399D01*
X034655Y035060D01*
X034436Y035060D01*
X034215Y034969D01*
X034055Y034809D01*
X033895Y034969D01*
X033674Y035060D01*
X033436Y035060D01*
X033215Y034969D01*
X033046Y034800D01*
X032955Y034579D01*
X032955Y033781D01*
X033046Y033560D01*
X033215Y033391D01*
X033436Y033300D01*
X033674Y033300D01*
X033895Y033391D01*
X034055Y033551D01*
X034215Y033391D01*
X034436Y033300D01*
X034655Y033300D01*
X034655Y032600D01*
X034716Y032453D01*
X034828Y032341D01*
X035155Y032014D01*
X035155Y031909D01*
X035055Y031809D01*
X034895Y031969D01*
X034674Y032060D01*
X034436Y032060D01*
X034215Y031969D01*
X034055Y031809D01*
X033895Y031969D01*
X033674Y032060D01*
X033436Y032060D01*
X033215Y031969D01*
X033046Y031800D01*
X032955Y031579D01*
X032955Y030781D01*
X033046Y030560D01*
X033155Y030451D01*
X033155Y029409D01*
X033046Y029300D01*
X032955Y029079D01*
X032955Y028281D01*
X033046Y028060D01*
X033215Y027891D01*
X033436Y027800D01*
X033655Y027800D01*
X033655Y026560D01*
X033436Y026560D01*
X033215Y026469D01*
X033046Y026300D01*
X032955Y026079D01*
X032955Y025281D01*
X033046Y025060D01*
X033215Y024891D01*
X033436Y024800D01*
X033655Y024800D01*
X033655Y024060D01*
X033436Y024060D01*
X033215Y023969D01*
X033046Y023800D01*
X032955Y023579D01*
X032955Y022781D01*
X033046Y022560D01*
X033215Y022391D01*
X033436Y022300D01*
X033655Y022300D01*
X033655Y021060D01*
X033436Y021060D01*
X033215Y020969D01*
X033046Y020800D01*
X032955Y020579D01*
X032955Y019781D01*
X033046Y019560D01*
X033215Y019391D01*
X033436Y019300D01*
X033655Y019300D01*
X033655Y018560D01*
X033436Y018560D01*
X033215Y018469D01*
X033046Y018300D01*
X032955Y018079D01*
X032955Y017281D01*
X033046Y017060D01*
X033155Y016951D01*
X033155Y015409D01*
X033046Y015300D01*
X032955Y015079D01*
X031019Y015079D01*
X031030Y014921D02*
X032955Y014921D01*
X032955Y015079D02*
X032955Y014281D01*
X033046Y014060D01*
X033215Y013891D01*
X033436Y013800D01*
X033674Y013800D01*
X033895Y013891D01*
X034055Y014051D01*
X034215Y013891D01*
X034436Y013800D01*
X034674Y013800D01*
X034895Y013891D01*
X035055Y014051D01*
X035215Y013891D01*
X035436Y013800D01*
X035674Y013800D01*
X035895Y013891D01*
X036055Y014051D01*
X036215Y013891D01*
X036436Y013800D01*
X036655Y013800D01*
X036655Y013697D01*
X036580Y013622D01*
X036495Y013416D01*
X036495Y013194D01*
X036580Y012988D01*
X036738Y012830D01*
X036944Y012745D01*
X037166Y012745D01*
X037372Y012830D01*
X037530Y012988D01*
X037555Y013049D01*
X037580Y012988D01*
X037738Y012830D01*
X037944Y012745D01*
X038166Y012745D01*
X038372Y012830D01*
X038530Y012988D01*
X038555Y013049D01*
X038580Y012988D01*
X038738Y012830D01*
X038944Y012745D01*
X039166Y012745D01*
X039372Y012830D01*
X039530Y012988D01*
X039555Y013049D01*
X039580Y012988D01*
X039738Y012830D01*
X039944Y012745D01*
X040166Y012745D01*
X040372Y012830D01*
X040530Y012988D01*
X040615Y013194D01*
X040615Y013416D01*
X040530Y013622D01*
X040455Y013697D01*
X040455Y013800D01*
X040499Y013653D02*
X040655Y013653D01*
X040655Y013494D02*
X040583Y013494D01*
X040615Y013336D02*
X040655Y013336D01*
X040655Y013177D02*
X040608Y013177D01*
X040655Y013019D02*
X040542Y013019D01*
X040655Y012860D02*
X040402Y012860D01*
X040655Y012702D02*
X030330Y012702D01*
X030330Y012860D02*
X036708Y012860D01*
X036568Y013019D02*
X030330Y013019D01*
X030330Y013177D02*
X036502Y013177D01*
X036495Y013336D02*
X030330Y013336D01*
X030330Y013494D02*
X036527Y013494D01*
X036611Y013653D02*
X030330Y013653D01*
X030430Y013800D02*
X030430Y014680D01*
X030430Y013800D01*
X030430Y013811D02*
X030430Y013811D01*
X030547Y013811D02*
X033409Y013811D01*
X033701Y013811D02*
X034409Y013811D01*
X034701Y013811D02*
X035409Y013811D01*
X035701Y013811D02*
X036409Y013811D01*
X036137Y013970D02*
X035973Y013970D01*
X035555Y014680D02*
X035555Y015680D01*
X036055Y016180D01*
X036055Y018430D01*
X035555Y018930D01*
X035555Y020180D01*
X035555Y021180D01*
X036055Y021680D01*
X036055Y023930D01*
X035555Y024430D01*
X035555Y025680D01*
X035555Y026680D01*
X036055Y027180D01*
X036055Y029430D01*
X035555Y029930D01*
X035555Y031180D01*
X035555Y032180D01*
X035055Y032680D01*
X035055Y035805D01*
X034519Y036001D02*
X032035Y036001D01*
X032035Y035843D02*
X034485Y035843D01*
X034488Y035684D02*
X032035Y035684D01*
X032035Y035526D02*
X034554Y035526D01*
X034655Y035367D02*
X032035Y035367D01*
X032035Y035209D02*
X034655Y035209D01*
X034412Y035050D02*
X033698Y035050D01*
X033412Y035050D02*
X032035Y035050D01*
X032035Y034892D02*
X033138Y034892D01*
X033019Y034733D02*
X032600Y034733D01*
X032759Y034575D02*
X032955Y034575D01*
X032955Y034416D02*
X032905Y034416D01*
X032905Y034258D02*
X032955Y034258D01*
X032955Y034099D02*
X032905Y034099D01*
X032905Y033941D02*
X032955Y033941D01*
X032955Y033782D02*
X032756Y033782D01*
X032597Y033624D02*
X033020Y033624D01*
X033141Y033465D02*
X032035Y033465D01*
X032035Y033307D02*
X033420Y033307D01*
X033690Y033307D02*
X034420Y033307D01*
X034655Y033148D02*
X032035Y033148D01*
X032035Y032990D02*
X034655Y032990D01*
X034655Y032831D02*
X032035Y032831D01*
X032305Y032673D02*
X032305Y032673D01*
X032305Y032514D02*
X032305Y032514D01*
X032305Y032356D02*
X032305Y032356D01*
X032305Y032197D02*
X032305Y032197D01*
X032305Y032180D02*
X032305Y031580D01*
X032305Y032180D01*
X032305Y032180D01*
X032305Y032039D02*
X032305Y032039D01*
X032305Y031880D02*
X032305Y031880D01*
X032305Y031722D02*
X032305Y031722D01*
X032035Y031563D02*
X032955Y031563D01*
X032955Y031405D02*
X032035Y031405D01*
X032035Y031246D02*
X032955Y031246D01*
X032955Y031088D02*
X032035Y031088D01*
X032035Y030929D02*
X032955Y030929D01*
X032959Y030771D02*
X032035Y030771D01*
X032035Y030612D02*
X033025Y030612D01*
X033153Y030454D02*
X032035Y030454D01*
X032035Y030295D02*
X033155Y030295D01*
X033155Y030137D02*
X032035Y030137D01*
X032035Y029978D02*
X033155Y029978D01*
X033155Y029820D02*
X032035Y029820D01*
X032035Y029661D02*
X033155Y029661D01*
X033155Y029503D02*
X032035Y029503D01*
X032035Y029344D02*
X033091Y029344D01*
X032999Y029186D02*
X032648Y029186D01*
X032806Y029027D02*
X032955Y029027D01*
X032955Y028869D02*
X032905Y028869D01*
X032905Y028710D02*
X032955Y028710D01*
X032955Y028552D02*
X032905Y028552D01*
X032867Y028393D02*
X032955Y028393D01*
X032974Y028235D02*
X032708Y028235D01*
X033040Y028076D02*
X032035Y028076D01*
X032035Y027918D02*
X033189Y027918D01*
X033655Y027759D02*
X032035Y027759D01*
X032035Y027601D02*
X033655Y027601D01*
X033655Y027442D02*
X032035Y027442D01*
X032035Y027284D02*
X033655Y027284D01*
X033655Y027125D02*
X032708Y027125D01*
X032867Y026967D02*
X033655Y026967D01*
X033655Y026808D02*
X032905Y026808D01*
X032905Y026650D02*
X033655Y026650D01*
X033269Y026491D02*
X032905Y026491D01*
X032806Y026333D02*
X033079Y026333D01*
X032994Y026174D02*
X032648Y026174D01*
X032305Y026174D02*
X032305Y026174D01*
X032305Y026080D02*
X032305Y026680D01*
X032305Y026680D01*
X032305Y026080D01*
X032305Y026333D02*
X032305Y026333D01*
X032305Y026491D02*
X032305Y026491D01*
X032305Y026650D02*
X032305Y026650D01*
X032305Y026808D02*
X032305Y026808D01*
X032305Y026967D02*
X032305Y026967D01*
X032305Y027125D02*
X032305Y027125D01*
X031075Y027125D02*
X029330Y027125D01*
X029330Y027284D02*
X031075Y027284D01*
X031075Y027442D02*
X029330Y027442D01*
X029330Y027601D02*
X031075Y027601D01*
X031075Y027759D02*
X029330Y027759D01*
X029796Y027918D02*
X030064Y027918D01*
X030796Y027918D02*
X031075Y027918D01*
X031075Y028076D02*
X030945Y028076D01*
X031011Y028235D02*
X031075Y028235D01*
X031075Y028393D02*
X031030Y028393D01*
X031030Y028552D02*
X031075Y028552D01*
X031075Y028710D02*
X031030Y028710D01*
X031030Y028869D02*
X031075Y028869D01*
X031075Y029027D02*
X031030Y029027D01*
X030986Y029186D02*
X031075Y029186D01*
X031075Y029344D02*
X030894Y029344D01*
X031075Y029503D02*
X030688Y029503D01*
X031075Y029661D02*
X029265Y029661D01*
X029106Y029820D02*
X031075Y029820D01*
X031075Y029978D02*
X028948Y029978D01*
X028830Y030137D02*
X031075Y030137D01*
X031075Y030295D02*
X028830Y030295D01*
X028832Y030454D02*
X029028Y030454D01*
X028430Y029930D02*
X028430Y031180D01*
X028430Y032180D01*
X028930Y032680D01*
X028930Y037430D01*
X028530Y036950D02*
X028530Y035060D01*
X028311Y035060D01*
X028090Y034969D01*
X027930Y034809D01*
X027770Y034969D01*
X027549Y035060D01*
X027311Y035060D01*
X027090Y034969D01*
X026930Y034809D01*
X026770Y034969D01*
X026549Y035060D01*
X026311Y035060D01*
X026090Y034969D01*
X025930Y034809D01*
X025770Y034969D01*
X025549Y035060D01*
X025311Y035060D01*
X025090Y034969D01*
X024930Y034809D01*
X024770Y034969D01*
X024549Y035060D01*
X024311Y035060D01*
X024090Y034969D01*
X023930Y034809D01*
X023770Y034969D01*
X023549Y035060D01*
X023311Y035060D01*
X023090Y034969D01*
X022930Y034809D01*
X022770Y034969D01*
X022549Y035060D01*
X022311Y035060D01*
X022090Y034969D01*
X021930Y034809D01*
X021770Y034969D01*
X021549Y035060D01*
X021311Y035060D01*
X021090Y034969D01*
X020921Y034800D01*
X020830Y034579D01*
X020830Y033781D01*
X020921Y033560D01*
X021090Y033391D01*
X021311Y033300D01*
X021549Y033300D01*
X021770Y033391D01*
X021930Y033551D01*
X022090Y033391D01*
X022311Y033300D01*
X022549Y033300D01*
X022770Y033391D01*
X022930Y033551D01*
X023090Y033391D01*
X023311Y033300D01*
X023549Y033300D01*
X023770Y033391D01*
X023930Y033551D01*
X024090Y033391D01*
X024311Y033300D01*
X024549Y033300D01*
X024770Y033391D01*
X024930Y033551D01*
X025030Y033451D01*
X025030Y032846D01*
X024703Y032519D01*
X024591Y032407D01*
X024530Y032260D01*
X024530Y032060D01*
X024311Y032060D01*
X024090Y031969D01*
X023930Y031809D01*
X023770Y031969D01*
X023549Y032060D01*
X023311Y032060D01*
X023090Y031969D01*
X022930Y031809D01*
X022770Y031969D01*
X022549Y032060D01*
X022311Y032060D01*
X022090Y031969D01*
X021930Y031809D01*
X021770Y031969D01*
X021549Y032060D01*
X021311Y032060D01*
X021090Y031969D01*
X020921Y031800D01*
X020830Y031579D01*
X020830Y030781D01*
X020921Y030560D01*
X021030Y030451D01*
X021030Y029409D01*
X020921Y029300D01*
X020830Y029079D01*
X020830Y028281D01*
X020921Y028060D01*
X021090Y027891D01*
X021311Y027800D01*
X021530Y027800D01*
X021530Y026560D01*
X021311Y026560D01*
X021090Y026469D01*
X020921Y026300D01*
X020830Y026079D01*
X020830Y025281D01*
X020921Y025060D01*
X021090Y024891D01*
X021311Y024800D01*
X021530Y024800D01*
X021530Y024060D01*
X021311Y024060D01*
X021090Y023969D01*
X020921Y023800D01*
X020830Y023579D01*
X020830Y022781D01*
X020921Y022560D01*
X021090Y022391D01*
X021311Y022300D01*
X021530Y022300D01*
X021530Y021060D01*
X021311Y021060D01*
X021090Y020969D01*
X020921Y020800D01*
X020830Y020579D01*
X020830Y019781D01*
X020921Y019560D01*
X021090Y019391D01*
X021311Y019300D01*
X021530Y019300D01*
X021530Y018560D01*
X021311Y018560D01*
X021090Y018469D01*
X020921Y018300D01*
X020830Y018079D01*
X020830Y017281D01*
X020921Y017060D01*
X021030Y016951D01*
X021030Y015409D01*
X020921Y015300D01*
X020830Y015079D01*
X019910Y015079D01*
X019931Y015080D02*
X020180Y015080D01*
X020429Y015080D01*
X020780Y015431D01*
X020780Y015680D01*
X020780Y015929D01*
X020429Y016280D01*
X020180Y016280D01*
X020180Y015680D01*
X020180Y015680D01*
X020780Y015680D01*
X020180Y015680D01*
X020180Y015680D01*
X020180Y016280D01*
X019931Y016280D01*
X019910Y016259D01*
X019910Y017101D01*
X019931Y017080D01*
X020429Y017080D01*
X020780Y017431D01*
X020780Y017929D01*
X020429Y018280D01*
X019931Y018280D01*
X019910Y018259D01*
X019910Y020601D01*
X019931Y020580D01*
X020180Y020580D01*
X020429Y020580D01*
X020780Y020931D01*
X020780Y021180D01*
X020780Y021429D01*
X020429Y021780D01*
X020180Y021780D01*
X020180Y021180D01*
X020180Y021180D01*
X020780Y021180D01*
X020180Y021180D01*
X020180Y021180D01*
X020180Y021780D01*
X019931Y021780D01*
X019910Y021759D01*
X019910Y022601D01*
X019931Y022580D01*
X020429Y022580D01*
X020780Y022931D01*
X020780Y023429D01*
X020429Y023780D01*
X019931Y023780D01*
X019910Y023759D01*
X019910Y026101D01*
X019931Y026080D01*
X020180Y026080D01*
X020429Y026080D01*
X020780Y026431D01*
X020780Y026680D01*
X020780Y026929D01*
X020429Y027280D01*
X020180Y027280D01*
X020180Y026680D01*
X020180Y026680D01*
X020780Y026680D01*
X020180Y026680D01*
X020180Y026680D01*
X020180Y027280D01*
X019931Y027280D01*
X019910Y027259D01*
X019910Y028101D01*
X019931Y028080D01*
X020429Y028080D01*
X020780Y028431D01*
X020780Y028929D01*
X020429Y029280D01*
X019931Y029280D01*
X019910Y029259D01*
X019910Y031476D01*
X019931Y031455D01*
X020180Y031455D01*
X020429Y031455D01*
X020780Y031806D01*
X020780Y032055D01*
X020780Y032304D01*
X020429Y032655D01*
X020180Y032655D01*
X020180Y032055D01*
X020180Y032055D01*
X020780Y032055D01*
X020180Y032055D01*
X020180Y032055D01*
X020180Y032655D01*
X019931Y032655D01*
X019910Y032634D01*
X019910Y033476D01*
X019931Y033455D01*
X020429Y033455D01*
X020780Y033806D01*
X020780Y034304D01*
X020429Y034655D01*
X019931Y034655D01*
X019910Y034634D01*
X019910Y036950D01*
X028530Y036950D01*
X028530Y036794D02*
X019910Y036794D01*
X019910Y036635D02*
X028530Y036635D01*
X028530Y036477D02*
X019910Y036477D01*
X019910Y036318D02*
X028530Y036318D01*
X028530Y036160D02*
X019910Y036160D01*
X019910Y036001D02*
X028530Y036001D01*
X028530Y035843D02*
X019910Y035843D01*
X019910Y035684D02*
X028530Y035684D01*
X028530Y035526D02*
X019910Y035526D01*
X019910Y035367D02*
X028530Y035367D01*
X028530Y035209D02*
X019910Y035209D01*
X019910Y035050D02*
X021287Y035050D01*
X021573Y035050D02*
X022287Y035050D01*
X022573Y035050D02*
X023287Y035050D01*
X023573Y035050D02*
X024287Y035050D01*
X024573Y035050D02*
X025287Y035050D01*
X025573Y035050D02*
X026287Y035050D01*
X026573Y035050D02*
X027287Y035050D01*
X027573Y035050D02*
X028287Y035050D01*
X028013Y034892D02*
X027847Y034892D01*
X027430Y034180D02*
X027430Y032680D01*
X026930Y032180D01*
X026930Y029930D01*
X027430Y029430D01*
X027430Y028680D01*
X027430Y027180D01*
X026930Y026680D01*
X026930Y024430D01*
X027430Y023930D01*
X027430Y023180D01*
X027430Y021680D01*
X026930Y021180D01*
X026930Y018930D01*
X027430Y018430D01*
X027430Y017680D01*
X027430Y016180D01*
X026930Y015680D01*
X026930Y013305D01*
X027430Y013049D02*
X027455Y012988D01*
X027613Y012830D01*
X027819Y012745D01*
X028041Y012745D01*
X028247Y012830D01*
X028405Y012988D01*
X028490Y013194D01*
X028490Y013416D01*
X028405Y013622D01*
X028330Y013697D01*
X028330Y013800D01*
X028549Y013800D01*
X028770Y013891D01*
X028930Y014051D01*
X029090Y013891D01*
X029311Y013800D01*
X029530Y013800D01*
X029530Y009346D01*
X027738Y007553D01*
X027780Y007656D01*
X027780Y008454D01*
X027689Y008675D01*
X027520Y008844D01*
X027299Y008935D01*
X027061Y008935D01*
X026840Y008844D01*
X026680Y008684D01*
X026520Y008844D01*
X026299Y008935D01*
X026061Y008935D01*
X025840Y008844D01*
X025680Y008684D01*
X025520Y008844D01*
X025299Y008935D01*
X025061Y008935D01*
X024840Y008844D01*
X024680Y008684D01*
X024520Y008844D01*
X024299Y008935D01*
X024061Y008935D01*
X023840Y008844D01*
X023680Y008684D01*
X023520Y008844D01*
X023299Y008935D01*
X023061Y008935D01*
X022840Y008844D01*
X022680Y008684D01*
X022520Y008844D01*
X022299Y008935D01*
X022061Y008935D01*
X021840Y008844D01*
X021680Y008684D01*
X021520Y008844D01*
X021299Y008935D01*
X021061Y008935D01*
X020840Y008844D01*
X020671Y008675D01*
X020613Y008535D01*
X020174Y008535D01*
X020054Y008655D01*
X019910Y008655D01*
X019910Y015101D01*
X019931Y015080D01*
X019910Y014921D02*
X020830Y014921D01*
X020830Y015079D02*
X020830Y014281D01*
X020921Y014060D01*
X021090Y013891D01*
X021311Y013800D01*
X021549Y013800D01*
X021770Y013891D01*
X021930Y014051D01*
X022090Y013891D01*
X022311Y013800D01*
X022549Y013800D01*
X022770Y013891D01*
X022930Y014051D01*
X023090Y013891D01*
X023311Y013800D01*
X023549Y013800D01*
X023770Y013891D01*
X023930Y014051D01*
X024090Y013891D01*
X024311Y013800D01*
X024530Y013800D01*
X024530Y013697D01*
X024455Y013622D01*
X024370Y013416D01*
X024370Y013194D01*
X024455Y012988D01*
X024613Y012830D01*
X024819Y012745D01*
X025041Y012745D01*
X025247Y012830D01*
X025405Y012988D01*
X025430Y013049D01*
X025455Y012988D01*
X025613Y012830D01*
X025819Y012745D01*
X026041Y012745D01*
X026247Y012830D01*
X026405Y012988D01*
X026430Y013049D01*
X026455Y012988D01*
X026613Y012830D01*
X026819Y012745D01*
X027041Y012745D01*
X027247Y012830D01*
X027405Y012988D01*
X027430Y013049D01*
X027417Y013019D02*
X027443Y013019D01*
X027583Y012860D02*
X027277Y012860D01*
X027930Y013305D02*
X027930Y015680D01*
X028430Y016180D01*
X028430Y017680D01*
X028430Y018430D01*
X027930Y018930D01*
X027930Y021180D01*
X028430Y021680D01*
X028430Y023180D01*
X028430Y023930D01*
X027930Y024430D01*
X027930Y026680D01*
X028430Y027180D01*
X028430Y028680D01*
X028430Y029430D01*
X027930Y029930D01*
X027930Y032180D01*
X028430Y032680D01*
X028430Y034180D01*
X029330Y035209D02*
X031075Y035209D01*
X031075Y035367D02*
X029330Y035367D01*
X029330Y035526D02*
X031075Y035526D01*
X031075Y035684D02*
X029330Y035684D01*
X029330Y035843D02*
X031075Y035843D01*
X031075Y036001D02*
X029330Y036001D01*
X029330Y036160D02*
X031075Y036160D01*
X031075Y036318D02*
X029330Y036318D01*
X029330Y036477D02*
X031075Y036477D01*
X031075Y036635D02*
X029330Y036635D01*
X029330Y036794D02*
X031075Y036794D01*
X032035Y036794D02*
X035745Y036794D01*
X035579Y036635D02*
X032035Y036635D01*
X032035Y036477D02*
X035509Y036477D01*
X035485Y036318D02*
X035306Y036318D01*
X034804Y036318D02*
X032035Y036318D01*
X032035Y036160D02*
X034603Y036160D01*
X036055Y036305D02*
X036055Y032680D01*
X036555Y032180D01*
X036555Y031180D01*
X036555Y029930D01*
X037055Y029430D01*
X037055Y027180D01*
X036555Y026680D01*
X036555Y025680D01*
X036555Y024430D01*
X037055Y023930D01*
X037055Y021680D01*
X036555Y021180D01*
X036555Y020180D01*
X036555Y018930D01*
X037055Y018430D01*
X037055Y016180D01*
X036555Y015680D01*
X036555Y014680D01*
X037555Y014680D02*
X037555Y015680D01*
X038055Y016180D01*
X038055Y018430D01*
X037555Y018930D01*
X037555Y020180D01*
X037555Y021180D01*
X038055Y021680D01*
X038055Y023930D01*
X037555Y024430D01*
X037555Y025680D01*
X037555Y026680D01*
X038055Y027180D01*
X038055Y029430D01*
X037555Y029930D01*
X037555Y031180D01*
X037555Y032180D01*
X038055Y032680D01*
X038055Y036430D01*
X037523Y036635D02*
X036531Y036635D01*
X036601Y036477D02*
X037485Y036477D01*
X037485Y036318D02*
X036625Y036318D01*
X036612Y036160D02*
X037550Y036160D01*
X037655Y036001D02*
X036546Y036001D01*
X036455Y035843D02*
X037655Y035843D01*
X037655Y035684D02*
X036455Y035684D01*
X036455Y035526D02*
X037655Y035526D01*
X037655Y035367D02*
X036455Y035367D01*
X036455Y035209D02*
X037655Y035209D01*
X037412Y035050D02*
X036698Y035050D01*
X036972Y034892D02*
X037138Y034892D01*
X037555Y034180D02*
X037555Y032680D01*
X037055Y032180D01*
X037055Y029930D01*
X037555Y029430D01*
X037555Y028680D01*
X037555Y027180D01*
X037055Y026680D01*
X037055Y024430D01*
X037555Y023930D01*
X037555Y023180D01*
X037555Y021680D01*
X037055Y021180D01*
X037055Y018930D01*
X037555Y018430D01*
X037555Y017680D01*
X037555Y016180D01*
X037055Y015680D01*
X037055Y013305D01*
X037402Y012860D02*
X037708Y012860D01*
X037568Y013019D02*
X037542Y013019D01*
X038055Y013305D02*
X038055Y015680D01*
X038555Y016180D01*
X038555Y017680D01*
X038555Y018430D01*
X038055Y018930D01*
X038055Y021180D01*
X038555Y021680D01*
X038555Y023180D01*
X038555Y023930D01*
X038055Y024430D01*
X038055Y026680D01*
X038555Y027180D01*
X038555Y028680D01*
X038555Y029430D01*
X038055Y029930D01*
X038055Y032180D01*
X038555Y032680D01*
X038555Y034180D01*
X039555Y034180D02*
X039555Y032680D01*
X039055Y032180D01*
X039055Y029930D01*
X039555Y029430D01*
X039555Y028680D01*
X039555Y027180D01*
X039055Y026680D01*
X039055Y024430D01*
X039555Y023930D01*
X039555Y023180D01*
X039555Y021680D01*
X039055Y021180D01*
X039055Y018930D01*
X039555Y018430D01*
X039555Y017680D01*
X039555Y016180D01*
X039055Y015680D01*
X039055Y013305D01*
X038708Y012860D02*
X038402Y012860D01*
X038542Y013019D02*
X038568Y013019D01*
X039402Y012860D02*
X039708Y012860D01*
X039568Y013019D02*
X039542Y013019D01*
X040055Y013305D02*
X040055Y015680D01*
X040555Y016180D01*
X040555Y017680D01*
X040555Y018430D01*
X040055Y018930D01*
X040055Y021180D01*
X040555Y021680D01*
X040555Y023180D01*
X040555Y023930D01*
X040055Y024430D01*
X040055Y026680D01*
X040555Y027180D01*
X040555Y028680D01*
X040555Y029430D01*
X040055Y029930D01*
X040055Y032180D01*
X040555Y032680D01*
X040555Y034180D01*
X041455Y035209D02*
X043200Y035209D01*
X043200Y035367D02*
X041455Y035367D01*
X041455Y035526D02*
X043200Y035526D01*
X043200Y035684D02*
X041455Y035684D01*
X041455Y035843D02*
X043200Y035843D01*
X043200Y036001D02*
X041455Y036001D01*
X041455Y036160D02*
X043200Y036160D01*
X043200Y036318D02*
X041455Y036318D01*
X041455Y036477D02*
X043200Y036477D01*
X043200Y036635D02*
X041455Y036635D01*
X041455Y036794D02*
X043200Y036794D01*
X044160Y036794D02*
X046737Y036794D01*
X046648Y036635D02*
X044160Y036635D01*
X044160Y036477D02*
X046610Y036477D01*
X046610Y036318D02*
X044160Y036318D01*
X044160Y036160D02*
X046675Y036160D01*
X048180Y036430D02*
X048180Y032680D01*
X048680Y032180D01*
X048680Y031180D01*
X048680Y029930D01*
X049180Y029430D01*
X049180Y027180D01*
X046680Y025680D02*
X046680Y024430D01*
X047180Y023930D01*
X047180Y021680D01*
X046680Y021180D01*
X046680Y020180D01*
X046680Y018930D01*
X047180Y018430D01*
X047180Y014180D01*
X046930Y013930D01*
X043180Y013930D01*
X042430Y013180D01*
X042430Y005180D01*
X041180Y003930D01*
X041180Y003430D01*
X042180Y002430D02*
X042680Y002930D01*
X042680Y004805D01*
X043680Y005805D01*
X043680Y013430D01*
X043151Y014330D02*
X043155Y014353D01*
X043155Y014680D01*
X042555Y014680D01*
X042555Y014680D01*
X042555Y015560D01*
X042508Y015560D01*
X042499Y015559D01*
X042782Y015841D01*
X042894Y015953D01*
X042955Y016100D01*
X042812Y015872D02*
X043830Y015872D01*
X043830Y015713D02*
X042654Y015713D01*
X042637Y015555D02*
X043830Y015555D01*
X043865Y015396D02*
X042968Y015396D01*
X042555Y015396D02*
X042555Y015396D01*
X042555Y015238D02*
X042555Y015238D01*
X042555Y015079D02*
X042555Y015079D01*
X042555Y014921D02*
X042555Y014921D01*
X042555Y014762D02*
X042555Y014762D01*
X043155Y014762D02*
X045080Y014762D01*
X045080Y014604D02*
X043155Y014604D01*
X043155Y014445D02*
X045080Y014445D01*
X045080Y014330D02*
X043151Y014330D01*
X043155Y014921D02*
X045080Y014921D01*
X045080Y015079D02*
X045080Y014330D01*
X045680Y014680D02*
X045680Y017680D01*
X045250Y016981D02*
X042985Y016981D01*
X042955Y016823D02*
X045280Y016823D01*
X045280Y016664D02*
X042955Y016664D01*
X042955Y016506D02*
X045280Y016506D01*
X045280Y016030D02*
X044929Y016030D01*
X045030Y015872D02*
X045280Y015872D01*
X045280Y015713D02*
X045030Y015713D01*
X045030Y015555D02*
X045280Y015555D01*
X045267Y015396D02*
X044995Y015396D01*
X045146Y015238D02*
X044836Y015238D01*
X046180Y016180D02*
X046680Y015680D01*
X046680Y014680D01*
X046180Y016180D02*
X046180Y029430D01*
X046680Y029930D01*
X046680Y031180D01*
X045680Y031180D02*
X045680Y028680D01*
X043200Y028710D02*
X043155Y028710D01*
X043155Y028552D02*
X043200Y028552D01*
X043200Y028393D02*
X043155Y028393D01*
X043136Y028235D02*
X043200Y028235D01*
X043200Y028076D02*
X043070Y028076D01*
X043200Y027918D02*
X042921Y027918D01*
X043200Y027759D02*
X042455Y027759D01*
X042455Y027601D02*
X043200Y027601D01*
X043200Y027442D02*
X042455Y027442D01*
X042455Y027284D02*
X043200Y027284D01*
X043155Y028869D02*
X043200Y028869D01*
X043200Y029027D02*
X043155Y029027D01*
X043111Y029186D02*
X043200Y029186D01*
X043200Y029344D02*
X043019Y029344D01*
X043200Y029503D02*
X042813Y029503D01*
X043200Y029661D02*
X042390Y029661D01*
X042231Y029820D02*
X043200Y029820D01*
X043200Y029978D02*
X042073Y029978D01*
X041955Y030137D02*
X043200Y030137D01*
X043200Y030295D02*
X041955Y030295D01*
X041957Y030454D02*
X042153Y030454D01*
X042555Y030454D02*
X042555Y030454D01*
X042555Y030300D02*
X042555Y031180D01*
X042555Y031180D01*
X042555Y030300D01*
X042555Y030612D02*
X042555Y030612D01*
X042555Y030771D02*
X042555Y030771D01*
X042555Y030929D02*
X042555Y030929D01*
X042555Y031088D02*
X042555Y031088D01*
X042555Y031246D02*
X042555Y031246D01*
X042555Y031405D02*
X042555Y031405D01*
X042555Y031563D02*
X042555Y031563D01*
X042555Y031722D02*
X042555Y031722D01*
X042555Y031880D02*
X042555Y031880D01*
X042555Y032039D02*
X042555Y032039D01*
X042716Y032039D02*
X043200Y032039D01*
X043200Y032197D02*
X041138Y032197D01*
X041296Y032356D02*
X043200Y032356D01*
X043200Y032514D02*
X041419Y032514D01*
X041455Y032673D02*
X043200Y032673D01*
X043200Y032831D02*
X041455Y032831D01*
X041455Y032990D02*
X043200Y032990D01*
X043200Y033148D02*
X041455Y033148D01*
X041690Y033307D02*
X042420Y033307D01*
X042690Y033307D02*
X043200Y033307D01*
X043200Y033465D02*
X042969Y033465D01*
X043090Y033624D02*
X043200Y033624D01*
X043200Y033782D02*
X043155Y033782D01*
X043155Y033941D02*
X043200Y033941D01*
X043200Y034099D02*
X043155Y034099D01*
X043155Y034258D02*
X043200Y034258D01*
X043200Y034416D02*
X043155Y034416D01*
X043155Y034575D02*
X043200Y034575D01*
X043200Y034733D02*
X043091Y034733D01*
X043200Y034892D02*
X042972Y034892D01*
X043200Y035050D02*
X042698Y035050D01*
X042412Y035050D02*
X041698Y035050D01*
X041972Y034892D02*
X042138Y034892D01*
X042141Y033465D02*
X041969Y033465D01*
X041055Y032680D02*
X041055Y037430D01*
X039055Y036430D02*
X039055Y032680D01*
X038555Y032180D01*
X038555Y031180D01*
X038555Y029930D01*
X039055Y029430D01*
X039055Y027180D01*
X038555Y026680D01*
X038555Y025680D01*
X038555Y024430D01*
X039055Y023930D01*
X039055Y021680D01*
X038555Y021180D01*
X038555Y020180D01*
X038555Y018930D01*
X039055Y018430D01*
X039055Y016180D01*
X038555Y015680D01*
X038555Y014680D01*
X041055Y015555D02*
X042055Y016555D01*
X042055Y029430D01*
X041555Y029930D01*
X041555Y031180D01*
X040555Y031180D02*
X040555Y029930D01*
X041055Y029430D01*
X041055Y027180D01*
X040555Y026680D01*
X040555Y025680D01*
X035055Y023930D02*
X035055Y021680D01*
X034555Y021180D01*
X034555Y020180D01*
X033655Y019200D02*
X032035Y019200D01*
X032035Y019042D02*
X033655Y019042D01*
X033655Y018883D02*
X032035Y018883D01*
X032035Y018725D02*
X033655Y018725D01*
X033655Y018566D02*
X032098Y018566D01*
X032256Y018408D02*
X033154Y018408D01*
X033025Y018249D02*
X032584Y018249D01*
X032743Y018091D02*
X032960Y018091D01*
X032955Y017932D02*
X032901Y017932D01*
X032905Y017774D02*
X032955Y017774D01*
X032955Y017615D02*
X032905Y017615D01*
X032905Y017457D02*
X032955Y017457D01*
X032955Y017298D02*
X032772Y017298D01*
X032613Y017140D02*
X033013Y017140D01*
X033125Y016981D02*
X030860Y016981D01*
X030830Y016823D02*
X033155Y016823D01*
X033155Y016664D02*
X030830Y016664D01*
X030830Y016506D02*
X033155Y016506D01*
X033155Y016347D02*
X030830Y016347D01*
X030830Y016189D02*
X031965Y016189D01*
X032056Y016280D02*
X031705Y015929D01*
X031705Y015680D01*
X032305Y015680D01*
X032305Y015680D01*
X032305Y016280D01*
X032554Y016280D01*
X032905Y015929D01*
X032905Y015680D01*
X032305Y015680D01*
X032305Y015680D01*
X032305Y015680D01*
X032305Y016280D01*
X032056Y016280D01*
X032305Y016189D02*
X032305Y016189D01*
X032305Y016030D02*
X032305Y016030D01*
X032305Y015872D02*
X032305Y015872D01*
X032305Y015713D02*
X032305Y015713D01*
X032305Y015680D02*
X031705Y015680D01*
X031705Y015431D01*
X032056Y015080D01*
X032305Y015080D01*
X032554Y015080D01*
X032905Y015431D01*
X032905Y015680D01*
X032305Y015680D01*
X032305Y015080D01*
X032305Y015680D01*
X032305Y015680D01*
X032305Y015555D02*
X032305Y015555D01*
X032305Y015396D02*
X032305Y015396D01*
X032305Y015238D02*
X032305Y015238D01*
X032711Y015238D02*
X033021Y015238D01*
X033142Y015396D02*
X032870Y015396D01*
X032905Y015555D02*
X033155Y015555D01*
X033155Y015713D02*
X032905Y015713D01*
X032905Y015872D02*
X033155Y015872D01*
X033155Y016030D02*
X032804Y016030D01*
X032645Y016189D02*
X033155Y016189D01*
X034055Y016180D02*
X034555Y015680D01*
X034555Y014680D01*
X034973Y013970D02*
X035137Y013970D01*
X034137Y013970D02*
X033973Y013970D01*
X033555Y014680D02*
X033555Y017680D01*
X031997Y017140D02*
X030972Y017140D01*
X031030Y017298D02*
X031838Y017298D01*
X031705Y017457D02*
X031030Y017457D01*
X031030Y017615D02*
X031691Y017615D01*
X031533Y017774D02*
X031030Y017774D01*
X031030Y017932D02*
X031374Y017932D01*
X031216Y018091D02*
X031025Y018091D01*
X030960Y018249D02*
X031110Y018249D01*
X031075Y018408D02*
X030831Y018408D01*
X031075Y018566D02*
X029307Y018566D01*
X029201Y018725D02*
X031075Y018725D01*
X031075Y018883D02*
X029043Y018883D01*
X028884Y019042D02*
X031075Y019042D01*
X031075Y019200D02*
X028830Y019200D01*
X028830Y019359D02*
X029169Y019359D01*
X028964Y019517D02*
X028896Y019517D01*
X028430Y018930D02*
X028430Y020180D01*
X028430Y021180D01*
X028930Y021680D01*
X028930Y023930D01*
X028430Y024430D01*
X028430Y025680D01*
X028430Y026680D01*
X028930Y027180D01*
X028930Y029430D01*
X028430Y029930D01*
X029688Y029503D02*
X030172Y029503D01*
X029966Y029344D02*
X029894Y029344D01*
X030430Y030300D02*
X030430Y031180D01*
X030430Y030300D01*
X030430Y030454D02*
X030430Y030454D01*
X030430Y030612D02*
X030430Y030612D01*
X030430Y030771D02*
X030430Y030771D01*
X030430Y030929D02*
X030430Y030929D01*
X030430Y031088D02*
X030430Y031088D01*
X030430Y031180D02*
X030430Y031180D01*
X030430Y031246D02*
X030430Y031246D01*
X030430Y031405D02*
X030430Y031405D01*
X030430Y031563D02*
X030430Y031563D01*
X030430Y031722D02*
X030430Y031722D01*
X030430Y031880D02*
X030430Y031880D01*
X030430Y032039D02*
X030430Y032039D01*
X030591Y032039D02*
X031075Y032039D01*
X031075Y032197D02*
X029013Y032197D01*
X029171Y032356D02*
X031075Y032356D01*
X031075Y032514D02*
X029294Y032514D01*
X029330Y032673D02*
X031075Y032673D01*
X031075Y032831D02*
X029330Y032831D01*
X029330Y032990D02*
X031075Y032990D01*
X031075Y033148D02*
X029330Y033148D01*
X029565Y033307D02*
X030295Y033307D01*
X030565Y033307D02*
X031075Y033307D01*
X031075Y033465D02*
X030844Y033465D01*
X030965Y033624D02*
X031075Y033624D01*
X031075Y033782D02*
X031030Y033782D01*
X031030Y033941D02*
X031075Y033941D01*
X031075Y034099D02*
X031030Y034099D01*
X031030Y034258D02*
X031075Y034258D01*
X031075Y034416D02*
X031030Y034416D01*
X031030Y034575D02*
X031075Y034575D01*
X031075Y034733D02*
X030966Y034733D01*
X031075Y034892D02*
X030847Y034892D01*
X031075Y035050D02*
X030573Y035050D01*
X030287Y035050D02*
X029573Y035050D01*
X029847Y034892D02*
X030013Y034892D01*
X030016Y033465D02*
X029844Y033465D01*
X029601Y032039D02*
X030269Y032039D01*
X030002Y031880D02*
X029858Y031880D01*
X029259Y032039D02*
X028854Y032039D01*
X028858Y031880D02*
X029002Y031880D01*
X030858Y031880D02*
X031075Y031880D01*
X031075Y031722D02*
X030970Y031722D01*
X031021Y031563D02*
X031075Y031563D01*
X031075Y031405D02*
X031030Y031405D01*
X031030Y031246D02*
X031075Y031246D01*
X031075Y031088D02*
X031030Y031088D01*
X031030Y030929D02*
X031075Y030929D01*
X031075Y030771D02*
X031017Y030771D01*
X030957Y030612D02*
X031075Y030612D01*
X031075Y030454D02*
X030832Y030454D01*
X030028Y030454D02*
X029832Y030454D01*
X032695Y031722D02*
X033014Y031722D01*
X033127Y031880D02*
X032854Y031880D01*
X032905Y032039D02*
X033384Y032039D01*
X033726Y032039D02*
X034384Y032039D01*
X034127Y031880D02*
X033983Y031880D01*
X034726Y032039D02*
X035131Y032039D01*
X035127Y031880D02*
X034983Y031880D01*
X034972Y032197D02*
X032905Y032197D01*
X032905Y032356D02*
X034814Y032356D01*
X034691Y032514D02*
X032819Y032514D01*
X032661Y032673D02*
X034655Y032673D01*
X034141Y033465D02*
X033969Y033465D01*
X033972Y034892D02*
X034138Y034892D01*
X036365Y036794D02*
X037612Y036794D01*
X041055Y032680D02*
X040555Y032180D01*
X040555Y031180D01*
X040983Y031880D02*
X041127Y031880D01*
X040979Y032039D02*
X041384Y032039D01*
X041726Y032039D02*
X042394Y032039D01*
X042127Y031880D02*
X041983Y031880D01*
X042983Y031880D02*
X043200Y031880D01*
X043200Y031722D02*
X043095Y031722D01*
X043146Y031563D02*
X043200Y031563D01*
X043200Y031405D02*
X043155Y031405D01*
X043155Y031246D02*
X043200Y031246D01*
X043200Y031088D02*
X043155Y031088D01*
X043155Y030929D02*
X043200Y030929D01*
X043200Y030771D02*
X043142Y030771D01*
X043082Y030612D02*
X043200Y030612D01*
X043200Y030454D02*
X042957Y030454D01*
X044820Y031722D02*
X045139Y031722D01*
X045252Y031880D02*
X044979Y031880D01*
X045030Y032039D02*
X045509Y032039D01*
X045851Y032039D02*
X046509Y032039D01*
X046252Y031880D02*
X046108Y031880D01*
X046851Y032039D02*
X047256Y032039D01*
X047252Y031880D02*
X047108Y031880D01*
X047097Y032197D02*
X045030Y032197D01*
X045030Y032356D02*
X046939Y032356D01*
X046816Y032514D02*
X044944Y032514D01*
X044786Y032673D02*
X046780Y032673D01*
X046266Y033465D02*
X046094Y033465D01*
X046097Y034892D02*
X046263Y034892D01*
X034555Y031180D02*
X034555Y029930D01*
X034055Y029430D01*
X034055Y016180D01*
X032955Y014762D02*
X031030Y014762D01*
X031030Y014604D02*
X032955Y014604D01*
X032955Y014445D02*
X031030Y014445D01*
X031020Y014287D02*
X032955Y014287D01*
X033018Y014128D02*
X030965Y014128D01*
X030848Y013970D02*
X033137Y013970D01*
X031899Y015238D02*
X030962Y015238D01*
X030843Y015396D02*
X031740Y015396D01*
X031705Y015555D02*
X030512Y015555D01*
X030430Y015555D02*
X030430Y015555D01*
X030430Y015396D02*
X030430Y015396D01*
X030430Y015238D02*
X030430Y015238D01*
X030430Y015079D02*
X030430Y015079D01*
X030430Y014921D02*
X030430Y014921D01*
X030430Y014762D02*
X030430Y014762D01*
X030430Y014680D02*
X030430Y014680D01*
X030430Y014604D02*
X030430Y014604D01*
X030430Y014445D02*
X030430Y014445D01*
X030430Y014287D02*
X030430Y014287D01*
X030430Y014128D02*
X030430Y014128D01*
X030430Y013970D02*
X030430Y013970D01*
X029530Y013653D02*
X028374Y013653D01*
X028458Y013494D02*
X029530Y013494D01*
X029530Y013336D02*
X028490Y013336D01*
X028483Y013177D02*
X029530Y013177D01*
X029530Y013019D02*
X028417Y013019D01*
X028277Y012860D02*
X029530Y012860D01*
X029530Y012702D02*
X019910Y012702D01*
X019910Y012860D02*
X024583Y012860D01*
X024443Y013019D02*
X019910Y013019D01*
X019910Y013177D02*
X024377Y013177D01*
X024370Y013336D02*
X019910Y013336D01*
X019910Y013494D02*
X024402Y013494D01*
X024486Y013653D02*
X019910Y013653D01*
X019910Y013811D02*
X021284Y013811D01*
X021576Y013811D02*
X022284Y013811D01*
X022576Y013811D02*
X023284Y013811D01*
X023576Y013811D02*
X024284Y013811D01*
X024012Y013970D02*
X023848Y013970D01*
X023430Y014680D02*
X023430Y015805D01*
X023930Y016305D01*
X023930Y018430D01*
X023430Y018930D01*
X023430Y020180D01*
X023430Y021180D01*
X023930Y021680D01*
X023930Y023930D01*
X023430Y024430D01*
X023430Y025680D01*
X023430Y027180D01*
X023930Y027680D01*
X023930Y029430D01*
X023430Y029930D01*
X023430Y031180D01*
X022430Y031180D02*
X022430Y029930D01*
X021930Y029430D01*
X021930Y016180D01*
X022430Y015680D01*
X022430Y014680D01*
X022848Y013970D02*
X023012Y013970D01*
X022012Y013970D02*
X021848Y013970D01*
X021430Y014680D02*
X021430Y017680D01*
X020830Y017615D02*
X020780Y017615D01*
X020780Y017457D02*
X020830Y017457D01*
X020830Y017298D02*
X020647Y017298D01*
X020488Y017140D02*
X020888Y017140D01*
X021000Y016981D02*
X019910Y016981D01*
X019910Y016823D02*
X021030Y016823D01*
X021030Y016664D02*
X019910Y016664D01*
X019910Y016506D02*
X021030Y016506D01*
X021030Y016347D02*
X019910Y016347D01*
X020180Y016189D02*
X020180Y016189D01*
X020180Y016030D02*
X020180Y016030D01*
X020180Y015872D02*
X020180Y015872D01*
X020180Y015713D02*
X020180Y015713D01*
X020180Y015680D02*
X020180Y015080D01*
X020180Y015680D01*
X020180Y015680D01*
X020180Y015555D02*
X020180Y015555D01*
X020180Y015396D02*
X020180Y015396D01*
X020180Y015238D02*
X020180Y015238D01*
X020586Y015238D02*
X020896Y015238D01*
X021017Y015396D02*
X020745Y015396D01*
X020780Y015555D02*
X021030Y015555D01*
X021030Y015713D02*
X020780Y015713D01*
X020780Y015872D02*
X021030Y015872D01*
X021030Y016030D02*
X020679Y016030D01*
X020520Y016189D02*
X021030Y016189D01*
X020830Y014762D02*
X019910Y014762D01*
X019910Y014604D02*
X020830Y014604D01*
X020830Y014445D02*
X019910Y014445D01*
X019910Y014287D02*
X020830Y014287D01*
X020893Y014128D02*
X019910Y014128D01*
X019910Y013970D02*
X021012Y013970D01*
X019910Y012543D02*
X029530Y012543D01*
X029530Y012385D02*
X019910Y012385D01*
X019910Y012226D02*
X029530Y012226D01*
X029530Y012068D02*
X019910Y012068D01*
X019910Y011909D02*
X029530Y011909D01*
X029530Y011751D02*
X019910Y011751D01*
X019910Y011592D02*
X029530Y011592D01*
X029530Y011434D02*
X019910Y011434D01*
X019910Y011275D02*
X029530Y011275D01*
X029530Y011117D02*
X019910Y011117D01*
X019910Y010958D02*
X029530Y010958D01*
X029530Y010800D02*
X019910Y010800D01*
X019910Y010641D02*
X029530Y010641D01*
X029530Y010483D02*
X019910Y010483D01*
X019910Y010324D02*
X029530Y010324D01*
X029530Y010166D02*
X019910Y010166D01*
X019910Y010007D02*
X029530Y010007D01*
X029530Y009849D02*
X019910Y009849D01*
X019910Y009690D02*
X029530Y009690D01*
X029530Y009532D02*
X019910Y009532D01*
X019910Y009373D02*
X029530Y009373D01*
X029399Y009215D02*
X019910Y009215D01*
X019910Y009056D02*
X029240Y009056D01*
X029082Y008898D02*
X027390Y008898D01*
X027625Y008739D02*
X028923Y008739D01*
X028765Y008581D02*
X027728Y008581D01*
X027780Y008422D02*
X028606Y008422D01*
X028448Y008264D02*
X027780Y008264D01*
X027780Y008105D02*
X028289Y008105D01*
X028131Y007947D02*
X027780Y007947D01*
X027780Y007788D02*
X027972Y007788D01*
X027814Y007630D02*
X027769Y007630D01*
X027402Y007217D02*
X026119Y005935D01*
X026061Y005935D01*
X025840Y005844D01*
X025680Y005684D01*
X025520Y005844D01*
X025299Y005935D01*
X025061Y005935D01*
X024840Y005844D01*
X024680Y005684D01*
X024520Y005844D01*
X024299Y005935D01*
X024241Y005935D01*
X023907Y006269D01*
X023760Y006330D01*
X021600Y006330D01*
X021453Y006269D01*
X021341Y006157D01*
X021119Y005935D01*
X021061Y005935D01*
X020840Y005844D01*
X020671Y005675D01*
X020580Y005454D01*
X020580Y004656D01*
X020622Y004553D01*
X019721Y005455D01*
X019805Y005455D01*
X020054Y005455D01*
X020405Y005806D01*
X020405Y006055D01*
X020405Y006304D01*
X020054Y006655D01*
X019805Y006655D01*
X019805Y006055D01*
X019805Y006055D01*
X020405Y006055D01*
X019805Y006055D01*
X019805Y006055D01*
X019805Y006055D01*
X019205Y006055D01*
X019205Y006304D01*
X019556Y006655D01*
X019805Y006655D01*
X019805Y006055D01*
X019805Y005455D01*
X019805Y006055D01*
X019805Y006055D01*
X019205Y006055D01*
X019205Y005971D01*
X018205Y006971D01*
X018205Y013808D01*
X018258Y013800D01*
X018305Y013800D01*
X018352Y013800D01*
X018445Y013815D01*
X018535Y013844D01*
X018619Y013887D01*
X018696Y013942D01*
X018763Y014009D01*
X018818Y014086D01*
X018861Y014170D01*
X018890Y014259D01*
X018905Y014353D01*
X018905Y014680D01*
X018905Y015007D01*
X018890Y015100D01*
X018861Y015190D01*
X018818Y015274D01*
X018763Y015351D01*
X018696Y015418D01*
X018619Y015473D01*
X018535Y015516D01*
X018445Y015545D01*
X018352Y015560D01*
X018305Y015560D01*
X018305Y014680D01*
X018305Y014680D01*
X018905Y014680D01*
X018305Y014680D01*
X018305Y014680D01*
X018305Y015560D01*
X018258Y015560D01*
X018205Y015552D01*
X018205Y016800D01*
X018424Y016800D01*
X018645Y016891D01*
X018814Y017060D01*
X018905Y017281D01*
X018905Y018079D01*
X018814Y018300D01*
X018645Y018469D01*
X018424Y018560D01*
X018205Y018560D01*
X018205Y019308D01*
X018258Y019300D01*
X018305Y019300D01*
X018352Y019300D01*
X018445Y019315D01*
X018535Y019344D01*
X018619Y019387D01*
X018696Y019442D01*
X018763Y019509D01*
X018818Y019586D01*
X018861Y019670D01*
X018890Y019759D01*
X018905Y019853D01*
X018905Y020180D01*
X018905Y020507D01*
X018890Y020600D01*
X018861Y020690D01*
X018818Y020774D01*
X018763Y020851D01*
X018696Y020918D01*
X018619Y020973D01*
X018535Y021016D01*
X018445Y021045D01*
X018352Y021060D01*
X018305Y021060D01*
X018305Y020180D01*
X018305Y020180D01*
X018905Y020180D01*
X018305Y020180D01*
X018305Y020180D01*
X018305Y021060D01*
X018258Y021060D01*
X018205Y021052D01*
X018205Y022300D01*
X018424Y022300D01*
X018645Y022391D01*
X018814Y022560D01*
X018905Y022781D01*
X018905Y023579D01*
X018814Y023800D01*
X018645Y023969D01*
X018424Y024060D01*
X018205Y024060D01*
X018205Y024808D01*
X018258Y024800D01*
X018305Y024800D01*
X018352Y024800D01*
X018445Y024815D01*
X018535Y024844D01*
X018619Y024887D01*
X018696Y024942D01*
X018763Y025009D01*
X018818Y025086D01*
X018861Y025170D01*
X018890Y025259D01*
X018905Y025353D01*
X018905Y025680D01*
X018905Y026007D01*
X018890Y026100D01*
X018861Y026190D01*
X018818Y026274D01*
X018763Y026351D01*
X018696Y026418D01*
X018619Y026473D01*
X018535Y026516D01*
X018445Y026545D01*
X018352Y026560D01*
X018305Y026560D01*
X018305Y025680D01*
X018305Y025680D01*
X018905Y025680D01*
X018305Y025680D01*
X018305Y025680D01*
X018305Y026560D01*
X018258Y026560D01*
X018205Y026552D01*
X018205Y027800D01*
X018424Y027800D01*
X018645Y027891D01*
X018814Y028060D01*
X018905Y028281D01*
X018905Y029079D01*
X018814Y029300D01*
X018645Y029469D01*
X018424Y029560D01*
X018205Y029560D01*
X018205Y030308D01*
X018258Y030300D01*
X018305Y030300D01*
X018352Y030300D01*
X018445Y030315D01*
X018535Y030344D01*
X018619Y030387D01*
X018696Y030442D01*
X018763Y030509D01*
X018818Y030586D01*
X018861Y030670D01*
X018890Y030759D01*
X018905Y030853D01*
X018905Y031180D01*
X018905Y031507D01*
X018890Y031600D01*
X018861Y031690D01*
X018818Y031774D01*
X018763Y031851D01*
X018696Y031918D01*
X018619Y031973D01*
X018535Y032016D01*
X018445Y032045D01*
X018352Y032060D01*
X018305Y032060D01*
X018305Y031180D01*
X018305Y031180D01*
X018905Y031180D01*
X018305Y031180D01*
X018305Y031180D01*
X018305Y032060D01*
X018258Y032060D01*
X018205Y032052D01*
X018205Y033014D01*
X018532Y033341D01*
X018538Y033347D01*
X018645Y033391D01*
X018814Y033560D01*
X018905Y033781D01*
X018905Y034579D01*
X018814Y034800D01*
X018645Y034969D01*
X018424Y035060D01*
X018186Y035060D01*
X017965Y034969D01*
X017805Y034809D01*
X017645Y034969D01*
X017424Y035060D01*
X017205Y035060D01*
X017205Y036950D01*
X018950Y036950D01*
X018950Y008335D01*
X019023Y008158D01*
X019158Y008023D01*
X019205Y007976D01*
X019205Y007806D01*
X019556Y007455D01*
X020054Y007455D01*
X020174Y007575D01*
X020613Y007575D01*
X020671Y007435D01*
X020840Y007266D01*
X021061Y007175D01*
X021299Y007175D01*
X021520Y007266D01*
X021680Y007426D01*
X021840Y007266D01*
X022061Y007175D01*
X022299Y007175D01*
X022520Y007266D01*
X022680Y007426D01*
X022840Y007266D01*
X022947Y007222D01*
X023216Y006953D01*
X023328Y006841D01*
X023475Y006780D01*
X024885Y006780D01*
X025032Y006841D01*
X025407Y007216D01*
X025413Y007222D01*
X025520Y007266D01*
X025680Y007426D01*
X025840Y007266D01*
X026061Y007175D01*
X026299Y007175D01*
X026520Y007266D01*
X026680Y007426D01*
X026840Y007266D01*
X027061Y007175D01*
X027299Y007175D01*
X027402Y007217D01*
X027338Y007154D02*
X025345Y007154D01*
X025186Y006996D02*
X027180Y006996D01*
X027021Y006837D02*
X025022Y006837D01*
X024805Y007180D02*
X025180Y007555D01*
X025180Y008055D01*
X026180Y008055D01*
X025735Y008739D02*
X025625Y008739D01*
X025390Y008898D02*
X025970Y008898D01*
X026390Y008898D02*
X026970Y008898D01*
X026735Y008739D02*
X026625Y008739D01*
X026566Y007313D02*
X026794Y007313D01*
X026863Y006679D02*
X018497Y006679D01*
X018339Y006837D02*
X023338Y006837D01*
X023174Y006996D02*
X018205Y006996D01*
X018205Y007154D02*
X023015Y007154D01*
X022794Y007313D02*
X022566Y007313D01*
X023180Y007555D02*
X023555Y007180D01*
X024805Y007180D01*
X025566Y007313D02*
X025794Y007313D01*
X026704Y006520D02*
X020189Y006520D01*
X020347Y006362D02*
X026546Y006362D01*
X026387Y006203D02*
X023973Y006203D01*
X024131Y006045D02*
X026229Y006045D01*
X025942Y005886D02*
X025418Y005886D01*
X025636Y005728D02*
X025724Y005728D01*
X026180Y005430D02*
X029930Y009180D01*
X029930Y015680D01*
X030430Y016180D01*
X030430Y017680D01*
X030029Y018408D02*
X029831Y018408D01*
X028930Y018430D02*
X028430Y018930D01*
X028930Y018430D02*
X028930Y016180D01*
X028430Y015680D01*
X028430Y014680D01*
X029430Y014680D01*
X029012Y013970D02*
X028848Y013970D01*
X028576Y013811D02*
X029284Y013811D01*
X030330Y012543D02*
X040655Y012543D01*
X040655Y012385D02*
X030330Y012385D01*
X030330Y012226D02*
X040655Y012226D01*
X040655Y012068D02*
X030330Y012068D01*
X030330Y011909D02*
X040655Y011909D01*
X040655Y011751D02*
X030330Y011751D01*
X030330Y011592D02*
X040651Y011592D01*
X040493Y011434D02*
X030330Y011434D01*
X030330Y011275D02*
X040334Y011275D01*
X040176Y011117D02*
X030330Y011117D01*
X030330Y010958D02*
X040017Y010958D01*
X039859Y010800D02*
X030330Y010800D01*
X030330Y010641D02*
X039700Y010641D01*
X039542Y010483D02*
X030330Y010483D01*
X030330Y010324D02*
X039432Y010324D01*
X039405Y010166D02*
X030330Y010166D01*
X030330Y010007D02*
X039405Y010007D01*
X039405Y009849D02*
X030330Y009849D01*
X030330Y009690D02*
X039405Y009690D01*
X039405Y009532D02*
X030330Y009532D01*
X030330Y009373D02*
X039405Y009373D01*
X039405Y009215D02*
X030330Y009215D01*
X030312Y009056D02*
X039405Y009056D01*
X039405Y008898D02*
X030213Y008898D01*
X030055Y008739D02*
X039405Y008739D01*
X039405Y008581D02*
X029896Y008581D01*
X029738Y008422D02*
X039405Y008422D01*
X039405Y008264D02*
X029579Y008264D01*
X029421Y008105D02*
X039405Y008105D01*
X039405Y007947D02*
X029262Y007947D01*
X029104Y007788D02*
X039405Y007788D01*
X039405Y007630D02*
X028945Y007630D01*
X028787Y007471D02*
X039405Y007471D01*
X039405Y007313D02*
X028628Y007313D01*
X028470Y007154D02*
X039405Y007154D01*
X039405Y006996D02*
X028311Y006996D01*
X028153Y006837D02*
X039405Y006837D01*
X039387Y006679D02*
X027994Y006679D01*
X027836Y006520D02*
X039288Y006520D01*
X039245Y006362D02*
X027677Y006362D01*
X027519Y006203D02*
X039245Y006203D01*
X039307Y006045D02*
X027360Y006045D01*
X027420Y005886D02*
X039432Y005886D01*
X039537Y005728D02*
X027636Y005728D01*
X027734Y005569D02*
X039378Y005569D01*
X039220Y005411D02*
X027776Y005411D01*
X027780Y005252D02*
X039061Y005252D01*
X038903Y005094D02*
X027780Y005094D01*
X027780Y005055D02*
X027180Y005055D01*
X027180Y005055D01*
X027780Y005055D01*
X027780Y004935D02*
X038744Y004935D01*
X038586Y004777D02*
X027780Y004777D01*
X026180Y005055D02*
X026180Y005430D01*
X024942Y005886D02*
X024418Y005886D01*
X024636Y005728D02*
X024724Y005728D01*
X024180Y005430D02*
X024180Y005055D01*
X024180Y005430D02*
X023680Y005930D01*
X021680Y005930D01*
X021180Y005430D01*
X021180Y005055D01*
X020580Y005094D02*
X020082Y005094D01*
X019924Y005252D02*
X020580Y005252D01*
X020580Y005411D02*
X019765Y005411D01*
X019805Y005569D02*
X019805Y005569D01*
X019805Y005728D02*
X019805Y005728D01*
X019805Y005886D02*
X019805Y005886D01*
X019805Y006045D02*
X019805Y006045D01*
X019805Y006203D02*
X019805Y006203D01*
X019805Y006362D02*
X019805Y006362D01*
X019805Y006520D02*
X019805Y006520D01*
X019421Y006520D02*
X018656Y006520D01*
X018814Y006362D02*
X019263Y006362D01*
X019205Y006203D02*
X018973Y006203D01*
X019131Y006045D02*
X019205Y006045D01*
X020168Y005569D02*
X020627Y005569D01*
X020724Y005728D02*
X020326Y005728D01*
X020405Y005886D02*
X020942Y005886D01*
X021229Y006045D02*
X020405Y006045D01*
X020405Y006203D02*
X021387Y006203D01*
X021566Y007313D02*
X021794Y007313D01*
X022180Y008055D02*
X021180Y008055D01*
X020632Y008581D02*
X020128Y008581D01*
X019910Y008739D02*
X020735Y008739D01*
X020970Y008898D02*
X019910Y008898D01*
X018950Y008898D02*
X018205Y008898D01*
X018205Y009056D02*
X018950Y009056D01*
X018950Y009215D02*
X018205Y009215D01*
X018205Y009373D02*
X018950Y009373D01*
X018950Y009532D02*
X018205Y009532D01*
X018205Y009690D02*
X018950Y009690D01*
X018950Y009849D02*
X018205Y009849D01*
X018205Y010007D02*
X018950Y010007D01*
X018950Y010166D02*
X018205Y010166D01*
X018205Y010324D02*
X018950Y010324D01*
X018950Y010483D02*
X018205Y010483D01*
X018205Y010641D02*
X018950Y010641D01*
X018950Y010800D02*
X018205Y010800D01*
X018205Y010958D02*
X018950Y010958D01*
X018950Y011117D02*
X018205Y011117D01*
X018205Y011275D02*
X018950Y011275D01*
X018950Y011434D02*
X018205Y011434D01*
X018205Y011592D02*
X018950Y011592D01*
X018950Y011751D02*
X018205Y011751D01*
X018205Y011909D02*
X018950Y011909D01*
X018950Y012068D02*
X018205Y012068D01*
X018205Y012226D02*
X018950Y012226D01*
X018950Y012385D02*
X018205Y012385D01*
X018205Y012543D02*
X018950Y012543D01*
X018950Y012702D02*
X018205Y012702D01*
X018205Y012860D02*
X018950Y012860D01*
X018950Y013019D02*
X018205Y013019D01*
X018205Y013177D02*
X018950Y013177D01*
X018950Y013336D02*
X018205Y013336D01*
X018205Y013494D02*
X018950Y013494D01*
X018950Y013653D02*
X018205Y013653D01*
X018305Y013800D02*
X018305Y014680D01*
X018305Y013800D01*
X018305Y013811D02*
X018305Y013811D01*
X018422Y013811D02*
X018950Y013811D01*
X018950Y013970D02*
X018723Y013970D01*
X018840Y014128D02*
X018950Y014128D01*
X018950Y014287D02*
X018895Y014287D01*
X018905Y014445D02*
X018950Y014445D01*
X018950Y014604D02*
X018905Y014604D01*
X018905Y014762D02*
X018950Y014762D01*
X018950Y014921D02*
X018905Y014921D01*
X018894Y015079D02*
X018950Y015079D01*
X018950Y015238D02*
X018837Y015238D01*
X018950Y015396D02*
X018718Y015396D01*
X018950Y015555D02*
X018387Y015555D01*
X018305Y015555D02*
X018305Y015555D01*
X018223Y015555D02*
X018205Y015555D01*
X018205Y015713D02*
X018950Y015713D01*
X018950Y015872D02*
X018205Y015872D01*
X018205Y016030D02*
X018950Y016030D01*
X018950Y016189D02*
X018205Y016189D01*
X018205Y016347D02*
X018950Y016347D01*
X018950Y016506D02*
X018205Y016506D01*
X018205Y016664D02*
X018950Y016664D01*
X018950Y016823D02*
X018479Y016823D01*
X018735Y016981D02*
X018950Y016981D01*
X018950Y017140D02*
X018847Y017140D01*
X018905Y017298D02*
X018950Y017298D01*
X018950Y017457D02*
X018905Y017457D01*
X018905Y017615D02*
X018950Y017615D01*
X018950Y017774D02*
X018905Y017774D01*
X018905Y017932D02*
X018950Y017932D01*
X018950Y018091D02*
X018900Y018091D01*
X018950Y018249D02*
X018835Y018249D01*
X018950Y018408D02*
X018706Y018408D01*
X018950Y018566D02*
X018205Y018566D01*
X018205Y018725D02*
X018950Y018725D01*
X018950Y018883D02*
X018205Y018883D01*
X018205Y019042D02*
X018950Y019042D01*
X018950Y019200D02*
X018205Y019200D01*
X018305Y019300D02*
X018305Y020180D01*
X018305Y019300D01*
X018305Y019359D02*
X018305Y019359D01*
X018305Y019517D02*
X018305Y019517D01*
X018305Y019676D02*
X018305Y019676D01*
X018305Y019834D02*
X018305Y019834D01*
X018305Y019993D02*
X018305Y019993D01*
X018305Y020151D02*
X018305Y020151D01*
X018305Y020180D02*
X018305Y020180D01*
X018305Y020310D02*
X018305Y020310D01*
X018305Y020468D02*
X018305Y020468D01*
X018305Y020627D02*
X018305Y020627D01*
X018305Y020785D02*
X018305Y020785D01*
X018305Y020944D02*
X018305Y020944D01*
X018205Y021102D02*
X018950Y021102D01*
X018950Y020944D02*
X018660Y020944D01*
X018810Y020785D02*
X018950Y020785D01*
X018950Y020627D02*
X018882Y020627D01*
X018905Y020468D02*
X018950Y020468D01*
X018950Y020310D02*
X018905Y020310D01*
X018905Y020151D02*
X018950Y020151D01*
X018950Y019993D02*
X018905Y019993D01*
X018902Y019834D02*
X018950Y019834D01*
X018950Y019676D02*
X018863Y019676D01*
X018950Y019517D02*
X018768Y019517D01*
X018950Y019359D02*
X018564Y019359D01*
X019910Y019359D02*
X021169Y019359D01*
X020964Y019517D02*
X019910Y019517D01*
X019910Y019676D02*
X020874Y019676D01*
X020830Y019834D02*
X019910Y019834D01*
X019910Y019993D02*
X020830Y019993D01*
X020830Y020151D02*
X019910Y020151D01*
X019910Y020310D02*
X020830Y020310D01*
X020830Y020468D02*
X019910Y020468D01*
X020180Y020580D02*
X020180Y021180D01*
X020180Y020580D01*
X020180Y020627D02*
X020180Y020627D01*
X020180Y020785D02*
X020180Y020785D01*
X020180Y020944D02*
X020180Y020944D01*
X020180Y021102D02*
X020180Y021102D01*
X020180Y021180D02*
X020180Y021180D01*
X020180Y021261D02*
X020180Y021261D01*
X020180Y021419D02*
X020180Y021419D01*
X020180Y021578D02*
X020180Y021578D01*
X020180Y021736D02*
X020180Y021736D01*
X020472Y021736D02*
X021530Y021736D01*
X021530Y021578D02*
X020631Y021578D01*
X020780Y021419D02*
X021530Y021419D01*
X021530Y021261D02*
X020780Y021261D01*
X020780Y021102D02*
X021530Y021102D01*
X021065Y020944D02*
X020780Y020944D01*
X020915Y020785D02*
X020634Y020785D01*
X020475Y020627D02*
X020850Y020627D01*
X021530Y019200D02*
X019910Y019200D01*
X019910Y019042D02*
X021530Y019042D01*
X021530Y018883D02*
X019910Y018883D01*
X019910Y018725D02*
X021530Y018725D01*
X021530Y018566D02*
X019910Y018566D01*
X019910Y018408D02*
X021029Y018408D01*
X020900Y018249D02*
X020459Y018249D01*
X020618Y018091D02*
X020835Y018091D01*
X020830Y017932D02*
X020776Y017932D01*
X020780Y017774D02*
X020830Y017774D01*
X022430Y020180D02*
X022430Y021180D01*
X022930Y021680D01*
X022930Y023930D01*
X022430Y024430D01*
X022430Y025680D01*
X021530Y024748D02*
X019910Y024748D01*
X019910Y024906D02*
X021075Y024906D01*
X020920Y025065D02*
X019910Y025065D01*
X019910Y025223D02*
X020854Y025223D01*
X020830Y025382D02*
X019910Y025382D01*
X019910Y025540D02*
X020830Y025540D01*
X020830Y025699D02*
X019910Y025699D01*
X019910Y025857D02*
X020830Y025857D01*
X020830Y026016D02*
X019910Y026016D01*
X020180Y026080D02*
X020180Y026680D01*
X020180Y026080D01*
X020180Y026174D02*
X020180Y026174D01*
X020180Y026333D02*
X020180Y026333D01*
X020180Y026491D02*
X020180Y026491D01*
X020180Y026650D02*
X020180Y026650D01*
X020180Y026680D02*
X020180Y026680D01*
X020180Y026808D02*
X020180Y026808D01*
X020180Y026967D02*
X020180Y026967D01*
X020180Y027125D02*
X020180Y027125D01*
X019910Y027284D02*
X021530Y027284D01*
X021530Y027442D02*
X019910Y027442D01*
X019910Y027601D02*
X021530Y027601D01*
X021530Y027759D02*
X019910Y027759D01*
X019910Y027918D02*
X021064Y027918D01*
X020915Y028076D02*
X019910Y028076D01*
X020583Y028235D02*
X020849Y028235D01*
X020830Y028393D02*
X020742Y028393D01*
X020780Y028552D02*
X020830Y028552D01*
X020830Y028710D02*
X020780Y028710D01*
X020780Y028869D02*
X020830Y028869D01*
X020830Y029027D02*
X020681Y029027D01*
X020523Y029186D02*
X020874Y029186D01*
X020966Y029344D02*
X019910Y029344D01*
X019910Y029503D02*
X021030Y029503D01*
X021030Y029661D02*
X019910Y029661D01*
X019910Y029820D02*
X021030Y029820D01*
X021030Y029978D02*
X019910Y029978D01*
X019910Y030137D02*
X021030Y030137D01*
X021030Y030295D02*
X019910Y030295D01*
X019910Y030454D02*
X021028Y030454D01*
X020900Y030612D02*
X019910Y030612D01*
X019910Y030771D02*
X020834Y030771D01*
X020830Y030929D02*
X019910Y030929D01*
X019910Y031088D02*
X020830Y031088D01*
X020830Y031246D02*
X019910Y031246D01*
X019910Y031405D02*
X020830Y031405D01*
X020830Y031563D02*
X020537Y031563D01*
X020695Y031722D02*
X020889Y031722D01*
X020780Y031880D02*
X021002Y031880D01*
X020780Y032039D02*
X021259Y032039D01*
X021601Y032039D02*
X022259Y032039D01*
X022002Y031880D02*
X021858Y031880D01*
X022601Y032039D02*
X023259Y032039D01*
X023002Y031880D02*
X022858Y031880D01*
X023601Y032039D02*
X024259Y032039D01*
X024002Y031880D02*
X023858Y031880D01*
X024530Y032197D02*
X020780Y032197D01*
X020728Y032356D02*
X024570Y032356D01*
X024698Y032514D02*
X020569Y032514D01*
X020180Y032514D02*
X020180Y032514D01*
X020180Y032356D02*
X020180Y032356D01*
X020180Y032197D02*
X020180Y032197D01*
X020180Y032055D02*
X020180Y031455D01*
X020180Y032055D01*
X020180Y032055D01*
X020180Y032039D02*
X020180Y032039D01*
X020180Y031880D02*
X020180Y031880D01*
X020180Y031722D02*
X020180Y031722D01*
X020180Y031563D02*
X020180Y031563D01*
X018950Y031563D02*
X018896Y031563D01*
X018905Y031405D02*
X018950Y031405D01*
X018950Y031246D02*
X018905Y031246D01*
X018905Y031088D02*
X018950Y031088D01*
X018950Y030929D02*
X018905Y030929D01*
X018892Y030771D02*
X018950Y030771D01*
X018950Y030612D02*
X018832Y030612D01*
X018950Y030454D02*
X018707Y030454D01*
X018950Y030295D02*
X018205Y030295D01*
X018305Y030300D02*
X018305Y031180D01*
X018305Y030300D01*
X018305Y030454D02*
X018305Y030454D01*
X018305Y030612D02*
X018305Y030612D01*
X018305Y030771D02*
X018305Y030771D01*
X018305Y030929D02*
X018305Y030929D01*
X018305Y031088D02*
X018305Y031088D01*
X018305Y031180D02*
X018305Y031180D01*
X018305Y031246D02*
X018305Y031246D01*
X018305Y031405D02*
X018305Y031405D01*
X018305Y031563D02*
X018305Y031563D01*
X018305Y031722D02*
X018305Y031722D01*
X018305Y031880D02*
X018305Y031880D01*
X018305Y032039D02*
X018305Y032039D01*
X018466Y032039D02*
X018950Y032039D01*
X018950Y032197D02*
X018205Y032197D01*
X018205Y032356D02*
X018950Y032356D01*
X018950Y032514D02*
X018205Y032514D01*
X018205Y032673D02*
X018950Y032673D01*
X018950Y032831D02*
X018205Y032831D01*
X018205Y032990D02*
X018950Y032990D01*
X018950Y033148D02*
X018339Y033148D01*
X018497Y033307D02*
X018950Y033307D01*
X018950Y033465D02*
X018719Y033465D01*
X018840Y033624D02*
X018950Y033624D01*
X018950Y033782D02*
X018905Y033782D01*
X018905Y033941D02*
X018950Y033941D01*
X018950Y034099D02*
X018905Y034099D01*
X018905Y034258D02*
X018950Y034258D01*
X018950Y034416D02*
X018905Y034416D01*
X018905Y034575D02*
X018950Y034575D01*
X018950Y034733D02*
X018841Y034733D01*
X018950Y034892D02*
X018722Y034892D01*
X018950Y035050D02*
X018448Y035050D01*
X018162Y035050D02*
X017448Y035050D01*
X017205Y035209D02*
X018950Y035209D01*
X018950Y035367D02*
X017205Y035367D01*
X017205Y035526D02*
X018950Y035526D01*
X018950Y035684D02*
X017205Y035684D01*
X017205Y035843D02*
X018950Y035843D01*
X018950Y036001D02*
X017205Y036001D01*
X017205Y036160D02*
X018950Y036160D01*
X018950Y036318D02*
X017205Y036318D01*
X017205Y036477D02*
X018950Y036477D01*
X018950Y036635D02*
X017205Y036635D01*
X017205Y036794D02*
X018950Y036794D01*
X016805Y037430D02*
X016805Y032680D01*
X016305Y032180D01*
X016305Y031180D01*
X016305Y029930D01*
X016805Y029430D01*
X016805Y027180D01*
X016305Y026680D01*
X016305Y025680D01*
X017305Y025680D01*
X018305Y025680D02*
X018305Y025680D01*
X018305Y024800D01*
X018305Y025680D01*
X018305Y025699D02*
X018305Y025699D01*
X018305Y025857D02*
X018305Y025857D01*
X018305Y026016D02*
X018305Y026016D01*
X018305Y026174D02*
X018305Y026174D01*
X018305Y026333D02*
X018305Y026333D01*
X018305Y026491D02*
X018305Y026491D01*
X018205Y026650D02*
X018950Y026650D01*
X018950Y026808D02*
X018205Y026808D01*
X018205Y026967D02*
X018950Y026967D01*
X018950Y027125D02*
X018205Y027125D01*
X018205Y027284D02*
X018950Y027284D01*
X018950Y027442D02*
X018205Y027442D01*
X018205Y027601D02*
X018950Y027601D01*
X018950Y027759D02*
X018205Y027759D01*
X018671Y027918D02*
X018950Y027918D01*
X018950Y028076D02*
X018820Y028076D01*
X018886Y028235D02*
X018950Y028235D01*
X018950Y028393D02*
X018905Y028393D01*
X018905Y028552D02*
X018950Y028552D01*
X018950Y028710D02*
X018905Y028710D01*
X018905Y028869D02*
X018950Y028869D01*
X018950Y029027D02*
X018905Y029027D01*
X018861Y029186D02*
X018950Y029186D01*
X018950Y029344D02*
X018769Y029344D01*
X018950Y029503D02*
X018563Y029503D01*
X018205Y029661D02*
X018950Y029661D01*
X018950Y029820D02*
X018205Y029820D01*
X018205Y029978D02*
X018950Y029978D01*
X018950Y030137D02*
X018205Y030137D01*
X016305Y029430D02*
X016305Y028680D01*
X016305Y027180D01*
X015805Y026680D01*
X015805Y024430D01*
X016305Y023930D01*
X016305Y023180D01*
X016305Y021680D01*
X015805Y021180D01*
X015805Y018930D01*
X016305Y018430D01*
X016305Y017680D01*
X016305Y016180D01*
X015805Y015680D01*
X015805Y012430D01*
X014805Y012430D02*
X014805Y015680D01*
X015305Y016180D01*
X015305Y017680D01*
X015305Y018430D01*
X014805Y018930D01*
X014805Y021180D01*
X015305Y021680D01*
X015305Y023180D01*
X015305Y023930D01*
X014805Y024430D01*
X014805Y026680D01*
X015305Y027180D01*
X015305Y028680D01*
X015305Y029430D01*
X014805Y029930D01*
X014805Y032180D01*
X015305Y032680D01*
X015305Y034180D01*
X016305Y034180D02*
X016305Y032680D01*
X015805Y032180D01*
X015805Y029930D01*
X016305Y029430D01*
X014805Y029430D02*
X014805Y027180D01*
X014305Y026680D01*
X014305Y025680D01*
X014305Y024430D01*
X014805Y023930D01*
X014805Y021680D01*
X014305Y021180D01*
X014305Y020180D01*
X014305Y018930D01*
X014805Y018430D01*
X014805Y016180D01*
X014305Y015680D01*
X014305Y014680D01*
X013305Y014680D02*
X013305Y015680D01*
X013805Y016180D01*
X013805Y018430D01*
X013305Y018930D01*
X013305Y020180D01*
X013305Y021180D01*
X013805Y021680D01*
X013805Y023930D01*
X013305Y024430D01*
X013305Y025680D01*
X013305Y026680D01*
X013805Y027180D01*
X013805Y029430D01*
X013305Y029930D01*
X013305Y031180D01*
X012305Y031180D02*
X012305Y029930D01*
X012805Y029430D01*
X012805Y027180D01*
X012305Y026680D01*
X012305Y025680D01*
X012305Y024430D01*
X012805Y023930D01*
X012805Y021680D01*
X012305Y021180D01*
X012305Y020180D01*
X012305Y018930D01*
X012805Y018430D01*
X012805Y016180D01*
X012305Y015680D01*
X012305Y014680D01*
X011305Y014680D02*
X011305Y015680D01*
X011805Y016180D01*
X011805Y018430D01*
X011305Y018930D01*
X011305Y020180D01*
X011305Y021180D01*
X011805Y021680D01*
X011805Y023930D01*
X011305Y024430D01*
X011305Y025680D01*
X011305Y026680D01*
X011805Y027180D01*
X011805Y029430D01*
X011305Y029930D01*
X011305Y031180D01*
X010305Y031180D02*
X010305Y029930D01*
X009805Y029430D01*
X009805Y016180D01*
X010305Y015680D01*
X010305Y014680D01*
X009305Y014680D02*
X009305Y017680D01*
X008155Y018280D02*
X008134Y018280D01*
X007660Y018754D01*
X007660Y020726D01*
X007806Y020580D01*
X008055Y020580D01*
X008155Y020580D01*
X008155Y018280D01*
X008155Y018408D02*
X008006Y018408D01*
X008155Y018566D02*
X007848Y018566D01*
X007689Y018725D02*
X008155Y018725D01*
X008155Y018883D02*
X007660Y018883D01*
X007660Y019042D02*
X008155Y019042D01*
X008155Y019200D02*
X007660Y019200D01*
X007660Y019359D02*
X008155Y019359D01*
X008155Y019517D02*
X007660Y019517D01*
X007660Y019676D02*
X008155Y019676D01*
X008155Y019834D02*
X007660Y019834D01*
X007660Y019993D02*
X008155Y019993D01*
X008155Y020151D02*
X007660Y020151D01*
X007660Y020310D02*
X008155Y020310D01*
X008155Y020468D02*
X007660Y020468D01*
X007660Y020627D02*
X007760Y020627D01*
X008055Y020627D02*
X008055Y020627D01*
X008055Y020580D02*
X008055Y021180D01*
X008055Y021180D01*
X008055Y021780D01*
X008155Y021780D01*
X008155Y022580D01*
X007806Y022580D01*
X007686Y022700D01*
X007660Y022700D01*
X007660Y021634D01*
X007806Y021780D01*
X008055Y021780D01*
X008055Y021180D01*
X008055Y021180D01*
X008055Y020580D01*
X008055Y020785D02*
X008055Y020785D01*
X008055Y020944D02*
X008055Y020944D01*
X008055Y021102D02*
X008055Y021102D01*
X008055Y021261D02*
X008055Y021261D01*
X008055Y021419D02*
X008055Y021419D01*
X008055Y021578D02*
X008055Y021578D01*
X008055Y021736D02*
X008055Y021736D01*
X008155Y021895D02*
X007660Y021895D01*
X007660Y022053D02*
X008155Y022053D01*
X008155Y022212D02*
X007660Y022212D01*
X007660Y022370D02*
X008155Y022370D01*
X008155Y022529D02*
X007660Y022529D01*
X007660Y022687D02*
X007699Y022687D01*
X006700Y022687D02*
X000560Y022687D01*
X000560Y022529D02*
X006700Y022529D01*
X006700Y022370D02*
X000560Y022370D01*
X000560Y022212D02*
X006700Y022212D01*
X006700Y022053D02*
X000560Y022053D01*
X000560Y021895D02*
X006700Y021895D01*
X006700Y021736D02*
X000560Y021736D01*
X000560Y021578D02*
X006700Y021578D01*
X006700Y021419D02*
X000560Y021419D01*
X000560Y021261D02*
X006700Y021261D01*
X006700Y021102D02*
X000560Y021102D01*
X000560Y020944D02*
X006700Y020944D01*
X006700Y020785D02*
X000560Y020785D01*
X000560Y020627D02*
X006700Y020627D01*
X006700Y020468D02*
X000560Y020468D01*
X000560Y020310D02*
X006700Y020310D01*
X006700Y020151D02*
X000560Y020151D01*
X000560Y019993D02*
X006700Y019993D01*
X006700Y019834D02*
X000560Y019834D01*
X000560Y019676D02*
X006700Y019676D01*
X006700Y019517D02*
X000560Y019517D01*
X000560Y019359D02*
X006700Y019359D01*
X006700Y019200D02*
X000560Y019200D01*
X000560Y019042D02*
X006700Y019042D01*
X006700Y018883D02*
X000560Y018883D01*
X000560Y018725D02*
X006700Y018725D01*
X006700Y018566D02*
X000560Y018566D01*
X000560Y018408D02*
X006722Y018408D01*
X006807Y018249D02*
X000560Y018249D01*
X000560Y018091D02*
X006966Y018091D01*
X007124Y017932D02*
X000560Y017932D01*
X000560Y017774D02*
X007283Y017774D01*
X007441Y017615D02*
X000560Y017615D01*
X000560Y017457D02*
X007455Y017457D01*
X007588Y017298D02*
X000560Y017298D01*
X000560Y017140D02*
X007747Y017140D01*
X008155Y016981D02*
X000560Y016981D01*
X000560Y016823D02*
X008155Y016823D01*
X008155Y016664D02*
X000560Y016664D01*
X000560Y016506D02*
X008155Y016506D01*
X008155Y016347D02*
X000560Y016347D01*
X000560Y016189D02*
X007715Y016189D01*
X007806Y016280D02*
X007455Y015929D01*
X007455Y015680D01*
X008055Y015680D01*
X008055Y015680D01*
X008055Y015680D01*
X008055Y016280D01*
X007806Y016280D01*
X008055Y016189D02*
X008055Y016189D01*
X008055Y016030D02*
X008055Y016030D01*
X008055Y015872D02*
X008055Y015872D01*
X008055Y015713D02*
X008055Y015713D01*
X008055Y015680D02*
X007455Y015680D01*
X007455Y015431D01*
X007806Y015080D01*
X008055Y015080D01*
X008055Y015680D01*
X008055Y015555D02*
X008055Y015555D01*
X008055Y015396D02*
X008055Y015396D01*
X008055Y015238D02*
X008055Y015238D01*
X008155Y015079D02*
X000560Y015079D01*
X000560Y014921D02*
X008155Y014921D01*
X008155Y014762D02*
X000560Y014762D01*
X000560Y014604D02*
X008155Y014604D01*
X008155Y014445D02*
X000560Y014445D01*
X000560Y014287D02*
X008155Y014287D01*
X008155Y014128D02*
X000560Y014128D01*
X000560Y013970D02*
X008155Y013970D01*
X008155Y013811D02*
X000560Y013811D01*
X000560Y013653D02*
X008155Y013653D01*
X008155Y013494D02*
X000560Y013494D01*
X000560Y013336D02*
X008155Y013336D01*
X008155Y013177D02*
X000560Y013177D01*
X000560Y013019D02*
X008155Y013019D01*
X008155Y012860D02*
X000560Y012860D01*
X000560Y012702D02*
X008155Y012702D01*
X008155Y012543D02*
X000560Y012543D01*
X000560Y012385D02*
X008155Y012385D01*
X008155Y012226D02*
X000560Y012226D01*
X000560Y012068D02*
X008227Y012068D01*
X008385Y011909D02*
X000560Y011909D01*
X000560Y011751D02*
X008544Y011751D01*
X008702Y011592D02*
X000560Y011592D01*
X000560Y011434D02*
X008861Y011434D01*
X009019Y011275D02*
X000560Y011275D01*
X000560Y011117D02*
X009178Y011117D01*
X009280Y010958D02*
X000560Y010958D01*
X000560Y010800D02*
X009280Y010800D01*
X009280Y010641D02*
X000560Y010641D01*
X000560Y010483D02*
X009280Y010483D01*
X009280Y010324D02*
X000560Y010324D01*
X000560Y010166D02*
X009280Y010166D01*
X009280Y010007D02*
X000560Y010007D01*
X000560Y009849D02*
X009280Y009849D01*
X009280Y009690D02*
X000560Y009690D01*
X000560Y009532D02*
X009280Y009532D01*
X009280Y009373D02*
X000560Y009373D01*
X000560Y009215D02*
X009280Y009215D01*
X009280Y009056D02*
X000560Y009056D01*
X000560Y008898D02*
X009280Y008898D01*
X009280Y008739D02*
X000560Y008739D01*
X000560Y008581D02*
X009280Y008581D01*
X009280Y008422D02*
X000560Y008422D01*
X000560Y008264D02*
X009280Y008264D01*
X009280Y008105D02*
X000560Y008105D01*
X000560Y007947D02*
X009280Y007947D01*
X009280Y007788D02*
X000560Y007788D01*
X000560Y007630D02*
X009280Y007630D01*
X009280Y007471D02*
X000560Y007471D01*
X000560Y007313D02*
X009280Y007313D01*
X009280Y007154D02*
X000560Y007154D01*
X000560Y006996D02*
X009280Y006996D01*
X009280Y006837D02*
X000560Y006837D01*
X000560Y006679D02*
X009280Y006679D01*
X009280Y006520D02*
X000560Y006520D01*
X000560Y006362D02*
X009280Y006362D01*
X009280Y006203D02*
X000560Y006203D01*
X000560Y006045D02*
X009280Y006045D01*
X009280Y005886D02*
X000560Y005886D01*
X000560Y005728D02*
X009280Y005728D01*
X009280Y005569D02*
X000560Y005569D01*
X000560Y005411D02*
X009280Y005411D01*
X009280Y005252D02*
X000560Y005252D01*
X000560Y005094D02*
X009280Y005094D01*
X009280Y004935D02*
X000560Y004935D01*
X000560Y004777D02*
X009280Y004777D01*
X009280Y004618D02*
X000560Y004618D01*
X000560Y004460D02*
X009280Y004460D01*
X009280Y004301D02*
X000560Y004301D01*
X000560Y004143D02*
X009280Y004143D01*
X008829Y003984D02*
X008531Y003984D01*
X007829Y003984D02*
X007531Y003984D01*
X006829Y003984D02*
X005031Y003984D01*
X004945Y004070D02*
X004700Y004070D01*
X004700Y003450D01*
X005320Y003450D01*
X005320Y003695D01*
X004945Y004070D01*
X004700Y003984D02*
X004660Y003984D01*
X004660Y004070D02*
X004415Y004070D01*
X004180Y003835D01*
X003945Y004070D01*
X003700Y004070D01*
X003700Y003450D01*
X003660Y003450D01*
X003660Y004070D01*
X003415Y004070D01*
X003040Y003695D01*
X003040Y003450D01*
X003660Y003450D01*
X003660Y003410D01*
X003040Y003410D01*
X003040Y003165D01*
X003275Y002930D01*
X003040Y002695D01*
X003040Y002450D01*
X003660Y002450D01*
X003660Y003410D01*
X003700Y003410D01*
X003700Y003450D01*
X004660Y003450D01*
X004660Y004070D01*
X004660Y003826D02*
X004700Y003826D01*
X004700Y003667D02*
X004660Y003667D01*
X004660Y003509D02*
X004700Y003509D01*
X004700Y003450D02*
X004660Y003450D01*
X004660Y003410D01*
X004700Y003410D01*
X004700Y003450D01*
X004700Y003410D02*
X005320Y003410D01*
X005320Y003165D01*
X005085Y002930D01*
X005320Y002695D01*
X005320Y002450D01*
X004700Y002450D01*
X004700Y002410D01*
X005320Y002410D01*
X005320Y002165D01*
X004945Y001790D01*
X004700Y001790D01*
X004700Y002410D01*
X004660Y002410D01*
X004660Y001790D01*
X004415Y001790D01*
X004180Y002025D01*
X003945Y001790D01*
X003700Y001790D01*
X003700Y002410D01*
X003700Y002450D01*
X004660Y002450D01*
X004660Y003410D01*
X004320Y003410D01*
X003700Y003410D01*
X003700Y002790D01*
X003700Y002450D01*
X003660Y002450D01*
X003660Y002410D01*
X003700Y002410D01*
X004040Y002410D01*
X004660Y002410D01*
X004660Y002450D01*
X004700Y002450D01*
X004700Y002790D01*
X004700Y003410D01*
X004700Y003350D02*
X004660Y003350D01*
X004660Y003192D02*
X004700Y003192D01*
X004700Y003033D02*
X004660Y003033D01*
X004660Y002875D02*
X004700Y002875D01*
X004700Y002716D02*
X004660Y002716D01*
X004660Y002558D02*
X004700Y002558D01*
X004700Y002399D02*
X004660Y002399D01*
X004660Y002241D02*
X004700Y002241D01*
X004700Y002082D02*
X004660Y002082D01*
X004660Y001924D02*
X004700Y001924D01*
X005079Y001924D02*
X006781Y001924D01*
X006623Y002082D02*
X005237Y002082D01*
X005320Y002241D02*
X006540Y002241D01*
X006540Y002399D02*
X005320Y002399D01*
X005320Y002558D02*
X006540Y002558D01*
X006561Y002716D02*
X005299Y002716D01*
X005141Y002875D02*
X006719Y002875D01*
X006672Y003033D02*
X005188Y003033D01*
X005320Y003192D02*
X006540Y003192D01*
X006540Y003350D02*
X005320Y003350D01*
X005320Y003509D02*
X006540Y003509D01*
X006540Y003667D02*
X005320Y003667D01*
X005190Y003826D02*
X006670Y003826D01*
X007180Y002430D02*
X007180Y002180D01*
X007805Y001555D01*
X010180Y001555D01*
X010680Y002055D01*
X010680Y009180D01*
X011805Y010305D01*
X011805Y015680D01*
X012305Y016180D01*
X012305Y017680D01*
X013305Y017680D02*
X013305Y018430D01*
X012805Y018930D01*
X012805Y021180D01*
X013305Y021680D01*
X013305Y023180D01*
X013305Y023930D01*
X012805Y024430D01*
X012805Y026680D01*
X013305Y027180D01*
X013305Y028680D01*
X013305Y029430D01*
X012805Y029930D01*
X012805Y032180D01*
X013305Y032680D01*
X013305Y034180D01*
X012305Y034180D02*
X012305Y033555D01*
X010805Y032055D01*
X009055Y032055D01*
X008555Y031555D01*
X008555Y012305D01*
X009680Y011180D01*
X009680Y002930D01*
X010180Y002430D01*
X011579Y001924D02*
X011781Y001924D01*
X012579Y001924D02*
X012781Y001924D01*
X013579Y001924D02*
X013781Y001924D01*
X014579Y001924D02*
X014781Y001924D01*
X015579Y001924D02*
X015781Y001924D01*
X015180Y002430D02*
X014680Y002930D01*
X014680Y006805D01*
X015305Y007430D01*
X015305Y014680D01*
X016305Y014680D02*
X017305Y014680D01*
X018305Y014680D02*
X018305Y014680D01*
X018305Y014604D02*
X018305Y014604D01*
X018305Y014762D02*
X018305Y014762D01*
X018305Y014921D02*
X018305Y014921D01*
X018305Y015079D02*
X018305Y015079D01*
X018305Y015238D02*
X018305Y015238D01*
X018305Y015396D02*
X018305Y015396D01*
X018305Y014445D02*
X018305Y014445D01*
X018305Y014287D02*
X018305Y014287D01*
X018305Y014128D02*
X018305Y014128D01*
X018305Y013970D02*
X018305Y013970D01*
X016305Y014680D02*
X016305Y015680D01*
X016805Y016180D01*
X016805Y018430D01*
X016305Y018930D01*
X016305Y020180D01*
X017305Y020180D01*
X016305Y020180D02*
X016305Y021180D01*
X016805Y021680D01*
X016805Y023930D01*
X016305Y024430D01*
X016305Y025680D01*
X018305Y025540D02*
X018305Y025540D01*
X018305Y025382D02*
X018305Y025382D01*
X018305Y025223D02*
X018305Y025223D01*
X018305Y025065D02*
X018305Y025065D01*
X018305Y024906D02*
X018305Y024906D01*
X018205Y024748D02*
X018950Y024748D01*
X018950Y024906D02*
X018646Y024906D01*
X018803Y025065D02*
X018950Y025065D01*
X018950Y025223D02*
X018878Y025223D01*
X018905Y025382D02*
X018950Y025382D01*
X018950Y025540D02*
X018905Y025540D01*
X018905Y025699D02*
X018950Y025699D01*
X018950Y025857D02*
X018905Y025857D01*
X018904Y026016D02*
X018950Y026016D01*
X018950Y026174D02*
X018866Y026174D01*
X018950Y026333D02*
X018776Y026333D01*
X018950Y026491D02*
X018584Y026491D01*
X020523Y026174D02*
X020869Y026174D01*
X020954Y026333D02*
X020681Y026333D01*
X020780Y026491D02*
X021144Y026491D01*
X020780Y026650D02*
X021530Y026650D01*
X021530Y026808D02*
X020780Y026808D01*
X020742Y026967D02*
X021530Y026967D01*
X021530Y027125D02*
X020583Y027125D01*
X021430Y028680D02*
X021430Y031180D01*
X019910Y032673D02*
X024857Y032673D01*
X025015Y032831D02*
X019910Y032831D01*
X019910Y032990D02*
X025030Y032990D01*
X025030Y033148D02*
X019910Y033148D01*
X019910Y033307D02*
X021295Y033307D01*
X021565Y033307D02*
X022295Y033307D01*
X022565Y033307D02*
X023295Y033307D01*
X023565Y033307D02*
X024295Y033307D01*
X024565Y033307D02*
X025030Y033307D01*
X025016Y033465D02*
X024844Y033465D01*
X024016Y033465D02*
X023844Y033465D01*
X023016Y033465D02*
X022844Y033465D01*
X022016Y033465D02*
X021844Y033465D01*
X021016Y033465D02*
X020439Y033465D01*
X020597Y033624D02*
X020895Y033624D01*
X020830Y033782D02*
X020756Y033782D01*
X020780Y033941D02*
X020830Y033941D01*
X020830Y034099D02*
X020780Y034099D01*
X020780Y034258D02*
X020830Y034258D01*
X020830Y034416D02*
X020667Y034416D01*
X020509Y034575D02*
X020830Y034575D01*
X020894Y034733D02*
X019910Y034733D01*
X019910Y034892D02*
X021013Y034892D01*
X021847Y034892D02*
X022013Y034892D01*
X022847Y034892D02*
X023013Y034892D01*
X023847Y034892D02*
X024013Y034892D01*
X024847Y034892D02*
X025013Y034892D01*
X025430Y034180D02*
X025430Y032680D01*
X024930Y032180D01*
X024930Y029930D01*
X025430Y029430D01*
X025430Y028680D01*
X025430Y027180D01*
X024930Y026680D01*
X024930Y024430D01*
X025430Y023930D01*
X025430Y023180D01*
X025430Y021680D01*
X024930Y021180D01*
X024930Y018930D01*
X025430Y018430D01*
X025430Y017680D01*
X025430Y016180D01*
X024930Y015680D01*
X024930Y013305D01*
X025277Y012860D02*
X025583Y012860D01*
X025443Y013019D02*
X025417Y013019D01*
X025930Y013305D02*
X025930Y015680D01*
X026430Y016180D01*
X026430Y017680D01*
X026430Y018430D01*
X025930Y018930D01*
X025930Y021180D01*
X026430Y021680D01*
X026430Y023180D01*
X026430Y023930D01*
X025930Y024430D01*
X025930Y026680D01*
X026430Y027180D01*
X026430Y028680D01*
X026430Y029430D01*
X025930Y029930D01*
X025930Y032180D01*
X026430Y032680D01*
X026430Y034180D01*
X026013Y034892D02*
X025847Y034892D01*
X026847Y034892D02*
X027013Y034892D01*
X026430Y031180D02*
X026430Y029930D01*
X026930Y029430D01*
X026930Y027180D01*
X026430Y026680D01*
X026430Y025680D01*
X026430Y024430D01*
X026930Y023930D01*
X026930Y021680D01*
X026430Y021180D01*
X026430Y020180D01*
X026430Y018930D01*
X026930Y018430D01*
X026930Y016180D01*
X026430Y015680D01*
X026430Y014680D01*
X025430Y014680D02*
X025430Y015680D01*
X025930Y016180D01*
X025930Y018430D01*
X025430Y018930D01*
X025430Y020180D01*
X025430Y021180D01*
X025930Y021680D01*
X025930Y023930D01*
X025430Y024430D01*
X025430Y025680D01*
X025430Y026680D01*
X025930Y027180D01*
X025930Y029430D01*
X025430Y029930D01*
X025430Y031180D01*
X024430Y031180D02*
X024430Y029930D01*
X024930Y029430D01*
X024930Y027680D01*
X024430Y027180D01*
X024430Y025680D01*
X024430Y024430D01*
X024930Y023930D01*
X024930Y021680D01*
X024430Y021180D01*
X024430Y020180D01*
X024430Y018930D01*
X024930Y018430D01*
X024930Y016180D01*
X024430Y015680D01*
X024430Y014680D01*
X026417Y013019D02*
X026443Y013019D01*
X026583Y012860D02*
X026277Y012860D01*
X030529Y015713D02*
X031705Y015713D01*
X031705Y015872D02*
X030687Y015872D01*
X030801Y016030D02*
X031806Y016030D01*
X032035Y019359D02*
X033294Y019359D01*
X033089Y019517D02*
X032035Y019517D01*
X032035Y019676D02*
X032999Y019676D01*
X032955Y019834D02*
X032035Y019834D01*
X032035Y019993D02*
X032955Y019993D01*
X032955Y020151D02*
X032035Y020151D01*
X032035Y020310D02*
X032955Y020310D01*
X032955Y020468D02*
X032035Y020468D01*
X032305Y020580D02*
X032305Y021180D01*
X032305Y020580D01*
X032305Y020627D02*
X032305Y020627D01*
X032305Y020785D02*
X032305Y020785D01*
X032305Y020944D02*
X032305Y020944D01*
X032305Y021102D02*
X032305Y021102D01*
X032305Y021180D02*
X032305Y021180D01*
X032305Y021261D02*
X032305Y021261D01*
X032305Y021419D02*
X032305Y021419D01*
X032305Y021578D02*
X032305Y021578D01*
X032305Y021736D02*
X032305Y021736D01*
X032597Y021736D02*
X033655Y021736D01*
X033655Y021578D02*
X032756Y021578D01*
X032905Y021419D02*
X033655Y021419D01*
X033655Y021261D02*
X032905Y021261D01*
X032905Y021102D02*
X033655Y021102D01*
X033190Y020944D02*
X032905Y020944D01*
X033040Y020785D02*
X032759Y020785D01*
X032600Y020627D02*
X032975Y020627D01*
X031075Y020627D02*
X031007Y020627D01*
X031030Y020468D02*
X031075Y020468D01*
X031075Y020310D02*
X031030Y020310D01*
X031030Y020151D02*
X031075Y020151D01*
X031075Y019993D02*
X031030Y019993D01*
X031027Y019834D02*
X031075Y019834D01*
X031075Y019676D02*
X030988Y019676D01*
X031075Y019517D02*
X030893Y019517D01*
X031075Y019359D02*
X030689Y019359D01*
X030430Y019359D02*
X030430Y019359D01*
X030430Y019300D02*
X030430Y020180D01*
X030430Y019300D01*
X030430Y019517D02*
X030430Y019517D01*
X030430Y019676D02*
X030430Y019676D01*
X030430Y019834D02*
X030430Y019834D01*
X030430Y019993D02*
X030430Y019993D01*
X030430Y020151D02*
X030430Y020151D01*
X030430Y020180D02*
X030430Y020180D01*
X030430Y020310D02*
X030430Y020310D01*
X030430Y020468D02*
X030430Y020468D01*
X030430Y020627D02*
X030430Y020627D01*
X030430Y020785D02*
X030430Y020785D01*
X030430Y020944D02*
X030430Y020944D01*
X030785Y020944D02*
X031075Y020944D01*
X031075Y021102D02*
X028918Y021102D01*
X028830Y020944D02*
X029065Y020944D01*
X029076Y021261D02*
X031075Y021261D01*
X031075Y021419D02*
X029235Y021419D01*
X029321Y021578D02*
X031075Y021578D01*
X031075Y021736D02*
X029330Y021736D01*
X029330Y021895D02*
X031075Y021895D01*
X031075Y022053D02*
X029330Y022053D01*
X029330Y022212D02*
X031075Y022212D01*
X031075Y022370D02*
X030718Y022370D01*
X030907Y022529D02*
X031075Y022529D01*
X031075Y022687D02*
X030991Y022687D01*
X031030Y022846D02*
X031075Y022846D01*
X031075Y023004D02*
X031030Y023004D01*
X031030Y023163D02*
X031075Y023163D01*
X031075Y023321D02*
X031030Y023321D01*
X031030Y023480D02*
X031075Y023480D01*
X031075Y023638D02*
X031006Y023638D01*
X030940Y023797D02*
X031075Y023797D01*
X031075Y023955D02*
X030783Y023955D01*
X031075Y024114D02*
X029287Y024114D01*
X029154Y024272D02*
X031075Y024272D01*
X031075Y024431D02*
X028995Y024431D01*
X028837Y024589D02*
X031075Y024589D01*
X031075Y024748D02*
X028830Y024748D01*
X028830Y024906D02*
X029075Y024906D01*
X029785Y024906D02*
X030089Y024906D01*
X030430Y024906D02*
X030430Y024906D01*
X030430Y024800D02*
X030430Y025680D01*
X030430Y025680D01*
X030430Y024800D01*
X030430Y025065D02*
X030430Y025065D01*
X030430Y025223D02*
X030430Y025223D01*
X030430Y025382D02*
X030430Y025382D01*
X030430Y025540D02*
X030430Y025540D01*
X030430Y025699D02*
X030430Y025699D01*
X030430Y025857D02*
X030430Y025857D01*
X030430Y026016D02*
X030430Y026016D01*
X030430Y026174D02*
X030430Y026174D01*
X030430Y026333D02*
X030430Y026333D01*
X030430Y026491D02*
X030430Y026491D01*
X030709Y026491D02*
X031075Y026491D01*
X031075Y026333D02*
X030901Y026333D01*
X030991Y026174D02*
X031075Y026174D01*
X031075Y026016D02*
X031029Y026016D01*
X031030Y025857D02*
X031075Y025857D01*
X031075Y025699D02*
X031030Y025699D01*
X031030Y025540D02*
X031075Y025540D01*
X031075Y025382D02*
X031030Y025382D01*
X031003Y025223D02*
X031075Y025223D01*
X031075Y025065D02*
X030928Y025065D01*
X031075Y024906D02*
X030771Y024906D01*
X030077Y023955D02*
X029783Y023955D01*
X032035Y023955D02*
X033202Y023955D01*
X033045Y023797D02*
X032035Y023797D01*
X032035Y024114D02*
X033655Y024114D01*
X033655Y024272D02*
X032035Y024272D01*
X032035Y024431D02*
X033655Y024431D01*
X033655Y024589D02*
X032035Y024589D01*
X032035Y024748D02*
X033655Y024748D01*
X033200Y024906D02*
X032035Y024906D01*
X032035Y025065D02*
X033045Y025065D01*
X032979Y025223D02*
X032035Y025223D01*
X032035Y025382D02*
X032955Y025382D01*
X032955Y025540D02*
X032035Y025540D01*
X032035Y025699D02*
X032955Y025699D01*
X032955Y025857D02*
X032035Y025857D01*
X032035Y026016D02*
X032955Y026016D01*
X034555Y025680D02*
X034555Y024430D01*
X035055Y023930D01*
X032979Y023638D02*
X032695Y023638D01*
X032854Y023480D02*
X032955Y023480D01*
X032955Y023321D02*
X032905Y023321D01*
X032905Y023163D02*
X032955Y023163D01*
X032955Y023004D02*
X032905Y023004D01*
X032955Y022846D02*
X032819Y022846D01*
X032661Y022687D02*
X032994Y022687D01*
X033078Y022529D02*
X032035Y022529D01*
X032035Y022370D02*
X033267Y022370D01*
X033655Y022212D02*
X032035Y022212D01*
X032035Y022053D02*
X033655Y022053D01*
X033655Y021895D02*
X032035Y021895D01*
X031075Y020785D02*
X030935Y020785D01*
X030075Y020944D02*
X029795Y020944D01*
X029430Y020180D02*
X028430Y020180D01*
X029691Y019359D02*
X030171Y019359D01*
X029967Y019517D02*
X029896Y019517D01*
X029718Y022370D02*
X030142Y022370D01*
X029953Y022529D02*
X029907Y022529D01*
X029430Y025680D02*
X028430Y025680D01*
X028906Y026333D02*
X028954Y026333D01*
X028830Y026491D02*
X029144Y026491D01*
X028965Y026650D02*
X031075Y026650D01*
X031075Y026808D02*
X029124Y026808D01*
X029275Y026967D02*
X031075Y026967D01*
X030151Y026491D02*
X029716Y026491D01*
X029906Y026333D02*
X029959Y026333D01*
X033555Y028680D02*
X033555Y031180D01*
X021530Y024589D02*
X019910Y024589D01*
X019910Y024431D02*
X021530Y024431D01*
X021530Y024272D02*
X019910Y024272D01*
X019910Y024114D02*
X021530Y024114D01*
X021077Y023955D02*
X019910Y023955D01*
X019910Y023797D02*
X020920Y023797D01*
X020854Y023638D02*
X020570Y023638D01*
X020729Y023480D02*
X020830Y023480D01*
X020830Y023321D02*
X020780Y023321D01*
X020780Y023163D02*
X020830Y023163D01*
X020830Y023004D02*
X020780Y023004D01*
X020830Y022846D02*
X020694Y022846D01*
X020536Y022687D02*
X020869Y022687D01*
X020953Y022529D02*
X019910Y022529D01*
X019910Y022370D02*
X021142Y022370D01*
X021530Y022212D02*
X019910Y022212D01*
X019910Y022053D02*
X021530Y022053D01*
X021530Y021895D02*
X019910Y021895D01*
X018950Y021895D02*
X018205Y021895D01*
X018205Y022053D02*
X018950Y022053D01*
X018950Y022212D02*
X018205Y022212D01*
X018593Y022370D02*
X018950Y022370D01*
X018950Y022529D02*
X018782Y022529D01*
X018866Y022687D02*
X018950Y022687D01*
X018950Y022846D02*
X018905Y022846D01*
X018905Y023004D02*
X018950Y023004D01*
X018950Y023163D02*
X018905Y023163D01*
X018905Y023321D02*
X018950Y023321D01*
X018950Y023480D02*
X018905Y023480D01*
X018881Y023638D02*
X018950Y023638D01*
X018950Y023797D02*
X018815Y023797D01*
X018950Y023955D02*
X018658Y023955D01*
X018950Y024114D02*
X018205Y024114D01*
X018205Y024272D02*
X018950Y024272D01*
X018950Y024431D02*
X018205Y024431D01*
X018205Y024589D02*
X018950Y024589D01*
X018950Y021736D02*
X018205Y021736D01*
X018205Y021578D02*
X018950Y021578D01*
X018950Y021419D02*
X018205Y021419D01*
X018205Y021261D02*
X018950Y021261D01*
X014305Y021680D02*
X013805Y021180D01*
X013805Y018930D01*
X014305Y018430D01*
X014305Y017680D01*
X014305Y016180D01*
X013805Y015680D01*
X013805Y012430D01*
X012805Y012430D02*
X012805Y015680D01*
X013305Y016180D01*
X013305Y017680D01*
X010305Y020180D02*
X010305Y021180D01*
X010805Y021680D01*
X010805Y023930D01*
X010305Y024430D01*
X010305Y025680D01*
X013805Y026680D02*
X013805Y024430D01*
X014305Y023930D01*
X014305Y023180D01*
X014305Y021680D01*
X007763Y021736D02*
X007660Y021736D01*
X006700Y022846D02*
X000560Y022846D01*
X000560Y023004D02*
X006700Y023004D01*
X006700Y023163D02*
X000560Y023163D01*
X000560Y023321D02*
X006700Y023321D01*
X006700Y023480D02*
X000560Y023480D01*
X000560Y023638D02*
X006700Y023638D01*
X006700Y023797D02*
X000560Y023797D01*
X000560Y023955D02*
X006700Y023955D01*
X006700Y024114D02*
X000560Y024114D01*
X000560Y024272D02*
X006700Y024272D01*
X006700Y024431D02*
X000560Y024431D01*
X000560Y024589D02*
X006700Y024589D01*
X006700Y024748D02*
X000560Y024748D01*
X000560Y024906D02*
X006700Y024906D01*
X006700Y025065D02*
X000560Y025065D01*
X000560Y025223D02*
X006700Y025223D01*
X006700Y025382D02*
X000560Y025382D01*
X000560Y025540D02*
X006700Y025540D01*
X006700Y025699D02*
X000560Y025699D01*
X000560Y025857D02*
X001723Y025857D01*
X001790Y025790D02*
X001415Y026165D01*
X001415Y026695D01*
X001650Y026930D01*
X001415Y027165D01*
X001415Y027695D01*
X001650Y027930D01*
X001415Y028165D01*
X001415Y028695D01*
X001650Y028930D01*
X001415Y029165D01*
X001415Y029629D01*
X001078Y029966D01*
X000966Y030078D01*
X000905Y030225D01*
X000905Y031635D01*
X000966Y031782D01*
X001341Y032157D01*
X001415Y032231D01*
X001415Y032695D01*
X001650Y032930D01*
X001415Y033165D01*
X001415Y033695D01*
X001790Y034070D01*
X002320Y034070D01*
X002555Y033835D01*
X002790Y034070D01*
X003320Y034070D01*
X003692Y033698D01*
X003817Y033750D01*
X004043Y033750D01*
X004253Y033663D01*
X004413Y033503D01*
X004500Y033293D01*
X004500Y033115D01*
X004541Y033115D01*
X004747Y033030D01*
X004905Y032872D01*
X004990Y032666D01*
X004990Y032444D01*
X004905Y032238D01*
X004830Y032163D01*
X004830Y031475D01*
X004769Y031328D01*
X004657Y031216D01*
X004398Y030957D01*
X004503Y030913D01*
X004663Y030753D01*
X004750Y030543D01*
X004750Y030317D01*
X004663Y030107D01*
X004580Y030024D01*
X004580Y028975D01*
X004519Y028828D01*
X004407Y028716D01*
X003782Y028091D01*
X003635Y028030D01*
X003560Y028030D01*
X003460Y027930D01*
X003695Y027695D01*
X003695Y027165D01*
X003460Y026930D01*
X003695Y026695D01*
X003695Y026165D01*
X003320Y025790D01*
X002790Y025790D01*
X002555Y026025D01*
X002320Y025790D01*
X001790Y025790D01*
X001564Y026016D02*
X000560Y026016D01*
X000560Y026174D02*
X001415Y026174D01*
X001415Y026333D02*
X000560Y026333D01*
X000560Y026491D02*
X001415Y026491D01*
X001415Y026650D02*
X000560Y026650D01*
X000560Y026808D02*
X001528Y026808D01*
X001613Y026967D02*
X000560Y026967D01*
X000560Y027125D02*
X001455Y027125D01*
X001415Y027284D02*
X000560Y027284D01*
X000560Y027442D02*
X001415Y027442D01*
X001415Y027601D02*
X000560Y027601D01*
X000560Y027759D02*
X001479Y027759D01*
X001637Y027918D02*
X000560Y027918D01*
X000560Y028076D02*
X001504Y028076D01*
X001415Y028235D02*
X000560Y028235D01*
X000560Y028393D02*
X001415Y028393D01*
X001415Y028552D02*
X000560Y028552D01*
X000560Y028710D02*
X001430Y028710D01*
X001588Y028869D02*
X000560Y028869D01*
X000560Y029027D02*
X001553Y029027D01*
X001415Y029186D02*
X000560Y029186D01*
X000560Y029344D02*
X001415Y029344D01*
X001415Y029503D02*
X000560Y029503D01*
X000560Y029661D02*
X001383Y029661D01*
X001225Y029820D02*
X000560Y029820D01*
X000560Y029978D02*
X001066Y029978D01*
X000942Y030137D02*
X000560Y030137D01*
X000560Y030295D02*
X000905Y030295D01*
X000905Y030454D02*
X000560Y030454D01*
X000560Y030612D02*
X000905Y030612D01*
X000905Y030771D02*
X000560Y030771D01*
X000560Y030929D02*
X000905Y030929D01*
X000905Y031088D02*
X000560Y031088D01*
X000560Y031246D02*
X000905Y031246D01*
X000905Y031405D02*
X000560Y031405D01*
X000560Y031563D02*
X000905Y031563D01*
X000941Y031722D02*
X000560Y031722D01*
X000560Y031880D02*
X001064Y031880D01*
X001223Y032039D02*
X000560Y032039D01*
X000560Y032197D02*
X001381Y032197D01*
X001415Y032356D02*
X000560Y032356D01*
X000560Y032514D02*
X001415Y032514D01*
X001415Y032673D02*
X000560Y032673D01*
X000560Y032831D02*
X001551Y032831D01*
X001590Y032990D02*
X000560Y032990D01*
X000560Y033148D02*
X001432Y033148D01*
X001415Y033307D02*
X000560Y033307D01*
X000560Y033465D02*
X001415Y033465D01*
X001415Y033624D02*
X000560Y033624D01*
X000560Y033782D02*
X001502Y033782D01*
X001660Y033941D02*
X000560Y033941D01*
X000560Y034099D02*
X006457Y034099D01*
X006299Y034258D02*
X000560Y034258D01*
X000560Y034416D02*
X006140Y034416D01*
X005982Y034575D02*
X000560Y034575D01*
X000560Y034733D02*
X005823Y034733D01*
X005665Y034892D02*
X000560Y034892D01*
X000560Y035050D02*
X005506Y035050D01*
X005348Y035209D02*
X000560Y035209D01*
X000560Y035367D02*
X005189Y035367D01*
X005031Y035526D02*
X000560Y035526D01*
X000560Y035684D02*
X004872Y035684D01*
X004362Y035843D02*
X003998Y035843D01*
X003362Y035843D02*
X000560Y035843D01*
X000560Y036001D02*
X003204Y036001D01*
X003045Y036160D02*
X000560Y036160D01*
X000560Y036318D02*
X001041Y036318D01*
X001084Y036293D02*
X001394Y036210D01*
X001716Y036210D01*
X002026Y036293D01*
X002304Y036454D01*
X002531Y036681D01*
X002692Y036959D01*
X002688Y036952D02*
X003253Y036952D01*
X003138Y036794D02*
X002596Y036794D01*
X002485Y036635D02*
X003040Y036635D01*
X003040Y036477D02*
X002327Y036477D01*
X002069Y036318D02*
X003040Y036318D01*
X001084Y036293D02*
X000806Y036454D01*
X000579Y036681D01*
X000560Y036713D01*
X000560Y003147D01*
X000579Y003179D01*
X000806Y003406D01*
X001084Y003567D01*
X001394Y003650D01*
X001716Y003650D01*
X002026Y003567D01*
X002304Y003406D01*
X002531Y003179D01*
X002692Y002901D01*
X002775Y002591D01*
X002775Y002269D01*
X002692Y001959D01*
X002531Y001681D01*
X002304Y001454D01*
X002026Y001293D01*
X001716Y001210D01*
X001394Y001210D01*
X001084Y001293D01*
X000806Y001454D01*
X000579Y001681D01*
X000560Y001713D01*
X000560Y001607D02*
X000653Y001607D01*
X000560Y001448D02*
X000816Y001448D01*
X000560Y001290D02*
X001098Y001290D01*
X002012Y001290D02*
X007505Y001290D01*
X007346Y001448D02*
X002294Y001448D01*
X002457Y001607D02*
X007188Y001607D01*
X007029Y001765D02*
X002580Y001765D01*
X002671Y001924D02*
X003281Y001924D01*
X003415Y001790D02*
X003660Y001790D01*
X003660Y002410D01*
X003040Y002410D01*
X003040Y002165D01*
X003415Y001790D01*
X003660Y001924D02*
X003700Y001924D01*
X003700Y002082D02*
X003660Y002082D01*
X003660Y002241D02*
X003700Y002241D01*
X003700Y002399D02*
X003660Y002399D01*
X003660Y002558D02*
X003700Y002558D01*
X003700Y002716D02*
X003660Y002716D01*
X003660Y002875D02*
X003700Y002875D01*
X003700Y003033D02*
X003660Y003033D01*
X003660Y003192D02*
X003700Y003192D01*
X003700Y003350D02*
X003660Y003350D01*
X003660Y003509D02*
X003700Y003509D01*
X003700Y003667D02*
X003660Y003667D01*
X003660Y003826D02*
X003700Y003826D01*
X003700Y003984D02*
X003660Y003984D01*
X003329Y003984D02*
X000560Y003984D01*
X000560Y003826D02*
X003170Y003826D01*
X003040Y003667D02*
X000560Y003667D01*
X000560Y003509D02*
X000983Y003509D01*
X000750Y003350D02*
X000560Y003350D01*
X000560Y003192D02*
X000591Y003192D01*
X002127Y003509D02*
X003040Y003509D01*
X003040Y003350D02*
X002360Y003350D01*
X002519Y003192D02*
X003040Y003192D01*
X003172Y003033D02*
X002616Y003033D01*
X002699Y002875D02*
X003219Y002875D01*
X003061Y002716D02*
X002741Y002716D01*
X002775Y002558D02*
X003040Y002558D01*
X003040Y002399D02*
X002775Y002399D01*
X002767Y002241D02*
X003040Y002241D01*
X003123Y002082D02*
X002725Y002082D01*
X004079Y001924D02*
X004281Y001924D01*
X004329Y003984D02*
X004031Y003984D01*
X016579Y001924D02*
X016781Y001924D01*
X017579Y001924D02*
X017781Y001924D01*
X018579Y001924D02*
X018781Y001924D01*
X019579Y001924D02*
X019781Y001924D01*
X020579Y001924D02*
X020781Y001924D01*
X021579Y001924D02*
X021781Y001924D01*
X022579Y001924D02*
X022781Y001924D01*
X022180Y002430D02*
X021680Y002930D01*
X021680Y003930D01*
X022180Y004430D01*
X022180Y005055D01*
X023180Y005055D02*
X023180Y004555D01*
X023430Y004305D01*
X038680Y004305D01*
X042055Y007680D01*
X042055Y015680D01*
X042555Y016180D01*
X042555Y017680D01*
X042555Y019517D02*
X042555Y019517D01*
X042555Y019676D02*
X042555Y019676D01*
X042555Y019834D02*
X042555Y019834D01*
X042555Y019993D02*
X042555Y019993D01*
X042555Y020151D02*
X042555Y020151D01*
X042555Y020180D02*
X042555Y020180D01*
X042555Y020310D02*
X042555Y020310D01*
X042555Y020468D02*
X042555Y020468D01*
X042555Y020627D02*
X042555Y020627D01*
X042555Y020785D02*
X042555Y020785D01*
X042555Y020944D02*
X042555Y020944D01*
X044430Y020944D02*
X044430Y020944D01*
X044430Y021102D02*
X044430Y021102D01*
X044430Y021180D02*
X044430Y020580D01*
X044430Y021180D01*
X044430Y021180D01*
X044430Y021261D02*
X044430Y021261D01*
X044430Y021419D02*
X044430Y021419D01*
X044430Y021578D02*
X044430Y021578D01*
X044430Y021736D02*
X044430Y021736D01*
X044430Y020785D02*
X044430Y020785D01*
X044430Y020627D02*
X044430Y020627D01*
X042555Y015555D02*
X042555Y015555D01*
X041055Y015555D02*
X041055Y011430D01*
X039805Y010180D01*
X039805Y006305D01*
X034670Y003826D02*
X030690Y003826D01*
X030820Y003667D02*
X034540Y003667D01*
X034540Y003509D02*
X030820Y003509D01*
X030820Y003350D02*
X034540Y003350D01*
X034540Y003192D02*
X030820Y003192D01*
X030688Y003033D02*
X034672Y003033D01*
X034719Y002875D02*
X030641Y002875D01*
X030799Y002716D02*
X034561Y002716D01*
X034540Y002558D02*
X030820Y002558D01*
X030820Y002399D02*
X034540Y002399D01*
X034540Y002241D02*
X030820Y002241D01*
X030737Y002082D02*
X034623Y002082D01*
X034781Y001924D02*
X030579Y001924D01*
X029781Y001924D02*
X029579Y001924D01*
X028781Y001924D02*
X028579Y001924D01*
X027781Y001924D02*
X027579Y001924D01*
X026781Y001924D02*
X026579Y001924D01*
X025781Y001924D02*
X025579Y001924D01*
X024781Y001924D02*
X024579Y001924D01*
X023781Y001924D02*
X023579Y001924D01*
X021180Y003430D02*
X017805Y006805D01*
X017805Y033180D01*
X018305Y033680D01*
X018305Y034180D01*
X017888Y034892D02*
X017722Y034892D01*
X019910Y033465D02*
X019921Y033465D01*
X018950Y031880D02*
X018733Y031880D01*
X018845Y031722D02*
X018950Y031722D01*
X014805Y029430D02*
X014305Y029930D01*
X014305Y031180D01*
X013805Y032180D02*
X013805Y029930D01*
X014305Y029430D01*
X014305Y028680D01*
X014305Y027180D01*
X013805Y026680D01*
X009305Y028680D02*
X009305Y031180D01*
X008180Y032055D02*
X008180Y032055D01*
X008180Y032655D01*
X008429Y032655D01*
X008759Y032325D01*
X008828Y032394D01*
X008975Y032455D01*
X010639Y032455D01*
X011527Y033342D01*
X011424Y033300D01*
X011186Y033300D01*
X010965Y033391D01*
X010805Y033551D01*
X010645Y033391D01*
X010424Y033300D01*
X010186Y033300D01*
X009965Y033391D01*
X009805Y033551D01*
X009645Y033391D01*
X009424Y033300D01*
X009186Y033300D01*
X008965Y033391D01*
X008796Y033560D01*
X008738Y033700D01*
X008674Y033700D01*
X008429Y033455D01*
X007931Y033455D01*
X007811Y033575D01*
X007660Y033575D01*
X007660Y032384D01*
X007931Y032655D01*
X008180Y032655D01*
X008180Y032055D01*
X008180Y032197D02*
X008180Y032197D01*
X008180Y032356D02*
X008180Y032356D01*
X008180Y032514D02*
X008180Y032514D01*
X007791Y032514D02*
X007660Y032514D01*
X007660Y032673D02*
X010857Y032673D01*
X011015Y032831D02*
X007660Y032831D01*
X007660Y032990D02*
X011174Y032990D01*
X011332Y033148D02*
X007660Y033148D01*
X007660Y033307D02*
X009170Y033307D01*
X009440Y033307D02*
X010170Y033307D01*
X010440Y033307D02*
X011170Y033307D01*
X011440Y033307D02*
X011491Y033307D01*
X010891Y033465D02*
X010719Y033465D01*
X009891Y033465D02*
X009719Y033465D01*
X008891Y033465D02*
X008439Y033465D01*
X008597Y033624D02*
X008770Y033624D01*
X007921Y033465D02*
X007660Y033465D01*
X006700Y033465D02*
X004429Y033465D01*
X004495Y033307D02*
X006700Y033307D01*
X006700Y033148D02*
X004500Y033148D01*
X004787Y032990D02*
X006700Y032990D01*
X006700Y032831D02*
X004922Y032831D01*
X004987Y032673D02*
X006700Y032673D01*
X006700Y032514D02*
X004990Y032514D01*
X004954Y032356D02*
X006700Y032356D01*
X006700Y032197D02*
X004864Y032197D01*
X004830Y032039D02*
X006700Y032039D01*
X006700Y031880D02*
X004830Y031880D01*
X004830Y031722D02*
X006700Y031722D01*
X006700Y031563D02*
X004830Y031563D01*
X004801Y031405D02*
X006700Y031405D01*
X006700Y031246D02*
X004687Y031246D01*
X004528Y031088D02*
X006700Y031088D01*
X006700Y030929D02*
X004465Y030929D01*
X004646Y030771D02*
X006700Y030771D01*
X006700Y030612D02*
X004722Y030612D01*
X004750Y030454D02*
X006700Y030454D01*
X006700Y030295D02*
X004741Y030295D01*
X004675Y030137D02*
X006700Y030137D01*
X006700Y029978D02*
X004580Y029978D01*
X004580Y029820D02*
X006700Y029820D01*
X006700Y029661D02*
X004580Y029661D01*
X004580Y029503D02*
X006700Y029503D01*
X006700Y029344D02*
X004580Y029344D01*
X004580Y029186D02*
X005712Y029186D01*
X005806Y029280D02*
X005455Y028929D01*
X005455Y028680D01*
X006055Y028680D01*
X006655Y028680D01*
X006655Y028929D01*
X006304Y029280D01*
X006055Y029280D01*
X006055Y028680D01*
X006055Y028680D01*
X006055Y028680D01*
X006655Y028680D01*
X006655Y028431D01*
X006304Y028080D01*
X006055Y028080D01*
X006055Y028680D01*
X006055Y028680D01*
X006055Y028680D01*
X006055Y029280D01*
X005806Y029280D01*
X006055Y029186D02*
X006055Y029186D01*
X006055Y029027D02*
X006055Y029027D01*
X006055Y028869D02*
X006055Y028869D01*
X006055Y028710D02*
X006055Y028710D01*
X006055Y028680D02*
X005455Y028680D01*
X005455Y028431D01*
X005806Y028080D01*
X006055Y028080D01*
X006055Y028680D01*
X006055Y028552D02*
X006055Y028552D01*
X006055Y028393D02*
X006055Y028393D01*
X006055Y028235D02*
X006055Y028235D01*
X006458Y028235D02*
X006700Y028235D01*
X006700Y028393D02*
X006617Y028393D01*
X006655Y028552D02*
X006700Y028552D01*
X006700Y028710D02*
X006655Y028710D01*
X006655Y028869D02*
X006700Y028869D01*
X006700Y029027D02*
X006556Y029027D01*
X006700Y029186D02*
X006398Y029186D01*
X005554Y029027D02*
X004580Y029027D01*
X004536Y028869D02*
X005455Y028869D01*
X005455Y028710D02*
X004401Y028710D01*
X004242Y028552D02*
X005455Y028552D01*
X005493Y028393D02*
X004084Y028393D01*
X003925Y028235D02*
X005652Y028235D01*
X006700Y028076D02*
X003746Y028076D01*
X003473Y027918D02*
X006700Y027918D01*
X006700Y027759D02*
X003631Y027759D01*
X003695Y027601D02*
X006700Y027601D01*
X006700Y027442D02*
X003695Y027442D01*
X003695Y027284D02*
X006700Y027284D01*
X006700Y027125D02*
X003655Y027125D01*
X003497Y026967D02*
X006700Y026967D01*
X006700Y026808D02*
X003582Y026808D01*
X003695Y026650D02*
X006700Y026650D01*
X006700Y026491D02*
X003695Y026491D01*
X003695Y026333D02*
X006700Y026333D01*
X006700Y026174D02*
X003695Y026174D01*
X003546Y026016D02*
X006700Y026016D01*
X006700Y025857D02*
X003387Y025857D01*
X002723Y025857D02*
X002387Y025857D01*
X002546Y026016D02*
X002564Y026016D01*
X003055Y028430D02*
X003555Y028430D01*
X004180Y029055D01*
X004180Y030430D01*
X003805Y030930D02*
X004430Y031555D01*
X004430Y032555D01*
X004430Y031930D01*
X003930Y032430D02*
X003930Y033180D01*
X004293Y033624D02*
X006700Y033624D01*
X006700Y033782D02*
X003608Y033782D01*
X003450Y033941D02*
X006616Y033941D01*
X008569Y032514D02*
X010698Y032514D01*
X008790Y032356D02*
X008728Y032356D01*
X003930Y032430D02*
X003430Y031930D01*
X001680Y031930D01*
X001305Y031555D01*
X001305Y030305D01*
X001680Y029930D01*
X002555Y029930D01*
X003055Y030430D01*
X002555Y030930D02*
X003805Y030930D01*
X002555Y030930D02*
X002055Y030430D01*
X002450Y033941D02*
X002660Y033941D01*
X000783Y036477D02*
X000560Y036477D01*
X000560Y036635D02*
X000625Y036635D01*
X013805Y032180D02*
X014305Y032680D01*
X014305Y034180D01*
X007556Y016030D02*
X000560Y016030D01*
X000560Y015872D02*
X007455Y015872D01*
X007455Y015713D02*
X000560Y015713D01*
X000560Y015555D02*
X007455Y015555D01*
X007490Y015396D02*
X000560Y015396D01*
X000560Y015238D02*
X007649Y015238D01*
X018205Y008739D02*
X018950Y008739D01*
X018950Y008581D02*
X018205Y008581D01*
X018205Y008422D02*
X018950Y008422D01*
X018979Y008264D02*
X018205Y008264D01*
X018205Y008105D02*
X019076Y008105D01*
X019205Y007947D02*
X018205Y007947D01*
X018205Y007788D02*
X019223Y007788D01*
X019382Y007630D02*
X018205Y007630D01*
X018205Y007471D02*
X019540Y007471D01*
X020070Y007471D02*
X020656Y007471D01*
X020794Y007313D02*
X018205Y007313D01*
X021390Y008898D02*
X021970Y008898D01*
X021735Y008739D02*
X021625Y008739D01*
X022390Y008898D02*
X022970Y008898D01*
X022735Y008739D02*
X022625Y008739D01*
X023390Y008898D02*
X023970Y008898D01*
X023735Y008739D02*
X023625Y008739D01*
X024390Y008898D02*
X024970Y008898D01*
X024735Y008739D02*
X024625Y008739D01*
X023180Y008055D02*
X023180Y007555D01*
X023180Y008055D02*
X022180Y008055D01*
X020580Y004935D02*
X020241Y004935D01*
X020399Y004777D02*
X020580Y004777D01*
X020596Y004618D02*
X020558Y004618D01*
X035579Y001924D02*
X035781Y001924D01*
X036579Y001924D02*
X036781Y001924D01*
X037579Y001924D02*
X037781Y001924D01*
X038579Y001924D02*
X038781Y001924D01*
X039579Y001924D02*
X039781Y001924D01*
X050055Y007430D02*
X050055Y008430D01*
X050805Y008930D02*
X050805Y007930D01*
X051805Y006930D01*
X056055Y006930D01*
X056555Y006430D01*
X055555Y006430D02*
X051055Y006430D01*
X050055Y007430D01*
X051555Y009430D02*
X052555Y008430D01*
X055555Y008430D01*
X056055Y008930D02*
X056555Y008430D01*
X056055Y008930D02*
X053305Y008930D01*
X052305Y009930D01*
X052305Y010930D01*
X051555Y010430D02*
X051555Y009430D01*
X054492Y011434D02*
X054915Y011434D01*
X054915Y011592D02*
X054334Y011592D01*
X054175Y011751D02*
X054970Y011751D01*
X055129Y011909D02*
X054017Y011909D01*
X053858Y012068D02*
X055012Y012068D01*
X054915Y012226D02*
X053830Y012226D01*
X053262Y013970D02*
X053098Y013970D01*
X055098Y013970D02*
X055189Y013970D01*
X055215Y014128D02*
X057155Y014128D01*
X057155Y013970D02*
X056921Y013970D01*
X057079Y013811D02*
X057155Y013811D01*
X057155Y014287D02*
X055270Y014287D01*
X055921Y013970D02*
X056189Y013970D01*
X055655Y016823D02*
X054854Y016823D01*
X055110Y016981D02*
X055655Y016981D01*
X055655Y017140D02*
X055222Y017140D01*
X055280Y017298D02*
X055655Y017298D01*
X055655Y017457D02*
X055280Y017457D01*
X055280Y017615D02*
X055655Y017615D01*
X055655Y017774D02*
X055280Y017774D01*
X055280Y017932D02*
X055655Y017932D01*
X055655Y018091D02*
X055275Y018091D01*
X055210Y018249D02*
X055655Y018249D01*
X055655Y018408D02*
X055081Y018408D01*
X055655Y018566D02*
X053882Y018566D01*
X054028Y018725D02*
X055655Y018725D01*
X055655Y018883D02*
X054080Y018883D01*
X054080Y019042D02*
X055655Y019042D01*
X055655Y019200D02*
X054080Y019200D01*
X054080Y019359D02*
X054421Y019359D01*
X054217Y019517D02*
X054146Y019517D01*
X054680Y019517D02*
X054680Y019517D01*
X054680Y019359D02*
X054680Y019359D01*
X054680Y019300D02*
X054680Y020180D01*
X054680Y019300D01*
X054939Y019359D02*
X055655Y019359D01*
X055655Y019517D02*
X055143Y019517D01*
X055238Y019676D02*
X055655Y019676D01*
X055655Y019834D02*
X055277Y019834D01*
X055280Y019993D02*
X055655Y019993D01*
X055655Y020151D02*
X055280Y020151D01*
X055280Y020310D02*
X055655Y020310D01*
X055655Y020468D02*
X055280Y020468D01*
X055257Y020627D02*
X055655Y020627D01*
X055655Y020785D02*
X055185Y020785D01*
X055035Y020944D02*
X055655Y020944D01*
X055655Y021102D02*
X054080Y021102D01*
X054080Y020944D02*
X054325Y020944D01*
X054680Y020944D02*
X054680Y020944D01*
X054680Y020785D02*
X054680Y020785D01*
X054680Y020627D02*
X054680Y020627D01*
X054680Y020468D02*
X054680Y020468D01*
X054680Y020310D02*
X054680Y020310D01*
X054680Y020180D02*
X054680Y020180D01*
X054680Y020151D02*
X054680Y020151D01*
X054680Y019993D02*
X054680Y019993D01*
X054680Y019834D02*
X054680Y019834D01*
X054680Y019676D02*
X054680Y019676D01*
X054279Y018408D02*
X054081Y018408D01*
X054080Y021261D02*
X055655Y021261D01*
X055655Y021419D02*
X054007Y021419D01*
X053848Y021578D02*
X055655Y021578D01*
X055655Y021736D02*
X053690Y021736D01*
X053580Y021895D02*
X055655Y021895D01*
X055673Y022053D02*
X053580Y022053D01*
X053580Y022212D02*
X055771Y022212D01*
X055929Y022370D02*
X054968Y022370D01*
X055157Y022529D02*
X056088Y022529D01*
X056107Y022687D02*
X055241Y022687D01*
X055280Y022846D02*
X055949Y022846D01*
X055790Y023004D02*
X055280Y023004D01*
X054392Y022370D02*
X053961Y022370D01*
X054152Y022529D02*
X054203Y022529D01*
X053680Y022529D02*
X053680Y022529D01*
X053680Y022687D02*
X053680Y022687D01*
X053680Y022846D02*
X053680Y022846D01*
X053680Y023004D02*
X053680Y023004D01*
X053680Y023163D02*
X053680Y023163D01*
X053680Y023180D02*
X053680Y022300D01*
X053680Y023180D01*
X053680Y023180D01*
X053680Y022370D02*
X053680Y022370D01*
X060305Y019555D02*
X061680Y019555D01*
D16*
X051555Y010430D03*
X035055Y035805D03*
X036055Y036305D03*
X038055Y036430D03*
X039055Y036430D03*
X047180Y036430D03*
X048180Y036430D03*
X050180Y036430D03*
X051180Y036430D03*
X003930Y033180D03*
X004180Y030430D03*
D17*
X004430Y032555D03*
X024930Y013305D03*
X025930Y013305D03*
X026930Y013305D03*
X027930Y013305D03*
X037055Y013305D03*
X038055Y013305D03*
X039055Y013305D03*
X040055Y013305D03*
X043680Y013430D03*
X050055Y008430D03*
X050805Y008930D03*
X052305Y010930D03*
X052805Y012430D03*
X053430Y012930D03*
X039805Y006305D03*
X015805Y012430D03*
X014805Y012430D03*
X013805Y012430D03*
X012805Y012430D03*
X055555Y025555D03*
X055555Y027055D03*
D18*
X057305Y027555D02*
X057305Y026180D01*
X061680Y025430D02*
X061680Y034680D01*
X061055Y035305D01*
X053805Y035305D01*
X053180Y035930D01*
X051680Y037430D01*
X043680Y037430D01*
X041055Y037430D01*
X031555Y037430D01*
X028930Y037430D01*
X019430Y037430D01*
X016805Y037430D01*
X004680Y037430D01*
X003680Y037430D01*
X004680Y037430D02*
X004680Y036430D01*
X004805Y036430D01*
X007180Y034055D01*
X008180Y034055D01*
X008305Y034180D01*
X009305Y034180D01*
X007180Y034055D02*
X007180Y028680D01*
X008055Y028680D01*
X007180Y028680D02*
X007180Y023180D01*
X008055Y023180D01*
X007180Y023180D02*
X007180Y018555D01*
X008055Y017680D01*
X019430Y017680D02*
X019430Y008430D01*
X019805Y008055D01*
X021180Y008055D01*
X020180Y017680D02*
X019430Y017680D01*
X019430Y023180D01*
X020180Y023180D01*
X019430Y023180D02*
X019430Y028680D01*
X020180Y028680D01*
X019430Y028680D02*
X019430Y034055D01*
X020180Y034055D01*
X019430Y034055D02*
X019430Y037430D01*
X031555Y037430D02*
X031555Y034180D01*
X032305Y034180D01*
X031555Y034180D02*
X031555Y028680D01*
X032305Y028680D01*
X031555Y028680D02*
X031555Y023180D01*
X032305Y023180D01*
X031555Y023180D02*
X031555Y018430D01*
X032305Y017680D01*
X043680Y018430D02*
X043680Y023180D01*
X044430Y023180D01*
X043680Y023180D02*
X043680Y028680D01*
X044430Y028680D01*
X043680Y028680D02*
X043680Y034180D01*
X044430Y034180D01*
X043680Y034180D02*
X043680Y037430D01*
X061680Y025430D02*
X061680Y019555D01*
X061680Y015180D01*
X058305Y015180D01*
X057305Y016180D01*
X057305Y017555D01*
X061680Y015180D02*
X061680Y006055D01*
X059055Y003430D01*
X058680Y003430D01*
X056555Y003430D01*
X055555Y003430D01*
X055555Y002430D01*
X056555Y002430D02*
X056555Y003430D01*
X044430Y017680D02*
X043680Y018430D01*
X004680Y036430D02*
X003680Y036430D01*
D19*
X061680Y025430D03*
M02*
