%
M48
M72
T01C0.0240
T02C0.0320
T03C0.0400
T04C0.1100
%
T01
X12805Y12430
X13805Y12430
X14805Y12430
X15805Y12430
X24930Y13305
X25930Y13305
X26930Y13305
X27930Y13305
X37055Y13305
X38055Y13305
X39055Y13305
X40055Y13305
X43680Y13430
X50055Y8430
X50805Y8930
X51555Y10430
X52305Y10930
X52805Y12430
X53430Y12930
X39805Y6305
X61680Y25430
X55555Y25555
X55555Y27055
X51180Y36430
X50180Y36430
X48180Y36430
X47180Y36430
X39055Y36430
X38055Y36430
X36055Y36305
X35055Y35805
X4430Y32555
X3930Y33180
X4180Y30430
T02
X6055Y28680
X8055Y28680
X9305Y28680
X10305Y28680
X11305Y28680
X12305Y28680
X13305Y28680
X14305Y28680
X15305Y28680
X16305Y28680
X17305Y28680
X18305Y28680
X20180Y28680
X21430Y28680
X22430Y28680
X23430Y28680
X24430Y28680
X25430Y28680
X26430Y28680
X27430Y28680
X28430Y28680
X29430Y28680
X30430Y28680
X32305Y28680
X33555Y28680
X34555Y28680
X35555Y28680
X36555Y28680
X37555Y28680
X38555Y28680
X39555Y28680
X40555Y28680
X41555Y28680
X42555Y28680
X44430Y28680
X45680Y28680
X46680Y28680
X47680Y28680
X48680Y28680
X49680Y28680
X50680Y28680
X51680Y28680
X52680Y28680
X53680Y28680
X54680Y28680
X57305Y28555
X57305Y27555
X57305Y26180
X59305Y26180
X60305Y27555
X60305Y28555
X60305Y29555
X60305Y30555
X60305Y31555
X60305Y32555
X60305Y33555
X60305Y34555
X57305Y34555
X57305Y33555
X57305Y32555
X57305Y31555
X57305Y30555
X57305Y29555
X54680Y31180
X53680Y31180
X52680Y31180
X51680Y31180
X50680Y31180
X49680Y31180
X48680Y31180
X47680Y31180
X46680Y31180
X45680Y31180
X44430Y32180
X42555Y31180
X41555Y31180
X40555Y31180
X39555Y31180
X38555Y31180
X37555Y31180
X36555Y31180
X35555Y31180
X34555Y31180
X33555Y31180
X32305Y32180
X30430Y31180
X29430Y31180
X28430Y31180
X27430Y31180
X26430Y31180
X25430Y31180
X24430Y31180
X23430Y31180
X22430Y31180
X21430Y31180
X20180Y32055
X18305Y31180
X17305Y31180
X16305Y31180
X15305Y31180
X14305Y31180
X13305Y31180
X12305Y31180
X11305Y31180
X10305Y31180
X9305Y31180
X8180Y32055
X8180Y34055
X9305Y34180
X10305Y34180
X11305Y34180
X12305Y34180
X13305Y34180
X14305Y34180
X15305Y34180
X16305Y34180
X17305Y34180
X18305Y34180
X20180Y34055
X21430Y34180
X22430Y34180
X23430Y34180
X24430Y34180
X25430Y34180
X26430Y34180
X27430Y34180
X28430Y34180
X29430Y34180
X30430Y34180
X32305Y34180
X33555Y34180
X34555Y34180
X35555Y34180
X36555Y34180
X37555Y34180
X38555Y34180
X39555Y34180
X40555Y34180
X41555Y34180
X42555Y34180
X44430Y34180
X45680Y34180
X46680Y34180
X47680Y34180
X48680Y34180
X49680Y34180
X50680Y34180
X51680Y34180
X52680Y34180
X53680Y34180
X54680Y34180
X44430Y26680
X45680Y25680
X46680Y25680
X47680Y25680
X48680Y25680
X49680Y25680
X50680Y25680
X51680Y25680
X52680Y25680
X53680Y25680
X54680Y25680
X57305Y24555
X57305Y23555
X57305Y22555
X57305Y21555
X57305Y20555
X57305Y19555
X57305Y18555
X57305Y17555
X57305Y16180
X59305Y16180
X60305Y17555
X60305Y18555
X60305Y19555
X60305Y20555
X60305Y21555
X60305Y22555
X60305Y23555
X60305Y24555
X54680Y23180
X53680Y23180
X52680Y23180
X51680Y23180
X50680Y23180
X49680Y23180
X48680Y23180
X47680Y23180
X46680Y23180
X45680Y23180
X44430Y23180
X42555Y23180
X41555Y23180
X40555Y23180
X39555Y23180
X38555Y23180
X37555Y23180
X36555Y23180
X35555Y23180
X34555Y23180
X33555Y23180
X32305Y23180
X30430Y23180
X29430Y23180
X28430Y23180
X27430Y23180
X26430Y23180
X25430Y23180
X24430Y23180
X23430Y23180
X22430Y23180
X21430Y23180
X20180Y23180
X18305Y23180
X17305Y23180
X16305Y23180
X15305Y23180
X14305Y23180
X13305Y23180
X12305Y23180
X11305Y23180
X10305Y23180
X9305Y23180
X8055Y23180
X8055Y21180
X9305Y20180
X10305Y20180
X11305Y20180
X12305Y20180
X13305Y20180
X14305Y20180
X15305Y20180
X16305Y20180
X17305Y20180
X18305Y20180
X20180Y21180
X21430Y20180
X22430Y20180
X23430Y20180
X24430Y20180
X25430Y20180
X26430Y20180
X27430Y20180
X28430Y20180
X29430Y20180
X30430Y20180
X32305Y21180
X33555Y20180
X34555Y20180
X35555Y20180
X36555Y20180
X37555Y20180
X38555Y20180
X39555Y20180
X40555Y20180
X41555Y20180
X42555Y20180
X44430Y21180
X45680Y20180
X46680Y20180
X47680Y20180
X48680Y20180
X49680Y20180
X50680Y20180
X51680Y20180
X52680Y20180
X53680Y20180
X54680Y20180
X54680Y17680
X53680Y17680
X52680Y17680
X51680Y17680
X50680Y17680
X49680Y17680
X48680Y17680
X47680Y17680
X46680Y17680
X45680Y17680
X44430Y17680
X42555Y17680
X41555Y17680
X40555Y17680
X39555Y17680
X38555Y17680
X37555Y17680
X36555Y17680
X35555Y17680
X34555Y17680
X33555Y17680
X32305Y17680
X30430Y17680
X29430Y17680
X28430Y17680
X27430Y17680
X26430Y17680
X25430Y17680
X24430Y17680
X23430Y17680
X22430Y17680
X21430Y17680
X20180Y17680
X18305Y17680
X17305Y17680
X16305Y17680
X15305Y17680
X14305Y17680
X13305Y17680
X12305Y17680
X11305Y17680
X10305Y17680
X9305Y17680
X8055Y17680
X8055Y15680
X9305Y14680
X10305Y14680
X11305Y14680
X12305Y14680
X13305Y14680
X14305Y14680
X15305Y14680
X16305Y14680
X17305Y14680
X18305Y14680
X20180Y15680
X21430Y14680
X22430Y14680
X23430Y14680
X24430Y14680
X25430Y14680
X26430Y14680
X27430Y14680
X28430Y14680
X29430Y14680
X30430Y14680
X32305Y15680
X33555Y14680
X34555Y14680
X35555Y14680
X36555Y14680
X37555Y14680
X38555Y14680
X39555Y14680
X40555Y14680
X41555Y14680
X42555Y14680
X44430Y15680
X45680Y14680
X46680Y14680
X47680Y14680
X48680Y14680
X49680Y14680
X50680Y14680
X51680Y14680
X52680Y14680
X53680Y14680
X54680Y14680
X58680Y4430
X58680Y3430
X27180Y5055
X26180Y5055
X25180Y5055
X24180Y5055
X23180Y5055
X22180Y5055
X21180Y5055
X19805Y6055
X19805Y8055
X21180Y8055
X22180Y8055
X23180Y8055
X24180Y8055
X25180Y8055
X26180Y8055
X27180Y8055
X27430Y25680
X28430Y25680
X29430Y25680
X30430Y25680
X32305Y26680
X33555Y25680
X34555Y25680
X35555Y25680
X36555Y25680
X37555Y25680
X38555Y25680
X39555Y25680
X40555Y25680
X41555Y25680
X42555Y25680
X26430Y25680
X25430Y25680
X24430Y25680
X23430Y25680
X22430Y25680
X21430Y25680
X20180Y26680
X18305Y25680
X17305Y25680
X16305Y25680
X15305Y25680
X14305Y25680
X13305Y25680
X12305Y25680
X11305Y25680
X10305Y25680
X9305Y25680
T03
X3055Y26430
X2055Y26430
X2055Y27430
X3055Y27430
X3055Y28430
X2055Y28430
X2055Y29430
X3055Y29430
X3055Y30430
X2055Y30430
X2055Y31430
X3055Y31430
X3055Y32430
X2055Y32430
X2055Y33430
X3055Y33430
X3680Y36430
X4680Y36430
X4680Y37430
X3680Y37430
X55555Y37430
X56555Y37430
X56555Y36430
X55555Y36430
X55555Y13430
X55555Y12430
X56555Y12430
X56555Y13430
X56555Y11430
X56555Y10430
X55555Y10430
X55555Y11430
X55555Y9430
X55555Y8430
X56555Y8430
X56555Y9430
X56555Y7430
X56555Y6430
X55555Y6430
X55555Y7430
X55555Y3430
X55555Y2430
X56555Y2430
X56555Y3430
X50180Y3430
X50180Y2430
X49180Y2430
X48180Y2430
X48180Y3430
X49180Y3430
X47180Y3430
X47180Y2430
X46180Y2430
X45180Y2430
X45180Y3430
X46180Y3430
X44180Y3430
X43180Y3430
X43180Y2430
X44180Y2430
X42180Y2430
X42180Y3430
X41180Y3430
X40180Y3430
X40180Y2430
X41180Y2430
X39180Y2430
X38180Y2430
X38180Y3430
X39180Y3430
X37180Y3430
X36180Y3430
X36180Y2430
X37180Y2430
X35180Y2430
X35180Y3430
X30180Y3430
X29180Y3430
X29180Y2430
X30180Y2430
X28180Y2430
X28180Y3430
X27180Y3430
X26180Y3430
X26180Y2430
X27180Y2430
X25180Y2430
X24180Y2430
X24180Y3430
X25180Y3430
X23180Y3430
X22180Y3430
X22180Y2430
X23180Y2430
X21180Y2430
X21180Y3430
X20180Y3430
X19180Y3430
X19180Y2430
X20180Y2430
X18180Y2430
X17180Y2430
X17180Y3430
X18180Y3430
X16180Y3430
X16180Y2430
X15180Y2430
X14180Y2430
X14180Y3430
X15180Y3430
X13180Y3430
X12180Y3430
X12180Y2430
X13180Y2430
X11180Y2430
X10180Y2430
X10180Y3430
X11180Y3430
X9180Y3430
X9180Y2430
X8180Y2430
X7180Y2430
X7180Y3430
X8180Y3430
X4680Y3430
X4680Y2430
X3680Y2430
X3680Y3430
T04
X1555Y2430
X1555Y37430
X62055Y37430
X62055Y2430
M30
