G75*
%MOIN*%
%OFA0B0*%
%FSLAX24Y24*%
%IPPOS*%
%LPD*%
%AMOC8*
5,1,8,0,0,1.08239X$1,22.5*
%
%ADD10C,0.0000*%
D10*
X000180Y000180D02*
X000180Y039550D01*
X063172Y039550D01*
X063172Y000180D01*
X000180Y000180D01*
X001005Y002430D02*
X001007Y002477D01*
X001013Y002523D01*
X001023Y002569D01*
X001036Y002613D01*
X001054Y002657D01*
X001075Y002698D01*
X001099Y002738D01*
X001127Y002776D01*
X001158Y002811D01*
X001192Y002843D01*
X001228Y002872D01*
X001267Y002898D01*
X001307Y002921D01*
X001350Y002940D01*
X001394Y002956D01*
X001439Y002968D01*
X001485Y002976D01*
X001532Y002980D01*
X001578Y002980D01*
X001625Y002976D01*
X001671Y002968D01*
X001716Y002956D01*
X001760Y002940D01*
X001803Y002921D01*
X001843Y002898D01*
X001882Y002872D01*
X001918Y002843D01*
X001952Y002811D01*
X001983Y002776D01*
X002011Y002738D01*
X002035Y002698D01*
X002056Y002657D01*
X002074Y002613D01*
X002087Y002569D01*
X002097Y002523D01*
X002103Y002477D01*
X002105Y002430D01*
X002103Y002383D01*
X002097Y002337D01*
X002087Y002291D01*
X002074Y002247D01*
X002056Y002203D01*
X002035Y002162D01*
X002011Y002122D01*
X001983Y002084D01*
X001952Y002049D01*
X001918Y002017D01*
X001882Y001988D01*
X001843Y001962D01*
X001803Y001939D01*
X001760Y001920D01*
X001716Y001904D01*
X001671Y001892D01*
X001625Y001884D01*
X001578Y001880D01*
X001532Y001880D01*
X001485Y001884D01*
X001439Y001892D01*
X001394Y001904D01*
X001350Y001920D01*
X001307Y001939D01*
X001267Y001962D01*
X001228Y001988D01*
X001192Y002017D01*
X001158Y002049D01*
X001127Y002084D01*
X001099Y002122D01*
X001075Y002162D01*
X001054Y002203D01*
X001036Y002247D01*
X001023Y002291D01*
X001013Y002337D01*
X001007Y002383D01*
X001005Y002430D01*
X001005Y037430D02*
X001007Y037477D01*
X001013Y037523D01*
X001023Y037569D01*
X001036Y037613D01*
X001054Y037657D01*
X001075Y037698D01*
X001099Y037738D01*
X001127Y037776D01*
X001158Y037811D01*
X001192Y037843D01*
X001228Y037872D01*
X001267Y037898D01*
X001307Y037921D01*
X001350Y037940D01*
X001394Y037956D01*
X001439Y037968D01*
X001485Y037976D01*
X001532Y037980D01*
X001578Y037980D01*
X001625Y037976D01*
X001671Y037968D01*
X001716Y037956D01*
X001760Y037940D01*
X001803Y037921D01*
X001843Y037898D01*
X001882Y037872D01*
X001918Y037843D01*
X001952Y037811D01*
X001983Y037776D01*
X002011Y037738D01*
X002035Y037698D01*
X002056Y037657D01*
X002074Y037613D01*
X002087Y037569D01*
X002097Y037523D01*
X002103Y037477D01*
X002105Y037430D01*
X002103Y037383D01*
X002097Y037337D01*
X002087Y037291D01*
X002074Y037247D01*
X002056Y037203D01*
X002035Y037162D01*
X002011Y037122D01*
X001983Y037084D01*
X001952Y037049D01*
X001918Y037017D01*
X001882Y036988D01*
X001843Y036962D01*
X001803Y036939D01*
X001760Y036920D01*
X001716Y036904D01*
X001671Y036892D01*
X001625Y036884D01*
X001578Y036880D01*
X001532Y036880D01*
X001485Y036884D01*
X001439Y036892D01*
X001394Y036904D01*
X001350Y036920D01*
X001307Y036939D01*
X001267Y036962D01*
X001228Y036988D01*
X001192Y037017D01*
X001158Y037049D01*
X001127Y037084D01*
X001099Y037122D01*
X001075Y037162D01*
X001054Y037203D01*
X001036Y037247D01*
X001023Y037291D01*
X001013Y037337D01*
X001007Y037383D01*
X001005Y037430D01*
X061505Y037430D02*
X061507Y037477D01*
X061513Y037523D01*
X061523Y037569D01*
X061536Y037613D01*
X061554Y037657D01*
X061575Y037698D01*
X061599Y037738D01*
X061627Y037776D01*
X061658Y037811D01*
X061692Y037843D01*
X061728Y037872D01*
X061767Y037898D01*
X061807Y037921D01*
X061850Y037940D01*
X061894Y037956D01*
X061939Y037968D01*
X061985Y037976D01*
X062032Y037980D01*
X062078Y037980D01*
X062125Y037976D01*
X062171Y037968D01*
X062216Y037956D01*
X062260Y037940D01*
X062303Y037921D01*
X062343Y037898D01*
X062382Y037872D01*
X062418Y037843D01*
X062452Y037811D01*
X062483Y037776D01*
X062511Y037738D01*
X062535Y037698D01*
X062556Y037657D01*
X062574Y037613D01*
X062587Y037569D01*
X062597Y037523D01*
X062603Y037477D01*
X062605Y037430D01*
X062603Y037383D01*
X062597Y037337D01*
X062587Y037291D01*
X062574Y037247D01*
X062556Y037203D01*
X062535Y037162D01*
X062511Y037122D01*
X062483Y037084D01*
X062452Y037049D01*
X062418Y037017D01*
X062382Y036988D01*
X062343Y036962D01*
X062303Y036939D01*
X062260Y036920D01*
X062216Y036904D01*
X062171Y036892D01*
X062125Y036884D01*
X062078Y036880D01*
X062032Y036880D01*
X061985Y036884D01*
X061939Y036892D01*
X061894Y036904D01*
X061850Y036920D01*
X061807Y036939D01*
X061767Y036962D01*
X061728Y036988D01*
X061692Y037017D01*
X061658Y037049D01*
X061627Y037084D01*
X061599Y037122D01*
X061575Y037162D01*
X061554Y037203D01*
X061536Y037247D01*
X061523Y037291D01*
X061513Y037337D01*
X061507Y037383D01*
X061505Y037430D01*
X061505Y002430D02*
X061507Y002477D01*
X061513Y002523D01*
X061523Y002569D01*
X061536Y002613D01*
X061554Y002657D01*
X061575Y002698D01*
X061599Y002738D01*
X061627Y002776D01*
X061658Y002811D01*
X061692Y002843D01*
X061728Y002872D01*
X061767Y002898D01*
X061807Y002921D01*
X061850Y002940D01*
X061894Y002956D01*
X061939Y002968D01*
X061985Y002976D01*
X062032Y002980D01*
X062078Y002980D01*
X062125Y002976D01*
X062171Y002968D01*
X062216Y002956D01*
X062260Y002940D01*
X062303Y002921D01*
X062343Y002898D01*
X062382Y002872D01*
X062418Y002843D01*
X062452Y002811D01*
X062483Y002776D01*
X062511Y002738D01*
X062535Y002698D01*
X062556Y002657D01*
X062574Y002613D01*
X062587Y002569D01*
X062597Y002523D01*
X062603Y002477D01*
X062605Y002430D01*
X062603Y002383D01*
X062597Y002337D01*
X062587Y002291D01*
X062574Y002247D01*
X062556Y002203D01*
X062535Y002162D01*
X062511Y002122D01*
X062483Y002084D01*
X062452Y002049D01*
X062418Y002017D01*
X062382Y001988D01*
X062343Y001962D01*
X062303Y001939D01*
X062260Y001920D01*
X062216Y001904D01*
X062171Y001892D01*
X062125Y001884D01*
X062078Y001880D01*
X062032Y001880D01*
X061985Y001884D01*
X061939Y001892D01*
X061894Y001904D01*
X061850Y001920D01*
X061807Y001939D01*
X061767Y001962D01*
X061728Y001988D01*
X061692Y002017D01*
X061658Y002049D01*
X061627Y002084D01*
X061599Y002122D01*
X061575Y002162D01*
X061554Y002203D01*
X061536Y002247D01*
X061523Y002291D01*
X061513Y002337D01*
X061507Y002383D01*
X061505Y002430D01*
M02*
