G75*
%MOIN*%
%OFA0B0*%
%FSLAX24Y24*%
%IPPOS*%
%LPD*%
%AMOC8*
5,1,8,0,0,1.08239X$1,22.5*
%
%ADD10C,0.0080*%
%ADD11C,0.0120*%
D10*
X003180Y002180D02*
X003180Y003680D01*
X003430Y003930D01*
X003930Y003930D01*
X004180Y003680D01*
X004180Y002180D01*
X004430Y001930D01*
X004930Y001930D01*
X005180Y002180D01*
X005180Y003680D01*
X004930Y003930D01*
X004430Y003930D01*
X004180Y003680D01*
X004141Y004220D02*
X004351Y004220D01*
X004421Y004290D01*
X004421Y004570D01*
X004351Y004640D01*
X004141Y004640D01*
X004141Y004220D01*
X003961Y004220D02*
X003961Y004640D01*
X003680Y004640D02*
X003680Y004220D01*
X003500Y004290D02*
X003500Y004430D01*
X003360Y004430D01*
X003220Y004570D02*
X003220Y004290D01*
X003290Y004220D01*
X003430Y004220D01*
X003500Y004290D01*
X003500Y004570D02*
X003430Y004640D01*
X003290Y004640D01*
X003220Y004570D01*
X003680Y004640D02*
X003961Y004220D01*
X004601Y004220D02*
X004881Y004500D01*
X004881Y004570D01*
X004811Y004640D01*
X004671Y004640D01*
X004601Y004570D01*
X004601Y004220D02*
X004881Y004220D01*
X006680Y003680D02*
X006680Y002180D01*
X006930Y001930D01*
X007430Y001930D01*
X007680Y002180D01*
X007680Y003680D01*
X007430Y003930D01*
X006930Y003930D01*
X006680Y003680D01*
X007680Y003680D02*
X007930Y003930D01*
X008430Y003930D01*
X008680Y003680D01*
X008680Y002180D01*
X008430Y001930D01*
X007930Y001930D01*
X007680Y002180D01*
X008680Y002180D02*
X008930Y001930D01*
X009430Y001930D01*
X009680Y002180D01*
X009680Y003680D01*
X009430Y003930D01*
X008930Y003930D01*
X008680Y003680D01*
X009680Y003680D02*
X009930Y003930D01*
X010430Y003930D01*
X010680Y003680D01*
X010680Y002180D01*
X010430Y001930D01*
X009930Y001930D01*
X009680Y002180D01*
X010680Y002180D02*
X010930Y001930D01*
X011430Y001930D01*
X011680Y002180D01*
X011680Y003680D01*
X011430Y003930D01*
X010930Y003930D01*
X010680Y003680D01*
X011680Y003680D02*
X011930Y003930D01*
X012430Y003930D01*
X012680Y003680D01*
X012680Y002180D01*
X012430Y001930D01*
X011930Y001930D01*
X011680Y002180D01*
X012680Y002180D02*
X012930Y001930D01*
X013430Y001930D01*
X013680Y002180D01*
X013680Y003680D01*
X013930Y003930D01*
X014430Y003930D01*
X014680Y003680D01*
X014680Y002180D01*
X014430Y001930D01*
X013930Y001930D01*
X013680Y002180D01*
X014680Y002180D02*
X014930Y001930D01*
X015430Y001930D01*
X015680Y002180D01*
X015680Y003680D01*
X015930Y003930D01*
X016430Y003930D01*
X016680Y003680D01*
X016680Y002180D01*
X016430Y001930D01*
X015930Y001930D01*
X015680Y002180D01*
X016680Y002180D02*
X016930Y001930D01*
X017430Y001930D01*
X017680Y002180D01*
X017680Y003680D01*
X017930Y003930D01*
X018430Y003930D01*
X018680Y003680D01*
X018680Y002180D01*
X018430Y001930D01*
X017930Y001930D01*
X017680Y002180D01*
X018680Y002180D02*
X018930Y001930D01*
X019430Y001930D01*
X019680Y002180D01*
X019680Y003680D01*
X019930Y003930D01*
X020430Y003930D01*
X020680Y003680D01*
X020680Y002180D01*
X020430Y001930D01*
X019930Y001930D01*
X019680Y002180D01*
X020680Y002180D02*
X020930Y001930D01*
X021430Y001930D01*
X021680Y002180D01*
X021680Y003680D01*
X021930Y003930D01*
X022430Y003930D01*
X022680Y003680D01*
X022680Y002180D01*
X022430Y001930D01*
X021930Y001930D01*
X021680Y002180D01*
X022680Y002180D02*
X022930Y001930D01*
X023430Y001930D01*
X023680Y002180D01*
X023680Y003680D01*
X023930Y003930D01*
X024430Y003930D01*
X024680Y003680D01*
X024680Y002180D01*
X024430Y001930D01*
X023930Y001930D01*
X023680Y002180D01*
X024680Y002180D02*
X024930Y001930D01*
X025430Y001930D01*
X025680Y002180D01*
X025680Y003680D01*
X025430Y003930D01*
X024930Y003930D01*
X024680Y003680D01*
X023680Y003680D02*
X023430Y003930D01*
X022930Y003930D01*
X022680Y003680D01*
X021680Y003680D02*
X021430Y003930D01*
X020930Y003930D01*
X020680Y003680D01*
X019680Y003680D02*
X019430Y003930D01*
X018930Y003930D01*
X018680Y003680D01*
X017680Y003680D02*
X017430Y003930D01*
X016930Y003930D01*
X016680Y003680D01*
X015680Y003680D02*
X015430Y003930D01*
X014930Y003930D01*
X014680Y003680D01*
X013680Y003680D02*
X013430Y003930D01*
X012930Y003930D01*
X012680Y003680D01*
X019355Y006405D02*
X019355Y007705D01*
X019357Y007731D01*
X019362Y007757D01*
X019370Y007782D01*
X019382Y007805D01*
X019396Y007827D01*
X019414Y007846D01*
X019433Y007864D01*
X019455Y007878D01*
X019478Y007890D01*
X019503Y007898D01*
X019529Y007903D01*
X019555Y007905D01*
X019805Y007555D02*
X019805Y007175D01*
X019805Y006925D02*
X019805Y006555D01*
X020055Y006205D02*
X020081Y006207D01*
X020107Y006212D01*
X020132Y006220D01*
X020155Y006232D01*
X020177Y006246D01*
X020196Y006264D01*
X020214Y006283D01*
X020228Y006305D01*
X020240Y006328D01*
X020248Y006353D01*
X020253Y006379D01*
X020255Y006405D01*
X020255Y007705D01*
X020253Y007731D01*
X020248Y007757D01*
X020240Y007782D01*
X020228Y007805D01*
X020214Y007827D01*
X020196Y007846D01*
X020177Y007864D01*
X020155Y007878D01*
X020132Y007890D01*
X020107Y007898D01*
X020081Y007903D01*
X020055Y007905D01*
X020680Y007705D02*
X020680Y006955D01*
X020719Y006953D01*
X020758Y006947D01*
X020796Y006938D01*
X020833Y006925D01*
X020869Y006908D01*
X020902Y006888D01*
X020934Y006864D01*
X020963Y006838D01*
X020989Y006809D01*
X021013Y006777D01*
X021033Y006744D01*
X021050Y006708D01*
X021063Y006671D01*
X021072Y006633D01*
X021078Y006594D01*
X021080Y006555D01*
X021078Y006516D01*
X021072Y006477D01*
X021063Y006439D01*
X021050Y006402D01*
X021033Y006366D01*
X021013Y006333D01*
X020989Y006301D01*
X020963Y006272D01*
X020934Y006246D01*
X020902Y006222D01*
X020869Y006202D01*
X020833Y006185D01*
X020796Y006172D01*
X020758Y006163D01*
X020719Y006157D01*
X020680Y006155D01*
X020680Y005405D01*
X027680Y005405D01*
X027680Y007705D01*
X020680Y007705D01*
X021570Y006765D02*
X021850Y006765D01*
X021850Y006695D01*
X021570Y006415D01*
X021570Y006345D01*
X022030Y006555D02*
X022311Y006555D01*
X022241Y006345D02*
X022241Y006765D01*
X022030Y006555D01*
X022491Y006345D02*
X022771Y006345D01*
X022951Y006415D02*
X023021Y006345D01*
X023161Y006345D01*
X023231Y006415D01*
X023231Y006485D01*
X023161Y006555D01*
X023021Y006555D01*
X022951Y006625D01*
X022951Y006695D01*
X023021Y006765D01*
X023161Y006765D01*
X023231Y006695D01*
X023412Y006695D02*
X023482Y006765D01*
X023622Y006765D01*
X023692Y006695D01*
X023412Y006415D01*
X023482Y006345D01*
X023622Y006345D01*
X023692Y006415D01*
X023692Y006695D01*
X023872Y006695D02*
X023872Y006625D01*
X023942Y006555D01*
X024082Y006555D01*
X024152Y006485D01*
X024152Y006415D01*
X024082Y006345D01*
X023942Y006345D01*
X023872Y006415D01*
X023872Y006485D01*
X023942Y006555D01*
X024082Y006555D02*
X024152Y006625D01*
X024152Y006695D01*
X024082Y006765D01*
X023942Y006765D01*
X023872Y006695D01*
X023412Y006695D02*
X023412Y006415D01*
X022491Y006345D02*
X022491Y006765D01*
X024332Y006765D02*
X024613Y006345D01*
X024613Y006765D01*
X024332Y006765D02*
X024332Y006345D01*
X025930Y003930D02*
X025680Y003680D01*
X025930Y003930D02*
X026430Y003930D01*
X026680Y003680D01*
X026680Y002180D01*
X026430Y001930D01*
X025930Y001930D01*
X025680Y002180D01*
X026680Y002180D02*
X026930Y001930D01*
X027430Y001930D01*
X027680Y002180D01*
X027680Y003680D01*
X027430Y003930D01*
X026930Y003930D01*
X026680Y003680D01*
X027680Y003680D02*
X027930Y003930D01*
X028430Y003930D01*
X028680Y003680D01*
X028680Y002180D01*
X028430Y001930D01*
X027930Y001930D01*
X027680Y002180D01*
X028680Y002180D02*
X028930Y001930D01*
X029430Y001930D01*
X029680Y002180D01*
X029680Y003680D01*
X029430Y003930D01*
X028930Y003930D01*
X028680Y003680D01*
X029680Y003680D02*
X029930Y003930D01*
X030430Y003930D01*
X030680Y003680D01*
X030680Y002180D01*
X030430Y001930D01*
X029930Y001930D01*
X029680Y002180D01*
X029619Y001640D02*
X029479Y001640D01*
X029549Y001640D02*
X029549Y001290D01*
X029479Y001220D01*
X029409Y001220D01*
X029339Y001290D01*
X029799Y001220D02*
X029799Y001640D01*
X030009Y001640D01*
X030079Y001570D01*
X030079Y001430D01*
X030009Y001360D01*
X029799Y001360D01*
X030260Y001290D02*
X030330Y001220D01*
X030470Y001220D01*
X030540Y001290D01*
X030540Y001570D01*
X030470Y001640D01*
X030330Y001640D01*
X030260Y001570D01*
X030260Y001500D01*
X030330Y001430D01*
X030540Y001430D01*
X034680Y002180D02*
X034680Y003680D01*
X034930Y003930D01*
X035430Y003930D01*
X035680Y003680D01*
X035680Y002180D01*
X035430Y001930D01*
X034930Y001930D01*
X034680Y002180D01*
X035680Y002180D02*
X035930Y001930D01*
X036430Y001930D01*
X036680Y002180D01*
X036680Y003680D01*
X036930Y003930D01*
X037430Y003930D01*
X037680Y003680D01*
X037680Y002180D01*
X037430Y001930D01*
X036930Y001930D01*
X036680Y002180D01*
X037680Y002180D02*
X037930Y001930D01*
X038430Y001930D01*
X038680Y002180D01*
X038680Y003680D01*
X038930Y003930D01*
X039430Y003930D01*
X039680Y003680D01*
X039680Y002180D01*
X039430Y001930D01*
X038930Y001930D01*
X038680Y002180D01*
X039680Y002180D02*
X039930Y001930D01*
X040430Y001930D01*
X040680Y002180D01*
X040680Y003680D01*
X040930Y003930D01*
X041430Y003930D01*
X041680Y003680D01*
X041680Y002180D01*
X041430Y001930D01*
X040930Y001930D01*
X040680Y002180D01*
X041680Y002180D02*
X041930Y001930D01*
X042430Y001930D01*
X042680Y002180D01*
X042680Y003680D01*
X042930Y003930D01*
X043430Y003930D01*
X043680Y003680D01*
X043680Y002180D01*
X043430Y001930D01*
X042930Y001930D01*
X042680Y002180D01*
X043680Y002180D02*
X043930Y001930D01*
X044430Y001930D01*
X044680Y002180D01*
X044680Y003680D01*
X044430Y003930D01*
X043930Y003930D01*
X043680Y003680D01*
X042680Y003680D02*
X042430Y003930D01*
X041930Y003930D01*
X041680Y003680D01*
X040680Y003680D02*
X040430Y003930D01*
X039930Y003930D01*
X039680Y003680D01*
X038680Y003680D02*
X038430Y003930D01*
X037930Y003930D01*
X037680Y003680D01*
X036680Y003680D02*
X036430Y003930D01*
X035930Y003930D01*
X035680Y003680D01*
X044680Y003680D02*
X044930Y003930D01*
X045430Y003930D01*
X045680Y003680D01*
X045680Y002180D01*
X045430Y001930D01*
X044930Y001930D01*
X044680Y002180D01*
X045680Y002180D02*
X045930Y001930D01*
X046430Y001930D01*
X046680Y002180D01*
X046680Y003680D01*
X046430Y003930D01*
X045930Y003930D01*
X045680Y003680D01*
X046680Y003680D02*
X046930Y003930D01*
X047430Y003930D01*
X047680Y003680D01*
X047680Y002180D01*
X047430Y001930D01*
X046930Y001930D01*
X046680Y002180D01*
X047680Y002180D02*
X047930Y001930D01*
X048430Y001930D01*
X048680Y002180D01*
X048680Y003680D01*
X048430Y003930D01*
X047930Y003930D01*
X047680Y003680D01*
X048680Y003680D02*
X048930Y003930D01*
X049430Y003930D01*
X049680Y003680D01*
X049680Y002180D01*
X049430Y001930D01*
X048930Y001930D01*
X048680Y002180D01*
X049019Y001640D02*
X049159Y001640D01*
X049089Y001640D02*
X049089Y001290D01*
X049019Y001220D01*
X048948Y001220D01*
X048878Y001290D01*
X049339Y001220D02*
X049339Y001640D01*
X049549Y001640D01*
X049619Y001570D01*
X049619Y001430D01*
X049549Y001360D01*
X049339Y001360D01*
X049799Y001220D02*
X050079Y001220D01*
X049939Y001220D02*
X049939Y001640D01*
X049799Y001500D01*
X049930Y001930D02*
X049680Y002180D01*
X049930Y001930D02*
X050430Y001930D01*
X050680Y002180D01*
X050680Y003680D01*
X050430Y003930D01*
X049930Y003930D01*
X049680Y003680D01*
X050330Y001640D02*
X050470Y001640D01*
X050540Y001570D01*
X050260Y001290D01*
X050330Y001220D01*
X050470Y001220D01*
X050540Y001290D01*
X050540Y001570D01*
X050330Y001640D02*
X050260Y001570D01*
X050260Y001290D01*
X055055Y002180D02*
X055055Y003680D01*
X055305Y003930D01*
X055805Y003930D01*
X056055Y003680D01*
X056055Y002180D01*
X056305Y001930D01*
X056805Y001930D01*
X057055Y002180D01*
X057055Y003680D01*
X056805Y003930D01*
X056305Y003930D01*
X056055Y003680D01*
X056086Y004220D02*
X056226Y004220D01*
X056296Y004290D01*
X056476Y004220D02*
X056756Y004220D01*
X056616Y004220D02*
X056616Y004640D01*
X056476Y004500D01*
X056296Y004570D02*
X056226Y004640D01*
X056086Y004640D01*
X056016Y004570D01*
X056016Y004290D01*
X056086Y004220D01*
X055836Y004290D02*
X055766Y004220D01*
X055625Y004220D01*
X055555Y004290D01*
X055555Y004570D01*
X055625Y004640D01*
X055766Y004640D01*
X055836Y004570D01*
X055375Y004640D02*
X055375Y004360D01*
X055235Y004220D01*
X055095Y004360D01*
X055095Y004640D01*
X055305Y005930D02*
X056805Y005930D01*
X057055Y006180D01*
X057055Y006680D01*
X056805Y006930D01*
X055305Y006930D01*
X055055Y006680D01*
X055055Y006180D01*
X055305Y005930D01*
X055305Y006930D02*
X055055Y007180D01*
X055055Y007680D01*
X055305Y007930D01*
X056805Y007930D01*
X057055Y007680D01*
X057055Y007180D01*
X056805Y006930D01*
X056805Y007930D02*
X057055Y008180D01*
X057055Y008680D01*
X056805Y008930D01*
X055305Y008930D01*
X055055Y008680D01*
X055055Y008180D01*
X055305Y007930D01*
X055305Y008930D02*
X055055Y009180D01*
X055055Y009680D01*
X055305Y009930D01*
X056805Y009930D01*
X057055Y009680D01*
X057055Y009180D01*
X056805Y008930D01*
X056805Y009930D02*
X057055Y010180D01*
X057055Y010680D01*
X056805Y010930D01*
X055305Y010930D01*
X055055Y010680D01*
X055055Y010180D01*
X055305Y009930D01*
X055305Y010930D02*
X055055Y011180D01*
X055055Y011680D01*
X055305Y011930D01*
X056805Y011930D01*
X057055Y011680D01*
X057055Y011180D01*
X056805Y010930D01*
X056805Y011930D02*
X057055Y012180D01*
X057055Y012680D01*
X056805Y012930D01*
X055305Y012930D01*
X055055Y012680D01*
X055055Y012180D01*
X055305Y011930D01*
X055305Y012930D02*
X055055Y013180D01*
X055055Y013680D01*
X055305Y013930D01*
X056805Y013930D01*
X057055Y013680D01*
X057055Y013180D01*
X056805Y012930D01*
X057345Y012869D02*
X057345Y012729D01*
X057345Y012799D02*
X057695Y012799D01*
X057765Y012729D01*
X057765Y012659D01*
X057695Y012589D01*
X057765Y013049D02*
X057345Y013049D01*
X057345Y013259D01*
X057415Y013329D01*
X057555Y013329D01*
X057625Y013259D01*
X057625Y013049D01*
X057765Y013510D02*
X057485Y013790D01*
X057415Y013790D01*
X057345Y013720D01*
X057345Y013580D01*
X057415Y013510D01*
X057765Y013510D02*
X057765Y013790D01*
X055180Y015030D02*
X055180Y017330D01*
X045180Y017330D01*
X045180Y016580D01*
X045219Y016578D01*
X045258Y016572D01*
X045296Y016563D01*
X045333Y016550D01*
X045369Y016533D01*
X045402Y016513D01*
X045434Y016489D01*
X045463Y016463D01*
X045489Y016434D01*
X045513Y016402D01*
X045533Y016369D01*
X045550Y016333D01*
X045563Y016296D01*
X045572Y016258D01*
X045578Y016219D01*
X045580Y016180D01*
X045578Y016141D01*
X045572Y016102D01*
X045563Y016064D01*
X045550Y016027D01*
X045533Y015991D01*
X045513Y015958D01*
X045489Y015926D01*
X045463Y015897D01*
X045434Y015871D01*
X045402Y015847D01*
X045369Y015827D01*
X045333Y015810D01*
X045296Y015797D01*
X045258Y015788D01*
X045219Y015782D01*
X045180Y015780D01*
X045180Y015030D01*
X055180Y015030D01*
X057655Y015730D02*
X058955Y015730D01*
X058981Y015732D01*
X059007Y015737D01*
X059032Y015745D01*
X059055Y015757D01*
X059077Y015771D01*
X059096Y015789D01*
X059114Y015808D01*
X059128Y015830D01*
X059140Y015853D01*
X059148Y015878D01*
X059153Y015904D01*
X059155Y015930D01*
X058805Y016180D02*
X058435Y016180D01*
X058185Y016180D02*
X057805Y016180D01*
X057455Y016430D02*
X057457Y016456D01*
X057462Y016482D01*
X057470Y016507D01*
X057482Y016530D01*
X057496Y016552D01*
X057514Y016571D01*
X057533Y016589D01*
X057555Y016603D01*
X057578Y016615D01*
X057603Y016623D01*
X057629Y016628D01*
X057655Y016630D01*
X058955Y016630D01*
X058981Y016628D01*
X059007Y016623D01*
X059032Y016615D01*
X059055Y016603D01*
X059077Y016589D01*
X059096Y016571D01*
X059114Y016552D01*
X059128Y016530D01*
X059140Y016507D01*
X059148Y016482D01*
X059153Y016456D01*
X059155Y016430D01*
X059205Y017055D02*
X059955Y017055D01*
X059955Y025055D01*
X057655Y025055D01*
X057655Y017055D01*
X058405Y017055D01*
X058407Y017094D01*
X058413Y017133D01*
X058422Y017171D01*
X058435Y017208D01*
X058452Y017244D01*
X058472Y017277D01*
X058496Y017309D01*
X058522Y017338D01*
X058551Y017364D01*
X058583Y017388D01*
X058616Y017408D01*
X058652Y017425D01*
X058689Y017438D01*
X058727Y017447D01*
X058766Y017453D01*
X058805Y017455D01*
X058844Y017453D01*
X058883Y017447D01*
X058921Y017438D01*
X058958Y017425D01*
X058994Y017408D01*
X059027Y017388D01*
X059059Y017364D01*
X059088Y017338D01*
X059114Y017309D01*
X059138Y017277D01*
X059158Y017244D01*
X059175Y017208D01*
X059188Y017171D01*
X059197Y017133D01*
X059203Y017094D01*
X059205Y017055D01*
X059807Y016865D02*
X059947Y016865D01*
X059877Y016865D02*
X059877Y016445D01*
X059807Y016445D02*
X059947Y016445D01*
X060114Y016515D02*
X060184Y016445D01*
X060324Y016445D01*
X060394Y016515D01*
X060574Y016445D02*
X060854Y016445D01*
X060714Y016445D02*
X060714Y016865D01*
X060574Y016725D01*
X060394Y016795D02*
X060324Y016865D01*
X060184Y016865D01*
X060114Y016795D01*
X060114Y016515D01*
X061035Y016445D02*
X061315Y016445D01*
X061175Y016445D02*
X061175Y016865D01*
X061035Y016725D01*
X059015Y018145D02*
X058945Y018145D01*
X058665Y018425D01*
X058595Y018425D01*
X058595Y018145D01*
X058805Y018605D02*
X058805Y018886D01*
X059015Y018816D02*
X058595Y018816D01*
X058805Y018605D01*
X058595Y019066D02*
X059015Y019066D01*
X059015Y019346D01*
X058945Y019526D02*
X059015Y019596D01*
X059015Y019736D01*
X058945Y019806D01*
X058875Y019806D01*
X058805Y019736D01*
X058805Y019596D01*
X058735Y019526D01*
X058665Y019526D01*
X058595Y019596D01*
X058595Y019736D01*
X058665Y019806D01*
X058735Y019987D02*
X058595Y020127D01*
X059015Y020127D01*
X059015Y019987D02*
X059015Y020267D01*
X058945Y020447D02*
X059015Y020517D01*
X059015Y020657D01*
X058945Y020727D01*
X058805Y020727D01*
X058735Y020657D01*
X058735Y020587D01*
X058805Y020447D01*
X058595Y020447D01*
X058595Y020727D01*
X058595Y020907D02*
X058595Y021188D01*
X058665Y021188D01*
X058945Y020907D01*
X059015Y020907D01*
X059015Y021368D02*
X058595Y021368D01*
X059015Y021648D01*
X058595Y021648D01*
X055180Y020530D02*
X055180Y022830D01*
X045180Y022830D01*
X045180Y022080D01*
X045219Y022078D01*
X045258Y022072D01*
X045296Y022063D01*
X045333Y022050D01*
X045369Y022033D01*
X045402Y022013D01*
X045434Y021989D01*
X045463Y021963D01*
X045489Y021934D01*
X045513Y021902D01*
X045533Y021869D01*
X045550Y021833D01*
X045563Y021796D01*
X045572Y021758D01*
X045578Y021719D01*
X045580Y021680D01*
X045578Y021641D01*
X045572Y021602D01*
X045563Y021564D01*
X045550Y021527D01*
X045533Y021491D01*
X045513Y021458D01*
X045489Y021426D01*
X045463Y021397D01*
X045434Y021371D01*
X045402Y021347D01*
X045369Y021327D01*
X045333Y021310D01*
X045296Y021297D01*
X045258Y021288D01*
X045219Y021282D01*
X045180Y021280D01*
X045180Y020530D01*
X055180Y020530D01*
X049413Y021640D02*
X049413Y021920D01*
X049343Y021990D01*
X049202Y021990D01*
X049132Y021920D01*
X049132Y021850D01*
X049202Y021780D01*
X049413Y021780D01*
X049413Y021640D02*
X049343Y021570D01*
X049202Y021570D01*
X049132Y021640D01*
X048952Y021640D02*
X048952Y021710D01*
X048882Y021780D01*
X048672Y021780D01*
X048672Y021640D01*
X048742Y021570D01*
X048882Y021570D01*
X048952Y021640D01*
X048812Y021920D02*
X048672Y021780D01*
X048492Y021780D02*
X048492Y021640D01*
X048422Y021570D01*
X048282Y021570D01*
X048212Y021640D01*
X048212Y021780D02*
X048352Y021850D01*
X048422Y021850D01*
X048492Y021780D01*
X048492Y021990D02*
X048212Y021990D01*
X048212Y021780D01*
X048031Y021710D02*
X048031Y021640D01*
X047961Y021570D01*
X047821Y021570D01*
X047751Y021640D01*
X047821Y021780D02*
X047961Y021780D01*
X048031Y021710D01*
X048031Y021920D02*
X047961Y021990D01*
X047821Y021990D01*
X047751Y021920D01*
X047751Y021850D01*
X047821Y021780D01*
X047571Y021570D02*
X047291Y021570D01*
X047291Y021990D01*
X047041Y021990D02*
X046830Y021780D01*
X047111Y021780D01*
X047041Y021570D02*
X047041Y021990D01*
X046650Y021990D02*
X046650Y021920D01*
X046370Y021640D01*
X046370Y021570D01*
X046370Y021990D02*
X046650Y021990D01*
X044880Y021530D02*
X044880Y022830D01*
X044878Y022856D01*
X044873Y022882D01*
X044865Y022907D01*
X044853Y022930D01*
X044839Y022952D01*
X044821Y022971D01*
X044802Y022989D01*
X044780Y023003D01*
X044757Y023015D01*
X044732Y023023D01*
X044706Y023028D01*
X044680Y023030D01*
X044430Y022680D02*
X044430Y022300D01*
X044430Y022050D02*
X044430Y021680D01*
X044680Y021330D02*
X044706Y021332D01*
X044732Y021337D01*
X044757Y021345D01*
X044780Y021357D01*
X044802Y021371D01*
X044821Y021389D01*
X044839Y021408D01*
X044853Y021430D01*
X044865Y021453D01*
X044873Y021478D01*
X044878Y021504D01*
X044880Y021530D01*
X044180Y021330D02*
X044154Y021332D01*
X044128Y021337D01*
X044103Y021345D01*
X044080Y021357D01*
X044058Y021371D01*
X044039Y021389D01*
X044021Y021408D01*
X044007Y021430D01*
X043995Y021453D01*
X043987Y021478D01*
X043982Y021504D01*
X043980Y021530D01*
X043980Y022830D01*
X043982Y022856D01*
X043987Y022882D01*
X043995Y022907D01*
X044007Y022930D01*
X044021Y022952D01*
X044039Y022971D01*
X044058Y022989D01*
X044080Y023003D01*
X044103Y023015D01*
X044128Y023023D01*
X044154Y023028D01*
X044180Y023030D01*
X043055Y022830D02*
X043055Y020530D01*
X033055Y020530D01*
X033055Y021280D01*
X032755Y021530D02*
X032755Y022830D01*
X032753Y022856D01*
X032748Y022882D01*
X032740Y022907D01*
X032728Y022930D01*
X032714Y022952D01*
X032696Y022971D01*
X032677Y022989D01*
X032655Y023003D01*
X032632Y023015D01*
X032607Y023023D01*
X032581Y023028D01*
X032555Y023030D01*
X032305Y022680D02*
X032305Y022300D01*
X032305Y022050D02*
X032305Y021680D01*
X032055Y021330D02*
X032029Y021332D01*
X032003Y021337D01*
X031978Y021345D01*
X031955Y021357D01*
X031933Y021371D01*
X031914Y021389D01*
X031896Y021408D01*
X031882Y021430D01*
X031870Y021453D01*
X031862Y021478D01*
X031857Y021504D01*
X031855Y021530D01*
X031855Y022830D01*
X031857Y022856D01*
X031862Y022882D01*
X031870Y022907D01*
X031882Y022930D01*
X031896Y022952D01*
X031914Y022971D01*
X031933Y022989D01*
X031955Y023003D01*
X031978Y023015D01*
X032003Y023023D01*
X032029Y023028D01*
X032055Y023030D01*
X033055Y022830D02*
X033055Y022080D01*
X033094Y022078D01*
X033133Y022072D01*
X033171Y022063D01*
X033208Y022050D01*
X033244Y022033D01*
X033277Y022013D01*
X033309Y021989D01*
X033338Y021963D01*
X033364Y021934D01*
X033388Y021902D01*
X033408Y021869D01*
X033425Y021833D01*
X033438Y021796D01*
X033447Y021758D01*
X033453Y021719D01*
X033455Y021680D01*
X033453Y021641D01*
X033447Y021602D01*
X033438Y021564D01*
X033425Y021527D01*
X033408Y021491D01*
X033388Y021458D01*
X033364Y021426D01*
X033338Y021397D01*
X033309Y021371D01*
X033277Y021347D01*
X033244Y021327D01*
X033208Y021310D01*
X033171Y021297D01*
X033133Y021288D01*
X033094Y021282D01*
X033055Y021280D01*
X032755Y021530D02*
X032753Y021504D01*
X032748Y021478D01*
X032740Y021453D01*
X032728Y021430D01*
X032714Y021408D01*
X032696Y021389D01*
X032677Y021371D01*
X032655Y021357D01*
X032632Y021345D01*
X032607Y021337D01*
X032581Y021332D01*
X032555Y021330D01*
X032515Y020653D02*
X032795Y020373D01*
X032865Y020373D01*
X032865Y020193D02*
X032865Y019912D01*
X032865Y020052D02*
X032445Y020052D01*
X032585Y019912D01*
X032515Y019732D02*
X032445Y019662D01*
X032445Y019522D01*
X032515Y019452D01*
X032795Y019452D01*
X032865Y019522D01*
X032865Y019662D01*
X032795Y019732D01*
X032865Y019285D02*
X032865Y019145D01*
X032865Y019215D02*
X032445Y019215D01*
X032445Y019145D02*
X032445Y019285D01*
X032445Y020373D02*
X032445Y020653D01*
X032515Y020653D01*
X030930Y020530D02*
X030930Y022830D01*
X020930Y022830D01*
X020930Y022080D01*
X020969Y022078D01*
X021008Y022072D01*
X021046Y022063D01*
X021083Y022050D01*
X021119Y022033D01*
X021152Y022013D01*
X021184Y021989D01*
X021213Y021963D01*
X021239Y021934D01*
X021263Y021902D01*
X021283Y021869D01*
X021300Y021833D01*
X021313Y021796D01*
X021322Y021758D01*
X021328Y021719D01*
X021330Y021680D01*
X021328Y021641D01*
X021322Y021602D01*
X021313Y021564D01*
X021300Y021527D01*
X021283Y021491D01*
X021263Y021458D01*
X021239Y021426D01*
X021213Y021397D01*
X021184Y021371D01*
X021152Y021347D01*
X021119Y021327D01*
X021083Y021310D01*
X021046Y021297D01*
X021008Y021288D01*
X020969Y021282D01*
X020930Y021280D01*
X020930Y020530D01*
X030930Y020530D01*
X033055Y022830D02*
X043055Y022830D01*
X044570Y024645D02*
X044570Y024785D01*
X044570Y024715D02*
X044990Y024715D01*
X044990Y024645D02*
X044990Y024785D01*
X044920Y024952D02*
X044990Y025022D01*
X044990Y025162D01*
X044920Y025232D01*
X044990Y025412D02*
X044990Y025693D01*
X044990Y025552D02*
X044570Y025552D01*
X044710Y025412D01*
X044640Y025232D02*
X044570Y025162D01*
X044570Y025022D01*
X044640Y024952D01*
X044920Y024952D01*
X044990Y025873D02*
X044710Y026153D01*
X044640Y026153D01*
X044570Y026083D01*
X044570Y025943D01*
X044640Y025873D01*
X044990Y025873D02*
X044990Y026153D01*
X045180Y026030D02*
X045180Y026780D01*
X044880Y027030D02*
X044880Y028330D01*
X044878Y028356D01*
X044873Y028382D01*
X044865Y028407D01*
X044853Y028430D01*
X044839Y028452D01*
X044821Y028471D01*
X044802Y028489D01*
X044780Y028503D01*
X044757Y028515D01*
X044732Y028523D01*
X044706Y028528D01*
X044680Y028530D01*
X044430Y028180D02*
X044430Y027800D01*
X044430Y027550D02*
X044430Y027180D01*
X044680Y026830D02*
X044706Y026832D01*
X044732Y026837D01*
X044757Y026845D01*
X044780Y026857D01*
X044802Y026871D01*
X044821Y026889D01*
X044839Y026908D01*
X044853Y026930D01*
X044865Y026953D01*
X044873Y026978D01*
X044878Y027004D01*
X044880Y027030D01*
X045180Y026780D02*
X045219Y026782D01*
X045258Y026788D01*
X045296Y026797D01*
X045333Y026810D01*
X045369Y026827D01*
X045402Y026847D01*
X045434Y026871D01*
X045463Y026897D01*
X045489Y026926D01*
X045513Y026958D01*
X045533Y026991D01*
X045550Y027027D01*
X045563Y027064D01*
X045572Y027102D01*
X045578Y027141D01*
X045580Y027180D01*
X045578Y027219D01*
X045572Y027258D01*
X045563Y027296D01*
X045550Y027333D01*
X045533Y027369D01*
X045513Y027402D01*
X045489Y027434D01*
X045463Y027463D01*
X045434Y027489D01*
X045402Y027513D01*
X045369Y027533D01*
X045333Y027550D01*
X045296Y027563D01*
X045258Y027572D01*
X045219Y027578D01*
X045180Y027580D01*
X045180Y028330D01*
X055180Y028330D01*
X055180Y026030D01*
X045180Y026030D01*
X044180Y026830D02*
X044154Y026832D01*
X044128Y026837D01*
X044103Y026845D01*
X044080Y026857D01*
X044058Y026871D01*
X044039Y026889D01*
X044021Y026908D01*
X044007Y026930D01*
X043995Y026953D01*
X043987Y026978D01*
X043982Y027004D01*
X043980Y027030D01*
X043980Y028330D01*
X043982Y028356D01*
X043987Y028382D01*
X043995Y028407D01*
X044007Y028430D01*
X044021Y028452D01*
X044039Y028471D01*
X044058Y028489D01*
X044080Y028503D01*
X044103Y028515D01*
X044128Y028523D01*
X044154Y028528D01*
X044180Y028530D01*
X043055Y028330D02*
X043055Y026030D01*
X033055Y026030D01*
X033055Y026780D01*
X032755Y027030D02*
X032755Y028330D01*
X032753Y028356D01*
X032748Y028382D01*
X032740Y028407D01*
X032728Y028430D01*
X032714Y028452D01*
X032696Y028471D01*
X032677Y028489D01*
X032655Y028503D01*
X032632Y028515D01*
X032607Y028523D01*
X032581Y028528D01*
X032555Y028530D01*
X032305Y028180D02*
X032305Y027800D01*
X032305Y027550D02*
X032305Y027180D01*
X032055Y026830D02*
X032029Y026832D01*
X032003Y026837D01*
X031978Y026845D01*
X031955Y026857D01*
X031933Y026871D01*
X031914Y026889D01*
X031896Y026908D01*
X031882Y026930D01*
X031870Y026953D01*
X031862Y026978D01*
X031857Y027004D01*
X031855Y027030D01*
X031855Y028330D01*
X031857Y028356D01*
X031862Y028382D01*
X031870Y028407D01*
X031882Y028430D01*
X031896Y028452D01*
X031914Y028471D01*
X031933Y028489D01*
X031955Y028503D01*
X031978Y028515D01*
X032003Y028523D01*
X032029Y028528D01*
X032055Y028530D01*
X033055Y028330D02*
X033055Y027580D01*
X033094Y027578D01*
X033133Y027572D01*
X033171Y027563D01*
X033208Y027550D01*
X033244Y027533D01*
X033277Y027513D01*
X033309Y027489D01*
X033338Y027463D01*
X033364Y027434D01*
X033388Y027402D01*
X033408Y027369D01*
X033425Y027333D01*
X033438Y027296D01*
X033447Y027258D01*
X033453Y027219D01*
X033455Y027180D01*
X033453Y027141D01*
X033447Y027102D01*
X033438Y027064D01*
X033425Y027027D01*
X033408Y026991D01*
X033388Y026958D01*
X033364Y026926D01*
X033338Y026897D01*
X033309Y026871D01*
X033277Y026847D01*
X033244Y026827D01*
X033208Y026810D01*
X033171Y026797D01*
X033133Y026788D01*
X033094Y026782D01*
X033055Y026780D01*
X032755Y027030D02*
X032753Y027004D01*
X032748Y026978D01*
X032740Y026953D01*
X032728Y026930D01*
X032714Y026908D01*
X032696Y026889D01*
X032677Y026871D01*
X032655Y026857D01*
X032632Y026845D01*
X032607Y026837D01*
X032581Y026832D01*
X032555Y026830D01*
X032585Y026153D02*
X032655Y026083D01*
X032725Y026153D01*
X032795Y026153D01*
X032865Y026083D01*
X032865Y025943D01*
X032795Y025873D01*
X032865Y025693D02*
X032865Y025412D01*
X032865Y025552D02*
X032445Y025552D01*
X032585Y025412D01*
X032515Y025232D02*
X032445Y025162D01*
X032445Y025022D01*
X032515Y024952D01*
X032795Y024952D01*
X032865Y025022D01*
X032865Y025162D01*
X032795Y025232D01*
X032865Y024785D02*
X032865Y024645D01*
X032865Y024715D02*
X032445Y024715D01*
X032445Y024645D02*
X032445Y024785D01*
X032515Y025873D02*
X032445Y025943D01*
X032445Y026083D01*
X032515Y026153D01*
X032585Y026153D01*
X032655Y026083D02*
X032655Y026013D01*
X030930Y026030D02*
X030930Y028330D01*
X020930Y028330D01*
X020930Y027580D01*
X020969Y027578D01*
X021008Y027572D01*
X021046Y027563D01*
X021083Y027550D01*
X021119Y027533D01*
X021152Y027513D01*
X021184Y027489D01*
X021213Y027463D01*
X021239Y027434D01*
X021263Y027402D01*
X021283Y027369D01*
X021300Y027333D01*
X021313Y027296D01*
X021322Y027258D01*
X021328Y027219D01*
X021330Y027180D01*
X021328Y027141D01*
X021322Y027102D01*
X021313Y027064D01*
X021300Y027027D01*
X021283Y026991D01*
X021263Y026958D01*
X021239Y026926D01*
X021213Y026897D01*
X021184Y026871D01*
X021152Y026847D01*
X021119Y026827D01*
X021083Y026810D01*
X021046Y026797D01*
X021008Y026788D01*
X020969Y026782D01*
X020930Y026780D01*
X020930Y026030D01*
X030930Y026030D01*
X033055Y028330D02*
X043055Y028330D01*
X044570Y030520D02*
X044570Y030660D01*
X044570Y030590D02*
X044990Y030590D01*
X044990Y030520D02*
X044990Y030660D01*
X044920Y030827D02*
X044990Y030897D01*
X044990Y031037D01*
X044920Y031107D01*
X044920Y031287D02*
X044990Y031357D01*
X044990Y031498D01*
X044920Y031568D01*
X044780Y031568D01*
X044710Y031498D01*
X044710Y031427D01*
X044780Y031287D01*
X044570Y031287D01*
X044570Y031568D01*
X044640Y031107D02*
X044570Y031037D01*
X044570Y030897D01*
X044640Y030827D01*
X044920Y030827D01*
X045180Y031530D02*
X045180Y032280D01*
X044880Y032530D02*
X044880Y033830D01*
X044878Y033856D01*
X044873Y033882D01*
X044865Y033907D01*
X044853Y033930D01*
X044839Y033952D01*
X044821Y033971D01*
X044802Y033989D01*
X044780Y034003D01*
X044757Y034015D01*
X044732Y034023D01*
X044706Y034028D01*
X044680Y034030D01*
X044430Y033680D02*
X044430Y033300D01*
X044430Y033050D02*
X044430Y032680D01*
X044180Y032330D02*
X044154Y032332D01*
X044128Y032337D01*
X044103Y032345D01*
X044080Y032357D01*
X044058Y032371D01*
X044039Y032389D01*
X044021Y032408D01*
X044007Y032430D01*
X043995Y032453D01*
X043987Y032478D01*
X043982Y032504D01*
X043980Y032530D01*
X043980Y033830D01*
X043982Y033856D01*
X043987Y033882D01*
X043995Y033907D01*
X044007Y033930D01*
X044021Y033952D01*
X044039Y033971D01*
X044058Y033989D01*
X044080Y034003D01*
X044103Y034015D01*
X044128Y034023D01*
X044154Y034028D01*
X044180Y034030D01*
X045180Y033830D02*
X045180Y033080D01*
X045219Y033078D01*
X045258Y033072D01*
X045296Y033063D01*
X045333Y033050D01*
X045369Y033033D01*
X045402Y033013D01*
X045434Y032989D01*
X045463Y032963D01*
X045489Y032934D01*
X045513Y032902D01*
X045533Y032869D01*
X045550Y032833D01*
X045563Y032796D01*
X045572Y032758D01*
X045578Y032719D01*
X045580Y032680D01*
X045578Y032641D01*
X045572Y032602D01*
X045563Y032564D01*
X045550Y032527D01*
X045533Y032491D01*
X045513Y032458D01*
X045489Y032426D01*
X045463Y032397D01*
X045434Y032371D01*
X045402Y032347D01*
X045369Y032327D01*
X045333Y032310D01*
X045296Y032297D01*
X045258Y032288D01*
X045219Y032282D01*
X045180Y032280D01*
X044880Y032530D02*
X044878Y032504D01*
X044873Y032478D01*
X044865Y032453D01*
X044853Y032430D01*
X044839Y032408D01*
X044821Y032389D01*
X044802Y032371D01*
X044780Y032357D01*
X044757Y032345D01*
X044732Y032337D01*
X044706Y032332D01*
X044680Y032330D01*
X045180Y031530D02*
X055180Y031530D01*
X055180Y033830D01*
X045180Y033830D01*
X046370Y032990D02*
X046650Y032990D01*
X046650Y032920D01*
X046370Y032640D01*
X046370Y032570D01*
X046830Y032780D02*
X047111Y032780D01*
X047041Y032570D02*
X047041Y032990D01*
X046830Y032780D01*
X047291Y032570D02*
X047571Y032570D01*
X047751Y032640D02*
X047821Y032570D01*
X047961Y032570D01*
X048031Y032640D01*
X048031Y032710D01*
X047961Y032780D01*
X047821Y032780D01*
X047751Y032850D01*
X047751Y032920D01*
X047821Y032990D01*
X047961Y032990D01*
X048031Y032920D01*
X048212Y032990D02*
X048212Y032780D01*
X048352Y032850D01*
X048422Y032850D01*
X048492Y032780D01*
X048492Y032640D01*
X048422Y032570D01*
X048282Y032570D01*
X048212Y032640D01*
X048212Y032990D02*
X048492Y032990D01*
X048672Y032780D02*
X048882Y032780D01*
X048952Y032710D01*
X048952Y032640D01*
X048882Y032570D01*
X048742Y032570D01*
X048672Y032640D01*
X048672Y032780D01*
X048812Y032920D01*
X048952Y032990D01*
X049132Y032920D02*
X049202Y032990D01*
X049343Y032990D01*
X049413Y032920D01*
X049413Y032640D01*
X049343Y032570D01*
X049202Y032570D01*
X049132Y032640D01*
X049202Y032780D02*
X049413Y032780D01*
X049202Y032780D02*
X049132Y032850D01*
X049132Y032920D01*
X047291Y032990D02*
X047291Y032570D01*
X043055Y031530D02*
X043055Y033830D01*
X033055Y033830D01*
X033055Y033080D01*
X033094Y033078D01*
X033133Y033072D01*
X033171Y033063D01*
X033208Y033050D01*
X033244Y033033D01*
X033277Y033013D01*
X033309Y032989D01*
X033338Y032963D01*
X033364Y032934D01*
X033388Y032902D01*
X033408Y032869D01*
X033425Y032833D01*
X033438Y032796D01*
X033447Y032758D01*
X033453Y032719D01*
X033455Y032680D01*
X033453Y032641D01*
X033447Y032602D01*
X033438Y032564D01*
X033425Y032527D01*
X033408Y032491D01*
X033388Y032458D01*
X033364Y032426D01*
X033338Y032397D01*
X033309Y032371D01*
X033277Y032347D01*
X033244Y032327D01*
X033208Y032310D01*
X033171Y032297D01*
X033133Y032288D01*
X033094Y032282D01*
X033055Y032280D01*
X033055Y031530D01*
X043055Y031530D01*
X037288Y032640D02*
X037218Y032570D01*
X037077Y032570D01*
X037007Y032640D01*
X037077Y032780D02*
X037288Y032780D01*
X037288Y032640D02*
X037288Y032920D01*
X037218Y032990D01*
X037077Y032990D01*
X037007Y032920D01*
X037007Y032850D01*
X037077Y032780D01*
X036827Y032710D02*
X036757Y032780D01*
X036547Y032780D01*
X036547Y032640D01*
X036617Y032570D01*
X036757Y032570D01*
X036827Y032640D01*
X036827Y032710D01*
X036687Y032920D02*
X036827Y032990D01*
X036687Y032920D02*
X036547Y032780D01*
X036367Y032780D02*
X036367Y032640D01*
X036297Y032570D01*
X036157Y032570D01*
X036087Y032640D01*
X036087Y032780D02*
X036227Y032850D01*
X036297Y032850D01*
X036367Y032780D01*
X036367Y032990D02*
X036087Y032990D01*
X036087Y032780D01*
X035906Y032710D02*
X035906Y032640D01*
X035836Y032570D01*
X035696Y032570D01*
X035626Y032640D01*
X035696Y032780D02*
X035836Y032780D01*
X035906Y032710D01*
X035906Y032920D02*
X035836Y032990D01*
X035696Y032990D01*
X035626Y032920D01*
X035626Y032850D01*
X035696Y032780D01*
X035446Y032570D02*
X035166Y032570D01*
X035166Y032990D01*
X034916Y032990D02*
X034705Y032780D01*
X034986Y032780D01*
X034916Y032570D02*
X034916Y032990D01*
X034525Y032990D02*
X034525Y032920D01*
X034245Y032640D01*
X034245Y032570D01*
X034245Y032990D02*
X034525Y032990D01*
X032755Y032530D02*
X032755Y033830D01*
X032753Y033856D01*
X032748Y033882D01*
X032740Y033907D01*
X032728Y033930D01*
X032714Y033952D01*
X032696Y033971D01*
X032677Y033989D01*
X032655Y034003D01*
X032632Y034015D01*
X032607Y034023D01*
X032581Y034028D01*
X032555Y034030D01*
X032305Y033680D02*
X032305Y033300D01*
X032305Y033050D02*
X032305Y032680D01*
X032055Y032330D02*
X032029Y032332D01*
X032003Y032337D01*
X031978Y032345D01*
X031955Y032357D01*
X031933Y032371D01*
X031914Y032389D01*
X031896Y032408D01*
X031882Y032430D01*
X031870Y032453D01*
X031862Y032478D01*
X031857Y032504D01*
X031855Y032530D01*
X031855Y033830D01*
X031857Y033856D01*
X031862Y033882D01*
X031870Y033907D01*
X031882Y033930D01*
X031896Y033952D01*
X031914Y033971D01*
X031933Y033989D01*
X031955Y034003D01*
X031978Y034015D01*
X032003Y034023D01*
X032029Y034028D01*
X032055Y034030D01*
X030930Y033830D02*
X030930Y031530D01*
X020930Y031530D01*
X020930Y032280D01*
X020630Y032405D02*
X020630Y033705D01*
X020628Y033731D01*
X020623Y033757D01*
X020615Y033782D01*
X020603Y033805D01*
X020589Y033827D01*
X020571Y033846D01*
X020552Y033864D01*
X020530Y033878D01*
X020507Y033890D01*
X020482Y033898D01*
X020456Y033903D01*
X020430Y033905D01*
X020180Y033555D02*
X020180Y033175D01*
X020180Y032925D02*
X020180Y032555D01*
X019930Y032205D02*
X019904Y032207D01*
X019878Y032212D01*
X019853Y032220D01*
X019830Y032232D01*
X019808Y032246D01*
X019789Y032264D01*
X019771Y032283D01*
X019757Y032305D01*
X019745Y032328D01*
X019737Y032353D01*
X019732Y032379D01*
X019730Y032405D01*
X019730Y033705D01*
X019732Y033731D01*
X019737Y033757D01*
X019745Y033782D01*
X019757Y033805D01*
X019771Y033827D01*
X019789Y033846D01*
X019808Y033864D01*
X019830Y033878D01*
X019853Y033890D01*
X019878Y033898D01*
X019904Y033903D01*
X019930Y033905D01*
X020930Y033830D02*
X020930Y033080D01*
X020969Y033078D01*
X021008Y033072D01*
X021046Y033063D01*
X021083Y033050D01*
X021119Y033033D01*
X021152Y033013D01*
X021184Y032989D01*
X021213Y032963D01*
X021239Y032934D01*
X021263Y032902D01*
X021283Y032869D01*
X021300Y032833D01*
X021313Y032796D01*
X021322Y032758D01*
X021328Y032719D01*
X021330Y032680D01*
X021328Y032641D01*
X021322Y032602D01*
X021313Y032564D01*
X021300Y032527D01*
X021283Y032491D01*
X021263Y032458D01*
X021239Y032426D01*
X021213Y032397D01*
X021184Y032371D01*
X021152Y032347D01*
X021119Y032327D01*
X021083Y032310D01*
X021046Y032297D01*
X021008Y032288D01*
X020969Y032282D01*
X020930Y032280D01*
X020630Y032405D02*
X020628Y032379D01*
X020623Y032353D01*
X020615Y032328D01*
X020603Y032305D01*
X020589Y032283D01*
X020571Y032264D01*
X020552Y032246D01*
X020530Y032232D01*
X020507Y032220D01*
X020482Y032212D01*
X020456Y032207D01*
X020430Y032205D01*
X020390Y031443D02*
X020670Y031162D01*
X020740Y031162D01*
X020670Y030982D02*
X020740Y030912D01*
X020740Y030772D01*
X020670Y030702D01*
X020390Y030702D01*
X020320Y030772D01*
X020320Y030912D01*
X020390Y030982D01*
X020320Y031162D02*
X020320Y031443D01*
X020390Y031443D01*
X022120Y032570D02*
X022120Y032640D01*
X022400Y032920D01*
X022400Y032990D01*
X022120Y032990D01*
X022580Y032780D02*
X022861Y032780D01*
X022791Y032570D02*
X022791Y032990D01*
X022580Y032780D01*
X023041Y032570D02*
X023321Y032570D01*
X023501Y032640D02*
X023571Y032570D01*
X023711Y032570D01*
X023781Y032640D01*
X023781Y032710D01*
X023711Y032780D01*
X023571Y032780D01*
X023501Y032850D01*
X023501Y032920D01*
X023571Y032990D01*
X023711Y032990D01*
X023781Y032920D01*
X023962Y032990D02*
X023962Y032780D01*
X024102Y032850D01*
X024172Y032850D01*
X024242Y032780D01*
X024242Y032640D01*
X024172Y032570D01*
X024032Y032570D01*
X023962Y032640D01*
X023962Y032990D02*
X024242Y032990D01*
X024422Y032780D02*
X024632Y032780D01*
X024702Y032710D01*
X024702Y032640D01*
X024632Y032570D01*
X024492Y032570D01*
X024422Y032640D01*
X024422Y032780D01*
X024562Y032920D01*
X024702Y032990D01*
X024882Y032920D02*
X024882Y032850D01*
X024952Y032780D01*
X025163Y032780D01*
X025163Y032640D02*
X025163Y032920D01*
X025093Y032990D01*
X024952Y032990D01*
X024882Y032920D01*
X024882Y032640D02*
X024952Y032570D01*
X025093Y032570D01*
X025163Y032640D01*
X023041Y032570D02*
X023041Y032990D01*
X020930Y033830D02*
X030930Y033830D01*
X032555Y032330D02*
X032581Y032332D01*
X032607Y032337D01*
X032632Y032345D01*
X032655Y032357D01*
X032677Y032371D01*
X032696Y032389D01*
X032714Y032408D01*
X032728Y032430D01*
X032740Y032453D01*
X032748Y032478D01*
X032753Y032504D01*
X032755Y032530D01*
X032725Y031568D02*
X032655Y031498D01*
X032655Y031287D01*
X032795Y031287D01*
X032865Y031357D01*
X032865Y031498D01*
X032795Y031568D01*
X032725Y031568D01*
X032515Y031427D02*
X032655Y031287D01*
X032515Y031427D02*
X032445Y031568D01*
X032515Y031107D02*
X032445Y031037D01*
X032445Y030897D01*
X032515Y030827D01*
X032795Y030827D01*
X032865Y030897D01*
X032865Y031037D01*
X032795Y031107D01*
X032865Y030660D02*
X032865Y030520D01*
X032865Y030590D02*
X032445Y030590D01*
X032445Y030520D02*
X032445Y030660D01*
X034245Y027490D02*
X034525Y027490D01*
X034525Y027420D01*
X034245Y027140D01*
X034245Y027070D01*
X034705Y027280D02*
X034986Y027280D01*
X034916Y027070D02*
X034916Y027490D01*
X034705Y027280D01*
X035166Y027490D02*
X035166Y027070D01*
X035446Y027070D01*
X035626Y027140D02*
X035696Y027070D01*
X035836Y027070D01*
X035906Y027140D01*
X035906Y027210D01*
X035836Y027280D01*
X035696Y027280D01*
X035626Y027350D01*
X035626Y027420D01*
X035696Y027490D01*
X035836Y027490D01*
X035906Y027420D01*
X036087Y027490D02*
X036087Y027280D01*
X036227Y027350D01*
X036297Y027350D01*
X036367Y027280D01*
X036367Y027140D01*
X036297Y027070D01*
X036157Y027070D01*
X036087Y027140D01*
X036087Y027490D02*
X036367Y027490D01*
X036547Y027280D02*
X036687Y027420D01*
X036827Y027490D01*
X037007Y027420D02*
X037007Y027350D01*
X037077Y027280D01*
X037288Y027280D01*
X037288Y027140D02*
X037288Y027420D01*
X037218Y027490D01*
X037077Y027490D01*
X037007Y027420D01*
X036827Y027210D02*
X036757Y027280D01*
X036547Y027280D01*
X036547Y027140D01*
X036617Y027070D01*
X036757Y027070D01*
X036827Y027140D01*
X036827Y027210D01*
X037007Y027140D02*
X037077Y027070D01*
X037218Y027070D01*
X037288Y027140D01*
X037218Y021990D02*
X037077Y021990D01*
X037007Y021920D01*
X037007Y021850D01*
X037077Y021780D01*
X037288Y021780D01*
X037288Y021640D02*
X037288Y021920D01*
X037218Y021990D01*
X037288Y021640D02*
X037218Y021570D01*
X037077Y021570D01*
X037007Y021640D01*
X036827Y021640D02*
X036827Y021710D01*
X036757Y021780D01*
X036547Y021780D01*
X036547Y021640D01*
X036617Y021570D01*
X036757Y021570D01*
X036827Y021640D01*
X036687Y021920D02*
X036547Y021780D01*
X036367Y021780D02*
X036367Y021640D01*
X036297Y021570D01*
X036157Y021570D01*
X036087Y021640D01*
X036087Y021780D02*
X036227Y021850D01*
X036297Y021850D01*
X036367Y021780D01*
X036367Y021990D02*
X036087Y021990D01*
X036087Y021780D01*
X035906Y021710D02*
X035906Y021640D01*
X035836Y021570D01*
X035696Y021570D01*
X035626Y021640D01*
X035696Y021780D02*
X035836Y021780D01*
X035906Y021710D01*
X035906Y021920D02*
X035836Y021990D01*
X035696Y021990D01*
X035626Y021920D01*
X035626Y021850D01*
X035696Y021780D01*
X035446Y021570D02*
X035166Y021570D01*
X035166Y021990D01*
X034916Y021990D02*
X034705Y021780D01*
X034986Y021780D01*
X034916Y021570D02*
X034916Y021990D01*
X034525Y021990D02*
X034525Y021920D01*
X034245Y021640D01*
X034245Y021570D01*
X034245Y021990D02*
X034525Y021990D01*
X036687Y021920D02*
X036827Y021990D01*
X033055Y017330D02*
X033055Y016580D01*
X033094Y016578D01*
X033133Y016572D01*
X033171Y016563D01*
X033208Y016550D01*
X033244Y016533D01*
X033277Y016513D01*
X033309Y016489D01*
X033338Y016463D01*
X033364Y016434D01*
X033388Y016402D01*
X033408Y016369D01*
X033425Y016333D01*
X033438Y016296D01*
X033447Y016258D01*
X033453Y016219D01*
X033455Y016180D01*
X033453Y016141D01*
X033447Y016102D01*
X033438Y016064D01*
X033425Y016027D01*
X033408Y015991D01*
X033388Y015958D01*
X033364Y015926D01*
X033338Y015897D01*
X033309Y015871D01*
X033277Y015847D01*
X033244Y015827D01*
X033208Y015810D01*
X033171Y015797D01*
X033133Y015788D01*
X033094Y015782D01*
X033055Y015780D01*
X033055Y015030D01*
X043055Y015030D01*
X043055Y017330D01*
X033055Y017330D01*
X032755Y017330D02*
X032755Y016030D01*
X032753Y016004D01*
X032748Y015978D01*
X032740Y015953D01*
X032728Y015930D01*
X032714Y015908D01*
X032696Y015889D01*
X032677Y015871D01*
X032655Y015857D01*
X032632Y015845D01*
X032607Y015837D01*
X032581Y015832D01*
X032555Y015830D01*
X032305Y016180D02*
X032305Y016550D01*
X032305Y016800D02*
X032305Y017180D01*
X032055Y017530D02*
X032029Y017528D01*
X032003Y017523D01*
X031978Y017515D01*
X031955Y017503D01*
X031933Y017489D01*
X031914Y017471D01*
X031896Y017452D01*
X031882Y017430D01*
X031870Y017407D01*
X031862Y017382D01*
X031857Y017356D01*
X031855Y017330D01*
X031855Y016030D01*
X031857Y016004D01*
X031862Y015978D01*
X031870Y015953D01*
X031882Y015930D01*
X031896Y015908D01*
X031914Y015889D01*
X031933Y015871D01*
X031955Y015857D01*
X031978Y015845D01*
X032003Y015837D01*
X032029Y015832D01*
X032055Y015830D01*
X032515Y015068D02*
X032445Y014998D01*
X032445Y014857D01*
X032515Y014787D01*
X032515Y014607D02*
X032445Y014537D01*
X032445Y014397D01*
X032515Y014327D01*
X032795Y014327D01*
X032865Y014397D01*
X032865Y014537D01*
X032795Y014607D01*
X032865Y014787D02*
X032585Y015068D01*
X032515Y015068D01*
X032865Y015068D02*
X032865Y014787D01*
X032865Y014160D02*
X032865Y014020D01*
X032865Y014090D02*
X032445Y014090D01*
X032445Y014020D02*
X032445Y014160D01*
X030930Y015030D02*
X030930Y017330D01*
X020930Y017330D01*
X020930Y016580D01*
X020969Y016578D01*
X021008Y016572D01*
X021046Y016563D01*
X021083Y016550D01*
X021119Y016533D01*
X021152Y016513D01*
X021184Y016489D01*
X021213Y016463D01*
X021239Y016434D01*
X021263Y016402D01*
X021283Y016369D01*
X021300Y016333D01*
X021313Y016296D01*
X021322Y016258D01*
X021328Y016219D01*
X021330Y016180D01*
X021328Y016141D01*
X021322Y016102D01*
X021313Y016064D01*
X021300Y016027D01*
X021283Y015991D01*
X021263Y015958D01*
X021239Y015926D01*
X021213Y015897D01*
X021184Y015871D01*
X021152Y015847D01*
X021119Y015827D01*
X021083Y015810D01*
X021046Y015797D01*
X021008Y015788D01*
X020969Y015782D01*
X020930Y015780D01*
X020930Y015030D01*
X030930Y015030D01*
X032755Y017330D02*
X032753Y017356D01*
X032748Y017382D01*
X032740Y017407D01*
X032728Y017430D01*
X032714Y017452D01*
X032696Y017471D01*
X032677Y017489D01*
X032655Y017503D01*
X032632Y017515D01*
X032607Y017523D01*
X032581Y017528D01*
X032555Y017530D01*
X034245Y016490D02*
X034525Y016490D01*
X034525Y016420D01*
X034245Y016140D01*
X034245Y016070D01*
X034705Y016280D02*
X034986Y016280D01*
X034916Y016070D02*
X034916Y016490D01*
X034705Y016280D01*
X035166Y016490D02*
X035166Y016070D01*
X035446Y016070D01*
X035626Y016140D02*
X035696Y016070D01*
X035836Y016070D01*
X035906Y016140D01*
X035906Y016210D01*
X035836Y016280D01*
X035696Y016280D01*
X035626Y016350D01*
X035626Y016420D01*
X035696Y016490D01*
X035836Y016490D01*
X035906Y016420D01*
X036087Y016490D02*
X036087Y016280D01*
X036227Y016350D01*
X036297Y016350D01*
X036367Y016280D01*
X036367Y016140D01*
X036297Y016070D01*
X036157Y016070D01*
X036087Y016140D01*
X036087Y016490D02*
X036367Y016490D01*
X036547Y016280D02*
X036687Y016420D01*
X036827Y016490D01*
X037007Y016420D02*
X037007Y016350D01*
X037077Y016280D01*
X037288Y016280D01*
X037288Y016140D02*
X037288Y016420D01*
X037218Y016490D01*
X037077Y016490D01*
X037007Y016420D01*
X036827Y016210D02*
X036757Y016280D01*
X036547Y016280D01*
X036547Y016140D01*
X036617Y016070D01*
X036757Y016070D01*
X036827Y016140D01*
X036827Y016210D01*
X037007Y016140D02*
X037077Y016070D01*
X037218Y016070D01*
X037288Y016140D01*
X043980Y016030D02*
X043980Y017330D01*
X043982Y017356D01*
X043987Y017382D01*
X043995Y017407D01*
X044007Y017430D01*
X044021Y017452D01*
X044039Y017471D01*
X044058Y017489D01*
X044080Y017503D01*
X044103Y017515D01*
X044128Y017523D01*
X044154Y017528D01*
X044180Y017530D01*
X044430Y017180D02*
X044430Y016800D01*
X044430Y016550D02*
X044430Y016180D01*
X044680Y015830D02*
X044706Y015832D01*
X044732Y015837D01*
X044757Y015845D01*
X044780Y015857D01*
X044802Y015871D01*
X044821Y015889D01*
X044839Y015908D01*
X044853Y015930D01*
X044865Y015953D01*
X044873Y015978D01*
X044878Y016004D01*
X044880Y016030D01*
X044880Y017330D01*
X044878Y017356D01*
X044873Y017382D01*
X044865Y017407D01*
X044853Y017430D01*
X044839Y017452D01*
X044821Y017471D01*
X044802Y017489D01*
X044780Y017503D01*
X044757Y017515D01*
X044732Y017523D01*
X044706Y017528D01*
X044680Y017530D01*
X046370Y016490D02*
X046650Y016490D01*
X046650Y016420D01*
X046370Y016140D01*
X046370Y016070D01*
X046830Y016280D02*
X047111Y016280D01*
X047041Y016070D02*
X047041Y016490D01*
X046830Y016280D01*
X047291Y016490D02*
X047291Y016070D01*
X047571Y016070D01*
X047751Y016140D02*
X047821Y016070D01*
X047961Y016070D01*
X048031Y016140D01*
X048031Y016210D01*
X047961Y016280D01*
X047821Y016280D01*
X047751Y016350D01*
X047751Y016420D01*
X047821Y016490D01*
X047961Y016490D01*
X048031Y016420D01*
X048212Y016490D02*
X048212Y016280D01*
X048352Y016350D01*
X048422Y016350D01*
X048492Y016280D01*
X048492Y016140D01*
X048422Y016070D01*
X048282Y016070D01*
X048212Y016140D01*
X048212Y016490D02*
X048492Y016490D01*
X048672Y016280D02*
X048882Y016280D01*
X048952Y016210D01*
X048952Y016140D01*
X048882Y016070D01*
X048742Y016070D01*
X048672Y016140D01*
X048672Y016280D01*
X048812Y016420D01*
X048952Y016490D01*
X049132Y016420D02*
X049132Y016350D01*
X049202Y016280D01*
X049413Y016280D01*
X049413Y016140D02*
X049413Y016420D01*
X049343Y016490D01*
X049202Y016490D01*
X049132Y016420D01*
X049132Y016140D02*
X049202Y016070D01*
X049343Y016070D01*
X049413Y016140D01*
X044990Y015193D02*
X044990Y014912D01*
X044990Y015052D02*
X044570Y015052D01*
X044710Y014912D01*
X044640Y014732D02*
X044570Y014662D01*
X044570Y014522D01*
X044640Y014452D01*
X044920Y014452D01*
X044990Y014522D01*
X044990Y014662D01*
X044920Y014732D01*
X044990Y014285D02*
X044990Y014145D01*
X044990Y014215D02*
X044570Y014215D01*
X044570Y014145D02*
X044570Y014285D01*
X044180Y015830D02*
X044154Y015832D01*
X044128Y015837D01*
X044103Y015845D01*
X044080Y015857D01*
X044058Y015871D01*
X044039Y015889D01*
X044021Y015908D01*
X044007Y015930D01*
X043995Y015953D01*
X043987Y015978D01*
X043982Y016004D01*
X043980Y016030D01*
X044570Y019145D02*
X044570Y019285D01*
X044570Y019215D02*
X044990Y019215D01*
X044990Y019145D02*
X044990Y019285D01*
X044920Y019452D02*
X044990Y019522D01*
X044990Y019662D01*
X044920Y019732D01*
X044990Y019912D02*
X044990Y020193D01*
X044990Y020052D02*
X044570Y020052D01*
X044710Y019912D01*
X044640Y019732D02*
X044570Y019662D01*
X044570Y019522D01*
X044640Y019452D01*
X044920Y019452D01*
X044920Y020373D02*
X044990Y020443D01*
X044990Y020583D01*
X044920Y020653D01*
X044850Y020653D01*
X044780Y020583D01*
X044780Y020373D01*
X044920Y020373D01*
X044780Y020373D02*
X044640Y020513D01*
X044570Y020653D01*
X048812Y021920D02*
X048952Y021990D01*
X048882Y027070D02*
X048742Y027070D01*
X048672Y027140D01*
X048672Y027280D01*
X048882Y027280D01*
X048952Y027210D01*
X048952Y027140D01*
X048882Y027070D01*
X049132Y027140D02*
X049202Y027070D01*
X049343Y027070D01*
X049413Y027140D01*
X049413Y027420D01*
X049343Y027490D01*
X049202Y027490D01*
X049132Y027420D01*
X049132Y027350D01*
X049202Y027280D01*
X049413Y027280D01*
X048952Y027490D02*
X048812Y027420D01*
X048672Y027280D01*
X048492Y027280D02*
X048492Y027140D01*
X048422Y027070D01*
X048282Y027070D01*
X048212Y027140D01*
X048212Y027280D02*
X048352Y027350D01*
X048422Y027350D01*
X048492Y027280D01*
X048492Y027490D02*
X048212Y027490D01*
X048212Y027280D01*
X048031Y027210D02*
X048031Y027140D01*
X047961Y027070D01*
X047821Y027070D01*
X047751Y027140D01*
X047821Y027280D02*
X047961Y027280D01*
X048031Y027210D01*
X048031Y027420D02*
X047961Y027490D01*
X047821Y027490D01*
X047751Y027420D01*
X047751Y027350D01*
X047821Y027280D01*
X047571Y027070D02*
X047291Y027070D01*
X047291Y027490D01*
X047041Y027490D02*
X046830Y027280D01*
X047111Y027280D01*
X047041Y027070D02*
X047041Y027490D01*
X046650Y027490D02*
X046650Y027420D01*
X046370Y027140D01*
X046370Y027070D01*
X046370Y027490D02*
X046650Y027490D01*
X057655Y027055D02*
X058405Y027055D01*
X058407Y027094D01*
X058413Y027133D01*
X058422Y027171D01*
X058435Y027208D01*
X058452Y027244D01*
X058472Y027277D01*
X058496Y027309D01*
X058522Y027338D01*
X058551Y027364D01*
X058583Y027388D01*
X058616Y027408D01*
X058652Y027425D01*
X058689Y027438D01*
X058727Y027447D01*
X058766Y027453D01*
X058805Y027455D01*
X058844Y027453D01*
X058883Y027447D01*
X058921Y027438D01*
X058958Y027425D01*
X058994Y027408D01*
X059027Y027388D01*
X059059Y027364D01*
X059088Y027338D01*
X059114Y027309D01*
X059138Y027277D01*
X059158Y027244D01*
X059175Y027208D01*
X059188Y027171D01*
X059197Y027133D01*
X059203Y027094D01*
X059205Y027055D01*
X059955Y027055D01*
X059955Y035055D01*
X057655Y035055D01*
X057655Y027055D01*
X057655Y026630D02*
X058955Y026630D01*
X058981Y026628D01*
X059007Y026623D01*
X059032Y026615D01*
X059055Y026603D01*
X059077Y026589D01*
X059096Y026571D01*
X059114Y026552D01*
X059128Y026530D01*
X059140Y026507D01*
X059148Y026482D01*
X059153Y026456D01*
X059155Y026430D01*
X058805Y026180D02*
X058435Y026180D01*
X058185Y026180D02*
X057805Y026180D01*
X057455Y026430D02*
X057457Y026456D01*
X057462Y026482D01*
X057470Y026507D01*
X057482Y026530D01*
X057496Y026552D01*
X057514Y026571D01*
X057533Y026589D01*
X057555Y026603D01*
X057578Y026615D01*
X057603Y026623D01*
X057629Y026628D01*
X057655Y026630D01*
X057455Y025930D02*
X057457Y025904D01*
X057462Y025878D01*
X057470Y025853D01*
X057482Y025830D01*
X057496Y025808D01*
X057514Y025789D01*
X057533Y025771D01*
X057555Y025757D01*
X057578Y025745D01*
X057603Y025737D01*
X057629Y025732D01*
X057655Y025730D01*
X058955Y025730D01*
X058981Y025732D01*
X059007Y025737D01*
X059032Y025745D01*
X059055Y025757D01*
X059077Y025771D01*
X059096Y025789D01*
X059114Y025808D01*
X059128Y025830D01*
X059140Y025853D01*
X059148Y025878D01*
X059153Y025904D01*
X059155Y025930D01*
X059807Y026445D02*
X059947Y026445D01*
X059877Y026445D02*
X059877Y026865D01*
X059807Y026865D02*
X059947Y026865D01*
X060114Y026795D02*
X060114Y026515D01*
X060184Y026445D01*
X060324Y026445D01*
X060394Y026515D01*
X060574Y026445D02*
X060854Y026445D01*
X060714Y026445D02*
X060714Y026865D01*
X060574Y026725D01*
X060394Y026795D02*
X060324Y026865D01*
X060184Y026865D01*
X060114Y026795D01*
X061035Y026795D02*
X061035Y026515D01*
X061315Y026795D01*
X061315Y026515D01*
X061245Y026445D01*
X061105Y026445D01*
X061035Y026515D01*
X061035Y026795D02*
X061105Y026865D01*
X061245Y026865D01*
X061315Y026795D01*
X059015Y028145D02*
X058945Y028145D01*
X058665Y028425D01*
X058595Y028425D01*
X058595Y028145D01*
X058805Y028605D02*
X058805Y028886D01*
X059015Y028816D02*
X058595Y028816D01*
X058805Y028605D01*
X058595Y029066D02*
X059015Y029066D01*
X059015Y029346D01*
X058945Y029526D02*
X059015Y029596D01*
X059015Y029736D01*
X058945Y029806D01*
X058875Y029806D01*
X058805Y029736D01*
X058805Y029596D01*
X058735Y029526D01*
X058665Y029526D01*
X058595Y029596D01*
X058595Y029736D01*
X058665Y029806D01*
X058735Y029987D02*
X058595Y030127D01*
X059015Y030127D01*
X059015Y029987D02*
X059015Y030267D01*
X058945Y030447D02*
X059015Y030517D01*
X059015Y030657D01*
X058945Y030727D01*
X058805Y030727D01*
X058735Y030657D01*
X058735Y030587D01*
X058805Y030447D01*
X058595Y030447D01*
X058595Y030727D01*
X058595Y030907D02*
X058595Y031188D01*
X058665Y031188D01*
X058945Y030907D01*
X059015Y030907D01*
X059015Y031368D02*
X058595Y031368D01*
X059015Y031648D01*
X058595Y031648D01*
X056805Y035930D02*
X056305Y035930D01*
X056055Y036180D01*
X056055Y037680D01*
X056305Y037930D01*
X056805Y037930D01*
X057055Y037680D01*
X057055Y036180D01*
X056805Y035930D01*
X056055Y036180D02*
X055805Y035930D01*
X055305Y035930D01*
X055055Y036180D01*
X055055Y037680D01*
X055305Y037930D01*
X055805Y037930D01*
X056055Y037680D01*
X056016Y038220D02*
X056226Y038220D01*
X056296Y038290D01*
X056296Y038570D01*
X056226Y038640D01*
X056016Y038640D01*
X056016Y038220D01*
X055836Y038220D02*
X055836Y038640D01*
X055555Y038640D02*
X055555Y038220D01*
X055375Y038290D02*
X055375Y038430D01*
X055235Y038430D01*
X055095Y038290D02*
X055165Y038220D01*
X055305Y038220D01*
X055375Y038290D01*
X055095Y038290D02*
X055095Y038570D01*
X055165Y038640D01*
X055305Y038640D01*
X055375Y038570D01*
X055555Y038640D02*
X055836Y038220D01*
X056476Y038220D02*
X056756Y038220D01*
X056616Y038220D02*
X056616Y038640D01*
X056476Y038500D01*
X025163Y027420D02*
X025163Y027140D01*
X025093Y027070D01*
X024952Y027070D01*
X024882Y027140D01*
X024952Y027280D02*
X025163Y027280D01*
X025163Y027420D02*
X025093Y027490D01*
X024952Y027490D01*
X024882Y027420D01*
X024882Y027350D01*
X024952Y027280D01*
X024702Y027210D02*
X024632Y027280D01*
X024422Y027280D01*
X024422Y027140D01*
X024492Y027070D01*
X024632Y027070D01*
X024702Y027140D01*
X024702Y027210D01*
X024562Y027420D02*
X024422Y027280D01*
X024242Y027280D02*
X024242Y027140D01*
X024172Y027070D01*
X024032Y027070D01*
X023962Y027140D01*
X023962Y027280D02*
X024102Y027350D01*
X024172Y027350D01*
X024242Y027280D01*
X024242Y027490D02*
X023962Y027490D01*
X023962Y027280D01*
X023781Y027210D02*
X023781Y027140D01*
X023711Y027070D01*
X023571Y027070D01*
X023501Y027140D01*
X023571Y027280D02*
X023711Y027280D01*
X023781Y027210D01*
X023781Y027420D02*
X023711Y027490D01*
X023571Y027490D01*
X023501Y027420D01*
X023501Y027350D01*
X023571Y027280D01*
X023321Y027070D02*
X023041Y027070D01*
X023041Y027490D01*
X022791Y027490D02*
X022580Y027280D01*
X022861Y027280D01*
X022791Y027070D02*
X022791Y027490D01*
X022400Y027490D02*
X022400Y027420D01*
X022120Y027140D01*
X022120Y027070D01*
X022120Y027490D02*
X022400Y027490D01*
X020630Y027030D02*
X020630Y028330D01*
X020628Y028356D01*
X020623Y028382D01*
X020615Y028407D01*
X020603Y028430D01*
X020589Y028452D01*
X020571Y028471D01*
X020552Y028489D01*
X020530Y028503D01*
X020507Y028515D01*
X020482Y028523D01*
X020456Y028528D01*
X020430Y028530D01*
X020180Y028180D02*
X020180Y027800D01*
X020180Y027550D02*
X020180Y027180D01*
X019930Y026830D02*
X019904Y026832D01*
X019878Y026837D01*
X019853Y026845D01*
X019830Y026857D01*
X019808Y026871D01*
X019789Y026889D01*
X019771Y026908D01*
X019757Y026930D01*
X019745Y026953D01*
X019737Y026978D01*
X019732Y027004D01*
X019730Y027030D01*
X019730Y028330D01*
X019732Y028356D01*
X019737Y028382D01*
X019745Y028407D01*
X019757Y028430D01*
X019771Y028452D01*
X019789Y028471D01*
X019808Y028489D01*
X019830Y028503D01*
X019853Y028515D01*
X019878Y028523D01*
X019904Y028528D01*
X019930Y028530D01*
X018805Y028330D02*
X018805Y026030D01*
X008805Y026030D01*
X008805Y026780D01*
X008615Y026787D02*
X008615Y027068D01*
X008615Y026927D02*
X008195Y026927D01*
X008335Y026787D01*
X008265Y026607D02*
X008195Y026537D01*
X008195Y026397D01*
X008265Y026327D01*
X008545Y026327D01*
X008615Y026397D01*
X008615Y026537D01*
X008545Y026607D01*
X008615Y026160D02*
X008615Y026020D01*
X008615Y026090D02*
X008195Y026090D01*
X008195Y026020D02*
X008195Y026160D01*
X008195Y027248D02*
X008405Y027248D01*
X008335Y027388D01*
X008335Y027458D01*
X008405Y027528D01*
X008545Y027528D01*
X008615Y027458D01*
X008615Y027318D01*
X008545Y027248D01*
X008805Y027580D02*
X008844Y027578D01*
X008883Y027572D01*
X008921Y027563D01*
X008958Y027550D01*
X008994Y027533D01*
X009027Y027513D01*
X009059Y027489D01*
X009088Y027463D01*
X009114Y027434D01*
X009138Y027402D01*
X009158Y027369D01*
X009175Y027333D01*
X009188Y027296D01*
X009197Y027258D01*
X009203Y027219D01*
X009205Y027180D01*
X009203Y027141D01*
X009197Y027102D01*
X009188Y027064D01*
X009175Y027027D01*
X009158Y026991D01*
X009138Y026958D01*
X009114Y026926D01*
X009088Y026897D01*
X009059Y026871D01*
X009027Y026847D01*
X008994Y026827D01*
X008958Y026810D01*
X008921Y026797D01*
X008883Y026788D01*
X008844Y026782D01*
X008805Y026780D01*
X008195Y027248D02*
X008195Y027528D01*
X008805Y027580D02*
X008805Y028330D01*
X018805Y028330D01*
X020430Y026830D02*
X020456Y026832D01*
X020482Y026837D01*
X020507Y026845D01*
X020530Y026857D01*
X020552Y026871D01*
X020571Y026889D01*
X020589Y026908D01*
X020603Y026930D01*
X020615Y026953D01*
X020623Y026978D01*
X020628Y027004D01*
X020630Y027030D01*
X020530Y026153D02*
X020530Y025873D01*
X020320Y026083D01*
X020740Y026083D01*
X020740Y025693D02*
X020740Y025412D01*
X020740Y025552D02*
X020320Y025552D01*
X020460Y025412D01*
X020390Y025232D02*
X020320Y025162D01*
X020320Y025022D01*
X020390Y024952D01*
X020670Y024952D01*
X020740Y025022D01*
X020740Y025162D01*
X020670Y025232D01*
X020740Y024785D02*
X020740Y024645D01*
X020740Y024715D02*
X020320Y024715D01*
X020320Y024645D02*
X020320Y024785D01*
X020430Y023030D02*
X020456Y023028D01*
X020482Y023023D01*
X020507Y023015D01*
X020530Y023003D01*
X020552Y022989D01*
X020571Y022971D01*
X020589Y022952D01*
X020603Y022930D01*
X020615Y022907D01*
X020623Y022882D01*
X020628Y022856D01*
X020630Y022830D01*
X020630Y021530D01*
X020628Y021504D01*
X020623Y021478D01*
X020615Y021453D01*
X020603Y021430D01*
X020589Y021408D01*
X020571Y021389D01*
X020552Y021371D01*
X020530Y021357D01*
X020507Y021345D01*
X020482Y021337D01*
X020456Y021332D01*
X020430Y021330D01*
X020180Y021680D02*
X020180Y022050D01*
X020180Y022300D02*
X020180Y022680D01*
X019930Y023030D02*
X019904Y023028D01*
X019878Y023023D01*
X019853Y023015D01*
X019830Y023003D01*
X019808Y022989D01*
X019789Y022971D01*
X019771Y022952D01*
X019757Y022930D01*
X019745Y022907D01*
X019737Y022882D01*
X019732Y022856D01*
X019730Y022830D01*
X019730Y021530D01*
X019732Y021504D01*
X019737Y021478D01*
X019745Y021453D01*
X019757Y021430D01*
X019771Y021408D01*
X019789Y021389D01*
X019808Y021371D01*
X019830Y021357D01*
X019853Y021345D01*
X019878Y021337D01*
X019904Y021332D01*
X019930Y021330D01*
X020390Y020653D02*
X020460Y020653D01*
X020530Y020583D01*
X020530Y020443D01*
X020460Y020373D01*
X020390Y020373D01*
X020320Y020443D01*
X020320Y020583D01*
X020390Y020653D01*
X020530Y020583D02*
X020600Y020653D01*
X020670Y020653D01*
X020740Y020583D01*
X020740Y020443D01*
X020670Y020373D01*
X020600Y020373D01*
X020530Y020443D01*
X020740Y020193D02*
X020740Y019912D01*
X020740Y020052D02*
X020320Y020052D01*
X020460Y019912D01*
X020390Y019732D02*
X020320Y019662D01*
X020320Y019522D01*
X020390Y019452D01*
X020670Y019452D01*
X020740Y019522D01*
X020740Y019662D01*
X020670Y019732D01*
X020740Y019285D02*
X020740Y019145D01*
X020740Y019215D02*
X020320Y019215D01*
X020320Y019145D02*
X020320Y019285D01*
X018805Y020530D02*
X018805Y022830D01*
X008805Y022830D01*
X008805Y022080D01*
X008844Y022078D01*
X008883Y022072D01*
X008921Y022063D01*
X008958Y022050D01*
X008994Y022033D01*
X009027Y022013D01*
X009059Y021989D01*
X009088Y021963D01*
X009114Y021934D01*
X009138Y021902D01*
X009158Y021869D01*
X009175Y021833D01*
X009188Y021796D01*
X009197Y021758D01*
X009203Y021719D01*
X009205Y021680D01*
X009203Y021641D01*
X009197Y021602D01*
X009188Y021564D01*
X009175Y021527D01*
X009158Y021491D01*
X009138Y021458D01*
X009114Y021426D01*
X009088Y021397D01*
X009059Y021371D01*
X009027Y021347D01*
X008994Y021327D01*
X008958Y021310D01*
X008921Y021297D01*
X008883Y021288D01*
X008844Y021282D01*
X008805Y021280D01*
X008805Y020530D01*
X018805Y020530D01*
X022120Y021570D02*
X022120Y021640D01*
X022400Y021920D01*
X022400Y021990D01*
X022120Y021990D01*
X022580Y021780D02*
X022861Y021780D01*
X022791Y021570D02*
X022791Y021990D01*
X022580Y021780D01*
X023041Y021990D02*
X023041Y021570D01*
X023321Y021570D01*
X023501Y021640D02*
X023571Y021570D01*
X023711Y021570D01*
X023781Y021640D01*
X023781Y021710D01*
X023711Y021780D01*
X023571Y021780D01*
X023501Y021850D01*
X023501Y021920D01*
X023571Y021990D01*
X023711Y021990D01*
X023781Y021920D01*
X023962Y021990D02*
X023962Y021780D01*
X024102Y021850D01*
X024172Y021850D01*
X024242Y021780D01*
X024242Y021640D01*
X024172Y021570D01*
X024032Y021570D01*
X023962Y021640D01*
X023962Y021990D02*
X024242Y021990D01*
X024422Y021780D02*
X024562Y021920D01*
X024702Y021990D01*
X024882Y021920D02*
X024882Y021850D01*
X024952Y021780D01*
X025163Y021780D01*
X025163Y021640D02*
X025163Y021920D01*
X025093Y021990D01*
X024952Y021990D01*
X024882Y021920D01*
X024702Y021710D02*
X024632Y021780D01*
X024422Y021780D01*
X024422Y021640D01*
X024492Y021570D01*
X024632Y021570D01*
X024702Y021640D01*
X024702Y021710D01*
X024882Y021640D02*
X024952Y021570D01*
X025093Y021570D01*
X025163Y021640D01*
X020630Y017330D02*
X020630Y016030D01*
X020628Y016004D01*
X020623Y015978D01*
X020615Y015953D01*
X020603Y015930D01*
X020589Y015908D01*
X020571Y015889D01*
X020552Y015871D01*
X020530Y015857D01*
X020507Y015845D01*
X020482Y015837D01*
X020456Y015832D01*
X020430Y015830D01*
X020180Y016180D02*
X020180Y016550D01*
X020180Y016800D02*
X020180Y017180D01*
X019930Y017530D02*
X019904Y017528D01*
X019878Y017523D01*
X019853Y017515D01*
X019830Y017503D01*
X019808Y017489D01*
X019789Y017471D01*
X019771Y017452D01*
X019757Y017430D01*
X019745Y017407D01*
X019737Y017382D01*
X019732Y017356D01*
X019730Y017330D01*
X019730Y016030D01*
X019732Y016004D01*
X019737Y015978D01*
X019745Y015953D01*
X019757Y015930D01*
X019771Y015908D01*
X019789Y015889D01*
X019808Y015871D01*
X019830Y015857D01*
X019853Y015845D01*
X019878Y015837D01*
X019904Y015832D01*
X019930Y015830D01*
X020390Y015068D02*
X020460Y015068D01*
X020530Y014998D01*
X020600Y015068D01*
X020670Y015068D01*
X020740Y014998D01*
X020740Y014857D01*
X020670Y014787D01*
X020670Y014607D02*
X020740Y014537D01*
X020740Y014397D01*
X020670Y014327D01*
X020390Y014327D01*
X020320Y014397D01*
X020320Y014537D01*
X020390Y014607D01*
X020390Y014787D02*
X020320Y014857D01*
X020320Y014998D01*
X020390Y015068D01*
X020530Y014998D02*
X020530Y014927D01*
X020740Y014160D02*
X020740Y014020D01*
X020740Y014090D02*
X020320Y014090D01*
X020320Y014020D02*
X020320Y014160D01*
X018805Y015030D02*
X018805Y017330D01*
X008805Y017330D01*
X008805Y016580D01*
X008844Y016578D01*
X008883Y016572D01*
X008921Y016563D01*
X008958Y016550D01*
X008994Y016533D01*
X009027Y016513D01*
X009059Y016489D01*
X009088Y016463D01*
X009114Y016434D01*
X009138Y016402D01*
X009158Y016369D01*
X009175Y016333D01*
X009188Y016296D01*
X009197Y016258D01*
X009203Y016219D01*
X009205Y016180D01*
X009203Y016141D01*
X009197Y016102D01*
X009188Y016064D01*
X009175Y016027D01*
X009158Y015991D01*
X009138Y015958D01*
X009114Y015926D01*
X009088Y015897D01*
X009059Y015871D01*
X009027Y015847D01*
X008994Y015827D01*
X008958Y015810D01*
X008921Y015797D01*
X008883Y015788D01*
X008844Y015782D01*
X008805Y015780D01*
X008805Y015030D01*
X018805Y015030D01*
X022120Y016070D02*
X022120Y016140D01*
X022400Y016420D01*
X022400Y016490D01*
X022120Y016490D01*
X022580Y016280D02*
X022861Y016280D01*
X022791Y016070D02*
X022791Y016490D01*
X022580Y016280D01*
X023041Y016490D02*
X023041Y016070D01*
X023321Y016070D01*
X023501Y016140D02*
X023571Y016070D01*
X023711Y016070D01*
X023781Y016140D01*
X023781Y016210D01*
X023711Y016280D01*
X023571Y016280D01*
X023501Y016350D01*
X023501Y016420D01*
X023571Y016490D01*
X023711Y016490D01*
X023781Y016420D01*
X023962Y016490D02*
X023962Y016280D01*
X024102Y016350D01*
X024172Y016350D01*
X024242Y016280D01*
X024242Y016140D01*
X024172Y016070D01*
X024032Y016070D01*
X023962Y016140D01*
X023962Y016490D02*
X024242Y016490D01*
X024422Y016280D02*
X024562Y016420D01*
X024702Y016490D01*
X024882Y016420D02*
X024882Y016350D01*
X024952Y016280D01*
X025163Y016280D01*
X025163Y016140D02*
X025163Y016420D01*
X025093Y016490D01*
X024952Y016490D01*
X024882Y016420D01*
X024702Y016210D02*
X024632Y016280D01*
X024422Y016280D01*
X024422Y016140D01*
X024492Y016070D01*
X024632Y016070D01*
X024702Y016140D01*
X024702Y016210D01*
X024882Y016140D02*
X024952Y016070D01*
X025093Y016070D01*
X025163Y016140D01*
X020630Y017330D02*
X020628Y017356D01*
X020623Y017382D01*
X020615Y017407D01*
X020603Y017430D01*
X020589Y017452D01*
X020571Y017471D01*
X020552Y017489D01*
X020530Y017503D01*
X020507Y017515D01*
X020482Y017523D01*
X020456Y017528D01*
X020430Y017530D01*
X013038Y016420D02*
X013038Y016140D01*
X012968Y016070D01*
X012827Y016070D01*
X012757Y016140D01*
X012827Y016280D02*
X013038Y016280D01*
X013038Y016420D02*
X012968Y016490D01*
X012827Y016490D01*
X012757Y016420D01*
X012757Y016350D01*
X012827Y016280D01*
X012577Y016210D02*
X012507Y016280D01*
X012297Y016280D01*
X012297Y016140D01*
X012367Y016070D01*
X012507Y016070D01*
X012577Y016140D01*
X012577Y016210D01*
X012437Y016420D02*
X012297Y016280D01*
X012117Y016280D02*
X012117Y016140D01*
X012047Y016070D01*
X011907Y016070D01*
X011837Y016140D01*
X011837Y016280D02*
X011977Y016350D01*
X012047Y016350D01*
X012117Y016280D01*
X012117Y016490D02*
X011837Y016490D01*
X011837Y016280D01*
X011656Y016210D02*
X011656Y016140D01*
X011586Y016070D01*
X011446Y016070D01*
X011376Y016140D01*
X011446Y016280D02*
X011376Y016350D01*
X011376Y016420D01*
X011446Y016490D01*
X011586Y016490D01*
X011656Y016420D01*
X011586Y016280D02*
X011656Y016210D01*
X011586Y016280D02*
X011446Y016280D01*
X011196Y016070D02*
X010916Y016070D01*
X010916Y016490D01*
X010666Y016490D02*
X010455Y016280D01*
X010736Y016280D01*
X010666Y016070D02*
X010666Y016490D01*
X010275Y016490D02*
X010275Y016420D01*
X009995Y016140D01*
X009995Y016070D01*
X009995Y016490D02*
X010275Y016490D01*
X008505Y016030D02*
X008505Y017330D01*
X008503Y017356D01*
X008498Y017382D01*
X008490Y017407D01*
X008478Y017430D01*
X008464Y017452D01*
X008446Y017471D01*
X008427Y017489D01*
X008405Y017503D01*
X008382Y017515D01*
X008357Y017523D01*
X008331Y017528D01*
X008305Y017530D01*
X008055Y017180D02*
X008055Y016800D01*
X008055Y016550D02*
X008055Y016180D01*
X007805Y015830D02*
X007779Y015832D01*
X007753Y015837D01*
X007728Y015845D01*
X007705Y015857D01*
X007683Y015871D01*
X007664Y015889D01*
X007646Y015908D01*
X007632Y015930D01*
X007620Y015953D01*
X007612Y015978D01*
X007607Y016004D01*
X007605Y016030D01*
X007605Y017330D01*
X007607Y017356D01*
X007612Y017382D01*
X007620Y017407D01*
X007632Y017430D01*
X007646Y017452D01*
X007664Y017471D01*
X007683Y017489D01*
X007705Y017503D01*
X007728Y017515D01*
X007753Y017523D01*
X007779Y017528D01*
X007805Y017530D01*
X008505Y016030D02*
X008503Y016004D01*
X008498Y015978D01*
X008490Y015953D01*
X008478Y015930D01*
X008464Y015908D01*
X008446Y015889D01*
X008427Y015871D01*
X008405Y015857D01*
X008382Y015845D01*
X008357Y015837D01*
X008331Y015832D01*
X008305Y015830D01*
X008405Y015193D02*
X008405Y014912D01*
X008195Y015123D01*
X008615Y015123D01*
X008545Y014732D02*
X008615Y014662D01*
X008615Y014522D01*
X008545Y014452D01*
X008265Y014452D01*
X008195Y014522D01*
X008195Y014662D01*
X008265Y014732D01*
X008195Y014285D02*
X008195Y014145D01*
X008195Y014215D02*
X008615Y014215D01*
X008615Y014145D02*
X008615Y014285D01*
X012437Y016420D02*
X012577Y016490D01*
X008615Y019145D02*
X008615Y019285D01*
X008615Y019215D02*
X008195Y019215D01*
X008195Y019145D02*
X008195Y019285D01*
X008265Y019452D02*
X008195Y019522D01*
X008195Y019662D01*
X008265Y019732D01*
X008335Y019912D02*
X008195Y020052D01*
X008615Y020052D01*
X008615Y019912D02*
X008615Y020193D01*
X008545Y020373D02*
X008615Y020443D01*
X008615Y020583D01*
X008545Y020653D01*
X008265Y020653D01*
X008195Y020583D01*
X008195Y020443D01*
X008265Y020373D01*
X008335Y020373D01*
X008405Y020443D01*
X008405Y020653D01*
X008545Y019732D02*
X008615Y019662D01*
X008615Y019522D01*
X008545Y019452D01*
X008265Y019452D01*
X008305Y021330D02*
X008331Y021332D01*
X008357Y021337D01*
X008382Y021345D01*
X008405Y021357D01*
X008427Y021371D01*
X008446Y021389D01*
X008464Y021408D01*
X008478Y021430D01*
X008490Y021453D01*
X008498Y021478D01*
X008503Y021504D01*
X008505Y021530D01*
X008505Y022830D01*
X008503Y022856D01*
X008498Y022882D01*
X008490Y022907D01*
X008478Y022930D01*
X008464Y022952D01*
X008446Y022971D01*
X008427Y022989D01*
X008405Y023003D01*
X008382Y023015D01*
X008357Y023023D01*
X008331Y023028D01*
X008305Y023030D01*
X008055Y022680D02*
X008055Y022300D01*
X008055Y022050D02*
X008055Y021680D01*
X007805Y021330D02*
X007779Y021332D01*
X007753Y021337D01*
X007728Y021345D01*
X007705Y021357D01*
X007683Y021371D01*
X007664Y021389D01*
X007646Y021408D01*
X007632Y021430D01*
X007620Y021453D01*
X007612Y021478D01*
X007607Y021504D01*
X007605Y021530D01*
X007605Y022830D01*
X007607Y022856D01*
X007612Y022882D01*
X007620Y022907D01*
X007632Y022930D01*
X007646Y022952D01*
X007664Y022971D01*
X007683Y022989D01*
X007705Y023003D01*
X007728Y023015D01*
X007753Y023023D01*
X007779Y023028D01*
X007805Y023030D01*
X009995Y021990D02*
X010275Y021990D01*
X010275Y021920D01*
X009995Y021640D01*
X009995Y021570D01*
X010455Y021780D02*
X010666Y021990D01*
X010666Y021570D01*
X010736Y021780D02*
X010455Y021780D01*
X010916Y021990D02*
X010916Y021570D01*
X011196Y021570D01*
X011376Y021640D02*
X011446Y021570D01*
X011586Y021570D01*
X011656Y021640D01*
X011656Y021710D01*
X011586Y021780D01*
X011446Y021780D01*
X011376Y021850D01*
X011376Y021920D01*
X011446Y021990D01*
X011586Y021990D01*
X011656Y021920D01*
X011837Y021990D02*
X011837Y021780D01*
X011977Y021850D01*
X012047Y021850D01*
X012117Y021780D01*
X012117Y021640D01*
X012047Y021570D01*
X011907Y021570D01*
X011837Y021640D01*
X011837Y021990D02*
X012117Y021990D01*
X012297Y021780D02*
X012437Y021920D01*
X012577Y021990D01*
X012757Y021920D02*
X012757Y021850D01*
X012827Y021780D01*
X013038Y021780D01*
X013038Y021640D02*
X013038Y021920D01*
X012968Y021990D01*
X012827Y021990D01*
X012757Y021920D01*
X012577Y021710D02*
X012507Y021780D01*
X012297Y021780D01*
X012297Y021640D01*
X012367Y021570D01*
X012507Y021570D01*
X012577Y021640D01*
X012577Y021710D01*
X012757Y021640D02*
X012827Y021570D01*
X012968Y021570D01*
X013038Y021640D01*
X012968Y027070D02*
X013038Y027140D01*
X013038Y027420D01*
X012968Y027490D01*
X012827Y027490D01*
X012757Y027420D01*
X012757Y027350D01*
X012827Y027280D01*
X013038Y027280D01*
X012968Y027070D02*
X012827Y027070D01*
X012757Y027140D01*
X012577Y027140D02*
X012577Y027210D01*
X012507Y027280D01*
X012297Y027280D01*
X012297Y027140D01*
X012367Y027070D01*
X012507Y027070D01*
X012577Y027140D01*
X012437Y027420D02*
X012297Y027280D01*
X012117Y027280D02*
X012117Y027140D01*
X012047Y027070D01*
X011907Y027070D01*
X011837Y027140D01*
X011837Y027280D02*
X011977Y027350D01*
X012047Y027350D01*
X012117Y027280D01*
X012117Y027490D02*
X011837Y027490D01*
X011837Y027280D01*
X011656Y027210D02*
X011656Y027140D01*
X011586Y027070D01*
X011446Y027070D01*
X011376Y027140D01*
X011446Y027280D02*
X011376Y027350D01*
X011376Y027420D01*
X011446Y027490D01*
X011586Y027490D01*
X011656Y027420D01*
X011586Y027280D02*
X011656Y027210D01*
X011586Y027280D02*
X011446Y027280D01*
X011196Y027070D02*
X010916Y027070D01*
X010916Y027490D01*
X010666Y027490D02*
X010455Y027280D01*
X010736Y027280D01*
X010666Y027070D02*
X010666Y027490D01*
X010275Y027490D02*
X010275Y027420D01*
X009995Y027140D01*
X009995Y027070D01*
X009995Y027490D02*
X010275Y027490D01*
X012437Y027420D02*
X012577Y027490D01*
X008615Y030395D02*
X008615Y030535D01*
X008615Y030465D02*
X008195Y030465D01*
X008195Y030395D02*
X008195Y030535D01*
X008265Y030702D02*
X008195Y030772D01*
X008195Y030912D01*
X008265Y030982D01*
X008265Y031162D02*
X008195Y031232D01*
X008195Y031373D01*
X008265Y031443D01*
X008335Y031443D01*
X008405Y031373D01*
X008405Y031232D01*
X008335Y031162D01*
X008265Y031162D01*
X008405Y031232D02*
X008475Y031162D01*
X008545Y031162D01*
X008615Y031232D01*
X008615Y031373D01*
X008545Y031443D01*
X008475Y031443D01*
X008405Y031373D01*
X008545Y030982D02*
X008615Y030912D01*
X008615Y030772D01*
X008545Y030702D01*
X008265Y030702D01*
X008805Y031530D02*
X008805Y032280D01*
X008630Y032405D02*
X008630Y033705D01*
X008628Y033731D01*
X008623Y033757D01*
X008615Y033782D01*
X008603Y033805D01*
X008589Y033827D01*
X008571Y033846D01*
X008552Y033864D01*
X008530Y033878D01*
X008507Y033890D01*
X008482Y033898D01*
X008456Y033903D01*
X008430Y033905D01*
X008805Y033830D02*
X008805Y033080D01*
X008844Y033078D01*
X008883Y033072D01*
X008921Y033063D01*
X008958Y033050D01*
X008994Y033033D01*
X009027Y033013D01*
X009059Y032989D01*
X009088Y032963D01*
X009114Y032934D01*
X009138Y032902D01*
X009158Y032869D01*
X009175Y032833D01*
X009188Y032796D01*
X009197Y032758D01*
X009203Y032719D01*
X009205Y032680D01*
X009203Y032641D01*
X009197Y032602D01*
X009188Y032564D01*
X009175Y032527D01*
X009158Y032491D01*
X009138Y032458D01*
X009114Y032426D01*
X009088Y032397D01*
X009059Y032371D01*
X009027Y032347D01*
X008994Y032327D01*
X008958Y032310D01*
X008921Y032297D01*
X008883Y032288D01*
X008844Y032282D01*
X008805Y032280D01*
X008630Y032405D02*
X008628Y032379D01*
X008623Y032353D01*
X008615Y032328D01*
X008603Y032305D01*
X008589Y032283D01*
X008571Y032264D01*
X008552Y032246D01*
X008530Y032232D01*
X008507Y032220D01*
X008482Y032212D01*
X008456Y032207D01*
X008430Y032205D01*
X008180Y032555D02*
X008180Y032925D01*
X008180Y033175D02*
X008180Y033555D01*
X007930Y033905D02*
X007904Y033903D01*
X007878Y033898D01*
X007853Y033890D01*
X007830Y033878D01*
X007808Y033864D01*
X007789Y033846D01*
X007771Y033827D01*
X007757Y033805D01*
X007745Y033782D01*
X007737Y033757D01*
X007732Y033731D01*
X007730Y033705D01*
X007730Y032405D01*
X007732Y032379D01*
X007737Y032353D01*
X007745Y032328D01*
X007757Y032305D01*
X007771Y032283D01*
X007789Y032264D01*
X007808Y032246D01*
X007830Y032232D01*
X007853Y032220D01*
X007878Y032212D01*
X007904Y032207D01*
X007930Y032205D01*
X008805Y031530D02*
X018805Y031530D01*
X018805Y033830D01*
X008805Y033830D01*
X009995Y032990D02*
X010275Y032990D01*
X010275Y032920D01*
X009995Y032640D01*
X009995Y032570D01*
X010455Y032780D02*
X010736Y032780D01*
X010666Y032570D02*
X010666Y032990D01*
X010455Y032780D01*
X010916Y032570D02*
X011196Y032570D01*
X011376Y032640D02*
X011446Y032570D01*
X011586Y032570D01*
X011656Y032640D01*
X011656Y032710D01*
X011586Y032780D01*
X011446Y032780D01*
X011376Y032850D01*
X011376Y032920D01*
X011446Y032990D01*
X011586Y032990D01*
X011656Y032920D01*
X011837Y032990D02*
X011837Y032780D01*
X011977Y032850D01*
X012047Y032850D01*
X012117Y032780D01*
X012117Y032640D01*
X012047Y032570D01*
X011907Y032570D01*
X011837Y032640D01*
X011837Y032990D02*
X012117Y032990D01*
X012297Y032780D02*
X012507Y032780D01*
X012577Y032710D01*
X012577Y032640D01*
X012507Y032570D01*
X012367Y032570D01*
X012297Y032640D01*
X012297Y032780D01*
X012437Y032920D01*
X012577Y032990D01*
X012757Y032920D02*
X012757Y032850D01*
X012827Y032780D01*
X013038Y032780D01*
X013038Y032640D02*
X013038Y032920D01*
X012968Y032990D01*
X012827Y032990D01*
X012757Y032920D01*
X012757Y032640D02*
X012827Y032570D01*
X012968Y032570D01*
X013038Y032640D01*
X010916Y032570D02*
X010916Y032990D01*
X005180Y036180D02*
X005180Y037680D01*
X004930Y037930D01*
X004430Y037930D01*
X004180Y037680D01*
X004180Y036180D01*
X004430Y035930D01*
X004930Y035930D01*
X005180Y036180D01*
X004180Y036180D02*
X003930Y035930D01*
X003430Y035930D01*
X003180Y036180D01*
X003180Y037680D01*
X003430Y037930D01*
X003930Y037930D01*
X004180Y037680D01*
X004211Y038220D02*
X004351Y038220D01*
X004421Y038290D01*
X004601Y038220D02*
X004881Y038500D01*
X004881Y038570D01*
X004811Y038640D01*
X004671Y038640D01*
X004601Y038570D01*
X004421Y038570D02*
X004351Y038640D01*
X004211Y038640D01*
X004141Y038570D01*
X004141Y038290D01*
X004211Y038220D01*
X003961Y038290D02*
X003891Y038220D01*
X003750Y038220D01*
X003680Y038290D01*
X003680Y038570D01*
X003750Y038640D01*
X003891Y038640D01*
X003961Y038570D01*
X003500Y038640D02*
X003500Y038360D01*
X003360Y038220D01*
X003220Y038360D01*
X003220Y038640D01*
X004601Y038220D02*
X004881Y038220D01*
X003345Y034515D02*
X003415Y034445D01*
X003415Y034375D01*
X003345Y034305D01*
X003415Y034235D01*
X003415Y034165D01*
X003345Y034095D01*
X003205Y034095D01*
X003135Y034165D01*
X003275Y034305D02*
X003345Y034305D01*
X003345Y034515D02*
X003205Y034515D01*
X003135Y034445D01*
X002954Y034445D02*
X002954Y034305D01*
X002884Y034235D01*
X002674Y034235D01*
X002674Y034095D02*
X002674Y034515D01*
X002884Y034515D01*
X002954Y034445D01*
X002494Y034515D02*
X002354Y034515D01*
X002424Y034515D02*
X002424Y034165D01*
X002354Y034095D01*
X002284Y034095D01*
X002214Y034165D01*
X001805Y033930D02*
X001555Y033680D01*
X001555Y033180D01*
X001805Y032930D01*
X003305Y032930D01*
X003555Y032680D01*
X003555Y032180D01*
X003305Y031930D01*
X001805Y031930D01*
X001555Y031680D01*
X001555Y031180D01*
X001805Y030930D01*
X003305Y030930D01*
X003555Y030680D01*
X003555Y030180D01*
X003305Y029930D01*
X001805Y029930D01*
X001555Y029680D01*
X001555Y029180D01*
X001805Y028930D01*
X003305Y028930D01*
X003555Y028680D01*
X003555Y028180D01*
X003305Y027930D01*
X001805Y027930D01*
X001555Y027680D01*
X001555Y027180D01*
X001805Y026930D01*
X001555Y026680D01*
X001555Y026180D01*
X001805Y025930D01*
X003305Y025930D01*
X003555Y026180D01*
X003555Y026680D01*
X003305Y026930D01*
X001805Y026930D01*
X001805Y027930D02*
X001555Y028180D01*
X001555Y028680D01*
X001805Y028930D01*
X001805Y029930D02*
X001555Y030180D01*
X001555Y030680D01*
X001805Y030930D01*
X001805Y031930D02*
X001555Y032180D01*
X001555Y032680D01*
X001805Y032930D01*
X001805Y033930D02*
X003305Y033930D01*
X003555Y033680D01*
X003555Y033180D01*
X003305Y032930D01*
X003305Y031930D02*
X003555Y031680D01*
X003555Y031180D01*
X003305Y030930D01*
X003305Y029930D02*
X003555Y029680D01*
X003555Y029180D01*
X003305Y028930D01*
X003305Y027930D02*
X003555Y027680D01*
X003555Y027180D01*
X003305Y026930D01*
X006405Y028230D02*
X007705Y028230D01*
X007731Y028232D01*
X007757Y028237D01*
X007782Y028245D01*
X007805Y028257D01*
X007827Y028271D01*
X007846Y028289D01*
X007864Y028308D01*
X007878Y028330D01*
X007890Y028353D01*
X007898Y028378D01*
X007903Y028404D01*
X007905Y028430D01*
X007555Y028680D02*
X007175Y028680D01*
X006925Y028680D02*
X006555Y028680D01*
X006205Y028930D02*
X006207Y028956D01*
X006212Y028982D01*
X006220Y029007D01*
X006232Y029030D01*
X006246Y029052D01*
X006264Y029071D01*
X006283Y029089D01*
X006305Y029103D01*
X006328Y029115D01*
X006353Y029123D01*
X006379Y029128D01*
X006405Y029130D01*
X007705Y029130D01*
X007731Y029128D01*
X007757Y029123D01*
X007782Y029115D01*
X007805Y029103D01*
X007827Y029089D01*
X007846Y029071D01*
X007864Y029052D01*
X007878Y029030D01*
X007890Y029007D01*
X007898Y028982D01*
X007903Y028956D01*
X007905Y028930D01*
X006405Y028230D02*
X006379Y028232D01*
X006353Y028237D01*
X006328Y028245D01*
X006305Y028257D01*
X006283Y028271D01*
X006264Y028289D01*
X006246Y028308D01*
X006232Y028330D01*
X006220Y028353D01*
X006212Y028378D01*
X006207Y028404D01*
X006205Y028430D01*
X020320Y030395D02*
X020320Y030535D01*
X020320Y030465D02*
X020740Y030465D01*
X020740Y030395D02*
X020740Y030535D01*
X024562Y027420D02*
X024702Y027490D01*
X057455Y015930D02*
X057457Y015904D01*
X057462Y015878D01*
X057470Y015853D01*
X057482Y015830D01*
X057496Y015808D01*
X057514Y015789D01*
X057533Y015771D01*
X057555Y015757D01*
X057578Y015745D01*
X057603Y015737D01*
X057629Y015732D01*
X057655Y015730D01*
X057690Y006221D02*
X057620Y006151D01*
X057620Y006011D01*
X057690Y005941D01*
X057970Y005941D01*
X057690Y006221D01*
X057970Y006221D01*
X058040Y006151D01*
X058040Y006011D01*
X057970Y005941D01*
X058040Y005761D02*
X058040Y005480D01*
X057760Y005761D01*
X057690Y005761D01*
X057620Y005691D01*
X057620Y005550D01*
X057690Y005480D01*
X057690Y005300D02*
X057620Y005230D01*
X057620Y005090D01*
X057690Y005020D01*
X057970Y005020D01*
X058040Y005090D01*
X058040Y005230D01*
X057970Y005300D01*
X059270Y005160D02*
X059690Y005160D01*
X059690Y005020D02*
X059690Y005300D01*
X059620Y005480D02*
X059340Y005761D01*
X059620Y005761D01*
X059690Y005691D01*
X059690Y005550D01*
X059620Y005480D01*
X059340Y005480D01*
X059270Y005550D01*
X059270Y005691D01*
X059340Y005761D01*
X059410Y005941D02*
X059620Y005941D01*
X059690Y006011D01*
X059690Y006221D01*
X059410Y006221D01*
X059270Y005160D02*
X059410Y005020D01*
X057580Y003930D02*
X057582Y003996D01*
X057588Y004061D01*
X057598Y004126D01*
X057611Y004191D01*
X057629Y004254D01*
X057650Y004317D01*
X057675Y004377D01*
X057704Y004437D01*
X057736Y004494D01*
X057771Y004550D01*
X057810Y004603D01*
X057852Y004654D01*
X057896Y004702D01*
X057944Y004747D01*
X057994Y004790D01*
X058047Y004829D01*
X058102Y004866D01*
X058159Y004899D01*
X058218Y004928D01*
X058278Y004954D01*
X058340Y004976D01*
X058403Y004995D01*
X058467Y005009D01*
X058532Y005020D01*
X058598Y005027D01*
X058664Y005030D01*
X058729Y005029D01*
X058795Y005024D01*
X058860Y005015D01*
X058925Y005002D01*
X058988Y004986D01*
X059051Y004966D01*
X059112Y004941D01*
X059172Y004914D01*
X059230Y004883D01*
X059286Y004848D01*
X059340Y004810D01*
X059391Y004769D01*
X059440Y004725D01*
X059486Y004678D01*
X059530Y004629D01*
X059570Y004577D01*
X059607Y004522D01*
X059641Y004466D01*
X059671Y004407D01*
X059698Y004347D01*
X059721Y004286D01*
X059740Y004223D01*
X059756Y004159D01*
X059768Y004094D01*
X059776Y004029D01*
X059780Y003963D01*
X059780Y003897D01*
X059776Y003831D01*
X059768Y003766D01*
X059756Y003701D01*
X059740Y003637D01*
X059721Y003574D01*
X059698Y003513D01*
X059671Y003453D01*
X059641Y003394D01*
X059607Y003338D01*
X059570Y003283D01*
X059530Y003231D01*
X059486Y003182D01*
X059440Y003135D01*
X059391Y003091D01*
X059340Y003050D01*
X059286Y003012D01*
X059230Y002977D01*
X059172Y002946D01*
X059112Y002919D01*
X059051Y002894D01*
X058988Y002874D01*
X058925Y002858D01*
X058860Y002845D01*
X058795Y002836D01*
X058729Y002831D01*
X058664Y002830D01*
X058598Y002833D01*
X058532Y002840D01*
X058467Y002851D01*
X058403Y002865D01*
X058340Y002884D01*
X058278Y002906D01*
X058218Y002932D01*
X058159Y002961D01*
X058102Y002994D01*
X058047Y003031D01*
X057994Y003070D01*
X057944Y003113D01*
X057896Y003158D01*
X057852Y003206D01*
X057810Y003257D01*
X057771Y003310D01*
X057736Y003366D01*
X057704Y003423D01*
X057675Y003483D01*
X057650Y003543D01*
X057629Y003606D01*
X057611Y003669D01*
X057598Y003734D01*
X057588Y003799D01*
X057582Y003864D01*
X057580Y003930D01*
X058180Y003430D02*
X058180Y003280D01*
X058030Y003280D01*
X058180Y003280D02*
X058330Y003280D01*
X058180Y003280D02*
X058180Y003130D01*
X056055Y002180D02*
X055805Y001930D01*
X055305Y001930D01*
X055055Y002180D01*
X020490Y004520D02*
X020490Y004660D01*
X020490Y004590D02*
X020070Y004590D01*
X020070Y004520D02*
X020070Y004660D01*
X020140Y004827D02*
X020420Y004827D01*
X020490Y004897D01*
X020490Y005037D01*
X020420Y005107D01*
X020420Y005287D02*
X020490Y005357D01*
X020490Y005498D01*
X020420Y005568D01*
X020140Y005568D01*
X020070Y005498D01*
X020070Y005357D01*
X020140Y005287D01*
X020210Y005287D01*
X020280Y005357D01*
X020280Y005568D01*
X020140Y005107D02*
X020070Y005037D01*
X020070Y004897D01*
X020140Y004827D01*
X019555Y006205D02*
X019529Y006207D01*
X019503Y006212D01*
X019478Y006220D01*
X019455Y006232D01*
X019433Y006246D01*
X019414Y006264D01*
X019396Y006283D01*
X019382Y006305D01*
X019370Y006328D01*
X019362Y006353D01*
X019357Y006379D01*
X019355Y006405D01*
X004180Y002180D02*
X003930Y001930D01*
X003430Y001930D01*
X003180Y002180D01*
D11*
X019505Y006925D02*
X019805Y006925D01*
X020105Y006925D01*
X020105Y007175D02*
X019805Y007175D01*
X019505Y007175D01*
X019880Y016550D02*
X020180Y016550D01*
X020480Y016550D01*
X020480Y016800D02*
X020180Y016800D01*
X019880Y016800D01*
X019880Y022050D02*
X020180Y022050D01*
X020480Y022050D01*
X020480Y022300D02*
X020180Y022300D01*
X019880Y022300D01*
X019880Y027550D02*
X020180Y027550D01*
X020480Y027550D01*
X020480Y027800D02*
X020180Y027800D01*
X019880Y027800D01*
X019880Y032925D02*
X020180Y032925D01*
X020480Y032925D01*
X020480Y033175D02*
X020180Y033175D01*
X019880Y033175D01*
X008480Y033175D02*
X008180Y033175D01*
X007880Y033175D01*
X007880Y032925D02*
X008180Y032925D01*
X008480Y032925D01*
X007175Y028980D02*
X007175Y028680D01*
X007175Y028380D01*
X006925Y028380D02*
X006925Y028680D01*
X006925Y028980D01*
X007755Y022300D02*
X008055Y022300D01*
X008355Y022300D01*
X008355Y022050D02*
X008055Y022050D01*
X007755Y022050D01*
X007755Y016800D02*
X008055Y016800D01*
X008355Y016800D01*
X008355Y016550D02*
X008055Y016550D01*
X007755Y016550D01*
X032005Y016550D02*
X032305Y016550D01*
X032605Y016550D01*
X032605Y016800D02*
X032305Y016800D01*
X032005Y016800D01*
X032005Y022050D02*
X032305Y022050D01*
X032605Y022050D01*
X032605Y022300D02*
X032305Y022300D01*
X032005Y022300D01*
X032005Y027550D02*
X032305Y027550D01*
X032605Y027550D01*
X032605Y027800D02*
X032305Y027800D01*
X032005Y027800D01*
X032005Y033050D02*
X032305Y033050D01*
X032605Y033050D01*
X032605Y033300D02*
X032305Y033300D01*
X032005Y033300D01*
X044130Y033300D02*
X044430Y033300D01*
X044730Y033300D01*
X044730Y033050D02*
X044430Y033050D01*
X044130Y033050D01*
X044130Y027800D02*
X044430Y027800D01*
X044730Y027800D01*
X044730Y027550D02*
X044430Y027550D01*
X044130Y027550D01*
X044130Y022300D02*
X044430Y022300D01*
X044730Y022300D01*
X044730Y022050D02*
X044430Y022050D01*
X044130Y022050D01*
X044130Y016800D02*
X044430Y016800D01*
X044730Y016800D01*
X044730Y016550D02*
X044430Y016550D01*
X044130Y016550D01*
X058185Y016480D02*
X058185Y016180D01*
X058185Y015880D01*
X058435Y015880D02*
X058435Y016180D01*
X058435Y016480D01*
X058435Y025880D02*
X058435Y026180D01*
X058435Y026480D01*
X058185Y026480D02*
X058185Y026180D01*
X058185Y025880D01*
M02*
