G75*
%MOIN*%
%OFA0B0*%
%FSLAX24Y24*%
%IPPOS*%
%LPD*%
%AMOC8*
5,1,8,0,0,1.08239X$1,22.5*
%
%ADD10C,0.0230*%
%ADD11C,0.0560*%
%ADD12OC8,0.0560*%
%ADD13OC8,0.0640*%
%ADD14OC8,0.0630*%
%ADD15C,0.0630*%
%ADD16C,0.0160*%
%ADD17C,0.0500*%
%ADD18C,0.0480*%
%ADD19C,0.0320*%
%ADD20R,0.0480X0.0480*%
D10*
X003382Y009170D02*
X003382Y010441D01*
X003806Y010441D02*
X003806Y009170D01*
X004017Y009594D02*
X003170Y009594D01*
X003170Y010017D02*
X003806Y010017D01*
X004017Y010017D01*
X004551Y009806D02*
X005187Y009806D01*
X005399Y009594D01*
X005399Y009382D01*
X005187Y009170D01*
X004763Y009170D01*
X004551Y009382D01*
X004551Y009806D01*
X004975Y010229D01*
X005399Y010441D01*
D11*
X009305Y014400D02*
X009305Y014960D01*
X010305Y014960D02*
X010305Y014400D01*
X011305Y014400D02*
X011305Y014960D01*
X012305Y014960D02*
X012305Y014400D01*
X013305Y014400D02*
X013305Y014960D01*
X014305Y014960D02*
X014305Y014400D01*
X015305Y014400D02*
X015305Y014960D01*
X016305Y014960D02*
X016305Y014400D01*
X017305Y014400D02*
X017305Y014960D01*
X018305Y014960D02*
X018305Y014400D01*
X021430Y014400D02*
X021430Y014960D01*
X022430Y014960D02*
X022430Y014400D01*
X023430Y014400D02*
X023430Y014960D01*
X024430Y014960D02*
X024430Y014400D01*
X025430Y014400D02*
X025430Y014960D01*
X026430Y014960D02*
X026430Y014400D01*
X027430Y014400D02*
X027430Y014960D01*
X028430Y014960D02*
X028430Y014400D01*
X029430Y014400D02*
X029430Y014960D01*
X030430Y014960D02*
X030430Y014400D01*
X033555Y014400D02*
X033555Y014960D01*
X034555Y014960D02*
X034555Y014400D01*
X035555Y014400D02*
X035555Y014960D01*
X036555Y014960D02*
X036555Y014400D01*
X037555Y014400D02*
X037555Y014960D01*
X038555Y014960D02*
X038555Y014400D01*
X039555Y014400D02*
X039555Y014960D01*
X040555Y014960D02*
X040555Y014400D01*
X041555Y014400D02*
X041555Y014960D01*
X042555Y014960D02*
X042555Y014400D01*
X045680Y014400D02*
X045680Y014960D01*
X046680Y014960D02*
X046680Y014400D01*
X047680Y014400D02*
X047680Y014960D01*
X048680Y014960D02*
X048680Y014400D01*
X049680Y014400D02*
X049680Y014960D01*
X050680Y014960D02*
X050680Y014400D01*
X051680Y014400D02*
X051680Y014960D01*
X052680Y014960D02*
X052680Y014400D01*
X053680Y014400D02*
X053680Y014960D01*
X054680Y014960D02*
X054680Y014400D01*
X054680Y017400D02*
X054680Y017960D01*
X053680Y017960D02*
X053680Y017400D01*
X052680Y017400D02*
X052680Y017960D01*
X051680Y017960D02*
X051680Y017400D01*
X050680Y017400D02*
X050680Y017960D01*
X049680Y017960D02*
X049680Y017400D01*
X048680Y017400D02*
X048680Y017960D01*
X047680Y017960D02*
X047680Y017400D01*
X046680Y017400D02*
X046680Y017960D01*
X045680Y017960D02*
X045680Y017400D01*
X042555Y017400D02*
X042555Y017960D01*
X041555Y017960D02*
X041555Y017400D01*
X040555Y017400D02*
X040555Y017960D01*
X039555Y017960D02*
X039555Y017400D01*
X038555Y017400D02*
X038555Y017960D01*
X037555Y017960D02*
X037555Y017400D01*
X036555Y017400D02*
X036555Y017960D01*
X035555Y017960D02*
X035555Y017400D01*
X034555Y017400D02*
X034555Y017960D01*
X033555Y017960D02*
X033555Y017400D01*
X030430Y017400D02*
X030430Y017960D01*
X029430Y017960D02*
X029430Y017400D01*
X028430Y017400D02*
X028430Y017960D01*
X027430Y017960D02*
X027430Y017400D01*
X026430Y017400D02*
X026430Y017960D01*
X025430Y017960D02*
X025430Y017400D01*
X024430Y017400D02*
X024430Y017960D01*
X023430Y017960D02*
X023430Y017400D01*
X022430Y017400D02*
X022430Y017960D01*
X021430Y017960D02*
X021430Y017400D01*
X018305Y017400D02*
X018305Y017960D01*
X017305Y017960D02*
X017305Y017400D01*
X016305Y017400D02*
X016305Y017960D01*
X015305Y017960D02*
X015305Y017400D01*
X014305Y017400D02*
X014305Y017960D01*
X013305Y017960D02*
X013305Y017400D01*
X012305Y017400D02*
X012305Y017960D01*
X011305Y017960D02*
X011305Y017400D01*
X010305Y017400D02*
X010305Y017960D01*
X009305Y017960D02*
X009305Y017400D01*
X009305Y019900D02*
X009305Y020460D01*
X010305Y020460D02*
X010305Y019900D01*
X011305Y019900D02*
X011305Y020460D01*
X012305Y020460D02*
X012305Y019900D01*
X013305Y019900D02*
X013305Y020460D01*
X014305Y020460D02*
X014305Y019900D01*
X015305Y019900D02*
X015305Y020460D01*
X016305Y020460D02*
X016305Y019900D01*
X017305Y019900D02*
X017305Y020460D01*
X018305Y020460D02*
X018305Y019900D01*
X021430Y019900D02*
X021430Y020460D01*
X022430Y020460D02*
X022430Y019900D01*
X023430Y019900D02*
X023430Y020460D01*
X024430Y020460D02*
X024430Y019900D01*
X025430Y019900D02*
X025430Y020460D01*
X026430Y020460D02*
X026430Y019900D01*
X027430Y019900D02*
X027430Y020460D01*
X028430Y020460D02*
X028430Y019900D01*
X029430Y019900D02*
X029430Y020460D01*
X030430Y020460D02*
X030430Y019900D01*
X033555Y019900D02*
X033555Y020460D01*
X034555Y020460D02*
X034555Y019900D01*
X035555Y019900D02*
X035555Y020460D01*
X036555Y020460D02*
X036555Y019900D01*
X037555Y019900D02*
X037555Y020460D01*
X038555Y020460D02*
X038555Y019900D01*
X039555Y019900D02*
X039555Y020460D01*
X040555Y020460D02*
X040555Y019900D01*
X041555Y019900D02*
X041555Y020460D01*
X042555Y020460D02*
X042555Y019900D01*
X045680Y019900D02*
X045680Y020460D01*
X046680Y020460D02*
X046680Y019900D01*
X047680Y019900D02*
X047680Y020460D01*
X048680Y020460D02*
X048680Y019900D01*
X049680Y019900D02*
X049680Y020460D01*
X050680Y020460D02*
X050680Y019900D01*
X051680Y019900D02*
X051680Y020460D01*
X052680Y020460D02*
X052680Y019900D01*
X053680Y019900D02*
X053680Y020460D01*
X054680Y020460D02*
X054680Y019900D01*
X057025Y019555D02*
X057585Y019555D01*
X057585Y020555D02*
X057025Y020555D01*
X057025Y021555D02*
X057585Y021555D01*
X057585Y022555D02*
X057025Y022555D01*
X057025Y023555D02*
X057585Y023555D01*
X057585Y024555D02*
X057025Y024555D01*
X054680Y025400D02*
X054680Y025960D01*
X053680Y025960D02*
X053680Y025400D01*
X052680Y025400D02*
X052680Y025960D01*
X051680Y025960D02*
X051680Y025400D01*
X050680Y025400D02*
X050680Y025960D01*
X049680Y025960D02*
X049680Y025400D01*
X048680Y025400D02*
X048680Y025960D01*
X047680Y025960D02*
X047680Y025400D01*
X046680Y025400D02*
X046680Y025960D01*
X045680Y025960D02*
X045680Y025400D01*
X045680Y023460D02*
X045680Y022900D01*
X046680Y022900D02*
X046680Y023460D01*
X047680Y023460D02*
X047680Y022900D01*
X048680Y022900D02*
X048680Y023460D01*
X049680Y023460D02*
X049680Y022900D01*
X050680Y022900D02*
X050680Y023460D01*
X051680Y023460D02*
X051680Y022900D01*
X052680Y022900D02*
X052680Y023460D01*
X053680Y023460D02*
X053680Y022900D01*
X054680Y022900D02*
X054680Y023460D01*
X060025Y023555D02*
X060585Y023555D01*
X060585Y024555D02*
X060025Y024555D01*
X060025Y022555D02*
X060585Y022555D01*
X060585Y021555D02*
X060025Y021555D01*
X060025Y020555D02*
X060585Y020555D01*
X060585Y019555D02*
X060025Y019555D01*
X060025Y018555D02*
X060585Y018555D01*
X060585Y017555D02*
X060025Y017555D01*
X057585Y017555D02*
X057025Y017555D01*
X057025Y018555D02*
X057585Y018555D01*
X057585Y027555D02*
X057025Y027555D01*
X057025Y028555D02*
X057585Y028555D01*
X057585Y029555D02*
X057025Y029555D01*
X057025Y030555D02*
X057585Y030555D01*
X057585Y031555D02*
X057025Y031555D01*
X057025Y032555D02*
X057585Y032555D01*
X057585Y033555D02*
X057025Y033555D01*
X057025Y034555D02*
X057585Y034555D01*
X060025Y034555D02*
X060585Y034555D01*
X060585Y033555D02*
X060025Y033555D01*
X060025Y032555D02*
X060585Y032555D01*
X060585Y031555D02*
X060025Y031555D01*
X060025Y030555D02*
X060585Y030555D01*
X060585Y029555D02*
X060025Y029555D01*
X060025Y028555D02*
X060585Y028555D01*
X060585Y027555D02*
X060025Y027555D01*
X054680Y028400D02*
X054680Y028960D01*
X053680Y028960D02*
X053680Y028400D01*
X052680Y028400D02*
X052680Y028960D01*
X051680Y028960D02*
X051680Y028400D01*
X050680Y028400D02*
X050680Y028960D01*
X049680Y028960D02*
X049680Y028400D01*
X048680Y028400D02*
X048680Y028960D01*
X047680Y028960D02*
X047680Y028400D01*
X046680Y028400D02*
X046680Y028960D01*
X045680Y028960D02*
X045680Y028400D01*
X042555Y028400D02*
X042555Y028960D01*
X041555Y028960D02*
X041555Y028400D01*
X040555Y028400D02*
X040555Y028960D01*
X039555Y028960D02*
X039555Y028400D01*
X038555Y028400D02*
X038555Y028960D01*
X037555Y028960D02*
X037555Y028400D01*
X036555Y028400D02*
X036555Y028960D01*
X035555Y028960D02*
X035555Y028400D01*
X034555Y028400D02*
X034555Y028960D01*
X033555Y028960D02*
X033555Y028400D01*
X030430Y028400D02*
X030430Y028960D01*
X029430Y028960D02*
X029430Y028400D01*
X028430Y028400D02*
X028430Y028960D01*
X027430Y028960D02*
X027430Y028400D01*
X026430Y028400D02*
X026430Y028960D01*
X025430Y028960D02*
X025430Y028400D01*
X024430Y028400D02*
X024430Y028960D01*
X023430Y028960D02*
X023430Y028400D01*
X022430Y028400D02*
X022430Y028960D01*
X021430Y028960D02*
X021430Y028400D01*
X018305Y028400D02*
X018305Y028960D01*
X017305Y028960D02*
X017305Y028400D01*
X016305Y028400D02*
X016305Y028960D01*
X015305Y028960D02*
X015305Y028400D01*
X014305Y028400D02*
X014305Y028960D01*
X013305Y028960D02*
X013305Y028400D01*
X012305Y028400D02*
X012305Y028960D01*
X011305Y028960D02*
X011305Y028400D01*
X010305Y028400D02*
X010305Y028960D01*
X009305Y028960D02*
X009305Y028400D01*
X009305Y025960D02*
X009305Y025400D01*
X010305Y025400D02*
X010305Y025960D01*
X011305Y025960D02*
X011305Y025400D01*
X012305Y025400D02*
X012305Y025960D01*
X013305Y025960D02*
X013305Y025400D01*
X014305Y025400D02*
X014305Y025960D01*
X015305Y025960D02*
X015305Y025400D01*
X016305Y025400D02*
X016305Y025960D01*
X017305Y025960D02*
X017305Y025400D01*
X018305Y025400D02*
X018305Y025960D01*
X021430Y025960D02*
X021430Y025400D01*
X022430Y025400D02*
X022430Y025960D01*
X023430Y025960D02*
X023430Y025400D01*
X024430Y025400D02*
X024430Y025960D01*
X025430Y025960D02*
X025430Y025400D01*
X026430Y025400D02*
X026430Y025960D01*
X027430Y025960D02*
X027430Y025400D01*
X028430Y025400D02*
X028430Y025960D01*
X029430Y025960D02*
X029430Y025400D01*
X030430Y025400D02*
X030430Y025960D01*
X033555Y025960D02*
X033555Y025400D01*
X034555Y025400D02*
X034555Y025960D01*
X035555Y025960D02*
X035555Y025400D01*
X036555Y025400D02*
X036555Y025960D01*
X037555Y025960D02*
X037555Y025400D01*
X038555Y025400D02*
X038555Y025960D01*
X039555Y025960D02*
X039555Y025400D01*
X040555Y025400D02*
X040555Y025960D01*
X041555Y025960D02*
X041555Y025400D01*
X042555Y025400D02*
X042555Y025960D01*
X042555Y023460D02*
X042555Y022900D01*
X041555Y022900D02*
X041555Y023460D01*
X040555Y023460D02*
X040555Y022900D01*
X039555Y022900D02*
X039555Y023460D01*
X038555Y023460D02*
X038555Y022900D01*
X037555Y022900D02*
X037555Y023460D01*
X036555Y023460D02*
X036555Y022900D01*
X035555Y022900D02*
X035555Y023460D01*
X034555Y023460D02*
X034555Y022900D01*
X033555Y022900D02*
X033555Y023460D01*
X030430Y023460D02*
X030430Y022900D01*
X029430Y022900D02*
X029430Y023460D01*
X028430Y023460D02*
X028430Y022900D01*
X027430Y022900D02*
X027430Y023460D01*
X026430Y023460D02*
X026430Y022900D01*
X025430Y022900D02*
X025430Y023460D01*
X024430Y023460D02*
X024430Y022900D01*
X023430Y022900D02*
X023430Y023460D01*
X022430Y023460D02*
X022430Y022900D01*
X021430Y022900D02*
X021430Y023460D01*
X018305Y023460D02*
X018305Y022900D01*
X017305Y022900D02*
X017305Y023460D01*
X016305Y023460D02*
X016305Y022900D01*
X015305Y022900D02*
X015305Y023460D01*
X014305Y023460D02*
X014305Y022900D01*
X013305Y022900D02*
X013305Y023460D01*
X012305Y023460D02*
X012305Y022900D01*
X011305Y022900D02*
X011305Y023460D01*
X010305Y023460D02*
X010305Y022900D01*
X009305Y022900D02*
X009305Y023460D01*
X009305Y030900D02*
X009305Y031460D01*
X010305Y031460D02*
X010305Y030900D01*
X011305Y030900D02*
X011305Y031460D01*
X012305Y031460D02*
X012305Y030900D01*
X013305Y030900D02*
X013305Y031460D01*
X014305Y031460D02*
X014305Y030900D01*
X015305Y030900D02*
X015305Y031460D01*
X016305Y031460D02*
X016305Y030900D01*
X017305Y030900D02*
X017305Y031460D01*
X018305Y031460D02*
X018305Y030900D01*
X021430Y030900D02*
X021430Y031460D01*
X022430Y031460D02*
X022430Y030900D01*
X023430Y030900D02*
X023430Y031460D01*
X024430Y031460D02*
X024430Y030900D01*
X025430Y030900D02*
X025430Y031460D01*
X026430Y031460D02*
X026430Y030900D01*
X027430Y030900D02*
X027430Y031460D01*
X028430Y031460D02*
X028430Y030900D01*
X029430Y030900D02*
X029430Y031460D01*
X030430Y031460D02*
X030430Y030900D01*
X033555Y030900D02*
X033555Y031460D01*
X034555Y031460D02*
X034555Y030900D01*
X035555Y030900D02*
X035555Y031460D01*
X036555Y031460D02*
X036555Y030900D01*
X037555Y030900D02*
X037555Y031460D01*
X038555Y031460D02*
X038555Y030900D01*
X039555Y030900D02*
X039555Y031460D01*
X040555Y031460D02*
X040555Y030900D01*
X041555Y030900D02*
X041555Y031460D01*
X042555Y031460D02*
X042555Y030900D01*
X045680Y030900D02*
X045680Y031460D01*
X046680Y031460D02*
X046680Y030900D01*
X047680Y030900D02*
X047680Y031460D01*
X048680Y031460D02*
X048680Y030900D01*
X049680Y030900D02*
X049680Y031460D01*
X050680Y031460D02*
X050680Y030900D01*
X051680Y030900D02*
X051680Y031460D01*
X052680Y031460D02*
X052680Y030900D01*
X053680Y030900D02*
X053680Y031460D01*
X054680Y031460D02*
X054680Y030900D01*
X054680Y033900D02*
X054680Y034460D01*
X053680Y034460D02*
X053680Y033900D01*
X052680Y033900D02*
X052680Y034460D01*
X051680Y034460D02*
X051680Y033900D01*
X050680Y033900D02*
X050680Y034460D01*
X049680Y034460D02*
X049680Y033900D01*
X048680Y033900D02*
X048680Y034460D01*
X047680Y034460D02*
X047680Y033900D01*
X046680Y033900D02*
X046680Y034460D01*
X045680Y034460D02*
X045680Y033900D01*
X042555Y033900D02*
X042555Y034460D01*
X041555Y034460D02*
X041555Y033900D01*
X040555Y033900D02*
X040555Y034460D01*
X039555Y034460D02*
X039555Y033900D01*
X038555Y033900D02*
X038555Y034460D01*
X037555Y034460D02*
X037555Y033900D01*
X036555Y033900D02*
X036555Y034460D01*
X035555Y034460D02*
X035555Y033900D01*
X034555Y033900D02*
X034555Y034460D01*
X033555Y034460D02*
X033555Y033900D01*
X030430Y033900D02*
X030430Y034460D01*
X029430Y034460D02*
X029430Y033900D01*
X028430Y033900D02*
X028430Y034460D01*
X027430Y034460D02*
X027430Y033900D01*
X026430Y033900D02*
X026430Y034460D01*
X025430Y034460D02*
X025430Y033900D01*
X024430Y033900D02*
X024430Y034460D01*
X023430Y034460D02*
X023430Y033900D01*
X022430Y033900D02*
X022430Y034460D01*
X021430Y034460D02*
X021430Y033900D01*
X018305Y033900D02*
X018305Y034460D01*
X017305Y034460D02*
X017305Y033900D01*
X016305Y033900D02*
X016305Y034460D01*
X015305Y034460D02*
X015305Y033900D01*
X014305Y033900D02*
X014305Y034460D01*
X013305Y034460D02*
X013305Y033900D01*
X012305Y033900D02*
X012305Y034460D01*
X011305Y034460D02*
X011305Y033900D01*
X010305Y033900D02*
X010305Y034460D01*
X009305Y034460D02*
X009305Y033900D01*
X021180Y008335D02*
X021180Y007775D01*
X022180Y007775D02*
X022180Y008335D01*
X023180Y008335D02*
X023180Y007775D01*
X024180Y007775D02*
X024180Y008335D01*
X025180Y008335D02*
X025180Y007775D01*
X026180Y007775D02*
X026180Y008335D01*
X027180Y008335D02*
X027180Y007775D01*
X027180Y005335D02*
X027180Y004775D01*
X026180Y004775D02*
X026180Y005335D01*
X025180Y005335D02*
X025180Y004775D01*
X024180Y004775D02*
X024180Y005335D01*
X023180Y005335D02*
X023180Y004775D01*
X022180Y004775D02*
X022180Y005335D01*
X021180Y005335D02*
X021180Y004775D01*
D12*
X019805Y006055D03*
X019805Y008055D03*
X020180Y015680D03*
X020180Y017680D03*
X020180Y021180D03*
X020180Y023180D03*
X020180Y026680D03*
X020180Y028680D03*
X020180Y032055D03*
X020180Y034055D03*
X008180Y034055D03*
X008180Y032055D03*
X008055Y028680D03*
X006055Y028680D03*
X008055Y023180D03*
X008055Y021180D03*
X008055Y017680D03*
X008055Y015680D03*
X032305Y015680D03*
X032305Y017680D03*
X032305Y021180D03*
X032305Y023180D03*
X032305Y026680D03*
X032305Y028680D03*
X032305Y032180D03*
X032305Y034180D03*
X044430Y034180D03*
X044430Y032180D03*
X044430Y028680D03*
X044430Y026680D03*
X044430Y023180D03*
X044430Y021180D03*
X044430Y017680D03*
X044430Y015680D03*
X057305Y016180D03*
X059305Y016180D03*
X059305Y026180D03*
X057305Y026180D03*
D13*
X056555Y036430D03*
X055555Y036430D03*
X055555Y037430D03*
X056555Y037430D03*
X056555Y013430D03*
X056555Y012430D03*
X055555Y012430D03*
X055555Y013430D03*
X055555Y011430D03*
X055555Y010430D03*
X056555Y010430D03*
X056555Y011430D03*
X056555Y009430D03*
X056555Y008430D03*
X055555Y008430D03*
X055555Y009430D03*
X055555Y007430D03*
X055555Y006430D03*
X056555Y006430D03*
X056555Y007430D03*
X056555Y003430D03*
X056555Y002430D03*
X055555Y002430D03*
X055555Y003430D03*
X050180Y003430D03*
X050180Y002430D03*
X049180Y002430D03*
X048180Y002430D03*
X048180Y003430D03*
X049180Y003430D03*
X047180Y003430D03*
X047180Y002430D03*
X046180Y002430D03*
X045180Y002430D03*
X045180Y003430D03*
X046180Y003430D03*
X044180Y003430D03*
X043180Y003430D03*
X043180Y002430D03*
X044180Y002430D03*
X042180Y002430D03*
X042180Y003430D03*
X041180Y003430D03*
X040180Y003430D03*
X040180Y002430D03*
X041180Y002430D03*
X039180Y002430D03*
X038180Y002430D03*
X038180Y003430D03*
X039180Y003430D03*
X037180Y003430D03*
X036180Y003430D03*
X036180Y002430D03*
X037180Y002430D03*
X035180Y002430D03*
X035180Y003430D03*
X030180Y003430D03*
X029180Y003430D03*
X029180Y002430D03*
X030180Y002430D03*
X028180Y002430D03*
X028180Y003430D03*
X027180Y003430D03*
X026180Y003430D03*
X026180Y002430D03*
X027180Y002430D03*
X025180Y002430D03*
X024180Y002430D03*
X024180Y003430D03*
X025180Y003430D03*
X023180Y003430D03*
X022180Y003430D03*
X022180Y002430D03*
X023180Y002430D03*
X021180Y002430D03*
X021180Y003430D03*
X020180Y003430D03*
X019180Y003430D03*
X019180Y002430D03*
X020180Y002430D03*
X018180Y002430D03*
X017180Y002430D03*
X017180Y003430D03*
X018180Y003430D03*
X016180Y003430D03*
X016180Y002430D03*
X015180Y002430D03*
X014180Y002430D03*
X014180Y003430D03*
X015180Y003430D03*
X013180Y003430D03*
X012180Y003430D03*
X012180Y002430D03*
X013180Y002430D03*
X011180Y002430D03*
X010180Y002430D03*
X010180Y003430D03*
X011180Y003430D03*
X009180Y003430D03*
X009180Y002430D03*
X008180Y002430D03*
X007180Y002430D03*
X007180Y003430D03*
X008180Y003430D03*
X004680Y003430D03*
X004680Y002430D03*
X003680Y002430D03*
X003680Y003430D03*
X003055Y026430D03*
X002055Y026430D03*
X002055Y027430D03*
X003055Y027430D03*
X003055Y028430D03*
X002055Y028430D03*
X002055Y029430D03*
X003055Y029430D03*
X003055Y030430D03*
X002055Y030430D03*
X002055Y031430D03*
X003055Y031430D03*
X003055Y032430D03*
X002055Y032430D03*
X002055Y033430D03*
X003055Y033430D03*
X003680Y036430D03*
X004680Y036430D03*
X004680Y037430D03*
X003680Y037430D03*
D14*
X058680Y004430D03*
D15*
X058680Y003430D03*
D16*
X000560Y000560D02*
X000560Y023278D01*
X000591Y023203D01*
X007660Y016134D01*
X007455Y015929D01*
X007455Y015680D01*
X008055Y015680D01*
X008655Y015680D01*
X008655Y015780D01*
X011764Y015780D01*
X012043Y015501D01*
X011965Y015469D01*
X011805Y015309D01*
X011645Y015469D01*
X011424Y015560D01*
X011186Y015560D01*
X010965Y015469D01*
X010805Y015309D01*
X010645Y015469D01*
X010424Y015560D01*
X010186Y015560D01*
X009965Y015469D01*
X009805Y015309D01*
X009645Y015469D01*
X009424Y015560D01*
X009186Y015560D01*
X008965Y015469D01*
X008796Y015300D01*
X008705Y015079D01*
X000560Y015079D01*
X000560Y014921D02*
X008705Y014921D01*
X008705Y015079D02*
X008705Y014281D01*
X008796Y014060D01*
X008965Y013891D01*
X009186Y013800D01*
X009424Y013800D01*
X009645Y013891D01*
X009805Y014051D01*
X009965Y013891D01*
X010072Y013847D01*
X010716Y013203D01*
X010828Y013091D01*
X010975Y013030D01*
X021760Y013030D01*
X021907Y013091D01*
X022430Y013614D01*
X022578Y013466D01*
X022725Y013405D01*
X024370Y013405D01*
X024370Y013194D01*
X024455Y012988D01*
X024613Y012830D01*
X024819Y012745D01*
X024924Y012745D01*
X026964Y010705D01*
X018096Y010705D01*
X016365Y012436D01*
X016365Y012541D01*
X016280Y012747D01*
X016122Y012905D01*
X015916Y012990D01*
X015694Y012990D01*
X015488Y012905D01*
X015330Y012747D01*
X015305Y012686D01*
X015280Y012747D01*
X015122Y012905D01*
X014916Y012990D01*
X014694Y012990D01*
X014488Y012905D01*
X014330Y012747D01*
X014305Y012686D01*
X014280Y012747D01*
X014122Y012905D01*
X013916Y012990D01*
X013694Y012990D01*
X013488Y012905D01*
X013330Y012747D01*
X013305Y012686D01*
X013280Y012747D01*
X013122Y012905D01*
X012916Y012990D01*
X012694Y012990D01*
X012488Y012905D01*
X012330Y012747D01*
X012245Y012541D01*
X012245Y012319D01*
X012330Y012113D01*
X012488Y011955D01*
X012694Y011870D01*
X012799Y011870D01*
X015464Y009205D01*
X012475Y009205D01*
X012328Y009144D01*
X012216Y009032D01*
X008341Y005157D01*
X008280Y005010D01*
X008280Y004070D01*
X007915Y004070D01*
X007680Y003835D01*
X007445Y004070D01*
X006915Y004070D01*
X006540Y003695D01*
X006540Y003165D01*
X006775Y002930D01*
X006540Y002695D01*
X006540Y002165D01*
X006915Y001790D01*
X007445Y001790D01*
X007680Y002025D01*
X007915Y001790D01*
X008445Y001790D01*
X008680Y002025D01*
X008915Y001790D01*
X009445Y001790D01*
X009680Y002025D01*
X009915Y001790D01*
X010445Y001790D01*
X010680Y002025D01*
X010915Y001790D01*
X011445Y001790D01*
X011680Y002025D01*
X011915Y001790D01*
X012445Y001790D01*
X012680Y002025D01*
X012915Y001790D01*
X013445Y001790D01*
X013680Y002025D01*
X013915Y001790D01*
X014445Y001790D01*
X014680Y002025D01*
X014915Y001790D01*
X015445Y001790D01*
X015680Y002025D01*
X015915Y001790D01*
X016445Y001790D01*
X016680Y002025D01*
X016915Y001790D01*
X017445Y001790D01*
X017680Y002025D01*
X017915Y001790D01*
X018445Y001790D01*
X018680Y002025D01*
X018915Y001790D01*
X019445Y001790D01*
X019680Y002025D01*
X019915Y001790D01*
X020445Y001790D01*
X020680Y002025D01*
X020915Y001790D01*
X021445Y001790D01*
X021680Y002025D01*
X021915Y001790D01*
X022445Y001790D01*
X022680Y002025D01*
X022915Y001790D01*
X023445Y001790D01*
X023680Y002025D01*
X023915Y001790D01*
X024445Y001790D01*
X024680Y002025D01*
X024915Y001790D01*
X025445Y001790D01*
X025680Y002025D01*
X025915Y001790D01*
X026445Y001790D01*
X026680Y002025D01*
X026915Y001790D01*
X027445Y001790D01*
X027680Y002025D01*
X027915Y001790D01*
X028445Y001790D01*
X028680Y002025D01*
X028915Y001790D01*
X029445Y001790D01*
X029680Y002025D01*
X029915Y001790D01*
X030445Y001790D01*
X030820Y002165D01*
X030820Y002695D01*
X030585Y002930D01*
X030820Y003165D01*
X030820Y003695D01*
X030445Y004070D01*
X029915Y004070D01*
X029680Y003835D01*
X029445Y004070D01*
X028915Y004070D01*
X028680Y003835D01*
X028445Y004070D01*
X027915Y004070D01*
X027680Y003835D01*
X027445Y004070D01*
X026915Y004070D01*
X026680Y003835D01*
X026445Y004070D01*
X025915Y004070D01*
X025680Y003835D01*
X025445Y004070D01*
X025261Y004070D01*
X025407Y004216D01*
X025413Y004222D01*
X025520Y004266D01*
X025680Y004426D01*
X025840Y004266D01*
X026061Y004175D01*
X026299Y004175D01*
X026520Y004266D01*
X026687Y004433D01*
X026722Y004384D01*
X026789Y004317D01*
X026866Y004262D01*
X026950Y004219D01*
X027039Y004190D01*
X027133Y004175D01*
X027180Y004175D01*
X027227Y004175D01*
X027320Y004190D01*
X027410Y004219D01*
X027494Y004262D01*
X027571Y004317D01*
X027638Y004384D01*
X027693Y004461D01*
X027736Y004545D01*
X027765Y004634D01*
X027780Y004728D01*
X027780Y005055D01*
X027780Y005382D01*
X027765Y005475D01*
X027748Y005530D01*
X029264Y005530D01*
X033466Y001328D01*
X033578Y001216D01*
X033725Y001155D01*
X053010Y001155D01*
X053157Y001216D01*
X053269Y001328D01*
X055010Y003070D01*
X055150Y002930D01*
X054915Y002695D01*
X054915Y002165D01*
X055290Y001790D01*
X055820Y001790D01*
X056055Y002025D01*
X056290Y001790D01*
X056820Y001790D01*
X057195Y002165D01*
X057195Y002695D01*
X056960Y002930D01*
X057195Y003165D01*
X057195Y003695D01*
X056860Y004030D01*
X057885Y004030D01*
X058032Y004091D01*
X058076Y004136D01*
X058282Y003930D01*
X058142Y003790D01*
X058045Y003556D01*
X058045Y003304D01*
X058142Y003070D01*
X058320Y002892D01*
X058554Y002795D01*
X058806Y002795D01*
X059040Y002892D01*
X059218Y003070D01*
X059315Y003304D01*
X059315Y003556D01*
X059218Y003790D01*
X059078Y003930D01*
X059315Y004167D01*
X059315Y004430D01*
X059315Y004693D01*
X058974Y005034D01*
X061519Y007578D01*
X061580Y007725D01*
X061580Y021260D01*
X061519Y021407D01*
X061407Y021519D01*
X061138Y021788D01*
X061094Y021895D01*
X060934Y022055D01*
X061094Y022215D01*
X061138Y022322D01*
X061519Y022703D01*
X061580Y022850D01*
X061580Y023760D01*
X061519Y023907D01*
X061144Y024282D01*
X061128Y024298D01*
X061141Y024325D01*
X061170Y024414D01*
X061185Y024508D01*
X061185Y024555D01*
X061185Y024602D01*
X061170Y024695D01*
X061141Y024785D01*
X061098Y024869D01*
X061043Y024946D01*
X061039Y024950D01*
X061227Y024950D01*
X061259Y024919D01*
X061376Y024870D01*
X061984Y024870D01*
X062101Y024919D01*
X062191Y025009D01*
X062240Y025126D01*
X062240Y025734D01*
X062191Y025851D01*
X062101Y025941D01*
X061984Y025990D01*
X061376Y025990D01*
X061259Y025941D01*
X061227Y025910D01*
X059884Y025910D01*
X059905Y025931D01*
X059905Y026180D01*
X059905Y026429D01*
X059554Y026780D01*
X059305Y026780D01*
X059305Y026180D01*
X059305Y026180D01*
X059905Y026180D01*
X059305Y026180D01*
X059305Y026180D01*
X059305Y026780D01*
X059056Y026780D01*
X058705Y026429D01*
X058705Y026209D01*
X058462Y026452D01*
X058327Y026587D01*
X058150Y026660D01*
X057674Y026660D01*
X057554Y026780D01*
X057056Y026780D01*
X056705Y026429D01*
X056705Y025955D01*
X055947Y025955D01*
X055872Y026030D01*
X055666Y026115D01*
X055444Y026115D01*
X055274Y026045D01*
X055265Y026100D01*
X055248Y026155D01*
X056010Y026155D01*
X056157Y026216D01*
X056532Y026591D01*
X056644Y026703D01*
X056705Y026850D01*
X056705Y027038D01*
X056906Y026955D01*
X057704Y026955D01*
X057925Y027046D01*
X058094Y027215D01*
X058185Y027436D01*
X058185Y027674D01*
X058094Y027895D01*
X057927Y028062D01*
X057976Y028097D01*
X058043Y028164D01*
X058098Y028241D01*
X058141Y028325D01*
X058170Y028414D01*
X058185Y028508D01*
X058185Y028555D01*
X058185Y028602D01*
X058184Y028611D01*
X058578Y028216D01*
X058725Y028155D01*
X059576Y028155D01*
X059676Y028055D01*
X059516Y027895D01*
X059425Y027674D01*
X059425Y027436D01*
X059516Y027215D01*
X059685Y027046D01*
X059906Y026955D01*
X060704Y026955D01*
X060925Y027046D01*
X061094Y027215D01*
X061185Y027436D01*
X061185Y027674D01*
X061094Y027895D01*
X060934Y028055D01*
X061094Y028215D01*
X061185Y028436D01*
X061185Y028674D01*
X061094Y028895D01*
X060934Y029055D01*
X061094Y029215D01*
X061185Y029436D01*
X061185Y029674D01*
X061094Y029895D01*
X060934Y030055D01*
X061094Y030215D01*
X061185Y030436D01*
X061185Y030674D01*
X061094Y030895D01*
X060934Y031055D01*
X061094Y031215D01*
X061185Y031436D01*
X061185Y031674D01*
X061094Y031895D01*
X060934Y032055D01*
X061094Y032215D01*
X061185Y032436D01*
X061185Y032674D01*
X061094Y032895D01*
X060934Y033055D01*
X061094Y033215D01*
X061185Y033436D01*
X061185Y033674D01*
X061094Y033895D01*
X060927Y034062D01*
X060976Y034097D01*
X061043Y034164D01*
X061098Y034241D01*
X061141Y034325D01*
X061170Y034414D01*
X061185Y034508D01*
X061185Y034555D01*
X061185Y034602D01*
X061170Y034695D01*
X061141Y034785D01*
X061098Y034869D01*
X061043Y034946D01*
X060976Y035013D01*
X060899Y035068D01*
X060815Y035111D01*
X060725Y035140D01*
X060632Y035155D01*
X060305Y035155D01*
X060305Y034555D01*
X060305Y034555D01*
X061185Y034555D01*
X060305Y034555D01*
X060305Y034555D01*
X060305Y034555D01*
X059425Y034555D01*
X059425Y034602D01*
X059440Y034695D01*
X059469Y034785D01*
X059512Y034869D01*
X059567Y034946D01*
X059634Y035013D01*
X059711Y035068D01*
X059795Y035111D01*
X059884Y035140D01*
X059978Y035155D01*
X060305Y035155D01*
X060305Y034555D01*
X059425Y034555D01*
X059425Y034508D01*
X059440Y034414D01*
X059469Y034325D01*
X059512Y034241D01*
X059567Y034164D01*
X059634Y034097D01*
X059683Y034062D01*
X059576Y033955D01*
X059350Y033955D01*
X059203Y033894D01*
X059091Y033782D01*
X058140Y033782D01*
X058185Y033674D02*
X058094Y033895D01*
X057934Y034055D01*
X058094Y034215D01*
X058185Y034436D01*
X058185Y034674D01*
X058094Y034895D01*
X057925Y035064D01*
X057704Y035155D01*
X056906Y035155D01*
X056685Y035064D01*
X056516Y034895D01*
X056425Y034674D01*
X056425Y034436D01*
X056516Y034215D01*
X056676Y034055D01*
X056516Y033895D01*
X056425Y033674D01*
X056425Y033436D01*
X056516Y033215D01*
X056676Y033055D01*
X056516Y032895D01*
X056425Y032674D01*
X056425Y032455D01*
X056350Y032455D01*
X056203Y032394D01*
X056091Y032282D01*
X055280Y031471D01*
X055280Y031507D01*
X055265Y031600D01*
X055236Y031690D01*
X055193Y031774D01*
X055138Y031851D01*
X055071Y031918D01*
X054994Y031973D01*
X054910Y032016D01*
X054820Y032045D01*
X054727Y032060D01*
X054680Y032060D01*
X054680Y031180D01*
X054680Y031180D01*
X054680Y032060D01*
X054633Y032060D01*
X054539Y032045D01*
X054450Y032016D01*
X054366Y031973D01*
X054289Y031918D01*
X054222Y031851D01*
X054187Y031802D01*
X054020Y031969D01*
X053913Y032013D01*
X053907Y032019D01*
X053532Y032394D01*
X053385Y032455D01*
X045225Y032455D01*
X045078Y032394D01*
X045030Y032346D01*
X045030Y032429D01*
X044679Y032780D01*
X044430Y032780D01*
X044430Y032180D01*
X044430Y032180D01*
X044430Y032780D01*
X044181Y032780D01*
X043830Y032429D01*
X043830Y032346D01*
X043782Y032394D01*
X043635Y032455D01*
X041975Y032455D01*
X041828Y032394D01*
X041716Y032282D01*
X041555Y032121D01*
X041282Y032394D01*
X041135Y032455D01*
X033100Y032455D01*
X032953Y032394D01*
X032905Y032346D01*
X032905Y032429D01*
X032554Y032780D01*
X032305Y032780D01*
X032305Y032180D01*
X032305Y032180D01*
X032305Y032780D01*
X032056Y032780D01*
X031705Y032429D01*
X031705Y032346D01*
X031657Y032394D01*
X031510Y032455D01*
X029725Y032455D01*
X029578Y032394D01*
X029466Y032282D01*
X029430Y032246D01*
X029282Y032394D01*
X029135Y032455D01*
X027225Y032455D01*
X027078Y032394D01*
X026966Y032282D01*
X026687Y032003D01*
X026663Y032013D01*
X026657Y032019D01*
X025771Y032905D01*
X030135Y032905D01*
X030282Y032966D01*
X030430Y033114D01*
X030466Y033078D01*
X030578Y032966D01*
X030725Y032905D01*
X042260Y032905D01*
X042407Y032966D01*
X042555Y033114D01*
X042591Y033078D01*
X042703Y032966D01*
X042850Y032905D01*
X054385Y032905D01*
X054532Y032966D01*
X054907Y033341D01*
X054913Y033347D01*
X055020Y033391D01*
X055189Y033560D01*
X055280Y033781D01*
X055280Y034579D01*
X055189Y034800D01*
X055020Y034969D01*
X054799Y035060D01*
X054561Y035060D01*
X054340Y034969D01*
X054173Y034802D01*
X054138Y034851D01*
X054071Y034918D01*
X053994Y034973D01*
X053910Y035016D01*
X053820Y035045D01*
X053727Y035060D01*
X053680Y035060D01*
X053680Y034180D01*
X053680Y034180D01*
X053680Y035060D01*
X053633Y035060D01*
X053539Y035045D01*
X053450Y035016D01*
X053366Y034973D01*
X053289Y034918D01*
X053222Y034851D01*
X053187Y034802D01*
X053020Y034969D01*
X052799Y035060D01*
X052561Y035060D01*
X052340Y034969D01*
X052180Y034809D01*
X052020Y034969D01*
X051799Y035060D01*
X051561Y035060D01*
X051340Y034969D01*
X051180Y034809D01*
X051020Y034969D01*
X050799Y035060D01*
X050561Y035060D01*
X050340Y034969D01*
X050180Y034809D01*
X050020Y034969D01*
X049799Y035060D01*
X049561Y035060D01*
X049340Y034969D01*
X049180Y034809D01*
X049020Y034969D01*
X048913Y035013D01*
X048282Y035644D01*
X048135Y035705D01*
X037100Y035705D01*
X036953Y035644D01*
X036841Y035532D01*
X036555Y035246D01*
X036157Y035644D01*
X036010Y035705D01*
X035625Y035705D01*
X035625Y035905D01*
X035649Y035905D01*
X035732Y035822D01*
X035942Y035735D01*
X036168Y035735D01*
X036378Y035822D01*
X036538Y035982D01*
X036625Y036192D01*
X036625Y036418D01*
X036579Y036530D01*
X037389Y036530D01*
X037485Y036434D01*
X037485Y036317D01*
X037572Y036107D01*
X037732Y035947D01*
X037942Y035860D01*
X038168Y035860D01*
X038378Y035947D01*
X038538Y036107D01*
X038555Y036148D01*
X038572Y036107D01*
X038732Y035947D01*
X038942Y035860D01*
X039168Y035860D01*
X039378Y035947D01*
X039538Y036107D01*
X039625Y036317D01*
X039625Y036543D01*
X039538Y036753D01*
X039378Y036913D01*
X039168Y037000D01*
X039051Y037000D01*
X038771Y037280D01*
X045764Y037280D01*
X046610Y036434D01*
X046610Y036317D01*
X046697Y036107D01*
X046857Y035947D01*
X047067Y035860D01*
X047293Y035860D01*
X047503Y035947D01*
X047663Y036107D01*
X047680Y036148D01*
X047697Y036107D01*
X047857Y035947D01*
X048067Y035860D01*
X048293Y035860D01*
X048503Y035947D01*
X048663Y036107D01*
X048750Y036317D01*
X048750Y036543D01*
X048663Y036753D01*
X048503Y036913D01*
X048293Y037000D01*
X048176Y037000D01*
X047146Y038030D01*
X048014Y038030D01*
X049610Y036434D01*
X049610Y036317D01*
X049697Y036107D01*
X049857Y035947D01*
X050067Y035860D01*
X050293Y035860D01*
X050503Y035947D01*
X050663Y036107D01*
X050680Y036148D01*
X050697Y036107D01*
X050857Y035947D01*
X051067Y035860D01*
X051293Y035860D01*
X051503Y035947D01*
X051663Y036107D01*
X051750Y036317D01*
X051750Y036543D01*
X051663Y036753D01*
X051503Y036913D01*
X051293Y037000D01*
X051176Y037000D01*
X049144Y039032D01*
X049032Y039144D01*
X048969Y039170D01*
X062792Y039170D01*
X062792Y038008D01*
X062582Y038218D01*
X062240Y038360D01*
X061870Y038360D01*
X061528Y038218D01*
X061267Y037957D01*
X061125Y037615D01*
X061125Y037245D01*
X061267Y036903D01*
X061528Y036642D01*
X061870Y036500D01*
X062240Y036500D01*
X062582Y036642D01*
X062792Y036852D01*
X062792Y003008D01*
X062582Y003218D01*
X062240Y003360D01*
X061870Y003360D01*
X061528Y003218D01*
X061267Y002957D01*
X061125Y002615D01*
X061125Y002245D01*
X061267Y001903D01*
X061528Y001642D01*
X061870Y001500D01*
X062240Y001500D01*
X062582Y001642D01*
X062792Y001852D01*
X062792Y000560D01*
X000560Y000560D01*
X000560Y000656D02*
X062792Y000656D01*
X062792Y000814D02*
X000560Y000814D01*
X000560Y000973D02*
X062792Y000973D01*
X062792Y001131D02*
X000560Y001131D01*
X000560Y001290D02*
X033505Y001290D01*
X033466Y001328D02*
X033466Y001328D01*
X033346Y001448D02*
X000560Y001448D01*
X000560Y001607D02*
X001113Y001607D01*
X001028Y001642D02*
X001370Y001500D01*
X001740Y001500D01*
X002082Y001642D01*
X002343Y001903D01*
X002485Y002245D01*
X002485Y002615D01*
X002343Y002957D01*
X002082Y003218D01*
X001740Y003360D01*
X001370Y003360D01*
X001028Y003218D01*
X000767Y002957D01*
X000625Y002615D01*
X000625Y002245D01*
X000767Y001903D01*
X001028Y001642D01*
X000905Y001765D02*
X000560Y001765D01*
X000560Y001924D02*
X000758Y001924D01*
X000693Y002082D02*
X000560Y002082D01*
X000560Y002241D02*
X000627Y002241D01*
X000625Y002399D02*
X000560Y002399D01*
X000560Y002558D02*
X000625Y002558D01*
X000667Y002716D02*
X000560Y002716D01*
X000560Y002875D02*
X000732Y002875D01*
X000843Y003033D02*
X000560Y003033D01*
X000560Y003192D02*
X001001Y003192D01*
X001346Y003350D02*
X000560Y003350D01*
X000560Y003509D02*
X003040Y003509D01*
X003040Y003450D02*
X003660Y003450D01*
X003660Y004070D01*
X003415Y004070D01*
X003040Y003695D01*
X003040Y003450D01*
X003040Y003410D02*
X003040Y003165D01*
X003275Y002930D01*
X003040Y002695D01*
X003040Y002450D01*
X003660Y002450D01*
X003660Y003410D01*
X003040Y003410D01*
X003040Y003350D02*
X001764Y003350D01*
X002109Y003192D02*
X003040Y003192D01*
X003172Y003033D02*
X002267Y003033D01*
X002378Y002875D02*
X003219Y002875D01*
X003061Y002716D02*
X002443Y002716D01*
X002485Y002558D02*
X003040Y002558D01*
X003040Y002410D02*
X003040Y002165D01*
X003415Y001790D01*
X003660Y001790D01*
X003660Y002410D01*
X003700Y002410D01*
X003700Y002450D01*
X003660Y002450D01*
X003660Y002410D01*
X003040Y002410D01*
X003040Y002399D02*
X002485Y002399D01*
X002483Y002241D02*
X003040Y002241D01*
X003123Y002082D02*
X002417Y002082D01*
X002352Y001924D02*
X003281Y001924D01*
X003660Y001924D02*
X003700Y001924D01*
X003700Y001790D02*
X003945Y001790D01*
X004180Y002025D01*
X004415Y001790D01*
X004660Y001790D01*
X004660Y002410D01*
X004700Y002410D01*
X004700Y002450D01*
X005320Y002450D01*
X005320Y002695D01*
X005085Y002930D01*
X005320Y003165D01*
X005320Y003410D01*
X004700Y003410D01*
X004700Y003450D01*
X005320Y003450D01*
X005320Y003695D01*
X004945Y004070D01*
X004700Y004070D01*
X004700Y003450D01*
X004660Y003450D01*
X004660Y004070D01*
X004415Y004070D01*
X004180Y003835D01*
X003945Y004070D01*
X003700Y004070D01*
X003700Y003450D01*
X003660Y003450D01*
X003660Y003410D01*
X003700Y003410D01*
X003700Y003450D01*
X004660Y003450D01*
X004660Y003410D01*
X004040Y003410D01*
X003700Y003410D01*
X003700Y002790D01*
X003700Y002450D01*
X004660Y002450D01*
X004660Y003410D01*
X004700Y003410D01*
X004700Y002790D01*
X004700Y002450D01*
X004660Y002450D01*
X004660Y002410D01*
X004320Y002410D01*
X003700Y002410D01*
X003700Y001790D01*
X003700Y002082D02*
X003660Y002082D01*
X003660Y002241D02*
X003700Y002241D01*
X003700Y002399D02*
X003660Y002399D01*
X003660Y002558D02*
X003700Y002558D01*
X003700Y002716D02*
X003660Y002716D01*
X003660Y002875D02*
X003700Y002875D01*
X003700Y003033D02*
X003660Y003033D01*
X003660Y003192D02*
X003700Y003192D01*
X003700Y003350D02*
X003660Y003350D01*
X003660Y003509D02*
X003700Y003509D01*
X003700Y003667D02*
X003660Y003667D01*
X003660Y003826D02*
X003700Y003826D01*
X003700Y003984D02*
X003660Y003984D01*
X003329Y003984D02*
X000560Y003984D01*
X000560Y003826D02*
X003170Y003826D01*
X003040Y003667D02*
X000560Y003667D01*
X000560Y004143D02*
X008280Y004143D01*
X008280Y004301D02*
X000560Y004301D01*
X000560Y004460D02*
X008280Y004460D01*
X008280Y004618D02*
X000560Y004618D01*
X000560Y004777D02*
X008280Y004777D01*
X008280Y004935D02*
X000560Y004935D01*
X000560Y005094D02*
X008315Y005094D01*
X008436Y005252D02*
X000560Y005252D01*
X000560Y005411D02*
X008595Y005411D01*
X008753Y005569D02*
X000560Y005569D01*
X000560Y005728D02*
X008912Y005728D01*
X009070Y005886D02*
X000560Y005886D01*
X000560Y006045D02*
X009229Y006045D01*
X009387Y006203D02*
X000560Y006203D01*
X000560Y006362D02*
X009546Y006362D01*
X009704Y006520D02*
X000560Y006520D01*
X000560Y006679D02*
X009863Y006679D01*
X010021Y006837D02*
X000560Y006837D01*
X000560Y006996D02*
X010180Y006996D01*
X010338Y007154D02*
X000560Y007154D01*
X000560Y007313D02*
X010497Y007313D01*
X010655Y007471D02*
X000560Y007471D01*
X000560Y007630D02*
X010814Y007630D01*
X010972Y007788D02*
X000560Y007788D01*
X000560Y007947D02*
X011131Y007947D01*
X011289Y008105D02*
X000560Y008105D01*
X000560Y008264D02*
X011448Y008264D01*
X011606Y008422D02*
X000560Y008422D01*
X000560Y008581D02*
X011765Y008581D01*
X011923Y008739D02*
X005283Y008739D01*
X005273Y008735D02*
X005433Y008801D01*
X005555Y008924D01*
X005645Y009013D01*
X005767Y009135D01*
X005815Y009250D01*
X005834Y009295D01*
X005834Y009680D01*
X005767Y009840D01*
X005568Y010039D01*
X005670Y010091D01*
X005784Y010221D01*
X005839Y010386D01*
X005826Y010558D01*
X005749Y010713D01*
X005618Y010826D01*
X005454Y010881D01*
X005281Y010869D01*
X004794Y010625D01*
X004728Y010598D01*
X004717Y010587D01*
X004703Y010580D01*
X004656Y010526D01*
X004389Y010258D01*
X004386Y010264D01*
X004264Y010386D01*
X004241Y010396D01*
X004241Y010528D01*
X004174Y010687D01*
X004052Y010810D01*
X003892Y010876D01*
X003719Y010876D01*
X003594Y010824D01*
X003468Y010876D01*
X003295Y010876D01*
X003135Y010810D01*
X003013Y010687D01*
X002947Y010528D01*
X002947Y010396D01*
X002924Y010386D01*
X002801Y010264D01*
X002735Y010104D01*
X002735Y009931D01*
X002787Y009806D01*
X002735Y009680D01*
X002735Y009507D01*
X002801Y009347D01*
X002924Y009225D01*
X002947Y009215D01*
X002947Y009083D01*
X003013Y008924D01*
X003135Y008801D01*
X003295Y008735D01*
X003468Y008735D01*
X003594Y008787D01*
X003719Y008735D01*
X003892Y008735D01*
X004052Y008801D01*
X004174Y008924D01*
X004239Y009079D01*
X004394Y008924D01*
X004517Y008801D01*
X004676Y008735D01*
X005273Y008735D01*
X005529Y008898D02*
X012082Y008898D01*
X012240Y009056D02*
X005688Y009056D01*
X005645Y009013D02*
X005645Y009013D01*
X005555Y008924D02*
X005555Y008924D01*
X005800Y009215D02*
X015455Y009215D01*
X015296Y009373D02*
X005834Y009373D01*
X005834Y009532D02*
X015138Y009532D01*
X014979Y009690D02*
X005830Y009690D01*
X005759Y009849D02*
X014821Y009849D01*
X014662Y010007D02*
X005600Y010007D01*
X005735Y010166D02*
X014504Y010166D01*
X014345Y010324D02*
X005818Y010324D01*
X005832Y010483D02*
X014187Y010483D01*
X014028Y010641D02*
X005785Y010641D01*
X005649Y010800D02*
X013870Y010800D01*
X013711Y010958D02*
X000560Y010958D01*
X000560Y010800D02*
X003125Y010800D01*
X002994Y010641D02*
X000560Y010641D01*
X000560Y010483D02*
X002947Y010483D01*
X002861Y010324D02*
X000560Y010324D01*
X000560Y010166D02*
X002761Y010166D01*
X002735Y010007D02*
X000560Y010007D01*
X000560Y009849D02*
X002769Y009849D01*
X002739Y009690D02*
X000560Y009690D01*
X000560Y009532D02*
X002735Y009532D01*
X002791Y009373D02*
X000560Y009373D01*
X000560Y009215D02*
X002947Y009215D01*
X002958Y009056D02*
X000560Y009056D01*
X000560Y008898D02*
X003039Y008898D01*
X003286Y008739D02*
X000560Y008739D01*
X003478Y008739D02*
X003709Y008739D01*
X003902Y008739D02*
X004667Y008739D01*
X004420Y008898D02*
X004148Y008898D01*
X004229Y009056D02*
X004262Y009056D01*
X004326Y010324D02*
X004454Y010324D01*
X004613Y010483D02*
X004241Y010483D01*
X004194Y010641D02*
X004826Y010641D01*
X005143Y010800D02*
X004062Y010800D01*
X000560Y011117D02*
X013553Y011117D01*
X013394Y011275D02*
X000560Y011275D01*
X000560Y011434D02*
X013236Y011434D01*
X013077Y011592D02*
X000560Y011592D01*
X000560Y011751D02*
X012919Y011751D01*
X012599Y011909D02*
X000560Y011909D01*
X000560Y012068D02*
X012376Y012068D01*
X012283Y012226D02*
X000560Y012226D01*
X000560Y012385D02*
X012245Y012385D01*
X012246Y012543D02*
X000560Y012543D01*
X000560Y012702D02*
X012311Y012702D01*
X012443Y012860D02*
X000560Y012860D01*
X000560Y013019D02*
X024443Y013019D01*
X024377Y013177D02*
X021993Y013177D01*
X022151Y013336D02*
X024370Y013336D01*
X024583Y012860D02*
X016167Y012860D01*
X016299Y012702D02*
X024968Y012702D01*
X025126Y012543D02*
X016364Y012543D01*
X016416Y012385D02*
X025285Y012385D01*
X025443Y012226D02*
X016575Y012226D01*
X016733Y012068D02*
X025602Y012068D01*
X025760Y011909D02*
X016892Y011909D01*
X017050Y011751D02*
X025919Y011751D01*
X026077Y011592D02*
X017209Y011592D01*
X017367Y011434D02*
X026236Y011434D01*
X026394Y011275D02*
X017526Y011275D01*
X017684Y011117D02*
X026553Y011117D01*
X026711Y010958D02*
X017843Y010958D01*
X018001Y010800D02*
X026870Y010800D01*
X027555Y010680D02*
X029680Y010680D01*
X030930Y009430D01*
X055555Y009430D01*
X056055Y009930D02*
X056555Y009430D01*
X056055Y009930D02*
X030930Y009930D01*
X029805Y011055D01*
X028180Y011055D01*
X025930Y013305D01*
X024930Y013305D02*
X027555Y010680D01*
X028805Y011430D02*
X029930Y011430D01*
X030930Y010430D01*
X051555Y010430D01*
X052305Y010930D02*
X030930Y010930D01*
X030055Y011805D01*
X029430Y011805D01*
X027930Y013305D01*
X026930Y013305D02*
X028805Y011430D01*
X029555Y010305D02*
X030930Y008930D01*
X050805Y008930D01*
X050055Y008430D02*
X030930Y008430D01*
X029430Y009930D01*
X017305Y009930D01*
X014805Y012430D01*
X015167Y012860D02*
X015443Y012860D01*
X015311Y012702D02*
X015299Y012702D01*
X015805Y012430D02*
X017930Y010305D01*
X029555Y010305D01*
X029305Y009555D02*
X030930Y007930D01*
X056055Y007930D01*
X056555Y007430D01*
X055555Y007430D02*
X030930Y007430D01*
X029180Y009180D01*
X016055Y009180D01*
X012805Y012430D01*
X013167Y012860D02*
X013443Y012860D01*
X013311Y012702D02*
X013299Y012702D01*
X013805Y012430D02*
X016680Y009555D01*
X029305Y009555D01*
X028930Y008805D02*
X030805Y006930D01*
X049430Y006930D01*
X050805Y005555D01*
X057055Y005555D01*
X058180Y006680D01*
X058180Y019180D01*
X057805Y019555D01*
X057305Y019555D01*
X056683Y019048D02*
X056516Y019215D01*
X056425Y019436D01*
X056425Y019674D01*
X056516Y019895D01*
X056676Y020055D01*
X056516Y020215D01*
X056425Y020436D01*
X056425Y020655D01*
X055248Y020655D01*
X055265Y020600D01*
X055280Y020507D01*
X055280Y020180D01*
X054680Y020180D01*
X054680Y020180D01*
X055280Y020180D01*
X055280Y019853D01*
X055265Y019759D01*
X055236Y019670D01*
X055193Y019586D01*
X055138Y019509D01*
X055071Y019442D01*
X054994Y019387D01*
X054910Y019344D01*
X054820Y019315D01*
X054727Y019300D01*
X054680Y019300D01*
X054680Y020180D01*
X054680Y020180D01*
X054680Y019300D01*
X054633Y019300D01*
X054539Y019315D01*
X054450Y019344D01*
X054366Y019387D01*
X054289Y019442D01*
X054222Y019509D01*
X054187Y019558D01*
X054020Y019391D01*
X053872Y019330D01*
X054010Y019330D01*
X054157Y019269D01*
X054907Y018519D01*
X054913Y018513D01*
X055020Y018469D01*
X055189Y018300D01*
X055280Y018079D01*
X055280Y017322D01*
X055407Y017269D01*
X056705Y015971D01*
X056705Y016429D01*
X057056Y016780D01*
X057554Y016780D01*
X057780Y016554D01*
X057780Y016986D01*
X057704Y016955D01*
X056906Y016955D01*
X056685Y017046D01*
X056516Y017215D01*
X056425Y017436D01*
X056425Y017674D01*
X056516Y017895D01*
X056683Y018062D01*
X056634Y018097D01*
X056567Y018164D01*
X056512Y018241D01*
X056469Y018325D01*
X056440Y018414D01*
X056425Y018508D01*
X056425Y018555D01*
X057305Y018555D01*
X057305Y018555D01*
X056425Y018555D01*
X056425Y018602D01*
X056440Y018695D01*
X056469Y018785D01*
X056512Y018869D01*
X056567Y018946D01*
X056634Y019013D01*
X056683Y019048D01*
X056674Y019042D02*
X054384Y019042D01*
X054226Y019200D02*
X056531Y019200D01*
X056457Y019359D02*
X054939Y019359D01*
X055143Y019517D02*
X056425Y019517D01*
X056425Y019676D02*
X055238Y019676D01*
X055277Y019834D02*
X056491Y019834D01*
X056614Y019993D02*
X055280Y019993D01*
X055280Y020151D02*
X056580Y020151D01*
X056477Y020310D02*
X055280Y020310D01*
X055280Y020468D02*
X056425Y020468D01*
X056425Y020627D02*
X055257Y020627D01*
X054680Y020151D02*
X054680Y020151D01*
X054680Y019993D02*
X054680Y019993D01*
X054680Y019834D02*
X054680Y019834D01*
X054680Y019676D02*
X054680Y019676D01*
X054680Y019517D02*
X054680Y019517D01*
X054680Y019359D02*
X054680Y019359D01*
X054421Y019359D02*
X053941Y019359D01*
X054146Y019517D02*
X054217Y019517D01*
X053680Y020180D02*
X052680Y020180D01*
X051680Y020180D02*
X051680Y020680D01*
X052055Y021055D01*
X058805Y021055D01*
X059305Y020555D01*
X060305Y020555D01*
X061180Y021180D02*
X061180Y007805D01*
X057805Y004430D01*
X055805Y004430D01*
X052930Y001555D01*
X033805Y001555D01*
X029430Y005930D01*
X022055Y005930D01*
X021680Y005555D01*
X021680Y004430D01*
X021305Y004055D01*
X020805Y004055D01*
X020180Y003430D01*
X019180Y003430D02*
X019180Y004180D01*
X020055Y005055D01*
X021180Y005055D01*
X020580Y005455D02*
X019975Y005455D01*
X019828Y005394D01*
X019716Y005282D01*
X018841Y004407D01*
X018780Y004260D01*
X018780Y003935D01*
X018680Y003835D01*
X018445Y004070D01*
X017915Y004070D01*
X017680Y003835D01*
X017445Y004070D01*
X016915Y004070D01*
X016680Y003835D01*
X016445Y004070D01*
X015915Y004070D01*
X015680Y003835D01*
X015445Y004070D01*
X014915Y004070D01*
X014680Y003835D01*
X014445Y004070D01*
X013915Y004070D01*
X013680Y003835D01*
X013445Y004070D01*
X012915Y004070D01*
X012680Y003835D01*
X012445Y004070D01*
X011915Y004070D01*
X011680Y003835D01*
X011445Y004070D01*
X010915Y004070D01*
X010680Y003835D01*
X010445Y004070D01*
X009915Y004070D01*
X009680Y003835D01*
X009445Y004070D01*
X009080Y004070D01*
X009080Y004764D01*
X012721Y008405D01*
X019306Y008405D01*
X019205Y008304D01*
X019205Y007806D01*
X019556Y007455D01*
X020054Y007455D01*
X020405Y007806D01*
X020405Y008304D01*
X020304Y008405D01*
X020580Y008405D01*
X020580Y007656D01*
X020671Y007435D01*
X020840Y007266D01*
X021061Y007175D01*
X021299Y007175D01*
X021520Y007266D01*
X021680Y007426D01*
X021840Y007266D01*
X022061Y007175D01*
X022299Y007175D01*
X022520Y007266D01*
X022680Y007426D01*
X022840Y007266D01*
X023061Y007175D01*
X023299Y007175D01*
X023520Y007266D01*
X023680Y007426D01*
X023840Y007266D01*
X024061Y007175D01*
X024299Y007175D01*
X024520Y007266D01*
X024680Y007426D01*
X024840Y007266D01*
X025061Y007175D01*
X025299Y007175D01*
X025520Y007266D01*
X025680Y007426D01*
X025840Y007266D01*
X026061Y007175D01*
X026299Y007175D01*
X026520Y007266D01*
X026680Y007426D01*
X026840Y007266D01*
X027061Y007175D01*
X027299Y007175D01*
X027520Y007266D01*
X027689Y007435D01*
X027780Y007656D01*
X027780Y008405D01*
X028764Y008405D01*
X030466Y006703D01*
X030578Y006591D01*
X030725Y006530D01*
X039292Y006530D01*
X039245Y006416D01*
X039245Y006194D01*
X039330Y005988D01*
X039488Y005830D01*
X039694Y005745D01*
X039916Y005745D01*
X040122Y005830D01*
X040197Y005905D01*
X044639Y005905D01*
X046695Y003850D01*
X046680Y003835D01*
X046445Y004070D01*
X045915Y004070D01*
X045680Y003835D01*
X045445Y004070D01*
X044915Y004070D01*
X044680Y003835D01*
X044445Y004070D01*
X043915Y004070D01*
X043680Y003835D01*
X043445Y004070D01*
X042915Y004070D01*
X042680Y003835D01*
X042445Y004070D01*
X041915Y004070D01*
X041680Y003835D01*
X041445Y004070D01*
X040915Y004070D01*
X040680Y003835D01*
X040445Y004070D01*
X039915Y004070D01*
X039680Y003835D01*
X039445Y004070D01*
X038915Y004070D01*
X038680Y003835D01*
X038445Y004070D01*
X037915Y004070D01*
X037680Y003835D01*
X037445Y004070D01*
X036915Y004070D01*
X036680Y003835D01*
X036445Y004070D01*
X035915Y004070D01*
X035680Y003835D01*
X035445Y004070D01*
X034915Y004070D01*
X034540Y003695D01*
X034540Y003165D01*
X034775Y002930D01*
X034540Y002695D01*
X034540Y002165D01*
X034750Y001955D01*
X033971Y001955D01*
X029769Y006157D01*
X029657Y006269D01*
X029510Y006330D01*
X021975Y006330D01*
X021828Y006269D01*
X021453Y005894D01*
X021437Y005878D01*
X021299Y005935D01*
X021061Y005935D01*
X020840Y005844D01*
X020671Y005675D01*
X020580Y005455D01*
X020627Y005569D02*
X020168Y005569D01*
X020054Y005455D02*
X020405Y005806D01*
X020405Y006055D01*
X020405Y006304D01*
X020054Y006655D01*
X019805Y006655D01*
X019805Y006055D01*
X019805Y006055D01*
X020405Y006055D01*
X019805Y006055D01*
X019805Y006055D01*
X019805Y006055D01*
X019205Y006055D01*
X019205Y006304D01*
X019556Y006655D01*
X019805Y006655D01*
X019805Y006055D01*
X019805Y005455D01*
X020054Y005455D01*
X019868Y005411D02*
X009726Y005411D01*
X009885Y005569D02*
X019442Y005569D01*
X019556Y005455D02*
X019205Y005806D01*
X019205Y006055D01*
X019805Y006055D01*
X019805Y006055D01*
X019805Y005455D01*
X019556Y005455D01*
X019686Y005252D02*
X009568Y005252D01*
X009409Y005094D02*
X019528Y005094D01*
X019369Y004935D02*
X009251Y004935D01*
X009092Y004777D02*
X019211Y004777D01*
X019052Y004618D02*
X009080Y004618D01*
X009080Y004460D02*
X018894Y004460D01*
X018797Y004301D02*
X009080Y004301D01*
X009080Y004143D02*
X018780Y004143D01*
X018780Y003984D02*
X018531Y003984D01*
X017829Y003984D02*
X017531Y003984D01*
X016829Y003984D02*
X016531Y003984D01*
X015829Y003984D02*
X015531Y003984D01*
X014829Y003984D02*
X014531Y003984D01*
X013829Y003984D02*
X013531Y003984D01*
X012829Y003984D02*
X012531Y003984D01*
X011829Y003984D02*
X011531Y003984D01*
X010829Y003984D02*
X010531Y003984D01*
X009829Y003984D02*
X009531Y003984D01*
X008680Y004930D02*
X012555Y008805D01*
X028930Y008805D01*
X028906Y008264D02*
X027780Y008264D01*
X027780Y008105D02*
X029064Y008105D01*
X029223Y007947D02*
X027780Y007947D01*
X027780Y007788D02*
X029381Y007788D01*
X029540Y007630D02*
X027769Y007630D01*
X027704Y007471D02*
X029698Y007471D01*
X029857Y007313D02*
X027566Y007313D01*
X026794Y007313D02*
X026566Y007313D01*
X025794Y007313D02*
X025566Y007313D01*
X024794Y007313D02*
X024566Y007313D01*
X023794Y007313D02*
X023566Y007313D01*
X022794Y007313D02*
X022566Y007313D01*
X021794Y007313D02*
X021566Y007313D01*
X020794Y007313D02*
X011628Y007313D01*
X011787Y007471D02*
X019540Y007471D01*
X019382Y007630D02*
X011945Y007630D01*
X012104Y007788D02*
X019223Y007788D01*
X019205Y007947D02*
X012262Y007947D01*
X012421Y008105D02*
X019205Y008105D01*
X019205Y008264D02*
X012579Y008264D01*
X011470Y007154D02*
X030015Y007154D01*
X030174Y006996D02*
X011311Y006996D01*
X011153Y006837D02*
X030332Y006837D01*
X030491Y006679D02*
X010994Y006679D01*
X010836Y006520D02*
X019421Y006520D01*
X019263Y006362D02*
X010677Y006362D01*
X010519Y006203D02*
X019205Y006203D01*
X019205Y006045D02*
X010360Y006045D01*
X010202Y005886D02*
X019205Y005886D01*
X019284Y005728D02*
X010043Y005728D01*
X008680Y004930D02*
X008680Y002930D01*
X008180Y002430D01*
X008579Y001924D02*
X008781Y001924D01*
X007781Y001924D02*
X007579Y001924D01*
X006781Y001924D02*
X005079Y001924D01*
X004945Y001790D02*
X005320Y002165D01*
X005320Y002410D01*
X004700Y002410D01*
X004700Y001790D01*
X004945Y001790D01*
X004700Y001924D02*
X004660Y001924D01*
X004660Y002082D02*
X004700Y002082D01*
X004700Y002241D02*
X004660Y002241D01*
X004660Y002399D02*
X004700Y002399D01*
X004700Y002558D02*
X004660Y002558D01*
X004660Y002716D02*
X004700Y002716D01*
X004700Y002875D02*
X004660Y002875D01*
X004660Y003033D02*
X004700Y003033D01*
X004700Y003192D02*
X004660Y003192D01*
X004660Y003350D02*
X004700Y003350D01*
X004700Y003509D02*
X004660Y003509D01*
X004660Y003667D02*
X004700Y003667D01*
X004700Y003826D02*
X004660Y003826D01*
X004660Y003984D02*
X004700Y003984D01*
X005031Y003984D02*
X006829Y003984D01*
X006670Y003826D02*
X005190Y003826D01*
X005320Y003667D02*
X006540Y003667D01*
X006540Y003509D02*
X005320Y003509D01*
X005320Y003350D02*
X006540Y003350D01*
X006540Y003192D02*
X005320Y003192D01*
X005188Y003033D02*
X006672Y003033D01*
X006719Y002875D02*
X005141Y002875D01*
X005299Y002716D02*
X006561Y002716D01*
X006540Y002558D02*
X005320Y002558D01*
X005320Y002399D02*
X006540Y002399D01*
X006540Y002241D02*
X005320Y002241D01*
X005237Y002082D02*
X006623Y002082D01*
X004281Y001924D02*
X004079Y001924D01*
X002205Y001765D02*
X033029Y001765D01*
X032871Y001924D02*
X030579Y001924D01*
X030737Y002082D02*
X032712Y002082D01*
X032554Y002241D02*
X030820Y002241D01*
X030820Y002399D02*
X032395Y002399D01*
X032237Y002558D02*
X030820Y002558D01*
X030799Y002716D02*
X032078Y002716D01*
X031920Y002875D02*
X030641Y002875D01*
X030688Y003033D02*
X031761Y003033D01*
X031603Y003192D02*
X030820Y003192D01*
X030820Y003350D02*
X031444Y003350D01*
X031286Y003509D02*
X030820Y003509D01*
X030820Y003667D02*
X031127Y003667D01*
X030969Y003826D02*
X030690Y003826D01*
X030810Y003984D02*
X030531Y003984D01*
X030652Y004143D02*
X025333Y004143D01*
X025531Y003984D02*
X025829Y003984D01*
X025805Y004301D02*
X025555Y004301D01*
X025180Y004555D02*
X025180Y005055D01*
X025180Y004555D02*
X024555Y003930D01*
X022680Y003930D01*
X022180Y003430D01*
X021781Y001924D02*
X021579Y001924D01*
X022579Y001924D02*
X022781Y001924D01*
X023579Y001924D02*
X023781Y001924D01*
X024579Y001924D02*
X024781Y001924D01*
X025579Y001924D02*
X025781Y001924D01*
X026579Y001924D02*
X026781Y001924D01*
X027579Y001924D02*
X027781Y001924D01*
X028579Y001924D02*
X028781Y001924D01*
X029579Y001924D02*
X029781Y001924D01*
X032417Y003509D02*
X034540Y003509D01*
X034540Y003667D02*
X032259Y003667D01*
X032100Y003826D02*
X034670Y003826D01*
X034829Y003984D02*
X031942Y003984D01*
X031783Y004143D02*
X046402Y004143D01*
X046531Y003984D02*
X046560Y003984D01*
X046243Y004301D02*
X031625Y004301D01*
X031466Y004460D02*
X046085Y004460D01*
X045926Y004618D02*
X031308Y004618D01*
X031149Y004777D02*
X045768Y004777D01*
X045609Y004935D02*
X030991Y004935D01*
X030832Y005094D02*
X045451Y005094D01*
X045292Y005252D02*
X030674Y005252D01*
X030515Y005411D02*
X045134Y005411D01*
X044975Y005569D02*
X030357Y005569D01*
X030198Y005728D02*
X044817Y005728D01*
X044658Y005886D02*
X040178Y005886D01*
X039805Y006305D02*
X044805Y006305D01*
X047180Y003930D01*
X047180Y003430D01*
X045829Y003984D02*
X045531Y003984D01*
X044829Y003984D02*
X044531Y003984D01*
X043829Y003984D02*
X043531Y003984D01*
X042829Y003984D02*
X042531Y003984D01*
X041829Y003984D02*
X041531Y003984D01*
X040829Y003984D02*
X040531Y003984D01*
X039829Y003984D02*
X039531Y003984D01*
X038829Y003984D02*
X038531Y003984D01*
X037829Y003984D02*
X037531Y003984D01*
X036829Y003984D02*
X036531Y003984D01*
X035829Y003984D02*
X035531Y003984D01*
X034540Y003350D02*
X032576Y003350D01*
X032734Y003192D02*
X034540Y003192D01*
X034672Y003033D02*
X032893Y003033D01*
X033051Y002875D02*
X034719Y002875D01*
X034561Y002716D02*
X033210Y002716D01*
X033368Y002558D02*
X034540Y002558D01*
X034540Y002399D02*
X033527Y002399D01*
X033685Y002241D02*
X034540Y002241D01*
X034623Y002082D02*
X033844Y002082D01*
X033188Y001607D02*
X001997Y001607D01*
X004031Y003984D02*
X004329Y003984D01*
X007531Y003984D02*
X007829Y003984D01*
X009579Y001924D02*
X009781Y001924D01*
X010579Y001924D02*
X010781Y001924D01*
X011579Y001924D02*
X011781Y001924D01*
X012579Y001924D02*
X012781Y001924D01*
X013579Y001924D02*
X013781Y001924D01*
X014579Y001924D02*
X014781Y001924D01*
X015579Y001924D02*
X015781Y001924D01*
X016579Y001924D02*
X016781Y001924D01*
X017579Y001924D02*
X017781Y001924D01*
X018579Y001924D02*
X018781Y001924D01*
X019579Y001924D02*
X019781Y001924D01*
X020579Y001924D02*
X020781Y001924D01*
X026531Y003984D02*
X026829Y003984D01*
X026812Y004301D02*
X026555Y004301D01*
X027180Y004301D02*
X027180Y004301D01*
X027180Y004175D02*
X027180Y005055D01*
X027780Y005055D01*
X027180Y005055D01*
X027180Y005055D01*
X027180Y004175D01*
X027180Y004460D02*
X027180Y004460D01*
X027180Y004618D02*
X027180Y004618D01*
X027180Y004777D02*
X027180Y004777D01*
X027180Y004935D02*
X027180Y004935D01*
X027180Y005055D02*
X027180Y005055D01*
X027780Y005094D02*
X029701Y005094D01*
X029542Y005252D02*
X027780Y005252D01*
X027776Y005411D02*
X029384Y005411D01*
X029859Y004935D02*
X027780Y004935D01*
X027780Y004777D02*
X030018Y004777D01*
X030176Y004618D02*
X027760Y004618D01*
X027692Y004460D02*
X030335Y004460D01*
X030493Y004301D02*
X027548Y004301D01*
X027531Y003984D02*
X027829Y003984D01*
X028531Y003984D02*
X028829Y003984D01*
X029531Y003984D02*
X029829Y003984D01*
X030040Y005886D02*
X039432Y005886D01*
X039307Y006045D02*
X029881Y006045D01*
X029723Y006203D02*
X039245Y006203D01*
X039245Y006362D02*
X020347Y006362D01*
X020405Y006203D02*
X021762Y006203D01*
X021604Y006045D02*
X020405Y006045D01*
X020405Y005886D02*
X020942Y005886D01*
X020724Y005728D02*
X020326Y005728D01*
X019805Y005728D02*
X019805Y005728D01*
X019805Y005886D02*
X019805Y005886D01*
X019805Y006045D02*
X019805Y006045D01*
X019805Y006203D02*
X019805Y006203D01*
X019805Y006362D02*
X019805Y006362D01*
X019805Y006520D02*
X019805Y006520D01*
X020189Y006520D02*
X039288Y006520D01*
X036180Y002430D02*
X036180Y002180D01*
X036430Y001930D01*
X052805Y001930D01*
X055680Y004805D01*
X057680Y004805D01*
X060305Y007430D01*
X060305Y017555D01*
X059592Y017140D02*
X058955Y017140D01*
X058955Y017139D02*
X059425Y017609D01*
X059425Y017436D01*
X059516Y017215D01*
X059685Y017046D01*
X059905Y016955D01*
X059905Y007596D01*
X058955Y006646D01*
X058955Y015681D01*
X059056Y015580D01*
X059305Y015580D01*
X059554Y015580D01*
X059905Y015931D01*
X059905Y016180D01*
X059905Y016429D01*
X059554Y016780D01*
X059305Y016780D01*
X059305Y016180D01*
X059905Y016180D01*
X059305Y016180D01*
X059305Y016180D01*
X059305Y016180D01*
X059305Y015580D01*
X059305Y016180D01*
X059305Y016180D01*
X059305Y016780D01*
X059056Y016780D01*
X058955Y016679D01*
X058955Y017139D01*
X058955Y016981D02*
X059843Y016981D01*
X059905Y016823D02*
X058955Y016823D01*
X059305Y016664D02*
X059305Y016664D01*
X059305Y016506D02*
X059305Y016506D01*
X059305Y016347D02*
X059305Y016347D01*
X059305Y016189D02*
X059305Y016189D01*
X059305Y016030D02*
X059305Y016030D01*
X059305Y015872D02*
X059305Y015872D01*
X059305Y015713D02*
X059305Y015713D01*
X059687Y015713D02*
X059905Y015713D01*
X059905Y015555D02*
X058955Y015555D01*
X058955Y015396D02*
X059905Y015396D01*
X059905Y015238D02*
X058955Y015238D01*
X058955Y015079D02*
X059905Y015079D01*
X059905Y014921D02*
X058955Y014921D01*
X058955Y014762D02*
X059905Y014762D01*
X059905Y014604D02*
X058955Y014604D01*
X058955Y014445D02*
X059905Y014445D01*
X059905Y014287D02*
X058955Y014287D01*
X058955Y014128D02*
X059905Y014128D01*
X059905Y013970D02*
X058955Y013970D01*
X058955Y013811D02*
X059905Y013811D01*
X059905Y013653D02*
X058955Y013653D01*
X058955Y013494D02*
X059905Y013494D01*
X059905Y013336D02*
X058955Y013336D01*
X058955Y013177D02*
X059905Y013177D01*
X059905Y013019D02*
X058955Y013019D01*
X058955Y012860D02*
X059905Y012860D01*
X059905Y012702D02*
X058955Y012702D01*
X058955Y012543D02*
X059905Y012543D01*
X059905Y012385D02*
X058955Y012385D01*
X058955Y012226D02*
X059905Y012226D01*
X059905Y012068D02*
X058955Y012068D01*
X058955Y011909D02*
X059905Y011909D01*
X059905Y011751D02*
X058955Y011751D01*
X058955Y011592D02*
X059905Y011592D01*
X059905Y011434D02*
X058955Y011434D01*
X058955Y011275D02*
X059905Y011275D01*
X059905Y011117D02*
X058955Y011117D01*
X058955Y010958D02*
X059905Y010958D01*
X059905Y010800D02*
X058955Y010800D01*
X058955Y010641D02*
X059905Y010641D01*
X059905Y010483D02*
X058955Y010483D01*
X058955Y010324D02*
X059905Y010324D01*
X059905Y010166D02*
X058955Y010166D01*
X058955Y010007D02*
X059905Y010007D01*
X059905Y009849D02*
X058955Y009849D01*
X058955Y009690D02*
X059905Y009690D01*
X059905Y009532D02*
X058955Y009532D01*
X058955Y009373D02*
X059905Y009373D01*
X059905Y009215D02*
X058955Y009215D01*
X058955Y009056D02*
X059905Y009056D01*
X059905Y008898D02*
X058955Y008898D01*
X058955Y008739D02*
X059905Y008739D01*
X059905Y008581D02*
X058955Y008581D01*
X058955Y008422D02*
X059905Y008422D01*
X059905Y008264D02*
X058955Y008264D01*
X058955Y008105D02*
X059905Y008105D01*
X059905Y007947D02*
X058955Y007947D01*
X058955Y007788D02*
X059905Y007788D01*
X059905Y007630D02*
X058955Y007630D01*
X058955Y007471D02*
X059780Y007471D01*
X059622Y007313D02*
X058955Y007313D01*
X058955Y007154D02*
X059463Y007154D01*
X059305Y006996D02*
X058955Y006996D01*
X058955Y006837D02*
X059146Y006837D01*
X058988Y006679D02*
X058955Y006679D01*
X058555Y006555D02*
X057180Y005180D01*
X050430Y005180D01*
X049180Y003930D01*
X049180Y003430D01*
X053230Y001290D02*
X062792Y001290D01*
X062792Y001448D02*
X053389Y001448D01*
X053547Y001607D02*
X061613Y001607D01*
X061405Y001765D02*
X053706Y001765D01*
X053864Y001924D02*
X055156Y001924D01*
X054998Y002082D02*
X054023Y002082D01*
X054181Y002241D02*
X054915Y002241D01*
X054915Y002399D02*
X054340Y002399D01*
X054498Y002558D02*
X054915Y002558D01*
X054936Y002716D02*
X054657Y002716D01*
X054815Y002875D02*
X055094Y002875D01*
X055047Y003033D02*
X054974Y003033D01*
X055954Y001924D02*
X056156Y001924D01*
X056954Y001924D02*
X061258Y001924D01*
X061193Y002082D02*
X057112Y002082D01*
X057195Y002241D02*
X061127Y002241D01*
X061125Y002399D02*
X057195Y002399D01*
X057195Y002558D02*
X061125Y002558D01*
X061167Y002716D02*
X057174Y002716D01*
X057016Y002875D02*
X058362Y002875D01*
X058179Y003033D02*
X057063Y003033D01*
X057195Y003192D02*
X058091Y003192D01*
X058045Y003350D02*
X057195Y003350D01*
X057195Y003509D02*
X058045Y003509D01*
X058091Y003667D02*
X057195Y003667D01*
X057065Y003826D02*
X058177Y003826D01*
X058228Y003984D02*
X056906Y003984D01*
X058680Y004430D02*
X058680Y004430D01*
X059315Y004430D01*
X058680Y004430D01*
X059132Y003984D02*
X062792Y003984D01*
X062792Y003826D02*
X059183Y003826D01*
X059269Y003667D02*
X062792Y003667D01*
X062792Y003509D02*
X059315Y003509D01*
X059315Y003350D02*
X061846Y003350D01*
X061501Y003192D02*
X059269Y003192D01*
X059181Y003033D02*
X061343Y003033D01*
X061232Y002875D02*
X058998Y002875D01*
X059291Y004143D02*
X062792Y004143D01*
X062792Y004301D02*
X059315Y004301D01*
X059315Y004460D02*
X062792Y004460D01*
X062792Y004618D02*
X059315Y004618D01*
X059232Y004777D02*
X062792Y004777D01*
X062792Y004935D02*
X059073Y004935D01*
X059034Y005094D02*
X062792Y005094D01*
X062792Y005252D02*
X059193Y005252D01*
X059351Y005411D02*
X062792Y005411D01*
X062792Y005569D02*
X059510Y005569D01*
X059668Y005728D02*
X062792Y005728D01*
X062792Y005886D02*
X059827Y005886D01*
X059985Y006045D02*
X062792Y006045D01*
X062792Y006203D02*
X060144Y006203D01*
X060302Y006362D02*
X062792Y006362D01*
X062792Y006520D02*
X060461Y006520D01*
X060619Y006679D02*
X062792Y006679D01*
X062792Y006837D02*
X060778Y006837D01*
X060936Y006996D02*
X062792Y006996D01*
X062792Y007154D02*
X061095Y007154D01*
X061253Y007313D02*
X062792Y007313D01*
X062792Y007471D02*
X061412Y007471D01*
X061540Y007630D02*
X062792Y007630D01*
X062792Y007788D02*
X061580Y007788D01*
X061580Y007947D02*
X062792Y007947D01*
X062792Y008105D02*
X061580Y008105D01*
X061580Y008264D02*
X062792Y008264D01*
X062792Y008422D02*
X061580Y008422D01*
X061580Y008581D02*
X062792Y008581D01*
X062792Y008739D02*
X061580Y008739D01*
X061580Y008898D02*
X062792Y008898D01*
X062792Y009056D02*
X061580Y009056D01*
X061580Y009215D02*
X062792Y009215D01*
X062792Y009373D02*
X061580Y009373D01*
X061580Y009532D02*
X062792Y009532D01*
X062792Y009690D02*
X061580Y009690D01*
X061580Y009849D02*
X062792Y009849D01*
X062792Y010007D02*
X061580Y010007D01*
X061580Y010166D02*
X062792Y010166D01*
X062792Y010324D02*
X061580Y010324D01*
X061580Y010483D02*
X062792Y010483D01*
X062792Y010641D02*
X061580Y010641D01*
X061580Y010800D02*
X062792Y010800D01*
X062792Y010958D02*
X061580Y010958D01*
X061580Y011117D02*
X062792Y011117D01*
X062792Y011275D02*
X061580Y011275D01*
X061580Y011434D02*
X062792Y011434D01*
X062792Y011592D02*
X061580Y011592D01*
X061580Y011751D02*
X062792Y011751D01*
X062792Y011909D02*
X061580Y011909D01*
X061580Y012068D02*
X062792Y012068D01*
X062792Y012226D02*
X061580Y012226D01*
X061580Y012385D02*
X062792Y012385D01*
X062792Y012543D02*
X061580Y012543D01*
X061580Y012702D02*
X062792Y012702D01*
X062792Y012860D02*
X061580Y012860D01*
X061580Y013019D02*
X062792Y013019D01*
X062792Y013177D02*
X061580Y013177D01*
X061580Y013336D02*
X062792Y013336D01*
X062792Y013494D02*
X061580Y013494D01*
X061580Y013653D02*
X062792Y013653D01*
X062792Y013811D02*
X061580Y013811D01*
X061580Y013970D02*
X062792Y013970D01*
X062792Y014128D02*
X061580Y014128D01*
X061580Y014287D02*
X062792Y014287D01*
X062792Y014445D02*
X061580Y014445D01*
X061580Y014604D02*
X062792Y014604D01*
X062792Y014762D02*
X061580Y014762D01*
X061580Y014921D02*
X062792Y014921D01*
X062792Y015079D02*
X061580Y015079D01*
X061580Y015238D02*
X062792Y015238D01*
X062792Y015396D02*
X061580Y015396D01*
X061580Y015555D02*
X062792Y015555D01*
X062792Y015713D02*
X061580Y015713D01*
X061580Y015872D02*
X062792Y015872D01*
X062792Y016030D02*
X061580Y016030D01*
X061580Y016189D02*
X062792Y016189D01*
X062792Y016347D02*
X061580Y016347D01*
X061580Y016506D02*
X062792Y016506D01*
X062792Y016664D02*
X061580Y016664D01*
X061580Y016823D02*
X062792Y016823D01*
X062792Y016981D02*
X061580Y016981D01*
X061580Y017140D02*
X062792Y017140D01*
X062792Y017298D02*
X061580Y017298D01*
X061580Y017457D02*
X062792Y017457D01*
X062792Y017615D02*
X061580Y017615D01*
X061580Y017774D02*
X062792Y017774D01*
X062792Y017932D02*
X061580Y017932D01*
X061580Y018091D02*
X062792Y018091D01*
X062792Y018249D02*
X061580Y018249D01*
X061580Y018408D02*
X062792Y018408D01*
X062792Y018566D02*
X061580Y018566D01*
X061580Y018725D02*
X062792Y018725D01*
X062792Y018883D02*
X061580Y018883D01*
X061580Y019042D02*
X062792Y019042D01*
X062792Y019200D02*
X061580Y019200D01*
X061580Y019359D02*
X062792Y019359D01*
X062792Y019517D02*
X061580Y019517D01*
X061580Y019676D02*
X062792Y019676D01*
X062792Y019834D02*
X061580Y019834D01*
X061580Y019993D02*
X062792Y019993D01*
X062792Y020151D02*
X061580Y020151D01*
X061580Y020310D02*
X062792Y020310D01*
X062792Y020468D02*
X061580Y020468D01*
X061580Y020627D02*
X062792Y020627D01*
X062792Y020785D02*
X061580Y020785D01*
X061580Y020944D02*
X062792Y020944D01*
X062792Y021102D02*
X061580Y021102D01*
X061580Y021261D02*
X062792Y021261D01*
X062792Y021419D02*
X061507Y021419D01*
X061348Y021578D02*
X062792Y021578D01*
X062792Y021736D02*
X061190Y021736D01*
X061094Y021895D02*
X062792Y021895D01*
X062792Y022053D02*
X060935Y022053D01*
X061090Y022212D02*
X062792Y022212D01*
X062792Y022370D02*
X061186Y022370D01*
X061344Y022529D02*
X062792Y022529D01*
X062792Y022687D02*
X061503Y022687D01*
X061578Y022846D02*
X062792Y022846D01*
X062792Y023004D02*
X061580Y023004D01*
X061580Y023163D02*
X062792Y023163D01*
X062792Y023321D02*
X061580Y023321D01*
X061580Y023480D02*
X062792Y023480D01*
X062792Y023638D02*
X061580Y023638D01*
X061565Y023797D02*
X062792Y023797D01*
X062792Y023955D02*
X061471Y023955D01*
X061312Y024114D02*
X062792Y024114D01*
X062792Y024272D02*
X061154Y024272D01*
X061144Y024282D02*
X061144Y024282D01*
X061173Y024431D02*
X062792Y024431D01*
X062792Y024589D02*
X061185Y024589D01*
X061185Y024555D02*
X060305Y024555D01*
X060305Y024555D01*
X061185Y024555D01*
X061153Y024748D02*
X062792Y024748D01*
X062792Y024906D02*
X062071Y024906D01*
X062214Y025065D02*
X062792Y025065D01*
X062792Y025223D02*
X062240Y025223D01*
X062240Y025382D02*
X062792Y025382D01*
X062792Y025540D02*
X062240Y025540D01*
X062240Y025699D02*
X062792Y025699D01*
X062792Y025857D02*
X062186Y025857D01*
X062792Y026016D02*
X059905Y026016D01*
X059905Y026174D02*
X062792Y026174D01*
X062792Y026333D02*
X059905Y026333D01*
X059842Y026491D02*
X062792Y026491D01*
X062792Y026650D02*
X059684Y026650D01*
X059878Y026967D02*
X057732Y026967D01*
X058004Y027125D02*
X059606Y027125D01*
X059488Y027284D02*
X058122Y027284D01*
X058185Y027442D02*
X059425Y027442D01*
X059425Y027601D02*
X058185Y027601D01*
X058150Y027759D02*
X059460Y027759D01*
X059539Y027918D02*
X058071Y027918D01*
X057947Y028076D02*
X059655Y028076D01*
X060305Y028555D02*
X058805Y028555D01*
X057805Y029555D01*
X057305Y029555D01*
X056680Y030055D02*
X058805Y030055D01*
X059305Y030555D01*
X060305Y030555D01*
X061015Y030137D02*
X062792Y030137D01*
X062792Y030295D02*
X061127Y030295D01*
X061185Y030454D02*
X062792Y030454D01*
X062792Y030612D02*
X061185Y030612D01*
X061145Y030771D02*
X062792Y030771D01*
X062792Y030929D02*
X061059Y030929D01*
X060966Y031088D02*
X062792Y031088D01*
X062792Y031246D02*
X061106Y031246D01*
X061172Y031405D02*
X062792Y031405D01*
X062792Y031563D02*
X061185Y031563D01*
X061165Y031722D02*
X062792Y031722D01*
X062792Y031880D02*
X061100Y031880D01*
X060950Y032039D02*
X062792Y032039D01*
X062792Y032197D02*
X061076Y032197D01*
X061152Y032356D02*
X062792Y032356D01*
X062792Y032514D02*
X061185Y032514D01*
X061185Y032673D02*
X062792Y032673D01*
X062792Y032831D02*
X061120Y032831D01*
X060999Y032990D02*
X062792Y032990D01*
X062792Y033148D02*
X061027Y033148D01*
X061132Y033307D02*
X062792Y033307D01*
X062792Y033465D02*
X061185Y033465D01*
X061185Y033624D02*
X062792Y033624D01*
X062792Y033782D02*
X061140Y033782D01*
X061048Y033941D02*
X062792Y033941D01*
X062792Y034099D02*
X060978Y034099D01*
X061107Y034258D02*
X062792Y034258D01*
X062792Y034416D02*
X061170Y034416D01*
X061185Y034575D02*
X062792Y034575D01*
X062792Y034733D02*
X061158Y034733D01*
X061082Y034892D02*
X062792Y034892D01*
X062792Y035050D02*
X060924Y035050D01*
X060305Y035050D02*
X060305Y035050D01*
X060305Y034892D02*
X060305Y034892D01*
X060305Y034733D02*
X060305Y034733D01*
X060305Y034575D02*
X060305Y034575D01*
X059686Y035050D02*
X057938Y035050D01*
X058095Y034892D02*
X059528Y034892D01*
X059452Y034733D02*
X058161Y034733D01*
X058185Y034575D02*
X059425Y034575D01*
X059440Y034416D02*
X058177Y034416D01*
X058111Y034258D02*
X059503Y034258D01*
X059632Y034099D02*
X057978Y034099D01*
X058048Y033941D02*
X059316Y033941D01*
X059091Y033782D02*
X058126Y032817D01*
X058094Y032895D01*
X057934Y033055D01*
X058094Y033215D01*
X058185Y033436D01*
X058185Y033674D01*
X058185Y033624D02*
X058933Y033624D01*
X058774Y033465D02*
X058185Y033465D01*
X058132Y033307D02*
X058616Y033307D01*
X058457Y033148D02*
X058027Y033148D01*
X057999Y032990D02*
X058299Y032990D01*
X058140Y032831D02*
X058120Y032831D01*
X057930Y032055D02*
X056430Y032055D01*
X055430Y031055D01*
X055430Y029930D01*
X054680Y029180D01*
X054680Y028680D01*
X054680Y029180D02*
X054305Y029555D01*
X042930Y029555D01*
X042555Y029180D01*
X042555Y028680D01*
X042555Y029180D02*
X042180Y029555D01*
X030805Y029555D01*
X030430Y029180D01*
X030180Y029430D01*
X018555Y029430D01*
X018305Y029180D01*
X018305Y028680D01*
X017305Y028680D02*
X017305Y028180D01*
X017680Y027805D01*
X022055Y027805D01*
X022430Y028180D01*
X022430Y028680D01*
X023680Y027430D02*
X024430Y028180D01*
X025180Y027430D01*
X035805Y027430D01*
X036555Y028180D01*
X037305Y027430D01*
X047930Y027430D01*
X048680Y028180D01*
X049430Y027430D01*
X054930Y027430D01*
X055805Y028305D01*
X055805Y030930D01*
X056430Y031555D01*
X057305Y031555D01*
X057930Y032055D02*
X059430Y033555D01*
X059680Y033555D01*
X059930Y033555D01*
X060305Y033555D01*
X062792Y035209D02*
X048717Y035209D01*
X048559Y035367D02*
X062792Y035367D01*
X062792Y035526D02*
X048400Y035526D01*
X048185Y035684D02*
X062792Y035684D01*
X062792Y035843D02*
X056873Y035843D01*
X056820Y035790D02*
X057195Y036165D01*
X057195Y036410D01*
X056575Y036410D01*
X056575Y036450D01*
X057195Y036450D01*
X057195Y036695D01*
X056960Y036930D01*
X057195Y037165D01*
X057195Y037410D01*
X056575Y037410D01*
X056575Y037450D01*
X057195Y037450D01*
X057195Y037695D01*
X056820Y038070D01*
X056575Y038070D01*
X056575Y037450D01*
X056535Y037450D01*
X056535Y038070D01*
X056290Y038070D01*
X056055Y037835D01*
X055820Y038070D01*
X055575Y038070D01*
X055575Y037450D01*
X055535Y037450D01*
X055535Y038070D01*
X055290Y038070D01*
X054915Y037695D01*
X054915Y037450D01*
X055535Y037450D01*
X055535Y037410D01*
X054915Y037410D01*
X054915Y037165D01*
X055150Y036930D01*
X054915Y036695D01*
X054915Y036450D01*
X055535Y036450D01*
X055535Y037410D01*
X055575Y037410D01*
X055575Y037450D01*
X056535Y037450D01*
X056535Y037410D01*
X056575Y037410D01*
X056575Y036790D01*
X056575Y036450D01*
X056535Y036450D01*
X056535Y037410D01*
X055915Y037410D01*
X055575Y037410D01*
X055575Y036790D01*
X055575Y036450D01*
X056535Y036450D01*
X056535Y036410D01*
X056575Y036410D01*
X056575Y035790D01*
X056820Y035790D01*
X056575Y035843D02*
X056535Y035843D01*
X056535Y035790D02*
X056535Y036410D01*
X055915Y036410D01*
X055575Y036410D01*
X055575Y036450D01*
X055535Y036450D01*
X055535Y036410D01*
X055575Y036410D01*
X055575Y035790D01*
X055820Y035790D01*
X056055Y036025D01*
X056290Y035790D01*
X056535Y035790D01*
X056535Y036001D02*
X056575Y036001D01*
X056575Y036160D02*
X056535Y036160D01*
X056535Y036318D02*
X056575Y036318D01*
X056575Y036477D02*
X056535Y036477D01*
X056535Y036635D02*
X056575Y036635D01*
X056575Y036794D02*
X056535Y036794D01*
X056535Y036952D02*
X056575Y036952D01*
X056575Y037111D02*
X056535Y037111D01*
X056535Y037269D02*
X056575Y037269D01*
X056575Y037428D02*
X061125Y037428D01*
X061125Y037586D02*
X057195Y037586D01*
X057146Y037745D02*
X061179Y037745D01*
X061244Y037903D02*
X056987Y037903D01*
X056829Y038062D02*
X061371Y038062D01*
X061532Y038220D02*
X049956Y038220D01*
X050114Y038062D02*
X055281Y038062D01*
X055123Y037903D02*
X050273Y037903D01*
X050431Y037745D02*
X054964Y037745D01*
X054915Y037586D02*
X050590Y037586D01*
X050748Y037428D02*
X055535Y037428D01*
X055575Y037428D02*
X056535Y037428D01*
X056535Y037586D02*
X056575Y037586D01*
X056575Y037745D02*
X056535Y037745D01*
X056535Y037903D02*
X056575Y037903D01*
X056575Y038062D02*
X056535Y038062D01*
X056281Y038062D02*
X055829Y038062D01*
X055987Y037903D02*
X056123Y037903D01*
X055575Y037903D02*
X055535Y037903D01*
X055535Y037745D02*
X055575Y037745D01*
X055575Y037586D02*
X055535Y037586D01*
X055535Y037269D02*
X055575Y037269D01*
X055575Y037111D02*
X055535Y037111D01*
X055535Y036952D02*
X055575Y036952D01*
X055575Y036794D02*
X055535Y036794D01*
X055535Y036635D02*
X055575Y036635D01*
X055575Y036477D02*
X055535Y036477D01*
X055535Y036410D02*
X054915Y036410D01*
X054915Y036165D01*
X055290Y035790D01*
X055535Y035790D01*
X055535Y036410D01*
X055535Y036318D02*
X055575Y036318D01*
X055575Y036160D02*
X055535Y036160D01*
X055535Y036001D02*
X055575Y036001D01*
X055575Y035843D02*
X055535Y035843D01*
X055237Y035843D02*
X036399Y035843D01*
X036546Y036001D02*
X037678Y036001D01*
X037550Y036160D02*
X036612Y036160D01*
X036625Y036318D02*
X037485Y036318D01*
X037443Y036477D02*
X036601Y036477D01*
X036055Y036305D02*
X009055Y036305D01*
X004180Y031430D01*
X003055Y031430D01*
X002555Y031930D02*
X001680Y031930D01*
X000805Y032805D01*
X000805Y034305D01*
X001555Y035055D01*
X004430Y035055D01*
X008180Y038805D01*
X048805Y038805D01*
X051180Y036430D01*
X051409Y036952D02*
X055128Y036952D01*
X055013Y036794D02*
X051623Y036794D01*
X051712Y036635D02*
X054915Y036635D01*
X054915Y036477D02*
X051750Y036477D01*
X051750Y036318D02*
X054915Y036318D01*
X054920Y036160D02*
X051685Y036160D01*
X051557Y036001D02*
X055079Y036001D01*
X055873Y035843D02*
X056237Y035843D01*
X056079Y036001D02*
X056031Y036001D01*
X057031Y036001D02*
X062792Y036001D01*
X062792Y036160D02*
X057190Y036160D01*
X057195Y036318D02*
X062792Y036318D01*
X062792Y036477D02*
X057195Y036477D01*
X057195Y036635D02*
X061544Y036635D01*
X061376Y036794D02*
X057097Y036794D01*
X056982Y036952D02*
X061246Y036952D01*
X061181Y037111D02*
X057141Y037111D01*
X057195Y037269D02*
X061125Y037269D01*
X062566Y036635D02*
X062792Y036635D01*
X062792Y036794D02*
X062734Y036794D01*
X062739Y038062D02*
X062792Y038062D01*
X062792Y038220D02*
X062578Y038220D01*
X062792Y038379D02*
X049797Y038379D01*
X049639Y038537D02*
X062792Y038537D01*
X062792Y038696D02*
X049480Y038696D01*
X049322Y038854D02*
X062792Y038854D01*
X062792Y039013D02*
X049163Y039013D01*
X049144Y039032D02*
X049144Y039032D01*
X048180Y038430D02*
X008305Y038430D01*
X004555Y034680D01*
X001680Y034680D01*
X001180Y034180D01*
X001180Y032930D01*
X001680Y032430D01*
X002055Y032430D01*
X001805Y032930D02*
X002555Y032930D01*
X003055Y033430D01*
X002555Y033930D02*
X004805Y033930D01*
X008555Y037680D01*
X045930Y037680D01*
X047180Y036430D01*
X047557Y036001D02*
X047803Y036001D01*
X048180Y036430D02*
X046555Y038055D01*
X008430Y038055D01*
X004680Y034305D01*
X001805Y034305D01*
X001555Y034055D01*
X001555Y033180D01*
X001805Y032930D01*
X002055Y033430D02*
X002555Y033930D01*
X003930Y033180D02*
X004930Y033180D01*
X009055Y037305D01*
X038180Y037305D01*
X039055Y036430D01*
X039284Y036952D02*
X046092Y036952D01*
X045934Y037111D02*
X038940Y037111D01*
X038782Y037269D02*
X045775Y037269D01*
X046251Y036794D02*
X039498Y036794D01*
X039587Y036635D02*
X046409Y036635D01*
X046568Y036477D02*
X039625Y036477D01*
X039625Y036318D02*
X046610Y036318D01*
X046675Y036160D02*
X039560Y036160D01*
X039432Y036001D02*
X046803Y036001D01*
X048055Y035305D02*
X048680Y034680D01*
X048680Y034180D01*
X049097Y034892D02*
X049263Y034892D01*
X049537Y035050D02*
X048876Y035050D01*
X049823Y035050D02*
X050537Y035050D01*
X050823Y035050D02*
X051537Y035050D01*
X051823Y035050D02*
X052537Y035050D01*
X052823Y035050D02*
X053570Y035050D01*
X053680Y035050D02*
X053680Y035050D01*
X053790Y035050D02*
X054537Y035050D01*
X054823Y035050D02*
X056672Y035050D01*
X056515Y034892D02*
X055097Y034892D01*
X055216Y034733D02*
X056449Y034733D01*
X056425Y034575D02*
X055280Y034575D01*
X055280Y034416D02*
X056433Y034416D01*
X056499Y034258D02*
X055280Y034258D01*
X055280Y034099D02*
X056632Y034099D01*
X056562Y033941D02*
X055280Y033941D01*
X055280Y033782D02*
X056470Y033782D01*
X056425Y033624D02*
X055215Y033624D01*
X055094Y033465D02*
X056425Y033465D01*
X056478Y033307D02*
X054872Y033307D01*
X054714Y033148D02*
X056583Y033148D01*
X056611Y032990D02*
X054555Y032990D01*
X054305Y033305D02*
X054680Y033680D01*
X054680Y034180D01*
X054263Y034892D02*
X054097Y034892D01*
X053680Y034892D02*
X053680Y034892D01*
X053680Y034733D02*
X053680Y034733D01*
X053680Y034575D02*
X053680Y034575D01*
X053680Y034416D02*
X053680Y034416D01*
X053680Y034258D02*
X053680Y034258D01*
X053263Y034892D02*
X053097Y034892D01*
X052263Y034892D02*
X052097Y034892D01*
X051263Y034892D02*
X051097Y034892D01*
X050263Y034892D02*
X050097Y034892D01*
X049803Y036001D02*
X048557Y036001D01*
X048685Y036160D02*
X049675Y036160D01*
X049610Y036318D02*
X048750Y036318D01*
X048750Y036477D02*
X049568Y036477D01*
X049409Y036635D02*
X048712Y036635D01*
X048623Y036794D02*
X049251Y036794D01*
X049092Y036952D02*
X048409Y036952D01*
X048065Y037111D02*
X048934Y037111D01*
X048775Y037269D02*
X047907Y037269D01*
X047748Y037428D02*
X048617Y037428D01*
X048458Y037586D02*
X047590Y037586D01*
X047431Y037745D02*
X048300Y037745D01*
X048141Y037903D02*
X047273Y037903D01*
X048180Y038430D02*
X050180Y036430D01*
X050557Y036001D02*
X050803Y036001D01*
X051065Y037111D02*
X054969Y037111D01*
X054915Y037269D02*
X050907Y037269D01*
X048055Y035305D02*
X037180Y035305D01*
X036555Y034680D01*
X036555Y034180D01*
X036555Y034680D02*
X035930Y035305D01*
X025055Y035305D01*
X024430Y034680D01*
X024430Y034180D01*
X024430Y034680D02*
X023805Y035305D01*
X012930Y035305D01*
X012305Y034680D01*
X012305Y034180D01*
X009055Y035805D02*
X004180Y030930D01*
X002555Y030930D01*
X002055Y031430D01*
X002555Y031930D02*
X003055Y032430D01*
X004430Y032555D02*
X004805Y032555D01*
X009180Y036930D01*
X037555Y036930D01*
X038055Y036430D01*
X038432Y036001D02*
X038678Y036001D01*
X037050Y035684D02*
X036060Y035684D01*
X036275Y035526D02*
X036835Y035526D01*
X036676Y035367D02*
X036434Y035367D01*
X035711Y035843D02*
X035625Y035843D01*
X035055Y035805D02*
X009055Y035805D01*
X007055Y033305D02*
X017430Y033305D01*
X017805Y032930D01*
X025180Y032930D01*
X026430Y031680D01*
X026430Y031180D01*
X026930Y030680D02*
X026930Y031680D01*
X027305Y032055D01*
X029055Y032055D01*
X029430Y031680D01*
X029430Y031180D01*
X029430Y031680D02*
X029805Y032055D01*
X031430Y032055D01*
X031930Y031555D01*
X032680Y031555D01*
X033180Y032055D01*
X041055Y032055D01*
X041555Y031555D01*
X041555Y031180D01*
X041555Y031555D02*
X042055Y032055D01*
X043555Y032055D01*
X044055Y031555D01*
X044805Y031555D01*
X045305Y032055D01*
X053305Y032055D01*
X053680Y031680D01*
X053680Y031180D01*
X054187Y030558D02*
X054222Y030509D01*
X054289Y030442D01*
X054366Y030387D01*
X054450Y030344D01*
X054539Y030315D01*
X054633Y030300D01*
X054680Y030300D01*
X054727Y030300D01*
X054820Y030315D01*
X054910Y030344D01*
X054994Y030387D01*
X055030Y030413D01*
X055030Y030096D01*
X054680Y029746D01*
X054532Y029894D01*
X054385Y029955D01*
X051505Y029955D01*
X051532Y029966D01*
X051907Y030341D01*
X051913Y030347D01*
X052020Y030391D01*
X052180Y030551D01*
X052340Y030391D01*
X052561Y030300D01*
X052799Y030300D01*
X053020Y030391D01*
X053180Y030551D01*
X053340Y030391D01*
X053561Y030300D01*
X053799Y030300D01*
X054020Y030391D01*
X054187Y030558D01*
X054278Y030454D02*
X054082Y030454D01*
X054680Y030454D02*
X054680Y030454D01*
X054680Y030300D02*
X054680Y031180D01*
X054680Y031180D01*
X054680Y030300D01*
X054680Y030612D02*
X054680Y030612D01*
X054680Y030771D02*
X054680Y030771D01*
X054680Y030929D02*
X054680Y030929D01*
X054680Y031088D02*
X054680Y031088D01*
X054680Y031246D02*
X054680Y031246D01*
X054680Y031405D02*
X054680Y031405D01*
X054680Y031563D02*
X054680Y031563D01*
X054680Y031722D02*
X054680Y031722D01*
X054680Y031880D02*
X054680Y031880D01*
X054680Y032039D02*
X054680Y032039D01*
X054841Y032039D02*
X055848Y032039D01*
X056006Y032197D02*
X053729Y032197D01*
X053887Y032039D02*
X054519Y032039D01*
X054252Y031880D02*
X054108Y031880D01*
X053570Y032356D02*
X056165Y032356D01*
X056425Y032514D02*
X044944Y032514D01*
X045030Y032356D02*
X045040Y032356D01*
X044786Y032673D02*
X056425Y032673D01*
X056490Y032831D02*
X025845Y032831D01*
X026003Y032673D02*
X031949Y032673D01*
X031791Y032514D02*
X026162Y032514D01*
X026320Y032356D02*
X027040Y032356D01*
X026881Y032197D02*
X026479Y032197D01*
X026637Y032039D02*
X026723Y032039D01*
X027430Y031180D02*
X027430Y030680D01*
X026555Y029805D01*
X016180Y029805D01*
X015305Y030680D01*
X015305Y031180D01*
X014805Y031809D02*
X014645Y031969D01*
X014424Y032060D01*
X014186Y032060D01*
X013965Y031969D01*
X013805Y031809D01*
X013645Y031969D01*
X013424Y032060D01*
X013186Y032060D01*
X012965Y031969D01*
X012805Y031809D01*
X012645Y031969D01*
X012424Y032060D01*
X012186Y032060D01*
X011965Y031969D01*
X011805Y031809D01*
X011645Y031969D01*
X011424Y032060D01*
X011186Y032060D01*
X010965Y031969D01*
X010805Y031809D01*
X010645Y031969D01*
X010424Y032060D01*
X010186Y032060D01*
X009965Y031969D01*
X009805Y031809D01*
X009645Y031969D01*
X009424Y032060D01*
X009186Y032060D01*
X008965Y031969D01*
X008796Y031800D01*
X008705Y031579D01*
X008705Y030781D01*
X008796Y030560D01*
X008965Y030391D01*
X009186Y030300D01*
X009424Y030300D01*
X009645Y030391D01*
X009805Y030551D01*
X009965Y030391D01*
X010186Y030300D01*
X010424Y030300D01*
X010645Y030391D01*
X010805Y030551D01*
X010965Y030391D01*
X011186Y030300D01*
X011424Y030300D01*
X011645Y030391D01*
X011805Y030551D01*
X011965Y030391D01*
X012186Y030300D01*
X012424Y030300D01*
X012645Y030391D01*
X012805Y030551D01*
X012965Y030391D01*
X013186Y030300D01*
X013424Y030300D01*
X013645Y030391D01*
X013805Y030551D01*
X013965Y030391D01*
X014186Y030300D01*
X014424Y030300D01*
X014645Y030391D01*
X014805Y030551D01*
X014965Y030391D01*
X015072Y030347D01*
X015841Y029578D01*
X015953Y029466D01*
X015960Y029463D01*
X015805Y029309D01*
X015645Y029469D01*
X015424Y029560D01*
X015186Y029560D01*
X014965Y029469D01*
X014805Y029309D01*
X014645Y029469D01*
X014424Y029560D01*
X014186Y029560D01*
X013965Y029469D01*
X013805Y029309D01*
X013645Y029469D01*
X013424Y029560D01*
X013186Y029560D01*
X012965Y029469D01*
X012805Y029309D01*
X012645Y029469D01*
X012424Y029560D01*
X012186Y029560D01*
X011965Y029469D01*
X011805Y029309D01*
X011645Y029469D01*
X011424Y029560D01*
X011186Y029560D01*
X010965Y029469D01*
X010805Y029309D01*
X010645Y029469D01*
X010424Y029560D01*
X010186Y029560D01*
X009965Y029469D01*
X009805Y029309D01*
X009645Y029469D01*
X009424Y029560D01*
X009186Y029560D01*
X008965Y029469D01*
X008796Y029300D01*
X008738Y029160D01*
X008424Y029160D01*
X008304Y029280D01*
X007806Y029280D01*
X007455Y028929D01*
X007455Y028431D01*
X007806Y028080D01*
X008304Y028080D01*
X008424Y028200D01*
X008738Y028200D01*
X008796Y028060D01*
X008965Y027891D01*
X009186Y027800D01*
X009424Y027800D01*
X009645Y027891D01*
X009805Y028051D01*
X009965Y027891D01*
X010186Y027800D01*
X010424Y027800D01*
X010645Y027891D01*
X010805Y028051D01*
X010965Y027891D01*
X011186Y027800D01*
X011424Y027800D01*
X011645Y027891D01*
X011805Y028051D01*
X011965Y027891D01*
X012072Y027847D01*
X012716Y027203D01*
X012828Y027091D01*
X012975Y027030D01*
X019681Y027030D01*
X019580Y026929D01*
X019580Y026680D01*
X020180Y026680D01*
X020780Y026680D01*
X020780Y026929D01*
X020679Y027030D01*
X023760Y027030D01*
X023907Y027091D01*
X024430Y027614D01*
X024841Y027203D01*
X024953Y027091D01*
X025100Y027030D01*
X031806Y027030D01*
X031705Y026929D01*
X031705Y026680D01*
X032305Y026680D01*
X032905Y026680D01*
X032905Y026929D01*
X032804Y027030D01*
X035885Y027030D01*
X036032Y027091D01*
X036555Y027614D01*
X036966Y027203D01*
X037078Y027091D01*
X037225Y027030D01*
X043931Y027030D01*
X043830Y026929D01*
X043830Y026846D01*
X043782Y026894D01*
X043635Y026955D01*
X033850Y026955D01*
X033703Y026894D01*
X033591Y026782D01*
X033322Y026513D01*
X033215Y026469D01*
X033046Y026300D01*
X032955Y026080D01*
X031971Y026080D01*
X031157Y026894D01*
X031010Y026955D01*
X021725Y026955D01*
X021578Y026894D01*
X021466Y026782D01*
X021197Y026513D01*
X021090Y026469D01*
X020921Y026300D01*
X020830Y026080D01*
X019721Y026080D01*
X018907Y026894D01*
X018760Y026955D01*
X009600Y026955D01*
X009453Y026894D01*
X009341Y026782D01*
X009072Y026513D01*
X008965Y026469D01*
X008796Y026300D01*
X008705Y026079D01*
X008705Y025281D01*
X008736Y025205D01*
X008471Y025205D01*
X005907Y027769D01*
X005760Y027830D01*
X003560Y027830D01*
X003460Y027930D01*
X003695Y028165D01*
X003695Y028530D01*
X004135Y028530D01*
X004282Y028591D01*
X007580Y031889D01*
X007580Y031806D01*
X007931Y031455D01*
X008180Y031455D01*
X008429Y031455D01*
X008780Y031806D01*
X008780Y032055D01*
X008780Y032155D01*
X017014Y032155D01*
X017132Y032038D01*
X016965Y031969D01*
X016805Y031809D01*
X016645Y031969D01*
X016424Y032060D01*
X016186Y032060D01*
X015965Y031969D01*
X015805Y031809D01*
X015645Y031969D01*
X015424Y032060D01*
X015186Y032060D01*
X014965Y031969D01*
X014805Y031809D01*
X014733Y031880D02*
X014877Y031880D01*
X015134Y032039D02*
X014476Y032039D01*
X014134Y032039D02*
X013476Y032039D01*
X013733Y031880D02*
X013877Y031880D01*
X013134Y032039D02*
X012476Y032039D01*
X012733Y031880D02*
X012877Y031880D01*
X012134Y032039D02*
X011476Y032039D01*
X011733Y031880D02*
X011877Y031880D01*
X011134Y032039D02*
X010476Y032039D01*
X010733Y031880D02*
X010877Y031880D01*
X010134Y032039D02*
X009476Y032039D01*
X009733Y031880D02*
X009877Y031880D01*
X009134Y032039D02*
X008780Y032039D01*
X008780Y032055D02*
X008180Y032055D01*
X008780Y032055D01*
X008780Y031880D02*
X008877Y031880D01*
X008764Y031722D02*
X008695Y031722D01*
X008705Y031563D02*
X008537Y031563D01*
X008705Y031405D02*
X007095Y031405D01*
X007254Y031563D02*
X007823Y031563D01*
X007665Y031722D02*
X007412Y031722D01*
X007571Y031880D02*
X007580Y031880D01*
X008180Y031880D02*
X008180Y031880D01*
X008180Y031722D02*
X008180Y031722D01*
X008180Y031563D02*
X008180Y031563D01*
X008180Y031455D02*
X008180Y032055D01*
X008180Y032055D01*
X008180Y032055D01*
X008180Y031455D01*
X008705Y031246D02*
X006937Y031246D01*
X006778Y031088D02*
X008705Y031088D01*
X008705Y030929D02*
X006620Y030929D01*
X006461Y030771D02*
X008709Y030771D01*
X008775Y030612D02*
X006303Y030612D01*
X006144Y030454D02*
X008903Y030454D01*
X009707Y030454D02*
X009903Y030454D01*
X010707Y030454D02*
X010903Y030454D01*
X011707Y030454D02*
X011903Y030454D01*
X012707Y030454D02*
X012903Y030454D01*
X013707Y030454D02*
X013903Y030454D01*
X014707Y030454D02*
X014903Y030454D01*
X015124Y030295D02*
X005986Y030295D01*
X005827Y030137D02*
X015283Y030137D01*
X015441Y029978D02*
X005669Y029978D01*
X005510Y029820D02*
X015600Y029820D01*
X015758Y029661D02*
X005352Y029661D01*
X005193Y029503D02*
X009047Y029503D01*
X008841Y029344D02*
X005035Y029344D01*
X004876Y029186D02*
X005712Y029186D01*
X005806Y029280D02*
X005455Y028929D01*
X005455Y028680D01*
X006055Y028680D01*
X006655Y028680D01*
X006655Y028929D01*
X006304Y029280D01*
X006055Y029280D01*
X006055Y028680D01*
X006055Y028680D01*
X006055Y028680D01*
X006655Y028680D01*
X006655Y028431D01*
X006304Y028080D01*
X006055Y028080D01*
X006055Y028680D01*
X006055Y028680D01*
X006055Y028680D01*
X006055Y029280D01*
X005806Y029280D01*
X006055Y029186D02*
X006055Y029186D01*
X006055Y029027D02*
X006055Y029027D01*
X006055Y028869D02*
X006055Y028869D01*
X006055Y028710D02*
X006055Y028710D01*
X006055Y028680D02*
X005455Y028680D01*
X005455Y028431D01*
X005806Y028080D01*
X006055Y028080D01*
X006055Y028680D01*
X006055Y028552D02*
X006055Y028552D01*
X006055Y028393D02*
X006055Y028393D01*
X006055Y028235D02*
X006055Y028235D01*
X006458Y028235D02*
X007652Y028235D01*
X007493Y028393D02*
X006617Y028393D01*
X006655Y028552D02*
X007455Y028552D01*
X007455Y028710D02*
X006655Y028710D01*
X006655Y028869D02*
X007455Y028869D01*
X007554Y029027D02*
X006556Y029027D01*
X006398Y029186D02*
X007712Y029186D01*
X008398Y029186D02*
X008749Y029186D01*
X009563Y029503D02*
X010047Y029503D01*
X009841Y029344D02*
X009769Y029344D01*
X010563Y029503D02*
X011047Y029503D01*
X010841Y029344D02*
X010769Y029344D01*
X011563Y029503D02*
X012047Y029503D01*
X011841Y029344D02*
X011769Y029344D01*
X012563Y029503D02*
X013047Y029503D01*
X012841Y029344D02*
X012769Y029344D01*
X013563Y029503D02*
X014047Y029503D01*
X013841Y029344D02*
X013769Y029344D01*
X014563Y029503D02*
X015047Y029503D01*
X014841Y029344D02*
X014769Y029344D01*
X015563Y029503D02*
X015917Y029503D01*
X015841Y029344D02*
X015769Y029344D01*
X017305Y030680D02*
X017805Y030180D01*
X026430Y030180D01*
X026930Y030680D01*
X027430Y030680D02*
X027805Y030305D01*
X039180Y030305D01*
X039555Y030680D01*
X039930Y030305D01*
X051305Y030305D01*
X051680Y030680D01*
X051680Y031180D01*
X052082Y030454D02*
X052278Y030454D01*
X051861Y030295D02*
X055030Y030295D01*
X055030Y030137D02*
X051702Y030137D01*
X051544Y029978D02*
X054912Y029978D01*
X054754Y029820D02*
X054606Y029820D01*
X053278Y030454D02*
X053082Y030454D01*
X055271Y031563D02*
X055372Y031563D01*
X055220Y031722D02*
X055531Y031722D01*
X055689Y031880D02*
X055108Y031880D01*
X054305Y033305D02*
X042930Y033305D01*
X042555Y033680D01*
X042555Y034180D01*
X042555Y033680D02*
X042180Y033305D01*
X030805Y033305D01*
X030430Y033680D01*
X030430Y034180D01*
X030430Y033680D02*
X030055Y033305D01*
X018680Y033305D01*
X018305Y033680D01*
X018305Y034180D01*
X017305Y034180D02*
X017305Y034680D01*
X017555Y034930D01*
X022180Y034930D01*
X022430Y034680D01*
X022430Y034180D01*
X023555Y032555D02*
X017680Y032555D01*
X017305Y032930D01*
X007430Y032930D01*
X003930Y029430D01*
X003055Y029430D01*
X002555Y028930D02*
X002055Y029430D01*
X002555Y028930D02*
X004055Y028930D01*
X007680Y032555D01*
X017180Y032555D01*
X017680Y032055D01*
X019180Y032055D01*
X019805Y031430D01*
X020555Y031430D01*
X021180Y032055D01*
X023055Y032055D01*
X023430Y031680D01*
X023430Y031180D01*
X024430Y031180D02*
X024430Y031680D01*
X023555Y032555D01*
X020830Y031139D02*
X020830Y030781D01*
X020913Y030580D01*
X018814Y030580D01*
X018818Y030586D01*
X018861Y030670D01*
X018890Y030759D01*
X018905Y030853D01*
X018905Y031180D01*
X018905Y031507D01*
X018890Y031600D01*
X018873Y031655D01*
X019014Y031655D01*
X019466Y031203D01*
X019578Y031091D01*
X019725Y031030D01*
X020635Y031030D01*
X020782Y031091D01*
X020830Y031139D01*
X020830Y031088D02*
X020773Y031088D01*
X020830Y030929D02*
X018905Y030929D01*
X018905Y031088D02*
X019586Y031088D01*
X019423Y031246D02*
X018905Y031246D01*
X018905Y031180D02*
X018305Y031180D01*
X018305Y031180D01*
X018905Y031180D01*
X018905Y031405D02*
X019265Y031405D01*
X019106Y031563D02*
X018896Y031563D01*
X018892Y030771D02*
X020834Y030771D01*
X020900Y030612D02*
X018832Y030612D01*
X017305Y030680D02*
X017305Y031180D01*
X016877Y031880D02*
X016733Y031880D01*
X016476Y032039D02*
X017131Y032039D01*
X016134Y032039D02*
X015476Y032039D01*
X015733Y031880D02*
X015877Y031880D01*
X012305Y028680D02*
X012305Y028180D01*
X013055Y027430D01*
X023680Y027430D01*
X023941Y027125D02*
X024919Y027125D01*
X024761Y027284D02*
X024099Y027284D01*
X024258Y027442D02*
X024602Y027442D01*
X024444Y027601D02*
X024416Y027601D01*
X024430Y028180D02*
X024430Y028680D01*
X021492Y026808D02*
X020780Y026808D01*
X020780Y026680D02*
X020180Y026680D01*
X020180Y026680D01*
X020180Y026080D01*
X020429Y026080D01*
X020780Y026431D01*
X020780Y026680D01*
X020780Y026650D02*
X021334Y026650D01*
X021144Y026491D02*
X020780Y026491D01*
X020681Y026333D02*
X020954Y026333D01*
X020869Y026174D02*
X020523Y026174D01*
X020180Y026174D02*
X020180Y026174D01*
X020180Y026080D02*
X020180Y026680D01*
X020180Y026680D01*
X020180Y026680D01*
X019580Y026680D01*
X019580Y026431D01*
X019931Y026080D01*
X020180Y026080D01*
X020180Y026333D02*
X020180Y026333D01*
X020180Y026491D02*
X020180Y026491D01*
X020180Y026650D02*
X020180Y026650D01*
X019679Y026333D02*
X019468Y026333D01*
X019580Y026491D02*
X019310Y026491D01*
X019151Y026650D02*
X019580Y026650D01*
X019580Y026808D02*
X018993Y026808D01*
X018680Y026555D02*
X019555Y025680D01*
X021430Y025680D01*
X021430Y026180D01*
X021805Y026555D01*
X030930Y026555D01*
X031805Y025680D01*
X033555Y025680D01*
X033555Y026180D01*
X033930Y026555D01*
X043555Y026555D01*
X044430Y025680D01*
X045680Y025680D01*
X045680Y026180D01*
X046555Y027055D01*
X055555Y027055D01*
X055930Y026555D02*
X056305Y026930D01*
X056305Y029680D01*
X056680Y030055D01*
X057305Y028555D02*
X058185Y028555D01*
X057305Y028555D01*
X057305Y028555D01*
X058094Y028235D02*
X058560Y028235D01*
X058401Y028393D02*
X058163Y028393D01*
X058185Y028552D02*
X058243Y028552D01*
X058176Y026650D02*
X058926Y026650D01*
X058768Y026491D02*
X058423Y026491D01*
X058581Y026333D02*
X058705Y026333D01*
X059305Y026333D02*
X059305Y026333D01*
X059305Y026491D02*
X059305Y026491D01*
X059305Y026650D02*
X059305Y026650D01*
X060732Y026967D02*
X062792Y026967D01*
X062792Y027125D02*
X061004Y027125D01*
X061122Y027284D02*
X062792Y027284D01*
X062792Y027442D02*
X061185Y027442D01*
X061185Y027601D02*
X062792Y027601D01*
X062792Y027759D02*
X061150Y027759D01*
X061071Y027918D02*
X062792Y027918D01*
X062792Y028076D02*
X060955Y028076D01*
X061102Y028235D02*
X062792Y028235D01*
X062792Y028393D02*
X061167Y028393D01*
X061185Y028552D02*
X062792Y028552D01*
X062792Y028710D02*
X061170Y028710D01*
X061105Y028869D02*
X062792Y028869D01*
X062792Y029027D02*
X060961Y029027D01*
X061064Y029186D02*
X062792Y029186D01*
X062792Y029344D02*
X061147Y029344D01*
X061185Y029503D02*
X062792Y029503D01*
X062792Y029661D02*
X061185Y029661D01*
X061125Y029820D02*
X062792Y029820D01*
X062792Y029978D02*
X061010Y029978D01*
X062792Y026808D02*
X056687Y026808D01*
X056705Y026967D02*
X056878Y026967D01*
X056926Y026650D02*
X056590Y026650D01*
X056432Y026491D02*
X056768Y026491D01*
X056705Y026333D02*
X056273Y026333D01*
X056056Y026174D02*
X056705Y026174D01*
X056705Y026016D02*
X055886Y026016D01*
X055930Y026555D02*
X052055Y026555D01*
X051680Y026180D01*
X051680Y025680D01*
X051680Y025180D01*
X051305Y024805D01*
X039930Y024805D01*
X039555Y025180D01*
X039555Y025680D01*
X039555Y025180D02*
X039180Y024805D01*
X027805Y024805D01*
X027430Y025180D01*
X027430Y025680D01*
X027430Y025180D02*
X027055Y024805D01*
X015680Y024805D01*
X015305Y025180D01*
X015305Y025680D01*
X014305Y025680D02*
X014305Y025055D01*
X014055Y024805D01*
X013430Y024805D01*
X012680Y024055D01*
X008055Y024055D01*
X005680Y026430D01*
X003055Y026430D01*
X003546Y026016D02*
X005529Y026016D01*
X005514Y026030D02*
X007716Y023828D01*
X007785Y023759D01*
X007455Y023429D01*
X007455Y022931D01*
X007806Y022580D01*
X008304Y022580D01*
X008424Y022700D01*
X008738Y022700D01*
X008796Y022560D01*
X008965Y022391D01*
X009186Y022300D01*
X009424Y022300D01*
X009645Y022391D01*
X009805Y022551D01*
X009965Y022391D01*
X010186Y022300D01*
X010424Y022300D01*
X010645Y022391D01*
X010805Y022551D01*
X010965Y022391D01*
X011186Y022300D01*
X011424Y022300D01*
X011645Y022391D01*
X011805Y022551D01*
X011965Y022391D01*
X012186Y022300D01*
X012424Y022300D01*
X012645Y022391D01*
X012805Y022551D01*
X012965Y022391D01*
X013186Y022300D01*
X013424Y022300D01*
X013645Y022391D01*
X013805Y022551D01*
X013965Y022391D01*
X014186Y022300D01*
X014424Y022300D01*
X014645Y022391D01*
X014805Y022551D01*
X014965Y022391D01*
X015186Y022300D01*
X015424Y022300D01*
X015645Y022391D01*
X015805Y022551D01*
X015965Y022391D01*
X016186Y022300D01*
X016424Y022300D01*
X016645Y022391D01*
X016805Y022551D01*
X016965Y022391D01*
X017186Y022300D01*
X017424Y022300D01*
X017645Y022391D01*
X017805Y022551D01*
X017965Y022391D01*
X018072Y022347D01*
X018341Y022078D01*
X018453Y021966D01*
X018600Y021905D01*
X030135Y021905D01*
X030282Y021966D01*
X030430Y022114D01*
X030466Y022078D01*
X030578Y021966D01*
X030725Y021905D01*
X042260Y021905D01*
X042407Y021966D01*
X042555Y022114D01*
X042591Y022078D01*
X042703Y021966D01*
X042850Y021905D01*
X054385Y021905D01*
X054532Y021966D01*
X054907Y022341D01*
X054913Y022347D01*
X055020Y022391D01*
X055189Y022560D01*
X055280Y022781D01*
X055280Y023579D01*
X055189Y023800D01*
X055020Y023969D01*
X054872Y024030D01*
X055655Y024030D01*
X055655Y022846D01*
X054639Y021830D01*
X046350Y021830D01*
X046203Y021769D01*
X046091Y021657D01*
X045447Y021013D01*
X045340Y020969D01*
X045171Y020800D01*
X045080Y020580D01*
X044471Y020580D01*
X044471Y020580D01*
X044679Y020580D01*
X045030Y020931D01*
X045030Y021180D01*
X045030Y021429D01*
X044679Y021780D01*
X044430Y021780D01*
X044430Y021180D01*
X044430Y021180D01*
X045030Y021180D01*
X044430Y021180D01*
X044430Y021180D01*
X044430Y021780D01*
X044181Y021780D01*
X043830Y021429D01*
X043830Y021221D01*
X043282Y021769D01*
X043135Y021830D01*
X034225Y021830D01*
X034078Y021769D01*
X033966Y021657D01*
X033322Y021013D01*
X033215Y020969D01*
X033046Y020800D01*
X032955Y020580D01*
X032346Y020580D01*
X032346Y020580D01*
X032554Y020580D01*
X032905Y020931D01*
X032905Y021180D01*
X032905Y021429D01*
X032554Y021780D01*
X032305Y021780D01*
X032305Y021180D01*
X032305Y021180D01*
X032905Y021180D01*
X032305Y021180D01*
X032305Y021180D01*
X032305Y021780D01*
X032056Y021780D01*
X031705Y021429D01*
X031705Y021221D01*
X031157Y021769D01*
X031010Y021830D01*
X022100Y021830D01*
X021953Y021769D01*
X021841Y021657D01*
X021197Y021013D01*
X021090Y020969D01*
X020921Y020800D01*
X020830Y020580D01*
X020221Y020580D01*
X020221Y020580D01*
X020429Y020580D01*
X020780Y020931D01*
X020780Y021180D01*
X020780Y021429D01*
X020429Y021780D01*
X020180Y021780D01*
X020180Y021180D01*
X020180Y021180D01*
X020780Y021180D01*
X020180Y021180D01*
X020180Y021180D01*
X020180Y021780D01*
X019931Y021780D01*
X019580Y021429D01*
X019580Y021221D01*
X019032Y021769D01*
X018885Y021830D01*
X009975Y021830D01*
X009828Y021769D01*
X009716Y021657D01*
X009072Y021013D01*
X008965Y020969D01*
X008796Y020800D01*
X008705Y020579D01*
X008705Y019781D01*
X008788Y019580D01*
X007096Y019580D01*
X001705Y024971D01*
X001705Y025875D01*
X001790Y025790D01*
X002320Y025790D01*
X002555Y026025D01*
X002790Y025790D01*
X003320Y025790D01*
X003560Y026030D01*
X005514Y026030D01*
X005687Y025857D02*
X003387Y025857D01*
X002723Y025857D02*
X002387Y025857D01*
X002546Y026016D02*
X002564Y026016D01*
X002055Y026430D02*
X002555Y026930D01*
X005680Y026930D01*
X008180Y024430D01*
X012555Y024430D01*
X013305Y025180D01*
X013305Y025680D01*
X012305Y025680D02*
X012305Y025180D01*
X011930Y024805D01*
X008305Y024805D01*
X005680Y027430D01*
X003055Y027430D01*
X003473Y027918D02*
X008939Y027918D01*
X008790Y028076D02*
X003606Y028076D01*
X003695Y028235D02*
X005652Y028235D01*
X005493Y028393D02*
X003695Y028393D01*
X004187Y028552D02*
X005455Y028552D01*
X005455Y028710D02*
X004401Y028710D01*
X004559Y028869D02*
X005455Y028869D01*
X005554Y029027D02*
X004718Y029027D01*
X004180Y030430D02*
X007055Y033305D01*
X008180Y032039D02*
X008180Y032039D01*
X002055Y028430D02*
X001555Y028430D01*
X000930Y027805D01*
X000930Y023430D01*
X008180Y016180D01*
X011930Y016180D01*
X012805Y015305D01*
X012805Y014180D01*
X013180Y013805D01*
X019430Y013805D01*
X021430Y015805D01*
X024805Y015805D01*
X025430Y015180D01*
X025430Y014680D01*
X026430Y016180D02*
X027430Y015180D01*
X028430Y016180D01*
X038555Y016180D01*
X039555Y015180D01*
X040555Y016180D01*
X050055Y016180D01*
X050805Y015430D01*
X051430Y015430D01*
X051680Y015180D01*
X051680Y014680D01*
X051180Y014051D02*
X051340Y013891D01*
X051561Y013800D01*
X051799Y013800D01*
X052020Y013891D01*
X052180Y014051D01*
X052340Y013891D01*
X052561Y013800D01*
X052799Y013800D01*
X053020Y013891D01*
X053180Y014051D01*
X053340Y013891D01*
X053561Y013800D01*
X053799Y013800D01*
X054020Y013891D01*
X054187Y014058D01*
X054222Y014009D01*
X054289Y013942D01*
X054366Y013887D01*
X054450Y013844D01*
X054539Y013815D01*
X054633Y013800D01*
X054680Y013800D01*
X054727Y013800D01*
X054820Y013815D01*
X054910Y013844D01*
X054994Y013887D01*
X055071Y013942D01*
X055138Y014009D01*
X055155Y014033D01*
X055155Y013935D01*
X054915Y013695D01*
X054915Y013165D01*
X055150Y012930D01*
X054915Y012695D01*
X054915Y012330D01*
X053365Y012330D01*
X053365Y012370D01*
X053541Y012370D01*
X053747Y012455D01*
X053905Y012613D01*
X053990Y012819D01*
X053990Y013041D01*
X053905Y013247D01*
X053747Y013405D01*
X053541Y013490D01*
X053319Y013490D01*
X053113Y013405D01*
X053038Y013330D01*
X046396Y013330D01*
X046907Y013841D01*
X046913Y013847D01*
X047020Y013891D01*
X047180Y014051D01*
X047340Y013891D01*
X047561Y013800D01*
X047799Y013800D01*
X048020Y013891D01*
X048180Y014051D01*
X048340Y013891D01*
X048561Y013800D01*
X048799Y013800D01*
X049020Y013891D01*
X049180Y014051D01*
X049340Y013891D01*
X049561Y013800D01*
X049799Y013800D01*
X050020Y013891D01*
X050180Y014051D01*
X050340Y013891D01*
X050561Y013800D01*
X050799Y013800D01*
X051020Y013891D01*
X051180Y014051D01*
X051098Y013970D02*
X051262Y013970D01*
X051534Y013811D02*
X050826Y013811D01*
X050534Y013811D02*
X049826Y013811D01*
X049534Y013811D02*
X048826Y013811D01*
X048534Y013811D02*
X047826Y013811D01*
X047534Y013811D02*
X046877Y013811D01*
X046718Y013653D02*
X054915Y013653D01*
X054915Y013494D02*
X046560Y013494D01*
X046401Y013336D02*
X053044Y013336D01*
X052826Y013811D02*
X053534Y013811D01*
X053826Y013811D02*
X054563Y013811D01*
X054680Y013811D02*
X054680Y013811D01*
X054680Y013800D02*
X054680Y014680D01*
X054680Y013800D01*
X054797Y013811D02*
X055031Y013811D01*
X055098Y013970D02*
X055155Y013970D01*
X054680Y013970D02*
X054680Y013970D01*
X054680Y014128D02*
X054680Y014128D01*
X054680Y014287D02*
X054680Y014287D01*
X054680Y014445D02*
X054680Y014445D01*
X054680Y014604D02*
X054680Y014604D01*
X054680Y014680D02*
X054680Y014680D01*
X054262Y013970D02*
X054098Y013970D01*
X053262Y013970D02*
X053098Y013970D01*
X052534Y013811D02*
X051826Y013811D01*
X052098Y013970D02*
X052262Y013970D01*
X053816Y013336D02*
X054915Y013336D01*
X054915Y013177D02*
X053934Y013177D01*
X053990Y013019D02*
X055061Y013019D01*
X055080Y012860D02*
X053990Y012860D01*
X053941Y012702D02*
X054921Y012702D01*
X054915Y012543D02*
X053835Y012543D01*
X053576Y012385D02*
X054915Y012385D01*
X055555Y012430D02*
X056055Y012930D01*
X056055Y015055D01*
X054930Y016180D01*
X052555Y016180D01*
X051680Y017055D01*
X051680Y017680D01*
X052180Y017180D02*
X052180Y018180D01*
X051805Y018555D01*
X051055Y018555D01*
X050680Y018180D01*
X050680Y017680D01*
X049680Y017680D02*
X049680Y017055D01*
X050930Y015805D01*
X054805Y015805D01*
X055555Y015055D01*
X055555Y013430D01*
X056555Y013430D02*
X056555Y015055D01*
X055055Y016555D01*
X052805Y016555D01*
X052180Y017180D01*
X052680Y017180D02*
X052930Y016930D01*
X055180Y016930D01*
X057055Y015055D01*
X057055Y012930D01*
X056555Y012430D01*
X056055Y011930D02*
X056555Y011430D01*
X056055Y011930D02*
X039430Y011930D01*
X038055Y013305D01*
X039055Y013305D02*
X039930Y012430D01*
X052805Y012430D01*
X053430Y012930D02*
X040430Y012930D01*
X040055Y013305D01*
X040555Y013805D02*
X040930Y013430D01*
X043680Y013430D01*
X045930Y013430D01*
X046680Y014180D01*
X046680Y014680D01*
X047098Y013970D02*
X047262Y013970D01*
X048098Y013970D02*
X048262Y013970D01*
X049098Y013970D02*
X049262Y013970D01*
X050098Y013970D02*
X050262Y013970D01*
X050180Y015309D02*
X050020Y015469D01*
X049799Y015560D01*
X049561Y015560D01*
X049340Y015469D01*
X049180Y015309D01*
X049020Y015469D01*
X048799Y015560D01*
X048561Y015560D01*
X048340Y015469D01*
X048180Y015309D01*
X048020Y015469D01*
X047799Y015560D01*
X047561Y015560D01*
X047340Y015469D01*
X047180Y015309D01*
X047020Y015469D01*
X046799Y015560D01*
X046561Y015560D01*
X046340Y015469D01*
X046180Y015309D01*
X046020Y015469D01*
X045799Y015560D01*
X045561Y015560D01*
X045340Y015469D01*
X045171Y015300D01*
X045080Y015079D01*
X043144Y015079D01*
X043140Y015100D02*
X043155Y015007D01*
X043155Y014680D01*
X042555Y014680D01*
X042555Y014680D01*
X042555Y015560D01*
X042602Y015560D01*
X042695Y015545D01*
X042785Y015516D01*
X042869Y015473D01*
X042946Y015418D01*
X043013Y015351D01*
X043068Y015274D01*
X043111Y015190D01*
X043140Y015100D01*
X043087Y015238D02*
X044024Y015238D01*
X044181Y015080D02*
X043830Y015431D01*
X043830Y015680D01*
X044430Y015680D01*
X045030Y015680D01*
X045030Y015780D01*
X049889Y015780D01*
X050270Y015399D01*
X050180Y015309D01*
X050093Y015396D02*
X050267Y015396D01*
X050115Y015555D02*
X049813Y015555D01*
X049956Y015713D02*
X045030Y015713D01*
X045030Y015680D02*
X044430Y015680D01*
X044430Y015680D01*
X044430Y015080D01*
X044679Y015080D01*
X045030Y015431D01*
X045030Y015680D01*
X045030Y015555D02*
X045547Y015555D01*
X045813Y015555D02*
X046547Y015555D01*
X046813Y015555D02*
X047547Y015555D01*
X047813Y015555D02*
X048547Y015555D01*
X048813Y015555D02*
X049547Y015555D01*
X049267Y015396D02*
X049093Y015396D01*
X048267Y015396D02*
X048093Y015396D01*
X047267Y015396D02*
X047093Y015396D01*
X046267Y015396D02*
X046093Y015396D01*
X045267Y015396D02*
X044995Y015396D01*
X045146Y015238D02*
X044836Y015238D01*
X045080Y015079D02*
X045080Y014281D01*
X045171Y014060D01*
X045340Y013891D01*
X045488Y013830D01*
X044072Y013830D01*
X043997Y013905D01*
X043791Y013990D01*
X043569Y013990D01*
X043363Y013905D01*
X043288Y013830D01*
X042742Y013830D01*
X042785Y013844D01*
X042869Y013887D01*
X042946Y013942D01*
X043013Y014009D01*
X043068Y014086D01*
X043111Y014170D01*
X043140Y014259D01*
X043155Y014353D01*
X043155Y014680D01*
X042555Y014680D01*
X042555Y014680D01*
X042555Y015560D01*
X042508Y015560D01*
X042414Y015545D01*
X042325Y015516D01*
X042241Y015473D01*
X042164Y015418D01*
X042097Y015351D01*
X042062Y015302D01*
X041895Y015469D01*
X041674Y015560D01*
X041436Y015560D01*
X041215Y015469D01*
X041055Y015309D01*
X040895Y015469D01*
X040674Y015560D01*
X040501Y015560D01*
X040721Y015780D01*
X043830Y015780D01*
X043830Y015680D01*
X044430Y015680D01*
X044430Y015680D01*
X044430Y015680D01*
X044430Y015080D01*
X044181Y015080D01*
X044430Y015238D02*
X044430Y015238D01*
X044430Y015396D02*
X044430Y015396D01*
X044430Y015555D02*
X044430Y015555D01*
X043865Y015396D02*
X042968Y015396D01*
X042637Y015555D02*
X043830Y015555D01*
X043830Y015713D02*
X040654Y015713D01*
X040688Y015555D02*
X041422Y015555D01*
X041688Y015555D02*
X042473Y015555D01*
X042555Y015555D02*
X042555Y015555D01*
X042555Y015396D02*
X042555Y015396D01*
X042555Y015238D02*
X042555Y015238D01*
X042555Y015079D02*
X042555Y015079D01*
X042555Y014921D02*
X042555Y014921D01*
X042555Y014762D02*
X042555Y014762D01*
X043155Y014762D02*
X045080Y014762D01*
X045080Y014604D02*
X043155Y014604D01*
X043155Y014445D02*
X045080Y014445D01*
X045080Y014287D02*
X043145Y014287D01*
X043090Y014128D02*
X045143Y014128D01*
X045262Y013970D02*
X043841Y013970D01*
X043519Y013970D02*
X042973Y013970D01*
X043155Y014921D02*
X045080Y014921D01*
X048055Y016555D02*
X048680Y017180D01*
X048680Y017680D01*
X048055Y016555D02*
X037180Y016555D01*
X036555Y017180D01*
X036555Y017680D01*
X036555Y017180D02*
X035930Y016555D01*
X025055Y016555D01*
X024430Y017180D01*
X024430Y017680D01*
X024430Y017180D02*
X023805Y016555D01*
X012930Y016555D01*
X012305Y017180D01*
X012305Y017680D01*
X010930Y018930D02*
X021680Y018930D01*
X022430Y019680D01*
X023180Y018930D01*
X033805Y018930D01*
X034555Y019680D01*
X035305Y018930D01*
X046055Y018930D01*
X046680Y019555D01*
X046680Y020180D01*
X046180Y019680D02*
X046180Y020680D01*
X046555Y021055D01*
X051305Y021055D01*
X051680Y020680D01*
X054305Y022305D02*
X054680Y022680D01*
X054680Y023180D01*
X055280Y023163D02*
X055655Y023163D01*
X055655Y023321D02*
X055280Y023321D01*
X055280Y023480D02*
X055655Y023480D01*
X055655Y023638D02*
X055256Y023638D01*
X055190Y023797D02*
X055655Y023797D01*
X055655Y023955D02*
X055033Y023955D01*
X055930Y024430D02*
X056680Y025180D01*
X057680Y025180D01*
X058180Y024680D01*
X058180Y021930D01*
X057805Y021555D01*
X057305Y021555D01*
X056055Y022680D02*
X056055Y024055D01*
X056555Y024555D01*
X057305Y024555D01*
X055930Y024430D02*
X049430Y024430D01*
X048680Y023680D01*
X048680Y023180D01*
X048680Y023680D02*
X047930Y024430D01*
X037180Y024430D01*
X036555Y023805D01*
X036555Y023180D01*
X036555Y023805D02*
X035930Y024430D01*
X025180Y024430D01*
X024430Y023680D01*
X024430Y023180D01*
X024430Y023680D02*
X023680Y024430D01*
X013555Y024430D01*
X012305Y023180D01*
X011828Y022529D02*
X011782Y022529D01*
X011593Y022370D02*
X012017Y022370D01*
X012593Y022370D02*
X013017Y022370D01*
X012828Y022529D02*
X012782Y022529D01*
X013593Y022370D02*
X014017Y022370D01*
X013828Y022529D02*
X013782Y022529D01*
X014593Y022370D02*
X015017Y022370D01*
X014828Y022529D02*
X014782Y022529D01*
X015593Y022370D02*
X016017Y022370D01*
X015828Y022529D02*
X015782Y022529D01*
X016593Y022370D02*
X017017Y022370D01*
X016828Y022529D02*
X016782Y022529D01*
X017593Y022370D02*
X018017Y022370D01*
X017828Y022529D02*
X017782Y022529D01*
X018208Y022212D02*
X004464Y022212D01*
X004306Y022370D02*
X009017Y022370D01*
X008828Y022529D02*
X004147Y022529D01*
X003989Y022687D02*
X007699Y022687D01*
X007541Y022846D02*
X003830Y022846D01*
X003672Y023004D02*
X007455Y023004D01*
X007455Y023163D02*
X003513Y023163D01*
X003355Y023321D02*
X007455Y023321D01*
X007506Y023480D02*
X003196Y023480D01*
X003038Y023638D02*
X007665Y023638D01*
X007748Y023797D02*
X002879Y023797D01*
X002721Y023955D02*
X007589Y023955D01*
X007716Y023828D02*
X007716Y023828D01*
X007431Y024114D02*
X002562Y024114D01*
X002404Y024272D02*
X007272Y024272D01*
X007114Y024431D02*
X002245Y024431D01*
X002087Y024589D02*
X006955Y024589D01*
X006797Y024748D02*
X001928Y024748D01*
X001770Y024906D02*
X006638Y024906D01*
X006480Y025065D02*
X001705Y025065D01*
X001705Y025223D02*
X006321Y025223D01*
X006163Y025382D02*
X001705Y025382D01*
X001705Y025540D02*
X006004Y025540D01*
X005846Y025699D02*
X001705Y025699D01*
X001705Y025857D02*
X001723Y025857D01*
X001305Y024805D02*
X006930Y019180D01*
X009430Y019180D01*
X009805Y019555D01*
X009805Y020680D01*
X010180Y021055D01*
X010930Y021055D01*
X011305Y020680D01*
X011305Y020180D01*
X010305Y020180D02*
X010305Y019555D01*
X010930Y018930D01*
X009305Y020180D02*
X009305Y020680D01*
X010055Y021430D01*
X018805Y021430D01*
X020055Y020180D01*
X021430Y020180D01*
X021430Y020680D01*
X022180Y021430D01*
X030930Y021430D01*
X032180Y020180D01*
X033555Y020180D01*
X033555Y020680D01*
X034305Y021430D01*
X043055Y021430D01*
X044305Y020180D01*
X045680Y020180D01*
X045680Y020680D01*
X046430Y021430D01*
X054805Y021430D01*
X056055Y022680D01*
X055655Y022846D02*
X055280Y022846D01*
X055280Y023004D02*
X055655Y023004D01*
X055496Y022687D02*
X055241Y022687D01*
X055157Y022529D02*
X055338Y022529D01*
X055179Y022370D02*
X054968Y022370D01*
X055021Y022212D02*
X054777Y022212D01*
X054862Y022053D02*
X054619Y022053D01*
X054704Y021895D02*
X004781Y021895D01*
X004623Y022053D02*
X018366Y022053D01*
X018680Y022305D02*
X030055Y022305D01*
X030430Y022680D01*
X030805Y022305D01*
X042180Y022305D01*
X042555Y022680D01*
X042930Y022305D01*
X054305Y022305D01*
X053680Y025680D02*
X052680Y025680D01*
X055555Y025555D02*
X057805Y025555D01*
X059805Y023555D01*
X060305Y023555D01*
X059805Y024055D02*
X059430Y024430D01*
X059430Y025430D01*
X059805Y024055D02*
X060805Y024055D01*
X061180Y023680D01*
X061180Y022930D01*
X060805Y022555D01*
X060305Y022555D01*
X060305Y021555D02*
X060805Y021555D01*
X061180Y021180D01*
X060305Y018555D02*
X059805Y018555D01*
X058555Y017305D01*
X058555Y006555D01*
X062264Y003350D02*
X062792Y003350D01*
X062792Y003192D02*
X062609Y003192D01*
X062767Y003033D02*
X062792Y003033D01*
X062792Y001765D02*
X062705Y001765D01*
X062792Y001607D02*
X062497Y001607D01*
X055555Y011430D02*
X038930Y011430D01*
X037055Y013305D01*
X034930Y013805D02*
X040555Y013805D01*
X040555Y014680D02*
X041555Y014680D01*
X041142Y015396D02*
X040968Y015396D01*
X041968Y015396D02*
X042142Y015396D01*
X041805Y016930D02*
X046430Y016930D01*
X046680Y017180D01*
X046680Y017680D01*
X045805Y019305D02*
X046180Y019680D01*
X045805Y019305D02*
X039930Y019305D01*
X039555Y019680D01*
X039555Y020180D01*
X039555Y020680D01*
X039180Y021055D01*
X034430Y021055D01*
X034055Y020680D01*
X034055Y019680D01*
X033680Y019305D01*
X027805Y019305D01*
X027430Y019680D01*
X027430Y020180D01*
X027430Y020680D01*
X027055Y021055D01*
X022305Y021055D01*
X021930Y020680D01*
X021930Y019680D01*
X021555Y019305D01*
X015680Y019305D01*
X015305Y019680D01*
X015305Y020180D01*
X018305Y020180D02*
X018905Y020180D01*
X018905Y020507D01*
X018890Y020600D01*
X018861Y020690D01*
X018818Y020774D01*
X018763Y020851D01*
X018696Y020918D01*
X018619Y020973D01*
X018535Y021016D01*
X018492Y021030D01*
X018639Y021030D01*
X019828Y019841D01*
X019975Y019780D01*
X020135Y019780D01*
X020830Y019780D01*
X020861Y019705D01*
X018873Y019705D01*
X018890Y019759D01*
X018905Y019853D01*
X018905Y020180D01*
X018305Y020180D01*
X018305Y020180D01*
X018905Y020151D02*
X019518Y020151D01*
X019360Y020310D02*
X018905Y020310D01*
X018905Y020468D02*
X019201Y020468D01*
X019043Y020627D02*
X018882Y020627D01*
X018884Y020785D02*
X018810Y020785D01*
X018726Y020944D02*
X018660Y020944D01*
X019382Y021419D02*
X019580Y021419D01*
X019580Y021261D02*
X019540Y021261D01*
X019729Y021578D02*
X019223Y021578D01*
X019065Y021736D02*
X019888Y021736D01*
X020180Y021736D02*
X020180Y021736D01*
X020180Y021578D02*
X020180Y021578D01*
X020180Y021419D02*
X020180Y021419D01*
X020180Y021261D02*
X020180Y021261D01*
X020631Y021578D02*
X021762Y021578D01*
X021920Y021736D02*
X020472Y021736D01*
X020780Y021419D02*
X021603Y021419D01*
X021445Y021261D02*
X020780Y021261D01*
X020780Y021102D02*
X021286Y021102D01*
X021065Y020944D02*
X020780Y020944D01*
X020915Y020785D02*
X020634Y020785D01*
X020475Y020627D02*
X020850Y020627D01*
X019677Y019993D02*
X018905Y019993D01*
X018902Y019834D02*
X019845Y019834D01*
X018680Y018555D02*
X030055Y018555D01*
X030430Y018180D01*
X030430Y017680D01*
X029430Y017680D02*
X029430Y017180D01*
X029680Y016930D01*
X034305Y016930D01*
X034555Y017180D01*
X034555Y017680D01*
X034555Y019680D02*
X034555Y020180D01*
X033190Y020944D02*
X032905Y020944D01*
X032905Y021102D02*
X033411Y021102D01*
X033570Y021261D02*
X032905Y021261D01*
X032905Y021419D02*
X033728Y021419D01*
X033887Y021578D02*
X032756Y021578D01*
X032597Y021736D02*
X034045Y021736D01*
X033040Y020785D02*
X032759Y020785D01*
X032600Y020627D02*
X032975Y020627D01*
X032955Y019780D02*
X032100Y019780D01*
X031953Y019841D01*
X031841Y019953D01*
X030764Y021030D01*
X030617Y021030D01*
X030660Y021016D01*
X030744Y020973D01*
X030821Y020918D01*
X030888Y020851D01*
X030943Y020774D01*
X030986Y020690D01*
X031015Y020600D01*
X031030Y020507D01*
X031030Y020180D01*
X030430Y020180D01*
X030430Y020180D01*
X031030Y020180D01*
X031030Y019853D01*
X031015Y019759D01*
X030998Y019705D01*
X032986Y019705D01*
X032955Y019780D01*
X031970Y019834D02*
X031027Y019834D01*
X031030Y019993D02*
X031802Y019993D01*
X031643Y020151D02*
X031030Y020151D01*
X031030Y020310D02*
X031485Y020310D01*
X031326Y020468D02*
X031030Y020468D01*
X031007Y020627D02*
X031168Y020627D01*
X031009Y020785D02*
X030935Y020785D01*
X030851Y020944D02*
X030785Y020944D01*
X031507Y021419D02*
X031705Y021419D01*
X031705Y021261D02*
X031665Y021261D01*
X031854Y021578D02*
X031348Y021578D01*
X031190Y021736D02*
X032013Y021736D01*
X032305Y021736D02*
X032305Y021736D01*
X032305Y021578D02*
X032305Y021578D01*
X032305Y021419D02*
X032305Y021419D01*
X032305Y021261D02*
X032305Y021261D01*
X030491Y022053D02*
X030369Y022053D01*
X030430Y022680D02*
X030430Y023180D01*
X029430Y023180D02*
X029430Y023680D01*
X029805Y024055D01*
X034180Y024055D01*
X034555Y023680D01*
X034555Y023180D01*
X032986Y025205D02*
X032955Y025280D01*
X031725Y025280D01*
X031578Y025341D01*
X031466Y025453D01*
X031030Y025889D01*
X031030Y025680D01*
X030430Y025680D01*
X030430Y025680D01*
X031030Y025680D01*
X031030Y025353D01*
X031015Y025259D01*
X030998Y025205D01*
X032986Y025205D01*
X032979Y025223D02*
X031003Y025223D01*
X031030Y025382D02*
X031538Y025382D01*
X031379Y025540D02*
X031030Y025540D01*
X031030Y025699D02*
X031221Y025699D01*
X031062Y025857D02*
X031030Y025857D01*
X031560Y026491D02*
X031705Y026491D01*
X031705Y026431D02*
X032056Y026080D01*
X032305Y026080D01*
X032554Y026080D01*
X032905Y026431D01*
X032905Y026680D01*
X032305Y026680D01*
X032305Y026680D01*
X032305Y026680D01*
X032305Y026080D01*
X032305Y026680D01*
X032305Y026680D01*
X031705Y026680D01*
X031705Y026431D01*
X031718Y026333D02*
X031804Y026333D01*
X031877Y026174D02*
X031962Y026174D01*
X032305Y026174D02*
X032305Y026174D01*
X032305Y026333D02*
X032305Y026333D01*
X032305Y026491D02*
X032305Y026491D01*
X032305Y026650D02*
X032305Y026650D01*
X032806Y026333D02*
X033079Y026333D01*
X032994Y026174D02*
X032648Y026174D01*
X032905Y026491D02*
X033269Y026491D01*
X033459Y026650D02*
X032905Y026650D01*
X032905Y026808D02*
X033617Y026808D01*
X032867Y026967D02*
X043868Y026967D01*
X044430Y026680D02*
X045030Y026680D01*
X045030Y026929D01*
X044929Y027030D01*
X045964Y027030D01*
X045447Y026513D01*
X045340Y026469D01*
X045171Y026300D01*
X045080Y026080D01*
X044596Y026080D01*
X044596Y026080D01*
X044679Y026080D01*
X045030Y026431D01*
X045030Y026680D01*
X044430Y026680D01*
X044430Y026680D01*
X045030Y026650D02*
X045584Y026650D01*
X045742Y026808D02*
X045030Y026808D01*
X044992Y026967D02*
X045901Y026967D01*
X045394Y026491D02*
X045030Y026491D01*
X044931Y026333D02*
X045204Y026333D01*
X045119Y026174D02*
X044773Y026174D01*
X044091Y025453D02*
X044203Y025341D01*
X044350Y025280D01*
X045080Y025280D01*
X045111Y025205D01*
X043123Y025205D01*
X043140Y025259D01*
X043155Y025353D01*
X043155Y025680D01*
X043155Y026007D01*
X043140Y026100D01*
X043123Y026155D01*
X043389Y026155D01*
X044091Y025453D01*
X044163Y025382D02*
X043155Y025382D01*
X043155Y025540D02*
X044004Y025540D01*
X043846Y025699D02*
X043155Y025699D01*
X043155Y025680D02*
X042555Y025680D01*
X042555Y025680D01*
X043155Y025680D01*
X043155Y025857D02*
X043687Y025857D01*
X043529Y026016D02*
X043154Y026016D01*
X043128Y025223D02*
X045104Y025223D01*
X046305Y024055D02*
X046680Y023680D01*
X046680Y023180D01*
X046305Y024055D02*
X041930Y024055D01*
X041555Y023680D01*
X041555Y023180D01*
X042555Y023180D02*
X042555Y022680D01*
X042494Y022053D02*
X042616Y022053D01*
X043315Y021736D02*
X044138Y021736D01*
X043979Y021578D02*
X043473Y021578D01*
X043632Y021419D02*
X043830Y021419D01*
X043830Y021261D02*
X043790Y021261D01*
X044430Y021261D02*
X044430Y021261D01*
X044430Y021419D02*
X044430Y021419D01*
X044430Y021578D02*
X044430Y021578D01*
X044430Y021736D02*
X044430Y021736D01*
X044722Y021736D02*
X046170Y021736D01*
X046012Y021578D02*
X044881Y021578D01*
X045030Y021419D02*
X045853Y021419D01*
X045695Y021261D02*
X045030Y021261D01*
X045030Y021102D02*
X045536Y021102D01*
X045315Y020944D02*
X045030Y020944D01*
X045165Y020785D02*
X044884Y020785D01*
X044725Y020627D02*
X045100Y020627D01*
X045080Y019780D02*
X044225Y019780D01*
X044078Y019841D01*
X043966Y019953D01*
X042889Y021030D01*
X042742Y021030D01*
X042785Y021016D01*
X042869Y020973D01*
X042946Y020918D01*
X043013Y020851D01*
X043068Y020774D01*
X043111Y020690D01*
X043140Y020600D01*
X043155Y020507D01*
X043155Y020180D01*
X042555Y020180D01*
X042555Y020180D01*
X043155Y020180D01*
X043155Y019853D01*
X043140Y019759D01*
X043123Y019705D01*
X045111Y019705D01*
X045080Y019780D01*
X044095Y019834D02*
X043152Y019834D01*
X043155Y019993D02*
X043927Y019993D01*
X043768Y020151D02*
X043155Y020151D01*
X043155Y020310D02*
X043610Y020310D01*
X043451Y020468D02*
X043155Y020468D01*
X043132Y020627D02*
X043293Y020627D01*
X043134Y020785D02*
X043060Y020785D01*
X042976Y020944D02*
X042910Y020944D01*
X043055Y018555D02*
X050305Y018555D01*
X050680Y018930D01*
X053930Y018930D01*
X054680Y018180D01*
X054680Y017680D01*
X055280Y017615D02*
X056425Y017615D01*
X056425Y017457D02*
X055280Y017457D01*
X055337Y017298D02*
X056482Y017298D01*
X056592Y017140D02*
X055536Y017140D01*
X055695Y016981D02*
X056843Y016981D01*
X056940Y016664D02*
X056012Y016664D01*
X056170Y016506D02*
X056782Y016506D01*
X056705Y016347D02*
X056329Y016347D01*
X056487Y016189D02*
X056705Y016189D01*
X056705Y016030D02*
X056646Y016030D01*
X055853Y016823D02*
X057780Y016823D01*
X057767Y016981D02*
X057780Y016981D01*
X057780Y016664D02*
X057670Y016664D01*
X059114Y017298D02*
X059482Y017298D01*
X059425Y017457D02*
X059272Y017457D01*
X059670Y016664D02*
X059905Y016664D01*
X059905Y016506D02*
X059828Y016506D01*
X059905Y016347D02*
X059905Y016347D01*
X059905Y016189D02*
X059905Y016189D01*
X059905Y016030D02*
X059905Y016030D01*
X059905Y015872D02*
X059845Y015872D01*
X056466Y017774D02*
X055280Y017774D01*
X055280Y017932D02*
X056554Y017932D01*
X056644Y018091D02*
X055275Y018091D01*
X055210Y018249D02*
X056508Y018249D01*
X056442Y018408D02*
X055081Y018408D01*
X054860Y018566D02*
X056425Y018566D01*
X056449Y018725D02*
X054701Y018725D01*
X054543Y018883D02*
X056522Y018883D01*
X052680Y017680D02*
X052680Y017180D01*
X043055Y018555D02*
X042555Y018055D01*
X042555Y017680D01*
X041555Y017680D02*
X041555Y017180D01*
X041805Y016930D01*
X039555Y015180D02*
X039555Y014680D01*
X038436Y015560D02*
X038215Y015469D01*
X038055Y015309D01*
X037895Y015469D01*
X037674Y015560D01*
X037436Y015560D01*
X037215Y015469D01*
X037055Y015309D01*
X036895Y015469D01*
X036674Y015560D01*
X036436Y015560D01*
X036215Y015469D01*
X036055Y015309D01*
X035895Y015469D01*
X035674Y015560D01*
X035436Y015560D01*
X035215Y015469D01*
X035055Y015309D01*
X034895Y015469D01*
X034674Y015560D01*
X034436Y015560D01*
X034215Y015469D01*
X034055Y015309D01*
X033895Y015469D01*
X033674Y015560D01*
X033436Y015560D01*
X033215Y015469D01*
X033046Y015300D01*
X032955Y015079D01*
X031019Y015079D01*
X031015Y015100D02*
X031030Y015007D01*
X031030Y014680D01*
X030430Y014680D01*
X030430Y014680D01*
X030430Y015560D01*
X030477Y015560D01*
X030570Y015545D01*
X030660Y015516D01*
X030744Y015473D01*
X030821Y015418D01*
X030888Y015351D01*
X030943Y015274D01*
X030986Y015190D01*
X031015Y015100D01*
X030962Y015238D02*
X031899Y015238D01*
X032056Y015080D02*
X031705Y015431D01*
X031705Y015680D01*
X032305Y015680D01*
X032905Y015680D01*
X032905Y015780D01*
X038389Y015780D01*
X038609Y015560D01*
X038436Y015560D01*
X038422Y015555D02*
X037688Y015555D01*
X037422Y015555D02*
X036688Y015555D01*
X036422Y015555D02*
X035688Y015555D01*
X035422Y015555D02*
X034688Y015555D01*
X034422Y015555D02*
X033688Y015555D01*
X033422Y015555D02*
X032905Y015555D01*
X032905Y015431D02*
X032905Y015680D01*
X032305Y015680D01*
X032305Y015680D01*
X032305Y015080D01*
X032554Y015080D01*
X032905Y015431D01*
X032870Y015396D02*
X033142Y015396D01*
X033021Y015238D02*
X032711Y015238D01*
X032955Y015079D02*
X032955Y014281D01*
X032986Y014205D01*
X030998Y014205D01*
X031015Y014259D01*
X031030Y014353D01*
X031030Y014680D01*
X030430Y014680D01*
X030430Y014680D01*
X030430Y015560D01*
X030383Y015560D01*
X030289Y015545D01*
X030200Y015516D01*
X030116Y015473D01*
X030039Y015418D01*
X029972Y015351D01*
X029937Y015302D01*
X029770Y015469D01*
X029549Y015560D01*
X029311Y015560D01*
X029090Y015469D01*
X028930Y015309D01*
X028770Y015469D01*
X028549Y015560D01*
X028376Y015560D01*
X028596Y015780D01*
X031705Y015780D01*
X031705Y015680D01*
X032305Y015680D01*
X032305Y015680D01*
X032305Y015680D01*
X032305Y015080D01*
X032056Y015080D01*
X032305Y015238D02*
X032305Y015238D01*
X032305Y015396D02*
X032305Y015396D01*
X032305Y015555D02*
X032305Y015555D01*
X031740Y015396D02*
X030843Y015396D01*
X030512Y015555D02*
X031705Y015555D01*
X031705Y015713D02*
X028529Y015713D01*
X028563Y015555D02*
X029297Y015555D01*
X029563Y015555D02*
X030348Y015555D01*
X030430Y015555D02*
X030430Y015555D01*
X030430Y015396D02*
X030430Y015396D01*
X030430Y015238D02*
X030430Y015238D01*
X030430Y015079D02*
X030430Y015079D01*
X030430Y014921D02*
X030430Y014921D01*
X030430Y014762D02*
X030430Y014762D01*
X031030Y014762D02*
X032955Y014762D01*
X032955Y014604D02*
X031030Y014604D01*
X031030Y014445D02*
X032955Y014445D01*
X032955Y014287D02*
X031020Y014287D01*
X031030Y014921D02*
X032955Y014921D01*
X033968Y015396D02*
X034142Y015396D01*
X034968Y015396D02*
X035142Y015396D01*
X035968Y015396D02*
X036142Y015396D01*
X036968Y015396D02*
X037142Y015396D01*
X037968Y015396D02*
X038142Y015396D01*
X038456Y015713D02*
X032905Y015713D01*
X034555Y014680D02*
X034555Y014180D01*
X034930Y013805D01*
X034555Y014180D02*
X034180Y013805D01*
X022805Y013805D01*
X022430Y014180D01*
X022430Y014680D01*
X022430Y014180D02*
X021680Y013430D01*
X011055Y013430D01*
X010305Y014180D01*
X010305Y014680D01*
X009887Y013970D02*
X009723Y013970D01*
X009451Y013811D02*
X010108Y013811D01*
X010267Y013653D02*
X000560Y013653D01*
X000560Y013811D02*
X009159Y013811D01*
X008887Y013970D02*
X000560Y013970D01*
X000560Y014128D02*
X008768Y014128D01*
X008705Y014287D02*
X000560Y014287D01*
X000560Y014445D02*
X008705Y014445D01*
X008705Y014604D02*
X000560Y014604D01*
X000560Y014762D02*
X008705Y014762D01*
X008771Y015238D02*
X008461Y015238D01*
X008304Y015080D02*
X008655Y015431D01*
X008655Y015680D01*
X008055Y015680D01*
X008055Y015680D01*
X008055Y015080D01*
X008304Y015080D01*
X008055Y015080D02*
X008055Y015680D01*
X008055Y015680D01*
X008055Y015680D01*
X007455Y015680D01*
X007455Y015431D01*
X007806Y015080D01*
X008055Y015080D01*
X008055Y015238D02*
X008055Y015238D01*
X008055Y015396D02*
X008055Y015396D01*
X008055Y015555D02*
X008055Y015555D01*
X007649Y015238D02*
X000560Y015238D01*
X000560Y015396D02*
X007490Y015396D01*
X007455Y015555D02*
X000560Y015555D01*
X000560Y015713D02*
X007455Y015713D01*
X007455Y015872D02*
X000560Y015872D01*
X000560Y016030D02*
X007556Y016030D01*
X007606Y016189D02*
X000560Y016189D01*
X000560Y016347D02*
X007447Y016347D01*
X007289Y016506D02*
X000560Y016506D01*
X000560Y016664D02*
X007130Y016664D01*
X006972Y016823D02*
X000560Y016823D01*
X000560Y016981D02*
X006813Y016981D01*
X006655Y017140D02*
X000560Y017140D01*
X000560Y017298D02*
X006496Y017298D01*
X006338Y017457D02*
X000560Y017457D01*
X000560Y017615D02*
X006179Y017615D01*
X006021Y017774D02*
X000560Y017774D01*
X000560Y017932D02*
X005862Y017932D01*
X005704Y018091D02*
X000560Y018091D01*
X000560Y018249D02*
X005545Y018249D01*
X005387Y018408D02*
X000560Y018408D01*
X000560Y018566D02*
X005228Y018566D01*
X005070Y018725D02*
X000560Y018725D01*
X000560Y018883D02*
X004911Y018883D01*
X004753Y019042D02*
X000560Y019042D01*
X000560Y019200D02*
X004594Y019200D01*
X004436Y019359D02*
X000560Y019359D01*
X000560Y019517D02*
X004277Y019517D01*
X004119Y019676D02*
X000560Y019676D01*
X000560Y019834D02*
X003960Y019834D01*
X003802Y019993D02*
X000560Y019993D01*
X000560Y020151D02*
X003643Y020151D01*
X003485Y020310D02*
X000560Y020310D01*
X000560Y020468D02*
X003326Y020468D01*
X003168Y020627D02*
X000560Y020627D01*
X000560Y020785D02*
X003009Y020785D01*
X002851Y020944D02*
X000560Y020944D01*
X000560Y021102D02*
X002692Y021102D01*
X002534Y021261D02*
X000560Y021261D01*
X000560Y021419D02*
X002375Y021419D01*
X002217Y021578D02*
X000560Y021578D01*
X000560Y021736D02*
X002058Y021736D01*
X001900Y021895D02*
X000560Y021895D01*
X000560Y022053D02*
X001741Y022053D01*
X001583Y022212D02*
X000560Y022212D01*
X000560Y022370D02*
X001424Y022370D01*
X001266Y022529D02*
X000560Y022529D01*
X000560Y022687D02*
X001107Y022687D01*
X000949Y022846D02*
X000560Y022846D01*
X000560Y023004D02*
X000790Y023004D01*
X000632Y023163D02*
X000560Y023163D01*
X001305Y024805D02*
X001305Y027180D01*
X001555Y027430D01*
X002055Y027430D01*
X005917Y027759D02*
X012160Y027759D01*
X012319Y027601D02*
X006075Y027601D01*
X006234Y027442D02*
X012477Y027442D01*
X012636Y027284D02*
X006392Y027284D01*
X006551Y027125D02*
X012794Y027125D01*
X011939Y027918D02*
X011671Y027918D01*
X010939Y027918D02*
X010671Y027918D01*
X009939Y027918D02*
X009671Y027918D01*
X009367Y026808D02*
X006868Y026808D01*
X007026Y026650D02*
X009209Y026650D01*
X009019Y026491D02*
X007185Y026491D01*
X007343Y026333D02*
X008829Y026333D01*
X008744Y026174D02*
X007502Y026174D01*
X007660Y026016D02*
X008705Y026016D01*
X008705Y025857D02*
X007819Y025857D01*
X007977Y025699D02*
X008705Y025699D01*
X008705Y025540D02*
X008136Y025540D01*
X008294Y025382D02*
X008705Y025382D01*
X008729Y025223D02*
X008453Y025223D01*
X009305Y025680D02*
X009305Y026180D01*
X009680Y026555D01*
X018680Y026555D01*
X019627Y026174D02*
X019837Y026174D01*
X019129Y025540D02*
X018905Y025540D01*
X018905Y025680D02*
X018305Y025680D01*
X018905Y025680D01*
X018905Y025764D01*
X019216Y025453D01*
X019328Y025341D01*
X019475Y025280D01*
X020830Y025280D01*
X020861Y025205D01*
X018873Y025205D01*
X018890Y025259D01*
X018905Y025353D01*
X018905Y025680D01*
X018905Y025699D02*
X018971Y025699D01*
X018905Y025382D02*
X019288Y025382D01*
X018878Y025223D02*
X020854Y025223D01*
X022055Y024055D02*
X022430Y023680D01*
X022430Y023180D01*
X022055Y024055D02*
X017680Y024055D01*
X017305Y023680D01*
X017305Y023180D01*
X018305Y023180D02*
X018305Y022680D01*
X018680Y022305D01*
X022430Y020180D02*
X022430Y019680D01*
X022430Y017680D02*
X022430Y017180D01*
X022180Y016930D01*
X017555Y016930D01*
X017305Y017180D01*
X017305Y017680D01*
X018305Y017680D02*
X018305Y018180D01*
X018680Y018555D01*
X016305Y016180D02*
X026430Y016180D01*
X027430Y015180D02*
X027430Y014680D01*
X028843Y015396D02*
X029017Y015396D01*
X029843Y015396D02*
X030017Y015396D01*
X022550Y013494D02*
X022310Y013494D01*
X020139Y015080D02*
X019264Y014205D01*
X018873Y014205D01*
X018890Y014259D01*
X018905Y014353D01*
X018905Y014680D01*
X018905Y015007D01*
X018890Y015100D01*
X018861Y015190D01*
X018818Y015274D01*
X018763Y015351D01*
X018696Y015418D01*
X018619Y015473D01*
X018535Y015516D01*
X018445Y015545D01*
X018352Y015560D01*
X018305Y015560D01*
X018305Y014680D01*
X018305Y014680D01*
X018905Y014680D01*
X018305Y014680D01*
X018305Y014680D01*
X018305Y015560D01*
X018258Y015560D01*
X018164Y015545D01*
X018075Y015516D01*
X017991Y015473D01*
X017914Y015418D01*
X017847Y015351D01*
X017812Y015302D01*
X017645Y015469D01*
X017424Y015560D01*
X017186Y015560D01*
X016965Y015469D01*
X016805Y015309D01*
X016645Y015469D01*
X016424Y015560D01*
X016251Y015560D01*
X016471Y015780D01*
X019580Y015780D01*
X019580Y015680D01*
X020180Y015680D01*
X020180Y015680D01*
X019580Y015680D01*
X019580Y015431D01*
X019931Y015080D01*
X020139Y015080D01*
X020138Y015079D02*
X018894Y015079D01*
X018905Y014921D02*
X019980Y014921D01*
X019821Y014762D02*
X018905Y014762D01*
X018905Y014604D02*
X019663Y014604D01*
X019504Y014445D02*
X018905Y014445D01*
X018895Y014287D02*
X019346Y014287D01*
X018305Y014762D02*
X018305Y014762D01*
X018305Y014921D02*
X018305Y014921D01*
X018305Y015079D02*
X018305Y015079D01*
X018305Y015238D02*
X018305Y015238D01*
X018305Y015396D02*
X018305Y015396D01*
X018305Y015555D02*
X018305Y015555D01*
X018223Y015555D02*
X017438Y015555D01*
X017172Y015555D02*
X016438Y015555D01*
X016404Y015713D02*
X019580Y015713D01*
X019580Y015555D02*
X018387Y015555D01*
X018718Y015396D02*
X019615Y015396D01*
X019774Y015238D02*
X018837Y015238D01*
X017892Y015396D02*
X017718Y015396D01*
X016892Y015396D02*
X016718Y015396D01*
X016305Y016180D02*
X015305Y015180D01*
X015305Y014680D01*
X014443Y012860D02*
X014167Y012860D01*
X014299Y012702D02*
X014311Y012702D01*
X010742Y013177D02*
X000560Y013177D01*
X000560Y013336D02*
X010584Y013336D01*
X010425Y013494D02*
X000560Y013494D01*
X008620Y015396D02*
X008892Y015396D01*
X008655Y015555D02*
X009172Y015555D01*
X009438Y015555D02*
X010172Y015555D01*
X010438Y015555D02*
X011172Y015555D01*
X011438Y015555D02*
X011990Y015555D01*
X011892Y015396D02*
X011718Y015396D01*
X011831Y015713D02*
X008655Y015713D01*
X009718Y015396D02*
X009892Y015396D01*
X010718Y015396D02*
X010892Y015396D01*
X008749Y019676D02*
X007000Y019676D01*
X006842Y019834D02*
X008705Y019834D01*
X008705Y019993D02*
X006683Y019993D01*
X006525Y020151D02*
X008705Y020151D01*
X008705Y020310D02*
X006366Y020310D01*
X006208Y020468D02*
X008705Y020468D01*
X008725Y020627D02*
X008350Y020627D01*
X008304Y020580D02*
X008655Y020931D01*
X008655Y021180D01*
X008655Y021429D01*
X008304Y021780D01*
X008055Y021780D01*
X008055Y021180D01*
X008055Y021180D01*
X008655Y021180D01*
X008055Y021180D01*
X008055Y021180D01*
X008055Y021180D01*
X007455Y021180D01*
X007455Y021429D01*
X007806Y021780D01*
X008055Y021780D01*
X008055Y021180D01*
X008055Y020580D01*
X008304Y020580D01*
X008055Y020580D02*
X008055Y021180D01*
X008055Y021180D01*
X007455Y021180D01*
X007455Y020931D01*
X007806Y020580D01*
X008055Y020580D01*
X008055Y020627D02*
X008055Y020627D01*
X008055Y020785D02*
X008055Y020785D01*
X008055Y020944D02*
X008055Y020944D01*
X008055Y021102D02*
X008055Y021102D01*
X008055Y021261D02*
X008055Y021261D01*
X008055Y021419D02*
X008055Y021419D01*
X008055Y021578D02*
X008055Y021578D01*
X008055Y021736D02*
X008055Y021736D01*
X008347Y021736D02*
X009795Y021736D01*
X009637Y021578D02*
X008506Y021578D01*
X008655Y021419D02*
X009478Y021419D01*
X009320Y021261D02*
X008655Y021261D01*
X008655Y021102D02*
X009161Y021102D01*
X008940Y020944D02*
X008655Y020944D01*
X008790Y020785D02*
X008509Y020785D01*
X007760Y020627D02*
X006049Y020627D01*
X005891Y020785D02*
X007601Y020785D01*
X007455Y020944D02*
X005732Y020944D01*
X005574Y021102D02*
X007455Y021102D01*
X007455Y021261D02*
X005415Y021261D01*
X005257Y021419D02*
X007455Y021419D01*
X007604Y021578D02*
X005098Y021578D01*
X004940Y021736D02*
X007763Y021736D01*
X008411Y022687D02*
X008744Y022687D01*
X009593Y022370D02*
X010017Y022370D01*
X009828Y022529D02*
X009782Y022529D01*
X010593Y022370D02*
X011017Y022370D01*
X010828Y022529D02*
X010782Y022529D01*
X014305Y025180D02*
X014305Y025680D01*
X018305Y025680D02*
X018305Y025680D01*
X019618Y026967D02*
X006709Y026967D01*
X020742Y026967D02*
X031743Y026967D01*
X031705Y026808D02*
X031243Y026808D01*
X031401Y026650D02*
X031705Y026650D01*
X029805Y027805D02*
X034180Y027805D01*
X034555Y028180D01*
X034555Y028680D01*
X036555Y028680D02*
X036555Y028180D01*
X036541Y027601D02*
X036569Y027601D01*
X036727Y027442D02*
X036383Y027442D01*
X036224Y027284D02*
X036886Y027284D01*
X036966Y027203D02*
X036966Y027203D01*
X037044Y027125D02*
X036066Y027125D01*
X030430Y028680D02*
X030430Y029180D01*
X029430Y028680D02*
X029430Y028180D01*
X029805Y027805D01*
X030998Y030705D02*
X031015Y030759D01*
X031030Y030853D01*
X031030Y031180D01*
X031030Y031507D01*
X031015Y031600D01*
X030998Y031655D01*
X031264Y031655D01*
X031591Y031328D01*
X031703Y031216D01*
X031850Y031155D01*
X032760Y031155D01*
X032907Y031216D01*
X032955Y031264D01*
X032955Y030781D01*
X032986Y030705D01*
X030998Y030705D01*
X031017Y030771D02*
X032959Y030771D01*
X032955Y030929D02*
X031030Y030929D01*
X031030Y031088D02*
X032955Y031088D01*
X032955Y031246D02*
X032937Y031246D01*
X031673Y031246D02*
X031030Y031246D01*
X031030Y031180D02*
X030430Y031180D01*
X030430Y031180D01*
X031030Y031180D01*
X031030Y031405D02*
X031515Y031405D01*
X031356Y031563D02*
X031021Y031563D01*
X031695Y032356D02*
X031705Y032356D01*
X032305Y032356D02*
X032305Y032356D01*
X032305Y032514D02*
X032305Y032514D01*
X032305Y032673D02*
X032305Y032673D01*
X032661Y032673D02*
X044074Y032673D01*
X043916Y032514D02*
X032819Y032514D01*
X032905Y032356D02*
X032915Y032356D01*
X032305Y032197D02*
X032305Y032197D01*
X030555Y032990D02*
X030305Y032990D01*
X029540Y032356D02*
X029320Y032356D01*
X029430Y034180D02*
X029430Y034680D01*
X029680Y034930D01*
X034305Y034930D01*
X034555Y034680D01*
X034555Y034180D01*
X039555Y031180D02*
X039555Y030680D01*
X041320Y032356D02*
X041790Y032356D01*
X041631Y032197D02*
X041479Y032197D01*
X042430Y032990D02*
X042680Y032990D01*
X043820Y032356D02*
X043830Y032356D01*
X044430Y032356D02*
X044430Y032356D01*
X044430Y032514D02*
X044430Y032514D01*
X044430Y032673D02*
X044430Y032673D01*
X044430Y032197D02*
X044430Y032197D01*
X043640Y031405D02*
X043155Y031405D01*
X043155Y031507D02*
X043140Y031600D01*
X043123Y031655D01*
X043389Y031655D01*
X043716Y031328D01*
X043828Y031216D01*
X043975Y031155D01*
X044885Y031155D01*
X045032Y031216D01*
X045080Y031264D01*
X045080Y030781D01*
X045111Y030705D01*
X043123Y030705D01*
X043140Y030759D01*
X043155Y030853D01*
X043155Y031180D01*
X043155Y031507D01*
X043146Y031563D02*
X043481Y031563D01*
X043798Y031246D02*
X043155Y031246D01*
X043155Y031180D02*
X042555Y031180D01*
X042555Y031180D01*
X043155Y031180D01*
X043155Y031088D02*
X045080Y031088D01*
X045080Y031246D02*
X045062Y031246D01*
X045080Y030929D02*
X043155Y030929D01*
X043142Y030771D02*
X045084Y030771D01*
X046680Y028680D02*
X046680Y028180D01*
X046305Y027805D01*
X041930Y027805D01*
X041555Y028180D01*
X041555Y028680D01*
X048680Y028680D02*
X048680Y028180D01*
X046680Y034180D02*
X046680Y034680D01*
X046430Y034930D01*
X041805Y034930D01*
X041555Y034680D01*
X041555Y034180D01*
X055535Y038062D02*
X055575Y038062D01*
X061072Y024906D02*
X061289Y024906D01*
X021445Y005886D02*
X021418Y005886D01*
X019805Y005569D02*
X019805Y005569D01*
X020070Y007471D02*
X020656Y007471D01*
X020591Y007630D02*
X020228Y007630D01*
X020387Y007788D02*
X020580Y007788D01*
X020580Y007947D02*
X020405Y007947D01*
X020405Y008105D02*
X020580Y008105D01*
X020580Y008264D02*
X020405Y008264D01*
D17*
X051555Y010430D03*
X035055Y035805D03*
X036055Y036305D03*
X038055Y036430D03*
X039055Y036430D03*
X047180Y036430D03*
X048180Y036430D03*
X050180Y036430D03*
X051180Y036430D03*
X003930Y033180D03*
X004180Y030430D03*
D18*
X004430Y032555D03*
X024930Y013305D03*
X025930Y013305D03*
X026930Y013305D03*
X027930Y013305D03*
X037055Y013305D03*
X038055Y013305D03*
X039055Y013305D03*
X040055Y013305D03*
X043680Y013430D03*
X050055Y008430D03*
X050805Y008930D03*
X052305Y010930D03*
X052805Y012430D03*
X053430Y012930D03*
X039805Y006305D03*
X015805Y012430D03*
X014805Y012430D03*
X013805Y012430D03*
X012805Y012430D03*
X055555Y025555D03*
X055555Y027055D03*
D19*
X057305Y026180D02*
X058055Y026180D01*
X058805Y025430D01*
X059430Y025430D01*
X061680Y025430D01*
X045680Y023180D02*
X044430Y023180D01*
X044430Y017680D02*
X045680Y017680D01*
X033555Y017680D02*
X032305Y017680D01*
X032305Y023180D02*
X033555Y023180D01*
X033555Y028680D02*
X032305Y028680D01*
X032305Y034180D02*
X033555Y034180D01*
X044430Y034180D02*
X045680Y034180D01*
X045680Y028680D02*
X044430Y028680D01*
X021430Y028680D02*
X020180Y028680D01*
X020180Y034055D02*
X020305Y034180D01*
X021430Y034180D01*
X009305Y028680D02*
X008055Y028680D01*
X008055Y023180D02*
X009305Y023180D01*
X009305Y017680D02*
X008055Y017680D01*
X020180Y017680D02*
X021430Y017680D01*
X021430Y023180D02*
X020180Y023180D01*
D20*
X061680Y025430D03*
M02*
