G75*
%MOIN*%
%OFA0B0*%
%FSLAX24Y24*%
%IPPOS*%
%LPD*%
%AMOC8*
5,1,8,0,0,1.08239X$1,22.5*
%
%ADD10C,0.1180*%
%ADD11C,0.0640*%
%ADD12OC8,0.0640*%
%ADD13OC8,0.0720*%
%ADD14OC8,0.0710*%
%ADD15C,0.0710*%
%ADD16C,0.0580*%
%ADD17C,0.0560*%
%ADD18R,0.0560X0.0560*%
D10*
X001555Y002430D03*
X001555Y037430D03*
X062055Y037430D03*
X062055Y002430D03*
D11*
X054680Y014400D02*
X054680Y014960D01*
X053680Y014960D02*
X053680Y014400D01*
X052680Y014400D02*
X052680Y014960D01*
X051680Y014960D02*
X051680Y014400D01*
X050680Y014400D02*
X050680Y014960D01*
X049680Y014960D02*
X049680Y014400D01*
X048680Y014400D02*
X048680Y014960D01*
X047680Y014960D02*
X047680Y014400D01*
X046680Y014400D02*
X046680Y014960D01*
X045680Y014960D02*
X045680Y014400D01*
X042555Y014400D02*
X042555Y014960D01*
X041555Y014960D02*
X041555Y014400D01*
X040555Y014400D02*
X040555Y014960D01*
X039555Y014960D02*
X039555Y014400D01*
X038555Y014400D02*
X038555Y014960D01*
X037555Y014960D02*
X037555Y014400D01*
X036555Y014400D02*
X036555Y014960D01*
X035555Y014960D02*
X035555Y014400D01*
X034555Y014400D02*
X034555Y014960D01*
X033555Y014960D02*
X033555Y014400D01*
X030430Y014400D02*
X030430Y014960D01*
X029430Y014960D02*
X029430Y014400D01*
X028430Y014400D02*
X028430Y014960D01*
X027430Y014960D02*
X027430Y014400D01*
X026430Y014400D02*
X026430Y014960D01*
X025430Y014960D02*
X025430Y014400D01*
X024430Y014400D02*
X024430Y014960D01*
X023430Y014960D02*
X023430Y014400D01*
X022430Y014400D02*
X022430Y014960D01*
X021430Y014960D02*
X021430Y014400D01*
X018305Y014400D02*
X018305Y014960D01*
X017305Y014960D02*
X017305Y014400D01*
X016305Y014400D02*
X016305Y014960D01*
X015305Y014960D02*
X015305Y014400D01*
X014305Y014400D02*
X014305Y014960D01*
X013305Y014960D02*
X013305Y014400D01*
X012305Y014400D02*
X012305Y014960D01*
X011305Y014960D02*
X011305Y014400D01*
X010305Y014400D02*
X010305Y014960D01*
X009305Y014960D02*
X009305Y014400D01*
X009305Y017400D02*
X009305Y017960D01*
X010305Y017960D02*
X010305Y017400D01*
X011305Y017400D02*
X011305Y017960D01*
X012305Y017960D02*
X012305Y017400D01*
X013305Y017400D02*
X013305Y017960D01*
X014305Y017960D02*
X014305Y017400D01*
X015305Y017400D02*
X015305Y017960D01*
X016305Y017960D02*
X016305Y017400D01*
X017305Y017400D02*
X017305Y017960D01*
X018305Y017960D02*
X018305Y017400D01*
X021430Y017400D02*
X021430Y017960D01*
X022430Y017960D02*
X022430Y017400D01*
X023430Y017400D02*
X023430Y017960D01*
X024430Y017960D02*
X024430Y017400D01*
X025430Y017400D02*
X025430Y017960D01*
X026430Y017960D02*
X026430Y017400D01*
X027430Y017400D02*
X027430Y017960D01*
X028430Y017960D02*
X028430Y017400D01*
X029430Y017400D02*
X029430Y017960D01*
X030430Y017960D02*
X030430Y017400D01*
X033555Y017400D02*
X033555Y017960D01*
X034555Y017960D02*
X034555Y017400D01*
X035555Y017400D02*
X035555Y017960D01*
X036555Y017960D02*
X036555Y017400D01*
X037555Y017400D02*
X037555Y017960D01*
X038555Y017960D02*
X038555Y017400D01*
X039555Y017400D02*
X039555Y017960D01*
X040555Y017960D02*
X040555Y017400D01*
X041555Y017400D02*
X041555Y017960D01*
X042555Y017960D02*
X042555Y017400D01*
X045680Y017400D02*
X045680Y017960D01*
X046680Y017960D02*
X046680Y017400D01*
X047680Y017400D02*
X047680Y017960D01*
X048680Y017960D02*
X048680Y017400D01*
X049680Y017400D02*
X049680Y017960D01*
X050680Y017960D02*
X050680Y017400D01*
X051680Y017400D02*
X051680Y017960D01*
X052680Y017960D02*
X052680Y017400D01*
X053680Y017400D02*
X053680Y017960D01*
X054680Y017960D02*
X054680Y017400D01*
X057025Y017555D02*
X057585Y017555D01*
X057585Y018555D02*
X057025Y018555D01*
X057025Y019555D02*
X057585Y019555D01*
X057585Y020555D02*
X057025Y020555D01*
X057025Y021555D02*
X057585Y021555D01*
X057585Y022555D02*
X057025Y022555D01*
X057025Y023555D02*
X057585Y023555D01*
X057585Y024555D02*
X057025Y024555D01*
X054680Y025400D02*
X054680Y025960D01*
X053680Y025960D02*
X053680Y025400D01*
X052680Y025400D02*
X052680Y025960D01*
X051680Y025960D02*
X051680Y025400D01*
X050680Y025400D02*
X050680Y025960D01*
X049680Y025960D02*
X049680Y025400D01*
X048680Y025400D02*
X048680Y025960D01*
X047680Y025960D02*
X047680Y025400D01*
X046680Y025400D02*
X046680Y025960D01*
X045680Y025960D02*
X045680Y025400D01*
X045680Y023460D02*
X045680Y022900D01*
X046680Y022900D02*
X046680Y023460D01*
X047680Y023460D02*
X047680Y022900D01*
X048680Y022900D02*
X048680Y023460D01*
X049680Y023460D02*
X049680Y022900D01*
X050680Y022900D02*
X050680Y023460D01*
X051680Y023460D02*
X051680Y022900D01*
X052680Y022900D02*
X052680Y023460D01*
X053680Y023460D02*
X053680Y022900D01*
X054680Y022900D02*
X054680Y023460D01*
X054680Y020460D02*
X054680Y019900D01*
X053680Y019900D02*
X053680Y020460D01*
X052680Y020460D02*
X052680Y019900D01*
X051680Y019900D02*
X051680Y020460D01*
X050680Y020460D02*
X050680Y019900D01*
X049680Y019900D02*
X049680Y020460D01*
X048680Y020460D02*
X048680Y019900D01*
X047680Y019900D02*
X047680Y020460D01*
X046680Y020460D02*
X046680Y019900D01*
X045680Y019900D02*
X045680Y020460D01*
X042555Y020460D02*
X042555Y019900D01*
X041555Y019900D02*
X041555Y020460D01*
X040555Y020460D02*
X040555Y019900D01*
X039555Y019900D02*
X039555Y020460D01*
X038555Y020460D02*
X038555Y019900D01*
X037555Y019900D02*
X037555Y020460D01*
X036555Y020460D02*
X036555Y019900D01*
X035555Y019900D02*
X035555Y020460D01*
X034555Y020460D02*
X034555Y019900D01*
X033555Y019900D02*
X033555Y020460D01*
X030430Y020460D02*
X030430Y019900D01*
X029430Y019900D02*
X029430Y020460D01*
X028430Y020460D02*
X028430Y019900D01*
X027430Y019900D02*
X027430Y020460D01*
X026430Y020460D02*
X026430Y019900D01*
X025430Y019900D02*
X025430Y020460D01*
X024430Y020460D02*
X024430Y019900D01*
X023430Y019900D02*
X023430Y020460D01*
X022430Y020460D02*
X022430Y019900D01*
X021430Y019900D02*
X021430Y020460D01*
X018305Y020460D02*
X018305Y019900D01*
X017305Y019900D02*
X017305Y020460D01*
X016305Y020460D02*
X016305Y019900D01*
X015305Y019900D02*
X015305Y020460D01*
X014305Y020460D02*
X014305Y019900D01*
X013305Y019900D02*
X013305Y020460D01*
X012305Y020460D02*
X012305Y019900D01*
X011305Y019900D02*
X011305Y020460D01*
X010305Y020460D02*
X010305Y019900D01*
X009305Y019900D02*
X009305Y020460D01*
X009305Y022900D02*
X009305Y023460D01*
X010305Y023460D02*
X010305Y022900D01*
X011305Y022900D02*
X011305Y023460D01*
X012305Y023460D02*
X012305Y022900D01*
X013305Y022900D02*
X013305Y023460D01*
X014305Y023460D02*
X014305Y022900D01*
X015305Y022900D02*
X015305Y023460D01*
X016305Y023460D02*
X016305Y022900D01*
X017305Y022900D02*
X017305Y023460D01*
X018305Y023460D02*
X018305Y022900D01*
X021430Y022900D02*
X021430Y023460D01*
X022430Y023460D02*
X022430Y022900D01*
X023430Y022900D02*
X023430Y023460D01*
X024430Y023460D02*
X024430Y022900D01*
X025430Y022900D02*
X025430Y023460D01*
X026430Y023460D02*
X026430Y022900D01*
X027430Y022900D02*
X027430Y023460D01*
X028430Y023460D02*
X028430Y022900D01*
X029430Y022900D02*
X029430Y023460D01*
X030430Y023460D02*
X030430Y022900D01*
X033555Y022900D02*
X033555Y023460D01*
X034555Y023460D02*
X034555Y022900D01*
X035555Y022900D02*
X035555Y023460D01*
X036555Y023460D02*
X036555Y022900D01*
X037555Y022900D02*
X037555Y023460D01*
X038555Y023460D02*
X038555Y022900D01*
X039555Y022900D02*
X039555Y023460D01*
X040555Y023460D02*
X040555Y022900D01*
X041555Y022900D02*
X041555Y023460D01*
X042555Y023460D02*
X042555Y022900D01*
X042555Y025400D02*
X042555Y025960D01*
X041555Y025960D02*
X041555Y025400D01*
X040555Y025400D02*
X040555Y025960D01*
X039555Y025960D02*
X039555Y025400D01*
X038555Y025400D02*
X038555Y025960D01*
X037555Y025960D02*
X037555Y025400D01*
X036555Y025400D02*
X036555Y025960D01*
X035555Y025960D02*
X035555Y025400D01*
X034555Y025400D02*
X034555Y025960D01*
X033555Y025960D02*
X033555Y025400D01*
X030430Y025400D02*
X030430Y025960D01*
X029430Y025960D02*
X029430Y025400D01*
X028430Y025400D02*
X028430Y025960D01*
X027430Y025960D02*
X027430Y025400D01*
X026430Y025400D02*
X026430Y025960D01*
X025430Y025960D02*
X025430Y025400D01*
X024430Y025400D02*
X024430Y025960D01*
X023430Y025960D02*
X023430Y025400D01*
X022430Y025400D02*
X022430Y025960D01*
X021430Y025960D02*
X021430Y025400D01*
X018305Y025400D02*
X018305Y025960D01*
X017305Y025960D02*
X017305Y025400D01*
X016305Y025400D02*
X016305Y025960D01*
X015305Y025960D02*
X015305Y025400D01*
X014305Y025400D02*
X014305Y025960D01*
X013305Y025960D02*
X013305Y025400D01*
X012305Y025400D02*
X012305Y025960D01*
X011305Y025960D02*
X011305Y025400D01*
X010305Y025400D02*
X010305Y025960D01*
X009305Y025960D02*
X009305Y025400D01*
X009305Y028400D02*
X009305Y028960D01*
X010305Y028960D02*
X010305Y028400D01*
X011305Y028400D02*
X011305Y028960D01*
X012305Y028960D02*
X012305Y028400D01*
X013305Y028400D02*
X013305Y028960D01*
X014305Y028960D02*
X014305Y028400D01*
X015305Y028400D02*
X015305Y028960D01*
X016305Y028960D02*
X016305Y028400D01*
X017305Y028400D02*
X017305Y028960D01*
X018305Y028960D02*
X018305Y028400D01*
X021430Y028400D02*
X021430Y028960D01*
X022430Y028960D02*
X022430Y028400D01*
X023430Y028400D02*
X023430Y028960D01*
X024430Y028960D02*
X024430Y028400D01*
X025430Y028400D02*
X025430Y028960D01*
X026430Y028960D02*
X026430Y028400D01*
X027430Y028400D02*
X027430Y028960D01*
X028430Y028960D02*
X028430Y028400D01*
X029430Y028400D02*
X029430Y028960D01*
X030430Y028960D02*
X030430Y028400D01*
X033555Y028400D02*
X033555Y028960D01*
X034555Y028960D02*
X034555Y028400D01*
X035555Y028400D02*
X035555Y028960D01*
X036555Y028960D02*
X036555Y028400D01*
X037555Y028400D02*
X037555Y028960D01*
X038555Y028960D02*
X038555Y028400D01*
X039555Y028400D02*
X039555Y028960D01*
X040555Y028960D02*
X040555Y028400D01*
X041555Y028400D02*
X041555Y028960D01*
X042555Y028960D02*
X042555Y028400D01*
X045680Y028400D02*
X045680Y028960D01*
X046680Y028960D02*
X046680Y028400D01*
X047680Y028400D02*
X047680Y028960D01*
X048680Y028960D02*
X048680Y028400D01*
X049680Y028400D02*
X049680Y028960D01*
X050680Y028960D02*
X050680Y028400D01*
X051680Y028400D02*
X051680Y028960D01*
X052680Y028960D02*
X052680Y028400D01*
X053680Y028400D02*
X053680Y028960D01*
X054680Y028960D02*
X054680Y028400D01*
X057025Y028555D02*
X057585Y028555D01*
X057585Y027555D02*
X057025Y027555D01*
X060025Y027555D02*
X060585Y027555D01*
X060585Y028555D02*
X060025Y028555D01*
X060025Y029555D02*
X060585Y029555D01*
X060585Y030555D02*
X060025Y030555D01*
X060025Y031555D02*
X060585Y031555D01*
X060585Y032555D02*
X060025Y032555D01*
X060025Y033555D02*
X060585Y033555D01*
X060585Y034555D02*
X060025Y034555D01*
X057585Y034555D02*
X057025Y034555D01*
X057025Y033555D02*
X057585Y033555D01*
X057585Y032555D02*
X057025Y032555D01*
X057025Y031555D02*
X057585Y031555D01*
X057585Y030555D02*
X057025Y030555D01*
X057025Y029555D02*
X057585Y029555D01*
X054680Y030900D02*
X054680Y031460D01*
X053680Y031460D02*
X053680Y030900D01*
X052680Y030900D02*
X052680Y031460D01*
X051680Y031460D02*
X051680Y030900D01*
X050680Y030900D02*
X050680Y031460D01*
X049680Y031460D02*
X049680Y030900D01*
X048680Y030900D02*
X048680Y031460D01*
X047680Y031460D02*
X047680Y030900D01*
X046680Y030900D02*
X046680Y031460D01*
X045680Y031460D02*
X045680Y030900D01*
X042555Y030900D02*
X042555Y031460D01*
X041555Y031460D02*
X041555Y030900D01*
X040555Y030900D02*
X040555Y031460D01*
X039555Y031460D02*
X039555Y030900D01*
X038555Y030900D02*
X038555Y031460D01*
X037555Y031460D02*
X037555Y030900D01*
X036555Y030900D02*
X036555Y031460D01*
X035555Y031460D02*
X035555Y030900D01*
X034555Y030900D02*
X034555Y031460D01*
X033555Y031460D02*
X033555Y030900D01*
X030430Y030900D02*
X030430Y031460D01*
X029430Y031460D02*
X029430Y030900D01*
X028430Y030900D02*
X028430Y031460D01*
X027430Y031460D02*
X027430Y030900D01*
X026430Y030900D02*
X026430Y031460D01*
X025430Y031460D02*
X025430Y030900D01*
X024430Y030900D02*
X024430Y031460D01*
X023430Y031460D02*
X023430Y030900D01*
X022430Y030900D02*
X022430Y031460D01*
X021430Y031460D02*
X021430Y030900D01*
X018305Y030900D02*
X018305Y031460D01*
X017305Y031460D02*
X017305Y030900D01*
X016305Y030900D02*
X016305Y031460D01*
X015305Y031460D02*
X015305Y030900D01*
X014305Y030900D02*
X014305Y031460D01*
X013305Y031460D02*
X013305Y030900D01*
X012305Y030900D02*
X012305Y031460D01*
X011305Y031460D02*
X011305Y030900D01*
X010305Y030900D02*
X010305Y031460D01*
X009305Y031460D02*
X009305Y030900D01*
X009305Y033900D02*
X009305Y034460D01*
X010305Y034460D02*
X010305Y033900D01*
X011305Y033900D02*
X011305Y034460D01*
X012305Y034460D02*
X012305Y033900D01*
X013305Y033900D02*
X013305Y034460D01*
X014305Y034460D02*
X014305Y033900D01*
X015305Y033900D02*
X015305Y034460D01*
X016305Y034460D02*
X016305Y033900D01*
X017305Y033900D02*
X017305Y034460D01*
X018305Y034460D02*
X018305Y033900D01*
X021430Y033900D02*
X021430Y034460D01*
X022430Y034460D02*
X022430Y033900D01*
X023430Y033900D02*
X023430Y034460D01*
X024430Y034460D02*
X024430Y033900D01*
X025430Y033900D02*
X025430Y034460D01*
X026430Y034460D02*
X026430Y033900D01*
X027430Y033900D02*
X027430Y034460D01*
X028430Y034460D02*
X028430Y033900D01*
X029430Y033900D02*
X029430Y034460D01*
X030430Y034460D02*
X030430Y033900D01*
X033555Y033900D02*
X033555Y034460D01*
X034555Y034460D02*
X034555Y033900D01*
X035555Y033900D02*
X035555Y034460D01*
X036555Y034460D02*
X036555Y033900D01*
X037555Y033900D02*
X037555Y034460D01*
X038555Y034460D02*
X038555Y033900D01*
X039555Y033900D02*
X039555Y034460D01*
X040555Y034460D02*
X040555Y033900D01*
X041555Y033900D02*
X041555Y034460D01*
X042555Y034460D02*
X042555Y033900D01*
X045680Y033900D02*
X045680Y034460D01*
X046680Y034460D02*
X046680Y033900D01*
X047680Y033900D02*
X047680Y034460D01*
X048680Y034460D02*
X048680Y033900D01*
X049680Y033900D02*
X049680Y034460D01*
X050680Y034460D02*
X050680Y033900D01*
X051680Y033900D02*
X051680Y034460D01*
X052680Y034460D02*
X052680Y033900D01*
X053680Y033900D02*
X053680Y034460D01*
X054680Y034460D02*
X054680Y033900D01*
X060025Y024555D02*
X060585Y024555D01*
X060585Y023555D02*
X060025Y023555D01*
X060025Y022555D02*
X060585Y022555D01*
X060585Y021555D02*
X060025Y021555D01*
X060025Y020555D02*
X060585Y020555D01*
X060585Y019555D02*
X060025Y019555D01*
X060025Y018555D02*
X060585Y018555D01*
X060585Y017555D02*
X060025Y017555D01*
X027180Y008335D02*
X027180Y007775D01*
X026180Y007775D02*
X026180Y008335D01*
X025180Y008335D02*
X025180Y007775D01*
X024180Y007775D02*
X024180Y008335D01*
X023180Y008335D02*
X023180Y007775D01*
X022180Y007775D02*
X022180Y008335D01*
X021180Y008335D02*
X021180Y007775D01*
X021180Y005335D02*
X021180Y004775D01*
X022180Y004775D02*
X022180Y005335D01*
X023180Y005335D02*
X023180Y004775D01*
X024180Y004775D02*
X024180Y005335D01*
X025180Y005335D02*
X025180Y004775D01*
X026180Y004775D02*
X026180Y005335D01*
X027180Y005335D02*
X027180Y004775D01*
D12*
X019805Y006055D03*
X019805Y008055D03*
X020180Y015680D03*
X020180Y017680D03*
X020180Y021180D03*
X020180Y023180D03*
X020180Y026680D03*
X020180Y028680D03*
X020180Y032055D03*
X020180Y034055D03*
X008180Y034055D03*
X008180Y032055D03*
X008055Y028680D03*
X006055Y028680D03*
X008055Y023180D03*
X008055Y021180D03*
X008055Y017680D03*
X008055Y015680D03*
X032305Y015680D03*
X032305Y017680D03*
X032305Y021180D03*
X032305Y023180D03*
X032305Y026680D03*
X032305Y028680D03*
X032305Y032180D03*
X032305Y034180D03*
X044430Y034180D03*
X044430Y032180D03*
X044430Y028680D03*
X044430Y026680D03*
X044430Y023180D03*
X044430Y021180D03*
X044430Y017680D03*
X044430Y015680D03*
X057305Y016180D03*
X059305Y016180D03*
X059305Y026180D03*
X057305Y026180D03*
D13*
X056555Y036430D03*
X055555Y036430D03*
X055555Y037430D03*
X056555Y037430D03*
X056555Y013430D03*
X056555Y012430D03*
X055555Y012430D03*
X055555Y013430D03*
X055555Y011430D03*
X055555Y010430D03*
X056555Y010430D03*
X056555Y011430D03*
X056555Y009430D03*
X056555Y008430D03*
X055555Y008430D03*
X055555Y009430D03*
X055555Y007430D03*
X055555Y006430D03*
X056555Y006430D03*
X056555Y007430D03*
X056555Y003430D03*
X056555Y002430D03*
X055555Y002430D03*
X055555Y003430D03*
X050180Y003430D03*
X050180Y002430D03*
X049180Y002430D03*
X048180Y002430D03*
X048180Y003430D03*
X049180Y003430D03*
X047180Y003430D03*
X047180Y002430D03*
X046180Y002430D03*
X045180Y002430D03*
X045180Y003430D03*
X046180Y003430D03*
X044180Y003430D03*
X043180Y003430D03*
X043180Y002430D03*
X044180Y002430D03*
X042180Y002430D03*
X042180Y003430D03*
X041180Y003430D03*
X040180Y003430D03*
X040180Y002430D03*
X041180Y002430D03*
X039180Y002430D03*
X038180Y002430D03*
X038180Y003430D03*
X039180Y003430D03*
X037180Y003430D03*
X036180Y003430D03*
X036180Y002430D03*
X037180Y002430D03*
X035180Y002430D03*
X035180Y003430D03*
X030180Y003430D03*
X029180Y003430D03*
X029180Y002430D03*
X030180Y002430D03*
X028180Y002430D03*
X028180Y003430D03*
X027180Y003430D03*
X026180Y003430D03*
X026180Y002430D03*
X027180Y002430D03*
X025180Y002430D03*
X024180Y002430D03*
X024180Y003430D03*
X025180Y003430D03*
X023180Y003430D03*
X022180Y003430D03*
X022180Y002430D03*
X023180Y002430D03*
X021180Y002430D03*
X021180Y003430D03*
X020180Y003430D03*
X019180Y003430D03*
X019180Y002430D03*
X020180Y002430D03*
X018180Y002430D03*
X017180Y002430D03*
X017180Y003430D03*
X018180Y003430D03*
X016180Y003430D03*
X016180Y002430D03*
X015180Y002430D03*
X014180Y002430D03*
X014180Y003430D03*
X015180Y003430D03*
X013180Y003430D03*
X012180Y003430D03*
X012180Y002430D03*
X013180Y002430D03*
X011180Y002430D03*
X010180Y002430D03*
X010180Y003430D03*
X011180Y003430D03*
X009180Y003430D03*
X009180Y002430D03*
X008180Y002430D03*
X007180Y002430D03*
X007180Y003430D03*
X008180Y003430D03*
X004680Y003430D03*
X004680Y002430D03*
X003680Y002430D03*
X003680Y003430D03*
X003055Y026430D03*
X002055Y026430D03*
X002055Y027430D03*
X003055Y027430D03*
X003055Y028430D03*
X002055Y028430D03*
X002055Y029430D03*
X003055Y029430D03*
X003055Y030430D03*
X002055Y030430D03*
X002055Y031430D03*
X003055Y031430D03*
X003055Y032430D03*
X002055Y032430D03*
X002055Y033430D03*
X003055Y033430D03*
X003680Y036430D03*
X004680Y036430D03*
X004680Y037430D03*
X003680Y037430D03*
D14*
X058680Y004430D03*
D15*
X058680Y003430D03*
D16*
X051555Y010430D03*
X035055Y035805D03*
X036055Y036305D03*
X038055Y036430D03*
X039055Y036430D03*
X047180Y036430D03*
X048180Y036430D03*
X050180Y036430D03*
X051180Y036430D03*
X003930Y033180D03*
X004180Y030430D03*
D17*
X004430Y032555D03*
X024930Y013305D03*
X025930Y013305D03*
X026930Y013305D03*
X027930Y013305D03*
X037055Y013305D03*
X038055Y013305D03*
X039055Y013305D03*
X040055Y013305D03*
X043680Y013430D03*
X050055Y008430D03*
X050805Y008930D03*
X052305Y010930D03*
X052805Y012430D03*
X053430Y012930D03*
X039805Y006305D03*
X015805Y012430D03*
X014805Y012430D03*
X013805Y012430D03*
X012805Y012430D03*
X055555Y025555D03*
X055555Y027055D03*
D18*
X061680Y025430D03*
M02*
