%
M48
M72
T01C0.0200
T02C0.0236
T03C0.0315
T04C0.0320
T05C0.0360
T06C0.1100
%
T01
X15348Y16828
X22348Y19428
X20148Y22728
X18148Y24228
X20448Y26128
X20448Y26628
X21448Y27128
X23248Y27928
X25248Y28128
X26448Y27228
X28748Y28128
X29148Y27328
X30848Y27328
X31848Y27728
X32848Y26928
X31548Y24528
X29748Y24328
X29448Y22328
X28248Y22728
X26548Y20828
X22448Y25628
X24948Y30628
X25948Y31628
X26948Y31628
X28548Y30828
X28948Y31328
X26748Y35228
X22748Y35628
X21448Y36428
X18548Y36828
X19848Y32328
X18348Y31828
X17548Y31028
X22848Y31628
X23748Y32128
X29948Y37828
X25748Y38128
X39248Y30128
X39848Y25928
X35348Y21928
X38348Y21028
X38348Y20028
X38348Y17828
X39348Y16428
X38248Y16028
X37848Y14628
X31848Y12028
X53448Y19528
X54548Y23528
X57048Y24628
X52448Y29728
X52548Y33028
X43448Y39928
X43048Y36128
X64248Y31128
X62748Y19528
T02
X32848Y9428
T03
X38848Y26568
X39848Y26568
X39348Y37318
T04
X42348Y40428
X45348Y40428
X46848Y40428
X46848Y39428
X46848Y38428
X46848Y37428
X46848Y36428
X46848Y35428
X46848Y34428
X49848Y34428
X49848Y35428
X49848Y36428
X49848Y37428
X49848Y38428
X49848Y39428
X49848Y40428
X49348Y41928
X47348Y41928
X54848Y41428
X54848Y40428
X54848Y39428
X54848Y38428
X54848Y37428
X54848Y36428
X54848Y35428
X54848Y34428
X54848Y33428
X57848Y33428
X57848Y34428
X57848Y35428
X57848Y36428
X57848Y37428
X57848Y38428
X57848Y39428
X57848Y40428
X57848Y41428
X57848Y42428
X57348Y43928
X55348Y43928
X54848Y42428
X59848Y41428
X59848Y40428
X59848Y39428
X59848Y38428
X59848Y37428
X59848Y36428
X59848Y35428
X59848Y34428
X59848Y33428
X60848Y29928
X60848Y28928
X60848Y27928
X60848Y26928
X60848Y25928
X60848Y24928
X60848Y23928
X60848Y22928
X60348Y21428
X58348Y21428
X57848Y22928
X57848Y23928
X57848Y24928
X57848Y25928
X57848Y26928
X57848Y27928
X57848Y28928
X57848Y29928
X52348Y28928
X52348Y27928
X52348Y26928
X52348Y25928
X52348Y24928
X52348Y23928
X52348Y22928
X51848Y21428
X49848Y21428
X49348Y22928
X49348Y23928
X49348Y24928
X49348Y25928
X49348Y26928
X49348Y27928
X49348Y28928
X42348Y24428
X42348Y23428
X42348Y22428
X42348Y21428
X42348Y20428
X42348Y19428
X42348Y18428
X42348Y17428
X42348Y16428
X42348Y15428
X42348Y14428
X42348Y13428
X42348Y12428
X42348Y11428
X43848Y12428
X43848Y13428
X39348Y9928
X37348Y9928
X36348Y11428
X36348Y12428
X36348Y13428
X36348Y14428
X36348Y15428
X36348Y16428
X36348Y17428
X36348Y18428
X36348Y19428
X36348Y20428
X36348Y21428
X36348Y22428
X36348Y23428
X36348Y24428
X32348Y23428
X30848Y23428
X29848Y23428
X28848Y23428
X27848Y23428
X26848Y23428
X25848Y23428
X24848Y23428
X23848Y23428
X22848Y23428
X21848Y23428
X21848Y26428
X22848Y26428
X23848Y26428
X24848Y26428
X25848Y26428
X26848Y26428
X27848Y26428
X28848Y26428
X29848Y26428
X30848Y26428
X32348Y25428
X31348Y29928
X30348Y29928
X29348Y29928
X28348Y29928
X27348Y29928
X26348Y29928
X25348Y29928
X24348Y29928
X23348Y29928
X22348Y29928
X20848Y29928
X20848Y31928
X22348Y32928
X23348Y32928
X24348Y32928
X25348Y32928
X26348Y32928
X27348Y32928
X28348Y32928
X29348Y32928
X30348Y32928
X31348Y32928
X31348Y36428
X30348Y36428
X29348Y36428
X28348Y36428
X27348Y36428
X26348Y36428
X25348Y36428
X24348Y36428
X23348Y36428
X22348Y36428
X22348Y39428
X23348Y39428
X24348Y39428
X25348Y39428
X26348Y39428
X27348Y39428
X28348Y39428
X29348Y39428
X30348Y39428
X31348Y39428
X21348Y39428
X19348Y39428
X16848Y36428
X16848Y35428
X16848Y34428
X16848Y33428
X16848Y32428
X16848Y31428
X16848Y30428
X16848Y29428
X16848Y28428
X10848Y29428
X10848Y30428
X10848Y31428
X10848Y32428
X10848Y33428
X10848Y34428
X10848Y35428
X10848Y36428
X10848Y37428
X10848Y26428
X10848Y25428
X7848Y25428
X7848Y26428
X7848Y21428
X7848Y20428
X6848Y18428
X6848Y17428
X6848Y15928
X6848Y12928
X10848Y16428
X10848Y19428
X10848Y20428
X10848Y21428
X16848Y20428
X16848Y19428
X19848Y20428
X16848Y16428
X21848Y15928
X22848Y15928
X23848Y15928
X24848Y15928
X25848Y15928
X26848Y15928
X27848Y15928
X29348Y14928
X29348Y12928
X27848Y12928
X26848Y12928
X25848Y12928
X24848Y12928
X23848Y12928
X22848Y12928
X21848Y12928
X49348Y12928
X49348Y13928
X49348Y14928
X49348Y15928
X49348Y16928
X49348Y17928
X49348Y18928
X52348Y18928
X52348Y17928
X52348Y16928
X52348Y15928
X52348Y14928
X52348Y13928
X52348Y12928
X51848Y11428
X49848Y11428
X57848Y12928
X57848Y13928
X57848Y14928
X57848Y15928
X57848Y16928
X57848Y17928
X57848Y18928
X60848Y18928
X60848Y17928
X60848Y16928
X60848Y15928
X60848Y14928
X60848Y13928
X60848Y12928
X60348Y11428
X58348Y11428
X61848Y9928
X63848Y9928
T05
X63848Y11613
X63848Y12613
X63848Y13613
X63848Y14613
X63848Y15613
X63848Y16613
X63848Y17613
X63848Y18613
X63848Y19613
X63848Y20613
X63848Y21613
X63848Y22613
X63848Y23613
X63848Y24613
X63848Y25613
X63848Y26613
X63848Y27613
X63848Y28613
X63848Y29613
X63848Y30613
X63848Y31613
X63848Y32613
X63848Y33613
X63848Y34613
X63848Y35613
X63848Y36613
X63848Y37613
X63848Y38613
X63848Y39613
X63848Y40613
X63848Y41613
X63848Y42613
X65848Y42613
X65848Y41613
X65848Y40613
X65848Y39613
X65848Y38613
X65848Y37613
X65848Y36613
X65848Y35613
X65848Y34613
X65848Y33613
X65848Y32613
X65848Y31613
X65848Y30613
X65848Y29613
X65848Y28613
X65848Y27613
X65848Y26613
X65848Y25613
X65848Y24613
X65848Y23613
X65848Y22613
X65848Y21613
X65848Y20613
X65848Y19613
X65848Y18613
X65848Y17613
X65848Y16613
X65848Y15613
X65848Y14613
X65848Y13613
X65848Y12613
X65848Y11613
X14348Y18428
X14348Y19428
X14348Y20428
X14348Y21428
X14348Y22428
X14348Y23428
X14348Y24428
X14348Y25428
X14348Y26428
X14348Y27428
X14348Y28428
X14348Y29428
X14348Y30428
X14348Y31428
X14348Y32428
X14348Y33428
X14348Y34428
X14348Y35428
X14348Y36428
X14348Y37428
X13348Y37428
X13348Y36428
X13348Y35428
X13348Y34428
X13348Y33428
X13348Y32428
X13348Y31428
X13348Y30428
X13348Y29428
X13348Y28428
X13348Y27428
X13348Y26428
X13348Y25428
X13348Y24428
X13348Y23428
X13348Y22428
X13348Y21428
X13348Y20428
X13348Y19428
X13348Y18428
T06
X6348Y9613
X6348Y44613
X66848Y44613
X66848Y9613
M30
