G75*
G70*
%OFA0B0*%
%FSLAX24Y24*%
%IPPOS*%
%LPD*%
%AMOC8*
5,1,8,0,0,1.08239X$1,22.5*
%
%ADD10C,0.0060*%
%ADD11C,0.0710*%
%ADD12OC8,0.0710*%
%ADD13C,0.1180*%
%ADD14C,0.0640*%
%ADD15C,0.0640*%
%ADD16OC8,0.0680*%
%ADD17OC8,0.0640*%
%ADD18C,0.0830*%
%ADD19OC8,0.0830*%
%ADD20C,0.0635*%
D10*
X004948Y007423D02*
X004948Y010423D01*
X004948Y007423D02*
X007948Y007423D01*
X004948Y043803D02*
X004948Y046803D01*
X007948Y046803D01*
X064948Y046803D02*
X067948Y046803D01*
X067948Y043803D01*
X067948Y010423D02*
X067948Y007423D01*
X064948Y007423D01*
D11*
X065848Y042613D03*
D12*
X065848Y041613D03*
X065848Y040613D03*
X065848Y039613D03*
X065848Y038613D03*
X065848Y037613D03*
X065848Y036613D03*
X065848Y035613D03*
X065848Y034613D03*
X065848Y033613D03*
X065848Y032613D03*
X065848Y031613D03*
X065848Y030613D03*
X065848Y029613D03*
X065848Y028613D03*
X065848Y027613D03*
X065848Y026613D03*
X065848Y025613D03*
X065848Y024613D03*
X065848Y023613D03*
X065848Y022613D03*
X065848Y021613D03*
X065848Y020613D03*
X065848Y019613D03*
X065848Y018613D03*
X065848Y017613D03*
X065848Y016613D03*
X065848Y015613D03*
X065848Y014613D03*
X065848Y013613D03*
X065848Y012613D03*
X065848Y011613D03*
X063848Y011613D03*
X063848Y012613D03*
X063848Y013613D03*
X063848Y014613D03*
X063848Y015613D03*
X063848Y016613D03*
X063848Y017613D03*
X063848Y018613D03*
X063848Y019613D03*
X063848Y020613D03*
X063848Y021613D03*
X063848Y022613D03*
X063848Y023613D03*
X063848Y024613D03*
X063848Y025613D03*
X063848Y026613D03*
X063848Y027613D03*
X063848Y028613D03*
X063848Y029613D03*
X063848Y030613D03*
X063848Y031613D03*
X063848Y032613D03*
X063848Y033613D03*
X063848Y034613D03*
X063848Y035613D03*
X063848Y036613D03*
X063848Y037613D03*
X063848Y038613D03*
X063848Y039613D03*
X063848Y040613D03*
X063848Y041613D03*
X063848Y042613D03*
D13*
X066848Y044613D03*
X066848Y009613D03*
X006348Y009613D03*
X006348Y044613D03*
D14*
X010568Y037428D02*
X011128Y037428D01*
X011128Y036428D02*
X010568Y036428D01*
X010568Y035428D02*
X011128Y035428D01*
X011128Y034428D02*
X010568Y034428D01*
X010568Y033428D02*
X011128Y033428D01*
X011128Y032428D02*
X010568Y032428D01*
X010568Y031428D02*
X011128Y031428D01*
X011128Y030428D02*
X010568Y030428D01*
X010568Y029428D02*
X011128Y029428D01*
X016568Y029428D02*
X017128Y029428D01*
X017128Y028428D02*
X016568Y028428D01*
X016568Y030428D02*
X017128Y030428D01*
X017128Y031428D02*
X016568Y031428D01*
X016568Y032428D02*
X017128Y032428D01*
X017128Y033428D02*
X016568Y033428D01*
X016568Y034428D02*
X017128Y034428D01*
X017128Y035428D02*
X016568Y035428D01*
X016568Y036428D02*
X017128Y036428D01*
X022348Y036148D02*
X022348Y036708D01*
X023348Y036708D02*
X023348Y036148D01*
X024348Y036148D02*
X024348Y036708D01*
X025348Y036708D02*
X025348Y036148D01*
X026348Y036148D02*
X026348Y036708D01*
X027348Y036708D02*
X027348Y036148D01*
X028348Y036148D02*
X028348Y036708D01*
X029348Y036708D02*
X029348Y036148D01*
X030348Y036148D02*
X030348Y036708D01*
X031348Y036708D02*
X031348Y036148D01*
X031348Y033208D02*
X031348Y032648D01*
X030348Y032648D02*
X030348Y033208D01*
X029348Y033208D02*
X029348Y032648D01*
X028348Y032648D02*
X028348Y033208D01*
X027348Y033208D02*
X027348Y032648D01*
X026348Y032648D02*
X026348Y033208D01*
X025348Y033208D02*
X025348Y032648D01*
X024348Y032648D02*
X024348Y033208D01*
X023348Y033208D02*
X023348Y032648D01*
X022348Y032648D02*
X022348Y033208D01*
X022348Y030208D02*
X022348Y029648D01*
X023348Y029648D02*
X023348Y030208D01*
X024348Y030208D02*
X024348Y029648D01*
X025348Y029648D02*
X025348Y030208D01*
X026348Y030208D02*
X026348Y029648D01*
X027348Y029648D02*
X027348Y030208D01*
X028348Y030208D02*
X028348Y029648D01*
X029348Y029648D02*
X029348Y030208D01*
X030348Y030208D02*
X030348Y029648D01*
X031348Y029648D02*
X031348Y030208D01*
X030848Y026708D02*
X030848Y026148D01*
X029848Y026148D02*
X029848Y026708D01*
X028848Y026708D02*
X028848Y026148D01*
X027848Y026148D02*
X027848Y026708D01*
X026848Y026708D02*
X026848Y026148D01*
X025848Y026148D02*
X025848Y026708D01*
X024848Y026708D02*
X024848Y026148D01*
X023848Y026148D02*
X023848Y026708D01*
X022848Y026708D02*
X022848Y026148D01*
X021848Y026148D02*
X021848Y026708D01*
X021848Y023708D02*
X021848Y023148D01*
X022848Y023148D02*
X022848Y023708D01*
X023848Y023708D02*
X023848Y023148D01*
X024848Y023148D02*
X024848Y023708D01*
X025848Y023708D02*
X025848Y023148D01*
X026848Y023148D02*
X026848Y023708D01*
X027848Y023708D02*
X027848Y023148D01*
X028848Y023148D02*
X028848Y023708D01*
X029848Y023708D02*
X029848Y023148D01*
X030848Y023148D02*
X030848Y023708D01*
X036068Y023428D02*
X036628Y023428D01*
X036628Y022428D02*
X036068Y022428D01*
X036068Y021428D02*
X036628Y021428D01*
X036628Y020428D02*
X036068Y020428D01*
X036068Y019428D02*
X036628Y019428D01*
X036628Y018428D02*
X036068Y018428D01*
X036068Y017428D02*
X036628Y017428D01*
X036628Y016428D02*
X036068Y016428D01*
X036068Y015428D02*
X036628Y015428D01*
X036628Y014428D02*
X036068Y014428D01*
X036068Y013428D02*
X036628Y013428D01*
X036628Y012428D02*
X036068Y012428D01*
X036068Y011428D02*
X036628Y011428D01*
X042068Y011428D02*
X042628Y011428D01*
X042628Y012428D02*
X042068Y012428D01*
X042068Y013428D02*
X042628Y013428D01*
X042628Y014428D02*
X042068Y014428D01*
X042068Y015428D02*
X042628Y015428D01*
X042628Y016428D02*
X042068Y016428D01*
X042068Y017428D02*
X042628Y017428D01*
X042628Y018428D02*
X042068Y018428D01*
X042068Y019428D02*
X042628Y019428D01*
X042628Y020428D02*
X042068Y020428D01*
X042068Y021428D02*
X042628Y021428D01*
X042628Y022428D02*
X042068Y022428D01*
X042068Y023428D02*
X042628Y023428D01*
X042628Y024428D02*
X042068Y024428D01*
X036628Y024428D02*
X036068Y024428D01*
X027848Y016208D02*
X027848Y015648D01*
X026848Y015648D02*
X026848Y016208D01*
X025848Y016208D02*
X025848Y015648D01*
X024848Y015648D02*
X024848Y016208D01*
X023848Y016208D02*
X023848Y015648D01*
X022848Y015648D02*
X022848Y016208D01*
X021848Y016208D02*
X021848Y015648D01*
X021848Y013208D02*
X021848Y012648D01*
X022848Y012648D02*
X022848Y013208D01*
X023848Y013208D02*
X023848Y012648D01*
X024848Y012648D02*
X024848Y013208D01*
X025848Y013208D02*
X025848Y012648D01*
X026848Y012648D02*
X026848Y013208D01*
X027848Y013208D02*
X027848Y012648D01*
X049068Y012928D02*
X049628Y012928D01*
X049628Y013928D02*
X049068Y013928D01*
X049068Y014928D02*
X049628Y014928D01*
X049628Y015928D02*
X049068Y015928D01*
X049068Y016928D02*
X049628Y016928D01*
X049628Y017928D02*
X049068Y017928D01*
X049068Y018928D02*
X049628Y018928D01*
X052068Y018928D02*
X052628Y018928D01*
X052628Y017928D02*
X052068Y017928D01*
X052068Y016928D02*
X052628Y016928D01*
X052628Y015928D02*
X052068Y015928D01*
X052068Y014928D02*
X052628Y014928D01*
X052628Y013928D02*
X052068Y013928D01*
X052068Y012928D02*
X052628Y012928D01*
X057568Y012928D02*
X058128Y012928D01*
X058128Y013928D02*
X057568Y013928D01*
X057568Y014928D02*
X058128Y014928D01*
X058128Y015928D02*
X057568Y015928D01*
X057568Y016928D02*
X058128Y016928D01*
X058128Y017928D02*
X057568Y017928D01*
X057568Y018928D02*
X058128Y018928D01*
X060568Y018928D02*
X061128Y018928D01*
X061128Y017928D02*
X060568Y017928D01*
X060568Y016928D02*
X061128Y016928D01*
X061128Y015928D02*
X060568Y015928D01*
X060568Y014928D02*
X061128Y014928D01*
X061128Y013928D02*
X060568Y013928D01*
X060568Y012928D02*
X061128Y012928D01*
X061128Y022928D02*
X060568Y022928D01*
X060568Y023928D02*
X061128Y023928D01*
X061128Y024928D02*
X060568Y024928D01*
X060568Y025928D02*
X061128Y025928D01*
X061128Y026928D02*
X060568Y026928D01*
X060568Y027928D02*
X061128Y027928D01*
X061128Y028928D02*
X060568Y028928D01*
X060568Y029928D02*
X061128Y029928D01*
X058128Y029928D02*
X057568Y029928D01*
X057568Y028928D02*
X058128Y028928D01*
X058128Y027928D02*
X057568Y027928D01*
X057568Y026928D02*
X058128Y026928D01*
X058128Y025928D02*
X057568Y025928D01*
X057568Y024928D02*
X058128Y024928D01*
X058128Y023928D02*
X057568Y023928D01*
X057568Y022928D02*
X058128Y022928D01*
X052628Y022928D02*
X052068Y022928D01*
X052068Y023928D02*
X052628Y023928D01*
X052628Y024928D02*
X052068Y024928D01*
X052068Y025928D02*
X052628Y025928D01*
X052628Y026928D02*
X052068Y026928D01*
X052068Y027928D02*
X052628Y027928D01*
X052628Y028928D02*
X052068Y028928D01*
X049628Y028928D02*
X049068Y028928D01*
X049068Y027928D02*
X049628Y027928D01*
X049628Y026928D02*
X049068Y026928D01*
X049068Y025928D02*
X049628Y025928D01*
X049628Y024928D02*
X049068Y024928D01*
X049068Y023928D02*
X049628Y023928D01*
X049628Y022928D02*
X049068Y022928D01*
X054568Y033428D02*
X055128Y033428D01*
X055128Y034428D02*
X054568Y034428D01*
X054568Y035428D02*
X055128Y035428D01*
X055128Y036428D02*
X054568Y036428D01*
X054568Y037428D02*
X055128Y037428D01*
X055128Y038428D02*
X054568Y038428D01*
X054568Y039428D02*
X055128Y039428D01*
X055128Y040428D02*
X054568Y040428D01*
X054568Y041428D02*
X055128Y041428D01*
X055128Y042428D02*
X054568Y042428D01*
X057568Y042428D02*
X058128Y042428D01*
X058128Y041428D02*
X057568Y041428D01*
X057568Y040428D02*
X058128Y040428D01*
X058128Y039428D02*
X057568Y039428D01*
X057568Y038428D02*
X058128Y038428D01*
X058128Y037428D02*
X057568Y037428D01*
X057568Y036428D02*
X058128Y036428D01*
X058128Y035428D02*
X057568Y035428D01*
X057568Y034428D02*
X058128Y034428D01*
X058128Y033428D02*
X057568Y033428D01*
X059568Y033428D02*
X060128Y033428D01*
X060128Y034428D02*
X059568Y034428D01*
X059568Y035428D02*
X060128Y035428D01*
X060128Y036428D02*
X059568Y036428D01*
X059568Y037428D02*
X060128Y037428D01*
X060128Y038428D02*
X059568Y038428D01*
X059568Y039428D02*
X060128Y039428D01*
X060128Y040428D02*
X059568Y040428D01*
X059568Y041428D02*
X060128Y041428D01*
X050128Y040428D02*
X049568Y040428D01*
X049568Y039428D02*
X050128Y039428D01*
X050128Y038428D02*
X049568Y038428D01*
X049568Y037428D02*
X050128Y037428D01*
X050128Y036428D02*
X049568Y036428D01*
X049568Y035428D02*
X050128Y035428D01*
X050128Y034428D02*
X049568Y034428D01*
X047128Y034428D02*
X046568Y034428D01*
X046568Y035428D02*
X047128Y035428D01*
X047128Y036428D02*
X046568Y036428D01*
X046568Y037428D02*
X047128Y037428D01*
X047128Y038428D02*
X046568Y038428D01*
X046568Y039428D02*
X047128Y039428D01*
X047128Y040428D02*
X046568Y040428D01*
X031348Y039708D02*
X031348Y039148D01*
X030348Y039148D02*
X030348Y039708D01*
X029348Y039708D02*
X029348Y039148D01*
X028348Y039148D02*
X028348Y039708D01*
X027348Y039708D02*
X027348Y039148D01*
X026348Y039148D02*
X026348Y039708D01*
X025348Y039708D02*
X025348Y039148D01*
X024348Y039148D02*
X024348Y039708D01*
X023348Y039708D02*
X023348Y039148D01*
X022348Y039148D02*
X022348Y039708D01*
D15*
X043848Y013428D03*
X043848Y012428D03*
D16*
X014348Y018428D03*
X014348Y019428D03*
X014348Y020428D03*
X014348Y021428D03*
X014348Y022428D03*
X014348Y023428D03*
X014348Y024428D03*
X014348Y025428D03*
X014348Y026428D03*
X014348Y027428D03*
X014348Y028428D03*
X014348Y029428D03*
X014348Y030428D03*
X014348Y031428D03*
X014348Y032428D03*
X014348Y033428D03*
X014348Y034428D03*
X014348Y035428D03*
X014348Y036428D03*
X014348Y037428D03*
X013348Y037428D03*
X013348Y036428D03*
X013348Y035428D03*
X013348Y034428D03*
X013348Y033428D03*
X013348Y032428D03*
X013348Y031428D03*
X013348Y030428D03*
X013348Y029428D03*
X013348Y028428D03*
X013348Y027428D03*
X013348Y026428D03*
X013348Y025428D03*
X013348Y024428D03*
X013348Y023428D03*
X013348Y022428D03*
X013348Y021428D03*
X013348Y020428D03*
X013348Y019428D03*
X013348Y018428D03*
D17*
X010848Y019428D03*
X010848Y020428D03*
X010848Y021428D03*
X007848Y021428D03*
X007848Y020428D03*
X006848Y018428D03*
X006848Y017428D03*
X006848Y015928D03*
X006848Y012928D03*
X010848Y016428D03*
X016848Y016428D03*
X016848Y019428D03*
X016848Y020428D03*
X019848Y020428D03*
X010848Y025428D03*
X010848Y026428D03*
X007848Y026428D03*
X007848Y025428D03*
X020848Y029928D03*
X020848Y031928D03*
X021348Y039428D03*
X019348Y039428D03*
X032348Y025428D03*
X032348Y023428D03*
X029348Y014928D03*
X029348Y012928D03*
X037348Y009928D03*
X039348Y009928D03*
X049848Y011428D03*
X051848Y011428D03*
X058348Y011428D03*
X060348Y011428D03*
X060348Y021428D03*
X058348Y021428D03*
X051848Y021428D03*
X049848Y021428D03*
X045348Y040428D03*
X047348Y041928D03*
X049348Y041928D03*
X055348Y043928D03*
X057348Y043928D03*
X042348Y040428D03*
D18*
X063848Y009928D03*
D19*
X061848Y009928D03*
D20*
X039848Y026568D03*
X038848Y026568D03*
X039348Y037318D03*
M02*
