G75*
%MOIN*%
%OFA0B0*%
%FSLAX24Y24*%
%IPPOS*%
%LPD*%
%AMOC8*
5,1,8,0,0,1.08239X$1,22.5*
%
%ADD10C,0.0080*%
%ADD11C,0.0120*%
%ADD12R,0.0200X0.0800*%
D10*
X006890Y005890D02*
X007140Y005640D01*
X007640Y005640D01*
X007890Y005890D01*
X007890Y007390D01*
X008140Y007640D01*
X008640Y007640D01*
X008890Y007390D01*
X008890Y005890D01*
X008640Y005640D01*
X008140Y005640D01*
X007890Y005890D01*
X006890Y005890D02*
X006890Y007390D01*
X007140Y007640D01*
X007640Y007640D01*
X007890Y007390D01*
X007851Y007930D02*
X008061Y007930D01*
X008131Y008000D01*
X008131Y008280D01*
X008061Y008350D01*
X007851Y008350D01*
X007851Y007930D01*
X007671Y007930D02*
X007671Y008350D01*
X007390Y008350D02*
X007671Y007930D01*
X007390Y007930D02*
X007390Y008350D01*
X007210Y008280D02*
X007140Y008350D01*
X007000Y008350D01*
X006930Y008280D01*
X006930Y008000D01*
X007000Y007930D01*
X007140Y007930D01*
X007210Y008000D01*
X007210Y008140D01*
X007070Y008140D01*
X008311Y008280D02*
X008381Y008350D01*
X008521Y008350D01*
X008591Y008280D01*
X008591Y008210D01*
X008311Y007930D01*
X008591Y007930D01*
X009280Y007907D02*
X009280Y008047D01*
X009350Y008117D01*
X009420Y008297D02*
X009280Y008437D01*
X009700Y008437D01*
X009700Y008297D02*
X009700Y008578D01*
X009630Y008758D02*
X009700Y008828D01*
X009700Y008968D01*
X009630Y009038D01*
X009490Y009038D01*
X009420Y008968D01*
X009420Y008898D01*
X009490Y008758D01*
X009280Y008758D01*
X009280Y009038D01*
X009890Y009040D02*
X009890Y009790D01*
X017890Y009790D01*
X017890Y007490D01*
X009890Y007490D01*
X009890Y008240D01*
X009700Y008047D02*
X009630Y008117D01*
X009700Y008047D02*
X009700Y007907D01*
X009630Y007837D01*
X009350Y007837D01*
X009280Y007907D01*
X009280Y007670D02*
X009280Y007530D01*
X009280Y007600D02*
X009700Y007600D01*
X009700Y007530D02*
X009700Y007670D01*
X009890Y008240D02*
X009929Y008242D01*
X009968Y008248D01*
X010006Y008257D01*
X010043Y008270D01*
X010079Y008287D01*
X010112Y008307D01*
X010144Y008331D01*
X010173Y008357D01*
X010199Y008386D01*
X010223Y008418D01*
X010243Y008451D01*
X010260Y008487D01*
X010273Y008524D01*
X010282Y008562D01*
X010288Y008601D01*
X010290Y008640D01*
X010288Y008679D01*
X010282Y008718D01*
X010273Y008756D01*
X010260Y008793D01*
X010243Y008829D01*
X010223Y008862D01*
X010199Y008894D01*
X010173Y008923D01*
X010144Y008949D01*
X010112Y008973D01*
X010079Y008993D01*
X010043Y009010D01*
X010006Y009023D01*
X009968Y009032D01*
X009929Y009038D01*
X009890Y009040D01*
X009465Y009865D02*
X009465Y011165D01*
X009463Y011191D01*
X009458Y011217D01*
X009450Y011242D01*
X009438Y011265D01*
X009424Y011287D01*
X009406Y011306D01*
X009387Y011324D01*
X009365Y011338D01*
X009342Y011350D01*
X009317Y011358D01*
X009291Y011363D01*
X009265Y011365D01*
X009015Y011015D02*
X009015Y010645D01*
X009015Y010395D02*
X009015Y010015D01*
X008765Y009665D02*
X008739Y009667D01*
X008713Y009672D01*
X008688Y009680D01*
X008665Y009692D01*
X008643Y009706D01*
X008624Y009724D01*
X008606Y009743D01*
X008592Y009765D01*
X008580Y009788D01*
X008572Y009813D01*
X008567Y009839D01*
X008565Y009865D01*
X008565Y011165D01*
X008567Y011191D01*
X008572Y011217D01*
X008580Y011242D01*
X008592Y011265D01*
X008606Y011287D01*
X008624Y011306D01*
X008643Y011324D01*
X008665Y011338D01*
X008688Y011350D01*
X008713Y011358D01*
X008739Y011363D01*
X008765Y011365D01*
X007265Y011390D02*
X007265Y010890D01*
X007015Y010640D01*
X007265Y010390D01*
X007265Y009890D01*
X007015Y009640D01*
X005515Y009640D01*
X005265Y009890D01*
X005265Y010390D01*
X005515Y010640D01*
X007015Y010640D01*
X007265Y011390D02*
X007015Y011640D01*
X005515Y011640D01*
X005265Y011390D01*
X005265Y010890D01*
X005515Y010640D01*
X005515Y011640D02*
X005265Y011890D01*
X005265Y012390D01*
X005515Y012640D01*
X007015Y012640D01*
X007265Y012390D01*
X007265Y011890D01*
X007015Y011640D01*
X007015Y012640D02*
X007265Y012890D01*
X007265Y013390D01*
X007015Y013640D01*
X005515Y013640D01*
X005265Y013390D01*
X005265Y012890D01*
X005515Y012640D01*
X005515Y013640D02*
X005265Y013890D01*
X005265Y014390D01*
X005515Y014640D01*
X007015Y014640D01*
X007265Y014390D01*
X007265Y013890D01*
X007015Y013640D01*
X007015Y014640D02*
X007265Y014890D01*
X007265Y015390D01*
X007015Y015640D01*
X005515Y015640D01*
X005265Y015390D01*
X005265Y014890D01*
X005515Y014640D01*
X005515Y015640D02*
X005265Y015890D01*
X005265Y016390D01*
X005515Y016640D01*
X007015Y016640D01*
X007265Y016390D01*
X007265Y015890D01*
X007015Y015640D01*
X007555Y016439D02*
X007555Y016579D01*
X007555Y016509D02*
X007905Y016509D01*
X007975Y016439D01*
X007975Y016369D01*
X007905Y016299D01*
X007975Y016759D02*
X007555Y016759D01*
X007555Y016969D01*
X007625Y017039D01*
X007765Y017039D01*
X007835Y016969D01*
X007835Y016759D01*
X007765Y017220D02*
X007765Y017500D01*
X007975Y017430D02*
X007555Y017430D01*
X007765Y017220D01*
X007265Y017390D02*
X007265Y016890D01*
X007015Y016640D01*
X007265Y017390D02*
X007015Y017640D01*
X005515Y017640D01*
X005265Y017390D01*
X005265Y016890D01*
X005515Y016640D01*
X008565Y014915D02*
X008565Y013615D01*
X008567Y013589D01*
X008572Y013563D01*
X008580Y013538D01*
X008592Y013515D01*
X008606Y013493D01*
X008624Y013474D01*
X008643Y013456D01*
X008665Y013442D01*
X008688Y013430D01*
X008713Y013422D01*
X008739Y013417D01*
X008765Y013415D01*
X009015Y013765D02*
X009015Y014135D01*
X009015Y014385D02*
X009015Y014765D01*
X008765Y015115D02*
X008739Y015113D01*
X008713Y015108D01*
X008688Y015100D01*
X008665Y015088D01*
X008643Y015074D01*
X008624Y015056D01*
X008606Y015037D01*
X008592Y015015D01*
X008580Y014992D01*
X008572Y014967D01*
X008567Y014941D01*
X008565Y014915D01*
X009265Y015115D02*
X009291Y015113D01*
X009317Y015108D01*
X009342Y015100D01*
X009365Y015088D01*
X009387Y015074D01*
X009406Y015056D01*
X009424Y015037D01*
X009438Y015015D01*
X009450Y014992D01*
X009458Y014967D01*
X009463Y014941D01*
X009465Y014915D01*
X009465Y013615D01*
X009463Y013589D01*
X009458Y013563D01*
X009450Y013538D01*
X009438Y013515D01*
X009424Y013493D01*
X009406Y013474D01*
X009387Y013456D01*
X009365Y013442D01*
X009342Y013430D01*
X009317Y013422D01*
X009291Y013417D01*
X009265Y013415D01*
X009890Y013365D02*
X009890Y012615D01*
X017890Y012615D01*
X017890Y014915D01*
X009890Y014915D01*
X009890Y014165D01*
X009929Y014163D01*
X009968Y014157D01*
X010006Y014148D01*
X010043Y014135D01*
X010079Y014118D01*
X010112Y014098D01*
X010144Y014074D01*
X010173Y014048D01*
X010199Y014019D01*
X010223Y013987D01*
X010243Y013954D01*
X010260Y013918D01*
X010273Y013881D01*
X010282Y013843D01*
X010288Y013804D01*
X010290Y013765D01*
X010288Y013726D01*
X010282Y013687D01*
X010273Y013649D01*
X010260Y013612D01*
X010243Y013576D01*
X010223Y013543D01*
X010199Y013511D01*
X010173Y013482D01*
X010144Y013456D01*
X010112Y013432D01*
X010079Y013412D01*
X010043Y013395D01*
X010006Y013382D01*
X009968Y013373D01*
X009929Y013367D01*
X009890Y013365D01*
X010980Y013555D02*
X010980Y013625D01*
X011260Y013905D01*
X011260Y013975D01*
X010980Y013975D01*
X011440Y013765D02*
X011721Y013765D01*
X011651Y013555D02*
X011651Y013975D01*
X011440Y013765D01*
X011901Y013975D02*
X011901Y013555D01*
X012181Y013555D01*
X012361Y013625D02*
X012431Y013555D01*
X012571Y013555D01*
X012641Y013625D01*
X012641Y013695D01*
X012571Y013765D01*
X012431Y013765D01*
X012361Y013835D01*
X012361Y013905D01*
X012431Y013975D01*
X012571Y013975D01*
X012641Y013905D01*
X012822Y013835D02*
X012962Y013975D01*
X012962Y013555D01*
X012822Y013555D02*
X013102Y013555D01*
X013282Y013625D02*
X013352Y013555D01*
X013492Y013555D01*
X013562Y013625D01*
X013562Y013695D01*
X013492Y013765D01*
X013282Y013765D01*
X013282Y013625D01*
X013282Y013765D02*
X013422Y013905D01*
X013562Y013975D01*
X013742Y013905D02*
X013812Y013975D01*
X013953Y013975D01*
X014023Y013905D01*
X014023Y013835D01*
X013953Y013765D01*
X014023Y013695D01*
X014023Y013625D01*
X013953Y013555D01*
X013812Y013555D01*
X013742Y013625D01*
X013882Y013765D02*
X013953Y013765D01*
X018080Y013659D02*
X018080Y013519D01*
X018150Y013449D01*
X018430Y013449D01*
X018500Y013519D01*
X018500Y013659D01*
X018430Y013729D01*
X018500Y013909D02*
X018500Y014189D01*
X018500Y014049D02*
X018080Y014049D01*
X018220Y013909D01*
X018150Y013729D02*
X018080Y013659D01*
X018080Y013282D02*
X018080Y013142D01*
X018080Y013212D02*
X018500Y013212D01*
X018500Y013142D02*
X018500Y013282D01*
X018430Y014370D02*
X018500Y014440D01*
X018500Y014580D01*
X018430Y014650D01*
X018360Y014650D01*
X018290Y014580D01*
X018290Y014370D01*
X018430Y014370D01*
X018290Y014370D02*
X018150Y014510D01*
X018080Y014650D01*
X020780Y018030D02*
X020780Y018170D01*
X020780Y018100D02*
X021200Y018100D01*
X021200Y018030D02*
X021200Y018170D01*
X021130Y018337D02*
X021200Y018407D01*
X021200Y018547D01*
X021130Y018617D01*
X021130Y018797D02*
X021200Y018797D01*
X021130Y018797D02*
X020850Y019078D01*
X020780Y019078D01*
X020780Y018797D01*
X020850Y018617D02*
X020780Y018547D01*
X020780Y018407D01*
X020850Y018337D01*
X021130Y018337D01*
X021390Y018740D02*
X021390Y019490D01*
X021429Y019492D01*
X021468Y019498D01*
X021506Y019507D01*
X021543Y019520D01*
X021579Y019537D01*
X021612Y019557D01*
X021644Y019581D01*
X021673Y019607D01*
X021699Y019636D01*
X021723Y019668D01*
X021743Y019701D01*
X021760Y019737D01*
X021773Y019774D01*
X021782Y019812D01*
X021788Y019851D01*
X021790Y019890D01*
X021788Y019929D01*
X021782Y019968D01*
X021773Y020006D01*
X021760Y020043D01*
X021743Y020079D01*
X021723Y020112D01*
X021699Y020144D01*
X021673Y020173D01*
X021644Y020199D01*
X021612Y020223D01*
X021579Y020243D01*
X021543Y020260D01*
X021506Y020273D01*
X021468Y020282D01*
X021429Y020288D01*
X021390Y020290D01*
X021390Y021040D01*
X029390Y021040D01*
X029390Y018740D01*
X021390Y018740D01*
X020840Y019740D02*
X020840Y021040D01*
X020838Y021066D01*
X020833Y021092D01*
X020825Y021117D01*
X020813Y021140D01*
X020799Y021162D01*
X020781Y021181D01*
X020762Y021199D01*
X020740Y021213D01*
X020717Y021225D01*
X020692Y021233D01*
X020666Y021238D01*
X020640Y021240D01*
X020390Y020890D02*
X020390Y020510D01*
X020390Y020260D02*
X020390Y019890D01*
X020140Y019540D02*
X020114Y019542D01*
X020088Y019547D01*
X020063Y019555D01*
X020040Y019567D01*
X020018Y019581D01*
X019999Y019599D01*
X019981Y019618D01*
X019967Y019640D01*
X019955Y019663D01*
X019947Y019688D01*
X019942Y019714D01*
X019940Y019740D01*
X019940Y021040D01*
X019942Y021066D01*
X019947Y021092D01*
X019955Y021117D01*
X019967Y021140D01*
X019981Y021162D01*
X019999Y021181D01*
X020018Y021199D01*
X020040Y021213D01*
X020063Y021225D01*
X020088Y021233D01*
X020114Y021238D01*
X020140Y021240D01*
X017890Y021040D02*
X017890Y018740D01*
X009890Y018740D01*
X009890Y019490D01*
X009929Y019492D01*
X009968Y019498D01*
X010006Y019507D01*
X010043Y019520D01*
X010079Y019537D01*
X010112Y019557D01*
X010144Y019581D01*
X010173Y019607D01*
X010199Y019636D01*
X010223Y019668D01*
X010243Y019701D01*
X010260Y019737D01*
X010273Y019774D01*
X010282Y019812D01*
X010288Y019851D01*
X010290Y019890D01*
X010288Y019929D01*
X010282Y019968D01*
X010273Y020006D01*
X010260Y020043D01*
X010243Y020079D01*
X010223Y020112D01*
X010199Y020144D01*
X010173Y020173D01*
X010144Y020199D01*
X010112Y020223D01*
X010079Y020243D01*
X010043Y020260D01*
X010006Y020273D01*
X009968Y020282D01*
X009929Y020288D01*
X009890Y020290D01*
X009890Y021040D01*
X017890Y021040D01*
X020640Y019540D02*
X020666Y019542D01*
X020692Y019547D01*
X020717Y019555D01*
X020740Y019567D01*
X020762Y019581D01*
X020781Y019599D01*
X020799Y019618D01*
X020813Y019640D01*
X020825Y019663D01*
X020833Y019688D01*
X020838Y019714D01*
X020840Y019740D01*
X022480Y019750D02*
X022480Y019680D01*
X022480Y019750D02*
X022760Y020030D01*
X022760Y020100D01*
X022480Y020100D01*
X022940Y019890D02*
X023221Y019890D01*
X023151Y019680D02*
X023151Y020100D01*
X022940Y019890D01*
X023401Y019680D02*
X023681Y019680D01*
X023861Y019750D02*
X023931Y019680D01*
X024071Y019680D01*
X024141Y019750D01*
X024141Y019820D01*
X024071Y019890D01*
X023931Y019890D01*
X023861Y019960D01*
X023861Y020030D01*
X023931Y020100D01*
X024071Y020100D01*
X024141Y020030D01*
X024322Y019960D02*
X024462Y020100D01*
X024462Y019680D01*
X024322Y019680D02*
X024602Y019680D01*
X024782Y019890D02*
X025062Y019890D01*
X025242Y019820D02*
X025312Y019890D01*
X025453Y019890D01*
X025523Y019820D01*
X025523Y019750D01*
X025453Y019680D01*
X025312Y019680D01*
X025242Y019750D01*
X025242Y019820D01*
X025312Y019890D02*
X025242Y019960D01*
X025242Y020030D01*
X025312Y020100D01*
X025453Y020100D01*
X025523Y020030D01*
X025523Y019960D01*
X025453Y019890D01*
X025703Y019680D02*
X025703Y020100D01*
X025983Y019680D01*
X025983Y020100D01*
X024992Y020100D02*
X024992Y019680D01*
X024782Y019890D02*
X024992Y020100D01*
X023401Y020100D02*
X023401Y019680D01*
X021200Y023855D02*
X021200Y023995D01*
X021200Y023925D02*
X020780Y023925D01*
X020780Y023855D02*
X020780Y023995D01*
X020850Y024162D02*
X021130Y024162D01*
X021200Y024232D01*
X021200Y024372D01*
X021130Y024442D01*
X021130Y024622D02*
X021060Y024622D01*
X020990Y024692D01*
X020990Y024833D01*
X021060Y024903D01*
X021130Y024903D01*
X021200Y024833D01*
X021200Y024692D01*
X021130Y024622D01*
X020990Y024692D02*
X020920Y024622D01*
X020850Y024622D01*
X020780Y024692D01*
X020780Y024833D01*
X020850Y024903D01*
X020920Y024903D01*
X020990Y024833D01*
X021390Y024740D02*
X021390Y025490D01*
X021429Y025492D01*
X021468Y025498D01*
X021506Y025507D01*
X021543Y025520D01*
X021579Y025537D01*
X021612Y025557D01*
X021644Y025581D01*
X021673Y025607D01*
X021699Y025636D01*
X021723Y025668D01*
X021743Y025701D01*
X021760Y025737D01*
X021773Y025774D01*
X021782Y025812D01*
X021788Y025851D01*
X021790Y025890D01*
X021788Y025929D01*
X021782Y025968D01*
X021773Y026006D01*
X021760Y026043D01*
X021743Y026079D01*
X021723Y026112D01*
X021699Y026144D01*
X021673Y026173D01*
X021644Y026199D01*
X021612Y026223D01*
X021579Y026243D01*
X021543Y026260D01*
X021506Y026273D01*
X021468Y026282D01*
X021429Y026288D01*
X021390Y026290D01*
X021390Y027040D01*
X028390Y027040D01*
X028390Y024740D01*
X021390Y024740D01*
X020850Y024442D02*
X020780Y024372D01*
X020780Y024232D01*
X020850Y024162D01*
X020840Y025740D02*
X020840Y027040D01*
X020838Y027066D01*
X020833Y027092D01*
X020825Y027117D01*
X020813Y027140D01*
X020799Y027162D01*
X020781Y027181D01*
X020762Y027199D01*
X020740Y027213D01*
X020717Y027225D01*
X020692Y027233D01*
X020666Y027238D01*
X020640Y027240D01*
X020390Y026890D02*
X020390Y026510D01*
X020390Y026260D02*
X020390Y025890D01*
X020140Y025540D02*
X020114Y025542D01*
X020088Y025547D01*
X020063Y025555D01*
X020040Y025567D01*
X020018Y025581D01*
X019999Y025599D01*
X019981Y025618D01*
X019967Y025640D01*
X019955Y025663D01*
X019947Y025688D01*
X019942Y025714D01*
X019940Y025740D01*
X019940Y027040D01*
X019942Y027066D01*
X019947Y027092D01*
X019955Y027117D01*
X019967Y027140D01*
X019981Y027162D01*
X019999Y027181D01*
X020018Y027199D01*
X020040Y027213D01*
X020063Y027225D01*
X020088Y027233D01*
X020114Y027238D01*
X020140Y027240D01*
X020840Y025740D02*
X020838Y025714D01*
X020833Y025688D01*
X020825Y025663D01*
X020813Y025640D01*
X020799Y025618D01*
X020781Y025599D01*
X020762Y025581D01*
X020740Y025567D01*
X020717Y025555D01*
X020692Y025547D01*
X020666Y025542D01*
X020640Y025540D01*
X022280Y025680D02*
X022280Y025750D01*
X022560Y026030D01*
X022560Y026100D01*
X022280Y026100D01*
X022740Y025890D02*
X023021Y025890D01*
X022951Y025680D02*
X022951Y026100D01*
X022740Y025890D01*
X023201Y025680D02*
X023481Y025680D01*
X023661Y025750D02*
X023731Y025680D01*
X023871Y025680D01*
X023941Y025750D01*
X023941Y025820D01*
X023871Y025890D01*
X023731Y025890D01*
X023661Y025960D01*
X023661Y026030D01*
X023731Y026100D01*
X023871Y026100D01*
X023941Y026030D01*
X024122Y026030D02*
X024122Y025750D01*
X024402Y026030D01*
X024402Y025750D01*
X024332Y025680D01*
X024192Y025680D01*
X024122Y025750D01*
X024122Y026030D02*
X024192Y026100D01*
X024332Y026100D01*
X024402Y026030D01*
X024582Y026030D02*
X024582Y025960D01*
X024652Y025890D01*
X024792Y025890D01*
X024862Y025820D01*
X024862Y025750D01*
X024792Y025680D01*
X024652Y025680D01*
X024582Y025750D01*
X024582Y025820D01*
X024652Y025890D01*
X024792Y025890D02*
X024862Y025960D01*
X024862Y026030D01*
X024792Y026100D01*
X024652Y026100D01*
X024582Y026030D01*
X025042Y026100D02*
X025323Y025680D01*
X025323Y026100D01*
X025042Y026100D02*
X025042Y025680D01*
X023201Y025680D02*
X023201Y026100D01*
X017890Y027040D02*
X017890Y024740D01*
X009890Y024740D01*
X009890Y025490D01*
X009929Y025492D01*
X009968Y025498D01*
X010006Y025507D01*
X010043Y025520D01*
X010079Y025537D01*
X010112Y025557D01*
X010144Y025581D01*
X010173Y025607D01*
X010199Y025636D01*
X010223Y025668D01*
X010243Y025701D01*
X010260Y025737D01*
X010273Y025774D01*
X010282Y025812D01*
X010288Y025851D01*
X010290Y025890D01*
X010288Y025929D01*
X010282Y025968D01*
X010273Y026006D01*
X010260Y026043D01*
X010243Y026079D01*
X010223Y026112D01*
X010199Y026144D01*
X010173Y026173D01*
X010144Y026199D01*
X010112Y026223D01*
X010079Y026243D01*
X010043Y026260D01*
X010006Y026273D01*
X009968Y026282D01*
X009929Y026288D01*
X009890Y026290D01*
X009890Y027040D01*
X017890Y027040D01*
X014023Y026030D02*
X014023Y025960D01*
X013953Y025890D01*
X014023Y025820D01*
X014023Y025750D01*
X013953Y025680D01*
X013812Y025680D01*
X013742Y025750D01*
X013562Y025750D02*
X013562Y025820D01*
X013492Y025890D01*
X013282Y025890D01*
X013282Y025750D01*
X013352Y025680D01*
X013492Y025680D01*
X013562Y025750D01*
X013422Y026030D02*
X013282Y025890D01*
X013422Y026030D02*
X013562Y026100D01*
X013742Y026030D02*
X013812Y026100D01*
X013953Y026100D01*
X014023Y026030D01*
X013953Y025890D02*
X013882Y025890D01*
X013102Y025680D02*
X012822Y025680D01*
X012962Y025680D02*
X012962Y026100D01*
X012822Y025960D01*
X012641Y026030D02*
X012571Y026100D01*
X012431Y026100D01*
X012361Y026030D01*
X012361Y025960D01*
X012431Y025890D01*
X012571Y025890D01*
X012641Y025820D01*
X012641Y025750D01*
X012571Y025680D01*
X012431Y025680D01*
X012361Y025750D01*
X012181Y025680D02*
X011901Y025680D01*
X011901Y026100D01*
X011651Y026100D02*
X011440Y025890D01*
X011721Y025890D01*
X011651Y025680D02*
X011651Y026100D01*
X011260Y026100D02*
X011260Y026030D01*
X010980Y025750D01*
X010980Y025680D01*
X010980Y026100D02*
X011260Y026100D01*
X009340Y025740D02*
X009340Y027040D01*
X009338Y027066D01*
X009333Y027092D01*
X009325Y027117D01*
X009313Y027140D01*
X009299Y027162D01*
X009281Y027181D01*
X009262Y027199D01*
X009240Y027213D01*
X009217Y027225D01*
X009192Y027233D01*
X009166Y027238D01*
X009140Y027240D01*
X008890Y026890D02*
X008890Y026510D01*
X008890Y026260D02*
X008890Y025890D01*
X008640Y025540D02*
X008614Y025542D01*
X008588Y025547D01*
X008563Y025555D01*
X008540Y025567D01*
X008518Y025581D01*
X008499Y025599D01*
X008481Y025618D01*
X008467Y025640D01*
X008455Y025663D01*
X008447Y025688D01*
X008442Y025714D01*
X008440Y025740D01*
X008440Y027040D01*
X008442Y027066D01*
X008447Y027092D01*
X008455Y027117D01*
X008467Y027140D01*
X008481Y027162D01*
X008499Y027181D01*
X008518Y027199D01*
X008540Y027213D01*
X008563Y027225D01*
X008588Y027233D01*
X008614Y027238D01*
X008640Y027240D01*
X009340Y025740D02*
X009338Y025714D01*
X009333Y025688D01*
X009325Y025663D01*
X009313Y025640D01*
X009299Y025618D01*
X009281Y025599D01*
X009262Y025581D01*
X009240Y025567D01*
X009217Y025555D01*
X009192Y025547D01*
X009166Y025542D01*
X009140Y025540D01*
X009350Y024953D02*
X009280Y024883D01*
X009280Y024742D01*
X009350Y024672D01*
X009350Y024492D02*
X009280Y024422D01*
X009280Y024282D01*
X009350Y024212D01*
X009630Y024212D01*
X009700Y024282D01*
X009700Y024422D01*
X009630Y024492D01*
X009700Y024672D02*
X009420Y024953D01*
X009350Y024953D01*
X009700Y024953D02*
X009700Y024672D01*
X009700Y024045D02*
X009700Y023905D01*
X009700Y023975D02*
X009280Y023975D01*
X009280Y023905D02*
X009280Y024045D01*
X009340Y021040D02*
X009340Y019740D01*
X009338Y019714D01*
X009333Y019688D01*
X009325Y019663D01*
X009313Y019640D01*
X009299Y019618D01*
X009281Y019599D01*
X009262Y019581D01*
X009240Y019567D01*
X009217Y019555D01*
X009192Y019547D01*
X009166Y019542D01*
X009140Y019540D01*
X008890Y019890D02*
X008890Y020260D01*
X008890Y020510D02*
X008890Y020890D01*
X008640Y021240D02*
X008614Y021238D01*
X008588Y021233D01*
X008563Y021225D01*
X008540Y021213D01*
X008518Y021199D01*
X008499Y021181D01*
X008481Y021162D01*
X008467Y021140D01*
X008455Y021117D01*
X008447Y021092D01*
X008442Y021066D01*
X008440Y021040D01*
X008440Y019740D01*
X008442Y019714D01*
X008447Y019688D01*
X008455Y019663D01*
X008467Y019640D01*
X008481Y019618D01*
X008499Y019599D01*
X008518Y019581D01*
X008540Y019567D01*
X008563Y019555D01*
X008588Y019547D01*
X008614Y019542D01*
X008640Y019540D01*
X009280Y019008D02*
X009350Y019078D01*
X009420Y019078D01*
X009490Y019008D01*
X009560Y019078D01*
X009630Y019078D01*
X009700Y019008D01*
X009700Y018867D01*
X009630Y018797D01*
X009630Y018617D02*
X009700Y018547D01*
X009700Y018407D01*
X009630Y018337D01*
X009350Y018337D01*
X009280Y018407D01*
X009280Y018547D01*
X009350Y018617D01*
X009350Y018797D02*
X009280Y018867D01*
X009280Y019008D01*
X009490Y019008D02*
X009490Y018937D01*
X009700Y018170D02*
X009700Y018030D01*
X009700Y018100D02*
X009280Y018100D01*
X009280Y018030D02*
X009280Y018170D01*
X010980Y019680D02*
X010980Y019750D01*
X011260Y020030D01*
X011260Y020100D01*
X010980Y020100D01*
X011440Y019890D02*
X011721Y019890D01*
X011651Y019680D02*
X011651Y020100D01*
X011440Y019890D01*
X011901Y020100D02*
X011901Y019680D01*
X012181Y019680D01*
X012361Y019750D02*
X012431Y019680D01*
X012571Y019680D01*
X012641Y019750D01*
X012641Y019820D01*
X012571Y019890D01*
X012431Y019890D01*
X012361Y019960D01*
X012361Y020030D01*
X012431Y020100D01*
X012571Y020100D01*
X012641Y020030D01*
X012822Y019960D02*
X012962Y020100D01*
X012962Y019680D01*
X012822Y019680D02*
X013102Y019680D01*
X013282Y019750D02*
X013352Y019680D01*
X013492Y019680D01*
X013562Y019750D01*
X013562Y019820D01*
X013492Y019890D01*
X013282Y019890D01*
X013282Y019750D01*
X013282Y019890D02*
X013422Y020030D01*
X013562Y020100D01*
X013742Y020030D02*
X013812Y020100D01*
X013953Y020100D01*
X014023Y020030D01*
X014023Y019960D01*
X013953Y019890D01*
X014023Y019820D01*
X014023Y019750D01*
X013953Y019680D01*
X013812Y019680D01*
X013742Y019750D01*
X013882Y019890D02*
X013953Y019890D01*
X009340Y021040D02*
X009338Y021066D01*
X009333Y021092D01*
X009325Y021117D01*
X009313Y021140D01*
X009299Y021162D01*
X009281Y021181D01*
X009262Y021199D01*
X009240Y021213D01*
X009217Y021225D01*
X009192Y021233D01*
X009166Y021238D01*
X009140Y021240D01*
X007015Y029640D02*
X005515Y029640D01*
X005265Y029890D01*
X005265Y030390D01*
X005515Y030640D01*
X007015Y030640D01*
X007265Y030390D01*
X007265Y029890D01*
X007015Y029640D01*
X007015Y030640D02*
X007265Y030890D01*
X007265Y031390D01*
X007015Y031640D01*
X005515Y031640D01*
X005265Y031390D01*
X005265Y030890D01*
X005515Y030640D01*
X005515Y031640D02*
X005265Y031890D01*
X005265Y032390D01*
X005515Y032640D01*
X007015Y032640D01*
X007265Y032390D01*
X007265Y031890D01*
X007015Y031640D01*
X007835Y031790D02*
X007835Y031930D01*
X007835Y031860D02*
X008185Y031860D01*
X008255Y031790D01*
X008255Y031720D01*
X008185Y031650D01*
X008515Y031890D02*
X008515Y032390D01*
X008765Y032640D01*
X008515Y032890D01*
X008515Y033390D01*
X008765Y033640D01*
X009265Y033640D01*
X009515Y033390D01*
X009515Y032890D01*
X009265Y032640D01*
X009515Y032390D01*
X009515Y031890D01*
X009265Y031640D01*
X008765Y031640D01*
X008515Y031890D01*
X008255Y032110D02*
X007835Y032110D01*
X007835Y032321D01*
X007905Y032391D01*
X008045Y032391D01*
X008115Y032321D01*
X008115Y032110D01*
X008115Y032571D02*
X008045Y032641D01*
X008045Y032781D01*
X008115Y032851D01*
X008185Y032851D01*
X008255Y032781D01*
X008255Y032641D01*
X008185Y032571D01*
X008115Y032571D01*
X008045Y032641D02*
X007975Y032571D01*
X007905Y032571D01*
X007835Y032641D01*
X007835Y032781D01*
X007905Y032851D01*
X007975Y032851D01*
X008045Y032781D01*
X008765Y032640D02*
X009265Y032640D01*
X009265Y033640D02*
X009515Y033890D01*
X009515Y034390D01*
X009265Y034640D01*
X009515Y034890D01*
X009515Y035390D01*
X009265Y035640D01*
X009515Y035890D01*
X009515Y036390D01*
X009265Y036640D01*
X009515Y036890D01*
X009515Y037390D01*
X009265Y037640D01*
X008765Y037640D01*
X008515Y037390D01*
X008515Y036890D01*
X008765Y036640D01*
X009265Y036640D01*
X008765Y036640D02*
X008515Y036390D01*
X008515Y035890D01*
X008765Y035640D01*
X009265Y035640D01*
X008765Y035640D02*
X008515Y035390D01*
X008515Y034890D01*
X008765Y034640D01*
X009265Y034640D01*
X008765Y034640D02*
X008515Y034390D01*
X008515Y033890D01*
X008765Y033640D01*
X007265Y033390D02*
X007265Y032890D01*
X007015Y032640D01*
X007265Y033390D02*
X007015Y033640D01*
X005515Y033640D01*
X005265Y033390D01*
X005265Y032890D01*
X005515Y032640D01*
X005515Y033640D02*
X005265Y033890D01*
X005265Y034390D01*
X005515Y034640D01*
X007015Y034640D01*
X007265Y034390D01*
X007265Y033890D01*
X007015Y033640D01*
X007015Y034640D02*
X007265Y034890D01*
X007265Y035390D01*
X007015Y035640D01*
X005515Y035640D01*
X005265Y035390D01*
X005265Y034890D01*
X005515Y034640D01*
X005515Y035640D02*
X005265Y035890D01*
X005265Y036390D01*
X005515Y036640D01*
X007015Y036640D01*
X007265Y036390D01*
X007265Y035890D01*
X007015Y035640D01*
X007555Y036439D02*
X007555Y036579D01*
X007555Y036509D02*
X007905Y036509D01*
X007975Y036439D01*
X007975Y036369D01*
X007905Y036299D01*
X007975Y036759D02*
X007555Y036759D01*
X007555Y036969D01*
X007625Y037039D01*
X007765Y037039D01*
X007835Y036969D01*
X007835Y036759D01*
X007905Y037220D02*
X007975Y037290D01*
X007975Y037430D01*
X007905Y037500D01*
X007835Y037500D01*
X007765Y037430D01*
X007765Y037360D01*
X007765Y037430D02*
X007695Y037500D01*
X007625Y037500D01*
X007555Y037430D01*
X007555Y037290D01*
X007625Y037220D01*
X007265Y037390D02*
X007265Y036890D01*
X007015Y036640D01*
X007265Y037390D02*
X007015Y037640D01*
X005515Y037640D01*
X005265Y037390D01*
X005265Y036890D01*
X005515Y036640D01*
X007140Y039640D02*
X006890Y039890D01*
X006890Y041390D01*
X007140Y041640D01*
X007640Y041640D01*
X007890Y041390D01*
X007890Y039890D01*
X008140Y039640D01*
X008640Y039640D01*
X008890Y039890D01*
X008890Y041390D01*
X008640Y041640D01*
X008140Y041640D01*
X007890Y041390D01*
X007921Y041930D02*
X008061Y041930D01*
X008131Y042000D01*
X008311Y041930D02*
X008591Y042210D01*
X008591Y042280D01*
X008521Y042350D01*
X008381Y042350D01*
X008311Y042280D01*
X008131Y042280D02*
X008061Y042350D01*
X007921Y042350D01*
X007851Y042280D01*
X007851Y042000D01*
X007921Y041930D01*
X007671Y042000D02*
X007601Y041930D01*
X007460Y041930D01*
X007390Y042000D01*
X007390Y042280D01*
X007460Y042350D01*
X007601Y042350D01*
X007671Y042280D01*
X007210Y042350D02*
X007210Y042070D01*
X007070Y041930D01*
X006930Y042070D01*
X006930Y042350D01*
X008311Y041930D02*
X008591Y041930D01*
X007890Y039890D02*
X007640Y039640D01*
X007140Y039640D01*
X020515Y037040D02*
X020515Y034740D01*
X028515Y034740D01*
X028515Y035490D01*
X028476Y035492D01*
X028437Y035498D01*
X028399Y035507D01*
X028362Y035520D01*
X028326Y035537D01*
X028293Y035557D01*
X028261Y035581D01*
X028232Y035607D01*
X028206Y035636D01*
X028182Y035668D01*
X028162Y035701D01*
X028145Y035737D01*
X028132Y035774D01*
X028123Y035812D01*
X028117Y035851D01*
X028115Y035890D01*
X028117Y035929D01*
X028123Y035968D01*
X028132Y036006D01*
X028145Y036043D01*
X028162Y036079D01*
X028182Y036112D01*
X028206Y036144D01*
X028232Y036173D01*
X028261Y036199D01*
X028293Y036223D01*
X028326Y036243D01*
X028362Y036260D01*
X028399Y036273D01*
X028437Y036282D01*
X028476Y036288D01*
X028515Y036290D01*
X028515Y037040D01*
X020515Y037040D01*
X023822Y036100D02*
X024102Y036100D01*
X024102Y036030D01*
X023822Y035750D01*
X023822Y035680D01*
X024282Y035890D02*
X024562Y035890D01*
X024492Y035680D02*
X024492Y036100D01*
X024282Y035890D01*
X024743Y036100D02*
X024743Y035680D01*
X025023Y035680D01*
X025203Y035750D02*
X025273Y035680D01*
X025413Y035680D01*
X025483Y035750D01*
X025483Y035820D01*
X025413Y035890D01*
X025273Y035890D01*
X025203Y035960D01*
X025203Y036030D01*
X025273Y036100D01*
X025413Y036100D01*
X025483Y036030D01*
X025663Y035960D02*
X025804Y036100D01*
X025804Y035680D01*
X025944Y035680D02*
X025663Y035680D01*
X026124Y035890D02*
X026404Y035890D01*
X026584Y035820D02*
X026654Y035890D01*
X026794Y035890D01*
X026864Y035820D01*
X026864Y035750D01*
X026794Y035680D01*
X026654Y035680D01*
X026584Y035750D01*
X026584Y035820D01*
X026654Y035890D02*
X026584Y035960D01*
X026584Y036030D01*
X026654Y036100D01*
X026794Y036100D01*
X026864Y036030D01*
X026864Y035960D01*
X026794Y035890D01*
X027045Y035680D02*
X027045Y036100D01*
X027325Y035680D01*
X027325Y036100D01*
X026334Y036100D02*
X026334Y035680D01*
X026124Y035890D02*
X026334Y036100D01*
X028705Y035992D02*
X028705Y035852D01*
X028705Y035922D02*
X029125Y035922D01*
X029125Y035852D02*
X029125Y035992D01*
X029055Y036159D02*
X029125Y036229D01*
X029125Y036369D01*
X029055Y036439D01*
X029055Y036620D02*
X029125Y036690D01*
X029125Y036830D01*
X029055Y036900D01*
X028985Y036900D01*
X028915Y036830D01*
X028915Y036620D01*
X029055Y036620D01*
X028915Y036620D02*
X028775Y036760D01*
X028705Y036900D01*
X028775Y036439D02*
X028705Y036369D01*
X028705Y036229D01*
X028775Y036159D01*
X029055Y036159D01*
X029015Y034240D02*
X028989Y034238D01*
X028963Y034233D01*
X028938Y034225D01*
X028915Y034213D01*
X028893Y034199D01*
X028874Y034181D01*
X028856Y034162D01*
X028842Y034140D01*
X028830Y034117D01*
X028822Y034092D01*
X028817Y034066D01*
X028815Y034040D01*
X028815Y032740D01*
X028817Y032714D01*
X028822Y032688D01*
X028830Y032663D01*
X028842Y032640D01*
X028856Y032618D01*
X028874Y032599D01*
X028893Y032581D01*
X028915Y032567D01*
X028938Y032555D01*
X028963Y032547D01*
X028989Y032542D01*
X029015Y032540D01*
X029265Y032890D02*
X029265Y033260D01*
X029265Y033510D02*
X029265Y033890D01*
X029515Y034240D02*
X029541Y034238D01*
X029567Y034233D01*
X029592Y034225D01*
X029615Y034213D01*
X029637Y034199D01*
X029656Y034181D01*
X029674Y034162D01*
X029688Y034140D01*
X029700Y034117D01*
X029708Y034092D01*
X029713Y034066D01*
X029715Y034040D01*
X029715Y032740D01*
X029713Y032714D01*
X029708Y032688D01*
X029700Y032663D01*
X029688Y032640D01*
X029674Y032618D01*
X029656Y032599D01*
X029637Y032581D01*
X029615Y032567D01*
X029592Y032555D01*
X029567Y032547D01*
X029541Y032542D01*
X029515Y032540D01*
X031780Y034730D02*
X031780Y034870D01*
X031780Y034800D02*
X032200Y034800D01*
X032200Y034730D02*
X032200Y034870D01*
X032130Y035037D02*
X031850Y035037D01*
X031780Y035107D01*
X031780Y035247D01*
X031850Y035317D01*
X031780Y035497D02*
X031990Y035497D01*
X031920Y035637D01*
X031920Y035708D01*
X031990Y035778D01*
X032130Y035778D01*
X032200Y035708D01*
X032200Y035567D01*
X032130Y035497D01*
X032130Y035317D02*
X032200Y035247D01*
X032200Y035107D01*
X032130Y035037D01*
X032390Y034740D02*
X032390Y035490D01*
X032429Y035492D01*
X032468Y035498D01*
X032506Y035507D01*
X032543Y035520D01*
X032579Y035537D01*
X032612Y035557D01*
X032644Y035581D01*
X032673Y035607D01*
X032699Y035636D01*
X032723Y035668D01*
X032743Y035701D01*
X032760Y035737D01*
X032773Y035774D01*
X032782Y035812D01*
X032788Y035851D01*
X032790Y035890D01*
X032788Y035929D01*
X032782Y035968D01*
X032773Y036006D01*
X032760Y036043D01*
X032743Y036079D01*
X032723Y036112D01*
X032699Y036144D01*
X032673Y036173D01*
X032644Y036199D01*
X032612Y036223D01*
X032579Y036243D01*
X032543Y036260D01*
X032506Y036273D01*
X032468Y036282D01*
X032429Y036288D01*
X032390Y036290D01*
X032390Y037040D01*
X042390Y037040D01*
X042390Y034740D01*
X032390Y034740D01*
X031780Y035497D02*
X031780Y035778D01*
X033580Y035780D02*
X033580Y035850D01*
X033860Y036130D01*
X033860Y036200D01*
X033580Y036200D01*
X034040Y035990D02*
X034321Y035990D01*
X034251Y035780D02*
X034251Y036200D01*
X034040Y035990D01*
X034501Y036200D02*
X034501Y035780D01*
X034781Y035780D01*
X034961Y035850D02*
X035031Y035780D01*
X035171Y035780D01*
X035241Y035850D01*
X035241Y035920D01*
X035171Y035990D01*
X035031Y035990D01*
X034961Y036060D01*
X034961Y036130D01*
X035031Y036200D01*
X035171Y036200D01*
X035241Y036130D01*
X035422Y036130D02*
X035492Y036200D01*
X035632Y036200D01*
X035702Y036130D01*
X035702Y036060D01*
X035422Y035780D01*
X035702Y035780D01*
X035882Y035780D02*
X035882Y035850D01*
X036162Y036130D01*
X036162Y036200D01*
X035882Y036200D01*
X036342Y036130D02*
X036412Y036200D01*
X036553Y036200D01*
X036623Y036130D01*
X036623Y036060D01*
X036553Y035990D01*
X036623Y035920D01*
X036623Y035850D01*
X036553Y035780D01*
X036412Y035780D01*
X036342Y035850D01*
X036482Y035990D02*
X036553Y035990D01*
X036803Y035780D02*
X036803Y036200D01*
X037083Y035780D01*
X037083Y036200D01*
X032090Y037740D02*
X032090Y039040D01*
X032088Y039066D01*
X032083Y039092D01*
X032075Y039117D01*
X032063Y039140D01*
X032049Y039162D01*
X032031Y039181D01*
X032012Y039199D01*
X031990Y039213D01*
X031967Y039225D01*
X031942Y039233D01*
X031916Y039238D01*
X031890Y039240D01*
X031640Y038890D02*
X031640Y038520D01*
X031640Y038270D02*
X031640Y037890D01*
X031890Y037540D02*
X031916Y037542D01*
X031942Y037547D01*
X031967Y037555D01*
X031990Y037567D01*
X032012Y037581D01*
X032031Y037599D01*
X032049Y037618D01*
X032063Y037640D01*
X032075Y037663D01*
X032083Y037688D01*
X032088Y037714D01*
X032090Y037740D01*
X031390Y037540D02*
X031364Y037542D01*
X031338Y037547D01*
X031313Y037555D01*
X031290Y037567D01*
X031268Y037581D01*
X031249Y037599D01*
X031231Y037618D01*
X031217Y037640D01*
X031205Y037663D01*
X031197Y037688D01*
X031192Y037714D01*
X031190Y037740D01*
X031190Y039040D01*
X031192Y039066D01*
X031197Y039092D01*
X031205Y039117D01*
X031217Y039140D01*
X031231Y039162D01*
X031249Y039181D01*
X031268Y039199D01*
X031290Y039213D01*
X031313Y039225D01*
X031338Y039233D01*
X031364Y039238D01*
X031390Y039240D01*
X045605Y039330D02*
X045745Y039330D01*
X045675Y039330D02*
X045675Y039750D01*
X045605Y039750D02*
X045745Y039750D01*
X045912Y039680D02*
X045912Y039400D01*
X045982Y039330D01*
X046122Y039330D01*
X046192Y039400D01*
X046372Y039330D02*
X046653Y039330D01*
X046512Y039330D02*
X046512Y039750D01*
X046372Y039610D01*
X046192Y039680D02*
X046122Y039750D01*
X045982Y039750D01*
X045912Y039680D01*
X046740Y039140D02*
X047490Y039140D01*
X047492Y039101D01*
X047498Y039062D01*
X047507Y039024D01*
X047520Y038987D01*
X047537Y038951D01*
X047557Y038918D01*
X047581Y038886D01*
X047607Y038857D01*
X047636Y038831D01*
X047668Y038807D01*
X047701Y038787D01*
X047737Y038770D01*
X047774Y038757D01*
X047812Y038748D01*
X047851Y038742D01*
X047890Y038740D01*
X047929Y038742D01*
X047968Y038748D01*
X048006Y038757D01*
X048043Y038770D01*
X048079Y038787D01*
X048112Y038807D01*
X048144Y038831D01*
X048173Y038857D01*
X048199Y038886D01*
X048223Y038918D01*
X048243Y038951D01*
X048260Y038987D01*
X048273Y039024D01*
X048282Y039062D01*
X048288Y039101D01*
X048290Y039140D01*
X049040Y039140D01*
X049040Y029140D01*
X046740Y029140D01*
X046740Y039140D01*
X046833Y039330D02*
X047113Y039330D01*
X046973Y039330D02*
X046973Y039750D01*
X046833Y039610D01*
X047740Y039815D02*
X049040Y039815D01*
X049066Y039817D01*
X049092Y039822D01*
X049117Y039830D01*
X049140Y039842D01*
X049162Y039856D01*
X049181Y039874D01*
X049199Y039893D01*
X049213Y039915D01*
X049225Y039938D01*
X049233Y039963D01*
X049238Y039989D01*
X049240Y040015D01*
X048890Y040265D02*
X048510Y040265D01*
X048260Y040265D02*
X047890Y040265D01*
X047540Y040515D02*
X047542Y040541D01*
X047547Y040567D01*
X047555Y040592D01*
X047567Y040615D01*
X047581Y040637D01*
X047599Y040656D01*
X047618Y040674D01*
X047640Y040688D01*
X047663Y040700D01*
X047688Y040708D01*
X047714Y040713D01*
X047740Y040715D01*
X049040Y040715D01*
X049066Y040713D01*
X049092Y040708D01*
X049117Y040700D01*
X049140Y040688D01*
X049162Y040674D01*
X049181Y040656D01*
X049199Y040637D01*
X049213Y040615D01*
X049225Y040592D01*
X049233Y040567D01*
X049238Y040541D01*
X049240Y040515D01*
X047740Y039815D02*
X047714Y039817D01*
X047688Y039822D01*
X047663Y039830D01*
X047640Y039842D01*
X047618Y039856D01*
X047599Y039874D01*
X047581Y039893D01*
X047567Y039915D01*
X047555Y039938D01*
X047547Y039963D01*
X047542Y039989D01*
X047540Y040015D01*
X047780Y037850D02*
X048200Y037850D01*
X047780Y037570D01*
X048200Y037570D01*
X048130Y037389D02*
X048200Y037319D01*
X048200Y037179D01*
X048130Y037109D01*
X047990Y037249D02*
X047990Y037319D01*
X048060Y037389D01*
X048130Y037389D01*
X047990Y037319D02*
X047920Y037389D01*
X047850Y037389D01*
X047780Y037319D01*
X047780Y037179D01*
X047850Y037109D01*
X047850Y036929D02*
X048130Y036649D01*
X048200Y036649D01*
X048200Y036469D02*
X048200Y036188D01*
X047920Y036469D01*
X047850Y036469D01*
X047780Y036399D01*
X047780Y036258D01*
X047850Y036188D01*
X047850Y036008D02*
X047780Y035938D01*
X047780Y035798D01*
X047850Y035728D01*
X047920Y035728D01*
X047990Y035798D01*
X047990Y035938D01*
X048060Y036008D01*
X048130Y036008D01*
X048200Y035938D01*
X048200Y035798D01*
X048130Y035728D01*
X048200Y035548D02*
X048200Y035268D01*
X047780Y035268D01*
X047780Y035017D02*
X047990Y034807D01*
X047990Y035087D01*
X048200Y035017D02*
X047780Y035017D01*
X047780Y034627D02*
X047850Y034627D01*
X048130Y034347D01*
X048200Y034347D01*
X047780Y034347D02*
X047780Y034627D01*
X047780Y036649D02*
X047780Y036929D01*
X047850Y036929D01*
X058765Y036890D02*
X058765Y037390D01*
X059015Y037640D01*
X060515Y037640D01*
X060765Y037390D01*
X060765Y036890D01*
X060515Y036640D01*
X059015Y036640D01*
X058765Y036390D01*
X058765Y035890D01*
X059015Y035640D01*
X060515Y035640D01*
X060765Y035390D01*
X060765Y034890D01*
X060515Y034640D01*
X059015Y034640D01*
X058765Y034390D01*
X058765Y033890D01*
X059015Y033640D01*
X060515Y033640D01*
X060765Y033390D01*
X060765Y032890D01*
X060515Y032640D01*
X059015Y032640D01*
X058765Y032390D01*
X058765Y031890D01*
X059015Y031640D01*
X060515Y031640D01*
X060765Y031390D01*
X060765Y030890D01*
X060515Y030640D01*
X060765Y030390D01*
X060765Y029890D01*
X060515Y029640D01*
X059015Y029640D01*
X058765Y029890D01*
X058765Y030390D01*
X059015Y030640D01*
X060515Y030640D01*
X059015Y030640D02*
X058765Y030890D01*
X058765Y031390D01*
X059015Y031640D01*
X059015Y032640D02*
X058765Y032890D01*
X058765Y033390D01*
X059015Y033640D01*
X059015Y034640D02*
X058765Y034890D01*
X058765Y035390D01*
X059015Y035640D01*
X059015Y036640D02*
X058765Y036890D01*
X060515Y036640D02*
X060765Y036390D01*
X060765Y035890D01*
X060515Y035640D01*
X061405Y036299D02*
X061475Y036369D01*
X061475Y036439D01*
X061405Y036509D01*
X061055Y036509D01*
X061055Y036439D02*
X061055Y036579D01*
X061055Y036759D02*
X061055Y036969D01*
X061125Y037039D01*
X061265Y037039D01*
X061335Y036969D01*
X061335Y036759D01*
X061475Y036759D02*
X061055Y036759D01*
X061195Y037220D02*
X061055Y037360D01*
X061475Y037360D01*
X061475Y037220D02*
X061475Y037500D01*
X062490Y037440D02*
X062490Y028840D01*
X062540Y028790D02*
X062540Y029490D01*
X063240Y029490D01*
X063240Y028790D01*
X062540Y028790D01*
X062490Y028840D02*
X062492Y028814D01*
X062497Y028788D01*
X062505Y028763D01*
X062517Y028740D01*
X062531Y028718D01*
X062549Y028699D01*
X062568Y028681D01*
X062590Y028667D01*
X062613Y028655D01*
X062638Y028647D01*
X062664Y028642D01*
X062690Y028640D01*
X063090Y028640D01*
X063116Y028642D01*
X063142Y028647D01*
X063167Y028655D01*
X063190Y028667D01*
X063212Y028681D01*
X063231Y028699D01*
X063249Y028718D01*
X063263Y028740D01*
X063275Y028763D01*
X063283Y028788D01*
X063288Y028814D01*
X063290Y028840D01*
X063290Y037440D01*
X063288Y037466D01*
X063283Y037492D01*
X063275Y037517D01*
X063263Y037540D01*
X063249Y037562D01*
X063231Y037581D01*
X063212Y037599D01*
X063190Y037613D01*
X063167Y037625D01*
X063142Y037633D01*
X063116Y037638D01*
X063090Y037640D01*
X062690Y037640D01*
X062664Y037638D01*
X062638Y037633D01*
X062613Y037625D01*
X062590Y037613D01*
X062568Y037599D01*
X062549Y037581D01*
X062531Y037562D01*
X062517Y037540D01*
X062505Y037517D01*
X062497Y037492D01*
X062492Y037466D01*
X062490Y037440D01*
X060515Y039640D02*
X060015Y039640D01*
X059765Y039890D01*
X059765Y041390D01*
X060015Y041640D01*
X060515Y041640D01*
X060765Y041390D01*
X060765Y039890D01*
X060515Y039640D01*
X059765Y039890D02*
X059515Y039640D01*
X059015Y039640D01*
X058765Y039890D01*
X058765Y041390D01*
X059015Y041640D01*
X059515Y041640D01*
X059765Y041390D01*
X059726Y041930D02*
X059936Y041930D01*
X060006Y042000D01*
X060006Y042280D01*
X059936Y042350D01*
X059726Y042350D01*
X059726Y041930D01*
X059546Y041930D02*
X059546Y042350D01*
X059265Y042350D02*
X059546Y041930D01*
X059265Y041930D02*
X059265Y042350D01*
X059085Y042280D02*
X059015Y042350D01*
X058875Y042350D01*
X058805Y042280D01*
X058805Y042000D01*
X058875Y041930D01*
X059015Y041930D01*
X059085Y042000D01*
X059085Y042140D01*
X058945Y042140D01*
X060186Y042210D02*
X060326Y042350D01*
X060326Y041930D01*
X060186Y041930D02*
X060466Y041930D01*
X060515Y034640D02*
X060765Y034390D01*
X060765Y033890D01*
X060515Y033640D01*
X060515Y032640D02*
X060765Y032390D01*
X060765Y031890D01*
X060515Y031640D01*
X061930Y029741D02*
X062350Y029741D01*
X062350Y029601D02*
X062350Y029881D01*
X062070Y029601D02*
X061930Y029741D01*
X061930Y029421D02*
X062350Y029421D01*
X061930Y029140D01*
X062350Y029140D01*
X062350Y028960D02*
X062210Y028820D01*
X062210Y028890D02*
X062210Y028680D01*
X062350Y028680D02*
X061930Y028680D01*
X061930Y028890D01*
X062000Y028960D01*
X062140Y028960D01*
X062210Y028890D01*
X063765Y027765D02*
X063765Y027265D01*
X064015Y027015D01*
X063765Y026765D01*
X063765Y026265D01*
X064015Y026015D01*
X064515Y026015D01*
X064765Y026265D01*
X064765Y026765D01*
X064515Y027015D01*
X064015Y027015D01*
X064515Y027015D02*
X064765Y027265D01*
X064765Y027765D01*
X064515Y028015D01*
X064015Y028015D01*
X063765Y027765D01*
X065025Y027625D02*
X065025Y027905D01*
X065095Y027905D01*
X065375Y027625D01*
X065445Y027625D01*
X065235Y027444D02*
X065305Y027374D01*
X065305Y027164D01*
X065445Y027164D02*
X065025Y027164D01*
X065025Y027374D01*
X065095Y027444D01*
X065235Y027444D01*
X065025Y026984D02*
X065025Y026844D01*
X065025Y026914D02*
X065375Y026914D01*
X065445Y026844D01*
X065445Y026774D01*
X065375Y026704D01*
X064515Y026015D02*
X064765Y025765D01*
X064765Y025265D01*
X064515Y025015D01*
X064765Y024765D01*
X064765Y024265D01*
X064515Y024015D01*
X064765Y023765D01*
X064765Y023265D01*
X064515Y023015D01*
X064015Y023015D01*
X063765Y023265D01*
X063765Y023765D01*
X064015Y024015D01*
X063765Y024265D01*
X063765Y024765D01*
X064015Y025015D01*
X063765Y025265D01*
X063765Y025765D01*
X064015Y026015D01*
X064015Y025015D02*
X064515Y025015D01*
X064515Y024015D02*
X064015Y024015D01*
X064015Y023015D02*
X063765Y022765D01*
X063765Y022265D01*
X064015Y022015D01*
X063765Y021765D01*
X063765Y021265D01*
X064015Y021015D01*
X063765Y020765D01*
X063765Y020265D01*
X064015Y020015D01*
X063765Y019765D01*
X063765Y019265D01*
X064015Y019015D01*
X064515Y019015D01*
X064765Y019265D01*
X064765Y019765D01*
X064515Y020015D01*
X064015Y020015D01*
X064515Y020015D02*
X064765Y020265D01*
X064765Y020765D01*
X064515Y021015D01*
X064015Y021015D01*
X064515Y021015D02*
X064765Y021265D01*
X064765Y021765D01*
X064515Y022015D01*
X064015Y022015D01*
X064515Y022015D02*
X064765Y022265D01*
X064765Y022765D01*
X064515Y023015D01*
X061390Y021540D02*
X061390Y019240D01*
X053390Y019240D01*
X053390Y019990D01*
X053200Y020047D02*
X053200Y020328D01*
X053200Y020187D02*
X052780Y020187D01*
X052920Y020047D01*
X052850Y019867D02*
X052780Y019797D01*
X052780Y019657D01*
X052850Y019587D01*
X053130Y019587D01*
X053200Y019657D01*
X053200Y019797D01*
X053130Y019867D01*
X053200Y019420D02*
X053200Y019280D01*
X053200Y019350D02*
X052780Y019350D01*
X052780Y019280D02*
X052780Y019420D01*
X052850Y020508D02*
X052780Y020578D01*
X052780Y020718D01*
X052850Y020788D01*
X052920Y020788D01*
X052990Y020718D01*
X053060Y020788D01*
X053130Y020788D01*
X053200Y020718D01*
X053200Y020578D01*
X053130Y020508D01*
X052990Y020648D02*
X052990Y020718D01*
X053390Y020790D02*
X053390Y021540D01*
X061390Y021540D01*
X057983Y020600D02*
X057983Y020180D01*
X057703Y020600D01*
X057703Y020180D01*
X057523Y020530D02*
X057242Y020250D01*
X057242Y020180D01*
X057062Y020250D02*
X056992Y020180D01*
X056852Y020180D01*
X056782Y020250D01*
X056782Y020390D02*
X056922Y020460D01*
X056992Y020460D01*
X057062Y020390D01*
X057062Y020250D01*
X056782Y020390D02*
X056782Y020600D01*
X057062Y020600D01*
X057242Y020600D02*
X057523Y020600D01*
X057523Y020530D01*
X056602Y020180D02*
X056322Y020180D01*
X056462Y020180D02*
X056462Y020600D01*
X056322Y020460D01*
X056141Y020530D02*
X056071Y020600D01*
X055931Y020600D01*
X055861Y020530D01*
X055861Y020460D01*
X055931Y020390D01*
X056071Y020390D01*
X056141Y020320D01*
X056141Y020250D01*
X056071Y020180D01*
X055931Y020180D01*
X055861Y020250D01*
X055681Y020180D02*
X055401Y020180D01*
X055401Y020600D01*
X055151Y020600D02*
X055151Y020180D01*
X055221Y020390D02*
X054940Y020390D01*
X055151Y020600D01*
X054760Y020600D02*
X054760Y020530D01*
X054480Y020250D01*
X054480Y020180D01*
X054480Y020600D02*
X054760Y020600D01*
X053390Y020790D02*
X053429Y020788D01*
X053468Y020782D01*
X053506Y020773D01*
X053543Y020760D01*
X053579Y020743D01*
X053612Y020723D01*
X053644Y020699D01*
X053673Y020673D01*
X053699Y020644D01*
X053723Y020612D01*
X053743Y020579D01*
X053760Y020543D01*
X053773Y020506D01*
X053782Y020468D01*
X053788Y020429D01*
X053790Y020390D01*
X053788Y020351D01*
X053782Y020312D01*
X053773Y020274D01*
X053760Y020237D01*
X053743Y020201D01*
X053723Y020168D01*
X053699Y020136D01*
X053673Y020107D01*
X053644Y020081D01*
X053612Y020057D01*
X053579Y020037D01*
X053543Y020020D01*
X053506Y020007D01*
X053468Y019998D01*
X053429Y019992D01*
X053390Y019990D01*
X052040Y021440D02*
X050740Y021440D01*
X050714Y021442D01*
X050688Y021447D01*
X050663Y021455D01*
X050640Y021467D01*
X050618Y021481D01*
X050599Y021499D01*
X050581Y021518D01*
X050567Y021540D01*
X050555Y021563D01*
X050547Y021588D01*
X050542Y021614D01*
X050540Y021640D01*
X050890Y021890D02*
X051260Y021890D01*
X051510Y021890D02*
X051890Y021890D01*
X052240Y022140D02*
X052238Y022166D01*
X052233Y022192D01*
X052225Y022217D01*
X052213Y022240D01*
X052199Y022262D01*
X052181Y022281D01*
X052162Y022299D01*
X052140Y022313D01*
X052117Y022325D01*
X052092Y022333D01*
X052066Y022338D01*
X052040Y022340D01*
X050740Y022340D01*
X050714Y022338D01*
X050688Y022333D01*
X050663Y022325D01*
X050640Y022313D01*
X050618Y022299D01*
X050599Y022281D01*
X050581Y022262D01*
X050567Y022240D01*
X050555Y022217D01*
X050547Y022192D01*
X050542Y022166D01*
X050540Y022140D01*
X052040Y021440D02*
X052066Y021442D01*
X052092Y021447D01*
X052117Y021455D01*
X052140Y021467D01*
X052162Y021481D01*
X052181Y021499D01*
X052199Y021518D01*
X052213Y021540D01*
X052225Y021563D01*
X052233Y021588D01*
X052238Y021614D01*
X052240Y021640D01*
X052780Y023530D02*
X052780Y023670D01*
X052780Y023600D02*
X053200Y023600D01*
X053200Y023530D02*
X053200Y023670D01*
X053130Y023837D02*
X053200Y023907D01*
X053200Y024047D01*
X053130Y024117D01*
X053200Y024297D02*
X053200Y024578D01*
X053200Y024437D02*
X052780Y024437D01*
X052920Y024297D01*
X052850Y024117D02*
X052780Y024047D01*
X052780Y023907D01*
X052850Y023837D01*
X053130Y023837D01*
X052990Y024758D02*
X052990Y025038D01*
X053200Y024968D02*
X052780Y024968D01*
X052990Y024758D01*
X053390Y024740D02*
X053390Y025490D01*
X053429Y025492D01*
X053468Y025498D01*
X053506Y025507D01*
X053543Y025520D01*
X053579Y025537D01*
X053612Y025557D01*
X053644Y025581D01*
X053673Y025607D01*
X053699Y025636D01*
X053723Y025668D01*
X053743Y025701D01*
X053760Y025737D01*
X053773Y025774D01*
X053782Y025812D01*
X053788Y025851D01*
X053790Y025890D01*
X053788Y025929D01*
X053782Y025968D01*
X053773Y026006D01*
X053760Y026043D01*
X053743Y026079D01*
X053723Y026112D01*
X053699Y026144D01*
X053673Y026173D01*
X053644Y026199D01*
X053612Y026223D01*
X053579Y026243D01*
X053543Y026260D01*
X053506Y026273D01*
X053468Y026282D01*
X053429Y026288D01*
X053390Y026290D01*
X053390Y027040D01*
X061390Y027040D01*
X061390Y024740D01*
X053390Y024740D01*
X052840Y025740D02*
X052840Y027040D01*
X052838Y027066D01*
X052833Y027092D01*
X052825Y027117D01*
X052813Y027140D01*
X052799Y027162D01*
X052781Y027181D01*
X052762Y027199D01*
X052740Y027213D01*
X052717Y027225D01*
X052692Y027233D01*
X052666Y027238D01*
X052640Y027240D01*
X052390Y026890D02*
X052390Y026510D01*
X052390Y026260D02*
X052390Y025890D01*
X052140Y025540D02*
X052114Y025542D01*
X052088Y025547D01*
X052063Y025555D01*
X052040Y025567D01*
X052018Y025581D01*
X051999Y025599D01*
X051981Y025618D01*
X051967Y025640D01*
X051955Y025663D01*
X051947Y025688D01*
X051942Y025714D01*
X051940Y025740D01*
X051940Y027040D01*
X051942Y027066D01*
X051947Y027092D01*
X051955Y027117D01*
X051967Y027140D01*
X051981Y027162D01*
X051999Y027181D01*
X052018Y027199D01*
X052040Y027213D01*
X052063Y027225D01*
X052088Y027233D01*
X052114Y027238D01*
X052140Y027240D01*
X052840Y025740D02*
X052838Y025714D01*
X052833Y025688D01*
X052825Y025663D01*
X052813Y025640D01*
X052799Y025618D01*
X052781Y025599D01*
X052762Y025581D01*
X052740Y025567D01*
X052717Y025555D01*
X052692Y025547D01*
X052666Y025542D01*
X052640Y025540D01*
X054480Y025680D02*
X054480Y025750D01*
X054760Y026030D01*
X054760Y026100D01*
X054480Y026100D01*
X054940Y025890D02*
X055221Y025890D01*
X055151Y025680D02*
X055151Y026100D01*
X054940Y025890D01*
X055401Y026100D02*
X055401Y025680D01*
X055681Y025680D01*
X055861Y025750D02*
X055931Y025680D01*
X056071Y025680D01*
X056141Y025750D01*
X056141Y025820D01*
X056071Y025890D01*
X055931Y025890D01*
X055861Y025960D01*
X055861Y026030D01*
X055931Y026100D01*
X056071Y026100D01*
X056141Y026030D01*
X056322Y025960D02*
X056462Y026100D01*
X056462Y025680D01*
X056322Y025680D02*
X056602Y025680D01*
X056782Y025750D02*
X056852Y025680D01*
X056992Y025680D01*
X057062Y025750D01*
X057062Y025890D01*
X056992Y025960D01*
X056922Y025960D01*
X056782Y025890D01*
X056782Y026100D01*
X057062Y026100D01*
X057242Y026100D02*
X057523Y026100D01*
X057523Y026030D01*
X057242Y025750D01*
X057242Y025680D01*
X057703Y025680D02*
X057703Y026100D01*
X057983Y025680D01*
X057983Y026100D01*
X049890Y027040D02*
X049890Y024740D01*
X042890Y024740D01*
X042890Y025490D01*
X042929Y025492D01*
X042968Y025498D01*
X043006Y025507D01*
X043043Y025520D01*
X043079Y025537D01*
X043112Y025557D01*
X043144Y025581D01*
X043173Y025607D01*
X043199Y025636D01*
X043223Y025668D01*
X043243Y025701D01*
X043260Y025737D01*
X043273Y025774D01*
X043282Y025812D01*
X043288Y025851D01*
X043290Y025890D01*
X043288Y025929D01*
X043282Y025968D01*
X043273Y026006D01*
X043260Y026043D01*
X043243Y026079D01*
X043223Y026112D01*
X043199Y026144D01*
X043173Y026173D01*
X043144Y026199D01*
X043112Y026223D01*
X043079Y026243D01*
X043043Y026260D01*
X043006Y026273D01*
X042968Y026282D01*
X042929Y026288D01*
X042890Y026290D01*
X042890Y027040D01*
X049890Y027040D01*
X046823Y026100D02*
X046823Y025680D01*
X046542Y026100D01*
X046542Y025680D01*
X046292Y025680D02*
X046292Y026100D01*
X046082Y025890D01*
X046362Y025890D01*
X045902Y026030D02*
X045622Y025750D01*
X045622Y025680D01*
X045441Y025750D02*
X045371Y025680D01*
X045231Y025680D01*
X045161Y025750D01*
X045231Y025890D02*
X045371Y025890D01*
X045441Y025820D01*
X045441Y025750D01*
X045231Y025890D02*
X045161Y025960D01*
X045161Y026030D01*
X045231Y026100D01*
X045371Y026100D01*
X045441Y026030D01*
X045622Y026100D02*
X045902Y026100D01*
X045902Y026030D01*
X044981Y025680D02*
X044701Y025680D01*
X044701Y026100D01*
X044451Y026100D02*
X044240Y025890D01*
X044521Y025890D01*
X044451Y025680D02*
X044451Y026100D01*
X044060Y026100D02*
X044060Y026030D01*
X043780Y025750D01*
X043780Y025680D01*
X043780Y026100D02*
X044060Y026100D01*
X042465Y025740D02*
X042465Y027040D01*
X042463Y027066D01*
X042458Y027092D01*
X042450Y027117D01*
X042438Y027140D01*
X042424Y027162D01*
X042406Y027181D01*
X042387Y027199D01*
X042365Y027213D01*
X042342Y027225D01*
X042317Y027233D01*
X042291Y027238D01*
X042265Y027240D01*
X042015Y026890D02*
X042015Y026510D01*
X042015Y026260D02*
X042015Y025890D01*
X042265Y025540D02*
X042291Y025542D01*
X042317Y025547D01*
X042342Y025555D01*
X042365Y025567D01*
X042387Y025581D01*
X042406Y025599D01*
X042424Y025618D01*
X042438Y025640D01*
X042450Y025663D01*
X042458Y025688D01*
X042463Y025714D01*
X042465Y025740D01*
X041765Y025540D02*
X041739Y025542D01*
X041713Y025547D01*
X041688Y025555D01*
X041665Y025567D01*
X041643Y025581D01*
X041624Y025599D01*
X041606Y025618D01*
X041592Y025640D01*
X041580Y025663D01*
X041572Y025688D01*
X041567Y025714D01*
X041565Y025740D01*
X041565Y027040D01*
X041567Y027066D01*
X041572Y027092D01*
X041580Y027117D01*
X041592Y027140D01*
X041606Y027162D01*
X041624Y027181D01*
X041643Y027199D01*
X041665Y027213D01*
X041688Y027225D01*
X041713Y027233D01*
X041739Y027238D01*
X041765Y027240D01*
X040390Y027040D02*
X040390Y024740D01*
X032390Y024740D01*
X032390Y025490D01*
X032130Y025288D02*
X031850Y025288D01*
X032130Y025008D01*
X032200Y025078D01*
X032200Y025218D01*
X032130Y025288D01*
X032130Y025008D02*
X031850Y025008D01*
X031780Y025078D01*
X031780Y025218D01*
X031850Y025288D01*
X032200Y024828D02*
X032200Y024547D01*
X032200Y024687D02*
X031780Y024687D01*
X031920Y024547D01*
X031850Y024367D02*
X031780Y024297D01*
X031780Y024157D01*
X031850Y024087D01*
X032130Y024087D01*
X032200Y024157D01*
X032200Y024297D01*
X032130Y024367D01*
X032200Y023920D02*
X032200Y023780D01*
X032200Y023850D02*
X031780Y023850D01*
X031780Y023780D02*
X031780Y023920D01*
X032390Y025490D02*
X032429Y025492D01*
X032468Y025498D01*
X032506Y025507D01*
X032543Y025520D01*
X032579Y025537D01*
X032612Y025557D01*
X032644Y025581D01*
X032673Y025607D01*
X032699Y025636D01*
X032723Y025668D01*
X032743Y025701D01*
X032760Y025737D01*
X032773Y025774D01*
X032782Y025812D01*
X032788Y025851D01*
X032790Y025890D01*
X032788Y025929D01*
X032782Y025968D01*
X032773Y026006D01*
X032760Y026043D01*
X032743Y026079D01*
X032723Y026112D01*
X032699Y026144D01*
X032673Y026173D01*
X032644Y026199D01*
X032612Y026223D01*
X032579Y026243D01*
X032543Y026260D01*
X032506Y026273D01*
X032468Y026282D01*
X032429Y026288D01*
X032390Y026290D01*
X032390Y027040D01*
X040390Y027040D01*
X036983Y026100D02*
X036983Y025680D01*
X036703Y026100D01*
X036703Y025680D01*
X036523Y025750D02*
X036453Y025680D01*
X036312Y025680D01*
X036242Y025750D01*
X036382Y025890D02*
X036453Y025890D01*
X036523Y025820D01*
X036523Y025750D01*
X036453Y025890D02*
X036523Y025960D01*
X036523Y026030D01*
X036453Y026100D01*
X036312Y026100D01*
X036242Y026030D01*
X036062Y026030D02*
X035782Y025750D01*
X035782Y025680D01*
X035602Y025680D02*
X035322Y025680D01*
X035462Y025680D02*
X035462Y026100D01*
X035322Y025960D01*
X035141Y026030D02*
X035071Y026100D01*
X034931Y026100D01*
X034861Y026030D01*
X034861Y025960D01*
X034931Y025890D01*
X035071Y025890D01*
X035141Y025820D01*
X035141Y025750D01*
X035071Y025680D01*
X034931Y025680D01*
X034861Y025750D01*
X034681Y025680D02*
X034401Y025680D01*
X034401Y026100D01*
X034151Y026100D02*
X033940Y025890D01*
X034221Y025890D01*
X034151Y025680D02*
X034151Y026100D01*
X033760Y026100D02*
X033760Y026030D01*
X033480Y025750D01*
X033480Y025680D01*
X033480Y026100D02*
X033760Y026100D01*
X035782Y026100D02*
X036062Y026100D01*
X036062Y026030D01*
X031540Y026940D02*
X030240Y026940D01*
X030214Y026942D01*
X030188Y026947D01*
X030163Y026955D01*
X030140Y026967D01*
X030118Y026981D01*
X030099Y026999D01*
X030081Y027018D01*
X030067Y027040D01*
X030055Y027063D01*
X030047Y027088D01*
X030042Y027114D01*
X030040Y027140D01*
X030390Y027390D02*
X030760Y027390D01*
X031010Y027390D02*
X031390Y027390D01*
X031740Y027640D02*
X031738Y027666D01*
X031733Y027692D01*
X031725Y027717D01*
X031713Y027740D01*
X031699Y027762D01*
X031681Y027781D01*
X031662Y027799D01*
X031640Y027813D01*
X031617Y027825D01*
X031592Y027833D01*
X031566Y027838D01*
X031540Y027840D01*
X030240Y027840D01*
X030214Y027838D01*
X030188Y027833D01*
X030163Y027825D01*
X030140Y027813D01*
X030118Y027799D01*
X030099Y027781D01*
X030081Y027762D01*
X030067Y027740D01*
X030055Y027717D01*
X030047Y027692D01*
X030042Y027666D01*
X030040Y027640D01*
X031540Y026940D02*
X031566Y026942D01*
X031592Y026947D01*
X031617Y026955D01*
X031640Y026967D01*
X031662Y026981D01*
X031681Y026999D01*
X031699Y027018D01*
X031713Y027040D01*
X031725Y027063D01*
X031733Y027088D01*
X031738Y027114D01*
X031740Y027140D01*
X042280Y024918D02*
X042280Y024778D01*
X042350Y024708D01*
X042280Y024918D02*
X042350Y024988D01*
X042420Y024988D01*
X042700Y024708D01*
X042700Y024988D01*
X042700Y024528D02*
X042700Y024247D01*
X042700Y024387D02*
X042280Y024387D01*
X042420Y024247D01*
X042350Y024067D02*
X042280Y023997D01*
X042280Y023857D01*
X042350Y023787D01*
X042630Y023787D01*
X042700Y023857D01*
X042700Y023997D01*
X042630Y024067D01*
X042700Y023620D02*
X042700Y023480D01*
X042700Y023550D02*
X042280Y023550D01*
X042280Y023480D02*
X042280Y023620D01*
X031000Y015700D02*
X031000Y015420D01*
X031000Y015560D02*
X030580Y015560D01*
X030720Y015420D01*
X030650Y015239D02*
X030580Y015169D01*
X030580Y015029D01*
X030650Y014959D01*
X030930Y014959D01*
X031000Y015029D01*
X031000Y015169D01*
X030930Y015239D01*
X031000Y014792D02*
X031000Y014652D01*
X031000Y014722D02*
X030580Y014722D01*
X030580Y014652D02*
X030580Y014792D01*
X030390Y014915D02*
X030390Y014165D01*
X030351Y014163D01*
X030312Y014157D01*
X030274Y014148D01*
X030237Y014135D01*
X030201Y014118D01*
X030168Y014098D01*
X030136Y014074D01*
X030107Y014048D01*
X030081Y014019D01*
X030057Y013987D01*
X030037Y013954D01*
X030020Y013918D01*
X030007Y013881D01*
X029998Y013843D01*
X029992Y013804D01*
X029990Y013765D01*
X029992Y013726D01*
X029998Y013687D01*
X030007Y013649D01*
X030020Y013612D01*
X030037Y013576D01*
X030057Y013543D01*
X030081Y013511D01*
X030107Y013482D01*
X030136Y013456D01*
X030168Y013432D01*
X030201Y013412D01*
X030237Y013395D01*
X030274Y013382D01*
X030312Y013373D01*
X030351Y013367D01*
X030390Y013365D01*
X030390Y012615D01*
X023390Y012615D01*
X023390Y014915D01*
X030390Y014915D01*
X030940Y014165D02*
X030940Y012865D01*
X030942Y012839D01*
X030947Y012813D01*
X030955Y012788D01*
X030967Y012765D01*
X030981Y012743D01*
X030999Y012724D01*
X031018Y012706D01*
X031040Y012692D01*
X031063Y012680D01*
X031088Y012672D01*
X031114Y012667D01*
X031140Y012665D01*
X031390Y013015D02*
X031390Y013395D01*
X031390Y013645D02*
X031390Y014015D01*
X031140Y014365D02*
X031114Y014363D01*
X031088Y014358D01*
X031063Y014350D01*
X031040Y014338D01*
X031018Y014324D01*
X030999Y014306D01*
X030981Y014287D01*
X030967Y014265D01*
X030955Y014242D01*
X030947Y014217D01*
X030942Y014191D01*
X030940Y014165D01*
X031640Y014365D02*
X031666Y014363D01*
X031692Y014358D01*
X031717Y014350D01*
X031740Y014338D01*
X031762Y014324D01*
X031781Y014306D01*
X031799Y014287D01*
X031813Y014265D01*
X031825Y014242D01*
X031833Y014217D01*
X031838Y014191D01*
X031840Y014165D01*
X031840Y012865D01*
X031838Y012839D01*
X031833Y012813D01*
X031825Y012788D01*
X031813Y012765D01*
X031799Y012743D01*
X031781Y012724D01*
X031762Y012706D01*
X031740Y012692D01*
X031717Y012680D01*
X031692Y012672D01*
X031666Y012667D01*
X031640Y012665D01*
X029400Y013555D02*
X029400Y013975D01*
X029120Y013975D02*
X029400Y013555D01*
X029120Y013555D02*
X029120Y013975D01*
X028939Y013905D02*
X028939Y013835D01*
X028869Y013765D01*
X028729Y013765D01*
X028659Y013835D01*
X028659Y013905D01*
X028729Y013975D01*
X028869Y013975D01*
X028939Y013905D01*
X028869Y013765D02*
X028939Y013695D01*
X028939Y013625D01*
X028869Y013555D01*
X028729Y013555D01*
X028659Y013625D01*
X028659Y013695D01*
X028729Y013765D01*
X028479Y013905D02*
X028479Y013625D01*
X028409Y013555D01*
X028269Y013555D01*
X028199Y013625D01*
X028479Y013905D01*
X028409Y013975D01*
X028269Y013975D01*
X028199Y013905D01*
X028199Y013625D01*
X028019Y013625D02*
X027949Y013555D01*
X027808Y013555D01*
X027738Y013625D01*
X027808Y013765D02*
X027949Y013765D01*
X028019Y013695D01*
X028019Y013625D01*
X027808Y013765D02*
X027738Y013835D01*
X027738Y013905D01*
X027808Y013975D01*
X027949Y013975D01*
X028019Y013905D01*
X027558Y013555D02*
X027278Y013555D01*
X027278Y013975D01*
X027028Y013975D02*
X026818Y013765D01*
X027098Y013765D01*
X027028Y013555D02*
X027028Y013975D01*
X026637Y013975D02*
X026637Y013905D01*
X026357Y013625D01*
X026357Y013555D01*
X026357Y013975D02*
X026637Y013975D01*
X027015Y009790D02*
X020015Y009790D01*
X020015Y009040D01*
X020054Y009038D01*
X020093Y009032D01*
X020131Y009023D01*
X020168Y009010D01*
X020204Y008993D01*
X020237Y008973D01*
X020269Y008949D01*
X020298Y008923D01*
X020324Y008894D01*
X020348Y008862D01*
X020368Y008829D01*
X020385Y008793D01*
X020398Y008756D01*
X020407Y008718D01*
X020413Y008679D01*
X020415Y008640D01*
X020413Y008601D01*
X020407Y008562D01*
X020398Y008524D01*
X020385Y008487D01*
X020368Y008451D01*
X020348Y008418D01*
X020324Y008386D01*
X020298Y008357D01*
X020269Y008331D01*
X020237Y008307D01*
X020204Y008287D01*
X020168Y008270D01*
X020131Y008257D01*
X020093Y008248D01*
X020054Y008242D01*
X020015Y008240D01*
X020015Y007490D01*
X027015Y007490D01*
X027015Y009790D01*
X023948Y008850D02*
X023948Y008430D01*
X023667Y008850D01*
X023667Y008430D01*
X023417Y008430D02*
X023417Y008850D01*
X023207Y008640D01*
X023487Y008640D01*
X023027Y008500D02*
X022957Y008430D01*
X022817Y008430D01*
X022747Y008500D01*
X023027Y008780D01*
X023027Y008500D01*
X023027Y008780D02*
X022957Y008850D01*
X022817Y008850D01*
X022747Y008780D01*
X022747Y008500D01*
X022566Y008500D02*
X022496Y008430D01*
X022356Y008430D01*
X022286Y008500D01*
X022356Y008640D02*
X022496Y008640D01*
X022566Y008570D01*
X022566Y008500D01*
X022356Y008640D02*
X022286Y008710D01*
X022286Y008780D01*
X022356Y008850D01*
X022496Y008850D01*
X022566Y008780D01*
X022106Y008430D02*
X021826Y008430D01*
X021826Y008850D01*
X021576Y008850D02*
X021365Y008640D01*
X021646Y008640D01*
X021576Y008430D02*
X021576Y008850D01*
X021185Y008850D02*
X021185Y008780D01*
X020905Y008500D01*
X020905Y008430D01*
X020905Y008850D02*
X021185Y008850D01*
X019590Y008490D02*
X019590Y009790D01*
X019588Y009816D01*
X019583Y009842D01*
X019575Y009867D01*
X019563Y009890D01*
X019549Y009912D01*
X019531Y009931D01*
X019512Y009949D01*
X019490Y009963D01*
X019467Y009975D01*
X019442Y009983D01*
X019416Y009988D01*
X019390Y009990D01*
X019140Y009640D02*
X019140Y009260D01*
X019140Y009010D02*
X019140Y008640D01*
X018890Y008290D02*
X018864Y008292D01*
X018838Y008297D01*
X018813Y008305D01*
X018790Y008317D01*
X018768Y008331D01*
X018749Y008349D01*
X018731Y008368D01*
X018717Y008390D01*
X018705Y008413D01*
X018697Y008438D01*
X018692Y008464D01*
X018690Y008490D01*
X018690Y009790D01*
X018692Y009816D01*
X018697Y009842D01*
X018705Y009867D01*
X018717Y009890D01*
X018731Y009912D01*
X018749Y009931D01*
X018768Y009949D01*
X018790Y009963D01*
X018813Y009975D01*
X018838Y009983D01*
X018864Y009988D01*
X018890Y009990D01*
X019590Y008490D02*
X019588Y008464D01*
X019583Y008438D01*
X019575Y008413D01*
X019563Y008390D01*
X019549Y008368D01*
X019531Y008349D01*
X019512Y008331D01*
X019490Y008317D01*
X019467Y008305D01*
X019442Y008297D01*
X019416Y008292D01*
X019390Y008290D01*
X019405Y007613D02*
X019475Y007613D01*
X019755Y007333D01*
X019825Y007333D01*
X019825Y007153D02*
X019825Y006872D01*
X019825Y007012D02*
X019405Y007012D01*
X019545Y006872D01*
X019475Y006692D02*
X019405Y006622D01*
X019405Y006482D01*
X019475Y006412D01*
X019755Y006412D01*
X019825Y006482D01*
X019825Y006622D01*
X019755Y006692D01*
X019825Y006245D02*
X019825Y006105D01*
X019825Y006175D02*
X019405Y006175D01*
X019405Y006105D02*
X019405Y006245D01*
X019405Y007333D02*
X019405Y007613D01*
X014023Y008500D02*
X013953Y008430D01*
X013812Y008430D01*
X013742Y008500D01*
X013562Y008500D02*
X013562Y008570D01*
X013492Y008640D01*
X013282Y008640D01*
X013282Y008500D01*
X013352Y008430D01*
X013492Y008430D01*
X013562Y008500D01*
X013422Y008780D02*
X013282Y008640D01*
X013422Y008780D02*
X013562Y008850D01*
X013742Y008780D02*
X013812Y008850D01*
X013953Y008850D01*
X014023Y008780D01*
X014023Y008710D01*
X013953Y008640D01*
X014023Y008570D01*
X014023Y008500D01*
X013953Y008640D02*
X013882Y008640D01*
X013102Y008430D02*
X012822Y008430D01*
X012962Y008430D02*
X012962Y008850D01*
X012822Y008710D01*
X012641Y008780D02*
X012571Y008850D01*
X012431Y008850D01*
X012361Y008780D01*
X012361Y008710D01*
X012431Y008640D01*
X012571Y008640D01*
X012641Y008570D01*
X012641Y008500D01*
X012571Y008430D01*
X012431Y008430D01*
X012361Y008500D01*
X012181Y008430D02*
X011901Y008430D01*
X011901Y008850D01*
X011651Y008850D02*
X011440Y008640D01*
X011721Y008640D01*
X011651Y008430D02*
X011651Y008850D01*
X011260Y008850D02*
X011260Y008780D01*
X010980Y008500D01*
X010980Y008430D01*
X010980Y008850D02*
X011260Y008850D01*
X009465Y009865D02*
X009463Y009839D01*
X009458Y009813D01*
X009450Y009788D01*
X009438Y009765D01*
X009424Y009743D01*
X009406Y009724D01*
X009387Y009706D01*
X009365Y009692D01*
X009342Y009680D01*
X009317Y009672D01*
X009291Y009667D01*
X009265Y009665D01*
X035440Y012740D02*
X035440Y014040D01*
X035442Y014066D01*
X035447Y014092D01*
X035455Y014117D01*
X035467Y014140D01*
X035481Y014162D01*
X035499Y014181D01*
X035518Y014199D01*
X035540Y014213D01*
X035563Y014225D01*
X035588Y014233D01*
X035614Y014238D01*
X035640Y014240D01*
X035890Y013890D02*
X035890Y013510D01*
X035890Y013260D02*
X035890Y012890D01*
X035640Y012540D02*
X035614Y012542D01*
X035588Y012547D01*
X035563Y012555D01*
X035540Y012567D01*
X035518Y012581D01*
X035499Y012599D01*
X035481Y012618D01*
X035467Y012640D01*
X035455Y012663D01*
X035447Y012688D01*
X035442Y012714D01*
X035440Y012740D01*
X036140Y012540D02*
X036166Y012542D01*
X036192Y012547D01*
X036217Y012555D01*
X036240Y012567D01*
X036262Y012581D01*
X036281Y012599D01*
X036299Y012618D01*
X036313Y012640D01*
X036325Y012663D01*
X036333Y012688D01*
X036338Y012714D01*
X036340Y012740D01*
X036340Y014040D01*
X036338Y014066D01*
X036333Y014092D01*
X036325Y014117D01*
X036313Y014140D01*
X036299Y014162D01*
X036281Y014181D01*
X036262Y014199D01*
X036240Y014213D01*
X036217Y014225D01*
X036192Y014233D01*
X036166Y014238D01*
X036140Y014240D01*
X036890Y014040D02*
X036890Y013290D01*
X036929Y013288D01*
X036968Y013282D01*
X037006Y013273D01*
X037043Y013260D01*
X037079Y013243D01*
X037112Y013223D01*
X037144Y013199D01*
X037173Y013173D01*
X037199Y013144D01*
X037223Y013112D01*
X037243Y013079D01*
X037260Y013043D01*
X037273Y013006D01*
X037282Y012968D01*
X037288Y012929D01*
X037290Y012890D01*
X037288Y012851D01*
X037282Y012812D01*
X037273Y012774D01*
X037260Y012737D01*
X037243Y012701D01*
X037223Y012668D01*
X037199Y012636D01*
X037173Y012607D01*
X037144Y012581D01*
X037112Y012557D01*
X037079Y012537D01*
X037043Y012520D01*
X037006Y012507D01*
X036968Y012498D01*
X036929Y012492D01*
X036890Y012490D01*
X036890Y011740D01*
X043890Y011740D01*
X043890Y014040D01*
X036890Y014040D01*
X037780Y013100D02*
X038060Y013100D01*
X038060Y013030D01*
X037780Y012750D01*
X037780Y012680D01*
X038240Y012890D02*
X038521Y012890D01*
X038451Y012680D02*
X038451Y013100D01*
X038240Y012890D01*
X038701Y012680D02*
X038981Y012680D01*
X039161Y012750D02*
X039231Y012680D01*
X039371Y012680D01*
X039441Y012750D01*
X039441Y012820D01*
X039371Y012890D01*
X039231Y012890D01*
X039161Y012960D01*
X039161Y013030D01*
X039231Y013100D01*
X039371Y013100D01*
X039441Y013030D01*
X039622Y013030D02*
X039692Y013100D01*
X039832Y013100D01*
X039902Y013030D01*
X039902Y012960D01*
X039832Y012890D01*
X039902Y012820D01*
X039902Y012750D01*
X039832Y012680D01*
X039692Y012680D01*
X039622Y012750D01*
X039762Y012890D02*
X039832Y012890D01*
X040082Y013030D02*
X040152Y013100D01*
X040292Y013100D01*
X040362Y013030D01*
X040362Y012960D01*
X040082Y012680D01*
X040362Y012680D01*
X040542Y012680D02*
X040542Y013100D01*
X040823Y012680D01*
X040823Y013100D01*
X038701Y013100D02*
X038701Y012680D01*
X036700Y011833D02*
X036700Y011692D01*
X036630Y011622D01*
X036490Y011692D02*
X036490Y011903D01*
X036630Y011903D02*
X036350Y011903D01*
X036280Y011833D01*
X036280Y011692D01*
X036350Y011622D01*
X036420Y011622D01*
X036490Y011692D01*
X036700Y011833D02*
X036630Y011903D01*
X036630Y011442D02*
X036700Y011372D01*
X036700Y011232D01*
X036630Y011162D01*
X036350Y011162D01*
X036280Y011232D01*
X036280Y011372D01*
X036350Y011442D01*
X036280Y010995D02*
X036280Y010855D01*
X036280Y010925D02*
X036700Y010925D01*
X036700Y010855D02*
X036700Y010995D01*
X036640Y007640D02*
X037140Y007640D01*
X037390Y007390D01*
X037390Y005890D01*
X037140Y005640D01*
X036640Y005640D01*
X036390Y005890D01*
X036390Y007390D01*
X036640Y007640D01*
X037390Y007390D02*
X037640Y007640D01*
X038140Y007640D01*
X038390Y007390D01*
X038390Y005890D01*
X038140Y005640D01*
X037640Y005640D01*
X037390Y005890D01*
X038390Y005890D02*
X038640Y005640D01*
X039140Y005640D01*
X039390Y005890D01*
X039390Y007390D01*
X039640Y007640D01*
X040140Y007640D01*
X040390Y007390D01*
X040390Y005890D01*
X040140Y005640D01*
X039640Y005640D01*
X039390Y005890D01*
X040390Y005890D02*
X040640Y005640D01*
X041140Y005640D01*
X041390Y005890D01*
X041390Y007390D01*
X041640Y007640D01*
X042140Y007640D01*
X042390Y007390D01*
X042390Y005890D01*
X042140Y005640D01*
X041640Y005640D01*
X041390Y005890D01*
X042390Y005890D02*
X042640Y005640D01*
X043140Y005640D01*
X043390Y005890D01*
X043390Y007390D01*
X043640Y007640D01*
X044140Y007640D01*
X044390Y007390D01*
X044390Y005890D01*
X044140Y005640D01*
X043640Y005640D01*
X043390Y005890D01*
X044390Y005890D02*
X044640Y005640D01*
X045140Y005640D01*
X045390Y005890D01*
X045390Y007390D01*
X045640Y007640D01*
X046140Y007640D01*
X046390Y007390D01*
X046390Y005890D01*
X046140Y005640D01*
X045640Y005640D01*
X045390Y005890D01*
X046390Y005890D02*
X046640Y005640D01*
X047140Y005640D01*
X047390Y005890D01*
X047390Y007390D01*
X047640Y007640D01*
X048140Y007640D01*
X048390Y007390D01*
X048390Y005890D01*
X048140Y005640D01*
X047640Y005640D01*
X047390Y005890D01*
X048390Y005890D02*
X048640Y005640D01*
X049140Y005640D01*
X049390Y005890D01*
X049390Y007390D01*
X049140Y007640D01*
X048640Y007640D01*
X048390Y007390D01*
X049390Y007390D02*
X049640Y007640D01*
X050140Y007640D01*
X050390Y007390D01*
X050390Y005890D01*
X050140Y005640D01*
X049640Y005640D01*
X049390Y005890D01*
X050390Y005890D02*
X050640Y005640D01*
X051140Y005640D01*
X051390Y005890D01*
X051390Y007390D01*
X051140Y007640D01*
X050640Y007640D01*
X050390Y007390D01*
X051390Y007390D02*
X051640Y007640D01*
X052140Y007640D01*
X052390Y007390D01*
X052390Y005890D01*
X052140Y005640D01*
X051640Y005640D01*
X051390Y005890D01*
X052390Y005890D02*
X052640Y005640D01*
X053140Y005640D01*
X053390Y005890D01*
X053390Y007390D01*
X053140Y007640D01*
X052640Y007640D01*
X052390Y007390D01*
X053390Y007390D02*
X053640Y007640D01*
X054140Y007640D01*
X054390Y007390D01*
X054390Y005890D01*
X054140Y005640D01*
X053640Y005640D01*
X053390Y005890D01*
X053259Y005350D02*
X053049Y005350D01*
X053049Y004930D01*
X053049Y005070D02*
X053259Y005070D01*
X053329Y005140D01*
X053329Y005280D01*
X053259Y005350D01*
X053509Y005210D02*
X053649Y005350D01*
X053649Y004930D01*
X053509Y004930D02*
X053789Y004930D01*
X053970Y005000D02*
X054250Y005280D01*
X054250Y005000D01*
X054180Y004930D01*
X054040Y004930D01*
X053970Y005000D01*
X053970Y005280D01*
X054040Y005350D01*
X054180Y005350D01*
X054250Y005280D01*
X052869Y005350D02*
X052729Y005350D01*
X052799Y005350D02*
X052799Y005000D01*
X052729Y004930D01*
X052658Y004930D01*
X052588Y005000D01*
X047390Y007390D02*
X047140Y007640D01*
X046640Y007640D01*
X046390Y007390D01*
X045390Y007390D02*
X045140Y007640D01*
X044640Y007640D01*
X044390Y007390D01*
X043390Y007390D02*
X043140Y007640D01*
X042640Y007640D01*
X042390Y007390D01*
X041390Y007390D02*
X041140Y007640D01*
X040640Y007640D01*
X040390Y007390D01*
X039390Y007390D02*
X039140Y007640D01*
X038640Y007640D01*
X038390Y007390D01*
X047390Y011740D02*
X047390Y014040D01*
X054390Y014040D01*
X054390Y013290D01*
X054351Y013288D01*
X054312Y013282D01*
X054274Y013273D01*
X054237Y013260D01*
X054201Y013243D01*
X054168Y013223D01*
X054136Y013199D01*
X054107Y013173D01*
X054081Y013144D01*
X054057Y013112D01*
X054037Y013079D01*
X054020Y013043D01*
X054007Y013006D01*
X053998Y012968D01*
X053992Y012929D01*
X053990Y012890D01*
X053992Y012851D01*
X053998Y012812D01*
X054007Y012774D01*
X054020Y012737D01*
X054037Y012701D01*
X054057Y012668D01*
X054081Y012636D01*
X054107Y012607D01*
X054136Y012581D01*
X054168Y012557D01*
X054201Y012537D01*
X054237Y012520D01*
X054274Y012507D01*
X054312Y012498D01*
X054351Y012492D01*
X054390Y012490D01*
X054390Y011740D01*
X047390Y011740D01*
X050357Y012680D02*
X050357Y012750D01*
X050637Y013030D01*
X050637Y013100D01*
X050357Y013100D01*
X050818Y012890D02*
X051098Y012890D01*
X051028Y012680D02*
X051028Y013100D01*
X050818Y012890D01*
X051278Y012680D02*
X051558Y012680D01*
X051738Y012750D02*
X051808Y012680D01*
X051949Y012680D01*
X052019Y012750D01*
X052019Y012820D01*
X051949Y012890D01*
X051808Y012890D01*
X051738Y012960D01*
X051738Y013030D01*
X051808Y013100D01*
X051949Y013100D01*
X052019Y013030D01*
X052199Y013030D02*
X052269Y013100D01*
X052409Y013100D01*
X052479Y013030D01*
X052199Y012750D01*
X052269Y012680D01*
X052409Y012680D01*
X052479Y012750D01*
X052479Y013030D01*
X052659Y013030D02*
X052729Y013100D01*
X052869Y013100D01*
X052939Y013030D01*
X052659Y012750D01*
X052729Y012680D01*
X052869Y012680D01*
X052939Y012750D01*
X052939Y013030D01*
X053120Y013100D02*
X053400Y012680D01*
X053400Y013100D01*
X053120Y013100D02*
X053120Y012680D01*
X052659Y012750D02*
X052659Y013030D01*
X052199Y013030D02*
X052199Y012750D01*
X051278Y012680D02*
X051278Y013100D01*
X054580Y013652D02*
X054580Y013792D01*
X054580Y013722D02*
X055000Y013722D01*
X055000Y013652D02*
X055000Y013792D01*
X054930Y013959D02*
X055000Y014029D01*
X055000Y014169D01*
X054930Y014239D01*
X054790Y014420D02*
X054790Y014700D01*
X055000Y014630D02*
X054580Y014630D01*
X054790Y014420D01*
X054650Y014239D02*
X054580Y014169D01*
X054580Y014029D01*
X054650Y013959D01*
X054930Y013959D01*
X054940Y013040D02*
X054940Y011740D01*
X054942Y011714D01*
X054947Y011688D01*
X054955Y011663D01*
X054967Y011640D01*
X054981Y011618D01*
X054999Y011599D01*
X055018Y011581D01*
X055040Y011567D01*
X055063Y011555D01*
X055088Y011547D01*
X055114Y011542D01*
X055140Y011540D01*
X055390Y011890D02*
X055390Y012270D01*
X055390Y012520D02*
X055390Y012890D01*
X055640Y013240D02*
X055666Y013238D01*
X055692Y013233D01*
X055717Y013225D01*
X055740Y013213D01*
X055762Y013199D01*
X055781Y013181D01*
X055799Y013162D01*
X055813Y013140D01*
X055825Y013117D01*
X055833Y013092D01*
X055838Y013066D01*
X055840Y013040D01*
X055840Y011740D01*
X055838Y011714D01*
X055833Y011688D01*
X055825Y011663D01*
X055813Y011640D01*
X055799Y011618D01*
X055781Y011599D01*
X055762Y011581D01*
X055740Y011567D01*
X055717Y011555D01*
X055692Y011547D01*
X055666Y011542D01*
X055640Y011540D01*
X054940Y013040D02*
X054942Y013066D01*
X054947Y013092D01*
X054955Y013117D01*
X054967Y013140D01*
X054981Y013162D01*
X054999Y013181D01*
X055018Y013199D01*
X055040Y013213D01*
X055063Y013225D01*
X055088Y013233D01*
X055114Y013238D01*
X055140Y013240D01*
X058765Y013390D02*
X058765Y012890D01*
X059015Y012640D01*
X060515Y012640D01*
X060765Y012390D01*
X060765Y011890D01*
X060515Y011640D01*
X059015Y011640D01*
X058765Y011390D01*
X058765Y010890D01*
X059015Y010640D01*
X058765Y010390D01*
X058765Y009890D01*
X059015Y009640D01*
X060515Y009640D01*
X060765Y009890D01*
X060765Y010390D01*
X060515Y010640D01*
X059015Y010640D01*
X059015Y011640D02*
X058765Y011890D01*
X058765Y012390D01*
X059015Y012640D01*
X058765Y013390D02*
X059015Y013640D01*
X060515Y013640D01*
X060765Y013390D01*
X060765Y012890D01*
X060515Y012640D01*
X060515Y011640D02*
X060765Y011390D01*
X060765Y010890D01*
X060515Y010640D01*
X060326Y008350D02*
X060186Y008210D01*
X060006Y008280D02*
X059936Y008350D01*
X059796Y008350D01*
X059726Y008280D01*
X059726Y008000D01*
X059796Y007930D01*
X059936Y007930D01*
X060006Y008000D01*
X060186Y007930D02*
X060466Y007930D01*
X060326Y007930D02*
X060326Y008350D01*
X060515Y007640D02*
X060015Y007640D01*
X059765Y007390D01*
X059765Y005890D01*
X060015Y005640D01*
X060515Y005640D01*
X060765Y005890D01*
X060765Y007390D01*
X060515Y007640D01*
X059765Y007390D02*
X059515Y007640D01*
X059015Y007640D01*
X058765Y007390D01*
X058765Y005890D01*
X059015Y005640D01*
X059515Y005640D01*
X059765Y005890D01*
X062040Y006390D02*
X062240Y006390D01*
X062140Y006290D02*
X062140Y006490D01*
X062340Y006540D02*
X062340Y006140D01*
X062340Y005740D01*
X062540Y005740D01*
X062540Y006540D01*
X062340Y006540D01*
X062340Y006140D02*
X062090Y006140D01*
X061510Y005606D02*
X061541Y005544D01*
X061576Y005485D01*
X061613Y005427D01*
X061654Y005372D01*
X061698Y005318D01*
X061745Y005268D01*
X061794Y005220D01*
X061846Y005175D01*
X061900Y005132D01*
X061957Y005093D01*
X062015Y005057D01*
X062076Y005024D01*
X062138Y004995D01*
X062202Y004969D01*
X062267Y004947D01*
X062333Y004928D01*
X062401Y004913D01*
X062468Y004902D01*
X062537Y004894D01*
X062606Y004890D01*
X062674Y004890D01*
X062743Y004894D01*
X062812Y004902D01*
X062879Y004913D01*
X062947Y004928D01*
X063013Y004947D01*
X063078Y004969D01*
X063142Y004995D01*
X063204Y005024D01*
X063265Y005057D01*
X063323Y005093D01*
X063380Y005132D01*
X063434Y005175D01*
X063486Y005220D01*
X063535Y005268D01*
X063582Y005318D01*
X063626Y005372D01*
X063667Y005427D01*
X063704Y005485D01*
X063739Y005544D01*
X063770Y005606D01*
X063190Y006140D02*
X062890Y006140D01*
X063770Y006674D02*
X063739Y006736D01*
X063704Y006795D01*
X063667Y006853D01*
X063626Y006908D01*
X063582Y006962D01*
X063535Y007012D01*
X063486Y007060D01*
X063434Y007105D01*
X063380Y007148D01*
X063323Y007187D01*
X063265Y007223D01*
X063204Y007256D01*
X063142Y007285D01*
X063078Y007311D01*
X063013Y007333D01*
X062947Y007352D01*
X062879Y007367D01*
X062812Y007378D01*
X062743Y007386D01*
X062674Y007390D01*
X062606Y007390D01*
X062537Y007386D01*
X062468Y007378D01*
X062401Y007367D01*
X062333Y007352D01*
X062267Y007333D01*
X062202Y007311D01*
X062138Y007285D01*
X062076Y007256D01*
X062015Y007223D01*
X061957Y007187D01*
X061900Y007148D01*
X061846Y007105D01*
X061794Y007060D01*
X061745Y007012D01*
X061698Y006962D01*
X061654Y006908D01*
X061613Y006853D01*
X061576Y006795D01*
X061541Y006736D01*
X061510Y006674D01*
X059546Y008000D02*
X059476Y007930D01*
X059335Y007930D01*
X059265Y008000D01*
X059265Y008280D01*
X059335Y008350D01*
X059476Y008350D01*
X059546Y008280D01*
X059085Y008350D02*
X059085Y008070D01*
X058945Y007930D01*
X058805Y008070D01*
X058805Y008350D01*
X059015Y013640D02*
X058765Y013890D01*
X058765Y014390D01*
X059015Y014640D01*
X060515Y014640D01*
X060765Y014390D01*
X060765Y013890D01*
X060515Y013640D01*
X060515Y014640D02*
X060765Y014890D01*
X060765Y015390D01*
X060515Y015640D01*
X059015Y015640D01*
X058765Y015390D01*
X058765Y014890D01*
X059015Y014640D01*
X059015Y015640D02*
X058765Y015890D01*
X058765Y016390D01*
X059015Y016640D01*
X060515Y016640D01*
X060765Y016390D01*
X060765Y015890D01*
X060515Y015640D01*
X061055Y016439D02*
X061055Y016579D01*
X061055Y016509D02*
X061405Y016509D01*
X061475Y016439D01*
X061475Y016369D01*
X061405Y016299D01*
X061475Y016759D02*
X061055Y016759D01*
X061055Y016969D01*
X061125Y017039D01*
X061265Y017039D01*
X061335Y016969D01*
X061335Y016759D01*
X061475Y017220D02*
X061195Y017500D01*
X061125Y017500D01*
X061055Y017430D01*
X061055Y017290D01*
X061125Y017220D01*
X061475Y017220D02*
X061475Y017500D01*
X060765Y017390D02*
X060765Y016890D01*
X060515Y016640D01*
X060765Y017390D02*
X060515Y017640D01*
X059015Y017640D01*
X058765Y017390D01*
X058765Y016890D01*
X059015Y016640D01*
D11*
X055690Y012520D02*
X055390Y012520D01*
X055090Y012520D01*
X055090Y012270D02*
X055390Y012270D01*
X055690Y012270D01*
X051510Y021590D02*
X051510Y021890D01*
X051510Y022190D01*
X051260Y022190D02*
X051260Y021890D01*
X051260Y021590D01*
X052090Y026260D02*
X052390Y026260D01*
X052690Y026260D01*
X052690Y026510D02*
X052390Y026510D01*
X052090Y026510D01*
X042315Y026510D02*
X042015Y026510D01*
X041715Y026510D01*
X041715Y026260D02*
X042015Y026260D01*
X042315Y026260D01*
X031010Y027090D02*
X031010Y027390D01*
X031010Y027690D01*
X030760Y027690D02*
X030760Y027390D01*
X030760Y027090D01*
X029565Y033260D02*
X029265Y033260D01*
X028965Y033260D01*
X028965Y033510D02*
X029265Y033510D01*
X029565Y033510D01*
X031340Y038270D02*
X031640Y038270D01*
X031940Y038270D01*
X031940Y038520D02*
X031640Y038520D01*
X031340Y038520D01*
X048260Y039965D02*
X048260Y040265D01*
X048260Y040565D01*
X048510Y040565D02*
X048510Y040265D01*
X048510Y039965D01*
X020690Y026510D02*
X020390Y026510D01*
X020090Y026510D01*
X020090Y026260D02*
X020390Y026260D01*
X020690Y026260D01*
X020690Y020510D02*
X020390Y020510D01*
X020090Y020510D01*
X020090Y020260D02*
X020390Y020260D01*
X020690Y020260D01*
X031090Y013645D02*
X031390Y013645D01*
X031690Y013645D01*
X031690Y013395D02*
X031390Y013395D01*
X031090Y013395D01*
X035590Y013510D02*
X035890Y013510D01*
X036190Y013510D01*
X036190Y013260D02*
X035890Y013260D01*
X035590Y013260D01*
X019440Y009260D02*
X019140Y009260D01*
X018840Y009260D01*
X018840Y009010D02*
X019140Y009010D01*
X019440Y009010D01*
X009315Y010395D02*
X009015Y010395D01*
X008715Y010395D01*
X008715Y010645D02*
X009015Y010645D01*
X009315Y010645D01*
X009315Y014135D02*
X009015Y014135D01*
X008715Y014135D01*
X008715Y014385D02*
X009015Y014385D01*
X009315Y014385D01*
X009190Y020260D02*
X008890Y020260D01*
X008590Y020260D01*
X008590Y020510D02*
X008890Y020510D01*
X009190Y020510D01*
X009190Y026260D02*
X008890Y026260D01*
X008590Y026260D01*
X008590Y026510D02*
X008890Y026510D01*
X009190Y026510D01*
D12*
X062840Y006140D03*
M02*
