G75*
%MOIN*%
%OFA0B0*%
%FSLAX24Y24*%
%IPPOS*%
%LPD*%
%AMOC8*
5,1,8,0,0,1.08239X$1,22.5*
%
%ADD10C,0.1180*%
%ADD11C,0.0640*%
%ADD12OC8,0.0640*%
%ADD13OC8,0.0720*%
%ADD14C,0.0720*%
%ADD15C,0.0830*%
%ADD16OC8,0.0830*%
%ADD17C,0.0580*%
D10*
X005265Y006140D03*
X005265Y041140D03*
X065765Y041140D03*
X065765Y006140D03*
D11*
X053890Y011110D02*
X053890Y011670D01*
X052890Y011670D02*
X052890Y011110D01*
X051890Y011110D02*
X051890Y011670D01*
X050890Y011670D02*
X050890Y011110D01*
X049890Y011110D02*
X049890Y011670D01*
X048890Y011670D02*
X048890Y011110D01*
X047890Y011110D02*
X047890Y011670D01*
X047890Y014110D02*
X047890Y014670D01*
X048890Y014670D02*
X048890Y014110D01*
X049890Y014110D02*
X049890Y014670D01*
X050890Y014670D02*
X050890Y014110D01*
X051890Y014110D02*
X051890Y014670D01*
X052890Y014670D02*
X052890Y014110D01*
X053890Y014110D02*
X053890Y014670D01*
X053890Y018610D02*
X053890Y019170D01*
X054890Y019170D02*
X054890Y018610D01*
X055890Y018610D02*
X055890Y019170D01*
X056890Y019170D02*
X056890Y018610D01*
X057890Y018610D02*
X057890Y019170D01*
X058890Y019170D02*
X058890Y018610D01*
X059890Y018610D02*
X059890Y019170D01*
X060890Y019170D02*
X060890Y018610D01*
X060890Y021610D02*
X060890Y022170D01*
X059890Y022170D02*
X059890Y021610D01*
X058890Y021610D02*
X058890Y022170D01*
X057890Y022170D02*
X057890Y021610D01*
X056890Y021610D02*
X056890Y022170D01*
X055890Y022170D02*
X055890Y021610D01*
X054890Y021610D02*
X054890Y022170D01*
X053890Y022170D02*
X053890Y021610D01*
X053890Y024110D02*
X053890Y024670D01*
X054890Y024670D02*
X054890Y024110D01*
X055890Y024110D02*
X055890Y024670D01*
X056890Y024670D02*
X056890Y024110D01*
X057890Y024110D02*
X057890Y024670D01*
X058890Y024670D02*
X058890Y024110D01*
X059890Y024110D02*
X059890Y024670D01*
X060890Y024670D02*
X060890Y024110D01*
X060890Y027110D02*
X060890Y027670D01*
X059890Y027670D02*
X059890Y027110D01*
X058890Y027110D02*
X058890Y027670D01*
X057890Y027670D02*
X057890Y027110D01*
X056890Y027110D02*
X056890Y027670D01*
X055890Y027670D02*
X055890Y027110D01*
X054890Y027110D02*
X054890Y027670D01*
X053890Y027670D02*
X053890Y027110D01*
X049670Y029640D02*
X049110Y029640D01*
X049110Y030640D02*
X049670Y030640D01*
X049670Y031640D02*
X049110Y031640D01*
X049110Y032640D02*
X049670Y032640D01*
X049670Y033640D02*
X049110Y033640D01*
X049110Y034640D02*
X049670Y034640D01*
X049670Y035640D02*
X049110Y035640D01*
X049110Y036640D02*
X049670Y036640D01*
X049670Y037640D02*
X049110Y037640D01*
X049110Y038640D02*
X049670Y038640D01*
X046670Y038640D02*
X046110Y038640D01*
X046110Y037640D02*
X046670Y037640D01*
X046670Y036640D02*
X046110Y036640D01*
X046110Y035640D02*
X046670Y035640D01*
X046670Y034640D02*
X046110Y034640D01*
X046110Y033640D02*
X046670Y033640D01*
X046670Y032640D02*
X046110Y032640D01*
X046110Y031640D02*
X046670Y031640D01*
X046670Y030640D02*
X046110Y030640D01*
X046110Y029640D02*
X046670Y029640D01*
X046390Y027670D02*
X046390Y027110D01*
X045390Y027110D02*
X045390Y027670D01*
X044390Y027670D02*
X044390Y027110D01*
X043390Y027110D02*
X043390Y027670D01*
X039890Y027670D02*
X039890Y027110D01*
X038890Y027110D02*
X038890Y027670D01*
X037890Y027670D02*
X037890Y027110D01*
X036890Y027110D02*
X036890Y027670D01*
X035890Y027670D02*
X035890Y027110D01*
X034890Y027110D02*
X034890Y027670D01*
X033890Y027670D02*
X033890Y027110D01*
X032890Y027110D02*
X032890Y027670D01*
X032890Y024670D02*
X032890Y024110D01*
X033890Y024110D02*
X033890Y024670D01*
X034890Y024670D02*
X034890Y024110D01*
X035890Y024110D02*
X035890Y024670D01*
X036890Y024670D02*
X036890Y024110D01*
X037890Y024110D02*
X037890Y024670D01*
X038890Y024670D02*
X038890Y024110D01*
X039890Y024110D02*
X039890Y024670D01*
X043390Y024670D02*
X043390Y024110D01*
X044390Y024110D02*
X044390Y024670D01*
X045390Y024670D02*
X045390Y024110D01*
X046390Y024110D02*
X046390Y024670D01*
X047390Y024670D02*
X047390Y024110D01*
X048390Y024110D02*
X048390Y024670D01*
X049390Y024670D02*
X049390Y024110D01*
X049390Y027110D02*
X049390Y027670D01*
X048390Y027670D02*
X048390Y027110D01*
X047390Y027110D02*
X047390Y027670D01*
X041890Y034110D02*
X041890Y034670D01*
X040890Y034670D02*
X040890Y034110D01*
X039890Y034110D02*
X039890Y034670D01*
X038890Y034670D02*
X038890Y034110D01*
X037890Y034110D02*
X037890Y034670D01*
X036890Y034670D02*
X036890Y034110D01*
X035890Y034110D02*
X035890Y034670D01*
X034890Y034670D02*
X034890Y034110D01*
X033890Y034110D02*
X033890Y034670D01*
X032890Y034670D02*
X032890Y034110D01*
X032890Y037110D02*
X032890Y037670D01*
X033890Y037670D02*
X033890Y037110D01*
X034890Y037110D02*
X034890Y037670D01*
X035890Y037670D02*
X035890Y037110D01*
X036890Y037110D02*
X036890Y037670D01*
X037890Y037670D02*
X037890Y037110D01*
X038890Y037110D02*
X038890Y037670D01*
X039890Y037670D02*
X039890Y037110D01*
X040890Y037110D02*
X040890Y037670D01*
X041890Y037670D02*
X041890Y037110D01*
X028015Y037110D02*
X028015Y037670D01*
X027015Y037670D02*
X027015Y037110D01*
X026015Y037110D02*
X026015Y037670D01*
X025015Y037670D02*
X025015Y037110D01*
X024015Y037110D02*
X024015Y037670D01*
X023015Y037670D02*
X023015Y037110D01*
X022015Y037110D02*
X022015Y037670D01*
X021015Y037670D02*
X021015Y037110D01*
X021015Y034670D02*
X021015Y034110D01*
X022015Y034110D02*
X022015Y034670D01*
X023015Y034670D02*
X023015Y034110D01*
X024015Y034110D02*
X024015Y034670D01*
X025015Y034670D02*
X025015Y034110D01*
X026015Y034110D02*
X026015Y034670D01*
X027015Y034670D02*
X027015Y034110D01*
X028015Y034110D02*
X028015Y034670D01*
X027890Y027670D02*
X027890Y027110D01*
X026890Y027110D02*
X026890Y027670D01*
X025890Y027670D02*
X025890Y027110D01*
X024890Y027110D02*
X024890Y027670D01*
X023890Y027670D02*
X023890Y027110D01*
X022890Y027110D02*
X022890Y027670D01*
X021890Y027670D02*
X021890Y027110D01*
X021890Y024670D02*
X021890Y024110D01*
X022890Y024110D02*
X022890Y024670D01*
X023890Y024670D02*
X023890Y024110D01*
X024890Y024110D02*
X024890Y024670D01*
X025890Y024670D02*
X025890Y024110D01*
X026890Y024110D02*
X026890Y024670D01*
X027890Y024670D02*
X027890Y024110D01*
X027890Y021670D02*
X027890Y021110D01*
X028890Y021110D02*
X028890Y021670D01*
X026890Y021670D02*
X026890Y021110D01*
X025890Y021110D02*
X025890Y021670D01*
X024890Y021670D02*
X024890Y021110D01*
X023890Y021110D02*
X023890Y021670D01*
X022890Y021670D02*
X022890Y021110D01*
X021890Y021110D02*
X021890Y021670D01*
X021890Y018670D02*
X021890Y018110D01*
X022890Y018110D02*
X022890Y018670D01*
X023890Y018670D02*
X023890Y018110D01*
X024890Y018110D02*
X024890Y018670D01*
X025890Y018670D02*
X025890Y018110D01*
X026890Y018110D02*
X026890Y018670D01*
X027890Y018670D02*
X027890Y018110D01*
X028890Y018110D02*
X028890Y018670D01*
X028890Y015545D02*
X028890Y014985D01*
X027890Y014985D02*
X027890Y015545D01*
X026890Y015545D02*
X026890Y014985D01*
X025890Y014985D02*
X025890Y015545D01*
X024890Y015545D02*
X024890Y014985D01*
X023890Y014985D02*
X023890Y015545D01*
X023890Y012545D02*
X023890Y011985D01*
X024890Y011985D02*
X024890Y012545D01*
X025890Y012545D02*
X025890Y011985D01*
X026890Y011985D02*
X026890Y012545D01*
X027890Y012545D02*
X027890Y011985D01*
X028890Y011985D02*
X028890Y012545D01*
X029890Y012545D02*
X029890Y011985D01*
X026515Y010420D02*
X026515Y009860D01*
X025515Y009860D02*
X025515Y010420D01*
X024515Y010420D02*
X024515Y009860D01*
X023515Y009860D02*
X023515Y010420D01*
X022515Y010420D02*
X022515Y009860D01*
X021515Y009860D02*
X021515Y010420D01*
X020515Y010420D02*
X020515Y009860D01*
X017390Y009860D02*
X017390Y010420D01*
X016390Y010420D02*
X016390Y009860D01*
X015390Y009860D02*
X015390Y010420D01*
X014390Y010420D02*
X014390Y009860D01*
X013390Y009860D02*
X013390Y010420D01*
X012390Y010420D02*
X012390Y009860D01*
X011390Y009860D02*
X011390Y010420D01*
X010390Y010420D02*
X010390Y009860D01*
X010390Y011985D02*
X010390Y012545D01*
X011390Y012545D02*
X011390Y011985D01*
X012390Y011985D02*
X012390Y012545D01*
X013390Y012545D02*
X013390Y011985D01*
X014390Y011985D02*
X014390Y012545D01*
X015390Y012545D02*
X015390Y011985D01*
X016390Y011985D02*
X016390Y012545D01*
X017390Y012545D02*
X017390Y011985D01*
X017390Y014985D02*
X017390Y015545D01*
X016390Y015545D02*
X016390Y014985D01*
X015390Y014985D02*
X015390Y015545D01*
X014390Y015545D02*
X014390Y014985D01*
X013390Y014985D02*
X013390Y015545D01*
X012390Y015545D02*
X012390Y014985D01*
X011390Y014985D02*
X011390Y015545D01*
X010390Y015545D02*
X010390Y014985D01*
X010390Y018110D02*
X010390Y018670D01*
X011390Y018670D02*
X011390Y018110D01*
X012390Y018110D02*
X012390Y018670D01*
X013390Y018670D02*
X013390Y018110D01*
X014390Y018110D02*
X014390Y018670D01*
X015390Y018670D02*
X015390Y018110D01*
X016390Y018110D02*
X016390Y018670D01*
X017390Y018670D02*
X017390Y018110D01*
X017390Y021110D02*
X017390Y021670D01*
X016390Y021670D02*
X016390Y021110D01*
X015390Y021110D02*
X015390Y021670D01*
X014390Y021670D02*
X014390Y021110D01*
X013390Y021110D02*
X013390Y021670D01*
X012390Y021670D02*
X012390Y021110D01*
X011390Y021110D02*
X011390Y021670D01*
X010390Y021670D02*
X010390Y021110D01*
X010390Y024110D02*
X010390Y024670D01*
X011390Y024670D02*
X011390Y024110D01*
X012390Y024110D02*
X012390Y024670D01*
X013390Y024670D02*
X013390Y024110D01*
X014390Y024110D02*
X014390Y024670D01*
X015390Y024670D02*
X015390Y024110D01*
X016390Y024110D02*
X016390Y024670D01*
X017390Y024670D02*
X017390Y024110D01*
X017390Y027110D02*
X017390Y027670D01*
X016390Y027670D02*
X016390Y027110D01*
X015390Y027110D02*
X015390Y027670D01*
X014390Y027670D02*
X014390Y027110D01*
X013390Y027110D02*
X013390Y027670D01*
X012390Y027670D02*
X012390Y027110D01*
X011390Y027110D02*
X011390Y027670D01*
X010390Y027670D02*
X010390Y027110D01*
X029890Y015545D02*
X029890Y014985D01*
X037390Y014670D02*
X037390Y014110D01*
X038390Y014110D02*
X038390Y014670D01*
X039390Y014670D02*
X039390Y014110D01*
X040390Y014110D02*
X040390Y014670D01*
X041390Y014670D02*
X041390Y014110D01*
X042390Y014110D02*
X042390Y014670D01*
X043390Y014670D02*
X043390Y014110D01*
X043390Y011670D02*
X043390Y011110D01*
X042390Y011110D02*
X042390Y011670D01*
X041390Y011670D02*
X041390Y011110D01*
X040390Y011110D02*
X040390Y011670D01*
X039390Y011670D02*
X039390Y011110D01*
X038390Y011110D02*
X038390Y011670D01*
X037390Y011670D02*
X037390Y011110D01*
X026515Y007420D02*
X026515Y006860D01*
X025515Y006860D02*
X025515Y007420D01*
X024515Y007420D02*
X024515Y006860D01*
X023515Y006860D02*
X023515Y007420D01*
X022515Y007420D02*
X022515Y006860D01*
X021515Y006860D02*
X021515Y007420D01*
X020515Y007420D02*
X020515Y006860D01*
X017390Y006860D02*
X017390Y007420D01*
X016390Y007420D02*
X016390Y006860D01*
X015390Y006860D02*
X015390Y007420D01*
X014390Y007420D02*
X014390Y006860D01*
X013390Y006860D02*
X013390Y007420D01*
X012390Y007420D02*
X012390Y006860D01*
X011390Y006860D02*
X011390Y007420D01*
X010390Y007420D02*
X010390Y006860D01*
X062610Y029140D02*
X063170Y029140D01*
X063170Y030140D02*
X062610Y030140D01*
X062610Y031140D02*
X063170Y031140D01*
X063170Y032140D02*
X062610Y032140D01*
X062610Y033140D02*
X063170Y033140D01*
X063170Y034140D02*
X062610Y034140D01*
X062610Y035140D02*
X063170Y035140D01*
X063170Y036140D02*
X062610Y036140D01*
X062610Y037140D02*
X063170Y037140D01*
D12*
X049390Y040265D03*
X047390Y040265D03*
X031640Y039390D03*
X031640Y037390D03*
X029265Y034390D03*
X029265Y032390D03*
X029890Y027390D03*
X031890Y027390D03*
X042015Y027390D03*
X042015Y025390D03*
X050390Y021890D03*
X052390Y021890D03*
X052390Y025390D03*
X052390Y027390D03*
X035890Y014390D03*
X035890Y012390D03*
X031390Y012515D03*
X031390Y014515D03*
X020390Y019390D03*
X020390Y021390D03*
X020390Y025390D03*
X020390Y027390D03*
X008890Y027390D03*
X008890Y025390D03*
X008890Y021390D03*
X008890Y019390D03*
X009015Y015265D03*
X009015Y013265D03*
X009015Y011515D03*
X009015Y009515D03*
X019140Y010140D03*
X019140Y008140D03*
X055390Y011390D03*
X055390Y013390D03*
D13*
X059265Y013140D03*
X060265Y013140D03*
X060265Y012140D03*
X059265Y012140D03*
X059265Y011140D03*
X060265Y011140D03*
X060265Y010140D03*
X059265Y010140D03*
X059265Y007140D03*
X060265Y007140D03*
X060265Y006140D03*
X059265Y006140D03*
X053890Y006140D03*
X053890Y007140D03*
X052890Y007140D03*
X051890Y007140D03*
X051890Y006140D03*
X052890Y006140D03*
X050890Y006140D03*
X049890Y006140D03*
X049890Y007140D03*
X050890Y007140D03*
X048890Y007140D03*
X047890Y007140D03*
X046890Y007140D03*
X046890Y006140D03*
X047890Y006140D03*
X048890Y006140D03*
X045890Y006140D03*
X044890Y006140D03*
X044890Y007140D03*
X045890Y007140D03*
X043890Y007140D03*
X042890Y007140D03*
X041890Y007140D03*
X041890Y006140D03*
X042890Y006140D03*
X043890Y006140D03*
X040890Y006140D03*
X039890Y006140D03*
X039890Y007140D03*
X040890Y007140D03*
X038890Y007140D03*
X037890Y007140D03*
X036890Y007140D03*
X036890Y006140D03*
X037890Y006140D03*
X038890Y006140D03*
X059265Y014140D03*
X060265Y014140D03*
X060265Y015140D03*
X059265Y015140D03*
X059265Y016140D03*
X060265Y016140D03*
X060265Y017140D03*
X059265Y017140D03*
X059265Y030140D03*
X060265Y030140D03*
X060265Y031140D03*
X059265Y031140D03*
X059265Y032140D03*
X060265Y032140D03*
X060265Y033140D03*
X059265Y033140D03*
X059265Y034140D03*
X060265Y034140D03*
X060265Y035140D03*
X059265Y035140D03*
X059265Y036140D03*
X060265Y036140D03*
X060265Y037140D03*
X059265Y037140D03*
X059265Y040140D03*
X060265Y040140D03*
X060265Y041140D03*
X059265Y041140D03*
X008390Y041140D03*
X007390Y041140D03*
X007390Y040140D03*
X008390Y040140D03*
X006765Y037140D03*
X005765Y037140D03*
X005765Y036140D03*
X006765Y036140D03*
X006765Y035140D03*
X005765Y035140D03*
X005765Y034140D03*
X006765Y034140D03*
X006765Y033140D03*
X005765Y033140D03*
X005765Y032140D03*
X006765Y032140D03*
X006765Y031140D03*
X005765Y031140D03*
X005765Y030140D03*
X006765Y030140D03*
X006765Y017140D03*
X005765Y017140D03*
X005765Y016140D03*
X006765Y016140D03*
X006765Y015140D03*
X005765Y015140D03*
X005765Y014140D03*
X006765Y014140D03*
X006765Y013140D03*
X005765Y013140D03*
X005765Y012140D03*
X006765Y012140D03*
X006765Y011140D03*
X005765Y011140D03*
X005765Y010140D03*
X006765Y010140D03*
X007390Y007140D03*
X008390Y007140D03*
X008390Y006140D03*
X007390Y006140D03*
D14*
X008695Y032140D02*
X009335Y032140D01*
X009335Y033140D02*
X008695Y033140D01*
X008695Y034140D02*
X009335Y034140D01*
X009335Y035140D02*
X008695Y035140D01*
X008695Y036140D02*
X009335Y036140D01*
X009335Y037140D02*
X008695Y037140D01*
X063945Y027515D02*
X064585Y027515D01*
X064585Y026515D02*
X063945Y026515D01*
X063945Y025515D02*
X064585Y025515D01*
X064585Y024515D02*
X063945Y024515D01*
X063945Y023515D02*
X064585Y023515D01*
X064585Y022515D02*
X063945Y022515D01*
X063945Y021515D02*
X064585Y021515D01*
X064585Y020515D02*
X063945Y020515D01*
X063945Y019515D02*
X064585Y019515D01*
D15*
X061640Y006140D03*
D16*
X063640Y006140D03*
D17*
X048390Y017140D03*
X048390Y019265D03*
X046390Y022015D03*
X044515Y021765D03*
X042140Y018265D03*
X037515Y018265D03*
X034015Y019640D03*
X032890Y019140D03*
X032890Y015765D03*
X034015Y015765D03*
X022390Y022890D03*
X024890Y029140D03*
X023890Y029890D03*
X026265Y029890D03*
X042265Y029140D03*
X043015Y031015D03*
X048890Y026140D03*
X046390Y014015D03*
X033140Y008015D03*
X020515Y015265D03*
M02*
