%
M48
M72
T01C0.0240
T02C0.0320
T03C0.0400
T04C0.1100
%
T01
X13515Y7140
X14515Y5390
X15515Y5390
X20890Y6015
X23890Y6765
X26640Y8265
X27890Y8265
X25390Y9765
X26640Y13015
X25390Y15015
X23890Y15890
X24890Y18515
X27890Y21015
X27390Y21515
X30265Y21015
X30890Y21015
X34140Y23015
X32390Y25265
X30390Y28140
X29890Y31640
X31890Y34390
X34890Y32140
X36890Y33640
X39890Y34890
X40890Y35390
X41890Y35890
X43890Y34390
X45015Y32890
X47765Y34015
X50265Y35390
X51265Y35890
X54265Y36390
X50765Y38390
X51765Y38890
X46765Y37890
X39890Y32140
X43390Y30640
X44390Y31140
X42890Y29140
X42390Y28765
X40890Y28640
X41390Y24765
X42390Y21890
X40890Y20890
X39390Y21390
X42890Y20390
X45640Y24765
X47765Y28140
X48765Y28640
X49765Y29140
X52765Y27640
X50765Y25265
X55015Y16765
X55640Y16140
X54265Y15515
X49140Y9765
X44015Y10265
X43515Y9765
X38265Y11015
X36765Y10265
X35765Y8890
X33890Y10265
X34390Y12140
X32265Y12640
X33390Y15015
X31890Y16015
X28890Y17515
X36015Y15515
X37515Y14515
X41515Y15265
X32140Y6390
X18390Y12265
X16640Y13265
X18015Y17015
X18890Y18515
X20390Y18515
X20015Y20640
X21890Y21515
X17015Y21515
X18015Y24765
X21515Y25265
X17015Y28140
X16015Y28640
X18515Y28640
X20515Y29140
X19015Y31140
X20015Y31640
X19515Y32140
X13015Y35390
X11515Y38390
X12515Y38890
X9640Y39390
X15890Y39890
X36390Y39390
X36890Y38890
X37890Y38390
X9640Y25265
X10515Y18390
X12515Y18015
X15515Y18015
X13015Y9640
X11515Y9765
T02
X11015Y11015
X10015Y11015
X8765Y11015
X8765Y9015
X10015Y8015
X11015Y8015
X12015Y8015
X13015Y8015
X14015Y8015
X15015Y8015
X16015Y8015
X17890Y8265
X19390Y8015
X20390Y8015
X21390Y8015
X22390Y8015
X23390Y8015
X24390Y8015
X25390Y8015
X28140Y9015
X29390Y8015
X30390Y8015
X31390Y8015
X32390Y8015
X33390Y8015
X34390Y8015
X35390Y8015
X35390Y11015
X34390Y11015
X33390Y11015
X32390Y11015
X31390Y11015
X30390Y11015
X29390Y11015
X28140Y11015
X25390Y11015
X24390Y11015
X23390Y11015
X22390Y11015
X21390Y11015
X20390Y11015
X19390Y11015
X17890Y10265
X16015Y11015
X15015Y11015
X14015Y11015
X13015Y11015
X12015Y11015
X12015Y13765
X13015Y13765
X14015Y13765
X15015Y13765
X16015Y13765
X18015Y14265
X19390Y13765
X20390Y13765
X21390Y13765
X22390Y13765
X23390Y13765
X24390Y13765
X25390Y13765
X29390Y13765
X30390Y13765
X31390Y13765
X32390Y13765
X33390Y13765
X34390Y13765
X35390Y13765
X38265Y14015
X39515Y14015
X40515Y14015
X41515Y14015
X42515Y14015
X43515Y14015
X44515Y14015
X45515Y14015
X47515Y14015
X49015Y14015
X50015Y14015
X51015Y14015
X52015Y14015
X53015Y14015
X54015Y14015
X55015Y14015
X55015Y11015
X54015Y11015
X53015Y11015
X52015Y11015
X51015Y11015
X50015Y11015
X49015Y11015
X47515Y12015
X45515Y11015
X44515Y11015
X43515Y11015
X42515Y11015
X41515Y11015
X40515Y11015
X39515Y11015
X38265Y12015
X35390Y16765
X34390Y16765
X33390Y16765
X32390Y16765
X31390Y16765
X30390Y16765
X29390Y16765
X27265Y16515
X25390Y16765
X24390Y16765
X23390Y16765
X22390Y16765
X21390Y16765
X20390Y16765
X19390Y16765
X18015Y16265
X16015Y16765
X15015Y16765
X14015Y16765
X13015Y16765
X12015Y16765
X11015Y16765
X10015Y16765
X8765Y16765
X8765Y14765
X10015Y13765
X11015Y13765
X11140Y23515
X10140Y23515
X9140Y23515
X8140Y23515
X7140Y23515
X6140Y23515
X6140Y26515
X7140Y26515
X8140Y26515
X9140Y26515
X10140Y26515
X11140Y26515
X12140Y26515
X13140Y26515
X14640Y26515
X16015Y26515
X17015Y26515
X18015Y26515
X19015Y26515
X20015Y26515
X21015Y26515
X22015Y26515
X23015Y26515
X25015Y26890
X26390Y26515
X27390Y26515
X28390Y26515
X29390Y26515
X30390Y26515
X31390Y26515
X32390Y26515
X33390Y26515
X35390Y26515
X36390Y26515
X37390Y26515
X38390Y26515
X39390Y26515
X40390Y26515
X41390Y26515
X42390Y26515
X43390Y26515
X44765Y26765
X46265Y26515
X47265Y26515
X48265Y26515
X49265Y26515
X50265Y26515
X51265Y26515
X52265Y26515
X53265Y26515
X53265Y23515
X52265Y23515
X51265Y23515
X50265Y23515
X49265Y23515
X48265Y23515
X47265Y23515
X46265Y23515
X44765Y24765
X43390Y23515
X42390Y23515
X41390Y23515
X40390Y23515
X39390Y23515
X38390Y23515
X37390Y23515
X36390Y23515
X33390Y23515
X32390Y23515
X31390Y23515
X30390Y23515
X29390Y23515
X28390Y23515
X27390Y23515
X26390Y23515
X25015Y24890
X23015Y23515
X22015Y23515
X21015Y23515
X20015Y23515
X19015Y23515
X18015Y23515
X17015Y23515
X16015Y23515
X14640Y24515
X13140Y23515
X12140Y23515
X8140Y27765
X6140Y27765
X11015Y29890
X12015Y29890
X13015Y29890
X14015Y29890
X15015Y29890
X16015Y29890
X17015Y29890
X18015Y29890
X19015Y29890
X20015Y29890
X21015Y29890
X22015Y29890
X23015Y29890
X24015Y29890
X28390Y29890
X29390Y29890
X30390Y29890
X31390Y29890
X32390Y29890
X33390Y29890
X34390Y29890
X35390Y29890
X36390Y29890
X37390Y29890
X38390Y29890
X39390Y29890
X40390Y29890
X41390Y29890
X41390Y32890
X40390Y32890
X39390Y32890
X38390Y32890
X37390Y32890
X36390Y32890
X35390Y32890
X34390Y32890
X33390Y32890
X32390Y32890
X31390Y32890
X30390Y32890
X29390Y32890
X28390Y32890
X29265Y34390
X27265Y34390
X24015Y32890
X23015Y32890
X22015Y32890
X21015Y32890
X20015Y32890
X19015Y32890
X18015Y32890
X17015Y32890
X16015Y32890
X15015Y32890
X14015Y32890
X13015Y32890
X12015Y32890
X11015Y32890
X11015Y34140
X11015Y36140
X18515Y37140
X19515Y37140
X20515Y37140
X21515Y37140
X22515Y37140
X23515Y37140
X24515Y37140
X25515Y37140
X26515Y37140
X27515Y37140
X28640Y37140
X30640Y37140
X27515Y40140
X26515Y40140
X25515Y40140
X24515Y40140
X23515Y40140
X22515Y40140
X21515Y40140
X20515Y40140
X19515Y40140
X18515Y40140
X35890Y40140
X36890Y40140
X37890Y40140
X38890Y40140
X39890Y40140
X40890Y40140
X41890Y40140
X42890Y40140
X43890Y40140
X44890Y40140
X44890Y37140
X43890Y37140
X42890Y37140
X41890Y37140
X40890Y37140
X39890Y37140
X38890Y37140
X37890Y37140
X36890Y37140
X35890Y37140
X46015Y37140
X48015Y37140
X48265Y32890
X47265Y32890
X46265Y32890
X49265Y32890
X50265Y32890
X51265Y32890
X52265Y32890
X53265Y32890
X54265Y32890
X55265Y32890
X56765Y31890
X56765Y29890
X55265Y29890
X54265Y29890
X53265Y29890
X52265Y29890
X51265Y29890
X50265Y29890
X49265Y29890
X48265Y29890
X47265Y29890
X46265Y29890
X35390Y28515
X27265Y18515
X61515Y6890
X62515Y6890
T03
X60015Y6890
X60015Y5890
X59015Y5890
X59015Y6890
X59015Y9890
X59015Y10890
X59015Y11890
X59015Y12890
X59015Y13890
X59015Y14890
X59015Y15890
X60015Y15890
X60015Y14890
X60015Y13890
X60015Y12890
X60015Y11890
X60015Y10890
X60015Y9890
X53640Y6890
X53640Y5890
X52640Y5890
X51640Y5890
X50640Y5890
X50640Y6890
X51640Y6890
X52640Y6890
X49640Y6890
X48640Y6890
X48640Y5890
X49640Y5890
X47640Y5890
X46640Y5890
X46640Y6890
X47640Y6890
X45640Y6890
X44640Y6890
X43640Y6890
X43640Y5890
X44640Y5890
X45640Y5890
X42640Y5890
X41640Y5890
X41640Y6890
X42640Y6890
X40640Y6890
X39640Y6890
X39640Y5890
X40640Y5890
X38640Y5890
X37640Y5890
X36640Y5890
X36640Y6890
X37640Y6890
X38640Y6890
X59015Y16890
X59015Y17890
X59015Y18890
X59015Y19890
X59015Y20890
X59015Y21890
X59015Y22890
X60015Y22890
X60015Y21890
X60015Y20890
X60015Y19890
X60015Y18890
X60015Y17890
X60015Y16890
X60015Y29890
X59015Y29890
X59015Y30890
X59015Y31890
X59015Y32890
X59015Y33890
X59015Y34890
X59015Y35890
X59015Y36890
X60015Y36890
X60015Y35890
X60015Y34890
X60015Y33890
X60015Y32890
X60015Y31890
X60015Y30890
X60015Y39890
X60015Y40890
X59015Y40890
X59015Y39890
X8140Y39890
X7140Y39890
X7140Y40890
X8140Y40890
X6515Y36890
X6515Y35890
X6515Y34890
X6515Y33890
X6515Y32890
X6515Y31890
X6515Y30890
X5515Y30890
X5515Y31890
X5515Y32890
X5515Y33890
X5515Y34890
X5515Y35890
X5515Y36890
X5515Y29890
X6515Y29890
X6515Y16890
X5515Y16890
X5515Y15890
X5515Y14890
X5515Y13890
X5515Y12890
X5515Y11890
X5515Y10890
X5515Y9890
X6515Y9890
X6515Y10890
X6515Y11890
X6515Y12890
X6515Y13890
X6515Y14890
X6515Y15890
X7140Y6890
X8140Y6890
X8140Y5890
X7140Y5890
T04
X5015Y5890
X5015Y40890
X65515Y40890
X65515Y5890
M30
