%
M48
M72
T01C0.0240
T02C0.0320
T03C0.0400
T04C0.1100
%
T01
X9640Y5140
X9640Y7265
X13515Y9265
X15890Y10640
X16390Y9265
X16390Y8015
X17390Y8015
X18890Y9265
X20890Y8765
X21765Y10640
X24890Y11140
X22140Y13640
X22640Y14640
X23140Y15640
X23640Y16640
X30765Y17890
X30640Y18640
X31265Y19140
X33515Y20015
X34265Y19140
X35265Y19640
X35265Y17890
X31265Y14265
X30765Y13765
X31765Y12765
X36765Y9765
X39140Y9890
X40015Y10890
X40765Y10890
X41515Y10140
X40015Y12140
X40140Y5015
X63515Y9265
X63390Y11640
X51515Y22640
X43140Y25390
X42015Y23265
X38890Y22765
X31765Y22015
X31140Y22140
X29640Y26390
X29640Y28390
X30390Y28390
X28890Y28890
X28140Y28890
X20765Y32640
X16390Y38515
X14890Y39390
X16640Y40765
X18640Y41265
X32515Y34015
X33015Y34765
X35265Y37640
X35265Y39515
X19890Y24765
X20140Y21890
X14640Y20765
X14140Y22890
X60015Y29640
T02
X57515Y28015
X57890Y26515
X56890Y26515
X55890Y26515
X55515Y28015
X55765Y30265
X54765Y30265
X53765Y30265
X52765Y30265
X51765Y30265
X50765Y30265
X49765Y30265
X49765Y33265
X50765Y33265
X51765Y33265
X52765Y33265
X53765Y33265
X54765Y33265
X55765Y33265
X56765Y33265
X56765Y30265
X51765Y27015
X50765Y27015
X49765Y27015
X48765Y27015
X47765Y27015
X46765Y27015
X45765Y27015
X44765Y27015
X43140Y27015
X41140Y27015
X37140Y27015
X36140Y27015
X35140Y27015
X34140Y27015
X33140Y27015
X32140Y27015
X31140Y27015
X26890Y27015
X25890Y27015
X24890Y27015
X23890Y27015
X22890Y27015
X21890Y27015
X20890Y27015
X17890Y26890
X16890Y26890
X15890Y26890
X14890Y26890
X13890Y26890
X12890Y26890
X11890Y26890
X10890Y26890
X10890Y28390
X8890Y28390
X10890Y23890
X11890Y23890
X12890Y23890
X13890Y23890
X14890Y23890
X15890Y23890
X16890Y23890
X17890Y23890
X20890Y24015
X21890Y24015
X22890Y24015
X23890Y24015
X24890Y24015
X25890Y24015
X26890Y24015
X27765Y24015
X29765Y24015
X31140Y24015
X32140Y24015
X33140Y24015
X34140Y24015
X35140Y24015
X36140Y24015
X37140Y24015
X38890Y24015
X40890Y24015
X44765Y24015
X45765Y24015
X46765Y24015
X47765Y24015
X48765Y24015
X49765Y24015
X50765Y24015
X51765Y24015
X55890Y23515
X56890Y23515
X57890Y23515
X58890Y23515
X59890Y23515
X60890Y23515
X61890Y23515
X61890Y26515
X60890Y26515
X59890Y26515
X58890Y26515
X55015Y19140
X55015Y18140
X55015Y17140
X55015Y16140
X55015Y15140
X55015Y14140
X55015Y13140
X55015Y12140
X54015Y10640
X52015Y10640
X52015Y12140
X52015Y13140
X52015Y14140
X52015Y15140
X52015Y16140
X52015Y17140
X52015Y18140
X52015Y19140
X49015Y19140
X49015Y18140
X49015Y17140
X49015Y16140
X49015Y15140
X49015Y14140
X49015Y13140
X49015Y12140
X48015Y10765
X46015Y10765
X44890Y11265
X46015Y12140
X46015Y13140
X46015Y14140
X46015Y15140
X46015Y16140
X46015Y17140
X46015Y18140
X46015Y19140
X42890Y19140
X42890Y18140
X42890Y17140
X42890Y16140
X42890Y15140
X42890Y14140
X42890Y13140
X42890Y11265
X39890Y13140
X39890Y14140
X39890Y15140
X39890Y16140
X39890Y17140
X39890Y18140
X39890Y19140
X36765Y17265
X36765Y16265
X36765Y15265
X36765Y14265
X36765Y13265
X36765Y12265
X36765Y11265
X33765Y11265
X33765Y10015
X31765Y10015
X29140Y10140
X29140Y11140
X29140Y12140
X29140Y13140
X29140Y14140
X29140Y15140
X29140Y16140
X29140Y17140
X29140Y18140
X29140Y19140
X26140Y19140
X26140Y18140
X26140Y17140
X26140Y16140
X26140Y15140
X26140Y14140
X26140Y13140
X26140Y12140
X26140Y11140
X26140Y10140
X20765Y10140
X20765Y11140
X20765Y12140
X20765Y13140
X20765Y14140
X20765Y15140
X20765Y16140
X20765Y17140
X20765Y18140
X20765Y19140
X20140Y20515
X18140Y20515
X17765Y19140
X17765Y18140
X17765Y17140
X17765Y16140
X17765Y15140
X17765Y14140
X17765Y13140
X17765Y12140
X17765Y11140
X17765Y10140
X13515Y11140
X13515Y12140
X13515Y13140
X13515Y14140
X13515Y15140
X13515Y16140
X13515Y17140
X13515Y18140
X13515Y19140
X13515Y20140
X10515Y20140
X10515Y19140
X10515Y18140
X10515Y17140
X10515Y16140
X10515Y15140
X10515Y14140
X10515Y13140
X10515Y12140
X10515Y11140
X10515Y9515
X12515Y9515
X26765Y22515
X28765Y22515
X33765Y17265
X33765Y16265
X33765Y15265
X33765Y14265
X33765Y13265
X33765Y12265
X31765Y30515
X30765Y30515
X29765Y30515
X28765Y30515
X27765Y30515
X26765Y30515
X25765Y30515
X24765Y30515
X23015Y31640
X23015Y33640
X24765Y33515
X25765Y33515
X26765Y33515
X27765Y33515
X28765Y33515
X29765Y33515
X30765Y33515
X31765Y33515
X31765Y36515
X30765Y36515
X29765Y36515
X28765Y36515
X27765Y36515
X26765Y36515
X25765Y36515
X24390Y37515
X24390Y39515
X25765Y39515
X26765Y39515
X27765Y39515
X28765Y39515
X29765Y39515
X30765Y39515
X31765Y39515
X37390Y39515
X38765Y39515
X39765Y39515
X40765Y39515
X41765Y39515
X42765Y39515
X43765Y39515
X44765Y39515
X44765Y36515
X43765Y36515
X42765Y36515
X41765Y36515
X40765Y36515
X39765Y36515
X38765Y36515
X37390Y37515
X36890Y34890
X38890Y34890
X38765Y33265
X37765Y33265
X39765Y33265
X40765Y33265
X41765Y33265
X42765Y33265
X43765Y33265
X44765Y33265
X44765Y30265
X43765Y30265
X42765Y30265
X41765Y30265
X40765Y30265
X39765Y30265
X38765Y30265
X37765Y30265
X49765Y34890
X49765Y36890
X19640Y37140
X19640Y36140
X19640Y35140
X19640Y34140
X19640Y33140
X19640Y32140
X19640Y31140
X16640Y31140
X16640Y32140
X16640Y33140
X16640Y34140
X16640Y35140
X16640Y36140
X16640Y37140
X13890Y37140
X13890Y36140
X13890Y35140
X13890Y34140
X13890Y33140
X10890Y33140
X10890Y34140
X10890Y35140
X10890Y36140
X10890Y37140
X10890Y38140
X10890Y39140
X13140Y40765
X13890Y39140
X13890Y38140
X17640Y39140
X19640Y39140
X15140Y40765
X61890Y7140
X62890Y7140
T03
X60265Y7140
X59265Y7140
X59265Y6140
X60265Y6140
X60265Y10140
X59265Y10140
X59265Y11140
X60265Y11140
X60265Y12140
X59265Y12140
X59265Y13140
X60265Y13140
X60265Y14140
X59265Y14140
X59265Y15140
X60265Y15140
X60265Y16140
X59265Y16140
X59265Y17140
X60265Y17140
X64265Y19515
X64265Y20515
X64265Y21515
X64265Y22515
X64265Y23515
X64265Y24515
X64265Y25515
X64265Y26515
X64265Y27515
X60265Y40140
X59265Y40140
X59265Y41140
X60265Y41140
X53890Y7140
X53890Y6140
X52890Y6140
X51890Y6140
X51890Y7140
X52890Y7140
X50890Y7140
X49890Y7140
X49890Y6140
X50890Y6140
X48890Y6140
X47890Y6140
X46890Y6140
X46890Y7140
X47890Y7140
X48890Y7140
X45890Y7140
X44890Y7140
X44890Y6140
X45890Y6140
X43890Y6140
X42890Y6140
X41890Y6140
X41890Y7140
X42890Y7140
X43890Y7140
X40890Y7140
X39890Y7140
X39890Y6140
X40890Y6140
X38890Y6140
X37890Y6140
X36890Y6140
X36890Y7140
X37890Y7140
X38890Y7140
X33890Y7140
X32890Y7140
X32890Y6140
X33890Y6140
X31890Y6140
X30890Y6140
X29890Y6140
X29890Y7140
X30890Y7140
X31890Y7140
X28890Y7140
X27890Y7140
X27890Y6140
X28890Y6140
X26890Y6140
X25890Y6140
X24890Y6140
X24890Y7140
X25890Y7140
X26890Y7140
X23890Y7140
X22890Y7140
X22890Y6140
X23890Y6140
X21890Y6140
X20890Y6140
X19890Y6140
X19890Y7140
X20890Y7140
X21890Y7140
X18890Y7140
X17890Y7140
X17890Y6140
X18890Y6140
X16890Y6140
X15890Y6140
X15890Y7140
X16890Y7140
X14890Y7140
X13890Y7140
X12890Y7140
X12890Y6140
X13890Y6140
X14890Y6140
X11890Y6140
X10890Y6140
X10890Y7140
X11890Y7140
X8390Y7140
X7390Y7140
X7390Y6140
X8390Y6140
X6765Y10140
X5765Y10140
X5765Y11140
X6765Y11140
X6765Y12140
X5765Y12140
X5765Y13140
X6765Y13140
X6765Y14140
X5765Y14140
X5765Y15140
X6765Y15140
X6765Y16140
X5765Y16140
X5765Y17140
X6765Y17140
X6765Y20140
X5765Y20140
X5765Y21140
X6765Y21140
X6765Y22140
X5765Y22140
X5765Y23140
X6765Y23140
X6765Y24140
X5765Y24140
X5765Y25140
X6765Y25140
X6765Y26140
X5765Y26140
X5765Y27140
X6765Y27140
X6765Y30140
X5765Y30140
X5765Y31140
X6765Y31140
X6765Y32140
X5765Y32140
X5765Y33140
X6765Y33140
X6765Y34140
X5765Y34140
X5765Y35140
X6765Y35140
X6765Y36140
X5765Y36140
X5765Y37140
X6765Y37140
X7390Y40140
X8390Y40140
X8390Y41140
X7390Y41140
T04
X5265Y6140
X5265Y41140
X65765Y41140
X65765Y6140
M30
