G75*
%MOIN*%
%OFA0B0*%
%FSLAX24Y24*%
%IPPOS*%
%LPD*%
%AMOC8*
5,1,8,0,0,1.08239X$1,22.5*
%
%ADD10C,0.1180*%
%ADD11C,0.0640*%
%ADD12OC8,0.0640*%
%ADD13OC8,0.0710*%
%ADD14C,0.0710*%
%ADD15OC8,0.0720*%
%ADD16C,0.0720*%
%ADD17C,0.0580*%
D10*
X005265Y006140D03*
X005265Y041140D03*
X065765Y041140D03*
X065765Y006140D03*
D11*
X055295Y012140D02*
X054735Y012140D01*
X054735Y013140D02*
X055295Y013140D01*
X055295Y014140D02*
X054735Y014140D01*
X054735Y015140D02*
X055295Y015140D01*
X055295Y016140D02*
X054735Y016140D01*
X054735Y017140D02*
X055295Y017140D01*
X055295Y018140D02*
X054735Y018140D01*
X054735Y019140D02*
X055295Y019140D01*
X052295Y019140D02*
X051735Y019140D01*
X051735Y018140D02*
X052295Y018140D01*
X052295Y017140D02*
X051735Y017140D01*
X051735Y016140D02*
X052295Y016140D01*
X052295Y015140D02*
X051735Y015140D01*
X051735Y014140D02*
X052295Y014140D01*
X052295Y013140D02*
X051735Y013140D01*
X051735Y012140D02*
X052295Y012140D01*
X049295Y012140D02*
X048735Y012140D01*
X048735Y013140D02*
X049295Y013140D01*
X049295Y014140D02*
X048735Y014140D01*
X048735Y015140D02*
X049295Y015140D01*
X049295Y016140D02*
X048735Y016140D01*
X048735Y017140D02*
X049295Y017140D01*
X049295Y018140D02*
X048735Y018140D01*
X048735Y019140D02*
X049295Y019140D01*
X046295Y019140D02*
X045735Y019140D01*
X045735Y018140D02*
X046295Y018140D01*
X046295Y017140D02*
X045735Y017140D01*
X045735Y016140D02*
X046295Y016140D01*
X046295Y015140D02*
X045735Y015140D01*
X045735Y014140D02*
X046295Y014140D01*
X046295Y013140D02*
X045735Y013140D01*
X045735Y012140D02*
X046295Y012140D01*
X043170Y013140D02*
X042610Y013140D01*
X042610Y014140D02*
X043170Y014140D01*
X043170Y015140D02*
X042610Y015140D01*
X042610Y016140D02*
X043170Y016140D01*
X043170Y017140D02*
X042610Y017140D01*
X042610Y018140D02*
X043170Y018140D01*
X043170Y019140D02*
X042610Y019140D01*
X040170Y019140D02*
X039610Y019140D01*
X039610Y018140D02*
X040170Y018140D01*
X040170Y017140D02*
X039610Y017140D01*
X039610Y016140D02*
X040170Y016140D01*
X040170Y015140D02*
X039610Y015140D01*
X039610Y014140D02*
X040170Y014140D01*
X040170Y013140D02*
X039610Y013140D01*
X037045Y013265D02*
X036485Y013265D01*
X036485Y012265D02*
X037045Y012265D01*
X037045Y011265D02*
X036485Y011265D01*
X034045Y011265D02*
X033485Y011265D01*
X033485Y012265D02*
X034045Y012265D01*
X034045Y013265D02*
X033485Y013265D01*
X033485Y014265D02*
X034045Y014265D01*
X034045Y015265D02*
X033485Y015265D01*
X033485Y016265D02*
X034045Y016265D01*
X034045Y017265D02*
X033485Y017265D01*
X036485Y017265D02*
X037045Y017265D01*
X037045Y016265D02*
X036485Y016265D01*
X036485Y015265D02*
X037045Y015265D01*
X037045Y014265D02*
X036485Y014265D01*
X029420Y014140D02*
X028860Y014140D01*
X028860Y013140D02*
X029420Y013140D01*
X029420Y012140D02*
X028860Y012140D01*
X028860Y011140D02*
X029420Y011140D01*
X029420Y010140D02*
X028860Y010140D01*
X026420Y010140D02*
X025860Y010140D01*
X025860Y011140D02*
X026420Y011140D01*
X026420Y012140D02*
X025860Y012140D01*
X025860Y013140D02*
X026420Y013140D01*
X026420Y014140D02*
X025860Y014140D01*
X025860Y015140D02*
X026420Y015140D01*
X026420Y016140D02*
X025860Y016140D01*
X025860Y017140D02*
X026420Y017140D01*
X026420Y018140D02*
X025860Y018140D01*
X025860Y019140D02*
X026420Y019140D01*
X028860Y019140D02*
X029420Y019140D01*
X029420Y018140D02*
X028860Y018140D01*
X028860Y017140D02*
X029420Y017140D01*
X029420Y016140D02*
X028860Y016140D01*
X028860Y015140D02*
X029420Y015140D01*
X021045Y015140D02*
X020485Y015140D01*
X020485Y016140D02*
X021045Y016140D01*
X021045Y017140D02*
X020485Y017140D01*
X020485Y018140D02*
X021045Y018140D01*
X021045Y019140D02*
X020485Y019140D01*
X018045Y019140D02*
X017485Y019140D01*
X017485Y018140D02*
X018045Y018140D01*
X018045Y017140D02*
X017485Y017140D01*
X017485Y016140D02*
X018045Y016140D01*
X018045Y015140D02*
X017485Y015140D01*
X017485Y014140D02*
X018045Y014140D01*
X018045Y013140D02*
X017485Y013140D01*
X017485Y012140D02*
X018045Y012140D01*
X018045Y011140D02*
X017485Y011140D01*
X017485Y010140D02*
X018045Y010140D01*
X020485Y010140D02*
X021045Y010140D01*
X021045Y011140D02*
X020485Y011140D01*
X020485Y012140D02*
X021045Y012140D01*
X021045Y013140D02*
X020485Y013140D01*
X020485Y014140D02*
X021045Y014140D01*
X013795Y014140D02*
X013235Y014140D01*
X013235Y013140D02*
X013795Y013140D01*
X013795Y012140D02*
X013235Y012140D01*
X013235Y011140D02*
X013795Y011140D01*
X010795Y011140D02*
X010235Y011140D01*
X010235Y012140D02*
X010795Y012140D01*
X010795Y013140D02*
X010235Y013140D01*
X010235Y014140D02*
X010795Y014140D01*
X010795Y015140D02*
X010235Y015140D01*
X010235Y016140D02*
X010795Y016140D01*
X010795Y017140D02*
X010235Y017140D01*
X010235Y018140D02*
X010795Y018140D01*
X010795Y019140D02*
X010235Y019140D01*
X010235Y020140D02*
X010795Y020140D01*
X013235Y020140D02*
X013795Y020140D01*
X013795Y019140D02*
X013235Y019140D01*
X013235Y018140D02*
X013795Y018140D01*
X013795Y017140D02*
X013235Y017140D01*
X013235Y016140D02*
X013795Y016140D01*
X013795Y015140D02*
X013235Y015140D01*
X012890Y023610D02*
X012890Y024170D01*
X013890Y024170D02*
X013890Y023610D01*
X014890Y023610D02*
X014890Y024170D01*
X015890Y024170D02*
X015890Y023610D01*
X016890Y023610D02*
X016890Y024170D01*
X017890Y024170D02*
X017890Y023610D01*
X020890Y023735D02*
X020890Y024295D01*
X021890Y024295D02*
X021890Y023735D01*
X022890Y023735D02*
X022890Y024295D01*
X023890Y024295D02*
X023890Y023735D01*
X024890Y023735D02*
X024890Y024295D01*
X025890Y024295D02*
X025890Y023735D01*
X026890Y023735D02*
X026890Y024295D01*
X026890Y026735D02*
X026890Y027295D01*
X025890Y027295D02*
X025890Y026735D01*
X024890Y026735D02*
X024890Y027295D01*
X023890Y027295D02*
X023890Y026735D01*
X022890Y026735D02*
X022890Y027295D01*
X021890Y027295D02*
X021890Y026735D01*
X020890Y026735D02*
X020890Y027295D01*
X017890Y027170D02*
X017890Y026610D01*
X016890Y026610D02*
X016890Y027170D01*
X015890Y027170D02*
X015890Y026610D01*
X014890Y026610D02*
X014890Y027170D01*
X013890Y027170D02*
X013890Y026610D01*
X012890Y026610D02*
X012890Y027170D01*
X011890Y027170D02*
X011890Y026610D01*
X010890Y026610D02*
X010890Y027170D01*
X010890Y024170D02*
X010890Y023610D01*
X011890Y023610D02*
X011890Y024170D01*
X016360Y031140D02*
X016920Y031140D01*
X016920Y032140D02*
X016360Y032140D01*
X016360Y033140D02*
X016920Y033140D01*
X016920Y034140D02*
X016360Y034140D01*
X016360Y035140D02*
X016920Y035140D01*
X016920Y036140D02*
X016360Y036140D01*
X016360Y037140D02*
X016920Y037140D01*
X019360Y037140D02*
X019920Y037140D01*
X019920Y036140D02*
X019360Y036140D01*
X019360Y035140D02*
X019920Y035140D01*
X019920Y034140D02*
X019360Y034140D01*
X019360Y033140D02*
X019920Y033140D01*
X019920Y032140D02*
X019360Y032140D01*
X019360Y031140D02*
X019920Y031140D01*
X024765Y030795D02*
X024765Y030235D01*
X025765Y030235D02*
X025765Y030795D01*
X026765Y030795D02*
X026765Y030235D01*
X027765Y030235D02*
X027765Y030795D01*
X028765Y030795D02*
X028765Y030235D01*
X029765Y030235D02*
X029765Y030795D01*
X030765Y030795D02*
X030765Y030235D01*
X031765Y030235D02*
X031765Y030795D01*
X031765Y033235D02*
X031765Y033795D01*
X030765Y033795D02*
X030765Y033235D01*
X029765Y033235D02*
X029765Y033795D01*
X028765Y033795D02*
X028765Y033235D01*
X027765Y033235D02*
X027765Y033795D01*
X026765Y033795D02*
X026765Y033235D01*
X025765Y033235D02*
X025765Y033795D01*
X024765Y033795D02*
X024765Y033235D01*
X025765Y036235D02*
X025765Y036795D01*
X026765Y036795D02*
X026765Y036235D01*
X027765Y036235D02*
X027765Y036795D01*
X028765Y036795D02*
X028765Y036235D01*
X029765Y036235D02*
X029765Y036795D01*
X030765Y036795D02*
X030765Y036235D01*
X031765Y036235D02*
X031765Y036795D01*
X031765Y039235D02*
X031765Y039795D01*
X030765Y039795D02*
X030765Y039235D01*
X029765Y039235D02*
X029765Y039795D01*
X028765Y039795D02*
X028765Y039235D01*
X027765Y039235D02*
X027765Y039795D01*
X026765Y039795D02*
X026765Y039235D01*
X025765Y039235D02*
X025765Y039795D01*
X014170Y039140D02*
X013610Y039140D01*
X013610Y038140D02*
X014170Y038140D01*
X014170Y037140D02*
X013610Y037140D01*
X013610Y036140D02*
X014170Y036140D01*
X014170Y035140D02*
X013610Y035140D01*
X013610Y034140D02*
X014170Y034140D01*
X014170Y033140D02*
X013610Y033140D01*
X011170Y033140D02*
X010610Y033140D01*
X010610Y034140D02*
X011170Y034140D01*
X011170Y035140D02*
X010610Y035140D01*
X010610Y036140D02*
X011170Y036140D01*
X011170Y037140D02*
X010610Y037140D01*
X010610Y038140D02*
X011170Y038140D01*
X011170Y039140D02*
X010610Y039140D01*
X031140Y027295D02*
X031140Y026735D01*
X032140Y026735D02*
X032140Y027295D01*
X033140Y027295D02*
X033140Y026735D01*
X034140Y026735D02*
X034140Y027295D01*
X035140Y027295D02*
X035140Y026735D01*
X036140Y026735D02*
X036140Y027295D01*
X037140Y027295D02*
X037140Y026735D01*
X037140Y024295D02*
X037140Y023735D01*
X036140Y023735D02*
X036140Y024295D01*
X035140Y024295D02*
X035140Y023735D01*
X034140Y023735D02*
X034140Y024295D01*
X033140Y024295D02*
X033140Y023735D01*
X032140Y023735D02*
X032140Y024295D01*
X031140Y024295D02*
X031140Y023735D01*
X037765Y029985D02*
X037765Y030545D01*
X038765Y030545D02*
X038765Y029985D01*
X039765Y029985D02*
X039765Y030545D01*
X040765Y030545D02*
X040765Y029985D01*
X041765Y029985D02*
X041765Y030545D01*
X042765Y030545D02*
X042765Y029985D01*
X043765Y029985D02*
X043765Y030545D01*
X044765Y030545D02*
X044765Y029985D01*
X044765Y027295D02*
X044765Y026735D01*
X045765Y026735D02*
X045765Y027295D01*
X046765Y027295D02*
X046765Y026735D01*
X047765Y026735D02*
X047765Y027295D01*
X048765Y027295D02*
X048765Y026735D01*
X049765Y026735D02*
X049765Y027295D01*
X050765Y027295D02*
X050765Y026735D01*
X051765Y026735D02*
X051765Y027295D01*
X055890Y026795D02*
X055890Y026235D01*
X056890Y026235D02*
X056890Y026795D01*
X057890Y026795D02*
X057890Y026235D01*
X058890Y026235D02*
X058890Y026795D01*
X059890Y026795D02*
X059890Y026235D01*
X060890Y026235D02*
X060890Y026795D01*
X061890Y026795D02*
X061890Y026235D01*
X061890Y023795D02*
X061890Y023235D01*
X060890Y023235D02*
X060890Y023795D01*
X059890Y023795D02*
X059890Y023235D01*
X058890Y023235D02*
X058890Y023795D01*
X057890Y023795D02*
X057890Y023235D01*
X056890Y023235D02*
X056890Y023795D01*
X055890Y023795D02*
X055890Y023235D01*
X051765Y023735D02*
X051765Y024295D01*
X050765Y024295D02*
X050765Y023735D01*
X049765Y023735D02*
X049765Y024295D01*
X048765Y024295D02*
X048765Y023735D01*
X047765Y023735D02*
X047765Y024295D01*
X046765Y024295D02*
X046765Y023735D01*
X045765Y023735D02*
X045765Y024295D01*
X044765Y024295D02*
X044765Y023735D01*
X049765Y029985D02*
X049765Y030545D01*
X050765Y030545D02*
X050765Y029985D01*
X051765Y029985D02*
X051765Y030545D01*
X052765Y030545D02*
X052765Y029985D01*
X053765Y029985D02*
X053765Y030545D01*
X054765Y030545D02*
X054765Y029985D01*
X055765Y029985D02*
X055765Y030545D01*
X056765Y030545D02*
X056765Y029985D01*
X056765Y032985D02*
X056765Y033545D01*
X055765Y033545D02*
X055765Y032985D01*
X054765Y032985D02*
X054765Y033545D01*
X053765Y033545D02*
X053765Y032985D01*
X052765Y032985D02*
X052765Y033545D01*
X051765Y033545D02*
X051765Y032985D01*
X050765Y032985D02*
X050765Y033545D01*
X049765Y033545D02*
X049765Y032985D01*
X044765Y032985D02*
X044765Y033545D01*
X043765Y033545D02*
X043765Y032985D01*
X042765Y032985D02*
X042765Y033545D01*
X041765Y033545D02*
X041765Y032985D01*
X040765Y032985D02*
X040765Y033545D01*
X039765Y033545D02*
X039765Y032985D01*
X038765Y032985D02*
X038765Y033545D01*
X037765Y033545D02*
X037765Y032985D01*
X038765Y036235D02*
X038765Y036795D01*
X039765Y036795D02*
X039765Y036235D01*
X040765Y036235D02*
X040765Y036795D01*
X041765Y036795D02*
X041765Y036235D01*
X042765Y036235D02*
X042765Y036795D01*
X043765Y036795D02*
X043765Y036235D01*
X044765Y036235D02*
X044765Y036795D01*
X044765Y039235D02*
X044765Y039795D01*
X043765Y039795D02*
X043765Y039235D01*
X042765Y039235D02*
X042765Y039795D01*
X041765Y039795D02*
X041765Y039235D01*
X040765Y039235D02*
X040765Y039795D01*
X039765Y039795D02*
X039765Y039235D01*
X038765Y039235D02*
X038765Y039795D01*
D12*
X037390Y039515D03*
X037390Y037515D03*
X036890Y034890D03*
X038890Y034890D03*
X041140Y027015D03*
X043140Y027015D03*
X040890Y024015D03*
X038890Y024015D03*
X029765Y024015D03*
X027765Y024015D03*
X026765Y022515D03*
X028765Y022515D03*
X020140Y020515D03*
X018140Y020515D03*
X010890Y028390D03*
X008890Y028390D03*
X023015Y031640D03*
X023015Y033640D03*
X024390Y037515D03*
X024390Y039515D03*
X019640Y039140D03*
X017640Y039140D03*
X015140Y040765D03*
X013140Y040765D03*
X049765Y036890D03*
X049765Y034890D03*
X055515Y028015D03*
X057515Y028015D03*
X044890Y011265D03*
X046015Y010765D03*
X048015Y010765D03*
X052015Y010640D03*
X054015Y010640D03*
X042890Y011265D03*
X033765Y010015D03*
X031765Y010015D03*
X012515Y009515D03*
X010515Y009515D03*
D13*
X062890Y007140D03*
D14*
X061890Y007140D03*
D15*
X060265Y007140D03*
X059265Y007140D03*
X059265Y006140D03*
X060265Y006140D03*
X060265Y010140D03*
X059265Y010140D03*
X059265Y011140D03*
X060265Y011140D03*
X060265Y012140D03*
X059265Y012140D03*
X059265Y013140D03*
X060265Y013140D03*
X060265Y014140D03*
X059265Y014140D03*
X059265Y015140D03*
X060265Y015140D03*
X060265Y016140D03*
X059265Y016140D03*
X059265Y017140D03*
X060265Y017140D03*
X053890Y007140D03*
X053890Y006140D03*
X052890Y006140D03*
X051890Y006140D03*
X051890Y007140D03*
X052890Y007140D03*
X050890Y007140D03*
X049890Y007140D03*
X049890Y006140D03*
X050890Y006140D03*
X048890Y006140D03*
X047890Y006140D03*
X046890Y006140D03*
X046890Y007140D03*
X047890Y007140D03*
X048890Y007140D03*
X045890Y007140D03*
X044890Y007140D03*
X044890Y006140D03*
X045890Y006140D03*
X043890Y006140D03*
X042890Y006140D03*
X041890Y006140D03*
X041890Y007140D03*
X042890Y007140D03*
X043890Y007140D03*
X040890Y007140D03*
X039890Y007140D03*
X039890Y006140D03*
X040890Y006140D03*
X038890Y006140D03*
X037890Y006140D03*
X036890Y006140D03*
X036890Y007140D03*
X037890Y007140D03*
X038890Y007140D03*
X033890Y007140D03*
X032890Y007140D03*
X032890Y006140D03*
X033890Y006140D03*
X031890Y006140D03*
X030890Y006140D03*
X029890Y006140D03*
X029890Y007140D03*
X030890Y007140D03*
X031890Y007140D03*
X028890Y007140D03*
X027890Y007140D03*
X027890Y006140D03*
X028890Y006140D03*
X026890Y006140D03*
X025890Y006140D03*
X024890Y006140D03*
X024890Y007140D03*
X025890Y007140D03*
X026890Y007140D03*
X023890Y007140D03*
X022890Y007140D03*
X022890Y006140D03*
X023890Y006140D03*
X021890Y006140D03*
X020890Y006140D03*
X019890Y006140D03*
X019890Y007140D03*
X020890Y007140D03*
X021890Y007140D03*
X018890Y007140D03*
X017890Y007140D03*
X017890Y006140D03*
X018890Y006140D03*
X016890Y006140D03*
X015890Y006140D03*
X015890Y007140D03*
X016890Y007140D03*
X014890Y007140D03*
X013890Y007140D03*
X012890Y007140D03*
X012890Y006140D03*
X013890Y006140D03*
X014890Y006140D03*
X011890Y006140D03*
X010890Y006140D03*
X010890Y007140D03*
X011890Y007140D03*
X008390Y007140D03*
X007390Y007140D03*
X007390Y006140D03*
X008390Y006140D03*
X006765Y010140D03*
X005765Y010140D03*
X005765Y011140D03*
X006765Y011140D03*
X006765Y012140D03*
X005765Y012140D03*
X005765Y013140D03*
X006765Y013140D03*
X006765Y014140D03*
X005765Y014140D03*
X005765Y015140D03*
X006765Y015140D03*
X006765Y016140D03*
X005765Y016140D03*
X005765Y017140D03*
X006765Y017140D03*
X006765Y020140D03*
X005765Y020140D03*
X005765Y021140D03*
X006765Y021140D03*
X006765Y022140D03*
X005765Y022140D03*
X005765Y023140D03*
X006765Y023140D03*
X006765Y024140D03*
X005765Y024140D03*
X005765Y025140D03*
X006765Y025140D03*
X006765Y026140D03*
X005765Y026140D03*
X005765Y027140D03*
X006765Y027140D03*
X006765Y030140D03*
X005765Y030140D03*
X005765Y031140D03*
X006765Y031140D03*
X006765Y032140D03*
X005765Y032140D03*
X005765Y033140D03*
X006765Y033140D03*
X006765Y034140D03*
X005765Y034140D03*
X005765Y035140D03*
X006765Y035140D03*
X006765Y036140D03*
X005765Y036140D03*
X005765Y037140D03*
X006765Y037140D03*
X007390Y040140D03*
X008390Y040140D03*
X008390Y041140D03*
X007390Y041140D03*
X059265Y041140D03*
X060265Y041140D03*
X060265Y040140D03*
X059265Y040140D03*
D16*
X063945Y027515D02*
X064585Y027515D01*
X064585Y026515D02*
X063945Y026515D01*
X063945Y025515D02*
X064585Y025515D01*
X064585Y024515D02*
X063945Y024515D01*
X063945Y023515D02*
X064585Y023515D01*
X064585Y022515D02*
X063945Y022515D01*
X063945Y021515D02*
X064585Y021515D01*
X064585Y020515D02*
X063945Y020515D01*
X063945Y019515D02*
X064585Y019515D01*
D17*
X063390Y011640D03*
X063515Y009265D03*
X051515Y022640D03*
X043140Y025390D03*
X042015Y023265D03*
X038890Y022765D03*
X035265Y019640D03*
X034265Y019140D03*
X033515Y020015D03*
X031265Y019140D03*
X030640Y018640D03*
X030765Y017890D03*
X035265Y017890D03*
X031265Y014265D03*
X030765Y013765D03*
X031765Y012765D03*
X036765Y009765D03*
X039140Y009890D03*
X040015Y010890D03*
X040765Y010890D03*
X041515Y010140D03*
X040015Y012140D03*
X040140Y005015D03*
X024890Y011140D03*
X021765Y010640D03*
X020890Y008765D03*
X018890Y009265D03*
X017390Y008015D03*
X016390Y008015D03*
X016390Y009265D03*
X015890Y010640D03*
X013515Y009265D03*
X009640Y007265D03*
X009640Y005140D03*
X022140Y013640D03*
X022640Y014640D03*
X023140Y015640D03*
X023640Y016640D03*
X020140Y021890D03*
X019890Y024765D03*
X014640Y020765D03*
X014140Y022890D03*
X028140Y028890D03*
X028890Y028890D03*
X029640Y028390D03*
X030390Y028390D03*
X029640Y026390D03*
X031140Y022140D03*
X031765Y022015D03*
X020765Y032640D03*
X016390Y038515D03*
X014890Y039390D03*
X016640Y040765D03*
X018640Y041265D03*
X032515Y034015D03*
X033015Y034765D03*
X035265Y037640D03*
X035265Y039515D03*
X060015Y029640D03*
M02*
