G75*
%MOIN*%
%OFA0B0*%
%FSLAX24Y24*%
%IPPOS*%
%LPD*%
%AMOC8*
5,1,8,0,0,1.08239X$1,22.5*
%
%ADD10C,0.0080*%
%ADD11C,0.0120*%
D10*
X006890Y005890D02*
X007140Y005640D01*
X007640Y005640D01*
X007890Y005890D01*
X007890Y007390D01*
X008140Y007640D01*
X008640Y007640D01*
X008890Y007390D01*
X008890Y005890D01*
X008640Y005640D01*
X008140Y005640D01*
X007890Y005890D01*
X006890Y005890D02*
X006890Y007390D01*
X007140Y007640D01*
X007640Y007640D01*
X007890Y007390D01*
X007851Y007930D02*
X008061Y007930D01*
X008131Y008000D01*
X008131Y008280D01*
X008061Y008350D01*
X007851Y008350D01*
X007851Y007930D01*
X007671Y007930D02*
X007671Y008350D01*
X007390Y008350D02*
X007671Y007930D01*
X007390Y007930D02*
X007390Y008350D01*
X007210Y008280D02*
X007140Y008350D01*
X007000Y008350D01*
X006930Y008280D01*
X006930Y008000D01*
X007000Y007930D01*
X007140Y007930D01*
X007210Y008000D01*
X007210Y008140D01*
X007070Y008140D01*
X008311Y008280D02*
X008381Y008350D01*
X008521Y008350D01*
X008591Y008280D01*
X008591Y008210D01*
X008311Y007930D01*
X008591Y007930D01*
X010390Y007390D02*
X010390Y005890D01*
X010640Y005640D01*
X011140Y005640D01*
X011390Y005890D01*
X011390Y007390D01*
X011140Y007640D01*
X010640Y007640D01*
X010390Y007390D01*
X011390Y007390D02*
X011640Y007640D01*
X012140Y007640D01*
X012390Y007390D01*
X012390Y005890D01*
X012140Y005640D01*
X011640Y005640D01*
X011390Y005890D01*
X012390Y005890D02*
X012640Y005640D01*
X013140Y005640D01*
X013390Y005890D01*
X013390Y007390D01*
X013140Y007640D01*
X012640Y007640D01*
X012390Y007390D01*
X013390Y007390D02*
X013640Y007640D01*
X014140Y007640D01*
X014390Y007390D01*
X014390Y005890D01*
X014140Y005640D01*
X013640Y005640D01*
X013390Y005890D01*
X014390Y005890D02*
X014640Y005640D01*
X015140Y005640D01*
X015390Y005890D01*
X015390Y007390D01*
X015140Y007640D01*
X014640Y007640D01*
X014390Y007390D01*
X015390Y007390D02*
X015640Y007640D01*
X016140Y007640D01*
X016390Y007390D01*
X016390Y005890D01*
X016140Y005640D01*
X015640Y005640D01*
X015390Y005890D01*
X016390Y005890D02*
X016640Y005640D01*
X017140Y005640D01*
X017390Y005890D01*
X017390Y007390D01*
X017640Y007640D01*
X018140Y007640D01*
X018390Y007390D01*
X018390Y005890D01*
X018140Y005640D01*
X017640Y005640D01*
X017390Y005890D01*
X018390Y005890D02*
X018640Y005640D01*
X019140Y005640D01*
X019390Y005890D01*
X019390Y007390D01*
X019640Y007640D01*
X020140Y007640D01*
X020390Y007390D01*
X020390Y005890D01*
X020140Y005640D01*
X019640Y005640D01*
X019390Y005890D01*
X020390Y005890D02*
X020640Y005640D01*
X021140Y005640D01*
X021390Y005890D01*
X021390Y007390D01*
X021640Y007640D01*
X022140Y007640D01*
X022390Y007390D01*
X022390Y005890D01*
X022140Y005640D01*
X021640Y005640D01*
X021390Y005890D01*
X022390Y005890D02*
X022640Y005640D01*
X023140Y005640D01*
X023390Y005890D01*
X023390Y007390D01*
X023640Y007640D01*
X024140Y007640D01*
X024390Y007390D01*
X024390Y005890D01*
X024140Y005640D01*
X023640Y005640D01*
X023390Y005890D01*
X024390Y005890D02*
X024640Y005640D01*
X025140Y005640D01*
X025390Y005890D01*
X025390Y007390D01*
X025640Y007640D01*
X026140Y007640D01*
X026390Y007390D01*
X026390Y005890D01*
X026140Y005640D01*
X025640Y005640D01*
X025390Y005890D01*
X026390Y005890D02*
X026640Y005640D01*
X027140Y005640D01*
X027390Y005890D01*
X027390Y007390D01*
X027640Y007640D01*
X028140Y007640D01*
X028390Y007390D01*
X028390Y005890D01*
X028140Y005640D01*
X027640Y005640D01*
X027390Y005890D01*
X028390Y005890D02*
X028640Y005640D01*
X029140Y005640D01*
X029390Y005890D01*
X029390Y007390D01*
X029140Y007640D01*
X028640Y007640D01*
X028390Y007390D01*
X029390Y007390D02*
X029640Y007640D01*
X030140Y007640D01*
X030390Y007390D01*
X030390Y005890D01*
X030140Y005640D01*
X029640Y005640D01*
X029390Y005890D01*
X030390Y005890D02*
X030640Y005640D01*
X031140Y005640D01*
X031390Y005890D01*
X031390Y007390D01*
X031140Y007640D01*
X030640Y007640D01*
X030390Y007390D01*
X031390Y007390D02*
X031640Y007640D01*
X032140Y007640D01*
X032390Y007390D01*
X032390Y005890D01*
X032140Y005640D01*
X031640Y005640D01*
X031390Y005890D01*
X032390Y005890D02*
X032640Y005640D01*
X033140Y005640D01*
X033390Y005890D01*
X033390Y007390D01*
X033140Y007640D01*
X032640Y007640D01*
X032390Y007390D01*
X033390Y007390D02*
X033640Y007640D01*
X034140Y007640D01*
X034390Y007390D01*
X034390Y005890D01*
X034140Y005640D01*
X033640Y005640D01*
X033390Y005890D01*
X033329Y005350D02*
X033189Y005350D01*
X033259Y005350D02*
X033259Y005000D01*
X033189Y004930D01*
X033119Y004930D01*
X033049Y005000D01*
X033509Y004930D02*
X033509Y005350D01*
X033719Y005350D01*
X033789Y005280D01*
X033789Y005140D01*
X033719Y005070D01*
X033509Y005070D01*
X033970Y005000D02*
X034040Y004930D01*
X034180Y004930D01*
X034250Y005000D01*
X034250Y005280D01*
X034180Y005350D01*
X034040Y005350D01*
X033970Y005280D01*
X033970Y005210D01*
X034040Y005140D01*
X034250Y005140D01*
X036390Y005890D02*
X036640Y005640D01*
X037140Y005640D01*
X037390Y005890D01*
X037390Y007390D01*
X037640Y007640D01*
X038140Y007640D01*
X038390Y007390D01*
X038390Y005890D01*
X038140Y005640D01*
X037640Y005640D01*
X037390Y005890D01*
X036390Y005890D02*
X036390Y007390D01*
X036640Y007640D01*
X037140Y007640D01*
X037390Y007390D01*
X038390Y007390D02*
X038640Y007640D01*
X039140Y007640D01*
X039390Y007390D01*
X039390Y005890D01*
X039140Y005640D01*
X038640Y005640D01*
X038390Y005890D01*
X039390Y005890D02*
X039640Y005640D01*
X040140Y005640D01*
X040390Y005890D01*
X040390Y007390D01*
X040640Y007640D01*
X041140Y007640D01*
X041390Y007390D01*
X041390Y005890D01*
X041140Y005640D01*
X040640Y005640D01*
X040390Y005890D01*
X041390Y005890D02*
X041640Y005640D01*
X042140Y005640D01*
X042390Y005890D01*
X042390Y007390D01*
X042640Y007640D01*
X043140Y007640D01*
X043390Y007390D01*
X043390Y005890D01*
X043140Y005640D01*
X042640Y005640D01*
X042390Y005890D01*
X043390Y005890D02*
X043640Y005640D01*
X044140Y005640D01*
X044390Y005890D01*
X044390Y007390D01*
X044640Y007640D01*
X045140Y007640D01*
X045390Y007390D01*
X045390Y005890D01*
X045140Y005640D01*
X044640Y005640D01*
X044390Y005890D01*
X045390Y005890D02*
X045640Y005640D01*
X046140Y005640D01*
X046390Y005890D01*
X046390Y007390D01*
X046640Y007640D01*
X047140Y007640D01*
X047390Y007390D01*
X047390Y005890D01*
X047140Y005640D01*
X046640Y005640D01*
X046390Y005890D01*
X047390Y005890D02*
X047640Y005640D01*
X048140Y005640D01*
X048390Y005890D01*
X048390Y007390D01*
X048140Y007640D01*
X047640Y007640D01*
X047390Y007390D01*
X046390Y007390D02*
X046140Y007640D01*
X045640Y007640D01*
X045390Y007390D01*
X044390Y007390D02*
X044140Y007640D01*
X043640Y007640D01*
X043390Y007390D01*
X042390Y007390D02*
X042140Y007640D01*
X041640Y007640D01*
X041390Y007390D01*
X040390Y007390D02*
X040140Y007640D01*
X039640Y007640D01*
X039390Y007390D01*
X036045Y010155D02*
X036045Y010225D01*
X036325Y010505D01*
X036325Y010575D01*
X036045Y010575D01*
X035864Y010505D02*
X035794Y010575D01*
X035654Y010575D01*
X035584Y010505D01*
X035584Y010225D01*
X035654Y010155D01*
X035794Y010155D01*
X035864Y010225D01*
X035417Y010155D02*
X035277Y010155D01*
X035347Y010155D02*
X035347Y010575D01*
X035277Y010575D02*
X035417Y010575D01*
X035665Y010765D02*
X035663Y010804D01*
X035657Y010843D01*
X035648Y010881D01*
X035635Y010918D01*
X035618Y010954D01*
X035598Y010987D01*
X035574Y011019D01*
X035548Y011048D01*
X035519Y011074D01*
X035487Y011098D01*
X035454Y011118D01*
X035418Y011135D01*
X035381Y011148D01*
X035343Y011157D01*
X035304Y011163D01*
X035265Y011165D01*
X035226Y011163D01*
X035187Y011157D01*
X035149Y011148D01*
X035112Y011135D01*
X035076Y011118D01*
X035043Y011098D01*
X035011Y011074D01*
X034982Y011048D01*
X034956Y011019D01*
X034932Y010987D01*
X034912Y010954D01*
X034895Y010918D01*
X034882Y010881D01*
X034873Y010843D01*
X034867Y010804D01*
X034865Y010765D01*
X034115Y010765D01*
X034115Y017765D01*
X036415Y017765D01*
X036415Y010765D01*
X035665Y010765D01*
X035475Y011655D02*
X035405Y011655D01*
X035125Y011935D01*
X035055Y011935D01*
X035055Y011655D01*
X035265Y012115D02*
X035265Y012396D01*
X035475Y012326D02*
X035055Y012326D01*
X035265Y012115D01*
X035055Y012576D02*
X035475Y012576D01*
X035475Y012856D01*
X035405Y013036D02*
X035475Y013106D01*
X035475Y013246D01*
X035405Y013316D01*
X035335Y013316D01*
X035265Y013246D01*
X035265Y013106D01*
X035195Y013036D01*
X035125Y013036D01*
X035055Y013106D01*
X035055Y013246D01*
X035125Y013316D01*
X035125Y013497D02*
X035055Y013567D01*
X035055Y013707D01*
X035125Y013777D01*
X035405Y013497D01*
X035475Y013567D01*
X035475Y013707D01*
X035405Y013777D01*
X035125Y013777D01*
X035125Y013957D02*
X035195Y013957D01*
X035265Y014027D01*
X035265Y014167D01*
X035335Y014237D01*
X035405Y014237D01*
X035475Y014167D01*
X035475Y014027D01*
X035405Y013957D01*
X035335Y013957D01*
X035265Y014027D01*
X035265Y014167D02*
X035195Y014237D01*
X035125Y014237D01*
X035055Y014167D01*
X035055Y014027D01*
X035125Y013957D01*
X035125Y013497D02*
X035405Y013497D01*
X035475Y014417D02*
X035055Y014417D01*
X035475Y014698D01*
X035055Y014698D01*
X040240Y012640D02*
X040990Y012640D01*
X040992Y012679D01*
X040998Y012718D01*
X041007Y012756D01*
X041020Y012793D01*
X041037Y012829D01*
X041057Y012862D01*
X041081Y012894D01*
X041107Y012923D01*
X041136Y012949D01*
X041168Y012973D01*
X041201Y012993D01*
X041237Y013010D01*
X041274Y013023D01*
X041312Y013032D01*
X041351Y013038D01*
X041390Y013040D01*
X041429Y013038D01*
X041468Y013032D01*
X041506Y013023D01*
X041543Y013010D01*
X041579Y012993D01*
X041612Y012973D01*
X041644Y012949D01*
X041673Y012923D01*
X041699Y012894D01*
X041723Y012862D01*
X041743Y012829D01*
X041760Y012793D01*
X041773Y012756D01*
X041782Y012718D01*
X041788Y012679D01*
X041790Y012640D01*
X042540Y012640D01*
X042540Y019640D01*
X040240Y019640D01*
X040240Y012640D01*
X041402Y012450D02*
X041542Y012450D01*
X041472Y012450D02*
X041472Y012030D01*
X041402Y012030D02*
X041542Y012030D01*
X041709Y012100D02*
X041779Y012030D01*
X041919Y012030D01*
X041989Y012100D01*
X042170Y012100D02*
X042240Y012030D01*
X042380Y012030D01*
X042450Y012100D01*
X042450Y012170D01*
X042380Y012240D01*
X042170Y012240D01*
X042170Y012100D01*
X042170Y012240D02*
X042310Y012380D01*
X042450Y012450D01*
X041989Y012380D02*
X041919Y012450D01*
X041779Y012450D01*
X041709Y012380D01*
X041709Y012100D01*
X043240Y011715D02*
X044540Y011715D01*
X044566Y011713D01*
X044592Y011708D01*
X044617Y011700D01*
X044640Y011688D01*
X044662Y011674D01*
X044681Y011656D01*
X044699Y011637D01*
X044713Y011615D01*
X044725Y011592D01*
X044733Y011567D01*
X044738Y011541D01*
X044740Y011515D01*
X044390Y011265D02*
X044020Y011265D01*
X043770Y011265D02*
X043390Y011265D01*
X043040Y011515D02*
X043042Y011541D01*
X043047Y011567D01*
X043055Y011592D01*
X043067Y011615D01*
X043081Y011637D01*
X043099Y011656D01*
X043118Y011674D01*
X043140Y011688D01*
X043163Y011700D01*
X043188Y011708D01*
X043214Y011713D01*
X043240Y011715D01*
X043040Y011015D02*
X043042Y010989D01*
X043047Y010963D01*
X043055Y010938D01*
X043067Y010915D01*
X043081Y010893D01*
X043099Y010874D01*
X043118Y010856D01*
X043140Y010842D01*
X043163Y010830D01*
X043188Y010822D01*
X043214Y010817D01*
X043240Y010815D01*
X044540Y010815D01*
X044566Y010817D01*
X044592Y010822D01*
X044617Y010830D01*
X044640Y010842D01*
X044662Y010856D01*
X044681Y010874D01*
X044699Y010893D01*
X044713Y010915D01*
X044725Y010938D01*
X044733Y010963D01*
X044738Y010989D01*
X044740Y011015D01*
X046165Y011015D02*
X046167Y011041D01*
X046172Y011067D01*
X046180Y011092D01*
X046192Y011115D01*
X046206Y011137D01*
X046224Y011156D01*
X046243Y011174D01*
X046265Y011188D01*
X046288Y011200D01*
X046313Y011208D01*
X046339Y011213D01*
X046365Y011215D01*
X047665Y011215D01*
X047691Y011213D01*
X047717Y011208D01*
X047742Y011200D01*
X047765Y011188D01*
X047787Y011174D01*
X047806Y011156D01*
X047824Y011137D01*
X047838Y011115D01*
X047850Y011092D01*
X047858Y011067D01*
X047863Y011041D01*
X047865Y011015D01*
X047515Y010765D02*
X047145Y010765D01*
X046895Y010765D02*
X046515Y010765D01*
X046165Y010515D02*
X046167Y010489D01*
X046172Y010463D01*
X046180Y010438D01*
X046192Y010415D01*
X046206Y010393D01*
X046224Y010374D01*
X046243Y010356D01*
X046265Y010342D01*
X046288Y010330D01*
X046313Y010322D01*
X046339Y010317D01*
X046365Y010315D01*
X047665Y010315D01*
X047691Y010317D01*
X047717Y010322D01*
X047742Y010330D01*
X047765Y010342D01*
X047787Y010356D01*
X047806Y010374D01*
X047824Y010393D01*
X047838Y010415D01*
X047850Y010438D01*
X047858Y010463D01*
X047863Y010489D01*
X047865Y010515D01*
X048352Y011030D02*
X048492Y011030D01*
X048422Y011030D02*
X048422Y011450D01*
X048352Y011450D02*
X048492Y011450D01*
X048659Y011380D02*
X048659Y011100D01*
X048729Y011030D01*
X048869Y011030D01*
X048939Y011100D01*
X049120Y011100D02*
X049120Y011170D01*
X049190Y011240D01*
X049330Y011240D01*
X049400Y011170D01*
X049400Y011100D01*
X049330Y011030D01*
X049190Y011030D01*
X049120Y011100D01*
X049190Y011240D02*
X049120Y011310D01*
X049120Y011380D01*
X049190Y011450D01*
X049330Y011450D01*
X049400Y011380D01*
X049400Y011310D01*
X049330Y011240D01*
X048939Y011380D02*
X048869Y011450D01*
X048729Y011450D01*
X048659Y011380D01*
X048665Y011640D02*
X047915Y011640D01*
X047913Y011679D01*
X047907Y011718D01*
X047898Y011756D01*
X047885Y011793D01*
X047868Y011829D01*
X047848Y011862D01*
X047824Y011894D01*
X047798Y011923D01*
X047769Y011949D01*
X047737Y011973D01*
X047704Y011993D01*
X047668Y012010D01*
X047631Y012023D01*
X047593Y012032D01*
X047554Y012038D01*
X047515Y012040D01*
X047476Y012038D01*
X047437Y012032D01*
X047399Y012023D01*
X047362Y012010D01*
X047326Y011993D01*
X047293Y011973D01*
X047261Y011949D01*
X047232Y011923D01*
X047206Y011894D01*
X047182Y011862D01*
X047162Y011829D01*
X047145Y011793D01*
X047132Y011756D01*
X047123Y011718D01*
X047117Y011679D01*
X047115Y011640D01*
X046365Y011640D01*
X046365Y019640D01*
X048665Y019640D01*
X048665Y011640D01*
X047725Y012730D02*
X047655Y012730D01*
X047375Y013010D01*
X047305Y013010D01*
X047305Y012730D01*
X047515Y013190D02*
X047515Y013471D01*
X047725Y013401D02*
X047305Y013401D01*
X047515Y013190D01*
X047305Y013651D02*
X047725Y013651D01*
X047725Y013931D01*
X047655Y014111D02*
X047725Y014181D01*
X047725Y014321D01*
X047655Y014391D01*
X047585Y014391D01*
X047515Y014321D01*
X047515Y014181D01*
X047445Y014111D01*
X047375Y014111D01*
X047305Y014181D01*
X047305Y014321D01*
X047375Y014391D01*
X047445Y014572D02*
X047305Y014712D01*
X047725Y014712D01*
X047725Y014572D02*
X047725Y014852D01*
X047655Y015032D02*
X047725Y015102D01*
X047725Y015242D01*
X047655Y015312D01*
X047515Y015312D01*
X047445Y015242D01*
X047445Y015172D01*
X047515Y015032D01*
X047305Y015032D01*
X047305Y015312D01*
X047445Y015492D02*
X047305Y015632D01*
X047725Y015632D01*
X047725Y015492D02*
X047725Y015773D01*
X047725Y015953D02*
X047305Y015953D01*
X047725Y016233D01*
X047305Y016233D01*
X052365Y019640D02*
X054665Y019640D01*
X054665Y011640D01*
X053915Y011640D01*
X054102Y011450D02*
X054242Y011450D01*
X054172Y011450D02*
X054172Y011030D01*
X054102Y011030D02*
X054242Y011030D01*
X054409Y011100D02*
X054479Y011030D01*
X054619Y011030D01*
X054689Y011100D01*
X054870Y011030D02*
X055150Y011310D01*
X055150Y011380D01*
X055080Y011450D01*
X054940Y011450D01*
X054870Y011380D01*
X054689Y011380D02*
X054619Y011450D01*
X054479Y011450D01*
X054409Y011380D01*
X054409Y011100D01*
X054870Y011030D02*
X055150Y011030D01*
X053665Y011090D02*
X052365Y011090D01*
X052339Y011088D01*
X052313Y011083D01*
X052288Y011075D01*
X052265Y011063D01*
X052243Y011049D01*
X052224Y011031D01*
X052206Y011012D01*
X052192Y010990D01*
X052180Y010967D01*
X052172Y010942D01*
X052167Y010916D01*
X052165Y010890D01*
X052515Y010640D02*
X052895Y010640D01*
X053145Y010640D02*
X053515Y010640D01*
X053865Y010390D02*
X053863Y010364D01*
X053858Y010338D01*
X053850Y010313D01*
X053838Y010290D01*
X053824Y010268D01*
X053806Y010249D01*
X053787Y010231D01*
X053765Y010217D01*
X053742Y010205D01*
X053717Y010197D01*
X053691Y010192D01*
X053665Y010190D01*
X052365Y010190D01*
X052339Y010192D01*
X052313Y010197D01*
X052288Y010205D01*
X052265Y010217D01*
X052243Y010231D01*
X052224Y010249D01*
X052206Y010268D01*
X052192Y010290D01*
X052180Y010313D01*
X052172Y010338D01*
X052167Y010364D01*
X052165Y010390D01*
X052365Y011640D02*
X053115Y011640D01*
X053117Y011679D01*
X053123Y011718D01*
X053132Y011756D01*
X053145Y011793D01*
X053162Y011829D01*
X053182Y011862D01*
X053206Y011894D01*
X053232Y011923D01*
X053261Y011949D01*
X053293Y011973D01*
X053326Y011993D01*
X053362Y012010D01*
X053399Y012023D01*
X053437Y012032D01*
X053476Y012038D01*
X053515Y012040D01*
X053554Y012038D01*
X053593Y012032D01*
X053631Y012023D01*
X053668Y012010D01*
X053704Y011993D01*
X053737Y011973D01*
X053769Y011949D01*
X053798Y011923D01*
X053824Y011894D01*
X053848Y011862D01*
X053868Y011829D01*
X053885Y011793D01*
X053898Y011756D01*
X053907Y011718D01*
X053913Y011679D01*
X053915Y011640D01*
X053665Y011090D02*
X053691Y011088D01*
X053717Y011083D01*
X053742Y011075D01*
X053765Y011063D01*
X053787Y011049D01*
X053806Y011031D01*
X053824Y011012D01*
X053838Y010990D01*
X053850Y010967D01*
X053858Y010942D01*
X053863Y010916D01*
X053865Y010890D01*
X052365Y011640D02*
X052365Y019640D01*
X053305Y016233D02*
X053725Y016233D01*
X053305Y015953D01*
X053725Y015953D01*
X053725Y015773D02*
X053725Y015492D01*
X053725Y015632D02*
X053305Y015632D01*
X053445Y015492D01*
X053515Y015312D02*
X053655Y015312D01*
X053725Y015242D01*
X053725Y015102D01*
X053655Y015032D01*
X053515Y015032D02*
X053445Y015172D01*
X053445Y015242D01*
X053515Y015312D01*
X053305Y015312D02*
X053305Y015032D01*
X053515Y015032D01*
X053725Y014852D02*
X053725Y014572D01*
X053725Y014712D02*
X053305Y014712D01*
X053445Y014572D01*
X053375Y014391D02*
X053305Y014321D01*
X053305Y014181D01*
X053375Y014111D01*
X053445Y014111D01*
X053515Y014181D01*
X053515Y014321D01*
X053585Y014391D01*
X053655Y014391D01*
X053725Y014321D01*
X053725Y014181D01*
X053655Y014111D01*
X053725Y013931D02*
X053725Y013651D01*
X053305Y013651D01*
X053305Y013401D02*
X053515Y013190D01*
X053515Y013471D01*
X053725Y013401D02*
X053305Y013401D01*
X053305Y013010D02*
X053375Y013010D01*
X053655Y012730D01*
X053725Y012730D01*
X053305Y012730D02*
X053305Y013010D01*
X058765Y012890D02*
X058765Y013390D01*
X059015Y013640D01*
X060515Y013640D01*
X060765Y013390D01*
X060765Y012890D01*
X060515Y012640D01*
X059015Y012640D01*
X058765Y012390D01*
X058765Y011890D01*
X059015Y011640D01*
X060515Y011640D01*
X060765Y011390D01*
X060765Y010890D01*
X060515Y010640D01*
X060765Y010390D01*
X060765Y009890D01*
X060515Y009640D01*
X059015Y009640D01*
X058765Y009890D01*
X058765Y010390D01*
X059015Y010640D01*
X060515Y010640D01*
X060515Y011640D02*
X060765Y011890D01*
X060765Y012390D01*
X060515Y012640D01*
X060515Y013640D02*
X060765Y013890D01*
X060765Y014390D01*
X060515Y014640D01*
X059015Y014640D01*
X058765Y014390D01*
X058765Y013890D01*
X059015Y013640D01*
X058765Y012890D02*
X059015Y012640D01*
X059015Y011640D02*
X058765Y011390D01*
X058765Y010890D01*
X059015Y010640D01*
X059085Y008350D02*
X059085Y008070D01*
X058945Y007930D01*
X058805Y008070D01*
X058805Y008350D01*
X059265Y008280D02*
X059265Y008000D01*
X059335Y007930D01*
X059476Y007930D01*
X059546Y008000D01*
X059726Y008000D02*
X059726Y008280D01*
X059796Y008350D01*
X059936Y008350D01*
X060006Y008280D01*
X060186Y008210D02*
X060326Y008350D01*
X060326Y007930D01*
X060186Y007930D02*
X060466Y007930D01*
X060515Y007640D02*
X060765Y007390D01*
X060765Y005890D01*
X060515Y005640D01*
X060015Y005640D01*
X059765Y005890D01*
X059765Y007390D01*
X060015Y007640D01*
X060515Y007640D01*
X060006Y008000D02*
X059936Y007930D01*
X059796Y007930D01*
X059726Y008000D01*
X059546Y008280D02*
X059476Y008350D01*
X059335Y008350D01*
X059265Y008280D01*
X059515Y007640D02*
X059765Y007390D01*
X059515Y007640D02*
X059015Y007640D01*
X058765Y007390D01*
X058765Y005890D01*
X059015Y005640D01*
X059515Y005640D01*
X059765Y005890D01*
X061740Y007490D02*
X061740Y007640D01*
X061740Y007790D01*
X061740Y007640D02*
X061890Y007640D01*
X061740Y007640D02*
X061590Y007640D01*
X061290Y007140D02*
X061292Y007206D01*
X061298Y007271D01*
X061308Y007336D01*
X061321Y007401D01*
X061339Y007464D01*
X061360Y007527D01*
X061385Y007587D01*
X061414Y007647D01*
X061446Y007704D01*
X061481Y007760D01*
X061520Y007813D01*
X061562Y007864D01*
X061606Y007912D01*
X061654Y007957D01*
X061704Y008000D01*
X061757Y008039D01*
X061812Y008076D01*
X061869Y008109D01*
X061928Y008138D01*
X061988Y008164D01*
X062050Y008186D01*
X062113Y008205D01*
X062177Y008219D01*
X062242Y008230D01*
X062308Y008237D01*
X062374Y008240D01*
X062439Y008239D01*
X062505Y008234D01*
X062570Y008225D01*
X062635Y008212D01*
X062698Y008196D01*
X062761Y008176D01*
X062822Y008151D01*
X062882Y008124D01*
X062940Y008093D01*
X062996Y008058D01*
X063050Y008020D01*
X063101Y007979D01*
X063150Y007935D01*
X063196Y007888D01*
X063240Y007839D01*
X063280Y007787D01*
X063317Y007732D01*
X063351Y007676D01*
X063381Y007617D01*
X063408Y007557D01*
X063431Y007496D01*
X063450Y007433D01*
X063466Y007369D01*
X063478Y007304D01*
X063486Y007239D01*
X063490Y007173D01*
X063490Y007107D01*
X063486Y007041D01*
X063478Y006976D01*
X063466Y006911D01*
X063450Y006847D01*
X063431Y006784D01*
X063408Y006723D01*
X063381Y006663D01*
X063351Y006604D01*
X063317Y006548D01*
X063280Y006493D01*
X063240Y006441D01*
X063196Y006392D01*
X063150Y006345D01*
X063101Y006301D01*
X063050Y006260D01*
X062996Y006222D01*
X062940Y006187D01*
X062882Y006156D01*
X062822Y006129D01*
X062761Y006104D01*
X062698Y006084D01*
X062635Y006068D01*
X062570Y006055D01*
X062505Y006046D01*
X062439Y006041D01*
X062374Y006040D01*
X062308Y006043D01*
X062242Y006050D01*
X062177Y006061D01*
X062113Y006075D01*
X062050Y006094D01*
X061988Y006116D01*
X061928Y006142D01*
X061869Y006171D01*
X061812Y006204D01*
X061757Y006241D01*
X061704Y006280D01*
X061654Y006323D01*
X061606Y006368D01*
X061562Y006416D01*
X061520Y006467D01*
X061481Y006520D01*
X061446Y006576D01*
X061414Y006633D01*
X061385Y006693D01*
X061360Y006753D01*
X061339Y006816D01*
X061321Y006879D01*
X061308Y006944D01*
X061298Y007009D01*
X061292Y007074D01*
X061290Y007140D01*
X063480Y006410D02*
X063620Y006550D01*
X063620Y006130D01*
X063480Y006130D02*
X063760Y006130D01*
X063940Y006200D02*
X064221Y006480D01*
X064221Y006200D01*
X064151Y006130D01*
X064010Y006130D01*
X063940Y006200D01*
X063940Y006480D01*
X064010Y006550D01*
X064151Y006550D01*
X064221Y006480D01*
X064401Y006410D02*
X064401Y006200D01*
X064471Y006130D01*
X064681Y006130D01*
X064681Y006410D01*
X054390Y005890D02*
X054140Y005640D01*
X053640Y005640D01*
X053390Y005890D01*
X053390Y007390D01*
X053140Y007640D01*
X052640Y007640D01*
X052390Y007390D01*
X052390Y005890D01*
X052140Y005640D01*
X051640Y005640D01*
X051390Y005890D01*
X051390Y007390D01*
X051140Y007640D01*
X050640Y007640D01*
X050390Y007390D01*
X050390Y005890D01*
X050140Y005640D01*
X049640Y005640D01*
X049390Y005890D01*
X049390Y007390D01*
X049140Y007640D01*
X048640Y007640D01*
X048390Y007390D01*
X049390Y007390D02*
X049640Y007640D01*
X050140Y007640D01*
X050390Y007390D01*
X051390Y007390D02*
X051640Y007640D01*
X052140Y007640D01*
X052390Y007390D01*
X053390Y007390D02*
X053640Y007640D01*
X054140Y007640D01*
X054390Y007390D01*
X054390Y005890D01*
X054180Y005350D02*
X054250Y005280D01*
X053970Y005000D01*
X054040Y004930D01*
X054180Y004930D01*
X054250Y005000D01*
X054250Y005280D01*
X054180Y005350D02*
X054040Y005350D01*
X053970Y005280D01*
X053970Y005000D01*
X053789Y004930D02*
X053509Y004930D01*
X053649Y004930D02*
X053649Y005350D01*
X053509Y005210D01*
X053329Y005280D02*
X053329Y005140D01*
X053259Y005070D01*
X053049Y005070D01*
X053049Y004930D02*
X053049Y005350D01*
X053259Y005350D01*
X053329Y005280D01*
X053140Y005640D02*
X053390Y005890D01*
X053140Y005640D02*
X052640Y005640D01*
X052390Y005890D01*
X052729Y005350D02*
X052869Y005350D01*
X052799Y005350D02*
X052799Y005000D01*
X052729Y004930D01*
X052658Y004930D01*
X052588Y005000D01*
X051390Y005890D02*
X051140Y005640D01*
X050640Y005640D01*
X050390Y005890D01*
X049390Y005890D02*
X049140Y005640D01*
X048640Y005640D01*
X048390Y005890D01*
X041600Y013530D02*
X041530Y013530D01*
X041250Y013810D01*
X041180Y013810D01*
X041180Y013530D01*
X041390Y013990D02*
X041390Y014271D01*
X041600Y014201D02*
X041180Y014201D01*
X041390Y013990D01*
X041600Y014451D02*
X041600Y014731D01*
X041530Y014911D02*
X041600Y014981D01*
X041600Y015121D01*
X041530Y015191D01*
X041460Y015191D01*
X041390Y015121D01*
X041390Y014981D01*
X041320Y014911D01*
X041250Y014911D01*
X041180Y014981D01*
X041180Y015121D01*
X041250Y015191D01*
X041250Y015372D02*
X041180Y015442D01*
X041180Y015582D01*
X041250Y015652D01*
X041320Y015652D01*
X041390Y015582D01*
X041460Y015652D01*
X041530Y015652D01*
X041600Y015582D01*
X041600Y015442D01*
X041530Y015372D01*
X041390Y015512D02*
X041390Y015582D01*
X041250Y015832D02*
X041180Y015902D01*
X041180Y016042D01*
X041250Y016112D01*
X041320Y016112D01*
X041600Y015832D01*
X041600Y016112D01*
X041600Y016292D02*
X041180Y016292D01*
X041600Y016573D01*
X041180Y016573D01*
X041180Y014451D02*
X041600Y014451D01*
X033415Y010465D02*
X032115Y010465D01*
X032089Y010463D01*
X032063Y010458D01*
X032038Y010450D01*
X032015Y010438D01*
X031993Y010424D01*
X031974Y010406D01*
X031956Y010387D01*
X031942Y010365D01*
X031930Y010342D01*
X031922Y010317D01*
X031917Y010291D01*
X031915Y010265D01*
X032265Y010015D02*
X032635Y010015D01*
X032885Y010015D02*
X033265Y010015D01*
X033615Y009765D02*
X033613Y009739D01*
X033608Y009713D01*
X033600Y009688D01*
X033588Y009665D01*
X033574Y009643D01*
X033556Y009624D01*
X033537Y009606D01*
X033515Y009592D01*
X033492Y009580D01*
X033467Y009572D01*
X033441Y009567D01*
X033415Y009565D01*
X032115Y009565D01*
X032089Y009567D01*
X032063Y009572D01*
X032038Y009580D01*
X032015Y009592D01*
X031993Y009606D01*
X031974Y009624D01*
X031956Y009643D01*
X031942Y009665D01*
X031930Y009688D01*
X031922Y009713D01*
X031917Y009739D01*
X031915Y009765D01*
X033415Y010465D02*
X033441Y010463D01*
X033467Y010458D01*
X033492Y010450D01*
X033515Y010438D01*
X033537Y010424D01*
X033556Y010406D01*
X033574Y010387D01*
X033588Y010365D01*
X033600Y010342D01*
X033608Y010317D01*
X033613Y010291D01*
X033615Y010265D01*
X028790Y009640D02*
X026490Y009640D01*
X026490Y019640D01*
X027240Y019640D01*
X027247Y019830D02*
X027528Y019830D01*
X027387Y019830D02*
X027387Y020250D01*
X027247Y020110D01*
X027067Y020180D02*
X026997Y020250D01*
X026857Y020250D01*
X026787Y020180D01*
X026787Y019900D01*
X026857Y019830D01*
X026997Y019830D01*
X027067Y019900D01*
X026620Y019830D02*
X026480Y019830D01*
X026550Y019830D02*
X026550Y020250D01*
X026480Y020250D02*
X026620Y020250D01*
X027240Y019640D02*
X027242Y019601D01*
X027248Y019562D01*
X027257Y019524D01*
X027270Y019487D01*
X027287Y019451D01*
X027307Y019418D01*
X027331Y019386D01*
X027357Y019357D01*
X027386Y019331D01*
X027418Y019307D01*
X027451Y019287D01*
X027487Y019270D01*
X027524Y019257D01*
X027562Y019248D01*
X027601Y019242D01*
X027640Y019240D01*
X027679Y019242D01*
X027718Y019248D01*
X027756Y019257D01*
X027793Y019270D01*
X027829Y019287D01*
X027862Y019307D01*
X027894Y019331D01*
X027923Y019357D01*
X027949Y019386D01*
X027973Y019418D01*
X027993Y019451D01*
X028010Y019487D01*
X028023Y019524D01*
X028032Y019562D01*
X028038Y019601D01*
X028040Y019640D01*
X028790Y019640D01*
X028790Y009640D01*
X027140Y007640D02*
X026640Y007640D01*
X026390Y007390D01*
X027140Y007640D02*
X027390Y007390D01*
X025390Y007390D02*
X025140Y007640D01*
X024640Y007640D01*
X024390Y007390D01*
X023390Y007390D02*
X023140Y007640D01*
X022640Y007640D01*
X022390Y007390D01*
X021390Y007390D02*
X021140Y007640D01*
X020640Y007640D01*
X020390Y007390D01*
X019390Y007390D02*
X019140Y007640D01*
X018640Y007640D01*
X018390Y007390D01*
X017390Y007390D02*
X017140Y007640D01*
X016640Y007640D01*
X016390Y007390D01*
X018115Y009640D02*
X020415Y009640D01*
X020415Y019640D01*
X019665Y019640D01*
X019663Y019601D01*
X019657Y019562D01*
X019648Y019524D01*
X019635Y019487D01*
X019618Y019451D01*
X019598Y019418D01*
X019574Y019386D01*
X019548Y019357D01*
X019519Y019331D01*
X019487Y019307D01*
X019454Y019287D01*
X019418Y019270D01*
X019381Y019257D01*
X019343Y019248D01*
X019304Y019242D01*
X019265Y019240D01*
X019226Y019242D01*
X019187Y019248D01*
X019149Y019257D01*
X019112Y019270D01*
X019076Y019287D01*
X019043Y019307D01*
X019011Y019331D01*
X018982Y019357D01*
X018956Y019386D01*
X018932Y019418D01*
X018912Y019451D01*
X018895Y019487D01*
X018882Y019524D01*
X018873Y019562D01*
X018867Y019601D01*
X018865Y019640D01*
X018115Y019640D01*
X018115Y009640D01*
X014075Y010240D02*
X013795Y010240D01*
X014005Y010450D01*
X014005Y010030D01*
X013614Y010030D02*
X013334Y010030D01*
X013474Y010030D02*
X013474Y010450D01*
X013334Y010310D01*
X013154Y010380D02*
X013084Y010450D01*
X012944Y010450D01*
X012874Y010380D01*
X012874Y010100D01*
X012944Y010030D01*
X013084Y010030D01*
X013154Y010100D01*
X012707Y010030D02*
X012567Y010030D01*
X012637Y010030D02*
X012637Y010450D01*
X012567Y010450D02*
X012707Y010450D01*
X012415Y010640D02*
X013165Y010640D01*
X013165Y020640D01*
X010865Y020640D01*
X010865Y010640D01*
X011615Y010640D01*
X011617Y010679D01*
X011623Y010718D01*
X011632Y010756D01*
X011645Y010793D01*
X011662Y010829D01*
X011682Y010862D01*
X011706Y010894D01*
X011732Y010923D01*
X011761Y010949D01*
X011793Y010973D01*
X011826Y010993D01*
X011862Y011010D01*
X011899Y011023D01*
X011937Y011032D01*
X011976Y011038D01*
X012015Y011040D01*
X012054Y011038D01*
X012093Y011032D01*
X012131Y011023D01*
X012168Y011010D01*
X012204Y010993D01*
X012237Y010973D01*
X012269Y010949D01*
X012298Y010923D01*
X012324Y010894D01*
X012348Y010862D01*
X012368Y010829D01*
X012385Y010793D01*
X012398Y010756D01*
X012407Y010718D01*
X012413Y010679D01*
X012415Y010640D01*
X012165Y009965D02*
X010865Y009965D01*
X010839Y009963D01*
X010813Y009958D01*
X010788Y009950D01*
X010765Y009938D01*
X010743Y009924D01*
X010724Y009906D01*
X010706Y009887D01*
X010692Y009865D01*
X010680Y009842D01*
X010672Y009817D01*
X010667Y009791D01*
X010665Y009765D01*
X011015Y009515D02*
X011395Y009515D01*
X011645Y009515D02*
X012015Y009515D01*
X012365Y009265D02*
X012363Y009239D01*
X012358Y009213D01*
X012350Y009188D01*
X012338Y009165D01*
X012324Y009143D01*
X012306Y009124D01*
X012287Y009106D01*
X012265Y009092D01*
X012242Y009080D01*
X012217Y009072D01*
X012191Y009067D01*
X012165Y009065D01*
X010865Y009065D01*
X010839Y009067D01*
X010813Y009072D01*
X010788Y009080D01*
X010765Y009092D01*
X010743Y009106D01*
X010724Y009124D01*
X010706Y009143D01*
X010692Y009165D01*
X010680Y009188D01*
X010672Y009213D01*
X010667Y009239D01*
X010665Y009265D01*
X012165Y009965D02*
X012191Y009963D01*
X012217Y009958D01*
X012242Y009950D01*
X012265Y009938D01*
X012287Y009924D01*
X012306Y009906D01*
X012324Y009887D01*
X012338Y009865D01*
X012350Y009842D01*
X012358Y009817D01*
X012363Y009791D01*
X012365Y009765D01*
X012125Y011830D02*
X012055Y011830D01*
X011775Y012110D01*
X011705Y012110D01*
X011705Y011830D01*
X011915Y012290D02*
X011915Y012571D01*
X012125Y012501D02*
X011705Y012501D01*
X011915Y012290D01*
X011705Y012751D02*
X012125Y012751D01*
X012125Y013031D01*
X012055Y013211D02*
X012125Y013281D01*
X012125Y013421D01*
X012055Y013491D01*
X011985Y013491D01*
X011915Y013421D01*
X011915Y013281D01*
X011845Y013211D01*
X011775Y013211D01*
X011705Y013281D01*
X011705Y013421D01*
X011775Y013491D01*
X011705Y013672D02*
X011915Y013672D01*
X011845Y013812D01*
X011845Y013882D01*
X011915Y013952D01*
X012055Y013952D01*
X012125Y013882D01*
X012125Y013742D01*
X012055Y013672D01*
X011705Y013672D02*
X011705Y013952D01*
X011915Y014132D02*
X011915Y014412D01*
X011845Y014592D02*
X011705Y014732D01*
X012125Y014732D01*
X012125Y014592D02*
X012125Y014873D01*
X012125Y015053D02*
X011705Y015053D01*
X012125Y015333D01*
X011705Y015333D01*
X011705Y014342D02*
X011915Y014132D01*
X012125Y014342D02*
X011705Y014342D01*
X007975Y016369D02*
X007975Y016439D01*
X007905Y016509D01*
X007555Y016509D01*
X007555Y016439D02*
X007555Y016579D01*
X007555Y016759D02*
X007555Y016969D01*
X007625Y017039D01*
X007765Y017039D01*
X007835Y016969D01*
X007835Y016759D01*
X007975Y016759D02*
X007555Y016759D01*
X007265Y016890D02*
X007015Y016640D01*
X005515Y016640D01*
X005265Y016390D01*
X005265Y015890D01*
X005515Y015640D01*
X007015Y015640D01*
X007265Y015390D01*
X007265Y014890D01*
X007015Y014640D01*
X005515Y014640D01*
X005265Y014390D01*
X005265Y013890D01*
X005515Y013640D01*
X007015Y013640D01*
X007265Y013390D01*
X007265Y012890D01*
X007015Y012640D01*
X005515Y012640D01*
X005265Y012390D01*
X005265Y011890D01*
X005515Y011640D01*
X007015Y011640D01*
X007265Y011390D01*
X007265Y010890D01*
X007015Y010640D01*
X007265Y010390D01*
X007265Y009890D01*
X007015Y009640D01*
X005515Y009640D01*
X005265Y009890D01*
X005265Y010390D01*
X005515Y010640D01*
X007015Y010640D01*
X007015Y011640D02*
X007265Y011890D01*
X007265Y012390D01*
X007015Y012640D01*
X007015Y013640D02*
X007265Y013890D01*
X007265Y014390D01*
X007015Y014640D01*
X007015Y015640D02*
X007265Y015890D01*
X007265Y016390D01*
X007015Y016640D01*
X007265Y016890D02*
X007265Y017390D01*
X007015Y017640D01*
X005515Y017640D01*
X005265Y017390D01*
X005265Y016890D01*
X005515Y016640D01*
X005515Y015640D02*
X005265Y015390D01*
X005265Y014890D01*
X005515Y014640D01*
X005515Y013640D02*
X005265Y013390D01*
X005265Y012890D01*
X005515Y012640D01*
X005515Y011640D02*
X005265Y011390D01*
X005265Y010890D01*
X005515Y010640D01*
X007905Y016299D02*
X007975Y016369D01*
X007765Y017220D02*
X007765Y017500D01*
X007975Y017430D02*
X007555Y017430D01*
X007765Y017220D01*
X007015Y019640D02*
X005515Y019640D01*
X005265Y019890D01*
X005265Y020390D01*
X005515Y020640D01*
X007015Y020640D01*
X007265Y020390D01*
X007265Y019890D01*
X007015Y019640D01*
X007015Y020640D02*
X007265Y020890D01*
X007265Y021390D01*
X007015Y021640D01*
X005515Y021640D01*
X005265Y021390D01*
X005265Y020890D01*
X005515Y020640D01*
X005515Y021640D02*
X005265Y021890D01*
X005265Y022390D01*
X005515Y022640D01*
X007015Y022640D01*
X007265Y022390D01*
X007265Y021890D01*
X007015Y021640D01*
X007015Y022640D02*
X007265Y022890D01*
X007265Y023390D01*
X007015Y023640D01*
X005515Y023640D01*
X005265Y023390D01*
X005265Y022890D01*
X005515Y022640D01*
X005515Y023640D02*
X005265Y023890D01*
X005265Y024390D01*
X005515Y024640D01*
X007015Y024640D01*
X007265Y024390D01*
X007265Y023890D01*
X007015Y023640D01*
X007015Y024640D02*
X007265Y024890D01*
X007265Y025390D01*
X007015Y025640D01*
X005515Y025640D01*
X005265Y025390D01*
X005265Y024890D01*
X005515Y024640D01*
X005515Y025640D02*
X005265Y025890D01*
X005265Y026390D01*
X005515Y026640D01*
X007015Y026640D01*
X007265Y026390D01*
X007265Y025890D01*
X007015Y025640D01*
X007555Y026439D02*
X007555Y026579D01*
X007555Y026509D02*
X007905Y026509D01*
X007975Y026439D01*
X007975Y026369D01*
X007905Y026299D01*
X007975Y026759D02*
X007555Y026759D01*
X007555Y026969D01*
X007625Y027039D01*
X007765Y027039D01*
X007835Y026969D01*
X007835Y026759D01*
X007905Y027220D02*
X007975Y027290D01*
X007975Y027430D01*
X007905Y027500D01*
X007765Y027500D01*
X007695Y027430D01*
X007695Y027360D01*
X007765Y027220D01*
X007555Y027220D01*
X007555Y027500D01*
X007265Y027390D02*
X007265Y026890D01*
X007015Y026640D01*
X007265Y027390D02*
X007015Y027640D01*
X005515Y027640D01*
X005265Y027390D01*
X005265Y026890D01*
X005515Y026640D01*
X005515Y029640D02*
X007015Y029640D01*
X007265Y029890D01*
X007265Y030390D01*
X007015Y030640D01*
X005515Y030640D01*
X005265Y030390D01*
X005265Y029890D01*
X005515Y029640D01*
X005515Y030640D02*
X005265Y030890D01*
X005265Y031390D01*
X005515Y031640D01*
X007015Y031640D01*
X007265Y031390D01*
X007265Y030890D01*
X007015Y030640D01*
X007015Y031640D02*
X007265Y031890D01*
X007265Y032390D01*
X007015Y032640D01*
X005515Y032640D01*
X005265Y032390D01*
X005265Y031890D01*
X005515Y031640D01*
X005515Y032640D02*
X005265Y032890D01*
X005265Y033390D01*
X005515Y033640D01*
X007015Y033640D01*
X007265Y033390D01*
X007265Y032890D01*
X007015Y032640D01*
X007015Y033640D02*
X007265Y033890D01*
X007265Y034390D01*
X007015Y034640D01*
X005515Y034640D01*
X005265Y034390D01*
X005265Y033890D01*
X005515Y033640D01*
X005515Y034640D02*
X005265Y034890D01*
X005265Y035390D01*
X005515Y035640D01*
X007015Y035640D01*
X007265Y035390D01*
X007265Y034890D01*
X007015Y034640D01*
X007015Y035640D02*
X007265Y035890D01*
X007265Y036390D01*
X007015Y036640D01*
X005515Y036640D01*
X005265Y036390D01*
X005265Y035890D01*
X005515Y035640D01*
X005515Y036640D02*
X005265Y036890D01*
X005265Y037390D01*
X005515Y037640D01*
X007015Y037640D01*
X007265Y037390D01*
X007265Y036890D01*
X007015Y036640D01*
X007555Y036579D02*
X007555Y036439D01*
X007555Y036509D02*
X007905Y036509D01*
X007975Y036439D01*
X007975Y036369D01*
X007905Y036299D01*
X007975Y036759D02*
X007555Y036759D01*
X007555Y036969D01*
X007625Y037039D01*
X007765Y037039D01*
X007835Y036969D01*
X007835Y036759D01*
X007905Y037220D02*
X007975Y037290D01*
X007975Y037430D01*
X007905Y037500D01*
X007835Y037500D01*
X007765Y037430D01*
X007765Y037360D01*
X007765Y037430D02*
X007695Y037500D01*
X007625Y037500D01*
X007555Y037430D01*
X007555Y037290D01*
X007625Y037220D01*
X007640Y039640D02*
X007140Y039640D01*
X006890Y039890D01*
X006890Y041390D01*
X007140Y041640D01*
X007640Y041640D01*
X007890Y041390D01*
X007890Y039890D01*
X008140Y039640D01*
X008640Y039640D01*
X008890Y039890D01*
X008890Y041390D01*
X008640Y041640D01*
X008140Y041640D01*
X007890Y041390D01*
X007921Y041930D02*
X008061Y041930D01*
X008131Y042000D01*
X008311Y041930D02*
X008591Y042210D01*
X008591Y042280D01*
X008521Y042350D01*
X008381Y042350D01*
X008311Y042280D01*
X008131Y042280D02*
X008061Y042350D01*
X007921Y042350D01*
X007851Y042280D01*
X007851Y042000D01*
X007921Y041930D01*
X007671Y042000D02*
X007601Y041930D01*
X007460Y041930D01*
X007390Y042000D01*
X007390Y042280D01*
X007460Y042350D01*
X007601Y042350D01*
X007671Y042280D01*
X007210Y042350D02*
X007210Y042070D01*
X007070Y041930D01*
X006930Y042070D01*
X006930Y042350D01*
X008311Y041930D02*
X008591Y041930D01*
X011230Y040250D02*
X011370Y040250D01*
X011300Y040250D02*
X011300Y039830D01*
X011230Y039830D02*
X011370Y039830D01*
X011537Y039900D02*
X011607Y039830D01*
X011747Y039830D01*
X011817Y039900D01*
X011997Y039830D02*
X012278Y039830D01*
X012137Y039830D02*
X012137Y040250D01*
X011997Y040110D01*
X011817Y040180D02*
X011747Y040250D01*
X011607Y040250D01*
X011537Y040180D01*
X011537Y039900D01*
X011240Y039640D02*
X011990Y039640D01*
X011992Y039601D01*
X011998Y039562D01*
X012007Y039524D01*
X012020Y039487D01*
X012037Y039451D01*
X012057Y039418D01*
X012081Y039386D01*
X012107Y039357D01*
X012136Y039331D01*
X012168Y039307D01*
X012201Y039287D01*
X012237Y039270D01*
X012274Y039257D01*
X012312Y039248D01*
X012351Y039242D01*
X012390Y039240D01*
X012429Y039242D01*
X012468Y039248D01*
X012506Y039257D01*
X012543Y039270D01*
X012579Y039287D01*
X012612Y039307D01*
X012644Y039331D01*
X012673Y039357D01*
X012699Y039386D01*
X012723Y039418D01*
X012743Y039451D01*
X012760Y039487D01*
X012773Y039524D01*
X012782Y039562D01*
X012788Y039601D01*
X012790Y039640D01*
X013540Y039640D01*
X013540Y032640D01*
X011240Y032640D01*
X011240Y039640D01*
X012458Y039830D02*
X012458Y039900D01*
X012738Y040180D01*
X012738Y040250D01*
X012458Y040250D01*
X013490Y040315D02*
X014790Y040315D01*
X014816Y040317D01*
X014842Y040322D01*
X014867Y040330D01*
X014890Y040342D01*
X014912Y040356D01*
X014931Y040374D01*
X014949Y040393D01*
X014963Y040415D01*
X014975Y040438D01*
X014983Y040463D01*
X014988Y040489D01*
X014990Y040515D01*
X014640Y040765D02*
X014270Y040765D01*
X014020Y040765D02*
X013640Y040765D01*
X013290Y041015D02*
X013292Y041041D01*
X013297Y041067D01*
X013305Y041092D01*
X013317Y041115D01*
X013331Y041137D01*
X013349Y041156D01*
X013368Y041174D01*
X013390Y041188D01*
X013413Y041200D01*
X013438Y041208D01*
X013464Y041213D01*
X013490Y041215D01*
X014790Y041215D01*
X014816Y041213D01*
X014842Y041208D01*
X014867Y041200D01*
X014890Y041188D01*
X014912Y041174D01*
X014931Y041156D01*
X014949Y041137D01*
X014963Y041115D01*
X014975Y041092D01*
X014983Y041067D01*
X014988Y041041D01*
X014990Y041015D01*
X013490Y040315D02*
X013464Y040317D01*
X013438Y040322D01*
X013413Y040330D01*
X013390Y040342D01*
X013368Y040356D01*
X013349Y040374D01*
X013331Y040393D01*
X013317Y040415D01*
X013305Y040438D01*
X013297Y040463D01*
X013292Y040489D01*
X013290Y040515D01*
X012600Y038650D02*
X012180Y038650D01*
X012180Y038370D02*
X012600Y038650D01*
X012600Y038370D02*
X012180Y038370D01*
X012250Y038189D02*
X012180Y038119D01*
X012180Y037979D01*
X012250Y037909D01*
X012250Y037729D02*
X012530Y037449D01*
X012600Y037519D01*
X012600Y037659D01*
X012530Y037729D01*
X012250Y037729D01*
X012180Y037659D01*
X012180Y037519D01*
X012250Y037449D01*
X012530Y037449D01*
X012530Y037269D02*
X012600Y037199D01*
X012600Y037058D01*
X012530Y036988D01*
X012390Y037058D02*
X012390Y037199D01*
X012460Y037269D01*
X012530Y037269D01*
X012390Y037058D02*
X012320Y036988D01*
X012250Y036988D01*
X012180Y037058D01*
X012180Y037199D01*
X012250Y037269D01*
X012600Y036808D02*
X012600Y036528D01*
X012180Y036528D01*
X012180Y036278D02*
X012390Y036068D01*
X012390Y036348D01*
X012600Y036278D02*
X012180Y036278D01*
X012180Y035887D02*
X012250Y035887D01*
X012530Y035607D01*
X012600Y035607D01*
X012180Y035607D02*
X012180Y035887D01*
X012600Y037909D02*
X012320Y038189D01*
X012250Y038189D01*
X012600Y038189D02*
X012600Y037909D01*
X016980Y037830D02*
X017120Y037830D01*
X017050Y037830D02*
X017050Y038250D01*
X016980Y038250D02*
X017120Y038250D01*
X017287Y038180D02*
X017357Y038250D01*
X017497Y038250D01*
X017567Y038180D01*
X017747Y038110D02*
X017887Y038250D01*
X017887Y037830D01*
X017747Y037830D02*
X018028Y037830D01*
X018208Y037900D02*
X018278Y037830D01*
X018418Y037830D01*
X018488Y037900D01*
X018488Y037970D01*
X018418Y038040D01*
X018208Y038040D01*
X018208Y037900D01*
X018208Y038040D02*
X018348Y038180D01*
X018488Y038250D01*
X017990Y038690D02*
X019290Y038690D01*
X019316Y038692D01*
X019342Y038697D01*
X019367Y038705D01*
X019390Y038717D01*
X019412Y038731D01*
X019431Y038749D01*
X019449Y038768D01*
X019463Y038790D01*
X019475Y038813D01*
X019483Y038838D01*
X019488Y038864D01*
X019490Y038890D01*
X019140Y039140D02*
X018760Y039140D01*
X018510Y039140D02*
X018140Y039140D01*
X017790Y039390D02*
X017792Y039416D01*
X017797Y039442D01*
X017805Y039467D01*
X017817Y039490D01*
X017831Y039512D01*
X017849Y039531D01*
X017868Y039549D01*
X017890Y039563D01*
X017913Y039575D01*
X017938Y039583D01*
X017964Y039588D01*
X017990Y039590D01*
X019290Y039590D01*
X019316Y039588D01*
X019342Y039583D01*
X019367Y039575D01*
X019390Y039563D01*
X019412Y039549D01*
X019431Y039531D01*
X019449Y039512D01*
X019463Y039490D01*
X019475Y039467D01*
X019483Y039442D01*
X019488Y039416D01*
X019490Y039390D01*
X017990Y038690D02*
X017964Y038692D01*
X017938Y038697D01*
X017913Y038705D01*
X017890Y038717D01*
X017868Y038731D01*
X017849Y038749D01*
X017831Y038768D01*
X017817Y038790D01*
X017805Y038813D01*
X017797Y038838D01*
X017792Y038864D01*
X017790Y038890D01*
X017287Y038180D02*
X017287Y037900D01*
X017357Y037830D01*
X017497Y037830D01*
X017567Y037900D01*
X017740Y037640D02*
X016990Y037640D01*
X016990Y030640D01*
X019290Y030640D01*
X019290Y037640D01*
X018540Y037640D01*
X018538Y037601D01*
X018532Y037562D01*
X018523Y037524D01*
X018510Y037487D01*
X018493Y037451D01*
X018473Y037418D01*
X018449Y037386D01*
X018423Y037357D01*
X018394Y037331D01*
X018362Y037307D01*
X018329Y037287D01*
X018293Y037270D01*
X018256Y037257D01*
X018218Y037248D01*
X018179Y037242D01*
X018140Y037240D01*
X018101Y037242D01*
X018062Y037248D01*
X018024Y037257D01*
X017987Y037270D01*
X017951Y037287D01*
X017918Y037307D01*
X017886Y037331D01*
X017857Y037357D01*
X017831Y037386D01*
X017807Y037418D01*
X017787Y037451D01*
X017770Y037487D01*
X017757Y037524D01*
X017748Y037562D01*
X017742Y037601D01*
X017740Y037640D01*
X017930Y036650D02*
X018350Y036650D01*
X017930Y036370D01*
X018350Y036370D01*
X018350Y036189D02*
X018350Y035909D01*
X018070Y036189D01*
X018000Y036189D01*
X017930Y036119D01*
X017930Y035979D01*
X018000Y035909D01*
X018000Y035729D02*
X018280Y035449D01*
X018350Y035519D01*
X018350Y035659D01*
X018280Y035729D01*
X018000Y035729D01*
X017930Y035659D01*
X017930Y035519D01*
X018000Y035449D01*
X018280Y035449D01*
X018280Y035269D02*
X018350Y035199D01*
X018350Y035058D01*
X018280Y034988D01*
X018140Y035058D02*
X018140Y035199D01*
X018210Y035269D01*
X018280Y035269D01*
X018140Y035058D02*
X018070Y034988D01*
X018000Y034988D01*
X017930Y035058D01*
X017930Y035199D01*
X018000Y035269D01*
X018350Y034808D02*
X018350Y034528D01*
X017930Y034528D01*
X017930Y034278D02*
X018140Y034068D01*
X018140Y034348D01*
X018350Y034278D02*
X017930Y034278D01*
X017930Y033887D02*
X018000Y033887D01*
X018280Y033607D01*
X018350Y033607D01*
X017930Y033607D02*
X017930Y033887D01*
X022565Y033290D02*
X022565Y031990D01*
X022567Y031964D01*
X022572Y031938D01*
X022580Y031913D01*
X022592Y031890D01*
X022606Y031868D01*
X022624Y031849D01*
X022643Y031831D01*
X022665Y031817D01*
X022688Y031805D01*
X022713Y031797D01*
X022739Y031792D01*
X022765Y031790D01*
X023015Y032140D02*
X023015Y032510D01*
X023015Y032760D02*
X023015Y033140D01*
X022765Y033490D02*
X022739Y033488D01*
X022713Y033483D01*
X022688Y033475D01*
X022665Y033463D01*
X022643Y033449D01*
X022624Y033431D01*
X022606Y033412D01*
X022592Y033390D01*
X022580Y033367D01*
X022572Y033342D01*
X022567Y033316D01*
X022565Y033290D01*
X023265Y033490D02*
X023291Y033488D01*
X023317Y033483D01*
X023342Y033475D01*
X023365Y033463D01*
X023387Y033449D01*
X023406Y033431D01*
X023424Y033412D01*
X023438Y033390D01*
X023450Y033367D01*
X023458Y033342D01*
X023463Y033316D01*
X023465Y033290D01*
X023465Y031990D01*
X023463Y031964D01*
X023458Y031938D01*
X023450Y031913D01*
X023438Y031890D01*
X023424Y031868D01*
X023406Y031849D01*
X023387Y031831D01*
X023365Y031817D01*
X023342Y031805D01*
X023317Y031797D01*
X023291Y031792D01*
X023265Y031790D01*
X023655Y031742D02*
X023725Y031672D01*
X023795Y031672D01*
X023865Y031742D01*
X023865Y031953D01*
X024005Y031953D02*
X023725Y031953D01*
X023655Y031883D01*
X023655Y031742D01*
X023725Y031492D02*
X023655Y031422D01*
X023655Y031282D01*
X023725Y031212D01*
X024005Y031212D01*
X024075Y031282D01*
X024075Y031422D01*
X024005Y031492D01*
X024005Y031672D02*
X024075Y031742D01*
X024075Y031883D01*
X024005Y031953D01*
X024265Y031615D02*
X024304Y031617D01*
X024343Y031623D01*
X024381Y031632D01*
X024418Y031645D01*
X024454Y031662D01*
X024487Y031682D01*
X024519Y031706D01*
X024548Y031732D01*
X024574Y031761D01*
X024598Y031793D01*
X024618Y031826D01*
X024635Y031862D01*
X024648Y031899D01*
X024657Y031937D01*
X024663Y031976D01*
X024665Y032015D01*
X024663Y032054D01*
X024657Y032093D01*
X024648Y032131D01*
X024635Y032168D01*
X024618Y032204D01*
X024598Y032237D01*
X024574Y032269D01*
X024548Y032298D01*
X024519Y032324D01*
X024487Y032348D01*
X024454Y032368D01*
X024418Y032385D01*
X024381Y032398D01*
X024343Y032407D01*
X024304Y032413D01*
X024265Y032415D01*
X024265Y033165D01*
X032265Y033165D01*
X032265Y030865D01*
X024265Y030865D01*
X024265Y031615D01*
X025355Y031805D02*
X025355Y031875D01*
X025635Y032155D01*
X025635Y032225D01*
X025355Y032225D01*
X025815Y032015D02*
X026096Y032015D01*
X026026Y031805D02*
X026026Y032225D01*
X025815Y032015D01*
X026276Y032225D02*
X026276Y031805D01*
X026556Y031805D01*
X026736Y031875D02*
X026806Y031805D01*
X026946Y031805D01*
X027016Y031875D01*
X027016Y031945D01*
X026946Y032015D01*
X026806Y032015D01*
X026736Y032085D01*
X026736Y032155D01*
X026806Y032225D01*
X026946Y032225D01*
X027016Y032155D01*
X027197Y032085D02*
X027337Y032225D01*
X027337Y031805D01*
X027197Y031805D02*
X027477Y031805D01*
X027657Y031875D02*
X027727Y031805D01*
X027867Y031805D01*
X027937Y031875D01*
X027937Y032015D01*
X027867Y032085D01*
X027797Y032085D01*
X027657Y032015D01*
X027657Y032225D01*
X027937Y032225D01*
X028117Y032225D02*
X028398Y032225D01*
X028398Y032155D01*
X028117Y031875D01*
X028117Y031805D01*
X028578Y031805D02*
X028578Y032225D01*
X028858Y031805D01*
X028858Y032225D01*
X024075Y031045D02*
X024075Y030905D01*
X024075Y030975D02*
X023655Y030975D01*
X023655Y030905D02*
X023655Y031045D01*
X020390Y026665D02*
X020390Y024365D01*
X027390Y024365D01*
X027390Y025115D01*
X027580Y025137D02*
X028000Y025137D01*
X028000Y025067D02*
X028000Y025207D01*
X027930Y025374D02*
X028000Y025444D01*
X028000Y025584D01*
X027930Y025654D01*
X028000Y025834D02*
X028000Y026114D01*
X028000Y025974D02*
X027580Y025974D01*
X027720Y025834D01*
X027650Y025654D02*
X027580Y025584D01*
X027580Y025444D01*
X027650Y025374D01*
X027930Y025374D01*
X027580Y025207D02*
X027580Y025067D01*
X027390Y025115D02*
X027351Y025117D01*
X027312Y025123D01*
X027274Y025132D01*
X027237Y025145D01*
X027201Y025162D01*
X027168Y025182D01*
X027136Y025206D01*
X027107Y025232D01*
X027081Y025261D01*
X027057Y025293D01*
X027037Y025326D01*
X027020Y025362D01*
X027007Y025399D01*
X026998Y025437D01*
X026992Y025476D01*
X026990Y025515D01*
X026992Y025554D01*
X026998Y025593D01*
X027007Y025631D01*
X027020Y025668D01*
X027037Y025704D01*
X027057Y025737D01*
X027081Y025769D01*
X027107Y025798D01*
X027136Y025824D01*
X027168Y025848D01*
X027201Y025868D01*
X027237Y025885D01*
X027274Y025898D01*
X027312Y025907D01*
X027351Y025913D01*
X027390Y025915D01*
X027390Y026665D01*
X020390Y026665D01*
X018390Y026540D02*
X018390Y024240D01*
X010390Y024240D01*
X010390Y024990D01*
X010200Y025047D02*
X010200Y025328D01*
X010200Y025187D02*
X009780Y025187D01*
X009920Y025047D01*
X009850Y024867D02*
X009780Y024797D01*
X009780Y024657D01*
X009850Y024587D01*
X010130Y024587D01*
X010200Y024657D01*
X010200Y024797D01*
X010130Y024867D01*
X010200Y024420D02*
X010200Y024280D01*
X010200Y024350D02*
X009780Y024350D01*
X009780Y024280D02*
X009780Y024420D01*
X010390Y024990D02*
X010429Y024992D01*
X010468Y024998D01*
X010506Y025007D01*
X010543Y025020D01*
X010579Y025037D01*
X010612Y025057D01*
X010644Y025081D01*
X010673Y025107D01*
X010699Y025136D01*
X010723Y025168D01*
X010743Y025201D01*
X010760Y025237D01*
X010773Y025274D01*
X010782Y025312D01*
X010788Y025351D01*
X010790Y025390D01*
X010788Y025429D01*
X010782Y025468D01*
X010773Y025506D01*
X010760Y025543D01*
X010743Y025579D01*
X010723Y025612D01*
X010699Y025644D01*
X010673Y025673D01*
X010644Y025699D01*
X010612Y025723D01*
X010579Y025743D01*
X010543Y025760D01*
X010506Y025773D01*
X010468Y025782D01*
X010429Y025788D01*
X010390Y025790D01*
X010390Y026540D01*
X018390Y026540D01*
X014983Y025600D02*
X014983Y025180D01*
X014703Y025600D01*
X014703Y025180D01*
X014523Y025250D02*
X014453Y025180D01*
X014312Y025180D01*
X014242Y025250D01*
X014382Y025390D02*
X014453Y025390D01*
X014523Y025320D01*
X014523Y025250D01*
X014453Y025390D02*
X014523Y025460D01*
X014523Y025530D01*
X014453Y025600D01*
X014312Y025600D01*
X014242Y025530D01*
X014062Y025530D02*
X013782Y025250D01*
X013782Y025180D01*
X013602Y025180D02*
X013322Y025180D01*
X013462Y025180D02*
X013462Y025600D01*
X013322Y025460D01*
X013141Y025530D02*
X013071Y025600D01*
X012931Y025600D01*
X012861Y025530D01*
X012861Y025460D01*
X012931Y025390D01*
X013071Y025390D01*
X013141Y025320D01*
X013141Y025250D01*
X013071Y025180D01*
X012931Y025180D01*
X012861Y025250D01*
X012681Y025180D02*
X012401Y025180D01*
X012401Y025600D01*
X012151Y025600D02*
X011940Y025390D01*
X012221Y025390D01*
X012151Y025180D02*
X012151Y025600D01*
X011760Y025600D02*
X011760Y025530D01*
X011480Y025250D01*
X011480Y025180D01*
X011480Y025600D02*
X011760Y025600D01*
X010200Y025578D02*
X010130Y025508D01*
X009850Y025788D01*
X010130Y025788D01*
X010200Y025718D01*
X010200Y025578D01*
X010130Y025508D02*
X009850Y025508D01*
X009780Y025578D01*
X009780Y025718D01*
X009850Y025788D01*
X009240Y027940D02*
X010540Y027940D01*
X010566Y027942D01*
X010592Y027947D01*
X010617Y027955D01*
X010640Y027967D01*
X010662Y027981D01*
X010681Y027999D01*
X010699Y028018D01*
X010713Y028040D01*
X010725Y028063D01*
X010733Y028088D01*
X010738Y028114D01*
X010740Y028140D01*
X010390Y028390D02*
X010010Y028390D01*
X009760Y028390D02*
X009390Y028390D01*
X009040Y028640D02*
X009042Y028666D01*
X009047Y028692D01*
X009055Y028717D01*
X009067Y028740D01*
X009081Y028762D01*
X009099Y028781D01*
X009118Y028799D01*
X009140Y028813D01*
X009163Y028825D01*
X009188Y028833D01*
X009214Y028838D01*
X009240Y028840D01*
X010540Y028840D01*
X010566Y028838D01*
X010592Y028833D01*
X010617Y028825D01*
X010640Y028813D01*
X010662Y028799D01*
X010681Y028781D01*
X010699Y028762D01*
X010713Y028740D01*
X010725Y028717D01*
X010733Y028692D01*
X010738Y028666D01*
X010740Y028640D01*
X009240Y027940D02*
X009214Y027942D01*
X009188Y027947D01*
X009163Y027955D01*
X009140Y027967D01*
X009118Y027981D01*
X009099Y027999D01*
X009081Y028018D01*
X009067Y028040D01*
X009055Y028063D01*
X009047Y028088D01*
X009042Y028114D01*
X009040Y028140D01*
X013782Y025600D02*
X014062Y025600D01*
X014062Y025530D01*
X018490Y020965D02*
X019790Y020965D01*
X019816Y020963D01*
X019842Y020958D01*
X019867Y020950D01*
X019890Y020938D01*
X019912Y020924D01*
X019931Y020906D01*
X019949Y020887D01*
X019963Y020865D01*
X019975Y020842D01*
X019983Y020817D01*
X019988Y020791D01*
X019990Y020765D01*
X019640Y020515D02*
X019260Y020515D01*
X019010Y020515D02*
X018640Y020515D01*
X018290Y020265D02*
X018292Y020239D01*
X018297Y020213D01*
X018305Y020188D01*
X018317Y020165D01*
X018331Y020143D01*
X018349Y020124D01*
X018368Y020106D01*
X018390Y020092D01*
X018413Y020080D01*
X018438Y020072D01*
X018464Y020067D01*
X018490Y020065D01*
X019790Y020065D01*
X019816Y020067D01*
X019842Y020072D01*
X019867Y020080D01*
X019890Y020092D01*
X019912Y020106D01*
X019931Y020124D01*
X019949Y020143D01*
X019963Y020165D01*
X019975Y020188D01*
X019983Y020213D01*
X019988Y020239D01*
X019990Y020265D01*
X018490Y020965D02*
X018464Y020963D01*
X018438Y020958D01*
X018413Y020950D01*
X018390Y020938D01*
X018368Y020924D01*
X018349Y020906D01*
X018331Y020887D01*
X018317Y020865D01*
X018305Y020842D01*
X018297Y020817D01*
X018292Y020791D01*
X018290Y020765D01*
X017903Y020125D02*
X017622Y020125D01*
X017622Y019915D01*
X017762Y019985D01*
X017833Y019985D01*
X017903Y019915D01*
X017903Y019775D01*
X017833Y019705D01*
X017692Y019705D01*
X017622Y019775D01*
X017442Y019775D02*
X017372Y019705D01*
X017232Y019705D01*
X017162Y019775D01*
X017162Y020055D01*
X017232Y020125D01*
X017372Y020125D01*
X017442Y020055D01*
X016995Y020125D02*
X016855Y020125D01*
X016925Y020125D02*
X016925Y019705D01*
X016855Y019705D02*
X016995Y019705D01*
X019155Y018350D02*
X019575Y018350D01*
X019155Y018070D01*
X019575Y018070D01*
X019575Y017889D02*
X019575Y017609D01*
X019575Y017749D02*
X019155Y017749D01*
X019295Y017609D01*
X019365Y017429D02*
X019365Y017149D01*
X019155Y017359D01*
X019575Y017359D01*
X019505Y016969D02*
X019575Y016899D01*
X019575Y016758D01*
X019505Y016688D01*
X019365Y016688D02*
X019295Y016829D01*
X019295Y016899D01*
X019365Y016969D01*
X019505Y016969D01*
X019365Y016688D02*
X019155Y016688D01*
X019155Y016969D01*
X019225Y016508D02*
X019155Y016438D01*
X019155Y016298D01*
X019225Y016228D01*
X019295Y016228D01*
X019365Y016298D01*
X019365Y016438D01*
X019435Y016508D01*
X019505Y016508D01*
X019575Y016438D01*
X019575Y016298D01*
X019505Y016228D01*
X019575Y016048D02*
X019575Y015768D01*
X019155Y015768D01*
X019155Y015517D02*
X019365Y015307D01*
X019365Y015587D01*
X019575Y015517D02*
X019155Y015517D01*
X019155Y015127D02*
X019225Y015127D01*
X019505Y014847D01*
X019575Y014847D01*
X019155Y014847D02*
X019155Y015127D01*
X027530Y015127D02*
X027530Y014847D01*
X027530Y015127D02*
X027600Y015127D01*
X027880Y014847D01*
X027950Y014847D01*
X027740Y015307D02*
X027530Y015517D01*
X027950Y015517D01*
X027740Y015587D02*
X027740Y015307D01*
X027530Y015768D02*
X027950Y015768D01*
X027950Y016048D01*
X027880Y016228D02*
X027950Y016298D01*
X027950Y016438D01*
X027880Y016508D01*
X027810Y016508D01*
X027740Y016438D01*
X027740Y016298D01*
X027670Y016228D01*
X027600Y016228D01*
X027530Y016298D01*
X027530Y016438D01*
X027600Y016508D01*
X027530Y016688D02*
X027740Y016688D01*
X027670Y016829D01*
X027670Y016899D01*
X027740Y016969D01*
X027880Y016969D01*
X027950Y016899D01*
X027950Y016758D01*
X027880Y016688D01*
X027530Y016688D02*
X027530Y016969D01*
X027740Y017149D02*
X027530Y017359D01*
X027950Y017359D01*
X027740Y017429D02*
X027740Y017149D01*
X027670Y017609D02*
X027530Y017749D01*
X027950Y017749D01*
X027950Y017609D02*
X027950Y017889D01*
X027950Y018070D02*
X027530Y018070D01*
X027950Y018350D01*
X027530Y018350D01*
X027778Y019830D02*
X027708Y019900D01*
X027778Y019830D02*
X027918Y019830D01*
X027988Y019900D01*
X027988Y019970D01*
X027918Y020040D01*
X027848Y020040D01*
X027918Y020040D02*
X027988Y020110D01*
X027988Y020180D01*
X027918Y020250D01*
X027778Y020250D01*
X027708Y020180D01*
X027115Y022065D02*
X028415Y022065D01*
X028441Y022067D01*
X028467Y022072D01*
X028492Y022080D01*
X028515Y022092D01*
X028537Y022106D01*
X028556Y022124D01*
X028574Y022143D01*
X028588Y022165D01*
X028600Y022188D01*
X028608Y022213D01*
X028613Y022239D01*
X028615Y022265D01*
X028265Y022515D02*
X027885Y022515D01*
X027635Y022515D02*
X027265Y022515D01*
X026915Y022265D02*
X026917Y022239D01*
X026922Y022213D01*
X026930Y022188D01*
X026942Y022165D01*
X026956Y022143D01*
X026974Y022124D01*
X026993Y022106D01*
X027015Y022092D01*
X027038Y022080D01*
X027063Y022072D01*
X027089Y022067D01*
X027115Y022065D01*
X026915Y022765D02*
X026917Y022791D01*
X026922Y022817D01*
X026930Y022842D01*
X026942Y022865D01*
X026956Y022887D01*
X026974Y022906D01*
X026993Y022924D01*
X027015Y022938D01*
X027038Y022950D01*
X027063Y022958D01*
X027089Y022963D01*
X027115Y022965D01*
X028415Y022965D01*
X028441Y022963D01*
X028467Y022958D01*
X028492Y022950D01*
X028515Y022938D01*
X028537Y022924D01*
X028556Y022906D01*
X028574Y022887D01*
X028588Y022865D01*
X028600Y022842D01*
X028608Y022817D01*
X028613Y022791D01*
X028615Y022765D01*
X028115Y023565D02*
X029415Y023565D01*
X029441Y023567D01*
X029467Y023572D01*
X029492Y023580D01*
X029515Y023592D01*
X029537Y023606D01*
X029556Y023624D01*
X029574Y023643D01*
X029588Y023665D01*
X029600Y023688D01*
X029608Y023713D01*
X029613Y023739D01*
X029615Y023765D01*
X029265Y024015D02*
X028895Y024015D01*
X028645Y024015D02*
X028265Y024015D01*
X027915Y023765D02*
X027917Y023739D01*
X027922Y023713D01*
X027930Y023688D01*
X027942Y023665D01*
X027956Y023643D01*
X027974Y023624D01*
X027993Y023606D01*
X028015Y023592D01*
X028038Y023580D01*
X028063Y023572D01*
X028089Y023567D01*
X028115Y023565D01*
X027915Y024265D02*
X027917Y024291D01*
X027922Y024317D01*
X027930Y024342D01*
X027942Y024365D01*
X027956Y024387D01*
X027974Y024406D01*
X027993Y024424D01*
X028015Y024438D01*
X028038Y024450D01*
X028063Y024458D01*
X028089Y024463D01*
X028115Y024465D01*
X029415Y024465D01*
X029441Y024463D01*
X029467Y024458D01*
X029492Y024450D01*
X029515Y024438D01*
X029537Y024424D01*
X029556Y024406D01*
X029574Y024387D01*
X029588Y024365D01*
X029600Y024342D01*
X029608Y024317D01*
X029613Y024291D01*
X029615Y024265D01*
X030640Y024365D02*
X030640Y026665D01*
X037640Y026665D01*
X037640Y025915D01*
X037830Y025974D02*
X037970Y025834D01*
X037900Y025654D02*
X037830Y025584D01*
X037830Y025444D01*
X037900Y025374D01*
X038180Y025374D01*
X038250Y025444D01*
X038250Y025584D01*
X038180Y025654D01*
X038250Y025834D02*
X038250Y026114D01*
X038250Y025974D02*
X037830Y025974D01*
X037970Y026295D02*
X037830Y026435D01*
X038250Y026435D01*
X038250Y026295D02*
X038250Y026575D01*
X037640Y025915D02*
X037601Y025913D01*
X037562Y025907D01*
X037524Y025898D01*
X037487Y025885D01*
X037451Y025868D01*
X037418Y025848D01*
X037386Y025824D01*
X037357Y025798D01*
X037331Y025769D01*
X037307Y025737D01*
X037287Y025704D01*
X037270Y025668D01*
X037257Y025631D01*
X037248Y025593D01*
X037242Y025554D01*
X037240Y025515D01*
X037242Y025476D01*
X037248Y025437D01*
X037257Y025399D01*
X037270Y025362D01*
X037287Y025326D01*
X037307Y025293D01*
X037331Y025261D01*
X037357Y025232D01*
X037386Y025206D01*
X037418Y025182D01*
X037451Y025162D01*
X037487Y025145D01*
X037524Y025132D01*
X037562Y025123D01*
X037601Y025117D01*
X037640Y025115D01*
X037640Y024365D01*
X030640Y024365D01*
X033607Y025305D02*
X033607Y025375D01*
X033887Y025655D01*
X033887Y025725D01*
X033607Y025725D01*
X034068Y025515D02*
X034348Y025515D01*
X034278Y025305D02*
X034278Y025725D01*
X034068Y025515D01*
X034528Y025725D02*
X034528Y025305D01*
X034808Y025305D01*
X034988Y025375D02*
X035058Y025305D01*
X035199Y025305D01*
X035269Y025375D01*
X035269Y025445D01*
X035199Y025515D01*
X035058Y025515D01*
X034988Y025585D01*
X034988Y025655D01*
X035058Y025725D01*
X035199Y025725D01*
X035269Y025655D01*
X035449Y025725D02*
X035729Y025725D01*
X035729Y025655D01*
X035449Y025375D01*
X035449Y025305D01*
X035909Y025515D02*
X036189Y025515D01*
X036119Y025305D02*
X036119Y025725D01*
X035909Y025515D01*
X036370Y025305D02*
X036370Y025725D01*
X036650Y025305D01*
X036650Y025725D01*
X037830Y025207D02*
X037830Y025067D01*
X037830Y025137D02*
X038250Y025137D01*
X038250Y025067D02*
X038250Y025207D01*
X039240Y024465D02*
X040540Y024465D01*
X040566Y024463D01*
X040592Y024458D01*
X040617Y024450D01*
X040640Y024438D01*
X040662Y024424D01*
X040681Y024406D01*
X040699Y024387D01*
X040713Y024365D01*
X040725Y024342D01*
X040733Y024317D01*
X040738Y024291D01*
X040740Y024265D01*
X040390Y024015D02*
X040020Y024015D01*
X039770Y024015D02*
X039390Y024015D01*
X039040Y023765D02*
X039042Y023739D01*
X039047Y023713D01*
X039055Y023688D01*
X039067Y023665D01*
X039081Y023643D01*
X039099Y023624D01*
X039118Y023606D01*
X039140Y023592D01*
X039163Y023580D01*
X039188Y023572D01*
X039214Y023567D01*
X039240Y023565D01*
X040540Y023565D01*
X040566Y023567D01*
X040592Y023572D01*
X040617Y023580D01*
X040640Y023592D01*
X040662Y023606D01*
X040681Y023624D01*
X040699Y023643D01*
X040713Y023665D01*
X040725Y023688D01*
X040733Y023713D01*
X040738Y023739D01*
X040740Y023765D01*
X039240Y024465D02*
X039214Y024463D01*
X039188Y024458D01*
X039163Y024450D01*
X039140Y024438D01*
X039118Y024424D01*
X039099Y024406D01*
X039081Y024387D01*
X039067Y024365D01*
X039055Y024342D01*
X039047Y024317D01*
X039042Y024291D01*
X039040Y024265D01*
X041490Y026565D02*
X042790Y026565D01*
X042816Y026567D01*
X042842Y026572D01*
X042867Y026580D01*
X042890Y026592D01*
X042912Y026606D01*
X042931Y026624D01*
X042949Y026643D01*
X042963Y026665D01*
X042975Y026688D01*
X042983Y026713D01*
X042988Y026739D01*
X042990Y026765D01*
X042640Y027015D02*
X042260Y027015D01*
X042010Y027015D02*
X041640Y027015D01*
X041290Y027265D02*
X041292Y027291D01*
X041297Y027317D01*
X041305Y027342D01*
X041317Y027365D01*
X041331Y027387D01*
X041349Y027406D01*
X041368Y027424D01*
X041390Y027438D01*
X041413Y027450D01*
X041438Y027458D01*
X041464Y027463D01*
X041490Y027465D01*
X042790Y027465D01*
X042816Y027463D01*
X042842Y027458D01*
X042867Y027450D01*
X042890Y027438D01*
X042912Y027424D01*
X042931Y027406D01*
X042949Y027387D01*
X042963Y027365D01*
X042975Y027342D01*
X042983Y027317D01*
X042988Y027291D01*
X042990Y027265D01*
X044265Y026665D02*
X044265Y025915D01*
X044304Y025913D01*
X044343Y025907D01*
X044381Y025898D01*
X044418Y025885D01*
X044454Y025868D01*
X044487Y025848D01*
X044519Y025824D01*
X044548Y025798D01*
X044574Y025769D01*
X044598Y025737D01*
X044618Y025704D01*
X044635Y025668D01*
X044648Y025631D01*
X044657Y025593D01*
X044663Y025554D01*
X044665Y025515D01*
X044663Y025476D01*
X044657Y025437D01*
X044648Y025399D01*
X044635Y025362D01*
X044618Y025326D01*
X044598Y025293D01*
X044574Y025261D01*
X044548Y025232D01*
X044519Y025206D01*
X044487Y025182D01*
X044454Y025162D01*
X044418Y025145D01*
X044381Y025132D01*
X044343Y025123D01*
X044304Y025117D01*
X044265Y025115D01*
X044265Y024365D01*
X052265Y024365D01*
X052265Y026665D01*
X044265Y026665D01*
X045355Y025725D02*
X045635Y025725D01*
X045635Y025655D01*
X045355Y025375D01*
X045355Y025305D01*
X045815Y025515D02*
X046096Y025515D01*
X046026Y025305D02*
X046026Y025725D01*
X045815Y025515D01*
X046276Y025305D02*
X046556Y025305D01*
X046736Y025375D02*
X046806Y025305D01*
X046946Y025305D01*
X047016Y025375D01*
X047016Y025445D01*
X046946Y025515D01*
X046806Y025515D01*
X046736Y025585D01*
X046736Y025655D01*
X046806Y025725D01*
X046946Y025725D01*
X047016Y025655D01*
X047197Y025585D02*
X047337Y025725D01*
X047337Y025305D01*
X047197Y025305D02*
X047477Y025305D01*
X047657Y025375D02*
X047727Y025305D01*
X047867Y025305D01*
X047937Y025375D01*
X047937Y025515D01*
X047867Y025585D01*
X047797Y025585D01*
X047657Y025515D01*
X047657Y025725D01*
X047937Y025725D01*
X048117Y025585D02*
X048257Y025725D01*
X048257Y025305D01*
X048117Y025305D02*
X048398Y025305D01*
X048578Y025305D02*
X048578Y025725D01*
X048858Y025305D01*
X048858Y025725D01*
X046276Y025725D02*
X046276Y025305D01*
X044075Y025312D02*
X043655Y025312D01*
X043795Y025172D01*
X043725Y024992D02*
X043655Y024922D01*
X043655Y024782D01*
X043725Y024712D01*
X044005Y024712D01*
X044075Y024782D01*
X044075Y024922D01*
X044005Y024992D01*
X044075Y025172D02*
X044075Y025453D01*
X044075Y024545D02*
X044075Y024405D01*
X044075Y024475D02*
X043655Y024475D01*
X043655Y024405D02*
X043655Y024545D01*
X041490Y026565D02*
X041464Y026567D01*
X041438Y026572D01*
X041413Y026580D01*
X041390Y026592D01*
X041368Y026606D01*
X041349Y026624D01*
X041331Y026643D01*
X041317Y026665D01*
X041305Y026688D01*
X041297Y026713D01*
X041292Y026739D01*
X041290Y026765D01*
X045265Y030615D02*
X037265Y030615D01*
X037265Y031365D01*
X037075Y031492D02*
X037005Y031422D01*
X037075Y031492D02*
X037075Y031633D01*
X037005Y031703D01*
X036935Y031703D01*
X036865Y031633D01*
X036865Y031562D01*
X036865Y031633D02*
X036795Y031703D01*
X036725Y031703D01*
X036655Y031633D01*
X036655Y031492D01*
X036725Y031422D01*
X036725Y031242D02*
X036655Y031172D01*
X036655Y031032D01*
X036725Y030962D01*
X037005Y030962D01*
X037075Y031032D01*
X037075Y031172D01*
X037005Y031242D01*
X037075Y030795D02*
X037075Y030655D01*
X037075Y030725D02*
X036655Y030725D01*
X036655Y030655D02*
X036655Y030795D01*
X037265Y031365D02*
X037304Y031367D01*
X037343Y031373D01*
X037381Y031382D01*
X037418Y031395D01*
X037454Y031412D01*
X037487Y031432D01*
X037519Y031456D01*
X037548Y031482D01*
X037574Y031511D01*
X037598Y031543D01*
X037618Y031576D01*
X037635Y031612D01*
X037648Y031649D01*
X037657Y031687D01*
X037663Y031726D01*
X037665Y031765D01*
X037663Y031804D01*
X037657Y031843D01*
X037648Y031881D01*
X037635Y031918D01*
X037618Y031954D01*
X037598Y031987D01*
X037574Y032019D01*
X037548Y032048D01*
X037519Y032074D01*
X037487Y032098D01*
X037454Y032118D01*
X037418Y032135D01*
X037381Y032148D01*
X037343Y032157D01*
X037304Y032163D01*
X037265Y032165D01*
X037265Y032915D01*
X045265Y032915D01*
X045265Y030615D01*
X041858Y031555D02*
X041858Y031975D01*
X041578Y031975D02*
X041578Y031555D01*
X041398Y031625D02*
X041328Y031555D01*
X041187Y031555D01*
X041117Y031625D01*
X040937Y031625D02*
X040867Y031555D01*
X040727Y031555D01*
X040657Y031625D01*
X040657Y031765D02*
X040797Y031835D01*
X040867Y031835D01*
X040937Y031765D01*
X040937Y031625D01*
X040657Y031765D02*
X040657Y031975D01*
X040937Y031975D01*
X041117Y031905D02*
X041187Y031975D01*
X041328Y031975D01*
X041398Y031905D01*
X041398Y031835D01*
X041328Y031765D01*
X041398Y031695D01*
X041398Y031625D01*
X041328Y031765D02*
X041257Y031765D01*
X041578Y031975D02*
X041858Y031555D01*
X040477Y031555D02*
X040197Y031555D01*
X040337Y031555D02*
X040337Y031975D01*
X040197Y031835D01*
X040016Y031905D02*
X039946Y031975D01*
X039806Y031975D01*
X039736Y031905D01*
X039736Y031835D01*
X039806Y031765D01*
X039946Y031765D01*
X040016Y031695D01*
X040016Y031625D01*
X039946Y031555D01*
X039806Y031555D01*
X039736Y031625D01*
X039556Y031555D02*
X039276Y031555D01*
X039276Y031975D01*
X039026Y031975D02*
X038815Y031765D01*
X039096Y031765D01*
X039026Y031555D02*
X039026Y031975D01*
X038635Y031975D02*
X038635Y031905D01*
X038355Y031625D01*
X038355Y031555D01*
X038355Y031975D02*
X038635Y031975D01*
X038540Y034440D02*
X037240Y034440D01*
X037214Y034442D01*
X037188Y034447D01*
X037163Y034455D01*
X037140Y034467D01*
X037118Y034481D01*
X037099Y034499D01*
X037081Y034518D01*
X037067Y034540D01*
X037055Y034563D01*
X037047Y034588D01*
X037042Y034614D01*
X037040Y034640D01*
X037390Y034890D02*
X037770Y034890D01*
X038020Y034890D02*
X038390Y034890D01*
X038740Y034640D02*
X038738Y034614D01*
X038733Y034588D01*
X038725Y034563D01*
X038713Y034540D01*
X038699Y034518D01*
X038681Y034499D01*
X038662Y034481D01*
X038640Y034467D01*
X038617Y034455D01*
X038592Y034447D01*
X038566Y034442D01*
X038540Y034440D01*
X038740Y035140D02*
X038738Y035166D01*
X038733Y035192D01*
X038725Y035217D01*
X038713Y035240D01*
X038699Y035262D01*
X038681Y035281D01*
X038662Y035299D01*
X038640Y035313D01*
X038617Y035325D01*
X038592Y035333D01*
X038566Y035338D01*
X038540Y035340D01*
X037240Y035340D01*
X037214Y035338D01*
X037188Y035333D01*
X037163Y035325D01*
X037140Y035313D01*
X037118Y035299D01*
X037099Y035281D01*
X037081Y035262D01*
X037067Y035240D01*
X037055Y035217D01*
X037047Y035192D01*
X037042Y035166D01*
X037040Y035140D01*
X037655Y035730D02*
X037655Y035870D01*
X037655Y035800D02*
X038075Y035800D01*
X038075Y035730D02*
X038075Y035870D01*
X038005Y036037D02*
X038075Y036107D01*
X038075Y036247D01*
X038005Y036317D01*
X038075Y036497D02*
X037795Y036778D01*
X037725Y036778D01*
X037655Y036708D01*
X037655Y036567D01*
X037725Y036497D01*
X037725Y036317D02*
X037655Y036247D01*
X037655Y036107D01*
X037725Y036037D01*
X038005Y036037D01*
X038075Y036497D02*
X038075Y036778D01*
X038005Y036958D02*
X037725Y037238D01*
X038005Y037238D01*
X038075Y037168D01*
X038075Y037028D01*
X038005Y036958D01*
X037725Y036958D01*
X037655Y037028D01*
X037655Y037168D01*
X037725Y037238D01*
X038265Y036865D02*
X038265Y037615D01*
X038304Y037617D01*
X038343Y037623D01*
X038381Y037632D01*
X038418Y037645D01*
X038454Y037662D01*
X038487Y037682D01*
X038519Y037706D01*
X038548Y037732D01*
X038574Y037761D01*
X038598Y037793D01*
X038618Y037826D01*
X038635Y037862D01*
X038648Y037899D01*
X038657Y037937D01*
X038663Y037976D01*
X038665Y038015D01*
X038663Y038054D01*
X038657Y038093D01*
X038648Y038131D01*
X038635Y038168D01*
X038618Y038204D01*
X038598Y038237D01*
X038574Y038269D01*
X038548Y038298D01*
X038519Y038324D01*
X038487Y038348D01*
X038454Y038368D01*
X038418Y038385D01*
X038381Y038398D01*
X038343Y038407D01*
X038304Y038413D01*
X038265Y038415D01*
X038265Y039165D01*
X045265Y039165D01*
X045265Y036865D01*
X038265Y036865D01*
X037840Y037865D02*
X037840Y039165D01*
X037838Y039191D01*
X037833Y039217D01*
X037825Y039242D01*
X037813Y039265D01*
X037799Y039287D01*
X037781Y039306D01*
X037762Y039324D01*
X037740Y039338D01*
X037717Y039350D01*
X037692Y039358D01*
X037666Y039363D01*
X037640Y039365D01*
X037390Y039015D02*
X037390Y038635D01*
X037390Y038385D02*
X037390Y038015D01*
X037140Y037665D02*
X037114Y037667D01*
X037088Y037672D01*
X037063Y037680D01*
X037040Y037692D01*
X037018Y037706D01*
X036999Y037724D01*
X036981Y037743D01*
X036967Y037765D01*
X036955Y037788D01*
X036947Y037813D01*
X036942Y037839D01*
X036940Y037865D01*
X036940Y039165D01*
X036942Y039191D01*
X036947Y039217D01*
X036955Y039242D01*
X036967Y039265D01*
X036981Y039287D01*
X036999Y039306D01*
X037018Y039324D01*
X037040Y039338D01*
X037063Y039350D01*
X037088Y039358D01*
X037114Y039363D01*
X037140Y039365D01*
X037840Y037865D02*
X037838Y037839D01*
X037833Y037813D01*
X037825Y037788D01*
X037813Y037765D01*
X037799Y037743D01*
X037781Y037724D01*
X037762Y037706D01*
X037740Y037692D01*
X037717Y037680D01*
X037692Y037672D01*
X037666Y037667D01*
X037640Y037665D01*
X039155Y037805D02*
X039155Y037875D01*
X039435Y038155D01*
X039435Y038225D01*
X039155Y038225D01*
X039615Y038015D02*
X039896Y038015D01*
X039826Y037805D02*
X039826Y038225D01*
X039615Y038015D01*
X040076Y038225D02*
X040076Y037805D01*
X040356Y037805D01*
X040536Y037875D02*
X040606Y037805D01*
X040746Y037805D01*
X040816Y037875D01*
X040816Y037945D01*
X040746Y038015D01*
X040606Y038015D01*
X040536Y038085D01*
X040536Y038155D01*
X040606Y038225D01*
X040746Y038225D01*
X040816Y038155D01*
X040997Y038155D02*
X041067Y038225D01*
X041207Y038225D01*
X041277Y038155D01*
X040997Y037875D01*
X041067Y037805D01*
X041207Y037805D01*
X041277Y037875D01*
X041277Y038155D01*
X041457Y038155D02*
X041457Y038085D01*
X041527Y038015D01*
X041667Y038015D01*
X041737Y037945D01*
X041737Y037875D01*
X041667Y037805D01*
X041527Y037805D01*
X041457Y037875D01*
X041457Y037945D01*
X041527Y038015D01*
X041667Y038015D02*
X041737Y038085D01*
X041737Y038155D01*
X041667Y038225D01*
X041527Y038225D01*
X041457Y038155D01*
X040997Y038155D02*
X040997Y037875D01*
X041917Y037805D02*
X041917Y038225D01*
X042198Y037805D01*
X042198Y038225D01*
X049315Y036540D02*
X049315Y035240D01*
X049317Y035214D01*
X049322Y035188D01*
X049330Y035163D01*
X049342Y035140D01*
X049356Y035118D01*
X049374Y035099D01*
X049393Y035081D01*
X049415Y035067D01*
X049438Y035055D01*
X049463Y035047D01*
X049489Y035042D01*
X049515Y035040D01*
X049765Y035390D02*
X049765Y035770D01*
X049765Y036020D02*
X049765Y036390D01*
X050015Y036740D02*
X050041Y036738D01*
X050067Y036733D01*
X050092Y036725D01*
X050115Y036713D01*
X050137Y036699D01*
X050156Y036681D01*
X050174Y036662D01*
X050188Y036640D01*
X050200Y036617D01*
X050208Y036592D01*
X050213Y036566D01*
X050215Y036540D01*
X050215Y035240D01*
X050213Y035214D01*
X050208Y035188D01*
X050200Y035163D01*
X050188Y035140D01*
X050174Y035118D01*
X050156Y035099D01*
X050137Y035081D01*
X050115Y035067D01*
X050092Y035055D01*
X050067Y035047D01*
X050041Y035042D01*
X050015Y035040D01*
X049315Y036540D02*
X049317Y036566D01*
X049322Y036592D01*
X049330Y036617D01*
X049342Y036640D01*
X049356Y036662D01*
X049374Y036681D01*
X049393Y036699D01*
X049415Y036713D01*
X049438Y036725D01*
X049463Y036733D01*
X049489Y036738D01*
X049515Y036740D01*
X049265Y032915D02*
X049265Y032165D01*
X049304Y032163D01*
X049343Y032157D01*
X049381Y032148D01*
X049418Y032135D01*
X049454Y032118D01*
X049487Y032098D01*
X049519Y032074D01*
X049548Y032048D01*
X049574Y032019D01*
X049598Y031987D01*
X049618Y031954D01*
X049635Y031918D01*
X049648Y031881D01*
X049657Y031843D01*
X049663Y031804D01*
X049665Y031765D01*
X049663Y031726D01*
X049657Y031687D01*
X049648Y031649D01*
X049635Y031612D01*
X049618Y031576D01*
X049598Y031543D01*
X049574Y031511D01*
X049548Y031482D01*
X049519Y031456D01*
X049487Y031432D01*
X049454Y031412D01*
X049418Y031395D01*
X049381Y031382D01*
X049343Y031373D01*
X049304Y031367D01*
X049265Y031365D01*
X049265Y030615D01*
X057265Y030615D01*
X057265Y032915D01*
X049265Y032915D01*
X048865Y031703D02*
X048865Y031422D01*
X048655Y031633D01*
X049075Y031633D01*
X049005Y031242D02*
X049075Y031172D01*
X049075Y031032D01*
X049005Y030962D01*
X048725Y030962D01*
X048655Y031032D01*
X048655Y031172D01*
X048725Y031242D01*
X048655Y030795D02*
X048655Y030655D01*
X048655Y030725D02*
X049075Y030725D01*
X049075Y030655D02*
X049075Y030795D01*
X050355Y031555D02*
X050355Y031625D01*
X050635Y031905D01*
X050635Y031975D01*
X050355Y031975D01*
X050815Y031765D02*
X051096Y031765D01*
X051026Y031555D02*
X051026Y031975D01*
X050815Y031765D01*
X051276Y031555D02*
X051556Y031555D01*
X051736Y031625D02*
X051806Y031555D01*
X051946Y031555D01*
X052016Y031625D01*
X052016Y031695D01*
X051946Y031765D01*
X051806Y031765D01*
X051736Y031835D01*
X051736Y031905D01*
X051806Y031975D01*
X051946Y031975D01*
X052016Y031905D01*
X052197Y031835D02*
X052337Y031975D01*
X052337Y031555D01*
X052197Y031555D02*
X052477Y031555D01*
X052657Y031625D02*
X052727Y031555D01*
X052867Y031555D01*
X052937Y031625D01*
X052937Y031765D01*
X052867Y031835D01*
X052797Y031835D01*
X052657Y031765D01*
X052657Y031975D01*
X052937Y031975D01*
X053117Y031905D02*
X053187Y031975D01*
X053328Y031975D01*
X053398Y031905D01*
X053398Y031835D01*
X053328Y031765D01*
X053398Y031695D01*
X053398Y031625D01*
X053328Y031555D01*
X053187Y031555D01*
X053117Y031625D01*
X053257Y031765D02*
X053328Y031765D01*
X053578Y031555D02*
X053578Y031975D01*
X053858Y031555D01*
X053858Y031975D01*
X051276Y031975D02*
X051276Y031555D01*
X055865Y028465D02*
X057165Y028465D01*
X057191Y028463D01*
X057217Y028458D01*
X057242Y028450D01*
X057265Y028438D01*
X057287Y028424D01*
X057306Y028406D01*
X057324Y028387D01*
X057338Y028365D01*
X057350Y028342D01*
X057358Y028317D01*
X057363Y028291D01*
X057365Y028265D01*
X057015Y028015D02*
X056645Y028015D01*
X056395Y028015D02*
X056015Y028015D01*
X055665Y027765D02*
X055667Y027739D01*
X055672Y027713D01*
X055680Y027688D01*
X055692Y027665D01*
X055706Y027643D01*
X055724Y027624D01*
X055743Y027606D01*
X055765Y027592D01*
X055788Y027580D01*
X055813Y027572D01*
X055839Y027567D01*
X055865Y027565D01*
X057165Y027565D01*
X057191Y027567D01*
X057217Y027572D01*
X057242Y027580D01*
X057265Y027592D01*
X057287Y027606D01*
X057306Y027624D01*
X057324Y027643D01*
X057338Y027665D01*
X057350Y027688D01*
X057358Y027713D01*
X057363Y027739D01*
X057365Y027765D01*
X055865Y028465D02*
X055839Y028463D01*
X055813Y028458D01*
X055788Y028450D01*
X055765Y028438D01*
X055743Y028424D01*
X055724Y028406D01*
X055706Y028387D01*
X055692Y028365D01*
X055680Y028342D01*
X055672Y028317D01*
X055667Y028291D01*
X055665Y028265D01*
X055390Y026165D02*
X055390Y025415D01*
X055200Y025293D02*
X055200Y025153D01*
X055130Y025083D01*
X055060Y025083D01*
X054990Y025153D01*
X054990Y025293D01*
X055060Y025363D01*
X055130Y025363D01*
X055200Y025293D01*
X054990Y025293D02*
X054920Y025363D01*
X054850Y025363D01*
X054780Y025293D01*
X054780Y025153D01*
X054850Y025083D01*
X054920Y025083D01*
X054990Y025153D01*
X055200Y024903D02*
X055200Y024622D01*
X055200Y024762D02*
X054780Y024762D01*
X054920Y024622D01*
X054850Y024442D02*
X054780Y024372D01*
X054780Y024232D01*
X054850Y024162D01*
X055130Y024162D01*
X055200Y024232D01*
X055200Y024372D01*
X055130Y024442D01*
X055390Y024615D02*
X055390Y023865D01*
X062390Y023865D01*
X062390Y026165D01*
X055390Y026165D01*
X055390Y025415D02*
X055429Y025413D01*
X055468Y025407D01*
X055506Y025398D01*
X055543Y025385D01*
X055579Y025368D01*
X055612Y025348D01*
X055644Y025324D01*
X055673Y025298D01*
X055699Y025269D01*
X055723Y025237D01*
X055743Y025204D01*
X055760Y025168D01*
X055773Y025131D01*
X055782Y025093D01*
X055788Y025054D01*
X055790Y025015D01*
X055788Y024976D01*
X055782Y024937D01*
X055773Y024899D01*
X055760Y024862D01*
X055743Y024826D01*
X055723Y024793D01*
X055699Y024761D01*
X055673Y024732D01*
X055644Y024706D01*
X055612Y024682D01*
X055579Y024662D01*
X055543Y024645D01*
X055506Y024632D01*
X055468Y024623D01*
X055429Y024617D01*
X055390Y024615D01*
X056280Y024805D02*
X056280Y024875D01*
X056560Y025155D01*
X056560Y025225D01*
X056280Y025225D01*
X056740Y025015D02*
X057021Y025015D01*
X056951Y024805D02*
X056951Y025225D01*
X056740Y025015D01*
X057201Y025225D02*
X057201Y024805D01*
X057481Y024805D01*
X057661Y024875D02*
X057731Y024805D01*
X057871Y024805D01*
X057941Y024875D01*
X057941Y024945D01*
X057871Y025015D01*
X057731Y025015D01*
X057661Y025085D01*
X057661Y025155D01*
X057731Y025225D01*
X057871Y025225D01*
X057941Y025155D01*
X058122Y025155D02*
X058192Y025225D01*
X058332Y025225D01*
X058402Y025155D01*
X058122Y024875D01*
X058192Y024805D01*
X058332Y024805D01*
X058402Y024875D01*
X058402Y025155D01*
X058582Y025015D02*
X058862Y025015D01*
X058792Y024805D02*
X058792Y025225D01*
X058582Y025015D01*
X058122Y024875D02*
X058122Y025155D01*
X059042Y025225D02*
X059323Y024805D01*
X059323Y025225D01*
X059042Y025225D02*
X059042Y024805D01*
X055200Y023995D02*
X055200Y023855D01*
X055200Y023925D02*
X054780Y023925D01*
X054780Y023855D02*
X054780Y023995D01*
X063765Y023765D02*
X063765Y023265D01*
X064015Y023015D01*
X064515Y023015D01*
X064765Y023265D01*
X064765Y023765D01*
X064515Y024015D01*
X064015Y024015D01*
X063765Y023765D01*
X064015Y024015D02*
X063765Y024265D01*
X063765Y024765D01*
X064015Y025015D01*
X063765Y025265D01*
X063765Y025765D01*
X064015Y026015D01*
X063765Y026265D01*
X063765Y026765D01*
X064015Y027015D01*
X063765Y027265D01*
X063765Y027765D01*
X064015Y028015D01*
X064515Y028015D01*
X064765Y027765D01*
X064765Y027265D01*
X064515Y027015D01*
X064765Y026765D01*
X064765Y026265D01*
X064515Y026015D01*
X064015Y026015D01*
X064515Y026015D02*
X064765Y025765D01*
X064765Y025265D01*
X064515Y025015D01*
X064765Y024765D01*
X064765Y024265D01*
X064515Y024015D01*
X064515Y023015D02*
X064765Y022765D01*
X064765Y022265D01*
X064515Y022015D01*
X064765Y021765D01*
X064765Y021265D01*
X064515Y021015D01*
X064765Y020765D01*
X064765Y020265D01*
X064515Y020015D01*
X064765Y019765D01*
X064765Y019265D01*
X064515Y019015D01*
X064015Y019015D01*
X063765Y019265D01*
X063765Y019765D01*
X064015Y020015D01*
X063765Y020265D01*
X063765Y020765D01*
X064015Y021015D01*
X063765Y021265D01*
X063765Y021765D01*
X064015Y022015D01*
X063765Y022265D01*
X063765Y022765D01*
X064015Y023015D01*
X064015Y022015D02*
X064515Y022015D01*
X064515Y021015D02*
X064015Y021015D01*
X064015Y020015D02*
X064515Y020015D01*
X061475Y017500D02*
X061475Y017220D01*
X061195Y017500D01*
X061125Y017500D01*
X061055Y017430D01*
X061055Y017290D01*
X061125Y017220D01*
X061125Y017039D02*
X061265Y017039D01*
X061335Y016969D01*
X061335Y016759D01*
X061475Y016759D02*
X061055Y016759D01*
X061055Y016969D01*
X061125Y017039D01*
X060765Y016890D02*
X060515Y016640D01*
X059015Y016640D01*
X058765Y016390D01*
X058765Y015890D01*
X059015Y015640D01*
X060515Y015640D01*
X060765Y015390D01*
X060765Y014890D01*
X060515Y014640D01*
X060515Y015640D02*
X060765Y015890D01*
X060765Y016390D01*
X060515Y016640D01*
X060765Y016890D02*
X060765Y017390D01*
X060515Y017640D01*
X059015Y017640D01*
X058765Y017390D01*
X058765Y016890D01*
X059015Y016640D01*
X059015Y015640D02*
X058765Y015390D01*
X058765Y014890D01*
X059015Y014640D01*
X061055Y016439D02*
X061055Y016579D01*
X061055Y016509D02*
X061405Y016509D01*
X061475Y016439D01*
X061475Y016369D01*
X061405Y016299D01*
X064015Y025015D02*
X064515Y025015D01*
X065375Y026704D02*
X065445Y026774D01*
X065445Y026844D01*
X065375Y026914D01*
X065025Y026914D01*
X065025Y026844D02*
X065025Y026984D01*
X065025Y027164D02*
X065025Y027374D01*
X065095Y027444D01*
X065235Y027444D01*
X065305Y027374D01*
X065305Y027164D01*
X065445Y027164D02*
X065025Y027164D01*
X065025Y027625D02*
X065025Y027905D01*
X065095Y027905D01*
X065375Y027625D01*
X065445Y027625D01*
X064515Y027015D02*
X064015Y027015D01*
X060515Y039640D02*
X060015Y039640D01*
X059765Y039890D01*
X059765Y041390D01*
X060015Y041640D01*
X060515Y041640D01*
X060765Y041390D01*
X060765Y039890D01*
X060515Y039640D01*
X059765Y039890D02*
X059515Y039640D01*
X059015Y039640D01*
X058765Y039890D01*
X058765Y041390D01*
X059015Y041640D01*
X059515Y041640D01*
X059765Y041390D01*
X059726Y041930D02*
X059936Y041930D01*
X060006Y042000D01*
X060006Y042280D01*
X059936Y042350D01*
X059726Y042350D01*
X059726Y041930D01*
X059546Y041930D02*
X059546Y042350D01*
X059265Y042350D02*
X059546Y041930D01*
X059265Y041930D02*
X059265Y042350D01*
X059085Y042280D02*
X059015Y042350D01*
X058875Y042350D01*
X058805Y042280D01*
X058805Y042000D01*
X058875Y041930D01*
X059015Y041930D01*
X059085Y042000D01*
X059085Y042140D01*
X058945Y042140D01*
X060186Y042210D02*
X060326Y042350D01*
X060326Y041930D01*
X060186Y041930D02*
X060466Y041930D01*
X032265Y039165D02*
X032265Y036865D01*
X025265Y036865D01*
X025265Y037615D01*
X025005Y037363D02*
X025075Y037293D01*
X025075Y037153D01*
X025005Y037083D01*
X024865Y037083D02*
X024795Y037223D01*
X024795Y037293D01*
X024865Y037363D01*
X025005Y037363D01*
X024865Y037083D02*
X024655Y037083D01*
X024655Y037363D01*
X024640Y037665D02*
X024666Y037667D01*
X024692Y037672D01*
X024717Y037680D01*
X024740Y037692D01*
X024762Y037706D01*
X024781Y037724D01*
X024799Y037743D01*
X024813Y037765D01*
X024825Y037788D01*
X024833Y037813D01*
X024838Y037839D01*
X024840Y037865D01*
X024840Y039165D01*
X024838Y039191D01*
X024833Y039217D01*
X024825Y039242D01*
X024813Y039265D01*
X024799Y039287D01*
X024781Y039306D01*
X024762Y039324D01*
X024740Y039338D01*
X024717Y039350D01*
X024692Y039358D01*
X024666Y039363D01*
X024640Y039365D01*
X024390Y039015D02*
X024390Y038635D01*
X024390Y038385D02*
X024390Y038015D01*
X024140Y037665D02*
X024114Y037667D01*
X024088Y037672D01*
X024063Y037680D01*
X024040Y037692D01*
X024018Y037706D01*
X023999Y037724D01*
X023981Y037743D01*
X023967Y037765D01*
X023955Y037788D01*
X023947Y037813D01*
X023942Y037839D01*
X023940Y037865D01*
X023940Y039165D01*
X023942Y039191D01*
X023947Y039217D01*
X023955Y039242D01*
X023967Y039265D01*
X023981Y039287D01*
X023999Y039306D01*
X024018Y039324D01*
X024040Y039338D01*
X024063Y039350D01*
X024088Y039358D01*
X024114Y039363D01*
X024140Y039365D01*
X025265Y039165D02*
X025265Y038415D01*
X025304Y038413D01*
X025343Y038407D01*
X025381Y038398D01*
X025418Y038385D01*
X025454Y038368D01*
X025487Y038348D01*
X025519Y038324D01*
X025548Y038298D01*
X025574Y038269D01*
X025598Y038237D01*
X025618Y038204D01*
X025635Y038168D01*
X025648Y038131D01*
X025657Y038093D01*
X025663Y038054D01*
X025665Y038015D01*
X025663Y037976D01*
X025657Y037937D01*
X025648Y037899D01*
X025635Y037862D01*
X025618Y037826D01*
X025598Y037793D01*
X025574Y037761D01*
X025548Y037732D01*
X025519Y037706D01*
X025487Y037682D01*
X025454Y037662D01*
X025418Y037645D01*
X025381Y037632D01*
X025343Y037623D01*
X025304Y037617D01*
X025265Y037615D01*
X025075Y036903D02*
X025075Y036622D01*
X025075Y036762D02*
X024655Y036762D01*
X024795Y036622D01*
X024725Y036442D02*
X024655Y036372D01*
X024655Y036232D01*
X024725Y036162D01*
X025005Y036162D01*
X025075Y036232D01*
X025075Y036372D01*
X025005Y036442D01*
X025075Y035995D02*
X025075Y035855D01*
X025075Y035925D02*
X024655Y035925D01*
X024655Y035855D02*
X024655Y035995D01*
X026155Y037805D02*
X026155Y037875D01*
X026435Y038155D01*
X026435Y038225D01*
X026155Y038225D01*
X026615Y038015D02*
X026896Y038015D01*
X026826Y037805D02*
X026826Y038225D01*
X026615Y038015D01*
X027076Y038225D02*
X027076Y037805D01*
X027356Y037805D01*
X027536Y037875D02*
X027606Y037805D01*
X027746Y037805D01*
X027816Y037875D01*
X027816Y037945D01*
X027746Y038015D01*
X027606Y038015D01*
X027536Y038085D01*
X027536Y038155D01*
X027606Y038225D01*
X027746Y038225D01*
X027816Y038155D01*
X027997Y038155D02*
X028067Y038225D01*
X028207Y038225D01*
X028277Y038155D01*
X028277Y038085D01*
X027997Y037805D01*
X028277Y037805D01*
X028457Y037805D02*
X028737Y037805D01*
X028597Y037805D02*
X028597Y038225D01*
X028457Y038085D01*
X028917Y038225D02*
X028917Y037805D01*
X029198Y037805D02*
X028917Y038225D01*
X029198Y038225D02*
X029198Y037805D01*
X032265Y039165D02*
X025265Y039165D01*
X007890Y039890D02*
X007640Y039640D01*
X027580Y026505D02*
X027580Y026365D01*
X027650Y026295D01*
X027580Y026505D02*
X027650Y026575D01*
X027720Y026575D01*
X028000Y026295D01*
X028000Y026575D01*
X026400Y025725D02*
X026400Y025305D01*
X026120Y025725D01*
X026120Y025305D01*
X025869Y025305D02*
X025869Y025725D01*
X025659Y025515D01*
X025939Y025515D01*
X025479Y025655D02*
X025199Y025375D01*
X025199Y025305D01*
X025019Y025375D02*
X024949Y025305D01*
X024808Y025305D01*
X024738Y025375D01*
X024808Y025515D02*
X024949Y025515D01*
X025019Y025445D01*
X025019Y025375D01*
X024808Y025515D02*
X024738Y025585D01*
X024738Y025655D01*
X024808Y025725D01*
X024949Y025725D01*
X025019Y025655D01*
X025199Y025725D02*
X025479Y025725D01*
X025479Y025655D01*
X024558Y025305D02*
X024278Y025305D01*
X024278Y025725D01*
X024028Y025725D02*
X024028Y025305D01*
X024098Y025515D02*
X023818Y025515D01*
X024028Y025725D01*
X023637Y025725D02*
X023637Y025655D01*
X023357Y025375D01*
X023357Y025305D01*
X023357Y025725D02*
X023637Y025725D01*
D11*
X027635Y022815D02*
X027635Y022515D01*
X027635Y022215D01*
X027885Y022215D02*
X027885Y022515D01*
X027885Y022815D01*
X028645Y023715D02*
X028645Y024015D01*
X028645Y024315D01*
X028895Y024315D02*
X028895Y024015D01*
X028895Y023715D01*
X019260Y020815D02*
X019260Y020515D01*
X019260Y020215D01*
X019010Y020215D02*
X019010Y020515D01*
X019010Y020815D01*
X010010Y028090D02*
X010010Y028390D01*
X010010Y028690D01*
X009760Y028690D02*
X009760Y028390D01*
X009760Y028090D01*
X022715Y032510D02*
X023015Y032510D01*
X023315Y032510D01*
X023315Y032760D02*
X023015Y032760D01*
X022715Y032760D01*
X024090Y038385D02*
X024390Y038385D01*
X024690Y038385D01*
X024690Y038635D02*
X024390Y038635D01*
X024090Y038635D01*
X018760Y038840D02*
X018760Y039140D01*
X018760Y039440D01*
X018510Y039440D02*
X018510Y039140D01*
X018510Y038840D01*
X014270Y040465D02*
X014270Y040765D01*
X014270Y041065D01*
X014020Y041065D02*
X014020Y040765D01*
X014020Y040465D01*
X037090Y038635D02*
X037390Y038635D01*
X037690Y038635D01*
X037690Y038385D02*
X037390Y038385D01*
X037090Y038385D01*
X037770Y035190D02*
X037770Y034890D01*
X037770Y034590D01*
X038020Y034590D02*
X038020Y034890D01*
X038020Y035190D01*
X049465Y035770D02*
X049765Y035770D01*
X050065Y035770D01*
X050065Y036020D02*
X049765Y036020D01*
X049465Y036020D01*
X056395Y028315D02*
X056395Y028015D01*
X056395Y027715D01*
X056645Y027715D02*
X056645Y028015D01*
X056645Y028315D01*
X042260Y027315D02*
X042260Y027015D01*
X042260Y026715D01*
X042010Y026715D02*
X042010Y027015D01*
X042010Y027315D01*
X040020Y024315D02*
X040020Y024015D01*
X040020Y023715D01*
X039770Y023715D02*
X039770Y024015D01*
X039770Y024315D01*
X043770Y011565D02*
X043770Y011265D01*
X043770Y010965D01*
X044020Y010965D02*
X044020Y011265D01*
X044020Y011565D01*
X046895Y011065D02*
X046895Y010765D01*
X046895Y010465D01*
X047145Y010465D02*
X047145Y010765D01*
X047145Y011065D01*
X052895Y010940D02*
X052895Y010640D01*
X052895Y010340D01*
X053145Y010340D02*
X053145Y010640D01*
X053145Y010940D01*
X032885Y010315D02*
X032885Y010015D01*
X032885Y009715D01*
X032635Y009715D02*
X032635Y010015D01*
X032635Y010315D01*
X011645Y009815D02*
X011645Y009515D01*
X011645Y009215D01*
X011395Y009215D02*
X011395Y009515D01*
X011395Y009815D01*
M02*
