G75*
%MOIN*%
%OFA0B0*%
%FSLAX24Y24*%
%IPPOS*%
%LPD*%
%AMOC8*
5,1,8,0,0,1.08239X$1,22.5*
%
%ADD10C,0.0080*%
%ADD11C,0.0120*%
%ADD12C,0.0240*%
%ADD13C,0.0060*%
D10*
X009433Y009285D02*
X010733Y009285D01*
X010759Y009287D01*
X010785Y009292D01*
X010810Y009300D01*
X010833Y009312D01*
X010855Y009326D01*
X010874Y009344D01*
X010892Y009363D01*
X010906Y009385D01*
X010918Y009408D01*
X010926Y009433D01*
X010931Y009459D01*
X010933Y009485D01*
X010583Y009735D02*
X010213Y009735D01*
X009963Y009735D02*
X009583Y009735D01*
X009233Y009485D02*
X009235Y009459D01*
X009240Y009433D01*
X009248Y009408D01*
X009260Y009385D01*
X009274Y009363D01*
X009292Y009344D01*
X009311Y009326D01*
X009333Y009312D01*
X009356Y009300D01*
X009381Y009292D01*
X009407Y009287D01*
X009433Y009285D01*
X009233Y009985D02*
X009235Y010011D01*
X009240Y010037D01*
X009248Y010062D01*
X009260Y010085D01*
X009274Y010107D01*
X009292Y010126D01*
X009311Y010144D01*
X009333Y010158D01*
X009356Y010170D01*
X009381Y010178D01*
X009407Y010183D01*
X009433Y010185D01*
X010733Y010185D01*
X010759Y010183D01*
X010785Y010178D01*
X010810Y010170D01*
X010833Y010158D01*
X010855Y010144D01*
X010874Y010126D01*
X010892Y010107D01*
X010906Y010085D01*
X010918Y010062D01*
X010926Y010037D01*
X010931Y010011D01*
X010933Y009985D01*
X010933Y010485D02*
X008683Y010485D01*
X008683Y026485D01*
X013983Y026485D01*
X013983Y010485D01*
X011733Y010485D01*
X011713Y010296D02*
X011713Y009675D01*
X011610Y009675D02*
X011817Y009675D01*
X012040Y009778D02*
X012143Y009675D01*
X012350Y009675D01*
X012453Y009778D01*
X012684Y009675D02*
X013098Y009675D01*
X012891Y009675D02*
X012891Y010296D01*
X012684Y010089D01*
X012453Y010192D02*
X012350Y010296D01*
X012143Y010296D01*
X012040Y010192D01*
X012040Y009778D01*
X011817Y010296D02*
X011610Y010296D01*
X011733Y010485D02*
X011731Y010524D01*
X011725Y010563D01*
X011716Y010601D01*
X011703Y010638D01*
X011686Y010674D01*
X011666Y010707D01*
X011642Y010739D01*
X011616Y010768D01*
X011587Y010794D01*
X011555Y010818D01*
X011522Y010838D01*
X011486Y010855D01*
X011449Y010868D01*
X011411Y010877D01*
X011372Y010883D01*
X011333Y010885D01*
X011294Y010883D01*
X011255Y010877D01*
X011217Y010868D01*
X011180Y010855D01*
X011144Y010838D01*
X011111Y010818D01*
X011079Y010794D01*
X011050Y010768D01*
X011024Y010739D01*
X011000Y010707D01*
X010980Y010674D01*
X010963Y010638D01*
X010950Y010601D01*
X010941Y010563D01*
X010935Y010524D01*
X010933Y010485D01*
X011333Y011875D02*
X011333Y012185D01*
X011436Y012289D01*
X011540Y012289D01*
X011643Y012185D01*
X011643Y011978D01*
X011540Y011875D01*
X011333Y011875D01*
X011126Y012082D01*
X011023Y012289D01*
X011126Y012520D02*
X011023Y012623D01*
X011023Y012830D01*
X011126Y012933D01*
X011230Y012933D01*
X011643Y012520D01*
X011643Y012933D01*
X011540Y013164D02*
X011436Y013164D01*
X011333Y013268D01*
X011333Y013474D01*
X011436Y013578D01*
X011540Y013578D01*
X011643Y013474D01*
X011643Y013268D01*
X011540Y013164D01*
X011333Y013268D02*
X011230Y013164D01*
X011126Y013164D01*
X011023Y013268D01*
X011023Y013474D01*
X011126Y013578D01*
X011230Y013578D01*
X011333Y013474D01*
X011333Y013809D02*
X011230Y014015D01*
X011230Y014119D01*
X011333Y014222D01*
X011540Y014222D01*
X011643Y014119D01*
X011643Y013912D01*
X011540Y013809D01*
X011333Y013809D02*
X011023Y013809D01*
X011023Y014222D01*
X011230Y014453D02*
X011023Y014660D01*
X011643Y014660D01*
X011643Y014453D02*
X011643Y014867D01*
X011643Y015098D02*
X011230Y015511D01*
X011126Y015511D01*
X011023Y015408D01*
X011023Y015201D01*
X011126Y015098D01*
X011643Y015098D02*
X011643Y015511D01*
X017183Y010485D02*
X019433Y010485D01*
X019435Y010524D01*
X019441Y010563D01*
X019450Y010601D01*
X019463Y010638D01*
X019480Y010674D01*
X019500Y010707D01*
X019524Y010739D01*
X019550Y010768D01*
X019579Y010794D01*
X019611Y010818D01*
X019644Y010838D01*
X019680Y010855D01*
X019717Y010868D01*
X019755Y010877D01*
X019794Y010883D01*
X019833Y010885D01*
X019872Y010883D01*
X019911Y010877D01*
X019949Y010868D01*
X019986Y010855D01*
X020022Y010838D01*
X020055Y010818D01*
X020087Y010794D01*
X020116Y010768D01*
X020142Y010739D01*
X020166Y010707D01*
X020186Y010674D01*
X020203Y010638D01*
X020216Y010601D01*
X020225Y010563D01*
X020231Y010524D01*
X020233Y010485D01*
X022483Y010485D01*
X022483Y026485D01*
X017183Y026485D01*
X017183Y010485D01*
X017183Y010185D02*
X018483Y010185D01*
X018509Y010183D01*
X018535Y010178D01*
X018560Y010170D01*
X018583Y010158D01*
X018605Y010144D01*
X018624Y010126D01*
X018642Y010107D01*
X018656Y010085D01*
X018668Y010062D01*
X018676Y010037D01*
X018681Y010011D01*
X018683Y009985D01*
X018333Y009735D02*
X017963Y009735D01*
X017713Y009735D02*
X017333Y009735D01*
X016983Y009485D02*
X016985Y009459D01*
X016990Y009433D01*
X016998Y009408D01*
X017010Y009385D01*
X017024Y009363D01*
X017042Y009344D01*
X017061Y009326D01*
X017083Y009312D01*
X017106Y009300D01*
X017131Y009292D01*
X017157Y009287D01*
X017183Y009285D01*
X018483Y009285D01*
X018509Y009287D01*
X018535Y009292D01*
X018560Y009300D01*
X018583Y009312D01*
X018605Y009326D01*
X018624Y009344D01*
X018642Y009363D01*
X018656Y009385D01*
X018668Y009408D01*
X018676Y009433D01*
X018681Y009459D01*
X018683Y009485D01*
X020110Y009675D02*
X020317Y009675D01*
X020213Y009675D02*
X020213Y010296D01*
X020110Y010296D02*
X020317Y010296D01*
X020540Y010192D02*
X020540Y009778D01*
X020643Y009675D01*
X020850Y009675D01*
X020953Y009778D01*
X021184Y009675D02*
X021598Y009675D01*
X021391Y009675D02*
X021391Y010296D01*
X021184Y010089D01*
X020953Y010192D02*
X020850Y010296D01*
X020643Y010296D01*
X020540Y010192D01*
X021829Y010192D02*
X021932Y010296D01*
X022139Y010296D01*
X022242Y010192D01*
X022242Y010089D01*
X022139Y009985D01*
X022242Y009882D01*
X022242Y009778D01*
X022139Y009675D01*
X021932Y009675D01*
X021829Y009778D01*
X022036Y009985D02*
X022139Y009985D01*
X020143Y011978D02*
X020040Y011875D01*
X019833Y011875D01*
X019833Y012185D01*
X019936Y012289D01*
X020040Y012289D01*
X020143Y012185D01*
X020143Y011978D01*
X019833Y011875D02*
X019626Y012082D01*
X019523Y012289D01*
X019626Y012520D02*
X019523Y012623D01*
X019523Y012830D01*
X019626Y012933D01*
X019730Y012933D01*
X020143Y012520D01*
X020143Y012933D01*
X020040Y013164D02*
X019936Y013164D01*
X019833Y013268D01*
X019833Y013474D01*
X019936Y013578D01*
X020040Y013578D01*
X020143Y013474D01*
X020143Y013268D01*
X020040Y013164D01*
X019833Y013268D02*
X019730Y013164D01*
X019626Y013164D01*
X019523Y013268D01*
X019523Y013474D01*
X019626Y013578D01*
X019730Y013578D01*
X019833Y013474D01*
X019833Y013809D02*
X019730Y014015D01*
X019730Y014119D01*
X019833Y014222D01*
X020040Y014222D01*
X020143Y014119D01*
X020143Y013912D01*
X020040Y013809D01*
X019833Y013809D02*
X019523Y013809D01*
X019523Y014222D01*
X019730Y014453D02*
X019523Y014660D01*
X020143Y014660D01*
X020143Y014453D02*
X020143Y014867D01*
X020143Y015098D02*
X019730Y015511D01*
X019626Y015511D01*
X019523Y015408D01*
X019523Y015201D01*
X019626Y015098D01*
X020143Y015098D02*
X020143Y015511D01*
X025683Y010485D02*
X027933Y010485D01*
X027935Y010524D01*
X027941Y010563D01*
X027950Y010601D01*
X027963Y010638D01*
X027980Y010674D01*
X028000Y010707D01*
X028024Y010739D01*
X028050Y010768D01*
X028079Y010794D01*
X028111Y010818D01*
X028144Y010838D01*
X028180Y010855D01*
X028217Y010868D01*
X028255Y010877D01*
X028294Y010883D01*
X028333Y010885D01*
X028372Y010883D01*
X028411Y010877D01*
X028449Y010868D01*
X028486Y010855D01*
X028522Y010838D01*
X028555Y010818D01*
X028587Y010794D01*
X028616Y010768D01*
X028642Y010739D01*
X028666Y010707D01*
X028686Y010674D01*
X028703Y010638D01*
X028716Y010601D01*
X028725Y010563D01*
X028731Y010524D01*
X028733Y010485D01*
X030983Y010485D01*
X030983Y026485D01*
X025683Y026485D01*
X025683Y010485D01*
X025683Y010185D02*
X026983Y010185D01*
X027009Y010183D01*
X027035Y010178D01*
X027060Y010170D01*
X027083Y010158D01*
X027105Y010144D01*
X027124Y010126D01*
X027142Y010107D01*
X027156Y010085D01*
X027168Y010062D01*
X027176Y010037D01*
X027181Y010011D01*
X027183Y009985D01*
X026833Y009735D02*
X026463Y009735D01*
X026213Y009735D02*
X025833Y009735D01*
X025483Y009485D02*
X025485Y009459D01*
X025490Y009433D01*
X025498Y009408D01*
X025510Y009385D01*
X025524Y009363D01*
X025542Y009344D01*
X025561Y009326D01*
X025583Y009312D01*
X025606Y009300D01*
X025631Y009292D01*
X025657Y009287D01*
X025683Y009285D01*
X026983Y009285D01*
X027009Y009287D01*
X027035Y009292D01*
X027060Y009300D01*
X027083Y009312D01*
X027105Y009326D01*
X027124Y009344D01*
X027142Y009363D01*
X027156Y009385D01*
X027168Y009408D01*
X027176Y009433D01*
X027181Y009459D01*
X027183Y009485D01*
X025683Y010185D02*
X025657Y010183D01*
X025631Y010178D01*
X025606Y010170D01*
X025583Y010158D01*
X025561Y010144D01*
X025542Y010126D01*
X025524Y010107D01*
X025510Y010085D01*
X025498Y010062D01*
X025490Y010037D01*
X025485Y010011D01*
X025483Y009985D01*
X028126Y012082D02*
X028333Y011875D01*
X028333Y012185D01*
X028436Y012289D01*
X028540Y012289D01*
X028643Y012185D01*
X028643Y011978D01*
X028540Y011875D01*
X028333Y011875D01*
X028126Y012082D02*
X028023Y012289D01*
X028126Y012520D02*
X028023Y012623D01*
X028023Y012830D01*
X028126Y012933D01*
X028230Y012933D01*
X028643Y012520D01*
X028643Y012933D01*
X028540Y013164D02*
X028436Y013164D01*
X028333Y013268D01*
X028333Y013474D01*
X028436Y013578D01*
X028540Y013578D01*
X028643Y013474D01*
X028643Y013268D01*
X028540Y013164D01*
X028333Y013268D02*
X028230Y013164D01*
X028126Y013164D01*
X028023Y013268D01*
X028023Y013474D01*
X028126Y013578D01*
X028230Y013578D01*
X028333Y013474D01*
X028333Y013809D02*
X028230Y014015D01*
X028230Y014119D01*
X028333Y014222D01*
X028540Y014222D01*
X028643Y014119D01*
X028643Y013912D01*
X028540Y013809D01*
X028333Y013809D02*
X028023Y013809D01*
X028023Y014222D01*
X028230Y014453D02*
X028023Y014660D01*
X028643Y014660D01*
X028643Y014453D02*
X028643Y014867D01*
X028643Y015098D02*
X028230Y015511D01*
X028126Y015511D01*
X028023Y015408D01*
X028023Y015201D01*
X028126Y015098D01*
X028643Y015098D02*
X028643Y015511D01*
X034183Y010485D02*
X036433Y010485D01*
X036435Y010524D01*
X036441Y010563D01*
X036450Y010601D01*
X036463Y010638D01*
X036480Y010674D01*
X036500Y010707D01*
X036524Y010739D01*
X036550Y010768D01*
X036579Y010794D01*
X036611Y010818D01*
X036644Y010838D01*
X036680Y010855D01*
X036717Y010868D01*
X036755Y010877D01*
X036794Y010883D01*
X036833Y010885D01*
X036872Y010883D01*
X036911Y010877D01*
X036949Y010868D01*
X036986Y010855D01*
X037022Y010838D01*
X037055Y010818D01*
X037087Y010794D01*
X037116Y010768D01*
X037142Y010739D01*
X037166Y010707D01*
X037186Y010674D01*
X037203Y010638D01*
X037216Y010601D01*
X037225Y010563D01*
X037231Y010524D01*
X037233Y010485D01*
X039483Y010485D01*
X039483Y026485D01*
X034183Y026485D01*
X034183Y010485D01*
X034183Y010185D02*
X035483Y010185D01*
X035509Y010183D01*
X035535Y010178D01*
X035560Y010170D01*
X035583Y010158D01*
X035605Y010144D01*
X035624Y010126D01*
X035642Y010107D01*
X035656Y010085D01*
X035668Y010062D01*
X035676Y010037D01*
X035681Y010011D01*
X035683Y009985D01*
X035333Y009735D02*
X034963Y009735D01*
X034713Y009735D02*
X034333Y009735D01*
X033983Y009485D02*
X033985Y009459D01*
X033990Y009433D01*
X033998Y009408D01*
X034010Y009385D01*
X034024Y009363D01*
X034042Y009344D01*
X034061Y009326D01*
X034083Y009312D01*
X034106Y009300D01*
X034131Y009292D01*
X034157Y009287D01*
X034183Y009285D01*
X035483Y009285D01*
X035509Y009287D01*
X035535Y009292D01*
X035560Y009300D01*
X035583Y009312D01*
X035605Y009326D01*
X035624Y009344D01*
X035642Y009363D01*
X035656Y009385D01*
X035668Y009408D01*
X035676Y009433D01*
X035681Y009459D01*
X035683Y009485D01*
X034183Y010185D02*
X034157Y010183D01*
X034131Y010178D01*
X034106Y010170D01*
X034083Y010158D01*
X034061Y010144D01*
X034042Y010126D01*
X034024Y010107D01*
X034010Y010085D01*
X033998Y010062D01*
X033990Y010037D01*
X033985Y010011D01*
X033983Y009985D01*
X030742Y009882D02*
X030639Y009985D01*
X030329Y009985D01*
X030329Y009778D01*
X030432Y009675D01*
X030639Y009675D01*
X030742Y009778D01*
X030742Y009882D01*
X030536Y010192D02*
X030329Y009985D01*
X030536Y010192D02*
X030742Y010296D01*
X030098Y010192D02*
X029994Y010296D01*
X029788Y010296D01*
X029684Y010192D01*
X029684Y009778D01*
X029788Y009675D01*
X029994Y009675D01*
X030098Y009778D01*
X029461Y009675D02*
X029255Y009675D01*
X029358Y009675D02*
X029358Y010296D01*
X029255Y010296D02*
X029461Y010296D01*
X036523Y012289D02*
X036626Y012082D01*
X036833Y011875D01*
X036833Y012185D01*
X036936Y012289D01*
X037040Y012289D01*
X037143Y012185D01*
X037143Y011978D01*
X037040Y011875D01*
X036833Y011875D01*
X036626Y012520D02*
X036523Y012623D01*
X036523Y012830D01*
X036626Y012933D01*
X036730Y012933D01*
X037143Y012520D01*
X037143Y012933D01*
X037040Y013164D02*
X036936Y013164D01*
X036833Y013268D01*
X036833Y013474D01*
X036936Y013578D01*
X037040Y013578D01*
X037143Y013474D01*
X037143Y013268D01*
X037040Y013164D01*
X036833Y013268D02*
X036730Y013164D01*
X036626Y013164D01*
X036523Y013268D01*
X036523Y013474D01*
X036626Y013578D01*
X036730Y013578D01*
X036833Y013474D01*
X036833Y013809D02*
X036730Y014015D01*
X036730Y014119D01*
X036833Y014222D01*
X037040Y014222D01*
X037143Y014119D01*
X037143Y013912D01*
X037040Y013809D01*
X036833Y013809D02*
X036523Y013809D01*
X036523Y014222D01*
X036730Y014453D02*
X036523Y014660D01*
X037143Y014660D01*
X037143Y014453D02*
X037143Y014867D01*
X037143Y015098D02*
X036730Y015511D01*
X036626Y015511D01*
X036523Y015408D01*
X036523Y015201D01*
X036626Y015098D01*
X037143Y015098D02*
X037143Y015511D01*
X037755Y010296D02*
X037961Y010296D01*
X037858Y010296D02*
X037858Y009675D01*
X037755Y009675D02*
X037961Y009675D01*
X038184Y009778D02*
X038288Y009675D01*
X038494Y009675D01*
X038598Y009778D01*
X038829Y009778D02*
X038932Y009675D01*
X039139Y009675D01*
X039242Y009778D01*
X039242Y009985D01*
X039139Y010089D01*
X039036Y010089D01*
X038829Y009985D01*
X038829Y010296D01*
X039242Y010296D01*
X038598Y010192D02*
X038494Y010296D01*
X038288Y010296D01*
X038184Y010192D01*
X038184Y009778D01*
X044983Y009985D02*
X044985Y010011D01*
X044990Y010037D01*
X044998Y010062D01*
X045010Y010085D01*
X045024Y010107D01*
X045042Y010126D01*
X045061Y010144D01*
X045083Y010158D01*
X045106Y010170D01*
X045131Y010178D01*
X045157Y010183D01*
X045183Y010185D01*
X046483Y010185D01*
X046509Y010183D01*
X046535Y010178D01*
X046560Y010170D01*
X046583Y010158D01*
X046605Y010144D01*
X046624Y010126D01*
X046642Y010107D01*
X046656Y010085D01*
X046668Y010062D01*
X046676Y010037D01*
X046681Y010011D01*
X046683Y009985D01*
X046333Y009735D02*
X045963Y009735D01*
X045713Y009735D02*
X045333Y009735D01*
X044983Y009485D02*
X044985Y009459D01*
X044990Y009433D01*
X044998Y009408D01*
X045010Y009385D01*
X045024Y009363D01*
X045042Y009344D01*
X045061Y009326D01*
X045083Y009312D01*
X045106Y009300D01*
X045131Y009292D01*
X045157Y009287D01*
X045183Y009285D01*
X046483Y009285D01*
X046509Y009287D01*
X046535Y009292D01*
X046560Y009300D01*
X046583Y009312D01*
X046605Y009326D01*
X046624Y009344D01*
X046642Y009363D01*
X046656Y009385D01*
X046668Y009408D01*
X046676Y009433D01*
X046681Y009459D01*
X046683Y009485D01*
X047433Y010485D02*
X045183Y010485D01*
X045183Y026485D01*
X050483Y026485D01*
X050483Y010485D01*
X048233Y010485D01*
X048231Y010524D01*
X048225Y010563D01*
X048216Y010601D01*
X048203Y010638D01*
X048186Y010674D01*
X048166Y010707D01*
X048142Y010739D01*
X048116Y010768D01*
X048087Y010794D01*
X048055Y010818D01*
X048022Y010838D01*
X047986Y010855D01*
X047949Y010868D01*
X047911Y010877D01*
X047872Y010883D01*
X047833Y010885D01*
X047794Y010883D01*
X047755Y010877D01*
X047717Y010868D01*
X047680Y010855D01*
X047644Y010838D01*
X047611Y010818D01*
X047579Y010794D01*
X047550Y010768D01*
X047524Y010739D01*
X047500Y010707D01*
X047480Y010674D01*
X047463Y010638D01*
X047450Y010601D01*
X047441Y010563D01*
X047435Y010524D01*
X047433Y010485D01*
X048755Y010296D02*
X048961Y010296D01*
X048858Y010296D02*
X048858Y009675D01*
X048755Y009675D02*
X048961Y009675D01*
X049184Y009778D02*
X049288Y009675D01*
X049494Y009675D01*
X049598Y009778D01*
X049829Y009778D02*
X049829Y009675D01*
X049829Y009778D02*
X050242Y010192D01*
X050242Y010296D01*
X049829Y010296D01*
X049598Y010192D02*
X049494Y010296D01*
X049288Y010296D01*
X049184Y010192D01*
X049184Y009778D01*
X048143Y011875D02*
X047730Y011875D01*
X047523Y012082D01*
X047730Y012289D01*
X048143Y012289D01*
X048143Y012520D02*
X047523Y012520D01*
X047730Y012726D01*
X047523Y012933D01*
X048143Y012933D01*
X048143Y013164D02*
X047730Y013578D01*
X047626Y013578D01*
X047523Y013474D01*
X047523Y013268D01*
X047626Y013164D01*
X048143Y013164D02*
X048143Y013578D01*
X048040Y013809D02*
X048143Y013912D01*
X048143Y014119D01*
X048040Y014222D01*
X047626Y014222D01*
X047523Y014119D01*
X047523Y013912D01*
X047626Y013809D01*
X047730Y013809D01*
X047833Y013912D01*
X047833Y014222D01*
X047833Y014453D02*
X047833Y014660D01*
X047523Y014453D02*
X047523Y014867D01*
X047626Y015098D02*
X047523Y015201D01*
X047523Y015408D01*
X047626Y015511D01*
X048040Y015098D01*
X048143Y015201D01*
X048143Y015408D01*
X048040Y015511D01*
X047626Y015511D01*
X047730Y015742D02*
X047523Y015949D01*
X048143Y015949D01*
X048143Y015742D02*
X048143Y016156D01*
X048040Y016387D02*
X047626Y016801D01*
X048040Y016801D01*
X048143Y016697D01*
X048143Y016490D01*
X048040Y016387D01*
X047626Y016387D01*
X047523Y016490D01*
X047523Y016697D01*
X047626Y016801D01*
X047626Y015098D02*
X048040Y015098D01*
X048143Y014453D02*
X047523Y014453D01*
X047833Y012289D02*
X047833Y011875D01*
X060533Y011110D02*
X060683Y011110D01*
X060683Y011260D01*
X060683Y011110D02*
X060833Y011110D01*
X060683Y011110D02*
X060683Y010960D01*
X060233Y010610D02*
X060235Y010676D01*
X060241Y010741D01*
X060251Y010806D01*
X060264Y010871D01*
X060282Y010934D01*
X060303Y010997D01*
X060328Y011057D01*
X060357Y011117D01*
X060389Y011174D01*
X060424Y011230D01*
X060463Y011283D01*
X060505Y011334D01*
X060549Y011382D01*
X060597Y011427D01*
X060647Y011470D01*
X060700Y011509D01*
X060755Y011546D01*
X060812Y011579D01*
X060871Y011608D01*
X060931Y011634D01*
X060993Y011656D01*
X061056Y011675D01*
X061120Y011689D01*
X061185Y011700D01*
X061251Y011707D01*
X061317Y011710D01*
X061382Y011709D01*
X061448Y011704D01*
X061513Y011695D01*
X061578Y011682D01*
X061641Y011666D01*
X061704Y011646D01*
X061765Y011621D01*
X061825Y011594D01*
X061883Y011563D01*
X061939Y011528D01*
X061993Y011490D01*
X062044Y011449D01*
X062093Y011405D01*
X062139Y011358D01*
X062183Y011309D01*
X062223Y011257D01*
X062260Y011202D01*
X062294Y011146D01*
X062324Y011087D01*
X062351Y011027D01*
X062374Y010966D01*
X062393Y010903D01*
X062409Y010839D01*
X062421Y010774D01*
X062429Y010709D01*
X062433Y010643D01*
X062433Y010577D01*
X062429Y010511D01*
X062421Y010446D01*
X062409Y010381D01*
X062393Y010317D01*
X062374Y010254D01*
X062351Y010193D01*
X062324Y010133D01*
X062294Y010074D01*
X062260Y010018D01*
X062223Y009963D01*
X062183Y009911D01*
X062139Y009862D01*
X062093Y009815D01*
X062044Y009771D01*
X061993Y009730D01*
X061939Y009692D01*
X061883Y009657D01*
X061825Y009626D01*
X061765Y009599D01*
X061704Y009574D01*
X061641Y009554D01*
X061578Y009538D01*
X061513Y009525D01*
X061448Y009516D01*
X061382Y009511D01*
X061317Y009510D01*
X061251Y009513D01*
X061185Y009520D01*
X061120Y009531D01*
X061056Y009545D01*
X060993Y009564D01*
X060931Y009586D01*
X060871Y009612D01*
X060812Y009641D01*
X060755Y009674D01*
X060700Y009711D01*
X060647Y009750D01*
X060597Y009793D01*
X060549Y009838D01*
X060505Y009886D01*
X060463Y009937D01*
X060424Y009990D01*
X060389Y010046D01*
X060357Y010103D01*
X060328Y010163D01*
X060303Y010223D01*
X060282Y010286D01*
X060264Y010349D01*
X060251Y010414D01*
X060241Y010479D01*
X060235Y010544D01*
X060233Y010610D01*
X062423Y009880D02*
X062563Y010020D01*
X062563Y009600D01*
X062423Y009600D02*
X062704Y009600D01*
X062884Y009670D02*
X063164Y009950D01*
X063164Y009670D01*
X063094Y009600D01*
X062954Y009600D01*
X062884Y009670D01*
X062884Y009950D01*
X062954Y010020D01*
X063094Y010020D01*
X063164Y009950D01*
X063344Y009880D02*
X063344Y009670D01*
X063414Y009600D01*
X063624Y009600D01*
X063624Y009880D01*
X060233Y026035D02*
X058933Y026035D01*
X058907Y026037D01*
X058881Y026042D01*
X058856Y026050D01*
X058833Y026062D01*
X058811Y026076D01*
X058792Y026094D01*
X058774Y026113D01*
X058760Y026135D01*
X058748Y026158D01*
X058740Y026183D01*
X058735Y026209D01*
X058733Y026235D01*
X059083Y026485D02*
X059453Y026485D01*
X059703Y026485D02*
X060083Y026485D01*
X060433Y026235D02*
X060431Y026209D01*
X060426Y026183D01*
X060418Y026158D01*
X060406Y026135D01*
X060392Y026113D01*
X060374Y026094D01*
X060355Y026076D01*
X060333Y026062D01*
X060310Y026050D01*
X060285Y026042D01*
X060259Y026037D01*
X060233Y026035D01*
X060433Y026735D02*
X060431Y026761D01*
X060426Y026787D01*
X060418Y026812D01*
X060406Y026835D01*
X060392Y026857D01*
X060374Y026876D01*
X060355Y026894D01*
X060333Y026908D01*
X060310Y026920D01*
X060285Y026928D01*
X060259Y026933D01*
X060233Y026935D01*
X058933Y026935D01*
X058907Y026933D01*
X058881Y026928D01*
X058856Y026920D01*
X058833Y026908D01*
X058811Y026894D01*
X058792Y026876D01*
X058774Y026857D01*
X058760Y026835D01*
X058748Y026812D01*
X058740Y026787D01*
X058735Y026761D01*
X058733Y026735D01*
X058762Y029150D02*
X058692Y029220D01*
X058762Y029150D02*
X058902Y029150D01*
X058972Y029220D01*
X058972Y029290D01*
X058902Y029360D01*
X058832Y029360D01*
X058902Y029360D02*
X058972Y029430D01*
X058972Y029500D01*
X058902Y029570D01*
X058762Y029570D01*
X058692Y029500D01*
X058372Y029570D02*
X058372Y029150D01*
X058232Y029150D02*
X058512Y029150D01*
X058232Y029430D02*
X058372Y029570D01*
X058052Y029500D02*
X057982Y029570D01*
X057841Y029570D01*
X057771Y029500D01*
X057771Y029430D01*
X057841Y029360D01*
X057982Y029360D01*
X058052Y029290D01*
X058052Y029220D01*
X057982Y029150D01*
X057841Y029150D01*
X057771Y029220D01*
X057591Y029150D02*
X057311Y029150D01*
X057311Y029570D01*
X057061Y029570D02*
X056851Y029360D01*
X057131Y029360D01*
X057061Y029150D02*
X057061Y029570D01*
X056670Y029570D02*
X056670Y029500D01*
X056390Y029220D01*
X056390Y029150D01*
X056390Y029570D02*
X056670Y029570D01*
X059153Y029500D02*
X059153Y029430D01*
X059223Y029360D01*
X059433Y029360D01*
X059433Y029220D02*
X059433Y029500D01*
X059363Y029570D01*
X059223Y029570D01*
X059153Y029500D01*
X059153Y029220D02*
X059223Y029150D01*
X059363Y029150D01*
X059433Y029220D01*
X059613Y029150D02*
X059613Y029570D01*
X059893Y029150D01*
X059893Y029570D01*
X061083Y029760D02*
X061083Y030510D01*
X053083Y030510D01*
X053083Y028210D01*
X061083Y028210D01*
X061083Y028960D01*
X061044Y028962D01*
X061005Y028968D01*
X060967Y028977D01*
X060930Y028990D01*
X060894Y029007D01*
X060861Y029027D01*
X060829Y029051D01*
X060800Y029077D01*
X060774Y029106D01*
X060750Y029138D01*
X060730Y029171D01*
X060713Y029207D01*
X060700Y029244D01*
X060691Y029282D01*
X060685Y029321D01*
X060683Y029360D01*
X060685Y029399D01*
X060691Y029438D01*
X060700Y029476D01*
X060713Y029513D01*
X060730Y029549D01*
X060750Y029582D01*
X060774Y029614D01*
X060800Y029643D01*
X060829Y029669D01*
X060861Y029693D01*
X060894Y029713D01*
X060930Y029730D01*
X060967Y029743D01*
X061005Y029752D01*
X061044Y029758D01*
X061083Y029760D01*
X061273Y029699D02*
X061343Y029629D01*
X061623Y029629D01*
X061693Y029699D01*
X061693Y029839D01*
X061623Y029909D01*
X061623Y030090D02*
X061553Y030090D01*
X061483Y030160D01*
X061483Y030300D01*
X061553Y030370D01*
X061623Y030370D01*
X061693Y030300D01*
X061693Y030160D01*
X061623Y030090D01*
X061483Y030160D02*
X061413Y030090D01*
X061343Y030090D01*
X061273Y030160D01*
X061273Y030300D01*
X061343Y030370D01*
X061413Y030370D01*
X061483Y030300D01*
X061343Y029909D02*
X061273Y029839D01*
X061273Y029699D01*
X061273Y029462D02*
X061273Y029322D01*
X061273Y029392D02*
X061693Y029392D01*
X061693Y029322D02*
X061693Y029462D01*
X061758Y032610D02*
X062158Y032610D01*
X062184Y032612D01*
X062210Y032617D01*
X062235Y032625D01*
X062258Y032637D01*
X062280Y032651D01*
X062299Y032669D01*
X062317Y032688D01*
X062331Y032710D01*
X062343Y032733D01*
X062351Y032758D01*
X062356Y032784D01*
X062358Y032810D01*
X062358Y041410D01*
X062308Y041460D02*
X062308Y040760D01*
X061608Y040760D01*
X061608Y041460D01*
X062308Y041460D01*
X062358Y041410D02*
X062356Y041436D01*
X062351Y041462D01*
X062343Y041487D01*
X062331Y041510D01*
X062317Y041532D01*
X062299Y041551D01*
X062280Y041569D01*
X062258Y041583D01*
X062235Y041595D01*
X062210Y041603D01*
X062184Y041608D01*
X062158Y041610D01*
X061758Y041610D01*
X061732Y041608D01*
X061706Y041603D01*
X061681Y041595D01*
X061658Y041583D01*
X061636Y041569D01*
X061617Y041551D01*
X061599Y041532D01*
X061585Y041510D01*
X061573Y041487D01*
X061565Y041462D01*
X061560Y041436D01*
X061558Y041410D01*
X061558Y032810D01*
X061560Y032784D01*
X061565Y032758D01*
X061573Y032733D01*
X061585Y032710D01*
X061599Y032688D01*
X061617Y032669D01*
X061636Y032651D01*
X061658Y032637D01*
X061681Y032625D01*
X061706Y032617D01*
X061732Y032612D01*
X061758Y032610D01*
X059483Y032610D02*
X057183Y032610D01*
X057183Y042610D01*
X057933Y042610D01*
X057935Y042571D01*
X057941Y042532D01*
X057950Y042494D01*
X057963Y042457D01*
X057980Y042421D01*
X058000Y042388D01*
X058024Y042356D01*
X058050Y042327D01*
X058079Y042301D01*
X058111Y042277D01*
X058144Y042257D01*
X058180Y042240D01*
X058217Y042227D01*
X058255Y042218D01*
X058294Y042212D01*
X058333Y042210D01*
X058372Y042212D01*
X058411Y042218D01*
X058449Y042227D01*
X058486Y042240D01*
X058522Y042257D01*
X058555Y042277D01*
X058587Y042301D01*
X058616Y042327D01*
X058642Y042356D01*
X058666Y042388D01*
X058686Y042421D01*
X058703Y042457D01*
X058716Y042494D01*
X058725Y042532D01*
X058731Y042571D01*
X058733Y042610D01*
X059483Y042610D01*
X059483Y032610D01*
X054108Y032610D02*
X051808Y032610D01*
X051808Y039610D01*
X052558Y039610D01*
X052566Y039800D02*
X052846Y040080D01*
X052846Y040150D01*
X052776Y040220D01*
X052636Y040220D01*
X052566Y040150D01*
X052385Y040150D02*
X052315Y040220D01*
X052175Y040220D01*
X052105Y040150D01*
X052105Y039870D01*
X052175Y039800D01*
X052315Y039800D01*
X052385Y039870D01*
X052566Y039800D02*
X052846Y039800D01*
X052558Y039610D02*
X052560Y039571D01*
X052566Y039532D01*
X052575Y039494D01*
X052588Y039457D01*
X052605Y039421D01*
X052625Y039388D01*
X052649Y039356D01*
X052675Y039327D01*
X052704Y039301D01*
X052736Y039277D01*
X052769Y039257D01*
X052805Y039240D01*
X052842Y039227D01*
X052880Y039218D01*
X052919Y039212D01*
X052958Y039210D01*
X052997Y039212D01*
X053036Y039218D01*
X053074Y039227D01*
X053111Y039240D01*
X053147Y039257D01*
X053180Y039277D01*
X053212Y039301D01*
X053241Y039327D01*
X053267Y039356D01*
X053291Y039388D01*
X053311Y039421D01*
X053328Y039457D01*
X053341Y039494D01*
X053350Y039532D01*
X053356Y039571D01*
X053358Y039610D01*
X054108Y039610D01*
X054108Y032610D01*
X053168Y035577D02*
X053098Y035577D01*
X052818Y035857D01*
X052748Y035857D01*
X052748Y035577D01*
X052958Y036038D02*
X052958Y036318D01*
X052748Y036248D02*
X052958Y036038D01*
X053168Y036248D02*
X052748Y036248D01*
X052748Y036498D02*
X053168Y036498D01*
X053168Y036778D01*
X053098Y036958D02*
X053168Y037028D01*
X053168Y037169D01*
X053098Y037239D01*
X053028Y037239D01*
X052958Y037169D01*
X052958Y037028D01*
X052888Y036958D01*
X052818Y036958D01*
X052748Y037028D01*
X052748Y037169D01*
X052818Y037239D01*
X052818Y037419D02*
X052748Y037489D01*
X052748Y037629D01*
X052818Y037699D01*
X053098Y037419D01*
X053168Y037489D01*
X053168Y037629D01*
X053098Y037699D01*
X052818Y037699D01*
X052958Y037879D02*
X052958Y038159D01*
X052748Y038089D02*
X052958Y037879D01*
X053168Y038089D02*
X052748Y038089D01*
X052748Y038340D02*
X053168Y038620D01*
X052748Y038620D01*
X052748Y038340D02*
X053168Y038340D01*
X053098Y037419D02*
X052818Y037419D01*
X051938Y039800D02*
X051798Y039800D01*
X051868Y039800D02*
X051868Y040220D01*
X051798Y040220D02*
X051938Y040220D01*
X054008Y040460D02*
X054008Y041760D01*
X054010Y041786D01*
X054015Y041812D01*
X054023Y041837D01*
X054035Y041860D01*
X054049Y041882D01*
X054067Y041901D01*
X054086Y041919D01*
X054108Y041933D01*
X054131Y041945D01*
X054156Y041953D01*
X054182Y041958D01*
X054208Y041960D01*
X054458Y041610D02*
X054458Y041240D01*
X054458Y040990D02*
X054458Y040610D01*
X054208Y040260D02*
X054182Y040262D01*
X054156Y040267D01*
X054131Y040275D01*
X054108Y040287D01*
X054086Y040301D01*
X054067Y040319D01*
X054049Y040338D01*
X054035Y040360D01*
X054023Y040383D01*
X054015Y040408D01*
X054010Y040434D01*
X054008Y040460D01*
X054708Y040260D02*
X054734Y040262D01*
X054760Y040267D01*
X054785Y040275D01*
X054808Y040287D01*
X054830Y040301D01*
X054849Y040319D01*
X054867Y040338D01*
X054881Y040360D01*
X054893Y040383D01*
X054901Y040408D01*
X054906Y040434D01*
X054908Y040460D01*
X054908Y041760D01*
X054906Y041786D01*
X054901Y041812D01*
X054893Y041837D01*
X054881Y041860D01*
X054867Y041882D01*
X054849Y041901D01*
X054830Y041919D01*
X054808Y041933D01*
X054785Y041945D01*
X054760Y041953D01*
X054734Y041958D01*
X054708Y041960D01*
X056423Y042800D02*
X056563Y042800D01*
X056493Y042800D02*
X056493Y043220D01*
X056423Y043220D02*
X056563Y043220D01*
X056730Y043150D02*
X056730Y042870D01*
X056800Y042800D01*
X056940Y042800D01*
X057010Y042870D01*
X057191Y042800D02*
X057471Y042800D01*
X057331Y042800D02*
X057331Y043220D01*
X057191Y043080D01*
X057010Y043150D02*
X056940Y043220D01*
X056800Y043220D01*
X056730Y043150D01*
X057983Y043235D02*
X057985Y043209D01*
X057990Y043183D01*
X057998Y043158D01*
X058010Y043135D01*
X058024Y043113D01*
X058042Y043094D01*
X058061Y043076D01*
X058083Y043062D01*
X058106Y043050D01*
X058131Y043042D01*
X058157Y043037D01*
X058183Y043035D01*
X059483Y043035D01*
X059509Y043037D01*
X059535Y043042D01*
X059560Y043050D01*
X059583Y043062D01*
X059605Y043076D01*
X059624Y043094D01*
X059642Y043113D01*
X059656Y043135D01*
X059668Y043158D01*
X059676Y043183D01*
X059681Y043209D01*
X059683Y043235D01*
X059333Y043485D02*
X058953Y043485D01*
X058703Y043485D02*
X058333Y043485D01*
X057983Y043735D02*
X057985Y043761D01*
X057990Y043787D01*
X057998Y043812D01*
X058010Y043835D01*
X058024Y043857D01*
X058042Y043876D01*
X058061Y043894D01*
X058083Y043908D01*
X058106Y043920D01*
X058131Y043928D01*
X058157Y043933D01*
X058183Y043935D01*
X059483Y043935D01*
X059509Y043933D01*
X059535Y043928D01*
X059560Y043920D01*
X059583Y043908D01*
X059605Y043894D01*
X059624Y043876D01*
X059642Y043857D01*
X059656Y043835D01*
X059668Y043812D01*
X059676Y043787D01*
X059681Y043761D01*
X059683Y043735D01*
X061748Y042899D02*
X061748Y042619D01*
X061888Y042446D02*
X062028Y042235D01*
X062168Y042446D01*
X062168Y042619D02*
X062098Y042619D01*
X061818Y042899D01*
X061748Y042899D01*
X061748Y042235D02*
X062168Y042235D01*
X062168Y041985D02*
X061748Y041985D01*
X061958Y041775D01*
X061958Y042055D01*
X058643Y041320D02*
X058223Y041040D01*
X058643Y041040D01*
X058573Y040859D02*
X058643Y040789D01*
X058643Y040649D01*
X058573Y040579D01*
X058433Y040579D02*
X058363Y040719D01*
X058363Y040789D01*
X058433Y040859D01*
X058573Y040859D01*
X058433Y040579D02*
X058223Y040579D01*
X058223Y040859D01*
X058223Y041320D02*
X058643Y041320D01*
X058433Y040399D02*
X058433Y040119D01*
X058223Y040329D01*
X058643Y040329D01*
X058643Y039939D02*
X058643Y039658D01*
X058363Y039939D01*
X058293Y039939D01*
X058223Y039869D01*
X058223Y039728D01*
X058293Y039658D01*
X058293Y039478D02*
X058223Y039408D01*
X058223Y039268D01*
X058293Y039198D01*
X058363Y039198D01*
X058433Y039268D01*
X058433Y039408D01*
X058503Y039478D01*
X058573Y039478D01*
X058643Y039408D01*
X058643Y039268D01*
X058573Y039198D01*
X058643Y039018D02*
X058643Y038738D01*
X058223Y038738D01*
X058223Y038487D02*
X058433Y038277D01*
X058433Y038557D01*
X058643Y038487D02*
X058223Y038487D01*
X058223Y038097D02*
X058293Y038097D01*
X058573Y037817D01*
X058643Y037817D01*
X058223Y037817D02*
X058223Y038097D01*
X049533Y040460D02*
X049533Y041760D01*
X049531Y041786D01*
X049526Y041812D01*
X049518Y041837D01*
X049506Y041860D01*
X049492Y041882D01*
X049474Y041901D01*
X049455Y041919D01*
X049433Y041933D01*
X049410Y041945D01*
X049385Y041953D01*
X049359Y041958D01*
X049333Y041960D01*
X049083Y041610D02*
X049083Y041240D01*
X049083Y040990D02*
X049083Y040610D01*
X048833Y040260D02*
X048807Y040262D01*
X048781Y040267D01*
X048756Y040275D01*
X048733Y040287D01*
X048711Y040301D01*
X048692Y040319D01*
X048674Y040338D01*
X048660Y040360D01*
X048648Y040383D01*
X048640Y040408D01*
X048635Y040434D01*
X048633Y040460D01*
X048633Y041760D01*
X048635Y041786D01*
X048640Y041812D01*
X048648Y041837D01*
X048660Y041860D01*
X048674Y041882D01*
X048692Y041901D01*
X048711Y041919D01*
X048733Y041933D01*
X048756Y041945D01*
X048781Y041953D01*
X048807Y041958D01*
X048833Y041960D01*
X049533Y040460D02*
X049531Y040434D01*
X049526Y040408D01*
X049518Y040383D01*
X049506Y040360D01*
X049492Y040338D01*
X049474Y040319D01*
X049455Y040301D01*
X049433Y040287D01*
X049410Y040275D01*
X049385Y040267D01*
X049359Y040262D01*
X049333Y040260D01*
X048733Y039610D02*
X047983Y039610D01*
X047981Y039571D01*
X047975Y039532D01*
X047966Y039494D01*
X047953Y039457D01*
X047936Y039421D01*
X047916Y039388D01*
X047892Y039356D01*
X047866Y039327D01*
X047837Y039301D01*
X047805Y039277D01*
X047772Y039257D01*
X047736Y039240D01*
X047699Y039227D01*
X047661Y039218D01*
X047622Y039212D01*
X047583Y039210D01*
X047544Y039212D01*
X047505Y039218D01*
X047467Y039227D01*
X047430Y039240D01*
X047394Y039257D01*
X047361Y039277D01*
X047329Y039301D01*
X047300Y039327D01*
X047274Y039356D01*
X047250Y039388D01*
X047230Y039421D01*
X047213Y039457D01*
X047200Y039494D01*
X047191Y039532D01*
X047185Y039571D01*
X047183Y039610D01*
X046433Y039610D01*
X046433Y032610D01*
X048733Y032610D01*
X048733Y039610D01*
X047471Y039870D02*
X047471Y040150D01*
X047401Y040220D01*
X047261Y040220D01*
X047191Y040150D01*
X047191Y040080D01*
X047261Y040010D01*
X047471Y040010D01*
X047471Y039870D02*
X047401Y039800D01*
X047261Y039800D01*
X047191Y039870D01*
X047010Y039870D02*
X046940Y039800D01*
X046800Y039800D01*
X046730Y039870D01*
X046730Y040150D01*
X046800Y040220D01*
X046940Y040220D01*
X047010Y040150D01*
X046563Y040220D02*
X046423Y040220D01*
X046493Y040220D02*
X046493Y039800D01*
X046423Y039800D02*
X046563Y039800D01*
X047373Y038620D02*
X047793Y038620D01*
X047373Y038340D01*
X047793Y038340D01*
X047723Y038159D02*
X047793Y038089D01*
X047793Y037949D01*
X047723Y037879D01*
X047653Y037879D01*
X047583Y037949D01*
X047583Y038089D01*
X047653Y038159D01*
X047723Y038159D01*
X047583Y038089D02*
X047513Y038159D01*
X047443Y038159D01*
X047373Y038089D01*
X047373Y037949D01*
X047443Y037879D01*
X047513Y037879D01*
X047583Y037949D01*
X047443Y037699D02*
X047723Y037419D01*
X047793Y037489D01*
X047793Y037629D01*
X047723Y037699D01*
X047443Y037699D01*
X047373Y037629D01*
X047373Y037489D01*
X047443Y037419D01*
X047723Y037419D01*
X047723Y037239D02*
X047793Y037169D01*
X047793Y037028D01*
X047723Y036958D01*
X047583Y037028D02*
X047583Y037169D01*
X047653Y037239D01*
X047723Y037239D01*
X047583Y037028D02*
X047513Y036958D01*
X047443Y036958D01*
X047373Y037028D01*
X047373Y037169D01*
X047443Y037239D01*
X047793Y036778D02*
X047793Y036498D01*
X047373Y036498D01*
X047373Y036248D02*
X047583Y036038D01*
X047583Y036318D01*
X047793Y036248D02*
X047373Y036248D01*
X047373Y035857D02*
X047443Y035857D01*
X047723Y035577D01*
X047793Y035577D01*
X047373Y035577D02*
X047373Y035857D01*
X049958Y030510D02*
X041958Y030510D01*
X041958Y028210D01*
X049958Y028210D01*
X049958Y028960D01*
X049919Y028962D01*
X049880Y028968D01*
X049842Y028977D01*
X049805Y028990D01*
X049769Y029007D01*
X049736Y029027D01*
X049704Y029051D01*
X049675Y029077D01*
X049649Y029106D01*
X049625Y029138D01*
X049605Y029171D01*
X049588Y029207D01*
X049575Y029244D01*
X049566Y029282D01*
X049560Y029321D01*
X049558Y029360D01*
X049560Y029399D01*
X049566Y029438D01*
X049575Y029476D01*
X049588Y029513D01*
X049605Y029549D01*
X049625Y029582D01*
X049649Y029614D01*
X049675Y029643D01*
X049704Y029669D01*
X049736Y029693D01*
X049769Y029713D01*
X049805Y029730D01*
X049842Y029743D01*
X049880Y029752D01*
X049919Y029758D01*
X049958Y029760D01*
X049958Y030510D01*
X050258Y029510D02*
X050258Y028210D01*
X050260Y028184D01*
X050265Y028158D01*
X050273Y028133D01*
X050285Y028110D01*
X050299Y028088D01*
X050317Y028069D01*
X050336Y028051D01*
X050358Y028037D01*
X050381Y028025D01*
X050406Y028017D01*
X050432Y028012D01*
X050458Y028010D01*
X050708Y028360D02*
X050708Y028740D01*
X050708Y028990D02*
X050708Y029360D01*
X050458Y029710D02*
X050432Y029708D01*
X050406Y029703D01*
X050381Y029695D01*
X050358Y029683D01*
X050336Y029669D01*
X050317Y029651D01*
X050299Y029632D01*
X050285Y029610D01*
X050273Y029587D01*
X050265Y029562D01*
X050260Y029536D01*
X050258Y029510D01*
X050958Y029710D02*
X050984Y029708D01*
X051010Y029703D01*
X051035Y029695D01*
X051058Y029683D01*
X051080Y029669D01*
X051099Y029651D01*
X051117Y029632D01*
X051131Y029610D01*
X051143Y029587D01*
X051151Y029562D01*
X051156Y029536D01*
X051158Y029510D01*
X051158Y028210D01*
X051156Y028184D01*
X051151Y028158D01*
X051143Y028133D01*
X051131Y028110D01*
X051117Y028088D01*
X051099Y028069D01*
X051080Y028051D01*
X051058Y028037D01*
X051035Y028025D01*
X051010Y028017D01*
X050984Y028012D01*
X050958Y028010D01*
X048768Y029150D02*
X048768Y029570D01*
X048488Y029570D02*
X048768Y029150D01*
X048488Y029150D02*
X048488Y029570D01*
X048308Y029500D02*
X048308Y029430D01*
X048238Y029360D01*
X048098Y029360D01*
X048028Y029430D01*
X048028Y029500D01*
X048098Y029570D01*
X048238Y029570D01*
X048308Y029500D01*
X048238Y029360D02*
X048308Y029290D01*
X048308Y029220D01*
X048238Y029150D01*
X048098Y029150D01*
X048028Y029220D01*
X048028Y029290D01*
X048098Y029360D01*
X047847Y029290D02*
X047847Y029220D01*
X047777Y029150D01*
X047637Y029150D01*
X047567Y029220D01*
X047387Y029150D02*
X047107Y029150D01*
X047247Y029150D02*
X047247Y029570D01*
X047107Y029430D01*
X046927Y029500D02*
X046857Y029570D01*
X046716Y029570D01*
X046646Y029500D01*
X046646Y029430D01*
X046716Y029360D01*
X046857Y029360D01*
X046927Y029290D01*
X046927Y029220D01*
X046857Y029150D01*
X046716Y029150D01*
X046646Y029220D01*
X046466Y029150D02*
X046186Y029150D01*
X046186Y029570D01*
X045936Y029570D02*
X045936Y029150D01*
X046006Y029360D02*
X045726Y029360D01*
X045936Y029570D01*
X045545Y029570D02*
X045545Y029500D01*
X045265Y029220D01*
X045265Y029150D01*
X045265Y029570D02*
X045545Y029570D01*
X047567Y029500D02*
X047637Y029570D01*
X047777Y029570D01*
X047847Y029500D01*
X047847Y029430D01*
X047777Y029360D01*
X047847Y029290D01*
X047777Y029360D02*
X047707Y029360D01*
X041768Y029377D02*
X041768Y029517D01*
X041698Y029587D01*
X041768Y029767D02*
X041768Y030048D01*
X041768Y029907D02*
X041348Y029907D01*
X041488Y029767D01*
X041418Y029587D02*
X041348Y029517D01*
X041348Y029377D01*
X041418Y029307D01*
X041698Y029307D01*
X041768Y029377D01*
X041768Y029140D02*
X041768Y029000D01*
X041768Y029070D02*
X041348Y029070D01*
X041348Y029000D02*
X041348Y029140D01*
X041418Y030228D02*
X041348Y030298D01*
X041348Y030438D01*
X041418Y030508D01*
X041698Y030228D01*
X041768Y030298D01*
X041768Y030438D01*
X041698Y030508D01*
X041418Y030508D01*
X041418Y030228D02*
X041698Y030228D01*
X039483Y028110D02*
X037233Y028110D01*
X037231Y028149D01*
X037225Y028188D01*
X037216Y028226D01*
X037203Y028263D01*
X037186Y028299D01*
X037166Y028332D01*
X037142Y028364D01*
X037116Y028393D01*
X037087Y028419D01*
X037055Y028443D01*
X037022Y028463D01*
X036986Y028480D01*
X036949Y028493D01*
X036911Y028502D01*
X036872Y028508D01*
X036833Y028510D01*
X036794Y028508D01*
X036755Y028502D01*
X036717Y028493D01*
X036680Y028480D01*
X036644Y028463D01*
X036611Y028443D01*
X036579Y028419D01*
X036550Y028393D01*
X036524Y028364D01*
X036500Y028332D01*
X036480Y028299D01*
X036463Y028263D01*
X036450Y028226D01*
X036441Y028188D01*
X036435Y028149D01*
X036433Y028110D01*
X034183Y028110D01*
X034183Y044110D01*
X039483Y044110D01*
X039483Y028110D01*
X039242Y027817D02*
X039242Y027714D01*
X039139Y027610D01*
X039242Y027507D01*
X039242Y027403D01*
X039139Y027300D01*
X038932Y027300D01*
X038829Y027403D01*
X038598Y027403D02*
X038494Y027300D01*
X038288Y027300D01*
X038184Y027403D01*
X038184Y027817D01*
X038288Y027921D01*
X038494Y027921D01*
X038598Y027817D01*
X038829Y027817D02*
X038932Y027921D01*
X039139Y027921D01*
X039242Y027817D01*
X039139Y027610D02*
X039036Y027610D01*
X037961Y027300D02*
X037755Y027300D01*
X037858Y027300D02*
X037858Y027921D01*
X037755Y027921D02*
X037961Y027921D01*
X037040Y029500D02*
X036833Y029500D01*
X036833Y029810D01*
X036936Y029914D01*
X037040Y029914D01*
X037143Y029810D01*
X037143Y029603D01*
X037040Y029500D01*
X036833Y029500D02*
X036626Y029707D01*
X036523Y029914D01*
X036626Y030145D02*
X036523Y030248D01*
X036523Y030455D01*
X036626Y030558D01*
X036730Y030558D01*
X037143Y030145D01*
X037143Y030558D01*
X037040Y030789D02*
X036936Y030789D01*
X036833Y030893D01*
X036833Y031099D01*
X036936Y031203D01*
X037040Y031203D01*
X037143Y031099D01*
X037143Y030893D01*
X037040Y030789D01*
X036833Y030893D02*
X036730Y030789D01*
X036626Y030789D01*
X036523Y030893D01*
X036523Y031099D01*
X036626Y031203D01*
X036730Y031203D01*
X036833Y031099D01*
X036833Y031434D02*
X036730Y031640D01*
X036730Y031744D01*
X036833Y031847D01*
X037040Y031847D01*
X037143Y031744D01*
X037143Y031537D01*
X037040Y031434D01*
X036833Y031434D02*
X036523Y031434D01*
X036523Y031847D01*
X036730Y032078D02*
X036523Y032285D01*
X037143Y032285D01*
X037143Y032078D02*
X037143Y032492D01*
X037143Y032723D02*
X036730Y033136D01*
X036626Y033136D01*
X036523Y033033D01*
X036523Y032826D01*
X036626Y032723D01*
X037143Y032723D02*
X037143Y033136D01*
X035483Y028060D02*
X034183Y028060D01*
X034157Y028058D01*
X034131Y028053D01*
X034106Y028045D01*
X034083Y028033D01*
X034061Y028019D01*
X034042Y028001D01*
X034024Y027982D01*
X034010Y027960D01*
X033998Y027937D01*
X033990Y027912D01*
X033985Y027886D01*
X033983Y027860D01*
X034333Y027610D02*
X034713Y027610D01*
X034963Y027610D02*
X035333Y027610D01*
X035683Y027860D02*
X035681Y027886D01*
X035676Y027912D01*
X035668Y027937D01*
X035656Y027960D01*
X035642Y027982D01*
X035624Y028001D01*
X035605Y028019D01*
X035583Y028033D01*
X035560Y028045D01*
X035535Y028053D01*
X035509Y028058D01*
X035483Y028060D01*
X035683Y027360D02*
X035681Y027334D01*
X035676Y027308D01*
X035668Y027283D01*
X035656Y027260D01*
X035642Y027238D01*
X035624Y027219D01*
X035605Y027201D01*
X035583Y027187D01*
X035560Y027175D01*
X035535Y027167D01*
X035509Y027162D01*
X035483Y027160D01*
X034183Y027160D01*
X034157Y027162D01*
X034131Y027167D01*
X034106Y027175D01*
X034083Y027187D01*
X034061Y027201D01*
X034042Y027219D01*
X034024Y027238D01*
X034010Y027260D01*
X033998Y027283D01*
X033990Y027308D01*
X033985Y027334D01*
X033983Y027360D01*
X030983Y028110D02*
X028733Y028110D01*
X028731Y028149D01*
X028725Y028188D01*
X028716Y028226D01*
X028703Y028263D01*
X028686Y028299D01*
X028666Y028332D01*
X028642Y028364D01*
X028616Y028393D01*
X028587Y028419D01*
X028555Y028443D01*
X028522Y028463D01*
X028486Y028480D01*
X028449Y028493D01*
X028411Y028502D01*
X028372Y028508D01*
X028333Y028510D01*
X028294Y028508D01*
X028255Y028502D01*
X028217Y028493D01*
X028180Y028480D01*
X028144Y028463D01*
X028111Y028443D01*
X028079Y028419D01*
X028050Y028393D01*
X028024Y028364D01*
X028000Y028332D01*
X027980Y028299D01*
X027963Y028263D01*
X027950Y028226D01*
X027941Y028188D01*
X027935Y028149D01*
X027933Y028110D01*
X025683Y028110D01*
X025683Y044110D01*
X030983Y044110D01*
X030983Y028110D01*
X030639Y027921D02*
X030329Y027610D01*
X030742Y027610D01*
X030639Y027300D02*
X030639Y027921D01*
X030098Y027817D02*
X029994Y027921D01*
X029788Y027921D01*
X029684Y027817D01*
X029684Y027403D01*
X029788Y027300D01*
X029994Y027300D01*
X030098Y027403D01*
X029461Y027300D02*
X029255Y027300D01*
X029358Y027300D02*
X029358Y027921D01*
X029255Y027921D02*
X029461Y027921D01*
X028540Y029500D02*
X028333Y029500D01*
X028333Y029810D01*
X028436Y029914D01*
X028540Y029914D01*
X028643Y029810D01*
X028643Y029603D01*
X028540Y029500D01*
X028333Y029500D02*
X028126Y029707D01*
X028023Y029914D01*
X028126Y030145D02*
X028023Y030248D01*
X028023Y030455D01*
X028126Y030558D01*
X028230Y030558D01*
X028643Y030145D01*
X028643Y030558D01*
X028540Y030789D02*
X028436Y030789D01*
X028333Y030893D01*
X028333Y031099D01*
X028436Y031203D01*
X028540Y031203D01*
X028643Y031099D01*
X028643Y030893D01*
X028540Y030789D01*
X028333Y030893D02*
X028230Y030789D01*
X028126Y030789D01*
X028023Y030893D01*
X028023Y031099D01*
X028126Y031203D01*
X028230Y031203D01*
X028333Y031099D01*
X028333Y031434D02*
X028230Y031640D01*
X028230Y031744D01*
X028333Y031847D01*
X028540Y031847D01*
X028643Y031744D01*
X028643Y031537D01*
X028540Y031434D01*
X028333Y031434D02*
X028023Y031434D01*
X028023Y031847D01*
X028230Y032078D02*
X028023Y032285D01*
X028643Y032285D01*
X028643Y032078D02*
X028643Y032492D01*
X028643Y032723D02*
X028230Y033136D01*
X028126Y033136D01*
X028023Y033033D01*
X028023Y032826D01*
X028126Y032723D01*
X028643Y032723D02*
X028643Y033136D01*
X026983Y028060D02*
X025683Y028060D01*
X025657Y028058D01*
X025631Y028053D01*
X025606Y028045D01*
X025583Y028033D01*
X025561Y028019D01*
X025542Y028001D01*
X025524Y027982D01*
X025510Y027960D01*
X025498Y027937D01*
X025490Y027912D01*
X025485Y027886D01*
X025483Y027860D01*
X025833Y027610D02*
X026213Y027610D01*
X026463Y027610D02*
X026833Y027610D01*
X027183Y027860D02*
X027181Y027886D01*
X027176Y027912D01*
X027168Y027937D01*
X027156Y027960D01*
X027142Y027982D01*
X027124Y028001D01*
X027105Y028019D01*
X027083Y028033D01*
X027060Y028045D01*
X027035Y028053D01*
X027009Y028058D01*
X026983Y028060D01*
X027183Y027360D02*
X027181Y027334D01*
X027176Y027308D01*
X027168Y027283D01*
X027156Y027260D01*
X027142Y027238D01*
X027124Y027219D01*
X027105Y027201D01*
X027083Y027187D01*
X027060Y027175D01*
X027035Y027167D01*
X027009Y027162D01*
X026983Y027160D01*
X025683Y027160D01*
X025657Y027162D01*
X025631Y027167D01*
X025606Y027175D01*
X025583Y027187D01*
X025561Y027201D01*
X025542Y027219D01*
X025524Y027238D01*
X025510Y027260D01*
X025498Y027283D01*
X025490Y027308D01*
X025485Y027334D01*
X025483Y027360D01*
X022483Y028110D02*
X020233Y028110D01*
X020213Y027921D02*
X020213Y027300D01*
X020110Y027300D02*
X020317Y027300D01*
X020540Y027403D02*
X020643Y027300D01*
X020850Y027300D01*
X020953Y027403D01*
X021184Y027300D02*
X021598Y027300D01*
X021391Y027300D02*
X021391Y027921D01*
X021184Y027714D01*
X020953Y027817D02*
X020850Y027921D01*
X020643Y027921D01*
X020540Y027817D01*
X020540Y027403D01*
X020317Y027921D02*
X020110Y027921D01*
X020233Y028110D02*
X020231Y028149D01*
X020225Y028188D01*
X020216Y028226D01*
X020203Y028263D01*
X020186Y028299D01*
X020166Y028332D01*
X020142Y028364D01*
X020116Y028393D01*
X020087Y028419D01*
X020055Y028443D01*
X020022Y028463D01*
X019986Y028480D01*
X019949Y028493D01*
X019911Y028502D01*
X019872Y028508D01*
X019833Y028510D01*
X019794Y028508D01*
X019755Y028502D01*
X019717Y028493D01*
X019680Y028480D01*
X019644Y028463D01*
X019611Y028443D01*
X019579Y028419D01*
X019550Y028393D01*
X019524Y028364D01*
X019500Y028332D01*
X019480Y028299D01*
X019463Y028263D01*
X019450Y028226D01*
X019441Y028188D01*
X019435Y028149D01*
X019433Y028110D01*
X017183Y028110D01*
X017183Y044110D01*
X022483Y044110D01*
X022483Y028110D01*
X022036Y027921D02*
X022036Y027300D01*
X022242Y027300D02*
X021829Y027300D01*
X021829Y027714D02*
X022036Y027921D01*
X020143Y029603D02*
X020143Y029810D01*
X020040Y029914D01*
X019936Y029914D01*
X019833Y029810D01*
X019833Y029500D01*
X020040Y029500D01*
X020143Y029603D01*
X019833Y029500D02*
X019626Y029707D01*
X019523Y029914D01*
X019626Y030145D02*
X019523Y030248D01*
X019523Y030455D01*
X019626Y030558D01*
X019730Y030558D01*
X020143Y030145D01*
X020143Y030558D01*
X020040Y030789D02*
X019936Y030789D01*
X019833Y030893D01*
X019833Y031099D01*
X019936Y031203D01*
X020040Y031203D01*
X020143Y031099D01*
X020143Y030893D01*
X020040Y030789D01*
X019833Y030893D02*
X019730Y030789D01*
X019626Y030789D01*
X019523Y030893D01*
X019523Y031099D01*
X019626Y031203D01*
X019730Y031203D01*
X019833Y031099D01*
X019833Y031434D02*
X019730Y031640D01*
X019730Y031744D01*
X019833Y031847D01*
X020040Y031847D01*
X020143Y031744D01*
X020143Y031537D01*
X020040Y031434D01*
X019833Y031434D02*
X019523Y031434D01*
X019523Y031847D01*
X019730Y032078D02*
X019523Y032285D01*
X020143Y032285D01*
X020143Y032078D02*
X020143Y032492D01*
X020143Y032723D02*
X019730Y033136D01*
X019626Y033136D01*
X019523Y033033D01*
X019523Y032826D01*
X019626Y032723D01*
X020143Y032723D02*
X020143Y033136D01*
X016483Y028060D02*
X015183Y028060D01*
X015157Y028058D01*
X015131Y028053D01*
X015106Y028045D01*
X015083Y028033D01*
X015061Y028019D01*
X015042Y028001D01*
X015024Y027982D01*
X015010Y027960D01*
X014998Y027937D01*
X014990Y027912D01*
X014985Y027886D01*
X014983Y027860D01*
X015333Y027610D02*
X015703Y027610D01*
X015953Y027610D02*
X016333Y027610D01*
X016683Y027360D02*
X016681Y027334D01*
X016676Y027308D01*
X016668Y027283D01*
X016656Y027260D01*
X016642Y027238D01*
X016624Y027219D01*
X016605Y027201D01*
X016583Y027187D01*
X016560Y027175D01*
X016535Y027167D01*
X016509Y027162D01*
X016483Y027160D01*
X015183Y027160D01*
X015157Y027162D01*
X015131Y027167D01*
X015106Y027175D01*
X015083Y027187D01*
X015061Y027201D01*
X015042Y027219D01*
X015024Y027238D01*
X015010Y027260D01*
X014998Y027283D01*
X014990Y027308D01*
X014985Y027334D01*
X014983Y027360D01*
X013742Y027300D02*
X013329Y027300D01*
X013742Y027714D01*
X013742Y027817D01*
X013639Y027921D01*
X013432Y027921D01*
X013329Y027817D01*
X012891Y027921D02*
X012891Y027300D01*
X012684Y027300D02*
X013098Y027300D01*
X012684Y027714D02*
X012891Y027921D01*
X012453Y027817D02*
X012350Y027921D01*
X012143Y027921D01*
X012040Y027817D01*
X012040Y027403D01*
X012143Y027300D01*
X012350Y027300D01*
X012453Y027403D01*
X011817Y027300D02*
X011610Y027300D01*
X011713Y027300D02*
X011713Y027921D01*
X011610Y027921D02*
X011817Y027921D01*
X011733Y028110D02*
X013983Y028110D01*
X013983Y044110D01*
X008683Y044110D01*
X008683Y028110D01*
X010933Y028110D01*
X010935Y028149D01*
X010941Y028188D01*
X010950Y028226D01*
X010963Y028263D01*
X010980Y028299D01*
X011000Y028332D01*
X011024Y028364D01*
X011050Y028393D01*
X011079Y028419D01*
X011111Y028443D01*
X011144Y028463D01*
X011180Y028480D01*
X011217Y028493D01*
X011255Y028502D01*
X011294Y028508D01*
X011333Y028510D01*
X011372Y028508D01*
X011411Y028502D01*
X011449Y028493D01*
X011486Y028480D01*
X011522Y028463D01*
X011555Y028443D01*
X011587Y028419D01*
X011616Y028393D01*
X011642Y028364D01*
X011666Y028332D01*
X011686Y028299D01*
X011703Y028263D01*
X011716Y028226D01*
X011725Y028188D01*
X011731Y028149D01*
X011733Y028110D01*
X011540Y029500D02*
X011333Y029500D01*
X011333Y029810D01*
X011436Y029914D01*
X011540Y029914D01*
X011643Y029810D01*
X011643Y029603D01*
X011540Y029500D01*
X011333Y029500D02*
X011126Y029707D01*
X011023Y029914D01*
X011126Y030145D02*
X011023Y030248D01*
X011023Y030455D01*
X011126Y030558D01*
X011230Y030558D01*
X011643Y030145D01*
X011643Y030558D01*
X011540Y030789D02*
X011436Y030789D01*
X011333Y030893D01*
X011333Y031099D01*
X011436Y031203D01*
X011540Y031203D01*
X011643Y031099D01*
X011643Y030893D01*
X011540Y030789D01*
X011333Y030893D02*
X011230Y030789D01*
X011126Y030789D01*
X011023Y030893D01*
X011023Y031099D01*
X011126Y031203D01*
X011230Y031203D01*
X011333Y031099D01*
X011333Y031434D02*
X011230Y031640D01*
X011230Y031744D01*
X011333Y031847D01*
X011540Y031847D01*
X011643Y031744D01*
X011643Y031537D01*
X011540Y031434D01*
X011333Y031434D02*
X011023Y031434D01*
X011023Y031847D01*
X011230Y032078D02*
X011023Y032285D01*
X011643Y032285D01*
X011643Y032078D02*
X011643Y032492D01*
X011643Y032723D02*
X011230Y033136D01*
X011126Y033136D01*
X011023Y033033D01*
X011023Y032826D01*
X011126Y032723D01*
X011643Y032723D02*
X011643Y033136D01*
X007983Y028060D02*
X006683Y028060D01*
X006657Y028058D01*
X006631Y028053D01*
X006606Y028045D01*
X006583Y028033D01*
X006561Y028019D01*
X006542Y028001D01*
X006524Y027982D01*
X006510Y027960D01*
X006498Y027937D01*
X006490Y027912D01*
X006485Y027886D01*
X006483Y027860D01*
X006833Y027610D02*
X007203Y027610D01*
X007453Y027610D02*
X007833Y027610D01*
X008183Y027360D02*
X008181Y027334D01*
X008176Y027308D01*
X008168Y027283D01*
X008156Y027260D01*
X008142Y027238D01*
X008124Y027219D01*
X008105Y027201D01*
X008083Y027187D01*
X008060Y027175D01*
X008035Y027167D01*
X008009Y027162D01*
X007983Y027160D01*
X006683Y027160D01*
X006657Y027162D01*
X006631Y027167D01*
X006606Y027175D01*
X006583Y027187D01*
X006561Y027201D01*
X006542Y027219D01*
X006524Y027238D01*
X006510Y027260D01*
X006498Y027283D01*
X006490Y027308D01*
X006485Y027334D01*
X006483Y027360D01*
X007983Y028060D02*
X008009Y028058D01*
X008035Y028053D01*
X008060Y028045D01*
X008083Y028033D01*
X008105Y028019D01*
X008124Y028001D01*
X008142Y027982D01*
X008156Y027960D01*
X008168Y027937D01*
X008176Y027912D01*
X008181Y027886D01*
X008183Y027860D01*
X016483Y028060D02*
X016509Y028058D01*
X016535Y028053D01*
X016560Y028045D01*
X016583Y028033D01*
X016605Y028019D01*
X016624Y028001D01*
X016642Y027982D01*
X016656Y027960D01*
X016668Y027937D01*
X016676Y027912D01*
X016681Y027886D01*
X016683Y027860D01*
X013639Y010296D02*
X013329Y009985D01*
X013742Y009985D01*
X013639Y009675D02*
X013639Y010296D01*
X016983Y009985D02*
X016985Y010011D01*
X016990Y010037D01*
X016998Y010062D01*
X017010Y010085D01*
X017024Y010107D01*
X017042Y010126D01*
X017061Y010144D01*
X017083Y010158D01*
X017106Y010170D01*
X017131Y010178D01*
X017157Y010183D01*
X017183Y010185D01*
D11*
X017713Y010035D02*
X017713Y009735D01*
X017713Y009435D01*
X017963Y009435D02*
X017963Y009735D01*
X017963Y010035D01*
X010213Y010035D02*
X010213Y009735D01*
X010213Y009435D01*
X009963Y009435D02*
X009963Y009735D01*
X009963Y010035D01*
X026213Y010035D02*
X026213Y009735D01*
X026213Y009435D01*
X026463Y009435D02*
X026463Y009735D01*
X026463Y010035D01*
X034713Y010035D02*
X034713Y009735D01*
X034713Y009435D01*
X034963Y009435D02*
X034963Y009735D01*
X034963Y010035D01*
X045713Y010035D02*
X045713Y009735D01*
X045713Y009435D01*
X045963Y009435D02*
X045963Y009735D01*
X045963Y010035D01*
X059453Y026185D02*
X059453Y026485D01*
X059453Y026785D01*
X059703Y026785D02*
X059703Y026485D01*
X059703Y026185D01*
X051008Y028740D02*
X050708Y028740D01*
X050408Y028740D01*
X050408Y028990D02*
X050708Y028990D01*
X051008Y028990D01*
X049383Y040990D02*
X049083Y040990D01*
X048783Y040990D01*
X048783Y041240D02*
X049083Y041240D01*
X049383Y041240D01*
X054158Y041240D02*
X054458Y041240D01*
X054758Y041240D01*
X054758Y040990D02*
X054458Y040990D01*
X054158Y040990D01*
X058703Y043185D02*
X058703Y043485D01*
X058703Y043785D01*
X058953Y043785D02*
X058953Y043485D01*
X058953Y043185D01*
X034963Y027910D02*
X034963Y027610D01*
X034963Y027310D01*
X034713Y027310D02*
X034713Y027610D01*
X034713Y027910D01*
X026463Y027910D02*
X026463Y027610D01*
X026463Y027310D01*
X026213Y027310D02*
X026213Y027610D01*
X026213Y027910D01*
X015953Y027910D02*
X015953Y027610D01*
X015953Y027310D01*
X015703Y027310D02*
X015703Y027610D01*
X015703Y027910D01*
X007453Y027910D02*
X007453Y027610D01*
X007453Y027310D01*
X007203Y027310D02*
X007203Y027610D01*
X007203Y027910D01*
D12*
X012578Y026116D02*
X013419Y026116D01*
X013419Y025906D01*
X012578Y025065D01*
X012578Y024855D01*
X021078Y025065D02*
X021289Y024855D01*
X021709Y024855D01*
X021919Y025065D01*
X021919Y025275D01*
X021709Y025486D01*
X021078Y025486D01*
X021078Y025065D01*
X021078Y025486D02*
X021499Y025906D01*
X021919Y026116D01*
X029578Y025906D02*
X029789Y026116D01*
X030209Y026116D01*
X030419Y025906D01*
X030419Y025696D01*
X030209Y025486D01*
X030419Y025275D01*
X030419Y025065D01*
X030209Y024855D01*
X029789Y024855D01*
X029578Y025065D01*
X029999Y025486D02*
X030209Y025486D01*
X038078Y025906D02*
X038289Y026116D01*
X038709Y026116D01*
X038919Y025906D01*
X038919Y025696D01*
X038078Y024855D01*
X038919Y024855D01*
X046310Y024855D02*
X046310Y026116D01*
X046940Y026116D01*
X047151Y025906D01*
X047151Y025486D01*
X046940Y025275D01*
X046310Y025275D01*
X046730Y025275D02*
X047151Y024855D01*
X047691Y025065D02*
X047901Y024855D01*
X048322Y024855D01*
X048532Y025065D01*
X048532Y025906D01*
X048322Y026116D01*
X047901Y026116D01*
X047691Y025906D01*
X047691Y025065D01*
X049072Y024855D02*
X049072Y026116D01*
X049493Y025696D01*
X049913Y026116D01*
X049913Y024855D01*
X038709Y042480D02*
X038289Y042480D01*
X038078Y042690D01*
X038919Y043531D01*
X038919Y042690D01*
X038709Y042480D01*
X038078Y042690D02*
X038078Y043531D01*
X038289Y043741D01*
X038709Y043741D01*
X038919Y043531D01*
X030419Y042480D02*
X029578Y042480D01*
X029999Y042480D02*
X029999Y043741D01*
X029578Y043321D01*
X021919Y043111D02*
X021078Y043111D01*
X021709Y043741D01*
X021709Y042480D01*
X013419Y042690D02*
X013209Y042480D01*
X012789Y042480D01*
X012578Y042690D01*
X012578Y043111D02*
X012999Y043321D01*
X013209Y043321D01*
X013419Y043111D01*
X013419Y042690D01*
X012578Y043111D02*
X012578Y043741D01*
X013419Y043741D01*
D13*
X044974Y008580D02*
X045088Y008467D01*
X045201Y008580D01*
X045201Y008240D01*
X045343Y008297D02*
X045343Y008410D01*
X045399Y008467D01*
X045513Y008467D01*
X045570Y008410D01*
X045570Y008353D01*
X045343Y008353D01*
X045343Y008297D02*
X045399Y008240D01*
X045513Y008240D01*
X045711Y008240D02*
X045711Y008467D01*
X045768Y008467D01*
X045824Y008410D01*
X045881Y008467D01*
X045938Y008410D01*
X045938Y008240D01*
X045824Y008240D02*
X045824Y008410D01*
X046079Y008410D02*
X046079Y008297D01*
X046136Y008240D01*
X046249Y008240D01*
X046306Y008297D01*
X046306Y008410D01*
X046249Y008467D01*
X046136Y008467D01*
X046079Y008410D01*
X046448Y008353D02*
X046561Y008467D01*
X046618Y008467D01*
X046755Y008467D02*
X046755Y008297D01*
X046811Y008240D01*
X046981Y008240D01*
X046981Y008183D02*
X046925Y008127D01*
X046868Y008127D01*
X046981Y008183D02*
X046981Y008467D01*
X047491Y008524D02*
X047491Y008297D01*
X047548Y008240D01*
X047661Y008240D01*
X047718Y008297D01*
X047859Y008297D02*
X047916Y008353D01*
X048086Y008353D01*
X048086Y008410D02*
X048086Y008240D01*
X047916Y008240D01*
X047859Y008297D01*
X047916Y008467D02*
X048030Y008467D01*
X048086Y008410D01*
X048228Y008353D02*
X048341Y008467D01*
X048398Y008467D01*
X048535Y008410D02*
X048591Y008467D01*
X048762Y008467D01*
X048762Y008580D02*
X048762Y008240D01*
X048591Y008240D01*
X048535Y008297D01*
X048535Y008410D01*
X048228Y008467D02*
X048228Y008240D01*
X047718Y008524D02*
X047661Y008580D01*
X047548Y008580D01*
X047491Y008524D01*
X046448Y008467D02*
X046448Y008240D01*
X044974Y008240D02*
X044974Y008580D01*
X049271Y008467D02*
X049385Y008240D01*
X049498Y008467D01*
X049640Y008410D02*
X049696Y008467D01*
X049810Y008467D01*
X049867Y008410D01*
X049867Y008353D01*
X049640Y008353D01*
X049640Y008297D02*
X049640Y008410D01*
X049640Y008297D02*
X049696Y008240D01*
X049810Y008240D01*
X050008Y008240D02*
X050008Y008467D01*
X050121Y008467D02*
X050178Y008467D01*
X050121Y008467D02*
X050008Y008353D01*
X050315Y008297D02*
X050372Y008297D01*
X050372Y008240D01*
X050315Y008240D01*
X050315Y008297D01*
X050867Y008240D02*
X051094Y008467D01*
X051094Y008524D01*
X051038Y008580D01*
X050924Y008580D01*
X050867Y008524D01*
X050867Y008240D02*
X051094Y008240D01*
X051236Y008240D02*
X051292Y008240D01*
X051292Y008297D01*
X051236Y008297D01*
X051236Y008240D01*
X051420Y008297D02*
X051647Y008524D01*
X051647Y008297D01*
X051590Y008240D01*
X051477Y008240D01*
X051420Y008297D01*
X051420Y008524D01*
X051477Y008580D01*
X051590Y008580D01*
X051647Y008524D01*
X051845Y008297D02*
X051845Y008240D01*
X051902Y008240D01*
X051902Y008297D01*
X051845Y008297D01*
X051902Y008240D02*
X051788Y008127D01*
X052402Y008240D02*
X052572Y008240D01*
X052629Y008297D01*
X052629Y008353D01*
X052572Y008410D01*
X052402Y008410D01*
X052402Y008240D02*
X052402Y008580D01*
X052572Y008580D01*
X052629Y008524D01*
X052629Y008467D01*
X052572Y008410D01*
X052770Y008524D02*
X052884Y008410D01*
X052884Y008240D01*
X052884Y008410D02*
X052997Y008524D01*
X052997Y008580D01*
X053139Y008580D02*
X053365Y008580D01*
X053252Y008580D02*
X053252Y008240D01*
X053507Y008240D02*
X053734Y008240D01*
X053875Y008297D02*
X053932Y008240D01*
X054045Y008240D01*
X054102Y008297D01*
X054244Y008240D02*
X054470Y008580D01*
X054612Y008467D02*
X054725Y008580D01*
X054725Y008240D01*
X054612Y008240D02*
X054839Y008240D01*
X054980Y008297D02*
X055037Y008240D01*
X055150Y008240D01*
X055207Y008297D01*
X055207Y008353D01*
X055150Y008410D01*
X054980Y008410D01*
X054980Y008297D01*
X054980Y008410D02*
X055094Y008524D01*
X055207Y008580D01*
X055717Y008580D02*
X055717Y008240D01*
X055717Y008410D02*
X055944Y008410D01*
X056085Y008410D02*
X056085Y008297D01*
X056142Y008240D01*
X056255Y008240D01*
X056312Y008297D01*
X056312Y008410D01*
X056255Y008467D01*
X056142Y008467D01*
X056085Y008410D01*
X055944Y008580D02*
X055944Y008240D01*
X056453Y008240D02*
X056453Y008467D01*
X056510Y008467D01*
X056567Y008410D01*
X056624Y008467D01*
X056680Y008410D01*
X056680Y008240D01*
X056567Y008240D02*
X056567Y008410D01*
X056822Y008410D02*
X056878Y008467D01*
X056992Y008467D01*
X057049Y008410D01*
X057049Y008353D01*
X056822Y008353D01*
X056822Y008297D02*
X056822Y008410D01*
X056822Y008297D02*
X056878Y008240D01*
X056992Y008240D01*
X057190Y008240D02*
X057360Y008240D01*
X057417Y008297D01*
X057417Y008410D01*
X057360Y008467D01*
X057190Y008467D01*
X057190Y008580D02*
X057190Y008240D01*
X057558Y008240D02*
X057558Y008467D01*
X057558Y008353D02*
X057672Y008467D01*
X057729Y008467D01*
X057865Y008410D02*
X057922Y008467D01*
X058035Y008467D01*
X058092Y008410D01*
X058092Y008353D01*
X057865Y008353D01*
X057865Y008297D02*
X057865Y008410D01*
X057865Y008297D02*
X057922Y008240D01*
X058035Y008240D01*
X058234Y008297D02*
X058290Y008240D01*
X058347Y008297D01*
X058404Y008240D01*
X058461Y008297D01*
X058461Y008467D01*
X058234Y008467D02*
X058234Y008297D01*
X058970Y008297D02*
X059027Y008240D01*
X059140Y008240D01*
X059197Y008297D01*
X059339Y008297D02*
X059395Y008240D01*
X059509Y008240D01*
X059565Y008297D01*
X059565Y008410D01*
X059509Y008467D01*
X059395Y008467D01*
X059339Y008410D01*
X059339Y008297D01*
X059197Y008524D02*
X059140Y008580D01*
X059027Y008580D01*
X058970Y008524D01*
X058970Y008297D01*
X059707Y008240D02*
X059707Y008467D01*
X059764Y008467D01*
X059820Y008410D01*
X059877Y008467D01*
X059934Y008410D01*
X059934Y008240D01*
X059820Y008240D02*
X059820Y008410D01*
X060075Y008467D02*
X060245Y008467D01*
X060302Y008410D01*
X060302Y008297D01*
X060245Y008240D01*
X060075Y008240D01*
X060075Y008127D02*
X060075Y008467D01*
X060444Y008467D02*
X060444Y008297D01*
X060500Y008240D01*
X060670Y008240D01*
X060670Y008467D01*
X060812Y008467D02*
X060925Y008467D01*
X060869Y008524D02*
X060869Y008297D01*
X060925Y008240D01*
X061057Y008297D02*
X061057Y008410D01*
X061114Y008467D01*
X061228Y008467D01*
X061284Y008410D01*
X061284Y008353D01*
X061057Y008353D01*
X061057Y008297D02*
X061114Y008240D01*
X061228Y008240D01*
X061426Y008240D02*
X061426Y008467D01*
X061539Y008467D02*
X061596Y008467D01*
X061539Y008467D02*
X061426Y008353D01*
X061789Y008297D02*
X061789Y008240D01*
X061846Y008240D01*
X061846Y008297D01*
X061789Y008297D01*
X061846Y008240D02*
X061733Y008127D01*
X062346Y008240D02*
X062517Y008240D01*
X062573Y008297D01*
X062573Y008524D01*
X062517Y008580D01*
X062346Y008580D01*
X062346Y008240D01*
X062715Y008240D02*
X062772Y008240D01*
X062772Y008297D01*
X062715Y008297D01*
X062715Y008240D01*
X062899Y008240D02*
X062899Y008580D01*
X063069Y008580D01*
X063126Y008524D01*
X063126Y008410D01*
X063069Y008353D01*
X062899Y008353D01*
X063267Y008240D02*
X063381Y008240D01*
X063324Y008240D02*
X063324Y008467D01*
X063267Y008467D01*
X063324Y008580D02*
X063324Y008637D01*
X063513Y008580D02*
X063570Y008580D01*
X063570Y008240D01*
X063626Y008240D02*
X063513Y008240D01*
X063758Y008297D02*
X063815Y008353D01*
X063985Y008353D01*
X063985Y008410D02*
X063985Y008240D01*
X063815Y008240D01*
X063758Y008297D01*
X063815Y008467D02*
X063929Y008467D01*
X063985Y008410D01*
X064127Y008467D02*
X064127Y008297D01*
X064183Y008240D01*
X064240Y008297D01*
X064297Y008240D01*
X064354Y008297D01*
X064354Y008467D01*
X064552Y008467D02*
X064665Y008467D01*
X064722Y008410D01*
X064722Y008240D01*
X064552Y008240D01*
X064495Y008297D01*
X064552Y008353D01*
X064722Y008353D01*
X054102Y008524D02*
X054045Y008580D01*
X053932Y008580D01*
X053875Y008524D01*
X053875Y008297D01*
X053620Y008410D02*
X053507Y008410D01*
X053507Y008580D02*
X053507Y008240D01*
X053507Y008580D02*
X053734Y008580D01*
X052770Y008580D02*
X052770Y008524D01*
M02*
