G75*
%MOIN*%
%OFA0B0*%
%FSLAX24Y24*%
%IPPOS*%
%LPD*%
%AMOC8*
5,1,8,0,0,1.08239X$1,22.5*
%
%ADD10C,0.0000*%
%ADD11C,0.0560*%
%ADD12C,0.0630*%
%ADD13OC8,0.0630*%
%ADD14OC8,0.0560*%
%ADD15C,0.0160*%
%ADD16C,0.0320*%
%ADD17C,0.0500*%
D10*
X004933Y007420D02*
X004933Y046800D01*
X067933Y046800D01*
X067933Y007420D01*
X004933Y007420D01*
X004833Y007610D02*
X004833Y046980D01*
X067825Y046980D01*
X067825Y007610D01*
X004833Y007610D01*
X005783Y009610D02*
X005785Y009657D01*
X005791Y009703D01*
X005801Y009749D01*
X005814Y009793D01*
X005832Y009837D01*
X005853Y009878D01*
X005877Y009918D01*
X005905Y009956D01*
X005936Y009991D01*
X005970Y010023D01*
X006006Y010052D01*
X006045Y010078D01*
X006085Y010101D01*
X006128Y010120D01*
X006172Y010136D01*
X006217Y010148D01*
X006263Y010156D01*
X006310Y010160D01*
X006356Y010160D01*
X006403Y010156D01*
X006449Y010148D01*
X006494Y010136D01*
X006538Y010120D01*
X006581Y010101D01*
X006621Y010078D01*
X006660Y010052D01*
X006696Y010023D01*
X006730Y009991D01*
X006761Y009956D01*
X006789Y009918D01*
X006813Y009878D01*
X006834Y009837D01*
X006852Y009793D01*
X006865Y009749D01*
X006875Y009703D01*
X006881Y009657D01*
X006883Y009610D01*
X006881Y009563D01*
X006875Y009517D01*
X006865Y009471D01*
X006852Y009427D01*
X006834Y009383D01*
X006813Y009342D01*
X006789Y009302D01*
X006761Y009264D01*
X006730Y009229D01*
X006696Y009197D01*
X006660Y009168D01*
X006621Y009142D01*
X006581Y009119D01*
X006538Y009100D01*
X006494Y009084D01*
X006449Y009072D01*
X006403Y009064D01*
X006356Y009060D01*
X006310Y009060D01*
X006263Y009064D01*
X006217Y009072D01*
X006172Y009084D01*
X006128Y009100D01*
X006085Y009119D01*
X006045Y009142D01*
X006006Y009168D01*
X005970Y009197D01*
X005936Y009229D01*
X005905Y009264D01*
X005877Y009302D01*
X005853Y009342D01*
X005832Y009383D01*
X005814Y009427D01*
X005801Y009471D01*
X005791Y009517D01*
X005785Y009563D01*
X005783Y009610D01*
X005783Y044610D02*
X005785Y044657D01*
X005791Y044703D01*
X005801Y044749D01*
X005814Y044793D01*
X005832Y044837D01*
X005853Y044878D01*
X005877Y044918D01*
X005905Y044956D01*
X005936Y044991D01*
X005970Y045023D01*
X006006Y045052D01*
X006045Y045078D01*
X006085Y045101D01*
X006128Y045120D01*
X006172Y045136D01*
X006217Y045148D01*
X006263Y045156D01*
X006310Y045160D01*
X006356Y045160D01*
X006403Y045156D01*
X006449Y045148D01*
X006494Y045136D01*
X006538Y045120D01*
X006581Y045101D01*
X006621Y045078D01*
X006660Y045052D01*
X006696Y045023D01*
X006730Y044991D01*
X006761Y044956D01*
X006789Y044918D01*
X006813Y044878D01*
X006834Y044837D01*
X006852Y044793D01*
X006865Y044749D01*
X006875Y044703D01*
X006881Y044657D01*
X006883Y044610D01*
X006881Y044563D01*
X006875Y044517D01*
X006865Y044471D01*
X006852Y044427D01*
X006834Y044383D01*
X006813Y044342D01*
X006789Y044302D01*
X006761Y044264D01*
X006730Y044229D01*
X006696Y044197D01*
X006660Y044168D01*
X006621Y044142D01*
X006581Y044119D01*
X006538Y044100D01*
X006494Y044084D01*
X006449Y044072D01*
X006403Y044064D01*
X006356Y044060D01*
X006310Y044060D01*
X006263Y044064D01*
X006217Y044072D01*
X006172Y044084D01*
X006128Y044100D01*
X006085Y044119D01*
X006045Y044142D01*
X006006Y044168D01*
X005970Y044197D01*
X005936Y044229D01*
X005905Y044264D01*
X005877Y044302D01*
X005853Y044342D01*
X005832Y044383D01*
X005814Y044427D01*
X005801Y044471D01*
X005791Y044517D01*
X005785Y044563D01*
X005783Y044610D01*
X066283Y044610D02*
X066285Y044657D01*
X066291Y044703D01*
X066301Y044749D01*
X066314Y044793D01*
X066332Y044837D01*
X066353Y044878D01*
X066377Y044918D01*
X066405Y044956D01*
X066436Y044991D01*
X066470Y045023D01*
X066506Y045052D01*
X066545Y045078D01*
X066585Y045101D01*
X066628Y045120D01*
X066672Y045136D01*
X066717Y045148D01*
X066763Y045156D01*
X066810Y045160D01*
X066856Y045160D01*
X066903Y045156D01*
X066949Y045148D01*
X066994Y045136D01*
X067038Y045120D01*
X067081Y045101D01*
X067121Y045078D01*
X067160Y045052D01*
X067196Y045023D01*
X067230Y044991D01*
X067261Y044956D01*
X067289Y044918D01*
X067313Y044878D01*
X067334Y044837D01*
X067352Y044793D01*
X067365Y044749D01*
X067375Y044703D01*
X067381Y044657D01*
X067383Y044610D01*
X067381Y044563D01*
X067375Y044517D01*
X067365Y044471D01*
X067352Y044427D01*
X067334Y044383D01*
X067313Y044342D01*
X067289Y044302D01*
X067261Y044264D01*
X067230Y044229D01*
X067196Y044197D01*
X067160Y044168D01*
X067121Y044142D01*
X067081Y044119D01*
X067038Y044100D01*
X066994Y044084D01*
X066949Y044072D01*
X066903Y044064D01*
X066856Y044060D01*
X066810Y044060D01*
X066763Y044064D01*
X066717Y044072D01*
X066672Y044084D01*
X066628Y044100D01*
X066585Y044119D01*
X066545Y044142D01*
X066506Y044168D01*
X066470Y044197D01*
X066436Y044229D01*
X066405Y044264D01*
X066377Y044302D01*
X066353Y044342D01*
X066332Y044383D01*
X066314Y044427D01*
X066301Y044471D01*
X066291Y044517D01*
X066285Y044563D01*
X066283Y044610D01*
X066283Y009610D02*
X066285Y009657D01*
X066291Y009703D01*
X066301Y009749D01*
X066314Y009793D01*
X066332Y009837D01*
X066353Y009878D01*
X066377Y009918D01*
X066405Y009956D01*
X066436Y009991D01*
X066470Y010023D01*
X066506Y010052D01*
X066545Y010078D01*
X066585Y010101D01*
X066628Y010120D01*
X066672Y010136D01*
X066717Y010148D01*
X066763Y010156D01*
X066810Y010160D01*
X066856Y010160D01*
X066903Y010156D01*
X066949Y010148D01*
X066994Y010136D01*
X067038Y010120D01*
X067081Y010101D01*
X067121Y010078D01*
X067160Y010052D01*
X067196Y010023D01*
X067230Y009991D01*
X067261Y009956D01*
X067289Y009918D01*
X067313Y009878D01*
X067334Y009837D01*
X067352Y009793D01*
X067365Y009749D01*
X067375Y009703D01*
X067381Y009657D01*
X067383Y009610D01*
X067381Y009563D01*
X067375Y009517D01*
X067365Y009471D01*
X067352Y009427D01*
X067334Y009383D01*
X067313Y009342D01*
X067289Y009302D01*
X067261Y009264D01*
X067230Y009229D01*
X067196Y009197D01*
X067160Y009168D01*
X067121Y009142D01*
X067081Y009119D01*
X067038Y009100D01*
X066994Y009084D01*
X066949Y009072D01*
X066903Y009064D01*
X066856Y009060D01*
X066810Y009060D01*
X066763Y009064D01*
X066717Y009072D01*
X066672Y009084D01*
X066628Y009100D01*
X066585Y009119D01*
X066545Y009142D01*
X066506Y009168D01*
X066470Y009197D01*
X066436Y009229D01*
X066405Y009264D01*
X066377Y009302D01*
X066353Y009342D01*
X066332Y009383D01*
X066314Y009427D01*
X066301Y009471D01*
X066291Y009517D01*
X066285Y009563D01*
X066283Y009610D01*
D11*
X051113Y010985D02*
X050553Y010985D01*
X050553Y011985D02*
X051113Y011985D01*
X051113Y012985D02*
X050553Y012985D01*
X050553Y013985D02*
X051113Y013985D01*
X051113Y014985D02*
X050553Y014985D01*
X050553Y015985D02*
X051113Y015985D01*
X051113Y016985D02*
X050553Y016985D01*
X050553Y017985D02*
X051113Y017985D01*
X051113Y018985D02*
X050553Y018985D01*
X050553Y019985D02*
X051113Y019985D01*
X051113Y020985D02*
X050553Y020985D01*
X050553Y021985D02*
X051113Y021985D01*
X051113Y022985D02*
X050553Y022985D01*
X050553Y023985D02*
X051113Y023985D01*
X051113Y024985D02*
X050553Y024985D01*
X050553Y025985D02*
X051113Y025985D01*
X049458Y027580D02*
X049458Y028140D01*
X048458Y028140D02*
X048458Y027580D01*
X047458Y027580D02*
X047458Y028140D01*
X046458Y028140D02*
X046458Y027580D01*
X045458Y027580D02*
X045458Y028140D01*
X044458Y028140D02*
X044458Y027580D01*
X043458Y027580D02*
X043458Y028140D01*
X042458Y028140D02*
X042458Y027580D01*
X040113Y028610D02*
X039553Y028610D01*
X039553Y029610D02*
X040113Y029610D01*
X040113Y030610D02*
X039553Y030610D01*
X039553Y031610D02*
X040113Y031610D01*
X040113Y032610D02*
X039553Y032610D01*
X039553Y033610D02*
X040113Y033610D01*
X040113Y034610D02*
X039553Y034610D01*
X039553Y035610D02*
X040113Y035610D01*
X040113Y036610D02*
X039553Y036610D01*
X039553Y037610D02*
X040113Y037610D01*
X040113Y038610D02*
X039553Y038610D01*
X039553Y039610D02*
X040113Y039610D01*
X040113Y040610D02*
X039553Y040610D01*
X039553Y041610D02*
X040113Y041610D01*
X040113Y042610D02*
X039553Y042610D01*
X039553Y043610D02*
X040113Y043610D01*
X034113Y043610D02*
X033553Y043610D01*
X033553Y042610D02*
X034113Y042610D01*
X034113Y041610D02*
X033553Y041610D01*
X033553Y040610D02*
X034113Y040610D01*
X034113Y039610D02*
X033553Y039610D01*
X033553Y038610D02*
X034113Y038610D01*
X034113Y037610D02*
X033553Y037610D01*
X033553Y036610D02*
X034113Y036610D01*
X034113Y035610D02*
X033553Y035610D01*
X033553Y034610D02*
X034113Y034610D01*
X034113Y033610D02*
X033553Y033610D01*
X033553Y032610D02*
X034113Y032610D01*
X034113Y031610D02*
X033553Y031610D01*
X033553Y030610D02*
X034113Y030610D01*
X034113Y029610D02*
X033553Y029610D01*
X033553Y028610D02*
X034113Y028610D01*
X031613Y028610D02*
X031053Y028610D01*
X031053Y029610D02*
X031613Y029610D01*
X031613Y030610D02*
X031053Y030610D01*
X031053Y031610D02*
X031613Y031610D01*
X031613Y032610D02*
X031053Y032610D01*
X031053Y033610D02*
X031613Y033610D01*
X031613Y034610D02*
X031053Y034610D01*
X031053Y035610D02*
X031613Y035610D01*
X031613Y036610D02*
X031053Y036610D01*
X031053Y037610D02*
X031613Y037610D01*
X031613Y038610D02*
X031053Y038610D01*
X031053Y039610D02*
X031613Y039610D01*
X031613Y040610D02*
X031053Y040610D01*
X031053Y041610D02*
X031613Y041610D01*
X031613Y042610D02*
X031053Y042610D01*
X031053Y043610D02*
X031613Y043610D01*
X025613Y043610D02*
X025053Y043610D01*
X025053Y042610D02*
X025613Y042610D01*
X025613Y041610D02*
X025053Y041610D01*
X025053Y040610D02*
X025613Y040610D01*
X025613Y039610D02*
X025053Y039610D01*
X025053Y038610D02*
X025613Y038610D01*
X025613Y037610D02*
X025053Y037610D01*
X025053Y036610D02*
X025613Y036610D01*
X025613Y035610D02*
X025053Y035610D01*
X025053Y034610D02*
X025613Y034610D01*
X025613Y033610D02*
X025053Y033610D01*
X025053Y032610D02*
X025613Y032610D01*
X025613Y031610D02*
X025053Y031610D01*
X025053Y030610D02*
X025613Y030610D01*
X025613Y029610D02*
X025053Y029610D01*
X025053Y028610D02*
X025613Y028610D01*
X023113Y028610D02*
X022553Y028610D01*
X022553Y029610D02*
X023113Y029610D01*
X023113Y030610D02*
X022553Y030610D01*
X022553Y031610D02*
X023113Y031610D01*
X023113Y032610D02*
X022553Y032610D01*
X022553Y033610D02*
X023113Y033610D01*
X023113Y034610D02*
X022553Y034610D01*
X022553Y035610D02*
X023113Y035610D01*
X023113Y036610D02*
X022553Y036610D01*
X022553Y037610D02*
X023113Y037610D01*
X023113Y038610D02*
X022553Y038610D01*
X022553Y039610D02*
X023113Y039610D01*
X023113Y040610D02*
X022553Y040610D01*
X022553Y041610D02*
X023113Y041610D01*
X023113Y042610D02*
X022553Y042610D01*
X022553Y043610D02*
X023113Y043610D01*
X017113Y043610D02*
X016553Y043610D01*
X016553Y042610D02*
X017113Y042610D01*
X017113Y041610D02*
X016553Y041610D01*
X016553Y040610D02*
X017113Y040610D01*
X017113Y039610D02*
X016553Y039610D01*
X016553Y038610D02*
X017113Y038610D01*
X017113Y037610D02*
X016553Y037610D01*
X016553Y036610D02*
X017113Y036610D01*
X017113Y035610D02*
X016553Y035610D01*
X016553Y034610D02*
X017113Y034610D01*
X017113Y033610D02*
X016553Y033610D01*
X016553Y032610D02*
X017113Y032610D01*
X017113Y031610D02*
X016553Y031610D01*
X016553Y030610D02*
X017113Y030610D01*
X017113Y029610D02*
X016553Y029610D01*
X016553Y028610D02*
X017113Y028610D01*
X014613Y028610D02*
X014053Y028610D01*
X014053Y029610D02*
X014613Y029610D01*
X014613Y030610D02*
X014053Y030610D01*
X014053Y031610D02*
X014613Y031610D01*
X014613Y032610D02*
X014053Y032610D01*
X014053Y033610D02*
X014613Y033610D01*
X014613Y034610D02*
X014053Y034610D01*
X014053Y035610D02*
X014613Y035610D01*
X014613Y036610D02*
X014053Y036610D01*
X014053Y037610D02*
X014613Y037610D01*
X014613Y038610D02*
X014053Y038610D01*
X014053Y039610D02*
X014613Y039610D01*
X014613Y040610D02*
X014053Y040610D01*
X014053Y041610D02*
X014613Y041610D01*
X014613Y042610D02*
X014053Y042610D01*
X014053Y043610D02*
X014613Y043610D01*
X008613Y043610D02*
X008053Y043610D01*
X008053Y042610D02*
X008613Y042610D01*
X008613Y041610D02*
X008053Y041610D01*
X008053Y040610D02*
X008613Y040610D01*
X008613Y039610D02*
X008053Y039610D01*
X008053Y038610D02*
X008613Y038610D01*
X008613Y037610D02*
X008053Y037610D01*
X008053Y036610D02*
X008613Y036610D01*
X008613Y035610D02*
X008053Y035610D01*
X008053Y034610D02*
X008613Y034610D01*
X008613Y033610D02*
X008053Y033610D01*
X008053Y032610D02*
X008613Y032610D01*
X008613Y031610D02*
X008053Y031610D01*
X008053Y030610D02*
X008613Y030610D01*
X008613Y029610D02*
X008053Y029610D01*
X008053Y028610D02*
X008613Y028610D01*
X008613Y025985D02*
X008053Y025985D01*
X008053Y024985D02*
X008613Y024985D01*
X008613Y023985D02*
X008053Y023985D01*
X008053Y022985D02*
X008613Y022985D01*
X008613Y021985D02*
X008053Y021985D01*
X008053Y020985D02*
X008613Y020985D01*
X008613Y019985D02*
X008053Y019985D01*
X008053Y018985D02*
X008613Y018985D01*
X008613Y017985D02*
X008053Y017985D01*
X008053Y016985D02*
X008613Y016985D01*
X008613Y015985D02*
X008053Y015985D01*
X008053Y014985D02*
X008613Y014985D01*
X008613Y013985D02*
X008053Y013985D01*
X008053Y012985D02*
X008613Y012985D01*
X008613Y011985D02*
X008053Y011985D01*
X008053Y010985D02*
X008613Y010985D01*
X014053Y010985D02*
X014613Y010985D01*
X014613Y011985D02*
X014053Y011985D01*
X014053Y012985D02*
X014613Y012985D01*
X014613Y013985D02*
X014053Y013985D01*
X014053Y014985D02*
X014613Y014985D01*
X014613Y015985D02*
X014053Y015985D01*
X014053Y016985D02*
X014613Y016985D01*
X014613Y017985D02*
X014053Y017985D01*
X014053Y018985D02*
X014613Y018985D01*
X014613Y019985D02*
X014053Y019985D01*
X014053Y020985D02*
X014613Y020985D01*
X014613Y021985D02*
X014053Y021985D01*
X014053Y022985D02*
X014613Y022985D01*
X014613Y023985D02*
X014053Y023985D01*
X014053Y024985D02*
X014613Y024985D01*
X014613Y025985D02*
X014053Y025985D01*
X016553Y025985D02*
X017113Y025985D01*
X017113Y024985D02*
X016553Y024985D01*
X016553Y023985D02*
X017113Y023985D01*
X017113Y022985D02*
X016553Y022985D01*
X016553Y021985D02*
X017113Y021985D01*
X017113Y020985D02*
X016553Y020985D01*
X016553Y019985D02*
X017113Y019985D01*
X017113Y018985D02*
X016553Y018985D01*
X016553Y017985D02*
X017113Y017985D01*
X017113Y016985D02*
X016553Y016985D01*
X016553Y015985D02*
X017113Y015985D01*
X017113Y014985D02*
X016553Y014985D01*
X016553Y013985D02*
X017113Y013985D01*
X017113Y012985D02*
X016553Y012985D01*
X016553Y011985D02*
X017113Y011985D01*
X017113Y010985D02*
X016553Y010985D01*
X022553Y010985D02*
X023113Y010985D01*
X023113Y011985D02*
X022553Y011985D01*
X022553Y012985D02*
X023113Y012985D01*
X023113Y013985D02*
X022553Y013985D01*
X022553Y014985D02*
X023113Y014985D01*
X023113Y015985D02*
X022553Y015985D01*
X022553Y016985D02*
X023113Y016985D01*
X023113Y017985D02*
X022553Y017985D01*
X022553Y018985D02*
X023113Y018985D01*
X023113Y019985D02*
X022553Y019985D01*
X022553Y020985D02*
X023113Y020985D01*
X023113Y021985D02*
X022553Y021985D01*
X022553Y022985D02*
X023113Y022985D01*
X023113Y023985D02*
X022553Y023985D01*
X022553Y024985D02*
X023113Y024985D01*
X023113Y025985D02*
X022553Y025985D01*
X025053Y025985D02*
X025613Y025985D01*
X025613Y024985D02*
X025053Y024985D01*
X025053Y023985D02*
X025613Y023985D01*
X025613Y022985D02*
X025053Y022985D01*
X025053Y021985D02*
X025613Y021985D01*
X025613Y020985D02*
X025053Y020985D01*
X025053Y019985D02*
X025613Y019985D01*
X025613Y018985D02*
X025053Y018985D01*
X025053Y017985D02*
X025613Y017985D01*
X025613Y016985D02*
X025053Y016985D01*
X025053Y015985D02*
X025613Y015985D01*
X025613Y014985D02*
X025053Y014985D01*
X025053Y013985D02*
X025613Y013985D01*
X025613Y012985D02*
X025053Y012985D01*
X025053Y011985D02*
X025613Y011985D01*
X025613Y010985D02*
X025053Y010985D01*
X031053Y010985D02*
X031613Y010985D01*
X031613Y011985D02*
X031053Y011985D01*
X031053Y012985D02*
X031613Y012985D01*
X031613Y013985D02*
X031053Y013985D01*
X031053Y014985D02*
X031613Y014985D01*
X031613Y015985D02*
X031053Y015985D01*
X031053Y016985D02*
X031613Y016985D01*
X031613Y017985D02*
X031053Y017985D01*
X031053Y018985D02*
X031613Y018985D01*
X031613Y019985D02*
X031053Y019985D01*
X031053Y020985D02*
X031613Y020985D01*
X031613Y021985D02*
X031053Y021985D01*
X031053Y022985D02*
X031613Y022985D01*
X031613Y023985D02*
X031053Y023985D01*
X031053Y024985D02*
X031613Y024985D01*
X031613Y025985D02*
X031053Y025985D01*
X033553Y025985D02*
X034113Y025985D01*
X034113Y024985D02*
X033553Y024985D01*
X033553Y023985D02*
X034113Y023985D01*
X034113Y022985D02*
X033553Y022985D01*
X033553Y021985D02*
X034113Y021985D01*
X034113Y020985D02*
X033553Y020985D01*
X033553Y019985D02*
X034113Y019985D01*
X034113Y018985D02*
X033553Y018985D01*
X033553Y017985D02*
X034113Y017985D01*
X034113Y016985D02*
X033553Y016985D01*
X033553Y015985D02*
X034113Y015985D01*
X034113Y014985D02*
X033553Y014985D01*
X033553Y013985D02*
X034113Y013985D01*
X034113Y012985D02*
X033553Y012985D01*
X033553Y011985D02*
X034113Y011985D01*
X034113Y010985D02*
X033553Y010985D01*
X039553Y010985D02*
X040113Y010985D01*
X040113Y011985D02*
X039553Y011985D01*
X039553Y012985D02*
X040113Y012985D01*
X040113Y013985D02*
X039553Y013985D01*
X039553Y014985D02*
X040113Y014985D01*
X040113Y015985D02*
X039553Y015985D01*
X039553Y016985D02*
X040113Y016985D01*
X040113Y017985D02*
X039553Y017985D01*
X039553Y018985D02*
X040113Y018985D01*
X040113Y019985D02*
X039553Y019985D01*
X039553Y020985D02*
X040113Y020985D01*
X040113Y021985D02*
X039553Y021985D01*
X039553Y022985D02*
X040113Y022985D01*
X040113Y023985D02*
X039553Y023985D01*
X039553Y024985D02*
X040113Y024985D01*
X040113Y025985D02*
X039553Y025985D01*
X044553Y025985D02*
X045113Y025985D01*
X045113Y024985D02*
X044553Y024985D01*
X044553Y023985D02*
X045113Y023985D01*
X045113Y022985D02*
X044553Y022985D01*
X044553Y021985D02*
X045113Y021985D01*
X045113Y020985D02*
X044553Y020985D01*
X044553Y019985D02*
X045113Y019985D01*
X045113Y018985D02*
X044553Y018985D01*
X044553Y017985D02*
X045113Y017985D01*
X045113Y016985D02*
X044553Y016985D01*
X044553Y015985D02*
X045113Y015985D01*
X045113Y014985D02*
X044553Y014985D01*
X044553Y013985D02*
X045113Y013985D01*
X045113Y012985D02*
X044553Y012985D01*
X044553Y011985D02*
X045113Y011985D01*
X045113Y010985D02*
X044553Y010985D01*
X053583Y027580D02*
X053583Y028140D01*
X054583Y028140D02*
X054583Y027580D01*
X055583Y027580D02*
X055583Y028140D01*
X056583Y028140D02*
X056583Y027580D01*
X057583Y027580D02*
X057583Y028140D01*
X058583Y028140D02*
X058583Y027580D01*
X059583Y027580D02*
X059583Y028140D01*
X060583Y028140D02*
X060583Y027580D01*
X060583Y030580D02*
X060583Y031140D01*
X059583Y031140D02*
X059583Y030580D01*
X058583Y030580D02*
X058583Y031140D01*
X057583Y031140D02*
X057583Y030580D01*
X056583Y030580D02*
X056583Y031140D01*
X055583Y031140D02*
X055583Y030580D01*
X054583Y030580D02*
X054583Y031140D01*
X053583Y031140D02*
X053583Y030580D01*
X054178Y033110D02*
X054738Y033110D01*
X054738Y034110D02*
X054178Y034110D01*
X054178Y035110D02*
X054738Y035110D01*
X054738Y036110D02*
X054178Y036110D01*
X054178Y037110D02*
X054738Y037110D01*
X054738Y038110D02*
X054178Y038110D01*
X054178Y039110D02*
X054738Y039110D01*
X056553Y039110D02*
X057113Y039110D01*
X057113Y040110D02*
X056553Y040110D01*
X056553Y041110D02*
X057113Y041110D01*
X057113Y042110D02*
X056553Y042110D01*
X059553Y042110D02*
X060113Y042110D01*
X060113Y041110D02*
X059553Y041110D01*
X059553Y040110D02*
X060113Y040110D01*
X060113Y039110D02*
X059553Y039110D01*
X059553Y038110D02*
X060113Y038110D01*
X060113Y037110D02*
X059553Y037110D01*
X059553Y036110D02*
X060113Y036110D01*
X060113Y035110D02*
X059553Y035110D01*
X059553Y034110D02*
X060113Y034110D01*
X060113Y033110D02*
X059553Y033110D01*
X061678Y033110D02*
X062238Y033110D01*
X062238Y034110D02*
X061678Y034110D01*
X061678Y035110D02*
X062238Y035110D01*
X062238Y036110D02*
X061678Y036110D01*
X061678Y037110D02*
X062238Y037110D01*
X062238Y038110D02*
X061678Y038110D01*
X061678Y039110D02*
X062238Y039110D01*
X062238Y040110D02*
X061678Y040110D01*
X061678Y041110D02*
X062238Y041110D01*
X057113Y038110D02*
X056553Y038110D01*
X056553Y037110D02*
X057113Y037110D01*
X057113Y036110D02*
X056553Y036110D01*
X056553Y035110D02*
X057113Y035110D01*
X057113Y034110D02*
X056553Y034110D01*
X056553Y033110D02*
X057113Y033110D01*
X051738Y033110D02*
X051178Y033110D01*
X051178Y034110D02*
X051738Y034110D01*
X051738Y035110D02*
X051178Y035110D01*
X051178Y036110D02*
X051738Y036110D01*
X051738Y037110D02*
X051178Y037110D01*
X051178Y038110D02*
X051738Y038110D01*
X051738Y039110D02*
X051178Y039110D01*
X049363Y039110D02*
X048803Y039110D01*
X048803Y038110D02*
X049363Y038110D01*
X049363Y037110D02*
X048803Y037110D01*
X048803Y036110D02*
X049363Y036110D01*
X049363Y035110D02*
X048803Y035110D01*
X048803Y034110D02*
X049363Y034110D01*
X049363Y033110D02*
X048803Y033110D01*
X046363Y033110D02*
X045803Y033110D01*
X045803Y034110D02*
X046363Y034110D01*
X046363Y035110D02*
X045803Y035110D01*
X045803Y036110D02*
X046363Y036110D01*
X046363Y037110D02*
X045803Y037110D01*
X045803Y038110D02*
X046363Y038110D01*
X046363Y039110D02*
X045803Y039110D01*
X045458Y031140D02*
X045458Y030580D01*
X046458Y030580D02*
X046458Y031140D01*
X047458Y031140D02*
X047458Y030580D01*
X048458Y030580D02*
X048458Y031140D01*
X049458Y031140D02*
X049458Y030580D01*
X044458Y030580D02*
X044458Y031140D01*
X043458Y031140D02*
X043458Y030580D01*
X042458Y030580D02*
X042458Y031140D01*
D12*
X065833Y042610D03*
X060833Y010610D03*
D13*
X061833Y010610D03*
X063833Y011610D03*
X063833Y012610D03*
X063833Y013610D03*
X063833Y014610D03*
X063833Y015610D03*
X063833Y016610D03*
X063833Y017610D03*
X063833Y018610D03*
X063833Y019610D03*
X063833Y020610D03*
X063833Y021610D03*
X063833Y022610D03*
X063833Y023610D03*
X063833Y024610D03*
X063833Y025610D03*
X063833Y026610D03*
X063833Y027610D03*
X063833Y028610D03*
X063833Y029610D03*
X063833Y030610D03*
X063833Y031610D03*
X063833Y032610D03*
X063833Y033610D03*
X063833Y034610D03*
X063833Y035610D03*
X063833Y036610D03*
X063833Y037610D03*
X063833Y038610D03*
X063833Y039610D03*
X063833Y040610D03*
X063833Y041610D03*
X063833Y042610D03*
X065833Y041610D03*
X065833Y040610D03*
X065833Y039610D03*
X065833Y038610D03*
X065833Y037610D03*
X065833Y036610D03*
X065833Y035610D03*
X065833Y034610D03*
X065833Y033610D03*
X065833Y032610D03*
X065833Y031610D03*
X065833Y030610D03*
X065833Y029610D03*
X065833Y028610D03*
X065833Y027610D03*
X065833Y026610D03*
X065833Y025610D03*
X065833Y024610D03*
X065833Y023610D03*
X065833Y022610D03*
X065833Y021610D03*
X065833Y020610D03*
X065833Y019610D03*
X065833Y018610D03*
X065833Y017610D03*
X065833Y016610D03*
X065833Y015610D03*
X065833Y014610D03*
X065833Y013610D03*
X065833Y012610D03*
X065833Y011610D03*
D14*
X060583Y026485D03*
X058583Y026485D03*
X050708Y027860D03*
X050708Y029860D03*
X049083Y040110D03*
X049083Y042110D03*
X054458Y042110D03*
X054458Y040110D03*
X057833Y043485D03*
X059833Y043485D03*
X035833Y027610D03*
X033833Y027610D03*
X027333Y027610D03*
X025333Y027610D03*
X016833Y027610D03*
X014833Y027610D03*
X008333Y027610D03*
X006333Y027610D03*
X009083Y009735D03*
X011083Y009735D03*
X016833Y009735D03*
X018833Y009735D03*
X025333Y009735D03*
X027333Y009735D03*
X033833Y009735D03*
X035833Y009735D03*
X044833Y009735D03*
X046833Y009735D03*
D15*
X046233Y009735D01*
X046233Y009590D01*
X045433Y009590D01*
X045433Y009984D01*
X045313Y010104D01*
X045313Y010418D01*
X045453Y010476D01*
X045622Y010645D01*
X045713Y010866D01*
X045713Y011085D01*
X049177Y011085D01*
X049260Y011002D01*
X049470Y010915D01*
X049697Y010915D01*
X049906Y011002D01*
X049953Y011049D01*
X049953Y010866D01*
X050045Y010645D01*
X050213Y010476D01*
X050434Y010385D01*
X051233Y010385D01*
X051453Y010476D01*
X051622Y010645D01*
X051713Y010866D01*
X051713Y011104D01*
X051622Y011325D01*
X051462Y011485D01*
X051562Y011585D01*
X053427Y011585D01*
X053510Y011502D01*
X053720Y011415D01*
X053947Y011415D01*
X054156Y011502D01*
X054317Y011662D01*
X054403Y011872D01*
X054403Y012098D01*
X054317Y012308D01*
X054156Y012468D01*
X054139Y012475D01*
X055374Y013710D01*
X063198Y013710D01*
X063198Y013347D01*
X063435Y013110D01*
X063198Y012873D01*
X063198Y012347D01*
X063353Y012192D01*
X063353Y012090D01*
X061613Y012090D01*
X061436Y012017D01*
X060634Y011215D01*
X060474Y011148D01*
X060295Y010970D01*
X060198Y010736D01*
X060198Y010654D01*
X059135Y009590D01*
X047433Y009590D01*
X047433Y009735D01*
X046833Y009735D01*
X046833Y009735D01*
X046233Y009735D01*
X046233Y009984D01*
X046585Y010335D01*
X046833Y010335D01*
X046833Y009735D01*
X046833Y009735D01*
X046833Y010335D01*
X047082Y010335D01*
X047433Y009984D01*
X047433Y009735D01*
X046833Y009735D01*
X046833Y009735D01*
X046833Y009829D02*
X046833Y009829D01*
X046833Y009988D02*
X046833Y009988D01*
X046833Y010146D02*
X046833Y010146D01*
X046833Y010305D02*
X046833Y010305D01*
X046554Y010305D02*
X045313Y010305D01*
X045313Y010146D02*
X046396Y010146D01*
X046237Y009988D02*
X045429Y009988D01*
X045433Y009829D02*
X046233Y009829D01*
X046233Y009671D02*
X045433Y009671D01*
X045421Y010463D02*
X050246Y010463D01*
X050068Y010622D02*
X045598Y010622D01*
X045678Y010780D02*
X049989Y010780D01*
X049953Y010939D02*
X049753Y010939D01*
X049413Y010939D02*
X045713Y010939D01*
X044353Y010418D02*
X044353Y010104D01*
X044233Y009984D01*
X044233Y009590D01*
X036433Y009590D01*
X036433Y009735D01*
X035833Y009735D01*
X035233Y009735D01*
X035233Y009590D01*
X034433Y009590D01*
X034433Y009984D01*
X034313Y010104D01*
X034313Y010418D01*
X034453Y010476D01*
X034622Y010645D01*
X034713Y010866D01*
X034713Y011085D01*
X036293Y011085D01*
X036732Y010646D01*
X036879Y010585D01*
X039105Y010585D01*
X039213Y010476D01*
X039434Y010385D01*
X040233Y010385D01*
X040453Y010476D01*
X040622Y010645D01*
X040713Y010866D01*
X040713Y011085D01*
X043953Y011085D01*
X043953Y010866D01*
X044045Y010645D01*
X044213Y010476D01*
X044353Y010418D01*
X044353Y010305D02*
X036112Y010305D01*
X036082Y010335D02*
X035833Y010335D01*
X035585Y010335D01*
X035233Y009984D01*
X035233Y009735D01*
X035833Y009735D01*
X035833Y009735D01*
X035833Y010335D01*
X035833Y009735D01*
X035833Y009735D01*
X036433Y009735D01*
X036433Y009984D01*
X036082Y010335D01*
X035833Y010305D02*
X035833Y010305D01*
X035833Y010146D02*
X035833Y010146D01*
X035833Y009988D02*
X035833Y009988D01*
X035833Y009829D02*
X035833Y009829D01*
X035833Y009735D02*
X035833Y009735D01*
X035396Y010146D02*
X034313Y010146D01*
X034313Y010305D02*
X035554Y010305D01*
X035237Y009988D02*
X034429Y009988D01*
X034433Y009829D02*
X035233Y009829D01*
X035233Y009671D02*
X034433Y009671D01*
X033353Y010104D02*
X033233Y009984D01*
X033233Y009590D01*
X027933Y009590D01*
X027933Y009735D01*
X027933Y009984D01*
X027582Y010335D01*
X027333Y010335D01*
X027085Y010335D01*
X026733Y009984D01*
X026733Y009735D01*
X026733Y009590D01*
X025933Y009590D01*
X025933Y009984D01*
X025813Y010104D01*
X025813Y010418D01*
X025953Y010476D01*
X026122Y010645D01*
X026213Y010866D01*
X026213Y011085D01*
X027293Y011085D01*
X027732Y010646D01*
X027879Y010585D01*
X030605Y010585D01*
X030713Y010476D01*
X030934Y010385D01*
X031733Y010385D01*
X031953Y010476D01*
X032062Y010585D01*
X032413Y010585D01*
X032560Y010646D01*
X032672Y010758D01*
X032953Y011039D01*
X032953Y010866D01*
X033045Y010645D01*
X033213Y010476D01*
X033353Y010418D01*
X033353Y010104D01*
X033353Y010146D02*
X027771Y010146D01*
X027929Y009988D02*
X033237Y009988D01*
X033233Y009829D02*
X027933Y009829D01*
X027933Y009735D02*
X027333Y009735D01*
X026733Y009735D01*
X027333Y009735D01*
X027333Y009735D01*
X027333Y010335D01*
X027333Y009735D01*
X027333Y009735D01*
X027333Y009735D01*
X027933Y009735D01*
X027933Y009671D02*
X033233Y009671D01*
X033353Y010305D02*
X027612Y010305D01*
X027333Y010305D02*
X027333Y010305D01*
X027333Y010146D02*
X027333Y010146D01*
X027333Y009988D02*
X027333Y009988D01*
X027333Y009829D02*
X027333Y009829D01*
X026896Y010146D02*
X025813Y010146D01*
X025813Y010305D02*
X027054Y010305D01*
X026737Y009988D02*
X025929Y009988D01*
X025933Y009829D02*
X026733Y009829D01*
X026733Y009671D02*
X025933Y009671D01*
X024853Y010104D02*
X024733Y009984D01*
X024733Y009590D01*
X019433Y009590D01*
X019433Y009735D01*
X019433Y009984D01*
X019082Y010335D01*
X018833Y010335D01*
X018585Y010335D01*
X018233Y009984D01*
X018233Y009735D01*
X018233Y009590D01*
X017433Y009590D01*
X017433Y009984D01*
X017313Y010104D01*
X017313Y010418D01*
X017453Y010476D01*
X017622Y010645D01*
X017713Y010866D01*
X017713Y011085D01*
X019168Y011085D01*
X019607Y010646D01*
X019754Y010585D01*
X022105Y010585D01*
X022213Y010476D01*
X022434Y010385D01*
X023233Y010385D01*
X023453Y010476D01*
X023562Y010585D01*
X023788Y010585D01*
X023935Y010646D01*
X024047Y010758D01*
X024047Y010758D01*
X024374Y011085D01*
X024453Y011085D01*
X024453Y010866D01*
X024545Y010645D01*
X024713Y010476D01*
X024853Y010418D01*
X024853Y010104D01*
X024853Y010146D02*
X019271Y010146D01*
X019429Y009988D02*
X024737Y009988D01*
X024733Y009829D02*
X019433Y009829D01*
X019433Y009735D02*
X018833Y009735D01*
X018233Y009735D01*
X018833Y009735D01*
X018833Y009735D01*
X018833Y010335D01*
X018833Y009735D01*
X018833Y009735D01*
X018833Y009735D01*
X019433Y009735D01*
X019433Y009671D02*
X024733Y009671D01*
X024853Y010305D02*
X019112Y010305D01*
X018833Y010305D02*
X018833Y010305D01*
X018833Y010146D02*
X018833Y010146D01*
X018833Y009988D02*
X018833Y009988D01*
X018833Y009829D02*
X018833Y009829D01*
X018396Y010146D02*
X017313Y010146D01*
X017313Y010305D02*
X018554Y010305D01*
X018237Y009988D02*
X017429Y009988D01*
X017433Y009829D02*
X018233Y009829D01*
X018233Y009671D02*
X017433Y009671D01*
X016353Y010104D02*
X016233Y009984D01*
X016233Y009590D01*
X011683Y009590D01*
X011683Y009735D01*
X011083Y009735D01*
X010483Y009735D01*
X010483Y009590D01*
X009683Y009590D01*
X009683Y009984D01*
X009563Y010104D01*
X009563Y010330D01*
X009490Y010507D01*
X009355Y010642D01*
X009189Y010808D01*
X009213Y010866D01*
X009213Y011104D01*
X009122Y011325D01*
X008962Y011485D01*
X009062Y011585D01*
X010918Y011585D01*
X011357Y011146D01*
X011504Y011085D01*
X013453Y011085D01*
X013453Y010866D01*
X013545Y010645D01*
X013713Y010476D01*
X013934Y010385D01*
X014733Y010385D01*
X014953Y010476D01*
X015062Y010585D01*
X015663Y010585D01*
X015810Y010646D01*
X015922Y010758D01*
X015922Y010758D01*
X015976Y010812D01*
X016045Y010645D01*
X016213Y010476D01*
X016353Y010418D01*
X016353Y010104D01*
X016353Y010146D02*
X011521Y010146D01*
X011679Y009988D02*
X016237Y009988D01*
X016233Y009829D02*
X011683Y009829D01*
X011683Y009735D02*
X011683Y009984D01*
X011332Y010335D01*
X011083Y010335D01*
X010835Y010335D01*
X010483Y009984D01*
X010483Y009735D01*
X011083Y009735D01*
X011083Y009735D01*
X011083Y010335D01*
X011083Y009735D01*
X011083Y009735D01*
X011683Y009735D01*
X011683Y009671D02*
X016233Y009671D01*
X016353Y010305D02*
X011362Y010305D01*
X011083Y010305D02*
X011083Y010305D01*
X011083Y010146D02*
X011083Y010146D01*
X011083Y009988D02*
X011083Y009988D01*
X011083Y009829D02*
X011083Y009829D01*
X011083Y009735D02*
X011083Y009735D01*
X010646Y010146D02*
X009563Y010146D01*
X009563Y010305D02*
X010804Y010305D01*
X010487Y009988D02*
X009679Y009988D01*
X009683Y009829D02*
X010483Y009829D01*
X010483Y009671D02*
X009683Y009671D01*
X008738Y008630D02*
X008561Y008703D01*
X006551Y010713D01*
X006478Y010890D01*
X006478Y027010D01*
X006333Y027010D01*
X006333Y027610D01*
X005733Y027610D01*
X005733Y027361D01*
X006085Y027010D01*
X006333Y027010D01*
X006333Y027610D01*
X006333Y027610D01*
X005733Y027610D01*
X005733Y027859D01*
X006085Y028210D01*
X006333Y028210D01*
X006333Y027610D01*
X006333Y027610D01*
X006333Y027610D01*
X006333Y028210D01*
X006478Y028210D01*
X006478Y043455D01*
X006551Y043632D01*
X006657Y043737D01*
X006518Y043680D01*
X006148Y043680D01*
X005807Y043822D01*
X005545Y044083D01*
X005403Y044425D01*
X005403Y044795D01*
X005545Y045137D01*
X005807Y045398D01*
X006148Y045540D01*
X006518Y045540D01*
X006860Y045398D01*
X007122Y045137D01*
X007263Y044795D01*
X007263Y044425D01*
X007206Y044286D01*
X008176Y045257D01*
X008176Y045257D01*
X008311Y045392D01*
X008488Y045465D01*
X058429Y045465D01*
X058605Y045392D01*
X058740Y045257D01*
X059912Y044085D01*
X060082Y044085D01*
X060433Y043734D01*
X060433Y043236D01*
X060332Y043135D01*
X061913Y043135D01*
X062060Y043074D01*
X062172Y042962D01*
X063230Y041904D01*
X063435Y042110D01*
X063198Y042347D01*
X063198Y042600D01*
X063823Y042600D01*
X063823Y042620D01*
X063198Y042620D01*
X063198Y042873D01*
X063570Y043245D01*
X063823Y043245D01*
X063823Y042620D01*
X063843Y042620D01*
X063843Y043245D01*
X064096Y043245D01*
X064468Y042873D01*
X064468Y042620D01*
X063843Y042620D01*
X063843Y042600D01*
X063843Y041620D01*
X063823Y041620D01*
X063823Y042245D01*
X063823Y042600D01*
X063843Y042600D01*
X064468Y042600D01*
X064468Y042347D01*
X064231Y042110D01*
X064468Y041873D01*
X064468Y041620D01*
X063843Y041620D01*
X063843Y041600D01*
X064468Y041600D01*
X064468Y041510D01*
X065198Y041510D01*
X065198Y041600D01*
X065823Y041600D01*
X065823Y041620D01*
X065198Y041620D01*
X065198Y041873D01*
X065438Y042112D01*
X065420Y042126D01*
X065349Y042196D01*
X065290Y042277D01*
X065245Y042366D01*
X065214Y042461D01*
X065198Y042560D01*
X065198Y042600D01*
X065823Y042600D01*
X065823Y042620D01*
X065198Y042620D01*
X065198Y042660D01*
X065214Y042759D01*
X065245Y042854D01*
X065290Y042943D01*
X065349Y043024D01*
X065420Y043094D01*
X065501Y043153D01*
X065590Y043198D01*
X065685Y043229D01*
X065783Y043245D01*
X065823Y043245D01*
X065823Y042620D01*
X065843Y042620D01*
X065843Y043245D01*
X065883Y043245D01*
X065982Y043229D01*
X066077Y043198D01*
X066166Y043153D01*
X066247Y043094D01*
X066318Y043024D01*
X066376Y042943D01*
X066422Y042854D01*
X066453Y042759D01*
X066468Y042660D01*
X066468Y042620D01*
X065843Y042620D01*
X065843Y042600D01*
X065843Y041620D01*
X065823Y041620D01*
X065823Y041975D01*
X065823Y042600D01*
X065843Y042600D01*
X066468Y042600D01*
X066468Y042560D01*
X066453Y042461D01*
X066422Y042366D01*
X066376Y042277D01*
X066318Y042196D01*
X066247Y042126D01*
X066229Y042112D01*
X066468Y041873D01*
X066468Y041620D01*
X065843Y041620D01*
X065843Y041600D01*
X066468Y041600D01*
X066468Y041487D01*
X066560Y041449D01*
X066672Y041337D01*
X067172Y040837D01*
X067233Y040690D01*
X067233Y022280D01*
X067172Y022133D01*
X067060Y022021D01*
X066810Y021771D01*
X066663Y021710D01*
X066468Y021710D01*
X066468Y021541D01*
X066797Y021212D01*
X066858Y021065D01*
X066858Y014405D01*
X066797Y014258D01*
X066685Y014146D01*
X066440Y013901D01*
X066468Y013873D01*
X066468Y013347D01*
X066231Y013110D01*
X066468Y012873D01*
X066468Y012347D01*
X066313Y012192D01*
X066313Y012028D01*
X066468Y011873D01*
X066468Y011347D01*
X066096Y010975D01*
X065570Y010975D01*
X065415Y011130D01*
X064251Y011130D01*
X064096Y010975D01*
X063570Y010975D01*
X063415Y011130D01*
X062211Y011130D01*
X062468Y010873D01*
X062468Y010610D01*
X061833Y010610D01*
X061833Y010610D01*
X061833Y009975D01*
X061570Y009975D01*
X061333Y010212D01*
X061193Y010072D01*
X060960Y009975D01*
X060877Y009975D01*
X059740Y008838D01*
X059605Y008703D01*
X059429Y008630D01*
X008738Y008630D01*
X008545Y008720D02*
X006614Y008720D01*
X006518Y008680D02*
X006860Y008822D01*
X007122Y009083D01*
X007263Y009425D01*
X007263Y009795D01*
X007122Y010137D01*
X006860Y010398D01*
X006518Y010540D01*
X006148Y010540D01*
X005807Y010398D01*
X005545Y010137D01*
X005403Y009795D01*
X005403Y009425D01*
X005545Y009083D01*
X005807Y008822D01*
X006148Y008680D01*
X006518Y008680D01*
X006917Y008878D02*
X008387Y008878D01*
X008228Y009037D02*
X007075Y009037D01*
X007168Y009195D02*
X008070Y009195D01*
X007911Y009354D02*
X007234Y009354D01*
X007263Y009512D02*
X007753Y009512D01*
X007594Y009671D02*
X007263Y009671D01*
X007249Y009829D02*
X007436Y009829D01*
X007277Y009988D02*
X007184Y009988D01*
X007119Y010146D02*
X007113Y010146D01*
X006960Y010305D02*
X006954Y010305D01*
X006802Y010463D02*
X006704Y010463D01*
X006643Y010622D02*
X005313Y010622D01*
X005313Y010780D02*
X006524Y010780D01*
X006478Y010939D02*
X005313Y010939D01*
X005313Y011097D02*
X006478Y011097D01*
X006478Y011256D02*
X005313Y011256D01*
X005313Y011414D02*
X006478Y011414D01*
X006478Y011573D02*
X005313Y011573D01*
X005313Y011731D02*
X006478Y011731D01*
X006478Y011890D02*
X005313Y011890D01*
X005313Y012048D02*
X006478Y012048D01*
X006478Y012207D02*
X005313Y012207D01*
X005313Y012365D02*
X006478Y012365D01*
X006478Y012524D02*
X005313Y012524D01*
X005313Y012682D02*
X006478Y012682D01*
X006478Y012841D02*
X005313Y012841D01*
X005313Y012999D02*
X006478Y012999D01*
X006478Y013158D02*
X005313Y013158D01*
X005313Y013316D02*
X006478Y013316D01*
X006478Y013475D02*
X005313Y013475D01*
X005313Y013633D02*
X006478Y013633D01*
X006478Y013792D02*
X005313Y013792D01*
X005313Y013950D02*
X006478Y013950D01*
X006478Y014109D02*
X005313Y014109D01*
X005313Y014267D02*
X006478Y014267D01*
X006478Y014426D02*
X005313Y014426D01*
X005313Y014584D02*
X006478Y014584D01*
X006478Y014743D02*
X005313Y014743D01*
X005313Y014901D02*
X006478Y014901D01*
X006478Y015060D02*
X005313Y015060D01*
X005313Y015218D02*
X006478Y015218D01*
X006478Y015377D02*
X005313Y015377D01*
X005313Y015535D02*
X006478Y015535D01*
X006478Y015694D02*
X005313Y015694D01*
X005313Y015852D02*
X006478Y015852D01*
X006478Y016011D02*
X005313Y016011D01*
X005313Y016169D02*
X006478Y016169D01*
X006478Y016328D02*
X005313Y016328D01*
X005313Y016486D02*
X006478Y016486D01*
X006478Y016645D02*
X005313Y016645D01*
X005313Y016803D02*
X006478Y016803D01*
X006478Y016962D02*
X005313Y016962D01*
X005313Y017120D02*
X006478Y017120D01*
X006478Y017279D02*
X005313Y017279D01*
X005313Y017437D02*
X006478Y017437D01*
X006478Y017596D02*
X005313Y017596D01*
X005313Y017754D02*
X006478Y017754D01*
X006478Y017913D02*
X005313Y017913D01*
X005313Y018071D02*
X006478Y018071D01*
X006478Y018230D02*
X005313Y018230D01*
X005313Y018388D02*
X006478Y018388D01*
X006478Y018547D02*
X005313Y018547D01*
X005313Y018705D02*
X006478Y018705D01*
X006478Y018864D02*
X005313Y018864D01*
X005313Y019022D02*
X006478Y019022D01*
X006478Y019181D02*
X005313Y019181D01*
X005313Y019339D02*
X006478Y019339D01*
X006478Y019498D02*
X005313Y019498D01*
X005313Y019656D02*
X006478Y019656D01*
X006478Y019815D02*
X005313Y019815D01*
X005313Y019973D02*
X006478Y019973D01*
X006478Y020132D02*
X005313Y020132D01*
X005313Y020290D02*
X006478Y020290D01*
X006478Y020449D02*
X005313Y020449D01*
X005313Y020607D02*
X006478Y020607D01*
X006478Y020766D02*
X005313Y020766D01*
X005313Y020924D02*
X006478Y020924D01*
X006478Y021083D02*
X005313Y021083D01*
X005313Y021241D02*
X006478Y021241D01*
X006478Y021400D02*
X005313Y021400D01*
X005313Y021558D02*
X006478Y021558D01*
X006478Y021717D02*
X005313Y021717D01*
X005313Y021875D02*
X006478Y021875D01*
X006478Y022034D02*
X005313Y022034D01*
X005313Y022192D02*
X006478Y022192D01*
X006478Y022351D02*
X005313Y022351D01*
X005313Y022509D02*
X006478Y022509D01*
X006478Y022668D02*
X005313Y022668D01*
X005313Y022826D02*
X006478Y022826D01*
X006478Y022985D02*
X005313Y022985D01*
X005313Y023143D02*
X006478Y023143D01*
X006478Y023302D02*
X005313Y023302D01*
X005313Y023460D02*
X006478Y023460D01*
X006478Y023619D02*
X005313Y023619D01*
X005313Y023777D02*
X006478Y023777D01*
X006478Y023936D02*
X005313Y023936D01*
X005313Y024094D02*
X006478Y024094D01*
X006478Y024253D02*
X005313Y024253D01*
X005313Y024411D02*
X006478Y024411D01*
X006478Y024570D02*
X005313Y024570D01*
X005313Y024728D02*
X006478Y024728D01*
X006478Y024887D02*
X005313Y024887D01*
X005313Y025045D02*
X006478Y025045D01*
X006478Y025204D02*
X005313Y025204D01*
X005313Y025362D02*
X006478Y025362D01*
X006478Y025521D02*
X005313Y025521D01*
X005313Y025679D02*
X006478Y025679D01*
X006478Y025838D02*
X005313Y025838D01*
X005313Y025996D02*
X006478Y025996D01*
X006478Y026155D02*
X005313Y026155D01*
X005313Y026313D02*
X006478Y026313D01*
X006478Y026472D02*
X005313Y026472D01*
X005313Y026630D02*
X006478Y026630D01*
X006478Y026789D02*
X005313Y026789D01*
X005313Y026947D02*
X006478Y026947D01*
X006333Y027106D02*
X006333Y027106D01*
X006333Y027264D02*
X006333Y027264D01*
X006333Y027423D02*
X006333Y027423D01*
X006333Y027581D02*
X006333Y027581D01*
X006333Y027740D02*
X006333Y027740D01*
X006333Y027898D02*
X006333Y027898D01*
X006333Y028057D02*
X006333Y028057D01*
X006478Y028215D02*
X005313Y028215D01*
X005313Y028057D02*
X005931Y028057D01*
X005773Y027898D02*
X005313Y027898D01*
X005313Y027740D02*
X005733Y027740D01*
X005733Y027581D02*
X005313Y027581D01*
X005313Y027423D02*
X005733Y027423D01*
X005831Y027264D02*
X005313Y027264D01*
X005313Y027106D02*
X005989Y027106D01*
X006478Y028374D02*
X005313Y028374D01*
X005313Y028532D02*
X006478Y028532D01*
X006478Y028691D02*
X005313Y028691D01*
X005313Y028849D02*
X006478Y028849D01*
X006478Y029008D02*
X005313Y029008D01*
X005313Y029166D02*
X006478Y029166D01*
X006478Y029325D02*
X005313Y029325D01*
X005313Y029483D02*
X006478Y029483D01*
X006478Y029642D02*
X005313Y029642D01*
X005313Y029800D02*
X006478Y029800D01*
X006478Y029959D02*
X005313Y029959D01*
X005313Y030117D02*
X006478Y030117D01*
X006478Y030276D02*
X005313Y030276D01*
X005313Y030434D02*
X006478Y030434D01*
X006478Y030593D02*
X005313Y030593D01*
X005313Y030751D02*
X006478Y030751D01*
X006478Y030910D02*
X005313Y030910D01*
X005313Y031068D02*
X006478Y031068D01*
X006478Y031227D02*
X005313Y031227D01*
X005313Y031385D02*
X006478Y031385D01*
X006478Y031544D02*
X005313Y031544D01*
X005313Y031702D02*
X006478Y031702D01*
X006478Y031861D02*
X005313Y031861D01*
X005313Y032019D02*
X006478Y032019D01*
X006478Y032178D02*
X005313Y032178D01*
X005313Y032336D02*
X006478Y032336D01*
X006478Y032495D02*
X005313Y032495D01*
X005313Y032653D02*
X006478Y032653D01*
X006478Y032812D02*
X005313Y032812D01*
X005313Y032970D02*
X006478Y032970D01*
X006478Y033129D02*
X005313Y033129D01*
X005313Y033287D02*
X006478Y033287D01*
X006478Y033446D02*
X005313Y033446D01*
X005313Y033604D02*
X006478Y033604D01*
X006478Y033763D02*
X005313Y033763D01*
X005313Y033921D02*
X006478Y033921D01*
X006478Y034080D02*
X005313Y034080D01*
X005313Y034238D02*
X006478Y034238D01*
X006478Y034397D02*
X005313Y034397D01*
X005313Y034555D02*
X006478Y034555D01*
X006478Y034714D02*
X005313Y034714D01*
X005313Y034872D02*
X006478Y034872D01*
X006478Y035031D02*
X005313Y035031D01*
X005313Y035189D02*
X006478Y035189D01*
X006478Y035348D02*
X005313Y035348D01*
X005313Y035506D02*
X006478Y035506D01*
X006478Y035665D02*
X005313Y035665D01*
X005313Y035823D02*
X006478Y035823D01*
X006478Y035982D02*
X005313Y035982D01*
X005313Y036140D02*
X006478Y036140D01*
X006478Y036299D02*
X005313Y036299D01*
X005313Y036457D02*
X006478Y036457D01*
X006478Y036616D02*
X005313Y036616D01*
X005313Y036774D02*
X006478Y036774D01*
X006478Y036933D02*
X005313Y036933D01*
X005313Y037091D02*
X006478Y037091D01*
X006478Y037250D02*
X005313Y037250D01*
X005313Y037408D02*
X006478Y037408D01*
X006478Y037567D02*
X005313Y037567D01*
X005313Y037725D02*
X006478Y037725D01*
X006478Y037884D02*
X005313Y037884D01*
X005313Y038042D02*
X006478Y038042D01*
X006478Y038201D02*
X005313Y038201D01*
X005313Y038359D02*
X006478Y038359D01*
X006478Y038518D02*
X005313Y038518D01*
X005313Y038676D02*
X006478Y038676D01*
X006478Y038835D02*
X005313Y038835D01*
X005313Y038993D02*
X006478Y038993D01*
X006478Y039152D02*
X005313Y039152D01*
X005313Y039310D02*
X006478Y039310D01*
X006478Y039469D02*
X005313Y039469D01*
X005313Y039627D02*
X006478Y039627D01*
X006478Y039786D02*
X005313Y039786D01*
X005313Y039944D02*
X006478Y039944D01*
X006478Y040103D02*
X005313Y040103D01*
X005313Y040261D02*
X006478Y040261D01*
X006478Y040420D02*
X005313Y040420D01*
X005313Y040578D02*
X006478Y040578D01*
X006478Y040737D02*
X005313Y040737D01*
X005313Y040895D02*
X006478Y040895D01*
X006478Y041054D02*
X005313Y041054D01*
X005313Y041212D02*
X006478Y041212D01*
X006478Y041371D02*
X005313Y041371D01*
X005313Y041529D02*
X006478Y041529D01*
X006478Y041688D02*
X005313Y041688D01*
X005313Y041846D02*
X006478Y041846D01*
X006478Y042005D02*
X005313Y042005D01*
X005313Y042163D02*
X006478Y042163D01*
X006478Y042322D02*
X005313Y042322D01*
X005313Y042480D02*
X006478Y042480D01*
X006478Y042639D02*
X005313Y042639D01*
X005313Y042797D02*
X006478Y042797D01*
X006478Y042956D02*
X005313Y042956D01*
X005313Y043114D02*
X006478Y043114D01*
X006478Y043273D02*
X005313Y043273D01*
X005313Y043431D02*
X006478Y043431D01*
X006534Y043590D02*
X005313Y043590D01*
X005313Y043748D02*
X005984Y043748D01*
X005722Y043907D02*
X005313Y043907D01*
X005313Y044065D02*
X005563Y044065D01*
X005487Y044224D02*
X005313Y044224D01*
X005313Y044382D02*
X005421Y044382D01*
X005403Y044541D02*
X005313Y044541D01*
X005313Y044699D02*
X005403Y044699D01*
X005429Y044858D02*
X005313Y044858D01*
X005313Y045016D02*
X005495Y045016D01*
X005583Y045175D02*
X005313Y045175D01*
X005313Y045333D02*
X005741Y045333D01*
X006031Y045492D02*
X005313Y045492D01*
X005313Y045650D02*
X067445Y045650D01*
X067445Y045492D02*
X067135Y045492D01*
X067018Y045540D02*
X066648Y045540D01*
X066307Y045398D01*
X066045Y045137D01*
X065903Y044795D01*
X065903Y044425D01*
X066045Y044083D01*
X066307Y043822D01*
X066648Y043680D01*
X067018Y043680D01*
X067360Y043822D01*
X067445Y043907D01*
X067445Y043907D01*
X067445Y010313D01*
X067360Y010398D01*
X067018Y010540D01*
X066648Y010540D01*
X066307Y010398D01*
X066045Y010137D01*
X065903Y009795D01*
X065903Y009425D01*
X066045Y009083D01*
X066307Y008822D01*
X066648Y008680D01*
X067018Y008680D01*
X067360Y008822D01*
X067445Y008907D01*
X067445Y007990D01*
X005313Y007990D01*
X005313Y046420D01*
X067445Y046420D01*
X067445Y045313D01*
X067360Y045398D01*
X067018Y045540D01*
X067425Y045333D02*
X067445Y045333D01*
X067445Y045809D02*
X005313Y045809D01*
X005313Y045967D02*
X067445Y045967D01*
X067445Y046126D02*
X005313Y046126D01*
X005313Y046284D02*
X067445Y046284D01*
X066531Y045492D02*
X006635Y045492D01*
X006925Y045333D02*
X008253Y045333D01*
X008094Y045175D02*
X007084Y045175D01*
X007172Y045016D02*
X007936Y045016D01*
X007777Y044858D02*
X007237Y044858D01*
X007263Y044699D02*
X007619Y044699D01*
X007460Y044541D02*
X007263Y044541D01*
X007246Y044382D02*
X007302Y044382D01*
X008487Y044210D02*
X008782Y044505D01*
X049478Y044505D01*
X049478Y042564D01*
X049332Y042710D01*
X049083Y042710D01*
X048835Y042710D01*
X048483Y042359D01*
X048483Y042110D01*
X048483Y041861D01*
X048835Y041510D01*
X049083Y041510D01*
X049083Y042110D01*
X048483Y042110D01*
X049083Y042110D01*
X049083Y042110D01*
X049083Y042110D01*
X049083Y042710D01*
X049083Y042110D01*
X049083Y042110D01*
X049083Y041510D01*
X049332Y041510D01*
X049478Y041656D01*
X049478Y041184D01*
X049005Y040710D01*
X048835Y040710D01*
X048483Y040359D01*
X048483Y039861D01*
X048603Y039741D01*
X048603Y039677D01*
X048463Y039619D01*
X048295Y039450D01*
X048203Y039229D01*
X048203Y038991D01*
X048246Y038888D01*
X047797Y039337D01*
X047685Y039449D01*
X047538Y039510D01*
X046812Y039510D01*
X046703Y039619D01*
X046483Y039710D01*
X045684Y039710D01*
X045463Y039619D01*
X045295Y039450D01*
X045203Y039229D01*
X045203Y038991D01*
X045295Y038770D01*
X045455Y038610D01*
X045295Y038450D01*
X045203Y038229D01*
X045203Y037991D01*
X045295Y037770D01*
X045455Y037610D01*
X045295Y037450D01*
X045203Y037229D01*
X045203Y036991D01*
X045295Y036770D01*
X045455Y036610D01*
X045295Y036450D01*
X045203Y036229D01*
X045203Y035991D01*
X045295Y035770D01*
X045455Y035610D01*
X045295Y035450D01*
X045203Y035229D01*
X045203Y034991D01*
X045295Y034770D01*
X045455Y034610D01*
X045295Y034450D01*
X045203Y034229D01*
X045203Y033991D01*
X045295Y033770D01*
X045462Y033603D01*
X045412Y033568D01*
X045346Y033501D01*
X045290Y033424D01*
X045247Y033340D01*
X045218Y033250D01*
X045203Y033157D01*
X045203Y033110D01*
X045203Y033063D01*
X045218Y032969D01*
X045247Y032880D01*
X045290Y032796D01*
X045346Y032719D01*
X045412Y032652D01*
X045489Y032597D01*
X045573Y032554D01*
X045663Y032525D01*
X045756Y032510D01*
X046083Y032510D01*
X046083Y033110D01*
X045203Y033110D01*
X046083Y033110D01*
X046083Y033110D01*
X046083Y033110D01*
X046083Y032510D01*
X046411Y032510D01*
X046504Y032525D01*
X046594Y032554D01*
X046678Y032597D01*
X046754Y032652D01*
X046821Y032719D01*
X046876Y032796D01*
X046919Y032880D01*
X046949Y032969D01*
X046963Y033063D01*
X046963Y033110D01*
X046963Y033157D01*
X046949Y033250D01*
X046919Y033340D01*
X046876Y033424D01*
X046821Y033501D01*
X046754Y033568D01*
X046705Y033603D01*
X046872Y033770D01*
X046963Y033991D01*
X046963Y034229D01*
X046921Y034332D01*
X047183Y034069D01*
X047183Y032530D01*
X047244Y032383D01*
X047357Y032271D01*
X048049Y031579D01*
X047958Y031489D01*
X047798Y031649D01*
X047578Y031740D01*
X047339Y031740D01*
X047118Y031649D01*
X046952Y031482D01*
X046916Y031531D01*
X046849Y031598D01*
X046773Y031653D01*
X046689Y031696D01*
X046599Y031725D01*
X046506Y031740D01*
X046458Y031740D01*
X046411Y031740D01*
X046318Y031725D01*
X046228Y031696D01*
X046144Y031653D01*
X046067Y031598D01*
X046001Y031531D01*
X045958Y031473D01*
X045916Y031531D01*
X045849Y031598D01*
X045773Y031653D01*
X045689Y031696D01*
X045599Y031725D01*
X045506Y031740D01*
X045458Y031740D01*
X045411Y031740D01*
X045318Y031725D01*
X045228Y031696D01*
X045144Y031653D01*
X045067Y031598D01*
X045001Y031531D01*
X044965Y031482D01*
X044798Y031649D01*
X044578Y031740D01*
X044339Y031740D01*
X044118Y031649D01*
X043958Y031489D01*
X043858Y031589D01*
X043858Y037194D01*
X044060Y037396D01*
X044172Y037508D01*
X044233Y037655D01*
X044233Y042579D01*
X044317Y042662D01*
X044403Y042872D01*
X044403Y043098D01*
X044317Y043308D01*
X044156Y043468D01*
X043947Y043555D01*
X043720Y043555D01*
X043510Y043468D01*
X043396Y043354D01*
X043281Y043468D01*
X043072Y043555D01*
X042845Y043555D01*
X042635Y043468D01*
X042475Y043308D01*
X042388Y043098D01*
X042388Y042872D01*
X042475Y042662D01*
X042558Y042579D01*
X042558Y031732D01*
X042506Y031740D01*
X042458Y031740D01*
X042411Y031740D01*
X042318Y031725D01*
X042228Y031696D01*
X042144Y031653D01*
X042067Y031598D01*
X042001Y031531D01*
X041945Y031454D01*
X041902Y031370D01*
X041873Y031280D01*
X041858Y031187D01*
X041858Y030860D01*
X041858Y030533D01*
X041873Y030439D01*
X041902Y030350D01*
X041945Y030266D01*
X042001Y030189D01*
X042067Y030122D01*
X042144Y030067D01*
X042228Y030024D01*
X042318Y029995D01*
X042411Y029980D01*
X042458Y029980D01*
X042458Y030860D01*
X041858Y030860D01*
X042458Y030860D01*
X042458Y030860D01*
X042458Y030860D01*
X042458Y031740D01*
X042458Y030860D01*
X042458Y030860D01*
X042458Y029980D01*
X042506Y029980D01*
X042558Y029988D01*
X042558Y029030D01*
X042619Y028883D01*
X042732Y028771D01*
X042986Y028516D01*
X042958Y028489D01*
X042798Y028649D01*
X042578Y028740D01*
X042339Y028740D01*
X042118Y028649D01*
X041950Y028480D01*
X041859Y028260D01*
X041749Y028260D01*
X041560Y028449D01*
X041413Y028510D01*
X040713Y028510D01*
X040713Y028729D01*
X040622Y028950D01*
X040462Y029110D01*
X040622Y029270D01*
X040713Y029491D01*
X040713Y029729D01*
X040622Y029950D01*
X040462Y030110D01*
X040622Y030270D01*
X040713Y030491D01*
X040713Y030729D01*
X040622Y030950D01*
X040462Y031110D01*
X040622Y031270D01*
X040713Y031491D01*
X040713Y031729D01*
X040622Y031950D01*
X040462Y032110D01*
X040622Y032270D01*
X040713Y032491D01*
X040713Y032729D01*
X040622Y032950D01*
X040462Y033110D01*
X040622Y033270D01*
X040713Y033491D01*
X040713Y033729D01*
X040622Y033950D01*
X040462Y034110D01*
X040622Y034270D01*
X040713Y034491D01*
X040713Y034729D01*
X040622Y034950D01*
X040462Y035110D01*
X040622Y035270D01*
X040713Y035491D01*
X040713Y035729D01*
X040622Y035950D01*
X040462Y036110D01*
X040622Y036270D01*
X040713Y036491D01*
X040713Y036729D01*
X040622Y036950D01*
X040462Y037110D01*
X040622Y037270D01*
X040713Y037491D01*
X040713Y037729D01*
X040622Y037950D01*
X040462Y038110D01*
X040622Y038270D01*
X040713Y038491D01*
X040713Y038729D01*
X040622Y038950D01*
X040462Y039110D01*
X040622Y039270D01*
X040713Y039491D01*
X040713Y039729D01*
X040622Y039950D01*
X040462Y040110D01*
X040622Y040270D01*
X040713Y040491D01*
X040713Y040729D01*
X040622Y040950D01*
X040462Y041110D01*
X040622Y041270D01*
X040713Y041491D01*
X040713Y041729D01*
X040622Y041950D01*
X040462Y042110D01*
X040622Y042270D01*
X040713Y042491D01*
X040713Y042729D01*
X040622Y042950D01*
X040455Y043117D01*
X040504Y043152D01*
X040571Y043219D01*
X040626Y043296D01*
X040669Y043380D01*
X040699Y043469D01*
X040713Y043563D01*
X040713Y043610D01*
X040713Y043657D01*
X040699Y043750D01*
X040669Y043840D01*
X040626Y043924D01*
X040571Y044001D01*
X040504Y044068D01*
X040428Y044123D01*
X040344Y044166D01*
X040254Y044195D01*
X040161Y044210D01*
X039833Y044210D01*
X039506Y044210D01*
X039413Y044195D01*
X039323Y044166D01*
X039239Y044123D01*
X039162Y044068D01*
X039096Y044001D01*
X039040Y043924D01*
X038997Y043840D01*
X038968Y043750D01*
X038953Y043657D01*
X038953Y043610D01*
X038953Y043563D01*
X038968Y043469D01*
X038997Y043380D01*
X039040Y043296D01*
X039096Y043219D01*
X039162Y043152D01*
X039212Y043117D01*
X039105Y043010D01*
X037124Y043010D01*
X036797Y043337D01*
X036685Y043449D01*
X036538Y043510D01*
X034713Y043510D01*
X034713Y043729D01*
X034622Y043950D01*
X034453Y044119D01*
X034233Y044210D01*
X033434Y044210D01*
X033213Y044119D01*
X033105Y044010D01*
X032754Y044010D01*
X032607Y043949D01*
X032212Y043554D01*
X032213Y043563D01*
X032213Y043610D01*
X032213Y043657D01*
X032199Y043750D01*
X032169Y043840D01*
X032126Y043924D01*
X032071Y044001D01*
X032004Y044068D01*
X031928Y044123D01*
X031844Y044166D01*
X031754Y044195D01*
X031661Y044210D01*
X031333Y044210D01*
X031006Y044210D01*
X030913Y044195D01*
X030823Y044166D01*
X030739Y044123D01*
X030662Y044068D01*
X030596Y044001D01*
X030540Y043924D01*
X030497Y043840D01*
X030468Y043750D01*
X030453Y043657D01*
X030453Y043610D01*
X030453Y043563D01*
X030462Y043510D01*
X028124Y043510D01*
X027797Y043837D01*
X027685Y043949D01*
X027538Y044010D01*
X026062Y044010D01*
X025953Y044119D01*
X025733Y044210D01*
X024934Y044210D01*
X024713Y044119D01*
X024605Y044010D01*
X024129Y044010D01*
X023982Y043949D01*
X023710Y043677D01*
X023699Y043750D01*
X023669Y043840D01*
X023626Y043924D01*
X023571Y044001D01*
X023504Y044068D01*
X023428Y044123D01*
X023344Y044166D01*
X023254Y044195D01*
X023161Y044210D01*
X022833Y044210D01*
X022506Y044210D01*
X022413Y044195D01*
X022323Y044166D01*
X022239Y044123D01*
X022162Y044068D01*
X022096Y044001D01*
X022040Y043924D01*
X021997Y043840D01*
X021968Y043750D01*
X021953Y043657D01*
X021953Y043610D01*
X021953Y043563D01*
X021962Y043510D01*
X019999Y043510D01*
X019672Y043837D01*
X019560Y043949D01*
X019413Y044010D01*
X017562Y044010D01*
X017453Y044119D01*
X017233Y044210D01*
X016434Y044210D01*
X016213Y044119D01*
X016105Y044010D01*
X015879Y044010D01*
X015732Y043949D01*
X015293Y043510D01*
X015205Y043510D01*
X015213Y043563D01*
X015213Y043610D01*
X015213Y043657D01*
X015199Y043750D01*
X015169Y043840D01*
X015126Y043924D01*
X015071Y044001D01*
X015004Y044068D01*
X014928Y044123D01*
X014844Y044166D01*
X014754Y044195D01*
X014661Y044210D01*
X014333Y044210D01*
X014006Y044210D01*
X013913Y044195D01*
X013823Y044166D01*
X013739Y044123D01*
X013662Y044068D01*
X013596Y044001D01*
X013540Y043924D01*
X013497Y043840D01*
X013468Y043750D01*
X013453Y043657D01*
X013453Y043610D01*
X013453Y043563D01*
X013462Y043510D01*
X011749Y043510D01*
X011310Y043949D01*
X011163Y044010D01*
X009062Y044010D01*
X008953Y044119D01*
X008733Y044210D01*
X008487Y044210D01*
X008501Y044224D02*
X049478Y044224D01*
X049478Y044382D02*
X008659Y044382D01*
X009007Y044065D02*
X013660Y044065D01*
X013531Y043907D02*
X011352Y043907D01*
X011511Y043748D02*
X013468Y043748D01*
X013453Y043610D02*
X014333Y043610D01*
X013453Y043610D01*
X013453Y043590D02*
X011669Y043590D01*
X011583Y043110D02*
X011083Y043610D01*
X008333Y043610D01*
X008333Y042610D02*
X011083Y042610D01*
X011583Y042110D01*
X015583Y042110D01*
X016083Y042610D01*
X016833Y042610D01*
X019333Y042610D01*
X019833Y042110D01*
X023708Y042110D01*
X024208Y042610D01*
X025333Y042610D01*
X027458Y042610D01*
X027958Y042110D01*
X032333Y042110D01*
X032833Y042610D01*
X033833Y042610D01*
X032833Y042110D02*
X032333Y041610D01*
X031333Y041610D01*
X027958Y041610D01*
X027458Y042110D01*
X024208Y042110D01*
X023708Y041610D01*
X022833Y041610D01*
X019833Y041610D01*
X019333Y042110D01*
X016083Y042110D01*
X015583Y041610D01*
X014333Y041610D01*
X015583Y041110D02*
X011583Y041110D01*
X011083Y041610D01*
X008333Y041610D01*
X008333Y040610D02*
X011083Y040610D01*
X011583Y040110D01*
X015583Y040110D01*
X016083Y040610D01*
X016833Y040610D01*
X019333Y040610D01*
X019833Y040110D01*
X023708Y040110D01*
X024208Y040610D01*
X025333Y040610D01*
X027458Y040610D01*
X027958Y040110D01*
X032333Y040110D01*
X032833Y040610D01*
X033833Y040610D01*
X033833Y039610D02*
X032833Y039610D01*
X032333Y039110D01*
X027958Y039110D01*
X027458Y039610D01*
X025333Y039610D01*
X024208Y039610D01*
X023708Y039110D01*
X019833Y039110D01*
X019333Y039610D01*
X016833Y039610D01*
X016083Y039610D01*
X015583Y039110D01*
X011583Y039110D01*
X011083Y039610D01*
X008333Y039610D01*
X008333Y037610D02*
X011083Y037610D01*
X011583Y037110D01*
X015583Y037110D01*
X016083Y037610D01*
X016833Y037610D01*
X019333Y037610D01*
X019833Y037110D01*
X023708Y037110D01*
X024208Y037610D01*
X025333Y037610D01*
X027458Y037610D01*
X027958Y037110D01*
X032333Y037110D01*
X032833Y037610D01*
X033833Y037610D01*
X032833Y037110D02*
X032333Y036610D01*
X031333Y036610D01*
X027958Y036610D01*
X027458Y037110D01*
X024208Y037110D01*
X023708Y036610D01*
X022833Y036610D01*
X019833Y036610D01*
X019333Y037110D01*
X016083Y037110D01*
X015583Y036610D01*
X014333Y036610D01*
X015583Y036110D02*
X011583Y036110D01*
X011083Y036610D01*
X008333Y036610D01*
X008333Y035610D02*
X011083Y035610D01*
X011583Y035110D01*
X015583Y035110D01*
X016083Y035610D01*
X016833Y035610D01*
X019333Y035610D01*
X019833Y035110D01*
X023708Y035110D01*
X024208Y035610D01*
X025333Y035610D01*
X027458Y035610D01*
X027958Y035110D01*
X032333Y035110D01*
X032833Y035610D01*
X033833Y035610D01*
X032833Y035110D02*
X032333Y034610D01*
X031333Y034610D01*
X027958Y034610D01*
X027458Y035110D01*
X024208Y035110D01*
X023708Y034610D01*
X022833Y034610D01*
X019833Y034610D01*
X019333Y035110D01*
X016083Y035110D01*
X015583Y034610D01*
X014333Y034610D01*
X015583Y034110D02*
X011583Y034110D01*
X011083Y034610D01*
X008333Y034610D01*
X008333Y033610D02*
X011083Y033610D01*
X011583Y033110D01*
X015583Y033110D01*
X016083Y033610D01*
X016833Y033610D01*
X019333Y033610D01*
X019833Y033110D01*
X023708Y033110D01*
X024208Y033610D01*
X025333Y033610D01*
X027458Y033610D01*
X027958Y033110D01*
X032333Y033110D01*
X032833Y033610D01*
X033833Y033610D01*
X033833Y032610D02*
X032833Y032610D01*
X032333Y032110D01*
X027958Y032110D01*
X027458Y032610D01*
X025333Y032610D01*
X024208Y032610D01*
X023708Y032110D01*
X019833Y032110D01*
X019333Y032610D01*
X016833Y032610D01*
X016083Y032610D01*
X015583Y032110D01*
X011583Y032110D01*
X011083Y032610D01*
X008333Y032610D01*
X008333Y031610D02*
X011083Y031610D01*
X011583Y031110D01*
X015583Y031110D01*
X016083Y031610D01*
X016833Y031610D01*
X019333Y031610D01*
X019833Y031110D01*
X023708Y031110D01*
X024208Y031610D01*
X025333Y031610D01*
X027458Y031610D01*
X027958Y031110D01*
X032333Y031110D01*
X032833Y031610D01*
X033833Y031610D01*
X032833Y031110D02*
X032333Y030610D01*
X031333Y030610D01*
X027958Y030610D01*
X027458Y031110D01*
X024208Y031110D01*
X023708Y030610D01*
X022833Y030610D01*
X019833Y030610D01*
X019333Y031110D01*
X016083Y031110D01*
X015583Y030610D01*
X014333Y030610D01*
X015583Y030110D02*
X011583Y030110D01*
X011083Y030610D01*
X008333Y030610D01*
X008333Y029610D02*
X011083Y029610D01*
X011583Y029110D01*
X015583Y029110D01*
X016083Y029610D01*
X016833Y029610D01*
X019333Y029610D01*
X019833Y029110D01*
X023708Y029110D01*
X024208Y029610D01*
X025333Y029610D01*
X027458Y029610D01*
X027958Y029110D01*
X032333Y029110D01*
X032833Y029610D01*
X033833Y029610D01*
X032833Y029110D02*
X032333Y028610D01*
X031333Y028610D01*
X027958Y028610D01*
X027458Y029110D01*
X024208Y029110D01*
X023708Y028610D01*
X022833Y028610D01*
X019833Y028610D01*
X019333Y029110D01*
X016083Y029110D01*
X015583Y028610D01*
X014333Y028610D01*
X014385Y028010D02*
X013934Y028010D01*
X013713Y028101D01*
X013545Y028270D01*
X013453Y028491D01*
X013453Y028710D01*
X011504Y028710D01*
X011357Y028771D01*
X010918Y029210D01*
X009062Y029210D01*
X008962Y029110D01*
X009122Y028950D01*
X009213Y028729D01*
X009213Y028491D01*
X009122Y028270D01*
X008953Y028101D01*
X008767Y028024D01*
X008933Y027859D01*
X008933Y027465D01*
X014233Y027465D01*
X014233Y027610D01*
X014833Y027610D01*
X014833Y027610D01*
X014233Y027610D01*
X014233Y027859D01*
X014385Y028010D01*
X014273Y027898D02*
X008894Y027898D01*
X008933Y027740D02*
X014233Y027740D01*
X014233Y027581D02*
X008933Y027581D01*
X008845Y028057D02*
X013822Y028057D01*
X013600Y028215D02*
X009067Y028215D01*
X009165Y028374D02*
X013502Y028374D01*
X013453Y028532D02*
X009213Y028532D01*
X009213Y028691D02*
X013453Y028691D01*
X014333Y029610D02*
X015583Y029610D01*
X016083Y030110D01*
X019333Y030110D01*
X019833Y029610D01*
X022833Y029610D01*
X023708Y029610D01*
X024208Y030110D01*
X027458Y030110D01*
X027958Y029610D01*
X031333Y029610D01*
X032333Y029610D01*
X032833Y030110D01*
X036458Y030110D01*
X036958Y029610D01*
X039833Y029610D01*
X040469Y030117D02*
X042075Y030117D01*
X041940Y030276D02*
X040624Y030276D01*
X040690Y030434D02*
X041875Y030434D01*
X041858Y030593D02*
X040713Y030593D01*
X040704Y030751D02*
X041858Y030751D01*
X041858Y030910D02*
X040639Y030910D01*
X040504Y031068D02*
X041858Y031068D01*
X041865Y031227D02*
X040578Y031227D01*
X040670Y031385D02*
X041910Y031385D01*
X042013Y031544D02*
X040713Y031544D01*
X040713Y031702D02*
X042246Y031702D01*
X042458Y031702D02*
X042458Y031702D01*
X042458Y031544D02*
X042458Y031544D01*
X042458Y031385D02*
X042458Y031385D01*
X042458Y031227D02*
X042458Y031227D01*
X042458Y031068D02*
X042458Y031068D01*
X042458Y030910D02*
X042458Y030910D01*
X042458Y030751D02*
X042458Y030751D01*
X042458Y030593D02*
X042458Y030593D01*
X042458Y030434D02*
X042458Y030434D01*
X042458Y030276D02*
X042458Y030276D01*
X042458Y030117D02*
X042458Y030117D01*
X042558Y029959D02*
X040613Y029959D01*
X040684Y029800D02*
X042558Y029800D01*
X042558Y029642D02*
X040713Y029642D01*
X040710Y029483D02*
X042558Y029483D01*
X042558Y029325D02*
X040645Y029325D01*
X040518Y029166D02*
X042558Y029166D01*
X042568Y029008D02*
X040564Y029008D01*
X040664Y028849D02*
X042654Y028849D01*
X042697Y028691D02*
X042812Y028691D01*
X042915Y028532D02*
X042971Y028532D01*
X043458Y028610D02*
X042958Y029110D01*
X042958Y042985D01*
X042388Y042956D02*
X040616Y042956D01*
X040685Y042797D02*
X042419Y042797D01*
X042499Y042639D02*
X040713Y042639D01*
X040709Y042480D02*
X042558Y042480D01*
X042558Y042322D02*
X040643Y042322D01*
X040515Y042163D02*
X042558Y042163D01*
X042558Y042005D02*
X040567Y042005D01*
X040665Y041846D02*
X042558Y041846D01*
X042558Y041688D02*
X040713Y041688D01*
X040713Y041529D02*
X042558Y041529D01*
X042558Y041371D02*
X040664Y041371D01*
X040564Y041212D02*
X042558Y041212D01*
X042558Y041054D02*
X040518Y041054D01*
X040645Y040895D02*
X042558Y040895D01*
X042558Y040737D02*
X040710Y040737D01*
X040713Y040578D02*
X042558Y040578D01*
X042558Y040420D02*
X040684Y040420D01*
X040613Y040261D02*
X042558Y040261D01*
X042558Y040103D02*
X040469Y040103D01*
X040624Y039944D02*
X042558Y039944D01*
X042558Y039786D02*
X040690Y039786D01*
X040713Y039627D02*
X042558Y039627D01*
X042558Y039469D02*
X040704Y039469D01*
X040639Y039310D02*
X042558Y039310D01*
X042558Y039152D02*
X040503Y039152D01*
X040579Y038993D02*
X042558Y038993D01*
X042558Y038835D02*
X040670Y038835D01*
X040713Y038676D02*
X042558Y038676D01*
X042558Y038518D02*
X040713Y038518D01*
X040659Y038359D02*
X042558Y038359D01*
X042558Y038201D02*
X040552Y038201D01*
X040530Y038042D02*
X042558Y038042D01*
X042558Y037884D02*
X040649Y037884D01*
X040713Y037725D02*
X042558Y037725D01*
X042558Y037567D02*
X040713Y037567D01*
X040679Y037408D02*
X042558Y037408D01*
X042558Y037250D02*
X040601Y037250D01*
X040481Y037091D02*
X042558Y037091D01*
X042558Y036933D02*
X040629Y036933D01*
X040695Y036774D02*
X042558Y036774D01*
X042558Y036616D02*
X040713Y036616D01*
X040699Y036457D02*
X042558Y036457D01*
X042558Y036299D02*
X040634Y036299D01*
X040492Y036140D02*
X042558Y036140D01*
X042558Y035982D02*
X040590Y035982D01*
X040675Y035823D02*
X042558Y035823D01*
X042558Y035665D02*
X040713Y035665D01*
X040713Y035506D02*
X042558Y035506D01*
X042558Y035348D02*
X040654Y035348D01*
X040541Y035189D02*
X042558Y035189D01*
X042558Y035031D02*
X040541Y035031D01*
X040654Y034872D02*
X042558Y034872D01*
X042558Y034714D02*
X040713Y034714D01*
X040713Y034555D02*
X042558Y034555D01*
X042558Y034397D02*
X040674Y034397D01*
X040590Y034238D02*
X042558Y034238D01*
X042558Y034080D02*
X040492Y034080D01*
X040634Y033921D02*
X042558Y033921D01*
X042558Y033763D02*
X040700Y033763D01*
X040713Y033604D02*
X042558Y033604D01*
X042558Y033446D02*
X040695Y033446D01*
X040629Y033287D02*
X042558Y033287D01*
X042558Y033129D02*
X040480Y033129D01*
X040602Y032970D02*
X042558Y032970D01*
X042558Y032812D02*
X040679Y032812D01*
X040713Y032653D02*
X042558Y032653D01*
X042558Y032495D02*
X040713Y032495D01*
X040649Y032336D02*
X042558Y032336D01*
X042558Y032178D02*
X040529Y032178D01*
X040553Y032019D02*
X042558Y032019D01*
X042558Y031861D02*
X040659Y031861D01*
X039833Y031610D02*
X036958Y031610D01*
X036458Y032110D01*
X032833Y032110D01*
X032333Y031610D01*
X031333Y031610D01*
X027958Y031610D01*
X027458Y032110D01*
X024208Y032110D01*
X023708Y031610D01*
X022833Y031610D01*
X019833Y031610D01*
X019333Y032110D01*
X016083Y032110D01*
X015583Y031610D01*
X014333Y031610D01*
X014333Y032610D02*
X015583Y032610D01*
X016083Y033110D01*
X019333Y033110D01*
X019833Y032610D01*
X022833Y032610D01*
X023708Y032610D01*
X024208Y033110D01*
X027458Y033110D01*
X027958Y032610D01*
X031333Y032610D01*
X032333Y032610D01*
X032833Y033110D01*
X036458Y033110D01*
X036958Y032610D01*
X039833Y032610D01*
X039833Y033610D02*
X036958Y033610D01*
X036458Y034110D01*
X032833Y034110D01*
X032333Y033610D01*
X031333Y033610D01*
X027958Y033610D01*
X027458Y034110D01*
X024208Y034110D01*
X023708Y033610D01*
X022833Y033610D01*
X019833Y033610D01*
X019333Y034110D01*
X016083Y034110D01*
X015583Y033610D01*
X014333Y033610D01*
X015583Y034110D02*
X016083Y034610D01*
X016833Y034610D01*
X019333Y034610D01*
X019833Y034110D01*
X023708Y034110D01*
X024208Y034610D01*
X025333Y034610D01*
X027458Y034610D01*
X027958Y034110D01*
X032333Y034110D01*
X032833Y034610D01*
X033833Y034610D01*
X032833Y035110D02*
X036458Y035110D01*
X036958Y034610D01*
X039833Y034610D01*
X039833Y035610D02*
X036958Y035610D01*
X036458Y036110D01*
X032833Y036110D01*
X032333Y035610D01*
X031333Y035610D01*
X027958Y035610D01*
X027458Y036110D01*
X024208Y036110D01*
X023708Y035610D01*
X022833Y035610D01*
X019833Y035610D01*
X019333Y036110D01*
X016083Y036110D01*
X015583Y035610D01*
X014333Y035610D01*
X015583Y036110D02*
X016083Y036610D01*
X016833Y036610D01*
X019333Y036610D01*
X019833Y036110D01*
X023708Y036110D01*
X024208Y036610D01*
X025333Y036610D01*
X027458Y036610D01*
X027958Y036110D01*
X032333Y036110D01*
X032833Y036610D01*
X033833Y036610D01*
X032833Y037110D02*
X036458Y037110D01*
X036958Y036610D01*
X039833Y036610D01*
X039833Y037610D02*
X036958Y037610D01*
X036458Y038110D01*
X032833Y038110D01*
X032333Y037610D01*
X031333Y037610D01*
X027958Y037610D01*
X027458Y038110D01*
X024208Y038110D01*
X023708Y037610D01*
X022833Y037610D01*
X019833Y037610D01*
X019333Y038110D01*
X016083Y038110D01*
X015583Y037610D01*
X014333Y037610D01*
X014333Y038610D02*
X015583Y038610D01*
X016083Y039110D01*
X019333Y039110D01*
X019833Y038610D01*
X022833Y038610D01*
X023708Y038610D01*
X024208Y039110D01*
X027458Y039110D01*
X027958Y038610D01*
X031333Y038610D01*
X032333Y038610D01*
X032833Y039110D01*
X036458Y039110D01*
X036958Y038610D01*
X039833Y038610D01*
X039833Y039610D02*
X036958Y039610D01*
X036458Y040110D01*
X032833Y040110D01*
X032333Y039610D01*
X031333Y039610D01*
X027958Y039610D01*
X027458Y040110D01*
X024208Y040110D01*
X023708Y039610D01*
X022833Y039610D01*
X019833Y039610D01*
X019333Y040110D01*
X016083Y040110D01*
X015583Y039610D01*
X014333Y039610D01*
X014333Y040610D02*
X015583Y040610D01*
X016083Y041110D01*
X019333Y041110D01*
X019833Y040610D01*
X022833Y040610D01*
X023708Y040610D01*
X024208Y041110D01*
X027458Y041110D01*
X027958Y040610D01*
X031333Y040610D01*
X032333Y040610D01*
X032833Y041110D01*
X036458Y041110D01*
X036958Y040610D01*
X039833Y040610D01*
X039833Y041610D02*
X036958Y041610D01*
X036458Y042110D01*
X032833Y042110D01*
X032833Y041610D02*
X033833Y041610D01*
X032833Y041610D02*
X032333Y041110D01*
X027958Y041110D01*
X027458Y041610D01*
X025333Y041610D01*
X024208Y041610D01*
X023708Y041110D01*
X019833Y041110D01*
X019333Y041610D01*
X016833Y041610D01*
X016083Y041610D01*
X015583Y041110D01*
X015583Y042610D02*
X014333Y042610D01*
X015458Y043110D02*
X011583Y043110D01*
X014333Y043610D02*
X014333Y043610D01*
X014333Y044210D01*
X014333Y043610D01*
X014333Y043610D01*
X015213Y043610D01*
X014333Y043610D01*
X014333Y043610D01*
X014333Y043748D02*
X014333Y043748D01*
X014333Y043907D02*
X014333Y043907D01*
X014333Y044065D02*
X014333Y044065D01*
X015007Y044065D02*
X016160Y044065D01*
X015689Y043907D02*
X015136Y043907D01*
X015199Y043748D02*
X015531Y043748D01*
X015372Y043590D02*
X015213Y043590D01*
X015458Y043110D02*
X015958Y043610D01*
X016833Y043610D01*
X019333Y043610D01*
X019833Y043110D01*
X023708Y043110D01*
X024208Y043610D01*
X025333Y043610D01*
X027458Y043610D01*
X027958Y043110D01*
X032333Y043110D01*
X032833Y043610D01*
X033833Y043610D01*
X033160Y044065D02*
X032007Y044065D01*
X032136Y043907D02*
X032564Y043907D01*
X032406Y043748D02*
X032199Y043748D01*
X032213Y043610D02*
X031333Y043610D01*
X030453Y043610D01*
X031333Y043610D01*
X031333Y043610D01*
X031333Y044210D01*
X031333Y043610D01*
X031333Y043610D01*
X031333Y043610D01*
X032213Y043610D01*
X032213Y043590D02*
X032247Y043590D01*
X032833Y043110D02*
X032333Y042610D01*
X031333Y042610D01*
X027958Y042610D01*
X027458Y043110D01*
X024208Y043110D01*
X023708Y042610D01*
X022833Y042610D01*
X019833Y042610D01*
X019333Y043110D01*
X016083Y043110D01*
X015583Y042610D01*
X017507Y044065D02*
X022160Y044065D01*
X022031Y043907D02*
X019602Y043907D01*
X019761Y043748D02*
X021968Y043748D01*
X021953Y043610D02*
X022833Y043610D01*
X021953Y043610D01*
X021953Y043590D02*
X019919Y043590D01*
X022833Y043610D02*
X022833Y043610D01*
X022833Y044210D01*
X022833Y043610D01*
X022833Y043610D01*
X022833Y043748D02*
X022833Y043748D01*
X022833Y043907D02*
X022833Y043907D01*
X022833Y044065D02*
X022833Y044065D01*
X023507Y044065D02*
X024660Y044065D01*
X023939Y043907D02*
X023636Y043907D01*
X023699Y043748D02*
X023781Y043748D01*
X026007Y044065D02*
X030660Y044065D01*
X030531Y043907D02*
X027727Y043907D01*
X027886Y043748D02*
X030468Y043748D01*
X030453Y043590D02*
X028044Y043590D01*
X031333Y043748D02*
X031333Y043748D01*
X031333Y043907D02*
X031333Y043907D01*
X031333Y044065D02*
X031333Y044065D01*
X032833Y043110D02*
X036458Y043110D01*
X036958Y042610D01*
X039833Y042610D01*
X039209Y043114D02*
X037020Y043114D01*
X036861Y043273D02*
X039057Y043273D01*
X038981Y043431D02*
X036703Y043431D01*
X034713Y043590D02*
X038953Y043590D01*
X038953Y043610D02*
X039833Y043610D01*
X039833Y043610D01*
X038953Y043610D01*
X038968Y043748D02*
X034706Y043748D01*
X034640Y043907D02*
X039031Y043907D01*
X039160Y044065D02*
X034507Y044065D01*
X039833Y044065D02*
X039833Y044065D01*
X039833Y044210D02*
X039833Y043610D01*
X039833Y044210D01*
X039833Y043907D02*
X039833Y043907D01*
X039833Y043748D02*
X039833Y043748D01*
X039833Y043610D02*
X039833Y043610D01*
X040713Y043610D01*
X039833Y043610D01*
X039833Y043610D01*
X040458Y043114D02*
X042395Y043114D01*
X042460Y043273D02*
X040610Y043273D01*
X040686Y043431D02*
X042598Y043431D01*
X043318Y043431D02*
X043473Y043431D01*
X043833Y042985D02*
X043833Y037735D01*
X043458Y037360D01*
X043458Y030860D01*
X043958Y030231D02*
X044118Y030071D01*
X044339Y029980D01*
X044578Y029980D01*
X044798Y030071D01*
X044965Y030238D01*
X045001Y030189D01*
X045067Y030122D01*
X045144Y030067D01*
X045228Y030024D01*
X045318Y029995D01*
X045411Y029980D01*
X045458Y029980D01*
X045458Y030860D01*
X045458Y030860D01*
X045458Y031740D01*
X045458Y030860D01*
X045458Y030860D01*
X045458Y029980D01*
X045506Y029980D01*
X045599Y029995D01*
X045689Y030024D01*
X045773Y030067D01*
X045849Y030122D01*
X045916Y030189D01*
X045958Y030247D01*
X046001Y030189D01*
X046067Y030122D01*
X046144Y030067D01*
X046228Y030024D01*
X046318Y029995D01*
X046411Y029980D01*
X046458Y029980D01*
X046458Y030860D01*
X045458Y030860D01*
X046058Y030860D01*
X046458Y030860D01*
X046458Y030860D01*
X046458Y030860D01*
X046458Y031740D01*
X046458Y030860D01*
X046458Y030860D01*
X046458Y029980D01*
X046506Y029980D01*
X046599Y029995D01*
X046689Y030024D01*
X046773Y030067D01*
X046849Y030122D01*
X046916Y030189D01*
X046952Y030238D01*
X047118Y030071D01*
X047339Y029980D01*
X047578Y029980D01*
X047798Y030071D01*
X047958Y030231D01*
X048118Y030071D01*
X048339Y029980D01*
X048578Y029980D01*
X048798Y030071D01*
X048958Y030231D01*
X049118Y030071D01*
X049339Y029980D01*
X049578Y029980D01*
X049798Y030071D01*
X049967Y030240D01*
X050058Y030461D01*
X050058Y031259D01*
X049975Y031460D01*
X053074Y031460D01*
X053070Y031454D01*
X053027Y031370D01*
X052998Y031280D01*
X052983Y031187D01*
X052983Y030860D01*
X052983Y030533D01*
X052998Y030439D01*
X053027Y030350D01*
X053070Y030266D01*
X053126Y030189D01*
X053192Y030122D01*
X053269Y030067D01*
X053353Y030024D01*
X053443Y029995D01*
X053536Y029980D01*
X053583Y029980D01*
X053583Y030860D01*
X052983Y030860D01*
X053583Y030860D01*
X053583Y030860D01*
X053583Y030860D01*
X053583Y029980D01*
X053631Y029980D01*
X053724Y029995D01*
X053814Y030024D01*
X053898Y030067D01*
X053974Y030122D01*
X054041Y030189D01*
X054077Y030238D01*
X054243Y030071D01*
X054464Y029980D01*
X054703Y029980D01*
X054923Y030071D01*
X055083Y030231D01*
X055243Y030071D01*
X055464Y029980D01*
X055703Y029980D01*
X055923Y030071D01*
X056083Y030231D01*
X056243Y030071D01*
X056464Y029980D01*
X056703Y029980D01*
X056923Y030071D01*
X057083Y030231D01*
X057243Y030071D01*
X057322Y030039D01*
X056918Y029635D01*
X051308Y029635D01*
X051308Y029860D01*
X051308Y030109D01*
X050957Y030460D01*
X050708Y030460D01*
X050460Y030460D01*
X050108Y030109D01*
X050108Y029860D01*
X050108Y029635D01*
X049379Y029635D01*
X049232Y029574D01*
X049119Y029462D01*
X048398Y028740D01*
X048339Y028740D01*
X048118Y028649D01*
X047958Y028489D01*
X047798Y028649D01*
X047578Y028740D01*
X047339Y028740D01*
X047118Y028649D01*
X046958Y028489D01*
X046798Y028649D01*
X046578Y028740D01*
X046339Y028740D01*
X046118Y028649D01*
X045958Y028489D01*
X045798Y028649D01*
X045578Y028740D01*
X045339Y028740D01*
X045118Y028649D01*
X044958Y028489D01*
X044798Y028649D01*
X044578Y028740D01*
X044339Y028740D01*
X044118Y028649D01*
X043958Y028489D01*
X043858Y028589D01*
X043858Y028690D01*
X043858Y028691D02*
X044220Y028691D01*
X044002Y028532D02*
X043915Y028532D01*
X043858Y028690D02*
X043797Y028837D01*
X043358Y029276D01*
X043358Y029980D01*
X043578Y029980D01*
X043798Y030071D01*
X043958Y030231D01*
X043844Y030117D02*
X044073Y030117D01*
X043358Y029959D02*
X050108Y029959D01*
X050108Y029860D02*
X050708Y029860D01*
X050108Y029860D01*
X050108Y029800D02*
X043358Y029800D01*
X043358Y029642D02*
X050108Y029642D01*
X050117Y030117D02*
X049844Y030117D01*
X049982Y030276D02*
X050275Y030276D01*
X050434Y030434D02*
X050047Y030434D01*
X050058Y030593D02*
X052983Y030593D01*
X052983Y030751D02*
X050058Y030751D01*
X050058Y030910D02*
X052983Y030910D01*
X052983Y031068D02*
X050058Y031068D01*
X050058Y031227D02*
X052990Y031227D01*
X053035Y031385D02*
X050006Y031385D01*
X050708Y030460D02*
X050708Y029860D01*
X050708Y029860D01*
X050708Y029860D01*
X050708Y030460D01*
X050708Y030434D02*
X050708Y030434D01*
X050708Y030276D02*
X050708Y030276D01*
X050708Y030117D02*
X050708Y030117D01*
X050708Y029959D02*
X050708Y029959D01*
X050708Y029860D02*
X051308Y029860D01*
X050708Y029860D01*
X050708Y029860D01*
X051141Y030276D02*
X053065Y030276D01*
X053000Y030434D02*
X050983Y030434D01*
X051300Y030117D02*
X053200Y030117D01*
X053583Y030117D02*
X053583Y030117D01*
X053583Y030276D02*
X053583Y030276D01*
X053583Y030434D02*
X053583Y030434D01*
X053583Y030593D02*
X053583Y030593D01*
X053583Y030751D02*
X053583Y030751D01*
X053967Y030117D02*
X054198Y030117D01*
X054969Y030117D02*
X055198Y030117D01*
X055969Y030117D02*
X056198Y030117D01*
X056969Y030117D02*
X057198Y030117D01*
X057241Y029959D02*
X051308Y029959D01*
X051308Y029800D02*
X057083Y029800D01*
X056924Y029642D02*
X051308Y029642D01*
X050957Y028460D02*
X050460Y028460D01*
X050340Y028340D01*
X050025Y028340D01*
X049967Y028480D01*
X049798Y028649D01*
X049578Y028740D01*
X049529Y028740D01*
X049624Y028835D01*
X057163Y028835D01*
X057310Y028896D01*
X058047Y029633D01*
X058047Y029633D01*
X058060Y029646D01*
X058310Y029896D01*
X058415Y030000D01*
X058464Y029980D01*
X058703Y029980D01*
X058841Y030037D01*
X060236Y028641D01*
X060077Y028482D01*
X060041Y028531D01*
X059974Y028598D01*
X059898Y028653D01*
X059814Y028696D01*
X059724Y028725D01*
X059631Y028740D01*
X059583Y028740D01*
X059536Y028740D01*
X059443Y028725D01*
X059353Y028696D01*
X059269Y028653D01*
X059192Y028598D01*
X059126Y028531D01*
X059083Y028473D01*
X059041Y028531D01*
X058974Y028598D01*
X058898Y028653D01*
X058814Y028696D01*
X058724Y028725D01*
X058631Y028740D01*
X058583Y028740D01*
X058536Y028740D01*
X058443Y028725D01*
X058353Y028696D01*
X058269Y028653D01*
X058192Y028598D01*
X058126Y028531D01*
X058083Y028473D01*
X058041Y028531D01*
X057974Y028598D01*
X057898Y028653D01*
X057814Y028696D01*
X057724Y028725D01*
X057631Y028740D01*
X057583Y028740D01*
X057536Y028740D01*
X057443Y028725D01*
X057353Y028696D01*
X057269Y028653D01*
X057192Y028598D01*
X057126Y028531D01*
X057090Y028482D01*
X056923Y028649D01*
X056703Y028740D01*
X056464Y028740D01*
X056243Y028649D01*
X056083Y028489D01*
X055923Y028649D01*
X055703Y028740D01*
X055464Y028740D01*
X055243Y028649D01*
X055083Y028489D01*
X054923Y028649D01*
X054703Y028740D01*
X054464Y028740D01*
X054243Y028649D01*
X054083Y028489D01*
X053923Y028649D01*
X053703Y028740D01*
X053464Y028740D01*
X053243Y028649D01*
X053075Y028480D01*
X052983Y028259D01*
X052983Y027465D01*
X051188Y027465D01*
X051188Y027491D01*
X051308Y027611D01*
X051308Y028109D01*
X050957Y028460D01*
X051043Y028374D02*
X053031Y028374D01*
X052983Y028215D02*
X051202Y028215D01*
X051308Y028057D02*
X052983Y028057D01*
X052983Y027898D02*
X051308Y027898D01*
X051308Y027740D02*
X052983Y027740D01*
X052983Y027581D02*
X051278Y027581D01*
X051414Y026505D02*
X055760Y026505D01*
X056936Y025328D01*
X057113Y025255D01*
X060054Y025255D01*
X060230Y025328D01*
X060787Y025885D01*
X060832Y025885D01*
X061183Y026236D01*
X061183Y026734D01*
X061063Y026854D01*
X061063Y027211D01*
X061092Y027240D01*
X061183Y027461D01*
X061183Y027694D01*
X063198Y025679D01*
X060581Y025679D01*
X060423Y025521D02*
X063198Y025521D01*
X063198Y025679D02*
X063198Y025347D01*
X063435Y025110D01*
X063198Y024873D01*
X063198Y024347D01*
X063435Y024110D01*
X063198Y023873D01*
X063198Y023347D01*
X063435Y023110D01*
X063198Y022873D01*
X063198Y022347D01*
X063435Y022110D01*
X063198Y021873D01*
X063198Y021347D01*
X063435Y021110D01*
X063335Y021010D01*
X063249Y021010D01*
X062047Y022212D01*
X061935Y022324D01*
X061788Y022385D01*
X051562Y022385D01*
X051462Y022485D01*
X051622Y022645D01*
X051713Y022866D01*
X051713Y023104D01*
X051622Y023325D01*
X051462Y023485D01*
X051622Y023645D01*
X051713Y023866D01*
X051713Y024104D01*
X051622Y024325D01*
X051462Y024485D01*
X051622Y024645D01*
X051713Y024866D01*
X051713Y025104D01*
X051622Y025325D01*
X051455Y025492D01*
X051504Y025527D01*
X051571Y025594D01*
X051626Y025671D01*
X051669Y025755D01*
X051699Y025844D01*
X051713Y025938D01*
X051713Y025985D01*
X051713Y026032D01*
X051699Y026125D01*
X051669Y026215D01*
X051626Y026299D01*
X051571Y026376D01*
X051504Y026443D01*
X051428Y026498D01*
X051414Y026505D01*
X051464Y026472D02*
X055793Y026472D01*
X055951Y026313D02*
X051617Y026313D01*
X051689Y026155D02*
X056110Y026155D01*
X056268Y025996D02*
X051713Y025996D01*
X051713Y025985D02*
X050833Y025985D01*
X049953Y025985D01*
X049953Y025938D01*
X049968Y025844D01*
X049997Y025755D01*
X050040Y025671D01*
X050096Y025594D01*
X050162Y025527D01*
X050212Y025492D01*
X050105Y025385D01*
X048624Y025385D01*
X048185Y025824D01*
X048038Y025885D01*
X045713Y025885D01*
X045713Y026104D01*
X045622Y026325D01*
X045453Y026494D01*
X045426Y026505D01*
X050252Y026505D01*
X050239Y026498D01*
X050162Y026443D01*
X050096Y026376D01*
X050040Y026299D01*
X049997Y026215D01*
X049968Y026125D01*
X049953Y026032D01*
X049953Y025985D01*
X050833Y025985D01*
X050833Y025985D01*
X048458Y025985D01*
X047958Y026485D01*
X042833Y026485D01*
X042333Y025985D01*
X039833Y025985D01*
X038953Y025985D01*
X038953Y025938D01*
X038962Y025885D01*
X037124Y025885D01*
X036685Y026324D01*
X036538Y026385D01*
X036379Y026385D01*
X034562Y026385D01*
X034453Y026494D01*
X034426Y026505D01*
X039252Y026505D01*
X039239Y026498D01*
X039162Y026443D01*
X039096Y026376D01*
X039040Y026299D01*
X038997Y026215D01*
X038968Y026125D01*
X038953Y026032D01*
X038953Y025985D01*
X039833Y025985D01*
X039833Y025985D01*
X036958Y025985D01*
X036458Y026485D01*
X032833Y026485D01*
X032333Y025985D01*
X031333Y025985D01*
X030453Y025985D01*
X030453Y025938D01*
X030462Y025885D01*
X028124Y025885D01*
X027797Y026212D01*
X027685Y026324D01*
X027538Y026385D01*
X026062Y026385D01*
X025953Y026494D01*
X025926Y026505D01*
X030752Y026505D01*
X030739Y026498D01*
X030662Y026443D01*
X030596Y026376D01*
X030540Y026299D01*
X030497Y026215D01*
X030468Y026125D01*
X030453Y026032D01*
X030453Y025985D01*
X031333Y025985D01*
X031333Y025985D01*
X027958Y025985D01*
X027458Y026485D01*
X024208Y026485D01*
X023708Y025985D01*
X022833Y025985D01*
X021953Y025985D01*
X021953Y025938D01*
X021962Y025885D01*
X019999Y025885D01*
X019560Y026324D01*
X019413Y026385D01*
X017562Y026385D01*
X017453Y026494D01*
X017426Y026505D01*
X022252Y026505D01*
X022239Y026498D01*
X022162Y026443D01*
X022096Y026376D01*
X022040Y026299D01*
X021997Y026215D01*
X021968Y026125D01*
X021953Y026032D01*
X021953Y025985D01*
X022833Y025985D01*
X022833Y025985D01*
X019833Y025985D01*
X019333Y026485D01*
X016083Y026485D01*
X015583Y025985D01*
X014333Y025985D01*
X013453Y025985D01*
X013453Y025938D01*
X013462Y025885D01*
X011749Y025885D01*
X011422Y026212D01*
X011310Y026324D01*
X011163Y026385D01*
X009062Y026385D01*
X008953Y026494D01*
X008926Y026505D01*
X013752Y026505D01*
X013739Y026498D01*
X013662Y026443D01*
X013596Y026376D01*
X013540Y026299D01*
X013497Y026215D01*
X013468Y026125D01*
X013453Y026032D01*
X013453Y025985D01*
X014333Y025985D01*
X014333Y025985D01*
X015213Y025985D01*
X015213Y026032D01*
X015199Y026125D01*
X015169Y026215D01*
X015126Y026299D01*
X015071Y026376D01*
X015004Y026443D01*
X014928Y026498D01*
X014914Y026505D01*
X016241Y026505D01*
X016213Y026494D01*
X016105Y026385D01*
X016004Y026385D01*
X015857Y026324D01*
X015418Y025885D01*
X015205Y025885D01*
X015213Y025938D01*
X015213Y025985D01*
X014333Y025985D01*
X014333Y025985D01*
X013702Y026472D02*
X008975Y026472D01*
X008333Y025985D02*
X011083Y025985D01*
X011583Y025485D01*
X015583Y025485D01*
X016083Y025985D01*
X016833Y025985D01*
X019333Y025985D01*
X019833Y025485D01*
X023708Y025485D01*
X024208Y025985D01*
X025333Y025985D01*
X027458Y025985D01*
X027958Y025485D01*
X032333Y025485D01*
X032833Y025985D01*
X033833Y025985D01*
X036458Y025985D01*
X036958Y025485D01*
X042333Y025485D01*
X042833Y025985D01*
X044833Y025985D01*
X044241Y026505D02*
X044213Y026494D01*
X044105Y026385D01*
X042754Y026385D01*
X042607Y026324D01*
X042494Y026212D01*
X042168Y025885D01*
X040705Y025885D01*
X040713Y025938D01*
X040713Y025985D01*
X040713Y026032D01*
X040699Y026125D01*
X040669Y026215D01*
X040626Y026299D01*
X040571Y026376D01*
X040504Y026443D01*
X040428Y026498D01*
X040414Y026505D01*
X044241Y026505D01*
X044191Y026472D02*
X040464Y026472D01*
X040617Y026313D02*
X042596Y026313D01*
X042437Y026155D02*
X040689Y026155D01*
X040713Y025996D02*
X042279Y025996D01*
X042833Y025485D02*
X042333Y024985D01*
X039833Y024985D01*
X036958Y024985D01*
X036458Y025485D01*
X032833Y025485D01*
X032333Y024985D01*
X031333Y024985D01*
X027958Y024985D01*
X027458Y025485D01*
X024208Y025485D01*
X023708Y024985D01*
X022833Y024985D01*
X019833Y024985D01*
X019333Y025485D01*
X016083Y025485D01*
X015583Y024985D01*
X014333Y024985D01*
X015213Y025996D02*
X015529Y025996D01*
X015687Y026155D02*
X015189Y026155D01*
X015117Y026313D02*
X015846Y026313D01*
X016191Y026472D02*
X014964Y026472D01*
X015433Y027465D02*
X015433Y027610D01*
X014833Y027610D01*
X015433Y027610D01*
X015433Y027859D01*
X015082Y028210D01*
X015062Y028210D01*
X015663Y028210D01*
X015810Y028271D01*
X015976Y028437D01*
X016045Y028270D01*
X016213Y028101D01*
X016399Y028024D01*
X016233Y027859D01*
X016233Y027465D01*
X015433Y027465D01*
X015433Y027581D02*
X016233Y027581D01*
X016233Y027740D02*
X015433Y027740D01*
X015394Y027898D02*
X016273Y027898D01*
X016322Y028057D02*
X015235Y028057D01*
X015062Y028210D02*
X015062Y028210D01*
X015675Y028215D02*
X016100Y028215D01*
X016002Y028374D02*
X015913Y028374D01*
X014833Y027610D02*
X014833Y027610D01*
X013550Y026313D02*
X011321Y026313D01*
X011422Y026212D02*
X011422Y026212D01*
X011479Y026155D02*
X013478Y026155D01*
X013453Y025996D02*
X011638Y025996D01*
X011083Y024985D02*
X008333Y024985D01*
X008333Y023985D02*
X011083Y023985D01*
X011583Y023485D01*
X015583Y023485D01*
X016083Y023985D01*
X016833Y023985D01*
X019333Y023985D01*
X019833Y023485D01*
X023708Y023485D01*
X024208Y023985D01*
X025333Y023985D01*
X027458Y023985D01*
X027958Y023485D01*
X032333Y023485D01*
X032833Y023985D01*
X033833Y023985D01*
X036458Y023985D01*
X036958Y023485D01*
X042333Y023485D01*
X042833Y023985D01*
X044833Y023985D01*
X044833Y022985D02*
X042833Y022985D01*
X042333Y022485D01*
X036958Y022485D01*
X036458Y022985D01*
X033833Y022985D01*
X032833Y022985D01*
X032333Y022485D01*
X027958Y022485D01*
X027458Y022985D01*
X025333Y022985D01*
X024208Y022985D01*
X023708Y022485D01*
X019833Y022485D01*
X019333Y022985D01*
X016833Y022985D01*
X016083Y022985D01*
X015583Y022485D01*
X011583Y022485D01*
X011083Y022985D01*
X008333Y022985D01*
X008333Y021985D02*
X011083Y021985D01*
X011583Y021485D01*
X015583Y021485D01*
X016083Y021985D01*
X016833Y021985D01*
X019333Y021985D01*
X019833Y021485D01*
X023708Y021485D01*
X024208Y021985D01*
X025333Y021985D01*
X027458Y021985D01*
X027958Y021485D01*
X032333Y021485D01*
X032833Y021985D01*
X033833Y021985D01*
X036458Y021985D01*
X036958Y021485D01*
X042333Y021485D01*
X042833Y021985D01*
X044833Y021985D01*
X042833Y021485D02*
X047958Y021485D01*
X048458Y020985D01*
X050833Y020985D01*
X062208Y020985D01*
X063083Y020110D01*
X065333Y020110D01*
X065833Y020610D01*
X066458Y020985D02*
X065833Y021610D01*
X066468Y021558D02*
X067445Y021558D01*
X067445Y021400D02*
X066609Y021400D01*
X066768Y021241D02*
X067445Y021241D01*
X067445Y021083D02*
X066851Y021083D01*
X066858Y020924D02*
X067445Y020924D01*
X067445Y020766D02*
X066858Y020766D01*
X066858Y020607D02*
X067445Y020607D01*
X067445Y020449D02*
X066858Y020449D01*
X066858Y020290D02*
X067445Y020290D01*
X067445Y020132D02*
X066858Y020132D01*
X066858Y019973D02*
X067445Y019973D01*
X067445Y019815D02*
X066858Y019815D01*
X066858Y019656D02*
X067445Y019656D01*
X067445Y019498D02*
X066858Y019498D01*
X066858Y019339D02*
X067445Y019339D01*
X067445Y019181D02*
X066858Y019181D01*
X066858Y019022D02*
X067445Y019022D01*
X067445Y018864D02*
X066858Y018864D01*
X066858Y018705D02*
X067445Y018705D01*
X067445Y018547D02*
X066858Y018547D01*
X066858Y018388D02*
X067445Y018388D01*
X067445Y018230D02*
X066858Y018230D01*
X066858Y018071D02*
X067445Y018071D01*
X067445Y017913D02*
X066858Y017913D01*
X066858Y017754D02*
X067445Y017754D01*
X067445Y017596D02*
X066858Y017596D01*
X066858Y017437D02*
X067445Y017437D01*
X067445Y017279D02*
X066858Y017279D01*
X066858Y017120D02*
X067445Y017120D01*
X067445Y016962D02*
X066858Y016962D01*
X066858Y016803D02*
X067445Y016803D01*
X067445Y016645D02*
X066858Y016645D01*
X066858Y016486D02*
X067445Y016486D01*
X067445Y016328D02*
X066858Y016328D01*
X066858Y016169D02*
X067445Y016169D01*
X067445Y016011D02*
X066858Y016011D01*
X066858Y015852D02*
X067445Y015852D01*
X067445Y015694D02*
X066858Y015694D01*
X066858Y015535D02*
X067445Y015535D01*
X067445Y015377D02*
X066858Y015377D01*
X066858Y015218D02*
X067445Y015218D01*
X067445Y015060D02*
X066858Y015060D01*
X066858Y014901D02*
X067445Y014901D01*
X067445Y014743D02*
X066858Y014743D01*
X066858Y014584D02*
X067445Y014584D01*
X067445Y014426D02*
X066858Y014426D01*
X066801Y014267D02*
X067445Y014267D01*
X067445Y014109D02*
X066648Y014109D01*
X066489Y013950D02*
X067445Y013950D01*
X067445Y013792D02*
X066468Y013792D01*
X066468Y013633D02*
X067445Y013633D01*
X067445Y013475D02*
X066468Y013475D01*
X066437Y013316D02*
X067445Y013316D01*
X067445Y013158D02*
X066279Y013158D01*
X066342Y012999D02*
X067445Y012999D01*
X067445Y012841D02*
X066468Y012841D01*
X066468Y012682D02*
X067445Y012682D01*
X067445Y012524D02*
X066468Y012524D01*
X066468Y012365D02*
X067445Y012365D01*
X067445Y012207D02*
X066328Y012207D01*
X066313Y012048D02*
X067445Y012048D01*
X067445Y011890D02*
X066452Y011890D01*
X066468Y011731D02*
X067445Y011731D01*
X067445Y011573D02*
X066468Y011573D01*
X066468Y011414D02*
X067445Y011414D01*
X067445Y011256D02*
X066377Y011256D01*
X066218Y011097D02*
X067445Y011097D01*
X067445Y010939D02*
X062403Y010939D01*
X062468Y010780D02*
X067445Y010780D01*
X067445Y010622D02*
X062468Y010622D01*
X062468Y010610D02*
X061833Y010610D01*
X061833Y009975D01*
X062096Y009975D01*
X062468Y010347D01*
X062468Y010610D01*
X062468Y010463D02*
X066462Y010463D01*
X066213Y010305D02*
X062426Y010305D01*
X062267Y010146D02*
X066054Y010146D01*
X065983Y009988D02*
X062109Y009988D01*
X061833Y009988D02*
X061833Y009988D01*
X061833Y010146D02*
X061833Y010146D01*
X061833Y010305D02*
X061833Y010305D01*
X061833Y010463D02*
X061833Y010463D01*
X061833Y010610D02*
X061833Y010610D01*
X061399Y010146D02*
X061267Y010146D01*
X060990Y009988D02*
X061558Y009988D01*
X060731Y009829D02*
X065917Y009829D01*
X065903Y009671D02*
X060573Y009671D01*
X060414Y009512D02*
X065903Y009512D01*
X065933Y009354D02*
X060256Y009354D01*
X060097Y009195D02*
X065999Y009195D01*
X066092Y009037D02*
X059939Y009037D01*
X059780Y008878D02*
X066250Y008878D01*
X066553Y008720D02*
X059622Y008720D01*
X059215Y009671D02*
X047433Y009671D01*
X047433Y009829D02*
X059374Y009829D01*
X059532Y009988D02*
X047429Y009988D01*
X047271Y010146D02*
X059691Y010146D01*
X059849Y010305D02*
X047112Y010305D01*
X048458Y011985D02*
X050833Y011985D01*
X053833Y011985D01*
X053583Y012485D02*
X055208Y014110D01*
X066083Y014110D01*
X066458Y014485D01*
X066458Y020985D01*
X066679Y021717D02*
X067445Y021717D01*
X067445Y021875D02*
X066914Y021875D01*
X067073Y022034D02*
X067445Y022034D01*
X067445Y022192D02*
X067197Y022192D01*
X067233Y022351D02*
X067445Y022351D01*
X067445Y022509D02*
X067233Y022509D01*
X067233Y022668D02*
X067445Y022668D01*
X067445Y022826D02*
X067233Y022826D01*
X067233Y022985D02*
X067445Y022985D01*
X067445Y023143D02*
X067233Y023143D01*
X067233Y023302D02*
X067445Y023302D01*
X067445Y023460D02*
X067233Y023460D01*
X067233Y023619D02*
X067445Y023619D01*
X067445Y023777D02*
X067233Y023777D01*
X067233Y023936D02*
X067445Y023936D01*
X067445Y024094D02*
X067233Y024094D01*
X067233Y024253D02*
X067445Y024253D01*
X067445Y024411D02*
X067233Y024411D01*
X067233Y024570D02*
X067445Y024570D01*
X067445Y024728D02*
X067233Y024728D01*
X067233Y024887D02*
X067445Y024887D01*
X067445Y025045D02*
X067233Y025045D01*
X067233Y025204D02*
X067445Y025204D01*
X067445Y025362D02*
X067233Y025362D01*
X067233Y025521D02*
X067445Y025521D01*
X067445Y025679D02*
X067233Y025679D01*
X067233Y025838D02*
X067445Y025838D01*
X067445Y025996D02*
X067233Y025996D01*
X067233Y026155D02*
X067445Y026155D01*
X067445Y026313D02*
X067233Y026313D01*
X067233Y026472D02*
X067445Y026472D01*
X067445Y026630D02*
X067233Y026630D01*
X067233Y026789D02*
X067445Y026789D01*
X067445Y026947D02*
X067233Y026947D01*
X067233Y027106D02*
X067445Y027106D01*
X067445Y027264D02*
X067233Y027264D01*
X067233Y027423D02*
X067445Y027423D01*
X067445Y027581D02*
X067233Y027581D01*
X067233Y027740D02*
X067445Y027740D01*
X067445Y027898D02*
X067233Y027898D01*
X067233Y028057D02*
X067445Y028057D01*
X067445Y028215D02*
X067233Y028215D01*
X067233Y028374D02*
X067445Y028374D01*
X067445Y028532D02*
X067233Y028532D01*
X067233Y028691D02*
X067445Y028691D01*
X067445Y028849D02*
X067233Y028849D01*
X067233Y029008D02*
X067445Y029008D01*
X067445Y029166D02*
X067233Y029166D01*
X067233Y029325D02*
X067445Y029325D01*
X067445Y029483D02*
X067233Y029483D01*
X067233Y029642D02*
X067445Y029642D01*
X067445Y029800D02*
X067233Y029800D01*
X067233Y029959D02*
X067445Y029959D01*
X067445Y030117D02*
X067233Y030117D01*
X067233Y030276D02*
X067445Y030276D01*
X067445Y030434D02*
X067233Y030434D01*
X067233Y030593D02*
X067445Y030593D01*
X067445Y030751D02*
X067233Y030751D01*
X067233Y030910D02*
X067445Y030910D01*
X067445Y031068D02*
X067233Y031068D01*
X067233Y031227D02*
X067445Y031227D01*
X067445Y031385D02*
X067233Y031385D01*
X067233Y031544D02*
X067445Y031544D01*
X067445Y031702D02*
X067233Y031702D01*
X067233Y031861D02*
X067445Y031861D01*
X067445Y032019D02*
X067233Y032019D01*
X067233Y032178D02*
X067445Y032178D01*
X067445Y032336D02*
X067233Y032336D01*
X067233Y032495D02*
X067445Y032495D01*
X067445Y032653D02*
X067233Y032653D01*
X067233Y032812D02*
X067445Y032812D01*
X067445Y032970D02*
X067233Y032970D01*
X067233Y033129D02*
X067445Y033129D01*
X067445Y033287D02*
X067233Y033287D01*
X067233Y033446D02*
X067445Y033446D01*
X067445Y033604D02*
X067233Y033604D01*
X067233Y033763D02*
X067445Y033763D01*
X067445Y033921D02*
X067233Y033921D01*
X067233Y034080D02*
X067445Y034080D01*
X067445Y034238D02*
X067233Y034238D01*
X067233Y034397D02*
X067445Y034397D01*
X067445Y034555D02*
X067233Y034555D01*
X067233Y034714D02*
X067445Y034714D01*
X067445Y034872D02*
X067233Y034872D01*
X067233Y035031D02*
X067445Y035031D01*
X067445Y035189D02*
X067233Y035189D01*
X067233Y035348D02*
X067445Y035348D01*
X067445Y035506D02*
X067233Y035506D01*
X067233Y035665D02*
X067445Y035665D01*
X067445Y035823D02*
X067233Y035823D01*
X067233Y035982D02*
X067445Y035982D01*
X067445Y036140D02*
X067233Y036140D01*
X067233Y036299D02*
X067445Y036299D01*
X067445Y036457D02*
X067233Y036457D01*
X067233Y036616D02*
X067445Y036616D01*
X067445Y036774D02*
X067233Y036774D01*
X067233Y036933D02*
X067445Y036933D01*
X067445Y037091D02*
X067233Y037091D01*
X067233Y037250D02*
X067445Y037250D01*
X067445Y037408D02*
X067233Y037408D01*
X067233Y037567D02*
X067445Y037567D01*
X067445Y037725D02*
X067233Y037725D01*
X067233Y037884D02*
X067445Y037884D01*
X067445Y038042D02*
X067233Y038042D01*
X067233Y038201D02*
X067445Y038201D01*
X067445Y038359D02*
X067233Y038359D01*
X067233Y038518D02*
X067445Y038518D01*
X067445Y038676D02*
X067233Y038676D01*
X067233Y038835D02*
X067445Y038835D01*
X067445Y038993D02*
X067233Y038993D01*
X067233Y039152D02*
X067445Y039152D01*
X067445Y039310D02*
X067233Y039310D01*
X067233Y039469D02*
X067445Y039469D01*
X067445Y039627D02*
X067233Y039627D01*
X067233Y039786D02*
X067445Y039786D01*
X067445Y039944D02*
X067233Y039944D01*
X067233Y040103D02*
X067445Y040103D01*
X067445Y040261D02*
X067233Y040261D01*
X067233Y040420D02*
X067445Y040420D01*
X067445Y040578D02*
X067233Y040578D01*
X067214Y040737D02*
X067445Y040737D01*
X067445Y040895D02*
X067114Y040895D01*
X066955Y041054D02*
X067445Y041054D01*
X067445Y041212D02*
X066797Y041212D01*
X066638Y041371D02*
X067445Y041371D01*
X067445Y041529D02*
X066468Y041529D01*
X066468Y041688D02*
X067445Y041688D01*
X067445Y041846D02*
X066468Y041846D01*
X066337Y042005D02*
X067445Y042005D01*
X067445Y042163D02*
X066284Y042163D01*
X066399Y042322D02*
X067445Y042322D01*
X067445Y042480D02*
X066456Y042480D01*
X066468Y042639D02*
X067445Y042639D01*
X067445Y042797D02*
X066440Y042797D01*
X066367Y042956D02*
X067445Y042956D01*
X067445Y043114D02*
X066220Y043114D01*
X065843Y043114D02*
X065823Y043114D01*
X065823Y042956D02*
X065843Y042956D01*
X065843Y042797D02*
X065823Y042797D01*
X065823Y042639D02*
X065843Y042639D01*
X065843Y042480D02*
X065823Y042480D01*
X065823Y042322D02*
X065843Y042322D01*
X065843Y042163D02*
X065823Y042163D01*
X065823Y042005D02*
X065843Y042005D01*
X065843Y041846D02*
X065823Y041846D01*
X065823Y041688D02*
X065843Y041688D01*
X065330Y042005D02*
X064337Y042005D01*
X064284Y042163D02*
X065382Y042163D01*
X065268Y042322D02*
X064443Y042322D01*
X064468Y042480D02*
X065211Y042480D01*
X065198Y042639D02*
X064468Y042639D01*
X064468Y042797D02*
X065226Y042797D01*
X065299Y042956D02*
X064386Y042956D01*
X064227Y043114D02*
X065447Y043114D01*
X066222Y043907D02*
X060260Y043907D01*
X060102Y044065D02*
X066063Y044065D01*
X065987Y044224D02*
X059774Y044224D01*
X059615Y044382D02*
X065921Y044382D01*
X065903Y044541D02*
X059457Y044541D01*
X059298Y044699D02*
X065903Y044699D01*
X065929Y044858D02*
X059140Y044858D01*
X058981Y045016D02*
X065995Y045016D01*
X066083Y045175D02*
X058823Y045175D01*
X058664Y045333D02*
X066241Y045333D01*
X066484Y043748D02*
X060419Y043748D01*
X060433Y043590D02*
X067445Y043590D01*
X067445Y043748D02*
X067183Y043748D01*
X067445Y043431D02*
X060433Y043431D01*
X060433Y043273D02*
X067445Y043273D01*
X066333Y041110D02*
X063458Y041110D01*
X061833Y042735D01*
X058583Y042735D01*
X057958Y042110D01*
X056833Y042110D01*
X056434Y042710D02*
X056213Y042619D01*
X056045Y042450D01*
X055953Y042229D01*
X055953Y042010D01*
X055058Y042010D01*
X055058Y042110D01*
X055058Y042359D01*
X054707Y042710D01*
X054458Y042710D01*
X054210Y042710D01*
X053858Y042359D01*
X053858Y042110D01*
X053858Y042010D01*
X051004Y042010D01*
X050857Y041949D01*
X050482Y041574D01*
X050438Y041531D01*
X050438Y044505D01*
X058135Y044505D01*
X059233Y043406D01*
X059233Y043236D01*
X059335Y043135D01*
X058504Y043135D01*
X058357Y043074D01*
X057793Y042510D01*
X057562Y042510D01*
X057453Y042619D01*
X057233Y042710D01*
X056434Y042710D01*
X056262Y042639D02*
X054778Y042639D01*
X054937Y042480D02*
X056075Y042480D01*
X055992Y042322D02*
X055058Y042322D01*
X055058Y042163D02*
X055953Y042163D01*
X055058Y042110D02*
X054458Y042110D01*
X053858Y042110D01*
X054458Y042110D01*
X054458Y042110D01*
X054458Y042710D01*
X054458Y042110D01*
X054458Y042110D01*
X054458Y042110D01*
X055058Y042110D01*
X054458Y042163D02*
X054458Y042163D01*
X054458Y042322D02*
X054458Y042322D01*
X054458Y042480D02*
X054458Y042480D01*
X054458Y042639D02*
X054458Y042639D01*
X054138Y042639D02*
X050438Y042639D01*
X050438Y042797D02*
X058080Y042797D01*
X058082Y042885D02*
X058433Y043236D01*
X058433Y043485D01*
X058433Y043734D01*
X058082Y044085D01*
X057833Y044085D01*
X057585Y044085D01*
X057233Y043734D01*
X057233Y043485D01*
X057233Y043236D01*
X057585Y042885D01*
X057833Y042885D01*
X057833Y043485D01*
X057233Y043485D01*
X057833Y043485D01*
X057833Y043485D01*
X057833Y043485D01*
X057833Y044085D01*
X057833Y043485D01*
X057833Y043485D01*
X057833Y042885D01*
X058082Y042885D01*
X058152Y042956D02*
X058238Y042956D01*
X058311Y043114D02*
X058453Y043114D01*
X058433Y043273D02*
X059233Y043273D01*
X059208Y043431D02*
X058433Y043431D01*
X058433Y043485D02*
X057833Y043485D01*
X058433Y043485D01*
X058433Y043590D02*
X059050Y043590D01*
X058891Y043748D02*
X058419Y043748D01*
X058260Y043907D02*
X058733Y043907D01*
X058574Y044065D02*
X058102Y044065D01*
X057833Y044065D02*
X057833Y044065D01*
X057833Y043907D02*
X057833Y043907D01*
X057833Y043748D02*
X057833Y043748D01*
X057833Y043590D02*
X057833Y043590D01*
X057833Y043485D02*
X057833Y043485D01*
X057833Y043431D02*
X057833Y043431D01*
X057833Y043273D02*
X057833Y043273D01*
X057833Y043114D02*
X057833Y043114D01*
X057833Y042956D02*
X057833Y042956D01*
X057514Y042956D02*
X050438Y042956D01*
X050438Y043114D02*
X057356Y043114D01*
X057233Y043273D02*
X050438Y043273D01*
X050438Y043431D02*
X057233Y043431D01*
X057233Y043590D02*
X050438Y043590D01*
X050438Y043748D02*
X057248Y043748D01*
X057406Y043907D02*
X050438Y043907D01*
X050438Y044065D02*
X057565Y044065D01*
X058257Y044382D02*
X050438Y044382D01*
X050438Y044224D02*
X058416Y044224D01*
X057921Y042639D02*
X057405Y042639D01*
X058083Y041610D02*
X051083Y041610D01*
X050708Y041235D01*
X050708Y038485D01*
X051083Y038110D01*
X051458Y038110D01*
X050837Y037603D02*
X050787Y037568D01*
X050721Y037501D01*
X050665Y037424D01*
X050622Y037340D01*
X050593Y037250D01*
X049949Y037250D01*
X049919Y037340D01*
X049876Y037424D01*
X049821Y037501D01*
X049754Y037568D01*
X049696Y037610D01*
X049754Y037652D01*
X049821Y037719D01*
X049876Y037796D01*
X049919Y037880D01*
X049949Y037969D01*
X049963Y038063D01*
X049963Y038110D01*
X049963Y038157D01*
X049949Y038250D01*
X049919Y038340D01*
X049876Y038424D01*
X049821Y038501D01*
X049754Y038568D01*
X049705Y038603D01*
X049872Y038770D01*
X049963Y038991D01*
X049963Y039229D01*
X049872Y039450D01*
X049703Y039619D01*
X049563Y039677D01*
X049563Y039741D01*
X049683Y039861D01*
X049683Y040031D01*
X050230Y040578D01*
X050308Y040578D01*
X050230Y040578D02*
X050308Y040656D01*
X050308Y038405D01*
X050369Y038258D01*
X050578Y038049D01*
X050578Y037991D01*
X050670Y037770D01*
X050837Y037603D01*
X050786Y037567D02*
X049755Y037567D01*
X049825Y037725D02*
X050715Y037725D01*
X050623Y037884D02*
X049921Y037884D01*
X049960Y038042D02*
X050578Y038042D01*
X050427Y038201D02*
X049956Y038201D01*
X049963Y038110D02*
X049083Y038110D01*
X049083Y038110D01*
X049083Y037110D01*
X049083Y037110D01*
X049083Y037710D01*
X049083Y038110D01*
X049083Y038110D01*
X049963Y038110D01*
X049910Y038359D02*
X050328Y038359D01*
X050308Y038518D02*
X049804Y038518D01*
X049778Y038676D02*
X050308Y038676D01*
X050308Y038835D02*
X049899Y038835D01*
X049963Y038993D02*
X050308Y038993D01*
X050308Y039152D02*
X049963Y039152D01*
X049930Y039310D02*
X050308Y039310D01*
X050308Y039469D02*
X049853Y039469D01*
X049683Y039627D02*
X050308Y039627D01*
X050308Y039786D02*
X049607Y039786D01*
X049683Y039944D02*
X050308Y039944D01*
X050308Y040103D02*
X049755Y040103D01*
X049913Y040261D02*
X050308Y040261D01*
X050308Y040420D02*
X050072Y040420D01*
X049348Y041054D02*
X044233Y041054D01*
X044233Y041212D02*
X049478Y041212D01*
X049478Y041371D02*
X044233Y041371D01*
X044233Y041529D02*
X048816Y041529D01*
X048657Y041688D02*
X044233Y041688D01*
X044233Y041846D02*
X048499Y041846D01*
X048483Y042005D02*
X044233Y042005D01*
X044233Y042163D02*
X048483Y042163D01*
X048483Y042322D02*
X044233Y042322D01*
X044233Y042480D02*
X048605Y042480D01*
X048763Y042639D02*
X044293Y042639D01*
X044372Y042797D02*
X049478Y042797D01*
X049478Y042639D02*
X049403Y042639D01*
X049083Y042639D02*
X049083Y042639D01*
X049083Y042480D02*
X049083Y042480D01*
X049083Y042322D02*
X049083Y042322D01*
X049083Y042163D02*
X049083Y042163D01*
X049083Y042005D02*
X049083Y042005D01*
X049083Y041846D02*
X049083Y041846D01*
X049083Y041688D02*
X049083Y041688D01*
X049083Y041529D02*
X049083Y041529D01*
X049351Y041529D02*
X049478Y041529D01*
X049190Y040895D02*
X044233Y040895D01*
X044233Y040737D02*
X049031Y040737D01*
X048703Y040578D02*
X044233Y040578D01*
X044233Y040420D02*
X048544Y040420D01*
X048483Y040261D02*
X044233Y040261D01*
X044233Y040103D02*
X048483Y040103D01*
X048483Y039944D02*
X044233Y039944D01*
X044233Y039786D02*
X048559Y039786D01*
X048484Y039627D02*
X046683Y039627D01*
X046083Y039110D02*
X047458Y039110D01*
X048333Y038235D01*
X048333Y032860D01*
X048583Y032610D01*
X055333Y032610D01*
X056583Y031360D01*
X056583Y030860D01*
X055583Y030860D02*
X055583Y031360D01*
X054708Y032235D01*
X048458Y032235D01*
X047958Y032735D01*
X047958Y037235D01*
X047083Y038110D01*
X046083Y038110D01*
X045362Y038518D02*
X044233Y038518D01*
X044233Y038676D02*
X045389Y038676D01*
X045268Y038835D02*
X044233Y038835D01*
X044233Y038993D02*
X045203Y038993D01*
X045203Y039152D02*
X044233Y039152D01*
X044233Y039310D02*
X045237Y039310D01*
X045313Y039469D02*
X044233Y039469D01*
X044233Y039627D02*
X045484Y039627D01*
X045257Y038359D02*
X044233Y038359D01*
X044233Y038201D02*
X045203Y038201D01*
X045203Y038042D02*
X044233Y038042D01*
X044233Y037884D02*
X045248Y037884D01*
X045340Y037725D02*
X044233Y037725D01*
X044197Y037567D02*
X045411Y037567D01*
X045277Y037408D02*
X044072Y037408D01*
X043914Y037250D02*
X045212Y037250D01*
X045203Y037091D02*
X043858Y037091D01*
X043858Y036933D02*
X045227Y036933D01*
X045293Y036774D02*
X043858Y036774D01*
X043858Y036616D02*
X045449Y036616D01*
X045302Y036457D02*
X043858Y036457D01*
X043858Y036299D02*
X045232Y036299D01*
X045203Y036140D02*
X043858Y036140D01*
X043858Y035982D02*
X045207Y035982D01*
X045273Y035823D02*
X043858Y035823D01*
X043858Y035665D02*
X045400Y035665D01*
X045351Y035506D02*
X043858Y035506D01*
X043858Y035348D02*
X045252Y035348D01*
X045203Y035189D02*
X043858Y035189D01*
X043858Y035031D02*
X045203Y035031D01*
X045252Y034872D02*
X043858Y034872D01*
X043858Y034714D02*
X045351Y034714D01*
X045400Y034555D02*
X043858Y034555D01*
X043858Y034397D02*
X045273Y034397D01*
X045207Y034238D02*
X043858Y034238D01*
X043858Y034080D02*
X045203Y034080D01*
X045232Y033921D02*
X043858Y033921D01*
X043858Y033763D02*
X045302Y033763D01*
X045461Y033604D02*
X043858Y033604D01*
X043858Y033446D02*
X045305Y033446D01*
X045230Y033287D02*
X043858Y033287D01*
X043858Y033129D02*
X045203Y033129D01*
X045218Y032970D02*
X043858Y032970D01*
X043858Y032812D02*
X045282Y032812D01*
X045412Y032653D02*
X043858Y032653D01*
X043858Y032495D02*
X047198Y032495D01*
X047183Y032653D02*
X046755Y032653D01*
X046885Y032812D02*
X047183Y032812D01*
X047183Y032970D02*
X046949Y032970D01*
X046963Y033110D02*
X046083Y033110D01*
X046963Y033110D01*
X046963Y033129D02*
X047183Y033129D01*
X047183Y033287D02*
X046937Y033287D01*
X046861Y033446D02*
X047183Y033446D01*
X047183Y033604D02*
X046706Y033604D01*
X046864Y033763D02*
X047183Y033763D01*
X047183Y033921D02*
X046934Y033921D01*
X046963Y034080D02*
X047173Y034080D01*
X047015Y034238D02*
X046960Y034238D01*
X047583Y034235D02*
X046708Y035110D01*
X046083Y035110D01*
X046083Y036110D02*
X046083Y037110D01*
X048141Y038993D02*
X048203Y038993D01*
X048203Y039152D02*
X047982Y039152D01*
X047824Y039310D02*
X048237Y039310D01*
X048313Y039469D02*
X047638Y039469D01*
X049083Y038042D02*
X049083Y038042D01*
X049083Y037884D02*
X049083Y037884D01*
X049083Y037725D02*
X049083Y037725D01*
X049083Y037567D02*
X049083Y037567D01*
X049083Y037408D02*
X049083Y037408D01*
X049083Y037250D02*
X049083Y037250D01*
X049083Y037110D02*
X049963Y037110D01*
X049963Y037157D01*
X049949Y037250D01*
X049963Y037110D02*
X049083Y037110D01*
X049083Y037110D01*
X049705Y036617D02*
X049754Y036652D01*
X049821Y036719D01*
X049876Y036796D01*
X049919Y036880D01*
X049949Y036969D01*
X049963Y037063D01*
X049963Y037110D01*
X049963Y037091D02*
X050578Y037091D01*
X050578Y037110D02*
X050578Y037063D01*
X050593Y036969D01*
X050622Y036880D01*
X050665Y036796D01*
X050721Y036719D01*
X050787Y036652D01*
X050837Y036617D01*
X050670Y036450D01*
X050578Y036229D01*
X050578Y035991D01*
X050670Y035770D01*
X050837Y035603D01*
X050787Y035568D01*
X050721Y035501D01*
X050665Y035424D01*
X050622Y035340D01*
X050593Y035250D01*
X050578Y035157D01*
X050578Y035110D01*
X050578Y035063D01*
X050593Y034969D01*
X050622Y034880D01*
X050665Y034796D01*
X050721Y034719D01*
X050787Y034652D01*
X050837Y034617D01*
X050670Y034450D01*
X050578Y034229D01*
X050578Y033991D01*
X050670Y033770D01*
X050837Y033603D01*
X050787Y033568D01*
X050721Y033501D01*
X050665Y033424D01*
X050622Y033340D01*
X050593Y033250D01*
X050578Y033157D01*
X050578Y033110D01*
X050578Y033063D01*
X050587Y033010D01*
X049963Y033010D01*
X049963Y033229D01*
X049872Y033450D01*
X049705Y033617D01*
X049754Y033652D01*
X049821Y033719D01*
X049876Y033796D01*
X049919Y033880D01*
X049949Y033969D01*
X049963Y034063D01*
X049963Y034110D01*
X049963Y034157D01*
X049949Y034250D01*
X049919Y034340D01*
X049876Y034424D01*
X049821Y034501D01*
X049754Y034568D01*
X049696Y034610D01*
X049754Y034652D01*
X049821Y034719D01*
X049876Y034796D01*
X049919Y034880D01*
X049949Y034969D01*
X049963Y035063D01*
X049963Y035110D01*
X049963Y035157D01*
X049949Y035250D01*
X049919Y035340D01*
X049876Y035424D01*
X049821Y035501D01*
X049754Y035568D01*
X049705Y035603D01*
X049872Y035770D01*
X049963Y035991D01*
X049963Y036229D01*
X049872Y036450D01*
X049705Y036617D01*
X049706Y036616D02*
X050835Y036616D01*
X050681Y036774D02*
X049861Y036774D01*
X049937Y036933D02*
X050605Y036933D01*
X050578Y037110D02*
X051458Y037110D01*
X051458Y037110D01*
X050578Y037110D01*
X050578Y037157D01*
X050593Y037250D01*
X050657Y037408D02*
X049885Y037408D01*
X049865Y036457D02*
X050677Y036457D01*
X050607Y036299D02*
X049935Y036299D01*
X049963Y036140D02*
X050578Y036140D01*
X050582Y035982D02*
X049960Y035982D01*
X049894Y035823D02*
X050648Y035823D01*
X050775Y035665D02*
X049766Y035665D01*
X049816Y035506D02*
X050726Y035506D01*
X050626Y035348D02*
X049916Y035348D01*
X049958Y035189D02*
X050583Y035189D01*
X050578Y035110D02*
X051458Y035110D01*
X050578Y035110D01*
X050583Y035031D02*
X049958Y035031D01*
X049963Y035110D02*
X049083Y035110D01*
X049083Y035110D01*
X049083Y034110D01*
X049083Y034110D01*
X049083Y034510D01*
X049083Y035110D01*
X049963Y035110D01*
X049915Y034872D02*
X050626Y034872D01*
X050726Y034714D02*
X049815Y034714D01*
X049767Y034555D02*
X050775Y034555D01*
X050648Y034397D02*
X049891Y034397D01*
X049951Y034238D02*
X050582Y034238D01*
X050578Y034080D02*
X049963Y034080D01*
X049963Y034110D02*
X049083Y034110D01*
X049963Y034110D01*
X049933Y033921D02*
X050607Y033921D01*
X050677Y033763D02*
X049853Y033763D01*
X049718Y033604D02*
X050836Y033604D01*
X050680Y033446D02*
X049874Y033446D01*
X049939Y033287D02*
X050605Y033287D01*
X050578Y033129D02*
X049963Y033129D01*
X050578Y033110D02*
X051458Y033110D01*
X051458Y033110D01*
X050578Y033110D01*
X051458Y033110D02*
X052338Y033110D01*
X052338Y033157D01*
X052324Y033250D01*
X052294Y033340D01*
X052251Y033424D01*
X052196Y033501D01*
X052129Y033568D01*
X052080Y033603D01*
X052247Y033770D01*
X052338Y033991D01*
X052338Y034229D01*
X052296Y034332D01*
X053357Y033271D01*
X053504Y033210D01*
X053578Y033210D01*
X053578Y033010D01*
X052330Y033010D01*
X052338Y033063D01*
X052338Y033110D01*
X051458Y033110D01*
X051458Y033110D01*
X052081Y033604D02*
X053024Y033604D01*
X053182Y033446D02*
X052236Y033446D01*
X052312Y033287D02*
X053341Y033287D01*
X053578Y033129D02*
X052338Y033129D01*
X052239Y033763D02*
X052865Y033763D01*
X052707Y033921D02*
X052309Y033921D01*
X052338Y034080D02*
X052548Y034080D01*
X052390Y034238D02*
X052335Y034238D01*
X052208Y034985D02*
X052208Y038735D01*
X051833Y039110D01*
X051458Y039110D01*
X051108Y039710D02*
X051108Y041069D01*
X051249Y041210D01*
X055953Y041210D01*
X055953Y040991D01*
X056045Y040770D01*
X056205Y040610D01*
X056045Y040450D01*
X055953Y040229D01*
X055953Y039991D01*
X056045Y039770D01*
X056205Y039610D01*
X056045Y039450D01*
X055953Y039229D01*
X055953Y038991D01*
X056045Y038770D01*
X056205Y038610D01*
X056045Y038450D01*
X055953Y038229D01*
X055953Y037991D01*
X056045Y037770D01*
X056205Y037610D01*
X056045Y037450D01*
X055953Y037229D01*
X055953Y036991D01*
X056045Y036770D01*
X056205Y036610D01*
X056045Y036450D01*
X055953Y036229D01*
X055953Y035991D01*
X056045Y035770D01*
X056205Y035610D01*
X056045Y035450D01*
X055953Y035229D01*
X055953Y034991D01*
X056045Y034770D01*
X056205Y034610D01*
X056045Y034450D01*
X055953Y034229D01*
X055953Y034010D01*
X055330Y034010D01*
X055338Y034063D01*
X055338Y034110D01*
X055338Y034157D01*
X055324Y034250D01*
X055294Y034340D01*
X055251Y034424D01*
X055196Y034501D01*
X055129Y034568D01*
X055080Y034603D01*
X055247Y034770D01*
X055338Y034991D01*
X055338Y035229D01*
X055247Y035450D01*
X055080Y035617D01*
X055129Y035652D01*
X055196Y035719D01*
X055251Y035796D01*
X055294Y035880D01*
X055324Y035969D01*
X055338Y036063D01*
X055338Y036110D01*
X055338Y036157D01*
X055324Y036250D01*
X055294Y036340D01*
X055251Y036424D01*
X055196Y036501D01*
X055129Y036568D01*
X055080Y036603D01*
X055247Y036770D01*
X055338Y036991D01*
X055338Y037229D01*
X055247Y037450D01*
X055080Y037617D01*
X055129Y037652D01*
X055196Y037719D01*
X055251Y037796D01*
X055294Y037880D01*
X055324Y037969D01*
X055338Y038063D01*
X055338Y038110D01*
X055338Y038157D01*
X055324Y038250D01*
X055294Y038340D01*
X055251Y038424D01*
X055196Y038501D01*
X055129Y038568D01*
X055080Y038603D01*
X055247Y038770D01*
X055338Y038991D01*
X055338Y039229D01*
X055247Y039450D01*
X055078Y039619D01*
X054938Y039677D01*
X054938Y039741D01*
X055058Y039861D01*
X055058Y040359D01*
X054707Y040710D01*
X054210Y040710D01*
X053858Y040359D01*
X053858Y039861D01*
X053978Y039741D01*
X053978Y039677D01*
X053838Y039619D01*
X053670Y039450D01*
X053578Y039229D01*
X053578Y038991D01*
X053670Y038770D01*
X053837Y038603D01*
X053787Y038568D01*
X053721Y038501D01*
X053665Y038424D01*
X053622Y038340D01*
X053593Y038250D01*
X053578Y038157D01*
X053578Y038110D01*
X053578Y038063D01*
X053593Y037969D01*
X053622Y037880D01*
X053665Y037796D01*
X053721Y037719D01*
X053787Y037652D01*
X053837Y037617D01*
X053670Y037450D01*
X053578Y037229D01*
X053578Y036991D01*
X053670Y036770D01*
X053837Y036603D01*
X053787Y036568D01*
X053721Y036501D01*
X053665Y036424D01*
X053622Y036340D01*
X053593Y036250D01*
X053578Y036157D01*
X053578Y036110D01*
X053578Y036063D01*
X053593Y035969D01*
X053622Y035880D01*
X053665Y035796D01*
X053721Y035719D01*
X053787Y035652D01*
X053837Y035617D01*
X053670Y035450D01*
X053578Y035229D01*
X053578Y034991D01*
X053670Y034770D01*
X053837Y034603D01*
X053787Y034568D01*
X053721Y034501D01*
X053665Y034424D01*
X053622Y034340D01*
X053593Y034250D01*
X053582Y034177D01*
X052608Y035151D01*
X052608Y038815D01*
X052547Y038962D01*
X052338Y039171D01*
X052338Y039229D01*
X052247Y039450D01*
X052078Y039619D01*
X051858Y039710D01*
X051108Y039710D01*
X051108Y039786D02*
X053934Y039786D01*
X053858Y039944D02*
X051108Y039944D01*
X051108Y040103D02*
X053858Y040103D01*
X053858Y040261D02*
X051108Y040261D01*
X051108Y040420D02*
X053919Y040420D01*
X054078Y040578D02*
X051108Y040578D01*
X051108Y040737D02*
X056078Y040737D01*
X055993Y040895D02*
X051108Y040895D01*
X051108Y041054D02*
X055953Y041054D01*
X056173Y040578D02*
X054839Y040578D01*
X054997Y040420D02*
X056032Y040420D01*
X055966Y040261D02*
X055058Y040261D01*
X055058Y040103D02*
X055953Y040103D01*
X055973Y039944D02*
X055058Y039944D01*
X054982Y039786D02*
X056038Y039786D01*
X056188Y039627D02*
X055058Y039627D01*
X055228Y039469D02*
X056063Y039469D01*
X055987Y039310D02*
X055305Y039310D01*
X055338Y039152D02*
X055953Y039152D01*
X055953Y038993D02*
X055338Y038993D01*
X055274Y038835D02*
X056018Y038835D01*
X056139Y038676D02*
X055153Y038676D01*
X055179Y038518D02*
X056112Y038518D01*
X056007Y038359D02*
X055285Y038359D01*
X055331Y038201D02*
X055953Y038201D01*
X055953Y038042D02*
X055335Y038042D01*
X055338Y038110D02*
X054458Y038110D01*
X053578Y038110D01*
X054458Y038110D01*
X054458Y038110D01*
X055338Y038110D01*
X055296Y037884D02*
X055998Y037884D01*
X056090Y037725D02*
X055200Y037725D01*
X055130Y037567D02*
X056161Y037567D01*
X056027Y037408D02*
X055264Y037408D01*
X055330Y037250D02*
X055962Y037250D01*
X055953Y037091D02*
X055338Y037091D01*
X055314Y036933D02*
X055977Y036933D01*
X056043Y036774D02*
X055249Y036774D01*
X055092Y036616D02*
X056199Y036616D01*
X056052Y036457D02*
X055228Y036457D01*
X055308Y036299D02*
X055982Y036299D01*
X055953Y036140D02*
X055338Y036140D01*
X055338Y036110D02*
X054458Y036110D01*
X053578Y036110D01*
X054458Y036110D01*
X054458Y036110D01*
X054458Y036110D01*
X055338Y036110D01*
X055325Y035982D02*
X055957Y035982D01*
X056023Y035823D02*
X055266Y035823D01*
X055141Y035665D02*
X056150Y035665D01*
X056101Y035506D02*
X055191Y035506D01*
X055289Y035348D02*
X056002Y035348D01*
X055953Y035189D02*
X055338Y035189D01*
X055338Y035031D02*
X055953Y035031D01*
X056002Y034872D02*
X055289Y034872D01*
X055190Y034714D02*
X056101Y034714D01*
X056150Y034555D02*
X055142Y034555D01*
X055266Y034397D02*
X056023Y034397D01*
X055957Y034238D02*
X055326Y034238D01*
X055338Y034110D02*
X054458Y034110D01*
X054458Y034110D01*
X055338Y034110D01*
X055338Y034080D02*
X055953Y034080D01*
X055962Y033210D02*
X055338Y033210D01*
X055338Y033010D01*
X055413Y033010D01*
X055560Y032949D01*
X055672Y032837D01*
X056816Y031693D01*
X056923Y031649D01*
X057083Y031489D01*
X057243Y031649D01*
X057464Y031740D01*
X057703Y031740D01*
X057752Y031720D01*
X058119Y032087D01*
X058232Y032199D01*
X058379Y032260D01*
X058383Y032260D01*
X058357Y032271D01*
X057689Y032939D01*
X057669Y032880D01*
X057626Y032796D01*
X057571Y032719D01*
X057504Y032652D01*
X057428Y032597D01*
X057344Y032554D01*
X057254Y032525D01*
X057161Y032510D01*
X056833Y032510D01*
X056833Y033110D01*
X055953Y033110D01*
X055953Y033063D01*
X055968Y032969D01*
X055997Y032880D01*
X056040Y032796D01*
X056096Y032719D01*
X056162Y032652D01*
X056239Y032597D01*
X056323Y032554D01*
X056413Y032525D01*
X056506Y032510D01*
X056833Y032510D01*
X056833Y033110D01*
X056833Y033110D01*
X055953Y033110D01*
X055953Y033157D01*
X055962Y033210D01*
X055953Y033129D02*
X055338Y033129D01*
X055509Y032970D02*
X055968Y032970D01*
X056032Y032812D02*
X055697Y032812D01*
X055856Y032653D02*
X056162Y032653D01*
X056014Y032495D02*
X058133Y032495D01*
X057975Y032653D02*
X057505Y032653D01*
X057635Y032812D02*
X057816Y032812D01*
X058292Y032336D02*
X056173Y032336D01*
X056331Y032178D02*
X058210Y032178D01*
X058052Y032019D02*
X056490Y032019D01*
X056648Y031861D02*
X057893Y031861D01*
X058083Y031485D02*
X058458Y031860D01*
X060208Y031860D01*
X060583Y031485D01*
X060583Y030860D01*
X059583Y030860D02*
X059583Y030360D01*
X062833Y027110D01*
X065333Y027110D01*
X065833Y026610D01*
X063833Y025610D02*
X058583Y030860D01*
X058083Y030235D02*
X058083Y031485D01*
X057372Y031702D02*
X056807Y031702D01*
X057028Y031544D02*
X057138Y031544D01*
X056833Y032653D02*
X056833Y032653D01*
X056833Y032812D02*
X056833Y032812D01*
X056833Y032970D02*
X056833Y032970D01*
X056833Y033110D02*
X056833Y033110D01*
X057583Y033610D02*
X053583Y033610D01*
X052208Y034985D01*
X052608Y035189D02*
X053578Y035189D01*
X053578Y035031D02*
X052728Y035031D01*
X052887Y034872D02*
X053627Y034872D01*
X053726Y034714D02*
X053045Y034714D01*
X053204Y034555D02*
X053775Y034555D01*
X053651Y034397D02*
X053362Y034397D01*
X053521Y034238D02*
X053591Y034238D01*
X053627Y035348D02*
X052608Y035348D01*
X052608Y035506D02*
X053726Y035506D01*
X053775Y035665D02*
X052608Y035665D01*
X052608Y035823D02*
X053651Y035823D01*
X053591Y035982D02*
X052608Y035982D01*
X052608Y036140D02*
X053578Y036140D01*
X053609Y036299D02*
X052608Y036299D01*
X052608Y036457D02*
X053689Y036457D01*
X053824Y036616D02*
X052608Y036616D01*
X052608Y036774D02*
X053668Y036774D01*
X053602Y036933D02*
X052608Y036933D01*
X052608Y037091D02*
X053578Y037091D01*
X053587Y037250D02*
X052608Y037250D01*
X052608Y037408D02*
X053652Y037408D01*
X053786Y037567D02*
X052608Y037567D01*
X052608Y037725D02*
X053716Y037725D01*
X053621Y037884D02*
X052608Y037884D01*
X052608Y038042D02*
X053582Y038042D01*
X053585Y038201D02*
X052608Y038201D01*
X052608Y038359D02*
X053632Y038359D01*
X053737Y038518D02*
X052608Y038518D01*
X052608Y038676D02*
X053764Y038676D01*
X053643Y038835D02*
X052600Y038835D01*
X052516Y038993D02*
X053578Y038993D01*
X053578Y039152D02*
X052357Y039152D01*
X052305Y039310D02*
X053612Y039310D01*
X053688Y039469D02*
X052228Y039469D01*
X052058Y039627D02*
X053859Y039627D01*
X054458Y038110D02*
X054458Y038110D01*
X056833Y038110D02*
X058083Y038110D01*
X058583Y037610D01*
X063833Y037610D01*
X063833Y036610D02*
X058583Y036610D01*
X058083Y037110D01*
X056833Y037110D01*
X056833Y036110D02*
X058083Y036110D01*
X058583Y035610D01*
X063833Y035610D01*
X063833Y034610D02*
X058583Y034610D01*
X058083Y035110D01*
X056833Y035110D01*
X056833Y034110D02*
X058083Y034110D01*
X058583Y033610D01*
X063833Y033610D01*
X063833Y032610D02*
X058583Y032610D01*
X057583Y033610D01*
X059833Y033110D02*
X061958Y033110D01*
X061958Y034110D02*
X059833Y034110D01*
X059833Y035110D02*
X061958Y035110D01*
X061958Y036110D02*
X059833Y036110D01*
X059833Y037110D02*
X061958Y037110D01*
X061958Y038110D02*
X059833Y038110D01*
X059833Y039110D02*
X061958Y039110D01*
X061958Y040110D02*
X059833Y040110D01*
X059833Y041110D02*
X058583Y041110D01*
X058083Y041610D01*
X058083Y041110D02*
X056833Y041110D01*
X058083Y041110D02*
X058583Y040610D01*
X063833Y040610D01*
X063833Y039610D02*
X058583Y039610D01*
X058083Y040110D01*
X056833Y040110D01*
X056833Y039110D02*
X058083Y039110D01*
X058583Y038610D01*
X063833Y038610D01*
X061958Y041110D02*
X060958Y042110D01*
X059833Y042110D01*
X061963Y043114D02*
X063439Y043114D01*
X063281Y042956D02*
X062178Y042956D01*
X062337Y042797D02*
X063198Y042797D01*
X063198Y042639D02*
X062495Y042639D01*
X062654Y042480D02*
X063198Y042480D01*
X063224Y042322D02*
X062812Y042322D01*
X062971Y042163D02*
X063382Y042163D01*
X063330Y042005D02*
X063129Y042005D01*
X063823Y042005D02*
X063843Y042005D01*
X063843Y042163D02*
X063823Y042163D01*
X063823Y042322D02*
X063843Y042322D01*
X063843Y042480D02*
X063823Y042480D01*
X063823Y042639D02*
X063843Y042639D01*
X063843Y042797D02*
X063823Y042797D01*
X063823Y042956D02*
X063843Y042956D01*
X063843Y043114D02*
X063823Y043114D01*
X063823Y041846D02*
X063843Y041846D01*
X063843Y041688D02*
X063823Y041688D01*
X064468Y041688D02*
X065198Y041688D01*
X065198Y041846D02*
X064468Y041846D01*
X064468Y041529D02*
X065198Y041529D01*
X066333Y041110D02*
X066833Y040610D01*
X066833Y022360D01*
X066583Y022110D01*
X064333Y022110D01*
X063833Y021610D01*
X063359Y022034D02*
X062225Y022034D01*
X062067Y022192D02*
X063353Y022192D01*
X063198Y022351D02*
X061871Y022351D01*
X061708Y021985D02*
X050833Y021985D01*
X048458Y021985D01*
X047958Y022485D01*
X042833Y022485D01*
X042333Y021985D01*
X039833Y021985D01*
X036958Y021985D01*
X036458Y022485D01*
X032833Y022485D01*
X032333Y021985D01*
X031333Y021985D01*
X027958Y021985D01*
X027458Y022485D01*
X024208Y022485D01*
X023708Y021985D01*
X022833Y021985D01*
X019833Y021985D01*
X019333Y022485D01*
X016083Y022485D01*
X015583Y021985D01*
X014333Y021985D01*
X014333Y020985D02*
X015583Y020985D01*
X016083Y021485D01*
X019333Y021485D01*
X019833Y020985D01*
X022833Y020985D01*
X023708Y020985D01*
X024208Y021485D01*
X027458Y021485D01*
X027958Y020985D01*
X031333Y020985D01*
X032333Y020985D01*
X032833Y021485D01*
X036458Y021485D01*
X036958Y020985D01*
X039833Y020985D01*
X042333Y020985D01*
X042833Y021485D01*
X042833Y020485D02*
X047958Y020485D01*
X048458Y019985D01*
X050833Y019985D01*
X062708Y019985D01*
X063083Y019610D01*
X063833Y019610D01*
X062833Y019110D02*
X065333Y019110D01*
X065833Y019610D01*
X065833Y018610D02*
X065333Y018110D01*
X062833Y018110D01*
X061708Y016985D01*
X050833Y016985D01*
X048458Y016985D01*
X047958Y017485D01*
X042833Y017485D01*
X042333Y016985D01*
X039833Y016985D01*
X036958Y016985D01*
X036458Y017485D01*
X032833Y017485D01*
X032333Y016985D01*
X031333Y016985D01*
X027958Y016985D01*
X027458Y017485D01*
X024208Y017485D01*
X023708Y016985D01*
X022833Y016985D01*
X019833Y016985D01*
X019333Y017485D01*
X016083Y017485D01*
X015583Y016985D01*
X014333Y016985D01*
X015583Y016485D02*
X011583Y016485D01*
X011083Y016985D01*
X008333Y016985D01*
X008333Y015985D02*
X011083Y015985D01*
X011583Y015485D01*
X015583Y015485D01*
X016083Y015985D01*
X016833Y015985D01*
X019333Y015985D01*
X019833Y015485D01*
X023708Y015485D01*
X024208Y015985D01*
X025333Y015985D01*
X027458Y015985D01*
X027958Y015485D01*
X032333Y015485D01*
X032833Y015985D01*
X033833Y015985D01*
X036458Y015985D01*
X036958Y015485D01*
X042333Y015485D01*
X042833Y015985D01*
X044833Y015985D01*
X047958Y015985D01*
X048458Y015485D01*
X061208Y015485D01*
X062333Y016610D01*
X063833Y016610D01*
X064333Y016110D02*
X065833Y017610D01*
X063833Y017610D02*
X062833Y017610D01*
X061208Y015985D01*
X050833Y015985D01*
X048458Y015985D01*
X047958Y016485D01*
X042833Y016485D01*
X042333Y015985D01*
X039833Y015985D01*
X036958Y015985D01*
X036458Y016485D01*
X032833Y016485D01*
X032333Y015985D01*
X031333Y015985D01*
X027958Y015985D01*
X027458Y016485D01*
X024208Y016485D01*
X023708Y015985D01*
X022833Y015985D01*
X019833Y015985D01*
X019333Y016485D01*
X016083Y016485D01*
X015583Y015985D01*
X014333Y015985D01*
X015583Y016485D02*
X016083Y016985D01*
X016833Y016985D01*
X019333Y016985D01*
X019833Y016485D01*
X023708Y016485D01*
X024208Y016985D01*
X025333Y016985D01*
X027458Y016985D01*
X027958Y016485D01*
X032333Y016485D01*
X032833Y016985D01*
X033833Y016985D01*
X036458Y016985D01*
X036958Y016485D01*
X042333Y016485D01*
X042833Y016985D01*
X044833Y016985D01*
X047958Y016985D01*
X048458Y016485D01*
X058833Y016485D01*
X056833Y017485D02*
X048458Y017485D01*
X047958Y017985D01*
X044833Y017985D01*
X042833Y017985D01*
X042333Y017485D01*
X036958Y017485D01*
X036458Y017985D01*
X033833Y017985D01*
X032833Y017985D01*
X032333Y017485D01*
X027958Y017485D01*
X027458Y017985D01*
X025333Y017985D01*
X024208Y017985D01*
X023708Y017485D01*
X019833Y017485D01*
X019333Y017985D01*
X016833Y017985D01*
X016083Y017985D01*
X015583Y017485D01*
X011583Y017485D01*
X011083Y017985D01*
X008333Y017985D01*
X008333Y018985D02*
X011083Y018985D01*
X011583Y018485D01*
X015583Y018485D01*
X016083Y018985D01*
X016833Y018985D01*
X019333Y018985D01*
X019833Y018485D01*
X023708Y018485D01*
X024208Y018985D01*
X025333Y018985D01*
X027458Y018985D01*
X027958Y018485D01*
X032333Y018485D01*
X032833Y018985D01*
X033833Y018985D01*
X036458Y018985D01*
X036958Y018485D01*
X042333Y018485D01*
X042833Y018985D01*
X044833Y018985D01*
X047958Y018985D01*
X048458Y018485D01*
X059583Y018485D01*
X057958Y019485D02*
X048458Y019485D01*
X047958Y019985D01*
X044833Y019985D01*
X042833Y019985D01*
X042333Y019485D01*
X036958Y019485D01*
X036458Y019985D01*
X033833Y019985D01*
X032833Y019985D01*
X032333Y019485D01*
X027958Y019485D01*
X027458Y019985D01*
X025333Y019985D01*
X024208Y019985D01*
X023708Y019485D01*
X019833Y019485D01*
X019333Y019985D01*
X016833Y019985D01*
X016083Y019985D01*
X015583Y019485D01*
X011583Y019485D01*
X011083Y019985D01*
X008333Y019985D01*
X008333Y014985D02*
X011083Y014985D01*
X011583Y014485D01*
X015583Y014485D01*
X016083Y014985D01*
X016833Y014985D01*
X019333Y014985D01*
X019833Y014485D01*
X023708Y014485D01*
X024208Y014985D01*
X025333Y014985D01*
X027458Y014985D01*
X027958Y014485D01*
X032333Y014485D01*
X032833Y014985D01*
X033833Y014985D01*
X036458Y014985D01*
X036958Y014485D01*
X042333Y014485D01*
X042833Y014985D01*
X044833Y014985D01*
X047958Y014985D01*
X048458Y014485D01*
X052333Y014485D01*
X051833Y013985D02*
X050833Y013985D01*
X048458Y013985D01*
X047958Y014485D01*
X042833Y014485D01*
X042333Y013985D01*
X039833Y013985D01*
X036958Y013985D01*
X036458Y014485D01*
X032833Y014485D01*
X032333Y013985D01*
X031333Y013985D01*
X027958Y013985D01*
X027458Y014485D01*
X024208Y014485D01*
X023708Y013985D01*
X022833Y013985D01*
X019833Y013985D01*
X019333Y014485D01*
X016083Y014485D01*
X015583Y013985D01*
X014333Y013985D01*
X015583Y013485D02*
X011583Y013485D01*
X011083Y013985D01*
X008333Y013985D01*
X008333Y012985D02*
X011083Y012985D01*
X011583Y012485D01*
X015583Y012485D01*
X016083Y012985D01*
X016833Y012985D01*
X019333Y012985D01*
X019833Y012485D01*
X023708Y012485D01*
X024208Y012985D01*
X025333Y012985D01*
X027458Y012985D01*
X027958Y012485D01*
X032333Y012485D01*
X032833Y012985D01*
X033833Y012985D01*
X033833Y011985D02*
X032833Y011985D01*
X032333Y011485D01*
X027958Y011485D01*
X027458Y011985D01*
X025333Y011985D01*
X024208Y011985D01*
X023708Y011485D01*
X019833Y011485D01*
X019333Y011985D01*
X016833Y011985D01*
X016083Y011985D01*
X015583Y011485D01*
X011583Y011485D01*
X011083Y011985D01*
X008333Y011985D01*
X009049Y011573D02*
X010930Y011573D01*
X011089Y011414D02*
X009033Y011414D01*
X009151Y011256D02*
X011247Y011256D01*
X011475Y011097D02*
X009213Y011097D01*
X009213Y010939D02*
X013453Y010939D01*
X013489Y010780D02*
X009217Y010780D01*
X009376Y010622D02*
X013568Y010622D01*
X013746Y010463D02*
X009508Y010463D01*
X005962Y010463D02*
X005313Y010463D01*
X005313Y010305D02*
X005713Y010305D01*
X005554Y010146D02*
X005313Y010146D01*
X005313Y009988D02*
X005483Y009988D01*
X005417Y009829D02*
X005313Y009829D01*
X005313Y009671D02*
X005403Y009671D01*
X005403Y009512D02*
X005313Y009512D01*
X005313Y009354D02*
X005433Y009354D01*
X005499Y009195D02*
X005313Y009195D01*
X005313Y009037D02*
X005592Y009037D01*
X005750Y008878D02*
X005313Y008878D01*
X005313Y008720D02*
X006053Y008720D01*
X005313Y008561D02*
X067445Y008561D01*
X067445Y008403D02*
X005313Y008403D01*
X005313Y008244D02*
X067445Y008244D01*
X067445Y008086D02*
X005313Y008086D01*
X014333Y010985D02*
X015583Y010985D01*
X016083Y011485D01*
X019333Y011485D01*
X019833Y010985D01*
X022833Y010985D01*
X023708Y010985D01*
X024208Y011485D01*
X027458Y011485D01*
X027958Y010985D01*
X031333Y010985D01*
X032333Y010985D01*
X032833Y011485D01*
X036458Y011485D01*
X036958Y010985D01*
X039833Y010985D01*
X039246Y010463D02*
X034421Y010463D01*
X034598Y010622D02*
X036791Y010622D01*
X036598Y010780D02*
X034678Y010780D01*
X034713Y010939D02*
X036439Y010939D01*
X036958Y011485D02*
X036458Y011985D01*
X033833Y011985D01*
X032833Y012485D02*
X032333Y011985D01*
X031333Y011985D01*
X027958Y011985D01*
X027458Y012485D01*
X024208Y012485D01*
X023708Y011985D01*
X022833Y011985D01*
X019833Y011985D01*
X019333Y012485D01*
X016083Y012485D01*
X015583Y011985D01*
X014333Y011985D01*
X014333Y012985D02*
X015583Y012985D01*
X016083Y013485D01*
X019333Y013485D01*
X019833Y012985D01*
X022833Y012985D01*
X023708Y012985D01*
X024208Y013485D01*
X027458Y013485D01*
X027958Y012985D01*
X031333Y012985D01*
X032333Y012985D01*
X032833Y013485D01*
X036458Y013485D01*
X036958Y012985D01*
X039833Y012985D01*
X039833Y011985D02*
X042333Y011985D01*
X042833Y012485D01*
X047958Y012485D01*
X048458Y011985D01*
X048958Y012485D02*
X053583Y012485D01*
X053333Y012985D02*
X050833Y012985D01*
X051549Y011573D02*
X053440Y011573D01*
X054227Y011573D02*
X060992Y011573D01*
X061151Y011731D02*
X054345Y011731D01*
X054403Y011890D02*
X061309Y011890D01*
X061511Y012048D02*
X054403Y012048D01*
X054359Y012207D02*
X063339Y012207D01*
X063198Y012365D02*
X054259Y012365D01*
X054188Y012524D02*
X063198Y012524D01*
X063198Y012682D02*
X054346Y012682D01*
X054505Y012841D02*
X063198Y012841D01*
X063324Y012999D02*
X054663Y012999D01*
X054822Y013158D02*
X063388Y013158D01*
X063229Y013316D02*
X054980Y013316D01*
X055139Y013475D02*
X063198Y013475D01*
X063198Y013633D02*
X055297Y013633D01*
X052833Y013485D02*
X048458Y013485D01*
X047958Y013985D01*
X044833Y013985D01*
X042833Y015485D02*
X047958Y015485D01*
X048458Y014985D01*
X050833Y014985D01*
X061208Y014985D01*
X062333Y016110D01*
X064333Y016110D01*
X062208Y017985D02*
X062833Y018610D01*
X063833Y018610D01*
X062833Y019110D02*
X062708Y018985D01*
X050833Y018985D01*
X048458Y018985D01*
X047958Y019485D01*
X042833Y019485D01*
X042333Y018985D01*
X039833Y018985D01*
X036958Y018985D01*
X036458Y019485D01*
X032833Y019485D01*
X032333Y018985D01*
X031333Y018985D01*
X027958Y018985D01*
X027458Y019485D01*
X024208Y019485D01*
X023708Y018985D01*
X022833Y018985D01*
X019833Y018985D01*
X019333Y019485D01*
X016083Y019485D01*
X015583Y018985D01*
X014333Y018985D01*
X014333Y019985D02*
X015583Y019985D01*
X016083Y020485D01*
X019333Y020485D01*
X019833Y019985D01*
X022833Y019985D01*
X023708Y019985D01*
X024208Y020485D01*
X027458Y020485D01*
X027958Y019985D01*
X031333Y019985D01*
X032333Y019985D01*
X032833Y020485D01*
X036458Y020485D01*
X036958Y019985D01*
X039833Y019985D01*
X042333Y019985D01*
X042833Y020485D01*
X042833Y018485D02*
X047958Y018485D01*
X048458Y017985D01*
X050833Y017985D01*
X062208Y017985D01*
X063083Y020610D02*
X061708Y021985D01*
X062384Y021875D02*
X063200Y021875D01*
X063198Y021717D02*
X062542Y021717D01*
X062701Y021558D02*
X063198Y021558D01*
X063198Y021400D02*
X062859Y021400D01*
X063018Y021241D02*
X063304Y021241D01*
X063408Y021083D02*
X063176Y021083D01*
X063083Y020610D02*
X063833Y020610D01*
X063198Y022509D02*
X051486Y022509D01*
X051631Y022668D02*
X063198Y022668D01*
X063198Y022826D02*
X051697Y022826D01*
X051713Y022985D02*
X063310Y022985D01*
X063402Y023143D02*
X051697Y023143D01*
X051632Y023302D02*
X063244Y023302D01*
X063198Y023460D02*
X051487Y023460D01*
X051595Y023619D02*
X063198Y023619D01*
X063198Y023777D02*
X051677Y023777D01*
X051713Y023936D02*
X063261Y023936D01*
X063419Y024094D02*
X051713Y024094D01*
X051652Y024253D02*
X063293Y024253D01*
X063198Y024411D02*
X051536Y024411D01*
X051546Y024570D02*
X063198Y024570D01*
X063198Y024728D02*
X051656Y024728D01*
X051713Y024887D02*
X063212Y024887D01*
X063370Y025045D02*
X051713Y025045D01*
X051672Y025204D02*
X063342Y025204D01*
X063198Y025362D02*
X060264Y025362D01*
X060740Y025838D02*
X063040Y025838D01*
X062882Y025996D02*
X060943Y025996D01*
X061101Y026155D02*
X062723Y026155D01*
X062565Y026313D02*
X061183Y026313D01*
X061183Y026472D02*
X062406Y026472D01*
X062248Y026630D02*
X061183Y026630D01*
X061128Y026789D02*
X062089Y026789D01*
X061931Y026947D02*
X061063Y026947D01*
X061063Y027106D02*
X061772Y027106D01*
X061614Y027264D02*
X061102Y027264D01*
X061168Y027423D02*
X061455Y027423D01*
X061297Y027581D02*
X061183Y027581D01*
X060103Y027211D02*
X060103Y026854D01*
X059983Y026734D01*
X059983Y026439D01*
X059760Y026215D01*
X059162Y026215D01*
X059183Y026236D01*
X059183Y026485D01*
X059183Y026734D01*
X058866Y027051D01*
X058898Y027067D01*
X058974Y027122D01*
X059041Y027189D01*
X059083Y027247D01*
X059126Y027189D01*
X059192Y027122D01*
X059269Y027067D01*
X059353Y027024D01*
X059443Y026995D01*
X059536Y026980D01*
X059583Y026980D01*
X059583Y027860D01*
X059183Y027860D01*
X058583Y027860D01*
X057983Y027860D01*
X057583Y027860D01*
X057583Y028740D01*
X057583Y027860D01*
X057583Y027860D01*
X057583Y027860D01*
X057583Y026980D01*
X057536Y026980D01*
X057443Y026995D01*
X057353Y027024D01*
X057269Y027067D01*
X057192Y027122D01*
X057126Y027189D01*
X057090Y027238D01*
X056923Y027071D01*
X056703Y026980D01*
X056642Y026980D01*
X057407Y026215D01*
X058005Y026215D01*
X057983Y026236D01*
X057983Y026485D01*
X058583Y026485D01*
X058583Y026485D01*
X057983Y026485D01*
X057983Y026734D01*
X058301Y027051D01*
X058269Y027067D01*
X058192Y027122D01*
X058126Y027189D01*
X058083Y027247D01*
X058041Y027189D01*
X057974Y027122D01*
X057898Y027067D01*
X057814Y027024D01*
X057724Y026995D01*
X057631Y026980D01*
X057583Y026980D01*
X057583Y027860D01*
X058583Y027860D01*
X058583Y027860D01*
X058583Y027860D01*
X058583Y026980D01*
X058583Y026485D01*
X058583Y026485D01*
X058583Y027860D01*
X058583Y028740D01*
X058583Y027860D01*
X058583Y027860D01*
X059583Y027860D01*
X059583Y027860D01*
X059583Y028740D01*
X059583Y027860D01*
X059583Y027860D01*
X059583Y027860D01*
X059583Y026980D01*
X059631Y026980D01*
X059724Y026995D01*
X059814Y027024D01*
X059898Y027067D01*
X059974Y027122D01*
X060041Y027189D01*
X060077Y027238D01*
X060103Y027211D01*
X060103Y027106D02*
X059951Y027106D01*
X060103Y026947D02*
X058970Y026947D01*
X058951Y027106D02*
X059216Y027106D01*
X059128Y026789D02*
X060038Y026789D01*
X059983Y026630D02*
X059183Y026630D01*
X059183Y026485D02*
X058583Y026485D01*
X058583Y026485D01*
X059183Y026485D01*
X059183Y026472D02*
X059983Y026472D01*
X059858Y026313D02*
X059183Y026313D01*
X058583Y026630D02*
X058583Y026630D01*
X058583Y026789D02*
X058583Y026789D01*
X058583Y026947D02*
X058583Y026947D01*
X058583Y027106D02*
X058583Y027106D01*
X058583Y027264D02*
X058583Y027264D01*
X058583Y027423D02*
X058583Y027423D01*
X058583Y027581D02*
X058583Y027581D01*
X058583Y027740D02*
X058583Y027740D01*
X058583Y027860D02*
X058583Y027860D01*
X058583Y027898D02*
X058583Y027898D01*
X058583Y028057D02*
X058583Y028057D01*
X058583Y028215D02*
X058583Y028215D01*
X058583Y028374D02*
X058583Y028374D01*
X058583Y028532D02*
X058583Y028532D01*
X058583Y028691D02*
X058583Y028691D01*
X058342Y028691D02*
X057824Y028691D01*
X057583Y028691D02*
X057583Y028691D01*
X057583Y028532D02*
X057583Y028532D01*
X057583Y028374D02*
X057583Y028374D01*
X057583Y028215D02*
X057583Y028215D01*
X057583Y028057D02*
X057583Y028057D01*
X057583Y027898D02*
X057583Y027898D01*
X057583Y027860D02*
X057583Y027860D01*
X057583Y027740D02*
X057583Y027740D01*
X057583Y027581D02*
X057583Y027581D01*
X057583Y027423D02*
X057583Y027423D01*
X057583Y027264D02*
X057583Y027264D01*
X057583Y027106D02*
X057583Y027106D01*
X057216Y027106D02*
X056957Y027106D01*
X056675Y026947D02*
X058197Y026947D01*
X058216Y027106D02*
X057951Y027106D01*
X058038Y026789D02*
X056834Y026789D01*
X056992Y026630D02*
X057983Y026630D01*
X057983Y026472D02*
X057151Y026472D01*
X057309Y026313D02*
X057983Y026313D01*
X056902Y025362D02*
X051585Y025362D01*
X051495Y025521D02*
X056744Y025521D01*
X056585Y025679D02*
X051631Y025679D01*
X051696Y025838D02*
X056427Y025838D01*
X059583Y027106D02*
X059583Y027106D01*
X059583Y027264D02*
X059583Y027264D01*
X059583Y027423D02*
X059583Y027423D01*
X059583Y027581D02*
X059583Y027581D01*
X059583Y027740D02*
X059583Y027740D01*
X059583Y027898D02*
X059583Y027898D01*
X059583Y028057D02*
X059583Y028057D01*
X059583Y028215D02*
X059583Y028215D01*
X059583Y028374D02*
X059583Y028374D01*
X059583Y028532D02*
X059583Y028532D01*
X059583Y028691D02*
X059583Y028691D01*
X059342Y028691D02*
X058824Y028691D01*
X059040Y028532D02*
X059127Y028532D01*
X059824Y028691D02*
X060187Y028691D01*
X060127Y028532D02*
X060040Y028532D01*
X060029Y028849D02*
X057197Y028849D01*
X057342Y028691D02*
X056822Y028691D01*
X057040Y028532D02*
X057127Y028532D01*
X057422Y029008D02*
X059870Y029008D01*
X059712Y029166D02*
X057580Y029166D01*
X057739Y029325D02*
X059553Y029325D01*
X059395Y029483D02*
X057897Y029483D01*
X058056Y029642D02*
X059236Y029642D01*
X059078Y029800D02*
X058214Y029800D01*
X058373Y029959D02*
X058919Y029959D01*
X058083Y030235D02*
X057833Y029985D01*
X057708Y029860D01*
X057083Y029235D01*
X049458Y029235D01*
X048458Y028235D01*
X048458Y027860D01*
X048002Y028532D02*
X047915Y028532D01*
X047697Y028691D02*
X048220Y028691D01*
X048507Y028849D02*
X043785Y028849D01*
X043626Y029008D02*
X048665Y029008D01*
X048824Y029166D02*
X043468Y029166D01*
X043358Y029325D02*
X048982Y029325D01*
X049141Y029483D02*
X043358Y029483D01*
X043458Y028610D02*
X043458Y027860D01*
X044697Y028691D02*
X045220Y028691D01*
X045002Y028532D02*
X044915Y028532D01*
X045697Y028691D02*
X046220Y028691D01*
X046002Y028532D02*
X045915Y028532D01*
X046697Y028691D02*
X047220Y028691D01*
X047002Y028532D02*
X046915Y028532D01*
X046842Y030117D02*
X047073Y030117D01*
X046458Y030117D02*
X046458Y030117D01*
X046458Y030276D02*
X046458Y030276D01*
X046458Y030434D02*
X046458Y030434D01*
X046458Y030593D02*
X046458Y030593D01*
X046458Y030751D02*
X046458Y030751D01*
X046458Y030910D02*
X046458Y030910D01*
X046458Y031068D02*
X046458Y031068D01*
X046458Y031227D02*
X046458Y031227D01*
X046458Y031385D02*
X046458Y031385D01*
X046458Y031544D02*
X046458Y031544D01*
X046458Y031702D02*
X046458Y031702D01*
X046246Y031702D02*
X045670Y031702D01*
X045458Y031702D02*
X045458Y031702D01*
X045458Y031544D02*
X045458Y031544D01*
X045458Y031385D02*
X045458Y031385D01*
X045458Y031227D02*
X045458Y031227D01*
X045458Y031068D02*
X045458Y031068D01*
X045458Y030910D02*
X045458Y030910D01*
X045458Y030860D02*
X045458Y030860D01*
X045458Y030751D02*
X045458Y030751D01*
X045458Y030593D02*
X045458Y030593D01*
X045458Y030434D02*
X045458Y030434D01*
X045458Y030276D02*
X045458Y030276D01*
X045458Y030117D02*
X045458Y030117D01*
X045075Y030117D02*
X044844Y030117D01*
X045842Y030117D02*
X046075Y030117D01*
X046013Y031544D02*
X045903Y031544D01*
X045246Y031702D02*
X044669Y031702D01*
X044903Y031544D02*
X045013Y031544D01*
X044247Y031702D02*
X043858Y031702D01*
X043858Y031861D02*
X047767Y031861D01*
X047669Y031702D02*
X047926Y031702D01*
X047903Y031544D02*
X048013Y031544D01*
X048333Y031860D02*
X047583Y032610D01*
X047583Y034235D01*
X049083Y034238D02*
X049083Y034238D01*
X049083Y034110D02*
X049083Y034110D01*
X049083Y034397D02*
X049083Y034397D01*
X049083Y034555D02*
X049083Y034555D01*
X049083Y034714D02*
X049083Y034714D01*
X049083Y034872D02*
X049083Y034872D01*
X049083Y035031D02*
X049083Y035031D01*
X049083Y035110D02*
X049083Y035110D01*
X051458Y035110D02*
X051458Y035110D01*
X047609Y032019D02*
X043858Y032019D01*
X043858Y032178D02*
X047450Y032178D01*
X047292Y032336D02*
X043858Y032336D01*
X043903Y031544D02*
X044013Y031544D01*
X046083Y032653D02*
X046083Y032653D01*
X046083Y032812D02*
X046083Y032812D01*
X046083Y032970D02*
X046083Y032970D01*
X046083Y033110D02*
X046083Y033110D01*
X046670Y031702D02*
X047247Y031702D01*
X047013Y031544D02*
X046903Y031544D01*
X048333Y031860D02*
X054083Y031860D01*
X054583Y031360D01*
X054583Y030860D01*
X054345Y028691D02*
X053822Y028691D01*
X054040Y028532D02*
X054127Y028532D01*
X054822Y028691D02*
X055345Y028691D01*
X055127Y028532D02*
X055040Y028532D01*
X055822Y028691D02*
X056345Y028691D01*
X056127Y028532D02*
X056040Y028532D01*
X058040Y028532D02*
X058127Y028532D01*
X053345Y028691D02*
X049697Y028691D01*
X049915Y028532D02*
X053127Y028532D01*
X050373Y028374D02*
X050011Y028374D01*
X049073Y030117D02*
X048844Y030117D01*
X048073Y030117D02*
X047844Y030117D01*
X050202Y026472D02*
X045475Y026472D01*
X045627Y026313D02*
X050050Y026313D01*
X049978Y026155D02*
X045693Y026155D01*
X045713Y025996D02*
X049953Y025996D01*
X049970Y025838D02*
X048153Y025838D01*
X048330Y025679D02*
X050036Y025679D01*
X050172Y025521D02*
X048488Y025521D01*
X047958Y025485D02*
X048458Y024985D01*
X050833Y024985D01*
X050833Y025985D02*
X050833Y025985D01*
X051713Y025985D01*
X050833Y023985D02*
X048458Y023985D01*
X047958Y024485D01*
X042833Y024485D01*
X042333Y023985D01*
X039833Y023985D01*
X036958Y023985D01*
X036458Y024485D01*
X032833Y024485D01*
X032333Y023985D01*
X031333Y023985D01*
X027958Y023985D01*
X027458Y024485D01*
X024208Y024485D01*
X023708Y023985D01*
X022833Y023985D01*
X019833Y023985D01*
X019333Y024485D01*
X016083Y024485D01*
X015583Y023985D01*
X014333Y023985D01*
X015583Y024485D02*
X011583Y024485D01*
X011083Y024985D01*
X014333Y022985D02*
X015583Y022985D01*
X016083Y023485D01*
X019333Y023485D01*
X019833Y022985D01*
X022833Y022985D01*
X023708Y022985D01*
X024208Y023485D01*
X027458Y023485D01*
X027958Y022985D01*
X031333Y022985D01*
X032333Y022985D01*
X032833Y023485D01*
X036458Y023485D01*
X036958Y022985D01*
X039833Y022985D01*
X042333Y022985D01*
X042833Y023485D01*
X047958Y023485D01*
X048458Y022985D01*
X050833Y022985D01*
X047958Y025485D02*
X042833Y025485D01*
X042833Y024985D02*
X044833Y024985D01*
X042833Y024985D02*
X042333Y024485D01*
X036958Y024485D01*
X036458Y024985D01*
X033833Y024985D01*
X032833Y024985D01*
X032333Y024485D01*
X027958Y024485D01*
X027458Y024985D01*
X025333Y024985D01*
X024208Y024985D01*
X023708Y024485D01*
X019833Y024485D01*
X019333Y024985D01*
X016833Y024985D01*
X016083Y024985D01*
X015583Y024485D01*
X017475Y026472D02*
X022202Y026472D01*
X022050Y026313D02*
X019571Y026313D01*
X019729Y026155D02*
X021978Y026155D01*
X021953Y025996D02*
X019888Y025996D01*
X023414Y026505D02*
X024741Y026505D01*
X024713Y026494D01*
X024605Y026385D01*
X024129Y026385D01*
X023982Y026324D01*
X023710Y026052D01*
X023699Y026125D01*
X023669Y026215D01*
X023626Y026299D01*
X023571Y026376D01*
X023504Y026443D01*
X023428Y026498D01*
X023414Y026505D01*
X023464Y026472D02*
X024691Y026472D01*
X023971Y026313D02*
X023617Y026313D01*
X023689Y026155D02*
X023812Y026155D01*
X024333Y028110D02*
X041333Y028110D01*
X041583Y027860D01*
X042458Y027860D01*
X041906Y028374D02*
X041635Y028374D01*
X042002Y028532D02*
X040713Y028532D01*
X040713Y028691D02*
X042220Y028691D01*
X041168Y027710D02*
X041244Y027633D01*
X041357Y027521D01*
X041492Y027465D01*
X036433Y027465D01*
X036433Y027610D01*
X035833Y027610D01*
X035233Y027610D01*
X035233Y027465D01*
X034433Y027465D01*
X034433Y027710D01*
X035233Y027710D01*
X035233Y027610D01*
X035833Y027610D01*
X035833Y027610D01*
X036433Y027610D01*
X036433Y027710D01*
X041168Y027710D01*
X041297Y027581D02*
X036433Y027581D01*
X035833Y027610D02*
X035833Y027610D01*
X035233Y027581D02*
X034433Y027581D01*
X034475Y026472D02*
X039202Y026472D01*
X039050Y026313D02*
X036696Y026313D01*
X036854Y026155D02*
X038978Y026155D01*
X038953Y025996D02*
X037013Y025996D01*
X039833Y025985D02*
X040713Y025985D01*
X039833Y025985D01*
X039833Y025985D01*
X039833Y028610D02*
X036958Y028610D01*
X036458Y029110D01*
X032833Y029110D01*
X032333Y030110D02*
X027958Y030110D01*
X027458Y030610D01*
X025333Y030610D01*
X024208Y030610D01*
X023708Y030110D01*
X019833Y030110D01*
X019333Y030610D01*
X016833Y030610D01*
X016083Y030610D01*
X015583Y030110D01*
X011279Y028849D02*
X009164Y028849D01*
X009064Y029008D02*
X011120Y029008D01*
X010962Y029166D02*
X009018Y029166D01*
X016833Y020985D02*
X019333Y020985D01*
X019833Y020485D01*
X023708Y020485D01*
X024208Y020985D01*
X024333Y020985D01*
X024208Y018485D02*
X023708Y017985D01*
X022833Y017985D01*
X019833Y017985D01*
X019333Y018485D01*
X016083Y018485D01*
X015583Y017985D01*
X014333Y017985D01*
X016083Y015485D02*
X015583Y014985D01*
X014333Y014985D01*
X016083Y015485D02*
X019333Y015485D01*
X019833Y014985D01*
X022833Y014985D01*
X023708Y014985D01*
X024208Y015485D01*
X027458Y015485D01*
X027958Y014985D01*
X031333Y014985D01*
X032333Y014985D01*
X032833Y015485D01*
X036458Y015485D01*
X036958Y014985D01*
X039833Y014985D01*
X042333Y014985D01*
X042833Y015485D01*
X042333Y017985D02*
X039833Y017985D01*
X036958Y017985D01*
X036458Y018485D01*
X032833Y018485D01*
X032333Y017985D01*
X031333Y017985D01*
X027958Y017985D01*
X027458Y018485D01*
X024208Y018485D01*
X024208Y013985D02*
X023708Y013485D01*
X019833Y013485D01*
X019333Y013985D01*
X016833Y013985D01*
X016083Y013985D01*
X015583Y013485D01*
X017713Y010939D02*
X019314Y010939D01*
X019473Y010780D02*
X017678Y010780D01*
X017598Y010622D02*
X019666Y010622D01*
X017421Y010463D02*
X022246Y010463D01*
X023421Y010463D02*
X024746Y010463D01*
X024568Y010622D02*
X023876Y010622D01*
X024069Y010780D02*
X024489Y010780D01*
X024453Y010939D02*
X024228Y010939D01*
X025921Y010463D02*
X030746Y010463D01*
X031921Y010463D02*
X033246Y010463D01*
X033068Y010622D02*
X032501Y010622D01*
X032694Y010780D02*
X032989Y010780D01*
X032953Y010939D02*
X032853Y010939D01*
X032833Y012485D02*
X036458Y012485D01*
X036958Y011985D01*
X039833Y011985D01*
X040713Y010939D02*
X043953Y010939D01*
X043989Y010780D02*
X040678Y010780D01*
X040598Y010622D02*
X044068Y010622D01*
X044246Y010463D02*
X040421Y010463D01*
X036958Y011485D02*
X049583Y011485D01*
X048958Y012485D02*
X047958Y013485D01*
X036958Y013485D01*
X036458Y013985D01*
X033833Y013985D01*
X032833Y013985D01*
X032333Y013485D01*
X027958Y013485D01*
X027458Y013985D01*
X025333Y013985D01*
X024208Y013985D01*
X026213Y010939D02*
X027439Y010939D01*
X027598Y010780D02*
X026178Y010780D01*
X026098Y010622D02*
X027791Y010622D01*
X036271Y010146D02*
X044353Y010146D01*
X044237Y009988D02*
X036429Y009988D01*
X036433Y009829D02*
X044233Y009829D01*
X044233Y009671D02*
X036433Y009671D01*
X042333Y017985D02*
X042833Y018485D01*
X051533Y011414D02*
X060834Y011414D01*
X060675Y011256D02*
X051651Y011256D01*
X051713Y011097D02*
X060422Y011097D01*
X060282Y010939D02*
X051713Y010939D01*
X051678Y010780D02*
X060216Y010780D01*
X060166Y010622D02*
X051598Y010622D01*
X051421Y010463D02*
X060008Y010463D01*
X062244Y011097D02*
X063448Y011097D01*
X064218Y011097D02*
X065448Y011097D01*
X067204Y010463D02*
X067445Y010463D01*
X067417Y008878D02*
X067445Y008878D01*
X067445Y008720D02*
X067114Y008720D01*
X039833Y030610D02*
X036958Y030610D01*
X036458Y031110D01*
X032833Y031110D01*
X032833Y030610D02*
X033833Y030610D01*
X032833Y030610D02*
X032333Y030110D01*
X033233Y027710D02*
X033233Y027465D01*
X027933Y027465D01*
X027933Y027610D01*
X027933Y027710D01*
X033233Y027710D01*
X033233Y027581D02*
X027933Y027581D01*
X027933Y027610D02*
X027333Y027610D01*
X026733Y027610D01*
X026733Y027710D01*
X025933Y027710D01*
X025933Y027465D01*
X026733Y027465D01*
X026733Y027610D01*
X027333Y027610D01*
X027333Y027610D01*
X027933Y027610D01*
X027333Y027610D02*
X027333Y027610D01*
X026733Y027581D02*
X025933Y027581D01*
X025975Y026472D02*
X030702Y026472D01*
X030550Y026313D02*
X027696Y026313D01*
X027854Y026155D02*
X030478Y026155D01*
X030453Y025996D02*
X028013Y025996D01*
X031333Y025985D02*
X032213Y025985D01*
X032213Y026032D01*
X032199Y026125D01*
X032169Y026215D01*
X032126Y026299D01*
X032071Y026376D01*
X032004Y026443D01*
X031928Y026498D01*
X031914Y026505D01*
X033241Y026505D01*
X033213Y026494D01*
X033105Y026385D01*
X032754Y026385D01*
X032607Y026324D01*
X032212Y025929D01*
X032213Y025938D01*
X032213Y025985D01*
X031333Y025985D01*
X031333Y025985D01*
X031964Y026472D02*
X033191Y026472D01*
X032596Y026313D02*
X032117Y026313D01*
X032189Y026155D02*
X032437Y026155D01*
X032279Y025996D02*
X032213Y025996D01*
X021083Y038110D02*
X019833Y038110D01*
X019333Y038610D01*
X016833Y038610D01*
X040507Y044065D02*
X049478Y044065D01*
X049478Y043907D02*
X040636Y043907D01*
X040699Y043748D02*
X049478Y043748D01*
X049478Y043590D02*
X040713Y043590D01*
X044193Y043431D02*
X049478Y043431D01*
X049478Y043273D02*
X044331Y043273D01*
X044397Y043114D02*
X049478Y043114D01*
X049478Y042956D02*
X044403Y042956D01*
X050438Y042480D02*
X053980Y042480D01*
X053858Y042322D02*
X050438Y042322D01*
X050438Y042163D02*
X053858Y042163D01*
X050991Y042005D02*
X050438Y042005D01*
X050438Y041846D02*
X050754Y041846D01*
X050595Y041688D02*
X050438Y041688D01*
X015989Y010780D02*
X015944Y010780D01*
X016068Y010622D02*
X015751Y010622D01*
X016246Y010463D02*
X014921Y010463D01*
D16*
X016833Y010985D02*
X016833Y009735D01*
X016833Y009110D01*
X009083Y009110D01*
X009083Y009735D01*
X009083Y010235D01*
X008333Y010985D01*
X006958Y010985D02*
X008833Y009110D01*
X009083Y009110D01*
X006958Y010985D02*
X006958Y026985D01*
X006958Y043360D01*
X008583Y044985D01*
X049958Y044985D01*
X049958Y040985D01*
X049083Y040110D01*
X049083Y039110D01*
X054458Y039110D02*
X054458Y040110D01*
X058333Y044985D02*
X059833Y043485D01*
X058333Y044985D02*
X049958Y044985D01*
X049458Y027860D02*
X050708Y027860D01*
X050708Y026985D01*
X033833Y026985D01*
X033833Y027610D01*
X033833Y026985D02*
X025333Y026985D01*
X025333Y027610D01*
X025333Y026985D02*
X016833Y026985D01*
X016833Y027610D01*
X016833Y026985D02*
X008333Y026985D01*
X006958Y026985D01*
X008333Y026985D02*
X008333Y027610D01*
X025333Y010985D02*
X025333Y009735D01*
X025333Y009110D01*
X016833Y009110D01*
X025333Y009110D02*
X033833Y009110D01*
X033833Y009735D01*
X033833Y010985D01*
X033833Y009110D02*
X044833Y009110D01*
X044833Y009735D01*
X044833Y010985D01*
X044833Y009110D02*
X059333Y009110D01*
X060833Y010610D01*
X060833Y010735D01*
X061708Y011610D01*
X063833Y011610D01*
X065833Y011610D01*
X065833Y012610D01*
X063833Y012610D01*
X063833Y011610D01*
X059958Y025735D02*
X057208Y025735D01*
X055958Y026985D01*
X050708Y026985D01*
X059958Y025735D02*
X060583Y026360D01*
X060583Y026485D01*
X060583Y027860D01*
D17*
X057958Y019485D03*
X059583Y018485D03*
X056833Y017485D03*
X058833Y016485D03*
X053333Y012985D03*
X052833Y013485D03*
X051833Y013985D03*
X052333Y014485D03*
X053833Y011985D03*
X049583Y011485D03*
X024333Y020985D03*
X024333Y028110D03*
X021083Y038110D03*
X042958Y042985D03*
X043833Y042985D03*
M02*
