%
M48
M72
T01C0.0240
T02C0.0320
T03C0.0360
T04C0.1100
%
T01
X24333Y20985
X24333Y28110
X21083Y38110
X42958Y42985
X43833Y42985
X57958Y19485
X59583Y18485
X56833Y17485
X58833Y16485
X53333Y12985
X52833Y13485
X51833Y13985
X52333Y14485
X53833Y11985
X49583Y11485
T02
X50833Y10985
X50833Y11985
X50833Y12985
X50833Y13985
X50833Y14985
X50833Y15985
X50833Y16985
X50833Y17985
X50833Y18985
X50833Y19985
X50833Y20985
X50833Y21985
X50833Y22985
X50833Y23985
X50833Y24985
X50833Y25985
X50708Y27860
X49458Y27860
X48458Y27860
X47458Y27860
X46458Y27860
X45458Y27860
X44458Y27860
X43458Y27860
X42458Y27860
X39833Y28610
X39833Y29610
X39833Y30610
X39833Y31610
X39833Y32610
X39833Y33610
X39833Y34610
X39833Y35610
X39833Y36610
X39833Y37610
X39833Y38610
X39833Y39610
X39833Y40610
X39833Y41610
X39833Y42610
X39833Y43610
X46083Y39110
X46083Y38110
X46083Y37110
X46083Y36110
X46083Y35110
X46083Y34110
X46083Y33110
X46458Y30860
X45458Y30860
X44458Y30860
X43458Y30860
X42458Y30860
X47458Y30860
X48458Y30860
X49458Y30860
X50708Y29860
X53583Y30860
X54583Y30860
X55583Y30860
X56583Y30860
X57583Y30860
X58583Y30860
X59583Y30860
X60583Y30860
X59833Y33110
X59833Y34110
X59833Y35110
X59833Y36110
X59833Y37110
X59833Y38110
X59833Y39110
X59833Y40110
X59833Y41110
X59833Y42110
X59833Y43485
X57833Y43485
X56833Y42110
X56833Y41110
X56833Y40110
X56833Y39110
X56833Y38110
X56833Y37110
X56833Y36110
X56833Y35110
X56833Y34110
X56833Y33110
X54458Y33110
X54458Y34110
X54458Y35110
X54458Y36110
X54458Y37110
X54458Y38110
X54458Y39110
X54458Y40110
X54458Y42110
X51458Y39110
X51458Y38110
X51458Y37110
X51458Y36110
X51458Y35110
X51458Y34110
X51458Y33110
X49083Y33110
X49083Y34110
X49083Y35110
X49083Y36110
X49083Y37110
X49083Y38110
X49083Y39110
X49083Y40110
X49083Y42110
X61958Y41110
X61958Y40110
X61958Y39110
X61958Y38110
X61958Y37110
X61958Y36110
X61958Y35110
X61958Y34110
X61958Y33110
X60583Y27860
X59583Y27860
X58583Y27860
X57583Y27860
X56583Y27860
X55583Y27860
X54583Y27860
X53583Y27860
X58583Y26485
X60583Y26485
X44833Y25985
X44833Y24985
X44833Y23985
X44833Y22985
X44833Y21985
X44833Y20985
X44833Y19985
X44833Y18985
X44833Y17985
X44833Y16985
X44833Y15985
X44833Y14985
X44833Y13985
X44833Y12985
X44833Y11985
X44833Y10985
X44833Y9735
X46833Y9735
X39833Y10985
X39833Y11985
X39833Y12985
X39833Y13985
X39833Y14985
X39833Y15985
X39833Y16985
X39833Y17985
X39833Y18985
X39833Y19985
X39833Y20985
X39833Y21985
X39833Y22985
X39833Y23985
X39833Y24985
X39833Y25985
X35833Y27610
X33833Y27610
X33833Y28610
X33833Y29610
X33833Y30610
X33833Y31610
X33833Y32610
X33833Y33610
X33833Y34610
X33833Y35610
X33833Y36610
X33833Y37610
X33833Y38610
X33833Y39610
X33833Y40610
X33833Y41610
X33833Y42610
X33833Y43610
X31333Y43610
X31333Y42610
X31333Y41610
X31333Y40610
X31333Y39610
X31333Y38610
X31333Y37610
X31333Y36610
X31333Y35610
X31333Y34610
X31333Y33610
X31333Y32610
X31333Y31610
X31333Y30610
X31333Y29610
X31333Y28610
X31333Y25985
X31333Y24985
X31333Y23985
X31333Y22985
X31333Y21985
X31333Y20985
X31333Y19985
X31333Y18985
X31333Y17985
X31333Y16985
X31333Y15985
X31333Y14985
X31333Y13985
X31333Y12985
X31333Y11985
X31333Y10985
X33833Y10985
X33833Y11985
X33833Y12985
X33833Y13985
X33833Y14985
X33833Y15985
X33833Y16985
X33833Y17985
X33833Y18985
X33833Y19985
X33833Y20985
X33833Y21985
X33833Y22985
X33833Y23985
X33833Y24985
X33833Y25985
X27333Y27610
X25333Y27610
X25333Y28610
X25333Y29610
X25333Y30610
X25333Y31610
X25333Y32610
X25333Y33610
X25333Y34610
X25333Y35610
X25333Y36610
X25333Y37610
X25333Y38610
X25333Y39610
X25333Y40610
X25333Y41610
X25333Y42610
X25333Y43610
X22833Y43610
X22833Y42610
X22833Y41610
X22833Y40610
X22833Y39610
X22833Y38610
X22833Y37610
X22833Y36610
X22833Y35610
X22833Y34610
X22833Y33610
X22833Y32610
X22833Y31610
X22833Y30610
X22833Y29610
X22833Y28610
X22833Y25985
X22833Y24985
X22833Y23985
X22833Y22985
X22833Y21985
X22833Y20985
X22833Y19985
X22833Y18985
X22833Y17985
X22833Y16985
X22833Y15985
X22833Y14985
X22833Y13985
X22833Y12985
X22833Y11985
X22833Y10985
X25333Y10985
X25333Y11985
X25333Y12985
X25333Y13985
X25333Y14985
X25333Y15985
X25333Y16985
X25333Y17985
X25333Y18985
X25333Y19985
X25333Y20985
X25333Y21985
X25333Y22985
X25333Y23985
X25333Y24985
X25333Y25985
X16833Y25985
X16833Y24985
X16833Y23985
X16833Y22985
X16833Y21985
X16833Y20985
X16833Y19985
X16833Y18985
X16833Y17985
X16833Y16985
X16833Y15985
X16833Y14985
X16833Y13985
X16833Y12985
X16833Y11985
X16833Y10985
X16833Y9735
X18833Y9735
X14333Y10985
X14333Y11985
X14333Y12985
X14333Y13985
X14333Y14985
X14333Y15985
X14333Y16985
X14333Y17985
X14333Y18985
X14333Y19985
X14333Y20985
X14333Y21985
X14333Y22985
X14333Y23985
X14333Y24985
X14333Y25985
X14833Y27610
X14333Y28610
X14333Y29610
X14333Y30610
X14333Y31610
X14333Y32610
X14333Y33610
X14333Y34610
X14333Y35610
X14333Y36610
X14333Y37610
X14333Y38610
X14333Y39610
X14333Y40610
X14333Y41610
X14333Y42610
X14333Y43610
X16833Y43610
X16833Y42610
X16833Y41610
X16833Y40610
X16833Y39610
X16833Y38610
X16833Y37610
X16833Y36610
X16833Y35610
X16833Y34610
X16833Y33610
X16833Y32610
X16833Y31610
X16833Y30610
X16833Y29610
X16833Y28610
X16833Y27610
X8333Y27610
X8333Y28610
X8333Y29610
X8333Y30610
X8333Y31610
X8333Y32610
X8333Y33610
X8333Y34610
X8333Y35610
X8333Y36610
X8333Y37610
X8333Y38610
X8333Y39610
X8333Y40610
X8333Y41610
X8333Y42610
X8333Y43610
X6333Y27610
X8333Y25985
X8333Y24985
X8333Y23985
X8333Y22985
X8333Y21985
X8333Y20985
X8333Y19985
X8333Y18985
X8333Y17985
X8333Y16985
X8333Y15985
X8333Y14985
X8333Y13985
X8333Y12985
X8333Y11985
X8333Y10985
X9083Y9735
X11083Y9735
X25333Y9735
X27333Y9735
X33833Y9735
X35833Y9735
X60833Y10610
X61833Y10610
T03
X63833Y11610
X63833Y12610
X63833Y13610
X63833Y14610
X63833Y15610
X63833Y16610
X63833Y17610
X63833Y18610
X63833Y19610
X63833Y20610
X63833Y21610
X63833Y22610
X63833Y23610
X63833Y24610
X63833Y25610
X63833Y26610
X63833Y27610
X63833Y28610
X63833Y29610
X63833Y30610
X63833Y31610
X63833Y32610
X63833Y33610
X63833Y34610
X63833Y35610
X63833Y36610
X63833Y37610
X63833Y38610
X63833Y39610
X63833Y40610
X63833Y41610
X63833Y42610
X65833Y42610
X65833Y41610
X65833Y40610
X65833Y39610
X65833Y38610
X65833Y37610
X65833Y36610
X65833Y35610
X65833Y34610
X65833Y33610
X65833Y32610
X65833Y31610
X65833Y30610
X65833Y29610
X65833Y28610
X65833Y27610
X65833Y26610
X65833Y25610
X65833Y24610
X65833Y23610
X65833Y22610
X65833Y21610
X65833Y20610
X65833Y19610
X65833Y18610
X65833Y17610
X65833Y16610
X65833Y15610
X65833Y14610
X65833Y13610
X65833Y12610
X65833Y11610
T04
X6333Y9610
X6333Y44610
X66833Y44610
X66833Y9610
M30
