%
M48
M72
T01C0.0240
T02C0.0320
T03C0.0400
T04C0.1100
%
T01
X18390Y12515
X19390Y12515
X20390Y12515
X28390Y13015
X31515Y14390
X37390Y12765
X41390Y13890
X46515Y11265
X54015Y13140
X48890Y19890
X51390Y21390
X48640Y25765
X48640Y26390
X48640Y27015
X48640Y27640
X43265Y30515
X41640Y27640
X41640Y27015
X41640Y26390
X41640Y25765
X37015Y27015
X36765Y27640
X38640Y30515
X42265Y33765
X39515Y34515
X33265Y30515
X30015Y31515
X28640Y30515
X23265Y30515
X21140Y31515
X21765Y32515
X23265Y32515
X19515Y34515
X22390Y37515
X23265Y39015
X20390Y39015
X19890Y39515
X12015Y33515
X11265Y32515
X11390Y31515
X13390Y32515
X18640Y30515
X17640Y24765
X21890Y22390
X27515Y23390
X31765Y25515
X31515Y26140
X41265Y19390
X35640Y5390
X6765Y28140
X29515Y34515
X29390Y35515
X29390Y37515
T02
X27390Y37515
X27390Y36515
X27390Y35515
X27390Y34515
X27390Y33515
X27390Y32515
X27390Y31515
X27390Y30515
X24390Y30515
X24390Y31515
X24390Y32515
X24390Y33515
X24390Y34515
X24390Y35515
X24390Y36515
X24390Y37515
X24390Y38515
X24390Y39515
X25390Y41140
X27390Y41140
X27390Y39515
X27390Y38515
X34390Y38515
X34390Y37515
X34390Y36515
X34390Y35515
X34390Y34515
X34390Y33515
X34390Y32515
X34390Y31515
X34390Y30515
X37390Y30515
X37390Y31515
X37390Y32515
X37390Y33515
X37390Y34515
X37390Y35515
X37390Y36515
X37390Y37515
X37390Y38515
X37390Y39515
X37390Y41140
X35390Y41140
X34390Y39515
X44390Y39515
X44390Y38515
X44390Y37515
X44390Y36515
X44390Y35515
X44390Y34515
X44390Y33515
X44390Y32515
X44390Y31515
X44390Y30515
X47390Y30515
X47390Y31515
X47390Y32515
X47390Y33515
X47390Y34515
X47390Y35515
X47390Y36515
X47390Y37515
X47390Y38515
X47390Y39515
X47390Y41140
X45390Y41140
X51765Y38140
X53765Y38140
X53765Y36515
X53765Y35515
X53765Y34515
X53765Y33515
X53765Y32515
X53765Y31515
X53765Y30515
X50765Y30515
X50765Y31515
X50765Y32515
X50765Y33515
X50765Y34515
X50765Y35515
X50765Y36515
X57140Y36515
X57140Y35515
X57140Y34515
X57140Y33515
X57140Y32515
X57140Y31515
X57140Y30515
X60140Y30515
X60140Y31515
X60140Y32515
X60140Y33515
X60140Y34515
X60140Y35515
X60140Y36515
X60140Y38140
X58140Y38140
X59140Y24890
X61140Y24890
X56640Y24890
X56640Y23890
X56640Y22890
X56640Y21890
X56640Y20890
X56640Y19890
X56640Y18890
X56640Y17890
X53640Y17890
X53640Y18890
X53640Y19890
X53640Y20890
X53640Y21890
X53640Y22890
X53640Y23890
X53640Y24890
X50390Y24890
X50390Y23890
X50390Y22890
X50390Y21890
X50390Y20890
X50390Y19890
X50390Y18890
X50390Y17890
X50390Y16890
X50390Y15890
X50390Y14890
X50390Y13890
X44390Y13890
X44390Y14890
X44390Y15890
X44390Y16890
X44390Y17890
X44390Y18890
X44390Y19890
X44390Y20890
X44390Y21890
X44390Y22890
X44390Y23890
X44390Y24890
X40390Y24890
X40390Y23890
X40390Y22890
X40390Y21890
X40390Y20890
X40390Y19890
X40390Y18890
X40390Y17890
X40390Y16890
X40390Y15890
X40390Y14890
X40390Y13890
X42390Y12015
X44390Y12015
X34390Y13890
X34390Y14890
X34390Y15890
X34390Y16890
X34390Y17890
X34390Y18890
X34390Y19890
X34390Y20890
X34390Y21890
X34390Y22890
X34390Y23890
X34390Y24890
X30390Y24890
X30390Y23890
X30390Y22890
X30390Y21890
X30390Y20890
X30390Y19890
X30390Y18890
X30390Y17890
X30390Y16890
X30390Y15890
X30390Y14890
X30390Y13890
X32015Y12390
X34015Y12390
X24390Y12640
X24390Y13890
X24390Y14890
X24390Y15890
X24390Y16890
X24390Y17890
X24390Y18890
X24390Y19890
X24390Y20890
X24390Y21890
X24390Y22890
X24390Y23890
X24390Y24890
X20390Y24890
X20390Y23890
X20390Y22890
X20390Y21890
X20390Y20890
X20390Y19890
X20390Y18890
X20390Y17890
X20390Y16890
X20390Y15890
X20390Y14890
X20390Y13890
X22390Y12640
X14390Y13890
X14390Y14890
X14390Y15890
X14390Y16890
X14390Y17890
X14390Y18890
X14390Y19890
X14390Y20890
X14390Y21890
X14390Y22890
X14390Y23890
X14390Y24890
X14390Y30515
X14390Y31515
X14390Y32515
X14390Y33515
X14390Y34515
X14390Y35515
X14390Y36515
X14390Y37515
X14390Y38515
X14390Y39515
X15390Y41140
X17390Y41140
X17390Y39515
X17390Y38515
X17390Y37515
X17390Y36515
X17390Y35515
X17390Y34515
X17390Y33515
X17390Y32515
X17390Y31515
X17390Y30515
X13140Y13890
X11140Y13890
X62140Y7140
X63140Y7140
T03
X60265Y7140
X59265Y7140
X59265Y6140
X60265Y6140
X60265Y10140
X59265Y10140
X59265Y11140
X60265Y11140
X60265Y12140
X59265Y12140
X59265Y13140
X60265Y13140
X60265Y14140
X59265Y14140
X59265Y15140
X60265Y15140
X60265Y16140
X59265Y16140
X59265Y17140
X60265Y17140
X53890Y7140
X53890Y6140
X52890Y6140
X51890Y6140
X51890Y7140
X52890Y7140
X50890Y7140
X49890Y7140
X49890Y6140
X50890Y6140
X48890Y6140
X47890Y6140
X46890Y6140
X46890Y7140
X47890Y7140
X48890Y7140
X45890Y7140
X44890Y7140
X44890Y6140
X45890Y6140
X43890Y6140
X42890Y6140
X41890Y6140
X41890Y7140
X42890Y7140
X43890Y7140
X40890Y7140
X39890Y7140
X39890Y6140
X40890Y6140
X38890Y6140
X37890Y6140
X36890Y6140
X36890Y7140
X37890Y7140
X38890Y7140
X33890Y7140
X32890Y7140
X32890Y6140
X33890Y6140
X31890Y6140
X30890Y6140
X29890Y6140
X29890Y7140
X30890Y7140
X31890Y7140
X28890Y7140
X27890Y7140
X27890Y6140
X28890Y6140
X26890Y6140
X25890Y6140
X24890Y6140
X24890Y7140
X25890Y7140
X26890Y7140
X23890Y7140
X22890Y7140
X22890Y6140
X23890Y6140
X21890Y6140
X20890Y6140
X19890Y6140
X19890Y7140
X20890Y7140
X21890Y7140
X18890Y7140
X17890Y7140
X17890Y6140
X18890Y6140
X16890Y6140
X15890Y6140
X15890Y7140
X16890Y7140
X14890Y7140
X13890Y7140
X12890Y7140
X12890Y6140
X13890Y6140
X14890Y6140
X11890Y6140
X10890Y6140
X10890Y7140
X11890Y7140
X8390Y7140
X7390Y7140
X7390Y6140
X8390Y6140
X6765Y10140
X5765Y10140
X5765Y11140
X6765Y11140
X6765Y12140
X5765Y12140
X5765Y13140
X6765Y13140
X6765Y14140
X5765Y14140
X5765Y15140
X6765Y15140
X6765Y16140
X5765Y16140
X5765Y17140
X6765Y17140
X6765Y20140
X5765Y20140
X5765Y21140
X6765Y21140
X6765Y22140
X5765Y22140
X5765Y23140
X6765Y23140
X6765Y24140
X5765Y24140
X5765Y25140
X6765Y25140
X6765Y26140
X5765Y26140
X5765Y27140
X6765Y27140
X6765Y30140
X5765Y30140
X5765Y31140
X6765Y31140
X6765Y32140
X5765Y32140
X5765Y33140
X6765Y33140
X6765Y34140
X5765Y34140
X5765Y35140
X6765Y35140
X6765Y36140
X5765Y36140
X5765Y37140
X6765Y37140
X7390Y40140
X8390Y40140
X8390Y41140
X7390Y41140
X59265Y41140
X60265Y41140
X60265Y40140
X59265Y40140
T04
X5265Y6140
X5265Y41140
X65765Y41140
X65765Y6140
M30
