%
M48
M72
T01C0.0240
T02C0.0320
T03C0.0400
T04C0.1100
%
T01
X10765Y8390
X16640Y12890
X17015Y14890
X20265Y23640
X21890Y24640
X22515Y24140
X21140Y25640
X21515Y28640
X27890Y26140
X33015Y20390
X39390Y23640
X39890Y24140
X40390Y24640
X40015Y25640
X44515Y28640
X50890Y22265
X48140Y21390
X47640Y19640
X47140Y18890
X46640Y18140
X42515Y20390
X34765Y11890
X35390Y11640
X36015Y11390
X36640Y11140
X39765Y9265
X38140Y7640
X34765Y8015
X33640Y7890
X44390Y8890
X45015Y9515
X47140Y10015
X49640Y10515
X56140Y9390
X56140Y7890
X57015Y6890
X62640Y5390
X63640Y12640
X65015Y12640
X59515Y18890
X13515Y28640
T02
X11390Y28140
X11390Y27140
X11390Y26140
X11390Y25140
X11390Y23140
X12390Y23140
X13390Y23140
X14390Y23140
X15390Y23140
X17390Y25140
X17390Y26140
X17390Y27140
X17390Y28140
X17390Y29140
X17390Y30140
X17390Y31140
X17390Y32140
X17390Y33140
X17390Y34140
X17390Y35140
X17390Y36140
X17390Y37140
X17390Y38140
X17390Y39140
X17390Y40140
X17390Y41390
X15390Y41390
X11390Y40140
X11390Y39140
X11390Y38140
X11390Y37140
X11390Y36140
X11390Y35140
X11390Y34140
X11390Y33140
X11390Y32140
X11390Y31140
X11390Y30140
X11390Y29140
X10390Y23140
X9390Y23140
X8140Y23140
X8140Y21140
X9390Y20140
X10390Y20140
X11390Y20140
X12390Y20140
X13390Y20140
X14390Y20140
X15390Y20140
X15390Y17890
X15390Y16890
X15390Y15890
X15390Y14890
X15390Y13890
X15390Y12890
X15390Y11890
X15390Y10890
X15390Y9640
X17390Y9640
X18390Y10890
X18390Y11890
X18390Y12890
X18390Y13890
X18390Y14890
X18390Y15890
X18390Y16890
X18390Y17890
X21140Y17890
X21140Y16890
X21140Y15890
X21140Y14890
X21140Y13890
X21140Y12890
X21140Y11890
X21140Y10890
X21140Y9640
X23140Y9640
X24140Y10890
X24140Y11890
X24140Y12890
X24140Y13890
X24140Y14890
X24140Y15890
X24140Y16890
X24140Y17890
X27390Y18890
X27390Y19890
X27390Y20890
X27390Y21890
X27390Y22890
X30390Y22890
X30390Y21890
X30390Y20890
X30390Y19890
X30390Y18890
X31390Y18890
X31390Y19890
X31390Y20890
X31390Y21890
X31390Y22890
X30390Y25140
X30390Y26140
X30390Y27140
X30390Y28140
X30390Y29140
X30390Y30140
X30390Y31140
X30390Y32140
X30390Y33140
X30390Y34140
X30390Y35140
X30390Y36140
X30390Y37140
X30390Y38140
X30390Y39140
X30390Y40140
X30390Y41390
X28390Y41390
X24390Y40140
X24390Y39140
X24390Y38140
X24390Y37140
X24390Y36140
X24390Y35140
X24390Y34140
X24390Y33140
X24390Y32140
X24390Y31140
X24390Y30140
X24390Y29140
X24390Y28140
X24390Y27140
X24390Y26140
X24390Y25140
X31390Y17890
X31390Y16890
X31390Y15890
X31390Y14890
X31390Y13890
X31390Y12890
X31390Y11890
X31390Y10640
X33390Y10640
X37390Y11890
X37390Y12890
X37390Y13890
X37390Y14890
X37390Y15890
X37390Y16890
X37390Y17890
X38390Y17890
X38390Y16890
X38390Y15890
X38390Y14890
X38390Y13890
X38390Y12890
X38390Y11890
X41390Y11890
X41390Y12890
X41390Y13890
X41390Y14890
X41390Y15890
X41390Y16890
X41390Y17890
X41390Y18890
X41390Y19890
X41390Y20890
X41390Y21890
X38390Y21890
X38390Y20890
X38390Y19890
X38390Y18890
X37390Y18890
X37390Y19890
X37390Y20890
X37390Y21890
X37390Y22890
X37390Y25140
X37390Y26140
X37390Y27140
X37390Y28140
X37390Y29140
X37390Y30140
X37390Y31140
X37390Y32140
X37390Y33140
X37390Y34140
X37390Y35140
X37390Y36140
X37390Y37140
X37390Y38140
X37390Y39140
X37390Y40140
X41390Y41390
X43390Y41390
X43390Y40140
X43390Y39140
X43390Y38140
X43390Y37140
X43390Y36140
X43390Y35140
X43390Y34140
X43390Y33140
X43390Y32140
X43390Y31140
X43390Y30140
X43390Y29140
X43390Y28140
X43390Y27140
X43390Y26140
X43390Y25140
X50390Y25140
X50390Y26140
X50390Y27140
X50390Y28140
X50390Y29140
X50390Y30140
X50390Y31140
X50390Y32140
X50390Y33140
X50390Y34140
X50390Y35140
X50390Y36140
X50390Y37140
X50390Y38140
X50390Y39140
X50390Y40140
X54390Y41390
X56390Y41390
X56390Y40140
X56390Y39140
X56390Y38140
X56390Y37140
X56390Y36140
X56390Y35140
X56390Y34140
X56390Y33140
X56390Y32140
X56390Y31140
X56390Y30140
X56390Y29140
X56390Y28140
X56390Y27140
X56390Y26140
X56390Y25140
X56390Y17390
X56390Y16390
X56390Y15390
X56390Y14390
X56390Y13390
X56390Y12390
X56390Y11390
X55390Y9890
X53390Y9890
X53390Y11390
X53390Y12390
X53390Y13390
X53390Y14390
X53390Y15390
X53390Y16390
X53390Y17390
X48890Y17390
X48890Y16390
X48890Y15390
X48890Y14390
X48890Y13390
X48890Y12390
X48890Y11390
X45890Y11390
X45890Y12390
X45890Y13390
X45890Y14390
X45890Y15390
X45890Y16390
X45890Y17390
X45890Y9390
X47890Y9390
X61515Y7140
X63515Y7140
X12640Y10890
X12640Y11890
X12640Y12890
X12640Y13890
X12640Y14890
X12640Y15890
X12640Y16890
X12640Y17890
X9640Y17890
X9640Y16890
X9640Y15890
X9640Y14890
X9640Y13890
X9640Y12890
X9640Y11890
X9640Y10890
X9640Y9640
X11640Y9640
T03
X11890Y7140
X10890Y7140
X10890Y6140
X11890Y6140
X12890Y6140
X13890Y6140
X14890Y6140
X14890Y7140
X13890Y7140
X12890Y7140
X15890Y7140
X16890Y7140
X16890Y6140
X15890Y6140
X17890Y6140
X18890Y6140
X18890Y7140
X17890Y7140
X19890Y7140
X20890Y7140
X21890Y7140
X21890Y6140
X20890Y6140
X19890Y6140
X22890Y6140
X23890Y6140
X23890Y7140
X22890Y7140
X24890Y7140
X25890Y7140
X26890Y7140
X26890Y6140
X25890Y6140
X24890Y6140
X27890Y6140
X28890Y6140
X28890Y7140
X27890Y7140
X29890Y7140
X30890Y7140
X31890Y7140
X31890Y6140
X30890Y6140
X29890Y6140
X32890Y6140
X33890Y6140
X33890Y7140
X32890Y7140
X38890Y7140
X38890Y6140
X39890Y6140
X40890Y6140
X40890Y7140
X39890Y7140
X41890Y7140
X42890Y7140
X43890Y7140
X43890Y6140
X42890Y6140
X41890Y6140
X44890Y6140
X45890Y6140
X45890Y7140
X44890Y7140
X46890Y7140
X47890Y7140
X48890Y7140
X48890Y6140
X47890Y6140
X46890Y6140
X49890Y6140
X50890Y6140
X50890Y7140
X49890Y7140
X51890Y7140
X52890Y7140
X52890Y6140
X51890Y6140
X53890Y6140
X53890Y7140
X59265Y7140
X60265Y7140
X60265Y6140
X59265Y6140
X59265Y10140
X60265Y10140
X60265Y11140
X59265Y11140
X59265Y12140
X60265Y12140
X60265Y13140
X59265Y13140
X59265Y14140
X60265Y14140
X60265Y15140
X59265Y15140
X59265Y16140
X60265Y16140
X60265Y17140
X59265Y17140
X64265Y19515
X64265Y20515
X64265Y21515
X64265Y22515
X64265Y23515
X64265Y24515
X64265Y25515
X64265Y26515
X64265Y27515
X60265Y40140
X59265Y40140
X59265Y41140
X60265Y41140
X9015Y37140
X9015Y36140
X9015Y35140
X9015Y34140
X9015Y33140
X6765Y33140
X5765Y33140
X5765Y32140
X6765Y32140
X6765Y31140
X5765Y31140
X5765Y30140
X6765Y30140
X6765Y34140
X5765Y34140
X5765Y35140
X6765Y35140
X6765Y36140
X5765Y36140
X5765Y37140
X6765Y37140
X7390Y40140
X8390Y40140
X8390Y41140
X7390Y41140
X6765Y17140
X5765Y17140
X5765Y16140
X6765Y16140
X6765Y15140
X5765Y15140
X5765Y14140
X6765Y14140
X6765Y13140
X5765Y13140
X5765Y12140
X6765Y12140
X6765Y11140
X5765Y11140
X5765Y10140
X6765Y10140
X7390Y7140
X8390Y7140
X8390Y6140
X7390Y6140
T04
X5265Y6140
X5265Y41140
X65765Y41140
X65765Y6140
M30
