G75*
%MOIN*%
%OFA0B0*%
%FSLAX24Y24*%
%IPPOS*%
%LPD*%
%AMOC8*
5,1,8,0,0,1.08239X$1,22.5*
%
%ADD10C,0.0080*%
%ADD11C,0.0120*%
D10*
X006890Y005890D02*
X007140Y005640D01*
X007640Y005640D01*
X007890Y005890D01*
X007890Y007390D01*
X008140Y007640D01*
X008640Y007640D01*
X008890Y007390D01*
X008890Y005890D01*
X008640Y005640D01*
X008140Y005640D01*
X007890Y005890D01*
X006890Y005890D02*
X006890Y007390D01*
X007140Y007640D01*
X007640Y007640D01*
X007890Y007390D01*
X007851Y007930D02*
X008061Y007930D01*
X008131Y008000D01*
X008131Y008280D01*
X008061Y008350D01*
X007851Y008350D01*
X007851Y007930D01*
X007671Y007930D02*
X007671Y008350D01*
X007390Y008350D02*
X007671Y007930D01*
X007390Y007930D02*
X007390Y008350D01*
X007210Y008280D02*
X007140Y008350D01*
X007000Y008350D01*
X006930Y008280D01*
X006930Y008000D01*
X007000Y007930D01*
X007140Y007930D01*
X007210Y008000D01*
X007210Y008140D01*
X007070Y008140D01*
X008311Y008280D02*
X008381Y008350D01*
X008521Y008350D01*
X008591Y008280D01*
X008591Y008210D01*
X008311Y007930D01*
X008591Y007930D01*
X010390Y007390D02*
X010390Y005890D01*
X010640Y005640D01*
X011140Y005640D01*
X011390Y005890D01*
X011390Y007390D01*
X011140Y007640D01*
X010640Y007640D01*
X010390Y007390D01*
X011390Y007390D02*
X011640Y007640D01*
X012140Y007640D01*
X012390Y007390D01*
X012390Y005890D01*
X012140Y005640D01*
X011640Y005640D01*
X011390Y005890D01*
X012390Y005890D02*
X012640Y005640D01*
X013140Y005640D01*
X013390Y005890D01*
X013390Y007390D01*
X013140Y007640D01*
X012640Y007640D01*
X012390Y007390D01*
X013390Y007390D02*
X013640Y007640D01*
X014140Y007640D01*
X014390Y007390D01*
X014390Y005890D01*
X014140Y005640D01*
X013640Y005640D01*
X013390Y005890D01*
X014390Y005890D02*
X014640Y005640D01*
X015140Y005640D01*
X015390Y005890D01*
X015390Y007390D01*
X015140Y007640D01*
X014640Y007640D01*
X014390Y007390D01*
X015390Y007390D02*
X015640Y007640D01*
X016140Y007640D01*
X016390Y007390D01*
X016390Y005890D01*
X016140Y005640D01*
X015640Y005640D01*
X015390Y005890D01*
X016390Y005890D02*
X016640Y005640D01*
X017140Y005640D01*
X017390Y005890D01*
X017390Y007390D01*
X017640Y007640D01*
X018140Y007640D01*
X018390Y007390D01*
X018390Y005890D01*
X018140Y005640D01*
X017640Y005640D01*
X017390Y005890D01*
X018390Y005890D02*
X018640Y005640D01*
X019140Y005640D01*
X019390Y005890D01*
X019390Y007390D01*
X019640Y007640D01*
X020140Y007640D01*
X020390Y007390D01*
X020390Y005890D01*
X020140Y005640D01*
X019640Y005640D01*
X019390Y005890D01*
X020390Y005890D02*
X020640Y005640D01*
X021140Y005640D01*
X021390Y005890D01*
X021390Y007390D01*
X021640Y007640D01*
X022140Y007640D01*
X022390Y007390D01*
X022390Y005890D01*
X022140Y005640D01*
X021640Y005640D01*
X021390Y005890D01*
X022390Y005890D02*
X022640Y005640D01*
X023140Y005640D01*
X023390Y005890D01*
X023390Y007390D01*
X023640Y007640D01*
X024140Y007640D01*
X024390Y007390D01*
X024390Y005890D01*
X024140Y005640D01*
X023640Y005640D01*
X023390Y005890D01*
X024390Y005890D02*
X024640Y005640D01*
X025140Y005640D01*
X025390Y005890D01*
X025390Y007390D01*
X025640Y007640D01*
X026140Y007640D01*
X026390Y007390D01*
X026390Y005890D01*
X026140Y005640D01*
X025640Y005640D01*
X025390Y005890D01*
X026390Y005890D02*
X026640Y005640D01*
X027140Y005640D01*
X027390Y005890D01*
X027390Y007390D01*
X027640Y007640D01*
X028140Y007640D01*
X028390Y007390D01*
X028390Y005890D01*
X028140Y005640D01*
X027640Y005640D01*
X027390Y005890D01*
X028390Y005890D02*
X028640Y005640D01*
X029140Y005640D01*
X029390Y005890D01*
X029390Y007390D01*
X029140Y007640D01*
X028640Y007640D01*
X028390Y007390D01*
X029390Y007390D02*
X029640Y007640D01*
X030140Y007640D01*
X030390Y007390D01*
X030390Y005890D01*
X030140Y005640D01*
X029640Y005640D01*
X029390Y005890D01*
X030390Y005890D02*
X030640Y005640D01*
X031140Y005640D01*
X031390Y005890D01*
X031390Y007390D01*
X031140Y007640D01*
X030640Y007640D01*
X030390Y007390D01*
X031390Y007390D02*
X031640Y007640D01*
X032140Y007640D01*
X032390Y007390D01*
X032390Y005890D01*
X032140Y005640D01*
X031640Y005640D01*
X031390Y005890D01*
X032390Y005890D02*
X032640Y005640D01*
X033140Y005640D01*
X033390Y005890D01*
X033390Y007390D01*
X033140Y007640D01*
X032640Y007640D01*
X032390Y007390D01*
X033390Y007390D02*
X033640Y007640D01*
X034140Y007640D01*
X034390Y007390D01*
X034390Y005890D01*
X034140Y005640D01*
X033640Y005640D01*
X033390Y005890D01*
X033329Y005350D02*
X033189Y005350D01*
X033259Y005350D02*
X033259Y005000D01*
X033189Y004930D01*
X033119Y004930D01*
X033049Y005000D01*
X033509Y004930D02*
X033509Y005350D01*
X033719Y005350D01*
X033789Y005280D01*
X033789Y005140D01*
X033719Y005070D01*
X033509Y005070D01*
X033970Y005000D02*
X034040Y004930D01*
X034180Y004930D01*
X034250Y005000D01*
X034250Y005280D01*
X034180Y005350D01*
X034040Y005350D01*
X033970Y005280D01*
X033970Y005210D01*
X034040Y005140D01*
X034250Y005140D01*
X038390Y005890D02*
X038640Y005640D01*
X039140Y005640D01*
X039390Y005890D01*
X039390Y007390D01*
X039640Y007640D01*
X040140Y007640D01*
X040390Y007390D01*
X040390Y005890D01*
X040140Y005640D01*
X039640Y005640D01*
X039390Y005890D01*
X038390Y005890D02*
X038390Y007390D01*
X038640Y007640D01*
X039140Y007640D01*
X039390Y007390D01*
X040390Y007390D02*
X040640Y007640D01*
X041140Y007640D01*
X041390Y007390D01*
X041390Y005890D01*
X041140Y005640D01*
X040640Y005640D01*
X040390Y005890D01*
X041390Y005890D02*
X041640Y005640D01*
X042140Y005640D01*
X042390Y005890D01*
X042390Y007390D01*
X042640Y007640D01*
X043140Y007640D01*
X043390Y007390D01*
X043390Y005890D01*
X043140Y005640D01*
X042640Y005640D01*
X042390Y005890D01*
X043390Y005890D02*
X043640Y005640D01*
X044140Y005640D01*
X044390Y005890D01*
X044390Y007390D01*
X044640Y007640D01*
X045140Y007640D01*
X045390Y007390D01*
X045390Y005890D01*
X045140Y005640D01*
X044640Y005640D01*
X044390Y005890D01*
X045390Y005890D02*
X045640Y005640D01*
X046140Y005640D01*
X046390Y005890D01*
X046390Y007390D01*
X046640Y007640D01*
X047140Y007640D01*
X047390Y007390D01*
X047390Y005890D01*
X047140Y005640D01*
X046640Y005640D01*
X046390Y005890D01*
X047390Y005890D02*
X047640Y005640D01*
X048140Y005640D01*
X048390Y005890D01*
X048390Y007390D01*
X048140Y007640D01*
X047640Y007640D01*
X047390Y007390D01*
X046390Y007390D02*
X046140Y007640D01*
X045640Y007640D01*
X045390Y007390D01*
X044390Y007390D02*
X044140Y007640D01*
X043640Y007640D01*
X043390Y007390D01*
X042390Y007390D02*
X042140Y007640D01*
X041640Y007640D01*
X041390Y007390D01*
X042740Y011565D02*
X044040Y011565D01*
X044066Y011567D01*
X044092Y011572D01*
X044117Y011580D01*
X044140Y011592D01*
X044162Y011606D01*
X044181Y011624D01*
X044199Y011643D01*
X044213Y011665D01*
X044225Y011688D01*
X044233Y011713D01*
X044238Y011739D01*
X044240Y011765D01*
X043890Y012015D02*
X043510Y012015D01*
X043260Y012015D02*
X042890Y012015D01*
X042540Y011765D02*
X042542Y011739D01*
X042547Y011713D01*
X042555Y011688D01*
X042567Y011665D01*
X042581Y011643D01*
X042599Y011624D01*
X042618Y011606D01*
X042640Y011592D01*
X042663Y011580D01*
X042688Y011572D01*
X042714Y011567D01*
X042740Y011565D01*
X042540Y012265D02*
X042542Y012291D01*
X042547Y012317D01*
X042555Y012342D01*
X042567Y012365D01*
X042581Y012387D01*
X042599Y012406D01*
X042618Y012424D01*
X042640Y012438D01*
X042663Y012450D01*
X042688Y012458D01*
X042714Y012463D01*
X042740Y012465D01*
X044040Y012465D01*
X044066Y012463D01*
X044092Y012458D01*
X044117Y012450D01*
X044140Y012438D01*
X044162Y012424D01*
X044181Y012406D01*
X044199Y012387D01*
X044213Y012365D01*
X044225Y012342D01*
X044233Y012317D01*
X044238Y012291D01*
X044240Y012265D01*
X044790Y013440D02*
X044790Y025340D01*
X049990Y025340D01*
X049990Y013440D01*
X047890Y013440D01*
X048211Y013201D02*
X048418Y013201D01*
X048315Y013201D02*
X048315Y012580D01*
X048418Y012580D02*
X048211Y012580D01*
X048641Y012683D02*
X048641Y013097D01*
X048744Y013201D01*
X048951Y013201D01*
X049055Y013097D01*
X049285Y012890D02*
X049699Y012890D01*
X049596Y012580D02*
X049596Y013201D01*
X049285Y012890D01*
X049055Y012683D02*
X048951Y012580D01*
X048744Y012580D01*
X048641Y012683D01*
X047890Y013440D02*
X047888Y013484D01*
X047882Y013527D01*
X047873Y013569D01*
X047860Y013611D01*
X047843Y013651D01*
X047823Y013690D01*
X047800Y013727D01*
X047773Y013761D01*
X047744Y013794D01*
X047711Y013823D01*
X047677Y013850D01*
X047640Y013873D01*
X047601Y013893D01*
X047561Y013910D01*
X047519Y013923D01*
X047477Y013932D01*
X047434Y013938D01*
X047390Y013940D01*
X047346Y013938D01*
X047303Y013932D01*
X047261Y013923D01*
X047219Y013910D01*
X047179Y013893D01*
X047140Y013873D01*
X047103Y013850D01*
X047069Y013823D01*
X047036Y013794D01*
X047007Y013761D01*
X046980Y013727D01*
X046957Y013690D01*
X046937Y013651D01*
X046920Y013611D01*
X046907Y013569D01*
X046898Y013527D01*
X046892Y013484D01*
X046890Y013440D01*
X044790Y013440D01*
X047079Y014680D02*
X047079Y015094D01*
X047183Y015094D01*
X047597Y014680D01*
X047700Y014680D01*
X047390Y015325D02*
X047390Y015738D01*
X047700Y015635D02*
X047079Y015635D01*
X047390Y015325D01*
X047700Y015969D02*
X047079Y015969D01*
X047700Y015969D02*
X047700Y016383D01*
X047597Y016614D02*
X047700Y016717D01*
X047700Y016924D01*
X047597Y017027D01*
X047493Y017027D01*
X047390Y016924D01*
X047390Y016717D01*
X047286Y016614D01*
X047183Y016614D01*
X047079Y016717D01*
X047079Y016924D01*
X047183Y017027D01*
X047286Y017258D02*
X047079Y017465D01*
X047700Y017465D01*
X047700Y017258D02*
X047700Y017672D01*
X047597Y017903D02*
X047493Y017903D01*
X047390Y018006D01*
X047390Y018213D01*
X047493Y018316D01*
X047597Y018316D01*
X047700Y018213D01*
X047700Y018006D01*
X047597Y017903D01*
X047390Y018006D02*
X047286Y017903D01*
X047183Y017903D01*
X047079Y018006D01*
X047079Y018213D01*
X047183Y018316D01*
X047286Y018316D01*
X047390Y018213D01*
X047286Y018547D02*
X047079Y018754D01*
X047700Y018754D01*
X047700Y018547D02*
X047700Y018961D01*
X047700Y019192D02*
X047079Y019192D01*
X047700Y019606D01*
X047079Y019606D01*
X053990Y017390D02*
X056290Y017390D01*
X056290Y025390D01*
X055540Y025390D01*
X055538Y025351D01*
X055532Y025312D01*
X055523Y025274D01*
X055510Y025237D01*
X055493Y025201D01*
X055473Y025168D01*
X055449Y025136D01*
X055423Y025107D01*
X055394Y025081D01*
X055362Y025057D01*
X055329Y025037D01*
X055293Y025020D01*
X055256Y025007D01*
X055218Y024998D01*
X055179Y024992D01*
X055140Y024990D01*
X055101Y024992D01*
X055062Y024998D01*
X055024Y025007D01*
X054987Y025020D01*
X054951Y025037D01*
X054918Y025057D01*
X054886Y025081D01*
X054857Y025107D01*
X054831Y025136D01*
X054807Y025168D01*
X054787Y025201D01*
X054770Y025237D01*
X054757Y025274D01*
X054748Y025312D01*
X054742Y025351D01*
X054740Y025390D01*
X053990Y025390D01*
X053990Y017390D01*
X058765Y017390D02*
X058765Y016890D01*
X059015Y016640D01*
X060515Y016640D01*
X060765Y016390D01*
X060765Y015890D01*
X060515Y015640D01*
X059015Y015640D01*
X058765Y015390D01*
X058765Y014890D01*
X059015Y014640D01*
X060515Y014640D01*
X060765Y014390D01*
X060765Y013890D01*
X060515Y013640D01*
X059015Y013640D01*
X058765Y013390D01*
X058765Y012890D01*
X059015Y012640D01*
X060515Y012640D01*
X060765Y012390D01*
X060765Y011890D01*
X060515Y011640D01*
X059015Y011640D01*
X058765Y011390D01*
X058765Y010890D01*
X059015Y010640D01*
X058765Y010390D01*
X058765Y009890D01*
X059015Y009640D01*
X060515Y009640D01*
X060765Y009890D01*
X060765Y010390D01*
X060515Y010640D01*
X059015Y010640D01*
X059015Y011640D02*
X058765Y011890D01*
X058765Y012390D01*
X059015Y012640D01*
X059015Y013640D02*
X058765Y013890D01*
X058765Y014390D01*
X059015Y014640D01*
X059015Y015640D02*
X058765Y015890D01*
X058765Y016390D01*
X059015Y016640D01*
X058765Y017390D02*
X059015Y017640D01*
X060515Y017640D01*
X060765Y017390D01*
X060765Y016890D01*
X060515Y016640D01*
X061055Y016579D02*
X061055Y016439D01*
X061055Y016509D02*
X061405Y016509D01*
X061475Y016439D01*
X061475Y016369D01*
X061405Y016299D01*
X061475Y016759D02*
X061055Y016759D01*
X061055Y016969D01*
X061125Y017039D01*
X061265Y017039D01*
X061335Y016969D01*
X061335Y016759D01*
X061475Y017220D02*
X061195Y017500D01*
X061125Y017500D01*
X061055Y017430D01*
X061055Y017290D01*
X061125Y017220D01*
X061475Y017220D02*
X061475Y017500D01*
X060515Y015640D02*
X060765Y015390D01*
X060765Y014890D01*
X060515Y014640D01*
X060515Y013640D02*
X060765Y013390D01*
X060765Y012890D01*
X060515Y012640D01*
X060515Y011640D02*
X060765Y011390D01*
X060765Y010890D01*
X060515Y010640D01*
X060326Y008350D02*
X060186Y008210D01*
X060006Y008280D02*
X059936Y008350D01*
X059796Y008350D01*
X059726Y008280D01*
X059726Y008000D01*
X059796Y007930D01*
X059936Y007930D01*
X060006Y008000D01*
X060186Y007930D02*
X060466Y007930D01*
X060326Y007930D02*
X060326Y008350D01*
X060515Y007640D02*
X060015Y007640D01*
X059765Y007390D01*
X059765Y005890D01*
X060015Y005640D01*
X060515Y005640D01*
X060765Y005890D01*
X060765Y007390D01*
X060515Y007640D01*
X059765Y007390D02*
X059515Y007640D01*
X059015Y007640D01*
X058765Y007390D01*
X058765Y005890D01*
X059015Y005640D01*
X059515Y005640D01*
X059765Y005890D01*
X061990Y007490D02*
X061990Y007640D01*
X061990Y007790D01*
X061990Y007640D02*
X062140Y007640D01*
X061990Y007640D02*
X061840Y007640D01*
X061540Y007140D02*
X061542Y007206D01*
X061548Y007271D01*
X061558Y007336D01*
X061571Y007401D01*
X061589Y007464D01*
X061610Y007527D01*
X061635Y007587D01*
X061664Y007647D01*
X061696Y007704D01*
X061731Y007760D01*
X061770Y007813D01*
X061812Y007864D01*
X061856Y007912D01*
X061904Y007957D01*
X061954Y008000D01*
X062007Y008039D01*
X062062Y008076D01*
X062119Y008109D01*
X062178Y008138D01*
X062238Y008164D01*
X062300Y008186D01*
X062363Y008205D01*
X062427Y008219D01*
X062492Y008230D01*
X062558Y008237D01*
X062624Y008240D01*
X062689Y008239D01*
X062755Y008234D01*
X062820Y008225D01*
X062885Y008212D01*
X062948Y008196D01*
X063011Y008176D01*
X063072Y008151D01*
X063132Y008124D01*
X063190Y008093D01*
X063246Y008058D01*
X063300Y008020D01*
X063351Y007979D01*
X063400Y007935D01*
X063446Y007888D01*
X063490Y007839D01*
X063530Y007787D01*
X063567Y007732D01*
X063601Y007676D01*
X063631Y007617D01*
X063658Y007557D01*
X063681Y007496D01*
X063700Y007433D01*
X063716Y007369D01*
X063728Y007304D01*
X063736Y007239D01*
X063740Y007173D01*
X063740Y007107D01*
X063736Y007041D01*
X063728Y006976D01*
X063716Y006911D01*
X063700Y006847D01*
X063681Y006784D01*
X063658Y006723D01*
X063631Y006663D01*
X063601Y006604D01*
X063567Y006548D01*
X063530Y006493D01*
X063490Y006441D01*
X063446Y006392D01*
X063400Y006345D01*
X063351Y006301D01*
X063300Y006260D01*
X063246Y006222D01*
X063190Y006187D01*
X063132Y006156D01*
X063072Y006129D01*
X063011Y006104D01*
X062948Y006084D01*
X062885Y006068D01*
X062820Y006055D01*
X062755Y006046D01*
X062689Y006041D01*
X062624Y006040D01*
X062558Y006043D01*
X062492Y006050D01*
X062427Y006061D01*
X062363Y006075D01*
X062300Y006094D01*
X062238Y006116D01*
X062178Y006142D01*
X062119Y006171D01*
X062062Y006204D01*
X062007Y006241D01*
X061954Y006280D01*
X061904Y006323D01*
X061856Y006368D01*
X061812Y006416D01*
X061770Y006467D01*
X061731Y006520D01*
X061696Y006576D01*
X061664Y006633D01*
X061635Y006693D01*
X061610Y006753D01*
X061589Y006816D01*
X061571Y006879D01*
X061558Y006944D01*
X061548Y007009D01*
X061542Y007074D01*
X061540Y007140D01*
X062995Y005800D02*
X062995Y005380D01*
X062855Y005380D02*
X063135Y005380D01*
X063315Y005450D02*
X063596Y005730D01*
X063596Y005450D01*
X063526Y005380D01*
X063385Y005380D01*
X063315Y005450D01*
X063315Y005730D01*
X063385Y005800D01*
X063526Y005800D01*
X063596Y005730D01*
X063776Y005660D02*
X063776Y005450D01*
X063846Y005380D01*
X064056Y005380D01*
X064056Y005660D01*
X062995Y005800D02*
X062855Y005660D01*
X059546Y008000D02*
X059476Y007930D01*
X059335Y007930D01*
X059265Y008000D01*
X059265Y008280D01*
X059335Y008350D01*
X059476Y008350D01*
X059546Y008280D01*
X059085Y008350D02*
X059085Y008070D01*
X058945Y007930D01*
X058805Y008070D01*
X058805Y008350D01*
X054390Y007390D02*
X054390Y005890D01*
X054140Y005640D01*
X053640Y005640D01*
X053390Y005890D01*
X053390Y007390D01*
X053140Y007640D01*
X052640Y007640D01*
X052390Y007390D01*
X052390Y005890D01*
X052140Y005640D01*
X051640Y005640D01*
X051390Y005890D01*
X051390Y007390D01*
X051140Y007640D01*
X050640Y007640D01*
X050390Y007390D01*
X050390Y005890D01*
X050140Y005640D01*
X049640Y005640D01*
X049390Y005890D01*
X049390Y007390D01*
X049140Y007640D01*
X048640Y007640D01*
X048390Y007390D01*
X049390Y007390D02*
X049640Y007640D01*
X050140Y007640D01*
X050390Y007390D01*
X051390Y007390D02*
X051640Y007640D01*
X052140Y007640D01*
X052390Y007390D01*
X053390Y007390D02*
X053640Y007640D01*
X054140Y007640D01*
X054390Y007390D01*
X053390Y005890D02*
X053140Y005640D01*
X052640Y005640D01*
X052390Y005890D01*
X052729Y005350D02*
X052869Y005350D01*
X052799Y005350D02*
X052799Y005000D01*
X052729Y004930D01*
X052658Y004930D01*
X052588Y005000D01*
X053049Y004930D02*
X053049Y005350D01*
X053259Y005350D01*
X053329Y005280D01*
X053329Y005140D01*
X053259Y005070D01*
X053049Y005070D01*
X053509Y004930D02*
X053789Y004930D01*
X053649Y004930D02*
X053649Y005350D01*
X053509Y005210D01*
X053970Y005280D02*
X053970Y005000D01*
X054250Y005280D01*
X054250Y005000D01*
X054180Y004930D01*
X054040Y004930D01*
X053970Y005000D01*
X053970Y005280D02*
X054040Y005350D01*
X054180Y005350D01*
X054250Y005280D01*
X051390Y005890D02*
X051140Y005640D01*
X050640Y005640D01*
X050390Y005890D01*
X049390Y005890D02*
X049140Y005640D01*
X048640Y005640D01*
X048390Y005890D01*
X039699Y012683D02*
X039596Y012580D01*
X039389Y012580D01*
X039285Y012683D01*
X039055Y012683D02*
X038951Y012580D01*
X038744Y012580D01*
X038641Y012683D01*
X038641Y013097D01*
X038744Y013201D01*
X038951Y013201D01*
X039055Y013097D01*
X039285Y013097D02*
X039389Y013201D01*
X039596Y013201D01*
X039699Y013097D01*
X039699Y012994D01*
X039596Y012890D01*
X039699Y012787D01*
X039699Y012683D01*
X039596Y012890D02*
X039492Y012890D01*
X039990Y013440D02*
X039990Y025340D01*
X034790Y025340D01*
X034790Y013440D01*
X036890Y013440D01*
X036892Y013484D01*
X036898Y013527D01*
X036907Y013569D01*
X036920Y013611D01*
X036937Y013651D01*
X036957Y013690D01*
X036980Y013727D01*
X037007Y013761D01*
X037036Y013794D01*
X037069Y013823D01*
X037103Y013850D01*
X037140Y013873D01*
X037179Y013893D01*
X037219Y013910D01*
X037261Y013923D01*
X037303Y013932D01*
X037346Y013938D01*
X037390Y013940D01*
X037434Y013938D01*
X037477Y013932D01*
X037519Y013923D01*
X037561Y013910D01*
X037601Y013893D01*
X037640Y013873D01*
X037677Y013850D01*
X037711Y013823D01*
X037744Y013794D01*
X037773Y013761D01*
X037800Y013727D01*
X037823Y013690D01*
X037843Y013651D01*
X037860Y013611D01*
X037873Y013569D01*
X037882Y013527D01*
X037888Y013484D01*
X037890Y013440D01*
X039990Y013440D01*
X038418Y013201D02*
X038211Y013201D01*
X038315Y013201D02*
X038315Y012580D01*
X038418Y012580D02*
X038211Y012580D01*
X037700Y014680D02*
X037597Y014680D01*
X037183Y015094D01*
X037079Y015094D01*
X037079Y014680D01*
X037390Y015325D02*
X037390Y015738D01*
X037700Y015635D02*
X037079Y015635D01*
X037390Y015325D01*
X037700Y015969D02*
X037079Y015969D01*
X037700Y015969D02*
X037700Y016383D01*
X037597Y016614D02*
X037700Y016717D01*
X037700Y016924D01*
X037597Y017027D01*
X037493Y017027D01*
X037390Y016924D01*
X037390Y016717D01*
X037286Y016614D01*
X037183Y016614D01*
X037079Y016717D01*
X037079Y016924D01*
X037183Y017027D01*
X037286Y017258D02*
X037079Y017465D01*
X037700Y017465D01*
X037700Y017258D02*
X037700Y017672D01*
X037597Y017903D02*
X037493Y017903D01*
X037390Y018006D01*
X037390Y018213D01*
X037493Y018316D01*
X037597Y018316D01*
X037700Y018213D01*
X037700Y018006D01*
X037597Y017903D01*
X037390Y018006D02*
X037286Y017903D01*
X037183Y017903D01*
X037079Y018006D01*
X037079Y018213D01*
X037183Y018316D01*
X037286Y018316D01*
X037390Y018213D01*
X037286Y018547D02*
X037079Y018754D01*
X037700Y018754D01*
X037700Y018547D02*
X037700Y018961D01*
X037700Y019192D02*
X037079Y019192D01*
X037700Y019606D01*
X037079Y019606D01*
X029990Y025340D02*
X029990Y013440D01*
X027890Y013440D01*
X027596Y013201D02*
X027389Y013201D01*
X027285Y013097D01*
X027055Y013097D02*
X026951Y013201D01*
X026744Y013201D01*
X026641Y013097D01*
X026641Y012683D01*
X026744Y012580D01*
X026951Y012580D01*
X027055Y012683D01*
X027285Y012580D02*
X027699Y012994D01*
X027699Y013097D01*
X027596Y013201D01*
X027890Y013440D02*
X027888Y013484D01*
X027882Y013527D01*
X027873Y013569D01*
X027860Y013611D01*
X027843Y013651D01*
X027823Y013690D01*
X027800Y013727D01*
X027773Y013761D01*
X027744Y013794D01*
X027711Y013823D01*
X027677Y013850D01*
X027640Y013873D01*
X027601Y013893D01*
X027561Y013910D01*
X027519Y013923D01*
X027477Y013932D01*
X027434Y013938D01*
X027390Y013940D01*
X027346Y013938D01*
X027303Y013932D01*
X027261Y013923D01*
X027219Y013910D01*
X027179Y013893D01*
X027140Y013873D01*
X027103Y013850D01*
X027069Y013823D01*
X027036Y013794D01*
X027007Y013761D01*
X026980Y013727D01*
X026957Y013690D01*
X026937Y013651D01*
X026920Y013611D01*
X026907Y013569D01*
X026898Y013527D01*
X026892Y013484D01*
X026890Y013440D01*
X024790Y013440D01*
X024790Y025340D01*
X029990Y025340D01*
X026950Y029280D02*
X026670Y029280D01*
X026950Y029560D01*
X026950Y029630D01*
X026880Y029700D01*
X026740Y029700D01*
X026670Y029630D01*
X026349Y029700D02*
X026349Y029280D01*
X026209Y029280D02*
X026489Y029280D01*
X026209Y029560D02*
X026349Y029700D01*
X026029Y029630D02*
X025959Y029700D01*
X025819Y029700D01*
X025749Y029630D01*
X025749Y029350D01*
X025819Y029280D01*
X025959Y029280D01*
X026029Y029350D01*
X025582Y029280D02*
X025442Y029280D01*
X025512Y029280D02*
X025512Y029700D01*
X025442Y029700D02*
X025582Y029700D01*
X024740Y030015D02*
X027040Y030015D01*
X027040Y040015D01*
X026290Y040015D01*
X026288Y039976D01*
X026282Y039937D01*
X026273Y039899D01*
X026260Y039862D01*
X026243Y039826D01*
X026223Y039793D01*
X026199Y039761D01*
X026173Y039732D01*
X026144Y039706D01*
X026112Y039682D01*
X026079Y039662D01*
X026043Y039645D01*
X026006Y039632D01*
X025968Y039623D01*
X025929Y039617D01*
X025890Y039615D01*
X025851Y039617D01*
X025812Y039623D01*
X025774Y039632D01*
X025737Y039645D01*
X025701Y039662D01*
X025668Y039682D01*
X025636Y039706D01*
X025607Y039732D01*
X025581Y039761D01*
X025557Y039793D01*
X025537Y039826D01*
X025520Y039862D01*
X025507Y039899D01*
X025498Y039937D01*
X025492Y039976D01*
X025490Y040015D01*
X024740Y040015D01*
X024740Y030015D01*
X019990Y025340D02*
X019990Y013440D01*
X017890Y013440D01*
X017492Y013201D02*
X017492Y012580D01*
X017285Y012580D02*
X017699Y012580D01*
X017285Y012994D02*
X017492Y013201D01*
X017890Y013440D02*
X017888Y013484D01*
X017882Y013527D01*
X017873Y013569D01*
X017860Y013611D01*
X017843Y013651D01*
X017823Y013690D01*
X017800Y013727D01*
X017773Y013761D01*
X017744Y013794D01*
X017711Y013823D01*
X017677Y013850D01*
X017640Y013873D01*
X017601Y013893D01*
X017561Y013910D01*
X017519Y013923D01*
X017477Y013932D01*
X017434Y013938D01*
X017390Y013940D01*
X017346Y013938D01*
X017303Y013932D01*
X017261Y013923D01*
X017219Y013910D01*
X017179Y013893D01*
X017140Y013873D01*
X017103Y013850D01*
X017069Y013823D01*
X017036Y013794D01*
X017007Y013761D01*
X016980Y013727D01*
X016957Y013690D01*
X016937Y013651D01*
X016920Y013611D01*
X016907Y013569D01*
X016898Y013527D01*
X016892Y013484D01*
X016890Y013440D01*
X014790Y013440D01*
X014790Y025340D01*
X019990Y025340D01*
X017075Y029405D02*
X016795Y029405D01*
X016935Y029405D02*
X016935Y029825D01*
X016795Y029685D01*
X016614Y029405D02*
X016334Y029405D01*
X016474Y029405D02*
X016474Y029825D01*
X016334Y029685D01*
X016154Y029755D02*
X016084Y029825D01*
X015944Y029825D01*
X015874Y029755D01*
X015874Y029475D01*
X015944Y029405D01*
X016084Y029405D01*
X016154Y029475D01*
X015707Y029405D02*
X015567Y029405D01*
X015637Y029405D02*
X015637Y029825D01*
X015567Y029825D02*
X015707Y029825D01*
X014740Y030015D02*
X017040Y030015D01*
X017040Y040015D01*
X016290Y040015D01*
X016288Y039976D01*
X016282Y039937D01*
X016273Y039899D01*
X016260Y039862D01*
X016243Y039826D01*
X016223Y039793D01*
X016199Y039761D01*
X016173Y039732D01*
X016144Y039706D01*
X016112Y039682D01*
X016079Y039662D01*
X016043Y039645D01*
X016006Y039632D01*
X015968Y039623D01*
X015929Y039617D01*
X015890Y039615D01*
X015851Y039617D01*
X015812Y039623D01*
X015774Y039632D01*
X015737Y039645D01*
X015701Y039662D01*
X015668Y039682D01*
X015636Y039706D01*
X015607Y039732D01*
X015581Y039761D01*
X015557Y039793D01*
X015537Y039826D01*
X015520Y039862D01*
X015507Y039899D01*
X015498Y039937D01*
X015492Y039976D01*
X015490Y040015D01*
X014740Y040015D01*
X014740Y030015D01*
X007975Y027430D02*
X007975Y027290D01*
X007905Y027220D01*
X007765Y027220D02*
X007695Y027360D01*
X007695Y027430D01*
X007765Y027500D01*
X007905Y027500D01*
X007975Y027430D01*
X007765Y027220D02*
X007555Y027220D01*
X007555Y027500D01*
X007265Y027390D02*
X007265Y026890D01*
X007015Y026640D01*
X005515Y026640D01*
X005265Y026390D01*
X005265Y025890D01*
X005515Y025640D01*
X007015Y025640D01*
X007265Y025390D01*
X007265Y024890D01*
X007015Y024640D01*
X005515Y024640D01*
X005265Y024390D01*
X005265Y023890D01*
X005515Y023640D01*
X007015Y023640D01*
X007265Y023390D01*
X007265Y022890D01*
X007015Y022640D01*
X005515Y022640D01*
X005265Y022390D01*
X005265Y021890D01*
X005515Y021640D01*
X007015Y021640D01*
X007265Y021390D01*
X007265Y020890D01*
X007015Y020640D01*
X007265Y020390D01*
X007265Y019890D01*
X007015Y019640D01*
X005515Y019640D01*
X005265Y019890D01*
X005265Y020390D01*
X005515Y020640D01*
X007015Y020640D01*
X007015Y021640D02*
X007265Y021890D01*
X007265Y022390D01*
X007015Y022640D01*
X007015Y023640D02*
X007265Y023890D01*
X007265Y024390D01*
X007015Y024640D01*
X007015Y025640D02*
X007265Y025890D01*
X007265Y026390D01*
X007015Y026640D01*
X007555Y026579D02*
X007555Y026439D01*
X007555Y026509D02*
X007905Y026509D01*
X007975Y026439D01*
X007975Y026369D01*
X007905Y026299D01*
X007975Y026759D02*
X007555Y026759D01*
X007555Y026969D01*
X007625Y027039D01*
X007765Y027039D01*
X007835Y026969D01*
X007835Y026759D01*
X007265Y027390D02*
X007015Y027640D01*
X005515Y027640D01*
X005265Y027390D01*
X005265Y026890D01*
X005515Y026640D01*
X005515Y025640D02*
X005265Y025390D01*
X005265Y024890D01*
X005515Y024640D01*
X005515Y023640D02*
X005265Y023390D01*
X005265Y022890D01*
X005515Y022640D01*
X005515Y021640D02*
X005265Y021390D01*
X005265Y020890D01*
X005515Y020640D01*
X005515Y017640D02*
X007015Y017640D01*
X007265Y017390D01*
X007265Y016890D01*
X007015Y016640D01*
X005515Y016640D01*
X005265Y016390D01*
X005265Y015890D01*
X005515Y015640D01*
X007015Y015640D01*
X007265Y015390D01*
X007265Y014890D01*
X007015Y014640D01*
X005515Y014640D01*
X005265Y014390D01*
X005265Y013890D01*
X005515Y013640D01*
X007015Y013640D01*
X007265Y013390D01*
X007265Y012890D01*
X007015Y012640D01*
X005515Y012640D01*
X005265Y012390D01*
X005265Y011890D01*
X005515Y011640D01*
X007015Y011640D01*
X007265Y011390D01*
X007265Y010890D01*
X007015Y010640D01*
X007265Y010390D01*
X007265Y009890D01*
X007015Y009640D01*
X005515Y009640D01*
X005265Y009890D01*
X005265Y010390D01*
X005515Y010640D01*
X007015Y010640D01*
X007015Y011640D02*
X007265Y011890D01*
X007265Y012390D01*
X007015Y012640D01*
X007015Y013640D02*
X007265Y013890D01*
X007265Y014390D01*
X007015Y014640D01*
X007015Y015640D02*
X007265Y015890D01*
X007265Y016390D01*
X007015Y016640D01*
X007555Y016579D02*
X007555Y016439D01*
X007555Y016509D02*
X007905Y016509D01*
X007975Y016439D01*
X007975Y016369D01*
X007905Y016299D01*
X007975Y016759D02*
X007555Y016759D01*
X007555Y016969D01*
X007625Y017039D01*
X007765Y017039D01*
X007835Y016969D01*
X007835Y016759D01*
X007765Y017220D02*
X007765Y017500D01*
X007975Y017430D02*
X007555Y017430D01*
X007765Y017220D01*
X005515Y017640D02*
X005265Y017390D01*
X005265Y016890D01*
X005515Y016640D01*
X005515Y015640D02*
X005265Y015390D01*
X005265Y014890D01*
X005515Y014640D01*
X005515Y013640D02*
X005265Y013390D01*
X005265Y012890D01*
X005515Y012640D01*
X005515Y011640D02*
X005265Y011390D01*
X005265Y010890D01*
X005515Y010640D01*
X011490Y013440D02*
X012790Y013440D01*
X012816Y013442D01*
X012842Y013447D01*
X012867Y013455D01*
X012890Y013467D01*
X012912Y013481D01*
X012931Y013499D01*
X012949Y013518D01*
X012963Y013540D01*
X012975Y013563D01*
X012983Y013588D01*
X012988Y013614D01*
X012990Y013640D01*
X012640Y013890D02*
X012260Y013890D01*
X012010Y013890D02*
X011640Y013890D01*
X011290Y014140D02*
X011292Y014166D01*
X011297Y014192D01*
X011305Y014217D01*
X011317Y014240D01*
X011331Y014262D01*
X011349Y014281D01*
X011368Y014299D01*
X011390Y014313D01*
X011413Y014325D01*
X011438Y014333D01*
X011464Y014338D01*
X011490Y014340D01*
X012790Y014340D01*
X012816Y014338D01*
X012842Y014333D01*
X012867Y014325D01*
X012890Y014313D01*
X012912Y014299D01*
X012931Y014281D01*
X012949Y014262D01*
X012963Y014240D01*
X012975Y014217D01*
X012983Y014192D01*
X012988Y014166D01*
X012990Y014140D01*
X011490Y013440D02*
X011464Y013442D01*
X011438Y013447D01*
X011413Y013455D01*
X011390Y013467D01*
X011368Y013481D01*
X011349Y013499D01*
X011331Y013518D01*
X011317Y013540D01*
X011305Y013563D01*
X011297Y013588D01*
X011292Y013614D01*
X011290Y013640D01*
X016211Y013201D02*
X016418Y013201D01*
X016315Y013201D02*
X016315Y012580D01*
X016418Y012580D02*
X016211Y012580D01*
X016641Y012683D02*
X016641Y013097D01*
X016744Y013201D01*
X016951Y013201D01*
X017055Y013097D01*
X017055Y012683D02*
X016951Y012580D01*
X016744Y012580D01*
X016641Y012683D01*
X017079Y014680D02*
X017079Y015094D01*
X017183Y015094D01*
X017597Y014680D01*
X017700Y014680D01*
X017390Y015325D02*
X017390Y015738D01*
X017700Y015635D02*
X017079Y015635D01*
X017390Y015325D01*
X017700Y015969D02*
X017700Y016383D01*
X017597Y016614D02*
X017700Y016717D01*
X017700Y016924D01*
X017597Y017027D01*
X017493Y017027D01*
X017390Y016924D01*
X017390Y016717D01*
X017286Y016614D01*
X017183Y016614D01*
X017079Y016717D01*
X017079Y016924D01*
X017183Y017027D01*
X017286Y017258D02*
X017079Y017465D01*
X017700Y017465D01*
X017700Y017258D02*
X017700Y017672D01*
X017597Y017903D02*
X017493Y017903D01*
X017390Y018006D01*
X017390Y018213D01*
X017493Y018316D01*
X017597Y018316D01*
X017700Y018213D01*
X017700Y018006D01*
X017597Y017903D01*
X017390Y018006D02*
X017286Y017903D01*
X017183Y017903D01*
X017079Y018006D01*
X017079Y018213D01*
X017183Y018316D01*
X017286Y018316D01*
X017390Y018213D01*
X017286Y018547D02*
X017079Y018754D01*
X017700Y018754D01*
X017700Y018547D02*
X017700Y018961D01*
X017700Y019192D02*
X017079Y019192D01*
X017700Y019606D01*
X017079Y019606D01*
X017079Y015969D02*
X017700Y015969D01*
X022740Y013090D02*
X024040Y013090D01*
X024066Y013088D01*
X024092Y013083D01*
X024117Y013075D01*
X024140Y013063D01*
X024162Y013049D01*
X024181Y013031D01*
X024199Y013012D01*
X024213Y012990D01*
X024225Y012967D01*
X024233Y012942D01*
X024238Y012916D01*
X024240Y012890D01*
X023890Y012640D02*
X023510Y012640D01*
X023260Y012640D02*
X022890Y012640D01*
X022540Y012390D02*
X022542Y012364D01*
X022547Y012338D01*
X022555Y012313D01*
X022567Y012290D01*
X022581Y012268D01*
X022599Y012249D01*
X022618Y012231D01*
X022640Y012217D01*
X022663Y012205D01*
X022688Y012197D01*
X022714Y012192D01*
X022740Y012190D01*
X024040Y012190D01*
X024066Y012192D01*
X024092Y012197D01*
X024117Y012205D01*
X024140Y012217D01*
X024162Y012231D01*
X024181Y012249D01*
X024199Y012268D01*
X024213Y012290D01*
X024225Y012313D01*
X024233Y012338D01*
X024238Y012364D01*
X024240Y012390D01*
X022740Y013090D02*
X022714Y013088D01*
X022688Y013083D01*
X022663Y013075D01*
X022640Y013063D01*
X022618Y013049D01*
X022599Y013031D01*
X022581Y013012D01*
X022567Y012990D01*
X022555Y012967D01*
X022547Y012942D01*
X022542Y012916D01*
X022540Y012890D01*
X026211Y012580D02*
X026418Y012580D01*
X026315Y012580D02*
X026315Y013201D01*
X026418Y013201D02*
X026211Y013201D01*
X027285Y012580D02*
X027699Y012580D01*
X027700Y014680D02*
X027597Y014680D01*
X027183Y015094D01*
X027079Y015094D01*
X027079Y014680D01*
X027390Y015325D02*
X027390Y015738D01*
X027700Y015635D02*
X027079Y015635D01*
X027390Y015325D01*
X027700Y015969D02*
X027079Y015969D01*
X027700Y015969D02*
X027700Y016383D01*
X027597Y016614D02*
X027700Y016717D01*
X027700Y016924D01*
X027597Y017027D01*
X027493Y017027D01*
X027390Y016924D01*
X027390Y016717D01*
X027286Y016614D01*
X027183Y016614D01*
X027079Y016717D01*
X027079Y016924D01*
X027183Y017027D01*
X027286Y017258D02*
X027079Y017465D01*
X027700Y017465D01*
X027700Y017258D02*
X027700Y017672D01*
X027597Y017903D02*
X027700Y018006D01*
X027700Y018213D01*
X027597Y018316D01*
X027493Y018316D01*
X027390Y018213D01*
X027390Y018006D01*
X027286Y017903D01*
X027183Y017903D01*
X027079Y018006D01*
X027079Y018213D01*
X027183Y018316D01*
X027286Y018316D01*
X027390Y018213D01*
X027390Y018006D02*
X027493Y017903D01*
X027597Y017903D01*
X027700Y018547D02*
X027700Y018961D01*
X027700Y018754D02*
X027079Y018754D01*
X027286Y018547D01*
X027079Y019192D02*
X027700Y019606D01*
X027079Y019606D01*
X027079Y019192D02*
X027700Y019192D01*
X032365Y012840D02*
X033665Y012840D01*
X033691Y012838D01*
X033717Y012833D01*
X033742Y012825D01*
X033765Y012813D01*
X033787Y012799D01*
X033806Y012781D01*
X033824Y012762D01*
X033838Y012740D01*
X033850Y012717D01*
X033858Y012692D01*
X033863Y012666D01*
X033865Y012640D01*
X033515Y012390D02*
X033135Y012390D01*
X032885Y012390D02*
X032515Y012390D01*
X032165Y012640D02*
X032167Y012666D01*
X032172Y012692D01*
X032180Y012717D01*
X032192Y012740D01*
X032206Y012762D01*
X032224Y012781D01*
X032243Y012799D01*
X032265Y012813D01*
X032288Y012825D01*
X032313Y012833D01*
X032339Y012838D01*
X032365Y012840D01*
X032165Y012140D02*
X032167Y012114D01*
X032172Y012088D01*
X032180Y012063D01*
X032192Y012040D01*
X032206Y012018D01*
X032224Y011999D01*
X032243Y011981D01*
X032265Y011967D01*
X032288Y011955D01*
X032313Y011947D01*
X032339Y011942D01*
X032365Y011940D01*
X033665Y011940D01*
X033691Y011942D01*
X033717Y011947D01*
X033742Y011955D01*
X033765Y011967D01*
X033787Y011981D01*
X033806Y011999D01*
X033824Y012018D01*
X033838Y012040D01*
X033850Y012063D01*
X033858Y012088D01*
X033863Y012114D01*
X033865Y012140D01*
X027390Y007390D02*
X027140Y007640D01*
X026640Y007640D01*
X026390Y007390D01*
X025390Y007390D02*
X025140Y007640D01*
X024640Y007640D01*
X024390Y007390D01*
X023390Y007390D02*
X023140Y007640D01*
X022640Y007640D01*
X022390Y007390D01*
X021390Y007390D02*
X021140Y007640D01*
X020640Y007640D01*
X020390Y007390D01*
X019390Y007390D02*
X019140Y007640D01*
X018640Y007640D01*
X018390Y007390D01*
X017390Y007390D02*
X017140Y007640D01*
X016640Y007640D01*
X016390Y007390D01*
X007015Y029640D02*
X005515Y029640D01*
X005265Y029890D01*
X005265Y030390D01*
X005515Y030640D01*
X007015Y030640D01*
X007265Y030390D01*
X007265Y029890D01*
X007015Y029640D01*
X007015Y030640D02*
X007265Y030890D01*
X007265Y031390D01*
X007015Y031640D01*
X005515Y031640D01*
X005265Y031390D01*
X005265Y030890D01*
X005515Y030640D01*
X005515Y031640D02*
X005265Y031890D01*
X005265Y032390D01*
X005515Y032640D01*
X007015Y032640D01*
X007265Y032390D01*
X007265Y031890D01*
X007015Y031640D01*
X007015Y032640D02*
X007265Y032890D01*
X007265Y033390D01*
X007015Y033640D01*
X005515Y033640D01*
X005265Y033390D01*
X005265Y032890D01*
X005515Y032640D01*
X005515Y033640D02*
X005265Y033890D01*
X005265Y034390D01*
X005515Y034640D01*
X007015Y034640D01*
X007265Y034390D01*
X007265Y033890D01*
X007015Y033640D01*
X007015Y034640D02*
X007265Y034890D01*
X007265Y035390D01*
X007015Y035640D01*
X005515Y035640D01*
X005265Y035390D01*
X005265Y034890D01*
X005515Y034640D01*
X005515Y035640D02*
X005265Y035890D01*
X005265Y036390D01*
X005515Y036640D01*
X007015Y036640D01*
X007265Y036390D01*
X007265Y035890D01*
X007015Y035640D01*
X007555Y036439D02*
X007555Y036579D01*
X007555Y036509D02*
X007905Y036509D01*
X007975Y036439D01*
X007975Y036369D01*
X007905Y036299D01*
X007975Y036759D02*
X007555Y036759D01*
X007555Y036969D01*
X007625Y037039D01*
X007765Y037039D01*
X007835Y036969D01*
X007835Y036759D01*
X007905Y037220D02*
X007975Y037290D01*
X007975Y037430D01*
X007905Y037500D01*
X007835Y037500D01*
X007765Y037430D01*
X007765Y037360D01*
X007765Y037430D02*
X007695Y037500D01*
X007625Y037500D01*
X007555Y037430D01*
X007555Y037290D01*
X007625Y037220D01*
X007265Y037390D02*
X007265Y036890D01*
X007015Y036640D01*
X007265Y037390D02*
X007015Y037640D01*
X005515Y037640D01*
X005265Y037390D01*
X005265Y036890D01*
X005515Y036640D01*
X007140Y039640D02*
X006890Y039890D01*
X006890Y041390D01*
X007140Y041640D01*
X007640Y041640D01*
X007890Y041390D01*
X007890Y039890D01*
X008140Y039640D01*
X008640Y039640D01*
X008890Y039890D01*
X008890Y041390D01*
X008640Y041640D01*
X008140Y041640D01*
X007890Y041390D01*
X007921Y041930D02*
X008061Y041930D01*
X008131Y042000D01*
X008311Y041930D02*
X008591Y042210D01*
X008591Y042280D01*
X008521Y042350D01*
X008381Y042350D01*
X008311Y042280D01*
X008131Y042280D02*
X008061Y042350D01*
X007921Y042350D01*
X007851Y042280D01*
X007851Y042000D01*
X007921Y041930D01*
X007671Y042000D02*
X007601Y041930D01*
X007460Y041930D01*
X007390Y042000D01*
X007390Y042280D01*
X007460Y042350D01*
X007601Y042350D01*
X007671Y042280D01*
X007210Y042350D02*
X007210Y042070D01*
X007070Y041930D01*
X006930Y042070D01*
X006930Y042350D01*
X008311Y041930D02*
X008591Y041930D01*
X007890Y039890D02*
X007640Y039640D01*
X007140Y039640D01*
X015740Y040690D02*
X017040Y040690D01*
X017066Y040692D01*
X017092Y040697D01*
X017117Y040705D01*
X017140Y040717D01*
X017162Y040731D01*
X017181Y040749D01*
X017199Y040768D01*
X017213Y040790D01*
X017225Y040813D01*
X017233Y040838D01*
X017238Y040864D01*
X017240Y040890D01*
X016890Y041140D02*
X016510Y041140D01*
X016260Y041140D02*
X015890Y041140D01*
X015540Y041390D02*
X015542Y041416D01*
X015547Y041442D01*
X015555Y041467D01*
X015567Y041490D01*
X015581Y041512D01*
X015599Y041531D01*
X015618Y041549D01*
X015640Y041563D01*
X015663Y041575D01*
X015688Y041583D01*
X015714Y041588D01*
X015740Y041590D01*
X017040Y041590D01*
X017066Y041588D01*
X017092Y041583D01*
X017117Y041575D01*
X017140Y041563D01*
X017162Y041549D01*
X017181Y041531D01*
X017199Y041512D01*
X017213Y041490D01*
X017225Y041467D01*
X017233Y041442D01*
X017238Y041416D01*
X017240Y041390D01*
X015740Y040690D02*
X015714Y040692D01*
X015688Y040697D01*
X015663Y040705D01*
X015640Y040717D01*
X015618Y040731D01*
X015599Y040749D01*
X015581Y040768D01*
X015567Y040790D01*
X015555Y040813D01*
X015547Y040838D01*
X015542Y040864D01*
X015540Y040890D01*
X015780Y038725D02*
X016200Y038725D01*
X015780Y038445D01*
X016200Y038445D01*
X016200Y038194D02*
X015780Y038194D01*
X015990Y037984D01*
X015990Y038264D01*
X015990Y037804D02*
X015990Y037524D01*
X015780Y037734D01*
X016200Y037734D01*
X016200Y037344D02*
X016200Y037063D01*
X015920Y037344D01*
X015850Y037344D01*
X015780Y037274D01*
X015780Y037133D01*
X015850Y037063D01*
X015850Y036883D02*
X015780Y036813D01*
X015780Y036673D01*
X015850Y036603D01*
X015920Y036603D01*
X015990Y036673D01*
X015990Y036813D01*
X016060Y036883D01*
X016130Y036883D01*
X016200Y036813D01*
X016200Y036673D01*
X016130Y036603D01*
X016200Y036423D02*
X016200Y036143D01*
X015780Y036143D01*
X015780Y035892D02*
X015990Y035682D01*
X015990Y035962D01*
X016200Y035892D02*
X015780Y035892D01*
X015780Y035502D02*
X015850Y035502D01*
X016130Y035222D01*
X016200Y035222D01*
X015780Y035222D02*
X015780Y035502D01*
X025780Y035502D02*
X025780Y035222D01*
X025780Y035502D02*
X025850Y035502D01*
X026130Y035222D01*
X026200Y035222D01*
X025990Y035682D02*
X025990Y035962D01*
X026200Y035892D02*
X025780Y035892D01*
X025990Y035682D01*
X026200Y036143D02*
X026200Y036423D01*
X026130Y036603D02*
X026200Y036673D01*
X026200Y036813D01*
X026130Y036883D01*
X026060Y036883D01*
X025990Y036813D01*
X025990Y036673D01*
X025920Y036603D01*
X025850Y036603D01*
X025780Y036673D01*
X025780Y036813D01*
X025850Y036883D01*
X025850Y037063D02*
X025780Y037133D01*
X025780Y037274D01*
X025850Y037344D01*
X025920Y037344D01*
X026200Y037063D01*
X026200Y037344D01*
X025990Y037524D02*
X025990Y037804D01*
X025990Y037984D02*
X025990Y038264D01*
X026200Y038194D02*
X025780Y038194D01*
X025990Y037984D01*
X026200Y037734D02*
X025780Y037734D01*
X025990Y037524D01*
X026200Y038445D02*
X025780Y038445D01*
X026200Y038725D01*
X025780Y038725D01*
X025740Y040690D02*
X027040Y040690D01*
X027066Y040692D01*
X027092Y040697D01*
X027117Y040705D01*
X027140Y040717D01*
X027162Y040731D01*
X027181Y040749D01*
X027199Y040768D01*
X027213Y040790D01*
X027225Y040813D01*
X027233Y040838D01*
X027238Y040864D01*
X027240Y040890D01*
X026890Y041140D02*
X026510Y041140D01*
X026260Y041140D02*
X025890Y041140D01*
X025540Y041390D02*
X025542Y041416D01*
X025547Y041442D01*
X025555Y041467D01*
X025567Y041490D01*
X025581Y041512D01*
X025599Y041531D01*
X025618Y041549D01*
X025640Y041563D01*
X025663Y041575D01*
X025688Y041583D01*
X025714Y041588D01*
X025740Y041590D01*
X027040Y041590D01*
X027066Y041588D01*
X027092Y041583D01*
X027117Y041575D01*
X027140Y041563D01*
X027162Y041549D01*
X027181Y041531D01*
X027199Y041512D01*
X027213Y041490D01*
X027225Y041467D01*
X027233Y041442D01*
X027238Y041416D01*
X027240Y041390D01*
X025740Y040690D02*
X025714Y040692D01*
X025688Y040697D01*
X025663Y040705D01*
X025640Y040717D01*
X025618Y040731D01*
X025599Y040749D01*
X025581Y040768D01*
X025567Y040790D01*
X025555Y040813D01*
X025547Y040838D01*
X025542Y040864D01*
X025540Y040890D01*
X025780Y036143D02*
X026200Y036143D01*
X034740Y040015D02*
X035490Y040015D01*
X035492Y039976D01*
X035498Y039937D01*
X035507Y039899D01*
X035520Y039862D01*
X035537Y039826D01*
X035557Y039793D01*
X035581Y039761D01*
X035607Y039732D01*
X035636Y039706D01*
X035668Y039682D01*
X035701Y039662D01*
X035737Y039645D01*
X035774Y039632D01*
X035812Y039623D01*
X035851Y039617D01*
X035890Y039615D01*
X035929Y039617D01*
X035968Y039623D01*
X036006Y039632D01*
X036043Y039645D01*
X036079Y039662D01*
X036112Y039682D01*
X036144Y039706D01*
X036173Y039732D01*
X036199Y039761D01*
X036223Y039793D01*
X036243Y039826D01*
X036260Y039862D01*
X036273Y039899D01*
X036282Y039937D01*
X036288Y039976D01*
X036290Y040015D01*
X037040Y040015D01*
X037040Y030015D01*
X034740Y030015D01*
X034740Y040015D01*
X035740Y040690D02*
X037040Y040690D01*
X037066Y040692D01*
X037092Y040697D01*
X037117Y040705D01*
X037140Y040717D01*
X037162Y040731D01*
X037181Y040749D01*
X037199Y040768D01*
X037213Y040790D01*
X037225Y040813D01*
X037233Y040838D01*
X037238Y040864D01*
X037240Y040890D01*
X036890Y041140D02*
X036510Y041140D01*
X036260Y041140D02*
X035890Y041140D01*
X035540Y041390D02*
X035542Y041416D01*
X035547Y041442D01*
X035555Y041467D01*
X035567Y041490D01*
X035581Y041512D01*
X035599Y041531D01*
X035618Y041549D01*
X035640Y041563D01*
X035663Y041575D01*
X035688Y041583D01*
X035714Y041588D01*
X035740Y041590D01*
X037040Y041590D01*
X037066Y041588D01*
X037092Y041583D01*
X037117Y041575D01*
X037140Y041563D01*
X037162Y041549D01*
X037181Y041531D01*
X037199Y041512D01*
X037213Y041490D01*
X037225Y041467D01*
X037233Y041442D01*
X037238Y041416D01*
X037240Y041390D01*
X035740Y040690D02*
X035714Y040692D01*
X035688Y040697D01*
X035663Y040705D01*
X035640Y040717D01*
X035618Y040731D01*
X035599Y040749D01*
X035581Y040768D01*
X035567Y040790D01*
X035555Y040813D01*
X035547Y040838D01*
X035542Y040864D01*
X035540Y040890D01*
X035780Y038725D02*
X036200Y038725D01*
X035780Y038445D01*
X036200Y038445D01*
X036200Y038194D02*
X035780Y038194D01*
X035990Y037984D01*
X035990Y038264D01*
X035990Y037804D02*
X035990Y037524D01*
X035780Y037734D01*
X036200Y037734D01*
X036200Y037344D02*
X036200Y037063D01*
X035920Y037344D01*
X035850Y037344D01*
X035780Y037274D01*
X035780Y037133D01*
X035850Y037063D01*
X035850Y036883D02*
X035780Y036813D01*
X035780Y036673D01*
X035850Y036603D01*
X035920Y036603D01*
X035990Y036673D01*
X035990Y036813D01*
X036060Y036883D01*
X036130Y036883D01*
X036200Y036813D01*
X036200Y036673D01*
X036130Y036603D01*
X036200Y036423D02*
X036200Y036143D01*
X035780Y036143D01*
X035780Y035892D02*
X035990Y035682D01*
X035990Y035962D01*
X036200Y035892D02*
X035780Y035892D01*
X035780Y035502D02*
X035850Y035502D01*
X036130Y035222D01*
X036200Y035222D01*
X035780Y035222D02*
X035780Y035502D01*
X035834Y029700D02*
X035694Y029700D01*
X035624Y029630D01*
X035624Y029350D01*
X035694Y029280D01*
X035834Y029280D01*
X035904Y029350D01*
X036084Y029280D02*
X036364Y029280D01*
X036224Y029280D02*
X036224Y029700D01*
X036084Y029560D01*
X035904Y029630D02*
X035834Y029700D01*
X035457Y029700D02*
X035317Y029700D01*
X035387Y029700D02*
X035387Y029280D01*
X035317Y029280D02*
X035457Y029280D01*
X036545Y029350D02*
X036615Y029280D01*
X036755Y029280D01*
X036825Y029350D01*
X036825Y029420D01*
X036755Y029490D01*
X036685Y029490D01*
X036755Y029490D02*
X036825Y029560D01*
X036825Y029630D01*
X036755Y029700D01*
X036615Y029700D01*
X036545Y029630D01*
X044740Y030015D02*
X047040Y030015D01*
X047040Y040015D01*
X046290Y040015D01*
X046288Y039976D01*
X046282Y039937D01*
X046273Y039899D01*
X046260Y039862D01*
X046243Y039826D01*
X046223Y039793D01*
X046199Y039761D01*
X046173Y039732D01*
X046144Y039706D01*
X046112Y039682D01*
X046079Y039662D01*
X046043Y039645D01*
X046006Y039632D01*
X045968Y039623D01*
X045929Y039617D01*
X045890Y039615D01*
X045851Y039617D01*
X045812Y039623D01*
X045774Y039632D01*
X045737Y039645D01*
X045701Y039662D01*
X045668Y039682D01*
X045636Y039706D01*
X045607Y039732D01*
X045581Y039761D01*
X045557Y039793D01*
X045537Y039826D01*
X045520Y039862D01*
X045507Y039899D01*
X045498Y039937D01*
X045492Y039976D01*
X045490Y040015D01*
X044740Y040015D01*
X044740Y030015D01*
X045442Y029700D02*
X045582Y029700D01*
X045512Y029700D02*
X045512Y029280D01*
X045442Y029280D02*
X045582Y029280D01*
X045749Y029350D02*
X045819Y029280D01*
X045959Y029280D01*
X046029Y029350D01*
X046209Y029280D02*
X046489Y029280D01*
X046349Y029280D02*
X046349Y029700D01*
X046209Y029560D01*
X046029Y029630D02*
X045959Y029700D01*
X045819Y029700D01*
X045749Y029630D01*
X045749Y029350D01*
X046670Y029490D02*
X046950Y029490D01*
X046880Y029280D02*
X046880Y029700D01*
X046670Y029490D01*
X051115Y030015D02*
X053415Y030015D01*
X053415Y037015D01*
X052665Y037015D01*
X052663Y036976D01*
X052657Y036937D01*
X052648Y036899D01*
X052635Y036862D01*
X052618Y036826D01*
X052598Y036793D01*
X052574Y036761D01*
X052548Y036732D01*
X052519Y036706D01*
X052487Y036682D01*
X052454Y036662D01*
X052418Y036645D01*
X052381Y036632D01*
X052343Y036623D01*
X052304Y036617D01*
X052265Y036615D01*
X052226Y036617D01*
X052187Y036623D01*
X052149Y036632D01*
X052112Y036645D01*
X052076Y036662D01*
X052043Y036682D01*
X052011Y036706D01*
X051982Y036732D01*
X051956Y036761D01*
X051932Y036793D01*
X051912Y036826D01*
X051895Y036862D01*
X051882Y036899D01*
X051873Y036937D01*
X051867Y036976D01*
X051865Y037015D01*
X051115Y037015D01*
X051115Y030015D01*
X051692Y029700D02*
X051832Y029700D01*
X051762Y029700D02*
X051762Y029280D01*
X051692Y029280D02*
X051832Y029280D01*
X051999Y029350D02*
X052069Y029280D01*
X052209Y029280D01*
X052279Y029350D01*
X052459Y029280D02*
X052739Y029280D01*
X052599Y029280D02*
X052599Y029700D01*
X052459Y029560D01*
X052279Y029630D02*
X052209Y029700D01*
X052069Y029700D01*
X051999Y029630D01*
X051999Y029350D01*
X052920Y029350D02*
X052990Y029280D01*
X053130Y029280D01*
X053200Y029350D01*
X053200Y029630D01*
X053130Y029700D01*
X052990Y029700D01*
X052920Y029630D01*
X052920Y029560D01*
X052990Y029490D01*
X053200Y029490D01*
X057490Y030015D02*
X059790Y030015D01*
X059790Y037015D01*
X059040Y037015D01*
X059038Y036976D01*
X059032Y036937D01*
X059023Y036899D01*
X059010Y036862D01*
X058993Y036826D01*
X058973Y036793D01*
X058949Y036761D01*
X058923Y036732D01*
X058894Y036706D01*
X058862Y036682D01*
X058829Y036662D01*
X058793Y036645D01*
X058756Y036632D01*
X058718Y036623D01*
X058679Y036617D01*
X058640Y036615D01*
X058601Y036617D01*
X058562Y036623D01*
X058524Y036632D01*
X058487Y036645D01*
X058451Y036662D01*
X058418Y036682D01*
X058386Y036706D01*
X058357Y036732D01*
X058331Y036761D01*
X058307Y036793D01*
X058287Y036826D01*
X058270Y036862D01*
X058257Y036899D01*
X058248Y036937D01*
X058242Y036976D01*
X058240Y037015D01*
X057490Y037015D01*
X057490Y030015D01*
X058192Y029700D02*
X058332Y029700D01*
X058262Y029700D02*
X058262Y029280D01*
X058192Y029280D02*
X058332Y029280D01*
X058499Y029350D02*
X058569Y029280D01*
X058709Y029280D01*
X058779Y029350D01*
X058959Y029280D02*
X059239Y029280D01*
X059099Y029280D02*
X059099Y029700D01*
X058959Y029560D01*
X058779Y029630D02*
X058709Y029700D01*
X058569Y029700D01*
X058499Y029630D01*
X058499Y029350D01*
X059420Y029350D02*
X059420Y029420D01*
X059490Y029490D01*
X059630Y029490D01*
X059700Y029420D01*
X059700Y029350D01*
X059630Y029280D01*
X059490Y029280D01*
X059420Y029350D01*
X059490Y029490D02*
X059420Y029560D01*
X059420Y029630D01*
X059490Y029700D01*
X059630Y029700D01*
X059700Y029630D01*
X059700Y029560D01*
X059630Y029490D01*
X058850Y032982D02*
X058780Y032982D01*
X058500Y033262D01*
X058430Y033262D01*
X058430Y032982D01*
X058640Y033443D02*
X058640Y033723D01*
X058850Y033653D02*
X058430Y033653D01*
X058640Y033443D01*
X058850Y033903D02*
X058850Y034183D01*
X058780Y034363D02*
X058850Y034433D01*
X058850Y034574D01*
X058780Y034644D01*
X058710Y034644D01*
X058640Y034574D01*
X058640Y034433D01*
X058570Y034363D01*
X058500Y034363D01*
X058430Y034433D01*
X058430Y034574D01*
X058500Y034644D01*
X058500Y034824D02*
X058430Y034894D01*
X058430Y035034D01*
X058500Y035104D01*
X058780Y034824D01*
X058850Y034894D01*
X058850Y035034D01*
X058780Y035104D01*
X058500Y035104D01*
X058640Y035284D02*
X058640Y035564D01*
X058850Y035494D02*
X058430Y035494D01*
X058640Y035284D01*
X058780Y034824D02*
X058500Y034824D01*
X058430Y035745D02*
X058850Y036025D01*
X058430Y036025D01*
X058430Y035745D02*
X058850Y035745D01*
X058850Y033903D02*
X058430Y033903D01*
X058490Y037690D02*
X059790Y037690D01*
X059816Y037692D01*
X059842Y037697D01*
X059867Y037705D01*
X059890Y037717D01*
X059912Y037731D01*
X059931Y037749D01*
X059949Y037768D01*
X059963Y037790D01*
X059975Y037813D01*
X059983Y037838D01*
X059988Y037864D01*
X059990Y037890D01*
X059640Y038140D02*
X059260Y038140D01*
X059010Y038140D02*
X058640Y038140D01*
X058290Y037890D02*
X058292Y037864D01*
X058297Y037838D01*
X058305Y037813D01*
X058317Y037790D01*
X058331Y037768D01*
X058349Y037749D01*
X058368Y037731D01*
X058390Y037717D01*
X058413Y037705D01*
X058438Y037697D01*
X058464Y037692D01*
X058490Y037690D01*
X058290Y038390D02*
X058292Y038416D01*
X058297Y038442D01*
X058305Y038467D01*
X058317Y038490D01*
X058331Y038512D01*
X058349Y038531D01*
X058368Y038549D01*
X058390Y038563D01*
X058413Y038575D01*
X058438Y038583D01*
X058464Y038588D01*
X058490Y038590D01*
X059790Y038590D01*
X059816Y038588D01*
X059842Y038583D01*
X059867Y038575D01*
X059890Y038563D01*
X059912Y038549D01*
X059931Y038531D01*
X059949Y038512D01*
X059963Y038490D01*
X059975Y038467D01*
X059983Y038442D01*
X059988Y038416D01*
X059990Y038390D01*
X060015Y039640D02*
X060515Y039640D01*
X060765Y039890D01*
X060765Y041390D01*
X060515Y041640D01*
X060015Y041640D01*
X059765Y041390D01*
X059765Y039890D01*
X060015Y039640D01*
X059765Y039890D02*
X059515Y039640D01*
X059015Y039640D01*
X058765Y039890D01*
X058765Y041390D01*
X059015Y041640D01*
X059515Y041640D01*
X059765Y041390D01*
X059726Y041930D02*
X059936Y041930D01*
X060006Y042000D01*
X060006Y042280D01*
X059936Y042350D01*
X059726Y042350D01*
X059726Y041930D01*
X059546Y041930D02*
X059546Y042350D01*
X059265Y042350D02*
X059546Y041930D01*
X059265Y041930D02*
X059265Y042350D01*
X059085Y042280D02*
X059015Y042350D01*
X058875Y042350D01*
X058805Y042280D01*
X058805Y042000D01*
X058875Y041930D01*
X059015Y041930D01*
X059085Y042000D01*
X059085Y042140D01*
X058945Y042140D01*
X060186Y042210D02*
X060326Y042350D01*
X060326Y041930D01*
X060186Y041930D02*
X060466Y041930D01*
X053415Y038590D02*
X052115Y038590D01*
X052089Y038588D01*
X052063Y038583D01*
X052038Y038575D01*
X052015Y038563D01*
X051993Y038549D01*
X051974Y038531D01*
X051956Y038512D01*
X051942Y038490D01*
X051930Y038467D01*
X051922Y038442D01*
X051917Y038416D01*
X051915Y038390D01*
X052265Y038140D02*
X052635Y038140D01*
X052885Y038140D02*
X053265Y038140D01*
X053615Y037890D02*
X053613Y037864D01*
X053608Y037838D01*
X053600Y037813D01*
X053588Y037790D01*
X053574Y037768D01*
X053556Y037749D01*
X053537Y037731D01*
X053515Y037717D01*
X053492Y037705D01*
X053467Y037697D01*
X053441Y037692D01*
X053415Y037690D01*
X052115Y037690D01*
X052089Y037692D01*
X052063Y037697D01*
X052038Y037705D01*
X052015Y037717D01*
X051993Y037731D01*
X051974Y037749D01*
X051956Y037768D01*
X051942Y037790D01*
X051930Y037813D01*
X051922Y037838D01*
X051917Y037864D01*
X051915Y037890D01*
X053415Y038590D02*
X053441Y038588D01*
X053467Y038583D01*
X053492Y038575D01*
X053515Y038563D01*
X053537Y038549D01*
X053556Y038531D01*
X053574Y038512D01*
X053588Y038490D01*
X053600Y038467D01*
X053608Y038442D01*
X053613Y038416D01*
X053615Y038390D01*
X052475Y036025D02*
X052055Y036025D01*
X052055Y035745D02*
X052475Y036025D01*
X052475Y035745D02*
X052055Y035745D01*
X052125Y035564D02*
X052055Y035494D01*
X052055Y035354D01*
X052125Y035284D01*
X052125Y035104D02*
X052195Y035104D01*
X052265Y035034D01*
X052335Y035104D01*
X052405Y035104D01*
X052475Y035034D01*
X052475Y034894D01*
X052405Y034824D01*
X052405Y034644D02*
X052475Y034574D01*
X052475Y034433D01*
X052405Y034363D01*
X052265Y034433D02*
X052195Y034363D01*
X052125Y034363D01*
X052055Y034433D01*
X052055Y034574D01*
X052125Y034644D01*
X052265Y034574D02*
X052335Y034644D01*
X052405Y034644D01*
X052265Y034574D02*
X052265Y034433D01*
X052475Y034183D02*
X052475Y033903D01*
X052055Y033903D01*
X052055Y033653D02*
X052265Y033443D01*
X052265Y033723D01*
X052475Y033653D02*
X052055Y033653D01*
X052055Y033262D02*
X052125Y033262D01*
X052405Y032982D01*
X052475Y032982D01*
X052055Y032982D02*
X052055Y033262D01*
X052125Y034824D02*
X052055Y034894D01*
X052055Y035034D01*
X052125Y035104D01*
X052265Y035034D02*
X052265Y034964D01*
X052475Y035284D02*
X052195Y035564D01*
X052125Y035564D01*
X052475Y035564D02*
X052475Y035284D01*
X046200Y035222D02*
X046130Y035222D01*
X045850Y035502D01*
X045780Y035502D01*
X045780Y035222D01*
X045990Y035682D02*
X045990Y035962D01*
X046200Y035892D02*
X045780Y035892D01*
X045990Y035682D01*
X045780Y036143D02*
X046200Y036143D01*
X046200Y036423D01*
X046130Y036603D02*
X046200Y036673D01*
X046200Y036813D01*
X046130Y036883D01*
X046060Y036883D01*
X045990Y036813D01*
X045990Y036673D01*
X045920Y036603D01*
X045850Y036603D01*
X045780Y036673D01*
X045780Y036813D01*
X045850Y036883D01*
X045850Y037063D02*
X045780Y037133D01*
X045780Y037274D01*
X045850Y037344D01*
X045920Y037344D01*
X046200Y037063D01*
X046200Y037344D01*
X045990Y037524D02*
X045990Y037804D01*
X045990Y037984D02*
X045990Y038264D01*
X046200Y038194D02*
X045780Y038194D01*
X045990Y037984D01*
X046200Y037734D02*
X045780Y037734D01*
X045990Y037524D01*
X046200Y038445D02*
X045780Y038445D01*
X046200Y038725D01*
X045780Y038725D01*
X045740Y040690D02*
X047040Y040690D01*
X047066Y040692D01*
X047092Y040697D01*
X047117Y040705D01*
X047140Y040717D01*
X047162Y040731D01*
X047181Y040749D01*
X047199Y040768D01*
X047213Y040790D01*
X047225Y040813D01*
X047233Y040838D01*
X047238Y040864D01*
X047240Y040890D01*
X046890Y041140D02*
X046510Y041140D01*
X046260Y041140D02*
X045890Y041140D01*
X045540Y041390D02*
X045542Y041416D01*
X045547Y041442D01*
X045555Y041467D01*
X045567Y041490D01*
X045581Y041512D01*
X045599Y041531D01*
X045618Y041549D01*
X045640Y041563D01*
X045663Y041575D01*
X045688Y041583D01*
X045714Y041588D01*
X045740Y041590D01*
X047040Y041590D01*
X047066Y041588D01*
X047092Y041583D01*
X047117Y041575D01*
X047140Y041563D01*
X047162Y041549D01*
X047181Y041531D01*
X047199Y041512D01*
X047213Y041490D01*
X047225Y041467D01*
X047233Y041442D01*
X047238Y041416D01*
X047240Y041390D01*
X045740Y040690D02*
X045714Y040692D01*
X045688Y040697D01*
X045663Y040705D01*
X045640Y040717D01*
X045618Y040731D01*
X045599Y040749D01*
X045581Y040768D01*
X045567Y040790D01*
X045555Y040813D01*
X045547Y040838D01*
X045542Y040864D01*
X045540Y040890D01*
X054030Y026000D02*
X054170Y026000D01*
X054100Y026000D02*
X054100Y025580D01*
X054030Y025580D02*
X054170Y025580D01*
X054337Y025650D02*
X054407Y025580D01*
X054547Y025580D01*
X054617Y025650D01*
X054797Y025650D02*
X054867Y025580D01*
X055008Y025580D01*
X055078Y025650D01*
X055078Y025790D01*
X055008Y025860D01*
X054937Y025860D01*
X054797Y025790D01*
X054797Y026000D01*
X055078Y026000D01*
X054617Y025930D02*
X054547Y026000D01*
X054407Y026000D01*
X054337Y025930D01*
X054337Y025650D01*
X054930Y024200D02*
X055350Y024200D01*
X054930Y023920D01*
X055350Y023920D01*
X055350Y023739D02*
X055350Y023459D01*
X055070Y023739D01*
X055000Y023739D01*
X054930Y023669D01*
X054930Y023529D01*
X055000Y023459D01*
X055000Y023279D02*
X055070Y023279D01*
X055140Y023209D01*
X055140Y023069D01*
X055070Y022999D01*
X055000Y022999D01*
X054930Y023069D01*
X054930Y023209D01*
X055000Y023279D01*
X055140Y023209D02*
X055210Y023279D01*
X055280Y023279D01*
X055350Y023209D01*
X055350Y023069D01*
X055280Y022999D01*
X055210Y022999D01*
X055140Y023069D01*
X055350Y022819D02*
X055350Y022538D01*
X055350Y022679D02*
X054930Y022679D01*
X055070Y022538D01*
X055000Y022358D02*
X054930Y022288D01*
X054930Y022148D01*
X055000Y022078D01*
X055070Y022078D01*
X055140Y022148D01*
X055140Y022288D01*
X055210Y022358D01*
X055280Y022358D01*
X055350Y022288D01*
X055350Y022148D01*
X055280Y022078D01*
X055140Y021898D02*
X055140Y021618D01*
X054930Y021828D01*
X055350Y021828D01*
X055000Y021437D02*
X055280Y021157D01*
X055350Y021157D01*
X054930Y021157D02*
X054930Y021437D01*
X055000Y021437D01*
X059490Y024440D02*
X060790Y024440D01*
X060816Y024442D01*
X060842Y024447D01*
X060867Y024455D01*
X060890Y024467D01*
X060912Y024481D01*
X060931Y024499D01*
X060949Y024518D01*
X060963Y024540D01*
X060975Y024563D01*
X060983Y024588D01*
X060988Y024614D01*
X060990Y024640D01*
X060640Y024890D02*
X060270Y024890D01*
X060020Y024890D02*
X059640Y024890D01*
X059290Y025140D02*
X059292Y025166D01*
X059297Y025192D01*
X059305Y025217D01*
X059317Y025240D01*
X059331Y025262D01*
X059349Y025281D01*
X059368Y025299D01*
X059390Y025313D01*
X059413Y025325D01*
X059438Y025333D01*
X059464Y025338D01*
X059490Y025340D01*
X060790Y025340D01*
X060816Y025338D01*
X060842Y025333D01*
X060867Y025325D01*
X060890Y025313D01*
X060912Y025299D01*
X060931Y025281D01*
X060949Y025262D01*
X060963Y025240D01*
X060975Y025217D01*
X060983Y025192D01*
X060988Y025166D01*
X060990Y025140D01*
X059490Y024440D02*
X059464Y024442D01*
X059438Y024447D01*
X059413Y024455D01*
X059390Y024467D01*
X059368Y024481D01*
X059349Y024499D01*
X059331Y024518D01*
X059317Y024540D01*
X059305Y024563D01*
X059297Y024588D01*
X059292Y024614D01*
X059290Y024640D01*
D11*
X060020Y024590D02*
X060020Y024890D01*
X060020Y025190D01*
X060270Y025190D02*
X060270Y024890D01*
X060270Y024590D01*
X043510Y012315D02*
X043510Y012015D01*
X043510Y011715D01*
X043260Y011715D02*
X043260Y012015D01*
X043260Y012315D01*
X033135Y012390D02*
X033135Y012090D01*
X032885Y012090D02*
X032885Y012390D01*
X032885Y012690D01*
X033135Y012690D02*
X033135Y012390D01*
X023510Y012340D02*
X023510Y012640D01*
X023510Y012940D01*
X023260Y012940D02*
X023260Y012640D01*
X023260Y012340D01*
X012260Y013590D02*
X012260Y013890D01*
X012260Y014190D01*
X012010Y014190D02*
X012010Y013890D01*
X012010Y013590D01*
X016260Y040840D02*
X016260Y041140D01*
X016260Y041440D01*
X016510Y041440D02*
X016510Y041140D01*
X016510Y040840D01*
X026260Y040840D02*
X026260Y041140D01*
X026260Y041440D01*
X026510Y041440D02*
X026510Y041140D01*
X026510Y040840D01*
X036260Y040840D02*
X036260Y041140D01*
X036260Y041440D01*
X036510Y041440D02*
X036510Y041140D01*
X036510Y040840D01*
X046260Y040840D02*
X046260Y041140D01*
X046260Y041440D01*
X046510Y041440D02*
X046510Y041140D01*
X046510Y040840D01*
X052635Y038440D02*
X052635Y038140D01*
X052635Y037840D01*
X052885Y037840D02*
X052885Y038140D01*
X052885Y038440D01*
X059010Y038440D02*
X059010Y038140D01*
X059010Y037840D01*
X059260Y037840D02*
X059260Y038140D01*
X059260Y038440D01*
M02*
