G75*
%MOIN*%
%OFA0B0*%
%FSLAX24Y24*%
%IPPOS*%
%LPD*%
%AMOC8*
5,1,8,0,0,1.08239X$1,22.5*
%
%ADD10C,0.0230*%
%ADD11C,0.0560*%
%ADD12OC8,0.0640*%
%ADD13OC8,0.0560*%
%ADD14OC8,0.0630*%
%ADD15C,0.0630*%
%ADD16C,0.0160*%
%ADD17C,0.0500*%
%ADD18C,0.0320*%
D10*
X054092Y040130D02*
X054092Y041401D01*
X054516Y041401D02*
X054516Y040130D01*
X054727Y040554D02*
X053880Y040554D01*
X053880Y040977D02*
X054516Y040977D01*
X054727Y040977D01*
X055261Y040766D02*
X056109Y040766D01*
X055897Y041401D02*
X055897Y040130D01*
X055261Y040766D02*
X055897Y041401D01*
D11*
X056860Y036515D02*
X057420Y036515D01*
X057420Y035515D02*
X056860Y035515D01*
X056860Y034515D02*
X057420Y034515D01*
X057420Y033515D02*
X056860Y033515D01*
X056860Y032515D02*
X057420Y032515D01*
X057420Y031515D02*
X056860Y031515D01*
X056860Y030515D02*
X057420Y030515D01*
X059860Y030515D02*
X060420Y030515D01*
X060420Y031515D02*
X059860Y031515D01*
X059860Y032515D02*
X060420Y032515D01*
X060420Y033515D02*
X059860Y033515D01*
X059860Y034515D02*
X060420Y034515D01*
X060420Y035515D02*
X059860Y035515D01*
X059860Y036515D02*
X060420Y036515D01*
X054045Y036515D02*
X053485Y036515D01*
X053485Y035515D02*
X054045Y035515D01*
X054045Y034515D02*
X053485Y034515D01*
X053485Y033515D02*
X054045Y033515D01*
X054045Y032515D02*
X053485Y032515D01*
X053485Y031515D02*
X054045Y031515D01*
X054045Y030515D02*
X053485Y030515D01*
X051045Y030515D02*
X050485Y030515D01*
X050485Y031515D02*
X051045Y031515D01*
X051045Y032515D02*
X050485Y032515D01*
X050485Y033515D02*
X051045Y033515D01*
X051045Y034515D02*
X050485Y034515D01*
X050485Y035515D02*
X051045Y035515D01*
X051045Y036515D02*
X050485Y036515D01*
X047670Y036515D02*
X047110Y036515D01*
X047110Y035515D02*
X047670Y035515D01*
X047670Y034515D02*
X047110Y034515D01*
X047110Y033515D02*
X047670Y033515D01*
X047670Y032515D02*
X047110Y032515D01*
X047110Y031515D02*
X047670Y031515D01*
X047670Y030515D02*
X047110Y030515D01*
X044670Y030515D02*
X044110Y030515D01*
X044110Y031515D02*
X044670Y031515D01*
X044670Y032515D02*
X044110Y032515D01*
X044110Y033515D02*
X044670Y033515D01*
X044670Y034515D02*
X044110Y034515D01*
X044110Y035515D02*
X044670Y035515D01*
X044670Y036515D02*
X044110Y036515D01*
X044110Y037515D02*
X044670Y037515D01*
X044670Y038515D02*
X044110Y038515D01*
X044110Y039515D02*
X044670Y039515D01*
X047110Y039515D02*
X047670Y039515D01*
X047670Y038515D02*
X047110Y038515D01*
X047110Y037515D02*
X047670Y037515D01*
X037670Y037515D02*
X037110Y037515D01*
X037110Y036515D02*
X037670Y036515D01*
X037670Y035515D02*
X037110Y035515D01*
X037110Y034515D02*
X037670Y034515D01*
X037670Y033515D02*
X037110Y033515D01*
X037110Y032515D02*
X037670Y032515D01*
X037670Y031515D02*
X037110Y031515D01*
X037110Y030515D02*
X037670Y030515D01*
X034670Y030515D02*
X034110Y030515D01*
X034110Y031515D02*
X034670Y031515D01*
X034670Y032515D02*
X034110Y032515D01*
X034110Y033515D02*
X034670Y033515D01*
X034670Y034515D02*
X034110Y034515D01*
X034110Y035515D02*
X034670Y035515D01*
X034670Y036515D02*
X034110Y036515D01*
X034110Y037515D02*
X034670Y037515D01*
X034670Y038515D02*
X034110Y038515D01*
X034110Y039515D02*
X034670Y039515D01*
X037110Y039515D02*
X037670Y039515D01*
X037670Y038515D02*
X037110Y038515D01*
X027670Y038515D02*
X027110Y038515D01*
X027110Y037515D02*
X027670Y037515D01*
X027670Y036515D02*
X027110Y036515D01*
X027110Y035515D02*
X027670Y035515D01*
X027670Y034515D02*
X027110Y034515D01*
X027110Y033515D02*
X027670Y033515D01*
X027670Y032515D02*
X027110Y032515D01*
X027110Y031515D02*
X027670Y031515D01*
X027670Y030515D02*
X027110Y030515D01*
X024670Y030515D02*
X024110Y030515D01*
X024110Y031515D02*
X024670Y031515D01*
X024670Y032515D02*
X024110Y032515D01*
X024110Y033515D02*
X024670Y033515D01*
X024670Y034515D02*
X024110Y034515D01*
X024110Y035515D02*
X024670Y035515D01*
X024670Y036515D02*
X024110Y036515D01*
X024110Y037515D02*
X024670Y037515D01*
X024670Y038515D02*
X024110Y038515D01*
X024110Y039515D02*
X024670Y039515D01*
X027110Y039515D02*
X027670Y039515D01*
X017670Y039515D02*
X017110Y039515D01*
X017110Y038515D02*
X017670Y038515D01*
X017670Y037515D02*
X017110Y037515D01*
X017110Y036515D02*
X017670Y036515D01*
X017670Y035515D02*
X017110Y035515D01*
X017110Y034515D02*
X017670Y034515D01*
X017670Y033515D02*
X017110Y033515D01*
X017110Y032515D02*
X017670Y032515D01*
X017670Y031515D02*
X017110Y031515D01*
X017110Y030515D02*
X017670Y030515D01*
X014670Y030515D02*
X014110Y030515D01*
X014110Y031515D02*
X014670Y031515D01*
X014670Y032515D02*
X014110Y032515D01*
X014110Y033515D02*
X014670Y033515D01*
X014670Y034515D02*
X014110Y034515D01*
X014110Y035515D02*
X014670Y035515D01*
X014670Y036515D02*
X014110Y036515D01*
X014110Y037515D02*
X014670Y037515D01*
X014670Y038515D02*
X014110Y038515D01*
X014110Y039515D02*
X014670Y039515D01*
X014670Y024890D02*
X014110Y024890D01*
X014110Y023890D02*
X014670Y023890D01*
X014670Y022890D02*
X014110Y022890D01*
X014110Y021890D02*
X014670Y021890D01*
X014670Y020890D02*
X014110Y020890D01*
X014110Y019890D02*
X014670Y019890D01*
X014670Y018890D02*
X014110Y018890D01*
X014110Y017890D02*
X014670Y017890D01*
X014670Y016890D02*
X014110Y016890D01*
X014110Y015890D02*
X014670Y015890D01*
X014670Y014890D02*
X014110Y014890D01*
X014110Y013890D02*
X014670Y013890D01*
X020110Y013890D02*
X020670Y013890D01*
X020670Y014890D02*
X020110Y014890D01*
X020110Y015890D02*
X020670Y015890D01*
X020670Y016890D02*
X020110Y016890D01*
X020110Y017890D02*
X020670Y017890D01*
X020670Y018890D02*
X020110Y018890D01*
X020110Y019890D02*
X020670Y019890D01*
X020670Y020890D02*
X020110Y020890D01*
X020110Y021890D02*
X020670Y021890D01*
X020670Y022890D02*
X020110Y022890D01*
X020110Y023890D02*
X020670Y023890D01*
X020670Y024890D02*
X020110Y024890D01*
X024110Y024890D02*
X024670Y024890D01*
X024670Y023890D02*
X024110Y023890D01*
X024110Y022890D02*
X024670Y022890D01*
X024670Y021890D02*
X024110Y021890D01*
X024110Y020890D02*
X024670Y020890D01*
X024670Y019890D02*
X024110Y019890D01*
X024110Y018890D02*
X024670Y018890D01*
X024670Y017890D02*
X024110Y017890D01*
X024110Y016890D02*
X024670Y016890D01*
X024670Y015890D02*
X024110Y015890D01*
X024110Y014890D02*
X024670Y014890D01*
X024670Y013890D02*
X024110Y013890D01*
X030110Y013890D02*
X030670Y013890D01*
X030670Y014890D02*
X030110Y014890D01*
X030110Y015890D02*
X030670Y015890D01*
X030670Y016890D02*
X030110Y016890D01*
X030110Y017890D02*
X030670Y017890D01*
X030670Y018890D02*
X030110Y018890D01*
X030110Y019890D02*
X030670Y019890D01*
X030670Y020890D02*
X030110Y020890D01*
X030110Y021890D02*
X030670Y021890D01*
X030670Y022890D02*
X030110Y022890D01*
X030110Y023890D02*
X030670Y023890D01*
X030670Y024890D02*
X030110Y024890D01*
X034110Y024890D02*
X034670Y024890D01*
X034670Y023890D02*
X034110Y023890D01*
X034110Y022890D02*
X034670Y022890D01*
X034670Y021890D02*
X034110Y021890D01*
X034110Y020890D02*
X034670Y020890D01*
X034670Y019890D02*
X034110Y019890D01*
X034110Y018890D02*
X034670Y018890D01*
X034670Y017890D02*
X034110Y017890D01*
X034110Y016890D02*
X034670Y016890D01*
X034670Y015890D02*
X034110Y015890D01*
X034110Y014890D02*
X034670Y014890D01*
X034670Y013890D02*
X034110Y013890D01*
X040110Y013890D02*
X040670Y013890D01*
X040670Y014890D02*
X040110Y014890D01*
X040110Y015890D02*
X040670Y015890D01*
X040670Y016890D02*
X040110Y016890D01*
X040110Y017890D02*
X040670Y017890D01*
X040670Y018890D02*
X040110Y018890D01*
X040110Y019890D02*
X040670Y019890D01*
X040670Y020890D02*
X040110Y020890D01*
X040110Y021890D02*
X040670Y021890D01*
X040670Y022890D02*
X040110Y022890D01*
X040110Y023890D02*
X040670Y023890D01*
X040670Y024890D02*
X040110Y024890D01*
X044110Y024890D02*
X044670Y024890D01*
X044670Y023890D02*
X044110Y023890D01*
X044110Y022890D02*
X044670Y022890D01*
X044670Y021890D02*
X044110Y021890D01*
X044110Y020890D02*
X044670Y020890D01*
X044670Y019890D02*
X044110Y019890D01*
X044110Y018890D02*
X044670Y018890D01*
X044670Y017890D02*
X044110Y017890D01*
X044110Y016890D02*
X044670Y016890D01*
X044670Y015890D02*
X044110Y015890D01*
X044110Y014890D02*
X044670Y014890D01*
X044670Y013890D02*
X044110Y013890D01*
X050110Y013890D02*
X050670Y013890D01*
X050670Y014890D02*
X050110Y014890D01*
X050110Y015890D02*
X050670Y015890D01*
X050670Y016890D02*
X050110Y016890D01*
X050110Y017890D02*
X050670Y017890D01*
X050670Y018890D02*
X050110Y018890D01*
X050110Y019890D02*
X050670Y019890D01*
X050670Y020890D02*
X050110Y020890D01*
X050110Y021890D02*
X050670Y021890D01*
X050670Y022890D02*
X050110Y022890D01*
X050110Y023890D02*
X050670Y023890D01*
X050670Y024890D02*
X050110Y024890D01*
X053360Y024890D02*
X053920Y024890D01*
X053920Y023890D02*
X053360Y023890D01*
X053360Y022890D02*
X053920Y022890D01*
X053920Y021890D02*
X053360Y021890D01*
X053360Y020890D02*
X053920Y020890D01*
X053920Y019890D02*
X053360Y019890D01*
X053360Y018890D02*
X053920Y018890D01*
X053920Y017890D02*
X053360Y017890D01*
X056360Y017890D02*
X056920Y017890D01*
X056920Y018890D02*
X056360Y018890D01*
X056360Y019890D02*
X056920Y019890D01*
X056920Y020890D02*
X056360Y020890D01*
X056360Y021890D02*
X056920Y021890D01*
X056920Y022890D02*
X056360Y022890D01*
X056360Y023890D02*
X056920Y023890D01*
X056920Y024890D02*
X056360Y024890D01*
D12*
X059265Y017140D03*
X060265Y017140D03*
X060265Y016140D03*
X059265Y016140D03*
X059265Y015140D03*
X060265Y015140D03*
X060265Y014140D03*
X059265Y014140D03*
X059265Y013140D03*
X060265Y013140D03*
X060265Y012140D03*
X059265Y012140D03*
X059265Y011140D03*
X060265Y011140D03*
X060265Y010140D03*
X059265Y010140D03*
X059265Y007140D03*
X060265Y007140D03*
X060265Y006140D03*
X059265Y006140D03*
X053890Y006140D03*
X053890Y007140D03*
X052890Y007140D03*
X051890Y007140D03*
X051890Y006140D03*
X052890Y006140D03*
X050890Y006140D03*
X049890Y006140D03*
X049890Y007140D03*
X050890Y007140D03*
X048890Y007140D03*
X047890Y007140D03*
X046890Y007140D03*
X046890Y006140D03*
X047890Y006140D03*
X048890Y006140D03*
X045890Y006140D03*
X044890Y006140D03*
X044890Y007140D03*
X045890Y007140D03*
X043890Y007140D03*
X042890Y007140D03*
X041890Y007140D03*
X041890Y006140D03*
X042890Y006140D03*
X043890Y006140D03*
X040890Y006140D03*
X039890Y006140D03*
X039890Y007140D03*
X040890Y007140D03*
X038890Y007140D03*
X038890Y006140D03*
X033890Y006140D03*
X032890Y006140D03*
X032890Y007140D03*
X033890Y007140D03*
X031890Y007140D03*
X030890Y007140D03*
X029890Y007140D03*
X029890Y006140D03*
X030890Y006140D03*
X031890Y006140D03*
X028890Y006140D03*
X027890Y006140D03*
X027890Y007140D03*
X028890Y007140D03*
X026890Y007140D03*
X025890Y007140D03*
X024890Y007140D03*
X024890Y006140D03*
X025890Y006140D03*
X026890Y006140D03*
X023890Y006140D03*
X022890Y006140D03*
X022890Y007140D03*
X023890Y007140D03*
X021890Y007140D03*
X020890Y007140D03*
X019890Y007140D03*
X019890Y006140D03*
X020890Y006140D03*
X021890Y006140D03*
X018890Y006140D03*
X017890Y006140D03*
X017890Y007140D03*
X018890Y007140D03*
X016890Y007140D03*
X015890Y007140D03*
X015890Y006140D03*
X016890Y006140D03*
X014890Y006140D03*
X013890Y006140D03*
X012890Y006140D03*
X012890Y007140D03*
X013890Y007140D03*
X014890Y007140D03*
X011890Y007140D03*
X010890Y007140D03*
X010890Y006140D03*
X011890Y006140D03*
X008390Y006140D03*
X007390Y006140D03*
X007390Y007140D03*
X008390Y007140D03*
X006765Y010140D03*
X005765Y010140D03*
X005765Y011140D03*
X006765Y011140D03*
X006765Y012140D03*
X005765Y012140D03*
X005765Y013140D03*
X006765Y013140D03*
X006765Y014140D03*
X005765Y014140D03*
X005765Y015140D03*
X006765Y015140D03*
X006765Y016140D03*
X005765Y016140D03*
X005765Y017140D03*
X006765Y017140D03*
X006765Y020140D03*
X005765Y020140D03*
X005765Y021140D03*
X006765Y021140D03*
X006765Y022140D03*
X005765Y022140D03*
X005765Y023140D03*
X006765Y023140D03*
X006765Y024140D03*
X005765Y024140D03*
X005765Y025140D03*
X006765Y025140D03*
X006765Y026140D03*
X005765Y026140D03*
X005765Y027140D03*
X006765Y027140D03*
X006765Y030140D03*
X005765Y030140D03*
X005765Y031140D03*
X006765Y031140D03*
X006765Y032140D03*
X005765Y032140D03*
X005765Y033140D03*
X006765Y033140D03*
X006765Y034140D03*
X005765Y034140D03*
X005765Y035140D03*
X006765Y035140D03*
X006765Y036140D03*
X005765Y036140D03*
X005765Y037140D03*
X006765Y037140D03*
X007390Y040140D03*
X008390Y040140D03*
X008390Y041140D03*
X007390Y041140D03*
X059265Y041140D03*
X060265Y041140D03*
X060265Y040140D03*
X059265Y040140D03*
D13*
X060140Y038140D03*
X058140Y038140D03*
X053765Y038140D03*
X051765Y038140D03*
X047390Y041140D03*
X045390Y041140D03*
X037390Y041140D03*
X035390Y041140D03*
X027390Y041140D03*
X025390Y041140D03*
X017390Y041140D03*
X015390Y041140D03*
X013140Y013890D03*
X011140Y013890D03*
X022390Y012640D03*
X024390Y012640D03*
X032015Y012390D03*
X034015Y012390D03*
X042390Y012015D03*
X044390Y012015D03*
X059140Y024890D03*
X061140Y024890D03*
D14*
X063140Y007140D03*
D15*
X062140Y007140D03*
D16*
X004270Y004270D02*
X004270Y019581D01*
X004368Y019483D01*
X005483Y018368D01*
X005618Y018233D01*
X005795Y018160D01*
X008441Y018160D01*
X011535Y015066D01*
X011535Y014344D01*
X011389Y014490D01*
X011140Y014490D01*
X011140Y013890D01*
X011140Y013890D01*
X011140Y013290D01*
X011389Y013290D01*
X011603Y013505D01*
X011608Y013493D01*
X011743Y013358D01*
X012368Y012733D01*
X012545Y012660D01*
X017833Y012660D01*
X017820Y012628D01*
X017820Y012402D01*
X017907Y012192D01*
X017990Y012109D01*
X017990Y011185D01*
X018051Y011038D01*
X018990Y010099D01*
X018990Y007780D01*
X018625Y007780D01*
X018390Y007545D01*
X018155Y007780D01*
X017625Y007780D01*
X017390Y007545D01*
X017155Y007780D01*
X016625Y007780D01*
X016390Y007545D01*
X016155Y007780D01*
X015625Y007780D01*
X015390Y007545D01*
X015155Y007780D01*
X014625Y007780D01*
X014390Y007545D01*
X014155Y007780D01*
X013625Y007780D01*
X013390Y007545D01*
X013155Y007780D01*
X012625Y007780D01*
X012390Y007545D01*
X012155Y007780D01*
X011625Y007780D01*
X011390Y007545D01*
X011155Y007780D01*
X010625Y007780D01*
X010250Y007405D01*
X010250Y006875D01*
X010485Y006640D01*
X010250Y006405D01*
X010250Y005875D01*
X010625Y005500D01*
X011155Y005500D01*
X011390Y005735D01*
X011625Y005500D01*
X012155Y005500D01*
X012390Y005735D01*
X012625Y005500D01*
X013155Y005500D01*
X013390Y005735D01*
X013625Y005500D01*
X014155Y005500D01*
X014390Y005735D01*
X014625Y005500D01*
X015155Y005500D01*
X015390Y005735D01*
X015625Y005500D01*
X016155Y005500D01*
X016390Y005735D01*
X016625Y005500D01*
X017155Y005500D01*
X017390Y005735D01*
X017625Y005500D01*
X017990Y005500D01*
X017990Y005435D01*
X018051Y005288D01*
X018676Y004663D01*
X018788Y004551D01*
X018935Y004490D01*
X036095Y004490D01*
X036242Y004551D01*
X038367Y006676D01*
X038408Y006717D01*
X038485Y006640D01*
X038250Y006405D01*
X038250Y005875D01*
X038625Y005500D01*
X039155Y005500D01*
X039390Y005735D01*
X039625Y005500D01*
X040155Y005500D01*
X040390Y005735D01*
X040625Y005500D01*
X041155Y005500D01*
X041390Y005735D01*
X041625Y005500D01*
X042155Y005500D01*
X042390Y005735D01*
X042625Y005500D01*
X043155Y005500D01*
X043390Y005735D01*
X043625Y005500D01*
X044155Y005500D01*
X044390Y005735D01*
X044625Y005500D01*
X045155Y005500D01*
X045390Y005735D01*
X045625Y005500D01*
X046155Y005500D01*
X046390Y005735D01*
X046625Y005500D01*
X047155Y005500D01*
X047390Y005735D01*
X047625Y005500D01*
X048155Y005500D01*
X048390Y005735D01*
X048625Y005500D01*
X049155Y005500D01*
X049390Y005735D01*
X049625Y005500D01*
X050155Y005500D01*
X050390Y005735D01*
X050625Y005500D01*
X051155Y005500D01*
X051390Y005735D01*
X051625Y005500D01*
X052155Y005500D01*
X052390Y005735D01*
X052625Y005500D01*
X053155Y005500D01*
X053390Y005735D01*
X053625Y005500D01*
X054155Y005500D01*
X054530Y005875D01*
X054530Y006405D01*
X054295Y006640D01*
X054530Y006875D01*
X054530Y007405D01*
X054155Y007780D01*
X053625Y007780D01*
X053390Y007545D01*
X053155Y007780D01*
X052625Y007780D01*
X052390Y007545D01*
X052155Y007780D01*
X051625Y007780D01*
X051390Y007545D01*
X051155Y007780D01*
X050625Y007780D01*
X050390Y007545D01*
X050155Y007780D01*
X049625Y007780D01*
X049390Y007545D01*
X049155Y007780D01*
X048625Y007780D01*
X048390Y007545D01*
X048155Y007780D01*
X047625Y007780D01*
X047390Y007545D01*
X047155Y007780D01*
X046625Y007780D01*
X046390Y007545D01*
X046155Y007780D01*
X045625Y007780D01*
X045390Y007545D01*
X045155Y007780D01*
X044625Y007780D01*
X044390Y007545D01*
X044155Y007780D01*
X043625Y007780D01*
X043390Y007545D01*
X043155Y007780D01*
X042625Y007780D01*
X042390Y007545D01*
X042155Y007780D01*
X041625Y007780D01*
X041390Y007545D01*
X041155Y007780D01*
X040625Y007780D01*
X040390Y007545D01*
X040155Y007780D01*
X039625Y007780D01*
X039390Y007545D01*
X039155Y007780D01*
X038625Y007780D01*
X038540Y007695D01*
X038540Y008099D01*
X040306Y009865D01*
X045595Y009865D01*
X045742Y009926D01*
X046511Y010695D01*
X046628Y010695D01*
X046838Y010782D01*
X046998Y010942D01*
X047085Y011152D01*
X047085Y011378D01*
X046998Y011588D01*
X046926Y011660D01*
X054066Y011660D01*
X058625Y007101D01*
X058625Y006875D01*
X058860Y006640D01*
X058625Y006405D01*
X058625Y005875D01*
X059000Y005500D01*
X059530Y005500D01*
X059690Y005660D01*
X059840Y005660D01*
X060000Y005500D01*
X060530Y005500D01*
X060905Y005875D01*
X060905Y006405D01*
X060745Y006565D01*
X060745Y006660D01*
X061722Y006660D01*
X061780Y006602D01*
X062014Y006505D01*
X062266Y006505D01*
X062500Y006602D01*
X062640Y006742D01*
X062877Y006505D01*
X063140Y006505D01*
X063403Y006505D01*
X063775Y006877D01*
X063775Y007140D01*
X063775Y007403D01*
X063403Y007775D01*
X063140Y007775D01*
X063140Y007140D01*
X063140Y007140D01*
X063775Y007140D01*
X063140Y007140D01*
X063140Y007140D01*
X063140Y007775D01*
X062877Y007775D01*
X062640Y007538D01*
X062500Y007678D01*
X062266Y007775D01*
X062014Y007775D01*
X061780Y007678D01*
X061722Y007620D01*
X060690Y007620D01*
X060530Y007780D01*
X060000Y007780D01*
X059840Y007620D01*
X059690Y007620D01*
X059530Y007780D01*
X059304Y007780D01*
X054672Y012412D01*
X054537Y012547D01*
X054360Y012620D01*
X054250Y012620D01*
X054314Y012652D01*
X054386Y012705D01*
X054450Y012769D01*
X054503Y012841D01*
X054543Y012921D01*
X054571Y013007D01*
X054585Y013095D01*
X054585Y013140D01*
X054585Y013185D01*
X054571Y013273D01*
X054543Y013359D01*
X054503Y013439D01*
X054450Y013511D01*
X054386Y013575D01*
X054331Y013615D01*
X055595Y013615D01*
X055742Y013676D01*
X058729Y016663D01*
X058761Y016739D01*
X058860Y016640D01*
X058625Y016405D01*
X058625Y015875D01*
X058860Y015640D01*
X058625Y015405D01*
X058625Y014875D01*
X058860Y014640D01*
X058625Y014405D01*
X058625Y013875D01*
X058860Y013640D01*
X058625Y013405D01*
X058625Y012875D01*
X058860Y012640D01*
X058625Y012405D01*
X058625Y011875D01*
X058860Y011640D01*
X058625Y011405D01*
X058625Y010875D01*
X058860Y010640D01*
X058625Y010405D01*
X058625Y009875D01*
X059000Y009500D01*
X059530Y009500D01*
X059765Y009735D01*
X060000Y009500D01*
X060530Y009500D01*
X060905Y009875D01*
X060905Y010405D01*
X060670Y010640D01*
X060905Y010875D01*
X060905Y011405D01*
X060670Y011640D01*
X060905Y011875D01*
X060905Y012405D01*
X060670Y012640D01*
X060905Y012875D01*
X060905Y013405D01*
X060670Y013640D01*
X060905Y013875D01*
X060905Y014405D01*
X060670Y014640D01*
X060905Y014875D01*
X060905Y015405D01*
X060670Y015640D01*
X060905Y015875D01*
X060905Y016405D01*
X060670Y016640D01*
X060905Y016875D01*
X060905Y017405D01*
X060530Y017780D01*
X060000Y017780D01*
X059765Y017545D01*
X059530Y017780D01*
X059000Y017780D01*
X058790Y017570D01*
X058790Y021470D01*
X058729Y021617D01*
X057729Y022617D01*
X057617Y022729D01*
X057519Y022769D01*
X057520Y022771D01*
X057520Y023009D01*
X057429Y023230D01*
X057269Y023390D01*
X057429Y023550D01*
X057520Y023771D01*
X057520Y024009D01*
X057429Y024230D01*
X057269Y024390D01*
X057289Y024410D01*
X058771Y024410D01*
X058891Y024290D01*
X059389Y024290D01*
X059740Y024641D01*
X059740Y025139D01*
X059389Y025490D01*
X058891Y025490D01*
X058771Y025370D01*
X057289Y025370D01*
X057260Y025399D01*
X057039Y025490D01*
X056241Y025490D01*
X056020Y025399D01*
X055851Y025230D01*
X055760Y025009D01*
X055760Y024771D01*
X055851Y024550D01*
X056011Y024390D01*
X055851Y024230D01*
X055760Y024009D01*
X055760Y023771D01*
X055851Y023550D01*
X056011Y023390D01*
X055851Y023230D01*
X055760Y023009D01*
X055760Y022790D01*
X055556Y022790D01*
X055229Y023117D01*
X055117Y023229D01*
X054970Y023290D01*
X054369Y023290D01*
X054269Y023390D01*
X054429Y023550D01*
X054520Y023771D01*
X054520Y024009D01*
X054429Y024230D01*
X054269Y024390D01*
X054429Y024550D01*
X054520Y024771D01*
X054520Y025009D01*
X054429Y025230D01*
X054260Y025399D01*
X054039Y025490D01*
X053241Y025490D01*
X053020Y025399D01*
X052851Y025230D01*
X052760Y025009D01*
X052760Y024771D01*
X052851Y024550D01*
X053011Y024390D01*
X052851Y024230D01*
X052760Y024009D01*
X052760Y023771D01*
X052851Y023550D01*
X053011Y023390D01*
X052851Y023230D01*
X052760Y023009D01*
X052760Y022771D01*
X052851Y022550D01*
X053011Y022390D01*
X052851Y022230D01*
X052760Y022009D01*
X052760Y021771D01*
X052851Y021550D01*
X053011Y021390D01*
X052911Y021290D01*
X052810Y021290D01*
X052663Y021229D01*
X052551Y021117D01*
X052224Y020790D01*
X051270Y020790D01*
X051270Y020823D01*
X051277Y020820D01*
X051503Y020820D01*
X051713Y020907D01*
X051873Y021067D01*
X051960Y021277D01*
X051960Y021503D01*
X051873Y021713D01*
X051713Y021873D01*
X051503Y021960D01*
X051277Y021960D01*
X051270Y021957D01*
X051270Y022009D01*
X051179Y022230D01*
X051019Y022390D01*
X051179Y022550D01*
X051270Y022771D01*
X051270Y023009D01*
X051179Y023230D01*
X051019Y023390D01*
X051179Y023550D01*
X051270Y023771D01*
X051270Y024009D01*
X051179Y024230D01*
X051012Y024397D01*
X051061Y024432D01*
X051128Y024499D01*
X051183Y024576D01*
X051226Y024660D01*
X051255Y024749D01*
X051270Y024843D01*
X051270Y024890D01*
X051270Y024937D01*
X051255Y025030D01*
X051226Y025120D01*
X051183Y025204D01*
X051128Y025281D01*
X051061Y025348D01*
X050984Y025403D01*
X050900Y025446D01*
X050810Y025475D01*
X050717Y025490D01*
X050390Y025490D01*
X050390Y024890D01*
X050390Y024890D01*
X051270Y024890D01*
X050390Y024890D01*
X050390Y024890D01*
X050390Y025490D01*
X050063Y025490D01*
X049969Y025475D01*
X049915Y025458D01*
X049915Y030328D01*
X049929Y030285D01*
X049972Y030201D01*
X049915Y030201D01*
X049972Y030201D02*
X050027Y030124D01*
X050094Y030057D01*
X050171Y030002D01*
X050255Y029959D01*
X050344Y029930D01*
X050438Y029915D01*
X050765Y029915D01*
X051092Y029915D01*
X051185Y029930D01*
X051275Y029959D01*
X051359Y030002D01*
X051436Y030057D01*
X051503Y030124D01*
X051558Y030201D01*
X052966Y030201D01*
X052976Y030175D02*
X052885Y030396D01*
X052885Y030634D01*
X052976Y030855D01*
X053143Y031022D01*
X053094Y031057D01*
X053027Y031124D01*
X052972Y031201D01*
X052929Y031285D01*
X052900Y031374D01*
X052885Y031468D01*
X052885Y031515D01*
X053765Y031515D01*
X053765Y031515D01*
X053765Y031915D01*
X053765Y032515D01*
X054645Y032515D01*
X054645Y032562D01*
X054637Y032615D01*
X055599Y032615D01*
X056038Y032176D01*
X056185Y032115D01*
X056411Y032115D01*
X056511Y032015D01*
X056351Y031855D01*
X056260Y031634D01*
X056260Y031396D01*
X056351Y031175D01*
X056518Y031008D01*
X056469Y030973D01*
X056402Y030906D01*
X056347Y030829D01*
X056304Y030745D01*
X056275Y030655D01*
X056260Y030562D01*
X056260Y030515D01*
X057140Y030515D01*
X058020Y030515D01*
X058020Y030562D01*
X058005Y030655D01*
X057976Y030745D01*
X057933Y030829D01*
X057878Y030906D01*
X057811Y030973D01*
X057762Y031008D01*
X057929Y031175D01*
X057973Y031282D01*
X057979Y031288D01*
X058354Y031663D01*
X058415Y031810D01*
X058415Y034720D01*
X058354Y034867D01*
X058242Y034979D01*
X057963Y035258D01*
X058020Y035396D01*
X058020Y035634D01*
X057929Y035855D01*
X057762Y036022D01*
X057811Y036057D01*
X057878Y036124D01*
X057933Y036201D01*
X057976Y036285D01*
X058005Y036374D01*
X058020Y036468D01*
X058020Y036515D01*
X058020Y036562D01*
X058005Y036655D01*
X057976Y036745D01*
X057933Y036829D01*
X057878Y036906D01*
X057811Y036973D01*
X057734Y037028D01*
X057650Y037071D01*
X057560Y037100D01*
X057467Y037115D01*
X057140Y037115D01*
X057140Y036515D01*
X057140Y036515D01*
X058020Y036515D01*
X057140Y036515D01*
X057140Y036515D01*
X057140Y036515D01*
X056260Y036515D01*
X056260Y036562D01*
X056275Y036655D01*
X056304Y036745D01*
X056347Y036829D01*
X056402Y036906D01*
X056469Y036973D01*
X056546Y037028D01*
X056630Y037071D01*
X056719Y037100D01*
X056813Y037115D01*
X057140Y037115D01*
X057140Y036515D01*
X056260Y036515D01*
X056260Y036468D01*
X056275Y036374D01*
X056304Y036285D01*
X056347Y036201D01*
X056402Y036124D01*
X056469Y036057D01*
X056518Y036022D01*
X056351Y035855D01*
X056260Y035634D01*
X056260Y035415D01*
X054637Y035415D01*
X054645Y035468D01*
X054645Y035515D01*
X054645Y035562D01*
X054630Y035655D01*
X054601Y035745D01*
X054558Y035829D01*
X054503Y035906D01*
X054436Y035973D01*
X054387Y036008D01*
X054554Y036175D01*
X054645Y036396D01*
X054645Y036634D01*
X054554Y036855D01*
X054385Y037024D01*
X054245Y037082D01*
X054245Y037771D01*
X054365Y037891D01*
X054365Y038389D01*
X054014Y038740D01*
X053516Y038740D01*
X053165Y038389D01*
X053165Y037891D01*
X053285Y037771D01*
X053285Y037082D01*
X053145Y037024D01*
X052976Y036855D01*
X052885Y036634D01*
X052885Y036396D01*
X052976Y036175D01*
X053143Y036008D01*
X053094Y035973D01*
X053027Y035906D01*
X052972Y035829D01*
X052929Y035745D01*
X052900Y035655D01*
X052885Y035562D01*
X052885Y035515D01*
X053765Y035515D01*
X054645Y035515D01*
X053765Y035515D01*
X053765Y035515D01*
X053765Y035515D01*
X052885Y035515D01*
X052885Y035468D01*
X052893Y035415D01*
X052556Y035415D01*
X052117Y035854D01*
X051970Y035915D01*
X051494Y035915D01*
X051394Y036015D01*
X051554Y036175D01*
X051645Y036396D01*
X051645Y036634D01*
X051554Y036855D01*
X051385Y037024D01*
X051164Y037115D01*
X050366Y037115D01*
X050145Y037024D01*
X049976Y036855D01*
X049885Y036634D01*
X049885Y036576D01*
X049676Y036367D01*
X049615Y036220D01*
X049615Y032810D01*
X049676Y032663D01*
X049788Y032551D01*
X049885Y032454D01*
X049885Y032396D01*
X049976Y032175D01*
X050136Y032015D01*
X049976Y031855D01*
X049885Y031634D01*
X049885Y031396D01*
X049976Y031175D01*
X050143Y031008D01*
X050094Y030973D01*
X050027Y030906D01*
X049972Y030829D01*
X049929Y030745D01*
X049915Y030702D01*
X049915Y030970D01*
X049854Y031117D01*
X049742Y031229D01*
X048456Y032515D01*
X048492Y032551D01*
X048604Y032663D01*
X048665Y032810D01*
X048665Y037720D01*
X048604Y037867D01*
X048229Y038242D01*
X048213Y038258D01*
X048270Y038396D01*
X048270Y038634D01*
X048179Y038855D01*
X048019Y039015D01*
X048179Y039175D01*
X048270Y039396D01*
X048270Y039634D01*
X048179Y039855D01*
X048010Y040024D01*
X047870Y040082D01*
X047870Y040771D01*
X047990Y040891D01*
X047990Y041389D01*
X047639Y041740D01*
X047141Y041740D01*
X046790Y041389D01*
X046790Y040891D01*
X046910Y040771D01*
X046910Y040082D01*
X046770Y040024D01*
X046601Y039855D01*
X046510Y039634D01*
X046510Y039396D01*
X046601Y039175D01*
X046761Y039015D01*
X046661Y038915D01*
X046181Y038915D01*
X045854Y039242D01*
X045742Y039354D01*
X045595Y039415D01*
X045270Y039415D01*
X045270Y039634D01*
X045179Y039855D01*
X045010Y040024D01*
X044789Y040115D01*
X043991Y040115D01*
X043770Y040024D01*
X043661Y039915D01*
X040810Y039915D01*
X040663Y039854D01*
X040224Y039415D01*
X038270Y039415D01*
X038270Y039634D01*
X038179Y039855D01*
X038010Y040024D01*
X037870Y040082D01*
X037870Y040771D01*
X037990Y040891D01*
X037990Y041389D01*
X037639Y041740D01*
X037141Y041740D01*
X036790Y041389D01*
X036790Y040891D01*
X036910Y040771D01*
X036910Y040082D01*
X036770Y040024D01*
X036601Y039855D01*
X036510Y039634D01*
X036510Y039415D01*
X036056Y039415D01*
X035729Y039742D01*
X035617Y039854D01*
X035470Y039915D01*
X035119Y039915D01*
X035010Y040024D01*
X034789Y040115D01*
X033991Y040115D01*
X033810Y040040D01*
X030810Y040040D01*
X030663Y039979D01*
X030099Y039415D01*
X028270Y039415D01*
X028270Y039634D01*
X028179Y039855D01*
X028010Y040024D01*
X027870Y040082D01*
X027870Y040771D01*
X027990Y040891D01*
X027990Y041389D01*
X027639Y041740D01*
X027141Y041740D01*
X026790Y041389D01*
X026790Y040891D01*
X026910Y040771D01*
X026910Y040082D01*
X026770Y040024D01*
X026601Y039855D01*
X026510Y039634D01*
X026510Y039415D01*
X026056Y039415D01*
X025729Y039742D01*
X025617Y039854D01*
X025470Y039915D01*
X025119Y039915D01*
X025010Y040024D01*
X024789Y040115D01*
X023991Y040115D01*
X023770Y040024D01*
X023601Y039855D01*
X023510Y039634D01*
X023510Y039530D01*
X023378Y039585D01*
X023152Y039585D01*
X022942Y039498D01*
X022782Y039338D01*
X022695Y039128D01*
X022695Y038902D01*
X022782Y038692D01*
X022942Y038532D01*
X023152Y038445D01*
X023378Y038445D01*
X023510Y038500D01*
X023510Y038415D01*
X021810Y038415D01*
X021663Y038354D01*
X020913Y037604D01*
X020801Y037492D01*
X019104Y037492D01*
X019229Y037367D02*
X018481Y038115D01*
X019970Y038115D01*
X020117Y038176D01*
X020229Y038288D01*
X020386Y038445D01*
X020503Y038445D01*
X020713Y038532D01*
X020873Y038692D01*
X020960Y038902D01*
X020960Y039128D01*
X020873Y039338D01*
X020713Y039498D01*
X020503Y039585D01*
X020460Y039585D01*
X020460Y039628D01*
X020373Y039838D01*
X020213Y039998D01*
X020003Y040085D01*
X019777Y040085D01*
X019567Y039998D01*
X019407Y039838D01*
X019320Y039628D01*
X019320Y039511D01*
X019224Y039415D01*
X018270Y039415D01*
X018270Y039634D01*
X018179Y039855D01*
X018010Y040024D01*
X017870Y040082D01*
X017870Y040771D01*
X017990Y040891D01*
X017990Y041389D01*
X017639Y041740D01*
X017141Y041740D01*
X016790Y041389D01*
X016790Y040891D01*
X016910Y040771D01*
X016910Y040082D01*
X016770Y040024D01*
X016601Y039855D01*
X016510Y039634D01*
X016510Y039415D01*
X016056Y039415D01*
X015617Y039854D01*
X015470Y039915D01*
X015119Y039915D01*
X015010Y040024D01*
X014789Y040115D01*
X013991Y040115D01*
X013770Y040024D01*
X013601Y039855D01*
X013510Y039634D01*
X013510Y039396D01*
X013601Y039175D01*
X013761Y039015D01*
X013601Y038855D01*
X013510Y038634D01*
X013510Y038415D01*
X006560Y038415D01*
X006413Y038354D01*
X005839Y037780D01*
X005500Y037780D01*
X005125Y037405D01*
X005125Y037316D01*
X005120Y037311D01*
X005120Y038316D01*
X006464Y039660D01*
X006965Y039660D01*
X007125Y039500D01*
X007655Y039500D01*
X007815Y039660D01*
X007965Y039660D01*
X008125Y039500D01*
X008655Y039500D01*
X009030Y039875D01*
X009030Y040405D01*
X008870Y040565D01*
X008870Y040715D01*
X009030Y040875D01*
X009030Y041405D01*
X008655Y041780D01*
X008125Y041780D01*
X007965Y041620D01*
X007815Y041620D01*
X007655Y041780D01*
X007125Y041780D01*
X006750Y041405D01*
X006750Y040875D01*
X006985Y040640D01*
X006965Y040620D01*
X006170Y040620D01*
X005993Y040547D01*
X005858Y040412D01*
X004270Y038824D01*
X004270Y042880D01*
X066502Y042880D01*
X066502Y041718D01*
X066292Y041928D01*
X065950Y042070D01*
X065580Y042070D01*
X065238Y041928D01*
X064977Y041667D01*
X064835Y041325D01*
X064835Y040955D01*
X064977Y040613D01*
X065238Y040352D01*
X065580Y040210D01*
X065950Y040210D01*
X066292Y040352D01*
X066502Y040562D01*
X066502Y006718D01*
X066292Y006928D01*
X065950Y007070D01*
X065580Y007070D01*
X065238Y006928D01*
X064977Y006667D01*
X064835Y006325D01*
X064835Y005955D01*
X064977Y005613D01*
X065238Y005352D01*
X065580Y005210D01*
X065950Y005210D01*
X066292Y005352D01*
X066502Y005562D01*
X066502Y004270D01*
X004270Y004270D01*
X004270Y004366D02*
X066502Y004366D01*
X066502Y004524D02*
X036177Y004524D01*
X036373Y004683D02*
X066502Y004683D01*
X066502Y004841D02*
X036532Y004841D01*
X036690Y005000D02*
X066502Y005000D01*
X066502Y005158D02*
X036849Y005158D01*
X037007Y005317D02*
X065323Y005317D01*
X065115Y005475D02*
X037166Y005475D01*
X037324Y005634D02*
X038491Y005634D01*
X038333Y005792D02*
X037483Y005792D01*
X037641Y005951D02*
X038250Y005951D01*
X038250Y006109D02*
X037800Y006109D01*
X037958Y006268D02*
X038250Y006268D01*
X038271Y006426D02*
X038117Y006426D01*
X038275Y006585D02*
X038429Y006585D01*
X038140Y007015D02*
X038140Y008265D01*
X040140Y010265D01*
X045515Y010265D01*
X046515Y011265D01*
X046920Y010864D02*
X054862Y010864D01*
X054704Y011023D02*
X047032Y011023D01*
X047085Y011181D02*
X054545Y011181D01*
X054387Y011340D02*
X047085Y011340D01*
X047035Y011498D02*
X054228Y011498D01*
X054070Y011657D02*
X046930Y011657D01*
X046654Y010706D02*
X055021Y010706D01*
X055179Y010547D02*
X046363Y010547D01*
X046204Y010389D02*
X055338Y010389D01*
X055496Y010230D02*
X046046Y010230D01*
X045887Y010072D02*
X055655Y010072D01*
X055813Y009913D02*
X045710Y009913D01*
X043910Y011620D02*
X042844Y011620D01*
X042990Y011766D01*
X042990Y012015D01*
X042990Y012264D01*
X042639Y012615D01*
X042390Y012615D01*
X042390Y012015D01*
X042990Y012015D01*
X042390Y012015D01*
X042390Y012015D01*
X042390Y012015D01*
X042390Y012015D01*
X041790Y012015D01*
X041790Y012264D01*
X042141Y012615D01*
X042390Y012615D01*
X042390Y012015D01*
X041790Y012015D01*
X041790Y011766D01*
X041936Y011620D01*
X040589Y011620D01*
X038547Y013662D01*
X038412Y013797D01*
X038235Y013870D01*
X036170Y013870D01*
X035993Y013797D01*
X034615Y012419D01*
X034615Y012639D01*
X034264Y012990D01*
X033766Y012990D01*
X033415Y012639D01*
X033415Y012141D01*
X033535Y012021D01*
X033535Y011995D01*
X032469Y011995D01*
X032615Y012141D01*
X032615Y012390D01*
X032615Y012639D01*
X032264Y012990D01*
X032015Y012990D01*
X032015Y012390D01*
X032015Y012390D01*
X032615Y012390D01*
X032015Y012390D01*
X032015Y012390D01*
X032015Y012390D01*
X031415Y012390D01*
X031415Y012639D01*
X031766Y012990D01*
X032015Y012990D01*
X032015Y012390D01*
X031415Y012390D01*
X031415Y012141D01*
X031561Y011995D01*
X024870Y011995D01*
X024870Y012271D01*
X024990Y012391D01*
X024990Y012889D01*
X024639Y013240D01*
X024141Y013240D01*
X023790Y012889D01*
X023790Y012391D01*
X023910Y012271D01*
X023910Y011995D01*
X022589Y011995D01*
X022544Y012040D01*
X022639Y012040D01*
X022990Y012391D01*
X022990Y012640D01*
X022990Y012889D01*
X022639Y013240D01*
X022390Y013240D01*
X022390Y012640D01*
X022390Y012640D01*
X022990Y012640D01*
X022390Y012640D01*
X022390Y012640D01*
X022390Y013240D01*
X022141Y013240D01*
X021790Y012889D01*
X021790Y012794D01*
X021172Y013412D01*
X021106Y013478D01*
X021179Y013550D01*
X021270Y013771D01*
X021270Y014009D01*
X021179Y014230D01*
X021019Y014390D01*
X021179Y014550D01*
X021270Y014771D01*
X021270Y015009D01*
X021179Y015230D01*
X021019Y015390D01*
X021119Y015490D01*
X022224Y015490D01*
X022551Y015163D01*
X022663Y015051D01*
X022810Y014990D01*
X023510Y014990D01*
X023510Y014771D01*
X023601Y014550D01*
X023761Y014390D01*
X023601Y014230D01*
X023510Y014009D01*
X023510Y013771D01*
X023601Y013550D01*
X023770Y013381D01*
X023991Y013290D01*
X024789Y013290D01*
X025010Y013381D01*
X025179Y013550D01*
X025270Y013771D01*
X025270Y014009D01*
X025179Y014230D01*
X025019Y014390D01*
X025179Y014550D01*
X025270Y014771D01*
X025270Y014990D01*
X027470Y014990D01*
X027617Y015051D01*
X028056Y015490D01*
X029661Y015490D01*
X029761Y015390D01*
X029601Y015230D01*
X029510Y015009D01*
X029510Y014771D01*
X029601Y014550D01*
X029761Y014390D01*
X029601Y014230D01*
X029510Y014009D01*
X029510Y013771D01*
X029601Y013550D01*
X029770Y013381D01*
X029991Y013290D01*
X030789Y013290D01*
X031010Y013381D01*
X031179Y013550D01*
X031270Y013771D01*
X031270Y013875D01*
X031402Y013820D01*
X031628Y013820D01*
X031838Y013907D01*
X031921Y013990D01*
X033510Y013990D01*
X033510Y013771D01*
X033601Y013550D01*
X033770Y013381D01*
X033991Y013290D01*
X034789Y013290D01*
X035010Y013381D01*
X035179Y013550D01*
X035270Y013771D01*
X035270Y013990D01*
X035345Y013990D01*
X035492Y014051D01*
X035604Y014163D01*
X036056Y014615D01*
X038724Y014615D01*
X039288Y014051D01*
X039435Y013990D01*
X039510Y013990D01*
X039510Y013771D01*
X039601Y013550D01*
X039770Y013381D01*
X039991Y013290D01*
X040789Y013290D01*
X041010Y013381D01*
X041051Y013423D01*
X041067Y013407D01*
X041277Y013320D01*
X041394Y013320D01*
X041676Y013038D01*
X041788Y012926D01*
X041935Y012865D01*
X051345Y012865D01*
X051492Y012926D01*
X052181Y013615D01*
X053699Y013615D01*
X053644Y013575D01*
X053580Y013511D01*
X053527Y013439D01*
X053487Y013359D01*
X053459Y013273D01*
X053445Y013185D01*
X053445Y013140D01*
X054015Y013140D01*
X054585Y013140D01*
X054015Y013140D01*
X054015Y013140D01*
X054015Y013140D01*
X053445Y013140D01*
X053445Y013095D01*
X053459Y013007D01*
X053487Y012921D01*
X053527Y012841D01*
X053580Y012769D01*
X053644Y012705D01*
X053716Y012652D01*
X053780Y012620D01*
X045295Y012620D01*
X045118Y012547D01*
X044912Y012341D01*
X044639Y012615D01*
X044141Y012615D01*
X043790Y012264D01*
X043790Y011766D01*
X043910Y011646D01*
X043910Y011620D01*
X043900Y011657D02*
X042880Y011657D01*
X042990Y011815D02*
X043790Y011815D01*
X043790Y011974D02*
X042990Y011974D01*
X042990Y012132D02*
X043790Y012132D01*
X043817Y012291D02*
X042963Y012291D01*
X042805Y012449D02*
X043975Y012449D01*
X044134Y012608D02*
X042646Y012608D01*
X042390Y012608D02*
X042390Y012608D01*
X042390Y012449D02*
X042390Y012449D01*
X042390Y012291D02*
X042390Y012291D01*
X042390Y012132D02*
X042390Y012132D01*
X041975Y012449D02*
X039760Y012449D01*
X039918Y012291D02*
X041817Y012291D01*
X041790Y012132D02*
X040077Y012132D01*
X040235Y011974D02*
X041790Y011974D01*
X041790Y011815D02*
X040394Y011815D01*
X040552Y011657D02*
X041900Y011657D01*
X042134Y012608D02*
X039601Y012608D01*
X039443Y012766D02*
X053583Y012766D01*
X053486Y012925D02*
X051488Y012925D01*
X051649Y013083D02*
X053447Y013083D01*
X053454Y013242D02*
X051807Y013242D01*
X051966Y013400D02*
X053508Y013400D01*
X053627Y013559D02*
X052124Y013559D01*
X052015Y014015D02*
X055515Y014015D01*
X058390Y016890D01*
X058390Y021390D01*
X057390Y022390D01*
X055390Y022390D01*
X054890Y022890D01*
X053640Y022890D01*
X053007Y023386D02*
X051023Y023386D01*
X051173Y023544D02*
X052857Y023544D01*
X052788Y023703D02*
X051242Y023703D01*
X051270Y023861D02*
X052760Y023861D01*
X052764Y024020D02*
X051266Y024020D01*
X051200Y024178D02*
X052830Y024178D01*
X052958Y024337D02*
X051072Y024337D01*
X051124Y024495D02*
X052906Y024495D01*
X052809Y024654D02*
X051223Y024654D01*
X051265Y024812D02*
X052760Y024812D01*
X052760Y024971D02*
X051265Y024971D01*
X051222Y025129D02*
X052810Y025129D01*
X052909Y025288D02*
X051121Y025288D01*
X050900Y025446D02*
X053135Y025446D01*
X054145Y025446D02*
X056135Y025446D01*
X055909Y025288D02*
X054371Y025288D01*
X054470Y025129D02*
X055810Y025129D01*
X055760Y024971D02*
X054520Y024971D01*
X054520Y024812D02*
X055760Y024812D01*
X055809Y024654D02*
X054471Y024654D01*
X054374Y024495D02*
X055906Y024495D01*
X055958Y024337D02*
X054322Y024337D01*
X054450Y024178D02*
X055830Y024178D01*
X055764Y024020D02*
X054516Y024020D01*
X054520Y023861D02*
X055760Y023861D01*
X055788Y023703D02*
X054492Y023703D01*
X054423Y023544D02*
X055857Y023544D01*
X056007Y023386D02*
X054273Y023386D01*
X055119Y023227D02*
X055850Y023227D01*
X055785Y023069D02*
X055277Y023069D01*
X055436Y022910D02*
X055760Y022910D01*
X057273Y023386D02*
X066502Y023386D01*
X066502Y023544D02*
X057423Y023544D01*
X057492Y023703D02*
X066502Y023703D01*
X066502Y023861D02*
X057520Y023861D01*
X057516Y024020D02*
X066502Y024020D01*
X066502Y024178D02*
X057450Y024178D01*
X057322Y024337D02*
X058845Y024337D01*
X059435Y024337D02*
X060845Y024337D01*
X060891Y024290D02*
X061140Y024290D01*
X061389Y024290D01*
X061740Y024641D01*
X061740Y024890D01*
X061740Y025139D01*
X061389Y025490D01*
X061140Y025490D01*
X061140Y024890D01*
X061740Y024890D01*
X061140Y024890D01*
X061140Y024890D01*
X061140Y024890D01*
X061140Y024290D01*
X061140Y024890D01*
X061140Y024890D01*
X061140Y024890D01*
X060540Y024890D01*
X060540Y025139D01*
X060891Y025490D01*
X061140Y025490D01*
X061140Y024890D01*
X060540Y024890D01*
X060540Y024641D01*
X060891Y024290D01*
X061140Y024337D02*
X061140Y024337D01*
X061140Y024495D02*
X061140Y024495D01*
X061140Y024654D02*
X061140Y024654D01*
X061140Y024812D02*
X061140Y024812D01*
X061140Y024971D02*
X061140Y024971D01*
X061140Y025129D02*
X061140Y025129D01*
X061140Y025288D02*
X061140Y025288D01*
X061140Y025446D02*
X061140Y025446D01*
X061432Y025446D02*
X066502Y025446D01*
X066502Y025288D02*
X061591Y025288D01*
X061740Y025129D02*
X066502Y025129D01*
X066502Y024971D02*
X061740Y024971D01*
X061740Y024812D02*
X066502Y024812D01*
X066502Y024654D02*
X061740Y024654D01*
X061594Y024495D02*
X066502Y024495D01*
X066502Y024337D02*
X061435Y024337D01*
X060686Y024495D02*
X059594Y024495D01*
X059740Y024654D02*
X060540Y024654D01*
X060540Y024812D02*
X059740Y024812D01*
X059740Y024971D02*
X060540Y024971D01*
X060540Y025129D02*
X059740Y025129D01*
X059591Y025288D02*
X060689Y025288D01*
X060848Y025446D02*
X059432Y025446D01*
X058848Y025446D02*
X057145Y025446D01*
X057430Y023227D02*
X066502Y023227D01*
X066502Y023069D02*
X057495Y023069D01*
X057520Y022910D02*
X066502Y022910D01*
X066502Y022752D02*
X057562Y022752D01*
X057753Y022593D02*
X066502Y022593D01*
X066502Y022435D02*
X057911Y022435D01*
X058070Y022276D02*
X066502Y022276D01*
X066502Y022118D02*
X058228Y022118D01*
X058387Y021959D02*
X066502Y021959D01*
X066502Y021801D02*
X058545Y021801D01*
X058704Y021642D02*
X066502Y021642D01*
X066502Y021484D02*
X058784Y021484D01*
X058790Y021325D02*
X066502Y021325D01*
X066502Y021167D02*
X058790Y021167D01*
X058790Y021008D02*
X066502Y021008D01*
X066502Y020850D02*
X058790Y020850D01*
X058790Y020691D02*
X066502Y020691D01*
X066502Y020533D02*
X058790Y020533D01*
X058790Y020374D02*
X066502Y020374D01*
X066502Y020216D02*
X058790Y020216D01*
X058790Y020057D02*
X066502Y020057D01*
X066502Y019899D02*
X058790Y019899D01*
X058790Y019740D02*
X066502Y019740D01*
X066502Y019582D02*
X058790Y019582D01*
X058790Y019423D02*
X066502Y019423D01*
X066502Y019265D02*
X058790Y019265D01*
X058790Y019106D02*
X066502Y019106D01*
X066502Y018948D02*
X058790Y018948D01*
X058790Y018789D02*
X066502Y018789D01*
X066502Y018631D02*
X058790Y018631D01*
X058790Y018472D02*
X066502Y018472D01*
X066502Y018314D02*
X058790Y018314D01*
X058790Y018155D02*
X066502Y018155D01*
X066502Y017997D02*
X058790Y017997D01*
X058790Y017838D02*
X066502Y017838D01*
X066502Y017680D02*
X060631Y017680D01*
X060789Y017521D02*
X066502Y017521D01*
X066502Y017363D02*
X060905Y017363D01*
X060905Y017204D02*
X066502Y017204D01*
X066502Y017046D02*
X060905Y017046D01*
X060905Y016887D02*
X066502Y016887D01*
X066502Y016729D02*
X060759Y016729D01*
X060740Y016570D02*
X066502Y016570D01*
X066502Y016412D02*
X060899Y016412D01*
X060905Y016253D02*
X066502Y016253D01*
X066502Y016095D02*
X060905Y016095D01*
X060905Y015936D02*
X066502Y015936D01*
X066502Y015778D02*
X060808Y015778D01*
X060691Y015619D02*
X066502Y015619D01*
X066502Y015461D02*
X060850Y015461D01*
X060905Y015302D02*
X066502Y015302D01*
X066502Y015144D02*
X060905Y015144D01*
X060905Y014985D02*
X066502Y014985D01*
X066502Y014827D02*
X060857Y014827D01*
X060698Y014668D02*
X066502Y014668D01*
X066502Y014510D02*
X060801Y014510D01*
X060905Y014351D02*
X066502Y014351D01*
X066502Y014193D02*
X060905Y014193D01*
X060905Y014034D02*
X066502Y014034D01*
X066502Y013876D02*
X060905Y013876D01*
X060747Y013717D02*
X066502Y013717D01*
X066502Y013559D02*
X060752Y013559D01*
X060905Y013400D02*
X066502Y013400D01*
X066502Y013242D02*
X060905Y013242D01*
X060905Y013083D02*
X066502Y013083D01*
X066502Y012925D02*
X060905Y012925D01*
X060796Y012766D02*
X066502Y012766D01*
X066502Y012608D02*
X060703Y012608D01*
X060861Y012449D02*
X066502Y012449D01*
X066502Y012291D02*
X060905Y012291D01*
X060905Y012132D02*
X066502Y012132D01*
X066502Y011974D02*
X060905Y011974D01*
X060845Y011815D02*
X066502Y011815D01*
X066502Y011657D02*
X060687Y011657D01*
X060812Y011498D02*
X066502Y011498D01*
X066502Y011340D02*
X060905Y011340D01*
X060905Y011181D02*
X066502Y011181D01*
X066502Y011023D02*
X060905Y011023D01*
X060894Y010864D02*
X066502Y010864D01*
X066502Y010706D02*
X060736Y010706D01*
X060763Y010547D02*
X066502Y010547D01*
X066502Y010389D02*
X060905Y010389D01*
X060905Y010230D02*
X066502Y010230D01*
X066502Y010072D02*
X060905Y010072D01*
X060905Y009913D02*
X066502Y009913D01*
X066502Y009755D02*
X060785Y009755D01*
X060626Y009596D02*
X066502Y009596D01*
X066502Y009438D02*
X057646Y009438D01*
X057488Y009596D02*
X058904Y009596D01*
X058745Y009755D02*
X057329Y009755D01*
X057171Y009913D02*
X058625Y009913D01*
X058625Y010072D02*
X057012Y010072D01*
X056854Y010230D02*
X058625Y010230D01*
X058625Y010389D02*
X056695Y010389D01*
X056537Y010547D02*
X058767Y010547D01*
X058794Y010706D02*
X056378Y010706D01*
X056220Y010864D02*
X058636Y010864D01*
X058625Y011023D02*
X056061Y011023D01*
X055903Y011181D02*
X058625Y011181D01*
X058625Y011340D02*
X055744Y011340D01*
X055586Y011498D02*
X058718Y011498D01*
X058843Y011657D02*
X055427Y011657D01*
X055269Y011815D02*
X058685Y011815D01*
X058625Y011974D02*
X055110Y011974D01*
X054952Y012132D02*
X058625Y012132D01*
X058625Y012291D02*
X054793Y012291D01*
X054672Y012412D02*
X054672Y012412D01*
X054635Y012449D02*
X058669Y012449D01*
X058827Y012608D02*
X054391Y012608D01*
X054447Y012766D02*
X058734Y012766D01*
X058625Y012925D02*
X054544Y012925D01*
X054583Y013083D02*
X058625Y013083D01*
X058625Y013242D02*
X054576Y013242D01*
X054522Y013400D02*
X058625Y013400D01*
X058778Y013559D02*
X054403Y013559D01*
X055390Y014390D02*
X039515Y014390D01*
X038890Y015015D01*
X035890Y015015D01*
X035265Y014390D01*
X031515Y014390D01*
X031762Y013876D02*
X033510Y013876D01*
X033532Y013717D02*
X031248Y013717D01*
X031182Y013559D02*
X033598Y013559D01*
X033751Y013400D02*
X031029Y013400D01*
X031542Y012766D02*
X028903Y012766D01*
X028918Y012796D02*
X028946Y012882D01*
X028960Y012970D01*
X028960Y013015D01*
X028960Y013060D01*
X028946Y013148D01*
X028918Y013234D01*
X028878Y013314D01*
X028825Y013386D01*
X028761Y013450D01*
X028689Y013503D01*
X028609Y013543D01*
X028523Y013571D01*
X028435Y013585D01*
X028390Y013585D01*
X028390Y013015D01*
X028960Y013015D01*
X028390Y013015D01*
X028390Y013015D01*
X028390Y013015D01*
X028390Y012445D01*
X028435Y012445D01*
X028523Y012459D01*
X028609Y012487D01*
X028689Y012527D01*
X028761Y012580D01*
X028825Y012644D01*
X028878Y012716D01*
X028918Y012796D01*
X028953Y012925D02*
X031701Y012925D01*
X032015Y012925D02*
X032015Y012925D01*
X032015Y012766D02*
X032015Y012766D01*
X032015Y012608D02*
X032015Y012608D01*
X032015Y012449D02*
X032015Y012449D01*
X032488Y012766D02*
X033542Y012766D01*
X033415Y012608D02*
X032615Y012608D01*
X032615Y012449D02*
X033415Y012449D01*
X033415Y012291D02*
X032615Y012291D01*
X032606Y012132D02*
X033424Y012132D01*
X034615Y012449D02*
X034645Y012449D01*
X034615Y012608D02*
X034804Y012608D01*
X034962Y012766D02*
X034488Y012766D01*
X034329Y012925D02*
X035121Y012925D01*
X035279Y013083D02*
X028956Y013083D01*
X028914Y013242D02*
X035438Y013242D01*
X035596Y013400D02*
X035029Y013400D01*
X035182Y013559D02*
X035755Y013559D01*
X035913Y013717D02*
X035248Y013717D01*
X035270Y013876D02*
X039510Y013876D01*
X039532Y013717D02*
X038492Y013717D01*
X038650Y013559D02*
X039598Y013559D01*
X039751Y013400D02*
X038809Y013400D01*
X038967Y013242D02*
X041473Y013242D01*
X041631Y013083D02*
X039126Y013083D01*
X039284Y012925D02*
X041792Y012925D01*
X041676Y013038D02*
X041676Y013038D01*
X042015Y013265D02*
X051265Y013265D01*
X052015Y014015D01*
X051270Y014790D02*
X051270Y015009D01*
X051179Y015230D01*
X051019Y015390D01*
X051179Y015550D01*
X051270Y015771D01*
X051270Y016009D01*
X051179Y016230D01*
X051019Y016390D01*
X051179Y016550D01*
X051270Y016771D01*
X051270Y017009D01*
X051179Y017230D01*
X051019Y017390D01*
X051179Y017550D01*
X051270Y017771D01*
X051270Y018009D01*
X051179Y018230D01*
X051019Y018390D01*
X051179Y018550D01*
X051270Y018771D01*
X051270Y018990D01*
X052760Y018990D01*
X052760Y018771D01*
X052851Y018550D01*
X053018Y018383D01*
X052969Y018348D01*
X052902Y018281D01*
X052847Y018204D01*
X052804Y018120D01*
X052775Y018030D01*
X052760Y017937D01*
X052760Y017890D01*
X053640Y017890D01*
X054520Y017890D01*
X054520Y017937D01*
X054505Y018030D01*
X054476Y018120D01*
X054433Y018204D01*
X054378Y018281D01*
X054311Y018348D01*
X054262Y018383D01*
X054429Y018550D01*
X054520Y018771D01*
X054520Y018990D01*
X054970Y018990D01*
X055117Y019051D01*
X055556Y019490D01*
X055911Y019490D01*
X056011Y019390D01*
X055851Y019230D01*
X055760Y019009D01*
X055760Y018771D01*
X055851Y018550D01*
X056011Y018390D01*
X055851Y018230D01*
X055760Y018009D01*
X055760Y017771D01*
X055851Y017550D01*
X056020Y017381D01*
X056241Y017290D01*
X057039Y017290D01*
X057260Y017381D01*
X057429Y017550D01*
X057473Y017657D01*
X057615Y017799D01*
X057615Y017181D01*
X055224Y014790D01*
X051270Y014790D01*
X051270Y014827D02*
X055261Y014827D01*
X055419Y014985D02*
X051270Y014985D01*
X051214Y015144D02*
X055578Y015144D01*
X055736Y015302D02*
X051107Y015302D01*
X051089Y015461D02*
X055895Y015461D01*
X056053Y015619D02*
X051207Y015619D01*
X051270Y015778D02*
X056212Y015778D01*
X056370Y015936D02*
X051270Y015936D01*
X051235Y016095D02*
X056529Y016095D01*
X056687Y016253D02*
X051156Y016253D01*
X051040Y016412D02*
X056846Y016412D01*
X057004Y016570D02*
X051187Y016570D01*
X051253Y016729D02*
X057163Y016729D01*
X057321Y016887D02*
X051270Y016887D01*
X051255Y017046D02*
X057480Y017046D01*
X057615Y017204D02*
X051189Y017204D01*
X051046Y017363D02*
X053074Y017363D01*
X053046Y017377D02*
X053130Y017334D01*
X053219Y017305D01*
X053313Y017290D01*
X053640Y017290D01*
X053967Y017290D01*
X054060Y017305D01*
X054150Y017334D01*
X054234Y017377D01*
X054311Y017432D01*
X054378Y017499D01*
X054433Y017576D01*
X054476Y017660D01*
X054505Y017749D01*
X054520Y017843D01*
X054520Y017890D01*
X053640Y017890D01*
X053640Y017890D01*
X053640Y017290D01*
X053640Y017890D01*
X053640Y017890D01*
X053640Y017890D01*
X052760Y017890D01*
X052760Y017843D01*
X052775Y017749D01*
X052804Y017660D01*
X052847Y017576D01*
X052902Y017499D01*
X052969Y017432D01*
X053046Y017377D01*
X052886Y017521D02*
X051150Y017521D01*
X051232Y017680D02*
X052798Y017680D01*
X052761Y017838D02*
X051270Y017838D01*
X051270Y017997D02*
X052769Y017997D01*
X052822Y018155D02*
X051210Y018155D01*
X051095Y018314D02*
X052935Y018314D01*
X052929Y018472D02*
X051101Y018472D01*
X051212Y018631D02*
X052818Y018631D01*
X052760Y018789D02*
X051270Y018789D01*
X051270Y018948D02*
X052760Y018948D01*
X052390Y019890D02*
X050390Y019890D01*
X050390Y018890D02*
X047890Y018890D01*
X047390Y018390D01*
X042890Y018390D01*
X042390Y018890D01*
X040390Y018890D01*
X037890Y018890D01*
X037390Y018390D01*
X032890Y018390D01*
X032390Y018890D01*
X030390Y018890D01*
X027890Y018890D01*
X027390Y018390D01*
X022890Y018390D01*
X022390Y018890D01*
X020390Y018890D01*
X020390Y017890D02*
X022390Y017890D01*
X022890Y017390D01*
X027390Y017390D01*
X027890Y017890D01*
X030390Y017890D01*
X032390Y017890D01*
X032890Y017390D01*
X037390Y017390D01*
X037890Y017890D01*
X040390Y017890D01*
X042390Y017890D01*
X042890Y017390D01*
X047390Y017390D01*
X047890Y017890D01*
X050390Y017890D01*
X050390Y016890D02*
X047890Y016890D01*
X047390Y016390D01*
X042890Y016390D01*
X042390Y016890D01*
X040390Y016890D01*
X037890Y016890D01*
X037390Y016390D01*
X032890Y016390D01*
X032390Y016890D01*
X030390Y016890D01*
X027890Y016890D01*
X027390Y016390D01*
X022890Y016390D01*
X022390Y016890D01*
X020390Y016890D01*
X020390Y015890D02*
X022390Y015890D01*
X022890Y015390D01*
X027390Y015390D01*
X027890Y015890D01*
X030390Y015890D01*
X032390Y015890D01*
X032890Y015390D01*
X037390Y015390D01*
X037890Y015890D01*
X040390Y015890D01*
X042390Y015890D01*
X042890Y015390D01*
X047390Y015390D01*
X047890Y015890D01*
X050390Y015890D01*
X053640Y017363D02*
X053640Y017363D01*
X053640Y017521D02*
X053640Y017521D01*
X053640Y017680D02*
X053640Y017680D01*
X053640Y017838D02*
X053640Y017838D01*
X054206Y017363D02*
X056066Y017363D01*
X055880Y017521D02*
X054394Y017521D01*
X054482Y017680D02*
X055798Y017680D01*
X055760Y017838D02*
X054519Y017838D01*
X054511Y017997D02*
X055760Y017997D01*
X055820Y018155D02*
X054458Y018155D01*
X054345Y018314D02*
X055935Y018314D01*
X055929Y018472D02*
X054351Y018472D01*
X054462Y018631D02*
X055818Y018631D01*
X055760Y018789D02*
X054520Y018789D01*
X054520Y018948D02*
X055760Y018948D01*
X055800Y019106D02*
X055172Y019106D01*
X055330Y019265D02*
X055886Y019265D01*
X055978Y019423D02*
X055489Y019423D01*
X055390Y019890D02*
X056640Y019890D01*
X057140Y020390D02*
X052890Y020390D01*
X052390Y019890D01*
X052390Y020390D02*
X052890Y020890D01*
X053640Y020890D01*
X052946Y021325D02*
X051960Y021325D01*
X051960Y021484D02*
X052918Y021484D01*
X052813Y021642D02*
X051903Y021642D01*
X051786Y021801D02*
X052760Y021801D01*
X052760Y021959D02*
X051506Y021959D01*
X051274Y021959D02*
X051270Y021959D01*
X051225Y022118D02*
X052805Y022118D01*
X052898Y022276D02*
X051132Y022276D01*
X051063Y022435D02*
X052967Y022435D01*
X052834Y022593D02*
X051196Y022593D01*
X051262Y022752D02*
X052768Y022752D01*
X052760Y022910D02*
X051270Y022910D01*
X051245Y023069D02*
X052785Y023069D01*
X052850Y023227D02*
X051180Y023227D01*
X050390Y022890D02*
X050140Y022890D01*
X049515Y023515D01*
X049515Y030890D01*
X047890Y032515D01*
X048265Y032890D01*
X048265Y037640D01*
X047890Y038015D01*
X046015Y038015D01*
X045515Y038515D01*
X044390Y038515D01*
X044390Y037515D02*
X043765Y037515D01*
X043265Y037015D01*
X043265Y035515D01*
X043765Y035015D01*
X044890Y035015D01*
X045390Y034515D01*
X045390Y032390D01*
X046265Y031515D01*
X047390Y031515D01*
X047390Y030515D02*
X046265Y030515D01*
X045765Y031015D01*
X043765Y031015D01*
X043265Y030515D01*
X043666Y030110D02*
X043719Y030057D01*
X043796Y030002D01*
X043880Y029959D01*
X043969Y029930D01*
X044063Y029915D01*
X044390Y029915D01*
X044717Y029915D01*
X044810Y029930D01*
X044900Y029959D01*
X044984Y030002D01*
X045061Y030057D01*
X045128Y030124D01*
X045183Y030201D01*
X046013Y030201D01*
X046038Y030176D02*
X045599Y030615D01*
X045262Y030615D01*
X045270Y030562D01*
X045270Y030515D01*
X044390Y030515D01*
X044390Y030515D01*
X045270Y030515D01*
X045270Y030468D01*
X045255Y030374D01*
X045226Y030285D01*
X045183Y030201D01*
X045250Y030360D02*
X045855Y030360D01*
X045696Y030518D02*
X045270Y030518D01*
X045040Y030043D02*
X046734Y030043D01*
X046770Y030006D02*
X046991Y029915D01*
X047789Y029915D01*
X047885Y029955D01*
X048740Y029099D01*
X048740Y028210D01*
X048527Y028210D01*
X048317Y028123D01*
X048234Y028040D01*
X042046Y028040D01*
X041963Y028123D01*
X041753Y028210D01*
X041527Y028210D01*
X041317Y028123D01*
X041157Y027963D01*
X041070Y027753D01*
X041070Y027527D01*
X041152Y027328D01*
X041070Y027128D01*
X041070Y026902D01*
X041152Y026702D01*
X041070Y026503D01*
X041070Y026277D01*
X041152Y026077D01*
X041070Y025878D01*
X041070Y025652D01*
X041157Y025442D01*
X041317Y025282D01*
X041366Y025261D01*
X041288Y025229D01*
X041210Y025151D01*
X041183Y025204D01*
X041128Y025281D01*
X041061Y025348D01*
X040984Y025403D01*
X040900Y025446D01*
X040810Y025475D01*
X040717Y025490D01*
X040390Y025490D01*
X040390Y024890D01*
X040390Y024890D01*
X040390Y025490D01*
X040063Y025490D01*
X039969Y025475D01*
X039880Y025446D01*
X039796Y025403D01*
X039790Y025399D01*
X039790Y028974D01*
X040229Y029413D01*
X040290Y029560D01*
X040290Y032724D01*
X041681Y034115D01*
X041815Y034115D01*
X041777Y034064D01*
X041737Y033984D01*
X041709Y033898D01*
X041695Y033810D01*
X041695Y033765D01*
X042265Y033765D01*
X042835Y033765D01*
X042835Y033810D01*
X042821Y033898D01*
X042793Y033984D01*
X042753Y034064D01*
X042715Y034115D01*
X043661Y034115D01*
X043761Y034015D01*
X043601Y033855D01*
X043510Y033634D01*
X043510Y033396D01*
X043601Y033175D01*
X043768Y033008D01*
X043719Y032973D01*
X043652Y032906D01*
X043597Y032829D01*
X043554Y032745D01*
X043525Y032655D01*
X043510Y032562D01*
X043510Y032515D01*
X044390Y032515D01*
X044390Y032515D01*
X043510Y032515D01*
X043510Y032468D01*
X043525Y032374D01*
X043554Y032285D01*
X043597Y032201D01*
X043652Y032124D01*
X043719Y032057D01*
X043768Y032022D01*
X043601Y031855D01*
X043510Y031634D01*
X043510Y031396D01*
X043530Y031346D01*
X043269Y031085D01*
X043152Y031085D01*
X042942Y030998D01*
X042782Y030838D01*
X042695Y030628D01*
X042695Y030402D01*
X042782Y030192D01*
X042942Y030032D01*
X043152Y029945D01*
X043378Y029945D01*
X043588Y030032D01*
X043666Y030110D01*
X043599Y030043D02*
X043740Y030043D01*
X044390Y030043D02*
X044390Y030043D01*
X044390Y029915D02*
X044390Y030515D01*
X044390Y030515D01*
X044390Y029915D01*
X044390Y030201D02*
X044390Y030201D01*
X044390Y030360D02*
X044390Y030360D01*
X043495Y031311D02*
X040290Y031311D01*
X040290Y031469D02*
X043510Y031469D01*
X043510Y031628D02*
X040290Y031628D01*
X040290Y031786D02*
X043573Y031786D01*
X043691Y031945D02*
X040290Y031945D01*
X040290Y032103D02*
X043673Y032103D01*
X043566Y032262D02*
X040290Y032262D01*
X040290Y032420D02*
X043518Y032420D01*
X043513Y032579D02*
X040290Y032579D01*
X040303Y032737D02*
X043551Y032737D01*
X043645Y032896D02*
X040461Y032896D01*
X040620Y033054D02*
X043722Y033054D01*
X043586Y033213D02*
X042409Y033213D01*
X042398Y033209D02*
X042484Y033237D01*
X042564Y033277D01*
X042636Y033330D01*
X042700Y033394D01*
X042753Y033466D01*
X042793Y033546D01*
X042821Y033632D01*
X042835Y033720D01*
X042835Y033765D01*
X042265Y033765D01*
X042265Y033765D01*
X042265Y033195D01*
X042310Y033195D01*
X042398Y033209D01*
X042265Y033213D02*
X042265Y033213D01*
X042265Y033195D02*
X042265Y033765D01*
X042265Y033765D01*
X042265Y033765D01*
X041695Y033765D01*
X041695Y033720D01*
X041709Y033632D01*
X041737Y033546D01*
X041777Y033466D01*
X041830Y033394D01*
X041894Y033330D01*
X041966Y033277D01*
X042046Y033237D01*
X042132Y033209D01*
X042220Y033195D01*
X042265Y033195D01*
X042121Y033213D02*
X040778Y033213D01*
X040937Y033371D02*
X041853Y033371D01*
X041745Y033530D02*
X041095Y033530D01*
X041254Y033688D02*
X041700Y033688D01*
X041701Y033847D02*
X041412Y033847D01*
X041571Y034005D02*
X041748Y034005D01*
X041515Y034515D02*
X044390Y034515D01*
X043752Y034005D02*
X042782Y034005D01*
X042829Y033847D02*
X043598Y033847D01*
X043532Y033688D02*
X042830Y033688D01*
X042785Y033530D02*
X043510Y033530D01*
X043520Y033371D02*
X042677Y033371D01*
X042265Y033371D02*
X042265Y033371D01*
X042265Y033530D02*
X042265Y033530D01*
X042265Y033688D02*
X042265Y033688D01*
X041515Y034515D02*
X039890Y032890D01*
X039890Y029640D01*
X039390Y029140D01*
X039390Y024765D01*
X039765Y024390D01*
X041015Y024390D01*
X041515Y024890D01*
X044390Y024890D01*
X044390Y022890D02*
X046390Y022890D01*
X047890Y021390D01*
X051390Y021390D01*
X051914Y021167D02*
X052601Y021167D01*
X052442Y021008D02*
X051814Y021008D01*
X051575Y020850D02*
X052284Y020850D01*
X052390Y020390D02*
X047890Y020390D01*
X047390Y020890D01*
X044390Y020890D01*
X042890Y021390D02*
X047390Y021390D01*
X047890Y020890D01*
X050390Y020890D01*
X050390Y021890D02*
X049890Y021890D01*
X049140Y022640D01*
X049140Y029265D01*
X047890Y030515D01*
X047390Y030515D01*
X046770Y030006D02*
X046661Y030115D01*
X046185Y030115D01*
X046038Y030176D01*
X047955Y029884D02*
X040290Y029884D01*
X040290Y029726D02*
X048114Y029726D01*
X048272Y029567D02*
X040290Y029567D01*
X040224Y029409D02*
X048431Y029409D01*
X048589Y029250D02*
X040066Y029250D01*
X039907Y029092D02*
X048740Y029092D01*
X048740Y028933D02*
X039790Y028933D01*
X039790Y028775D02*
X048740Y028775D01*
X048740Y028616D02*
X039790Y028616D01*
X039790Y028458D02*
X048740Y028458D01*
X048740Y028299D02*
X039790Y028299D01*
X039790Y028141D02*
X041359Y028141D01*
X041176Y027982D02*
X039790Y027982D01*
X039790Y027824D02*
X041099Y027824D01*
X041070Y027665D02*
X039790Y027665D01*
X039790Y027507D02*
X041078Y027507D01*
X041144Y027348D02*
X039790Y027348D01*
X039790Y027190D02*
X041095Y027190D01*
X041070Y027031D02*
X039790Y027031D01*
X039790Y026873D02*
X041082Y026873D01*
X041148Y026714D02*
X039790Y026714D01*
X039790Y026556D02*
X041092Y026556D01*
X041070Y026397D02*
X039790Y026397D01*
X039790Y026239D02*
X041086Y026239D01*
X041151Y026080D02*
X039790Y026080D01*
X039790Y025922D02*
X041088Y025922D01*
X041070Y025763D02*
X039790Y025763D01*
X039790Y025605D02*
X041090Y025605D01*
X041155Y025446D02*
X040900Y025446D01*
X041121Y025288D02*
X041311Y025288D01*
X041640Y025765D02*
X048640Y025765D01*
X048640Y026390D02*
X041640Y026390D01*
X041640Y027015D02*
X048640Y027015D01*
X048640Y027640D02*
X041640Y027640D01*
X041921Y028141D02*
X048359Y028141D01*
X049915Y028141D02*
X066502Y028141D01*
X066502Y028299D02*
X049915Y028299D01*
X049915Y028458D02*
X066502Y028458D01*
X066502Y028616D02*
X049915Y028616D01*
X049915Y028775D02*
X066502Y028775D01*
X066502Y028933D02*
X049915Y028933D01*
X049915Y029092D02*
X066502Y029092D01*
X066502Y029250D02*
X049915Y029250D01*
X049915Y029409D02*
X066502Y029409D01*
X066502Y029567D02*
X049915Y029567D01*
X049915Y029726D02*
X066502Y029726D01*
X066502Y029884D02*
X049915Y029884D01*
X049915Y030043D02*
X050115Y030043D01*
X050765Y030043D02*
X050765Y030043D01*
X050765Y029915D02*
X050765Y030515D01*
X051645Y030515D01*
X051645Y030562D01*
X051630Y030655D01*
X051601Y030745D01*
X051558Y030829D01*
X051503Y030906D01*
X051436Y030973D01*
X051387Y031008D01*
X051554Y031175D01*
X051645Y031396D01*
X051645Y031634D01*
X051554Y031855D01*
X051394Y032015D01*
X051554Y032175D01*
X051645Y032396D01*
X051645Y032634D01*
X051554Y032855D01*
X051394Y033015D01*
X051494Y033115D01*
X051724Y033115D01*
X052163Y032676D01*
X052310Y032615D01*
X052893Y032615D01*
X052885Y032562D01*
X052885Y032515D01*
X053765Y032515D01*
X053765Y032515D01*
X053765Y032515D01*
X054645Y032515D01*
X054645Y032468D01*
X054630Y032374D01*
X054601Y032285D01*
X054558Y032201D01*
X054503Y032124D01*
X054436Y032057D01*
X054378Y032015D01*
X054436Y031973D01*
X054503Y031906D01*
X054558Y031829D01*
X054601Y031745D01*
X054630Y031655D01*
X054645Y031562D01*
X054645Y031515D01*
X053765Y031515D01*
X053765Y031515D01*
X053765Y032515D01*
X053765Y032515D01*
X052885Y032515D01*
X052885Y032468D01*
X052900Y032374D01*
X052929Y032285D01*
X052972Y032201D01*
X053027Y032124D01*
X053094Y032057D01*
X053152Y032015D01*
X053094Y031973D01*
X053027Y031906D01*
X052972Y031829D01*
X052929Y031745D01*
X052900Y031655D01*
X052885Y031562D01*
X052885Y031515D01*
X053765Y031515D01*
X054645Y031515D01*
X054645Y031468D01*
X054630Y031374D01*
X054601Y031285D01*
X054558Y031201D01*
X054503Y031124D01*
X054436Y031057D01*
X054387Y031022D01*
X054554Y030855D01*
X054645Y030634D01*
X054645Y030396D01*
X054554Y030175D01*
X054385Y030006D01*
X054164Y029915D01*
X053366Y029915D01*
X053145Y030006D01*
X052976Y030175D01*
X053109Y030043D02*
X051415Y030043D01*
X051558Y030201D02*
X051601Y030285D01*
X051630Y030374D01*
X051645Y030468D01*
X051645Y030515D01*
X050765Y030515D01*
X050765Y030515D01*
X050765Y030515D01*
X050765Y029915D01*
X050765Y030201D02*
X050765Y030201D01*
X050765Y030360D02*
X050765Y030360D01*
X051625Y030360D02*
X052900Y030360D01*
X052885Y030518D02*
X051645Y030518D01*
X051623Y030677D02*
X052902Y030677D01*
X052968Y030835D02*
X051554Y030835D01*
X051407Y030994D02*
X053115Y030994D01*
X053007Y031152D02*
X051531Y031152D01*
X051610Y031311D02*
X052921Y031311D01*
X052885Y031469D02*
X051645Y031469D01*
X051645Y031628D02*
X052895Y031628D01*
X052950Y031786D02*
X051582Y031786D01*
X051464Y031945D02*
X053066Y031945D01*
X053048Y032103D02*
X051482Y032103D01*
X051589Y032262D02*
X052941Y032262D01*
X052893Y032420D02*
X051645Y032420D01*
X051645Y032579D02*
X052888Y032579D01*
X052390Y033015D02*
X051890Y033515D01*
X050765Y033515D01*
X051394Y034015D02*
X051554Y034175D01*
X051645Y034396D01*
X051645Y034634D01*
X051554Y034855D01*
X051394Y035015D01*
X051494Y035115D01*
X051724Y035115D01*
X052051Y034788D01*
X052163Y034676D01*
X052310Y034615D01*
X052893Y034615D01*
X052885Y034562D01*
X052885Y034515D01*
X053765Y034515D01*
X054645Y034515D01*
X054645Y034562D01*
X054637Y034615D01*
X056268Y034615D01*
X056260Y034562D01*
X056260Y034515D01*
X057140Y034515D01*
X057140Y034515D01*
X056260Y034515D01*
X056260Y034468D01*
X056275Y034374D01*
X056304Y034285D01*
X056347Y034201D01*
X056402Y034124D01*
X056469Y034057D01*
X056518Y034022D01*
X056351Y033855D01*
X056260Y033634D01*
X056260Y033396D01*
X056351Y033175D01*
X056511Y033015D01*
X056421Y032925D01*
X056104Y033242D01*
X055992Y033354D01*
X055845Y033415D01*
X054645Y033415D01*
X054645Y033634D01*
X054554Y033855D01*
X054387Y034022D01*
X054436Y034057D01*
X054503Y034124D01*
X054558Y034201D01*
X054601Y034285D01*
X054630Y034374D01*
X054645Y034468D01*
X054645Y034515D01*
X053765Y034515D01*
X053765Y034515D01*
X053765Y034515D01*
X052885Y034515D01*
X052885Y034468D01*
X052900Y034374D01*
X052929Y034285D01*
X052972Y034201D01*
X053027Y034124D01*
X053094Y034057D01*
X053143Y034022D01*
X052976Y033855D01*
X052885Y033634D01*
X052885Y033415D01*
X052556Y033415D01*
X052229Y033742D01*
X052117Y033854D01*
X051970Y033915D01*
X051494Y033915D01*
X051394Y034015D01*
X051403Y034005D02*
X053127Y034005D01*
X052999Y034164D02*
X051542Y034164D01*
X051615Y034322D02*
X052917Y034322D01*
X052885Y034481D02*
X051645Y034481D01*
X051643Y034639D02*
X052252Y034639D01*
X052042Y034798D02*
X051577Y034798D01*
X051452Y034956D02*
X051883Y034956D01*
X051725Y035115D02*
X051493Y035115D01*
X051890Y035515D02*
X050765Y035515D01*
X051444Y036066D02*
X053086Y036066D01*
X053029Y035907D02*
X051989Y035907D01*
X052222Y035749D02*
X052931Y035749D01*
X052889Y035590D02*
X052381Y035590D01*
X052539Y035432D02*
X052891Y035432D01*
X052390Y035015D02*
X057640Y035015D01*
X058015Y034640D01*
X058015Y031890D01*
X057640Y031515D01*
X057140Y031515D01*
X056441Y031945D02*
X054464Y031945D01*
X054482Y032103D02*
X056423Y032103D01*
X056323Y031786D02*
X054580Y031786D01*
X054635Y031628D02*
X056260Y031628D01*
X056260Y031469D02*
X054645Y031469D01*
X054609Y031311D02*
X056295Y031311D01*
X056374Y031152D02*
X054523Y031152D01*
X054415Y030994D02*
X056498Y030994D01*
X056351Y030835D02*
X054562Y030835D01*
X054628Y030677D02*
X056282Y030677D01*
X056260Y030518D02*
X054645Y030518D01*
X054630Y030360D02*
X056280Y030360D01*
X056275Y030374D02*
X056304Y030285D01*
X056347Y030201D01*
X054564Y030201D01*
X054421Y030043D02*
X056490Y030043D01*
X056469Y030057D02*
X056546Y030002D01*
X056630Y029959D01*
X056719Y029930D01*
X056813Y029915D01*
X057140Y029915D01*
X057467Y029915D01*
X057560Y029930D01*
X057650Y029959D01*
X057734Y030002D01*
X057811Y030057D01*
X057878Y030124D01*
X057933Y030201D01*
X059341Y030201D01*
X059351Y030175D02*
X059260Y030396D01*
X059260Y030634D01*
X059351Y030855D01*
X059518Y031022D01*
X059469Y031057D01*
X059402Y031124D01*
X059347Y031201D01*
X059304Y031285D01*
X059275Y031374D01*
X059260Y031468D01*
X059260Y031515D01*
X060140Y031515D01*
X061020Y031515D01*
X061020Y031562D01*
X061005Y031655D01*
X060976Y031745D01*
X060933Y031829D01*
X060878Y031906D01*
X060811Y031973D01*
X060762Y032008D01*
X060929Y032175D01*
X061020Y032396D01*
X061020Y032634D01*
X060929Y032855D01*
X060762Y033022D01*
X060811Y033057D01*
X060878Y033124D01*
X060933Y033201D01*
X060976Y033285D01*
X061005Y033374D01*
X061020Y033468D01*
X061020Y033515D01*
X061020Y033562D01*
X061005Y033655D01*
X060976Y033745D01*
X060933Y033829D01*
X060878Y033906D01*
X060811Y033973D01*
X060762Y034008D01*
X060929Y034175D01*
X061020Y034396D01*
X061020Y034634D01*
X060929Y034855D01*
X060762Y035022D01*
X060811Y035057D01*
X060878Y035124D01*
X060933Y035201D01*
X060976Y035285D01*
X061005Y035374D01*
X061020Y035468D01*
X061020Y035515D01*
X061020Y035562D01*
X061005Y035655D01*
X060976Y035745D01*
X060933Y035829D01*
X060878Y035906D01*
X060811Y035973D01*
X060762Y036008D01*
X060929Y036175D01*
X061020Y036396D01*
X061020Y036634D01*
X060929Y036855D01*
X060760Y037024D01*
X060620Y037082D01*
X060620Y037771D01*
X060740Y037891D01*
X060740Y038389D01*
X060389Y038740D01*
X059891Y038740D01*
X059540Y038389D01*
X059540Y037891D01*
X059660Y037771D01*
X059660Y037082D01*
X059520Y037024D01*
X059351Y036855D01*
X059260Y036634D01*
X059260Y036396D01*
X059351Y036175D01*
X059518Y036008D01*
X059469Y035973D01*
X059402Y035906D01*
X059347Y035829D01*
X059304Y035745D01*
X059275Y035655D01*
X059260Y035562D01*
X059260Y035515D01*
X060140Y035515D01*
X061020Y035515D01*
X060140Y035515D01*
X060140Y035515D01*
X060140Y035515D01*
X059260Y035515D01*
X059260Y035468D01*
X059275Y035374D01*
X059304Y035285D01*
X059347Y035201D01*
X059402Y035124D01*
X059469Y035057D01*
X059518Y035022D01*
X059351Y034855D01*
X059260Y034634D01*
X059260Y034396D01*
X059351Y034175D01*
X059518Y034008D01*
X059469Y033973D01*
X059402Y033906D01*
X059347Y033829D01*
X059304Y033745D01*
X059275Y033655D01*
X059260Y033562D01*
X059260Y033515D01*
X060140Y033515D01*
X061020Y033515D01*
X060140Y033515D01*
X060140Y033515D01*
X060140Y033515D01*
X059260Y033515D01*
X059260Y033468D01*
X059275Y033374D01*
X059304Y033285D01*
X059347Y033201D01*
X059402Y033124D01*
X059469Y033057D01*
X059518Y033022D01*
X059351Y032855D01*
X059260Y032634D01*
X059260Y032396D01*
X059351Y032175D01*
X059518Y032008D01*
X059469Y031973D01*
X059402Y031906D01*
X059347Y031829D01*
X059304Y031745D01*
X059275Y031655D01*
X059260Y031562D01*
X059260Y031515D01*
X060140Y031515D01*
X060140Y031515D01*
X060140Y031515D01*
X061020Y031515D01*
X061020Y031468D01*
X061005Y031374D01*
X060976Y031285D01*
X060933Y031201D01*
X060878Y031124D01*
X060811Y031057D01*
X060762Y031022D01*
X060929Y030855D01*
X061020Y030634D01*
X061020Y030396D01*
X060929Y030175D01*
X060760Y030006D01*
X060539Y029915D01*
X059741Y029915D01*
X059520Y030006D01*
X059351Y030175D01*
X059484Y030043D02*
X057790Y030043D01*
X057933Y030201D02*
X057976Y030285D01*
X058005Y030374D01*
X058020Y030468D01*
X058020Y030515D01*
X057140Y030515D01*
X057140Y030515D01*
X057140Y029915D01*
X057140Y030515D01*
X057140Y030515D01*
X057140Y030515D01*
X056260Y030515D01*
X056260Y030468D01*
X056275Y030374D01*
X056347Y030201D02*
X056402Y030124D01*
X056469Y030057D01*
X057140Y030043D02*
X057140Y030043D01*
X057140Y030201D02*
X057140Y030201D01*
X057140Y030360D02*
X057140Y030360D01*
X058000Y030360D02*
X059275Y030360D01*
X059260Y030518D02*
X058020Y030518D01*
X057998Y030677D02*
X059277Y030677D01*
X059343Y030835D02*
X057929Y030835D01*
X057782Y030994D02*
X059490Y030994D01*
X059382Y031152D02*
X057906Y031152D01*
X058001Y031311D02*
X059296Y031311D01*
X059260Y031469D02*
X058160Y031469D01*
X058318Y031628D02*
X059270Y031628D01*
X059325Y031786D02*
X058405Y031786D01*
X058415Y031945D02*
X059441Y031945D01*
X059423Y032103D02*
X058415Y032103D01*
X058415Y032262D02*
X059316Y032262D01*
X059260Y032420D02*
X058415Y032420D01*
X058415Y032579D02*
X059260Y032579D01*
X059303Y032737D02*
X058415Y032737D01*
X058415Y032896D02*
X059392Y032896D01*
X059474Y033054D02*
X058415Y033054D01*
X058415Y033213D02*
X059341Y033213D01*
X059276Y033371D02*
X058415Y033371D01*
X058415Y033530D02*
X059260Y033530D01*
X059285Y033688D02*
X058415Y033688D01*
X058415Y033847D02*
X059359Y033847D01*
X059514Y034005D02*
X058415Y034005D01*
X058415Y034164D02*
X059363Y034164D01*
X059290Y034322D02*
X058415Y034322D01*
X058415Y034481D02*
X059260Y034481D01*
X059262Y034639D02*
X058415Y034639D01*
X058383Y034798D02*
X059328Y034798D01*
X059453Y034956D02*
X058265Y034956D01*
X058106Y035115D02*
X059412Y035115D01*
X059310Y035273D02*
X057969Y035273D01*
X058020Y035432D02*
X059266Y035432D01*
X059264Y035590D02*
X058020Y035590D01*
X057973Y035749D02*
X059306Y035749D01*
X059404Y035907D02*
X057876Y035907D01*
X057819Y036066D02*
X059461Y036066D01*
X059331Y036224D02*
X057945Y036224D01*
X058006Y036383D02*
X059265Y036383D01*
X059260Y036541D02*
X058020Y036541D01*
X057991Y036700D02*
X059287Y036700D01*
X059355Y036858D02*
X057912Y036858D01*
X057750Y037017D02*
X059513Y037017D01*
X059660Y037175D02*
X054245Y037175D01*
X054245Y037334D02*
X059660Y037334D01*
X059660Y037492D02*
X054245Y037492D01*
X054245Y037651D02*
X057781Y037651D01*
X057891Y037540D02*
X058140Y037540D01*
X058389Y037540D01*
X058740Y037891D01*
X058740Y038140D01*
X058740Y038389D01*
X058389Y038740D01*
X058140Y038740D01*
X058140Y038140D01*
X058740Y038140D01*
X058140Y038140D01*
X058140Y038140D01*
X058140Y038140D01*
X058140Y037540D01*
X058140Y038140D01*
X058140Y038140D01*
X058140Y038140D01*
X057540Y038140D01*
X057540Y038389D01*
X057891Y038740D01*
X058140Y038740D01*
X058140Y038140D01*
X057540Y038140D01*
X057540Y037891D01*
X057891Y037540D01*
X058140Y037651D02*
X058140Y037651D01*
X058140Y037809D02*
X058140Y037809D01*
X058140Y037968D02*
X058140Y037968D01*
X058140Y038126D02*
X058140Y038126D01*
X058140Y038285D02*
X058140Y038285D01*
X058140Y038443D02*
X058140Y038443D01*
X058140Y038602D02*
X058140Y038602D01*
X058527Y038602D02*
X059753Y038602D01*
X059595Y038443D02*
X058685Y038443D01*
X058740Y038285D02*
X059540Y038285D01*
X059540Y038126D02*
X058740Y038126D01*
X058740Y037968D02*
X059540Y037968D01*
X059622Y037809D02*
X058658Y037809D01*
X058499Y037651D02*
X059660Y037651D01*
X060620Y037651D02*
X066502Y037651D01*
X066502Y037809D02*
X060658Y037809D01*
X060740Y037968D02*
X066502Y037968D01*
X066502Y038126D02*
X060740Y038126D01*
X060740Y038285D02*
X066502Y038285D01*
X066502Y038443D02*
X060685Y038443D01*
X060527Y038602D02*
X066502Y038602D01*
X066502Y038760D02*
X048218Y038760D01*
X048270Y038602D02*
X051378Y038602D01*
X051516Y038740D02*
X051165Y038389D01*
X051165Y038140D01*
X051765Y038140D01*
X052365Y038140D01*
X052365Y038389D01*
X052014Y038740D01*
X051765Y038740D01*
X051765Y038140D01*
X051765Y038140D01*
X051765Y038140D01*
X052365Y038140D01*
X052365Y037891D01*
X052014Y037540D01*
X051765Y037540D01*
X051765Y038140D01*
X051765Y038140D01*
X051765Y038140D01*
X051765Y038740D01*
X051516Y038740D01*
X051765Y038602D02*
X051765Y038602D01*
X051765Y038443D02*
X051765Y038443D01*
X051765Y038285D02*
X051765Y038285D01*
X051765Y038140D02*
X051165Y038140D01*
X051165Y037891D01*
X051516Y037540D01*
X051765Y037540D01*
X051765Y038140D01*
X051765Y038126D02*
X051765Y038126D01*
X051765Y037968D02*
X051765Y037968D01*
X051765Y037809D02*
X051765Y037809D01*
X051765Y037651D02*
X051765Y037651D01*
X052124Y037651D02*
X053285Y037651D01*
X053285Y037492D02*
X048665Y037492D01*
X048665Y037334D02*
X053285Y037334D01*
X053285Y037175D02*
X048665Y037175D01*
X048665Y037017D02*
X050138Y037017D01*
X049980Y036858D02*
X048665Y036858D01*
X048665Y036700D02*
X049912Y036700D01*
X049850Y036541D02*
X048665Y036541D01*
X048665Y036383D02*
X049692Y036383D01*
X049617Y036224D02*
X048665Y036224D01*
X048665Y036066D02*
X049615Y036066D01*
X049615Y035907D02*
X048665Y035907D01*
X048665Y035749D02*
X049615Y035749D01*
X049615Y035590D02*
X048665Y035590D01*
X048665Y035432D02*
X049615Y035432D01*
X049615Y035273D02*
X048665Y035273D01*
X048665Y035115D02*
X049615Y035115D01*
X049615Y034956D02*
X048665Y034956D01*
X048665Y034798D02*
X049615Y034798D01*
X049615Y034639D02*
X048665Y034639D01*
X048665Y034481D02*
X049615Y034481D01*
X049615Y034322D02*
X048665Y034322D01*
X048665Y034164D02*
X049615Y034164D01*
X049615Y034005D02*
X048665Y034005D01*
X048665Y033847D02*
X049615Y033847D01*
X049615Y033688D02*
X048665Y033688D01*
X048665Y033530D02*
X049615Y033530D01*
X049615Y033371D02*
X048665Y033371D01*
X048665Y033213D02*
X049615Y033213D01*
X049615Y033054D02*
X048665Y033054D01*
X048665Y032896D02*
X049615Y032896D01*
X049645Y032737D02*
X048635Y032737D01*
X048519Y032579D02*
X049761Y032579D01*
X049885Y032420D02*
X048551Y032420D01*
X048709Y032262D02*
X049941Y032262D01*
X050048Y032103D02*
X048868Y032103D01*
X049026Y031945D02*
X050066Y031945D01*
X049948Y031786D02*
X049185Y031786D01*
X049343Y031628D02*
X049885Y031628D01*
X049885Y031469D02*
X049502Y031469D01*
X049660Y031311D02*
X049920Y031311D01*
X049999Y031152D02*
X049819Y031152D01*
X049905Y030994D02*
X050123Y030994D01*
X049976Y030835D02*
X049915Y030835D01*
X050390Y032515D02*
X050015Y032890D01*
X050015Y036140D01*
X050390Y036515D01*
X050765Y036515D01*
X051392Y037017D02*
X053138Y037017D01*
X052980Y036858D02*
X051550Y036858D01*
X051618Y036700D02*
X052912Y036700D01*
X052885Y036541D02*
X051645Y036541D01*
X051640Y036383D02*
X052890Y036383D01*
X052956Y036224D02*
X051574Y036224D01*
X051890Y035515D02*
X052390Y035015D01*
X052124Y033847D02*
X052973Y033847D01*
X052907Y033688D02*
X052283Y033688D01*
X052441Y033530D02*
X052885Y033530D01*
X052390Y033015D02*
X055765Y033015D01*
X056265Y032515D01*
X057140Y032515D01*
X056472Y033054D02*
X056292Y033054D01*
X056336Y033213D02*
X056133Y033213D01*
X056270Y033371D02*
X055951Y033371D01*
X056260Y033530D02*
X054645Y033530D01*
X054623Y033688D02*
X056282Y033688D01*
X056348Y033847D02*
X054557Y033847D01*
X054403Y034005D02*
X056502Y034005D01*
X056374Y034164D02*
X054531Y034164D01*
X054613Y034322D02*
X056292Y034322D01*
X056260Y034481D02*
X054645Y034481D01*
X054639Y035432D02*
X056260Y035432D01*
X056260Y035590D02*
X054641Y035590D01*
X054599Y035749D02*
X056307Y035749D01*
X056404Y035907D02*
X054501Y035907D01*
X054444Y036066D02*
X056461Y036066D01*
X056335Y036224D02*
X054574Y036224D01*
X054640Y036383D02*
X056273Y036383D01*
X056260Y036541D02*
X054645Y036541D01*
X054618Y036700D02*
X056289Y036700D01*
X056368Y036858D02*
X054550Y036858D01*
X054392Y037017D02*
X056530Y037017D01*
X057140Y037017D02*
X057140Y037017D01*
X057140Y036858D02*
X057140Y036858D01*
X057140Y036700D02*
X057140Y036700D01*
X057140Y036541D02*
X057140Y036541D01*
X057622Y037809D02*
X054283Y037809D01*
X054365Y037968D02*
X057540Y037968D01*
X057540Y038126D02*
X054365Y038126D01*
X054365Y038285D02*
X057540Y038285D01*
X057595Y038443D02*
X054310Y038443D01*
X054152Y038602D02*
X057753Y038602D01*
X058947Y039553D02*
X048270Y039553D01*
X048269Y039394D02*
X066502Y039394D01*
X066502Y039236D02*
X048204Y039236D01*
X048081Y039077D02*
X066502Y039077D01*
X066502Y038919D02*
X048115Y038919D01*
X048270Y038443D02*
X051220Y038443D01*
X051165Y038285D02*
X048224Y038285D01*
X048345Y038126D02*
X051165Y038126D01*
X051165Y037968D02*
X048503Y037968D01*
X048628Y037809D02*
X051247Y037809D01*
X051406Y037651D02*
X048665Y037651D01*
X047390Y038515D02*
X046015Y038515D01*
X045515Y039015D01*
X040890Y039015D01*
X040390Y038515D01*
X037390Y038515D01*
X035890Y038515D01*
X035390Y039015D01*
X030765Y039015D01*
X030265Y038515D01*
X027390Y038515D01*
X025890Y038515D01*
X025390Y039015D01*
X023265Y039015D01*
X022739Y039236D02*
X020916Y039236D01*
X020960Y039077D02*
X022695Y039077D01*
X022695Y038919D02*
X020960Y038919D01*
X020901Y038760D02*
X022754Y038760D01*
X022872Y038602D02*
X020783Y038602D01*
X020384Y038443D02*
X023510Y038443D01*
X024390Y038515D02*
X025390Y038515D01*
X025890Y038015D01*
X028140Y038015D01*
X028640Y037515D01*
X028640Y033265D01*
X027890Y032515D01*
X027390Y032515D01*
X027890Y032515D02*
X029140Y031265D01*
X029140Y029890D01*
X028765Y029515D01*
X028765Y024015D01*
X029890Y022890D01*
X030390Y022890D01*
X030390Y021890D02*
X029890Y021890D01*
X028390Y023390D01*
X028390Y030015D01*
X027890Y030515D01*
X027390Y030515D01*
X026265Y030515D01*
X025765Y031015D01*
X023765Y031015D01*
X023265Y030515D01*
X023666Y030110D02*
X023719Y030057D01*
X023796Y030002D01*
X023880Y029959D01*
X023969Y029930D01*
X024063Y029915D01*
X024390Y029915D01*
X024717Y029915D01*
X024810Y029930D01*
X024900Y029959D01*
X024984Y030002D01*
X025061Y030057D01*
X025128Y030124D01*
X025183Y030201D01*
X026013Y030201D01*
X026038Y030176D02*
X025599Y030615D01*
X025262Y030615D01*
X025270Y030562D01*
X025270Y030515D01*
X024390Y030515D01*
X024390Y030515D01*
X025270Y030515D01*
X025270Y030468D01*
X025255Y030374D01*
X025226Y030285D01*
X025183Y030201D01*
X025250Y030360D02*
X025855Y030360D01*
X025696Y030518D02*
X025270Y030518D01*
X025040Y030043D02*
X026734Y030043D01*
X026770Y030006D02*
X026991Y029915D01*
X027789Y029915D01*
X027885Y029955D01*
X027990Y029849D01*
X027990Y023706D01*
X027950Y023761D01*
X027886Y023825D01*
X027814Y023878D01*
X027734Y023918D01*
X027648Y023946D01*
X027560Y023960D01*
X027515Y023960D01*
X027515Y023390D01*
X027515Y023390D01*
X027515Y023960D01*
X027470Y023960D01*
X027382Y023946D01*
X027296Y023918D01*
X027216Y023878D01*
X027144Y023825D01*
X027080Y023761D01*
X027027Y023689D01*
X026987Y023609D01*
X026959Y023523D01*
X026945Y023435D01*
X026945Y023390D01*
X027515Y023390D01*
X027515Y022820D01*
X027560Y022820D01*
X027648Y022834D01*
X027734Y022862D01*
X027814Y022902D01*
X027886Y022955D01*
X027950Y023019D01*
X028003Y023091D01*
X028043Y023171D01*
X028045Y023177D01*
X028051Y023163D01*
X029424Y021790D01*
X028306Y021790D01*
X025367Y024729D01*
X025269Y024769D01*
X025270Y024771D01*
X025270Y025009D01*
X025179Y025230D01*
X025010Y025399D01*
X024789Y025490D01*
X023991Y025490D01*
X023984Y025487D01*
X023165Y026306D01*
X023165Y029945D01*
X023378Y029945D01*
X023588Y030032D01*
X023666Y030110D01*
X023599Y030043D02*
X023740Y030043D01*
X023165Y029884D02*
X027955Y029884D01*
X027990Y029726D02*
X023165Y029726D01*
X023165Y029567D02*
X027990Y029567D01*
X027990Y029409D02*
X023165Y029409D01*
X023165Y029250D02*
X027990Y029250D01*
X027990Y029092D02*
X023165Y029092D01*
X023165Y028933D02*
X027990Y028933D01*
X027990Y028775D02*
X023165Y028775D01*
X023165Y028616D02*
X027990Y028616D01*
X027990Y028458D02*
X023165Y028458D01*
X023165Y028299D02*
X027990Y028299D01*
X027990Y028141D02*
X023165Y028141D01*
X023165Y027982D02*
X027990Y027982D01*
X027990Y027824D02*
X023165Y027824D01*
X023165Y027665D02*
X027990Y027665D01*
X027990Y027507D02*
X023165Y027507D01*
X023165Y027348D02*
X027990Y027348D01*
X027990Y027190D02*
X023165Y027190D01*
X023165Y027031D02*
X027990Y027031D01*
X027990Y026873D02*
X023165Y026873D01*
X023165Y026714D02*
X027990Y026714D01*
X027990Y026556D02*
X023165Y026556D01*
X023165Y026397D02*
X027990Y026397D01*
X027990Y026239D02*
X023232Y026239D01*
X023391Y026080D02*
X027990Y026080D01*
X027990Y025922D02*
X023549Y025922D01*
X023708Y025763D02*
X027990Y025763D01*
X027990Y025605D02*
X023866Y025605D01*
X024015Y024890D02*
X022765Y026140D01*
X022765Y033390D01*
X023890Y034515D01*
X024390Y034515D01*
X024890Y034515D01*
X026890Y036515D01*
X027390Y036515D01*
X027890Y037015D02*
X025890Y037015D01*
X025390Y037515D01*
X024390Y037515D01*
X025390Y038015D02*
X021890Y038015D01*
X021140Y037265D01*
X021140Y031515D01*
X021540Y031921D02*
X021540Y031991D01*
X021652Y031945D01*
X021878Y031945D01*
X021990Y031991D01*
X021990Y025685D01*
X022051Y025538D01*
X023426Y024163D01*
X023530Y024059D01*
X023510Y024009D01*
X023510Y023771D01*
X023601Y023550D01*
X023761Y023390D01*
X023601Y023230D01*
X023510Y023009D01*
X023510Y022771D01*
X023601Y022550D01*
X023761Y022390D01*
X023661Y022290D01*
X022556Y022290D01*
X022460Y022386D01*
X022460Y022503D01*
X022373Y022713D01*
X022213Y022873D01*
X022003Y022960D01*
X021790Y022960D01*
X021790Y023595D01*
X021729Y023742D01*
X021354Y024117D01*
X021242Y024229D01*
X021135Y024273D01*
X021012Y024397D01*
X021061Y024432D01*
X021128Y024499D01*
X021183Y024576D01*
X021226Y024660D01*
X021255Y024749D01*
X021270Y024843D01*
X021270Y024890D01*
X021270Y024937D01*
X021255Y025030D01*
X021226Y025120D01*
X021183Y025204D01*
X021128Y025281D01*
X021061Y025348D01*
X020984Y025403D01*
X020900Y025446D01*
X020810Y025475D01*
X020717Y025490D01*
X020390Y025490D01*
X020390Y024890D01*
X020390Y024890D01*
X021270Y024890D01*
X020390Y024890D01*
X020390Y024890D01*
X020390Y025490D01*
X020063Y025490D01*
X019969Y025475D01*
X019915Y025458D01*
X019915Y034109D01*
X019998Y034192D01*
X020085Y034402D01*
X020085Y034628D01*
X019998Y034838D01*
X019838Y034998D01*
X019628Y035085D01*
X019402Y035085D01*
X019290Y035039D01*
X019290Y037220D01*
X019229Y037367D01*
X019243Y037334D02*
X020740Y037334D01*
X020740Y037345D02*
X020740Y031921D01*
X020657Y031838D01*
X020570Y031628D01*
X020570Y031402D01*
X020657Y031192D01*
X020817Y031032D01*
X021027Y030945D01*
X021253Y030945D01*
X021463Y031032D01*
X021623Y031192D01*
X021710Y031402D01*
X021710Y031628D01*
X021623Y031838D01*
X021540Y031921D01*
X021540Y031945D02*
X021990Y031945D01*
X021990Y031786D02*
X021645Y031786D01*
X021710Y031628D02*
X021990Y031628D01*
X021990Y031469D02*
X021710Y031469D01*
X021672Y031311D02*
X021990Y031311D01*
X021990Y031152D02*
X021583Y031152D01*
X021371Y030994D02*
X021990Y030994D01*
X021990Y030835D02*
X019915Y030835D01*
X019915Y030677D02*
X021990Y030677D01*
X021990Y030518D02*
X019915Y030518D01*
X019915Y030360D02*
X021990Y030360D01*
X021990Y030201D02*
X019915Y030201D01*
X019915Y030043D02*
X021990Y030043D01*
X021990Y029884D02*
X019915Y029884D01*
X019915Y029726D02*
X021990Y029726D01*
X021990Y029567D02*
X019915Y029567D01*
X019915Y029409D02*
X021990Y029409D01*
X021990Y029250D02*
X019915Y029250D01*
X019915Y029092D02*
X021990Y029092D01*
X021990Y028933D02*
X019915Y028933D01*
X019915Y028775D02*
X021990Y028775D01*
X021990Y028616D02*
X019915Y028616D01*
X019915Y028458D02*
X021990Y028458D01*
X021990Y028299D02*
X019915Y028299D01*
X019915Y028141D02*
X021990Y028141D01*
X021990Y027982D02*
X019915Y027982D01*
X019915Y027824D02*
X021990Y027824D01*
X021990Y027665D02*
X019915Y027665D01*
X019915Y027507D02*
X021990Y027507D01*
X021990Y027348D02*
X019915Y027348D01*
X019915Y027190D02*
X021990Y027190D01*
X021990Y027031D02*
X019915Y027031D01*
X019915Y026873D02*
X021990Y026873D01*
X021990Y026714D02*
X019915Y026714D01*
X019915Y026556D02*
X021990Y026556D01*
X021990Y026397D02*
X019915Y026397D01*
X019915Y026239D02*
X021990Y026239D01*
X021990Y026080D02*
X019915Y026080D01*
X019915Y025922D02*
X021990Y025922D01*
X021990Y025763D02*
X019915Y025763D01*
X019915Y025605D02*
X022024Y025605D01*
X022143Y025446D02*
X020900Y025446D01*
X021121Y025288D02*
X022302Y025288D01*
X022460Y025129D02*
X021222Y025129D01*
X021265Y024971D02*
X022619Y024971D01*
X022777Y024812D02*
X021265Y024812D01*
X021223Y024654D02*
X022936Y024654D01*
X023094Y024495D02*
X021124Y024495D01*
X021072Y024337D02*
X023253Y024337D01*
X023411Y024178D02*
X021293Y024178D01*
X021451Y024020D02*
X023514Y024020D01*
X023510Y023861D02*
X021610Y023861D01*
X021745Y023703D02*
X023538Y023703D01*
X023607Y023544D02*
X021790Y023544D01*
X021790Y023386D02*
X023757Y023386D01*
X023600Y023227D02*
X021790Y023227D01*
X021790Y023069D02*
X023535Y023069D01*
X023510Y022910D02*
X022124Y022910D01*
X022335Y022752D02*
X023518Y022752D01*
X023584Y022593D02*
X022423Y022593D01*
X022460Y022435D02*
X023717Y022435D01*
X024390Y021890D02*
X022390Y021890D01*
X021890Y022390D01*
X021390Y021890D02*
X021390Y023515D01*
X021015Y023890D01*
X020390Y023890D01*
X019890Y023890D01*
X019515Y024265D01*
X019515Y034515D01*
X020052Y034322D02*
X020740Y034322D01*
X020740Y034164D02*
X019970Y034164D01*
X019915Y034005D02*
X020740Y034005D01*
X020740Y033847D02*
X019915Y033847D01*
X019915Y033688D02*
X020740Y033688D01*
X020740Y033530D02*
X019915Y033530D01*
X019915Y033371D02*
X020740Y033371D01*
X020740Y033213D02*
X019915Y033213D01*
X019915Y033054D02*
X020740Y033054D01*
X020740Y032896D02*
X019915Y032896D01*
X019915Y032737D02*
X020740Y032737D01*
X020740Y032579D02*
X019915Y032579D01*
X019915Y032420D02*
X020740Y032420D01*
X020740Y032262D02*
X019915Y032262D01*
X019915Y032103D02*
X020740Y032103D01*
X020740Y031945D02*
X019915Y031945D01*
X019915Y031786D02*
X020635Y031786D01*
X020570Y031628D02*
X019915Y031628D01*
X019915Y031469D02*
X020570Y031469D01*
X020608Y031311D02*
X019915Y031311D01*
X019915Y031152D02*
X020697Y031152D01*
X020909Y030994D02*
X019915Y030994D01*
X019140Y031265D02*
X019140Y023640D01*
X019890Y022890D01*
X020390Y022890D01*
X020390Y021890D02*
X019890Y021890D01*
X018640Y023140D01*
X018640Y029765D01*
X017890Y030515D01*
X017390Y030515D01*
X016991Y029915D02*
X017789Y029915D01*
X017885Y029955D01*
X018240Y029599D01*
X018240Y023356D01*
X016867Y024729D01*
X016720Y024790D01*
X015270Y024790D01*
X015270Y025009D01*
X015179Y025230D01*
X015010Y025399D01*
X014789Y025490D01*
X013991Y025490D01*
X013984Y025487D01*
X013290Y026181D01*
X013290Y031945D01*
X013503Y031945D01*
X013713Y032032D01*
X013729Y032048D01*
X013761Y032015D01*
X013601Y031855D01*
X013510Y031634D01*
X013510Y031396D01*
X013601Y031175D01*
X013768Y031008D01*
X013719Y030973D01*
X013652Y030906D01*
X013597Y030829D01*
X013554Y030745D01*
X013525Y030655D01*
X013510Y030562D01*
X013510Y030515D01*
X014390Y030515D01*
X015270Y030515D01*
X015270Y030562D01*
X015255Y030655D01*
X015226Y030745D01*
X015183Y030829D01*
X015128Y030906D01*
X015061Y030973D01*
X015012Y031008D01*
X015179Y031175D01*
X015270Y031396D01*
X015270Y031634D01*
X015228Y031737D01*
X016288Y030676D01*
X016435Y030615D01*
X016510Y030615D01*
X016510Y030396D01*
X016601Y030175D01*
X016770Y030006D01*
X016991Y029915D01*
X016734Y030043D02*
X015040Y030043D01*
X015061Y030057D02*
X015128Y030124D01*
X015183Y030201D01*
X016591Y030201D01*
X016525Y030360D02*
X015250Y030360D01*
X015255Y030374D02*
X015270Y030468D01*
X015270Y030515D01*
X014390Y030515D01*
X014390Y030515D01*
X014390Y029915D01*
X014717Y029915D01*
X014810Y029930D01*
X014900Y029959D01*
X014984Y030002D01*
X015061Y030057D01*
X015183Y030201D02*
X015226Y030285D01*
X015255Y030374D01*
X015270Y030518D02*
X016510Y030518D01*
X016288Y030677D02*
X015248Y030677D01*
X015179Y030835D02*
X016129Y030835D01*
X015971Y030994D02*
X015032Y030994D01*
X015156Y031152D02*
X015812Y031152D01*
X015654Y031311D02*
X015235Y031311D01*
X015270Y031469D02*
X015495Y031469D01*
X015337Y031628D02*
X015270Y031628D01*
X015015Y032515D02*
X014390Y032515D01*
X015015Y032515D02*
X016515Y031015D01*
X018140Y031015D01*
X018640Y030515D01*
X017955Y029884D02*
X013290Y029884D01*
X013290Y029726D02*
X018114Y029726D01*
X018240Y029567D02*
X013290Y029567D01*
X013290Y029409D02*
X018240Y029409D01*
X018240Y029250D02*
X013290Y029250D01*
X013290Y029092D02*
X018240Y029092D01*
X018240Y028933D02*
X013290Y028933D01*
X013290Y028775D02*
X018240Y028775D01*
X018240Y028616D02*
X013290Y028616D01*
X013290Y028458D02*
X018240Y028458D01*
X018240Y028299D02*
X013290Y028299D01*
X013290Y028141D02*
X018240Y028141D01*
X018240Y027982D02*
X013290Y027982D01*
X013290Y027824D02*
X018240Y027824D01*
X018240Y027665D02*
X013290Y027665D01*
X013290Y027507D02*
X018240Y027507D01*
X018240Y027348D02*
X013290Y027348D01*
X013290Y027190D02*
X018240Y027190D01*
X018240Y027031D02*
X013290Y027031D01*
X013290Y026873D02*
X018240Y026873D01*
X018240Y026714D02*
X013290Y026714D01*
X013290Y026556D02*
X018240Y026556D01*
X018240Y026397D02*
X013290Y026397D01*
X013290Y026239D02*
X018240Y026239D01*
X018240Y026080D02*
X013391Y026080D01*
X013549Y025922D02*
X018240Y025922D01*
X018240Y025763D02*
X013708Y025763D01*
X013866Y025605D02*
X018240Y025605D01*
X018240Y025446D02*
X014895Y025446D01*
X015121Y025288D02*
X017410Y025288D01*
X017421Y025293D02*
X017341Y025253D01*
X017269Y025200D01*
X017205Y025136D01*
X017152Y025064D01*
X017112Y024984D01*
X017084Y024898D01*
X017070Y024810D01*
X017070Y024765D01*
X017640Y024765D01*
X018210Y024765D01*
X018210Y024810D01*
X018196Y024898D01*
X018168Y024984D01*
X018128Y025064D01*
X018075Y025136D01*
X018011Y025200D01*
X017939Y025253D01*
X017859Y025293D01*
X017773Y025321D01*
X017685Y025335D01*
X017640Y025335D01*
X017640Y024765D01*
X017640Y024765D01*
X017640Y024765D01*
X018210Y024765D01*
X018210Y024720D01*
X018196Y024632D01*
X018168Y024546D01*
X018128Y024466D01*
X018075Y024394D01*
X018011Y024330D01*
X017939Y024277D01*
X017859Y024237D01*
X017773Y024209D01*
X017685Y024195D01*
X017640Y024195D01*
X017640Y024765D01*
X017640Y024765D01*
X017640Y024765D01*
X017640Y025335D01*
X017595Y025335D01*
X017507Y025321D01*
X017421Y025293D01*
X017640Y025288D02*
X017640Y025288D01*
X017640Y025129D02*
X017640Y025129D01*
X017640Y024971D02*
X017640Y024971D01*
X017640Y024812D02*
X017640Y024812D01*
X017640Y024765D02*
X017070Y024765D01*
X017070Y024720D01*
X017084Y024632D01*
X017112Y024546D01*
X017152Y024466D01*
X017205Y024394D01*
X017269Y024330D01*
X017341Y024277D01*
X017421Y024237D01*
X017507Y024209D01*
X017595Y024195D01*
X017640Y024195D01*
X017640Y024765D01*
X017640Y024654D02*
X017640Y024654D01*
X017640Y024495D02*
X017640Y024495D01*
X017640Y024337D02*
X017640Y024337D01*
X017418Y024178D02*
X018240Y024178D01*
X018240Y024020D02*
X017576Y024020D01*
X017735Y023861D02*
X018240Y023861D01*
X018240Y023703D02*
X017893Y023703D01*
X018052Y023544D02*
X018240Y023544D01*
X018240Y023386D02*
X018210Y023386D01*
X018240Y024337D02*
X018018Y024337D01*
X018142Y024495D02*
X018240Y024495D01*
X018240Y024654D02*
X018199Y024654D01*
X018210Y024812D02*
X018240Y024812D01*
X018240Y024971D02*
X018173Y024971D01*
X018240Y025129D02*
X018080Y025129D01*
X018240Y025288D02*
X017870Y025288D01*
X017200Y025129D02*
X015220Y025129D01*
X015270Y024971D02*
X017107Y024971D01*
X017070Y024812D02*
X015270Y024812D01*
X014390Y024890D02*
X014015Y024890D01*
X012890Y026015D01*
X012890Y033515D01*
X013890Y034515D01*
X014390Y034515D01*
X014890Y034515D01*
X016890Y036515D01*
X017390Y036515D01*
X018015Y037015D02*
X018390Y036640D01*
X018390Y033390D01*
X018015Y033015D01*
X016765Y033015D01*
X016390Y032640D01*
X016390Y031890D01*
X016765Y031515D01*
X017390Y031515D01*
X017390Y032515D02*
X018015Y032515D01*
X018890Y033390D01*
X018890Y037140D01*
X018015Y038015D01*
X016015Y038015D01*
X015515Y038515D01*
X014390Y038515D01*
X013665Y038919D02*
X005722Y038919D01*
X005881Y039077D02*
X013699Y039077D01*
X013576Y039236D02*
X006039Y039236D01*
X006198Y039394D02*
X013511Y039394D01*
X013510Y039553D02*
X008708Y039553D01*
X008866Y039711D02*
X013542Y039711D01*
X013616Y039870D02*
X009025Y039870D01*
X009030Y040028D02*
X013781Y040028D01*
X014390Y039515D02*
X015390Y039515D01*
X015890Y039015D01*
X019390Y039015D01*
X019890Y039515D01*
X019354Y039711D02*
X018238Y039711D01*
X018270Y039553D02*
X019320Y039553D01*
X019438Y039870D02*
X018164Y039870D01*
X017999Y040028D02*
X019639Y040028D01*
X020141Y040028D02*
X023781Y040028D01*
X023616Y039870D02*
X020342Y039870D01*
X020426Y039711D02*
X023542Y039711D01*
X023510Y039553D02*
X023457Y039553D01*
X023073Y039553D02*
X020582Y039553D01*
X020817Y039394D02*
X022838Y039394D01*
X024390Y039515D02*
X025390Y039515D01*
X025890Y039015D01*
X030265Y039015D01*
X030890Y039640D01*
X034265Y039640D01*
X034390Y039515D01*
X035390Y039515D01*
X035890Y039015D01*
X040390Y039015D01*
X040890Y039515D01*
X044390Y039515D01*
X043781Y040028D02*
X037999Y040028D01*
X037870Y040187D02*
X046910Y040187D01*
X046910Y040345D02*
X037870Y040345D01*
X037870Y040504D02*
X046910Y040504D01*
X046910Y040662D02*
X045761Y040662D01*
X045639Y040540D02*
X045990Y040891D01*
X045990Y041140D01*
X045990Y041389D01*
X045639Y041740D01*
X045390Y041740D01*
X045390Y041140D01*
X045990Y041140D01*
X045390Y041140D01*
X045390Y041140D01*
X045390Y041140D01*
X045390Y040540D01*
X045639Y040540D01*
X045390Y040540D02*
X045390Y041140D01*
X045390Y041140D01*
X045390Y041140D01*
X044790Y041140D01*
X044790Y041389D01*
X045141Y041740D01*
X045390Y041740D01*
X045390Y041140D01*
X044790Y041140D01*
X044790Y040891D01*
X045141Y040540D01*
X045390Y040540D01*
X045390Y040662D02*
X045390Y040662D01*
X045390Y040821D02*
X045390Y040821D01*
X045390Y040979D02*
X045390Y040979D01*
X045390Y041138D02*
X045390Y041138D01*
X045390Y041296D02*
X045390Y041296D01*
X045390Y041455D02*
X045390Y041455D01*
X045390Y041613D02*
X045390Y041613D01*
X045765Y041613D02*
X047015Y041613D01*
X046856Y041455D02*
X045924Y041455D01*
X045990Y041296D02*
X046790Y041296D01*
X046790Y041138D02*
X045990Y041138D01*
X045990Y040979D02*
X046790Y040979D01*
X046861Y040821D02*
X045919Y040821D01*
X045019Y040662D02*
X037870Y040662D01*
X037919Y040821D02*
X044861Y040821D01*
X044790Y040979D02*
X037990Y040979D01*
X037990Y041138D02*
X044790Y041138D01*
X044790Y041296D02*
X037990Y041296D01*
X037924Y041455D02*
X044856Y041455D01*
X045015Y041613D02*
X037765Y041613D01*
X037015Y041613D02*
X035765Y041613D01*
X035639Y041740D02*
X035390Y041740D01*
X035390Y041140D01*
X035990Y041140D01*
X035990Y041389D01*
X035639Y041740D01*
X035390Y041740D02*
X035390Y041140D01*
X035390Y041140D01*
X035390Y041140D01*
X035990Y041140D01*
X035990Y040891D01*
X035639Y040540D01*
X035390Y040540D01*
X035390Y041140D01*
X035390Y041140D01*
X035390Y041140D01*
X034790Y041140D01*
X034790Y041389D01*
X035141Y041740D01*
X035390Y041740D01*
X035390Y041613D02*
X035390Y041613D01*
X035390Y041455D02*
X035390Y041455D01*
X035390Y041296D02*
X035390Y041296D01*
X035390Y041140D02*
X034790Y041140D01*
X034790Y040891D01*
X035141Y040540D01*
X035390Y040540D01*
X035390Y041140D01*
X035390Y041138D02*
X035390Y041138D01*
X035390Y040979D02*
X035390Y040979D01*
X035390Y040821D02*
X035390Y040821D01*
X035390Y040662D02*
X035390Y040662D01*
X035761Y040662D02*
X036910Y040662D01*
X036910Y040504D02*
X027870Y040504D01*
X027870Y040662D02*
X035019Y040662D01*
X034861Y040821D02*
X027919Y040821D01*
X027990Y040979D02*
X034790Y040979D01*
X034790Y041138D02*
X027990Y041138D01*
X027990Y041296D02*
X034790Y041296D01*
X034856Y041455D02*
X027924Y041455D01*
X027765Y041613D02*
X035015Y041613D01*
X035924Y041455D02*
X036856Y041455D01*
X036790Y041296D02*
X035990Y041296D01*
X035990Y041138D02*
X036790Y041138D01*
X036790Y040979D02*
X035990Y040979D01*
X035919Y040821D02*
X036861Y040821D01*
X036910Y040345D02*
X027870Y040345D01*
X027870Y040187D02*
X036910Y040187D01*
X036781Y040028D02*
X034999Y040028D01*
X035579Y039870D02*
X036616Y039870D01*
X036542Y039711D02*
X035760Y039711D01*
X035918Y039553D02*
X036510Y039553D01*
X035390Y038515D02*
X034390Y038515D01*
X035390Y038515D02*
X035890Y038015D01*
X038265Y038015D01*
X038640Y037640D01*
X038640Y033265D01*
X037890Y032515D01*
X037390Y032515D01*
X037890Y032515D02*
X039140Y031265D01*
X039140Y029890D01*
X038640Y029390D01*
X038640Y024140D01*
X039140Y023640D01*
X039390Y023390D01*
X039890Y022890D01*
X040390Y022890D01*
X040390Y021890D02*
X039890Y021890D01*
X038265Y023515D01*
X038265Y030140D01*
X037890Y030515D01*
X037390Y030515D01*
X036265Y030515D01*
X035765Y031015D01*
X033765Y031015D01*
X033265Y030515D01*
X033666Y030110D02*
X033719Y030057D01*
X033796Y030002D01*
X033880Y029959D01*
X033969Y029930D01*
X034063Y029915D01*
X034390Y029915D01*
X034717Y029915D01*
X034810Y029930D01*
X034900Y029959D01*
X034984Y030002D01*
X035061Y030057D01*
X035128Y030124D01*
X035183Y030201D01*
X036013Y030201D01*
X036038Y030176D02*
X035599Y030615D01*
X035262Y030615D01*
X035270Y030562D01*
X035270Y030515D01*
X034390Y030515D01*
X034390Y030515D01*
X035270Y030515D01*
X035270Y030468D01*
X035255Y030374D01*
X035226Y030285D01*
X035183Y030201D01*
X035250Y030360D02*
X035855Y030360D01*
X035696Y030518D02*
X035270Y030518D01*
X035040Y030043D02*
X036734Y030043D01*
X036770Y030006D02*
X036991Y029915D01*
X037789Y029915D01*
X037865Y029946D01*
X037865Y023435D01*
X037926Y023288D01*
X039551Y021663D01*
X039557Y021657D01*
X039601Y021550D01*
X039761Y021390D01*
X039661Y021290D01*
X038056Y021290D01*
X037617Y021729D01*
X037470Y021790D01*
X035270Y021790D01*
X035270Y022009D01*
X035179Y022230D01*
X035019Y022390D01*
X035179Y022550D01*
X035270Y022771D01*
X035270Y023009D01*
X035179Y023230D01*
X035019Y023390D01*
X035179Y023550D01*
X035270Y023771D01*
X035270Y024009D01*
X035179Y024230D01*
X035019Y024390D01*
X035179Y024550D01*
X035270Y024771D01*
X035270Y025009D01*
X035226Y025115D01*
X035595Y025115D01*
X035742Y025176D01*
X035854Y025288D01*
X037011Y026445D01*
X037128Y026445D01*
X037338Y026532D01*
X037498Y026692D01*
X037585Y026902D01*
X037585Y027128D01*
X037498Y027338D01*
X037338Y027498D01*
X037325Y027503D01*
X037335Y027527D01*
X037335Y027753D01*
X037248Y027963D01*
X037088Y028123D01*
X036878Y028210D01*
X036652Y028210D01*
X036442Y028123D01*
X036282Y027963D01*
X036195Y027753D01*
X036195Y027636D01*
X035099Y026540D01*
X031921Y026540D01*
X031838Y026623D01*
X031628Y026710D01*
X031402Y026710D01*
X031192Y026623D01*
X031032Y026463D01*
X030945Y026253D01*
X030945Y026027D01*
X031032Y025817D01*
X031192Y025657D01*
X031205Y025652D01*
X031195Y025628D01*
X031195Y025402D01*
X031273Y025214D01*
X031210Y025151D01*
X031183Y025204D01*
X031128Y025281D01*
X031061Y025348D01*
X030984Y025403D01*
X030900Y025446D01*
X030810Y025475D01*
X030717Y025490D01*
X030390Y025490D01*
X030390Y024890D01*
X030390Y024890D01*
X030390Y025490D01*
X030063Y025490D01*
X029969Y025475D01*
X029915Y025458D01*
X029915Y028099D01*
X030117Y028301D01*
X030229Y028413D01*
X030290Y028560D01*
X030290Y030349D01*
X033240Y033299D01*
X033240Y033185D01*
X033301Y033038D01*
X033413Y032926D01*
X033567Y032772D01*
X033510Y032634D01*
X033510Y032396D01*
X033601Y032175D01*
X033761Y032015D01*
X033601Y031855D01*
X033510Y031634D01*
X033510Y031396D01*
X033530Y031346D01*
X033269Y031085D01*
X033152Y031085D01*
X032942Y030998D01*
X032782Y030838D01*
X032695Y030628D01*
X032695Y030402D01*
X032782Y030192D01*
X032942Y030032D01*
X033152Y029945D01*
X033378Y029945D01*
X033588Y030032D01*
X033666Y030110D01*
X033599Y030043D02*
X033740Y030043D01*
X034390Y030043D02*
X034390Y030043D01*
X034390Y029915D02*
X034390Y030515D01*
X034390Y030515D01*
X034390Y029915D01*
X034390Y030201D02*
X034390Y030201D01*
X034390Y030360D02*
X034390Y030360D01*
X033495Y031311D02*
X031251Y031311D01*
X031410Y031469D02*
X033510Y031469D01*
X033510Y031628D02*
X031568Y031628D01*
X031727Y031786D02*
X033573Y031786D01*
X033691Y031945D02*
X031885Y031945D01*
X032044Y032103D02*
X033673Y032103D01*
X033566Y032262D02*
X032202Y032262D01*
X032361Y032420D02*
X033510Y032420D01*
X033510Y032579D02*
X032519Y032579D01*
X032678Y032737D02*
X033553Y032737D01*
X033444Y032896D02*
X032836Y032896D01*
X032995Y033054D02*
X033294Y033054D01*
X033240Y033213D02*
X033153Y033213D01*
X033640Y033265D02*
X033640Y033765D01*
X033890Y034015D01*
X034890Y034015D01*
X035140Y034265D01*
X035140Y035765D01*
X034890Y036015D01*
X033890Y036015D01*
X033640Y036265D01*
X033640Y037265D01*
X033890Y037515D01*
X034390Y037515D01*
X035265Y038015D02*
X035765Y037515D01*
X037390Y037515D01*
X038015Y036015D02*
X035890Y036015D01*
X035390Y036515D01*
X034390Y036515D01*
X035265Y038015D02*
X033140Y038015D01*
X030015Y034890D01*
X030015Y031515D01*
X030776Y030835D02*
X032781Y030835D01*
X032715Y030677D02*
X030617Y030677D01*
X030459Y030518D02*
X032695Y030518D01*
X032712Y030360D02*
X030300Y030360D01*
X030290Y030201D02*
X032778Y030201D01*
X032931Y030043D02*
X030290Y030043D01*
X030290Y029884D02*
X037865Y029884D01*
X037865Y029726D02*
X030290Y029726D01*
X030290Y029567D02*
X037865Y029567D01*
X037865Y029409D02*
X030290Y029409D01*
X030290Y029250D02*
X037865Y029250D01*
X037865Y029092D02*
X030290Y029092D01*
X030290Y028933D02*
X037865Y028933D01*
X037865Y028775D02*
X030290Y028775D01*
X030290Y028616D02*
X037865Y028616D01*
X037865Y028458D02*
X030247Y028458D01*
X030117Y028301D02*
X030117Y028301D01*
X030115Y028299D02*
X037865Y028299D01*
X037865Y028141D02*
X037046Y028141D01*
X037229Y027982D02*
X037865Y027982D01*
X037865Y027824D02*
X037306Y027824D01*
X037335Y027665D02*
X037865Y027665D01*
X037865Y027507D02*
X037327Y027507D01*
X037488Y027348D02*
X037865Y027348D01*
X037865Y027190D02*
X037560Y027190D01*
X037585Y027031D02*
X037865Y027031D01*
X037865Y026873D02*
X037573Y026873D01*
X037507Y026714D02*
X037865Y026714D01*
X037865Y026556D02*
X037362Y026556D01*
X036963Y026397D02*
X037865Y026397D01*
X037865Y026239D02*
X036804Y026239D01*
X036646Y026080D02*
X037865Y026080D01*
X037865Y025922D02*
X036487Y025922D01*
X036329Y025763D02*
X037865Y025763D01*
X037865Y025605D02*
X036170Y025605D01*
X036012Y025446D02*
X037865Y025446D01*
X037865Y025288D02*
X035853Y025288D01*
X035628Y025129D02*
X037865Y025129D01*
X037865Y024971D02*
X035270Y024971D01*
X035270Y024812D02*
X037865Y024812D01*
X037865Y024654D02*
X035221Y024654D01*
X035124Y024495D02*
X037865Y024495D01*
X037865Y024337D02*
X035072Y024337D01*
X035200Y024178D02*
X037865Y024178D01*
X037865Y024020D02*
X035266Y024020D01*
X035270Y023861D02*
X037865Y023861D01*
X037865Y023703D02*
X035242Y023703D01*
X035173Y023544D02*
X037865Y023544D01*
X037886Y023386D02*
X035023Y023386D01*
X035180Y023227D02*
X037987Y023227D01*
X038146Y023069D02*
X035245Y023069D01*
X035270Y022910D02*
X038304Y022910D01*
X038463Y022752D02*
X035262Y022752D01*
X035196Y022593D02*
X038621Y022593D01*
X038780Y022435D02*
X035063Y022435D01*
X035132Y022276D02*
X038938Y022276D01*
X039097Y022118D02*
X035225Y022118D01*
X035270Y021959D02*
X039255Y021959D01*
X039414Y021801D02*
X035270Y021801D01*
X037390Y021390D02*
X032890Y021390D01*
X032390Y020890D01*
X030390Y020890D01*
X027890Y020890D01*
X027390Y021390D01*
X022890Y021390D01*
X022390Y020890D01*
X020390Y020890D01*
X020890Y021390D02*
X019640Y021390D01*
X016640Y024390D01*
X013515Y024390D01*
X012515Y025390D01*
X012515Y033765D01*
X013765Y035015D01*
X014890Y035015D01*
X015265Y035390D01*
X015265Y036015D01*
X014765Y036515D01*
X014390Y036515D01*
X014265Y035640D02*
X014390Y035515D01*
X014265Y035640D02*
X008140Y035640D01*
X011265Y032515D01*
X011390Y031515D02*
X010515Y031515D01*
X007765Y028765D01*
X005765Y028765D01*
X005140Y029390D01*
X005140Y036765D01*
X005515Y037140D01*
X005765Y037140D01*
X006640Y038015D01*
X015515Y038015D01*
X016015Y037515D01*
X017390Y037515D01*
X018015Y037015D02*
X016015Y037015D01*
X015515Y037515D01*
X014390Y037515D01*
X012265Y037515D01*
X010890Y036140D01*
X006765Y036140D01*
X006265Y035640D02*
X008140Y035640D01*
X006265Y035640D02*
X005765Y036140D01*
X005125Y037334D02*
X005120Y037334D01*
X005120Y037492D02*
X005212Y037492D01*
X005120Y037651D02*
X005370Y037651D01*
X005120Y037809D02*
X005868Y037809D01*
X006027Y037968D02*
X005120Y037968D01*
X005120Y038126D02*
X006185Y038126D01*
X006344Y038285D02*
X005120Y038285D01*
X005247Y038443D02*
X013510Y038443D01*
X013510Y038602D02*
X005405Y038602D01*
X005564Y038760D02*
X013562Y038760D01*
X014999Y040028D02*
X016781Y040028D01*
X016910Y040187D02*
X009030Y040187D01*
X009030Y040345D02*
X016910Y040345D01*
X016910Y040504D02*
X008932Y040504D01*
X008870Y040662D02*
X015019Y040662D01*
X015141Y040540D02*
X015390Y040540D01*
X015639Y040540D01*
X015990Y040891D01*
X015990Y041140D01*
X015990Y041389D01*
X015639Y041740D01*
X015390Y041740D01*
X015390Y041140D01*
X015990Y041140D01*
X015390Y041140D01*
X015390Y041140D01*
X015390Y041140D01*
X015390Y040540D01*
X015390Y041140D01*
X015390Y041140D01*
X015390Y041140D01*
X014790Y041140D01*
X014790Y041389D01*
X015141Y041740D01*
X015390Y041740D01*
X015390Y041140D01*
X014790Y041140D01*
X014790Y040891D01*
X015141Y040540D01*
X015390Y040662D02*
X015390Y040662D01*
X015390Y040821D02*
X015390Y040821D01*
X015390Y040979D02*
X015390Y040979D01*
X015390Y041138D02*
X015390Y041138D01*
X015390Y041296D02*
X015390Y041296D01*
X015390Y041455D02*
X015390Y041455D01*
X015390Y041613D02*
X015390Y041613D01*
X015765Y041613D02*
X017015Y041613D01*
X016856Y041455D02*
X015924Y041455D01*
X015990Y041296D02*
X016790Y041296D01*
X016790Y041138D02*
X015990Y041138D01*
X015990Y040979D02*
X016790Y040979D01*
X016861Y040821D02*
X015919Y040821D01*
X015761Y040662D02*
X016910Y040662D01*
X016616Y039870D02*
X015579Y039870D01*
X015760Y039711D02*
X016542Y039711D01*
X016510Y039553D02*
X015918Y039553D01*
X017390Y038515D02*
X019890Y038515D01*
X020390Y039015D01*
X020225Y038285D02*
X021594Y038285D01*
X021435Y038126D02*
X019996Y038126D01*
X020801Y037492D02*
X020740Y037345D01*
X020740Y037175D02*
X019290Y037175D01*
X019290Y037017D02*
X020740Y037017D01*
X020740Y036858D02*
X019290Y036858D01*
X019290Y036700D02*
X020740Y036700D01*
X020740Y036541D02*
X019290Y036541D01*
X019290Y036383D02*
X020740Y036383D01*
X020740Y036224D02*
X019290Y036224D01*
X019290Y036066D02*
X020740Y036066D01*
X020740Y035907D02*
X019290Y035907D01*
X019290Y035749D02*
X020740Y035749D01*
X020740Y035590D02*
X019290Y035590D01*
X019290Y035432D02*
X020740Y035432D01*
X020740Y035273D02*
X019290Y035273D01*
X019290Y035115D02*
X020740Y035115D01*
X020740Y034956D02*
X019880Y034956D01*
X020015Y034798D02*
X020740Y034798D01*
X020740Y034639D02*
X020081Y034639D01*
X020085Y034481D02*
X020740Y034481D01*
X021765Y034390D02*
X022890Y035515D01*
X024390Y035515D01*
X024890Y035015D02*
X023765Y035015D01*
X022390Y033640D01*
X022390Y025765D01*
X023765Y024390D01*
X025140Y024390D01*
X028140Y021390D01*
X030890Y021390D01*
X031265Y021765D01*
X031265Y023640D01*
X031015Y023890D01*
X030390Y023890D01*
X029890Y023890D01*
X029140Y024640D01*
X029140Y029265D01*
X029515Y029640D01*
X029515Y034515D01*
X029390Y035515D02*
X029390Y037515D01*
X028265Y036640D02*
X027890Y037015D01*
X028265Y036640D02*
X028265Y033390D01*
X027890Y033015D01*
X026890Y033015D01*
X026515Y032640D01*
X026515Y031890D01*
X026890Y031515D01*
X027390Y031515D01*
X028140Y031015D02*
X026515Y031015D01*
X025015Y032515D01*
X024390Y032515D01*
X023765Y033015D02*
X023265Y032515D01*
X023765Y033015D02*
X025390Y033015D01*
X025890Y033515D01*
X027390Y033515D01*
X026890Y035515D02*
X024890Y033515D01*
X024390Y033515D01*
X024890Y035015D02*
X025140Y035265D01*
X025140Y036265D01*
X024890Y036515D01*
X024390Y036515D01*
X022890Y035515D02*
X022390Y036015D01*
X022390Y037515D01*
X021277Y037968D02*
X018628Y037968D01*
X018787Y037809D02*
X021118Y037809D01*
X020960Y037651D02*
X018945Y037651D01*
X020913Y037604D02*
X020913Y037604D01*
X017390Y035515D02*
X016890Y035515D01*
X014890Y033515D01*
X014390Y033515D01*
X013890Y033015D02*
X013390Y032515D01*
X013290Y031945D02*
X013691Y031945D01*
X013573Y031786D02*
X013290Y031786D01*
X013290Y031628D02*
X013510Y031628D01*
X013510Y031469D02*
X013290Y031469D01*
X013290Y031311D02*
X013545Y031311D01*
X013624Y031152D02*
X013290Y031152D01*
X013290Y030994D02*
X013748Y030994D01*
X013601Y030835D02*
X013290Y030835D01*
X013290Y030677D02*
X013532Y030677D01*
X013510Y030518D02*
X013290Y030518D01*
X013290Y030360D02*
X013530Y030360D01*
X013525Y030374D02*
X013554Y030285D01*
X013597Y030201D01*
X013290Y030201D01*
X013290Y030043D02*
X013740Y030043D01*
X013719Y030057D02*
X013796Y030002D01*
X013880Y029959D01*
X013969Y029930D01*
X014063Y029915D01*
X014390Y029915D01*
X014390Y030515D01*
X014390Y030515D01*
X014390Y030515D01*
X013510Y030515D01*
X013510Y030468D01*
X013525Y030374D01*
X013597Y030201D02*
X013652Y030124D01*
X013719Y030057D01*
X014390Y030043D02*
X014390Y030043D01*
X014390Y030201D02*
X014390Y030201D01*
X014390Y030360D02*
X014390Y030360D01*
X012015Y031015D02*
X012015Y033515D01*
X013890Y033015D02*
X015390Y033015D01*
X015890Y033515D01*
X017390Y033515D01*
X017390Y032515D02*
X017890Y032515D01*
X019140Y031265D01*
X021765Y032515D02*
X021765Y034390D01*
X025390Y038015D02*
X025890Y037515D01*
X027390Y037515D01*
X027390Y035515D02*
X026890Y035515D01*
X026510Y039553D02*
X025918Y039553D01*
X025760Y039711D02*
X026542Y039711D01*
X026616Y039870D02*
X025579Y039870D01*
X024999Y040028D02*
X026781Y040028D01*
X026910Y040187D02*
X017870Y040187D01*
X017870Y040345D02*
X026910Y040345D01*
X026910Y040504D02*
X017870Y040504D01*
X017870Y040662D02*
X025019Y040662D01*
X025141Y040540D02*
X025390Y040540D01*
X025639Y040540D01*
X025990Y040891D01*
X025990Y041140D01*
X025990Y041389D01*
X025639Y041740D01*
X025390Y041740D01*
X025390Y041140D01*
X025990Y041140D01*
X025390Y041140D01*
X025390Y041140D01*
X025390Y041140D01*
X025390Y040540D01*
X025390Y041140D01*
X025390Y041140D01*
X025390Y041140D01*
X024790Y041140D01*
X024790Y041389D01*
X025141Y041740D01*
X025390Y041740D01*
X025390Y041140D01*
X024790Y041140D01*
X024790Y040891D01*
X025141Y040540D01*
X025390Y040662D02*
X025390Y040662D01*
X025390Y040821D02*
X025390Y040821D01*
X025390Y040979D02*
X025390Y040979D01*
X025390Y041138D02*
X025390Y041138D01*
X025390Y041296D02*
X025390Y041296D01*
X025390Y041455D02*
X025390Y041455D01*
X025390Y041613D02*
X025390Y041613D01*
X025765Y041613D02*
X027015Y041613D01*
X026856Y041455D02*
X025924Y041455D01*
X025990Y041296D02*
X026790Y041296D01*
X026790Y041138D02*
X025990Y041138D01*
X025990Y040979D02*
X026790Y040979D01*
X026861Y040821D02*
X025919Y040821D01*
X025761Y040662D02*
X026910Y040662D01*
X027999Y040028D02*
X030782Y040028D01*
X030554Y039870D02*
X028164Y039870D01*
X028238Y039711D02*
X030395Y039711D01*
X030237Y039553D02*
X028270Y039553D01*
X024861Y040821D02*
X017919Y040821D01*
X017990Y040979D02*
X024790Y040979D01*
X024790Y041138D02*
X017990Y041138D01*
X017990Y041296D02*
X024790Y041296D01*
X024856Y041455D02*
X017924Y041455D01*
X017765Y041613D02*
X025015Y041613D01*
X015015Y041613D02*
X008822Y041613D01*
X008981Y041455D02*
X014856Y041455D01*
X014790Y041296D02*
X009030Y041296D01*
X009030Y041138D02*
X014790Y041138D01*
X014790Y040979D02*
X009030Y040979D01*
X008976Y040821D02*
X014861Y040821D01*
X008664Y041772D02*
X053850Y041772D01*
X053845Y041770D02*
X053723Y041647D01*
X053657Y041488D01*
X053657Y041356D01*
X053634Y041346D01*
X053511Y041224D01*
X053445Y041064D01*
X053445Y040891D01*
X053497Y040766D01*
X053445Y040640D01*
X053445Y040467D01*
X053511Y040307D01*
X053634Y040185D01*
X053657Y040175D01*
X053657Y040043D01*
X053723Y039884D01*
X053845Y039761D01*
X054005Y039695D01*
X054178Y039695D01*
X054304Y039747D01*
X054429Y039695D01*
X054602Y039695D01*
X054762Y039761D01*
X054884Y039884D01*
X054951Y040043D01*
X054951Y040175D01*
X054974Y040185D01*
X055096Y040307D01*
X055116Y040355D01*
X055175Y040331D01*
X055462Y040331D01*
X055462Y040043D01*
X055528Y039884D01*
X055650Y039761D01*
X055810Y039695D01*
X055983Y039695D01*
X056143Y039761D01*
X056265Y039884D01*
X056332Y040043D01*
X056332Y040387D01*
X056355Y040397D01*
X056477Y040519D01*
X056544Y040679D01*
X056544Y040852D01*
X056477Y041012D01*
X056355Y041134D01*
X056332Y041144D01*
X056332Y041488D01*
X056331Y041489D01*
X056265Y041647D01*
X056143Y041770D01*
X055988Y041834D01*
X055983Y041836D01*
X055810Y041836D01*
X055808Y041835D01*
X055650Y041770D01*
X055528Y041647D01*
X055099Y041218D01*
X055096Y041224D01*
X054974Y041346D01*
X054951Y041356D01*
X054951Y041488D01*
X054884Y041647D01*
X054762Y041770D01*
X054602Y041836D01*
X054429Y041836D01*
X054304Y041784D01*
X054178Y041836D01*
X054005Y041836D01*
X053845Y041770D01*
X053709Y041613D02*
X047765Y041613D01*
X047924Y041455D02*
X053657Y041455D01*
X053583Y041296D02*
X047990Y041296D01*
X047990Y041138D02*
X053476Y041138D01*
X053445Y040979D02*
X047990Y040979D01*
X047919Y040821D02*
X053474Y040821D01*
X053454Y040662D02*
X047870Y040662D01*
X047870Y040504D02*
X053445Y040504D01*
X053496Y040345D02*
X047870Y040345D01*
X047870Y040187D02*
X053632Y040187D01*
X053663Y040028D02*
X047999Y040028D01*
X048164Y039870D02*
X053737Y039870D01*
X053967Y039711D02*
X048238Y039711D01*
X046781Y040028D02*
X044999Y040028D01*
X045164Y039870D02*
X046616Y039870D01*
X046542Y039711D02*
X045238Y039711D01*
X045270Y039553D02*
X046510Y039553D01*
X046511Y039394D02*
X045645Y039394D01*
X045860Y039236D02*
X046576Y039236D01*
X046699Y039077D02*
X046019Y039077D01*
X046177Y038919D02*
X046665Y038919D01*
X045015Y036515D02*
X044390Y036515D01*
X045015Y036515D02*
X047015Y034515D01*
X047390Y034515D01*
X047390Y033515D02*
X047015Y033515D01*
X045015Y035515D01*
X044390Y035515D01*
X047390Y032515D02*
X047890Y032515D01*
X050390Y032515D02*
X050765Y032515D01*
X051513Y032896D02*
X051944Y032896D01*
X051785Y033054D02*
X051433Y033054D01*
X051602Y032737D02*
X052102Y032737D01*
X053765Y032420D02*
X053765Y032420D01*
X053765Y032262D02*
X053765Y032262D01*
X053765Y032103D02*
X053765Y032103D01*
X053765Y031945D02*
X053765Y031945D01*
X053765Y031786D02*
X053765Y031786D01*
X053765Y031628D02*
X053765Y031628D01*
X053765Y031515D02*
X053765Y031515D01*
X054589Y032262D02*
X055953Y032262D01*
X055794Y032420D02*
X054637Y032420D01*
X054642Y032579D02*
X055636Y032579D01*
X060806Y033054D02*
X066502Y033054D01*
X066502Y032896D02*
X060888Y032896D01*
X060977Y032737D02*
X066502Y032737D01*
X066502Y032579D02*
X061020Y032579D01*
X061020Y032420D02*
X066502Y032420D01*
X066502Y032262D02*
X060964Y032262D01*
X060857Y032103D02*
X066502Y032103D01*
X066502Y031945D02*
X060839Y031945D01*
X060955Y031786D02*
X066502Y031786D01*
X066502Y031628D02*
X061010Y031628D01*
X061020Y031469D02*
X066502Y031469D01*
X066502Y031311D02*
X060984Y031311D01*
X060898Y031152D02*
X066502Y031152D01*
X066502Y030994D02*
X060790Y030994D01*
X060937Y030835D02*
X066502Y030835D01*
X066502Y030677D02*
X061003Y030677D01*
X061020Y030518D02*
X066502Y030518D01*
X066502Y030360D02*
X061005Y030360D01*
X060939Y030201D02*
X066502Y030201D01*
X066502Y030043D02*
X060796Y030043D01*
X060939Y033213D02*
X066502Y033213D01*
X066502Y033371D02*
X061004Y033371D01*
X061020Y033530D02*
X066502Y033530D01*
X066502Y033688D02*
X060995Y033688D01*
X060921Y033847D02*
X066502Y033847D01*
X066502Y034005D02*
X060766Y034005D01*
X060917Y034164D02*
X066502Y034164D01*
X066502Y034322D02*
X060990Y034322D01*
X061020Y034481D02*
X066502Y034481D01*
X066502Y034639D02*
X061018Y034639D01*
X060952Y034798D02*
X066502Y034798D01*
X066502Y034956D02*
X060827Y034956D01*
X060868Y035115D02*
X066502Y035115D01*
X066502Y035273D02*
X060970Y035273D01*
X061014Y035432D02*
X066502Y035432D01*
X066502Y035590D02*
X061016Y035590D01*
X060974Y035749D02*
X066502Y035749D01*
X066502Y035907D02*
X060876Y035907D01*
X060819Y036066D02*
X066502Y036066D01*
X066502Y036224D02*
X060949Y036224D01*
X061015Y036383D02*
X066502Y036383D01*
X066502Y036541D02*
X061020Y036541D01*
X060993Y036700D02*
X066502Y036700D01*
X066502Y036858D02*
X060925Y036858D01*
X060767Y037017D02*
X066502Y037017D01*
X066502Y037175D02*
X060620Y037175D01*
X060620Y037334D02*
X066502Y037334D01*
X066502Y037492D02*
X060620Y037492D01*
X060530Y039500D02*
X060905Y039875D01*
X060905Y040120D01*
X060285Y040120D01*
X060285Y040160D01*
X060905Y040160D01*
X060905Y040405D01*
X060670Y040640D01*
X060905Y040875D01*
X060905Y041120D01*
X060285Y041120D01*
X060285Y041160D01*
X060905Y041160D01*
X060905Y041405D01*
X060530Y041780D01*
X060285Y041780D01*
X060285Y041160D01*
X060245Y041160D01*
X060245Y041780D01*
X060000Y041780D01*
X059765Y041545D01*
X059530Y041780D01*
X059285Y041780D01*
X059285Y041160D01*
X059245Y041160D01*
X059245Y041780D01*
X059000Y041780D01*
X058625Y041405D01*
X058625Y041160D01*
X059245Y041160D01*
X059245Y041120D01*
X058625Y041120D01*
X058625Y040875D01*
X058860Y040640D01*
X058625Y040405D01*
X058625Y040160D01*
X059245Y040160D01*
X059245Y041120D01*
X059285Y041120D01*
X059285Y041160D01*
X060245Y041160D01*
X060245Y041120D01*
X059625Y041120D01*
X059285Y041120D01*
X059285Y040500D01*
X059285Y040160D01*
X059245Y040160D01*
X059245Y040120D01*
X059285Y040120D01*
X059285Y040160D01*
X060245Y040160D01*
X060245Y041120D01*
X060285Y041120D01*
X060285Y040780D01*
X060285Y040160D01*
X060245Y040160D01*
X060245Y040120D01*
X060285Y040120D01*
X060285Y039500D01*
X060530Y039500D01*
X060583Y039553D02*
X066502Y039553D01*
X066502Y039711D02*
X060741Y039711D01*
X060900Y039870D02*
X066502Y039870D01*
X066502Y040028D02*
X060905Y040028D01*
X060905Y040187D02*
X066502Y040187D01*
X066502Y040345D02*
X066276Y040345D01*
X066444Y040504D02*
X066502Y040504D01*
X065254Y040345D02*
X060905Y040345D01*
X060807Y040504D02*
X065086Y040504D01*
X064956Y040662D02*
X060692Y040662D01*
X060851Y040821D02*
X064891Y040821D01*
X064835Y040979D02*
X060905Y040979D01*
X060905Y041296D02*
X064835Y041296D01*
X064835Y041138D02*
X060285Y041138D01*
X060245Y041138D02*
X059285Y041138D01*
X059245Y041138D02*
X056347Y041138D01*
X056332Y041296D02*
X058625Y041296D01*
X058674Y041455D02*
X056332Y041455D01*
X056280Y041613D02*
X058833Y041613D01*
X058991Y041772D02*
X056139Y041772D01*
X055654Y041772D02*
X054758Y041772D01*
X054899Y041613D02*
X055494Y041613D01*
X055528Y041647D02*
X055528Y041647D01*
X055335Y041455D02*
X054951Y041455D01*
X055024Y041296D02*
X055177Y041296D01*
X055140Y040345D02*
X055112Y040345D01*
X054975Y040187D02*
X055462Y040187D01*
X055468Y040028D02*
X054944Y040028D01*
X054870Y039870D02*
X055542Y039870D01*
X055771Y039711D02*
X054641Y039711D01*
X054390Y039711D02*
X054217Y039711D01*
X053378Y038602D02*
X052152Y038602D01*
X052310Y038443D02*
X053220Y038443D01*
X053165Y038285D02*
X052365Y038285D01*
X052365Y038126D02*
X053165Y038126D01*
X053165Y037968D02*
X052365Y037968D01*
X052283Y037809D02*
X053247Y037809D01*
X056022Y039711D02*
X058789Y039711D01*
X058630Y039870D02*
X056251Y039870D01*
X056325Y040028D02*
X058625Y040028D01*
X058625Y040120D02*
X058625Y039875D01*
X059000Y039500D01*
X059245Y039500D01*
X059245Y040120D01*
X058625Y040120D01*
X058625Y040187D02*
X056332Y040187D01*
X056332Y040345D02*
X058625Y040345D01*
X058723Y040504D02*
X056462Y040504D01*
X056537Y040662D02*
X058838Y040662D01*
X058679Y040821D02*
X056544Y040821D01*
X056491Y040979D02*
X058625Y040979D01*
X059245Y040979D02*
X059285Y040979D01*
X059285Y040821D02*
X059245Y040821D01*
X059245Y040662D02*
X059285Y040662D01*
X059285Y040504D02*
X059245Y040504D01*
X059245Y040345D02*
X059285Y040345D01*
X059285Y040187D02*
X059245Y040187D01*
X059285Y040120D02*
X059625Y040120D01*
X060245Y040120D01*
X060245Y039500D01*
X060000Y039500D01*
X059765Y039735D01*
X059530Y039500D01*
X059285Y039500D01*
X059285Y040120D01*
X059285Y040028D02*
X059245Y040028D01*
X059245Y039870D02*
X059285Y039870D01*
X059285Y039711D02*
X059245Y039711D01*
X059245Y039553D02*
X059285Y039553D01*
X059583Y039553D02*
X059947Y039553D01*
X059789Y039711D02*
X059741Y039711D01*
X060245Y039711D02*
X060285Y039711D01*
X060285Y039553D02*
X060245Y039553D01*
X060245Y039870D02*
X060285Y039870D01*
X060285Y040028D02*
X060245Y040028D01*
X060245Y040187D02*
X060285Y040187D01*
X060285Y040345D02*
X060245Y040345D01*
X060245Y040504D02*
X060285Y040504D01*
X060285Y040662D02*
X060245Y040662D01*
X060245Y040821D02*
X060285Y040821D01*
X060285Y040979D02*
X060245Y040979D01*
X060245Y041296D02*
X060285Y041296D01*
X060285Y041455D02*
X060245Y041455D01*
X060245Y041613D02*
X060285Y041613D01*
X060285Y041772D02*
X060245Y041772D01*
X059991Y041772D02*
X059539Y041772D01*
X059697Y041613D02*
X059833Y041613D01*
X059285Y041613D02*
X059245Y041613D01*
X059245Y041455D02*
X059285Y041455D01*
X059285Y041296D02*
X059245Y041296D01*
X059245Y041772D02*
X059285Y041772D01*
X060539Y041772D02*
X065081Y041772D01*
X064954Y041613D02*
X060697Y041613D01*
X060856Y041455D02*
X064889Y041455D01*
X065242Y041930D02*
X005788Y041930D01*
X005792Y041928D02*
X005450Y042070D01*
X005080Y042070D01*
X004738Y041928D01*
X004477Y041667D01*
X004335Y041325D01*
X004335Y040955D01*
X004477Y040613D01*
X004738Y040352D01*
X005080Y040210D01*
X005450Y040210D01*
X005792Y040352D01*
X006053Y040613D01*
X006195Y040955D01*
X006195Y041325D01*
X006053Y041667D01*
X005792Y041928D01*
X005949Y041772D02*
X007116Y041772D01*
X006958Y041613D02*
X006076Y041613D01*
X006141Y041455D02*
X006799Y041455D01*
X006750Y041296D02*
X006195Y041296D01*
X006195Y041138D02*
X006750Y041138D01*
X006750Y040979D02*
X006195Y040979D01*
X006139Y040821D02*
X006804Y040821D01*
X006963Y040662D02*
X006074Y040662D01*
X005950Y040504D02*
X005944Y040504D01*
X005791Y040345D02*
X005776Y040345D01*
X005633Y040187D02*
X004270Y040187D01*
X004270Y040345D02*
X004754Y040345D01*
X004586Y040504D02*
X004270Y040504D01*
X004270Y040662D02*
X004456Y040662D01*
X004391Y040821D02*
X004270Y040821D01*
X004270Y040979D02*
X004335Y040979D01*
X004335Y041138D02*
X004270Y041138D01*
X004270Y041296D02*
X004335Y041296D01*
X004389Y041455D02*
X004270Y041455D01*
X004270Y041613D02*
X004454Y041613D01*
X004581Y041772D02*
X004270Y041772D01*
X004270Y041930D02*
X004742Y041930D01*
X004270Y042089D02*
X066502Y042089D01*
X066502Y042247D02*
X004270Y042247D01*
X004270Y042406D02*
X066502Y042406D01*
X066502Y042564D02*
X004270Y042564D01*
X004270Y042723D02*
X066502Y042723D01*
X066502Y041930D02*
X066288Y041930D01*
X066449Y041772D02*
X066502Y041772D01*
X066502Y027982D02*
X049915Y027982D01*
X049915Y027824D02*
X066502Y027824D01*
X066502Y027665D02*
X049915Y027665D01*
X049915Y027507D02*
X066502Y027507D01*
X066502Y027348D02*
X049915Y027348D01*
X049915Y027190D02*
X066502Y027190D01*
X066502Y027031D02*
X049915Y027031D01*
X049915Y026873D02*
X066502Y026873D01*
X066502Y026714D02*
X049915Y026714D01*
X049915Y026556D02*
X066502Y026556D01*
X066502Y026397D02*
X049915Y026397D01*
X049915Y026239D02*
X066502Y026239D01*
X066502Y026080D02*
X049915Y026080D01*
X049915Y025922D02*
X066502Y025922D01*
X066502Y025763D02*
X049915Y025763D01*
X049915Y025605D02*
X066502Y025605D01*
X058015Y020015D02*
X057140Y020890D01*
X056640Y020890D01*
X057140Y020390D02*
X057515Y020015D01*
X057515Y018265D01*
X057140Y017890D01*
X056640Y017890D01*
X057214Y017363D02*
X057615Y017363D01*
X057615Y017521D02*
X057400Y017521D01*
X057495Y017680D02*
X057615Y017680D01*
X058015Y017015D02*
X058015Y020015D01*
X055390Y019890D02*
X054890Y019390D01*
X042890Y019390D01*
X042390Y019890D01*
X040390Y019890D01*
X040390Y020890D02*
X042390Y020890D01*
X042890Y021390D01*
X040390Y020890D02*
X037890Y020890D01*
X037390Y021390D01*
X037704Y021642D02*
X039563Y021642D01*
X039668Y021484D02*
X037862Y021484D01*
X038021Y021325D02*
X039697Y021325D01*
X041265Y019390D02*
X016390Y019390D01*
X014890Y020890D01*
X014390Y020890D01*
X014390Y022890D02*
X014890Y022890D01*
X017390Y020390D01*
X047390Y020390D01*
X047890Y019890D01*
X048890Y019890D01*
X050390Y024971D02*
X050390Y024971D01*
X050390Y025129D02*
X050390Y025129D01*
X050390Y025288D02*
X050390Y025288D01*
X050390Y025446D02*
X050390Y025446D01*
X042931Y030043D02*
X040290Y030043D01*
X040290Y030201D02*
X042778Y030201D01*
X042712Y030360D02*
X040290Y030360D01*
X040290Y030518D02*
X042695Y030518D01*
X042715Y030677D02*
X040290Y030677D01*
X040290Y030835D02*
X042781Y030835D01*
X042937Y030994D02*
X040290Y030994D01*
X040290Y031152D02*
X043336Y031152D01*
X039515Y029765D02*
X039015Y029265D01*
X039015Y024640D01*
X039765Y023890D01*
X040390Y023890D01*
X040390Y024971D02*
X040390Y024971D01*
X040390Y025129D02*
X040390Y025129D01*
X040390Y025288D02*
X040390Y025288D01*
X040390Y025446D02*
X040390Y025446D01*
X039880Y025446D02*
X039790Y025446D01*
X037015Y027015D02*
X035515Y025515D01*
X031765Y025515D01*
X031242Y025288D02*
X031121Y025288D01*
X031195Y025446D02*
X030900Y025446D01*
X031195Y025605D02*
X029915Y025605D01*
X029915Y025763D02*
X031086Y025763D01*
X030989Y025922D02*
X029915Y025922D01*
X029915Y026080D02*
X030945Y026080D01*
X030945Y026239D02*
X029915Y026239D01*
X029915Y026397D02*
X031005Y026397D01*
X031124Y026556D02*
X029915Y026556D01*
X029915Y026714D02*
X035273Y026714D01*
X035115Y026556D02*
X031906Y026556D01*
X031515Y026140D02*
X035265Y026140D01*
X036765Y027640D01*
X036195Y027665D02*
X029915Y027665D01*
X029915Y027507D02*
X036066Y027507D01*
X035907Y027348D02*
X029915Y027348D01*
X029915Y027190D02*
X035749Y027190D01*
X035590Y027031D02*
X029915Y027031D01*
X029915Y026873D02*
X035432Y026873D01*
X036224Y027824D02*
X029915Y027824D01*
X029915Y027982D02*
X036301Y027982D01*
X036484Y028141D02*
X029956Y028141D01*
X029515Y028265D02*
X029890Y028640D01*
X029890Y030515D01*
X033890Y034515D01*
X034390Y034515D01*
X034390Y033515D02*
X034890Y033515D01*
X036890Y035515D01*
X037390Y035515D01*
X038015Y036015D02*
X038265Y035765D01*
X038265Y034765D01*
X038015Y034515D01*
X037390Y034515D01*
X035890Y033015D02*
X033890Y033015D01*
X033640Y033265D01*
X034390Y032515D02*
X035015Y032515D01*
X036515Y031015D01*
X038140Y031015D01*
X038640Y030515D01*
X039515Y029765D02*
X039515Y034515D01*
X037390Y031515D02*
X035890Y033015D01*
X034890Y032515D02*
X034390Y032515D01*
X033336Y031152D02*
X031093Y031152D01*
X030934Y030994D02*
X032937Y030994D01*
X036038Y030176D02*
X036185Y030115D01*
X036661Y030115D01*
X036770Y030006D01*
X029515Y028265D02*
X029515Y024765D01*
X029890Y024390D01*
X031015Y024390D01*
X031515Y024890D01*
X034390Y024890D01*
X030390Y024971D02*
X030390Y024971D01*
X030390Y025129D02*
X030390Y025129D01*
X030390Y025288D02*
X030390Y025288D01*
X030390Y025446D02*
X030390Y025446D01*
X027990Y025446D02*
X024895Y025446D01*
X025121Y025288D02*
X027990Y025288D01*
X027990Y025129D02*
X025220Y025129D01*
X025270Y024971D02*
X027990Y024971D01*
X027990Y024812D02*
X025270Y024812D01*
X025442Y024654D02*
X027990Y024654D01*
X027990Y024495D02*
X025601Y024495D01*
X025759Y024337D02*
X027990Y024337D01*
X027990Y024178D02*
X025918Y024178D01*
X026076Y024020D02*
X027990Y024020D01*
X027990Y023861D02*
X027836Y023861D01*
X027515Y023861D02*
X027515Y023861D01*
X027515Y023703D02*
X027515Y023703D01*
X027515Y023544D02*
X027515Y023544D01*
X027515Y023390D02*
X027515Y023390D01*
X027515Y023390D01*
X027515Y022820D01*
X027470Y022820D01*
X027382Y022834D01*
X027296Y022862D01*
X027216Y022902D01*
X027144Y022955D01*
X027080Y023019D01*
X027027Y023091D01*
X026987Y023171D01*
X026959Y023257D01*
X026945Y023345D01*
X026945Y023390D01*
X027515Y023390D01*
X027515Y023386D02*
X027515Y023386D01*
X027515Y023227D02*
X027515Y023227D01*
X027515Y023069D02*
X027515Y023069D01*
X027515Y022910D02*
X027515Y022910D01*
X027344Y022752D02*
X028463Y022752D01*
X028304Y022910D02*
X027824Y022910D01*
X027986Y023069D02*
X028146Y023069D01*
X028621Y022593D02*
X027503Y022593D01*
X027661Y022435D02*
X028780Y022435D01*
X028938Y022276D02*
X027820Y022276D01*
X027978Y022118D02*
X029097Y022118D01*
X029255Y021959D02*
X028137Y021959D01*
X028295Y021801D02*
X029414Y021801D01*
X027206Y022910D02*
X027186Y022910D01*
X027044Y023069D02*
X027027Y023069D01*
X026969Y023227D02*
X026869Y023227D01*
X026945Y023386D02*
X026710Y023386D01*
X026552Y023544D02*
X026966Y023544D01*
X027038Y023703D02*
X026393Y023703D01*
X026235Y023861D02*
X027194Y023861D01*
X024390Y024890D02*
X024015Y024890D01*
X020390Y024971D02*
X020390Y024971D01*
X020390Y025129D02*
X020390Y025129D01*
X020390Y025288D02*
X020390Y025288D01*
X020390Y025446D02*
X020390Y025446D01*
X017262Y024337D02*
X017259Y024337D01*
X017138Y024495D02*
X017101Y024495D01*
X017081Y024654D02*
X016942Y024654D01*
X020890Y021390D02*
X021390Y021890D01*
X021089Y015461D02*
X022254Y015461D01*
X022412Y015302D02*
X021107Y015302D01*
X021214Y015144D02*
X022571Y015144D01*
X023510Y014985D02*
X021270Y014985D01*
X021270Y014827D02*
X023510Y014827D01*
X023553Y014668D02*
X021227Y014668D01*
X021138Y014510D02*
X023642Y014510D01*
X023722Y014351D02*
X021058Y014351D01*
X021194Y014193D02*
X023586Y014193D01*
X023520Y014034D02*
X021260Y014034D01*
X021270Y013876D02*
X023510Y013876D01*
X023532Y013717D02*
X021248Y013717D01*
X021182Y013559D02*
X023598Y013559D01*
X023751Y013400D02*
X021184Y013400D01*
X021342Y013242D02*
X027866Y013242D01*
X027862Y013234D02*
X027834Y013148D01*
X027820Y013060D01*
X027820Y013015D01*
X028390Y013015D01*
X028390Y013015D01*
X028390Y013015D01*
X028390Y013585D01*
X028345Y013585D01*
X028257Y013571D01*
X028171Y013543D01*
X028091Y013503D01*
X028019Y013450D01*
X027955Y013386D01*
X027902Y013314D01*
X027862Y013234D01*
X027824Y013083D02*
X024796Y013083D01*
X024954Y012925D02*
X027827Y012925D01*
X027834Y012882D02*
X027862Y012796D01*
X027902Y012716D01*
X027955Y012644D01*
X028019Y012580D01*
X028091Y012527D01*
X028171Y012487D01*
X028257Y012459D01*
X028345Y012445D01*
X028390Y012445D01*
X028390Y013015D01*
X027820Y013015D01*
X027820Y012970D01*
X027834Y012882D01*
X027877Y012766D02*
X024990Y012766D01*
X024990Y012608D02*
X027991Y012608D01*
X028320Y012449D02*
X024990Y012449D01*
X024889Y012291D02*
X031415Y012291D01*
X031415Y012449D02*
X028460Y012449D01*
X028390Y012449D02*
X028390Y012449D01*
X028390Y012608D02*
X028390Y012608D01*
X028390Y012766D02*
X028390Y012766D01*
X028390Y012925D02*
X028390Y012925D01*
X028390Y013083D02*
X028390Y013083D01*
X028390Y013242D02*
X028390Y013242D01*
X028390Y013400D02*
X028390Y013400D01*
X028390Y013559D02*
X028390Y013559D01*
X028562Y013559D02*
X029598Y013559D01*
X029532Y013717D02*
X025248Y013717D01*
X025270Y013876D02*
X029510Y013876D01*
X029520Y014034D02*
X025260Y014034D01*
X025194Y014193D02*
X029586Y014193D01*
X029722Y014351D02*
X025058Y014351D01*
X025138Y014510D02*
X029642Y014510D01*
X029553Y014668D02*
X025227Y014668D01*
X025270Y014827D02*
X029510Y014827D01*
X029510Y014985D02*
X025270Y014985D01*
X025182Y013559D02*
X028218Y013559D01*
X027969Y013400D02*
X025029Y013400D01*
X023984Y013083D02*
X022796Y013083D01*
X022954Y012925D02*
X023826Y012925D01*
X023790Y012766D02*
X022990Y012766D01*
X022990Y012608D02*
X023790Y012608D01*
X023790Y012449D02*
X022990Y012449D01*
X022889Y012291D02*
X023891Y012291D01*
X023910Y012132D02*
X022731Y012132D01*
X022390Y012766D02*
X022390Y012766D01*
X022390Y012925D02*
X022390Y012925D01*
X022390Y013083D02*
X022390Y013083D01*
X021984Y013083D02*
X021501Y013083D01*
X021659Y012925D02*
X021826Y012925D01*
X020390Y012515D02*
X020390Y006890D01*
X020640Y006640D01*
X021390Y006640D01*
X021890Y007140D01*
X020890Y007140D02*
X020890Y007390D01*
X022015Y008515D01*
X033140Y008515D01*
X037390Y012765D01*
X035792Y014351D02*
X038988Y014351D01*
X038830Y014510D02*
X035950Y014510D01*
X035633Y014193D02*
X039147Y014193D01*
X039329Y014034D02*
X035451Y014034D01*
X033701Y012925D02*
X032329Y012925D01*
X031415Y012608D02*
X028789Y012608D01*
X028811Y013400D02*
X029751Y013400D01*
X031424Y012132D02*
X024870Y012132D01*
X027709Y015144D02*
X029566Y015144D01*
X029673Y015302D02*
X027868Y015302D01*
X028026Y015461D02*
X029691Y015461D01*
X019890Y010265D02*
X019390Y010765D01*
X019390Y012515D01*
X018390Y012515D02*
X018390Y011265D01*
X019390Y010265D01*
X019390Y005765D01*
X019890Y005265D01*
X033390Y005265D01*
X033890Y005765D01*
X033890Y006140D01*
X033890Y007140D02*
X037265Y007140D01*
X038140Y007015D02*
X036015Y004890D01*
X019015Y004890D01*
X018390Y005515D01*
X018390Y006640D01*
X018890Y007140D01*
X018539Y007694D02*
X018241Y007694D01*
X017539Y007694D02*
X017241Y007694D01*
X016539Y007694D02*
X016241Y007694D01*
X015539Y007694D02*
X015241Y007694D01*
X014539Y007694D02*
X014241Y007694D01*
X013539Y007694D02*
X013241Y007694D01*
X012539Y007694D02*
X012241Y007694D01*
X011539Y007694D02*
X011241Y007694D01*
X010539Y007694D02*
X008741Y007694D01*
X008655Y007780D02*
X008410Y007780D01*
X008410Y007160D01*
X009030Y007160D01*
X009030Y007405D01*
X008655Y007780D01*
X008410Y007694D02*
X008370Y007694D01*
X008370Y007780D02*
X008125Y007780D01*
X007890Y007545D01*
X007655Y007780D01*
X007410Y007780D01*
X007410Y007160D01*
X007370Y007160D01*
X007370Y007780D01*
X007125Y007780D01*
X006750Y007405D01*
X006750Y007160D01*
X007370Y007160D01*
X007370Y007120D01*
X006750Y007120D01*
X006750Y006875D01*
X006985Y006640D01*
X006750Y006405D01*
X006750Y006160D01*
X007370Y006160D01*
X007370Y007120D01*
X007410Y007120D01*
X007410Y007160D01*
X008370Y007160D01*
X008370Y007780D01*
X008370Y007536D02*
X008410Y007536D01*
X008410Y007377D02*
X008370Y007377D01*
X008370Y007219D02*
X008410Y007219D01*
X008410Y007160D02*
X008370Y007160D01*
X008370Y007120D01*
X008410Y007120D01*
X008410Y007160D01*
X008410Y007120D02*
X009030Y007120D01*
X009030Y006875D01*
X008795Y006640D01*
X009030Y006405D01*
X009030Y006160D01*
X008410Y006160D01*
X008410Y006120D01*
X009030Y006120D01*
X009030Y005875D01*
X008655Y005500D01*
X008410Y005500D01*
X008410Y006120D01*
X008370Y006120D01*
X008370Y005500D01*
X008125Y005500D01*
X007890Y005735D01*
X007655Y005500D01*
X007410Y005500D01*
X007410Y006120D01*
X007410Y006160D01*
X008370Y006160D01*
X008370Y007120D01*
X007750Y007120D01*
X007410Y007120D01*
X007410Y006500D01*
X007410Y006160D01*
X007370Y006160D01*
X007370Y006120D01*
X007410Y006120D01*
X007750Y006120D01*
X008370Y006120D01*
X008370Y006160D01*
X008410Y006160D01*
X008410Y006500D01*
X008410Y007120D01*
X008410Y007060D02*
X008370Y007060D01*
X008370Y006902D02*
X008410Y006902D01*
X008410Y006743D02*
X008370Y006743D01*
X008370Y006585D02*
X008410Y006585D01*
X008410Y006426D02*
X008370Y006426D01*
X008370Y006268D02*
X008410Y006268D01*
X008410Y006109D02*
X008370Y006109D01*
X008370Y005951D02*
X008410Y005951D01*
X008410Y005792D02*
X008370Y005792D01*
X008370Y005634D02*
X008410Y005634D01*
X008789Y005634D02*
X010491Y005634D01*
X010333Y005792D02*
X008947Y005792D01*
X009030Y005951D02*
X010250Y005951D01*
X010250Y006109D02*
X009030Y006109D01*
X009030Y006268D02*
X010250Y006268D01*
X010271Y006426D02*
X009009Y006426D01*
X008851Y006585D02*
X010429Y006585D01*
X010382Y006743D02*
X008898Y006743D01*
X009030Y006902D02*
X010250Y006902D01*
X010250Y007060D02*
X009030Y007060D01*
X009030Y007219D02*
X010250Y007219D01*
X010250Y007377D02*
X009030Y007377D01*
X008900Y007536D02*
X010380Y007536D01*
X008039Y007694D02*
X007741Y007694D01*
X007410Y007694D02*
X007370Y007694D01*
X007370Y007536D02*
X007410Y007536D01*
X007410Y007377D02*
X007370Y007377D01*
X007370Y007219D02*
X007410Y007219D01*
X007410Y007060D02*
X007370Y007060D01*
X007370Y006902D02*
X007410Y006902D01*
X007410Y006743D02*
X007370Y006743D01*
X007370Y006585D02*
X007410Y006585D01*
X007410Y006426D02*
X007370Y006426D01*
X007370Y006268D02*
X007410Y006268D01*
X007370Y006120D02*
X006750Y006120D01*
X006750Y005875D01*
X007125Y005500D01*
X007370Y005500D01*
X007370Y006120D01*
X007370Y006109D02*
X007410Y006109D01*
X007410Y005951D02*
X007370Y005951D01*
X007370Y005792D02*
X007410Y005792D01*
X007410Y005634D02*
X007370Y005634D01*
X006991Y005634D02*
X006062Y005634D01*
X006053Y005613D02*
X006195Y005955D01*
X006195Y006325D01*
X006053Y006667D01*
X005792Y006928D01*
X005450Y007070D01*
X005080Y007070D01*
X004738Y006928D01*
X004477Y006667D01*
X004335Y006325D01*
X004335Y005955D01*
X004477Y005613D01*
X004738Y005352D01*
X005080Y005210D01*
X005450Y005210D01*
X005792Y005352D01*
X006053Y005613D01*
X006127Y005792D02*
X006833Y005792D01*
X006750Y005951D02*
X006193Y005951D01*
X006195Y006109D02*
X006750Y006109D01*
X006750Y006268D02*
X006195Y006268D01*
X006153Y006426D02*
X006771Y006426D01*
X006929Y006585D02*
X006088Y006585D01*
X005977Y006743D02*
X006882Y006743D01*
X006750Y006902D02*
X005819Y006902D01*
X005474Y007060D02*
X006750Y007060D01*
X006750Y007219D02*
X004270Y007219D01*
X004270Y007377D02*
X006750Y007377D01*
X006880Y007536D02*
X004270Y007536D01*
X004270Y007694D02*
X007039Y007694D01*
X005056Y007060D02*
X004270Y007060D01*
X004270Y006902D02*
X004711Y006902D01*
X004553Y006743D02*
X004270Y006743D01*
X004270Y006585D02*
X004442Y006585D01*
X004377Y006426D02*
X004270Y006426D01*
X004270Y006268D02*
X004335Y006268D01*
X004335Y006109D02*
X004270Y006109D01*
X004270Y005951D02*
X004337Y005951D01*
X004270Y005792D02*
X004403Y005792D01*
X004468Y005634D02*
X004270Y005634D01*
X004270Y005475D02*
X004615Y005475D01*
X004823Y005317D02*
X004270Y005317D01*
X004270Y005158D02*
X018181Y005158D01*
X018039Y005317D02*
X005707Y005317D01*
X005915Y005475D02*
X017990Y005475D01*
X017491Y005634D02*
X017289Y005634D01*
X016491Y005634D02*
X016289Y005634D01*
X015491Y005634D02*
X015289Y005634D01*
X014491Y005634D02*
X014289Y005634D01*
X013491Y005634D02*
X013289Y005634D01*
X012491Y005634D02*
X012289Y005634D01*
X011491Y005634D02*
X011289Y005634D01*
X007991Y005634D02*
X007789Y005634D01*
X004270Y005000D02*
X018340Y005000D01*
X018498Y004841D02*
X004270Y004841D01*
X004270Y004683D02*
X018657Y004683D01*
X018853Y004524D02*
X004270Y004524D01*
X004270Y007853D02*
X018990Y007853D01*
X018990Y008011D02*
X004270Y008011D01*
X004270Y008170D02*
X018990Y008170D01*
X018990Y008328D02*
X004270Y008328D01*
X004270Y008487D02*
X018990Y008487D01*
X018990Y008645D02*
X004270Y008645D01*
X004270Y008804D02*
X018990Y008804D01*
X018990Y008962D02*
X004270Y008962D01*
X004270Y009121D02*
X018990Y009121D01*
X018990Y009279D02*
X004270Y009279D01*
X004270Y009438D02*
X018990Y009438D01*
X018990Y009596D02*
X007126Y009596D01*
X007030Y009500D02*
X007405Y009875D01*
X007405Y010405D01*
X007170Y010640D01*
X007405Y010875D01*
X007405Y011405D01*
X007170Y011640D01*
X007405Y011875D01*
X007405Y012405D01*
X007170Y012640D01*
X007405Y012875D01*
X007405Y013405D01*
X007170Y013640D01*
X007405Y013875D01*
X007405Y014405D01*
X007170Y014640D01*
X007405Y014875D01*
X007405Y015405D01*
X007170Y015640D01*
X007405Y015875D01*
X007405Y016405D01*
X007170Y016640D01*
X007405Y016875D01*
X007405Y017405D01*
X007030Y017780D01*
X006500Y017780D01*
X006265Y017545D01*
X006030Y017780D01*
X005500Y017780D01*
X005125Y017405D01*
X005125Y016875D01*
X005360Y016640D01*
X005125Y016405D01*
X005125Y015875D01*
X005360Y015640D01*
X005125Y015405D01*
X005125Y014875D01*
X005360Y014640D01*
X005125Y014405D01*
X005125Y013875D01*
X005360Y013640D01*
X005125Y013405D01*
X005125Y012875D01*
X005360Y012640D01*
X005125Y012405D01*
X005125Y011875D01*
X005360Y011640D01*
X005125Y011405D01*
X005125Y010875D01*
X005360Y010640D01*
X005125Y010405D01*
X005125Y009875D01*
X005500Y009500D01*
X006030Y009500D01*
X006265Y009735D01*
X006500Y009500D01*
X007030Y009500D01*
X007285Y009755D02*
X018990Y009755D01*
X018990Y009913D02*
X007405Y009913D01*
X007405Y010072D02*
X018990Y010072D01*
X018859Y010230D02*
X007405Y010230D01*
X007405Y010389D02*
X018701Y010389D01*
X018542Y010547D02*
X007263Y010547D01*
X007236Y010706D02*
X018384Y010706D01*
X018225Y010864D02*
X007394Y010864D01*
X007405Y011023D02*
X018067Y011023D01*
X017992Y011181D02*
X007405Y011181D01*
X007405Y011340D02*
X017990Y011340D01*
X017990Y011498D02*
X007312Y011498D01*
X007187Y011657D02*
X017990Y011657D01*
X017990Y011815D02*
X007345Y011815D01*
X007405Y011974D02*
X017990Y011974D01*
X017967Y012132D02*
X007405Y012132D01*
X007405Y012291D02*
X017866Y012291D01*
X017820Y012449D02*
X007361Y012449D01*
X007203Y012608D02*
X017820Y012608D01*
X019890Y010265D02*
X019890Y007140D01*
X012335Y012766D02*
X007296Y012766D01*
X007405Y012925D02*
X012177Y012925D01*
X012018Y013083D02*
X007405Y013083D01*
X007405Y013242D02*
X011860Y013242D01*
X011701Y013400D02*
X011499Y013400D01*
X011140Y013400D02*
X011140Y013400D01*
X011140Y013290D02*
X011140Y013890D01*
X011140Y013890D01*
X011140Y013890D01*
X010540Y013890D01*
X010540Y014139D01*
X010891Y014490D01*
X011140Y014490D01*
X011140Y013890D01*
X010540Y013890D01*
X010540Y013641D01*
X010891Y013290D01*
X011140Y013290D01*
X011140Y013559D02*
X011140Y013559D01*
X011140Y013717D02*
X011140Y013717D01*
X011140Y013876D02*
X011140Y013876D01*
X011140Y014034D02*
X011140Y014034D01*
X011140Y014193D02*
X011140Y014193D01*
X011140Y014351D02*
X011140Y014351D01*
X011528Y014351D02*
X011535Y014351D01*
X011535Y014510D02*
X007301Y014510D01*
X007198Y014668D02*
X011535Y014668D01*
X011535Y014827D02*
X007357Y014827D01*
X007405Y014985D02*
X011535Y014985D01*
X011458Y015144D02*
X007405Y015144D01*
X007405Y015302D02*
X011299Y015302D01*
X011141Y015461D02*
X007350Y015461D01*
X007191Y015619D02*
X010982Y015619D01*
X010824Y015778D02*
X007308Y015778D01*
X007405Y015936D02*
X010665Y015936D01*
X010507Y016095D02*
X007405Y016095D01*
X007405Y016253D02*
X010348Y016253D01*
X010190Y016412D02*
X007399Y016412D01*
X007240Y016570D02*
X010031Y016570D01*
X009873Y016729D02*
X007259Y016729D01*
X007405Y016887D02*
X009714Y016887D01*
X009556Y017046D02*
X007405Y017046D01*
X007405Y017204D02*
X009397Y017204D01*
X009239Y017363D02*
X007405Y017363D01*
X007289Y017521D02*
X009080Y017521D01*
X008922Y017680D02*
X007131Y017680D01*
X006399Y017680D02*
X006131Y017680D01*
X005399Y017680D02*
X004270Y017680D01*
X004270Y017838D02*
X008763Y017838D01*
X008605Y017997D02*
X004270Y017997D01*
X004270Y018155D02*
X008446Y018155D01*
X005538Y018314D02*
X004270Y018314D01*
X004270Y018472D02*
X005379Y018472D01*
X005483Y018368D02*
X005483Y018368D01*
X005221Y018631D02*
X004270Y018631D01*
X004270Y018789D02*
X005062Y018789D01*
X004904Y018948D02*
X004270Y018948D01*
X004270Y019106D02*
X004745Y019106D01*
X004587Y019265D02*
X004270Y019265D01*
X004270Y019423D02*
X004428Y019423D01*
X004270Y017521D02*
X005241Y017521D01*
X005125Y017363D02*
X004270Y017363D01*
X004270Y017204D02*
X005125Y017204D01*
X005125Y017046D02*
X004270Y017046D01*
X004270Y016887D02*
X005125Y016887D01*
X005271Y016729D02*
X004270Y016729D01*
X004270Y016570D02*
X005290Y016570D01*
X005131Y016412D02*
X004270Y016412D01*
X004270Y016253D02*
X005125Y016253D01*
X005125Y016095D02*
X004270Y016095D01*
X004270Y015936D02*
X005125Y015936D01*
X005222Y015778D02*
X004270Y015778D01*
X004270Y015619D02*
X005339Y015619D01*
X005180Y015461D02*
X004270Y015461D01*
X004270Y015302D02*
X005125Y015302D01*
X005125Y015144D02*
X004270Y015144D01*
X004270Y014985D02*
X005125Y014985D01*
X005173Y014827D02*
X004270Y014827D01*
X004270Y014668D02*
X005332Y014668D01*
X005229Y014510D02*
X004270Y014510D01*
X004270Y014351D02*
X005125Y014351D01*
X005125Y014193D02*
X004270Y014193D01*
X004270Y014034D02*
X005125Y014034D01*
X005125Y013876D02*
X004270Y013876D01*
X004270Y013717D02*
X005283Y013717D01*
X005278Y013559D02*
X004270Y013559D01*
X004270Y013400D02*
X005125Y013400D01*
X005125Y013242D02*
X004270Y013242D01*
X004270Y013083D02*
X005125Y013083D01*
X005125Y012925D02*
X004270Y012925D01*
X004270Y012766D02*
X005234Y012766D01*
X005327Y012608D02*
X004270Y012608D01*
X004270Y012449D02*
X005169Y012449D01*
X005125Y012291D02*
X004270Y012291D01*
X004270Y012132D02*
X005125Y012132D01*
X005125Y011974D02*
X004270Y011974D01*
X004270Y011815D02*
X005185Y011815D01*
X005343Y011657D02*
X004270Y011657D01*
X004270Y011498D02*
X005218Y011498D01*
X005125Y011340D02*
X004270Y011340D01*
X004270Y011181D02*
X005125Y011181D01*
X005125Y011023D02*
X004270Y011023D01*
X004270Y010864D02*
X005136Y010864D01*
X005294Y010706D02*
X004270Y010706D01*
X004270Y010547D02*
X005267Y010547D01*
X005125Y010389D02*
X004270Y010389D01*
X004270Y010230D02*
X005125Y010230D01*
X005125Y010072D02*
X004270Y010072D01*
X004270Y009913D02*
X005125Y009913D01*
X005245Y009755D02*
X004270Y009755D01*
X004270Y009596D02*
X005404Y009596D01*
X006126Y009596D02*
X006404Y009596D01*
X007405Y013400D02*
X010781Y013400D01*
X010623Y013559D02*
X007252Y013559D01*
X007247Y013717D02*
X010540Y013717D01*
X010540Y013876D02*
X007405Y013876D01*
X007405Y014034D02*
X010540Y014034D01*
X010594Y014193D02*
X007405Y014193D01*
X007405Y014351D02*
X010752Y014351D01*
X009140Y028140D02*
X006765Y028140D01*
X009140Y028140D02*
X012015Y031015D01*
X004365Y038919D02*
X004270Y038919D01*
X004270Y039077D02*
X004523Y039077D01*
X004682Y039236D02*
X004270Y039236D01*
X004270Y039394D02*
X004840Y039394D01*
X004999Y039553D02*
X004270Y039553D01*
X004270Y039711D02*
X005157Y039711D01*
X005316Y039870D02*
X004270Y039870D01*
X004270Y040028D02*
X005474Y040028D01*
X006356Y039553D02*
X007072Y039553D01*
X007708Y039553D02*
X008072Y039553D01*
X008116Y041772D02*
X007664Y041772D01*
X024390Y030515D02*
X024390Y030515D01*
X024390Y029915D01*
X024390Y030515D01*
X024390Y030360D02*
X024390Y030360D01*
X024390Y030201D02*
X024390Y030201D01*
X024390Y030043D02*
X024390Y030043D01*
X026038Y030176D02*
X026185Y030115D01*
X026661Y030115D01*
X026770Y030006D01*
X028140Y031015D02*
X028640Y030515D01*
X038270Y039553D02*
X040362Y039553D01*
X040520Y039711D02*
X038238Y039711D01*
X038164Y039870D02*
X040701Y039870D01*
X058790Y017680D02*
X058899Y017680D01*
X059631Y017680D02*
X059899Y017680D01*
X058771Y016729D02*
X058756Y016729D01*
X058790Y016570D02*
X058636Y016570D01*
X058631Y016412D02*
X058477Y016412D01*
X058625Y016253D02*
X058319Y016253D01*
X058160Y016095D02*
X058625Y016095D01*
X058625Y015936D02*
X058002Y015936D01*
X057843Y015778D02*
X058722Y015778D01*
X058839Y015619D02*
X057685Y015619D01*
X057526Y015461D02*
X058680Y015461D01*
X058625Y015302D02*
X057368Y015302D01*
X057209Y015144D02*
X058625Y015144D01*
X058625Y014985D02*
X057051Y014985D01*
X056892Y014827D02*
X058673Y014827D01*
X058832Y014668D02*
X056734Y014668D01*
X056575Y014510D02*
X058729Y014510D01*
X058625Y014351D02*
X056417Y014351D01*
X056258Y014193D02*
X058625Y014193D01*
X058625Y014034D02*
X056100Y014034D01*
X055941Y013876D02*
X058625Y013876D01*
X058783Y013717D02*
X055783Y013717D01*
X055390Y014390D02*
X058015Y017015D01*
X055972Y009755D02*
X040195Y009755D01*
X040037Y009596D02*
X056130Y009596D01*
X056289Y009438D02*
X039878Y009438D01*
X039720Y009279D02*
X056447Y009279D01*
X056606Y009121D02*
X039561Y009121D01*
X039403Y008962D02*
X056764Y008962D01*
X056923Y008804D02*
X039244Y008804D01*
X039086Y008645D02*
X057081Y008645D01*
X057240Y008487D02*
X038927Y008487D01*
X038769Y008328D02*
X057398Y008328D01*
X057557Y008170D02*
X038610Y008170D01*
X038540Y008011D02*
X057715Y008011D01*
X057874Y007853D02*
X038540Y007853D01*
X039241Y007694D02*
X039539Y007694D01*
X040241Y007694D02*
X040539Y007694D01*
X041241Y007694D02*
X041539Y007694D01*
X042241Y007694D02*
X042539Y007694D01*
X043241Y007694D02*
X043539Y007694D01*
X044241Y007694D02*
X044539Y007694D01*
X045241Y007694D02*
X045539Y007694D01*
X046241Y007694D02*
X046539Y007694D01*
X047241Y007694D02*
X047539Y007694D01*
X048241Y007694D02*
X048539Y007694D01*
X049241Y007694D02*
X049539Y007694D01*
X050241Y007694D02*
X050539Y007694D01*
X051241Y007694D02*
X051539Y007694D01*
X052241Y007694D02*
X052539Y007694D01*
X053241Y007694D02*
X053539Y007694D01*
X054241Y007694D02*
X058032Y007694D01*
X058191Y007536D02*
X054400Y007536D01*
X054530Y007377D02*
X058349Y007377D01*
X058508Y007219D02*
X054530Y007219D01*
X054530Y007060D02*
X058625Y007060D01*
X058625Y006902D02*
X054530Y006902D01*
X054398Y006743D02*
X058757Y006743D01*
X058804Y006585D02*
X054351Y006585D01*
X054509Y006426D02*
X058646Y006426D01*
X058625Y006268D02*
X054530Y006268D01*
X054530Y006109D02*
X058625Y006109D01*
X058625Y005951D02*
X054530Y005951D01*
X054447Y005792D02*
X058708Y005792D01*
X058866Y005634D02*
X054289Y005634D01*
X053491Y005634D02*
X053289Y005634D01*
X052491Y005634D02*
X052289Y005634D01*
X051491Y005634D02*
X051289Y005634D01*
X050491Y005634D02*
X050289Y005634D01*
X049491Y005634D02*
X049289Y005634D01*
X048491Y005634D02*
X048289Y005634D01*
X047491Y005634D02*
X047289Y005634D01*
X046491Y005634D02*
X046289Y005634D01*
X045491Y005634D02*
X045289Y005634D01*
X044491Y005634D02*
X044289Y005634D01*
X043491Y005634D02*
X043289Y005634D01*
X042491Y005634D02*
X042289Y005634D01*
X041491Y005634D02*
X041289Y005634D01*
X040491Y005634D02*
X040289Y005634D01*
X039491Y005634D02*
X039289Y005634D01*
X044805Y012449D02*
X045020Y012449D01*
X045264Y012608D02*
X044646Y012608D01*
X042015Y013265D02*
X041390Y013890D01*
X041083Y013400D02*
X041029Y013400D01*
X057805Y009279D02*
X066502Y009279D01*
X066502Y009121D02*
X057963Y009121D01*
X058122Y008962D02*
X066502Y008962D01*
X066502Y008804D02*
X058280Y008804D01*
X058439Y008645D02*
X066502Y008645D01*
X066502Y008487D02*
X058597Y008487D01*
X058756Y008328D02*
X066502Y008328D01*
X066502Y008170D02*
X058914Y008170D01*
X059073Y008011D02*
X066502Y008011D01*
X066502Y007853D02*
X059231Y007853D01*
X059616Y007694D02*
X059914Y007694D01*
X060616Y007694D02*
X061818Y007694D01*
X062462Y007694D02*
X062796Y007694D01*
X063140Y007694D02*
X063140Y007694D01*
X063140Y007536D02*
X063140Y007536D01*
X063140Y007377D02*
X063140Y007377D01*
X063140Y007219D02*
X063140Y007219D01*
X063140Y007140D02*
X063140Y006505D01*
X063140Y007140D01*
X063140Y007140D01*
X063140Y007060D02*
X063140Y007060D01*
X063140Y006902D02*
X063140Y006902D01*
X063140Y006743D02*
X063140Y006743D01*
X063140Y006585D02*
X063140Y006585D01*
X063483Y006585D02*
X064942Y006585D01*
X064877Y006426D02*
X060884Y006426D01*
X060905Y006268D02*
X064835Y006268D01*
X064835Y006109D02*
X060905Y006109D01*
X060905Y005951D02*
X064837Y005951D01*
X064903Y005792D02*
X060822Y005792D01*
X060664Y005634D02*
X064968Y005634D01*
X066207Y005317D02*
X066502Y005317D01*
X066502Y005475D02*
X066415Y005475D01*
X066477Y006743D02*
X066502Y006743D01*
X066502Y006902D02*
X066319Y006902D01*
X066502Y007060D02*
X065974Y007060D01*
X065556Y007060D02*
X063775Y007060D01*
X063775Y006902D02*
X065211Y006902D01*
X065053Y006743D02*
X063641Y006743D01*
X063775Y007219D02*
X066502Y007219D01*
X066502Y007377D02*
X063775Y007377D01*
X063643Y007536D02*
X066502Y007536D01*
X066502Y007694D02*
X063484Y007694D01*
X062797Y006585D02*
X062458Y006585D01*
X061822Y006585D02*
X060745Y006585D01*
X059866Y005634D02*
X059664Y005634D01*
X059626Y009596D02*
X059904Y009596D01*
D17*
X054015Y013140D03*
X046515Y011265D03*
X041390Y013890D03*
X037390Y012765D03*
X031515Y014390D03*
X028390Y013015D03*
X020390Y012515D03*
X019390Y012515D03*
X018390Y012515D03*
X021890Y022390D03*
X017640Y024765D03*
X018640Y030515D03*
X021140Y031515D03*
X021765Y032515D03*
X023265Y032515D03*
X023265Y030515D03*
X028640Y030515D03*
X030015Y031515D03*
X033265Y030515D03*
X036765Y027640D03*
X037015Y027015D03*
X041640Y027015D03*
X041640Y027640D03*
X041640Y026390D03*
X041640Y025765D03*
X043265Y030515D03*
X042265Y033765D03*
X039515Y034515D03*
X038640Y030515D03*
X031515Y026140D03*
X031765Y025515D03*
X027515Y023390D03*
X041265Y019390D03*
X048890Y019890D03*
X051390Y021390D03*
X048640Y025765D03*
X048640Y026390D03*
X048640Y027015D03*
X048640Y027640D03*
X029515Y034515D03*
X029390Y035515D03*
X029390Y037515D03*
X023265Y039015D03*
X022390Y037515D03*
X020390Y039015D03*
X019890Y039515D03*
X019515Y034515D03*
X013390Y032515D03*
X011390Y031515D03*
X011265Y032515D03*
X012015Y033515D03*
X006765Y028140D03*
X037265Y007140D03*
D18*
X040390Y011140D02*
X038140Y013390D01*
X036265Y013390D01*
X034390Y011515D01*
X034015Y011515D01*
X034015Y012390D01*
X034015Y011515D02*
X024390Y011515D01*
X022390Y011515D01*
X020765Y013140D01*
X013140Y013140D01*
X012640Y013140D01*
X012015Y013765D01*
X012015Y015265D01*
X008640Y018640D01*
X005890Y018640D01*
X004640Y019890D01*
X004640Y038515D01*
X006265Y040140D01*
X007390Y040140D01*
X008390Y040140D01*
X008390Y041140D01*
X007390Y041140D01*
X017390Y041140D02*
X017390Y039515D01*
X027390Y039515D02*
X027390Y041140D01*
X037390Y041140D02*
X037390Y039515D01*
X047390Y039515D02*
X047390Y041140D01*
X053765Y038140D02*
X053765Y036515D01*
X060140Y036515D02*
X060140Y038140D01*
X059140Y024890D02*
X056640Y024890D01*
X054265Y012140D02*
X045390Y012140D01*
X044390Y011140D01*
X040390Y011140D01*
X044390Y011140D02*
X044390Y012015D01*
X054265Y012140D02*
X059265Y007140D01*
X060265Y007140D01*
X060265Y006140D01*
X059265Y006140D01*
X060265Y007140D02*
X062140Y007140D01*
X032015Y012390D02*
X031390Y013015D01*
X028390Y013015D01*
X024390Y012640D02*
X024390Y011515D01*
X013140Y013140D02*
X013140Y013890D01*
M02*
