G75*
%MOIN*%
%OFA0B0*%
%FSLAX24Y24*%
%IPPOS*%
%LPD*%
%AMOC8*
5,1,8,0,0,1.08239X$1,22.5*
%
%ADD10C,0.1180*%
%ADD11C,0.0640*%
%ADD12OC8,0.0720*%
%ADD13OC8,0.0640*%
%ADD14OC8,0.0710*%
%ADD15C,0.0710*%
%ADD16C,0.0580*%
D10*
X005265Y006140D03*
X005265Y041140D03*
X065765Y041140D03*
X065765Y006140D03*
D11*
X050670Y013890D02*
X050110Y013890D01*
X050110Y014890D02*
X050670Y014890D01*
X050670Y015890D02*
X050110Y015890D01*
X050110Y016890D02*
X050670Y016890D01*
X050670Y017890D02*
X050110Y017890D01*
X050110Y018890D02*
X050670Y018890D01*
X050670Y019890D02*
X050110Y019890D01*
X050110Y020890D02*
X050670Y020890D01*
X050670Y021890D02*
X050110Y021890D01*
X050110Y022890D02*
X050670Y022890D01*
X050670Y023890D02*
X050110Y023890D01*
X050110Y024890D02*
X050670Y024890D01*
X053360Y024890D02*
X053920Y024890D01*
X053920Y023890D02*
X053360Y023890D01*
X053360Y022890D02*
X053920Y022890D01*
X053920Y021890D02*
X053360Y021890D01*
X053360Y020890D02*
X053920Y020890D01*
X053920Y019890D02*
X053360Y019890D01*
X053360Y018890D02*
X053920Y018890D01*
X053920Y017890D02*
X053360Y017890D01*
X056360Y017890D02*
X056920Y017890D01*
X056920Y018890D02*
X056360Y018890D01*
X056360Y019890D02*
X056920Y019890D01*
X056920Y020890D02*
X056360Y020890D01*
X056360Y021890D02*
X056920Y021890D01*
X056920Y022890D02*
X056360Y022890D01*
X056360Y023890D02*
X056920Y023890D01*
X056920Y024890D02*
X056360Y024890D01*
X056860Y030515D02*
X057420Y030515D01*
X057420Y031515D02*
X056860Y031515D01*
X056860Y032515D02*
X057420Y032515D01*
X057420Y033515D02*
X056860Y033515D01*
X056860Y034515D02*
X057420Y034515D01*
X057420Y035515D02*
X056860Y035515D01*
X056860Y036515D02*
X057420Y036515D01*
X059860Y036515D02*
X060420Y036515D01*
X060420Y035515D02*
X059860Y035515D01*
X059860Y034515D02*
X060420Y034515D01*
X060420Y033515D02*
X059860Y033515D01*
X059860Y032515D02*
X060420Y032515D01*
X060420Y031515D02*
X059860Y031515D01*
X059860Y030515D02*
X060420Y030515D01*
X054045Y030515D02*
X053485Y030515D01*
X053485Y031515D02*
X054045Y031515D01*
X054045Y032515D02*
X053485Y032515D01*
X053485Y033515D02*
X054045Y033515D01*
X054045Y034515D02*
X053485Y034515D01*
X053485Y035515D02*
X054045Y035515D01*
X054045Y036515D02*
X053485Y036515D01*
X051045Y036515D02*
X050485Y036515D01*
X050485Y035515D02*
X051045Y035515D01*
X051045Y034515D02*
X050485Y034515D01*
X050485Y033515D02*
X051045Y033515D01*
X051045Y032515D02*
X050485Y032515D01*
X050485Y031515D02*
X051045Y031515D01*
X051045Y030515D02*
X050485Y030515D01*
X047670Y030515D02*
X047110Y030515D01*
X047110Y031515D02*
X047670Y031515D01*
X047670Y032515D02*
X047110Y032515D01*
X047110Y033515D02*
X047670Y033515D01*
X047670Y034515D02*
X047110Y034515D01*
X047110Y035515D02*
X047670Y035515D01*
X047670Y036515D02*
X047110Y036515D01*
X047110Y037515D02*
X047670Y037515D01*
X047670Y038515D02*
X047110Y038515D01*
X047110Y039515D02*
X047670Y039515D01*
X044670Y039515D02*
X044110Y039515D01*
X044110Y038515D02*
X044670Y038515D01*
X044670Y037515D02*
X044110Y037515D01*
X044110Y036515D02*
X044670Y036515D01*
X044670Y035515D02*
X044110Y035515D01*
X044110Y034515D02*
X044670Y034515D01*
X044670Y033515D02*
X044110Y033515D01*
X044110Y032515D02*
X044670Y032515D01*
X044670Y031515D02*
X044110Y031515D01*
X044110Y030515D02*
X044670Y030515D01*
X037670Y030515D02*
X037110Y030515D01*
X037110Y031515D02*
X037670Y031515D01*
X037670Y032515D02*
X037110Y032515D01*
X037110Y033515D02*
X037670Y033515D01*
X037670Y034515D02*
X037110Y034515D01*
X037110Y035515D02*
X037670Y035515D01*
X037670Y036515D02*
X037110Y036515D01*
X037110Y037515D02*
X037670Y037515D01*
X037670Y038515D02*
X037110Y038515D01*
X037110Y039515D02*
X037670Y039515D01*
X034670Y039515D02*
X034110Y039515D01*
X034110Y038515D02*
X034670Y038515D01*
X034670Y037515D02*
X034110Y037515D01*
X034110Y036515D02*
X034670Y036515D01*
X034670Y035515D02*
X034110Y035515D01*
X034110Y034515D02*
X034670Y034515D01*
X034670Y033515D02*
X034110Y033515D01*
X034110Y032515D02*
X034670Y032515D01*
X034670Y031515D02*
X034110Y031515D01*
X034110Y030515D02*
X034670Y030515D01*
X027670Y030515D02*
X027110Y030515D01*
X027110Y031515D02*
X027670Y031515D01*
X027670Y032515D02*
X027110Y032515D01*
X027110Y033515D02*
X027670Y033515D01*
X027670Y034515D02*
X027110Y034515D01*
X027110Y035515D02*
X027670Y035515D01*
X027670Y036515D02*
X027110Y036515D01*
X027110Y037515D02*
X027670Y037515D01*
X027670Y038515D02*
X027110Y038515D01*
X027110Y039515D02*
X027670Y039515D01*
X024670Y039515D02*
X024110Y039515D01*
X024110Y038515D02*
X024670Y038515D01*
X024670Y037515D02*
X024110Y037515D01*
X024110Y036515D02*
X024670Y036515D01*
X024670Y035515D02*
X024110Y035515D01*
X024110Y034515D02*
X024670Y034515D01*
X024670Y033515D02*
X024110Y033515D01*
X024110Y032515D02*
X024670Y032515D01*
X024670Y031515D02*
X024110Y031515D01*
X024110Y030515D02*
X024670Y030515D01*
X017670Y030515D02*
X017110Y030515D01*
X017110Y031515D02*
X017670Y031515D01*
X017670Y032515D02*
X017110Y032515D01*
X017110Y033515D02*
X017670Y033515D01*
X017670Y034515D02*
X017110Y034515D01*
X017110Y035515D02*
X017670Y035515D01*
X017670Y036515D02*
X017110Y036515D01*
X017110Y037515D02*
X017670Y037515D01*
X017670Y038515D02*
X017110Y038515D01*
X017110Y039515D02*
X017670Y039515D01*
X014670Y039515D02*
X014110Y039515D01*
X014110Y038515D02*
X014670Y038515D01*
X014670Y037515D02*
X014110Y037515D01*
X014110Y036515D02*
X014670Y036515D01*
X014670Y035515D02*
X014110Y035515D01*
X014110Y034515D02*
X014670Y034515D01*
X014670Y033515D02*
X014110Y033515D01*
X014110Y032515D02*
X014670Y032515D01*
X014670Y031515D02*
X014110Y031515D01*
X014110Y030515D02*
X014670Y030515D01*
X014670Y024890D02*
X014110Y024890D01*
X014110Y023890D02*
X014670Y023890D01*
X014670Y022890D02*
X014110Y022890D01*
X014110Y021890D02*
X014670Y021890D01*
X014670Y020890D02*
X014110Y020890D01*
X014110Y019890D02*
X014670Y019890D01*
X014670Y018890D02*
X014110Y018890D01*
X014110Y017890D02*
X014670Y017890D01*
X014670Y016890D02*
X014110Y016890D01*
X014110Y015890D02*
X014670Y015890D01*
X014670Y014890D02*
X014110Y014890D01*
X014110Y013890D02*
X014670Y013890D01*
X020110Y013890D02*
X020670Y013890D01*
X020670Y014890D02*
X020110Y014890D01*
X020110Y015890D02*
X020670Y015890D01*
X020670Y016890D02*
X020110Y016890D01*
X020110Y017890D02*
X020670Y017890D01*
X020670Y018890D02*
X020110Y018890D01*
X020110Y019890D02*
X020670Y019890D01*
X020670Y020890D02*
X020110Y020890D01*
X020110Y021890D02*
X020670Y021890D01*
X020670Y022890D02*
X020110Y022890D01*
X020110Y023890D02*
X020670Y023890D01*
X020670Y024890D02*
X020110Y024890D01*
X024110Y024890D02*
X024670Y024890D01*
X024670Y023890D02*
X024110Y023890D01*
X024110Y022890D02*
X024670Y022890D01*
X024670Y021890D02*
X024110Y021890D01*
X024110Y020890D02*
X024670Y020890D01*
X024670Y019890D02*
X024110Y019890D01*
X024110Y018890D02*
X024670Y018890D01*
X024670Y017890D02*
X024110Y017890D01*
X024110Y016890D02*
X024670Y016890D01*
X024670Y015890D02*
X024110Y015890D01*
X024110Y014890D02*
X024670Y014890D01*
X024670Y013890D02*
X024110Y013890D01*
X030110Y013890D02*
X030670Y013890D01*
X030670Y014890D02*
X030110Y014890D01*
X030110Y015890D02*
X030670Y015890D01*
X030670Y016890D02*
X030110Y016890D01*
X030110Y017890D02*
X030670Y017890D01*
X030670Y018890D02*
X030110Y018890D01*
X030110Y019890D02*
X030670Y019890D01*
X030670Y020890D02*
X030110Y020890D01*
X030110Y021890D02*
X030670Y021890D01*
X030670Y022890D02*
X030110Y022890D01*
X030110Y023890D02*
X030670Y023890D01*
X030670Y024890D02*
X030110Y024890D01*
X034110Y024890D02*
X034670Y024890D01*
X034670Y023890D02*
X034110Y023890D01*
X034110Y022890D02*
X034670Y022890D01*
X034670Y021890D02*
X034110Y021890D01*
X034110Y020890D02*
X034670Y020890D01*
X034670Y019890D02*
X034110Y019890D01*
X034110Y018890D02*
X034670Y018890D01*
X034670Y017890D02*
X034110Y017890D01*
X034110Y016890D02*
X034670Y016890D01*
X034670Y015890D02*
X034110Y015890D01*
X034110Y014890D02*
X034670Y014890D01*
X034670Y013890D02*
X034110Y013890D01*
X040110Y013890D02*
X040670Y013890D01*
X040670Y014890D02*
X040110Y014890D01*
X040110Y015890D02*
X040670Y015890D01*
X040670Y016890D02*
X040110Y016890D01*
X040110Y017890D02*
X040670Y017890D01*
X040670Y018890D02*
X040110Y018890D01*
X040110Y019890D02*
X040670Y019890D01*
X040670Y020890D02*
X040110Y020890D01*
X040110Y021890D02*
X040670Y021890D01*
X040670Y022890D02*
X040110Y022890D01*
X040110Y023890D02*
X040670Y023890D01*
X040670Y024890D02*
X040110Y024890D01*
X044110Y024890D02*
X044670Y024890D01*
X044670Y023890D02*
X044110Y023890D01*
X044110Y022890D02*
X044670Y022890D01*
X044670Y021890D02*
X044110Y021890D01*
X044110Y020890D02*
X044670Y020890D01*
X044670Y019890D02*
X044110Y019890D01*
X044110Y018890D02*
X044670Y018890D01*
X044670Y017890D02*
X044110Y017890D01*
X044110Y016890D02*
X044670Y016890D01*
X044670Y015890D02*
X044110Y015890D01*
X044110Y014890D02*
X044670Y014890D01*
X044670Y013890D02*
X044110Y013890D01*
D12*
X043890Y007140D03*
X042890Y007140D03*
X041890Y007140D03*
X041890Y006140D03*
X042890Y006140D03*
X043890Y006140D03*
X044890Y006140D03*
X045890Y006140D03*
X045890Y007140D03*
X044890Y007140D03*
X046890Y007140D03*
X047890Y007140D03*
X048890Y007140D03*
X048890Y006140D03*
X047890Y006140D03*
X046890Y006140D03*
X049890Y006140D03*
X050890Y006140D03*
X050890Y007140D03*
X049890Y007140D03*
X051890Y007140D03*
X052890Y007140D03*
X052890Y006140D03*
X051890Y006140D03*
X053890Y006140D03*
X053890Y007140D03*
X059265Y007140D03*
X060265Y007140D03*
X060265Y006140D03*
X059265Y006140D03*
X059265Y010140D03*
X060265Y010140D03*
X060265Y011140D03*
X059265Y011140D03*
X059265Y012140D03*
X060265Y012140D03*
X060265Y013140D03*
X059265Y013140D03*
X059265Y014140D03*
X060265Y014140D03*
X060265Y015140D03*
X059265Y015140D03*
X059265Y016140D03*
X060265Y016140D03*
X060265Y017140D03*
X059265Y017140D03*
X040890Y007140D03*
X039890Y007140D03*
X039890Y006140D03*
X040890Y006140D03*
X038890Y006140D03*
X038890Y007140D03*
X033890Y007140D03*
X032890Y007140D03*
X032890Y006140D03*
X033890Y006140D03*
X031890Y006140D03*
X030890Y006140D03*
X029890Y006140D03*
X029890Y007140D03*
X030890Y007140D03*
X031890Y007140D03*
X028890Y007140D03*
X027890Y007140D03*
X027890Y006140D03*
X028890Y006140D03*
X026890Y006140D03*
X025890Y006140D03*
X024890Y006140D03*
X024890Y007140D03*
X025890Y007140D03*
X026890Y007140D03*
X023890Y007140D03*
X022890Y007140D03*
X022890Y006140D03*
X023890Y006140D03*
X021890Y006140D03*
X020890Y006140D03*
X019890Y006140D03*
X019890Y007140D03*
X020890Y007140D03*
X021890Y007140D03*
X018890Y007140D03*
X017890Y007140D03*
X017890Y006140D03*
X018890Y006140D03*
X016890Y006140D03*
X015890Y006140D03*
X015890Y007140D03*
X016890Y007140D03*
X014890Y007140D03*
X013890Y007140D03*
X012890Y007140D03*
X012890Y006140D03*
X013890Y006140D03*
X014890Y006140D03*
X011890Y006140D03*
X010890Y006140D03*
X010890Y007140D03*
X011890Y007140D03*
X008390Y007140D03*
X007390Y007140D03*
X007390Y006140D03*
X008390Y006140D03*
X006765Y010140D03*
X005765Y010140D03*
X005765Y011140D03*
X006765Y011140D03*
X006765Y012140D03*
X005765Y012140D03*
X005765Y013140D03*
X006765Y013140D03*
X006765Y014140D03*
X005765Y014140D03*
X005765Y015140D03*
X006765Y015140D03*
X006765Y016140D03*
X005765Y016140D03*
X005765Y017140D03*
X006765Y017140D03*
X006765Y020140D03*
X005765Y020140D03*
X005765Y021140D03*
X006765Y021140D03*
X006765Y022140D03*
X005765Y022140D03*
X005765Y023140D03*
X006765Y023140D03*
X006765Y024140D03*
X005765Y024140D03*
X005765Y025140D03*
X006765Y025140D03*
X006765Y026140D03*
X005765Y026140D03*
X005765Y027140D03*
X006765Y027140D03*
X006765Y030140D03*
X005765Y030140D03*
X005765Y031140D03*
X006765Y031140D03*
X006765Y032140D03*
X005765Y032140D03*
X005765Y033140D03*
X006765Y033140D03*
X006765Y034140D03*
X005765Y034140D03*
X005765Y035140D03*
X006765Y035140D03*
X006765Y036140D03*
X005765Y036140D03*
X005765Y037140D03*
X006765Y037140D03*
X007390Y040140D03*
X008390Y040140D03*
X008390Y041140D03*
X007390Y041140D03*
X059265Y041140D03*
X060265Y041140D03*
X060265Y040140D03*
X059265Y040140D03*
D13*
X060140Y038140D03*
X058140Y038140D03*
X053765Y038140D03*
X051765Y038140D03*
X047390Y041140D03*
X045390Y041140D03*
X037390Y041140D03*
X035390Y041140D03*
X027390Y041140D03*
X025390Y041140D03*
X017390Y041140D03*
X015390Y041140D03*
X013140Y013890D03*
X011140Y013890D03*
X022390Y012640D03*
X024390Y012640D03*
X032015Y012390D03*
X034015Y012390D03*
X042390Y012015D03*
X044390Y012015D03*
X059140Y024890D03*
X061140Y024890D03*
D14*
X063140Y007140D03*
D15*
X062140Y007140D03*
D16*
X054015Y013140D03*
X046515Y011265D03*
X041390Y013890D03*
X037390Y012765D03*
X031515Y014390D03*
X028390Y013015D03*
X020390Y012515D03*
X019390Y012515D03*
X018390Y012515D03*
X021890Y022390D03*
X017640Y024765D03*
X018640Y030515D03*
X021140Y031515D03*
X021765Y032515D03*
X023265Y032515D03*
X023265Y030515D03*
X028640Y030515D03*
X030015Y031515D03*
X033265Y030515D03*
X036765Y027640D03*
X037015Y027015D03*
X041640Y027015D03*
X041640Y027640D03*
X041640Y026390D03*
X041640Y025765D03*
X043265Y030515D03*
X042265Y033765D03*
X039515Y034515D03*
X038640Y030515D03*
X031515Y026140D03*
X031765Y025515D03*
X027515Y023390D03*
X041265Y019390D03*
X048890Y019890D03*
X051390Y021390D03*
X048640Y025765D03*
X048640Y026390D03*
X048640Y027015D03*
X048640Y027640D03*
X029515Y034515D03*
X029390Y035515D03*
X029390Y037515D03*
X023265Y039015D03*
X022390Y037515D03*
X020390Y039015D03*
X019890Y039515D03*
X019515Y034515D03*
X013390Y032515D03*
X011390Y031515D03*
X011265Y032515D03*
X012015Y033515D03*
X006765Y028140D03*
X037265Y007140D03*
M02*
