G75*
%MOIN*%
%OFA0B0*%
%FSLAX24Y24*%
%IPPOS*%
%LPD*%
%AMOC8*
5,1,8,0,0,1.08239X$1,22.5*
%
%ADD10C,0.0560*%
%ADD11OC8,0.0560*%
%ADD12OC8,0.0630*%
%ADD13C,0.0630*%
%ADD14OC8,0.0640*%
%ADD15C,0.0640*%
%ADD16C,0.0160*%
%ADD17C,0.0500*%
%ADD18C,0.0320*%
D10*
X010235Y011140D02*
X010795Y011140D01*
X010795Y012140D02*
X010235Y012140D01*
X010235Y013140D02*
X010795Y013140D01*
X010795Y014140D02*
X010235Y014140D01*
X010235Y015140D02*
X010795Y015140D01*
X010795Y016140D02*
X010235Y016140D01*
X010235Y017140D02*
X010795Y017140D01*
X010795Y018140D02*
X010235Y018140D01*
X010235Y019140D02*
X010795Y019140D01*
X010795Y020140D02*
X010235Y020140D01*
X013235Y020140D02*
X013795Y020140D01*
X013795Y019140D02*
X013235Y019140D01*
X013235Y018140D02*
X013795Y018140D01*
X013795Y017140D02*
X013235Y017140D01*
X013235Y016140D02*
X013795Y016140D01*
X013795Y015140D02*
X013235Y015140D01*
X013235Y014140D02*
X013795Y014140D01*
X013795Y013140D02*
X013235Y013140D01*
X013235Y012140D02*
X013795Y012140D01*
X013795Y011140D02*
X013235Y011140D01*
X017485Y011140D02*
X018045Y011140D01*
X018045Y010140D02*
X017485Y010140D01*
X017485Y012140D02*
X018045Y012140D01*
X018045Y013140D02*
X017485Y013140D01*
X017485Y014140D02*
X018045Y014140D01*
X018045Y015140D02*
X017485Y015140D01*
X017485Y016140D02*
X018045Y016140D01*
X018045Y017140D02*
X017485Y017140D01*
X017485Y018140D02*
X018045Y018140D01*
X018045Y019140D02*
X017485Y019140D01*
X020485Y019140D02*
X021045Y019140D01*
X021045Y018140D02*
X020485Y018140D01*
X020485Y017140D02*
X021045Y017140D01*
X021045Y016140D02*
X020485Y016140D01*
X020485Y015140D02*
X021045Y015140D01*
X021045Y014140D02*
X020485Y014140D01*
X020485Y013140D02*
X021045Y013140D01*
X021045Y012140D02*
X020485Y012140D01*
X020485Y011140D02*
X021045Y011140D01*
X021045Y010140D02*
X020485Y010140D01*
X025860Y010140D02*
X026420Y010140D01*
X026420Y011140D02*
X025860Y011140D01*
X025860Y012140D02*
X026420Y012140D01*
X026420Y013140D02*
X025860Y013140D01*
X025860Y014140D02*
X026420Y014140D01*
X026420Y015140D02*
X025860Y015140D01*
X025860Y016140D02*
X026420Y016140D01*
X026420Y017140D02*
X025860Y017140D01*
X025860Y018140D02*
X026420Y018140D01*
X026420Y019140D02*
X025860Y019140D01*
X028860Y019140D02*
X029420Y019140D01*
X029420Y018140D02*
X028860Y018140D01*
X028860Y017140D02*
X029420Y017140D01*
X029420Y016140D02*
X028860Y016140D01*
X028860Y015140D02*
X029420Y015140D01*
X029420Y014140D02*
X028860Y014140D01*
X028860Y013140D02*
X029420Y013140D01*
X029420Y012140D02*
X028860Y012140D01*
X028860Y011140D02*
X029420Y011140D01*
X029420Y010140D02*
X028860Y010140D01*
X033485Y011265D02*
X034045Y011265D01*
X034045Y012265D02*
X033485Y012265D01*
X033485Y013265D02*
X034045Y013265D01*
X034045Y014265D02*
X033485Y014265D01*
X033485Y015265D02*
X034045Y015265D01*
X034045Y016265D02*
X033485Y016265D01*
X033485Y017265D02*
X034045Y017265D01*
X036485Y017265D02*
X037045Y017265D01*
X037045Y016265D02*
X036485Y016265D01*
X036485Y015265D02*
X037045Y015265D01*
X037045Y014265D02*
X036485Y014265D01*
X036485Y013265D02*
X037045Y013265D01*
X037045Y012265D02*
X036485Y012265D01*
X036485Y011265D02*
X037045Y011265D01*
X039610Y013140D02*
X040170Y013140D01*
X040170Y014140D02*
X039610Y014140D01*
X039610Y015140D02*
X040170Y015140D01*
X040170Y016140D02*
X039610Y016140D01*
X039610Y017140D02*
X040170Y017140D01*
X040170Y018140D02*
X039610Y018140D01*
X039610Y019140D02*
X040170Y019140D01*
X042610Y019140D02*
X043170Y019140D01*
X043170Y018140D02*
X042610Y018140D01*
X042610Y017140D02*
X043170Y017140D01*
X043170Y016140D02*
X042610Y016140D01*
X042610Y015140D02*
X043170Y015140D01*
X043170Y014140D02*
X042610Y014140D01*
X042610Y013140D02*
X043170Y013140D01*
X045735Y013140D02*
X046295Y013140D01*
X046295Y012140D02*
X045735Y012140D01*
X045735Y014140D02*
X046295Y014140D01*
X046295Y015140D02*
X045735Y015140D01*
X045735Y016140D02*
X046295Y016140D01*
X046295Y017140D02*
X045735Y017140D01*
X045735Y018140D02*
X046295Y018140D01*
X046295Y019140D02*
X045735Y019140D01*
X048735Y019140D02*
X049295Y019140D01*
X049295Y018140D02*
X048735Y018140D01*
X048735Y017140D02*
X049295Y017140D01*
X049295Y016140D02*
X048735Y016140D01*
X048735Y015140D02*
X049295Y015140D01*
X049295Y014140D02*
X048735Y014140D01*
X048735Y013140D02*
X049295Y013140D01*
X049295Y012140D02*
X048735Y012140D01*
X051735Y012140D02*
X052295Y012140D01*
X052295Y013140D02*
X051735Y013140D01*
X051735Y014140D02*
X052295Y014140D01*
X052295Y015140D02*
X051735Y015140D01*
X051735Y016140D02*
X052295Y016140D01*
X052295Y017140D02*
X051735Y017140D01*
X051735Y018140D02*
X052295Y018140D01*
X052295Y019140D02*
X051735Y019140D01*
X054735Y019140D02*
X055295Y019140D01*
X055295Y018140D02*
X054735Y018140D01*
X054735Y017140D02*
X055295Y017140D01*
X055295Y016140D02*
X054735Y016140D01*
X054735Y015140D02*
X055295Y015140D01*
X055295Y014140D02*
X054735Y014140D01*
X054735Y013140D02*
X055295Y013140D01*
X055295Y012140D02*
X054735Y012140D01*
X055890Y023235D02*
X055890Y023795D01*
X056890Y023795D02*
X056890Y023235D01*
X057890Y023235D02*
X057890Y023795D01*
X058890Y023795D02*
X058890Y023235D01*
X059890Y023235D02*
X059890Y023795D01*
X060890Y023795D02*
X060890Y023235D01*
X061890Y023235D02*
X061890Y023795D01*
X061890Y026235D02*
X061890Y026795D01*
X060890Y026795D02*
X060890Y026235D01*
X059890Y026235D02*
X059890Y026795D01*
X058890Y026795D02*
X058890Y026235D01*
X057890Y026235D02*
X057890Y026795D01*
X056890Y026795D02*
X056890Y026235D01*
X055890Y026235D02*
X055890Y026795D01*
X051765Y026735D02*
X051765Y027295D01*
X050765Y027295D02*
X050765Y026735D01*
X049765Y026735D02*
X049765Y027295D01*
X048765Y027295D02*
X048765Y026735D01*
X047765Y026735D02*
X047765Y027295D01*
X046765Y027295D02*
X046765Y026735D01*
X045765Y026735D02*
X045765Y027295D01*
X044765Y027295D02*
X044765Y026735D01*
X044765Y024295D02*
X044765Y023735D01*
X045765Y023735D02*
X045765Y024295D01*
X046765Y024295D02*
X046765Y023735D01*
X047765Y023735D02*
X047765Y024295D01*
X048765Y024295D02*
X048765Y023735D01*
X049765Y023735D02*
X049765Y024295D01*
X050765Y024295D02*
X050765Y023735D01*
X051765Y023735D02*
X051765Y024295D01*
X051765Y029985D02*
X051765Y030545D01*
X052765Y030545D02*
X052765Y029985D01*
X053765Y029985D02*
X053765Y030545D01*
X054765Y030545D02*
X054765Y029985D01*
X055765Y029985D02*
X055765Y030545D01*
X056765Y030545D02*
X056765Y029985D01*
X056765Y032985D02*
X056765Y033545D01*
X055765Y033545D02*
X055765Y032985D01*
X054765Y032985D02*
X054765Y033545D01*
X053765Y033545D02*
X053765Y032985D01*
X052765Y032985D02*
X052765Y033545D01*
X051765Y033545D02*
X051765Y032985D01*
X050765Y032985D02*
X050765Y033545D01*
X049765Y033545D02*
X049765Y032985D01*
X049765Y030545D02*
X049765Y029985D01*
X050765Y029985D02*
X050765Y030545D01*
X044765Y030545D02*
X044765Y029985D01*
X043765Y029985D02*
X043765Y030545D01*
X042765Y030545D02*
X042765Y029985D01*
X041765Y029985D02*
X041765Y030545D01*
X040765Y030545D02*
X040765Y029985D01*
X039765Y029985D02*
X039765Y030545D01*
X038765Y030545D02*
X038765Y029985D01*
X037765Y029985D02*
X037765Y030545D01*
X037765Y032985D02*
X037765Y033545D01*
X038765Y033545D02*
X038765Y032985D01*
X039765Y032985D02*
X039765Y033545D01*
X040765Y033545D02*
X040765Y032985D01*
X041765Y032985D02*
X041765Y033545D01*
X042765Y033545D02*
X042765Y032985D01*
X043765Y032985D02*
X043765Y033545D01*
X044765Y033545D02*
X044765Y032985D01*
X044765Y036235D02*
X044765Y036795D01*
X043765Y036795D02*
X043765Y036235D01*
X042765Y036235D02*
X042765Y036795D01*
X041765Y036795D02*
X041765Y036235D01*
X040765Y036235D02*
X040765Y036795D01*
X039765Y036795D02*
X039765Y036235D01*
X038765Y036235D02*
X038765Y036795D01*
X038765Y039235D02*
X038765Y039795D01*
X039765Y039795D02*
X039765Y039235D01*
X040765Y039235D02*
X040765Y039795D01*
X041765Y039795D02*
X041765Y039235D01*
X042765Y039235D02*
X042765Y039795D01*
X043765Y039795D02*
X043765Y039235D01*
X044765Y039235D02*
X044765Y039795D01*
X031765Y039795D02*
X031765Y039235D01*
X030765Y039235D02*
X030765Y039795D01*
X029765Y039795D02*
X029765Y039235D01*
X028765Y039235D02*
X028765Y039795D01*
X027765Y039795D02*
X027765Y039235D01*
X026765Y039235D02*
X026765Y039795D01*
X025765Y039795D02*
X025765Y039235D01*
X025765Y036795D02*
X025765Y036235D01*
X026765Y036235D02*
X026765Y036795D01*
X027765Y036795D02*
X027765Y036235D01*
X028765Y036235D02*
X028765Y036795D01*
X029765Y036795D02*
X029765Y036235D01*
X030765Y036235D02*
X030765Y036795D01*
X031765Y036795D02*
X031765Y036235D01*
X031765Y033795D02*
X031765Y033235D01*
X030765Y033235D02*
X030765Y033795D01*
X029765Y033795D02*
X029765Y033235D01*
X028765Y033235D02*
X028765Y033795D01*
X027765Y033795D02*
X027765Y033235D01*
X026765Y033235D02*
X026765Y033795D01*
X025765Y033795D02*
X025765Y033235D01*
X024765Y033235D02*
X024765Y033795D01*
X024765Y030795D02*
X024765Y030235D01*
X025765Y030235D02*
X025765Y030795D01*
X026765Y030795D02*
X026765Y030235D01*
X027765Y030235D02*
X027765Y030795D01*
X028765Y030795D02*
X028765Y030235D01*
X029765Y030235D02*
X029765Y030795D01*
X030765Y030795D02*
X030765Y030235D01*
X031765Y030235D02*
X031765Y030795D01*
X032140Y027295D02*
X032140Y026735D01*
X033140Y026735D02*
X033140Y027295D01*
X034140Y027295D02*
X034140Y026735D01*
X035140Y026735D02*
X035140Y027295D01*
X036140Y027295D02*
X036140Y026735D01*
X037140Y026735D02*
X037140Y027295D01*
X037140Y024295D02*
X037140Y023735D01*
X036140Y023735D02*
X036140Y024295D01*
X035140Y024295D02*
X035140Y023735D01*
X034140Y023735D02*
X034140Y024295D01*
X033140Y024295D02*
X033140Y023735D01*
X032140Y023735D02*
X032140Y024295D01*
X031140Y024295D02*
X031140Y023735D01*
X031140Y026735D02*
X031140Y027295D01*
X026890Y027295D02*
X026890Y026735D01*
X025890Y026735D02*
X025890Y027295D01*
X024890Y027295D02*
X024890Y026735D01*
X023890Y026735D02*
X023890Y027295D01*
X022890Y027295D02*
X022890Y026735D01*
X021890Y026735D02*
X021890Y027295D01*
X020890Y027295D02*
X020890Y026735D01*
X017890Y026610D02*
X017890Y027170D01*
X016890Y027170D02*
X016890Y026610D01*
X015890Y026610D02*
X015890Y027170D01*
X014890Y027170D02*
X014890Y026610D01*
X013890Y026610D02*
X013890Y027170D01*
X012890Y027170D02*
X012890Y026610D01*
X011890Y026610D02*
X011890Y027170D01*
X010890Y027170D02*
X010890Y026610D01*
X010890Y024170D02*
X010890Y023610D01*
X011890Y023610D02*
X011890Y024170D01*
X012890Y024170D02*
X012890Y023610D01*
X013890Y023610D02*
X013890Y024170D01*
X014890Y024170D02*
X014890Y023610D01*
X015890Y023610D02*
X015890Y024170D01*
X016890Y024170D02*
X016890Y023610D01*
X017890Y023610D02*
X017890Y024170D01*
X020890Y024295D02*
X020890Y023735D01*
X021890Y023735D02*
X021890Y024295D01*
X022890Y024295D02*
X022890Y023735D01*
X023890Y023735D02*
X023890Y024295D01*
X024890Y024295D02*
X024890Y023735D01*
X025890Y023735D02*
X025890Y024295D01*
X026890Y024295D02*
X026890Y023735D01*
X019920Y031140D02*
X019360Y031140D01*
X019360Y032140D02*
X019920Y032140D01*
X019920Y033140D02*
X019360Y033140D01*
X019360Y034140D02*
X019920Y034140D01*
X019920Y035140D02*
X019360Y035140D01*
X019360Y036140D02*
X019920Y036140D01*
X019920Y037140D02*
X019360Y037140D01*
X016920Y037140D02*
X016360Y037140D01*
X016360Y036140D02*
X016920Y036140D01*
X016920Y035140D02*
X016360Y035140D01*
X016360Y034140D02*
X016920Y034140D01*
X016920Y033140D02*
X016360Y033140D01*
X016360Y032140D02*
X016920Y032140D01*
X016920Y031140D02*
X016360Y031140D01*
X014170Y033140D02*
X013610Y033140D01*
X013610Y034140D02*
X014170Y034140D01*
X014170Y035140D02*
X013610Y035140D01*
X013610Y036140D02*
X014170Y036140D01*
X014170Y037140D02*
X013610Y037140D01*
X013610Y038140D02*
X014170Y038140D01*
X014170Y039140D02*
X013610Y039140D01*
X011170Y039140D02*
X010610Y039140D01*
X010610Y038140D02*
X011170Y038140D01*
X011170Y037140D02*
X010610Y037140D01*
X010610Y036140D02*
X011170Y036140D01*
X011170Y035140D02*
X010610Y035140D01*
X010610Y034140D02*
X011170Y034140D01*
X011170Y033140D02*
X010610Y033140D01*
D11*
X010890Y028390D03*
X008890Y028390D03*
X018140Y020515D03*
X020140Y020515D03*
X026765Y022515D03*
X027765Y024015D03*
X029765Y024015D03*
X028765Y022515D03*
X038890Y024015D03*
X040890Y024015D03*
X041140Y027015D03*
X043140Y027015D03*
X038890Y034890D03*
X036890Y034890D03*
X037390Y037515D03*
X037390Y039515D03*
X049765Y036890D03*
X049765Y034890D03*
X055515Y028015D03*
X057515Y028015D03*
X044890Y011265D03*
X046015Y010765D03*
X048015Y010765D03*
X052015Y010640D03*
X054015Y010640D03*
X042890Y011265D03*
X033765Y010015D03*
X031765Y010015D03*
X012515Y009515D03*
X010515Y009515D03*
X023015Y031640D03*
X023015Y033640D03*
X024390Y037515D03*
X024390Y039515D03*
X019640Y039140D03*
X017640Y039140D03*
X015140Y040765D03*
X013140Y040765D03*
D12*
X062890Y007140D03*
D13*
X061890Y007140D03*
D14*
X060265Y007140D03*
X059265Y007140D03*
X059265Y006140D03*
X060265Y006140D03*
X060265Y010140D03*
X059265Y010140D03*
X059265Y011140D03*
X060265Y011140D03*
X060265Y012140D03*
X059265Y012140D03*
X059265Y013140D03*
X060265Y013140D03*
X060265Y014140D03*
X059265Y014140D03*
X059265Y015140D03*
X060265Y015140D03*
X060265Y016140D03*
X059265Y016140D03*
X059265Y017140D03*
X060265Y017140D03*
X053890Y007140D03*
X053890Y006140D03*
X052890Y006140D03*
X051890Y006140D03*
X051890Y007140D03*
X052890Y007140D03*
X050890Y007140D03*
X049890Y007140D03*
X049890Y006140D03*
X050890Y006140D03*
X048890Y006140D03*
X047890Y006140D03*
X046890Y006140D03*
X046890Y007140D03*
X047890Y007140D03*
X048890Y007140D03*
X045890Y007140D03*
X044890Y007140D03*
X044890Y006140D03*
X045890Y006140D03*
X043890Y006140D03*
X042890Y006140D03*
X041890Y006140D03*
X041890Y007140D03*
X042890Y007140D03*
X043890Y007140D03*
X040890Y007140D03*
X039890Y007140D03*
X039890Y006140D03*
X040890Y006140D03*
X038890Y006140D03*
X038890Y007140D03*
X033890Y007140D03*
X032890Y007140D03*
X032890Y006140D03*
X033890Y006140D03*
X031890Y006140D03*
X030890Y006140D03*
X029890Y006140D03*
X029890Y007140D03*
X030890Y007140D03*
X031890Y007140D03*
X028890Y007140D03*
X027890Y007140D03*
X027890Y006140D03*
X028890Y006140D03*
X026890Y006140D03*
X025890Y006140D03*
X024890Y006140D03*
X024890Y007140D03*
X025890Y007140D03*
X026890Y007140D03*
X023890Y007140D03*
X022890Y007140D03*
X022890Y006140D03*
X023890Y006140D03*
X021890Y006140D03*
X020890Y006140D03*
X019890Y006140D03*
X019890Y007140D03*
X020890Y007140D03*
X021890Y007140D03*
X018890Y007140D03*
X017890Y007140D03*
X017890Y006140D03*
X018890Y006140D03*
X016890Y006140D03*
X015890Y006140D03*
X015890Y007140D03*
X016890Y007140D03*
X014890Y007140D03*
X013890Y007140D03*
X012890Y007140D03*
X012890Y006140D03*
X013890Y006140D03*
X014890Y006140D03*
X011890Y006140D03*
X010890Y006140D03*
X010890Y007140D03*
X011890Y007140D03*
X008390Y007140D03*
X007390Y007140D03*
X007390Y006140D03*
X008390Y006140D03*
X006765Y010140D03*
X005765Y010140D03*
X005765Y011140D03*
X006765Y011140D03*
X006765Y012140D03*
X005765Y012140D03*
X005765Y013140D03*
X006765Y013140D03*
X006765Y014140D03*
X005765Y014140D03*
X005765Y015140D03*
X006765Y015140D03*
X006765Y016140D03*
X005765Y016140D03*
X005765Y017140D03*
X006765Y017140D03*
X006765Y020140D03*
X005765Y020140D03*
X005765Y021140D03*
X006765Y021140D03*
X006765Y022140D03*
X005765Y022140D03*
X005765Y023140D03*
X006765Y023140D03*
X006765Y024140D03*
X005765Y024140D03*
X005765Y025140D03*
X006765Y025140D03*
X006765Y026140D03*
X005765Y026140D03*
X005765Y027140D03*
X006765Y027140D03*
X006765Y030140D03*
X005765Y030140D03*
X005765Y031140D03*
X006765Y031140D03*
X006765Y032140D03*
X005765Y032140D03*
X005765Y033140D03*
X006765Y033140D03*
X006765Y034140D03*
X005765Y034140D03*
X005765Y035140D03*
X006765Y035140D03*
X006765Y036140D03*
X005765Y036140D03*
X005765Y037140D03*
X006765Y037140D03*
X007390Y040140D03*
X008390Y040140D03*
X008390Y041140D03*
X007390Y041140D03*
X059265Y041140D03*
X060265Y041140D03*
X060265Y040140D03*
X059265Y040140D03*
D15*
X063945Y027515D02*
X064585Y027515D01*
X064585Y026515D02*
X063945Y026515D01*
X063945Y025515D02*
X064585Y025515D01*
X064585Y024515D02*
X063945Y024515D01*
X063945Y023515D02*
X064585Y023515D01*
X064585Y022515D02*
X063945Y022515D01*
X063945Y021515D02*
X064585Y021515D01*
X064585Y020515D02*
X063945Y020515D01*
X063945Y019515D02*
X064585Y019515D01*
D16*
X004270Y005423D02*
X004270Y004270D01*
X066502Y004270D01*
X066502Y005157D01*
X066236Y005003D01*
X065926Y004920D01*
X065604Y004920D01*
X065294Y005003D01*
X065016Y005164D01*
X064789Y005391D01*
X064628Y005669D01*
X064545Y005979D01*
X064545Y006301D01*
X064628Y006611D01*
X064789Y006889D01*
X065016Y007116D01*
X065294Y007277D01*
X065604Y007360D01*
X065926Y007360D01*
X066236Y007277D01*
X066502Y007123D01*
X066502Y010678D01*
X064231Y008293D01*
X064229Y008288D01*
X064176Y008236D01*
X064125Y008182D01*
X064120Y008179D01*
X064117Y008176D01*
X064048Y008147D01*
X063979Y008117D01*
X063974Y008117D01*
X063970Y008115D01*
X063895Y008115D01*
X063820Y008113D01*
X063815Y008115D01*
X059681Y008115D01*
X059346Y007780D01*
X059530Y007780D01*
X059765Y007545D01*
X060000Y007780D01*
X060530Y007780D01*
X060905Y007405D01*
X060905Y006875D01*
X060670Y006640D01*
X060905Y006405D01*
X060905Y005875D01*
X060530Y005500D01*
X060000Y005500D01*
X059765Y005735D01*
X059530Y005500D01*
X059000Y005500D01*
X058625Y005875D01*
X058625Y006405D01*
X058860Y006640D01*
X058625Y006875D01*
X058625Y007059D01*
X056367Y004801D01*
X056220Y004740D01*
X038296Y004740D01*
X038213Y004657D01*
X038003Y004570D01*
X037777Y004570D01*
X037567Y004657D01*
X037407Y004817D01*
X037320Y005027D01*
X037320Y005253D01*
X037321Y005255D01*
X036602Y004536D01*
X036489Y004423D01*
X036342Y004363D01*
X036095Y004363D01*
X036095Y004363D01*
X036013Y004363D01*
X035935Y004363D01*
X035935Y004363D01*
X010014Y004365D01*
X009935Y004365D01*
X009935Y004365D01*
X009864Y004395D01*
X009788Y004426D01*
X009788Y004426D01*
X009736Y004479D01*
X009644Y004570D01*
X009527Y004570D01*
X009317Y004657D01*
X009157Y004817D01*
X009070Y005027D01*
X009070Y005240D01*
X006560Y005240D01*
X006413Y005301D01*
X006271Y005443D01*
X006241Y005391D01*
X006014Y005164D01*
X005736Y005003D01*
X005426Y004920D01*
X005104Y004920D01*
X004794Y005003D01*
X004516Y005164D01*
X004289Y005391D01*
X004270Y005423D01*
X004270Y005317D02*
X004363Y005317D01*
X004270Y005158D02*
X004526Y005158D01*
X004270Y005000D02*
X004808Y005000D01*
X004270Y004841D02*
X009147Y004841D01*
X009081Y005000D02*
X005722Y005000D01*
X006004Y005158D02*
X009070Y005158D01*
X009291Y004683D02*
X004270Y004683D01*
X004270Y004524D02*
X009690Y004524D01*
X009788Y004426D02*
X009788Y004426D01*
X009934Y004366D02*
X004270Y004366D01*
X006167Y005317D02*
X006398Y005317D01*
X006640Y005640D02*
X006265Y006015D01*
X006265Y007515D01*
X004390Y009390D01*
X004390Y018265D01*
X005640Y019515D01*
X007265Y019515D01*
X008390Y020640D01*
X008390Y023640D01*
X010140Y025390D01*
X016140Y025390D01*
X016890Y024640D01*
X016890Y023890D01*
X017490Y023890D02*
X017890Y023890D01*
X017890Y023890D01*
X017890Y024770D01*
X017937Y024770D01*
X018030Y024755D01*
X018120Y024726D01*
X018204Y024683D01*
X018281Y024628D01*
X018348Y024561D01*
X018403Y024484D01*
X018446Y024400D01*
X018475Y024310D01*
X018490Y024217D01*
X018490Y023890D01*
X017890Y023890D01*
X017890Y023890D01*
X017890Y023890D01*
X017490Y023890D01*
X017490Y023890D01*
X017890Y023890D02*
X017890Y024770D01*
X017843Y024770D01*
X017749Y024755D01*
X017660Y024726D01*
X017576Y024683D01*
X017499Y024628D01*
X017432Y024561D01*
X017397Y024512D01*
X017290Y024619D01*
X017290Y024720D01*
X017229Y024867D01*
X017117Y024979D01*
X016731Y025365D01*
X020974Y025365D01*
X021538Y024801D01*
X021545Y024798D01*
X021390Y024644D01*
X021230Y024804D01*
X021009Y024895D01*
X020771Y024895D01*
X020550Y024804D01*
X020460Y024714D01*
X020460Y024878D01*
X020373Y025088D01*
X020213Y025248D01*
X020003Y025335D01*
X019777Y025335D01*
X019567Y025248D01*
X019407Y025088D01*
X019320Y024878D01*
X019320Y024652D01*
X019407Y024442D01*
X019490Y024359D01*
X019490Y023181D01*
X018551Y022242D01*
X018490Y022095D01*
X018490Y021014D01*
X018389Y021115D01*
X018140Y021115D01*
X018140Y020515D01*
X018140Y020515D01*
X018140Y019915D01*
X018389Y019915D01*
X018490Y020016D01*
X018490Y019544D01*
X018385Y019649D01*
X018164Y019740D01*
X017366Y019740D01*
X017145Y019649D01*
X016976Y019480D01*
X016885Y019259D01*
X016885Y019021D01*
X016976Y018800D01*
X017136Y018640D01*
X017109Y018612D01*
X016790Y018931D01*
X016790Y023010D01*
X017009Y023010D01*
X017230Y023101D01*
X017397Y023268D01*
X017432Y023219D01*
X017499Y023152D01*
X017576Y023097D01*
X017660Y023054D01*
X017749Y023025D01*
X017843Y023010D01*
X017890Y023010D01*
X017937Y023010D01*
X018030Y023025D01*
X018120Y023054D01*
X018204Y023097D01*
X018281Y023152D01*
X018348Y023219D01*
X018403Y023296D01*
X018446Y023380D01*
X018475Y023469D01*
X018490Y023563D01*
X018490Y023890D01*
X017890Y023890D01*
X017890Y023010D01*
X017890Y023890D01*
X017890Y023890D01*
X017890Y023861D02*
X017890Y023861D01*
X017890Y023703D02*
X017890Y023703D01*
X017890Y023544D02*
X017890Y023544D01*
X017890Y023386D02*
X017890Y023386D01*
X017890Y023227D02*
X017890Y023227D01*
X017890Y023069D02*
X017890Y023069D01*
X018149Y023069D02*
X019378Y023069D01*
X019490Y023227D02*
X018353Y023227D01*
X018448Y023386D02*
X019490Y023386D01*
X019490Y023544D02*
X018487Y023544D01*
X018490Y023703D02*
X019490Y023703D01*
X019490Y023861D02*
X018490Y023861D01*
X018490Y024020D02*
X019490Y024020D01*
X019490Y024178D02*
X018490Y024178D01*
X018467Y024337D02*
X019490Y024337D01*
X019385Y024495D02*
X018395Y024495D01*
X018245Y024654D02*
X019320Y024654D01*
X019320Y024812D02*
X017252Y024812D01*
X017290Y024654D02*
X017535Y024654D01*
X017890Y024654D02*
X017890Y024654D01*
X017890Y024495D02*
X017890Y024495D01*
X017890Y024337D02*
X017890Y024337D01*
X017890Y024178D02*
X017890Y024178D01*
X017890Y024020D02*
X017890Y024020D01*
X017427Y023227D02*
X017356Y023227D01*
X017151Y023069D02*
X017631Y023069D01*
X016790Y022910D02*
X019219Y022910D01*
X019061Y022752D02*
X016790Y022752D01*
X016790Y022593D02*
X018902Y022593D01*
X018744Y022435D02*
X016790Y022435D01*
X016790Y022276D02*
X018585Y022276D01*
X018500Y022118D02*
X016790Y022118D01*
X016790Y021959D02*
X018490Y021959D01*
X018490Y021801D02*
X016790Y021801D01*
X016790Y021642D02*
X018490Y021642D01*
X018490Y021484D02*
X016790Y021484D01*
X016790Y021325D02*
X018490Y021325D01*
X018490Y021167D02*
X016790Y021167D01*
X016790Y021008D02*
X017784Y021008D01*
X017891Y021115D02*
X017540Y020764D01*
X017540Y020515D01*
X018140Y020515D01*
X018140Y020515D01*
X018140Y020515D01*
X018140Y021115D01*
X017891Y021115D01*
X018140Y021008D02*
X018140Y021008D01*
X018140Y020850D02*
X018140Y020850D01*
X018140Y020691D02*
X018140Y020691D01*
X018140Y020533D02*
X018140Y020533D01*
X018140Y020515D02*
X017540Y020515D01*
X017540Y020266D01*
X017891Y019915D01*
X018140Y019915D01*
X018140Y020515D01*
X018140Y020374D02*
X018140Y020374D01*
X018140Y020216D02*
X018140Y020216D01*
X018140Y020057D02*
X018140Y020057D01*
X018490Y019899D02*
X016790Y019899D01*
X016790Y020057D02*
X017749Y020057D01*
X017591Y020216D02*
X016790Y020216D01*
X016790Y020374D02*
X017540Y020374D01*
X017540Y020533D02*
X016790Y020533D01*
X016790Y020691D02*
X017540Y020691D01*
X017626Y020850D02*
X016790Y020850D01*
X015890Y022015D02*
X015390Y022515D01*
X015390Y024390D01*
X015140Y024640D01*
X014140Y024640D01*
X013890Y024390D01*
X013890Y023890D01*
X013390Y023261D02*
X013550Y023101D01*
X013602Y023080D01*
X013570Y023003D01*
X013570Y022777D01*
X013657Y022567D01*
X013740Y022484D01*
X013740Y022185D01*
X013801Y022038D01*
X013913Y021926D01*
X013913Y021926D01*
X014511Y021328D01*
X014317Y021248D01*
X014157Y021088D01*
X014070Y020878D01*
X014070Y020673D01*
X014025Y020696D01*
X013935Y020725D01*
X013842Y020740D01*
X013515Y020740D01*
X013515Y020140D01*
X014240Y020140D01*
X014240Y020140D01*
X013515Y020140D01*
X013515Y020140D01*
X013515Y020140D01*
X013515Y020140D01*
X012635Y020140D01*
X012635Y020187D01*
X012650Y020280D01*
X012679Y020370D01*
X012722Y020454D01*
X012777Y020531D01*
X012844Y020598D01*
X012921Y020653D01*
X013005Y020696D01*
X013094Y020725D01*
X013188Y020740D01*
X013515Y020740D01*
X013515Y020140D01*
X013515Y019740D01*
X013515Y019140D01*
X013515Y019140D01*
X013515Y018540D01*
X013515Y018140D01*
X013515Y018140D01*
X013515Y019140D01*
X013515Y019140D01*
X013515Y019140D01*
X012635Y019140D01*
X012635Y019187D01*
X012650Y019280D01*
X012679Y019370D01*
X012722Y019454D01*
X012777Y019531D01*
X012844Y019598D01*
X012902Y019640D01*
X012844Y019682D01*
X012777Y019749D01*
X012722Y019826D01*
X012679Y019910D01*
X012650Y019999D01*
X012635Y020093D01*
X012635Y020140D01*
X013515Y020140D01*
X013515Y020140D01*
X013515Y019140D01*
X012635Y019140D01*
X012635Y019093D01*
X012650Y018999D01*
X012679Y018910D01*
X012722Y018826D01*
X012777Y018749D01*
X012844Y018682D01*
X012902Y018640D01*
X012844Y018598D01*
X012777Y018531D01*
X012722Y018454D01*
X012679Y018370D01*
X012650Y018280D01*
X012635Y018187D01*
X012635Y018140D01*
X013515Y018140D01*
X013515Y018140D01*
X013515Y017540D01*
X013515Y017140D01*
X013515Y017140D01*
X013515Y017140D01*
X012635Y017140D01*
X012635Y017187D01*
X012650Y017280D01*
X012679Y017370D01*
X012722Y017454D01*
X012777Y017531D01*
X012844Y017598D01*
X012902Y017640D01*
X012844Y017682D01*
X012777Y017749D01*
X012722Y017826D01*
X012679Y017910D01*
X012650Y017999D01*
X012635Y018093D01*
X012635Y018140D01*
X013515Y018140D01*
X013515Y018140D01*
X013515Y017140D01*
X013515Y016140D01*
X013515Y016140D01*
X013515Y016740D01*
X013515Y017140D01*
X013515Y017140D01*
X012635Y017140D01*
X012635Y017093D01*
X012650Y016999D01*
X012679Y016910D01*
X012722Y016826D01*
X012777Y016749D01*
X012844Y016682D01*
X012902Y016640D01*
X012844Y016598D01*
X012777Y016531D01*
X012736Y016474D01*
X012729Y016492D01*
X011854Y017367D01*
X011742Y017479D01*
X011595Y017540D01*
X011244Y017540D01*
X011144Y017640D01*
X011304Y017800D01*
X011395Y018021D01*
X011395Y018259D01*
X011304Y018480D01*
X011144Y018640D01*
X011304Y018800D01*
X011395Y019021D01*
X011395Y019259D01*
X011304Y019480D01*
X011144Y019640D01*
X011304Y019800D01*
X011395Y020021D01*
X011395Y020259D01*
X011304Y020480D01*
X011135Y020649D01*
X010914Y020740D01*
X010116Y020740D01*
X009895Y020649D01*
X009726Y020480D01*
X009635Y020259D01*
X009635Y020076D01*
X008474Y018915D01*
X005606Y018915D01*
X005806Y019115D01*
X007345Y019115D01*
X007492Y019176D01*
X008617Y020301D01*
X008729Y020413D01*
X008790Y020560D01*
X008790Y023474D01*
X010306Y024990D01*
X012924Y024990D01*
X012663Y024729D01*
X012657Y024723D01*
X012550Y024679D01*
X012383Y024512D01*
X012348Y024561D01*
X012281Y024628D01*
X012204Y024683D01*
X012120Y024726D01*
X012030Y024755D01*
X011937Y024770D01*
X011890Y024770D01*
X011890Y023890D01*
X011890Y023890D01*
X011890Y023010D01*
X011937Y023010D01*
X012030Y023025D01*
X012120Y023054D01*
X012204Y023097D01*
X012281Y023152D01*
X012348Y023219D01*
X012383Y023268D01*
X012550Y023101D01*
X012771Y023010D01*
X013009Y023010D01*
X013230Y023101D01*
X013390Y023261D01*
X013356Y023227D02*
X013424Y023227D01*
X013597Y023069D02*
X013151Y023069D01*
X013570Y022910D02*
X008790Y022910D01*
X008790Y022752D02*
X013580Y022752D01*
X013646Y022593D02*
X008790Y022593D01*
X008790Y022435D02*
X013740Y022435D01*
X013740Y022276D02*
X008790Y022276D01*
X008790Y022118D02*
X013768Y022118D01*
X013880Y021959D02*
X008790Y021959D01*
X008790Y021801D02*
X014039Y021801D01*
X014197Y021642D02*
X008790Y021642D01*
X008790Y021484D02*
X014356Y021484D01*
X014503Y021325D02*
X008790Y021325D01*
X008790Y021167D02*
X014235Y021167D01*
X014124Y021008D02*
X008790Y021008D01*
X008790Y020850D02*
X014070Y020850D01*
X014070Y020691D02*
X014035Y020691D01*
X013515Y020691D02*
X013515Y020691D01*
X013515Y020533D02*
X013515Y020533D01*
X013515Y020374D02*
X013515Y020374D01*
X013515Y020216D02*
X013515Y020216D01*
X013515Y020057D02*
X013515Y020057D01*
X013515Y019899D02*
X013515Y019899D01*
X013515Y019740D02*
X013515Y019740D01*
X013515Y019582D02*
X013515Y019582D01*
X013515Y019423D02*
X013515Y019423D01*
X013515Y019265D02*
X013515Y019265D01*
X013515Y019106D02*
X013515Y019106D01*
X013515Y018948D02*
X013515Y018948D01*
X013515Y018789D02*
X013515Y018789D01*
X013515Y018631D02*
X013515Y018631D01*
X013515Y018472D02*
X013515Y018472D01*
X013515Y018314D02*
X013515Y018314D01*
X013515Y018155D02*
X013515Y018155D01*
X013515Y017997D02*
X013515Y017997D01*
X013515Y017838D02*
X013515Y017838D01*
X013515Y017680D02*
X013515Y017680D01*
X013515Y017521D02*
X013515Y017521D01*
X013515Y017363D02*
X013515Y017363D01*
X013515Y017204D02*
X013515Y017204D01*
X013515Y017046D02*
X013515Y017046D01*
X013515Y016887D02*
X013515Y016887D01*
X013515Y016729D02*
X013515Y016729D01*
X013515Y016570D02*
X013515Y016570D01*
X013515Y016412D02*
X013515Y016412D01*
X013515Y016253D02*
X013515Y016253D01*
X013515Y016140D02*
X013515Y015140D01*
X013515Y015140D01*
X013515Y014540D01*
X013515Y014140D01*
X013515Y014140D01*
X013515Y013540D01*
X013515Y013140D01*
X013515Y013140D01*
X013515Y012740D01*
X013515Y012140D01*
X013265Y012140D01*
X012765Y011640D01*
X012765Y009765D01*
X012515Y009515D01*
X012515Y009515D01*
X012515Y010115D01*
X012764Y010115D01*
X013115Y009764D01*
X013115Y009671D01*
X013192Y009748D01*
X013402Y009835D01*
X013628Y009835D01*
X013838Y009748D01*
X013990Y009596D01*
X013990Y010507D01*
X013953Y010556D01*
X013914Y010540D01*
X013116Y010540D01*
X012895Y010631D01*
X012726Y010800D01*
X012635Y011021D01*
X012635Y011194D01*
X012617Y011176D01*
X011242Y009801D01*
X011115Y009748D01*
X011115Y009266D01*
X010764Y008915D01*
X010266Y008915D01*
X009915Y009266D01*
X009915Y009740D01*
X007560Y009740D01*
X007413Y009801D01*
X007372Y009842D01*
X007030Y009500D01*
X006691Y009500D01*
X006604Y009413D01*
X006492Y009301D01*
X006345Y009240D01*
X005185Y009240D01*
X005049Y009296D01*
X006492Y007854D01*
X006492Y007854D01*
X006604Y007742D01*
X006665Y007595D01*
X006665Y006181D01*
X006750Y006096D01*
X006750Y006120D01*
X007370Y006120D01*
X007370Y006160D01*
X007370Y007120D01*
X007410Y007120D01*
X007410Y007160D01*
X007370Y007160D01*
X007370Y007780D01*
X007125Y007780D01*
X006750Y007405D01*
X006750Y007160D01*
X007370Y007160D01*
X007370Y007120D01*
X006750Y007120D01*
X006750Y006875D01*
X006985Y006640D01*
X006750Y006405D01*
X006750Y006160D01*
X007370Y006160D01*
X007410Y006160D01*
X007410Y006500D01*
X007410Y007120D01*
X007750Y007120D01*
X008370Y007120D01*
X008370Y007160D01*
X008370Y007780D01*
X008125Y007780D01*
X007890Y007545D01*
X007655Y007780D01*
X007410Y007780D01*
X007410Y007160D01*
X008370Y007160D01*
X008410Y007160D01*
X008410Y007780D01*
X008655Y007780D01*
X009030Y007405D01*
X009030Y007160D01*
X008410Y007160D01*
X008410Y007120D01*
X009030Y007120D01*
X009030Y006875D01*
X008795Y006640D01*
X009030Y006405D01*
X009030Y006160D01*
X008410Y006160D01*
X008410Y006120D01*
X009030Y006120D01*
X009030Y006040D01*
X010250Y006040D01*
X010250Y006405D01*
X010485Y006640D01*
X010250Y006875D01*
X010250Y007309D01*
X010210Y007269D01*
X010210Y007152D01*
X010123Y006942D01*
X009963Y006782D01*
X009753Y006695D01*
X009527Y006695D01*
X009317Y006782D01*
X009157Y006942D01*
X009070Y007152D01*
X009070Y007378D01*
X009157Y007588D01*
X009317Y007748D01*
X009527Y007835D01*
X009644Y007835D01*
X009926Y008117D01*
X010038Y008229D01*
X010185Y008290D01*
X011974Y008290D01*
X012599Y008915D01*
X012515Y008915D01*
X012515Y009515D01*
X012515Y009515D01*
X012515Y009515D01*
X011915Y009515D01*
X011915Y009764D01*
X012266Y010115D01*
X012515Y010115D01*
X012515Y009515D01*
X012515Y008915D01*
X012266Y008915D01*
X011915Y009266D01*
X011915Y009515D01*
X012515Y009515D01*
X012515Y009438D02*
X012515Y009438D01*
X012515Y009596D02*
X012515Y009596D01*
X012515Y009755D02*
X012515Y009755D01*
X012515Y009913D02*
X012515Y009913D01*
X012515Y010072D02*
X012515Y010072D01*
X012807Y010072D02*
X013990Y010072D01*
X013990Y010230D02*
X011671Y010230D01*
X011829Y010389D02*
X013990Y010389D01*
X013960Y010547D02*
X013931Y010547D01*
X014390Y010640D02*
X014015Y011140D01*
X013515Y011140D01*
X014015Y011140D02*
X014640Y011765D01*
X014640Y020765D01*
X015140Y021265D02*
X014140Y022265D01*
X014140Y022890D01*
X014890Y022265D02*
X014890Y023890D01*
X013515Y025015D02*
X012890Y024390D01*
X012890Y023890D01*
X012424Y023227D02*
X012353Y023227D01*
X012149Y023069D02*
X012629Y023069D01*
X011890Y023069D02*
X011890Y023069D01*
X011890Y023010D02*
X011890Y023890D01*
X011890Y023890D01*
X011890Y024770D01*
X011843Y024770D01*
X011749Y024755D01*
X011660Y024726D01*
X011576Y024683D01*
X011499Y024628D01*
X011432Y024561D01*
X011390Y024503D01*
X011348Y024561D01*
X011281Y024628D01*
X011204Y024683D01*
X011120Y024726D01*
X011030Y024755D01*
X010937Y024770D01*
X010890Y024770D01*
X010890Y023890D01*
X010890Y023890D01*
X011890Y023890D01*
X011890Y023890D01*
X011490Y023890D01*
X010890Y023890D01*
X010890Y023890D01*
X010890Y023010D01*
X010937Y023010D01*
X011030Y023025D01*
X011120Y023054D01*
X011204Y023097D01*
X011281Y023152D01*
X011348Y023219D01*
X011390Y023277D01*
X011432Y023219D01*
X011499Y023152D01*
X011576Y023097D01*
X011660Y023054D01*
X011749Y023025D01*
X011843Y023010D01*
X011890Y023010D01*
X011890Y023227D02*
X011890Y023227D01*
X011890Y023386D02*
X011890Y023386D01*
X011890Y023544D02*
X011890Y023544D01*
X011890Y023703D02*
X011890Y023703D01*
X011890Y023861D02*
X011890Y023861D01*
X011890Y024020D02*
X011890Y024020D01*
X011890Y024178D02*
X011890Y024178D01*
X011890Y024337D02*
X011890Y024337D01*
X011890Y024495D02*
X011890Y024495D01*
X011890Y024654D02*
X011890Y024654D01*
X011535Y024654D02*
X011245Y024654D01*
X010890Y024654D02*
X010890Y024654D01*
X010890Y024770D02*
X010843Y024770D01*
X010749Y024755D01*
X010660Y024726D01*
X010576Y024683D01*
X010499Y024628D01*
X010432Y024561D01*
X010377Y024484D01*
X010334Y024400D01*
X010305Y024310D01*
X010290Y024217D01*
X010290Y023890D01*
X010890Y023890D01*
X010890Y023890D01*
X010890Y023890D01*
X010890Y024770D01*
X010890Y024495D02*
X010890Y024495D01*
X010890Y024337D02*
X010890Y024337D01*
X010890Y024178D02*
X010890Y024178D01*
X010890Y024020D02*
X010890Y024020D01*
X010890Y023890D02*
X010290Y023890D01*
X010290Y023563D01*
X010305Y023469D01*
X010334Y023380D01*
X010377Y023296D01*
X010432Y023219D01*
X010499Y023152D01*
X010576Y023097D01*
X010660Y023054D01*
X010749Y023025D01*
X010843Y023010D01*
X010890Y023010D01*
X010890Y023890D01*
X010890Y023861D02*
X010890Y023861D01*
X010890Y023703D02*
X010890Y023703D01*
X010890Y023544D02*
X010890Y023544D01*
X010890Y023386D02*
X010890Y023386D01*
X010890Y023227D02*
X010890Y023227D01*
X010890Y023069D02*
X010890Y023069D01*
X011149Y023069D02*
X011631Y023069D01*
X011427Y023227D02*
X011353Y023227D01*
X010631Y023069D02*
X008790Y023069D01*
X008790Y023227D02*
X010427Y023227D01*
X010332Y023386D02*
X008790Y023386D01*
X008860Y023544D02*
X010293Y023544D01*
X010290Y023703D02*
X009018Y023703D01*
X009177Y023861D02*
X010290Y023861D01*
X010290Y024020D02*
X009335Y024020D01*
X009494Y024178D02*
X010290Y024178D01*
X010313Y024337D02*
X009652Y024337D01*
X009811Y024495D02*
X010385Y024495D01*
X010535Y024654D02*
X009969Y024654D01*
X010128Y024812D02*
X012746Y024812D01*
X012905Y024971D02*
X010286Y024971D01*
X009640Y025765D02*
X007015Y023140D01*
X006765Y023140D01*
X005360Y022640D02*
X005125Y022405D01*
X005125Y021875D01*
X005360Y021640D01*
X005125Y021405D01*
X005125Y020875D01*
X005360Y020640D01*
X005125Y020405D01*
X005125Y019875D01*
X005280Y019720D01*
X004270Y018711D01*
X004270Y033694D01*
X004288Y033676D01*
X004288Y033676D01*
X005163Y032801D01*
X005224Y032776D01*
X005360Y032640D01*
X005125Y032405D01*
X005125Y031875D01*
X005360Y031640D01*
X005125Y031405D01*
X005125Y030875D01*
X005360Y030640D01*
X005125Y030405D01*
X005125Y029875D01*
X005500Y029500D01*
X006030Y029500D01*
X006265Y029735D01*
X006500Y029500D01*
X006839Y029500D01*
X006913Y029426D01*
X007060Y029365D01*
X013299Y029365D01*
X011657Y027723D01*
X011550Y027679D01*
X011390Y027519D01*
X011370Y027539D01*
X011370Y028021D01*
X011490Y028141D01*
X011490Y028639D01*
X011139Y028990D01*
X010641Y028990D01*
X010290Y028639D01*
X010290Y028141D01*
X010410Y028021D01*
X010410Y027539D01*
X010381Y027510D01*
X010290Y027289D01*
X010290Y026540D01*
X010056Y026540D01*
X009117Y027479D01*
X008970Y027540D01*
X007270Y027540D01*
X007030Y027780D01*
X006500Y027780D01*
X006265Y027545D01*
X006030Y027780D01*
X005500Y027780D01*
X005125Y027405D01*
X005125Y026875D01*
X005360Y026640D01*
X005125Y026405D01*
X005125Y025875D01*
X005360Y025640D01*
X005125Y025405D01*
X005125Y024875D01*
X005360Y024640D01*
X005125Y024405D01*
X005125Y023875D01*
X005360Y023640D01*
X005125Y023405D01*
X005125Y022875D01*
X005360Y022640D01*
X005313Y022593D02*
X004270Y022593D01*
X004270Y022435D02*
X005154Y022435D01*
X005125Y022276D02*
X004270Y022276D01*
X004270Y022118D02*
X005125Y022118D01*
X005125Y021959D02*
X004270Y021959D01*
X004270Y021801D02*
X005199Y021801D01*
X005358Y021642D02*
X004270Y021642D01*
X004270Y021484D02*
X005203Y021484D01*
X005125Y021325D02*
X004270Y021325D01*
X004270Y021167D02*
X005125Y021167D01*
X005125Y021008D02*
X004270Y021008D01*
X004270Y020850D02*
X005150Y020850D01*
X005309Y020691D02*
X004270Y020691D01*
X004270Y020533D02*
X005252Y020533D01*
X005125Y020374D02*
X004270Y020374D01*
X004270Y020216D02*
X005125Y020216D01*
X005125Y020057D02*
X004270Y020057D01*
X004270Y019899D02*
X005125Y019899D01*
X005260Y019740D02*
X004270Y019740D01*
X004270Y019582D02*
X005141Y019582D01*
X004982Y019423D02*
X004270Y019423D01*
X004270Y019265D02*
X004824Y019265D01*
X004665Y019106D02*
X004270Y019106D01*
X004270Y018948D02*
X004507Y018948D01*
X004348Y018789D02*
X004270Y018789D01*
X004765Y017890D02*
X005390Y018515D01*
X008640Y018515D01*
X010265Y020140D01*
X010515Y020140D01*
X009997Y020691D02*
X008790Y020691D01*
X008778Y020533D02*
X009779Y020533D01*
X009683Y020374D02*
X008690Y020374D01*
X008531Y020216D02*
X009635Y020216D01*
X009616Y020057D02*
X008373Y020057D01*
X008214Y019899D02*
X009458Y019899D01*
X009299Y019740D02*
X008056Y019740D01*
X007897Y019582D02*
X009141Y019582D01*
X008982Y019423D02*
X007739Y019423D01*
X007580Y019265D02*
X008824Y019265D01*
X008665Y019106D02*
X005797Y019106D01*
X005638Y018948D02*
X008507Y018948D01*
X009265Y018140D02*
X010265Y019140D01*
X010515Y019140D01*
X011153Y018631D02*
X012889Y018631D01*
X012748Y018789D02*
X011293Y018789D01*
X011365Y018948D02*
X012667Y018948D01*
X012635Y019106D02*
X011395Y019106D01*
X011393Y019265D02*
X012647Y019265D01*
X012706Y019423D02*
X011327Y019423D01*
X011202Y019582D02*
X012828Y019582D01*
X012786Y019740D02*
X011244Y019740D01*
X011344Y019899D02*
X012685Y019899D01*
X012641Y020057D02*
X011395Y020057D01*
X011395Y020216D02*
X012639Y020216D01*
X012681Y020374D02*
X011347Y020374D01*
X011251Y020533D02*
X012779Y020533D01*
X012995Y020691D02*
X011033Y020691D01*
X011307Y018472D02*
X012735Y018472D01*
X012661Y018314D02*
X011373Y018314D01*
X011395Y018155D02*
X012635Y018155D01*
X012651Y017997D02*
X011385Y017997D01*
X011319Y017838D02*
X012715Y017838D01*
X012848Y017680D02*
X011183Y017680D01*
X011640Y017521D02*
X012770Y017521D01*
X012676Y017363D02*
X011858Y017363D01*
X012017Y017204D02*
X012638Y017204D01*
X012642Y017046D02*
X012175Y017046D01*
X012334Y016887D02*
X012691Y016887D01*
X012798Y016729D02*
X012492Y016729D01*
X012651Y016570D02*
X012816Y016570D01*
X012390Y016265D02*
X011515Y017140D01*
X010515Y017140D01*
X009890Y016640D02*
X011515Y016640D01*
X012015Y016140D01*
X012015Y011640D01*
X010890Y010515D01*
X007765Y010515D01*
X007140Y011140D01*
X006765Y011140D01*
X007140Y010640D02*
X006265Y010640D01*
X005765Y011140D01*
X006265Y011640D02*
X011015Y011640D01*
X011640Y012265D01*
X011640Y014640D01*
X011140Y015140D01*
X010515Y015140D01*
X011015Y014640D02*
X009890Y014640D01*
X009515Y015015D01*
X009515Y015765D01*
X009890Y016140D01*
X010515Y016140D01*
X009890Y016640D02*
X009515Y017015D01*
X009515Y017765D01*
X009890Y018140D01*
X010515Y018140D01*
X009265Y018140D02*
X005640Y018140D01*
X005140Y017640D01*
X005140Y010765D01*
X005765Y010140D01*
X005265Y009640D02*
X004765Y010140D01*
X004765Y017890D01*
X008765Y013140D02*
X009765Y014140D01*
X010515Y014140D01*
X011015Y014640D02*
X011265Y014390D01*
X011265Y012890D01*
X011015Y012640D01*
X009765Y012640D01*
X009265Y012140D01*
X006765Y012140D01*
X006265Y011640D02*
X005765Y012140D01*
X006265Y012640D02*
X005765Y013140D01*
X006265Y012640D02*
X009015Y012640D01*
X009515Y013140D01*
X010515Y013140D01*
X008765Y013140D02*
X006765Y013140D01*
X007140Y010640D02*
X007640Y010140D01*
X011015Y010140D01*
X012390Y011515D01*
X012390Y016265D01*
X013515Y016140D02*
X013515Y015740D01*
X013515Y015140D01*
X013515Y015140D01*
X013515Y014140D01*
X013515Y014140D01*
X013515Y013140D01*
X013515Y013140D01*
X013515Y012140D01*
X013515Y012140D01*
X012790Y012140D01*
X012790Y012140D01*
X013515Y012140D01*
X013515Y012140D01*
X013515Y012291D02*
X013515Y012291D01*
X013515Y012449D02*
X013515Y012449D01*
X013515Y012608D02*
X013515Y012608D01*
X013515Y012766D02*
X013515Y012766D01*
X013515Y012925D02*
X013515Y012925D01*
X013515Y013083D02*
X013515Y013083D01*
X013515Y013242D02*
X013515Y013242D01*
X013515Y013400D02*
X013515Y013400D01*
X013515Y013559D02*
X013515Y013559D01*
X013515Y013717D02*
X013515Y013717D01*
X013515Y013876D02*
X013515Y013876D01*
X013515Y014034D02*
X013515Y014034D01*
X013515Y014193D02*
X013515Y014193D01*
X013515Y014351D02*
X013515Y014351D01*
X013515Y014510D02*
X013515Y014510D01*
X013515Y014668D02*
X013515Y014668D01*
X013515Y014827D02*
X013515Y014827D01*
X013515Y014985D02*
X013515Y014985D01*
X013515Y015144D02*
X013515Y015144D01*
X013515Y015302D02*
X013515Y015302D01*
X013515Y015461D02*
X013515Y015461D01*
X013515Y015619D02*
X013515Y015619D01*
X013515Y015778D02*
X013515Y015778D01*
X013515Y015936D02*
X013515Y015936D01*
X013515Y016095D02*
X013515Y016095D01*
X013515Y016140D02*
X013515Y016140D01*
X015140Y017015D02*
X015140Y021265D01*
X015515Y021640D02*
X014890Y022265D01*
X015515Y021640D02*
X015515Y017640D01*
X017015Y016140D01*
X017765Y016140D01*
X017765Y015140D02*
X017015Y015140D01*
X015140Y017015D01*
X015890Y018265D02*
X015890Y022015D01*
X018890Y022015D02*
X019890Y023015D01*
X019890Y024765D01*
X019662Y025288D02*
X016808Y025288D01*
X016967Y025129D02*
X019448Y025129D01*
X019358Y024971D02*
X017125Y024971D01*
X016390Y024515D02*
X015890Y025015D01*
X013515Y025015D01*
X012525Y024654D02*
X012245Y024654D01*
X010290Y026556D02*
X010040Y026556D01*
X009882Y026714D02*
X010290Y026714D01*
X010290Y026873D02*
X009723Y026873D01*
X009565Y027031D02*
X010290Y027031D01*
X010290Y027190D02*
X009406Y027190D01*
X009248Y027348D02*
X010314Y027348D01*
X010380Y027507D02*
X009050Y027507D01*
X009139Y027790D02*
X009490Y028141D01*
X009490Y028390D01*
X009490Y028639D01*
X009139Y028990D01*
X008890Y028990D01*
X008890Y028390D01*
X009490Y028390D01*
X008890Y028390D01*
X008890Y028390D01*
X008890Y028390D01*
X008890Y027790D01*
X009139Y027790D01*
X009172Y027824D02*
X010410Y027824D01*
X010410Y027982D02*
X009331Y027982D01*
X009489Y028141D02*
X010291Y028141D01*
X010290Y028299D02*
X009490Y028299D01*
X009490Y028458D02*
X010290Y028458D01*
X010290Y028616D02*
X009490Y028616D01*
X009354Y028775D02*
X010426Y028775D01*
X010585Y028933D02*
X009195Y028933D01*
X008890Y028933D02*
X008890Y028933D01*
X008890Y028990D02*
X008641Y028990D01*
X008290Y028639D01*
X008290Y028390D01*
X008890Y028390D01*
X008890Y028390D01*
X008890Y028390D01*
X008890Y028990D01*
X008890Y028775D02*
X008890Y028775D01*
X008890Y028616D02*
X008890Y028616D01*
X008890Y028458D02*
X008890Y028458D01*
X008890Y028390D02*
X008290Y028390D01*
X008290Y028141D01*
X008641Y027790D01*
X008890Y027790D01*
X008890Y028390D01*
X008890Y028299D02*
X008890Y028299D01*
X008890Y028141D02*
X008890Y028141D01*
X008890Y027982D02*
X008890Y027982D01*
X008890Y027824D02*
X008890Y027824D01*
X008608Y027824D02*
X004270Y027824D01*
X004270Y027982D02*
X008449Y027982D01*
X008291Y028141D02*
X004270Y028141D01*
X004270Y028299D02*
X008290Y028299D01*
X008290Y028458D02*
X004270Y028458D01*
X004270Y028616D02*
X008290Y028616D01*
X008426Y028775D02*
X004270Y028775D01*
X004270Y028933D02*
X008585Y028933D01*
X007640Y030140D02*
X020515Y030140D01*
X021265Y030890D01*
X021265Y033015D01*
X020140Y034140D01*
X019640Y034140D01*
X019140Y033140D02*
X018515Y033765D01*
X018515Y035015D01*
X019140Y035640D01*
X020390Y035640D01*
X021640Y034390D01*
X028890Y034390D01*
X030265Y035765D01*
X030265Y037265D01*
X030015Y037515D01*
X029015Y037515D01*
X028765Y037265D01*
X028765Y036515D01*
X028265Y037144D02*
X028105Y037304D01*
X027884Y037395D01*
X027646Y037395D01*
X027425Y037304D01*
X027265Y037144D01*
X027105Y037304D01*
X026884Y037395D01*
X026711Y037395D01*
X027992Y038676D01*
X027998Y038682D01*
X028105Y038726D01*
X028265Y038886D01*
X028425Y038726D01*
X028646Y038635D01*
X028884Y038635D01*
X029105Y038726D01*
X029265Y038886D01*
X029425Y038726D01*
X029646Y038635D01*
X029884Y038635D01*
X030105Y038726D01*
X030265Y038886D01*
X030425Y038726D01*
X030646Y038635D01*
X030884Y038635D01*
X031105Y038726D01*
X031265Y038886D01*
X031425Y038726D01*
X031646Y038635D01*
X031884Y038635D01*
X032105Y038726D01*
X032115Y038736D01*
X032115Y037282D01*
X032079Y037308D01*
X031995Y037351D01*
X031905Y037380D01*
X031812Y037395D01*
X031765Y037395D01*
X031765Y036515D01*
X032115Y036515D01*
X032115Y036515D01*
X031765Y036515D01*
X031765Y036515D01*
X031765Y036515D01*
X031365Y036515D01*
X031365Y036515D01*
X031765Y036515D01*
X031765Y036515D01*
X031765Y035635D01*
X031812Y035635D01*
X031905Y035650D01*
X031995Y035679D01*
X032079Y035722D01*
X032115Y035748D01*
X032115Y034421D01*
X032032Y034338D01*
X032030Y034335D01*
X031884Y034395D01*
X031646Y034395D01*
X031425Y034304D01*
X031265Y034144D01*
X031105Y034304D01*
X030884Y034395D01*
X030646Y034395D01*
X030425Y034304D01*
X030265Y034144D01*
X030105Y034304D01*
X029884Y034395D01*
X029646Y034395D01*
X029425Y034304D01*
X029265Y034144D01*
X029237Y034171D01*
X030604Y035538D01*
X030644Y035636D01*
X030646Y035635D01*
X030884Y035635D01*
X031105Y035726D01*
X031272Y035893D01*
X031307Y035844D01*
X031374Y035777D01*
X031451Y035722D01*
X031535Y035679D01*
X031624Y035650D01*
X031718Y035635D01*
X031765Y035635D01*
X031765Y036515D01*
X031765Y036515D01*
X031765Y037395D01*
X031718Y037395D01*
X031624Y037380D01*
X031535Y037351D01*
X031451Y037308D01*
X031374Y037253D01*
X031307Y037186D01*
X031272Y037137D01*
X031105Y037304D01*
X030884Y037395D01*
X030646Y037395D01*
X030644Y037394D01*
X030604Y037492D01*
X032115Y037492D01*
X032115Y037334D02*
X032030Y037334D01*
X031765Y037334D02*
X031765Y037334D01*
X031765Y037175D02*
X031765Y037175D01*
X031765Y037017D02*
X031765Y037017D01*
X031765Y036858D02*
X031765Y036858D01*
X031765Y036700D02*
X031765Y036700D01*
X031765Y036541D02*
X031765Y036541D01*
X031765Y036383D02*
X031765Y036383D01*
X031765Y036224D02*
X031765Y036224D01*
X031765Y036066D02*
X031765Y036066D01*
X031765Y035907D02*
X031765Y035907D01*
X031765Y035749D02*
X031765Y035749D01*
X031414Y035749D02*
X031127Y035749D01*
X030625Y035590D02*
X032115Y035590D01*
X032115Y035432D02*
X030497Y035432D01*
X030339Y035273D02*
X032115Y035273D01*
X032115Y035115D02*
X030180Y035115D01*
X030022Y034956D02*
X032115Y034956D01*
X032115Y034798D02*
X029863Y034798D01*
X029705Y034639D02*
X032115Y034639D01*
X032115Y034481D02*
X029546Y034481D01*
X029470Y034322D02*
X029388Y034322D01*
X029285Y034164D02*
X029245Y034164D01*
X030060Y034322D02*
X030470Y034322D01*
X030285Y034164D02*
X030245Y034164D01*
X031060Y034322D02*
X031470Y034322D01*
X031285Y034164D02*
X031245Y034164D01*
X032515Y034015D02*
X032515Y040640D01*
X031765Y041390D01*
X018765Y041390D01*
X018640Y041265D01*
X017265Y040390D02*
X026140Y040390D01*
X026765Y039765D01*
X026765Y039515D01*
X027265Y039015D02*
X025140Y036890D01*
X023890Y036890D01*
X022265Y038515D01*
X016390Y038515D01*
X016793Y038919D02*
X017040Y038919D01*
X017040Y038915D02*
X016796Y038915D01*
X016713Y038998D01*
X016519Y039078D01*
X017431Y039990D01*
X024016Y039990D01*
X023790Y039764D01*
X023790Y039266D01*
X024141Y038915D01*
X024639Y038915D01*
X024759Y039035D01*
X025198Y039035D01*
X025256Y038895D01*
X025425Y038726D01*
X025646Y038635D01*
X025884Y038635D01*
X026105Y038726D01*
X026265Y038886D01*
X026418Y038734D01*
X024990Y037306D01*
X024990Y037515D01*
X024990Y037764D01*
X024639Y038115D01*
X024390Y038115D01*
X024390Y037515D01*
X024390Y037515D01*
X024990Y037515D01*
X024390Y037515D01*
X024390Y037515D01*
X024390Y038115D01*
X024141Y038115D01*
X023790Y037764D01*
X023790Y037556D01*
X022604Y038742D01*
X022492Y038854D01*
X022345Y038915D01*
X020240Y038915D01*
X020240Y039389D01*
X019889Y039740D01*
X019391Y039740D01*
X019040Y039389D01*
X019040Y038915D01*
X018240Y038915D01*
X018240Y039140D01*
X018240Y039389D01*
X017889Y039740D01*
X017640Y039740D01*
X017640Y039140D01*
X018240Y039140D01*
X017640Y039140D01*
X017640Y039140D01*
X017640Y039140D01*
X017640Y039140D01*
X017040Y039140D01*
X017040Y039389D01*
X017391Y039740D01*
X017640Y039740D01*
X017640Y039140D01*
X017040Y039140D01*
X017040Y038915D01*
X017040Y039077D02*
X016523Y039077D01*
X016676Y039236D02*
X017040Y039236D01*
X017046Y039394D02*
X016835Y039394D01*
X016993Y039553D02*
X017204Y039553D01*
X017152Y039711D02*
X017363Y039711D01*
X017310Y039870D02*
X023896Y039870D01*
X023790Y039711D02*
X019917Y039711D01*
X020076Y039553D02*
X023790Y039553D01*
X023790Y039394D02*
X020234Y039394D01*
X020240Y039236D02*
X023821Y039236D01*
X023979Y039077D02*
X020240Y039077D01*
X020240Y038919D02*
X024138Y038919D01*
X024642Y038919D02*
X025247Y038919D01*
X025391Y038760D02*
X022586Y038760D01*
X022744Y038602D02*
X026286Y038602D01*
X026391Y038760D02*
X026139Y038760D01*
X026127Y038443D02*
X022903Y038443D01*
X023061Y038285D02*
X025969Y038285D01*
X025810Y038126D02*
X023220Y038126D01*
X023378Y037968D02*
X023994Y037968D01*
X023836Y037809D02*
X023537Y037809D01*
X023695Y037651D02*
X023790Y037651D01*
X024390Y037651D02*
X024390Y037651D01*
X024390Y037809D02*
X024390Y037809D01*
X024390Y037968D02*
X024390Y037968D01*
X024786Y037968D02*
X025652Y037968D01*
X025493Y037809D02*
X024944Y037809D01*
X024990Y037651D02*
X025335Y037651D01*
X025176Y037492D02*
X024990Y037492D01*
X024990Y037334D02*
X025018Y037334D01*
X025765Y036515D02*
X023765Y036515D01*
X022140Y038140D01*
X017640Y038140D01*
X016640Y037140D01*
X017640Y037140D02*
X017640Y036015D01*
X017265Y035640D01*
X015515Y035640D01*
X015015Y035140D01*
X013890Y035140D01*
X014640Y034640D02*
X015640Y033640D01*
X017390Y033640D01*
X018390Y032640D01*
X020765Y032640D01*
X020015Y032140D02*
X019640Y032140D01*
X020015Y032140D02*
X020515Y031640D01*
X020515Y031015D01*
X020015Y030515D01*
X008140Y030515D01*
X007515Y031140D01*
X006765Y031140D01*
X006265Y031640D02*
X018515Y031640D01*
X019015Y031140D01*
X019640Y031140D01*
X018674Y030915D02*
X017478Y030915D01*
X017505Y030999D01*
X017520Y031093D01*
X017520Y031140D01*
X017520Y031187D01*
X017512Y031240D01*
X018349Y031240D01*
X018674Y030915D01*
X018596Y030994D02*
X017503Y030994D01*
X017520Y031140D02*
X016640Y031140D01*
X016640Y031240D01*
X016640Y031240D01*
X016640Y031140D01*
X016640Y031140D01*
X017520Y031140D01*
X017520Y031152D02*
X018437Y031152D01*
X016640Y031152D02*
X016640Y031152D01*
X016640Y031140D02*
X016640Y031140D01*
X016640Y031140D01*
X015760Y031140D01*
X015760Y031187D01*
X015768Y031240D01*
X007981Y031240D01*
X008306Y030915D01*
X015802Y030915D01*
X015775Y030999D01*
X015760Y031093D01*
X015760Y031140D01*
X016640Y031140D01*
X016640Y030915D01*
X016640Y030915D01*
X016640Y031140D01*
X016640Y031140D01*
X016640Y030994D02*
X016640Y030994D01*
X015777Y030994D02*
X008227Y030994D01*
X008069Y031152D02*
X015760Y031152D01*
X016640Y032140D02*
X006765Y032140D01*
X006265Y031640D02*
X005765Y031140D01*
X005125Y031152D02*
X004270Y031152D01*
X004270Y030994D02*
X005125Y030994D01*
X005165Y030835D02*
X004270Y030835D01*
X004270Y030677D02*
X005323Y030677D01*
X005238Y030518D02*
X004270Y030518D01*
X004270Y030360D02*
X005125Y030360D01*
X005125Y030201D02*
X004270Y030201D01*
X004270Y030043D02*
X005125Y030043D01*
X005125Y029884D02*
X004270Y029884D01*
X004270Y029726D02*
X005274Y029726D01*
X005433Y029567D02*
X004270Y029567D01*
X004270Y029409D02*
X006955Y029409D01*
X007140Y029765D02*
X006765Y030140D01*
X007140Y029765D02*
X020640Y029765D01*
X021640Y030765D01*
X022640Y029765D01*
X035890Y029765D01*
X037265Y031140D01*
X038890Y031140D01*
X039265Y030765D01*
X039265Y029765D01*
X039515Y029515D01*
X041515Y029515D01*
X041765Y029765D01*
X041765Y030265D01*
X042765Y030265D01*
X042265Y030894D02*
X042105Y031054D01*
X041884Y031145D01*
X041646Y031145D01*
X041425Y031054D01*
X041265Y030894D01*
X041105Y031054D01*
X040884Y031145D01*
X040646Y031145D01*
X040425Y031054D01*
X040258Y030887D01*
X040223Y030936D01*
X040156Y031003D01*
X040079Y031058D01*
X039995Y031101D01*
X039905Y031130D01*
X039812Y031145D01*
X039765Y031145D01*
X039765Y030265D01*
X039765Y030265D01*
X039765Y031145D01*
X039718Y031145D01*
X039624Y031130D01*
X039535Y031101D01*
X039508Y031088D01*
X039117Y031479D01*
X038970Y031540D01*
X037185Y031540D01*
X037038Y031479D01*
X035724Y030165D01*
X032361Y030165D01*
X032365Y030188D01*
X032365Y030515D01*
X032365Y030842D01*
X032350Y030935D01*
X032321Y031025D01*
X032278Y031109D01*
X032223Y031186D01*
X032156Y031253D01*
X032079Y031308D01*
X031995Y031351D01*
X031905Y031380D01*
X031812Y031395D01*
X031765Y031395D01*
X031765Y030515D01*
X031765Y030515D01*
X032365Y030515D01*
X031765Y030515D01*
X031765Y030515D01*
X031765Y031395D01*
X031718Y031395D01*
X031624Y031380D01*
X031535Y031351D01*
X031451Y031308D01*
X031374Y031253D01*
X031307Y031186D01*
X031272Y031137D01*
X031105Y031304D01*
X030884Y031395D01*
X030646Y031395D01*
X030425Y031304D01*
X030265Y031144D01*
X030237Y031171D01*
X030556Y031490D01*
X033345Y031490D01*
X033492Y031551D01*
X033604Y031663D01*
X033931Y031990D01*
X039724Y031990D01*
X040038Y031676D01*
X040185Y031615D01*
X044095Y031615D01*
X044242Y031676D01*
X044354Y031788D01*
X044992Y032426D01*
X044998Y032432D01*
X045105Y032476D01*
X045274Y032645D01*
X045365Y032866D01*
X045365Y033664D01*
X045274Y033885D01*
X045105Y034054D01*
X044884Y034145D01*
X044646Y034145D01*
X044425Y034054D01*
X044265Y033894D01*
X044105Y034054D01*
X043998Y034098D01*
X043229Y034867D01*
X043117Y034979D01*
X042970Y035040D01*
X041556Y035040D01*
X041165Y035431D01*
X041165Y035786D01*
X041265Y035886D01*
X041425Y035726D01*
X041646Y035635D01*
X041884Y035635D01*
X042105Y035726D01*
X042265Y035886D01*
X042425Y035726D01*
X042646Y035635D01*
X042884Y035635D01*
X043105Y035726D01*
X043265Y035886D01*
X043425Y035726D01*
X043646Y035635D01*
X043884Y035635D01*
X044105Y035726D01*
X044272Y035893D01*
X044307Y035844D01*
X044374Y035777D01*
X044451Y035722D01*
X044535Y035679D01*
X044624Y035650D01*
X044718Y035635D01*
X044765Y035635D01*
X044812Y035635D01*
X044905Y035650D01*
X044995Y035679D01*
X045079Y035722D01*
X045156Y035777D01*
X045223Y035844D01*
X045278Y035921D01*
X045321Y036005D01*
X045350Y036094D01*
X045365Y036188D01*
X045365Y036515D01*
X045365Y036842D01*
X045350Y036935D01*
X045321Y037025D01*
X045278Y037109D01*
X045223Y037186D01*
X045156Y037253D01*
X045079Y037308D01*
X044995Y037351D01*
X044905Y037380D01*
X044812Y037395D01*
X044765Y037395D01*
X044765Y036515D01*
X044765Y036515D01*
X045365Y036515D01*
X044765Y036515D01*
X044765Y036515D01*
X044765Y037395D01*
X044718Y037395D01*
X044624Y037380D01*
X044535Y037351D01*
X044451Y037308D01*
X044374Y037253D01*
X044307Y037186D01*
X044272Y037137D01*
X044105Y037304D01*
X043884Y037395D01*
X043646Y037395D01*
X043425Y037304D01*
X043265Y037144D01*
X043165Y037244D01*
X043165Y038786D01*
X043265Y038886D01*
X043425Y038726D01*
X043646Y038635D01*
X043884Y038635D01*
X044105Y038726D01*
X044265Y038886D01*
X044425Y038726D01*
X044646Y038635D01*
X044884Y038635D01*
X045105Y038726D01*
X045274Y038895D01*
X045365Y039116D01*
X045365Y039914D01*
X045274Y040135D01*
X045105Y040304D01*
X044884Y040395D01*
X044646Y040395D01*
X044425Y040304D01*
X044265Y040144D01*
X044105Y040304D01*
X043884Y040395D01*
X043646Y040395D01*
X043425Y040304D01*
X043265Y040144D01*
X043105Y040304D01*
X042998Y040348D01*
X042992Y040354D01*
X042617Y040729D01*
X042470Y040790D01*
X041060Y040790D01*
X040913Y040729D01*
X040801Y040617D01*
X040801Y040617D01*
X040532Y040348D01*
X040425Y040304D01*
X040265Y040144D01*
X040105Y040304D01*
X039884Y040395D01*
X039646Y040395D01*
X039425Y040304D01*
X039265Y040144D01*
X039105Y040304D01*
X038884Y040395D01*
X038646Y040395D01*
X038425Y040304D01*
X038256Y040135D01*
X038198Y039995D01*
X037759Y039995D01*
X037639Y040115D01*
X037141Y040115D01*
X036790Y039764D01*
X036790Y039266D01*
X037141Y038915D01*
X037639Y038915D01*
X037759Y039035D01*
X038198Y039035D01*
X038256Y038895D01*
X038425Y038726D01*
X038573Y038665D01*
X036681Y038665D01*
X035835Y039511D01*
X035835Y039628D01*
X035748Y039838D01*
X035588Y039998D01*
X035378Y040085D01*
X035152Y040085D01*
X034942Y039998D01*
X034782Y039838D01*
X034695Y039628D01*
X034695Y039402D01*
X034782Y039192D01*
X034942Y039032D01*
X035152Y038945D01*
X035269Y038945D01*
X036176Y038038D01*
X036288Y037926D01*
X036435Y037865D01*
X036891Y037865D01*
X036790Y037764D01*
X036790Y037515D01*
X037390Y037515D01*
X037990Y037515D01*
X037990Y037764D01*
X037889Y037865D01*
X038724Y037865D01*
X039355Y037234D01*
X039265Y037144D01*
X039105Y037304D01*
X038884Y037395D01*
X038646Y037395D01*
X038425Y037304D01*
X038256Y037135D01*
X038165Y036915D01*
X036556Y036915D01*
X035835Y037636D01*
X035835Y037753D01*
X035748Y037963D01*
X035588Y038123D01*
X035378Y038210D01*
X035152Y038210D01*
X034942Y038123D01*
X034782Y037963D01*
X034695Y037753D01*
X034695Y037527D01*
X034782Y037317D01*
X034942Y037157D01*
X035152Y037070D01*
X035269Y037070D01*
X036051Y036288D01*
X036163Y036176D01*
X036310Y036115D01*
X038165Y036115D01*
X038256Y035895D01*
X038382Y035770D01*
X038426Y035663D01*
X038538Y035551D01*
X038620Y035469D01*
X038290Y035139D01*
X038290Y034890D01*
X038890Y034890D01*
X038890Y034290D01*
X039139Y034290D01*
X039469Y034620D01*
X039865Y034224D01*
X039865Y034145D01*
X039646Y034145D01*
X039425Y034054D01*
X039258Y033887D01*
X039223Y033936D01*
X039156Y034003D01*
X039079Y034058D01*
X038995Y034101D01*
X038905Y034130D01*
X038812Y034145D01*
X038765Y034145D01*
X038765Y033265D01*
X038765Y033265D01*
X038765Y034145D01*
X038718Y034145D01*
X038624Y034130D01*
X038535Y034101D01*
X038451Y034058D01*
X038374Y034003D01*
X038307Y033936D01*
X038272Y033887D01*
X038105Y034054D01*
X037884Y034145D01*
X037646Y034145D01*
X037464Y034070D01*
X037410Y034561D01*
X037490Y034641D01*
X037490Y035139D01*
X037139Y035490D01*
X036641Y035490D01*
X036290Y035139D01*
X036290Y034641D01*
X036453Y034479D01*
X036535Y033738D01*
X036535Y033670D01*
X036545Y033644D01*
X036548Y033617D01*
X036582Y033557D01*
X036608Y033493D01*
X036627Y033474D01*
X036641Y033450D01*
X036694Y033407D01*
X037108Y032993D01*
X037165Y032936D01*
X037165Y032866D01*
X037196Y032790D01*
X034106Y032790D01*
X034479Y033163D01*
X034540Y033310D01*
X034540Y040595D01*
X034479Y040742D01*
X034367Y040854D01*
X032367Y042854D01*
X032304Y042880D01*
X066502Y042880D01*
X066502Y042123D01*
X066236Y042277D01*
X065926Y042360D01*
X065604Y042360D01*
X065294Y042277D01*
X065016Y042116D01*
X064789Y041889D01*
X064628Y041611D01*
X064545Y041301D01*
X064545Y040979D01*
X060905Y040979D01*
X060905Y040875D02*
X060905Y041120D01*
X060285Y041120D01*
X060285Y041160D01*
X060905Y041160D01*
X060905Y041405D01*
X060530Y041780D01*
X060285Y041780D01*
X060285Y041160D01*
X060245Y041160D01*
X060245Y041780D01*
X060000Y041780D01*
X059765Y041545D01*
X059530Y041780D01*
X059285Y041780D01*
X059285Y041160D01*
X059245Y041160D01*
X059245Y041780D01*
X059000Y041780D01*
X058625Y041405D01*
X058625Y041160D01*
X059245Y041160D01*
X059245Y041120D01*
X058625Y041120D01*
X058625Y040875D01*
X058860Y040640D01*
X058625Y040405D01*
X058625Y040160D01*
X059245Y040160D01*
X059245Y041120D01*
X059285Y041120D01*
X059285Y041160D01*
X060245Y041160D01*
X060245Y041120D01*
X060285Y041120D01*
X060285Y040500D01*
X060285Y040160D01*
X060905Y040160D01*
X060905Y040405D01*
X060670Y040640D01*
X060905Y040875D01*
X060851Y040821D02*
X064588Y040821D01*
X064628Y040669D02*
X064789Y040391D01*
X065016Y040164D01*
X065294Y040003D01*
X065604Y039920D01*
X065926Y039920D01*
X066236Y040003D01*
X066502Y040157D01*
X066502Y028219D01*
X064854Y029867D01*
X064742Y029979D01*
X064595Y030040D01*
X060421Y030040D01*
X060338Y030123D01*
X060128Y030210D01*
X059902Y030210D01*
X059692Y030123D01*
X059532Y029963D01*
X059445Y029753D01*
X059445Y029527D01*
X059532Y029317D01*
X059559Y029290D01*
X055185Y029290D01*
X055038Y029229D01*
X054926Y029117D01*
X052323Y026513D01*
X052365Y026616D01*
X052365Y027414D01*
X052274Y027635D01*
X052105Y027804D01*
X051884Y027895D01*
X051646Y027895D01*
X051425Y027804D01*
X051265Y027644D01*
X051112Y027796D01*
X052492Y029176D01*
X052604Y029288D01*
X052644Y029386D01*
X052646Y029385D01*
X052884Y029385D01*
X053105Y029476D01*
X053265Y029636D01*
X053425Y029476D01*
X053646Y029385D01*
X053884Y029385D01*
X054105Y029476D01*
X054265Y029636D01*
X054425Y029476D01*
X054646Y029385D01*
X054884Y029385D01*
X055105Y029476D01*
X055265Y029636D01*
X055425Y029476D01*
X055646Y029385D01*
X055884Y029385D01*
X056105Y029476D01*
X056272Y029643D01*
X056307Y029594D01*
X056374Y029527D01*
X056451Y029472D01*
X056535Y029429D01*
X056624Y029400D01*
X056718Y029385D01*
X056765Y029385D01*
X056812Y029385D01*
X056905Y029400D01*
X056995Y029429D01*
X057079Y029472D01*
X057156Y029527D01*
X057223Y029594D01*
X057278Y029671D01*
X057321Y029755D01*
X057350Y029844D01*
X057365Y029938D01*
X057365Y030265D01*
X057365Y030592D01*
X057350Y030685D01*
X057321Y030775D01*
X057278Y030859D01*
X057223Y030936D01*
X057156Y031003D01*
X057079Y031058D01*
X056995Y031101D01*
X056905Y031130D01*
X056812Y031145D01*
X056765Y031145D01*
X056765Y030265D01*
X056765Y030265D01*
X057365Y030265D01*
X056765Y030265D01*
X056765Y030265D01*
X056765Y031145D01*
X056718Y031145D01*
X056624Y031130D01*
X056535Y031101D01*
X056451Y031058D01*
X056374Y031003D01*
X056307Y030936D01*
X056272Y030887D01*
X056105Y031054D01*
X055884Y031145D01*
X055646Y031145D01*
X055425Y031054D01*
X055265Y030894D01*
X055105Y031054D01*
X054884Y031145D01*
X054646Y031145D01*
X054425Y031054D01*
X054265Y030894D01*
X054105Y031054D01*
X053884Y031145D01*
X053646Y031145D01*
X053425Y031054D01*
X053265Y030894D01*
X053105Y031054D01*
X052884Y031145D01*
X052665Y031145D01*
X052665Y032345D01*
X052648Y032385D01*
X052884Y032385D01*
X053105Y032476D01*
X053265Y032636D01*
X053425Y032476D01*
X053646Y032385D01*
X053884Y032385D01*
X054105Y032476D01*
X054265Y032636D01*
X054425Y032476D01*
X054646Y032385D01*
X054884Y032385D01*
X055105Y032476D01*
X055265Y032636D01*
X055425Y032476D01*
X055646Y032385D01*
X055884Y032385D01*
X056105Y032476D01*
X056265Y032636D01*
X056425Y032476D01*
X056646Y032385D01*
X056884Y032385D01*
X057105Y032476D01*
X057274Y032645D01*
X057365Y032866D01*
X057365Y033664D01*
X057274Y033885D01*
X057105Y034054D01*
X056884Y034145D01*
X056646Y034145D01*
X056425Y034054D01*
X056265Y033894D01*
X056105Y034054D01*
X055884Y034145D01*
X055646Y034145D01*
X055425Y034054D01*
X055265Y033894D01*
X055105Y034054D01*
X054884Y034145D01*
X054646Y034145D01*
X054425Y034054D01*
X054265Y033894D01*
X054105Y034054D01*
X053884Y034145D01*
X053646Y034145D01*
X053425Y034054D01*
X053265Y033894D01*
X053105Y034054D01*
X052884Y034145D01*
X052826Y034145D01*
X052492Y034479D01*
X052345Y034540D01*
X051060Y034540D01*
X050913Y034479D01*
X050801Y034367D01*
X050532Y034098D01*
X050425Y034054D01*
X050265Y033894D01*
X050245Y033914D01*
X050245Y034521D01*
X050365Y034641D01*
X050365Y035139D01*
X050014Y035490D01*
X049516Y035490D01*
X049165Y035139D01*
X049165Y034641D01*
X049285Y034521D01*
X049285Y033914D01*
X049256Y033885D01*
X049165Y033664D01*
X049165Y032866D01*
X049256Y032645D01*
X049425Y032476D01*
X049646Y032385D01*
X049884Y032385D01*
X050105Y032476D01*
X050265Y032636D01*
X050425Y032476D01*
X050646Y032385D01*
X050884Y032385D01*
X051105Y032476D01*
X051265Y032636D01*
X051425Y032476D01*
X051532Y032432D01*
X051538Y032426D01*
X051865Y032099D01*
X051865Y031137D01*
X051812Y031145D01*
X051765Y031145D01*
X051765Y030265D01*
X051765Y030265D01*
X051765Y031145D01*
X051718Y031145D01*
X051624Y031130D01*
X051535Y031101D01*
X051451Y031058D01*
X051374Y031003D01*
X051307Y030936D01*
X051272Y030887D01*
X051105Y031054D01*
X050884Y031145D01*
X050646Y031145D01*
X050425Y031054D01*
X050258Y030887D01*
X050223Y030936D01*
X050156Y031003D01*
X050079Y031058D01*
X049995Y031101D01*
X049905Y031130D01*
X049812Y031145D01*
X049765Y031145D01*
X049765Y030265D01*
X049765Y030265D01*
X049765Y030265D01*
X049165Y030265D01*
X049165Y030592D01*
X049180Y030685D01*
X049209Y030775D01*
X049252Y030859D01*
X049307Y030936D01*
X049374Y031003D01*
X049451Y031058D01*
X049535Y031101D01*
X049624Y031130D01*
X049718Y031145D01*
X049765Y031145D01*
X049765Y030265D01*
X049165Y030265D01*
X049165Y029938D01*
X049180Y029844D01*
X049209Y029755D01*
X049252Y029671D01*
X049307Y029594D01*
X049361Y029540D01*
X045169Y029540D01*
X045223Y029594D01*
X045278Y029671D01*
X045321Y029755D01*
X045350Y029844D01*
X045365Y029938D01*
X045365Y030265D01*
X045365Y030592D01*
X045350Y030685D01*
X045321Y030775D01*
X045278Y030859D01*
X045223Y030936D01*
X045156Y031003D01*
X045079Y031058D01*
X044995Y031101D01*
X044905Y031130D01*
X044812Y031145D01*
X044765Y031145D01*
X044765Y030265D01*
X044765Y030265D01*
X045365Y030265D01*
X044765Y030265D01*
X044765Y030265D01*
X044765Y031145D01*
X044718Y031145D01*
X044624Y031130D01*
X044535Y031101D01*
X044451Y031058D01*
X044374Y031003D01*
X044307Y030936D01*
X044272Y030887D01*
X044105Y031054D01*
X043884Y031145D01*
X043646Y031145D01*
X043425Y031054D01*
X043265Y030894D01*
X043105Y031054D01*
X042884Y031145D01*
X042646Y031145D01*
X042425Y031054D01*
X042265Y030894D01*
X042165Y030994D02*
X042365Y030994D01*
X043165Y030994D02*
X043365Y030994D01*
X044165Y030994D02*
X044365Y030994D01*
X044765Y030994D02*
X044765Y030994D01*
X044765Y030835D02*
X044765Y030835D01*
X044765Y030677D02*
X044765Y030677D01*
X044765Y030518D02*
X044765Y030518D01*
X044765Y030360D02*
X044765Y030360D01*
X045365Y030360D02*
X049165Y030360D01*
X049165Y030518D02*
X045365Y030518D01*
X045352Y030677D02*
X049178Y030677D01*
X049239Y030835D02*
X045291Y030835D01*
X045165Y030994D02*
X049365Y030994D01*
X049765Y030994D02*
X049765Y030994D01*
X049765Y030835D02*
X049765Y030835D01*
X049765Y030677D02*
X049765Y030677D01*
X049765Y030518D02*
X049765Y030518D01*
X049765Y030360D02*
X049765Y030360D01*
X049165Y030201D02*
X045365Y030201D01*
X045365Y030043D02*
X049165Y030043D01*
X049174Y029884D02*
X045356Y029884D01*
X045306Y029726D02*
X049224Y029726D01*
X049334Y029567D02*
X045196Y029567D01*
X044884Y027895D02*
X044646Y027895D01*
X044425Y027804D01*
X044256Y027635D01*
X044165Y027414D01*
X044165Y026665D01*
X043639Y026665D01*
X043740Y026766D01*
X043740Y027264D01*
X043389Y027615D01*
X042891Y027615D01*
X042540Y027264D01*
X042540Y026766D01*
X042641Y026665D01*
X041639Y026665D01*
X041740Y026766D01*
X041740Y027015D01*
X041740Y027264D01*
X041389Y027615D01*
X041140Y027615D01*
X041140Y027015D01*
X041140Y027015D01*
X041740Y027015D01*
X041140Y027015D01*
X041140Y027015D01*
X041140Y027015D01*
X040540Y027015D01*
X040540Y027264D01*
X040891Y027615D01*
X041140Y027615D01*
X041140Y027015D01*
X040540Y027015D01*
X040540Y026766D01*
X040641Y026665D01*
X037740Y026665D01*
X037740Y027414D01*
X037649Y027635D01*
X037480Y027804D01*
X037373Y027848D01*
X037367Y027854D01*
X036867Y028354D01*
X036840Y028365D01*
X048599Y028365D01*
X048865Y028099D01*
X048865Y027887D01*
X048812Y027895D01*
X048765Y027895D01*
X048765Y027015D01*
X048765Y027015D01*
X048765Y026135D01*
X048812Y026135D01*
X048905Y026150D01*
X048931Y026158D01*
X049049Y026040D01*
X048556Y026040D01*
X048237Y026359D01*
X048272Y026393D01*
X048307Y026344D01*
X048374Y026277D01*
X048451Y026222D01*
X048535Y026179D01*
X048624Y026150D01*
X048718Y026135D01*
X048765Y026135D01*
X048765Y027015D01*
X048765Y027015D01*
X048765Y027895D01*
X048718Y027895D01*
X048624Y027880D01*
X048535Y027851D01*
X048451Y027808D01*
X048374Y027753D01*
X048307Y027686D01*
X048272Y027637D01*
X048105Y027804D01*
X047884Y027895D01*
X047646Y027895D01*
X047425Y027804D01*
X047265Y027644D01*
X047105Y027804D01*
X046884Y027895D01*
X046646Y027895D01*
X046425Y027804D01*
X046265Y027644D01*
X046105Y027804D01*
X045884Y027895D01*
X045646Y027895D01*
X045425Y027804D01*
X045265Y027644D01*
X045105Y027804D01*
X044884Y027895D01*
X045057Y027824D02*
X045473Y027824D01*
X045287Y027665D02*
X045243Y027665D01*
X044473Y027824D02*
X037432Y027824D01*
X037618Y027665D02*
X044287Y027665D01*
X044203Y027507D02*
X043497Y027507D01*
X043655Y027348D02*
X044165Y027348D01*
X044165Y027190D02*
X043740Y027190D01*
X043740Y027031D02*
X044165Y027031D01*
X044165Y026873D02*
X043740Y026873D01*
X043688Y026714D02*
X044165Y026714D01*
X042592Y026714D02*
X041688Y026714D01*
X041740Y026873D02*
X042540Y026873D01*
X042540Y027031D02*
X041740Y027031D01*
X041740Y027190D02*
X042540Y027190D01*
X042625Y027348D02*
X041655Y027348D01*
X041497Y027507D02*
X042783Y027507D01*
X041140Y027507D02*
X041140Y027507D01*
X041140Y027348D02*
X041140Y027348D01*
X041140Y027190D02*
X041140Y027190D01*
X041140Y027031D02*
X041140Y027031D01*
X040783Y027507D02*
X037702Y027507D01*
X037740Y027348D02*
X040625Y027348D01*
X040540Y027190D02*
X037740Y027190D01*
X037740Y027031D02*
X040540Y027031D01*
X040540Y026873D02*
X037740Y026873D01*
X037740Y026714D02*
X040592Y026714D01*
X041765Y025140D02*
X021765Y025140D01*
X021140Y025765D01*
X009640Y025765D01*
X009890Y026140D02*
X008890Y027140D01*
X006765Y027140D01*
X006385Y027665D02*
X006145Y027665D01*
X005385Y027665D02*
X004270Y027665D01*
X004270Y027507D02*
X005226Y027507D01*
X005125Y027348D02*
X004270Y027348D01*
X004270Y027190D02*
X005125Y027190D01*
X005125Y027031D02*
X004270Y027031D01*
X004270Y026873D02*
X005127Y026873D01*
X005286Y026714D02*
X004270Y026714D01*
X004270Y026556D02*
X005275Y026556D01*
X005125Y026397D02*
X004270Y026397D01*
X004270Y026239D02*
X005125Y026239D01*
X005125Y026080D02*
X004270Y026080D01*
X004270Y025922D02*
X005125Y025922D01*
X005237Y025763D02*
X004270Y025763D01*
X004270Y025605D02*
X005324Y025605D01*
X005166Y025446D02*
X004270Y025446D01*
X004270Y025288D02*
X005125Y025288D01*
X005125Y025129D02*
X004270Y025129D01*
X004270Y024971D02*
X005125Y024971D01*
X005188Y024812D02*
X004270Y024812D01*
X004270Y024654D02*
X005346Y024654D01*
X005215Y024495D02*
X004270Y024495D01*
X004270Y024337D02*
X005125Y024337D01*
X005125Y024178D02*
X004270Y024178D01*
X004270Y024020D02*
X005125Y024020D01*
X005139Y023861D02*
X004270Y023861D01*
X004270Y023703D02*
X005297Y023703D01*
X005264Y023544D02*
X004270Y023544D01*
X004270Y023386D02*
X005125Y023386D01*
X005125Y023227D02*
X004270Y023227D01*
X004270Y023069D02*
X005125Y023069D01*
X005125Y022910D02*
X004270Y022910D01*
X004270Y022752D02*
X005248Y022752D01*
X009890Y026140D02*
X021390Y026140D01*
X022015Y025515D01*
X043015Y025515D01*
X043140Y025390D01*
X042015Y024890D02*
X041765Y025140D01*
X042015Y024890D02*
X045890Y024890D01*
X046265Y024515D01*
X046265Y023390D01*
X047015Y022640D01*
X051515Y022640D01*
X052265Y023140D02*
X047515Y023140D01*
X047265Y023390D01*
X047265Y024515D01*
X045890Y025890D01*
X023515Y025890D01*
X022890Y026515D01*
X022890Y027015D01*
X021290Y027015D02*
X020890Y027015D01*
X021290Y027015D01*
X021290Y027015D01*
X020890Y027015D02*
X020890Y027015D01*
X020890Y027490D01*
X020890Y027490D01*
X020890Y027015D01*
X020890Y027015D01*
X020890Y026540D01*
X020890Y026540D01*
X020890Y027015D01*
X020890Y027015D01*
X020890Y027015D01*
X020290Y027015D01*
X020290Y027342D01*
X020305Y027435D01*
X020322Y027490D01*
X018407Y027490D01*
X018490Y027289D01*
X018490Y026540D01*
X020322Y026540D01*
X020305Y026594D01*
X020290Y026688D01*
X020290Y027015D01*
X020890Y027015D01*
X020890Y027031D02*
X020890Y027031D01*
X020890Y026873D02*
X020890Y026873D01*
X020890Y026714D02*
X020890Y026714D01*
X020890Y026556D02*
X020890Y026556D01*
X020317Y026556D02*
X018490Y026556D01*
X018490Y026714D02*
X020290Y026714D01*
X020290Y026873D02*
X018490Y026873D01*
X018490Y027031D02*
X020290Y027031D01*
X020290Y027190D02*
X018490Y027190D01*
X018466Y027348D02*
X020291Y027348D01*
X020890Y027348D02*
X020890Y027348D01*
X020890Y027190D02*
X020890Y027190D01*
X021052Y025288D02*
X020118Y025288D01*
X020332Y025129D02*
X021210Y025129D01*
X021369Y024971D02*
X020422Y024971D01*
X020460Y024812D02*
X020570Y024812D01*
X021210Y024812D02*
X021527Y024812D01*
X021400Y024654D02*
X021380Y024654D01*
X021890Y024015D02*
X021890Y023265D01*
X021390Y022765D01*
X020140Y022765D01*
X019265Y021890D01*
X019265Y013890D01*
X018515Y013140D01*
X017765Y013140D01*
X016890Y013140D01*
X015890Y012140D01*
X015890Y010640D01*
X016290Y011046D02*
X016290Y011974D01*
X017046Y012730D01*
X017136Y012640D01*
X016976Y012480D01*
X016885Y012259D01*
X016885Y012021D01*
X016976Y011800D01*
X017136Y011640D01*
X016976Y011480D01*
X016885Y011259D01*
X016885Y011021D01*
X016976Y010800D01*
X017143Y010633D01*
X017094Y010598D01*
X017027Y010531D01*
X016972Y010454D01*
X016929Y010370D01*
X016900Y010280D01*
X016885Y010187D01*
X016885Y010140D01*
X017765Y010140D01*
X017765Y010140D01*
X017765Y010540D01*
X017765Y010540D01*
X017765Y010140D01*
X018645Y010140D01*
X018645Y010187D01*
X018630Y010280D01*
X018601Y010370D01*
X018558Y010454D01*
X018503Y010531D01*
X018436Y010598D01*
X018387Y010633D01*
X018494Y010740D01*
X018595Y010740D01*
X018742Y010801D01*
X019907Y011967D01*
X019976Y011800D01*
X020136Y011640D01*
X019976Y011480D01*
X019885Y011259D01*
X019885Y011021D01*
X019886Y011019D01*
X019788Y010979D01*
X019676Y010867D01*
X019051Y010242D01*
X018990Y010095D01*
X018990Y009835D01*
X018777Y009835D01*
X018567Y009748D01*
X018407Y009588D01*
X018320Y009378D01*
X018320Y009261D01*
X017603Y008544D01*
X017503Y008585D01*
X017277Y008585D01*
X017067Y008498D01*
X016907Y008338D01*
X016890Y008297D01*
X016873Y008338D01*
X016790Y008421D01*
X016790Y008859D01*
X016873Y008942D01*
X016960Y009152D01*
X016960Y009378D01*
X016873Y009588D01*
X016713Y009748D01*
X016503Y009835D01*
X016277Y009835D01*
X016067Y009748D01*
X015907Y009588D01*
X015820Y009378D01*
X015820Y009152D01*
X015907Y008942D01*
X015990Y008859D01*
X015990Y008421D01*
X015907Y008338D01*
X015820Y008128D01*
X015820Y007902D01*
X015870Y007780D01*
X015790Y007780D01*
X015790Y010070D01*
X016003Y010070D01*
X016213Y010157D01*
X016373Y010317D01*
X016460Y010527D01*
X016460Y010753D01*
X016373Y010963D01*
X016290Y011046D01*
X016314Y011023D02*
X016885Y011023D01*
X016885Y011181D02*
X016290Y011181D01*
X016290Y011340D02*
X016918Y011340D01*
X016994Y011498D02*
X016290Y011498D01*
X016290Y011657D02*
X017120Y011657D01*
X016970Y011815D02*
X016290Y011815D01*
X016290Y011974D02*
X016905Y011974D01*
X016885Y012132D02*
X016448Y012132D01*
X016606Y012291D02*
X016898Y012291D01*
X016964Y012449D02*
X016765Y012449D01*
X016923Y012608D02*
X017104Y012608D01*
X017765Y012140D02*
X018515Y012140D01*
X019640Y013265D01*
X019640Y018140D01*
X020140Y018640D01*
X022515Y018640D01*
X023015Y019140D01*
X023015Y020140D01*
X024890Y022015D01*
X030890Y022015D01*
X031140Y022265D01*
X031390Y021640D02*
X031765Y022015D01*
X031390Y021640D02*
X025140Y021640D01*
X023390Y019890D01*
X023390Y018140D01*
X022890Y017640D01*
X020265Y017640D01*
X020015Y017390D01*
X020015Y012640D01*
X018515Y011140D01*
X017765Y011140D01*
X017765Y010389D02*
X017765Y010389D01*
X017765Y010230D02*
X017765Y010230D01*
X017765Y010140D02*
X017765Y010140D01*
X018645Y010140D01*
X018645Y010093D01*
X018630Y009999D01*
X018601Y009910D01*
X018558Y009826D01*
X018503Y009749D01*
X018436Y009682D01*
X018359Y009627D01*
X018275Y009584D01*
X018185Y009555D01*
X018092Y009540D01*
X017765Y009540D01*
X017765Y010140D01*
X017765Y010140D01*
X017765Y010140D01*
X017765Y009540D01*
X017438Y009540D01*
X017344Y009555D01*
X017255Y009584D01*
X017171Y009627D01*
X017094Y009682D01*
X017027Y009749D01*
X016972Y009826D01*
X016929Y009910D01*
X016900Y009999D01*
X016885Y010093D01*
X016885Y010140D01*
X017765Y010140D01*
X017765Y010072D02*
X017765Y010072D01*
X017765Y009913D02*
X017765Y009913D01*
X017765Y009755D02*
X017765Y009755D01*
X017765Y009596D02*
X017765Y009596D01*
X018299Y009596D02*
X018415Y009596D01*
X018344Y009438D02*
X016936Y009438D01*
X016960Y009279D02*
X018320Y009279D01*
X018180Y009121D02*
X016947Y009121D01*
X016881Y008962D02*
X018021Y008962D01*
X017863Y008804D02*
X016790Y008804D01*
X016790Y008645D02*
X017704Y008645D01*
X017055Y008487D02*
X016790Y008487D01*
X016877Y008328D02*
X016903Y008328D01*
X017390Y008015D02*
X017640Y008015D01*
X018890Y009265D01*
X018582Y009755D02*
X018507Y009755D01*
X018602Y009913D02*
X018990Y009913D01*
X018990Y010072D02*
X018642Y010072D01*
X018638Y010230D02*
X019046Y010230D01*
X019198Y010389D02*
X018592Y010389D01*
X018487Y010547D02*
X019356Y010547D01*
X019515Y010706D02*
X018459Y010706D01*
X018805Y010864D02*
X019673Y010864D01*
X019885Y011023D02*
X018963Y011023D01*
X019122Y011181D02*
X019885Y011181D01*
X019918Y011340D02*
X019280Y011340D01*
X019439Y011498D02*
X019994Y011498D01*
X020120Y011657D02*
X019597Y011657D01*
X019756Y011815D02*
X019970Y011815D01*
X021640Y012515D02*
X021640Y015890D01*
X023765Y018015D01*
X023765Y019765D01*
X025265Y021265D01*
X031890Y021265D01*
X032890Y022265D01*
X044765Y022265D01*
X045765Y023265D01*
X045765Y024015D01*
X045258Y023393D02*
X045293Y023359D01*
X044599Y022665D01*
X039460Y022665D01*
X039460Y022865D01*
X041609Y022865D01*
X041692Y022782D01*
X041902Y022695D01*
X042128Y022695D01*
X042338Y022782D01*
X042498Y022942D01*
X042585Y023152D01*
X042585Y023378D01*
X042498Y023588D01*
X042338Y023748D01*
X042128Y023835D01*
X041902Y023835D01*
X041692Y023748D01*
X041609Y023665D01*
X041389Y023665D01*
X041490Y023766D01*
X041490Y024015D01*
X041490Y024264D01*
X041139Y024615D01*
X040890Y024615D01*
X040890Y024015D01*
X041490Y024015D01*
X040890Y024015D01*
X040890Y024015D01*
X040890Y024015D01*
X040890Y024015D01*
X040290Y024015D01*
X040290Y024264D01*
X040641Y024615D01*
X040890Y024615D01*
X040890Y024015D01*
X040290Y024015D01*
X040290Y023766D01*
X040391Y023665D01*
X039389Y023665D01*
X039490Y023766D01*
X039490Y024264D01*
X039139Y024615D01*
X038641Y024615D01*
X038521Y024495D01*
X037707Y024495D01*
X037649Y024635D01*
X037544Y024740D01*
X041599Y024740D01*
X041788Y024551D01*
X041935Y024490D01*
X044197Y024490D01*
X044180Y024435D01*
X044165Y024342D01*
X044165Y024015D01*
X044765Y024015D01*
X044765Y023135D01*
X044812Y023135D01*
X044905Y023150D01*
X044995Y023179D01*
X045079Y023222D01*
X045156Y023277D01*
X045223Y023344D01*
X045258Y023393D01*
X045253Y023386D02*
X045266Y023386D01*
X045161Y023227D02*
X045087Y023227D01*
X045003Y023069D02*
X042551Y023069D01*
X042585Y023227D02*
X044443Y023227D01*
X044451Y023222D02*
X044535Y023179D01*
X044624Y023150D01*
X044718Y023135D01*
X044765Y023135D01*
X044765Y024015D01*
X044765Y024015D01*
X044765Y024015D01*
X044165Y024015D01*
X044165Y023688D01*
X044180Y023594D01*
X044209Y023505D01*
X044252Y023421D01*
X044307Y023344D01*
X044374Y023277D01*
X044451Y023222D01*
X044277Y023386D02*
X042582Y023386D01*
X042516Y023544D02*
X044196Y023544D01*
X044165Y023703D02*
X042384Y023703D01*
X042015Y023265D02*
X031890Y023265D01*
X031640Y023515D01*
X031640Y024515D01*
X031390Y024765D01*
X024265Y024765D01*
X023890Y024390D01*
X023890Y024015D01*
X022890Y024015D02*
X022890Y023140D01*
X023089Y022660D02*
X026165Y022660D01*
X026165Y022515D01*
X026765Y022515D01*
X027365Y022515D01*
X027365Y022660D01*
X028165Y022660D01*
X028165Y022415D01*
X027365Y022415D01*
X027365Y022515D01*
X026765Y022515D01*
X026765Y022515D01*
X026765Y022515D01*
X026165Y022515D01*
X026165Y022415D01*
X024810Y022415D01*
X024663Y022354D01*
X022676Y020367D01*
X022615Y020220D01*
X022615Y019306D01*
X022349Y019040D01*
X021645Y019040D01*
X021645Y019259D01*
X021554Y019480D01*
X021385Y019649D01*
X021245Y019707D01*
X021245Y019985D01*
X021172Y020162D01*
X021037Y020297D01*
X020740Y020594D01*
X020740Y020764D01*
X020620Y020884D01*
X020620Y021410D01*
X021735Y021410D01*
X021912Y021483D01*
X023089Y022660D01*
X023022Y022593D02*
X026165Y022593D01*
X026165Y022435D02*
X022863Y022435D01*
X022705Y022276D02*
X024585Y022276D01*
X024427Y022118D02*
X022546Y022118D01*
X022388Y021959D02*
X024268Y021959D01*
X024110Y021801D02*
X022229Y021801D01*
X022071Y021642D02*
X023951Y021642D01*
X023793Y021484D02*
X021912Y021484D01*
X020620Y021325D02*
X023634Y021325D01*
X023476Y021167D02*
X020620Y021167D01*
X020620Y021008D02*
X023317Y021008D01*
X023159Y020850D02*
X020654Y020850D01*
X020740Y020691D02*
X023000Y020691D01*
X022842Y020533D02*
X020801Y020533D01*
X020960Y020374D02*
X022683Y020374D01*
X022615Y020216D02*
X021118Y020216D01*
X021215Y020057D02*
X022615Y020057D01*
X022615Y019899D02*
X021245Y019899D01*
X021245Y019740D02*
X022615Y019740D01*
X022615Y019582D02*
X021452Y019582D01*
X021577Y019423D02*
X022615Y019423D01*
X022574Y019265D02*
X021643Y019265D01*
X021645Y019106D02*
X022415Y019106D01*
X024140Y019640D02*
X024140Y015515D01*
X025515Y014140D01*
X026140Y014140D01*
X025518Y013633D02*
X025395Y013757D01*
X025288Y013801D01*
X025176Y013913D01*
X024040Y015049D01*
X024040Y013806D01*
X024492Y013354D01*
X024604Y013242D01*
X024665Y013095D01*
X024665Y011664D01*
X024777Y011710D01*
X025003Y011710D01*
X025213Y011623D01*
X025361Y011475D01*
X025402Y011531D01*
X025469Y011598D01*
X025527Y011640D01*
X025469Y011682D01*
X025402Y011749D01*
X025347Y011826D01*
X025304Y011910D01*
X025275Y011999D01*
X025260Y012093D01*
X025260Y012140D01*
X026140Y012140D01*
X027020Y012140D01*
X027020Y012187D01*
X027005Y012280D01*
X026976Y012370D01*
X026933Y012454D01*
X026878Y012531D01*
X026811Y012598D01*
X026753Y012640D01*
X026811Y012682D01*
X026878Y012749D01*
X026933Y012826D01*
X026976Y012910D01*
X027005Y012999D01*
X027020Y013093D01*
X027020Y013140D01*
X027020Y013187D01*
X027005Y013280D01*
X026976Y013370D01*
X026933Y013454D01*
X026878Y013531D01*
X026811Y013598D01*
X026762Y013633D01*
X026929Y013800D01*
X027020Y014021D01*
X027020Y014259D01*
X026929Y014480D01*
X026769Y014640D01*
X026929Y014800D01*
X027020Y015021D01*
X027020Y015259D01*
X026929Y015480D01*
X026769Y015640D01*
X026929Y015800D01*
X027020Y016021D01*
X027020Y016259D01*
X026929Y016480D01*
X026769Y016640D01*
X026929Y016800D01*
X027020Y017021D01*
X027020Y017259D01*
X026929Y017480D01*
X026762Y017647D01*
X026811Y017682D01*
X026878Y017749D01*
X026933Y017826D01*
X026976Y017910D01*
X027005Y017999D01*
X027020Y018093D01*
X027020Y018140D01*
X027020Y018187D01*
X027019Y018196D01*
X027413Y017801D01*
X027560Y017740D01*
X027720Y017740D01*
X028411Y017740D01*
X028511Y017640D01*
X028351Y017480D01*
X028260Y017259D01*
X028260Y017021D01*
X028351Y016800D01*
X028511Y016640D01*
X028351Y016480D01*
X028260Y016259D01*
X028260Y016021D01*
X028351Y015800D01*
X028511Y015640D01*
X028351Y015480D01*
X028260Y015259D01*
X028260Y015021D01*
X028351Y014800D01*
X028511Y014640D01*
X028351Y014480D01*
X028260Y014259D01*
X028260Y014021D01*
X028351Y013800D01*
X028511Y013640D01*
X028351Y013480D01*
X028260Y013259D01*
X028260Y013021D01*
X028351Y012800D01*
X028511Y012640D01*
X028351Y012480D01*
X028260Y012259D01*
X028260Y012021D01*
X028351Y011800D01*
X028511Y011640D01*
X028351Y011480D01*
X028260Y011259D01*
X028260Y011021D01*
X028351Y010800D01*
X028511Y010640D01*
X028351Y010480D01*
X028260Y010259D01*
X028260Y010021D01*
X028304Y009915D01*
X026978Y009915D01*
X027005Y009999D01*
X027020Y010093D01*
X027020Y010140D01*
X027020Y010187D01*
X027005Y010280D01*
X026976Y010370D01*
X026933Y010454D01*
X026878Y010531D01*
X026811Y010598D01*
X026753Y010640D01*
X026811Y010682D01*
X026878Y010749D01*
X026933Y010826D01*
X026976Y010910D01*
X027005Y010999D01*
X027020Y011093D01*
X027020Y011140D01*
X027020Y011187D01*
X027005Y011280D01*
X026976Y011370D01*
X026933Y011454D01*
X026878Y011531D01*
X026811Y011598D01*
X026753Y011640D01*
X026811Y011682D01*
X026878Y011749D01*
X026933Y011826D01*
X026976Y011910D01*
X027005Y011999D01*
X027020Y012093D01*
X027020Y012140D01*
X026140Y012140D01*
X026140Y012140D01*
X026140Y012140D01*
X026140Y013140D01*
X027020Y013140D01*
X026140Y013140D01*
X026140Y013140D01*
X026140Y013140D01*
X025260Y013140D01*
X025260Y013187D01*
X025275Y013280D01*
X025304Y013370D01*
X025347Y013454D01*
X025402Y013531D01*
X025469Y013598D01*
X025518Y013633D01*
X025430Y013559D02*
X024287Y013559D01*
X024129Y013717D02*
X025434Y013717D01*
X025214Y013876D02*
X024040Y013876D01*
X024040Y014034D02*
X025055Y014034D01*
X024897Y014193D02*
X024040Y014193D01*
X024040Y014351D02*
X024738Y014351D01*
X024580Y014510D02*
X024040Y014510D01*
X024040Y014668D02*
X024421Y014668D01*
X024263Y014827D02*
X024040Y014827D01*
X024040Y014985D02*
X024104Y014985D01*
X023140Y015640D02*
X023140Y013640D01*
X023890Y012890D01*
X023890Y009765D01*
X024890Y008765D01*
X051265Y008765D01*
X052390Y007640D01*
X052390Y006640D01*
X052890Y006140D01*
X053390Y006640D02*
X053890Y006140D01*
X054351Y006585D02*
X056519Y006585D01*
X056677Y006743D02*
X054398Y006743D01*
X054295Y006640D02*
X054530Y006875D01*
X054530Y007405D01*
X054155Y007780D01*
X053790Y007780D01*
X053790Y007970D01*
X053729Y008117D01*
X053617Y008229D01*
X052708Y009137D01*
X054848Y009117D01*
X054990Y008974D01*
X054990Y008421D01*
X054907Y008338D01*
X054820Y008128D01*
X054820Y007902D01*
X054907Y007692D01*
X055067Y007532D01*
X055277Y007445D01*
X055503Y007445D01*
X055713Y007532D01*
X055873Y007692D01*
X055960Y007902D01*
X055960Y008128D01*
X055873Y008338D01*
X055790Y008421D01*
X055790Y009220D01*
X055729Y009367D01*
X055299Y009796D01*
X055245Y009852D01*
X055243Y009853D01*
X055242Y009854D01*
X055170Y009884D01*
X055098Y009914D01*
X055096Y009914D01*
X055095Y009915D01*
X055017Y009915D01*
X042307Y010038D01*
X041979Y010367D01*
X041867Y010479D01*
X041720Y010540D01*
X041221Y010540D01*
X041248Y010567D01*
X041335Y010777D01*
X041335Y010894D01*
X042181Y011740D01*
X042516Y011740D01*
X042290Y011514D01*
X042290Y011016D01*
X042641Y010665D01*
X043139Y010665D01*
X043490Y011016D01*
X043490Y011514D01*
X043264Y011740D01*
X044516Y011740D01*
X044290Y011514D01*
X044290Y011265D01*
X044890Y011265D01*
X044890Y011265D01*
X044890Y011865D01*
X045139Y011865D01*
X045490Y011514D01*
X045490Y011265D01*
X044890Y011265D01*
X044890Y011265D01*
X044890Y011865D01*
X044806Y011865D01*
X045135Y012194D01*
X045135Y012021D01*
X045226Y011800D01*
X045395Y011631D01*
X045535Y011573D01*
X045535Y011134D01*
X045490Y011089D01*
X045490Y011265D01*
X044890Y011265D01*
X044890Y010665D01*
X045139Y010665D01*
X045415Y010941D01*
X045415Y010516D01*
X045766Y010165D01*
X046264Y010165D01*
X046615Y010516D01*
X046615Y011014D01*
X046495Y011134D01*
X046495Y011573D01*
X046635Y011631D01*
X046804Y011800D01*
X046895Y012021D01*
X046895Y012259D01*
X046804Y012480D01*
X046644Y012640D01*
X046804Y012800D01*
X046895Y013021D01*
X046895Y013194D01*
X047240Y012849D01*
X047240Y012310D01*
X047301Y012163D01*
X047413Y012051D01*
X048099Y011365D01*
X048015Y011365D01*
X048015Y010765D01*
X048615Y010765D01*
X048615Y011014D01*
X048389Y011240D01*
X050220Y011240D01*
X050367Y011301D01*
X050479Y011413D01*
X051135Y012069D01*
X051135Y012021D01*
X051226Y011800D01*
X051395Y011631D01*
X051535Y011573D01*
X051535Y011009D01*
X051415Y010889D01*
X051415Y010391D01*
X051766Y010040D01*
X052264Y010040D01*
X052615Y010391D01*
X052615Y010889D01*
X052495Y011009D01*
X052495Y011573D01*
X052635Y011631D01*
X052804Y011800D01*
X052836Y011878D01*
X053301Y011413D01*
X053413Y011301D01*
X053560Y011240D01*
X058625Y011240D01*
X058625Y010875D01*
X058860Y010640D01*
X058625Y010405D01*
X058625Y009875D01*
X059000Y009500D01*
X059530Y009500D01*
X059765Y009735D01*
X060000Y009500D01*
X060530Y009500D01*
X060905Y009875D01*
X060905Y010405D01*
X060670Y010640D01*
X060905Y010875D01*
X060905Y011240D01*
X062984Y011240D01*
X063067Y011157D01*
X063277Y011070D01*
X063379Y011070D01*
X061599Y009290D01*
X059310Y009290D01*
X059163Y009229D01*
X059051Y009117D01*
X055849Y005915D01*
X054530Y005915D01*
X054530Y006405D01*
X054295Y006640D01*
X054509Y006426D02*
X056360Y006426D01*
X056202Y006268D02*
X054530Y006268D01*
X054530Y006109D02*
X056043Y006109D01*
X055885Y005951D02*
X054530Y005951D01*
X054530Y006902D02*
X056836Y006902D01*
X056994Y007060D02*
X054530Y007060D01*
X054530Y007219D02*
X057153Y007219D01*
X057311Y007377D02*
X054530Y007377D01*
X054400Y007536D02*
X055063Y007536D01*
X054906Y007694D02*
X054241Y007694D01*
X053790Y007853D02*
X054840Y007853D01*
X054820Y008011D02*
X053773Y008011D01*
X053676Y008170D02*
X054837Y008170D01*
X054903Y008328D02*
X053518Y008328D01*
X053359Y008487D02*
X054990Y008487D01*
X054990Y008645D02*
X053201Y008645D01*
X053042Y008804D02*
X054990Y008804D01*
X054990Y008962D02*
X052884Y008962D01*
X052725Y009121D02*
X054446Y009121D01*
X055015Y009515D02*
X042140Y009640D01*
X041640Y010140D01*
X039890Y010140D01*
X037265Y012765D01*
X031765Y012765D01*
X031195Y012766D02*
X029895Y012766D01*
X029929Y012800D02*
X030020Y013021D01*
X030020Y013259D01*
X029929Y013480D01*
X029769Y013640D01*
X029929Y013800D01*
X030020Y014021D01*
X030020Y014259D01*
X029929Y014480D01*
X029769Y014640D01*
X029929Y014800D01*
X030020Y015021D01*
X030020Y015259D01*
X029929Y015480D01*
X029769Y015640D01*
X029929Y015800D01*
X030020Y016021D01*
X030020Y016259D01*
X029929Y016480D01*
X029769Y016640D01*
X029929Y016800D01*
X030020Y017021D01*
X030020Y017259D01*
X029929Y017480D01*
X029769Y017640D01*
X029929Y017800D01*
X030020Y018021D01*
X030020Y018259D01*
X029929Y018480D01*
X029769Y018640D01*
X029929Y018800D01*
X030020Y019021D01*
X030020Y019259D01*
X029976Y019365D01*
X032470Y019365D01*
X032617Y019426D01*
X032729Y019538D01*
X033556Y020365D01*
X062099Y020365D01*
X063288Y019176D01*
X063435Y019115D01*
X063440Y019115D01*
X063582Y018972D01*
X063818Y018875D01*
X064712Y018875D01*
X064948Y018972D01*
X065128Y019152D01*
X065225Y019388D01*
X065225Y019642D01*
X065128Y019878D01*
X064990Y020015D01*
X065128Y020152D01*
X065225Y020388D01*
X065225Y020642D01*
X065128Y020878D01*
X064990Y021015D01*
X065128Y021152D01*
X065225Y021388D01*
X065225Y021642D01*
X065240Y021642D01*
X065225Y021642D02*
X065128Y021878D01*
X064990Y022015D01*
X065128Y022152D01*
X065182Y022283D01*
X065240Y022224D01*
X065240Y012931D01*
X063960Y011651D01*
X063960Y011753D01*
X063873Y011963D01*
X063713Y012123D01*
X063503Y012210D01*
X063277Y012210D01*
X063067Y012123D01*
X062984Y012040D01*
X060905Y012040D01*
X060905Y012405D01*
X060670Y012640D01*
X060905Y012875D01*
X060905Y013405D01*
X060670Y013640D01*
X060905Y013875D01*
X060905Y014405D01*
X060670Y014640D01*
X060905Y014875D01*
X060905Y015405D01*
X060670Y015640D01*
X060905Y015875D01*
X060905Y016405D01*
X060670Y016640D01*
X060905Y016875D01*
X060905Y017405D01*
X060530Y017780D01*
X060000Y017780D01*
X059765Y017545D01*
X059530Y017780D01*
X059000Y017780D01*
X058625Y017405D01*
X058625Y016875D01*
X058860Y016640D01*
X058625Y016405D01*
X058625Y015875D01*
X058860Y015640D01*
X058625Y015405D01*
X058625Y014875D01*
X058860Y014640D01*
X058625Y014405D01*
X058625Y013875D01*
X058860Y013640D01*
X058625Y013405D01*
X058625Y012875D01*
X058860Y012640D01*
X058625Y012405D01*
X058625Y012040D01*
X055895Y012040D01*
X055895Y012259D01*
X055804Y012480D01*
X055637Y012647D01*
X055686Y012682D01*
X055753Y012749D01*
X055808Y012826D01*
X055851Y012910D01*
X055880Y012999D01*
X055895Y013093D01*
X055895Y013140D01*
X055895Y013187D01*
X055880Y013280D01*
X055851Y013370D01*
X055808Y013454D01*
X055753Y013531D01*
X055686Y013598D01*
X055637Y013633D01*
X055804Y013800D01*
X055895Y014021D01*
X055895Y014259D01*
X055804Y014480D01*
X055637Y014647D01*
X055686Y014682D01*
X055753Y014749D01*
X055808Y014826D01*
X055851Y014910D01*
X055880Y014999D01*
X055895Y015093D01*
X055895Y015140D01*
X055895Y015187D01*
X055880Y015280D01*
X055851Y015370D01*
X055808Y015454D01*
X055753Y015531D01*
X055686Y015598D01*
X055637Y015633D01*
X055804Y015800D01*
X055895Y016021D01*
X055895Y016259D01*
X055804Y016480D01*
X055644Y016640D01*
X055804Y016800D01*
X055895Y017021D01*
X055895Y017259D01*
X055804Y017480D01*
X055637Y017647D01*
X055686Y017682D01*
X055753Y017749D01*
X055808Y017826D01*
X055851Y017910D01*
X055880Y017999D01*
X055895Y018093D01*
X055895Y018140D01*
X055895Y018187D01*
X055880Y018280D01*
X055851Y018370D01*
X055808Y018454D01*
X055753Y018531D01*
X055686Y018598D01*
X055628Y018640D01*
X055686Y018682D01*
X055753Y018749D01*
X055808Y018826D01*
X055851Y018910D01*
X055880Y018999D01*
X055895Y019093D01*
X055895Y019140D01*
X055895Y019187D01*
X055880Y019280D01*
X055851Y019370D01*
X055808Y019454D01*
X055753Y019531D01*
X055686Y019598D01*
X055609Y019653D01*
X055525Y019696D01*
X055435Y019725D01*
X055342Y019740D01*
X055015Y019740D01*
X055015Y019140D01*
X055015Y019140D01*
X055895Y019140D01*
X055015Y019140D01*
X055015Y019140D01*
X055015Y018540D01*
X055015Y018140D01*
X055015Y018140D01*
X055895Y018140D01*
X055015Y018140D01*
X055015Y018140D01*
X055015Y019140D01*
X055015Y019140D01*
X055015Y019140D01*
X054135Y019140D01*
X054135Y019187D01*
X054150Y019280D01*
X054179Y019370D01*
X054222Y019454D01*
X054277Y019531D01*
X054344Y019598D01*
X054421Y019653D01*
X054505Y019696D01*
X054594Y019725D01*
X054688Y019740D01*
X055015Y019740D01*
X055015Y019140D01*
X054135Y019140D01*
X054135Y019093D01*
X054150Y018999D01*
X054179Y018910D01*
X054222Y018826D01*
X054277Y018749D01*
X054344Y018682D01*
X054402Y018640D01*
X054344Y018598D01*
X054277Y018531D01*
X054222Y018454D01*
X054179Y018370D01*
X054150Y018280D01*
X054135Y018187D01*
X054135Y018140D01*
X055015Y018140D01*
X055015Y018140D01*
X054135Y018140D01*
X054135Y018093D01*
X054150Y017999D01*
X054179Y017910D01*
X054222Y017826D01*
X054277Y017749D01*
X054344Y017682D01*
X054393Y017647D01*
X054226Y017480D01*
X054135Y017259D01*
X054135Y017021D01*
X054226Y016800D01*
X054386Y016640D01*
X054226Y016480D01*
X054135Y016259D01*
X054135Y016021D01*
X054226Y015800D01*
X054393Y015633D01*
X054344Y015598D01*
X054277Y015531D01*
X054222Y015454D01*
X054179Y015370D01*
X054150Y015280D01*
X054135Y015187D01*
X054135Y015140D01*
X055015Y015140D01*
X055895Y015140D01*
X055015Y015140D01*
X055015Y015140D01*
X055015Y015140D01*
X054135Y015140D01*
X054135Y015093D01*
X054150Y014999D01*
X054179Y014910D01*
X054222Y014826D01*
X054277Y014749D01*
X054344Y014682D01*
X054393Y014647D01*
X054286Y014540D01*
X053806Y014540D01*
X052979Y015367D01*
X052867Y015479D01*
X052760Y015523D01*
X052637Y015647D01*
X052686Y015682D01*
X052753Y015749D01*
X052808Y015826D01*
X052851Y015910D01*
X052880Y015999D01*
X052895Y016093D01*
X052895Y016140D01*
X052895Y016187D01*
X052880Y016280D01*
X052851Y016370D01*
X052808Y016454D01*
X052753Y016531D01*
X052686Y016598D01*
X052637Y016633D01*
X052804Y016800D01*
X052895Y017021D01*
X052895Y017259D01*
X052804Y017480D01*
X052644Y017640D01*
X052804Y017800D01*
X052895Y018021D01*
X052895Y018259D01*
X052804Y018480D01*
X052644Y018640D01*
X052804Y018800D01*
X052895Y019021D01*
X052895Y019259D01*
X052804Y019480D01*
X052635Y019649D01*
X052414Y019740D01*
X051616Y019740D01*
X051395Y019649D01*
X051226Y019480D01*
X051135Y019259D01*
X051135Y019021D01*
X051226Y018800D01*
X051386Y018640D01*
X051286Y018540D01*
X051181Y018540D01*
X050854Y018867D01*
X050742Y018979D01*
X050595Y019040D01*
X049887Y019040D01*
X049895Y019093D01*
X049895Y019140D01*
X049895Y019187D01*
X049880Y019280D01*
X049851Y019370D01*
X049808Y019454D01*
X049753Y019531D01*
X049686Y019598D01*
X049609Y019653D01*
X049525Y019696D01*
X049435Y019725D01*
X049342Y019740D01*
X049015Y019740D01*
X049015Y019140D01*
X049015Y019140D01*
X049895Y019140D01*
X049015Y019140D01*
X049015Y019140D01*
X049015Y019040D01*
X049015Y019040D01*
X049015Y019140D01*
X049015Y019140D01*
X049015Y019140D01*
X048135Y019140D01*
X048135Y019187D01*
X048150Y019280D01*
X048179Y019370D01*
X048222Y019454D01*
X048277Y019531D01*
X048344Y019598D01*
X048421Y019653D01*
X048505Y019696D01*
X048594Y019725D01*
X048688Y019740D01*
X049015Y019740D01*
X049015Y019140D01*
X048135Y019140D01*
X048135Y019093D01*
X048143Y019040D01*
X046895Y019040D01*
X046895Y019259D01*
X046804Y019480D01*
X046635Y019649D01*
X046414Y019740D01*
X045616Y019740D01*
X045395Y019649D01*
X045226Y019480D01*
X045135Y019259D01*
X045135Y019040D01*
X043762Y019040D01*
X043770Y019093D01*
X043770Y019140D01*
X043770Y019187D01*
X043755Y019280D01*
X043726Y019370D01*
X043683Y019454D01*
X043628Y019531D01*
X043561Y019598D01*
X043484Y019653D01*
X043400Y019696D01*
X043310Y019725D01*
X043217Y019740D01*
X042890Y019740D01*
X042890Y019140D01*
X042890Y019140D01*
X043770Y019140D01*
X042890Y019140D01*
X042890Y019140D01*
X042890Y019040D01*
X042890Y019040D01*
X042890Y019140D01*
X042890Y019140D01*
X042890Y019140D01*
X042010Y019140D01*
X042010Y019187D01*
X042025Y019280D01*
X042054Y019370D01*
X042097Y019454D01*
X042152Y019531D01*
X042219Y019598D01*
X042296Y019653D01*
X042380Y019696D01*
X042469Y019725D01*
X042563Y019740D01*
X042890Y019740D01*
X042890Y019140D01*
X042010Y019140D01*
X042010Y019093D01*
X042018Y019040D01*
X041931Y019040D01*
X040992Y019979D01*
X040845Y020040D01*
X035671Y020040D01*
X035588Y020123D01*
X035378Y020210D01*
X035152Y020210D01*
X034942Y020123D01*
X034782Y019963D01*
X034695Y019753D01*
X034695Y019540D01*
X034671Y019540D01*
X034588Y019623D01*
X034378Y019710D01*
X034152Y019710D01*
X033942Y019623D01*
X033782Y019463D01*
X033695Y019253D01*
X033695Y019040D01*
X031046Y019040D01*
X030963Y019123D01*
X030753Y019210D01*
X030527Y019210D01*
X030317Y019123D01*
X030157Y018963D01*
X030070Y018753D01*
X030070Y018527D01*
X030157Y018317D01*
X030317Y018157D01*
X030445Y018104D01*
X030445Y017902D01*
X030532Y017692D01*
X030692Y017532D01*
X030902Y017445D01*
X031128Y017445D01*
X031338Y017532D01*
X031421Y017615D01*
X032986Y017615D01*
X032976Y017605D01*
X032885Y017384D01*
X032885Y017146D01*
X032976Y016925D01*
X033136Y016765D01*
X032976Y016605D01*
X032885Y016384D01*
X032885Y016146D01*
X032976Y015925D01*
X033136Y015765D01*
X033036Y015665D01*
X032185Y015665D01*
X032038Y015604D01*
X031926Y015492D01*
X031269Y014835D01*
X031152Y014835D01*
X030942Y014748D01*
X030782Y014588D01*
X030695Y014378D01*
X030695Y014335D01*
X030652Y014335D01*
X030442Y014248D01*
X030282Y014088D01*
X030195Y013878D01*
X030195Y013652D01*
X030282Y013442D01*
X030442Y013282D01*
X030652Y013195D01*
X030878Y013195D01*
X031088Y013282D01*
X031171Y013365D01*
X032885Y013365D01*
X032885Y013165D01*
X032171Y013165D01*
X032088Y013248D01*
X031878Y013335D01*
X031652Y013335D01*
X031442Y013248D01*
X031282Y013088D01*
X031195Y012878D01*
X031195Y012652D01*
X031282Y012442D01*
X031442Y012282D01*
X031652Y012195D01*
X031878Y012195D01*
X032088Y012282D01*
X032171Y012365D01*
X032885Y012365D01*
X032885Y012326D01*
X032426Y011867D01*
X032365Y011720D01*
X032365Y010306D01*
X032344Y010285D01*
X032014Y010615D01*
X031765Y010615D01*
X031765Y010015D01*
X031140Y010015D01*
X030515Y010640D01*
X027265Y010640D01*
X026765Y010140D01*
X026140Y010140D01*
X027020Y010140D01*
X026140Y010140D01*
X026140Y010140D01*
X026140Y010140D01*
X026140Y011140D01*
X026140Y011140D01*
X026140Y012140D01*
X026140Y012140D01*
X026140Y012140D01*
X026140Y012540D01*
X026140Y013140D01*
X026140Y013140D01*
X025260Y013140D01*
X025260Y013093D01*
X025275Y012999D01*
X025304Y012910D01*
X025347Y012826D01*
X025402Y012749D01*
X025469Y012682D01*
X025527Y012640D01*
X025469Y012598D01*
X025402Y012531D01*
X025347Y012454D01*
X025304Y012370D01*
X025275Y012280D01*
X025260Y012187D01*
X025260Y012140D01*
X026140Y012140D01*
X026140Y011740D01*
X026140Y011140D01*
X027020Y011140D01*
X026140Y011140D01*
X026140Y011140D01*
X026140Y011140D01*
X026140Y010740D01*
X026140Y010140D01*
X025290Y010140D01*
X025290Y010140D01*
X026140Y010140D01*
X026140Y010140D01*
X026140Y009915D01*
X026140Y009915D01*
X026140Y010140D01*
X026140Y010140D01*
X026140Y010072D02*
X026140Y010072D01*
X026140Y010230D02*
X026140Y010230D01*
X026140Y010389D02*
X026140Y010389D01*
X026140Y010547D02*
X026140Y010547D01*
X026140Y010706D02*
X026140Y010706D01*
X026140Y010864D02*
X026140Y010864D01*
X026140Y011023D02*
X026140Y011023D01*
X026140Y011181D02*
X026140Y011181D01*
X026140Y011340D02*
X026140Y011340D01*
X026140Y011498D02*
X026140Y011498D01*
X026140Y011657D02*
X026140Y011657D01*
X026140Y011815D02*
X026140Y011815D01*
X026140Y011974D02*
X026140Y011974D01*
X026140Y012132D02*
X026140Y012132D01*
X026140Y012291D02*
X026140Y012291D01*
X026140Y012449D02*
X026140Y012449D01*
X026140Y012608D02*
X026140Y012608D01*
X026140Y012766D02*
X026140Y012766D01*
X026140Y012925D02*
X026140Y012925D01*
X026140Y013083D02*
X026140Y013083D01*
X025483Y012608D02*
X024665Y012608D01*
X024665Y012766D02*
X025390Y012766D01*
X025299Y012925D02*
X024665Y012925D01*
X024665Y013083D02*
X025262Y013083D01*
X025269Y013242D02*
X024604Y013242D01*
X024446Y013400D02*
X025319Y013400D01*
X024265Y013015D02*
X024265Y009890D01*
X025015Y009140D01*
X052140Y009140D01*
X053390Y007890D01*
X053390Y006640D01*
X051890Y006140D02*
X051390Y006640D01*
X051390Y007515D01*
X050515Y008390D01*
X024765Y008390D01*
X023515Y009640D01*
X023515Y012765D01*
X022640Y013640D01*
X022640Y014640D01*
X022140Y013640D02*
X023140Y012640D01*
X023140Y009515D01*
X024640Y008015D01*
X049890Y008015D01*
X050390Y007515D01*
X050390Y006640D01*
X050890Y006140D01*
X055390Y008015D02*
X055390Y009140D01*
X055015Y009515D01*
X055341Y009755D02*
X058745Y009755D01*
X058625Y009913D02*
X055101Y009913D01*
X055500Y009596D02*
X058904Y009596D01*
X059284Y009279D02*
X055765Y009279D01*
X055790Y009121D02*
X059055Y009121D01*
X058896Y008962D02*
X055790Y008962D01*
X055790Y008804D02*
X058738Y008804D01*
X058579Y008645D02*
X055790Y008645D01*
X055790Y008487D02*
X058421Y008487D01*
X058262Y008328D02*
X055877Y008328D01*
X055943Y008170D02*
X058104Y008170D01*
X057945Y008011D02*
X055960Y008011D01*
X055940Y007853D02*
X057787Y007853D01*
X057628Y007694D02*
X055874Y007694D01*
X055717Y007536D02*
X057470Y007536D01*
X058309Y006743D02*
X058757Y006743D01*
X058804Y006585D02*
X058150Y006585D01*
X057992Y006426D02*
X058646Y006426D01*
X058625Y006268D02*
X057833Y006268D01*
X057675Y006109D02*
X058625Y006109D01*
X058625Y005951D02*
X057516Y005951D01*
X057358Y005792D02*
X058708Y005792D01*
X058866Y005634D02*
X057199Y005634D01*
X057041Y005475D02*
X064740Y005475D01*
X064649Y005634D02*
X060664Y005634D01*
X060822Y005792D02*
X064595Y005792D01*
X064553Y005951D02*
X060905Y005951D01*
X060905Y006109D02*
X064545Y006109D01*
X064545Y006268D02*
X060905Y006268D01*
X060884Y006426D02*
X064579Y006426D01*
X064621Y006585D02*
X063233Y006585D01*
X063153Y006505D02*
X063525Y006877D01*
X063525Y007140D01*
X063525Y007403D01*
X063153Y007775D01*
X062890Y007775D01*
X062890Y007140D01*
X063525Y007140D01*
X062890Y007140D01*
X062890Y007140D01*
X062890Y007140D01*
X062890Y006505D01*
X063153Y006505D01*
X062890Y006505D02*
X062890Y007140D01*
X062890Y007140D01*
X062890Y007775D01*
X062627Y007775D01*
X062390Y007538D01*
X062250Y007678D01*
X062016Y007775D01*
X061764Y007775D01*
X061530Y007678D01*
X061352Y007500D01*
X061255Y007266D01*
X061255Y007014D01*
X061352Y006780D01*
X061530Y006602D01*
X061764Y006505D01*
X062016Y006505D01*
X062250Y006602D01*
X062390Y006742D01*
X062627Y006505D01*
X062890Y006505D01*
X062890Y006585D02*
X062890Y006585D01*
X062890Y006743D02*
X062890Y006743D01*
X062890Y006902D02*
X062890Y006902D01*
X062890Y007060D02*
X062890Y007060D01*
X062890Y007219D02*
X062890Y007219D01*
X062890Y007377D02*
X062890Y007377D01*
X062890Y007536D02*
X062890Y007536D01*
X062890Y007694D02*
X062890Y007694D01*
X062546Y007694D02*
X062212Y007694D01*
X061568Y007694D02*
X060616Y007694D01*
X060775Y007536D02*
X061387Y007536D01*
X061301Y007377D02*
X060905Y007377D01*
X060905Y007219D02*
X061255Y007219D01*
X061255Y007060D02*
X060905Y007060D01*
X060905Y006902D02*
X061301Y006902D01*
X061389Y006743D02*
X060773Y006743D01*
X060726Y006585D02*
X061572Y006585D01*
X062208Y006585D02*
X062547Y006585D01*
X063391Y006743D02*
X064704Y006743D01*
X064801Y006902D02*
X063525Y006902D01*
X063525Y007060D02*
X064960Y007060D01*
X065193Y007219D02*
X063525Y007219D01*
X063525Y007377D02*
X066502Y007377D01*
X066502Y007219D02*
X066337Y007219D01*
X066502Y007536D02*
X063393Y007536D01*
X063234Y007694D02*
X066502Y007694D01*
X066502Y007853D02*
X059418Y007853D01*
X059577Y008011D02*
X066502Y008011D01*
X066502Y008170D02*
X064101Y008170D01*
X064264Y008328D02*
X066502Y008328D01*
X066502Y008487D02*
X064415Y008487D01*
X064566Y008645D02*
X066502Y008645D01*
X066502Y008804D02*
X064717Y008804D01*
X064868Y008962D02*
X066502Y008962D01*
X066502Y009121D02*
X065019Y009121D01*
X065170Y009279D02*
X066502Y009279D01*
X066502Y009438D02*
X065321Y009438D01*
X065472Y009596D02*
X066502Y009596D01*
X066502Y009755D02*
X065623Y009755D01*
X065774Y009913D02*
X066502Y009913D01*
X066502Y010072D02*
X065925Y010072D01*
X066076Y010230D02*
X066502Y010230D01*
X066502Y010389D02*
X066227Y010389D01*
X066378Y010547D02*
X066502Y010547D01*
X066390Y011140D02*
X066390Y027765D01*
X064515Y029640D01*
X060015Y029640D01*
X059611Y030043D02*
X057365Y030043D01*
X057365Y030201D02*
X059880Y030201D01*
X060150Y030201D02*
X066502Y030201D01*
X066502Y030043D02*
X060419Y030043D01*
X059499Y029884D02*
X057356Y029884D01*
X057306Y029726D02*
X059445Y029726D01*
X059445Y029567D02*
X057196Y029567D01*
X056932Y029409D02*
X059494Y029409D01*
X058115Y028264D02*
X057889Y028490D01*
X064474Y028490D01*
X064878Y028086D01*
X064712Y028155D01*
X063818Y028155D01*
X063582Y028058D01*
X063402Y027878D01*
X063305Y027642D01*
X063305Y027388D01*
X063402Y027152D01*
X063540Y027015D01*
X063402Y026878D01*
X063305Y026642D01*
X063305Y026388D01*
X063402Y026152D01*
X063540Y026015D01*
X063402Y025878D01*
X063305Y025642D01*
X063305Y025388D01*
X063402Y025152D01*
X063540Y025015D01*
X063402Y024878D01*
X063305Y024642D01*
X063305Y024388D01*
X063402Y024152D01*
X063540Y024015D01*
X063402Y023878D01*
X063305Y023642D01*
X063305Y023413D01*
X063163Y023354D01*
X062724Y022915D01*
X062399Y022915D01*
X062403Y022921D01*
X062446Y023005D01*
X062475Y023094D01*
X062490Y023188D01*
X062490Y023515D01*
X062490Y023842D01*
X062475Y023935D01*
X062446Y024025D01*
X062403Y024109D01*
X062348Y024186D01*
X062281Y024253D01*
X062204Y024308D01*
X062120Y024351D01*
X062030Y024380D01*
X061937Y024395D01*
X061890Y024395D01*
X061890Y023515D01*
X061890Y023515D01*
X062490Y023515D01*
X061890Y023515D01*
X061890Y023515D01*
X061890Y024395D01*
X061843Y024395D01*
X061749Y024380D01*
X061660Y024351D01*
X061576Y024308D01*
X061499Y024253D01*
X061432Y024186D01*
X061397Y024137D01*
X061230Y024304D01*
X061009Y024395D01*
X060771Y024395D01*
X060550Y024304D01*
X060390Y024144D01*
X060290Y024244D01*
X060290Y024470D01*
X060229Y024617D01*
X059290Y025556D01*
X059290Y025786D01*
X059390Y025886D01*
X059550Y025726D01*
X059771Y025635D01*
X060009Y025635D01*
X060230Y025726D01*
X060390Y025886D01*
X060550Y025726D01*
X060771Y025635D01*
X061009Y025635D01*
X061230Y025726D01*
X061390Y025886D01*
X061550Y025726D01*
X061771Y025635D01*
X062009Y025635D01*
X062230Y025726D01*
X062399Y025895D01*
X062490Y026116D01*
X062490Y026914D01*
X062399Y027135D01*
X062230Y027304D01*
X062009Y027395D01*
X061771Y027395D01*
X061550Y027304D01*
X061390Y027144D01*
X061230Y027304D01*
X061009Y027395D01*
X060771Y027395D01*
X060550Y027304D01*
X060390Y027144D01*
X060230Y027304D01*
X060009Y027395D01*
X059771Y027395D01*
X059550Y027304D01*
X059390Y027144D01*
X059230Y027304D01*
X059009Y027395D01*
X058951Y027395D01*
X058617Y027729D01*
X058470Y027790D01*
X058115Y027790D01*
X058115Y028015D01*
X058115Y028264D01*
X058079Y028299D02*
X064665Y028299D01*
X064747Y028141D02*
X064824Y028141D01*
X064507Y028458D02*
X057921Y028458D01*
X058115Y028141D02*
X063783Y028141D01*
X063507Y027982D02*
X058115Y027982D01*
X058115Y028015D02*
X057515Y028015D01*
X058115Y028015D01*
X058115Y027824D02*
X063380Y027824D01*
X063314Y027665D02*
X058681Y027665D01*
X058839Y027507D02*
X063305Y027507D01*
X063321Y027348D02*
X062123Y027348D01*
X062344Y027190D02*
X063387Y027190D01*
X063524Y027031D02*
X062442Y027031D01*
X062490Y026873D02*
X063400Y026873D01*
X063335Y026714D02*
X062490Y026714D01*
X062490Y026556D02*
X063305Y026556D01*
X063305Y026397D02*
X062490Y026397D01*
X062490Y026239D02*
X063367Y026239D01*
X063475Y026080D02*
X062475Y026080D01*
X062410Y025922D02*
X063446Y025922D01*
X063355Y025763D02*
X062267Y025763D01*
X061513Y025763D02*
X061267Y025763D01*
X060513Y025763D02*
X060267Y025763D01*
X059513Y025763D02*
X059290Y025763D01*
X059290Y025605D02*
X063305Y025605D01*
X063305Y025446D02*
X059400Y025446D01*
X059558Y025288D02*
X063346Y025288D01*
X063426Y025129D02*
X059717Y025129D01*
X059875Y024971D02*
X063495Y024971D01*
X063375Y024812D02*
X060034Y024812D01*
X060192Y024654D02*
X063310Y024654D01*
X063305Y024495D02*
X060279Y024495D01*
X060290Y024337D02*
X060630Y024337D01*
X060425Y024178D02*
X060355Y024178D01*
X059890Y024390D02*
X058890Y025390D01*
X058890Y026515D01*
X058890Y026890D01*
X058390Y027390D01*
X057390Y027390D01*
X056890Y026890D01*
X056890Y026515D01*
X055890Y026515D01*
X056390Y027144D02*
X056230Y027304D01*
X056009Y027395D01*
X055995Y027395D01*
X055995Y027646D01*
X056115Y027766D01*
X056115Y028264D01*
X055889Y028490D01*
X057141Y028490D01*
X056915Y028264D01*
X056915Y028015D01*
X057515Y028015D01*
X057515Y028015D01*
X057515Y028015D01*
X056915Y028015D01*
X056915Y027766D01*
X057058Y027624D01*
X057051Y027617D01*
X056829Y027395D01*
X056771Y027395D01*
X056550Y027304D01*
X056390Y027144D01*
X056344Y027190D02*
X056436Y027190D01*
X056657Y027348D02*
X056123Y027348D01*
X055995Y027507D02*
X056941Y027507D01*
X057016Y027665D02*
X056014Y027665D01*
X056115Y027824D02*
X056915Y027824D01*
X056915Y027982D02*
X056115Y027982D01*
X056115Y028141D02*
X056915Y028141D01*
X056951Y028299D02*
X056079Y028299D01*
X055921Y028458D02*
X057109Y028458D01*
X056765Y029385D02*
X056765Y030265D01*
X056765Y030265D01*
X056765Y030265D01*
X056365Y030265D01*
X056365Y030265D01*
X056765Y030265D01*
X056765Y029385D01*
X056765Y029409D02*
X056765Y029409D01*
X056765Y029567D02*
X056765Y029567D01*
X056765Y029726D02*
X056765Y029726D01*
X056765Y029884D02*
X056765Y029884D01*
X056765Y030043D02*
X056765Y030043D01*
X056765Y030201D02*
X056765Y030201D01*
X056765Y030360D02*
X056765Y030360D01*
X056765Y030518D02*
X056765Y030518D01*
X056765Y030677D02*
X056765Y030677D01*
X056765Y030835D02*
X056765Y030835D01*
X056765Y030994D02*
X056765Y030994D01*
X057165Y030994D02*
X066502Y030994D01*
X066502Y031152D02*
X052665Y031152D01*
X052665Y031311D02*
X066502Y031311D01*
X066502Y031469D02*
X052665Y031469D01*
X052665Y031628D02*
X066502Y031628D01*
X066502Y031786D02*
X052665Y031786D01*
X052665Y031945D02*
X066502Y031945D01*
X066502Y032103D02*
X052665Y032103D01*
X052665Y032262D02*
X066502Y032262D01*
X066502Y032420D02*
X056969Y032420D01*
X057207Y032579D02*
X066502Y032579D01*
X066502Y032737D02*
X057312Y032737D01*
X057365Y032896D02*
X066502Y032896D01*
X066502Y033054D02*
X057365Y033054D01*
X057365Y033213D02*
X066502Y033213D01*
X066502Y033371D02*
X057365Y033371D01*
X057365Y033530D02*
X066502Y033530D01*
X066502Y033688D02*
X057355Y033688D01*
X057290Y033847D02*
X066502Y033847D01*
X066502Y034005D02*
X057153Y034005D01*
X056377Y034005D02*
X056153Y034005D01*
X055377Y034005D02*
X055153Y034005D01*
X054377Y034005D02*
X054153Y034005D01*
X053377Y034005D02*
X053153Y034005D01*
X052807Y034164D02*
X066502Y034164D01*
X066502Y034322D02*
X052649Y034322D01*
X052488Y034481D02*
X066502Y034481D01*
X066502Y034639D02*
X050363Y034639D01*
X050365Y034798D02*
X066502Y034798D01*
X066502Y034956D02*
X050365Y034956D01*
X050365Y035115D02*
X066502Y035115D01*
X066502Y035273D02*
X050230Y035273D01*
X050072Y035432D02*
X066502Y035432D01*
X066502Y035590D02*
X041165Y035590D01*
X041165Y035432D02*
X049458Y035432D01*
X049300Y035273D02*
X041323Y035273D01*
X041481Y035115D02*
X049165Y035115D01*
X049165Y034956D02*
X043140Y034956D01*
X043298Y034798D02*
X049165Y034798D01*
X049167Y034639D02*
X043457Y034639D01*
X043615Y034481D02*
X049285Y034481D01*
X049285Y034322D02*
X043774Y034322D01*
X043932Y034164D02*
X049285Y034164D01*
X049285Y034005D02*
X045153Y034005D01*
X045290Y033847D02*
X049240Y033847D01*
X049175Y033688D02*
X045355Y033688D01*
X045365Y033530D02*
X049165Y033530D01*
X049165Y033371D02*
X045365Y033371D01*
X045365Y033213D02*
X049165Y033213D01*
X049165Y033054D02*
X045365Y033054D01*
X045365Y032896D02*
X049165Y032896D01*
X049218Y032737D02*
X045312Y032737D01*
X045207Y032579D02*
X049323Y032579D01*
X049561Y032420D02*
X044986Y032420D01*
X044827Y032262D02*
X051703Y032262D01*
X051544Y032420D02*
X050969Y032420D01*
X051207Y032579D02*
X051323Y032579D01*
X051765Y032765D02*
X052265Y032265D01*
X052265Y029515D01*
X049765Y027015D01*
X049265Y026390D02*
X049640Y026015D01*
X052390Y026015D01*
X055265Y028890D01*
X064640Y028890D01*
X066015Y027515D01*
X066015Y011765D01*
X063515Y009265D01*
X063890Y008515D02*
X066390Y011140D01*
X064917Y012608D02*
X060703Y012608D01*
X060796Y012766D02*
X065075Y012766D01*
X065234Y012925D02*
X060905Y012925D01*
X060905Y013083D02*
X065240Y013083D01*
X065240Y013242D02*
X060905Y013242D01*
X060905Y013400D02*
X065240Y013400D01*
X065240Y013559D02*
X060752Y013559D01*
X060747Y013717D02*
X065240Y013717D01*
X065240Y013876D02*
X060905Y013876D01*
X060905Y014034D02*
X065240Y014034D01*
X065240Y014193D02*
X060905Y014193D01*
X060905Y014351D02*
X065240Y014351D01*
X065240Y014510D02*
X060801Y014510D01*
X060698Y014668D02*
X065240Y014668D01*
X065240Y014827D02*
X060857Y014827D01*
X060905Y014985D02*
X065240Y014985D01*
X065240Y015144D02*
X060905Y015144D01*
X060905Y015302D02*
X065240Y015302D01*
X065240Y015461D02*
X060850Y015461D01*
X060691Y015619D02*
X065240Y015619D01*
X065240Y015778D02*
X060808Y015778D01*
X060905Y015936D02*
X065240Y015936D01*
X065240Y016095D02*
X060905Y016095D01*
X060905Y016253D02*
X065240Y016253D01*
X065240Y016412D02*
X060899Y016412D01*
X060740Y016570D02*
X065240Y016570D01*
X065240Y016729D02*
X060759Y016729D01*
X060905Y016887D02*
X065240Y016887D01*
X065240Y017046D02*
X060905Y017046D01*
X060905Y017204D02*
X065240Y017204D01*
X065240Y017363D02*
X060905Y017363D01*
X060789Y017521D02*
X065240Y017521D01*
X065240Y017680D02*
X060631Y017680D01*
X059899Y017680D02*
X059631Y017680D01*
X058899Y017680D02*
X055682Y017680D01*
X055763Y017521D02*
X058741Y017521D01*
X058625Y017363D02*
X055852Y017363D01*
X055895Y017204D02*
X058625Y017204D01*
X058625Y017046D02*
X055895Y017046D01*
X055840Y016887D02*
X058625Y016887D01*
X058771Y016729D02*
X055732Y016729D01*
X055714Y016570D02*
X058790Y016570D01*
X058631Y016412D02*
X055832Y016412D01*
X055895Y016253D02*
X058625Y016253D01*
X058625Y016095D02*
X055895Y016095D01*
X055860Y015936D02*
X058625Y015936D01*
X058722Y015778D02*
X055781Y015778D01*
X055656Y015619D02*
X058839Y015619D01*
X058680Y015461D02*
X055804Y015461D01*
X055873Y015302D02*
X058625Y015302D01*
X058625Y015144D02*
X055895Y015144D01*
X055876Y014985D02*
X058625Y014985D01*
X058673Y014827D02*
X055809Y014827D01*
X055666Y014668D02*
X058832Y014668D01*
X058729Y014510D02*
X055774Y014510D01*
X055857Y014351D02*
X058625Y014351D01*
X058625Y014193D02*
X055895Y014193D01*
X055895Y014034D02*
X058625Y014034D01*
X058625Y013876D02*
X055835Y013876D01*
X055721Y013717D02*
X058783Y013717D01*
X058778Y013559D02*
X055725Y013559D01*
X055836Y013400D02*
X058625Y013400D01*
X058625Y013242D02*
X055886Y013242D01*
X055895Y013140D02*
X055015Y013140D01*
X055015Y013140D01*
X055895Y013140D01*
X055893Y013083D02*
X058625Y013083D01*
X058625Y012925D02*
X055856Y012925D01*
X055765Y012766D02*
X058734Y012766D01*
X058827Y012608D02*
X055676Y012608D01*
X055816Y012449D02*
X058669Y012449D01*
X058625Y012291D02*
X055882Y012291D01*
X055895Y012132D02*
X058625Y012132D01*
X058625Y011181D02*
X054323Y011181D01*
X054264Y011240D02*
X054015Y011240D01*
X054015Y010640D01*
X054615Y010640D01*
X054615Y010889D01*
X054264Y011240D01*
X054015Y011240D02*
X053766Y011240D01*
X053415Y010889D01*
X053415Y010640D01*
X054015Y010640D01*
X054015Y010640D01*
X054015Y010640D01*
X054615Y010640D01*
X054615Y010391D01*
X054264Y010040D01*
X054015Y010040D01*
X054015Y010640D01*
X054015Y010640D01*
X054015Y010640D01*
X054015Y011240D01*
X054015Y011181D02*
X054015Y011181D01*
X054015Y011023D02*
X054015Y011023D01*
X054015Y010864D02*
X054015Y010864D01*
X054015Y010706D02*
X054015Y010706D01*
X054015Y010640D02*
X053415Y010640D01*
X053415Y010391D01*
X053766Y010040D01*
X054015Y010040D01*
X054015Y010640D01*
X054015Y010547D02*
X054015Y010547D01*
X054015Y010389D02*
X054015Y010389D01*
X054015Y010230D02*
X054015Y010230D01*
X054015Y010072D02*
X054015Y010072D01*
X054295Y010072D02*
X058625Y010072D01*
X058625Y010230D02*
X054454Y010230D01*
X054612Y010389D02*
X058625Y010389D01*
X058767Y010547D02*
X054615Y010547D01*
X054615Y010706D02*
X058794Y010706D01*
X058636Y010864D02*
X054615Y010864D01*
X054481Y011023D02*
X058625Y011023D01*
X059626Y009596D02*
X059904Y009596D01*
X060626Y009596D02*
X061905Y009596D01*
X061747Y009438D02*
X055658Y009438D01*
X053735Y010072D02*
X052295Y010072D01*
X052454Y010230D02*
X053576Y010230D01*
X053418Y010389D02*
X052612Y010389D01*
X052615Y010547D02*
X053415Y010547D01*
X053415Y010706D02*
X052615Y010706D01*
X052615Y010864D02*
X053415Y010864D01*
X053549Y011023D02*
X052495Y011023D01*
X052495Y011181D02*
X053707Y011181D01*
X053375Y011340D02*
X052495Y011340D01*
X052495Y011498D02*
X053216Y011498D01*
X053058Y011657D02*
X052660Y011657D01*
X052810Y011815D02*
X052899Y011815D01*
X053640Y011640D02*
X052640Y012640D01*
X051140Y012640D01*
X050140Y011640D01*
X048390Y011640D01*
X047640Y012390D01*
X047640Y013015D01*
X047015Y013640D01*
X045265Y013640D01*
X044265Y012640D01*
X039265Y012640D01*
X039015Y012890D01*
X039015Y013390D01*
X039265Y013640D01*
X040515Y013640D01*
X040765Y013890D01*
X040765Y014890D01*
X040515Y015140D01*
X039890Y015140D01*
X039265Y015140D01*
X038890Y015515D01*
X038890Y016265D01*
X039265Y016640D01*
X040390Y016640D01*
X040765Y017015D01*
X040765Y017765D01*
X040390Y018140D01*
X039890Y018140D01*
X039261Y017640D02*
X039161Y017540D01*
X038810Y017540D01*
X038663Y017479D01*
X038551Y017367D01*
X037849Y016665D01*
X037494Y016665D01*
X037387Y016772D01*
X037436Y016807D01*
X037503Y016874D01*
X037558Y016951D01*
X037601Y017035D01*
X037630Y017124D01*
X037645Y017218D01*
X037645Y017265D01*
X037645Y017312D01*
X037630Y017405D01*
X037601Y017495D01*
X037558Y017579D01*
X037503Y017656D01*
X037436Y017723D01*
X037359Y017778D01*
X037275Y017821D01*
X037185Y017850D01*
X037092Y017865D01*
X036765Y017865D01*
X036765Y017265D01*
X036765Y017265D01*
X037645Y017265D01*
X036765Y017265D01*
X036765Y017265D01*
X036765Y016865D01*
X036765Y016865D01*
X036765Y017265D01*
X036765Y017265D01*
X036765Y017265D01*
X035885Y017265D01*
X035885Y017312D01*
X035900Y017405D01*
X035929Y017495D01*
X035972Y017579D01*
X036027Y017656D01*
X036094Y017723D01*
X036171Y017778D01*
X036255Y017821D01*
X036344Y017850D01*
X036438Y017865D01*
X036765Y017865D01*
X036765Y017265D01*
X035885Y017265D01*
X035885Y017218D01*
X035900Y017124D01*
X035929Y017035D01*
X035972Y016951D01*
X036027Y016874D01*
X036094Y016807D01*
X036143Y016772D01*
X035976Y016605D01*
X035907Y016438D01*
X034742Y017604D01*
X034715Y017615D01*
X034859Y017615D01*
X034942Y017532D01*
X035152Y017445D01*
X035378Y017445D01*
X035588Y017532D01*
X035748Y017692D01*
X035835Y017902D01*
X035835Y018128D01*
X035789Y018240D01*
X039010Y018240D01*
X039010Y018021D01*
X039101Y017800D01*
X039261Y017640D01*
X039222Y017680D02*
X037479Y017680D01*
X037588Y017521D02*
X038765Y017521D01*
X038547Y017363D02*
X037637Y017363D01*
X037643Y017204D02*
X038388Y017204D01*
X038230Y017046D02*
X037605Y017046D01*
X037512Y016887D02*
X038071Y016887D01*
X037913Y016729D02*
X037430Y016729D01*
X036765Y016887D02*
X036765Y016887D01*
X036765Y017046D02*
X036765Y017046D01*
X036765Y017204D02*
X036765Y017204D01*
X036765Y017363D02*
X036765Y017363D01*
X036765Y017521D02*
X036765Y017521D01*
X036765Y017680D02*
X036765Y017680D01*
X036765Y017838D02*
X036765Y017838D01*
X036307Y017838D02*
X035809Y017838D01*
X035835Y017997D02*
X039020Y017997D01*
X039010Y018155D02*
X035824Y018155D01*
X035736Y017680D02*
X036051Y017680D01*
X035942Y017521D02*
X035562Y017521D01*
X035893Y017363D02*
X034983Y017363D01*
X034968Y017521D02*
X034825Y017521D01*
X034515Y017265D02*
X036015Y015765D01*
X037640Y015765D01*
X039265Y014140D01*
X039890Y014140D01*
X039890Y013140D02*
X042890Y013140D01*
X042890Y014140D01*
X043890Y013765D02*
X043890Y015515D01*
X043265Y016140D01*
X042890Y016140D01*
X042890Y017140D01*
X043519Y016640D02*
X043679Y016800D01*
X043770Y017021D01*
X043770Y017240D01*
X044345Y017240D01*
X044492Y017301D01*
X044931Y017740D01*
X045286Y017740D01*
X045386Y017640D01*
X045226Y017480D01*
X045135Y017259D01*
X045135Y017021D01*
X045226Y016800D01*
X045393Y016633D01*
X045344Y016598D01*
X045277Y016531D01*
X045222Y016454D01*
X045179Y016370D01*
X045150Y016280D01*
X045135Y016187D01*
X045135Y016140D01*
X046015Y016140D01*
X046895Y016140D01*
X046895Y016187D01*
X046880Y016280D01*
X046851Y016370D01*
X046808Y016454D01*
X046753Y016531D01*
X046686Y016598D01*
X046637Y016633D01*
X046804Y016800D01*
X046895Y017021D01*
X046895Y017259D01*
X046804Y017480D01*
X046644Y017640D01*
X046804Y017800D01*
X046895Y018021D01*
X046895Y018240D01*
X048143Y018240D01*
X048135Y018187D01*
X048135Y018140D01*
X049015Y018140D01*
X049895Y018140D01*
X049895Y018187D01*
X049887Y018240D01*
X050349Y018240D01*
X050788Y017801D01*
X050935Y017740D01*
X051286Y017740D01*
X051386Y017640D01*
X051226Y017480D01*
X051135Y017259D01*
X051135Y017021D01*
X051226Y016800D01*
X051393Y016633D01*
X051344Y016598D01*
X051277Y016531D01*
X051222Y016454D01*
X051179Y016370D01*
X051150Y016280D01*
X051135Y016187D01*
X051135Y016140D01*
X052015Y016140D01*
X052895Y016140D01*
X052015Y016140D01*
X052015Y016140D01*
X052015Y016140D01*
X051135Y016140D01*
X051135Y016093D01*
X051150Y015999D01*
X051179Y015910D01*
X051222Y015826D01*
X051277Y015749D01*
X051344Y015682D01*
X051368Y015665D01*
X051060Y015665D01*
X050913Y015604D01*
X049849Y014540D01*
X049744Y014540D01*
X049637Y014647D01*
X049686Y014682D01*
X049753Y014749D01*
X049808Y014826D01*
X049851Y014910D01*
X049880Y014999D01*
X049895Y015093D01*
X049895Y015140D01*
X049895Y015187D01*
X049880Y015280D01*
X049851Y015370D01*
X049808Y015454D01*
X049753Y015531D01*
X049686Y015598D01*
X049637Y015633D01*
X049804Y015800D01*
X049895Y016021D01*
X049895Y016259D01*
X049804Y016480D01*
X049644Y016640D01*
X049804Y016800D01*
X049895Y017021D01*
X049895Y017259D01*
X049804Y017480D01*
X049637Y017647D01*
X049686Y017682D01*
X049753Y017749D01*
X049808Y017826D01*
X049851Y017910D01*
X049880Y017999D01*
X049895Y018093D01*
X049895Y018140D01*
X049015Y018140D01*
X049015Y018140D01*
X049015Y018140D01*
X048135Y018140D01*
X048135Y018093D01*
X048150Y017999D01*
X048179Y017910D01*
X048222Y017826D01*
X048277Y017749D01*
X048344Y017682D01*
X048393Y017647D01*
X048226Y017480D01*
X048135Y017259D01*
X048135Y017021D01*
X048226Y016800D01*
X048386Y016640D01*
X048226Y016480D01*
X048135Y016259D01*
X048135Y016021D01*
X048226Y015800D01*
X048393Y015633D01*
X048344Y015598D01*
X048277Y015531D01*
X048222Y015454D01*
X048179Y015370D01*
X048150Y015280D01*
X048135Y015187D01*
X048135Y015140D01*
X049015Y015140D01*
X049895Y015140D01*
X049015Y015140D01*
X049015Y015140D01*
X049015Y015140D01*
X048135Y015140D01*
X048135Y015093D01*
X048150Y014999D01*
X048179Y014910D01*
X048222Y014826D01*
X048277Y014749D01*
X048344Y014682D01*
X048393Y014647D01*
X048286Y014540D01*
X048181Y014540D01*
X047354Y015367D01*
X047242Y015479D01*
X047095Y015540D01*
X046744Y015540D01*
X046637Y015647D01*
X046686Y015682D01*
X046753Y015749D01*
X046808Y015826D01*
X046851Y015910D01*
X046880Y015999D01*
X046895Y016093D01*
X046895Y016140D01*
X046015Y016140D01*
X046015Y016140D01*
X046015Y016140D01*
X045135Y016140D01*
X045135Y016093D01*
X045150Y015999D01*
X045179Y015910D01*
X045222Y015826D01*
X045277Y015749D01*
X045344Y015682D01*
X045393Y015647D01*
X045226Y015480D01*
X045135Y015259D01*
X045135Y015021D01*
X045226Y014800D01*
X045393Y014633D01*
X045344Y014598D01*
X045277Y014531D01*
X045222Y014454D01*
X045179Y014370D01*
X045150Y014280D01*
X045135Y014187D01*
X045135Y014140D01*
X046015Y014140D01*
X046895Y014140D01*
X046895Y014187D01*
X046880Y014280D01*
X046851Y014370D01*
X046808Y014454D01*
X046753Y014531D01*
X046686Y014598D01*
X046637Y014633D01*
X046744Y014740D01*
X046849Y014740D01*
X047788Y013801D01*
X047935Y013740D01*
X048286Y013740D01*
X048393Y013633D01*
X048344Y013598D01*
X048277Y013531D01*
X048222Y013454D01*
X048179Y013370D01*
X048150Y013280D01*
X048135Y013187D01*
X048135Y013140D01*
X049015Y013140D01*
X049895Y013140D01*
X049895Y013187D01*
X049880Y013280D01*
X049851Y013370D01*
X049808Y013454D01*
X049753Y013531D01*
X049686Y013598D01*
X049637Y013633D01*
X049744Y013740D01*
X050095Y013740D01*
X050242Y013801D01*
X050354Y013913D01*
X051234Y014793D01*
X051393Y014633D01*
X051344Y014598D01*
X051277Y014531D01*
X051222Y014454D01*
X051179Y014370D01*
X051150Y014280D01*
X051135Y014187D01*
X051135Y014140D01*
X052015Y014140D01*
X052895Y014140D01*
X052895Y014187D01*
X052880Y014280D01*
X052854Y014360D01*
X053413Y013801D01*
X053560Y013740D01*
X053720Y013740D01*
X054286Y013740D01*
X054393Y013633D01*
X054344Y013598D01*
X054277Y013531D01*
X054222Y013454D01*
X054179Y013370D01*
X054150Y013280D01*
X054135Y013187D01*
X054135Y013140D01*
X055015Y013140D01*
X055015Y013140D01*
X054135Y013140D01*
X054135Y013093D01*
X054150Y012999D01*
X054179Y012910D01*
X054222Y012826D01*
X054277Y012749D01*
X054344Y012682D01*
X054393Y012647D01*
X054286Y012540D01*
X053806Y012540D01*
X052979Y013367D01*
X052867Y013479D01*
X052760Y013523D01*
X052637Y013647D01*
X052686Y013682D01*
X052753Y013749D01*
X052808Y013826D01*
X052851Y013910D01*
X052880Y013999D01*
X052895Y014093D01*
X052895Y014140D01*
X052015Y014140D01*
X052015Y014140D01*
X052015Y014140D01*
X051135Y014140D01*
X051135Y014093D01*
X051150Y013999D01*
X051179Y013910D01*
X051222Y013826D01*
X051277Y013749D01*
X051344Y013682D01*
X051393Y013647D01*
X051286Y013540D01*
X050935Y013540D01*
X050788Y013479D01*
X049849Y012540D01*
X049744Y012540D01*
X049637Y012647D01*
X049686Y012682D01*
X049753Y012749D01*
X049808Y012826D01*
X049851Y012910D01*
X049880Y012999D01*
X049895Y013093D01*
X049895Y013140D01*
X049015Y013140D01*
X049015Y013140D01*
X049015Y013140D01*
X048135Y013140D01*
X048135Y013093D01*
X048150Y012999D01*
X048179Y012910D01*
X048222Y012826D01*
X048277Y012749D01*
X048344Y012682D01*
X048393Y012647D01*
X048226Y012480D01*
X048194Y012402D01*
X048040Y012556D01*
X048040Y013095D01*
X047979Y013242D01*
X047354Y013867D01*
X047242Y013979D01*
X047095Y014040D01*
X046887Y014040D01*
X046895Y014093D01*
X046895Y014140D01*
X046015Y014140D01*
X046015Y014140D01*
X046015Y014140D01*
X045135Y014140D01*
X045135Y014093D01*
X045146Y014024D01*
X045038Y013979D01*
X044099Y013040D01*
X043770Y013040D01*
X043770Y013079D01*
X044117Y013426D01*
X044229Y013538D01*
X044290Y013685D01*
X044290Y015595D01*
X044229Y015742D01*
X043770Y016201D01*
X043770Y016259D01*
X043679Y016480D01*
X043519Y016640D01*
X043589Y016570D02*
X045316Y016570D01*
X045298Y016729D02*
X043607Y016729D01*
X043715Y016887D02*
X045190Y016887D01*
X045135Y017046D02*
X043770Y017046D01*
X043770Y017204D02*
X045135Y017204D01*
X045178Y017363D02*
X044553Y017363D01*
X044712Y017521D02*
X045267Y017521D01*
X045347Y017680D02*
X044870Y017680D01*
X044765Y018140D02*
X046015Y018140D01*
X046683Y017680D02*
X048348Y017680D01*
X048267Y017521D02*
X046763Y017521D01*
X046852Y017363D02*
X048178Y017363D01*
X048135Y017204D02*
X046895Y017204D01*
X046895Y017046D02*
X048135Y017046D01*
X048190Y016887D02*
X046840Y016887D01*
X046732Y016729D02*
X048298Y016729D01*
X048316Y016570D02*
X046714Y016570D01*
X046830Y016412D02*
X048198Y016412D01*
X048135Y016253D02*
X046885Y016253D01*
X046895Y016095D02*
X048135Y016095D01*
X048170Y015936D02*
X046860Y015936D01*
X046773Y015778D02*
X048249Y015778D01*
X048374Y015619D02*
X046665Y015619D01*
X047015Y015140D02*
X046015Y015140D01*
X045365Y015619D02*
X044280Y015619D01*
X044290Y015461D02*
X045218Y015461D01*
X045153Y015302D02*
X044290Y015302D01*
X044290Y015144D02*
X045135Y015144D01*
X045150Y014985D02*
X044290Y014985D01*
X044290Y014827D02*
X045215Y014827D01*
X045358Y014668D02*
X044290Y014668D01*
X044290Y014510D02*
X045262Y014510D01*
X045173Y014351D02*
X044290Y014351D01*
X044290Y014193D02*
X045136Y014193D01*
X045144Y014034D02*
X044290Y014034D01*
X044290Y013876D02*
X044935Y013876D01*
X044776Y013717D02*
X044290Y013717D01*
X044237Y013559D02*
X044618Y013559D01*
X044459Y013400D02*
X044091Y013400D01*
X043932Y013242D02*
X044301Y013242D01*
X044142Y013083D02*
X043774Y013083D01*
X043265Y013140D02*
X043890Y013765D01*
X043265Y013140D02*
X042890Y013140D01*
X042015Y012140D02*
X044515Y012140D01*
X045515Y013140D01*
X046015Y013140D01*
X046770Y012766D02*
X047240Y012766D01*
X047240Y012608D02*
X046676Y012608D01*
X046816Y012449D02*
X047240Y012449D01*
X047248Y012291D02*
X046882Y012291D01*
X046895Y012132D02*
X047332Y012132D01*
X047491Y011974D02*
X046875Y011974D01*
X046810Y011815D02*
X047649Y011815D01*
X047808Y011657D02*
X046660Y011657D01*
X046495Y011498D02*
X047966Y011498D01*
X048015Y011365D02*
X047766Y011365D01*
X047415Y011014D01*
X047415Y010765D01*
X048015Y010765D01*
X048015Y010765D01*
X048015Y010765D01*
X048615Y010765D01*
X048615Y010516D01*
X048264Y010165D01*
X048015Y010165D01*
X048015Y010765D01*
X048015Y010765D01*
X048015Y010765D01*
X048015Y011365D01*
X048015Y011340D02*
X048015Y011340D01*
X048015Y011181D02*
X048015Y011181D01*
X048015Y011023D02*
X048015Y011023D01*
X048015Y010864D02*
X048015Y010864D01*
X048015Y010765D02*
X047415Y010765D01*
X047415Y010516D01*
X047766Y010165D01*
X048015Y010165D01*
X048015Y010765D01*
X048015Y010706D02*
X048015Y010706D01*
X048015Y010547D02*
X048015Y010547D01*
X048015Y010389D02*
X048015Y010389D01*
X048015Y010230D02*
X048015Y010230D01*
X048329Y010230D02*
X051576Y010230D01*
X051418Y010389D02*
X048487Y010389D01*
X048615Y010547D02*
X051415Y010547D01*
X051415Y010706D02*
X048615Y010706D01*
X048615Y010864D02*
X051415Y010864D01*
X051535Y011023D02*
X048606Y011023D01*
X048448Y011181D02*
X051535Y011181D01*
X051535Y011340D02*
X050405Y011340D01*
X050564Y011498D02*
X051535Y011498D01*
X051370Y011657D02*
X050722Y011657D01*
X050881Y011815D02*
X051220Y011815D01*
X051155Y011974D02*
X051039Y011974D01*
X050015Y012140D02*
X049015Y012140D01*
X048354Y012608D02*
X048040Y012608D01*
X048040Y012766D02*
X048265Y012766D01*
X048174Y012925D02*
X048040Y012925D01*
X048040Y013083D02*
X048137Y013083D01*
X048144Y013242D02*
X047979Y013242D01*
X047821Y013400D02*
X048194Y013400D01*
X048305Y013559D02*
X047662Y013559D01*
X047504Y013717D02*
X048309Y013717D01*
X048015Y014140D02*
X047015Y015140D01*
X047260Y015461D02*
X048226Y015461D01*
X048157Y015302D02*
X047419Y015302D01*
X047577Y015144D02*
X048135Y015144D01*
X048154Y014985D02*
X047736Y014985D01*
X047894Y014827D02*
X048221Y014827D01*
X048364Y014668D02*
X048053Y014668D01*
X047397Y014193D02*
X046894Y014193D01*
X046857Y014351D02*
X047238Y014351D01*
X047080Y014510D02*
X046768Y014510D01*
X046672Y014668D02*
X046921Y014668D01*
X047109Y014034D02*
X047555Y014034D01*
X047714Y013876D02*
X047345Y013876D01*
X048015Y014140D02*
X049015Y014140D01*
X050015Y014140D01*
X051140Y015265D01*
X051890Y015265D01*
X052015Y015140D01*
X052640Y015140D01*
X053640Y014140D01*
X055015Y014140D01*
X054309Y013717D02*
X052721Y013717D01*
X052725Y013559D02*
X054305Y013559D01*
X054194Y013400D02*
X052946Y013400D01*
X053104Y013242D02*
X054144Y013242D01*
X054137Y013083D02*
X053263Y013083D01*
X053421Y012925D02*
X054174Y012925D01*
X054265Y012766D02*
X053580Y012766D01*
X053738Y012608D02*
X054354Y012608D01*
X055015Y012140D02*
X053640Y012140D01*
X052640Y013140D01*
X052015Y013140D01*
X051015Y013140D01*
X050015Y012140D01*
X049917Y012608D02*
X049676Y012608D01*
X049765Y012766D02*
X050075Y012766D01*
X050234Y012925D02*
X049856Y012925D01*
X049893Y013083D02*
X050392Y013083D01*
X050551Y013242D02*
X049886Y013242D01*
X049836Y013400D02*
X050709Y013400D01*
X051305Y013559D02*
X049725Y013559D01*
X049721Y013717D02*
X051309Y013717D01*
X051196Y013876D02*
X050316Y013876D01*
X050475Y014034D02*
X051144Y014034D01*
X051136Y014193D02*
X050633Y014193D01*
X050792Y014351D02*
X051173Y014351D01*
X051262Y014510D02*
X050950Y014510D01*
X051109Y014668D02*
X051358Y014668D01*
X050611Y015302D02*
X049873Y015302D01*
X049895Y015144D02*
X050453Y015144D01*
X050294Y014985D02*
X049876Y014985D01*
X049809Y014827D02*
X050136Y014827D01*
X049977Y014668D02*
X049666Y014668D01*
X049804Y015461D02*
X050770Y015461D01*
X050949Y015619D02*
X049656Y015619D01*
X049781Y015778D02*
X051257Y015778D01*
X051170Y015936D02*
X049860Y015936D01*
X049895Y016095D02*
X051135Y016095D01*
X051145Y016253D02*
X049895Y016253D01*
X049832Y016412D02*
X051200Y016412D01*
X051316Y016570D02*
X049714Y016570D01*
X049732Y016729D02*
X051298Y016729D01*
X051190Y016887D02*
X049840Y016887D01*
X049895Y017046D02*
X051135Y017046D01*
X051135Y017204D02*
X049895Y017204D01*
X049852Y017363D02*
X051178Y017363D01*
X051267Y017521D02*
X049763Y017521D01*
X049682Y017680D02*
X051347Y017680D01*
X051015Y018140D02*
X050515Y018640D01*
X041765Y018640D01*
X040765Y019640D01*
X035265Y019640D01*
X034876Y020057D02*
X033248Y020057D01*
X033406Y020216D02*
X062249Y020216D01*
X062407Y020057D02*
X035654Y020057D01*
X034755Y019899D02*
X033089Y019899D01*
X032931Y019740D02*
X034695Y019740D01*
X034695Y019582D02*
X034630Y019582D01*
X034265Y019140D02*
X039890Y019140D01*
X040765Y018640D02*
X041765Y017640D01*
X044265Y017640D01*
X044765Y018140D01*
X045135Y019106D02*
X043770Y019106D01*
X043758Y019265D02*
X045137Y019265D01*
X045203Y019423D02*
X043699Y019423D01*
X043577Y019582D02*
X045328Y019582D01*
X046702Y019582D02*
X048328Y019582D01*
X048206Y019423D02*
X046827Y019423D01*
X046893Y019265D02*
X048147Y019265D01*
X048135Y019106D02*
X046895Y019106D01*
X046895Y018155D02*
X048135Y018155D01*
X048151Y017997D02*
X046885Y017997D01*
X046819Y017838D02*
X048215Y017838D01*
X049015Y019106D02*
X049015Y019106D01*
X049015Y019265D02*
X049015Y019265D01*
X049015Y019423D02*
X049015Y019423D01*
X049015Y019582D02*
X049015Y019582D01*
X049702Y019582D02*
X051328Y019582D01*
X051203Y019423D02*
X049824Y019423D01*
X049883Y019265D02*
X051137Y019265D01*
X051135Y019106D02*
X049895Y019106D01*
X050773Y018948D02*
X051165Y018948D01*
X051237Y018789D02*
X050932Y018789D01*
X051090Y018631D02*
X051377Y018631D01*
X051015Y018140D02*
X052015Y018140D01*
X052653Y018631D02*
X054389Y018631D01*
X054248Y018789D02*
X052793Y018789D01*
X052865Y018948D02*
X054167Y018948D01*
X054135Y019106D02*
X052895Y019106D01*
X052893Y019265D02*
X054147Y019265D01*
X054206Y019423D02*
X052827Y019423D01*
X052702Y019582D02*
X054328Y019582D01*
X055015Y019582D02*
X055015Y019582D01*
X055015Y019423D02*
X055015Y019423D01*
X055015Y019265D02*
X055015Y019265D01*
X055015Y019106D02*
X055015Y019106D01*
X055015Y018948D02*
X055015Y018948D01*
X055015Y018789D02*
X055015Y018789D01*
X055015Y018631D02*
X055015Y018631D01*
X055015Y018472D02*
X055015Y018472D01*
X055015Y018314D02*
X055015Y018314D01*
X055015Y018155D02*
X055015Y018155D01*
X055641Y018631D02*
X065240Y018631D01*
X065240Y018789D02*
X055782Y018789D01*
X055863Y018948D02*
X063643Y018948D01*
X063449Y019106D02*
X055895Y019106D01*
X055883Y019265D02*
X063200Y019265D01*
X063041Y019423D02*
X055824Y019423D01*
X055702Y019582D02*
X062883Y019582D01*
X062724Y019740D02*
X041231Y019740D01*
X041389Y019582D02*
X042203Y019582D01*
X042081Y019423D02*
X041548Y019423D01*
X041706Y019265D02*
X042022Y019265D01*
X042010Y019106D02*
X041865Y019106D01*
X042890Y019106D02*
X042890Y019106D01*
X042890Y019265D02*
X042890Y019265D01*
X042890Y019423D02*
X042890Y019423D01*
X042890Y019582D02*
X042890Y019582D01*
X041072Y019899D02*
X062566Y019899D01*
X062265Y020765D02*
X063515Y019515D01*
X064265Y019515D01*
X064887Y018948D02*
X065240Y018948D01*
X065240Y019106D02*
X065081Y019106D01*
X065174Y019265D02*
X065240Y019265D01*
X065225Y019423D02*
X065240Y019423D01*
X065225Y019582D02*
X065240Y019582D01*
X065240Y019740D02*
X065185Y019740D01*
X065240Y019899D02*
X065107Y019899D01*
X065032Y020057D02*
X065240Y020057D01*
X065240Y020216D02*
X065154Y020216D01*
X065219Y020374D02*
X065240Y020374D01*
X065225Y020533D02*
X065240Y020533D01*
X065240Y020691D02*
X065205Y020691D01*
X065240Y020850D02*
X065139Y020850D01*
X065240Y021008D02*
X064997Y021008D01*
X065133Y021167D02*
X065240Y021167D01*
X065240Y021325D02*
X065199Y021325D01*
X065225Y021484D02*
X065240Y021484D01*
X065240Y021801D02*
X065159Y021801D01*
X065240Y021959D02*
X065046Y021959D01*
X065093Y022118D02*
X065240Y022118D01*
X065188Y022276D02*
X065179Y022276D01*
X065640Y022390D02*
X065015Y023015D01*
X063390Y023015D01*
X062890Y022515D01*
X052890Y022515D01*
X052265Y023140D01*
X052585Y023386D02*
X055290Y023386D01*
X055290Y023544D02*
X052334Y023544D01*
X052333Y023540D02*
X052350Y023594D01*
X052365Y023688D01*
X052365Y024015D01*
X052365Y024342D01*
X052350Y024435D01*
X052321Y024525D01*
X052278Y024609D01*
X052223Y024686D01*
X052156Y024753D01*
X052079Y024808D01*
X051995Y024851D01*
X051952Y024865D01*
X055599Y024865D01*
X056112Y024353D01*
X056009Y024395D01*
X055771Y024395D01*
X055550Y024304D01*
X055381Y024135D01*
X055290Y023914D01*
X055290Y023116D01*
X055373Y022915D01*
X053056Y022915D01*
X052604Y023367D01*
X052492Y023479D01*
X052345Y023540D01*
X052333Y023540D01*
X052365Y023703D02*
X055290Y023703D01*
X055290Y023861D02*
X052365Y023861D01*
X052365Y024015D02*
X051765Y024015D01*
X052365Y024015D01*
X052365Y024020D02*
X055334Y024020D01*
X055425Y024178D02*
X052365Y024178D01*
X052365Y024337D02*
X055630Y024337D01*
X055811Y024654D02*
X052246Y024654D01*
X052331Y024495D02*
X055969Y024495D01*
X055652Y024812D02*
X052072Y024812D01*
X051765Y024015D02*
X051765Y024015D01*
X051765Y024015D01*
X050765Y024015D01*
X050765Y024015D01*
X051365Y024015D01*
X051765Y024015D01*
X052744Y023227D02*
X055290Y023227D01*
X055310Y023069D02*
X052902Y023069D01*
X055765Y025265D02*
X056890Y024140D01*
X056890Y023515D01*
X058890Y023515D02*
X058890Y024140D01*
X057390Y025640D01*
X048390Y025640D01*
X047765Y026265D01*
X047765Y027015D01*
X047287Y027665D02*
X047243Y027665D01*
X047057Y027824D02*
X047473Y027824D01*
X048057Y027824D02*
X048481Y027824D01*
X048292Y027665D02*
X048243Y027665D01*
X048765Y027665D02*
X048765Y027665D01*
X048765Y027507D02*
X048765Y027507D01*
X048765Y027348D02*
X048765Y027348D01*
X048765Y027190D02*
X048765Y027190D01*
X048765Y027031D02*
X048765Y027031D01*
X048765Y026873D02*
X048765Y026873D01*
X048765Y026714D02*
X048765Y026714D01*
X048765Y026556D02*
X048765Y026556D01*
X048765Y026397D02*
X048765Y026397D01*
X048765Y026239D02*
X048765Y026239D01*
X049009Y026080D02*
X048516Y026080D01*
X048428Y026239D02*
X048357Y026239D01*
X049265Y026390D02*
X049265Y028265D01*
X048765Y028765D01*
X033890Y028765D01*
X033265Y029390D01*
X013890Y029390D01*
X011890Y027390D01*
X011890Y026890D01*
X011537Y027665D02*
X011370Y027665D01*
X011370Y027824D02*
X011758Y027824D01*
X011916Y027982D02*
X011370Y027982D01*
X011489Y028141D02*
X012075Y028141D01*
X012233Y028299D02*
X011490Y028299D01*
X011490Y028458D02*
X012392Y028458D01*
X012550Y028616D02*
X011490Y028616D01*
X011354Y028775D02*
X012709Y028775D01*
X012867Y028933D02*
X011195Y028933D01*
X010410Y027665D02*
X007145Y027665D01*
X006433Y029567D02*
X006097Y029567D01*
X006256Y029726D02*
X006274Y029726D01*
X005765Y030140D02*
X006265Y030640D01*
X007140Y030640D01*
X007640Y030140D01*
X005125Y031311D02*
X004270Y031311D01*
X004270Y031469D02*
X005189Y031469D01*
X005347Y031628D02*
X004270Y031628D01*
X004270Y031786D02*
X005214Y031786D01*
X005125Y031945D02*
X004270Y031945D01*
X004270Y032103D02*
X005125Y032103D01*
X005125Y032262D02*
X004270Y032262D01*
X004270Y032420D02*
X005140Y032420D01*
X005298Y032579D02*
X004270Y032579D01*
X004270Y032737D02*
X005263Y032737D01*
X005069Y032896D02*
X004270Y032896D01*
X004270Y033054D02*
X004910Y033054D01*
X004752Y033213D02*
X004270Y033213D01*
X004270Y033371D02*
X004593Y033371D01*
X004435Y033530D02*
X004270Y033530D01*
X004270Y033688D02*
X004276Y033688D01*
X004515Y034015D02*
X004515Y037640D01*
X005390Y038515D01*
X007640Y038515D01*
X009515Y036640D01*
X012015Y036640D01*
X013015Y037640D01*
X014765Y037640D01*
X016265Y036140D01*
X016640Y036140D01*
X017640Y037140D02*
X018265Y037765D01*
X022015Y037765D01*
X024140Y035515D01*
X025890Y035515D01*
X026265Y035890D01*
X026265Y037515D01*
X027765Y039015D01*
X027765Y039515D01*
X027265Y039015D02*
X027265Y040140D01*
X027515Y040390D01*
X029140Y040390D01*
X029765Y039765D01*
X029765Y039515D01*
X030139Y038760D02*
X030391Y038760D01*
X031139Y038760D02*
X031391Y038760D01*
X032115Y038602D02*
X027917Y038602D01*
X027759Y038443D02*
X032115Y038443D01*
X032115Y038285D02*
X027600Y038285D01*
X027442Y038126D02*
X032115Y038126D01*
X032115Y037968D02*
X027283Y037968D01*
X027125Y037809D02*
X028743Y037809D01*
X028788Y037854D02*
X028676Y037742D01*
X028426Y037492D01*
X026808Y037492D01*
X026966Y037651D02*
X028585Y037651D01*
X028426Y037492D02*
X028365Y037345D01*
X028365Y037244D01*
X028265Y037144D01*
X028233Y037175D02*
X028297Y037175D01*
X028365Y037334D02*
X028033Y037334D01*
X027497Y037334D02*
X027033Y037334D01*
X027233Y037175D02*
X027297Y037175D01*
X026765Y036515D02*
X026765Y035765D01*
X026140Y035140D01*
X024015Y035140D01*
X022515Y036640D01*
X019015Y036640D01*
X018140Y035765D01*
X018140Y034640D01*
X017640Y034140D01*
X016640Y034140D01*
X017140Y034140D01*
X016640Y033140D02*
X016015Y033140D01*
X015515Y032640D01*
X006265Y032640D01*
X005765Y032140D01*
X005765Y033140D02*
X005390Y033140D01*
X004515Y034015D01*
X005265Y034640D02*
X004953Y034953D01*
X004953Y037453D01*
X005640Y038140D01*
X007140Y038140D01*
X009640Y035640D01*
X011890Y035640D01*
X013390Y037140D01*
X013890Y037140D01*
X013890Y038140D02*
X015015Y038140D01*
X017265Y040390D01*
X016640Y040765D02*
X030140Y040765D01*
X030765Y040140D01*
X030765Y039515D01*
X029391Y038760D02*
X029139Y038760D01*
X028391Y038760D02*
X028139Y038760D01*
X028788Y037854D02*
X028935Y037915D01*
X030095Y037915D01*
X030242Y037854D01*
X030492Y037604D01*
X030604Y037492D01*
X030445Y037651D02*
X032115Y037651D01*
X032115Y037809D02*
X030287Y037809D01*
X031033Y037334D02*
X031500Y037334D01*
X031299Y037175D02*
X031233Y037175D01*
X029765Y036515D02*
X029765Y036390D01*
X028140Y034765D01*
X023765Y034765D01*
X022390Y036140D01*
X019640Y036140D01*
X019640Y035140D02*
X020140Y035140D01*
X021640Y033640D01*
X021640Y030765D01*
X022040Y030931D02*
X022040Y033720D01*
X021979Y033867D01*
X021856Y033990D01*
X022516Y033990D01*
X022415Y033889D01*
X022415Y033391D01*
X022766Y033040D01*
X023032Y033040D01*
X023045Y033035D01*
X024198Y033035D01*
X024256Y032895D01*
X024425Y032726D01*
X024646Y032635D01*
X024884Y032635D01*
X025105Y032726D01*
X025272Y032893D01*
X025307Y032844D01*
X025374Y032777D01*
X025451Y032722D01*
X025535Y032679D01*
X025624Y032650D01*
X025718Y032635D01*
X025765Y032635D01*
X025812Y032635D01*
X025905Y032650D01*
X025995Y032679D01*
X026079Y032722D01*
X026156Y032777D01*
X026223Y032844D01*
X026258Y032893D01*
X026425Y032726D01*
X026646Y032635D01*
X026884Y032635D01*
X027105Y032726D01*
X027265Y032886D01*
X027425Y032726D01*
X027646Y032635D01*
X027884Y032635D01*
X028105Y032726D01*
X028265Y032886D01*
X028425Y032726D01*
X028646Y032635D01*
X028884Y032635D01*
X029105Y032726D01*
X029265Y032886D01*
X029418Y032734D01*
X028849Y032165D01*
X026435Y032165D01*
X026288Y032104D01*
X026176Y031992D01*
X026176Y031992D01*
X025538Y031354D01*
X025532Y031348D01*
X025425Y031304D01*
X025265Y031144D01*
X025105Y031304D01*
X024884Y031395D01*
X024646Y031395D01*
X024425Y031304D01*
X024256Y031135D01*
X024165Y030914D01*
X024165Y030165D01*
X022806Y030165D01*
X022040Y030931D01*
X022040Y030994D02*
X024198Y030994D01*
X024165Y030835D02*
X022136Y030835D01*
X022294Y030677D02*
X024165Y030677D01*
X024165Y030518D02*
X022453Y030518D01*
X022611Y030360D02*
X024165Y030360D01*
X024165Y030201D02*
X022770Y030201D01*
X022766Y031040D02*
X022415Y031391D01*
X022415Y031640D01*
X023015Y031640D01*
X023015Y031640D01*
X023015Y032240D01*
X023264Y032240D01*
X023615Y031889D01*
X023615Y031640D01*
X023015Y031640D01*
X023015Y031640D01*
X023015Y031640D01*
X023015Y032240D01*
X022766Y032240D01*
X022415Y031889D01*
X022415Y031640D01*
X023015Y031640D01*
X023615Y031640D01*
X023615Y031391D01*
X023264Y031040D01*
X023015Y031040D01*
X023015Y031640D01*
X023015Y031640D01*
X023015Y031040D01*
X022766Y031040D01*
X022654Y031152D02*
X022040Y031152D01*
X022040Y031311D02*
X022496Y031311D01*
X022415Y031469D02*
X022040Y031469D01*
X022040Y031628D02*
X022415Y031628D01*
X022415Y031786D02*
X022040Y031786D01*
X022040Y031945D02*
X022471Y031945D01*
X022630Y032103D02*
X022040Y032103D01*
X022040Y032262D02*
X028946Y032262D01*
X029104Y032420D02*
X022040Y032420D01*
X022040Y032579D02*
X029263Y032579D01*
X029116Y032737D02*
X029414Y032737D01*
X029890Y032640D02*
X032765Y032640D01*
X033765Y033640D01*
X033765Y040390D01*
X032015Y042140D01*
X011890Y042140D01*
X010015Y040265D01*
X010015Y038640D01*
X010515Y038140D01*
X010890Y038140D01*
X011519Y037640D02*
X011679Y037800D01*
X011770Y038021D01*
X011770Y038259D01*
X011679Y038480D01*
X011519Y038640D01*
X011679Y038800D01*
X011770Y039021D01*
X011770Y039259D01*
X011679Y039480D01*
X011510Y039649D01*
X011289Y039740D01*
X010491Y039740D01*
X010415Y039709D01*
X010415Y040099D01*
X012056Y041740D01*
X015675Y041740D01*
X015615Y041595D01*
X015615Y041139D01*
X015389Y041365D01*
X015140Y041365D01*
X015140Y040765D01*
X015140Y040765D01*
X015140Y040765D01*
X014540Y040765D01*
X014540Y041014D01*
X014891Y041365D01*
X015140Y041365D01*
X015140Y040765D01*
X014540Y040765D01*
X014540Y040516D01*
X014891Y040165D01*
X015099Y040165D01*
X014894Y039960D01*
X014777Y039960D01*
X014567Y039873D01*
X014407Y039713D01*
X014399Y039695D01*
X014370Y039707D01*
X014370Y040110D01*
X014297Y040287D01*
X014162Y040422D01*
X013740Y040844D01*
X013740Y041014D01*
X013389Y041365D01*
X012891Y041365D01*
X012540Y041014D01*
X012540Y040516D01*
X012891Y040165D01*
X013061Y040165D01*
X013410Y039816D01*
X013410Y039707D01*
X013270Y039649D01*
X013101Y039480D01*
X013010Y039259D01*
X013010Y039021D01*
X013101Y038800D01*
X013261Y038640D01*
X013101Y038480D01*
X013010Y038259D01*
X013010Y038040D01*
X012935Y038040D01*
X012788Y037979D01*
X011849Y037040D01*
X011770Y037040D01*
X011770Y037259D01*
X011679Y037480D01*
X011519Y037640D01*
X011529Y037651D02*
X012460Y037651D01*
X012618Y037809D02*
X011682Y037809D01*
X011748Y037968D02*
X012777Y037968D01*
X013010Y038126D02*
X011770Y038126D01*
X011760Y038285D02*
X013020Y038285D01*
X013086Y038443D02*
X011694Y038443D01*
X011557Y038602D02*
X013223Y038602D01*
X013141Y038760D02*
X011639Y038760D01*
X011728Y038919D02*
X013052Y038919D01*
X013010Y039077D02*
X011770Y039077D01*
X011770Y039236D02*
X013010Y039236D01*
X013066Y039394D02*
X011714Y039394D01*
X011606Y039553D02*
X013174Y039553D01*
X013410Y039711D02*
X011359Y039711D01*
X010661Y040345D02*
X012711Y040345D01*
X012553Y040504D02*
X010819Y040504D01*
X010978Y040662D02*
X012540Y040662D01*
X012540Y040821D02*
X011136Y040821D01*
X011295Y040979D02*
X012540Y040979D01*
X012664Y041138D02*
X011453Y041138D01*
X011612Y041296D02*
X012823Y041296D01*
X013457Y041296D02*
X014823Y041296D01*
X014664Y041138D02*
X013616Y041138D01*
X013740Y040979D02*
X014540Y040979D01*
X014540Y040821D02*
X013763Y040821D01*
X013922Y040662D02*
X014540Y040662D01*
X014553Y040504D02*
X014080Y040504D01*
X014239Y040345D02*
X014711Y040345D01*
X014870Y040187D02*
X014338Y040187D01*
X014370Y040028D02*
X014962Y040028D01*
X014563Y039870D02*
X014370Y039870D01*
X014370Y039711D02*
X014406Y039711D01*
X014890Y039390D02*
X016015Y040515D01*
X016015Y041515D01*
X016265Y041765D01*
X031890Y041765D01*
X033015Y040640D01*
X033015Y034765D01*
X034540Y034798D02*
X036290Y034798D01*
X036290Y034956D02*
X034540Y034956D01*
X034540Y035115D02*
X036290Y035115D01*
X036425Y035273D02*
X034540Y035273D01*
X034540Y035432D02*
X036583Y035432D01*
X037197Y035432D02*
X038583Y035432D01*
X038499Y035590D02*
X034540Y035590D01*
X034540Y035749D02*
X038391Y035749D01*
X038251Y035907D02*
X034540Y035907D01*
X034540Y036066D02*
X038186Y036066D01*
X038765Y035890D02*
X038765Y036515D01*
X036390Y036515D01*
X035265Y037640D01*
X035835Y037651D02*
X036790Y037651D01*
X036790Y037515D02*
X036790Y037266D01*
X037141Y036915D01*
X037390Y036915D01*
X037639Y036915D01*
X037990Y037266D01*
X037990Y037515D01*
X037390Y037515D01*
X037390Y037515D01*
X037390Y036915D01*
X037390Y037515D01*
X037390Y037515D01*
X037390Y037515D01*
X036790Y037515D01*
X036790Y037492D02*
X035979Y037492D01*
X036137Y037334D02*
X036790Y037334D01*
X036881Y037175D02*
X036296Y037175D01*
X036454Y037017D02*
X037040Y037017D01*
X037390Y037017D02*
X037390Y037017D01*
X037390Y037175D02*
X037390Y037175D01*
X037390Y037334D02*
X037390Y037334D01*
X037390Y037492D02*
X037390Y037492D01*
X037740Y037017D02*
X038207Y037017D01*
X038297Y037175D02*
X037899Y037175D01*
X037990Y037334D02*
X038497Y037334D01*
X037990Y037492D02*
X039097Y037492D01*
X039033Y037334D02*
X039256Y037334D01*
X039233Y037175D02*
X039297Y037175D01*
X039765Y037390D02*
X039765Y036515D01*
X039765Y035765D01*
X041765Y033765D01*
X041765Y033265D01*
X040765Y033265D02*
X040765Y033265D01*
X040765Y034145D01*
X040812Y034145D01*
X040821Y034144D01*
X040665Y034299D01*
X040665Y034137D01*
X040718Y034145D01*
X040765Y034145D01*
X040765Y033265D01*
X040765Y033371D02*
X040765Y033371D01*
X040765Y033530D02*
X040765Y033530D01*
X040765Y033688D02*
X040765Y033688D01*
X040765Y033847D02*
X040765Y033847D01*
X040765Y034005D02*
X040765Y034005D01*
X040801Y034164D02*
X040665Y034164D01*
X040265Y034390D02*
X040265Y032765D01*
X040640Y032390D01*
X042390Y032390D01*
X042765Y032765D01*
X042765Y033265D01*
X043765Y033265D02*
X043765Y033765D01*
X042890Y034640D01*
X041390Y034640D01*
X040765Y035265D01*
X040765Y036515D01*
X041765Y036515D02*
X042765Y036515D01*
X042765Y039515D01*
X043765Y039515D01*
X043391Y038760D02*
X043165Y038760D01*
X043165Y038602D02*
X066502Y038602D01*
X066502Y038760D02*
X045139Y038760D01*
X045283Y038919D02*
X066502Y038919D01*
X066502Y039077D02*
X045349Y039077D01*
X045365Y039236D02*
X066502Y039236D01*
X066502Y039394D02*
X045365Y039394D01*
X045365Y039553D02*
X058947Y039553D01*
X059000Y039500D02*
X059245Y039500D01*
X059245Y040120D01*
X059285Y040120D01*
X059285Y040160D01*
X060245Y040160D01*
X060245Y041120D01*
X059625Y041120D01*
X059285Y041120D01*
X059285Y040500D01*
X059285Y040160D01*
X059245Y040160D01*
X059245Y040120D01*
X058625Y040120D01*
X058625Y039875D01*
X059000Y039500D01*
X059245Y039553D02*
X059285Y039553D01*
X059285Y039500D02*
X059530Y039500D01*
X059765Y039735D01*
X060000Y039500D01*
X060245Y039500D01*
X060245Y040120D01*
X060285Y040120D01*
X060285Y040160D01*
X060245Y040160D01*
X060245Y040120D01*
X059625Y040120D01*
X059285Y040120D01*
X059285Y039500D01*
X059285Y039711D02*
X059245Y039711D01*
X059245Y039870D02*
X059285Y039870D01*
X059285Y040028D02*
X059245Y040028D01*
X059245Y040187D02*
X059285Y040187D01*
X059285Y040345D02*
X059245Y040345D01*
X059245Y040504D02*
X059285Y040504D01*
X059285Y040662D02*
X059245Y040662D01*
X059245Y040821D02*
X059285Y040821D01*
X059285Y040979D02*
X059245Y040979D01*
X059245Y041138D02*
X034083Y041138D01*
X033925Y041296D02*
X058625Y041296D01*
X058674Y041455D02*
X033766Y041455D01*
X033608Y041613D02*
X058833Y041613D01*
X058991Y041772D02*
X033449Y041772D01*
X033291Y041930D02*
X064830Y041930D01*
X064721Y041772D02*
X060539Y041772D01*
X060697Y041613D02*
X064629Y041613D01*
X064586Y041455D02*
X060856Y041455D01*
X060905Y041296D02*
X064545Y041296D01*
X064545Y041138D02*
X060285Y041138D01*
X060245Y041138D02*
X059285Y041138D01*
X059285Y041296D02*
X059245Y041296D01*
X059245Y041455D02*
X059285Y041455D01*
X059285Y041613D02*
X059245Y041613D01*
X059245Y041772D02*
X059285Y041772D01*
X059539Y041772D02*
X059991Y041772D01*
X059833Y041613D02*
X059697Y041613D01*
X060245Y041613D02*
X060285Y041613D01*
X060285Y041455D02*
X060245Y041455D01*
X060245Y041296D02*
X060285Y041296D01*
X060285Y040979D02*
X060245Y040979D01*
X060245Y040821D02*
X060285Y040821D01*
X060285Y040662D02*
X060245Y040662D01*
X060245Y040504D02*
X060285Y040504D01*
X060285Y040345D02*
X060245Y040345D01*
X060245Y040187D02*
X060285Y040187D01*
X060285Y040120D02*
X060905Y040120D01*
X060905Y039875D01*
X060530Y039500D01*
X060285Y039500D01*
X060285Y040120D01*
X060285Y040028D02*
X060245Y040028D01*
X060245Y039870D02*
X060285Y039870D01*
X060285Y039711D02*
X060245Y039711D01*
X060245Y039553D02*
X060285Y039553D01*
X060583Y039553D02*
X066502Y039553D01*
X066502Y039711D02*
X060741Y039711D01*
X060900Y039870D02*
X066502Y039870D01*
X066502Y040028D02*
X066279Y040028D01*
X065251Y040028D02*
X060905Y040028D01*
X060905Y040187D02*
X064993Y040187D01*
X064835Y040345D02*
X060905Y040345D01*
X060807Y040504D02*
X064724Y040504D01*
X064632Y040662D02*
X060692Y040662D01*
X060285Y041772D02*
X060245Y041772D01*
X058838Y040662D02*
X042684Y040662D01*
X042842Y040504D02*
X058723Y040504D01*
X058625Y040345D02*
X045005Y040345D01*
X045222Y040187D02*
X058625Y040187D01*
X058625Y040028D02*
X045318Y040028D01*
X045365Y039870D02*
X058630Y039870D01*
X058789Y039711D02*
X045365Y039711D01*
X044525Y040345D02*
X044005Y040345D01*
X044222Y040187D02*
X044308Y040187D01*
X043525Y040345D02*
X043005Y040345D01*
X043222Y040187D02*
X043308Y040187D01*
X042765Y040015D02*
X042765Y039515D01*
X042765Y040015D02*
X042390Y040390D01*
X041140Y040390D01*
X040765Y040015D01*
X040765Y039515D01*
X039765Y039515D01*
X038765Y039515D01*
X038212Y040028D02*
X037725Y040028D01*
X038308Y040187D02*
X034540Y040187D01*
X034540Y040345D02*
X038525Y040345D01*
X039005Y040345D02*
X039525Y040345D01*
X039308Y040187D02*
X039222Y040187D01*
X040005Y040345D02*
X040525Y040345D01*
X040688Y040504D02*
X034540Y040504D01*
X034512Y040662D02*
X040846Y040662D01*
X040308Y040187D02*
X040222Y040187D01*
X038391Y038760D02*
X036586Y038760D01*
X036427Y038919D02*
X037138Y038919D01*
X036979Y039077D02*
X036269Y039077D01*
X036110Y039236D02*
X036821Y039236D01*
X036790Y039394D02*
X035952Y039394D01*
X035835Y039553D02*
X036790Y039553D01*
X036790Y039711D02*
X035801Y039711D01*
X035717Y039870D02*
X036896Y039870D01*
X037055Y040028D02*
X035516Y040028D01*
X035014Y040028D02*
X034540Y040028D01*
X034540Y039870D02*
X034813Y039870D01*
X034729Y039711D02*
X034540Y039711D01*
X034540Y039553D02*
X034695Y039553D01*
X034698Y039394D02*
X034540Y039394D01*
X034540Y039236D02*
X034764Y039236D01*
X034897Y039077D02*
X034540Y039077D01*
X034540Y038919D02*
X035296Y038919D01*
X035454Y038760D02*
X034540Y038760D01*
X034540Y038602D02*
X035613Y038602D01*
X035771Y038443D02*
X034540Y038443D01*
X034540Y038285D02*
X035930Y038285D01*
X036088Y038126D02*
X035581Y038126D01*
X035744Y037968D02*
X036247Y037968D01*
X036515Y038265D02*
X038890Y038265D01*
X039765Y037390D01*
X038939Y037651D02*
X037990Y037651D01*
X037944Y037809D02*
X038780Y037809D01*
X038247Y038919D02*
X037642Y038919D01*
X036515Y038265D02*
X035265Y039515D01*
X034140Y040515D02*
X034140Y033390D01*
X033015Y032265D01*
X030015Y032265D01*
X028765Y031015D01*
X028765Y030515D01*
X029765Y030515D02*
X029765Y031265D01*
X030390Y031890D01*
X033265Y031890D01*
X033765Y032390D01*
X039890Y032390D01*
X040265Y032015D01*
X044015Y032015D01*
X044765Y032765D01*
X044765Y033265D01*
X044377Y034005D02*
X044153Y034005D01*
X044765Y035635D02*
X044765Y036515D01*
X044765Y035635D01*
X044765Y035749D02*
X044765Y035749D01*
X044765Y035907D02*
X044765Y035907D01*
X044765Y036066D02*
X044765Y036066D01*
X044765Y036224D02*
X044765Y036224D01*
X044765Y036383D02*
X044765Y036383D01*
X044765Y036515D02*
X044765Y036515D01*
X044765Y036541D02*
X044765Y036541D01*
X044765Y036700D02*
X044765Y036700D01*
X044765Y036858D02*
X044765Y036858D01*
X044765Y037017D02*
X044765Y037017D01*
X044765Y037175D02*
X044765Y037175D01*
X044765Y037334D02*
X044765Y037334D01*
X045030Y037334D02*
X049360Y037334D01*
X049516Y037490D02*
X049165Y037139D01*
X049165Y036890D01*
X049765Y036890D01*
X049765Y036890D01*
X049765Y037490D01*
X050014Y037490D01*
X050365Y037139D01*
X050365Y036890D01*
X049765Y036890D01*
X049765Y036890D01*
X049765Y036890D01*
X049765Y037490D01*
X049516Y037490D01*
X049765Y037334D02*
X049765Y037334D01*
X049765Y037175D02*
X049765Y037175D01*
X049765Y037017D02*
X049765Y037017D01*
X049765Y036890D02*
X049165Y036890D01*
X049165Y036641D01*
X049516Y036290D01*
X049765Y036290D01*
X050014Y036290D01*
X050365Y036641D01*
X050365Y036890D01*
X049765Y036890D01*
X049765Y036290D01*
X049765Y036890D01*
X049765Y036890D01*
X049765Y036858D02*
X049765Y036858D01*
X049765Y036700D02*
X049765Y036700D01*
X049765Y036541D02*
X049765Y036541D01*
X049765Y036383D02*
X049765Y036383D01*
X050106Y036383D02*
X066502Y036383D01*
X066502Y036541D02*
X050265Y036541D01*
X050365Y036700D02*
X066502Y036700D01*
X066502Y036858D02*
X050365Y036858D01*
X050365Y037017D02*
X066502Y037017D01*
X066502Y037175D02*
X050328Y037175D01*
X050170Y037334D02*
X066502Y037334D01*
X066502Y037492D02*
X043165Y037492D01*
X043165Y037334D02*
X043497Y037334D01*
X043297Y037175D02*
X043233Y037175D01*
X043165Y037651D02*
X066502Y037651D01*
X066502Y037809D02*
X043165Y037809D01*
X043165Y037968D02*
X066502Y037968D01*
X066502Y038126D02*
X043165Y038126D01*
X043165Y038285D02*
X066502Y038285D01*
X066502Y038443D02*
X043165Y038443D01*
X044139Y038760D02*
X044391Y038760D01*
X044500Y037334D02*
X044033Y037334D01*
X044233Y037175D02*
X044299Y037175D01*
X045231Y037175D02*
X049202Y037175D01*
X049165Y037017D02*
X045324Y037017D01*
X045362Y036858D02*
X049165Y036858D01*
X049165Y036700D02*
X045365Y036700D01*
X045365Y036541D02*
X049265Y036541D01*
X049424Y036383D02*
X045365Y036383D01*
X045365Y036224D02*
X066502Y036224D01*
X066502Y036066D02*
X045341Y036066D01*
X045268Y035907D02*
X066502Y035907D01*
X066502Y035749D02*
X045116Y035749D01*
X044414Y035749D02*
X044127Y035749D01*
X043403Y035749D02*
X043127Y035749D01*
X042403Y035749D02*
X042127Y035749D01*
X041403Y035749D02*
X041165Y035749D01*
X040265Y034390D02*
X038765Y035890D01*
X038425Y035273D02*
X037355Y035273D01*
X037490Y035115D02*
X038290Y035115D01*
X038290Y034956D02*
X037490Y034956D01*
X037490Y034798D02*
X038290Y034798D01*
X038290Y034890D02*
X038290Y034641D01*
X038641Y034290D01*
X038890Y034290D01*
X038890Y034890D01*
X038890Y034890D01*
X038890Y034890D01*
X038290Y034890D01*
X038292Y034639D02*
X037488Y034639D01*
X037418Y034481D02*
X038451Y034481D01*
X038609Y034322D02*
X037436Y034322D01*
X037454Y034164D02*
X039865Y034164D01*
X039767Y034322D02*
X039171Y034322D01*
X039329Y034481D02*
X039609Y034481D01*
X039377Y034005D02*
X039153Y034005D01*
X038765Y034005D02*
X038765Y034005D01*
X038765Y033847D02*
X038765Y033847D01*
X038765Y033688D02*
X038765Y033688D01*
X038765Y033530D02*
X038765Y033530D01*
X038765Y033371D02*
X038765Y033371D01*
X038377Y034005D02*
X038153Y034005D01*
X038890Y034322D02*
X038890Y034322D01*
X038890Y034481D02*
X038890Y034481D01*
X038890Y034639D02*
X038890Y034639D01*
X038890Y034798D02*
X038890Y034798D01*
X036451Y034481D02*
X034540Y034481D01*
X034540Y034639D02*
X036292Y034639D01*
X036470Y034322D02*
X034540Y034322D01*
X034540Y034164D02*
X036488Y034164D01*
X036505Y034005D02*
X034540Y034005D01*
X034540Y033847D02*
X036523Y033847D01*
X036535Y033688D02*
X034540Y033688D01*
X034540Y033530D02*
X036593Y033530D01*
X036730Y033371D02*
X034540Y033371D01*
X034499Y033213D02*
X036889Y033213D01*
X037047Y033054D02*
X034370Y033054D01*
X034211Y032896D02*
X037165Y032896D01*
X037028Y031469D02*
X030535Y031469D01*
X030442Y031311D02*
X030376Y031311D01*
X030274Y031152D02*
X030256Y031152D01*
X031088Y031311D02*
X031455Y031311D01*
X031283Y031152D02*
X031256Y031152D01*
X031765Y031152D02*
X031765Y031152D01*
X031765Y030994D02*
X031765Y030994D01*
X031765Y030835D02*
X031765Y030835D01*
X031765Y030677D02*
X031765Y030677D01*
X031765Y030518D02*
X031765Y030518D01*
X031765Y030515D02*
X031765Y030515D01*
X031365Y030515D01*
X031365Y030515D01*
X031765Y030515D01*
X031765Y030165D01*
X031765Y030165D01*
X031765Y030515D01*
X031765Y030515D01*
X031765Y030360D02*
X031765Y030360D01*
X031765Y030201D02*
X031765Y030201D01*
X032365Y030201D02*
X035760Y030201D01*
X035919Y030360D02*
X032365Y030360D01*
X032365Y030518D02*
X036077Y030518D01*
X036236Y030677D02*
X032365Y030677D01*
X032365Y030835D02*
X036394Y030835D01*
X036553Y030994D02*
X032331Y030994D01*
X032247Y031152D02*
X036711Y031152D01*
X036870Y031311D02*
X032075Y031311D01*
X031765Y031311D02*
X031765Y031311D01*
X033568Y031628D02*
X040155Y031628D01*
X039928Y031786D02*
X033727Y031786D01*
X033885Y031945D02*
X039770Y031945D01*
X039285Y031311D02*
X051865Y031311D01*
X051865Y031469D02*
X039127Y031469D01*
X039444Y031152D02*
X051865Y031152D01*
X051765Y030994D02*
X051765Y030994D01*
X051765Y030835D02*
X051765Y030835D01*
X051765Y030677D02*
X051765Y030677D01*
X051765Y030518D02*
X051765Y030518D01*
X051765Y030360D02*
X051765Y030360D01*
X051365Y030994D02*
X051165Y030994D01*
X050365Y030994D02*
X050165Y030994D01*
X050765Y030265D02*
X050765Y029765D01*
X050140Y029140D01*
X039390Y029140D01*
X038765Y029765D01*
X038765Y030265D01*
X037765Y030265D02*
X037765Y029385D01*
X037812Y029385D01*
X037905Y029400D01*
X037995Y029429D01*
X038079Y029472D01*
X038156Y029527D01*
X038223Y029594D01*
X038258Y029643D01*
X038425Y029476D01*
X038532Y029432D01*
X038799Y029165D01*
X034056Y029165D01*
X033856Y029365D01*
X035970Y029365D01*
X036117Y029426D01*
X036229Y029538D01*
X037165Y030474D01*
X037165Y030265D01*
X037765Y030265D01*
X037765Y030265D01*
X037765Y030265D01*
X037765Y029385D01*
X037718Y029385D01*
X037624Y029400D01*
X037535Y029429D01*
X037451Y029472D01*
X037374Y029527D01*
X037307Y029594D01*
X037252Y029671D01*
X037209Y029755D01*
X037180Y029844D01*
X037165Y029938D01*
X037165Y030265D01*
X037765Y030265D01*
X037765Y030201D02*
X037765Y030201D01*
X037765Y030043D02*
X037765Y030043D01*
X037765Y029884D02*
X037765Y029884D01*
X037765Y029726D02*
X037765Y029726D01*
X037765Y029567D02*
X037765Y029567D01*
X037765Y029409D02*
X037765Y029409D01*
X037932Y029409D02*
X038556Y029409D01*
X038714Y029250D02*
X033971Y029250D01*
X032765Y028890D02*
X028890Y028890D01*
X028140Y028890D02*
X014390Y028890D01*
X012890Y027390D01*
X012890Y026890D01*
X013890Y026890D02*
X013890Y027390D01*
X014890Y028390D01*
X029640Y028390D01*
X029890Y027890D02*
X030390Y028390D01*
X030788Y027982D02*
X033107Y027982D01*
X033021Y027895D02*
X032800Y027804D01*
X032640Y027644D01*
X032480Y027804D01*
X032259Y027895D01*
X032021Y027895D01*
X031800Y027804D01*
X031633Y027637D01*
X031598Y027686D01*
X031531Y027753D01*
X031454Y027808D01*
X031370Y027851D01*
X031280Y027880D01*
X031187Y027895D01*
X031140Y027895D01*
X031140Y027015D01*
X031540Y027015D01*
X031540Y027015D01*
X031140Y027015D01*
X031140Y027015D01*
X031140Y027015D01*
X031140Y026290D01*
X031140Y026290D01*
X031140Y027015D01*
X031140Y027015D01*
X031140Y027015D01*
X030540Y027015D01*
X030540Y027342D01*
X030555Y027435D01*
X030584Y027525D01*
X030627Y027609D01*
X030682Y027686D01*
X030749Y027753D01*
X030826Y027808D01*
X030910Y027851D01*
X030999Y027880D01*
X031093Y027895D01*
X031140Y027895D01*
X031140Y027015D01*
X030540Y027015D01*
X030540Y026688D01*
X030555Y026594D01*
X030584Y026505D01*
X030627Y026421D01*
X030682Y026344D01*
X030736Y026290D01*
X030210Y026290D01*
X030210Y026503D01*
X030123Y026713D01*
X029963Y026873D01*
X029753Y026960D01*
X029527Y026960D01*
X029317Y026873D01*
X029157Y026713D01*
X029137Y026665D01*
X027490Y026665D01*
X027490Y027414D01*
X027459Y027490D01*
X029970Y027490D01*
X030117Y027551D01*
X030229Y027663D01*
X030229Y027663D01*
X030386Y027820D01*
X030503Y027820D01*
X030713Y027907D01*
X030873Y028067D01*
X030960Y028277D01*
X030960Y028490D01*
X032599Y028490D01*
X033194Y027895D01*
X033021Y027895D01*
X032848Y027824D02*
X032432Y027824D01*
X032618Y027665D02*
X032662Y027665D01*
X032949Y028141D02*
X030904Y028141D01*
X030960Y028299D02*
X032790Y028299D01*
X032632Y028458D02*
X030960Y028458D01*
X030856Y027824D02*
X030512Y027824D01*
X030667Y027665D02*
X030231Y027665D01*
X030009Y027507D02*
X030578Y027507D01*
X030541Y027348D02*
X027490Y027348D01*
X027490Y027190D02*
X030540Y027190D01*
X030540Y027031D02*
X027490Y027031D01*
X027490Y026873D02*
X029316Y026873D01*
X029158Y026714D02*
X027490Y026714D01*
X029515Y026265D02*
X025140Y026265D01*
X024890Y026515D01*
X024890Y027015D01*
X028264Y024365D02*
X029266Y024365D01*
X029165Y024264D01*
X029165Y024015D01*
X029765Y024015D01*
X030365Y024015D01*
X030365Y024264D01*
X030264Y024365D01*
X030540Y024365D01*
X030540Y023616D01*
X030631Y023395D01*
X030781Y023245D01*
X030339Y023245D01*
X030091Y023493D01*
X030365Y023766D01*
X030365Y024015D01*
X029765Y024015D01*
X029765Y024015D01*
X029765Y024015D01*
X029165Y024015D01*
X029165Y023766D01*
X029311Y023620D01*
X028245Y023620D01*
X028245Y023646D01*
X028365Y023766D01*
X028365Y024264D01*
X028264Y024365D01*
X028292Y024337D02*
X029238Y024337D01*
X029165Y024178D02*
X028365Y024178D01*
X028365Y024020D02*
X029165Y024020D01*
X029165Y023861D02*
X028365Y023861D01*
X028301Y023703D02*
X029229Y023703D01*
X030143Y023544D02*
X030570Y023544D01*
X030540Y023703D02*
X030301Y023703D01*
X030365Y023861D02*
X030540Y023861D01*
X030540Y024020D02*
X030365Y024020D01*
X030365Y024178D02*
X030540Y024178D01*
X030540Y024337D02*
X030292Y024337D01*
X030198Y023386D02*
X030641Y023386D01*
X033140Y024015D02*
X033140Y024390D01*
X033515Y024765D01*
X035765Y024765D01*
X036140Y024390D01*
X036140Y024015D01*
X037630Y024654D02*
X041686Y024654D01*
X041923Y024495D02*
X041258Y024495D01*
X041417Y024337D02*
X044165Y024337D01*
X044165Y024178D02*
X041490Y024178D01*
X041490Y024020D02*
X044165Y024020D01*
X044165Y023861D02*
X041490Y023861D01*
X041426Y023703D02*
X041646Y023703D01*
X040890Y024020D02*
X040890Y024020D01*
X040890Y024178D02*
X040890Y024178D01*
X040890Y024337D02*
X040890Y024337D01*
X040890Y024495D02*
X040890Y024495D01*
X040522Y024495D02*
X039258Y024495D01*
X039417Y024337D02*
X040363Y024337D01*
X040290Y024178D02*
X039490Y024178D01*
X039490Y024020D02*
X040290Y024020D01*
X040290Y023861D02*
X039490Y023861D01*
X039426Y023703D02*
X040354Y023703D01*
X039460Y022752D02*
X041765Y022752D01*
X042265Y022752D02*
X044686Y022752D01*
X044844Y022910D02*
X042466Y022910D01*
X044765Y023227D02*
X044765Y023227D01*
X044765Y023386D02*
X044765Y023386D01*
X044765Y023544D02*
X044765Y023544D01*
X044765Y023703D02*
X044765Y023703D01*
X044765Y023861D02*
X044765Y023861D01*
X046140Y026265D02*
X047515Y024890D01*
X048265Y024890D01*
X048765Y024390D01*
X048765Y024015D01*
X047640Y025265D02*
X046765Y026140D01*
X046765Y027015D01*
X045765Y027015D01*
X046243Y027665D02*
X046287Y027665D01*
X046473Y027824D02*
X046057Y027824D01*
X046140Y026265D02*
X033890Y026265D01*
X033640Y026515D01*
X033640Y028015D01*
X032765Y028890D01*
X031848Y027824D02*
X031424Y027824D01*
X031613Y027665D02*
X031662Y027665D01*
X031140Y027665D02*
X031140Y027665D01*
X031140Y027507D02*
X031140Y027507D01*
X031140Y027348D02*
X031140Y027348D01*
X031140Y027190D02*
X031140Y027190D01*
X031140Y027031D02*
X031140Y027031D01*
X031140Y026873D02*
X031140Y026873D01*
X031140Y026714D02*
X031140Y026714D01*
X031140Y026556D02*
X031140Y026556D01*
X031140Y026397D02*
X031140Y026397D01*
X030644Y026397D02*
X030210Y026397D01*
X030188Y026556D02*
X030567Y026556D01*
X030540Y026714D02*
X030122Y026714D01*
X029964Y026873D02*
X030540Y026873D01*
X029640Y026390D02*
X029515Y026265D01*
X029890Y027890D02*
X015390Y027890D01*
X014890Y027390D01*
X014890Y026890D01*
X016890Y026890D02*
X017890Y026890D01*
X016390Y024515D02*
X016390Y018765D01*
X017015Y018140D01*
X017765Y018140D01*
X017127Y018631D02*
X017090Y018631D01*
X016987Y018789D02*
X016932Y018789D01*
X016915Y018948D02*
X016790Y018948D01*
X016790Y019106D02*
X016885Y019106D01*
X016887Y019265D02*
X016790Y019265D01*
X016790Y019423D02*
X016953Y019423D01*
X017078Y019582D02*
X016790Y019582D01*
X016790Y019740D02*
X018490Y019740D01*
X018490Y019582D02*
X018452Y019582D01*
X018265Y019140D02*
X017765Y019140D01*
X018265Y019140D02*
X018515Y018890D01*
X018515Y014890D01*
X018265Y014640D01*
X016390Y014640D01*
X015390Y013640D01*
X015390Y006640D01*
X014890Y006140D01*
X014390Y005765D02*
X014390Y010640D01*
X013990Y009913D02*
X012966Y009913D01*
X013115Y009755D02*
X013207Y009755D01*
X013515Y009265D02*
X012140Y007890D01*
X010265Y007890D01*
X009640Y007265D01*
X009869Y006743D02*
X010382Y006743D01*
X010429Y006585D02*
X008851Y006585D01*
X008898Y006743D02*
X009411Y006743D01*
X009197Y006902D02*
X009030Y006902D01*
X009030Y007060D02*
X009108Y007060D01*
X009070Y007219D02*
X009030Y007219D01*
X009030Y007377D02*
X009070Y007377D01*
X009135Y007536D02*
X008900Y007536D01*
X008741Y007694D02*
X009263Y007694D01*
X009662Y007853D02*
X006493Y007853D01*
X006624Y007694D02*
X007039Y007694D01*
X006880Y007536D02*
X006665Y007536D01*
X006665Y007377D02*
X006750Y007377D01*
X006750Y007219D02*
X006665Y007219D01*
X006665Y007060D02*
X006750Y007060D01*
X006750Y006902D02*
X006665Y006902D01*
X006665Y006743D02*
X006882Y006743D01*
X006929Y006585D02*
X006665Y006585D01*
X006665Y006426D02*
X006771Y006426D01*
X006750Y006268D02*
X006665Y006268D01*
X006737Y006109D02*
X006750Y006109D01*
X006640Y005640D02*
X013765Y005640D01*
X014265Y005140D01*
X035890Y005140D01*
X038390Y007640D01*
X045390Y007640D01*
X045890Y007140D01*
X045701Y010230D02*
X042116Y010230D01*
X042274Y010072D02*
X051735Y010072D01*
X053640Y011640D02*
X063390Y011640D01*
X063960Y011657D02*
X063966Y011657D01*
X063934Y011815D02*
X064124Y011815D01*
X064283Y011974D02*
X063863Y011974D01*
X063692Y012132D02*
X064441Y012132D01*
X064600Y012291D02*
X060905Y012291D01*
X060905Y012132D02*
X063088Y012132D01*
X063043Y011181D02*
X060905Y011181D01*
X060905Y011023D02*
X063332Y011023D01*
X063173Y010864D02*
X060894Y010864D01*
X060736Y010706D02*
X063015Y010706D01*
X062856Y010547D02*
X060763Y010547D01*
X060905Y010389D02*
X062698Y010389D01*
X062539Y010230D02*
X060905Y010230D01*
X060905Y010072D02*
X062381Y010072D01*
X062222Y009913D02*
X060905Y009913D01*
X060785Y009755D02*
X062064Y009755D01*
X061765Y008890D02*
X065640Y012765D01*
X065640Y022390D01*
X064265Y022515D02*
X063765Y022515D01*
X063140Y021890D01*
X033015Y021890D01*
X032015Y020890D01*
X025390Y020890D01*
X024140Y019640D01*
X024515Y019515D02*
X024515Y016140D01*
X025515Y015140D01*
X026140Y015140D01*
X026790Y015619D02*
X028490Y015619D01*
X028374Y015778D02*
X026906Y015778D01*
X026985Y015936D02*
X028295Y015936D01*
X028260Y016095D02*
X027020Y016095D01*
X027020Y016253D02*
X028260Y016253D01*
X028323Y016412D02*
X026957Y016412D01*
X026839Y016570D02*
X028441Y016570D01*
X028423Y016729D02*
X026857Y016729D01*
X026965Y016887D02*
X028315Y016887D01*
X028260Y017046D02*
X027020Y017046D01*
X027020Y017204D02*
X028260Y017204D01*
X028303Y017363D02*
X026977Y017363D01*
X026888Y017521D02*
X028392Y017521D01*
X028472Y017680D02*
X026807Y017680D01*
X026940Y017838D02*
X027376Y017838D01*
X027218Y017997D02*
X027004Y017997D01*
X027020Y018140D02*
X026140Y018140D01*
X027020Y018140D01*
X027020Y018155D02*
X027059Y018155D01*
X027640Y018140D02*
X026640Y019140D01*
X026140Y019140D01*
X025765Y019765D02*
X025265Y019265D01*
X025265Y017390D01*
X025515Y017140D01*
X026140Y017140D01*
X025515Y016140D02*
X024890Y016765D01*
X024890Y019390D01*
X025640Y020140D01*
X032265Y020140D01*
X033265Y021140D01*
X063015Y021140D01*
X063640Y020515D01*
X064265Y020515D01*
X064265Y021515D02*
X033140Y021515D01*
X032140Y020515D01*
X025515Y020515D01*
X024515Y019515D01*
X025765Y019765D02*
X032390Y019765D01*
X033390Y020765D01*
X062265Y020765D01*
X061890Y022915D02*
X061890Y022915D01*
X061890Y023515D01*
X061890Y023515D01*
X061490Y023515D01*
X061490Y023515D01*
X061890Y023515D01*
X061890Y023515D01*
X061890Y022915D01*
X061890Y023069D02*
X061890Y023069D01*
X061890Y023227D02*
X061890Y023227D01*
X061890Y023386D02*
X061890Y023386D01*
X061890Y023544D02*
X061890Y023544D01*
X061890Y023703D02*
X061890Y023703D01*
X061890Y023861D02*
X061890Y023861D01*
X061890Y024020D02*
X061890Y024020D01*
X061890Y024178D02*
X061890Y024178D01*
X061890Y024337D02*
X061890Y024337D01*
X062149Y024337D02*
X063326Y024337D01*
X063392Y024178D02*
X062353Y024178D01*
X062448Y024020D02*
X063535Y024020D01*
X063396Y023861D02*
X062487Y023861D01*
X062490Y023703D02*
X063330Y023703D01*
X063305Y023544D02*
X062490Y023544D01*
X062490Y023386D02*
X063239Y023386D01*
X063036Y023227D02*
X062490Y023227D01*
X062467Y023069D02*
X062878Y023069D01*
X061631Y024337D02*
X061150Y024337D01*
X061355Y024178D02*
X061427Y024178D01*
X059890Y024390D02*
X059890Y023515D01*
X055765Y025265D02*
X047640Y025265D01*
X051243Y027665D02*
X051287Y027665D01*
X051139Y027824D02*
X051473Y027824D01*
X051298Y027982D02*
X053791Y027982D01*
X053633Y027824D02*
X052057Y027824D01*
X052243Y027665D02*
X053474Y027665D01*
X053316Y027507D02*
X052327Y027507D01*
X052365Y027348D02*
X053157Y027348D01*
X052999Y027190D02*
X052365Y027190D01*
X052365Y027031D02*
X052840Y027031D01*
X052682Y026873D02*
X052365Y026873D01*
X052365Y026714D02*
X052523Y026714D01*
X052365Y026556D02*
X052340Y026556D01*
X051456Y028141D02*
X053950Y028141D01*
X054108Y028299D02*
X051615Y028299D01*
X051773Y028458D02*
X054267Y028458D01*
X054425Y028616D02*
X051932Y028616D01*
X052090Y028775D02*
X054584Y028775D01*
X054742Y028933D02*
X052249Y028933D01*
X052407Y029092D02*
X054901Y029092D01*
X055089Y029250D02*
X052566Y029250D01*
X052941Y029409D02*
X053589Y029409D01*
X053334Y029567D02*
X053196Y029567D01*
X053941Y029409D02*
X054589Y029409D01*
X054334Y029567D02*
X054196Y029567D01*
X054941Y029409D02*
X055589Y029409D01*
X055334Y029567D02*
X055196Y029567D01*
X055941Y029409D02*
X056598Y029409D01*
X056334Y029567D02*
X056196Y029567D01*
X057365Y030360D02*
X066502Y030360D01*
X066502Y030518D02*
X057365Y030518D01*
X057352Y030677D02*
X066502Y030677D01*
X066502Y030835D02*
X057291Y030835D01*
X056365Y030994D02*
X056165Y030994D01*
X055365Y030994D02*
X055165Y030994D01*
X054365Y030994D02*
X054165Y030994D01*
X053365Y030994D02*
X053165Y030994D01*
X053765Y030265D02*
X054765Y030265D01*
X054561Y032420D02*
X053969Y032420D01*
X054207Y032579D02*
X054323Y032579D01*
X054969Y032420D02*
X055561Y032420D01*
X055323Y032579D02*
X055207Y032579D01*
X055969Y032420D02*
X056561Y032420D01*
X056323Y032579D02*
X056207Y032579D01*
X055765Y033265D02*
X054765Y033265D01*
X053765Y033265D01*
X052765Y033265D01*
X052765Y033640D01*
X052265Y034140D01*
X051140Y034140D01*
X050765Y033765D01*
X050765Y033265D01*
X049765Y033265D01*
X050207Y032579D02*
X050323Y032579D01*
X050561Y032420D02*
X049969Y032420D01*
X051765Y032765D02*
X051765Y033265D01*
X051861Y032103D02*
X044669Y032103D01*
X044510Y031945D02*
X051865Y031945D01*
X051865Y031786D02*
X044352Y031786D01*
X044125Y031628D02*
X051865Y031628D01*
X052969Y032420D02*
X053561Y032420D01*
X053323Y032579D02*
X053207Y032579D01*
X050917Y034481D02*
X050245Y034481D01*
X050245Y034322D02*
X050756Y034322D01*
X050598Y034164D02*
X050245Y034164D01*
X050245Y034005D02*
X050377Y034005D01*
X048665Y028299D02*
X036922Y028299D01*
X037080Y028141D02*
X048824Y028141D01*
X048865Y027982D02*
X037239Y027982D01*
X037140Y027515D02*
X037140Y027015D01*
X037140Y027515D02*
X036640Y028015D01*
X034640Y028015D01*
X034140Y027515D01*
X034140Y027015D01*
X036075Y029409D02*
X037598Y029409D01*
X037334Y029567D02*
X036258Y029567D01*
X036416Y029726D02*
X037224Y029726D01*
X037174Y029884D02*
X036575Y029884D01*
X036733Y030043D02*
X037165Y030043D01*
X037165Y030201D02*
X036892Y030201D01*
X037050Y030360D02*
X037165Y030360D01*
X038196Y029567D02*
X038334Y029567D01*
X039765Y030360D02*
X039765Y030360D01*
X039765Y030518D02*
X039765Y030518D01*
X039765Y030677D02*
X039765Y030677D01*
X039765Y030835D02*
X039765Y030835D01*
X039765Y030994D02*
X039765Y030994D01*
X040165Y030994D02*
X040365Y030994D01*
X041165Y030994D02*
X041365Y030994D01*
X048765Y027824D02*
X048765Y027824D01*
X038522Y024495D02*
X037707Y024495D01*
X033900Y019582D02*
X032772Y019582D01*
X032610Y019423D02*
X033765Y019423D01*
X033700Y019265D02*
X030018Y019265D01*
X030020Y019106D02*
X030300Y019106D01*
X030150Y018948D02*
X029990Y018948D01*
X029918Y018789D02*
X030085Y018789D01*
X030070Y018631D02*
X029778Y018631D01*
X029932Y018472D02*
X030093Y018472D01*
X030160Y018314D02*
X029998Y018314D01*
X030020Y018155D02*
X030321Y018155D01*
X030445Y017997D02*
X030010Y017997D01*
X029944Y017838D02*
X030471Y017838D01*
X030544Y017680D02*
X029808Y017680D01*
X029888Y017521D02*
X030718Y017521D01*
X031015Y018015D02*
X035265Y018015D01*
X035142Y017204D02*
X035887Y017204D01*
X035925Y017046D02*
X035300Y017046D01*
X035459Y016887D02*
X036018Y016887D01*
X036100Y016729D02*
X035617Y016729D01*
X035776Y016570D02*
X035962Y016570D01*
X036765Y016265D02*
X038015Y016265D01*
X038890Y017140D01*
X039890Y017140D01*
X039086Y017838D02*
X037223Y017838D01*
X034515Y017265D02*
X033765Y017265D01*
X033014Y016887D02*
X029965Y016887D01*
X030020Y017046D02*
X032926Y017046D01*
X032885Y017204D02*
X030020Y017204D01*
X029977Y017363D02*
X032885Y017363D01*
X032942Y017521D02*
X031312Y017521D01*
X030640Y018640D02*
X040765Y018640D01*
X043707Y016412D02*
X045200Y016412D01*
X045145Y016253D02*
X043770Y016253D01*
X043876Y016095D02*
X045135Y016095D01*
X045170Y015936D02*
X044035Y015936D01*
X044193Y015778D02*
X045257Y015778D01*
X046895Y013083D02*
X047006Y013083D01*
X046855Y012925D02*
X047165Y012925D01*
X048147Y012449D02*
X048214Y012449D01*
X047741Y011340D02*
X046495Y011340D01*
X046495Y011181D02*
X047582Y011181D01*
X047424Y011023D02*
X046606Y011023D01*
X046615Y010864D02*
X047415Y010864D01*
X047415Y010706D02*
X046615Y010706D01*
X046615Y010547D02*
X047415Y010547D01*
X047543Y010389D02*
X046487Y010389D01*
X046329Y010230D02*
X047701Y010230D01*
X045543Y010389D02*
X041957Y010389D01*
X042442Y010864D02*
X041335Y010864D01*
X041306Y010706D02*
X042601Y010706D01*
X042290Y011023D02*
X041463Y011023D01*
X041622Y011181D02*
X042290Y011181D01*
X042290Y011340D02*
X041780Y011340D01*
X041939Y011498D02*
X042290Y011498D01*
X042433Y011657D02*
X042097Y011657D01*
X042015Y012140D02*
X040765Y010890D01*
X041228Y010547D02*
X045415Y010547D01*
X045415Y010706D02*
X045179Y010706D01*
X045338Y010864D02*
X045415Y010864D01*
X045490Y011181D02*
X045535Y011181D01*
X045535Y011340D02*
X045490Y011340D01*
X045490Y011498D02*
X045535Y011498D01*
X045370Y011657D02*
X045347Y011657D01*
X045220Y011815D02*
X045189Y011815D01*
X045155Y011974D02*
X044914Y011974D01*
X044890Y011815D02*
X044890Y011815D01*
X044890Y011657D02*
X044890Y011657D01*
X044890Y011498D02*
X044890Y011498D01*
X044890Y011340D02*
X044890Y011340D01*
X044890Y011265D02*
X044890Y011265D01*
X044890Y011265D01*
X044890Y010665D01*
X044641Y010665D01*
X044290Y011016D01*
X044290Y011265D01*
X044890Y011265D01*
X044890Y011181D02*
X044890Y011181D01*
X044890Y011023D02*
X044890Y011023D01*
X044890Y010864D02*
X044890Y010864D01*
X044890Y010706D02*
X044890Y010706D01*
X044601Y010706D02*
X043179Y010706D01*
X043338Y010864D02*
X044442Y010864D01*
X044290Y011023D02*
X043490Y011023D01*
X043490Y011181D02*
X044290Y011181D01*
X044290Y011340D02*
X043490Y011340D01*
X043490Y011498D02*
X044290Y011498D01*
X044433Y011657D02*
X043347Y011657D01*
X045073Y012132D02*
X045135Y012132D01*
X040640Y009640D02*
X039390Y009640D01*
X036765Y012265D01*
X036765Y013265D02*
X033765Y013265D01*
X032885Y013242D02*
X032095Y013242D01*
X031435Y013242D02*
X030991Y013242D01*
X031280Y013083D02*
X030020Y013083D01*
X030020Y013242D02*
X030539Y013242D01*
X030324Y013400D02*
X029962Y013400D01*
X029850Y013559D02*
X030234Y013559D01*
X030195Y013717D02*
X029846Y013717D01*
X029960Y013876D02*
X030195Y013876D01*
X030259Y014034D02*
X030020Y014034D01*
X030020Y014193D02*
X030386Y014193D01*
X030695Y014351D02*
X029982Y014351D01*
X029899Y014510D02*
X030749Y014510D01*
X030862Y014668D02*
X029797Y014668D01*
X029940Y014827D02*
X031131Y014827D01*
X031419Y014985D02*
X030005Y014985D01*
X030020Y015144D02*
X031578Y015144D01*
X031736Y015302D02*
X030002Y015302D01*
X029937Y015461D02*
X031895Y015461D01*
X032074Y015619D02*
X029790Y015619D01*
X029906Y015778D02*
X033124Y015778D01*
X032972Y015936D02*
X029985Y015936D01*
X030020Y016095D02*
X032906Y016095D01*
X032885Y016253D02*
X030020Y016253D01*
X029957Y016412D02*
X032896Y016412D01*
X032962Y016570D02*
X029839Y016570D01*
X029857Y016729D02*
X033100Y016729D01*
X033765Y016265D02*
X034265Y016265D01*
X036265Y014265D01*
X036765Y014265D01*
X037265Y013765D02*
X037640Y014140D01*
X037640Y014890D01*
X037265Y015265D01*
X036765Y015265D01*
X037265Y013765D02*
X030765Y013765D01*
X031265Y014265D02*
X032265Y015265D01*
X033765Y015265D01*
X031214Y012925D02*
X029980Y012925D01*
X029929Y012800D02*
X029769Y012640D01*
X029929Y012480D01*
X030020Y012259D01*
X030020Y012021D01*
X029929Y011800D01*
X029769Y011640D01*
X029929Y011480D01*
X030020Y011259D01*
X030020Y011021D01*
X029929Y010800D01*
X029769Y010640D01*
X029929Y010480D01*
X030020Y010259D01*
X030020Y010021D01*
X029976Y009915D01*
X031165Y009915D01*
X031165Y010015D01*
X031765Y010015D01*
X031765Y010015D01*
X031765Y010015D01*
X031765Y010615D01*
X031516Y010615D01*
X031165Y010264D01*
X031165Y010015D01*
X031765Y010015D01*
X031765Y010072D02*
X031765Y010072D01*
X031765Y010230D02*
X031765Y010230D01*
X031765Y010389D02*
X031765Y010389D01*
X031765Y010547D02*
X031765Y010547D01*
X032082Y010547D02*
X032365Y010547D01*
X032365Y010389D02*
X032240Y010389D01*
X032365Y010706D02*
X029834Y010706D01*
X029862Y010547D02*
X031448Y010547D01*
X031290Y010389D02*
X029966Y010389D01*
X030020Y010230D02*
X031165Y010230D01*
X031165Y010072D02*
X030020Y010072D01*
X029955Y010864D02*
X032365Y010864D01*
X032365Y011023D02*
X030020Y011023D01*
X030020Y011181D02*
X032365Y011181D01*
X032365Y011340D02*
X029987Y011340D01*
X029911Y011498D02*
X032365Y011498D01*
X032365Y011657D02*
X029785Y011657D01*
X029935Y011815D02*
X032405Y011815D01*
X032533Y011974D02*
X030000Y011974D01*
X030020Y012132D02*
X032691Y012132D01*
X032850Y012291D02*
X032097Y012291D01*
X031433Y012291D02*
X030007Y012291D01*
X029941Y012449D02*
X031279Y012449D01*
X031213Y012608D02*
X029801Y012608D01*
X028479Y012608D02*
X026797Y012608D01*
X026890Y012766D02*
X028385Y012766D01*
X028300Y012925D02*
X026981Y012925D01*
X027018Y013083D02*
X028260Y013083D01*
X028260Y013242D02*
X027011Y013242D01*
X026961Y013400D02*
X028318Y013400D01*
X028430Y013559D02*
X026850Y013559D01*
X026846Y013717D02*
X028434Y013717D01*
X028320Y013876D02*
X026960Y013876D01*
X027020Y014034D02*
X028260Y014034D01*
X028260Y014193D02*
X027020Y014193D01*
X026982Y014351D02*
X028298Y014351D01*
X028381Y014510D02*
X026899Y014510D01*
X026797Y014668D02*
X028483Y014668D01*
X028340Y014827D02*
X026940Y014827D01*
X027005Y014985D02*
X028275Y014985D01*
X028260Y015144D02*
X027020Y015144D01*
X027002Y015302D02*
X028278Y015302D01*
X028343Y015461D02*
X026937Y015461D01*
X026140Y016140D02*
X025515Y016140D01*
X023640Y016640D02*
X023640Y013640D01*
X024265Y013015D01*
X024665Y012449D02*
X025344Y012449D01*
X025278Y012291D02*
X024665Y012291D01*
X024665Y012132D02*
X025260Y012132D01*
X025283Y011974D02*
X024665Y011974D01*
X024665Y011815D02*
X025354Y011815D01*
X025505Y011657D02*
X025133Y011657D01*
X025338Y011498D02*
X025378Y011498D01*
X024890Y011140D02*
X024890Y009765D01*
X025140Y009515D01*
X032140Y009515D01*
X032765Y010140D01*
X032765Y011640D01*
X033390Y012265D01*
X033765Y012265D01*
X036765Y011265D02*
X036765Y009765D01*
X040015Y010890D02*
X040015Y012140D01*
X039390Y006640D02*
X038140Y006640D01*
X036263Y004763D01*
X036015Y004763D01*
X010015Y004765D01*
X009640Y005140D01*
X009935Y004365D02*
X009935Y004365D01*
X010250Y006109D02*
X009030Y006109D01*
X009030Y006268D02*
X010250Y006268D01*
X010271Y006426D02*
X009009Y006426D01*
X008410Y006426D02*
X008370Y006426D01*
X008370Y006268D02*
X008410Y006268D01*
X008410Y006160D02*
X008370Y006160D01*
X008370Y007120D01*
X008410Y007120D01*
X008410Y006780D01*
X008410Y006160D01*
X008370Y006160D02*
X008370Y006120D01*
X007750Y006120D01*
X007410Y006120D01*
X007410Y006160D01*
X008370Y006160D01*
X008370Y006585D02*
X008410Y006585D01*
X008410Y006743D02*
X008370Y006743D01*
X008370Y006902D02*
X008410Y006902D01*
X008410Y007060D02*
X008370Y007060D01*
X008370Y007219D02*
X008410Y007219D01*
X008410Y007377D02*
X008370Y007377D01*
X008370Y007536D02*
X008410Y007536D01*
X008410Y007694D02*
X008370Y007694D01*
X008039Y007694D02*
X007741Y007694D01*
X007410Y007694D02*
X007370Y007694D01*
X007370Y007536D02*
X007410Y007536D01*
X007410Y007377D02*
X007370Y007377D01*
X007370Y007219D02*
X007410Y007219D01*
X007410Y007060D02*
X007370Y007060D01*
X007370Y006902D02*
X007410Y006902D01*
X007410Y006743D02*
X007370Y006743D01*
X007370Y006585D02*
X007410Y006585D01*
X007410Y006426D02*
X007370Y006426D01*
X007370Y006268D02*
X007410Y006268D01*
X006335Y008011D02*
X009820Y008011D01*
X009979Y008170D02*
X006176Y008170D01*
X006018Y008328D02*
X012012Y008328D01*
X012171Y008487D02*
X005859Y008487D01*
X005701Y008645D02*
X012329Y008645D01*
X012488Y008804D02*
X005542Y008804D01*
X005384Y008962D02*
X010219Y008962D01*
X010061Y009121D02*
X005225Y009121D01*
X005091Y009279D02*
X005067Y009279D01*
X005265Y009640D02*
X006265Y009640D01*
X006765Y010140D01*
X007285Y009755D02*
X007525Y009755D01*
X007126Y009596D02*
X009915Y009596D01*
X009915Y009438D02*
X006628Y009438D01*
X006439Y009279D02*
X009915Y009279D01*
X010811Y008962D02*
X012219Y008962D01*
X012061Y009121D02*
X010969Y009121D01*
X011115Y009279D02*
X011915Y009279D01*
X011915Y009438D02*
X011115Y009438D01*
X011115Y009596D02*
X011915Y009596D01*
X011915Y009755D02*
X011130Y009755D01*
X011354Y009913D02*
X012064Y009913D01*
X012223Y010072D02*
X011512Y010072D01*
X011988Y010547D02*
X013099Y010547D01*
X012821Y010706D02*
X012146Y010706D01*
X012305Y010864D02*
X012700Y010864D01*
X012635Y011023D02*
X012463Y011023D01*
X012622Y011181D02*
X012635Y011181D01*
X013823Y009755D02*
X013990Y009755D01*
X012515Y009279D02*
X012515Y009279D01*
X012515Y009121D02*
X012515Y009121D01*
X012515Y008962D02*
X012515Y008962D01*
X010250Y007219D02*
X010210Y007219D01*
X010172Y007060D02*
X010250Y007060D01*
X010250Y006902D02*
X010083Y006902D01*
X014390Y005765D02*
X014640Y005515D01*
X015640Y005515D01*
X015890Y005765D01*
X015890Y006140D01*
X015890Y006390D01*
X015840Y007853D02*
X015790Y007853D01*
X015790Y008011D02*
X015820Y008011D01*
X015837Y008170D02*
X015790Y008170D01*
X015790Y008328D02*
X015903Y008328D01*
X015990Y008487D02*
X015790Y008487D01*
X015790Y008645D02*
X015990Y008645D01*
X015990Y008804D02*
X015790Y008804D01*
X015790Y008962D02*
X015899Y008962D01*
X015833Y009121D02*
X015790Y009121D01*
X015790Y009279D02*
X015820Y009279D01*
X015844Y009438D02*
X015790Y009438D01*
X015790Y009596D02*
X015915Y009596D01*
X015790Y009755D02*
X016082Y009755D01*
X016007Y010072D02*
X016888Y010072D01*
X016892Y010230D02*
X016286Y010230D01*
X016403Y010389D02*
X016938Y010389D01*
X017043Y010547D02*
X016460Y010547D01*
X016460Y010706D02*
X017071Y010706D01*
X016950Y010864D02*
X016414Y010864D01*
X016928Y009913D02*
X015790Y009913D01*
X016698Y009755D02*
X017023Y009755D01*
X016865Y009596D02*
X017231Y009596D01*
X016390Y009265D02*
X016390Y008015D01*
X019390Y010015D02*
X019390Y005765D01*
X019640Y005515D01*
X024265Y005515D01*
X024890Y006140D01*
X022765Y008015D02*
X022765Y011390D01*
X021640Y012515D01*
X022140Y010640D02*
X020015Y010640D01*
X019390Y010015D01*
X020890Y008765D02*
X020890Y007140D01*
X021890Y007140D02*
X022765Y008015D01*
X027017Y010072D02*
X028260Y010072D01*
X028260Y010230D02*
X027013Y010230D01*
X026967Y010389D02*
X028314Y010389D01*
X028418Y010547D02*
X026862Y010547D01*
X026834Y010706D02*
X028446Y010706D01*
X028325Y010864D02*
X026953Y010864D01*
X027009Y011023D02*
X028260Y011023D01*
X028260Y011181D02*
X027020Y011181D01*
X026986Y011340D02*
X028293Y011340D01*
X028369Y011498D02*
X026902Y011498D01*
X026775Y011657D02*
X028495Y011657D01*
X028345Y011815D02*
X026926Y011815D01*
X026997Y011974D02*
X028280Y011974D01*
X028260Y012132D02*
X027020Y012132D01*
X027002Y012291D02*
X028273Y012291D01*
X028339Y012449D02*
X026936Y012449D01*
X018890Y014515D02*
X018515Y014140D01*
X017765Y014140D01*
X018890Y014515D02*
X018890Y022015D01*
X015890Y018265D02*
X017015Y017140D01*
X017765Y017140D01*
X026140Y018140D02*
X026140Y018140D01*
X027640Y018140D02*
X029140Y018140D01*
X030980Y019106D02*
X033695Y019106D01*
X028165Y022435D02*
X027365Y022435D01*
X027365Y022593D02*
X028165Y022593D01*
X031140Y027824D02*
X031140Y027824D01*
X025765Y030515D02*
X025765Y031015D01*
X026515Y031765D01*
X029015Y031765D01*
X029890Y032640D01*
X028414Y032737D02*
X028116Y032737D01*
X027414Y032737D02*
X027116Y032737D01*
X026414Y032737D02*
X026100Y032737D01*
X025765Y032737D02*
X025765Y032737D01*
X025765Y032635D02*
X025765Y033515D01*
X025765Y033515D01*
X025765Y032635D01*
X025765Y032896D02*
X025765Y032896D01*
X025765Y033054D02*
X025765Y033054D01*
X025765Y033213D02*
X025765Y033213D01*
X025765Y033371D02*
X025765Y033371D01*
X025430Y032737D02*
X025116Y032737D01*
X024414Y032737D02*
X022040Y032737D01*
X022040Y032896D02*
X024256Y032896D01*
X023400Y032103D02*
X026287Y032103D01*
X026129Y031945D02*
X023559Y031945D01*
X023615Y031786D02*
X025970Y031786D01*
X025812Y031628D02*
X023615Y031628D01*
X023615Y031469D02*
X025653Y031469D01*
X025538Y031354D02*
X025538Y031354D01*
X025442Y031311D02*
X025088Y031311D01*
X025256Y031152D02*
X025274Y031152D01*
X024442Y031311D02*
X023534Y031311D01*
X023376Y031152D02*
X024274Y031152D01*
X023015Y031152D02*
X023015Y031152D01*
X023015Y031311D02*
X023015Y031311D01*
X023015Y031469D02*
X023015Y031469D01*
X023015Y031628D02*
X023015Y031628D01*
X023015Y031786D02*
X023015Y031786D01*
X023015Y031945D02*
X023015Y031945D01*
X023015Y032103D02*
X023015Y032103D01*
X022752Y033054D02*
X022040Y033054D01*
X022040Y033213D02*
X022594Y033213D01*
X022435Y033371D02*
X022040Y033371D01*
X022040Y033530D02*
X022415Y033530D01*
X022415Y033688D02*
X022040Y033688D01*
X021987Y033847D02*
X022415Y033847D01*
X019640Y033140D02*
X019140Y033140D01*
X014640Y034640D02*
X011390Y034640D01*
X010890Y035140D01*
X009265Y035140D01*
X007765Y036640D01*
X006265Y036640D01*
X005765Y036140D01*
X006765Y036140D02*
X007390Y036140D01*
X009390Y034140D01*
X010890Y034140D01*
X010890Y033240D02*
X010890Y033140D01*
X010890Y033140D01*
X011770Y033140D01*
X011770Y033187D01*
X011762Y033240D01*
X013010Y033240D01*
X013010Y033040D01*
X011762Y033040D01*
X011770Y033093D01*
X011770Y033140D01*
X010890Y033140D01*
X010890Y033140D01*
X010890Y033240D01*
X010890Y033240D01*
X010890Y033213D02*
X010890Y033213D01*
X010890Y033140D02*
X010890Y033140D01*
X010890Y033040D01*
X010890Y033040D01*
X010890Y033140D01*
X010890Y033140D01*
X010010Y033140D01*
X010010Y033187D01*
X010018Y033240D01*
X008185Y033240D01*
X008038Y033301D01*
X007926Y033413D01*
X007405Y033934D01*
X007405Y033875D01*
X007170Y033640D01*
X007405Y033405D01*
X007405Y033040D01*
X010018Y033040D01*
X010010Y033093D01*
X010010Y033140D01*
X010890Y033140D01*
X010890Y033054D02*
X010890Y033054D01*
X011764Y033054D02*
X013010Y033054D01*
X013010Y033213D02*
X011766Y033213D01*
X013265Y033640D02*
X013765Y034140D01*
X013890Y034140D01*
X013265Y033640D02*
X008265Y033640D01*
X006765Y035140D01*
X006265Y034640D02*
X005265Y034640D01*
X006265Y034640D02*
X006765Y034140D01*
X007218Y033688D02*
X007651Y033688D01*
X007493Y033847D02*
X007377Y033847D01*
X007281Y033530D02*
X007810Y033530D01*
X007968Y033371D02*
X007405Y033371D01*
X007405Y033213D02*
X010014Y033213D01*
X010016Y033054D02*
X007405Y033054D01*
X004270Y029250D02*
X013184Y029250D01*
X013026Y029092D02*
X004270Y029092D01*
X010390Y037140D02*
X010890Y037140D01*
X010390Y037140D02*
X009390Y038140D01*
X009390Y040765D01*
X011140Y042515D01*
X032140Y042515D01*
X034140Y040515D01*
X034400Y040821D02*
X058679Y040821D01*
X058625Y040979D02*
X034242Y040979D01*
X033132Y042089D02*
X064988Y042089D01*
X065242Y042247D02*
X032974Y042247D01*
X032815Y042406D02*
X066502Y042406D01*
X066502Y042564D02*
X032657Y042564D01*
X032498Y042723D02*
X066502Y042723D01*
X066502Y042247D02*
X066288Y042247D01*
X064545Y040979D02*
X064628Y040669D01*
X059947Y039553D02*
X059583Y039553D01*
X059741Y039711D02*
X059789Y039711D01*
X064837Y029884D02*
X066502Y029884D01*
X066502Y029726D02*
X064995Y029726D01*
X065154Y029567D02*
X066502Y029567D01*
X066502Y029409D02*
X065312Y029409D01*
X065471Y029250D02*
X066502Y029250D01*
X066502Y029092D02*
X065629Y029092D01*
X065788Y028933D02*
X066502Y028933D01*
X066502Y028775D02*
X065946Y028775D01*
X066105Y028616D02*
X066502Y028616D01*
X066502Y028458D02*
X066263Y028458D01*
X066422Y028299D02*
X066502Y028299D01*
X061657Y027348D02*
X061123Y027348D01*
X061344Y027190D02*
X061436Y027190D01*
X060657Y027348D02*
X060123Y027348D01*
X060344Y027190D02*
X060436Y027190D01*
X059657Y027348D02*
X059123Y027348D01*
X059344Y027190D02*
X059436Y027190D01*
X055795Y018472D02*
X065240Y018472D01*
X065240Y018314D02*
X055869Y018314D01*
X055895Y018155D02*
X065240Y018155D01*
X065240Y017997D02*
X055879Y017997D01*
X055815Y017838D02*
X065240Y017838D01*
X064758Y012449D02*
X060861Y012449D01*
X061765Y008890D02*
X059390Y008890D01*
X056015Y005515D01*
X039140Y005515D01*
X038890Y005765D01*
X038890Y006140D01*
X039390Y006640D02*
X039890Y006140D01*
X037890Y005140D02*
X056140Y005140D01*
X059515Y008515D01*
X063890Y008515D01*
X059914Y007694D02*
X059616Y007694D01*
X058625Y006902D02*
X058467Y006902D01*
X059664Y005634D02*
X059866Y005634D01*
X056882Y005317D02*
X064863Y005317D01*
X065026Y005158D02*
X056724Y005158D01*
X056565Y005000D02*
X065308Y005000D01*
X066222Y005000D02*
X066502Y005000D01*
X066502Y004841D02*
X056407Y004841D01*
X066502Y004683D02*
X038239Y004683D01*
X037541Y004683D02*
X036748Y004683D01*
X036907Y004841D02*
X037397Y004841D01*
X037331Y005000D02*
X037065Y005000D01*
X037224Y005158D02*
X037320Y005158D01*
X036590Y004524D02*
X066502Y004524D01*
X066502Y004366D02*
X036349Y004366D01*
X052834Y013876D02*
X053339Y013876D01*
X053180Y014034D02*
X052886Y014034D01*
X052894Y014193D02*
X053022Y014193D01*
X052863Y014351D02*
X052857Y014351D01*
X053361Y014985D02*
X054154Y014985D01*
X054135Y015144D02*
X053202Y015144D01*
X053044Y015302D02*
X054157Y015302D01*
X054226Y015461D02*
X052885Y015461D01*
X052665Y015619D02*
X054374Y015619D01*
X054249Y015778D02*
X052773Y015778D01*
X052860Y015936D02*
X054170Y015936D01*
X054135Y016095D02*
X052895Y016095D01*
X052885Y016253D02*
X054135Y016253D01*
X054198Y016412D02*
X052830Y016412D01*
X052714Y016570D02*
X054316Y016570D01*
X054298Y016729D02*
X052732Y016729D01*
X052840Y016887D02*
X054190Y016887D01*
X054135Y017046D02*
X052895Y017046D01*
X052895Y017204D02*
X054135Y017204D01*
X054178Y017363D02*
X052852Y017363D01*
X052763Y017521D02*
X054267Y017521D01*
X054348Y017680D02*
X052683Y017680D01*
X052819Y017838D02*
X054215Y017838D01*
X054151Y017997D02*
X052885Y017997D01*
X052895Y018155D02*
X054135Y018155D01*
X054161Y018314D02*
X052873Y018314D01*
X052807Y018472D02*
X054235Y018472D01*
X050751Y017838D02*
X049815Y017838D01*
X049879Y017997D02*
X050593Y017997D01*
X050434Y018155D02*
X049895Y018155D01*
X053519Y014827D02*
X054221Y014827D01*
X054364Y014668D02*
X053678Y014668D01*
X036115Y036224D02*
X034540Y036224D01*
X034540Y036383D02*
X035957Y036383D01*
X035798Y036541D02*
X034540Y036541D01*
X034540Y036700D02*
X035640Y036700D01*
X035481Y036858D02*
X034540Y036858D01*
X034540Y037017D02*
X035323Y037017D01*
X034924Y037175D02*
X034540Y037175D01*
X034540Y037334D02*
X034775Y037334D01*
X034709Y037492D02*
X034540Y037492D01*
X034540Y037651D02*
X034695Y037651D01*
X034718Y037809D02*
X034540Y037809D01*
X034540Y037968D02*
X034786Y037968D01*
X034949Y038126D02*
X034540Y038126D01*
X035812Y037809D02*
X036836Y037809D01*
X019363Y039711D02*
X017917Y039711D01*
X018076Y039553D02*
X019204Y039553D01*
X019046Y039394D02*
X018234Y039394D01*
X018240Y039236D02*
X019040Y039236D01*
X019040Y039077D02*
X018240Y039077D01*
X018240Y038919D02*
X019040Y038919D01*
X017640Y039236D02*
X017640Y039236D01*
X017640Y039394D02*
X017640Y039394D01*
X017640Y039553D02*
X017640Y039553D01*
X017640Y039711D02*
X017640Y039711D01*
X015615Y041296D02*
X015457Y041296D01*
X015615Y041455D02*
X011770Y041455D01*
X011929Y041613D02*
X015623Y041613D01*
X015140Y041296D02*
X015140Y041296D01*
X015140Y041138D02*
X015140Y041138D01*
X015140Y040979D02*
X015140Y040979D01*
X015140Y040821D02*
X015140Y040821D01*
X013357Y039870D02*
X010415Y039870D01*
X010415Y040028D02*
X013198Y040028D01*
X012870Y040187D02*
X010502Y040187D01*
X010421Y039711D02*
X010415Y039711D01*
X011666Y037492D02*
X012301Y037492D01*
X012143Y037334D02*
X011739Y037334D01*
X011770Y037175D02*
X011984Y037175D01*
D17*
X014890Y039390D03*
X016390Y038515D03*
X016640Y040765D03*
X018640Y041265D03*
X020765Y032640D03*
X028140Y028890D03*
X028890Y028890D03*
X029640Y028390D03*
X030390Y028390D03*
X029640Y026390D03*
X031140Y022265D03*
X031765Y022015D03*
X035265Y019640D03*
X034265Y019140D03*
X035265Y018015D03*
X031015Y018015D03*
X030640Y018640D03*
X031265Y014265D03*
X030765Y013765D03*
X031765Y012765D03*
X036765Y009765D03*
X040015Y010890D03*
X040765Y010890D03*
X040015Y012140D03*
X040640Y009640D03*
X037890Y005140D03*
X024890Y011140D03*
X022140Y010640D03*
X020890Y008765D03*
X018890Y009265D03*
X017390Y008015D03*
X016390Y008015D03*
X016390Y009265D03*
X015890Y010640D03*
X013515Y009265D03*
X009640Y007265D03*
X009640Y005140D03*
X022140Y013640D03*
X022640Y014640D03*
X023140Y015640D03*
X023640Y016640D03*
X020140Y021890D03*
X019890Y024765D03*
X014640Y020765D03*
X014140Y022890D03*
X032515Y034015D03*
X033015Y034765D03*
X035265Y037640D03*
X035265Y039515D03*
X043140Y025390D03*
X042015Y023265D03*
X038890Y022765D03*
X051515Y022640D03*
X060015Y029640D03*
X063390Y011640D03*
X063515Y009265D03*
X055390Y008015D03*
D18*
X052015Y010640D02*
X052015Y012140D01*
X046015Y012140D02*
X046015Y010765D01*
X033765Y011265D02*
X033765Y010015D01*
X020765Y019140D02*
X020765Y019890D01*
X020140Y020515D01*
X020140Y021890D01*
X021640Y021890D01*
X022890Y023140D01*
X027765Y023140D01*
X027765Y024015D01*
X027765Y023140D02*
X028765Y023140D01*
X028765Y022515D01*
X028765Y023140D02*
X029765Y023140D01*
X030140Y022765D01*
X038890Y022765D01*
X038890Y024015D02*
X037140Y024015D01*
X037515Y033265D02*
X037765Y033265D01*
X037515Y033265D02*
X037015Y033765D01*
X036890Y034890D01*
X037390Y039515D02*
X038765Y039515D01*
X049765Y034890D02*
X049765Y033265D01*
X055515Y028015D02*
X055515Y026890D01*
X055890Y026515D01*
X025765Y039515D02*
X024390Y039515D01*
X024765Y033515D02*
X023140Y033515D01*
X023015Y033640D01*
X013890Y039140D02*
X013890Y040015D01*
X013140Y040765D01*
X010890Y028390D02*
X010890Y026890D01*
M02*
