G75*
%MOIN*%
%OFA0B0*%
%FSLAX24Y24*%
%IPPOS*%
%LPD*%
%AMOC8*
5,1,8,0,0,1.08239X$1,22.5*
%
%ADD10C,0.0560*%
%ADD11OC8,0.0560*%
%ADD12OC8,0.0640*%
%ADD13C,0.0640*%
%ADD14C,0.0750*%
%ADD15OC8,0.0750*%
%ADD16C,0.0160*%
%ADD17C,0.0320*%
%ADD18C,0.0500*%
D10*
X023890Y011110D02*
X023890Y011670D01*
X024890Y011670D02*
X024890Y011110D01*
X025890Y011110D02*
X025890Y011670D01*
X026890Y011670D02*
X026890Y011110D01*
X027890Y011110D02*
X027890Y011670D01*
X028890Y011670D02*
X028890Y011110D01*
X029890Y011110D02*
X029890Y011670D01*
X029890Y014110D02*
X029890Y014670D01*
X028890Y014670D02*
X028890Y014110D01*
X027890Y014110D02*
X027890Y014670D01*
X026890Y014670D02*
X026890Y014110D01*
X025890Y014110D02*
X025890Y014670D01*
X024890Y014670D02*
X024890Y014110D01*
X023890Y014110D02*
X023890Y014670D01*
X023890Y018110D02*
X023890Y018670D01*
X022890Y018670D02*
X022890Y018110D01*
X021890Y018110D02*
X021890Y018670D01*
X021890Y021110D02*
X021890Y021670D01*
X022890Y021670D02*
X022890Y021110D01*
X023890Y021110D02*
X023890Y021670D01*
X024890Y021670D02*
X024890Y021110D01*
X025890Y021110D02*
X025890Y021670D01*
X026890Y021670D02*
X026890Y021110D01*
X027890Y021110D02*
X027890Y021670D01*
X028890Y021670D02*
X028890Y021110D01*
X028890Y018670D02*
X028890Y018110D01*
X027890Y018110D02*
X027890Y018670D01*
X026890Y018670D02*
X026890Y018110D01*
X025890Y018110D02*
X025890Y018670D01*
X024890Y018670D02*
X024890Y018110D01*
X017390Y018110D02*
X017390Y018670D01*
X016390Y018670D02*
X016390Y018110D01*
X015390Y018110D02*
X015390Y018670D01*
X014390Y018670D02*
X014390Y018110D01*
X013390Y018110D02*
X013390Y018670D01*
X012390Y018670D02*
X012390Y018110D01*
X011390Y018110D02*
X011390Y018670D01*
X010390Y018670D02*
X010390Y018110D01*
X010390Y021110D02*
X010390Y021670D01*
X011390Y021670D02*
X011390Y021110D01*
X012390Y021110D02*
X012390Y021670D01*
X013390Y021670D02*
X013390Y021110D01*
X014390Y021110D02*
X014390Y021670D01*
X015390Y021670D02*
X015390Y021110D01*
X016390Y021110D02*
X016390Y021670D01*
X017390Y021670D02*
X017390Y021110D01*
X017390Y024110D02*
X017390Y024670D01*
X016390Y024670D02*
X016390Y024110D01*
X015390Y024110D02*
X015390Y024670D01*
X014390Y024670D02*
X014390Y024110D01*
X013390Y024110D02*
X013390Y024670D01*
X012390Y024670D02*
X012390Y024110D01*
X011390Y024110D02*
X011390Y024670D01*
X010390Y024670D02*
X010390Y024110D01*
X010390Y027110D02*
X010390Y027670D01*
X011390Y027670D02*
X011390Y027110D01*
X012390Y027110D02*
X012390Y027670D01*
X013390Y027670D02*
X013390Y027110D01*
X014390Y027110D02*
X014390Y027670D01*
X015390Y027670D02*
X015390Y027110D01*
X016390Y027110D02*
X016390Y027670D01*
X017390Y027670D02*
X017390Y027110D01*
X021890Y027110D02*
X021890Y027670D01*
X022890Y027670D02*
X022890Y027110D01*
X023890Y027110D02*
X023890Y027670D01*
X024890Y027670D02*
X024890Y027110D01*
X025890Y027110D02*
X025890Y027670D01*
X026890Y027670D02*
X026890Y027110D01*
X027890Y027110D02*
X027890Y027670D01*
X027890Y024670D02*
X027890Y024110D01*
X026890Y024110D02*
X026890Y024670D01*
X025890Y024670D02*
X025890Y024110D01*
X024890Y024110D02*
X024890Y024670D01*
X023890Y024670D02*
X023890Y024110D01*
X022890Y024110D02*
X022890Y024670D01*
X021890Y024670D02*
X021890Y024110D01*
X032890Y024110D02*
X032890Y024670D01*
X033890Y024670D02*
X033890Y024110D01*
X034890Y024110D02*
X034890Y024670D01*
X035890Y024670D02*
X035890Y024110D01*
X036890Y024110D02*
X036890Y024670D01*
X037890Y024670D02*
X037890Y024110D01*
X038890Y024110D02*
X038890Y024670D01*
X039890Y024670D02*
X039890Y024110D01*
X043390Y024110D02*
X043390Y024670D01*
X044390Y024670D02*
X044390Y024110D01*
X045390Y024110D02*
X045390Y024670D01*
X046390Y024670D02*
X046390Y024110D01*
X047390Y024110D02*
X047390Y024670D01*
X048390Y024670D02*
X048390Y024110D01*
X049390Y024110D02*
X049390Y024670D01*
X049390Y027110D02*
X049390Y027670D01*
X048390Y027670D02*
X048390Y027110D01*
X047390Y027110D02*
X047390Y027670D01*
X046390Y027670D02*
X046390Y027110D01*
X045390Y027110D02*
X045390Y027670D01*
X044390Y027670D02*
X044390Y027110D01*
X043390Y027110D02*
X043390Y027670D01*
X046110Y029640D02*
X046670Y029640D01*
X046670Y030640D02*
X046110Y030640D01*
X046110Y031640D02*
X046670Y031640D01*
X046670Y032640D02*
X046110Y032640D01*
X046110Y033640D02*
X046670Y033640D01*
X046670Y034640D02*
X046110Y034640D01*
X046110Y035640D02*
X046670Y035640D01*
X046670Y036640D02*
X046110Y036640D01*
X046110Y037640D02*
X046670Y037640D01*
X046670Y038640D02*
X046110Y038640D01*
X049110Y038640D02*
X049670Y038640D01*
X049670Y037640D02*
X049110Y037640D01*
X049110Y036640D02*
X049670Y036640D01*
X049670Y035640D02*
X049110Y035640D01*
X049110Y034640D02*
X049670Y034640D01*
X049670Y033640D02*
X049110Y033640D01*
X049110Y032640D02*
X049670Y032640D01*
X049670Y031640D02*
X049110Y031640D01*
X049110Y030640D02*
X049670Y030640D01*
X049670Y029640D02*
X049110Y029640D01*
X053890Y027670D02*
X053890Y027110D01*
X054890Y027110D02*
X054890Y027670D01*
X055890Y027670D02*
X055890Y027110D01*
X056890Y027110D02*
X056890Y027670D01*
X057890Y027670D02*
X057890Y027110D01*
X058890Y027110D02*
X058890Y027670D01*
X059890Y027670D02*
X059890Y027110D01*
X060890Y027110D02*
X060890Y027670D01*
X062610Y029140D02*
X063170Y029140D01*
X063170Y030140D02*
X062610Y030140D01*
X062610Y031140D02*
X063170Y031140D01*
X063170Y032140D02*
X062610Y032140D01*
X062610Y033140D02*
X063170Y033140D01*
X063170Y034140D02*
X062610Y034140D01*
X062610Y035140D02*
X063170Y035140D01*
X063170Y036140D02*
X062610Y036140D01*
X062610Y037140D02*
X063170Y037140D01*
X060890Y024670D02*
X060890Y024110D01*
X059890Y024110D02*
X059890Y024670D01*
X058890Y024670D02*
X058890Y024110D01*
X057890Y024110D02*
X057890Y024670D01*
X056890Y024670D02*
X056890Y024110D01*
X055890Y024110D02*
X055890Y024670D01*
X054890Y024670D02*
X054890Y024110D01*
X053890Y024110D02*
X053890Y024670D01*
X053890Y022170D02*
X053890Y021610D01*
X054890Y021610D02*
X054890Y022170D01*
X055890Y022170D02*
X055890Y021610D01*
X056890Y021610D02*
X056890Y022170D01*
X057890Y022170D02*
X057890Y021610D01*
X058890Y021610D02*
X058890Y022170D01*
X059890Y022170D02*
X059890Y021610D01*
X060890Y021610D02*
X060890Y022170D01*
X060890Y019170D02*
X060890Y018610D01*
X059890Y018610D02*
X059890Y019170D01*
X058890Y019170D02*
X058890Y018610D01*
X057890Y018610D02*
X057890Y019170D01*
X056890Y019170D02*
X056890Y018610D01*
X055890Y018610D02*
X055890Y019170D01*
X054890Y019170D02*
X054890Y018610D01*
X053890Y018610D02*
X053890Y019170D01*
X053890Y014670D02*
X053890Y014110D01*
X052890Y014110D02*
X052890Y014670D01*
X051890Y014670D02*
X051890Y014110D01*
X050890Y014110D02*
X050890Y014670D01*
X049890Y014670D02*
X049890Y014110D01*
X048890Y014110D02*
X048890Y014670D01*
X047890Y014670D02*
X047890Y014110D01*
X047890Y011670D02*
X047890Y011110D01*
X048890Y011110D02*
X048890Y011670D01*
X049890Y011670D02*
X049890Y011110D01*
X050890Y011110D02*
X050890Y011670D01*
X051890Y011670D02*
X051890Y011110D01*
X052890Y011110D02*
X052890Y011670D01*
X053890Y011670D02*
X053890Y011110D01*
X043390Y011110D02*
X043390Y011670D01*
X042390Y011670D02*
X042390Y011110D01*
X041390Y011110D02*
X041390Y011670D01*
X040390Y011670D02*
X040390Y011110D01*
X039390Y011110D02*
X039390Y011670D01*
X038390Y011670D02*
X038390Y011110D01*
X037390Y011110D02*
X037390Y011670D01*
X037390Y014110D02*
X037390Y014670D01*
X038390Y014670D02*
X038390Y014110D01*
X039390Y014110D02*
X039390Y014670D01*
X040390Y014670D02*
X040390Y014110D01*
X041390Y014110D02*
X041390Y014670D01*
X042390Y014670D02*
X042390Y014110D01*
X043390Y014110D02*
X043390Y014670D01*
X039890Y027110D02*
X039890Y027670D01*
X038890Y027670D02*
X038890Y027110D01*
X037890Y027110D02*
X037890Y027670D01*
X036890Y027670D02*
X036890Y027110D01*
X035890Y027110D02*
X035890Y027670D01*
X034890Y027670D02*
X034890Y027110D01*
X033890Y027110D02*
X033890Y027670D01*
X032890Y027670D02*
X032890Y027110D01*
X032890Y034110D02*
X032890Y034670D01*
X033890Y034670D02*
X033890Y034110D01*
X034890Y034110D02*
X034890Y034670D01*
X035890Y034670D02*
X035890Y034110D01*
X036890Y034110D02*
X036890Y034670D01*
X037890Y034670D02*
X037890Y034110D01*
X038890Y034110D02*
X038890Y034670D01*
X039890Y034670D02*
X039890Y034110D01*
X040890Y034110D02*
X040890Y034670D01*
X041890Y034670D02*
X041890Y034110D01*
X041890Y037110D02*
X041890Y037670D01*
X040890Y037670D02*
X040890Y037110D01*
X039890Y037110D02*
X039890Y037670D01*
X038890Y037670D02*
X038890Y037110D01*
X037890Y037110D02*
X037890Y037670D01*
X036890Y037670D02*
X036890Y037110D01*
X035890Y037110D02*
X035890Y037670D01*
X034890Y037670D02*
X034890Y037110D01*
X033890Y037110D02*
X033890Y037670D01*
X032890Y037670D02*
X032890Y037110D01*
X028015Y037110D02*
X028015Y037670D01*
X027015Y037670D02*
X027015Y037110D01*
X026015Y037110D02*
X026015Y037670D01*
X025015Y037670D02*
X025015Y037110D01*
X024015Y037110D02*
X024015Y037670D01*
X023015Y037670D02*
X023015Y037110D01*
X022015Y037110D02*
X022015Y037670D01*
X021015Y037670D02*
X021015Y037110D01*
X021015Y034670D02*
X021015Y034110D01*
X022015Y034110D02*
X022015Y034670D01*
X023015Y034670D02*
X023015Y034110D01*
X024015Y034110D02*
X024015Y034670D01*
X025015Y034670D02*
X025015Y034110D01*
X026015Y034110D02*
X026015Y034670D01*
X027015Y034670D02*
X027015Y034110D01*
X028015Y034110D02*
X028015Y034670D01*
D11*
X029265Y034390D03*
X029265Y032390D03*
X029890Y027390D03*
X031890Y027390D03*
X042015Y027390D03*
X042015Y025390D03*
X050390Y021890D03*
X052390Y021890D03*
X052390Y025390D03*
X052390Y027390D03*
X049390Y040265D03*
X047390Y040265D03*
X031640Y039390D03*
X031640Y037390D03*
X020390Y027390D03*
X020390Y025390D03*
X020390Y021390D03*
X020390Y019390D03*
X008890Y019390D03*
X008890Y021390D03*
X008890Y025390D03*
X008890Y027390D03*
X031390Y013390D03*
X031390Y011390D03*
X035890Y011890D03*
X035890Y013890D03*
X055390Y013390D03*
X055390Y011390D03*
D12*
X059265Y011140D03*
X060265Y011140D03*
X060265Y010140D03*
X059265Y010140D03*
X059265Y012140D03*
X060265Y012140D03*
X060265Y013140D03*
X059265Y013140D03*
X059265Y014140D03*
X060265Y014140D03*
X060265Y015140D03*
X059265Y015140D03*
X059265Y016140D03*
X060265Y016140D03*
X060265Y017140D03*
X059265Y017140D03*
X059265Y007140D03*
X060265Y007140D03*
X060265Y006140D03*
X059265Y006140D03*
X053890Y006140D03*
X053890Y007140D03*
X052890Y007140D03*
X051890Y007140D03*
X051890Y006140D03*
X052890Y006140D03*
X050890Y006140D03*
X049890Y006140D03*
X049890Y007140D03*
X050890Y007140D03*
X048890Y007140D03*
X047890Y007140D03*
X046890Y007140D03*
X046890Y006140D03*
X047890Y006140D03*
X048890Y006140D03*
X045890Y006140D03*
X044890Y006140D03*
X044890Y007140D03*
X045890Y007140D03*
X043890Y007140D03*
X042890Y007140D03*
X041890Y007140D03*
X041890Y006140D03*
X042890Y006140D03*
X043890Y006140D03*
X040890Y006140D03*
X039890Y006140D03*
X039890Y007140D03*
X040890Y007140D03*
X038890Y007140D03*
X038890Y006140D03*
X008390Y006140D03*
X007390Y006140D03*
X007390Y007140D03*
X008390Y007140D03*
X006765Y010140D03*
X005765Y010140D03*
X005765Y011140D03*
X006765Y011140D03*
X006765Y012140D03*
X005765Y012140D03*
X005765Y013140D03*
X006765Y013140D03*
X006765Y014140D03*
X005765Y014140D03*
X005765Y015140D03*
X006765Y015140D03*
X006765Y016140D03*
X005765Y016140D03*
X005765Y017140D03*
X006765Y017140D03*
X006765Y030140D03*
X005765Y030140D03*
X005765Y031140D03*
X006765Y031140D03*
X006765Y032140D03*
X005765Y032140D03*
X005765Y033140D03*
X006765Y033140D03*
X006765Y034140D03*
X005765Y034140D03*
X005765Y035140D03*
X006765Y035140D03*
X006765Y036140D03*
X005765Y036140D03*
X005765Y037140D03*
X006765Y037140D03*
X007390Y040140D03*
X008390Y040140D03*
X008390Y041140D03*
X007390Y041140D03*
X059265Y041140D03*
X060265Y041140D03*
X060265Y040140D03*
X059265Y040140D03*
X059265Y037140D03*
X060265Y037140D03*
X060265Y036140D03*
X059265Y036140D03*
X059265Y035140D03*
X060265Y035140D03*
X060265Y034140D03*
X059265Y034140D03*
X059265Y033140D03*
X060265Y033140D03*
X060265Y032140D03*
X059265Y032140D03*
X059265Y031140D03*
X060265Y031140D03*
X060265Y030140D03*
X059265Y030140D03*
D13*
X063945Y027515D02*
X064585Y027515D01*
X064585Y026515D02*
X063945Y026515D01*
X063945Y025515D02*
X064585Y025515D01*
X064585Y024515D02*
X063945Y024515D01*
X063945Y023515D02*
X064585Y023515D01*
X064585Y022515D02*
X063945Y022515D01*
X063945Y021515D02*
X064585Y021515D01*
X064585Y020515D02*
X063945Y020515D01*
X063945Y019515D02*
X064585Y019515D01*
X009335Y033140D02*
X008695Y033140D01*
X008695Y034140D02*
X009335Y034140D01*
X009335Y035140D02*
X008695Y035140D01*
X008695Y036140D02*
X009335Y036140D01*
X009335Y037140D02*
X008695Y037140D01*
D14*
X061640Y006140D03*
D15*
X063640Y006140D03*
D16*
X004270Y005423D02*
X004270Y004270D01*
X066502Y004270D01*
X066502Y005157D01*
X066236Y005003D01*
X065926Y004920D01*
X065604Y004920D01*
X065294Y005003D01*
X065016Y005164D01*
X064789Y005391D01*
X064628Y005669D01*
X064545Y005979D01*
X064545Y006301D01*
X064628Y006611D01*
X064789Y006889D01*
X065016Y007116D01*
X065294Y007277D01*
X065604Y007360D01*
X065926Y007360D01*
X066236Y007277D01*
X066502Y007123D01*
X066502Y040157D01*
X066236Y040003D01*
X065926Y039920D01*
X065604Y039920D01*
X065294Y040003D01*
X065016Y040164D01*
X064789Y040391D01*
X064628Y040669D01*
X064545Y040979D01*
X060905Y040979D01*
X060905Y040875D02*
X060905Y041120D01*
X060285Y041120D01*
X060285Y041160D01*
X060905Y041160D01*
X060905Y041405D01*
X060530Y041780D01*
X060285Y041780D01*
X060285Y041160D01*
X060245Y041160D01*
X060245Y041780D01*
X060000Y041780D01*
X059765Y041545D01*
X059530Y041780D01*
X059285Y041780D01*
X059285Y041160D01*
X059245Y041160D01*
X059245Y041780D01*
X059000Y041780D01*
X058625Y041405D01*
X058625Y041160D01*
X059245Y041160D01*
X059245Y041120D01*
X058625Y041120D01*
X058625Y040875D01*
X058860Y040640D01*
X058625Y040405D01*
X058625Y040160D01*
X059245Y040160D01*
X059245Y041120D01*
X059285Y041120D01*
X059285Y041160D01*
X060245Y041160D01*
X060245Y041120D01*
X060285Y041120D01*
X060285Y040500D01*
X060285Y040160D01*
X060905Y040160D01*
X060905Y040405D01*
X060670Y040640D01*
X060905Y040875D01*
X060851Y040821D02*
X064588Y040821D01*
X064545Y040979D02*
X064545Y041301D01*
X064628Y041611D01*
X064789Y041889D01*
X065016Y042116D01*
X065294Y042277D01*
X065604Y042360D01*
X065926Y042360D01*
X066236Y042277D01*
X066502Y042123D01*
X066502Y042880D01*
X004270Y042880D01*
X004270Y041857D01*
X004289Y041889D01*
X004516Y042116D01*
X004794Y042277D01*
X005104Y042360D01*
X005426Y042360D01*
X005736Y042277D01*
X006014Y042116D01*
X006241Y041889D01*
X006402Y041611D01*
X006485Y041301D01*
X006485Y040979D01*
X006750Y040979D01*
X006750Y040875D02*
X006910Y040715D01*
X006910Y040620D01*
X006420Y040620D01*
X006359Y040595D01*
X006402Y040669D01*
X006485Y040979D01*
X006485Y041138D02*
X006750Y041138D01*
X006750Y041296D02*
X006485Y041296D01*
X006444Y041455D02*
X006799Y041455D01*
X006750Y041405D02*
X006750Y040875D01*
X006804Y040821D02*
X006442Y040821D01*
X006398Y040662D02*
X006910Y040662D01*
X006750Y041405D02*
X007125Y041780D01*
X007655Y041780D01*
X007890Y041545D01*
X008125Y041780D01*
X008655Y041780D01*
X009030Y041405D01*
X009030Y040875D01*
X008795Y040640D01*
X008815Y040620D01*
X011860Y040620D01*
X012037Y040547D01*
X016714Y035870D01*
X028360Y035870D01*
X028537Y035797D01*
X028672Y035662D01*
X029344Y034990D01*
X029514Y034990D01*
X029714Y034790D01*
X032290Y034790D01*
X032381Y035010D01*
X032550Y035179D01*
X032771Y035270D01*
X033009Y035270D01*
X033059Y035250D01*
X033301Y035492D01*
X033413Y035604D01*
X033440Y035615D01*
X032685Y035615D01*
X032538Y035676D01*
X032224Y035990D01*
X027935Y035990D01*
X027788Y036051D01*
X027272Y036567D01*
X027134Y036510D01*
X026896Y036510D01*
X026675Y036601D01*
X026515Y036761D01*
X026355Y036601D01*
X026134Y036510D01*
X025896Y036510D01*
X025675Y036601D01*
X025515Y036761D01*
X025355Y036601D01*
X025134Y036510D01*
X024896Y036510D01*
X024675Y036601D01*
X024515Y036761D01*
X024355Y036601D01*
X024134Y036510D01*
X023896Y036510D01*
X023675Y036601D01*
X023515Y036761D01*
X023355Y036601D01*
X023134Y036510D01*
X022896Y036510D01*
X022675Y036601D01*
X022515Y036761D01*
X022355Y036601D01*
X022134Y036510D01*
X021896Y036510D01*
X021675Y036601D01*
X021508Y036768D01*
X021473Y036719D01*
X021406Y036652D01*
X021329Y036597D01*
X021245Y036554D01*
X021155Y036525D01*
X021062Y036510D01*
X021015Y036510D01*
X021015Y037390D01*
X021015Y037390D01*
X021015Y038270D01*
X021062Y038270D01*
X021155Y038255D01*
X021245Y038226D01*
X021329Y038183D01*
X021406Y038128D01*
X021473Y038061D01*
X021508Y038012D01*
X021675Y038179D01*
X021896Y038270D01*
X022134Y038270D01*
X022355Y038179D01*
X022515Y038019D01*
X022675Y038179D01*
X022896Y038270D01*
X023134Y038270D01*
X023355Y038179D01*
X023515Y038019D01*
X023675Y038179D01*
X023896Y038270D01*
X024134Y038270D01*
X024355Y038179D01*
X024515Y038019D01*
X024675Y038179D01*
X024896Y038270D01*
X025134Y038270D01*
X025184Y038250D01*
X025926Y038992D01*
X026038Y039104D01*
X026185Y039165D01*
X031040Y039165D01*
X031040Y039390D01*
X031640Y039390D01*
X031640Y039390D01*
X031640Y039990D01*
X031889Y039990D01*
X032240Y039639D01*
X032240Y039390D01*
X031640Y039390D01*
X031640Y039390D01*
X031640Y039390D01*
X031640Y039990D01*
X031391Y039990D01*
X031040Y039639D01*
X031040Y039390D01*
X031640Y039390D01*
X032240Y039390D01*
X032240Y039165D01*
X033220Y039165D01*
X033367Y039104D01*
X034117Y038354D01*
X034229Y038242D01*
X034273Y038135D01*
X034390Y038019D01*
X034550Y038179D01*
X034771Y038270D01*
X035009Y038270D01*
X035059Y038250D01*
X039538Y042729D01*
X039685Y042790D01*
X055095Y042790D01*
X055242Y042729D01*
X055354Y042617D01*
X060191Y037780D01*
X060530Y037780D01*
X060905Y037405D01*
X060905Y036875D01*
X060670Y036640D01*
X060905Y036405D01*
X060905Y035875D01*
X060670Y035640D01*
X060905Y035405D01*
X060905Y034875D01*
X060670Y034640D01*
X060905Y034405D01*
X060905Y033875D01*
X060670Y033640D01*
X060905Y033405D01*
X060905Y032875D01*
X060670Y032640D01*
X060905Y032405D01*
X060905Y031875D01*
X060670Y031640D01*
X060905Y031405D01*
X060905Y030875D01*
X060670Y030640D01*
X060905Y030405D01*
X060905Y029875D01*
X060530Y029500D01*
X060000Y029500D01*
X059765Y029735D01*
X059530Y029500D01*
X059000Y029500D01*
X058625Y029875D01*
X058625Y030265D01*
X058538Y030301D01*
X057290Y031549D01*
X057290Y028119D01*
X057390Y028019D01*
X057550Y028179D01*
X057771Y028270D01*
X058009Y028270D01*
X058230Y028179D01*
X058397Y028012D01*
X058432Y028061D01*
X058499Y028128D01*
X058576Y028183D01*
X058660Y028226D01*
X058749Y028255D01*
X058843Y028270D01*
X058890Y028270D01*
X058890Y027390D01*
X058890Y027390D01*
X058890Y028270D01*
X058937Y028270D01*
X059030Y028255D01*
X059120Y028226D01*
X059204Y028183D01*
X059281Y028128D01*
X059348Y028061D01*
X059383Y028012D01*
X059550Y028179D01*
X059771Y028270D01*
X060009Y028270D01*
X060230Y028179D01*
X060390Y028019D01*
X060550Y028179D01*
X060771Y028270D01*
X061009Y028270D01*
X061230Y028179D01*
X061399Y028010D01*
X061490Y027789D01*
X061490Y026991D01*
X061399Y026770D01*
X061230Y026601D01*
X061009Y026510D01*
X060771Y026510D01*
X060550Y026601D01*
X060390Y026761D01*
X060230Y026601D01*
X060009Y026510D01*
X059826Y026510D01*
X059367Y026051D01*
X059220Y025990D01*
X057981Y025990D01*
X058721Y025250D01*
X058771Y025270D01*
X059009Y025270D01*
X059230Y025179D01*
X059390Y025019D01*
X059550Y025179D01*
X059771Y025270D01*
X060009Y025270D01*
X060230Y025179D01*
X060397Y025012D01*
X060432Y025061D01*
X060499Y025128D01*
X060576Y025183D01*
X060660Y025226D01*
X060749Y025255D01*
X060843Y025270D01*
X060890Y025270D01*
X060890Y024390D01*
X060890Y024390D01*
X061490Y024390D01*
X061490Y024717D01*
X061475Y024810D01*
X061446Y024900D01*
X061403Y024984D01*
X061348Y025061D01*
X061281Y025128D01*
X061204Y025183D01*
X061120Y025226D01*
X061030Y025255D01*
X060937Y025270D01*
X060890Y025270D01*
X060890Y024390D01*
X060890Y024390D01*
X061490Y024390D01*
X061490Y024063D01*
X061475Y023969D01*
X061446Y023880D01*
X061403Y023796D01*
X061348Y023719D01*
X061281Y023652D01*
X061204Y023597D01*
X061120Y023554D01*
X061030Y023525D01*
X060937Y023510D01*
X060890Y023510D01*
X060890Y024390D01*
X060890Y024390D01*
X060890Y023510D01*
X060843Y023510D01*
X060749Y023525D01*
X060660Y023554D01*
X060576Y023597D01*
X060499Y023652D01*
X060432Y023719D01*
X060397Y023768D01*
X060230Y023601D01*
X060009Y023510D01*
X059771Y023510D01*
X059550Y023601D01*
X059390Y023761D01*
X059230Y023601D01*
X059009Y023510D01*
X058771Y023510D01*
X058550Y023601D01*
X058383Y023768D01*
X058348Y023719D01*
X058281Y023652D01*
X058204Y023597D01*
X058120Y023554D01*
X058030Y023525D01*
X057957Y023513D01*
X058056Y023415D01*
X058970Y023415D01*
X059117Y023354D01*
X059617Y022854D01*
X059721Y022750D01*
X059771Y022770D01*
X060009Y022770D01*
X060230Y022679D01*
X060390Y022519D01*
X060550Y022679D01*
X060771Y022770D01*
X061009Y022770D01*
X061230Y022679D01*
X061399Y022510D01*
X061490Y022289D01*
X061490Y021491D01*
X061399Y021270D01*
X061230Y021101D01*
X061009Y021010D01*
X060771Y021010D01*
X060550Y021101D01*
X060390Y021261D01*
X060230Y021101D01*
X060009Y021010D01*
X059790Y021010D01*
X059790Y019770D01*
X060009Y019770D01*
X060230Y019679D01*
X060397Y019512D01*
X060432Y019561D01*
X060499Y019628D01*
X060576Y019683D01*
X060660Y019726D01*
X060749Y019755D01*
X060843Y019770D01*
X060890Y019770D01*
X060890Y018890D01*
X060890Y018890D01*
X061490Y018890D01*
X061490Y019217D01*
X061475Y019310D01*
X061446Y019400D01*
X061403Y019484D01*
X061348Y019561D01*
X061281Y019628D01*
X061204Y019683D01*
X061120Y019726D01*
X061030Y019755D01*
X060937Y019770D01*
X060890Y019770D01*
X060890Y018890D01*
X060890Y018890D01*
X061490Y018890D01*
X061490Y018563D01*
X061475Y018469D01*
X061446Y018380D01*
X061403Y018296D01*
X061348Y018219D01*
X061281Y018152D01*
X061204Y018097D01*
X061120Y018054D01*
X061030Y018025D01*
X060937Y018010D01*
X060890Y018010D01*
X060890Y018890D01*
X060890Y018890D01*
X060890Y018010D01*
X060843Y018010D01*
X060749Y018025D01*
X060660Y018054D01*
X060576Y018097D01*
X060499Y018152D01*
X060432Y018219D01*
X060397Y018268D01*
X060230Y018101D01*
X060009Y018010D01*
X059771Y018010D01*
X059550Y018101D01*
X059390Y018261D01*
X059230Y018101D01*
X059009Y018010D01*
X058771Y018010D01*
X058550Y018101D01*
X058390Y018261D01*
X058230Y018101D01*
X058009Y018010D01*
X057771Y018010D01*
X057721Y018030D01*
X056854Y017163D01*
X056742Y017051D01*
X056595Y016990D01*
X052685Y016990D01*
X052538Y017051D01*
X050224Y019365D01*
X048960Y019365D01*
X048960Y019152D01*
X048873Y018942D01*
X048713Y018782D01*
X048503Y018695D01*
X048277Y018695D01*
X048067Y018782D01*
X047984Y018865D01*
X032435Y018865D01*
X032288Y018926D01*
X031349Y019865D01*
X024685Y019865D01*
X024538Y019926D01*
X024426Y020038D01*
X024426Y020038D01*
X023954Y020510D01*
X023771Y020510D01*
X023550Y020601D01*
X023390Y020761D01*
X023230Y020601D01*
X023009Y020510D01*
X022771Y020510D01*
X022550Y020601D01*
X022390Y020761D01*
X022290Y020661D01*
X022290Y019119D01*
X022390Y019019D01*
X022550Y019179D01*
X022771Y019270D01*
X023009Y019270D01*
X023230Y019179D01*
X023390Y019019D01*
X023550Y019179D01*
X023771Y019270D01*
X024009Y019270D01*
X024230Y019179D01*
X024390Y019019D01*
X024550Y019179D01*
X024771Y019270D01*
X025009Y019270D01*
X025230Y019179D01*
X025397Y019012D01*
X025432Y019061D01*
X025499Y019128D01*
X025576Y019183D01*
X025660Y019226D01*
X025749Y019255D01*
X025843Y019270D01*
X025890Y019270D01*
X025890Y018390D01*
X025890Y018390D01*
X025890Y019270D01*
X025937Y019270D01*
X026030Y019255D01*
X026120Y019226D01*
X026204Y019183D01*
X026281Y019128D01*
X026348Y019061D01*
X026383Y019012D01*
X026550Y019179D01*
X026771Y019270D01*
X027009Y019270D01*
X027230Y019179D01*
X027390Y019019D01*
X027550Y019179D01*
X027771Y019270D01*
X028009Y019270D01*
X028230Y019179D01*
X028397Y019012D01*
X028432Y019061D01*
X028499Y019128D01*
X028576Y019183D01*
X028660Y019226D01*
X028749Y019255D01*
X028843Y019270D01*
X028890Y019270D01*
X028890Y018390D01*
X028890Y018390D01*
X029490Y018390D01*
X029490Y018717D01*
X029475Y018810D01*
X029446Y018900D01*
X029403Y018984D01*
X029348Y019061D01*
X029281Y019128D01*
X029204Y019183D01*
X029120Y019226D01*
X029030Y019255D01*
X028937Y019270D01*
X028890Y019270D01*
X028890Y018390D01*
X028890Y018390D01*
X029490Y018390D01*
X029490Y018063D01*
X029475Y017969D01*
X029446Y017880D01*
X029403Y017796D01*
X029348Y017719D01*
X029281Y017652D01*
X029204Y017597D01*
X029120Y017554D01*
X029077Y017540D01*
X047984Y017540D01*
X048067Y017623D01*
X048277Y017710D01*
X048503Y017710D01*
X048713Y017623D01*
X048873Y017463D01*
X048960Y017253D01*
X048960Y017027D01*
X048895Y016870D01*
X055485Y016870D01*
X055662Y016797D01*
X055797Y016662D01*
X056922Y015537D01*
X056995Y015360D01*
X056995Y010089D01*
X059304Y007780D01*
X059530Y007780D01*
X059690Y007620D01*
X059840Y007620D01*
X060000Y007780D01*
X060530Y007780D01*
X060770Y007540D01*
X061099Y007540D01*
X064990Y011431D01*
X064990Y019015D01*
X064948Y018972D01*
X064712Y018875D01*
X063818Y018875D01*
X063582Y018972D01*
X063402Y019152D01*
X063305Y019388D01*
X063305Y019642D01*
X063402Y019878D01*
X063540Y020015D01*
X063402Y020152D01*
X063305Y020388D01*
X063305Y020642D01*
X063402Y020878D01*
X063540Y021015D01*
X063402Y021152D01*
X063305Y021388D01*
X063305Y021642D01*
X061490Y021642D01*
X061487Y021484D02*
X063305Y021484D01*
X063305Y021642D02*
X063402Y021878D01*
X063540Y022015D01*
X063402Y022152D01*
X063305Y022388D01*
X063305Y022642D01*
X063402Y022878D01*
X063540Y023015D01*
X063402Y023152D01*
X063305Y023388D01*
X063305Y023642D01*
X063402Y023878D01*
X063540Y024015D01*
X063402Y024152D01*
X063305Y024388D01*
X063305Y024642D01*
X063402Y024878D01*
X063540Y025015D01*
X063402Y025152D01*
X063305Y025388D01*
X063305Y025642D01*
X063402Y025878D01*
X063540Y026015D01*
X063402Y026152D01*
X063305Y026388D01*
X063305Y026642D01*
X063402Y026878D01*
X063540Y027015D01*
X063402Y027152D01*
X063305Y027388D01*
X063305Y027642D01*
X063402Y027878D01*
X063582Y028058D01*
X063818Y028155D01*
X064712Y028155D01*
X064948Y028058D01*
X064990Y028015D01*
X064990Y028224D01*
X064474Y028740D01*
X063619Y028740D01*
X063510Y028631D01*
X063289Y028540D01*
X062491Y028540D01*
X062270Y028631D01*
X062101Y028800D01*
X062010Y029021D01*
X062010Y029259D01*
X062101Y029480D01*
X062261Y029640D01*
X062101Y029800D01*
X062010Y030021D01*
X062010Y030259D01*
X062101Y030480D01*
X062261Y030640D01*
X062101Y030800D01*
X062010Y031021D01*
X062010Y031259D01*
X062101Y031480D01*
X062261Y031640D01*
X062101Y031800D01*
X062010Y032021D01*
X062010Y032259D01*
X062101Y032480D01*
X062261Y032640D01*
X062101Y032800D01*
X062010Y033021D01*
X062010Y033259D01*
X062101Y033480D01*
X062261Y033640D01*
X062101Y033800D01*
X062010Y034021D01*
X062010Y034259D01*
X062101Y034480D01*
X062261Y034640D01*
X062101Y034800D01*
X062010Y035021D01*
X062010Y035259D01*
X062101Y035480D01*
X062261Y035640D01*
X062101Y035800D01*
X062010Y036021D01*
X062010Y036259D01*
X062101Y036480D01*
X062261Y036640D01*
X062101Y036800D01*
X062010Y037021D01*
X062010Y037259D01*
X062101Y037480D01*
X062270Y037649D01*
X062491Y037740D01*
X063289Y037740D01*
X063510Y037649D01*
X063679Y037480D01*
X063770Y037259D01*
X063770Y037021D01*
X063679Y036800D01*
X063519Y036640D01*
X063679Y036480D01*
X063770Y036259D01*
X063770Y036021D01*
X063679Y035800D01*
X063519Y035640D01*
X063679Y035480D01*
X063770Y035259D01*
X063770Y035021D01*
X063679Y034800D01*
X063519Y034640D01*
X063679Y034480D01*
X063770Y034259D01*
X063770Y034021D01*
X063679Y033800D01*
X063519Y033640D01*
X063679Y033480D01*
X063770Y033259D01*
X063770Y033021D01*
X063679Y032800D01*
X063519Y032640D01*
X063679Y032480D01*
X063770Y032259D01*
X063770Y032021D01*
X063679Y031800D01*
X063519Y031640D01*
X063679Y031480D01*
X063770Y031259D01*
X063770Y031021D01*
X063679Y030800D01*
X063519Y030640D01*
X063679Y030480D01*
X063770Y030259D01*
X063770Y030021D01*
X063679Y029800D01*
X063519Y029640D01*
X063619Y029540D01*
X064720Y029540D01*
X064867Y029479D01*
X065617Y028729D01*
X065729Y028617D01*
X065790Y028470D01*
X065790Y011185D01*
X065729Y011038D01*
X061604Y006913D01*
X061526Y006835D01*
X061778Y006835D01*
X062034Y006729D01*
X062229Y006534D01*
X062335Y006278D01*
X062335Y006002D01*
X062229Y005746D01*
X062034Y005551D01*
X061778Y005445D01*
X061502Y005445D01*
X061246Y005551D01*
X061137Y005660D01*
X060690Y005660D01*
X060530Y005500D01*
X060000Y005500D01*
X059765Y005735D01*
X059530Y005500D01*
X059000Y005500D01*
X058625Y005875D01*
X058625Y006405D01*
X058785Y006565D01*
X058785Y006715D01*
X058625Y006875D01*
X058625Y007101D01*
X056243Y009483D01*
X056108Y009618D01*
X056035Y009795D01*
X056035Y010910D01*
X055759Y010910D01*
X055639Y010790D01*
X055141Y010790D01*
X055021Y010910D01*
X054457Y010910D01*
X054399Y010770D01*
X054230Y010601D01*
X054009Y010510D01*
X053771Y010510D01*
X053550Y010601D01*
X053390Y010761D01*
X053230Y010601D01*
X053009Y010510D01*
X052771Y010510D01*
X052550Y010601D01*
X052390Y010761D01*
X052230Y010601D01*
X052009Y010510D01*
X051771Y010510D01*
X051550Y010601D01*
X051390Y010761D01*
X051230Y010601D01*
X051009Y010510D01*
X050771Y010510D01*
X050550Y010601D01*
X050390Y010761D01*
X050230Y010601D01*
X050009Y010510D01*
X049771Y010510D01*
X049550Y010601D01*
X049390Y010761D01*
X049230Y010601D01*
X049009Y010510D01*
X048771Y010510D01*
X048550Y010601D01*
X048390Y010761D01*
X048230Y010601D01*
X048009Y010510D01*
X047771Y010510D01*
X047550Y010601D01*
X047381Y010770D01*
X047290Y010991D01*
X047290Y011789D01*
X047381Y012010D01*
X047550Y012179D01*
X047771Y012270D01*
X048009Y012270D01*
X048230Y012179D01*
X048390Y012019D01*
X048550Y012179D01*
X048771Y012270D01*
X049009Y012270D01*
X049230Y012179D01*
X049390Y012019D01*
X049550Y012179D01*
X049771Y012270D01*
X050009Y012270D01*
X050230Y012179D01*
X050390Y012019D01*
X050550Y012179D01*
X050771Y012270D01*
X051009Y012270D01*
X051230Y012179D01*
X051390Y012019D01*
X051550Y012179D01*
X051771Y012270D01*
X052009Y012270D01*
X052230Y012179D01*
X052390Y012019D01*
X052550Y012179D01*
X052771Y012270D01*
X053009Y012270D01*
X053230Y012179D01*
X053390Y012019D01*
X053550Y012179D01*
X053771Y012270D01*
X054009Y012270D01*
X054230Y012179D01*
X054399Y012010D01*
X054457Y011870D01*
X055021Y011870D01*
X055141Y011990D01*
X055639Y011990D01*
X055759Y011870D01*
X056035Y011870D01*
X056035Y015066D01*
X055191Y015910D01*
X054290Y015910D01*
X054290Y015119D01*
X054399Y015010D01*
X054490Y014789D01*
X054490Y013991D01*
X054399Y013770D01*
X054230Y013601D01*
X054009Y013510D01*
X053771Y013510D01*
X053550Y013601D01*
X053390Y013761D01*
X053230Y013601D01*
X053009Y013510D01*
X052771Y013510D01*
X052550Y013601D01*
X052390Y013761D01*
X052230Y013601D01*
X052009Y013510D01*
X051771Y013510D01*
X051550Y013601D01*
X051390Y013761D01*
X051230Y013601D01*
X051009Y013510D01*
X050771Y013510D01*
X050550Y013601D01*
X050390Y013761D01*
X050230Y013601D01*
X050009Y013510D01*
X049771Y013510D01*
X049550Y013601D01*
X049390Y013761D01*
X049230Y013601D01*
X049009Y013510D01*
X048771Y013510D01*
X048550Y013601D01*
X048383Y013768D01*
X048348Y013719D01*
X048281Y013652D01*
X048204Y013597D01*
X048120Y013554D01*
X048030Y013525D01*
X047937Y013510D01*
X047890Y013510D01*
X047890Y014390D01*
X047890Y014390D01*
X047890Y015270D01*
X047937Y015270D01*
X048030Y015255D01*
X048120Y015226D01*
X048204Y015183D01*
X048281Y015128D01*
X048348Y015061D01*
X048383Y015012D01*
X048550Y015179D01*
X048771Y015270D01*
X049009Y015270D01*
X049230Y015179D01*
X049390Y015019D01*
X049550Y015179D01*
X049771Y015270D01*
X050009Y015270D01*
X050230Y015179D01*
X050390Y015019D01*
X050490Y015119D01*
X050490Y015910D01*
X036370Y015910D01*
X036370Y014870D01*
X036823Y014870D01*
X036881Y015010D01*
X037050Y015179D01*
X037271Y015270D01*
X037454Y015270D01*
X037676Y015492D01*
X037788Y015604D01*
X037935Y015665D01*
X040845Y015665D01*
X040992Y015604D01*
X041326Y015270D01*
X041509Y015270D01*
X041730Y015179D01*
X041890Y015019D01*
X042050Y015179D01*
X042271Y015270D01*
X042509Y015270D01*
X042730Y015179D01*
X042890Y015019D01*
X043050Y015179D01*
X043271Y015270D01*
X043509Y015270D01*
X043730Y015179D01*
X043899Y015010D01*
X043990Y014789D01*
X043990Y013991D01*
X043899Y013770D01*
X043730Y013601D01*
X043509Y013510D01*
X043271Y013510D01*
X043168Y013552D01*
X045990Y010731D01*
X045990Y013609D01*
X045907Y013692D01*
X045820Y013902D01*
X045820Y014128D01*
X045907Y014338D01*
X046067Y014498D01*
X046277Y014585D01*
X046503Y014585D01*
X046713Y014498D01*
X046873Y014338D01*
X046960Y014128D01*
X046960Y013902D01*
X046873Y013692D01*
X046790Y013609D01*
X046790Y010806D01*
X049816Y007780D01*
X050155Y007780D01*
X050390Y007545D01*
X050625Y007780D01*
X051155Y007780D01*
X051390Y007545D01*
X051625Y007780D01*
X052155Y007780D01*
X052390Y007545D01*
X052625Y007780D01*
X053155Y007780D01*
X053390Y007545D01*
X053625Y007780D01*
X054155Y007780D01*
X054530Y007405D01*
X054530Y006875D01*
X054295Y006640D01*
X054530Y006405D01*
X054530Y005875D01*
X054155Y005500D01*
X053625Y005500D01*
X053390Y005735D01*
X053155Y005500D01*
X052625Y005500D01*
X052390Y005735D01*
X052155Y005500D01*
X051625Y005500D01*
X051390Y005735D01*
X051155Y005500D01*
X050625Y005500D01*
X050390Y005735D01*
X050155Y005500D01*
X049625Y005500D01*
X049390Y005735D01*
X049155Y005500D01*
X048625Y005500D01*
X048390Y005735D01*
X048155Y005500D01*
X047625Y005500D01*
X047390Y005735D01*
X047155Y005500D01*
X046625Y005500D01*
X046390Y005735D01*
X046155Y005500D01*
X045625Y005500D01*
X045390Y005735D01*
X045155Y005500D01*
X044625Y005500D01*
X044390Y005735D01*
X044155Y005500D01*
X043625Y005500D01*
X043390Y005735D01*
X043155Y005500D01*
X042625Y005500D01*
X042390Y005735D01*
X042155Y005500D01*
X041816Y005500D01*
X041367Y005051D01*
X041220Y004990D01*
X033685Y004990D01*
X033538Y005051D01*
X033426Y005163D01*
X033426Y005163D01*
X029163Y009426D01*
X029163Y009426D01*
X029051Y009538D01*
X028990Y009685D01*
X028990Y010510D01*
X028771Y010510D01*
X028550Y010601D01*
X028390Y010761D01*
X028230Y010601D01*
X028009Y010510D01*
X027771Y010510D01*
X027550Y010601D01*
X027390Y010761D01*
X027230Y010601D01*
X027009Y010510D01*
X026771Y010510D01*
X026550Y010601D01*
X026390Y010761D01*
X026230Y010601D01*
X026009Y010510D01*
X025771Y010510D01*
X025550Y010601D01*
X025390Y010761D01*
X025230Y010601D01*
X025009Y010510D01*
X024771Y010510D01*
X024550Y010601D01*
X024390Y010761D01*
X024230Y010601D01*
X024009Y010510D01*
X023771Y010510D01*
X023550Y010601D01*
X023381Y010770D01*
X023290Y010991D01*
X023290Y011789D01*
X023381Y012010D01*
X023550Y012179D01*
X023771Y012270D01*
X024009Y012270D01*
X024230Y012179D01*
X024390Y012019D01*
X024550Y012179D01*
X024771Y012270D01*
X025009Y012270D01*
X025230Y012179D01*
X025390Y012019D01*
X025550Y012179D01*
X025771Y012270D01*
X026009Y012270D01*
X026230Y012179D01*
X026390Y012019D01*
X026550Y012179D01*
X026771Y012270D01*
X027009Y012270D01*
X027230Y012179D01*
X027390Y012019D01*
X027550Y012179D01*
X027771Y012270D01*
X028009Y012270D01*
X028230Y012179D01*
X028390Y012019D01*
X028550Y012179D01*
X028771Y012270D01*
X028990Y012270D01*
X028990Y013510D01*
X028771Y013510D01*
X028550Y013601D01*
X028390Y013761D01*
X028230Y013601D01*
X028009Y013510D01*
X027771Y013510D01*
X027550Y013601D01*
X027390Y013761D01*
X027230Y013601D01*
X027009Y013510D01*
X026771Y013510D01*
X026550Y013601D01*
X026390Y013761D01*
X026230Y013601D01*
X026009Y013510D01*
X025771Y013510D01*
X025550Y013601D01*
X025390Y013761D01*
X025230Y013601D01*
X025009Y013510D01*
X024771Y013510D01*
X024550Y013601D01*
X024383Y013768D01*
X024348Y013719D01*
X024281Y013652D01*
X024204Y013597D01*
X024120Y013554D01*
X024030Y013525D01*
X023937Y013510D01*
X023890Y013510D01*
X023890Y014390D01*
X023890Y014390D01*
X023890Y014390D01*
X023290Y014390D01*
X023290Y014717D01*
X023305Y014810D01*
X023334Y014900D01*
X023377Y014984D01*
X023432Y015061D01*
X023486Y015115D01*
X013421Y015115D01*
X013338Y015032D01*
X013128Y014945D01*
X012902Y014945D01*
X012692Y015032D01*
X012532Y015192D01*
X012445Y015402D01*
X012445Y015628D01*
X012532Y015838D01*
X012692Y015998D01*
X012902Y016085D01*
X013128Y016085D01*
X013338Y015998D01*
X013421Y015915D01*
X014532Y015915D01*
X014519Y015920D01*
X014492Y015923D01*
X014432Y015957D01*
X014368Y015983D01*
X014349Y016002D01*
X014325Y016016D01*
X014282Y016069D01*
X014233Y016118D01*
X014223Y016143D01*
X013909Y016535D01*
X008295Y016535D01*
X008118Y016608D01*
X007618Y017108D01*
X007483Y017243D01*
X007410Y017420D01*
X007410Y022691D01*
X004493Y025608D01*
X004358Y025743D01*
X004285Y025920D01*
X004285Y038485D01*
X004358Y038662D01*
X005686Y039990D01*
X005426Y039920D01*
X005104Y039920D01*
X004794Y040003D01*
X004516Y040164D01*
X004289Y040391D01*
X004270Y040423D01*
X004270Y006857D01*
X004289Y006889D01*
X004516Y007116D01*
X004794Y007277D01*
X005104Y007360D01*
X005426Y007360D01*
X005736Y007277D01*
X006014Y007116D01*
X006241Y006889D01*
X006402Y006611D01*
X006485Y006301D01*
X006485Y005979D01*
X006402Y005669D01*
X006241Y005391D01*
X006014Y005164D01*
X005736Y005003D01*
X005426Y004920D01*
X005104Y004920D01*
X004794Y005003D01*
X004516Y005164D01*
X004289Y005391D01*
X004270Y005423D01*
X004270Y005317D02*
X004363Y005317D01*
X004270Y005158D02*
X004526Y005158D01*
X004270Y005000D02*
X004808Y005000D01*
X004270Y004841D02*
X066502Y004841D01*
X066502Y004683D02*
X004270Y004683D01*
X004270Y004524D02*
X066502Y004524D01*
X066502Y004366D02*
X004270Y004366D01*
X005722Y005000D02*
X033662Y005000D01*
X033431Y005158D02*
X006004Y005158D01*
X006167Y005317D02*
X033273Y005317D01*
X033114Y005475D02*
X006290Y005475D01*
X006381Y005634D02*
X006991Y005634D01*
X007125Y005500D02*
X006750Y005875D01*
X006750Y006120D01*
X007370Y006120D01*
X007410Y006120D01*
X007410Y006160D01*
X007370Y006160D01*
X007370Y007120D01*
X006750Y007120D01*
X006750Y006875D01*
X006985Y006640D01*
X006750Y006405D01*
X006750Y006160D01*
X007370Y006160D01*
X007370Y006120D01*
X007370Y005500D01*
X007125Y005500D01*
X007370Y005634D02*
X007410Y005634D01*
X007410Y005500D02*
X007655Y005500D01*
X007890Y005735D01*
X008125Y005500D01*
X008370Y005500D01*
X008370Y006120D01*
X008410Y006120D01*
X008410Y006160D01*
X009030Y006160D01*
X009030Y006405D01*
X008795Y006640D01*
X009030Y006875D01*
X009030Y007120D01*
X008410Y007120D01*
X008410Y007160D01*
X009030Y007160D01*
X009030Y007405D01*
X008655Y007780D01*
X008410Y007780D01*
X008410Y007160D01*
X008370Y007160D01*
X008370Y007780D01*
X008125Y007780D01*
X007890Y007545D01*
X007655Y007780D01*
X007410Y007780D01*
X007410Y007160D01*
X007370Y007160D01*
X007370Y007780D01*
X007125Y007780D01*
X006750Y007405D01*
X006750Y007160D01*
X007370Y007160D01*
X007370Y007120D01*
X007410Y007120D01*
X007410Y007160D01*
X008370Y007160D01*
X008370Y007120D01*
X008030Y007120D01*
X007410Y007120D01*
X007410Y006500D01*
X007410Y006160D01*
X008370Y006160D01*
X008370Y007120D01*
X008410Y007120D01*
X008410Y006500D01*
X008410Y006160D01*
X008370Y006160D01*
X008370Y006120D01*
X008030Y006120D01*
X007410Y006120D01*
X007410Y005500D01*
X007410Y005792D02*
X007370Y005792D01*
X007370Y005951D02*
X007410Y005951D01*
X007410Y006109D02*
X007370Y006109D01*
X007370Y006268D02*
X007410Y006268D01*
X007410Y006426D02*
X007370Y006426D01*
X007370Y006585D02*
X007410Y006585D01*
X007410Y006743D02*
X007370Y006743D01*
X007370Y006902D02*
X007410Y006902D01*
X007410Y007060D02*
X007370Y007060D01*
X007370Y007219D02*
X007410Y007219D01*
X007410Y007377D02*
X007370Y007377D01*
X007370Y007536D02*
X007410Y007536D01*
X007410Y007694D02*
X007370Y007694D01*
X007039Y007694D02*
X004270Y007694D01*
X004270Y007536D02*
X006880Y007536D01*
X006750Y007377D02*
X004270Y007377D01*
X004270Y007219D02*
X004693Y007219D01*
X004460Y007060D02*
X004270Y007060D01*
X004270Y006902D02*
X004301Y006902D01*
X004270Y007853D02*
X030737Y007853D01*
X030578Y008011D02*
X004270Y008011D01*
X004270Y008170D02*
X030420Y008170D01*
X030261Y008328D02*
X004270Y008328D01*
X004270Y008487D02*
X030103Y008487D01*
X029944Y008645D02*
X004270Y008645D01*
X004270Y008804D02*
X029786Y008804D01*
X029627Y008962D02*
X004270Y008962D01*
X004270Y009121D02*
X029469Y009121D01*
X029310Y009279D02*
X004270Y009279D01*
X004270Y009438D02*
X029152Y009438D01*
X029027Y009596D02*
X007126Y009596D01*
X007030Y009500D02*
X007405Y009875D01*
X007405Y010405D01*
X007170Y010640D01*
X007405Y010875D01*
X007405Y011405D01*
X007170Y011640D01*
X007405Y011875D01*
X007405Y012405D01*
X007170Y012640D01*
X007405Y012875D01*
X007405Y013405D01*
X007170Y013640D01*
X007405Y013875D01*
X007405Y014405D01*
X007170Y014640D01*
X007405Y014875D01*
X007405Y015405D01*
X007170Y015640D01*
X007405Y015875D01*
X007405Y016405D01*
X007170Y016640D01*
X007405Y016875D01*
X007405Y017405D01*
X007030Y017780D01*
X006500Y017780D01*
X006265Y017545D01*
X006030Y017780D01*
X005500Y017780D01*
X005125Y017405D01*
X005125Y016875D01*
X005360Y016640D01*
X005125Y016405D01*
X005125Y015875D01*
X005360Y015640D01*
X005125Y015405D01*
X005125Y014875D01*
X005360Y014640D01*
X005125Y014405D01*
X005125Y013875D01*
X005360Y013640D01*
X005125Y013405D01*
X005125Y012875D01*
X005360Y012640D01*
X005125Y012405D01*
X005125Y011875D01*
X005360Y011640D01*
X005125Y011405D01*
X005125Y010875D01*
X005360Y010640D01*
X005125Y010405D01*
X005125Y009875D01*
X005500Y009500D01*
X006030Y009500D01*
X006265Y009735D01*
X006500Y009500D01*
X007030Y009500D01*
X007285Y009755D02*
X028990Y009755D01*
X028990Y009913D02*
X007405Y009913D01*
X007405Y010072D02*
X028990Y010072D01*
X028990Y010230D02*
X007405Y010230D01*
X007405Y010389D02*
X028990Y010389D01*
X028681Y010547D02*
X028099Y010547D01*
X028334Y010706D02*
X028446Y010706D01*
X027681Y010547D02*
X027099Y010547D01*
X027334Y010706D02*
X027446Y010706D01*
X026681Y010547D02*
X026099Y010547D01*
X026334Y010706D02*
X026446Y010706D01*
X025681Y010547D02*
X025099Y010547D01*
X025334Y010706D02*
X025446Y010706D01*
X024681Y010547D02*
X024099Y010547D01*
X024334Y010706D02*
X024446Y010706D01*
X023681Y010547D02*
X007263Y010547D01*
X007236Y010706D02*
X023446Y010706D01*
X023342Y010864D02*
X007394Y010864D01*
X007405Y011023D02*
X023290Y011023D01*
X023290Y011181D02*
X007405Y011181D01*
X007405Y011340D02*
X023290Y011340D01*
X023290Y011498D02*
X007312Y011498D01*
X007187Y011657D02*
X023290Y011657D01*
X023301Y011815D02*
X007345Y011815D01*
X007405Y011974D02*
X023366Y011974D01*
X023503Y012132D02*
X007405Y012132D01*
X007405Y012291D02*
X028990Y012291D01*
X028990Y012449D02*
X007361Y012449D01*
X007203Y012608D02*
X028990Y012608D01*
X028990Y012766D02*
X007296Y012766D01*
X007405Y012925D02*
X028990Y012925D01*
X028990Y013083D02*
X007405Y013083D01*
X007405Y013242D02*
X028990Y013242D01*
X028990Y013400D02*
X007405Y013400D01*
X007252Y013559D02*
X023651Y013559D01*
X023660Y013554D02*
X023749Y013525D01*
X023843Y013510D01*
X023890Y013510D01*
X023890Y014390D01*
X023290Y014390D01*
X023290Y014063D01*
X023305Y013969D01*
X023334Y013880D01*
X023377Y013796D01*
X023432Y013719D01*
X023499Y013652D01*
X023576Y013597D01*
X023660Y013554D01*
X023890Y013559D02*
X023890Y013559D01*
X023890Y013717D02*
X023890Y013717D01*
X023890Y013876D02*
X023890Y013876D01*
X023890Y014034D02*
X023890Y014034D01*
X023890Y014193D02*
X023890Y014193D01*
X023890Y014351D02*
X023890Y014351D01*
X023290Y014351D02*
X007405Y014351D01*
X007405Y014193D02*
X023290Y014193D01*
X023295Y014034D02*
X007405Y014034D01*
X007405Y013876D02*
X023336Y013876D01*
X023434Y013717D02*
X007247Y013717D01*
X007301Y014510D02*
X023290Y014510D01*
X023290Y014668D02*
X007198Y014668D01*
X007357Y014827D02*
X023310Y014827D01*
X023377Y014985D02*
X013225Y014985D01*
X012805Y014985D02*
X007405Y014985D01*
X007405Y015144D02*
X012580Y015144D01*
X012486Y015302D02*
X007405Y015302D01*
X007350Y015461D02*
X012445Y015461D01*
X012445Y015619D02*
X007191Y015619D01*
X007308Y015778D02*
X012507Y015778D01*
X012630Y015936D02*
X007405Y015936D01*
X007405Y016095D02*
X014257Y016095D01*
X014135Y016253D02*
X007405Y016253D01*
X007399Y016412D02*
X014008Y016412D01*
X014469Y015936D02*
X013400Y015936D01*
X013015Y015515D02*
X026765Y015515D01*
X027890Y014390D01*
X028390Y015019D02*
X028230Y015179D01*
X028009Y015270D01*
X027771Y015270D01*
X027633Y015213D01*
X027104Y015742D01*
X026992Y015854D01*
X026857Y015910D01*
X031535Y015910D01*
X031535Y013990D01*
X031390Y013990D01*
X031390Y013390D01*
X031390Y013390D01*
X031390Y012790D01*
X031535Y012790D01*
X031535Y012214D01*
X031311Y011990D01*
X031141Y011990D01*
X030790Y011639D01*
X030790Y011141D01*
X031141Y010790D01*
X031639Y010790D01*
X031990Y011141D01*
X031990Y011311D01*
X032287Y011608D01*
X032422Y011743D01*
X032495Y011920D01*
X032495Y015910D01*
X035410Y015910D01*
X035410Y014259D01*
X035290Y014139D01*
X035290Y013641D01*
X035641Y013290D01*
X036139Y013290D01*
X036490Y013641D01*
X036490Y013811D01*
X036589Y013910D01*
X036823Y013910D01*
X036881Y013770D01*
X036990Y013661D01*
X036990Y012119D01*
X036881Y012010D01*
X036790Y011789D01*
X036790Y010991D01*
X036881Y010770D01*
X037050Y010601D01*
X037271Y010510D01*
X037509Y010510D01*
X037730Y010601D01*
X037890Y010761D01*
X038050Y010601D01*
X038271Y010510D01*
X038509Y010510D01*
X038730Y010601D01*
X038890Y010761D01*
X039050Y010601D01*
X039271Y010510D01*
X039319Y010510D01*
X037788Y008979D01*
X037676Y008867D01*
X037615Y008720D01*
X037615Y006935D01*
X037676Y006788D01*
X038250Y006214D01*
X038250Y005875D01*
X038335Y005790D01*
X033931Y005790D01*
X032269Y007452D01*
X032463Y007532D01*
X032623Y007692D01*
X032710Y007902D01*
X032710Y008128D01*
X032623Y008338D01*
X032463Y008498D01*
X032253Y008585D01*
X032136Y008585D01*
X030790Y009931D01*
X030790Y013970D01*
X030729Y014117D01*
X030617Y014229D01*
X030490Y014356D01*
X030490Y014789D01*
X030399Y015010D01*
X030230Y015179D01*
X030009Y015270D01*
X029771Y015270D01*
X029550Y015179D01*
X029390Y015019D01*
X029230Y015179D01*
X029009Y015270D01*
X028771Y015270D01*
X028550Y015179D01*
X028390Y015019D01*
X028265Y015144D02*
X028515Y015144D01*
X029265Y015144D02*
X029515Y015144D01*
X030265Y015144D02*
X031535Y015144D01*
X031535Y015302D02*
X027544Y015302D01*
X027385Y015461D02*
X031535Y015461D01*
X031535Y015619D02*
X027227Y015619D01*
X027068Y015778D02*
X031535Y015778D01*
X032495Y015778D02*
X035410Y015778D01*
X035410Y015619D02*
X032495Y015619D01*
X032495Y015461D02*
X035410Y015461D01*
X035410Y015302D02*
X032495Y015302D01*
X032495Y015144D02*
X035410Y015144D01*
X035410Y014985D02*
X032495Y014985D01*
X032495Y014827D02*
X035410Y014827D01*
X035410Y014668D02*
X032495Y014668D01*
X032495Y014510D02*
X035410Y014510D01*
X035410Y014351D02*
X032495Y014351D01*
X032495Y014193D02*
X035344Y014193D01*
X035290Y014034D02*
X032495Y014034D01*
X032495Y013876D02*
X035290Y013876D01*
X035290Y013717D02*
X032495Y013717D01*
X032495Y013559D02*
X035373Y013559D01*
X035531Y013400D02*
X032495Y013400D01*
X032495Y013242D02*
X036990Y013242D01*
X036990Y013400D02*
X036249Y013400D01*
X036407Y013559D02*
X036990Y013559D01*
X036934Y013717D02*
X036490Y013717D01*
X036554Y013876D02*
X036838Y013876D01*
X037390Y014390D02*
X037390Y014640D01*
X038015Y015265D01*
X040765Y015265D01*
X041390Y014640D01*
X041390Y014390D01*
X042390Y014390D01*
X042015Y015144D02*
X041765Y015144D01*
X041294Y015302D02*
X050490Y015302D01*
X050490Y015144D02*
X050265Y015144D01*
X050490Y015461D02*
X041135Y015461D01*
X040956Y015619D02*
X050490Y015619D01*
X050490Y015778D02*
X036370Y015778D01*
X036370Y015619D02*
X037824Y015619D01*
X037645Y015461D02*
X036370Y015461D01*
X036370Y015302D02*
X037486Y015302D01*
X037015Y015144D02*
X036370Y015144D01*
X036370Y014985D02*
X036871Y014985D01*
X037390Y014390D02*
X037390Y011390D01*
X038390Y011390D01*
X038834Y010706D02*
X038946Y010706D01*
X039181Y010547D02*
X038599Y010547D01*
X038181Y010547D02*
X037599Y010547D01*
X037834Y010706D02*
X037946Y010706D01*
X037181Y010547D02*
X030790Y010547D01*
X030790Y010389D02*
X039198Y010389D01*
X039039Y010230D02*
X030790Y010230D01*
X030790Y010072D02*
X038881Y010072D01*
X038722Y009913D02*
X030808Y009913D01*
X030966Y009755D02*
X038564Y009755D01*
X038405Y009596D02*
X031125Y009596D01*
X031283Y009438D02*
X038247Y009438D01*
X038088Y009279D02*
X031442Y009279D01*
X031600Y009121D02*
X037930Y009121D01*
X037771Y008962D02*
X031759Y008962D01*
X031917Y008804D02*
X037650Y008804D01*
X037615Y008645D02*
X032076Y008645D01*
X032475Y008487D02*
X037615Y008487D01*
X037615Y008328D02*
X032627Y008328D01*
X032693Y008170D02*
X037615Y008170D01*
X037615Y008011D02*
X032710Y008011D01*
X032690Y007853D02*
X037615Y007853D01*
X037615Y007694D02*
X032624Y007694D01*
X032467Y007536D02*
X037615Y007536D01*
X037615Y007377D02*
X032344Y007377D01*
X032502Y007219D02*
X037615Y007219D01*
X037615Y007060D02*
X032661Y007060D01*
X032819Y006902D02*
X037629Y006902D01*
X037721Y006743D02*
X032978Y006743D01*
X033136Y006585D02*
X037880Y006585D01*
X038038Y006426D02*
X033295Y006426D01*
X033453Y006268D02*
X038197Y006268D01*
X038250Y006109D02*
X033612Y006109D01*
X033770Y005951D02*
X038250Y005951D01*
X038333Y005792D02*
X033929Y005792D01*
X033765Y005390D02*
X041140Y005390D01*
X041890Y006140D01*
X042289Y005634D02*
X042491Y005634D01*
X041791Y005475D02*
X061429Y005475D01*
X061164Y005634D02*
X060664Y005634D01*
X059866Y005634D02*
X059664Y005634D01*
X058866Y005634D02*
X054289Y005634D01*
X054447Y005792D02*
X058708Y005792D01*
X058625Y005951D02*
X054530Y005951D01*
X054530Y006109D02*
X058625Y006109D01*
X058625Y006268D02*
X054530Y006268D01*
X054509Y006426D02*
X058646Y006426D01*
X058785Y006585D02*
X054351Y006585D01*
X054398Y006743D02*
X058757Y006743D01*
X058625Y006902D02*
X054530Y006902D01*
X054530Y007060D02*
X058625Y007060D01*
X058508Y007219D02*
X054530Y007219D01*
X054530Y007377D02*
X058349Y007377D01*
X058191Y007536D02*
X054400Y007536D01*
X054241Y007694D02*
X058032Y007694D01*
X057874Y007853D02*
X049743Y007853D01*
X049585Y008011D02*
X057715Y008011D01*
X057557Y008170D02*
X049426Y008170D01*
X049268Y008328D02*
X057398Y008328D01*
X057240Y008487D02*
X049109Y008487D01*
X048951Y008645D02*
X057081Y008645D01*
X056923Y008804D02*
X048792Y008804D01*
X048634Y008962D02*
X056764Y008962D01*
X056606Y009121D02*
X048475Y009121D01*
X048317Y009279D02*
X056447Y009279D01*
X056289Y009438D02*
X048158Y009438D01*
X048000Y009596D02*
X056130Y009596D01*
X056052Y009755D02*
X047841Y009755D01*
X047683Y009913D02*
X056035Y009913D01*
X056035Y010072D02*
X047524Y010072D01*
X047366Y010230D02*
X056035Y010230D01*
X056035Y010389D02*
X047207Y010389D01*
X047049Y010547D02*
X047681Y010547D01*
X047446Y010706D02*
X046890Y010706D01*
X046790Y010864D02*
X047342Y010864D01*
X047290Y011023D02*
X046790Y011023D01*
X046790Y011181D02*
X047290Y011181D01*
X047290Y011340D02*
X046790Y011340D01*
X046790Y011498D02*
X047290Y011498D01*
X047290Y011657D02*
X046790Y011657D01*
X046790Y011815D02*
X047301Y011815D01*
X047366Y011974D02*
X046790Y011974D01*
X046790Y012132D02*
X047503Y012132D01*
X046790Y012291D02*
X056035Y012291D01*
X056035Y012449D02*
X046790Y012449D01*
X046790Y012608D02*
X056035Y012608D01*
X056035Y012766D02*
X046790Y012766D01*
X046790Y012925D02*
X055007Y012925D01*
X055141Y012790D02*
X054790Y013141D01*
X054790Y013390D01*
X055390Y013390D01*
X055390Y013390D01*
X055390Y013990D01*
X055639Y013990D01*
X055990Y013639D01*
X055990Y013390D01*
X055390Y013390D01*
X055390Y013390D01*
X055390Y013390D01*
X055390Y013990D01*
X055141Y013990D01*
X054790Y013639D01*
X054790Y013390D01*
X055390Y013390D01*
X055990Y013390D01*
X055990Y013141D01*
X055639Y012790D01*
X055390Y012790D01*
X055390Y013390D01*
X055390Y013390D01*
X055390Y012790D01*
X055141Y012790D01*
X055390Y012925D02*
X055390Y012925D01*
X055390Y013083D02*
X055390Y013083D01*
X055390Y013242D02*
X055390Y013242D01*
X055390Y013400D02*
X055390Y013400D01*
X055390Y013559D02*
X055390Y013559D01*
X055390Y013717D02*
X055390Y013717D01*
X055390Y013876D02*
X055390Y013876D01*
X055753Y013876D02*
X056035Y013876D01*
X056035Y014034D02*
X054490Y014034D01*
X054490Y014193D02*
X056035Y014193D01*
X056035Y014351D02*
X054490Y014351D01*
X054490Y014510D02*
X056035Y014510D01*
X056035Y014668D02*
X054490Y014668D01*
X054475Y014827D02*
X056035Y014827D01*
X056035Y014985D02*
X054409Y014985D01*
X054290Y015144D02*
X055958Y015144D01*
X055799Y015302D02*
X054290Y015302D01*
X054290Y015461D02*
X055641Y015461D01*
X055482Y015619D02*
X054290Y015619D01*
X054290Y015778D02*
X055324Y015778D01*
X056047Y016412D02*
X058631Y016412D01*
X058625Y016405D02*
X058625Y015875D01*
X058860Y015640D01*
X058625Y015405D01*
X058625Y014875D01*
X058860Y014640D01*
X058625Y014405D01*
X058625Y013875D01*
X058860Y013640D01*
X058625Y013405D01*
X058625Y012875D01*
X058860Y012640D01*
X058625Y012405D01*
X058625Y011875D01*
X058860Y011640D01*
X058625Y011405D01*
X058625Y010875D01*
X058860Y010640D01*
X058625Y010405D01*
X058625Y009875D01*
X059000Y009500D01*
X059530Y009500D01*
X059765Y009735D01*
X060000Y009500D01*
X060530Y009500D01*
X060905Y009875D01*
X060905Y010405D01*
X060670Y010640D01*
X060905Y010875D01*
X060905Y011405D01*
X060670Y011640D01*
X060905Y011875D01*
X060905Y012405D01*
X060670Y012640D01*
X060905Y012875D01*
X060905Y013405D01*
X060670Y013640D01*
X060905Y013875D01*
X060905Y014405D01*
X060670Y014640D01*
X060905Y014875D01*
X060905Y015405D01*
X060670Y015640D01*
X060905Y015875D01*
X060905Y016405D01*
X060670Y016640D01*
X060905Y016875D01*
X060905Y017405D01*
X060530Y017780D01*
X060000Y017780D01*
X059765Y017545D01*
X059530Y017780D01*
X059000Y017780D01*
X058625Y017405D01*
X058625Y016875D01*
X058860Y016640D01*
X058625Y016405D01*
X058625Y016253D02*
X056206Y016253D01*
X056364Y016095D02*
X058625Y016095D01*
X058625Y015936D02*
X056523Y015936D01*
X056681Y015778D02*
X058722Y015778D01*
X058839Y015619D02*
X056840Y015619D01*
X056954Y015461D02*
X058680Y015461D01*
X058625Y015302D02*
X056995Y015302D01*
X056995Y015144D02*
X058625Y015144D01*
X058625Y014985D02*
X056995Y014985D01*
X056995Y014827D02*
X058673Y014827D01*
X058832Y014668D02*
X056995Y014668D01*
X056995Y014510D02*
X058729Y014510D01*
X058625Y014351D02*
X056995Y014351D01*
X056995Y014193D02*
X058625Y014193D01*
X058625Y014034D02*
X056995Y014034D01*
X056995Y013876D02*
X058625Y013876D01*
X058783Y013717D02*
X056995Y013717D01*
X056995Y013559D02*
X058778Y013559D01*
X058625Y013400D02*
X056995Y013400D01*
X056995Y013242D02*
X058625Y013242D01*
X058625Y013083D02*
X056995Y013083D01*
X056995Y012925D02*
X058625Y012925D01*
X058734Y012766D02*
X056995Y012766D01*
X056995Y012608D02*
X058827Y012608D01*
X058669Y012449D02*
X056995Y012449D01*
X056995Y012291D02*
X058625Y012291D01*
X058625Y012132D02*
X056995Y012132D01*
X056995Y011974D02*
X058625Y011974D01*
X058685Y011815D02*
X056995Y011815D01*
X056995Y011657D02*
X058843Y011657D01*
X058718Y011498D02*
X056995Y011498D01*
X056995Y011340D02*
X058625Y011340D01*
X058625Y011181D02*
X056995Y011181D01*
X056995Y011023D02*
X058625Y011023D01*
X058636Y010864D02*
X056995Y010864D01*
X056995Y010706D02*
X058794Y010706D01*
X058767Y010547D02*
X056995Y010547D01*
X056995Y010389D02*
X058625Y010389D01*
X058625Y010230D02*
X056995Y010230D01*
X057012Y010072D02*
X058625Y010072D01*
X058625Y009913D02*
X057171Y009913D01*
X057329Y009755D02*
X058745Y009755D01*
X058904Y009596D02*
X057488Y009596D01*
X057646Y009438D02*
X062997Y009438D01*
X063155Y009596D02*
X060626Y009596D01*
X060785Y009755D02*
X063314Y009755D01*
X063472Y009913D02*
X060905Y009913D01*
X060905Y010072D02*
X063631Y010072D01*
X063789Y010230D02*
X060905Y010230D01*
X060905Y010389D02*
X063948Y010389D01*
X064106Y010547D02*
X060763Y010547D01*
X060736Y010706D02*
X064265Y010706D01*
X064423Y010864D02*
X060894Y010864D01*
X060905Y011023D02*
X064582Y011023D01*
X064740Y011181D02*
X060905Y011181D01*
X060905Y011340D02*
X064899Y011340D01*
X064990Y011498D02*
X060812Y011498D01*
X060687Y011657D02*
X064990Y011657D01*
X064990Y011815D02*
X060845Y011815D01*
X060905Y011974D02*
X064990Y011974D01*
X064990Y012132D02*
X060905Y012132D01*
X060905Y012291D02*
X064990Y012291D01*
X064990Y012449D02*
X060861Y012449D01*
X060703Y012608D02*
X064990Y012608D01*
X064990Y012766D02*
X060796Y012766D01*
X060905Y012925D02*
X064990Y012925D01*
X064990Y013083D02*
X060905Y013083D01*
X060905Y013242D02*
X064990Y013242D01*
X064990Y013400D02*
X060905Y013400D01*
X060752Y013559D02*
X064990Y013559D01*
X064990Y013717D02*
X060747Y013717D01*
X060905Y013876D02*
X064990Y013876D01*
X064990Y014034D02*
X060905Y014034D01*
X060905Y014193D02*
X064990Y014193D01*
X064990Y014351D02*
X060905Y014351D01*
X060801Y014510D02*
X064990Y014510D01*
X064990Y014668D02*
X060698Y014668D01*
X060857Y014827D02*
X064990Y014827D01*
X064990Y014985D02*
X060905Y014985D01*
X060905Y015144D02*
X064990Y015144D01*
X064990Y015302D02*
X060905Y015302D01*
X060850Y015461D02*
X064990Y015461D01*
X064990Y015619D02*
X060691Y015619D01*
X060808Y015778D02*
X064990Y015778D01*
X064990Y015936D02*
X060905Y015936D01*
X060905Y016095D02*
X064990Y016095D01*
X064990Y016253D02*
X060905Y016253D01*
X060899Y016412D02*
X064990Y016412D01*
X064990Y016570D02*
X060740Y016570D01*
X060759Y016729D02*
X064990Y016729D01*
X064990Y016887D02*
X060905Y016887D01*
X060905Y017046D02*
X064990Y017046D01*
X064990Y017204D02*
X060905Y017204D01*
X060905Y017363D02*
X064990Y017363D01*
X064990Y017521D02*
X060789Y017521D01*
X060631Y017680D02*
X064990Y017680D01*
X064990Y017838D02*
X057529Y017838D01*
X057687Y017997D02*
X064990Y017997D01*
X064990Y018155D02*
X061284Y018155D01*
X061412Y018314D02*
X064990Y018314D01*
X064990Y018472D02*
X061476Y018472D01*
X061490Y018631D02*
X064990Y018631D01*
X064990Y018789D02*
X061490Y018789D01*
X061490Y018948D02*
X063643Y018948D01*
X063449Y019106D02*
X061490Y019106D01*
X061483Y019265D02*
X063356Y019265D01*
X063305Y019423D02*
X061434Y019423D01*
X061327Y019582D02*
X063305Y019582D01*
X063345Y019740D02*
X061077Y019740D01*
X060890Y019740D02*
X060890Y019740D01*
X060890Y019582D02*
X060890Y019582D01*
X060890Y019423D02*
X060890Y019423D01*
X060890Y019265D02*
X060890Y019265D01*
X060890Y019106D02*
X060890Y019106D01*
X060890Y018948D02*
X060890Y018948D01*
X060890Y018789D02*
X060890Y018789D01*
X060890Y018631D02*
X060890Y018631D01*
X060890Y018472D02*
X060890Y018472D01*
X060890Y018314D02*
X060890Y018314D01*
X060890Y018155D02*
X060890Y018155D01*
X060496Y018155D02*
X060284Y018155D01*
X059899Y017680D02*
X059631Y017680D01*
X059496Y018155D02*
X059284Y018155D01*
X058899Y017680D02*
X057370Y017680D01*
X057212Y017521D02*
X058741Y017521D01*
X058625Y017363D02*
X057053Y017363D01*
X056895Y017204D02*
X058625Y017204D01*
X058625Y017046D02*
X056729Y017046D01*
X056515Y017390D02*
X052765Y017390D01*
X050390Y019765D01*
X039765Y019765D01*
X035890Y023640D01*
X035890Y024390D01*
X036390Y025015D02*
X036390Y023640D01*
X039890Y020140D01*
X050515Y020140D01*
X052890Y017765D01*
X054015Y017765D01*
X054890Y018640D01*
X054890Y018890D01*
X054890Y020890D02*
X040140Y020890D01*
X037890Y023140D01*
X037890Y024390D01*
X038390Y023761D02*
X038550Y023601D01*
X038771Y023510D01*
X039009Y023510D01*
X039230Y023601D01*
X039397Y023768D01*
X039432Y023719D01*
X039499Y023652D01*
X039576Y023597D01*
X039660Y023554D01*
X039749Y023525D01*
X039843Y023510D01*
X039890Y023510D01*
X039937Y023510D01*
X040030Y023525D01*
X040120Y023554D01*
X040204Y023597D01*
X040281Y023652D01*
X040348Y023719D01*
X040403Y023796D01*
X040446Y023880D01*
X040475Y023969D01*
X040490Y024063D01*
X040490Y024390D01*
X040490Y024717D01*
X040475Y024810D01*
X040446Y024900D01*
X040403Y024984D01*
X040348Y025061D01*
X040281Y025128D01*
X040204Y025183D01*
X040120Y025226D01*
X040030Y025255D01*
X039937Y025270D01*
X039890Y025270D01*
X039890Y024390D01*
X039890Y024390D01*
X040490Y024390D01*
X039890Y024390D01*
X039890Y024390D01*
X039890Y025270D01*
X039843Y025270D01*
X039749Y025255D01*
X039660Y025226D01*
X039576Y025183D01*
X039499Y025128D01*
X039432Y025061D01*
X039397Y025012D01*
X039230Y025179D01*
X039009Y025270D01*
X038771Y025270D01*
X038721Y025250D01*
X037992Y025979D01*
X037845Y026040D01*
X035435Y026040D01*
X035299Y025984D01*
X035826Y026510D01*
X036009Y026510D01*
X036230Y026601D01*
X036390Y026761D01*
X036550Y026601D01*
X036771Y026510D01*
X037009Y026510D01*
X037230Y026601D01*
X037390Y026761D01*
X037550Y026601D01*
X037771Y026510D01*
X038009Y026510D01*
X038230Y026601D01*
X038390Y026761D01*
X038550Y026601D01*
X038771Y026510D01*
X039009Y026510D01*
X039230Y026601D01*
X039390Y026761D01*
X039550Y026601D01*
X039771Y026510D01*
X040009Y026510D01*
X040230Y026601D01*
X040399Y026770D01*
X040490Y026991D01*
X040490Y027785D01*
X041535Y027785D01*
X041535Y027759D01*
X041415Y027639D01*
X041415Y027141D01*
X041766Y026790D01*
X042264Y026790D01*
X042384Y026910D01*
X042823Y026910D01*
X042881Y026770D01*
X043050Y026601D01*
X043271Y026510D01*
X043509Y026510D01*
X043730Y026601D01*
X043897Y026768D01*
X043932Y026719D01*
X043999Y026652D01*
X044076Y026597D01*
X044160Y026554D01*
X044249Y026525D01*
X044343Y026510D01*
X044390Y026510D01*
X044437Y026510D01*
X044530Y026525D01*
X044620Y026554D01*
X044704Y026597D01*
X044781Y026652D01*
X044848Y026719D01*
X044890Y026777D01*
X044932Y026719D01*
X044999Y026652D01*
X045076Y026597D01*
X045160Y026554D01*
X045249Y026525D01*
X045343Y026510D01*
X045390Y026510D01*
X045437Y026510D01*
X045530Y026525D01*
X045620Y026554D01*
X045704Y026597D01*
X045781Y026652D01*
X045848Y026719D01*
X045890Y026777D01*
X045932Y026719D01*
X045999Y026652D01*
X046076Y026597D01*
X046160Y026554D01*
X046249Y026525D01*
X046343Y026510D01*
X046390Y026510D01*
X046437Y026510D01*
X046530Y026525D01*
X046620Y026554D01*
X046704Y026597D01*
X046781Y026652D01*
X046848Y026719D01*
X046890Y026777D01*
X046932Y026719D01*
X046999Y026652D01*
X047076Y026597D01*
X047160Y026554D01*
X047249Y026525D01*
X047343Y026510D01*
X047390Y026510D01*
X047437Y026510D01*
X047530Y026525D01*
X047620Y026554D01*
X047704Y026597D01*
X047781Y026652D01*
X047848Y026719D01*
X047883Y026768D01*
X048050Y026601D01*
X048271Y026510D01*
X048509Y026510D01*
X048730Y026601D01*
X048890Y026761D01*
X049050Y026601D01*
X049128Y026569D01*
X048849Y026290D01*
X046685Y026290D01*
X046538Y026229D01*
X046426Y026117D01*
X045559Y025250D01*
X045509Y025270D01*
X045271Y025270D01*
X045050Y025179D01*
X044890Y025019D01*
X044730Y025179D01*
X044509Y025270D01*
X044271Y025270D01*
X044050Y025179D01*
X043890Y025019D01*
X043730Y025179D01*
X043509Y025270D01*
X043271Y025270D01*
X043050Y025179D01*
X042881Y025010D01*
X042790Y024789D01*
X042790Y023991D01*
X042881Y023770D01*
X043050Y023601D01*
X043271Y023510D01*
X043509Y023510D01*
X043730Y023601D01*
X043890Y023761D01*
X044050Y023601D01*
X044271Y023510D01*
X044509Y023510D01*
X044730Y023601D01*
X044890Y023761D01*
X045050Y023601D01*
X045271Y023510D01*
X045509Y023510D01*
X045730Y023601D01*
X045890Y023761D01*
X045990Y023661D01*
X045990Y022421D01*
X045907Y022338D01*
X045820Y022128D01*
X045820Y021902D01*
X045907Y021692D01*
X046067Y021532D01*
X046277Y021445D01*
X046503Y021445D01*
X046713Y021532D01*
X046873Y021692D01*
X046960Y021902D01*
X046960Y022128D01*
X046873Y022338D01*
X046790Y022421D01*
X046790Y023661D01*
X046890Y023761D01*
X047050Y023601D01*
X047271Y023510D01*
X047509Y023510D01*
X047730Y023601D01*
X047890Y023761D01*
X048050Y023601D01*
X048271Y023510D01*
X048509Y023510D01*
X048730Y023601D01*
X048897Y023768D01*
X048932Y023719D01*
X048999Y023652D01*
X049076Y023597D01*
X049160Y023554D01*
X049249Y023525D01*
X049343Y023510D01*
X049390Y023510D01*
X049437Y023510D01*
X049530Y023525D01*
X049620Y023554D01*
X049704Y023597D01*
X049781Y023652D01*
X049848Y023719D01*
X049903Y023796D01*
X049946Y023880D01*
X049975Y023969D01*
X049990Y024063D01*
X049990Y024390D01*
X049990Y024717D01*
X049975Y024810D01*
X049946Y024900D01*
X049903Y024984D01*
X049848Y025061D01*
X049781Y025128D01*
X049704Y025183D01*
X049620Y025226D01*
X049530Y025255D01*
X049437Y025270D01*
X049390Y025270D01*
X049390Y024390D01*
X049390Y024390D01*
X049990Y024390D01*
X049390Y024390D01*
X049390Y024390D01*
X049390Y025270D01*
X049343Y025270D01*
X049249Y025255D01*
X049160Y025226D01*
X049076Y025183D01*
X048999Y025128D01*
X048932Y025061D01*
X048897Y025012D01*
X048730Y025179D01*
X048509Y025270D01*
X048271Y025270D01*
X048050Y025179D01*
X047890Y025019D01*
X047730Y025179D01*
X047509Y025270D01*
X047271Y025270D01*
X047050Y025179D01*
X046890Y025019D01*
X046730Y025179D01*
X046652Y025211D01*
X046931Y025490D01*
X049095Y025490D01*
X049242Y025551D01*
X050511Y026820D01*
X050628Y026820D01*
X050838Y026907D01*
X050998Y027067D01*
X051085Y027277D01*
X051085Y027503D01*
X050998Y027713D01*
X050926Y027785D01*
X051441Y027785D01*
X051774Y027452D01*
X051233Y026912D01*
X051160Y026735D01*
X051160Y022545D01*
X051233Y022368D01*
X051368Y022233D01*
X051368Y022233D01*
X051790Y021811D01*
X051790Y021641D01*
X052141Y021290D01*
X052639Y021290D01*
X052990Y021641D01*
X052990Y022139D01*
X052639Y022490D01*
X052469Y022490D01*
X052120Y022839D01*
X052120Y024811D01*
X052141Y024790D01*
X052390Y024790D01*
X052615Y024790D01*
X052615Y023560D01*
X052676Y023413D01*
X052788Y023301D01*
X053480Y022609D01*
X053381Y022510D01*
X053290Y022289D01*
X053290Y021491D01*
X053373Y021290D01*
X040306Y021290D01*
X038290Y023306D01*
X038290Y023661D01*
X038390Y023761D01*
X038331Y023703D02*
X038449Y023703D01*
X038290Y023544D02*
X038688Y023544D01*
X039092Y023544D02*
X039690Y023544D01*
X039890Y023544D02*
X039890Y023544D01*
X039890Y023510D02*
X039890Y024390D01*
X039890Y024390D01*
X039890Y023510D01*
X039890Y023703D02*
X039890Y023703D01*
X039890Y023861D02*
X039890Y023861D01*
X039890Y024020D02*
X039890Y024020D01*
X039890Y024178D02*
X039890Y024178D01*
X039890Y024337D02*
X039890Y024337D01*
X039890Y024495D02*
X039890Y024495D01*
X039890Y024654D02*
X039890Y024654D01*
X039890Y024812D02*
X039890Y024812D01*
X039890Y024971D02*
X039890Y024971D01*
X039890Y025129D02*
X039890Y025129D01*
X040279Y025129D02*
X041427Y025129D01*
X041415Y025141D02*
X041766Y024790D01*
X042015Y024790D01*
X042264Y024790D01*
X042615Y025141D01*
X042615Y025390D01*
X042615Y025639D01*
X042264Y025990D01*
X042015Y025990D01*
X042015Y025390D01*
X042015Y025390D01*
X042615Y025390D01*
X042015Y025390D01*
X042015Y025390D01*
X042015Y025390D01*
X041415Y025390D01*
X041415Y025639D01*
X041766Y025990D01*
X042015Y025990D01*
X042015Y025390D01*
X042015Y024790D01*
X042015Y025390D01*
X042015Y025390D01*
X041415Y025390D01*
X041415Y025141D01*
X041415Y025288D02*
X038683Y025288D01*
X038525Y025446D02*
X041415Y025446D01*
X041415Y025605D02*
X038366Y025605D01*
X038208Y025763D02*
X041540Y025763D01*
X041698Y025922D02*
X038049Y025922D01*
X037765Y025640D02*
X038890Y024515D01*
X038890Y024390D01*
X039331Y023703D02*
X039449Y023703D01*
X040090Y023544D02*
X043188Y023544D01*
X042949Y023703D02*
X040331Y023703D01*
X040437Y023861D02*
X042844Y023861D01*
X042790Y024020D02*
X040483Y024020D01*
X040490Y024178D02*
X042790Y024178D01*
X042790Y024337D02*
X040490Y024337D01*
X040490Y024495D02*
X042790Y024495D01*
X042790Y024654D02*
X040490Y024654D01*
X040475Y024812D02*
X041744Y024812D01*
X041586Y024971D02*
X040410Y024971D01*
X039501Y025129D02*
X039279Y025129D01*
X037765Y025640D02*
X035515Y025640D01*
X035140Y025265D01*
X032640Y025265D01*
X030890Y023515D01*
X012015Y023515D01*
X011390Y024140D01*
X011390Y024390D01*
X010890Y023890D01*
X010890Y018890D01*
X011390Y018390D01*
X011897Y017768D02*
X011932Y017719D01*
X011999Y017652D01*
X012076Y017597D01*
X012160Y017554D01*
X012249Y017525D01*
X012343Y017510D01*
X012390Y017510D01*
X012437Y017510D01*
X012530Y017525D01*
X012620Y017554D01*
X012704Y017597D01*
X012781Y017652D01*
X012848Y017719D01*
X012890Y017777D01*
X012932Y017719D01*
X012999Y017652D01*
X013076Y017597D01*
X013160Y017554D01*
X013249Y017525D01*
X013343Y017510D01*
X013390Y017510D01*
X013437Y017510D01*
X013530Y017525D01*
X013620Y017554D01*
X013704Y017597D01*
X013781Y017652D01*
X013848Y017719D01*
X013890Y017777D01*
X013932Y017719D01*
X013999Y017652D01*
X014076Y017597D01*
X014160Y017554D01*
X014249Y017525D01*
X014343Y017510D01*
X014390Y017510D01*
X014437Y017510D01*
X014530Y017525D01*
X014620Y017554D01*
X014704Y017597D01*
X014781Y017652D01*
X014848Y017719D01*
X014890Y017777D01*
X014932Y017719D01*
X014999Y017652D01*
X015076Y017597D01*
X015160Y017554D01*
X015249Y017525D01*
X015343Y017510D01*
X015390Y017510D01*
X015437Y017510D01*
X015530Y017525D01*
X015620Y017554D01*
X015704Y017597D01*
X015781Y017652D01*
X015848Y017719D01*
X015883Y017768D01*
X016050Y017601D01*
X016271Y017510D01*
X016509Y017510D01*
X016730Y017601D01*
X016897Y017768D01*
X016932Y017719D01*
X016999Y017652D01*
X017076Y017597D01*
X017160Y017554D01*
X017249Y017525D01*
X017343Y017510D01*
X017390Y017510D01*
X017437Y017510D01*
X017530Y017525D01*
X017620Y017554D01*
X017704Y017597D01*
X017781Y017652D01*
X017848Y017719D01*
X017903Y017796D01*
X017946Y017880D01*
X017975Y017969D01*
X017990Y018063D01*
X017990Y018390D01*
X017990Y018717D01*
X017975Y018810D01*
X017946Y018900D01*
X017903Y018984D01*
X017848Y019061D01*
X017781Y019128D01*
X017704Y019183D01*
X017620Y019226D01*
X017530Y019255D01*
X017437Y019270D01*
X017390Y019270D01*
X017390Y018390D01*
X017390Y018390D01*
X017990Y018390D01*
X017390Y018390D01*
X017390Y018390D01*
X017390Y019270D01*
X017343Y019270D01*
X017249Y019255D01*
X017160Y019226D01*
X017076Y019183D01*
X016999Y019128D01*
X016932Y019061D01*
X016897Y019012D01*
X016790Y019119D01*
X016790Y020661D01*
X016890Y020761D01*
X017050Y020601D01*
X017271Y020510D01*
X017509Y020510D01*
X017730Y020601D01*
X017899Y020770D01*
X017990Y020991D01*
X017990Y021789D01*
X017899Y022010D01*
X017730Y022179D01*
X017509Y022270D01*
X017271Y022270D01*
X017050Y022179D01*
X016890Y022019D01*
X016730Y022179D01*
X016509Y022270D01*
X016271Y022270D01*
X016050Y022179D01*
X015890Y022019D01*
X015730Y022179D01*
X015509Y022270D01*
X015271Y022270D01*
X015050Y022179D01*
X014890Y022019D01*
X014730Y022179D01*
X014509Y022270D01*
X014271Y022270D01*
X014050Y022179D01*
X013890Y022019D01*
X013730Y022179D01*
X013509Y022270D01*
X013271Y022270D01*
X013050Y022179D01*
X012890Y022019D01*
X012730Y022179D01*
X012509Y022270D01*
X012271Y022270D01*
X012050Y022179D01*
X011890Y022019D01*
X011730Y022179D01*
X011509Y022270D01*
X011290Y022270D01*
X011290Y023510D01*
X011454Y023510D01*
X011676Y023288D01*
X011788Y023176D01*
X011935Y023115D01*
X021866Y023115D01*
X021820Y023003D01*
X021820Y022777D01*
X021907Y022567D01*
X022017Y022457D01*
X021829Y022270D01*
X021771Y022270D01*
X021550Y022179D01*
X021381Y022010D01*
X021323Y021870D01*
X020759Y021870D01*
X020639Y021990D01*
X020141Y021990D01*
X019790Y021639D01*
X019790Y021469D01*
X019243Y020922D01*
X019108Y020787D01*
X019035Y020610D01*
X019035Y016870D01*
X014871Y016870D01*
X014557Y017262D01*
X014547Y017287D01*
X014498Y017336D01*
X014455Y017389D01*
X014431Y017403D01*
X014412Y017422D01*
X014348Y017448D01*
X014288Y017482D01*
X014261Y017485D01*
X014235Y017495D01*
X014167Y017495D01*
X014098Y017503D01*
X014072Y017495D01*
X008589Y017495D01*
X008370Y017714D01*
X008370Y019061D01*
X008641Y018790D01*
X008890Y018790D01*
X009139Y018790D01*
X009490Y019141D01*
X009490Y019390D01*
X009490Y019639D01*
X009139Y019990D01*
X008890Y019990D01*
X008890Y019390D01*
X008890Y019390D01*
X009490Y019390D01*
X008890Y019390D01*
X008890Y019390D01*
X008890Y019990D01*
X008641Y019990D01*
X008370Y019719D01*
X008370Y020910D01*
X008521Y020910D01*
X008641Y020790D01*
X009139Y020790D01*
X009490Y021141D01*
X009490Y021639D01*
X009139Y021990D01*
X008641Y021990D01*
X008521Y021870D01*
X008370Y021870D01*
X008370Y022985D01*
X008297Y023162D01*
X005245Y026214D01*
X005245Y026910D01*
X008521Y026910D01*
X008641Y026790D01*
X009139Y026790D01*
X009259Y026910D01*
X009823Y026910D01*
X009881Y026770D01*
X010050Y026601D01*
X010271Y026510D01*
X010509Y026510D01*
X010730Y026601D01*
X010890Y026761D01*
X011050Y026601D01*
X011271Y026510D01*
X011509Y026510D01*
X011730Y026601D01*
X011890Y026761D01*
X012050Y026601D01*
X012271Y026510D01*
X012509Y026510D01*
X012730Y026601D01*
X012890Y026761D01*
X013050Y026601D01*
X013271Y026510D01*
X013509Y026510D01*
X013730Y026601D01*
X013890Y026761D01*
X014050Y026601D01*
X014271Y026510D01*
X014509Y026510D01*
X014730Y026601D01*
X014890Y026761D01*
X015050Y026601D01*
X015271Y026510D01*
X015509Y026510D01*
X015730Y026601D01*
X015890Y026761D01*
X016050Y026601D01*
X016271Y026510D01*
X016509Y026510D01*
X016730Y026601D01*
X016890Y026761D01*
X017050Y026601D01*
X017271Y026510D01*
X017509Y026510D01*
X017730Y026601D01*
X017899Y026770D01*
X017990Y026990D01*
X019941Y026990D01*
X020141Y026790D01*
X020639Y026790D01*
X020759Y026910D01*
X021323Y026910D01*
X021381Y026770D01*
X021550Y026601D01*
X021771Y026510D01*
X022009Y026510D01*
X022230Y026601D01*
X022390Y026761D01*
X022550Y026601D01*
X022771Y026510D01*
X023009Y026510D01*
X023230Y026601D01*
X023390Y026761D01*
X023550Y026601D01*
X023771Y026510D01*
X024009Y026510D01*
X024230Y026601D01*
X024390Y026761D01*
X024550Y026601D01*
X024771Y026510D01*
X025009Y026510D01*
X025230Y026601D01*
X025390Y026761D01*
X025550Y026601D01*
X025771Y026510D01*
X026009Y026510D01*
X026230Y026601D01*
X026390Y026761D01*
X026550Y026601D01*
X026771Y026510D01*
X027009Y026510D01*
X027230Y026601D01*
X027390Y026761D01*
X027550Y026601D01*
X027771Y026510D01*
X028009Y026510D01*
X028230Y026601D01*
X028399Y026770D01*
X028490Y026991D01*
X028490Y027785D01*
X029436Y027785D01*
X029290Y027639D01*
X029290Y027390D01*
X029890Y027390D01*
X030490Y027390D01*
X030490Y027639D01*
X030344Y027785D01*
X031410Y027785D01*
X031410Y027759D01*
X031290Y027639D01*
X031290Y027141D01*
X031641Y026790D01*
X032139Y026790D01*
X032259Y026910D01*
X032323Y026910D01*
X032381Y026770D01*
X032550Y026601D01*
X032698Y026540D01*
X032185Y026540D01*
X032038Y026479D01*
X031926Y026367D01*
X031599Y026040D01*
X027185Y026040D01*
X027038Y025979D01*
X026926Y025867D01*
X026724Y025665D01*
X024435Y025665D01*
X024288Y025604D01*
X023954Y025270D01*
X023771Y025270D01*
X023550Y025179D01*
X023390Y025019D01*
X023230Y025179D01*
X023009Y025270D01*
X022771Y025270D01*
X022550Y025179D01*
X022390Y025019D01*
X022230Y025179D01*
X022009Y025270D01*
X021771Y025270D01*
X021550Y025179D01*
X021381Y025010D01*
X021290Y024789D01*
X021290Y023991D01*
X021321Y023915D01*
X017958Y023915D01*
X017975Y023969D01*
X017990Y024063D01*
X017990Y024390D01*
X017990Y024717D01*
X017975Y024810D01*
X017946Y024900D01*
X017903Y024984D01*
X017848Y025061D01*
X017781Y025128D01*
X017704Y025183D01*
X017620Y025226D01*
X017530Y025255D01*
X017437Y025270D01*
X017390Y025270D01*
X017390Y024390D01*
X017390Y024390D01*
X017990Y024390D01*
X017390Y024390D01*
X017390Y024390D01*
X017390Y025270D01*
X017343Y025270D01*
X017249Y025255D01*
X017160Y025226D01*
X017076Y025183D01*
X016999Y025128D01*
X016932Y025061D01*
X016897Y025012D01*
X016730Y025179D01*
X016509Y025270D01*
X016271Y025270D01*
X016050Y025179D01*
X015883Y025012D01*
X015848Y025061D01*
X015781Y025128D01*
X015704Y025183D01*
X015620Y025226D01*
X015530Y025255D01*
X015437Y025270D01*
X015390Y025270D01*
X015390Y024390D01*
X015390Y024390D01*
X015390Y025270D01*
X015343Y025270D01*
X015249Y025255D01*
X015160Y025226D01*
X015076Y025183D01*
X014999Y025128D01*
X014932Y025061D01*
X014890Y025003D01*
X014848Y025061D01*
X014781Y025128D01*
X014704Y025183D01*
X014620Y025226D01*
X014530Y025255D01*
X014437Y025270D01*
X014390Y025270D01*
X014390Y024390D01*
X014390Y024390D01*
X014990Y024390D01*
X015390Y024390D01*
X015390Y024390D01*
X014390Y024390D01*
X014390Y024390D01*
X014390Y025270D01*
X014343Y025270D01*
X014249Y025255D01*
X014160Y025226D01*
X014076Y025183D01*
X013999Y025128D01*
X013932Y025061D01*
X013890Y025003D01*
X013848Y025061D01*
X013781Y025128D01*
X013704Y025183D01*
X013620Y025226D01*
X013530Y025255D01*
X013437Y025270D01*
X013390Y025270D01*
X013390Y024390D01*
X013390Y024390D01*
X014390Y024390D01*
X014390Y024390D01*
X013990Y024390D01*
X013390Y024390D01*
X013390Y024390D01*
X013390Y025270D01*
X013343Y025270D01*
X013249Y025255D01*
X013160Y025226D01*
X013076Y025183D01*
X012999Y025128D01*
X012932Y025061D01*
X012890Y025003D01*
X012848Y025061D01*
X012781Y025128D01*
X012704Y025183D01*
X012620Y025226D01*
X012530Y025255D01*
X012437Y025270D01*
X012390Y025270D01*
X012390Y024390D01*
X012390Y024390D01*
X013390Y024390D01*
X013390Y024390D01*
X012790Y024390D01*
X012390Y024390D01*
X012390Y024390D01*
X012390Y025270D01*
X012343Y025270D01*
X012249Y025255D01*
X012160Y025226D01*
X012076Y025183D01*
X011999Y025128D01*
X011932Y025061D01*
X011897Y025012D01*
X011730Y025179D01*
X011509Y025270D01*
X011271Y025270D01*
X011050Y025179D01*
X010890Y025019D01*
X010730Y025179D01*
X010509Y025270D01*
X010271Y025270D01*
X010050Y025179D01*
X009881Y025010D01*
X009790Y024789D01*
X009790Y024356D01*
X009551Y024117D01*
X009490Y023970D01*
X009490Y018810D01*
X009551Y018663D01*
X009663Y018551D01*
X009790Y018424D01*
X009790Y017991D01*
X009881Y017770D01*
X010050Y017601D01*
X010271Y017510D01*
X010509Y017510D01*
X010730Y017601D01*
X010890Y017761D01*
X011050Y017601D01*
X011271Y017510D01*
X011509Y017510D01*
X011730Y017601D01*
X011897Y017768D01*
X011972Y017680D02*
X011808Y017680D01*
X011536Y017521D02*
X012273Y017521D01*
X012390Y017521D02*
X012390Y017521D01*
X012390Y017510D02*
X012390Y018390D01*
X012390Y018390D01*
X012390Y019270D01*
X012437Y019270D01*
X012530Y019255D01*
X012620Y019226D01*
X012704Y019183D01*
X012781Y019128D01*
X012848Y019061D01*
X012890Y019003D01*
X012932Y019061D01*
X012999Y019128D01*
X013076Y019183D01*
X013160Y019226D01*
X013249Y019255D01*
X013343Y019270D01*
X013390Y019270D01*
X013390Y018390D01*
X013390Y018390D01*
X014390Y018390D01*
X014390Y018390D01*
X014390Y019270D01*
X014437Y019270D01*
X014530Y019255D01*
X014620Y019226D01*
X014704Y019183D01*
X014781Y019128D01*
X014848Y019061D01*
X014890Y019003D01*
X014932Y019061D01*
X014999Y019128D01*
X015076Y019183D01*
X015160Y019226D01*
X015249Y019255D01*
X015343Y019270D01*
X015390Y019270D01*
X015390Y018390D01*
X015390Y018390D01*
X015390Y017510D01*
X015390Y018390D01*
X015390Y018390D01*
X015390Y019270D01*
X015437Y019270D01*
X015530Y019255D01*
X015620Y019226D01*
X015704Y019183D01*
X015781Y019128D01*
X015848Y019061D01*
X015883Y019012D01*
X015990Y019119D01*
X015990Y020661D01*
X015890Y020761D01*
X015730Y020601D01*
X015509Y020510D01*
X015271Y020510D01*
X015050Y020601D01*
X014890Y020761D01*
X014730Y020601D01*
X014509Y020510D01*
X014271Y020510D01*
X014050Y020601D01*
X013890Y020761D01*
X013730Y020601D01*
X013509Y020510D01*
X013271Y020510D01*
X013050Y020601D01*
X012890Y020761D01*
X012730Y020601D01*
X012509Y020510D01*
X012271Y020510D01*
X012050Y020601D01*
X011890Y020761D01*
X011730Y020601D01*
X011509Y020510D01*
X011290Y020510D01*
X011290Y019270D01*
X011509Y019270D01*
X011730Y019179D01*
X011897Y019012D01*
X011932Y019061D01*
X011999Y019128D01*
X012076Y019183D01*
X012160Y019226D01*
X012249Y019255D01*
X012343Y019270D01*
X012390Y019270D01*
X012390Y018390D01*
X013390Y018390D01*
X013390Y018390D01*
X013390Y017510D01*
X013390Y018390D01*
X013390Y018390D01*
X013390Y019270D01*
X013437Y019270D01*
X013530Y019255D01*
X013620Y019226D01*
X013704Y019183D01*
X013781Y019128D01*
X013848Y019061D01*
X013890Y019003D01*
X013932Y019061D01*
X013999Y019128D01*
X014076Y019183D01*
X014160Y019226D01*
X014249Y019255D01*
X014343Y019270D01*
X014390Y019270D01*
X014390Y018390D01*
X014990Y018390D01*
X015390Y018390D01*
X015390Y018390D01*
X014390Y018390D01*
X014390Y018390D01*
X014390Y017510D01*
X014390Y018390D01*
X014390Y018390D01*
X014390Y018390D01*
X013990Y018390D01*
X013390Y018390D01*
X013390Y018390D01*
X012790Y018390D01*
X012390Y018390D01*
X012390Y018390D01*
X012390Y017510D01*
X012507Y017521D02*
X013273Y017521D01*
X013390Y017521D02*
X013390Y017521D01*
X013507Y017521D02*
X014273Y017521D01*
X014390Y017521D02*
X014390Y017521D01*
X014507Y017521D02*
X015273Y017521D01*
X015390Y017521D02*
X015390Y017521D01*
X015507Y017521D02*
X016244Y017521D01*
X016536Y017521D02*
X017273Y017521D01*
X017390Y017521D02*
X017390Y017521D01*
X017390Y017510D02*
X017390Y018390D01*
X017390Y017510D01*
X017507Y017521D02*
X019035Y017521D01*
X019035Y017363D02*
X014477Y017363D01*
X014603Y017204D02*
X019035Y017204D01*
X019035Y017046D02*
X014730Y017046D01*
X014857Y016887D02*
X019035Y016887D01*
X019035Y017680D02*
X017808Y017680D01*
X017925Y017838D02*
X019035Y017838D01*
X019035Y017997D02*
X017980Y017997D01*
X017990Y018155D02*
X019035Y018155D01*
X019035Y018314D02*
X017990Y018314D01*
X017990Y018472D02*
X019035Y018472D01*
X019035Y018631D02*
X017990Y018631D01*
X017979Y018789D02*
X019035Y018789D01*
X019035Y018948D02*
X017922Y018948D01*
X017803Y019106D02*
X019035Y019106D01*
X019035Y019265D02*
X017472Y019265D01*
X017390Y019265D02*
X017390Y019265D01*
X017308Y019265D02*
X016790Y019265D01*
X016790Y019423D02*
X019035Y019423D01*
X019035Y019582D02*
X016790Y019582D01*
X016790Y019740D02*
X019035Y019740D01*
X019035Y019899D02*
X016790Y019899D01*
X016790Y020057D02*
X019035Y020057D01*
X019035Y020216D02*
X016790Y020216D01*
X016790Y020374D02*
X019035Y020374D01*
X019035Y020533D02*
X017564Y020533D01*
X017820Y020691D02*
X019068Y020691D01*
X019171Y020850D02*
X017932Y020850D01*
X017990Y021008D02*
X019329Y021008D01*
X019243Y020922D02*
X019243Y020922D01*
X019488Y021167D02*
X017990Y021167D01*
X017990Y021325D02*
X019646Y021325D01*
X019790Y021484D02*
X017990Y021484D01*
X017990Y021642D02*
X019794Y021642D01*
X019952Y021801D02*
X017985Y021801D01*
X017920Y021959D02*
X020111Y021959D01*
X020669Y021959D02*
X021360Y021959D01*
X021489Y022118D02*
X017791Y022118D01*
X016989Y022118D02*
X016791Y022118D01*
X015989Y022118D02*
X015791Y022118D01*
X014989Y022118D02*
X014791Y022118D01*
X013989Y022118D02*
X013791Y022118D01*
X012989Y022118D02*
X012791Y022118D01*
X011989Y022118D02*
X011791Y022118D01*
X011290Y022276D02*
X021835Y022276D01*
X021994Y022435D02*
X011290Y022435D01*
X011290Y022593D02*
X021896Y022593D01*
X021830Y022752D02*
X011290Y022752D01*
X011290Y022910D02*
X021820Y022910D01*
X021847Y023069D02*
X011290Y023069D01*
X011290Y023227D02*
X011737Y023227D01*
X011579Y023386D02*
X011290Y023386D01*
X010390Y024390D02*
X009890Y023890D01*
X009890Y018890D01*
X010390Y018390D01*
X009790Y018314D02*
X008370Y018314D01*
X008370Y018472D02*
X009742Y018472D01*
X009584Y018631D02*
X008370Y018631D01*
X008370Y018789D02*
X009499Y018789D01*
X009490Y018948D02*
X009296Y018948D01*
X009455Y019106D02*
X009490Y019106D01*
X009490Y019265D02*
X009490Y019265D01*
X009490Y019423D02*
X009490Y019423D01*
X009490Y019582D02*
X009490Y019582D01*
X009490Y019740D02*
X009389Y019740D01*
X009490Y019899D02*
X009230Y019899D01*
X009490Y020057D02*
X008370Y020057D01*
X008370Y019899D02*
X008550Y019899D01*
X008391Y019740D02*
X008370Y019740D01*
X008370Y020216D02*
X009490Y020216D01*
X009490Y020374D02*
X008370Y020374D01*
X008370Y020533D02*
X009490Y020533D01*
X009490Y020691D02*
X008370Y020691D01*
X008370Y020850D02*
X008582Y020850D01*
X009198Y020850D02*
X009490Y020850D01*
X009490Y021008D02*
X009357Y021008D01*
X009490Y021167D02*
X009490Y021167D01*
X009490Y021325D02*
X009490Y021325D01*
X009490Y021484D02*
X009490Y021484D01*
X009486Y021642D02*
X009490Y021642D01*
X009490Y021801D02*
X009328Y021801D01*
X009169Y021959D02*
X009490Y021959D01*
X009490Y022118D02*
X008370Y022118D01*
X008370Y022276D02*
X009490Y022276D01*
X009490Y022435D02*
X008370Y022435D01*
X008370Y022593D02*
X009490Y022593D01*
X009490Y022752D02*
X008370Y022752D01*
X008370Y022910D02*
X009490Y022910D01*
X009490Y023069D02*
X008336Y023069D01*
X008232Y023227D02*
X009490Y023227D01*
X009490Y023386D02*
X008073Y023386D01*
X007915Y023544D02*
X009490Y023544D01*
X009490Y023703D02*
X007756Y023703D01*
X007598Y023861D02*
X009490Y023861D01*
X009511Y024020D02*
X007439Y024020D01*
X007281Y024178D02*
X009612Y024178D01*
X009771Y024337D02*
X007122Y024337D01*
X006964Y024495D02*
X009790Y024495D01*
X009790Y024654D02*
X006805Y024654D01*
X006647Y024812D02*
X008619Y024812D01*
X008641Y024790D02*
X008290Y025141D01*
X008290Y025390D01*
X008890Y025390D01*
X008890Y025390D01*
X008890Y025990D01*
X009139Y025990D01*
X009490Y025639D01*
X009490Y025390D01*
X008890Y025390D01*
X008890Y025390D01*
X008890Y025390D01*
X008890Y025990D01*
X008641Y025990D01*
X008290Y025639D01*
X008290Y025390D01*
X008890Y025390D01*
X009490Y025390D01*
X009490Y025141D01*
X009139Y024790D01*
X008890Y024790D01*
X008890Y025390D01*
X008890Y025390D01*
X008890Y024790D01*
X008641Y024790D01*
X008890Y024812D02*
X008890Y024812D01*
X008890Y024971D02*
X008890Y024971D01*
X008890Y025129D02*
X008890Y025129D01*
X008890Y025288D02*
X008890Y025288D01*
X008890Y025446D02*
X008890Y025446D01*
X008890Y025605D02*
X008890Y025605D01*
X008890Y025763D02*
X008890Y025763D01*
X008890Y025922D02*
X008890Y025922D01*
X009207Y025922D02*
X020073Y025922D01*
X020141Y025990D02*
X019790Y025639D01*
X019790Y025390D01*
X020390Y025390D01*
X020390Y025390D01*
X020390Y025990D01*
X020639Y025990D01*
X020990Y025639D01*
X020990Y025390D01*
X020390Y025390D01*
X020390Y025390D01*
X020390Y025390D01*
X020390Y025990D01*
X020141Y025990D01*
X020390Y025922D02*
X020390Y025922D01*
X020390Y025763D02*
X020390Y025763D01*
X020390Y025605D02*
X020390Y025605D01*
X020390Y025446D02*
X020390Y025446D01*
X020390Y025390D02*
X019790Y025390D01*
X019790Y025141D01*
X020141Y024790D01*
X020390Y024790D01*
X020639Y024790D01*
X020990Y025141D01*
X020990Y025390D01*
X020390Y025390D01*
X020390Y024790D01*
X020390Y025390D01*
X020390Y025390D01*
X020390Y025288D02*
X020390Y025288D01*
X020390Y025129D02*
X020390Y025129D01*
X020390Y024971D02*
X020390Y024971D01*
X020390Y024812D02*
X020390Y024812D01*
X020661Y024812D02*
X021299Y024812D01*
X021290Y024654D02*
X017990Y024654D01*
X017975Y024812D02*
X020119Y024812D01*
X019961Y024971D02*
X017910Y024971D01*
X017779Y025129D02*
X019802Y025129D01*
X019790Y025288D02*
X009490Y025288D01*
X009490Y025446D02*
X019790Y025446D01*
X019790Y025605D02*
X009490Y025605D01*
X009365Y025763D02*
X019915Y025763D01*
X020707Y025922D02*
X026981Y025922D01*
X026822Y025763D02*
X020865Y025763D01*
X020990Y025605D02*
X024289Y025605D01*
X024130Y025446D02*
X020990Y025446D01*
X020990Y025288D02*
X023972Y025288D01*
X023501Y025129D02*
X023279Y025129D01*
X022501Y025129D02*
X022279Y025129D01*
X021501Y025129D02*
X020978Y025129D01*
X020819Y024971D02*
X021365Y024971D01*
X021290Y024495D02*
X017990Y024495D01*
X017990Y024337D02*
X021290Y024337D01*
X021290Y024178D02*
X017990Y024178D01*
X017983Y024020D02*
X021290Y024020D01*
X022390Y022890D02*
X027640Y022890D01*
X028890Y021640D01*
X028890Y021390D01*
X029490Y021325D02*
X037639Y021325D01*
X037481Y021484D02*
X029490Y021484D01*
X029490Y021642D02*
X037322Y021642D01*
X037164Y021801D02*
X029485Y021801D01*
X029490Y021789D02*
X029399Y022010D01*
X029230Y022179D01*
X029009Y022270D01*
X028826Y022270D01*
X027981Y023115D01*
X030970Y023115D01*
X031117Y023176D01*
X032290Y024349D01*
X032290Y024063D01*
X032305Y023969D01*
X032334Y023880D01*
X032377Y023796D01*
X032432Y023719D01*
X032499Y023652D01*
X032576Y023597D01*
X032660Y023554D01*
X032749Y023525D01*
X032843Y023510D01*
X032890Y023510D01*
X032937Y023510D01*
X033030Y023525D01*
X033120Y023554D01*
X033204Y023597D01*
X033281Y023652D01*
X033348Y023719D01*
X033390Y023777D01*
X033432Y023719D01*
X033499Y023652D01*
X033576Y023597D01*
X033660Y023554D01*
X033749Y023525D01*
X033843Y023510D01*
X033890Y023510D01*
X033937Y023510D01*
X034030Y023525D01*
X034120Y023554D01*
X034204Y023597D01*
X034281Y023652D01*
X034348Y023719D01*
X034383Y023768D01*
X034550Y023601D01*
X034771Y023510D01*
X035009Y023510D01*
X035230Y023601D01*
X035390Y023761D01*
X035490Y023661D01*
X035490Y023560D01*
X035551Y023413D01*
X035663Y023301D01*
X039299Y019665D01*
X032681Y019665D01*
X031854Y020492D01*
X031742Y020604D01*
X031595Y020665D01*
X029294Y020665D01*
X029399Y020770D01*
X029490Y020991D01*
X029490Y021789D01*
X029420Y021959D02*
X037005Y021959D01*
X036847Y022118D02*
X029291Y022118D01*
X028820Y022276D02*
X036688Y022276D01*
X036530Y022435D02*
X028661Y022435D01*
X028503Y022593D02*
X036371Y022593D01*
X036213Y022752D02*
X028344Y022752D01*
X028186Y022910D02*
X036054Y022910D01*
X035896Y023069D02*
X028027Y023069D01*
X028458Y023915D02*
X030724Y023915D01*
X031674Y024865D01*
X028458Y024865D01*
X028475Y024810D01*
X028490Y024717D01*
X028490Y024390D01*
X027890Y024390D01*
X027890Y024390D01*
X028490Y024390D01*
X028490Y024063D01*
X028475Y023969D01*
X028458Y023915D01*
X028483Y024020D02*
X030829Y024020D01*
X030987Y024178D02*
X028490Y024178D01*
X028490Y024337D02*
X031146Y024337D01*
X031304Y024495D02*
X028490Y024495D01*
X028490Y024654D02*
X031463Y024654D01*
X031621Y024812D02*
X028475Y024812D01*
X027390Y025265D02*
X031890Y025265D01*
X032390Y025765D01*
X034515Y025765D01*
X035890Y027140D01*
X035890Y027390D01*
X034890Y027390D02*
X034890Y027140D01*
X033890Y026140D01*
X032265Y026140D01*
X031765Y025640D01*
X027265Y025640D01*
X026890Y025265D01*
X024515Y025265D01*
X023890Y024640D01*
X023890Y024390D01*
X024265Y022265D02*
X022390Y022265D01*
X021890Y021765D01*
X021890Y021390D01*
X021890Y018390D01*
X022890Y018390D01*
X023890Y018390D01*
X023390Y017761D02*
X023550Y017601D01*
X023771Y017510D01*
X024009Y017510D01*
X024230Y017601D01*
X024390Y017761D01*
X024550Y017601D01*
X024771Y017510D01*
X025009Y017510D01*
X025147Y017567D01*
X025801Y016913D01*
X025844Y016870D01*
X019995Y016870D01*
X019995Y018936D01*
X020141Y018790D01*
X020390Y018790D01*
X020639Y018790D01*
X020990Y019141D01*
X020990Y019390D01*
X020990Y019639D01*
X020639Y019990D01*
X020390Y019990D01*
X020390Y019390D01*
X020390Y019390D01*
X020990Y019390D01*
X020390Y019390D01*
X020390Y019390D01*
X020390Y019990D01*
X020141Y019990D01*
X019995Y019844D01*
X019995Y020316D01*
X020469Y020790D01*
X020639Y020790D01*
X020759Y020910D01*
X021323Y020910D01*
X021381Y020770D01*
X021490Y020661D01*
X021490Y019119D01*
X021381Y019010D01*
X021290Y018789D01*
X019995Y018789D01*
X019995Y018631D02*
X021290Y018631D01*
X021290Y018789D02*
X021290Y017991D01*
X021381Y017770D01*
X021550Y017601D01*
X021771Y017510D01*
X022009Y017510D01*
X022230Y017601D01*
X022390Y017761D01*
X022550Y017601D01*
X022771Y017510D01*
X023009Y017510D01*
X023230Y017601D01*
X023390Y017761D01*
X023308Y017680D02*
X023472Y017680D01*
X023744Y017521D02*
X023036Y017521D01*
X022744Y017521D02*
X022036Y017521D01*
X021744Y017521D02*
X019995Y017521D01*
X019995Y017363D02*
X025352Y017363D01*
X025193Y017521D02*
X025036Y017521D01*
X024744Y017521D02*
X024036Y017521D01*
X024308Y017680D02*
X024472Y017680D01*
X024890Y018390D02*
X026140Y017140D01*
X048390Y017140D01*
X048915Y017363D02*
X052227Y017363D01*
X052068Y017521D02*
X048815Y017521D01*
X048577Y017680D02*
X051910Y017680D01*
X051751Y017838D02*
X042519Y017838D01*
X042463Y017782D02*
X042623Y017942D01*
X042710Y018152D01*
X042710Y018378D01*
X042623Y018588D01*
X042463Y018748D01*
X042253Y018835D01*
X042027Y018835D01*
X041817Y018748D01*
X041734Y018665D01*
X037921Y018665D01*
X037838Y018748D01*
X037628Y018835D01*
X037402Y018835D01*
X037192Y018748D01*
X037032Y018588D01*
X036945Y018378D01*
X036945Y018152D01*
X037032Y017942D01*
X037192Y017782D01*
X037402Y017695D01*
X037628Y017695D01*
X037838Y017782D01*
X037921Y017865D01*
X041734Y017865D01*
X041817Y017782D01*
X042027Y017695D01*
X042253Y017695D01*
X042463Y017782D01*
X042646Y017997D02*
X051593Y017997D01*
X051434Y018155D02*
X042710Y018155D01*
X042710Y018314D02*
X051276Y018314D01*
X051117Y018472D02*
X042671Y018472D01*
X042581Y018631D02*
X050959Y018631D01*
X050800Y018789D02*
X048720Y018789D01*
X048875Y018948D02*
X050642Y018948D01*
X050483Y019106D02*
X048941Y019106D01*
X048960Y019265D02*
X050325Y019265D01*
X048390Y019265D02*
X032515Y019265D01*
X031515Y020265D01*
X024765Y020265D01*
X023890Y021140D01*
X023890Y021390D01*
X023460Y020691D02*
X023320Y020691D01*
X023064Y020533D02*
X023716Y020533D01*
X024090Y020374D02*
X022290Y020374D01*
X022290Y020216D02*
X024249Y020216D01*
X024407Y020057D02*
X022290Y020057D01*
X022290Y019899D02*
X024604Y019899D01*
X024757Y019265D02*
X024023Y019265D01*
X023757Y019265D02*
X023023Y019265D01*
X022757Y019265D02*
X022290Y019265D01*
X022290Y019423D02*
X031791Y019423D01*
X031633Y019582D02*
X022290Y019582D01*
X022290Y019740D02*
X031474Y019740D01*
X031950Y019265D02*
X028972Y019265D01*
X028890Y019265D02*
X028890Y019265D01*
X028808Y019265D02*
X028023Y019265D01*
X027757Y019265D02*
X027023Y019265D01*
X026757Y019265D02*
X025972Y019265D01*
X025890Y019265D02*
X025890Y019265D01*
X025808Y019265D02*
X025023Y019265D01*
X025303Y019106D02*
X025477Y019106D01*
X025890Y019106D02*
X025890Y019106D01*
X025890Y018948D02*
X025890Y018948D01*
X025890Y018789D02*
X025890Y018789D01*
X025890Y018631D02*
X025890Y018631D01*
X025890Y018472D02*
X025890Y018472D01*
X026303Y019106D02*
X026477Y019106D01*
X027303Y019106D02*
X027477Y019106D01*
X028303Y019106D02*
X028477Y019106D01*
X028890Y019106D02*
X028890Y019106D01*
X028890Y018948D02*
X028890Y018948D01*
X028890Y018789D02*
X028890Y018789D01*
X028890Y018631D02*
X028890Y018631D01*
X028890Y018472D02*
X028890Y018472D01*
X029490Y018472D02*
X036984Y018472D01*
X036945Y018314D02*
X029490Y018314D01*
X029490Y018155D02*
X036945Y018155D01*
X037009Y017997D02*
X029480Y017997D01*
X029425Y017838D02*
X037136Y017838D01*
X037515Y018265D02*
X042140Y018265D01*
X042364Y018789D02*
X048060Y018789D01*
X048203Y017680D02*
X029308Y017680D01*
X029490Y018631D02*
X037074Y018631D01*
X037291Y018789D02*
X029479Y018789D01*
X029422Y018948D02*
X032267Y018948D01*
X032108Y019106D02*
X029303Y019106D01*
X029320Y020691D02*
X038273Y020691D01*
X038115Y020850D02*
X029432Y020850D01*
X029490Y021008D02*
X037956Y021008D01*
X037798Y021167D02*
X029490Y021167D01*
X027890Y021390D02*
X026890Y021390D01*
X025890Y021390D01*
X024890Y021390D01*
X024890Y021640D01*
X024265Y022265D01*
X022716Y020533D02*
X022290Y020533D01*
X022320Y020691D02*
X022460Y020691D01*
X021490Y020533D02*
X020211Y020533D01*
X020370Y020691D02*
X021460Y020691D01*
X021348Y020850D02*
X020698Y020850D01*
X020053Y020374D02*
X021490Y020374D01*
X021490Y020216D02*
X019995Y020216D01*
X019995Y020057D02*
X021490Y020057D01*
X021490Y019899D02*
X020730Y019899D01*
X020889Y019740D02*
X021490Y019740D01*
X021490Y019582D02*
X020990Y019582D01*
X020990Y019423D02*
X021490Y019423D01*
X021490Y019265D02*
X020990Y019265D01*
X020955Y019106D02*
X021477Y019106D01*
X021356Y018948D02*
X020796Y018948D01*
X020390Y018948D02*
X020390Y018948D01*
X020390Y018790D02*
X020390Y019390D01*
X020390Y019390D01*
X020390Y018790D01*
X020390Y019106D02*
X020390Y019106D01*
X020390Y019265D02*
X020390Y019265D01*
X020390Y019423D02*
X020390Y019423D01*
X020390Y019582D02*
X020390Y019582D01*
X020390Y019740D02*
X020390Y019740D01*
X020390Y019899D02*
X020390Y019899D01*
X020050Y019899D02*
X019995Y019899D01*
X019995Y018472D02*
X021290Y018472D01*
X021290Y018314D02*
X019995Y018314D01*
X019995Y018155D02*
X021290Y018155D01*
X021290Y017997D02*
X019995Y017997D01*
X019995Y017838D02*
X021353Y017838D01*
X021472Y017680D02*
X019995Y017680D01*
X019995Y017204D02*
X025510Y017204D01*
X025669Y017046D02*
X019995Y017046D01*
X019995Y016887D02*
X025827Y016887D01*
X024477Y019106D02*
X024303Y019106D01*
X023477Y019106D02*
X023303Y019106D01*
X022477Y019106D02*
X022303Y019106D01*
X022308Y017680D02*
X022472Y017680D01*
X017390Y017680D02*
X017390Y017680D01*
X017390Y017838D02*
X017390Y017838D01*
X017390Y017997D02*
X017390Y017997D01*
X017390Y018155D02*
X017390Y018155D01*
X017390Y018314D02*
X017390Y018314D01*
X017390Y018390D02*
X017390Y018390D01*
X017390Y018472D02*
X017390Y018472D01*
X017390Y018631D02*
X017390Y018631D01*
X017390Y018789D02*
X017390Y018789D01*
X017390Y018948D02*
X017390Y018948D01*
X017390Y019106D02*
X017390Y019106D01*
X016977Y019106D02*
X016803Y019106D01*
X015977Y019106D02*
X015803Y019106D01*
X015990Y019265D02*
X015472Y019265D01*
X015390Y019265D02*
X015390Y019265D01*
X015308Y019265D02*
X014472Y019265D01*
X014390Y019265D02*
X014390Y019265D01*
X014308Y019265D02*
X013472Y019265D01*
X013390Y019265D02*
X013390Y019265D01*
X013308Y019265D02*
X012472Y019265D01*
X012390Y019265D02*
X012390Y019265D01*
X012308Y019265D02*
X011523Y019265D01*
X011290Y019423D02*
X015990Y019423D01*
X015990Y019582D02*
X011290Y019582D01*
X011290Y019740D02*
X015990Y019740D01*
X015990Y019899D02*
X011290Y019899D01*
X011290Y020057D02*
X015990Y020057D01*
X015990Y020216D02*
X011290Y020216D01*
X011290Y020374D02*
X015990Y020374D01*
X015990Y020533D02*
X015564Y020533D01*
X015820Y020691D02*
X015960Y020691D01*
X015216Y020533D02*
X014564Y020533D01*
X014820Y020691D02*
X014960Y020691D01*
X014216Y020533D02*
X013564Y020533D01*
X013820Y020691D02*
X013960Y020691D01*
X013216Y020533D02*
X012564Y020533D01*
X012820Y020691D02*
X012960Y020691D01*
X012216Y020533D02*
X011564Y020533D01*
X011820Y020691D02*
X011960Y020691D01*
X011977Y019106D02*
X011803Y019106D01*
X012390Y019106D02*
X012390Y019106D01*
X012390Y018948D02*
X012390Y018948D01*
X012390Y018789D02*
X012390Y018789D01*
X012390Y018631D02*
X012390Y018631D01*
X012390Y018472D02*
X012390Y018472D01*
X012390Y018390D02*
X012390Y018390D01*
X012390Y018314D02*
X012390Y018314D01*
X012390Y018155D02*
X012390Y018155D01*
X012390Y017997D02*
X012390Y017997D01*
X012390Y017838D02*
X012390Y017838D01*
X012390Y017680D02*
X012390Y017680D01*
X012808Y017680D02*
X012972Y017680D01*
X013390Y017680D02*
X013390Y017680D01*
X013390Y017838D02*
X013390Y017838D01*
X013390Y017997D02*
X013390Y017997D01*
X013390Y018155D02*
X013390Y018155D01*
X013390Y018314D02*
X013390Y018314D01*
X013390Y018472D02*
X013390Y018472D01*
X013390Y018631D02*
X013390Y018631D01*
X013390Y018789D02*
X013390Y018789D01*
X013390Y018948D02*
X013390Y018948D01*
X013390Y019106D02*
X013390Y019106D01*
X013803Y019106D02*
X013977Y019106D01*
X014390Y019106D02*
X014390Y019106D01*
X014390Y018948D02*
X014390Y018948D01*
X014390Y018789D02*
X014390Y018789D01*
X014390Y018631D02*
X014390Y018631D01*
X014390Y018472D02*
X014390Y018472D01*
X014390Y018314D02*
X014390Y018314D01*
X014390Y018155D02*
X014390Y018155D01*
X014390Y017997D02*
X014390Y017997D01*
X014390Y017838D02*
X014390Y017838D01*
X014390Y017680D02*
X014390Y017680D01*
X014808Y017680D02*
X014972Y017680D01*
X015390Y017680D02*
X015390Y017680D01*
X015390Y017838D02*
X015390Y017838D01*
X015390Y017997D02*
X015390Y017997D01*
X015390Y018155D02*
X015390Y018155D01*
X015390Y018314D02*
X015390Y018314D01*
X015390Y018472D02*
X015390Y018472D01*
X015390Y018631D02*
X015390Y018631D01*
X015390Y018789D02*
X015390Y018789D01*
X015390Y018948D02*
X015390Y018948D01*
X015390Y019106D02*
X015390Y019106D01*
X014977Y019106D02*
X014803Y019106D01*
X012977Y019106D02*
X012803Y019106D01*
X013808Y017680D02*
X013972Y017680D01*
X015808Y017680D02*
X015972Y017680D01*
X016390Y018390D02*
X016390Y021390D01*
X016820Y020691D02*
X016960Y020691D01*
X016790Y020533D02*
X017216Y020533D01*
X016972Y017680D02*
X016808Y017680D01*
X011244Y017521D02*
X010536Y017521D01*
X010244Y017521D02*
X008563Y017521D01*
X008404Y017680D02*
X009972Y017680D01*
X009853Y017838D02*
X008370Y017838D01*
X008370Y017997D02*
X009790Y017997D01*
X009790Y018155D02*
X008370Y018155D01*
X008890Y018790D02*
X008890Y019390D01*
X008890Y018790D01*
X008890Y018948D02*
X008890Y018948D01*
X008890Y019106D02*
X008890Y019106D01*
X008890Y019265D02*
X008890Y019265D01*
X008890Y019390D02*
X008890Y019390D01*
X008890Y019423D02*
X008890Y019423D01*
X008890Y019582D02*
X008890Y019582D01*
X008890Y019740D02*
X008890Y019740D01*
X008890Y019899D02*
X008890Y019899D01*
X008484Y018948D02*
X008370Y018948D01*
X007410Y018948D02*
X004270Y018948D01*
X004270Y019106D02*
X007410Y019106D01*
X007410Y019265D02*
X004270Y019265D01*
X004270Y019423D02*
X007410Y019423D01*
X007410Y019582D02*
X004270Y019582D01*
X004270Y019740D02*
X007410Y019740D01*
X007410Y019899D02*
X004270Y019899D01*
X004270Y020057D02*
X007410Y020057D01*
X007410Y020216D02*
X004270Y020216D01*
X004270Y020374D02*
X007410Y020374D01*
X007410Y020533D02*
X004270Y020533D01*
X004270Y020691D02*
X007410Y020691D01*
X007410Y020850D02*
X004270Y020850D01*
X004270Y021008D02*
X007410Y021008D01*
X007410Y021167D02*
X004270Y021167D01*
X004270Y021325D02*
X007410Y021325D01*
X007410Y021484D02*
X004270Y021484D01*
X004270Y021642D02*
X007410Y021642D01*
X007410Y021801D02*
X004270Y021801D01*
X004270Y021959D02*
X007410Y021959D01*
X007410Y022118D02*
X004270Y022118D01*
X004270Y022276D02*
X007410Y022276D01*
X007410Y022435D02*
X004270Y022435D01*
X004270Y022593D02*
X007410Y022593D01*
X007350Y022752D02*
X004270Y022752D01*
X004270Y022910D02*
X007191Y022910D01*
X007033Y023069D02*
X004270Y023069D01*
X004270Y023227D02*
X006874Y023227D01*
X006716Y023386D02*
X004270Y023386D01*
X004270Y023544D02*
X006557Y023544D01*
X006399Y023703D02*
X004270Y023703D01*
X004270Y023861D02*
X006240Y023861D01*
X006082Y024020D02*
X004270Y024020D01*
X004270Y024178D02*
X005923Y024178D01*
X005765Y024337D02*
X004270Y024337D01*
X004270Y024495D02*
X005606Y024495D01*
X005448Y024654D02*
X004270Y024654D01*
X004270Y024812D02*
X005289Y024812D01*
X005131Y024971D02*
X004270Y024971D01*
X004270Y025129D02*
X004972Y025129D01*
X004814Y025288D02*
X004270Y025288D01*
X004270Y025446D02*
X004655Y025446D01*
X004497Y025605D02*
X004270Y025605D01*
X004270Y025763D02*
X004350Y025763D01*
X004285Y025922D02*
X004270Y025922D01*
X004270Y026080D02*
X004285Y026080D01*
X004270Y026239D02*
X004285Y026239D01*
X004270Y026397D02*
X004285Y026397D01*
X004270Y026556D02*
X004285Y026556D01*
X004270Y026714D02*
X004285Y026714D01*
X004270Y026873D02*
X004285Y026873D01*
X004270Y027031D02*
X004285Y027031D01*
X004270Y027190D02*
X004285Y027190D01*
X004270Y027348D02*
X004285Y027348D01*
X004270Y027507D02*
X004285Y027507D01*
X004270Y027665D02*
X004285Y027665D01*
X004270Y027824D02*
X004285Y027824D01*
X004270Y027982D02*
X004285Y027982D01*
X004270Y028141D02*
X004285Y028141D01*
X004270Y028299D02*
X004285Y028299D01*
X004270Y028458D02*
X004285Y028458D01*
X004270Y028616D02*
X004285Y028616D01*
X004270Y028775D02*
X004285Y028775D01*
X004270Y028933D02*
X004285Y028933D01*
X004270Y029092D02*
X004285Y029092D01*
X004270Y029250D02*
X004285Y029250D01*
X004270Y029409D02*
X004285Y029409D01*
X004270Y029567D02*
X004285Y029567D01*
X004270Y029726D02*
X004285Y029726D01*
X004270Y029884D02*
X004285Y029884D01*
X004270Y030043D02*
X004285Y030043D01*
X004270Y030201D02*
X004285Y030201D01*
X004270Y030360D02*
X004285Y030360D01*
X004270Y030518D02*
X004285Y030518D01*
X004270Y030677D02*
X004285Y030677D01*
X004270Y030835D02*
X004285Y030835D01*
X004270Y030994D02*
X004285Y030994D01*
X004270Y031152D02*
X004285Y031152D01*
X004270Y031311D02*
X004285Y031311D01*
X004270Y031469D02*
X004285Y031469D01*
X004270Y031628D02*
X004285Y031628D01*
X004270Y031786D02*
X004285Y031786D01*
X004270Y031945D02*
X004285Y031945D01*
X004270Y032103D02*
X004285Y032103D01*
X004270Y032262D02*
X004285Y032262D01*
X004270Y032420D02*
X004285Y032420D01*
X004270Y032579D02*
X004285Y032579D01*
X004270Y032737D02*
X004285Y032737D01*
X004270Y032896D02*
X004285Y032896D01*
X004270Y033054D02*
X004285Y033054D01*
X004270Y033213D02*
X004285Y033213D01*
X004270Y033371D02*
X004285Y033371D01*
X004270Y033530D02*
X004285Y033530D01*
X004270Y033688D02*
X004285Y033688D01*
X004270Y033847D02*
X004285Y033847D01*
X004270Y034005D02*
X004285Y034005D01*
X004270Y034164D02*
X004285Y034164D01*
X004270Y034322D02*
X004285Y034322D01*
X004270Y034481D02*
X004285Y034481D01*
X004270Y034639D02*
X004285Y034639D01*
X004270Y034798D02*
X004285Y034798D01*
X004270Y034956D02*
X004285Y034956D01*
X004270Y035115D02*
X004285Y035115D01*
X004270Y035273D02*
X004285Y035273D01*
X004270Y035432D02*
X004285Y035432D01*
X004270Y035590D02*
X004285Y035590D01*
X004270Y035749D02*
X004285Y035749D01*
X004270Y035907D02*
X004285Y035907D01*
X004270Y036066D02*
X004285Y036066D01*
X004270Y036224D02*
X004285Y036224D01*
X004270Y036383D02*
X004285Y036383D01*
X004270Y036541D02*
X004285Y036541D01*
X004270Y036700D02*
X004285Y036700D01*
X004270Y036858D02*
X004285Y036858D01*
X004270Y037017D02*
X004285Y037017D01*
X004270Y037175D02*
X004285Y037175D01*
X004270Y037334D02*
X004285Y037334D01*
X004270Y037492D02*
X004285Y037492D01*
X004270Y037651D02*
X004285Y037651D01*
X004270Y037809D02*
X004285Y037809D01*
X004270Y037968D02*
X004285Y037968D01*
X004270Y038126D02*
X004285Y038126D01*
X004270Y038285D02*
X004285Y038285D01*
X004270Y038443D02*
X004285Y038443D01*
X004270Y038602D02*
X004333Y038602D01*
X004270Y038760D02*
X004456Y038760D01*
X004615Y038919D02*
X004270Y038919D01*
X004270Y039077D02*
X004773Y039077D01*
X004932Y039236D02*
X004270Y039236D01*
X004270Y039394D02*
X005090Y039394D01*
X005249Y039553D02*
X004270Y039553D01*
X004270Y039711D02*
X005407Y039711D01*
X005566Y039870D02*
X004270Y039870D01*
X004270Y040028D02*
X004751Y040028D01*
X004493Y040187D02*
X004270Y040187D01*
X004270Y040345D02*
X004335Y040345D01*
X004330Y041930D02*
X004270Y041930D01*
X004270Y042089D02*
X004488Y042089D01*
X004270Y042247D02*
X004742Y042247D01*
X004270Y042406D02*
X039215Y042406D01*
X039373Y042564D02*
X004270Y042564D01*
X004270Y042723D02*
X039532Y042723D01*
X039765Y042390D02*
X034890Y037515D01*
X034890Y037390D01*
X034498Y038126D02*
X034282Y038126D01*
X034186Y038285D02*
X035094Y038285D01*
X035252Y038443D02*
X034028Y038443D01*
X033869Y038602D02*
X035411Y038602D01*
X035569Y038760D02*
X033711Y038760D01*
X033552Y038919D02*
X035728Y038919D01*
X035886Y039077D02*
X033394Y039077D01*
X033140Y038765D02*
X033890Y038015D01*
X033890Y037390D01*
X033390Y038015D02*
X033390Y036765D01*
X033765Y036390D01*
X036140Y036390D01*
X036890Y037140D01*
X036890Y037390D01*
X037890Y037390D02*
X037890Y037140D01*
X036765Y036015D01*
X032765Y036015D01*
X032390Y036390D01*
X028015Y036390D01*
X027015Y037390D01*
X026577Y036700D02*
X026453Y036700D01*
X026209Y036541D02*
X026821Y036541D01*
X027209Y036541D02*
X027298Y036541D01*
X027457Y036383D02*
X016201Y036383D01*
X016043Y036541D02*
X020824Y036541D01*
X020785Y036554D02*
X020874Y036525D01*
X020968Y036510D01*
X021015Y036510D01*
X021015Y037390D01*
X021015Y037390D01*
X020415Y037390D01*
X020415Y037717D01*
X020430Y037810D01*
X020459Y037900D01*
X020502Y037984D01*
X020557Y038061D01*
X020624Y038128D01*
X020701Y038183D01*
X020785Y038226D01*
X020874Y038255D01*
X020968Y038270D01*
X021015Y038270D01*
X021015Y037390D01*
X021015Y037390D01*
X020415Y037390D01*
X020415Y037063D01*
X020430Y036969D01*
X020459Y036880D01*
X020502Y036796D01*
X020557Y036719D01*
X020624Y036652D01*
X020701Y036597D01*
X020785Y036554D01*
X021015Y036541D02*
X021015Y036541D01*
X021015Y036700D02*
X021015Y036700D01*
X021015Y036858D02*
X021015Y036858D01*
X021015Y037017D02*
X021015Y037017D01*
X021015Y037175D02*
X021015Y037175D01*
X021015Y037334D02*
X021015Y037334D01*
X021015Y037492D02*
X021015Y037492D01*
X021015Y037651D02*
X021015Y037651D01*
X021015Y037809D02*
X021015Y037809D01*
X021015Y037968D02*
X021015Y037968D01*
X021015Y038126D02*
X021015Y038126D01*
X021407Y038126D02*
X021623Y038126D01*
X022407Y038126D02*
X022623Y038126D01*
X023407Y038126D02*
X023623Y038126D01*
X024407Y038126D02*
X024623Y038126D01*
X025219Y038285D02*
X014299Y038285D01*
X014141Y038443D02*
X025377Y038443D01*
X025536Y038602D02*
X013982Y038602D01*
X013824Y038760D02*
X025694Y038760D01*
X025853Y038919D02*
X013665Y038919D01*
X013507Y039077D02*
X026011Y039077D01*
X026265Y038765D02*
X033140Y038765D01*
X033015Y038390D02*
X033390Y038015D01*
X033015Y038390D02*
X027015Y038390D01*
X026015Y037390D01*
X025015Y037390D02*
X025015Y037515D01*
X026265Y038765D01*
X025577Y036700D02*
X025453Y036700D01*
X025209Y036541D02*
X025821Y036541D01*
X024821Y036541D02*
X024209Y036541D01*
X024453Y036700D02*
X024577Y036700D01*
X023821Y036541D02*
X023209Y036541D01*
X023453Y036700D02*
X023577Y036700D01*
X022821Y036541D02*
X022209Y036541D01*
X022453Y036700D02*
X022577Y036700D01*
X021821Y036541D02*
X021206Y036541D01*
X021453Y036700D02*
X021577Y036700D01*
X020577Y036700D02*
X015884Y036700D01*
X015726Y036858D02*
X020470Y036858D01*
X020422Y037017D02*
X015567Y037017D01*
X015409Y037175D02*
X020415Y037175D01*
X020415Y037334D02*
X015250Y037334D01*
X015092Y037492D02*
X020415Y037492D01*
X020415Y037651D02*
X014933Y037651D01*
X014775Y037809D02*
X020430Y037809D01*
X020493Y037968D02*
X014616Y037968D01*
X014458Y038126D02*
X020623Y038126D01*
X020465Y034910D02*
X016995Y034910D01*
X016995Y032339D01*
X020589Y028745D01*
X024479Y028745D01*
X024407Y028817D01*
X024320Y029027D01*
X024320Y029253D01*
X024407Y029463D01*
X024434Y029490D01*
X024296Y029490D01*
X024213Y029407D01*
X024003Y029320D01*
X023777Y029320D01*
X023567Y029407D01*
X023407Y029567D01*
X019767Y029567D01*
X019925Y029409D02*
X023565Y029409D01*
X023407Y029567D02*
X023320Y029777D01*
X023320Y030003D01*
X023407Y030213D01*
X023567Y030373D01*
X023777Y030460D01*
X024003Y030460D01*
X024213Y030373D01*
X024296Y030290D01*
X025859Y030290D01*
X025942Y030373D01*
X026152Y030460D01*
X026378Y030460D01*
X026588Y030373D01*
X026748Y030213D01*
X026835Y030003D01*
X026835Y029777D01*
X026748Y029567D01*
X041886Y029567D01*
X041859Y029540D02*
X026721Y029540D01*
X026748Y029567D01*
X026814Y029726D02*
X045516Y029726D01*
X045510Y029687D02*
X045525Y029780D01*
X045554Y029870D01*
X045597Y029954D01*
X045652Y030031D01*
X045719Y030098D01*
X045768Y030133D01*
X045601Y030300D01*
X045510Y030521D01*
X045510Y030759D01*
X045601Y030980D01*
X045761Y031140D01*
X045601Y031300D01*
X045510Y031521D01*
X045510Y031759D01*
X045601Y031980D01*
X045761Y032140D01*
X045601Y032300D01*
X045510Y032521D01*
X045510Y032759D01*
X045601Y032980D01*
X045761Y033140D01*
X045734Y033168D01*
X043585Y031019D01*
X043585Y030902D01*
X043498Y030692D01*
X043338Y030532D01*
X043128Y030445D01*
X042902Y030445D01*
X042692Y030532D01*
X042532Y030692D01*
X042445Y030902D01*
X042445Y031128D01*
X042532Y031338D01*
X042692Y031498D01*
X042902Y031585D01*
X043019Y031585D01*
X045301Y033867D01*
X045413Y033979D01*
X045560Y034040D01*
X045661Y034040D01*
X045761Y034140D01*
X045601Y034300D01*
X045510Y034521D01*
X045510Y034759D01*
X045601Y034980D01*
X045761Y035140D01*
X045601Y035300D01*
X045510Y035521D01*
X045510Y035759D01*
X045601Y035980D01*
X045761Y036140D01*
X045601Y036300D01*
X045510Y036521D01*
X045510Y036759D01*
X045601Y036980D01*
X045761Y037140D01*
X045601Y037300D01*
X045510Y037521D01*
X045510Y037740D01*
X045181Y037740D01*
X044165Y036724D01*
X044165Y033185D01*
X044104Y033038D01*
X042979Y031913D01*
X042867Y031801D01*
X042720Y031740D01*
X036935Y031740D01*
X036788Y031801D01*
X035059Y033530D01*
X035009Y033510D01*
X034771Y033510D01*
X034550Y033601D01*
X034390Y033761D01*
X034273Y033645D01*
X034229Y033538D01*
X033479Y032788D01*
X033367Y032676D01*
X033220Y032615D01*
X029865Y032615D01*
X029865Y032390D01*
X029265Y032390D01*
X029265Y032390D01*
X029865Y032390D01*
X029865Y032141D01*
X029514Y031790D01*
X029265Y031790D01*
X029265Y032390D01*
X029265Y032390D01*
X029265Y032390D01*
X028665Y032390D01*
X028665Y032615D01*
X023060Y032615D01*
X022913Y032676D01*
X022079Y033510D01*
X021896Y033510D01*
X021675Y033601D01*
X021515Y033761D01*
X021355Y033601D01*
X021134Y033510D01*
X020896Y033510D01*
X020675Y033601D01*
X020506Y033770D01*
X020415Y033991D01*
X020415Y034789D01*
X020465Y034910D01*
X020418Y034798D02*
X016995Y034798D01*
X016995Y034639D02*
X020415Y034639D01*
X020415Y034481D02*
X016995Y034481D01*
X016995Y034322D02*
X020415Y034322D01*
X020415Y034164D02*
X016995Y034164D01*
X016995Y034005D02*
X020415Y034005D01*
X020475Y033847D02*
X016995Y033847D01*
X016995Y033688D02*
X020588Y033688D01*
X020848Y033530D02*
X016995Y033530D01*
X016995Y033371D02*
X022218Y033371D01*
X022377Y033213D02*
X016995Y033213D01*
X016995Y033054D02*
X022535Y033054D01*
X022694Y032896D02*
X016995Y032896D01*
X016995Y032737D02*
X022852Y032737D01*
X023140Y033015D02*
X022015Y034140D01*
X022015Y034390D01*
X021588Y033688D02*
X021442Y033688D01*
X021182Y033530D02*
X021848Y033530D01*
X023015Y034140D02*
X023015Y034390D01*
X023015Y034140D02*
X023765Y033390D01*
X033015Y033390D01*
X033390Y033765D01*
X033390Y035015D01*
X033640Y035265D01*
X036265Y035265D01*
X036890Y034640D01*
X036890Y034390D01*
X037390Y035019D02*
X037230Y035179D01*
X037009Y035270D01*
X036826Y035270D01*
X036492Y035604D01*
X036465Y035615D01*
X036845Y035615D01*
X036992Y035676D01*
X037104Y035788D01*
X037826Y036510D01*
X038009Y036510D01*
X038230Y036601D01*
X038390Y036761D01*
X038550Y036601D01*
X038771Y036510D01*
X039009Y036510D01*
X039230Y036601D01*
X039390Y036761D01*
X039550Y036601D01*
X039771Y036510D01*
X040009Y036510D01*
X040230Y036601D01*
X040390Y036761D01*
X040550Y036601D01*
X040771Y036510D01*
X041009Y036510D01*
X041230Y036601D01*
X041390Y036761D01*
X041550Y036601D01*
X041771Y036510D01*
X042009Y036510D01*
X042230Y036601D01*
X042240Y036611D01*
X042240Y035157D01*
X042204Y035183D01*
X042120Y035226D01*
X042030Y035255D01*
X041937Y035270D01*
X041890Y035270D01*
X041890Y034390D01*
X041890Y034390D01*
X041890Y035270D01*
X041843Y035270D01*
X041749Y035255D01*
X041660Y035226D01*
X041576Y035183D01*
X041499Y035128D01*
X041432Y035061D01*
X041397Y035012D01*
X041230Y035179D01*
X041009Y035270D01*
X040771Y035270D01*
X040550Y035179D01*
X040390Y035019D01*
X040230Y035179D01*
X040009Y035270D01*
X039771Y035270D01*
X039550Y035179D01*
X039390Y035019D01*
X039230Y035179D01*
X039009Y035270D01*
X038771Y035270D01*
X038550Y035179D01*
X038390Y035019D01*
X038230Y035179D01*
X038009Y035270D01*
X037771Y035270D01*
X037550Y035179D01*
X037390Y035019D01*
X037294Y035115D02*
X037486Y035115D01*
X036823Y035273D02*
X042240Y035273D01*
X042240Y035432D02*
X036664Y035432D01*
X036506Y035590D02*
X042240Y035590D01*
X042240Y035749D02*
X037064Y035749D01*
X037223Y035907D02*
X042240Y035907D01*
X042240Y036066D02*
X037381Y036066D01*
X037540Y036224D02*
X042240Y036224D01*
X042240Y036383D02*
X037698Y036383D01*
X038084Y036541D02*
X038696Y036541D01*
X038452Y036700D02*
X038328Y036700D01*
X039084Y036541D02*
X039696Y036541D01*
X039452Y036700D02*
X039328Y036700D01*
X040084Y036541D02*
X040696Y036541D01*
X040452Y036700D02*
X040328Y036700D01*
X041084Y036541D02*
X041696Y036541D01*
X041452Y036700D02*
X041328Y036700D01*
X042084Y036541D02*
X042240Y036541D01*
X043015Y037140D02*
X043015Y033515D01*
X042390Y032890D01*
X040265Y032890D01*
X038890Y034265D01*
X038890Y034390D01*
X038486Y035115D02*
X038294Y035115D01*
X039294Y035115D02*
X039486Y035115D01*
X040294Y035115D02*
X040486Y035115D01*
X041294Y035115D02*
X041486Y035115D01*
X041890Y035115D02*
X041890Y035115D01*
X041890Y034956D02*
X041890Y034956D01*
X041890Y034798D02*
X041890Y034798D01*
X041890Y034639D02*
X041890Y034639D01*
X041890Y034481D02*
X041890Y034481D01*
X042640Y033640D02*
X042265Y033265D01*
X040890Y033265D01*
X039890Y034265D01*
X039890Y034390D01*
X042640Y033640D02*
X042640Y037265D01*
X046265Y040890D01*
X051515Y040890D01*
X058765Y033640D01*
X059765Y033640D01*
X060265Y033140D01*
X060767Y032737D02*
X062164Y032737D01*
X062200Y032579D02*
X060732Y032579D01*
X060890Y032420D02*
X062077Y032420D01*
X062011Y032262D02*
X060905Y032262D01*
X060905Y032103D02*
X062010Y032103D01*
X062042Y031945D02*
X060905Y031945D01*
X060816Y031786D02*
X062115Y031786D01*
X062249Y031628D02*
X060683Y031628D01*
X060841Y031469D02*
X062097Y031469D01*
X062031Y031311D02*
X060905Y031311D01*
X060905Y031152D02*
X062010Y031152D01*
X062021Y030994D02*
X060905Y030994D01*
X060865Y030835D02*
X062087Y030835D01*
X062225Y030677D02*
X060707Y030677D01*
X060792Y030518D02*
X062140Y030518D01*
X062052Y030360D02*
X060905Y030360D01*
X060905Y030201D02*
X062010Y030201D01*
X062010Y030043D02*
X060905Y030043D01*
X060905Y029884D02*
X062067Y029884D01*
X062176Y029726D02*
X060756Y029726D01*
X060597Y029567D02*
X062189Y029567D01*
X062072Y029409D02*
X057290Y029409D01*
X057290Y029567D02*
X058933Y029567D01*
X058774Y029726D02*
X057290Y029726D01*
X057290Y029884D02*
X058625Y029884D01*
X058625Y030043D02*
X057290Y030043D01*
X057290Y030201D02*
X058625Y030201D01*
X058480Y030360D02*
X057290Y030360D01*
X057290Y030518D02*
X058321Y030518D01*
X058163Y030677D02*
X057290Y030677D01*
X057290Y030835D02*
X058004Y030835D01*
X057846Y030994D02*
X057290Y030994D01*
X057290Y031152D02*
X057687Y031152D01*
X057529Y031311D02*
X057290Y031311D01*
X057290Y031469D02*
X057370Y031469D01*
X056890Y031515D02*
X050765Y037640D01*
X049390Y037640D01*
X051265Y038140D02*
X045015Y038140D01*
X043765Y036890D01*
X043765Y033265D01*
X042640Y032140D01*
X037015Y032140D01*
X034890Y034265D01*
X034890Y034390D01*
X034463Y033688D02*
X034317Y033688D01*
X034220Y033530D02*
X034723Y033530D01*
X035057Y033530D02*
X035060Y033530D01*
X035218Y033371D02*
X034062Y033371D01*
X033903Y033213D02*
X035377Y033213D01*
X035535Y033054D02*
X033745Y033054D01*
X033586Y032896D02*
X035694Y032896D01*
X035852Y032737D02*
X033428Y032737D01*
X033140Y033015D02*
X023140Y033015D01*
X023553Y030360D02*
X018974Y030360D01*
X018816Y030518D02*
X042725Y030518D01*
X042547Y030677D02*
X018657Y030677D01*
X018499Y030835D02*
X042473Y030835D01*
X042445Y030994D02*
X018340Y030994D01*
X018182Y031152D02*
X042455Y031152D01*
X042520Y031311D02*
X018023Y031311D01*
X017865Y031469D02*
X042663Y031469D01*
X042831Y031786D02*
X043220Y031786D01*
X043062Y031628D02*
X017706Y031628D01*
X017548Y031786D02*
X036824Y031786D01*
X036645Y031945D02*
X029668Y031945D01*
X029827Y032103D02*
X036486Y032103D01*
X036328Y032262D02*
X029865Y032262D01*
X029865Y032420D02*
X036169Y032420D01*
X036011Y032579D02*
X029865Y032579D01*
X029265Y032390D02*
X029265Y031790D01*
X029016Y031790D01*
X028665Y032141D01*
X028665Y032390D01*
X029265Y032390D01*
X029265Y032262D02*
X029265Y032262D01*
X029265Y032103D02*
X029265Y032103D01*
X029265Y031945D02*
X029265Y031945D01*
X028862Y031945D02*
X017389Y031945D01*
X017231Y032103D02*
X028703Y032103D01*
X028665Y032262D02*
X017072Y032262D01*
X016995Y032420D02*
X028665Y032420D01*
X028665Y032579D02*
X016995Y032579D01*
X015390Y033515D02*
X012765Y036140D01*
X009015Y036140D01*
X009015Y035140D02*
X012390Y035140D01*
X014390Y033140D01*
X014390Y027390D01*
X015390Y027390D02*
X015390Y033515D01*
X013390Y032765D02*
X012015Y034140D01*
X009015Y034140D01*
X009015Y033140D02*
X011515Y033140D01*
X012390Y032265D01*
X012390Y027390D01*
X013390Y027390D02*
X013390Y032765D01*
X016677Y035907D02*
X032307Y035907D01*
X032466Y035749D02*
X028585Y035749D01*
X028744Y035590D02*
X033399Y035590D01*
X033241Y035432D02*
X028902Y035432D01*
X029061Y035273D02*
X033082Y035273D01*
X032486Y035115D02*
X029219Y035115D01*
X029547Y034956D02*
X032359Y034956D01*
X032293Y034798D02*
X029706Y034798D01*
X029265Y034390D02*
X032890Y034390D01*
X033890Y034390D02*
X033890Y033765D01*
X033140Y033015D01*
X035890Y034265D02*
X035890Y034390D01*
X035890Y034265D02*
X037640Y032515D01*
X042515Y032515D01*
X043390Y033390D01*
X043390Y037015D01*
X045640Y039265D01*
X051140Y039265D01*
X058765Y031640D01*
X059765Y031640D01*
X060265Y031140D01*
X059765Y030640D02*
X058765Y030640D01*
X051265Y038140D01*
X051765Y039640D02*
X045515Y039640D01*
X043015Y037140D01*
X044165Y036700D02*
X045510Y036700D01*
X045510Y036541D02*
X044165Y036541D01*
X044165Y036383D02*
X045567Y036383D01*
X045677Y036224D02*
X044165Y036224D01*
X044165Y036066D02*
X045687Y036066D01*
X045571Y035907D02*
X044165Y035907D01*
X044165Y035749D02*
X045510Y035749D01*
X045510Y035590D02*
X044165Y035590D01*
X044165Y035432D02*
X045547Y035432D01*
X045628Y035273D02*
X044165Y035273D01*
X044165Y035115D02*
X045736Y035115D01*
X045591Y034956D02*
X044165Y034956D01*
X044165Y034798D02*
X045526Y034798D01*
X045510Y034639D02*
X044165Y034639D01*
X044165Y034481D02*
X045527Y034481D01*
X045592Y034322D02*
X044165Y034322D01*
X044165Y034164D02*
X045738Y034164D01*
X045476Y034005D02*
X044165Y034005D01*
X044165Y033847D02*
X045281Y033847D01*
X045122Y033688D02*
X044165Y033688D01*
X044165Y033530D02*
X044964Y033530D01*
X044805Y033371D02*
X044165Y033371D01*
X044165Y033213D02*
X044647Y033213D01*
X044488Y033054D02*
X044111Y033054D01*
X043961Y032896D02*
X044330Y032896D01*
X044171Y032737D02*
X043803Y032737D01*
X043644Y032579D02*
X044013Y032579D01*
X043854Y032420D02*
X043486Y032420D01*
X043327Y032262D02*
X043696Y032262D01*
X043537Y032103D02*
X043169Y032103D01*
X043010Y031945D02*
X043379Y031945D01*
X043876Y031311D02*
X045597Y031311D01*
X045531Y031469D02*
X044035Y031469D01*
X044193Y031628D02*
X045510Y031628D01*
X045521Y031786D02*
X044352Y031786D01*
X044510Y031945D02*
X045587Y031945D01*
X045725Y032103D02*
X044669Y032103D01*
X044827Y032262D02*
X045640Y032262D01*
X045552Y032420D02*
X044986Y032420D01*
X045144Y032579D02*
X045510Y032579D01*
X045510Y032737D02*
X045303Y032737D01*
X045461Y032896D02*
X045566Y032896D01*
X045620Y033054D02*
X045676Y033054D01*
X045640Y033640D02*
X046390Y033640D01*
X045640Y033640D02*
X043015Y031015D01*
X043585Y030994D02*
X045615Y030994D01*
X045541Y030835D02*
X043557Y030835D01*
X043483Y030677D02*
X045510Y030677D01*
X045511Y030518D02*
X043305Y030518D01*
X043718Y031152D02*
X045749Y031152D01*
X045577Y030360D02*
X026602Y030360D01*
X026753Y030201D02*
X045700Y030201D01*
X045664Y030043D02*
X026819Y030043D01*
X026835Y029884D02*
X045561Y029884D01*
X045510Y029687D02*
X045510Y029640D01*
X046390Y029640D01*
X047270Y029640D01*
X047270Y029687D01*
X047262Y029740D01*
X048510Y029740D01*
X048510Y029521D01*
X048601Y029300D01*
X048770Y029131D01*
X048991Y029040D01*
X049789Y029040D01*
X050010Y029131D01*
X050179Y029300D01*
X050270Y029521D01*
X050270Y029740D01*
X050474Y029740D01*
X051469Y028745D01*
X042676Y028745D01*
X042748Y028817D01*
X042835Y029027D01*
X042835Y029253D01*
X042748Y029463D01*
X042588Y029623D01*
X042378Y029710D01*
X042152Y029710D01*
X041942Y029623D01*
X041859Y029540D01*
X042265Y029140D02*
X024890Y029140D01*
X024359Y028933D02*
X020401Y028933D01*
X020559Y028775D02*
X024449Y028775D01*
X024320Y029092D02*
X020242Y029092D01*
X020084Y029250D02*
X024320Y029250D01*
X024384Y029409D02*
X024215Y029409D01*
X023890Y029890D02*
X026265Y029890D01*
X025928Y030360D02*
X024227Y030360D01*
X023402Y030201D02*
X019133Y030201D01*
X019291Y030043D02*
X023336Y030043D01*
X023320Y029884D02*
X019450Y029884D01*
X019608Y029726D02*
X023341Y029726D01*
X020390Y027390D02*
X017390Y027390D01*
X017941Y026873D02*
X020059Y026873D01*
X020721Y026873D02*
X021339Y026873D01*
X021437Y026714D02*
X017843Y026714D01*
X017619Y026556D02*
X021661Y026556D01*
X022119Y026556D02*
X022661Y026556D01*
X022437Y026714D02*
X022343Y026714D01*
X023119Y026556D02*
X023661Y026556D01*
X023437Y026714D02*
X023343Y026714D01*
X024119Y026556D02*
X024661Y026556D01*
X024437Y026714D02*
X024343Y026714D01*
X025119Y026556D02*
X025661Y026556D01*
X025437Y026714D02*
X025343Y026714D01*
X026119Y026556D02*
X026661Y026556D01*
X026437Y026714D02*
X026343Y026714D01*
X027119Y026556D02*
X027661Y026556D01*
X027437Y026714D02*
X027343Y026714D01*
X028119Y026556D02*
X032661Y026556D01*
X032437Y026714D02*
X028343Y026714D01*
X028441Y026873D02*
X029559Y026873D01*
X029641Y026790D02*
X029890Y026790D01*
X030139Y026790D01*
X030490Y027141D01*
X030490Y027390D01*
X029890Y027390D01*
X029890Y027390D01*
X029890Y026790D01*
X029890Y027390D01*
X029890Y027390D01*
X029890Y027390D01*
X029290Y027390D01*
X029290Y027141D01*
X029641Y026790D01*
X029890Y026873D02*
X029890Y026873D01*
X029890Y027031D02*
X029890Y027031D01*
X029890Y027190D02*
X029890Y027190D01*
X029890Y027348D02*
X029890Y027348D01*
X030221Y026873D02*
X031559Y026873D01*
X031400Y027031D02*
X030380Y027031D01*
X030490Y027190D02*
X031290Y027190D01*
X031290Y027348D02*
X030490Y027348D01*
X030490Y027507D02*
X031290Y027507D01*
X031317Y027665D02*
X030463Y027665D01*
X029317Y027665D02*
X028490Y027665D01*
X028490Y027507D02*
X029290Y027507D01*
X029290Y027348D02*
X028490Y027348D01*
X028490Y027190D02*
X029290Y027190D01*
X029400Y027031D02*
X028490Y027031D01*
X027390Y025265D02*
X026890Y024765D01*
X026890Y024390D01*
X031168Y023227D02*
X035737Y023227D01*
X035579Y023386D02*
X031326Y023386D01*
X031485Y023544D02*
X032690Y023544D01*
X032890Y023544D02*
X032890Y023544D01*
X032890Y023510D02*
X032890Y024390D01*
X033890Y024390D01*
X033890Y023510D01*
X033890Y024390D01*
X033890Y024390D01*
X033890Y024390D01*
X033290Y024390D01*
X032890Y024390D01*
X032890Y024390D01*
X032890Y024390D01*
X032890Y023510D01*
X032890Y023703D02*
X032890Y023703D01*
X032890Y023861D02*
X032890Y023861D01*
X032890Y024020D02*
X032890Y024020D01*
X032890Y024178D02*
X032890Y024178D01*
X032890Y024337D02*
X032890Y024337D01*
X032290Y024337D02*
X032277Y024337D01*
X032290Y024178D02*
X032119Y024178D01*
X031960Y024020D02*
X032297Y024020D01*
X032343Y023861D02*
X031802Y023861D01*
X031643Y023703D02*
X032449Y023703D01*
X033090Y023544D02*
X033690Y023544D01*
X033890Y023544D02*
X033890Y023544D01*
X033890Y023703D02*
X033890Y023703D01*
X033890Y023861D02*
X033890Y023861D01*
X033890Y024020D02*
X033890Y024020D01*
X033890Y024178D02*
X033890Y024178D01*
X033890Y024337D02*
X033890Y024337D01*
X033449Y023703D02*
X033331Y023703D01*
X034090Y023544D02*
X034688Y023544D01*
X034449Y023703D02*
X034331Y023703D01*
X035092Y023544D02*
X035497Y023544D01*
X035449Y023703D02*
X035331Y023703D01*
X034890Y024390D02*
X034890Y024515D01*
X035640Y025265D01*
X036140Y025265D01*
X036390Y025015D01*
X036890Y024390D02*
X036890Y023640D01*
X040015Y020515D01*
X057515Y020515D01*
X058890Y021890D01*
X059390Y022515D02*
X059390Y019390D01*
X058890Y018890D01*
X060082Y019740D02*
X060703Y019740D01*
X060453Y019582D02*
X060327Y019582D01*
X059790Y019899D02*
X063423Y019899D01*
X063498Y020057D02*
X059790Y020057D01*
X059790Y020216D02*
X063376Y020216D01*
X063311Y020374D02*
X059790Y020374D01*
X059790Y020533D02*
X063305Y020533D01*
X063325Y020691D02*
X059790Y020691D01*
X059790Y020850D02*
X063391Y020850D01*
X063533Y021008D02*
X059790Y021008D01*
X060295Y021167D02*
X060485Y021167D01*
X061295Y021167D02*
X063397Y021167D01*
X063331Y021325D02*
X061421Y021325D01*
X061490Y021801D02*
X063371Y021801D01*
X063484Y021959D02*
X061490Y021959D01*
X061490Y022118D02*
X063437Y022118D01*
X063351Y022276D02*
X061490Y022276D01*
X061430Y022435D02*
X063305Y022435D01*
X063305Y022593D02*
X061315Y022593D01*
X061054Y022752D02*
X063350Y022752D01*
X063435Y022910D02*
X059561Y022910D01*
X059719Y022752D02*
X059726Y022752D01*
X060054Y022752D02*
X060726Y022752D01*
X060465Y022593D02*
X060315Y022593D01*
X059390Y022515D02*
X058890Y023015D01*
X057890Y023015D01*
X057390Y023515D01*
X057390Y024890D01*
X056890Y025390D01*
X055890Y025390D01*
X054390Y026890D01*
X054390Y031015D01*
X052265Y033140D01*
X047890Y033140D01*
X046390Y034640D01*
X049390Y034640D02*
X052765Y034640D01*
X056390Y031015D01*
X056390Y026765D01*
X056765Y026390D01*
X059140Y026390D01*
X059890Y027140D01*
X059890Y027390D01*
X059512Y028141D02*
X059263Y028141D01*
X058890Y028141D02*
X058890Y028141D01*
X058890Y027982D02*
X058890Y027982D01*
X058890Y027824D02*
X058890Y027824D01*
X058890Y027665D02*
X058890Y027665D01*
X058890Y027507D02*
X058890Y027507D01*
X058517Y028141D02*
X058268Y028141D01*
X057512Y028141D02*
X057290Y028141D01*
X057290Y028299D02*
X064915Y028299D01*
X064990Y028141D02*
X064747Y028141D01*
X064757Y028458D02*
X057290Y028458D01*
X057290Y028616D02*
X062307Y028616D01*
X062127Y028775D02*
X057290Y028775D01*
X057290Y028933D02*
X062046Y028933D01*
X062010Y029092D02*
X057290Y029092D01*
X057290Y029250D02*
X062010Y029250D01*
X062890Y029140D02*
X064640Y029140D01*
X065390Y028390D01*
X065390Y011265D01*
X061265Y007140D01*
X060265Y007140D01*
X059914Y007694D02*
X059616Y007694D01*
X059231Y007853D02*
X061412Y007853D01*
X061570Y008011D02*
X059073Y008011D01*
X058914Y008170D02*
X061729Y008170D01*
X061887Y008328D02*
X058756Y008328D01*
X058597Y008487D02*
X062046Y008487D01*
X062204Y008645D02*
X058439Y008645D01*
X058280Y008804D02*
X062363Y008804D01*
X062521Y008962D02*
X058122Y008962D01*
X057963Y009121D02*
X062680Y009121D01*
X062838Y009279D02*
X057805Y009279D01*
X059626Y009596D02*
X059904Y009596D01*
X060616Y007694D02*
X061253Y007694D01*
X061909Y007219D02*
X065193Y007219D01*
X064960Y007060D02*
X061751Y007060D01*
X061592Y006902D02*
X064801Y006902D01*
X064704Y006743D02*
X064020Y006743D01*
X063928Y006835D02*
X063640Y006835D01*
X063640Y006140D01*
X064335Y006140D01*
X064335Y006428D01*
X063928Y006835D01*
X063640Y006835D02*
X063640Y006140D01*
X063640Y006140D01*
X063640Y006140D01*
X064335Y006140D01*
X064335Y005852D01*
X063928Y005445D01*
X063640Y005445D01*
X063640Y006140D01*
X063640Y006140D01*
X063640Y006140D01*
X062945Y006140D01*
X062945Y006428D01*
X063352Y006835D01*
X063640Y006835D01*
X063640Y006743D02*
X063640Y006743D01*
X063640Y006585D02*
X063640Y006585D01*
X063640Y006426D02*
X063640Y006426D01*
X063640Y006268D02*
X063640Y006268D01*
X063640Y006140D02*
X062945Y006140D01*
X062945Y005852D01*
X063352Y005445D01*
X063640Y005445D01*
X063640Y006140D01*
X063640Y006109D02*
X063640Y006109D01*
X063640Y005951D02*
X063640Y005951D01*
X063640Y005792D02*
X063640Y005792D01*
X063640Y005634D02*
X063640Y005634D01*
X063640Y005475D02*
X063640Y005475D01*
X063958Y005475D02*
X064740Y005475D01*
X064649Y005634D02*
X064116Y005634D01*
X064275Y005792D02*
X064595Y005792D01*
X064553Y005951D02*
X064335Y005951D01*
X064335Y006109D02*
X064545Y006109D01*
X064545Y006268D02*
X064335Y006268D01*
X064335Y006426D02*
X064579Y006426D01*
X064621Y006585D02*
X064178Y006585D01*
X063260Y006743D02*
X062000Y006743D01*
X062178Y006585D02*
X063102Y006585D01*
X062945Y006426D02*
X062274Y006426D01*
X062335Y006268D02*
X062945Y006268D01*
X062945Y006109D02*
X062335Y006109D01*
X062314Y005951D02*
X062945Y005951D01*
X063005Y005792D02*
X062248Y005792D01*
X062116Y005634D02*
X063164Y005634D01*
X063322Y005475D02*
X061851Y005475D01*
X062068Y007377D02*
X066502Y007377D01*
X066502Y007219D02*
X066337Y007219D01*
X066502Y007536D02*
X062226Y007536D01*
X062385Y007694D02*
X066502Y007694D01*
X066502Y007853D02*
X062543Y007853D01*
X062702Y008011D02*
X066502Y008011D01*
X066502Y008170D02*
X062860Y008170D01*
X063019Y008328D02*
X066502Y008328D01*
X066502Y008487D02*
X063177Y008487D01*
X063336Y008645D02*
X066502Y008645D01*
X066502Y008804D02*
X063494Y008804D01*
X063653Y008962D02*
X066502Y008962D01*
X066502Y009121D02*
X063811Y009121D01*
X063970Y009279D02*
X066502Y009279D01*
X066502Y009438D02*
X064128Y009438D01*
X064287Y009596D02*
X066502Y009596D01*
X066502Y009755D02*
X064445Y009755D01*
X064604Y009913D02*
X066502Y009913D01*
X066502Y010072D02*
X064762Y010072D01*
X064921Y010230D02*
X066502Y010230D01*
X066502Y010389D02*
X065079Y010389D01*
X065238Y010547D02*
X066502Y010547D01*
X066502Y010706D02*
X065396Y010706D01*
X065555Y010864D02*
X066502Y010864D01*
X066502Y011023D02*
X065713Y011023D01*
X065788Y011181D02*
X066502Y011181D01*
X066502Y011340D02*
X065790Y011340D01*
X065790Y011498D02*
X066502Y011498D01*
X066502Y011657D02*
X065790Y011657D01*
X065790Y011815D02*
X066502Y011815D01*
X066502Y011974D02*
X065790Y011974D01*
X065790Y012132D02*
X066502Y012132D01*
X066502Y012291D02*
X065790Y012291D01*
X065790Y012449D02*
X066502Y012449D01*
X066502Y012608D02*
X065790Y012608D01*
X065790Y012766D02*
X066502Y012766D01*
X066502Y012925D02*
X065790Y012925D01*
X065790Y013083D02*
X066502Y013083D01*
X066502Y013242D02*
X065790Y013242D01*
X065790Y013400D02*
X066502Y013400D01*
X066502Y013559D02*
X065790Y013559D01*
X065790Y013717D02*
X066502Y013717D01*
X066502Y013876D02*
X065790Y013876D01*
X065790Y014034D02*
X066502Y014034D01*
X066502Y014193D02*
X065790Y014193D01*
X065790Y014351D02*
X066502Y014351D01*
X066502Y014510D02*
X065790Y014510D01*
X065790Y014668D02*
X066502Y014668D01*
X066502Y014827D02*
X065790Y014827D01*
X065790Y014985D02*
X066502Y014985D01*
X066502Y015144D02*
X065790Y015144D01*
X065790Y015302D02*
X066502Y015302D01*
X066502Y015461D02*
X065790Y015461D01*
X065790Y015619D02*
X066502Y015619D01*
X066502Y015778D02*
X065790Y015778D01*
X065790Y015936D02*
X066502Y015936D01*
X066502Y016095D02*
X065790Y016095D01*
X065790Y016253D02*
X066502Y016253D01*
X066502Y016412D02*
X065790Y016412D01*
X065790Y016570D02*
X066502Y016570D01*
X066502Y016729D02*
X065790Y016729D01*
X065790Y016887D02*
X066502Y016887D01*
X066502Y017046D02*
X065790Y017046D01*
X065790Y017204D02*
X066502Y017204D01*
X066502Y017363D02*
X065790Y017363D01*
X065790Y017521D02*
X066502Y017521D01*
X066502Y017680D02*
X065790Y017680D01*
X065790Y017838D02*
X066502Y017838D01*
X066502Y017997D02*
X065790Y017997D01*
X065790Y018155D02*
X066502Y018155D01*
X066502Y018314D02*
X065790Y018314D01*
X065790Y018472D02*
X066502Y018472D01*
X066502Y018631D02*
X065790Y018631D01*
X065790Y018789D02*
X066502Y018789D01*
X066502Y018948D02*
X065790Y018948D01*
X065790Y019106D02*
X066502Y019106D01*
X066502Y019265D02*
X065790Y019265D01*
X065790Y019423D02*
X066502Y019423D01*
X066502Y019582D02*
X065790Y019582D01*
X065790Y019740D02*
X066502Y019740D01*
X066502Y019899D02*
X065790Y019899D01*
X065790Y020057D02*
X066502Y020057D01*
X066502Y020216D02*
X065790Y020216D01*
X065790Y020374D02*
X066502Y020374D01*
X066502Y020533D02*
X065790Y020533D01*
X065790Y020691D02*
X066502Y020691D01*
X066502Y020850D02*
X065790Y020850D01*
X065790Y021008D02*
X066502Y021008D01*
X066502Y021167D02*
X065790Y021167D01*
X065790Y021325D02*
X066502Y021325D01*
X066502Y021484D02*
X065790Y021484D01*
X065790Y021642D02*
X066502Y021642D01*
X066502Y021801D02*
X065790Y021801D01*
X065790Y021959D02*
X066502Y021959D01*
X066502Y022118D02*
X065790Y022118D01*
X065790Y022276D02*
X066502Y022276D01*
X066502Y022435D02*
X065790Y022435D01*
X065790Y022593D02*
X066502Y022593D01*
X066502Y022752D02*
X065790Y022752D01*
X065790Y022910D02*
X066502Y022910D01*
X066502Y023069D02*
X065790Y023069D01*
X065790Y023227D02*
X066502Y023227D01*
X066502Y023386D02*
X065790Y023386D01*
X065790Y023544D02*
X066502Y023544D01*
X066502Y023703D02*
X065790Y023703D01*
X065790Y023861D02*
X066502Y023861D01*
X066502Y024020D02*
X065790Y024020D01*
X065790Y024178D02*
X066502Y024178D01*
X066502Y024337D02*
X065790Y024337D01*
X065790Y024495D02*
X066502Y024495D01*
X066502Y024654D02*
X065790Y024654D01*
X065790Y024812D02*
X066502Y024812D01*
X066502Y024971D02*
X065790Y024971D01*
X065790Y025129D02*
X066502Y025129D01*
X066502Y025288D02*
X065790Y025288D01*
X065790Y025446D02*
X066502Y025446D01*
X066502Y025605D02*
X065790Y025605D01*
X065790Y025763D02*
X066502Y025763D01*
X066502Y025922D02*
X065790Y025922D01*
X065790Y026080D02*
X066502Y026080D01*
X066502Y026239D02*
X065790Y026239D01*
X065790Y026397D02*
X066502Y026397D01*
X066502Y026556D02*
X065790Y026556D01*
X065790Y026714D02*
X066502Y026714D01*
X066502Y026873D02*
X065790Y026873D01*
X065790Y027031D02*
X066502Y027031D01*
X066502Y027190D02*
X065790Y027190D01*
X065790Y027348D02*
X066502Y027348D01*
X066502Y027507D02*
X065790Y027507D01*
X065790Y027665D02*
X066502Y027665D01*
X066502Y027824D02*
X065790Y027824D01*
X065790Y027982D02*
X066502Y027982D01*
X066502Y028141D02*
X065790Y028141D01*
X065790Y028299D02*
X066502Y028299D01*
X066502Y028458D02*
X065790Y028458D01*
X065729Y028616D02*
X066502Y028616D01*
X066502Y028775D02*
X065571Y028775D01*
X065413Y028933D02*
X066502Y028933D01*
X066502Y029092D02*
X065254Y029092D01*
X065096Y029250D02*
X066502Y029250D01*
X066502Y029409D02*
X064937Y029409D01*
X064598Y028616D02*
X063473Y028616D01*
X063783Y028141D02*
X061268Y028141D01*
X061410Y027982D02*
X063507Y027982D01*
X063380Y027824D02*
X061476Y027824D01*
X061490Y027665D02*
X063314Y027665D01*
X063305Y027507D02*
X061490Y027507D01*
X061490Y027348D02*
X063321Y027348D01*
X063387Y027190D02*
X061490Y027190D01*
X061490Y027031D02*
X063524Y027031D01*
X063400Y026873D02*
X061441Y026873D01*
X061343Y026714D02*
X063335Y026714D01*
X063305Y026556D02*
X061119Y026556D01*
X060661Y026556D02*
X060119Y026556D01*
X060343Y026714D02*
X060437Y026714D01*
X059713Y026397D02*
X063305Y026397D01*
X063367Y026239D02*
X059554Y026239D01*
X059396Y026080D02*
X063475Y026080D01*
X063446Y025922D02*
X058049Y025922D01*
X058208Y025763D02*
X063355Y025763D01*
X063305Y025605D02*
X058366Y025605D01*
X058525Y025446D02*
X063305Y025446D01*
X063346Y025288D02*
X058683Y025288D01*
X059279Y025129D02*
X059501Y025129D01*
X060279Y025129D02*
X060501Y025129D01*
X060890Y025129D02*
X060890Y025129D01*
X060890Y024971D02*
X060890Y024971D01*
X060890Y024812D02*
X060890Y024812D01*
X060890Y024654D02*
X060890Y024654D01*
X060890Y024495D02*
X060890Y024495D01*
X060890Y024337D02*
X060890Y024337D01*
X060890Y024178D02*
X060890Y024178D01*
X060890Y024020D02*
X060890Y024020D01*
X060890Y023861D02*
X060890Y023861D01*
X060890Y023703D02*
X060890Y023703D01*
X060890Y023544D02*
X060890Y023544D01*
X061090Y023544D02*
X063305Y023544D01*
X063306Y023386D02*
X059041Y023386D01*
X059092Y023544D02*
X059688Y023544D01*
X059449Y023703D02*
X059331Y023703D01*
X059244Y023227D02*
X063372Y023227D01*
X063486Y023069D02*
X059402Y023069D01*
X060092Y023544D02*
X060690Y023544D01*
X060449Y023703D02*
X060331Y023703D01*
X061331Y023703D02*
X063330Y023703D01*
X063396Y023861D02*
X061437Y023861D01*
X061483Y024020D02*
X063535Y024020D01*
X063392Y024178D02*
X061490Y024178D01*
X061490Y024337D02*
X063326Y024337D01*
X063305Y024495D02*
X061490Y024495D01*
X061490Y024654D02*
X063310Y024654D01*
X063375Y024812D02*
X061475Y024812D01*
X061410Y024971D02*
X063495Y024971D01*
X063426Y025129D02*
X061279Y025129D01*
X058890Y024515D02*
X058890Y024390D01*
X058890Y024515D02*
X057515Y025890D01*
X056265Y025890D01*
X055390Y026765D01*
X055390Y031015D01*
X052765Y033640D01*
X049390Y033640D01*
X049390Y030640D02*
X050640Y030640D01*
X053390Y027890D01*
X053390Y026890D01*
X055890Y024390D01*
X055383Y023768D02*
X055550Y023601D01*
X055771Y023510D01*
X056009Y023510D01*
X056230Y023601D01*
X056390Y023761D01*
X056550Y023601D01*
X056771Y023510D01*
X056990Y023510D01*
X056990Y023435D01*
X057051Y023288D01*
X057551Y022788D01*
X057628Y022711D01*
X057550Y022679D01*
X057390Y022519D01*
X057230Y022679D01*
X057009Y022770D01*
X056771Y022770D01*
X056633Y022713D01*
X056367Y022979D01*
X056220Y023040D01*
X054181Y023040D01*
X053668Y023552D01*
X053771Y023510D01*
X054009Y023510D01*
X054230Y023601D01*
X054397Y023768D01*
X054432Y023719D01*
X054499Y023652D01*
X054576Y023597D01*
X054660Y023554D01*
X054749Y023525D01*
X054843Y023510D01*
X054890Y023510D01*
X054937Y023510D01*
X055030Y023525D01*
X055120Y023554D01*
X055204Y023597D01*
X055281Y023652D01*
X055348Y023719D01*
X055383Y023768D01*
X055331Y023703D02*
X055449Y023703D01*
X055688Y023544D02*
X055090Y023544D01*
X054890Y023544D02*
X054890Y023544D01*
X054890Y023510D02*
X054890Y024390D01*
X054890Y024390D01*
X054890Y023510D01*
X054890Y023703D02*
X054890Y023703D01*
X054890Y023861D02*
X054890Y023861D01*
X054890Y024020D02*
X054890Y024020D01*
X054890Y024178D02*
X054890Y024178D01*
X054890Y024337D02*
X054890Y024337D01*
X054449Y023703D02*
X054331Y023703D01*
X054092Y023544D02*
X054690Y023544D01*
X054152Y023069D02*
X057271Y023069D01*
X057112Y023227D02*
X053994Y023227D01*
X053835Y023386D02*
X057011Y023386D01*
X056688Y023544D02*
X056092Y023544D01*
X056331Y023703D02*
X056449Y023703D01*
X056436Y022910D02*
X057429Y022910D01*
X057588Y022752D02*
X057054Y022752D01*
X057315Y022593D02*
X057465Y022593D01*
X056726Y022752D02*
X056594Y022752D01*
X056140Y022640D02*
X056890Y021890D01*
X055890Y021890D02*
X054890Y020890D01*
X053359Y021325D02*
X052674Y021325D01*
X052832Y021484D02*
X053293Y021484D01*
X053290Y021642D02*
X052990Y021642D01*
X052990Y021801D02*
X053290Y021801D01*
X053290Y021959D02*
X052990Y021959D01*
X052990Y022118D02*
X053290Y022118D01*
X053290Y022276D02*
X052852Y022276D01*
X052694Y022435D02*
X053350Y022435D01*
X053465Y022593D02*
X052366Y022593D01*
X052207Y022752D02*
X053338Y022752D01*
X053179Y022910D02*
X052120Y022910D01*
X052120Y023069D02*
X053021Y023069D01*
X052862Y023227D02*
X052120Y023227D01*
X052120Y023386D02*
X052704Y023386D01*
X052622Y023544D02*
X052120Y023544D01*
X052120Y023703D02*
X052615Y023703D01*
X052615Y023861D02*
X052120Y023861D01*
X052120Y024020D02*
X052615Y024020D01*
X052615Y024178D02*
X052120Y024178D01*
X052120Y024337D02*
X052615Y024337D01*
X052615Y024495D02*
X052120Y024495D01*
X052120Y024654D02*
X052615Y024654D01*
X052390Y024790D02*
X052390Y025390D01*
X052390Y025390D01*
X052390Y025990D01*
X052615Y025990D01*
X052615Y026790D01*
X052469Y026790D01*
X052120Y026441D01*
X052120Y025969D01*
X052141Y025990D01*
X052390Y025990D01*
X052390Y025390D01*
X052390Y025390D01*
X052390Y024790D01*
X052390Y024812D02*
X052390Y024812D01*
X052390Y024971D02*
X052390Y024971D01*
X052390Y025129D02*
X052390Y025129D01*
X052390Y025288D02*
X052390Y025288D01*
X052390Y025446D02*
X052390Y025446D01*
X052390Y025605D02*
X052390Y025605D01*
X052390Y025763D02*
X052390Y025763D01*
X052390Y025922D02*
X052390Y025922D01*
X052615Y026080D02*
X052120Y026080D01*
X052120Y026239D02*
X052615Y026239D01*
X052615Y026397D02*
X052120Y026397D01*
X052234Y026556D02*
X052615Y026556D01*
X052615Y026714D02*
X052393Y026714D01*
X051669Y027348D02*
X051085Y027348D01*
X051084Y027507D02*
X051720Y027507D01*
X051561Y027665D02*
X051018Y027665D01*
X051049Y027190D02*
X051511Y027190D01*
X051352Y027031D02*
X050962Y027031D01*
X050755Y026873D02*
X051217Y026873D01*
X051160Y026714D02*
X050405Y026714D01*
X050246Y026556D02*
X051160Y026556D01*
X051160Y026397D02*
X050088Y026397D01*
X049929Y026239D02*
X051160Y026239D01*
X051160Y026080D02*
X049771Y026080D01*
X049612Y025922D02*
X051160Y025922D01*
X051160Y025763D02*
X049454Y025763D01*
X049295Y025605D02*
X051160Y025605D01*
X051160Y025446D02*
X046887Y025446D01*
X046728Y025288D02*
X051160Y025288D01*
X051160Y025129D02*
X049779Y025129D01*
X049910Y024971D02*
X051160Y024971D01*
X051160Y024812D02*
X049975Y024812D01*
X049990Y024654D02*
X051160Y024654D01*
X051160Y024495D02*
X049990Y024495D01*
X049990Y024337D02*
X051160Y024337D01*
X051160Y024178D02*
X049990Y024178D01*
X049983Y024020D02*
X051160Y024020D01*
X051160Y023861D02*
X049937Y023861D01*
X049831Y023703D02*
X051160Y023703D01*
X051160Y023544D02*
X049590Y023544D01*
X049390Y023544D02*
X049390Y023544D01*
X049390Y023510D02*
X049390Y024390D01*
X049390Y024390D01*
X049390Y023510D01*
X049390Y023703D02*
X049390Y023703D01*
X049390Y023861D02*
X049390Y023861D01*
X049390Y024020D02*
X049390Y024020D01*
X049390Y024178D02*
X049390Y024178D01*
X049390Y024337D02*
X049390Y024337D01*
X049390Y024495D02*
X049390Y024495D01*
X049390Y024654D02*
X049390Y024654D01*
X049390Y024812D02*
X049390Y024812D01*
X049390Y024971D02*
X049390Y024971D01*
X049390Y025129D02*
X049390Y025129D01*
X049001Y025129D02*
X048779Y025129D01*
X048001Y025129D02*
X047779Y025129D01*
X047001Y025129D02*
X046779Y025129D01*
X046765Y025890D02*
X049015Y025890D01*
X050515Y027390D01*
X049115Y026556D02*
X048619Y026556D01*
X048843Y026714D02*
X048937Y026714D01*
X048956Y026397D02*
X035713Y026397D01*
X035554Y026239D02*
X046561Y026239D01*
X046389Y026080D02*
X035396Y026080D01*
X036119Y026556D02*
X036661Y026556D01*
X036437Y026714D02*
X036343Y026714D01*
X037119Y026556D02*
X037661Y026556D01*
X037437Y026714D02*
X037343Y026714D01*
X038119Y026556D02*
X038661Y026556D01*
X038437Y026714D02*
X038343Y026714D01*
X039119Y026556D02*
X039661Y026556D01*
X039437Y026714D02*
X039343Y026714D01*
X040119Y026556D02*
X043161Y026556D01*
X042937Y026714D02*
X040343Y026714D01*
X040441Y026873D02*
X041684Y026873D01*
X041525Y027031D02*
X040490Y027031D01*
X040490Y027190D02*
X041415Y027190D01*
X041415Y027348D02*
X040490Y027348D01*
X040490Y027507D02*
X041415Y027507D01*
X041442Y027665D02*
X040490Y027665D01*
X042346Y026873D02*
X042839Y026873D01*
X043619Y026556D02*
X044157Y026556D01*
X044390Y026556D02*
X044390Y026556D01*
X044390Y026510D02*
X044390Y027390D01*
X044790Y027390D01*
X045390Y027390D01*
X045990Y027390D01*
X046390Y027390D01*
X046990Y027390D01*
X047390Y027390D01*
X047390Y026510D01*
X047390Y027390D01*
X047390Y027390D01*
X047390Y027390D01*
X046390Y027390D01*
X046390Y027390D01*
X046390Y026510D01*
X046390Y027390D01*
X046390Y027390D01*
X046390Y027390D01*
X045390Y027390D01*
X045390Y027390D01*
X045390Y026510D01*
X045390Y027390D01*
X045390Y027390D01*
X045390Y027390D01*
X044390Y027390D01*
X044390Y027390D01*
X044390Y027390D01*
X044390Y026510D01*
X044390Y026714D02*
X044390Y026714D01*
X044390Y026873D02*
X044390Y026873D01*
X044390Y027031D02*
X044390Y027031D01*
X044390Y027190D02*
X044390Y027190D01*
X044390Y027348D02*
X044390Y027348D01*
X044843Y026714D02*
X044937Y026714D01*
X045157Y026556D02*
X044623Y026556D01*
X043937Y026714D02*
X043843Y026714D01*
X042490Y025763D02*
X046072Y025763D01*
X045914Y025605D02*
X042615Y025605D01*
X042615Y025446D02*
X045755Y025446D01*
X045597Y025288D02*
X042615Y025288D01*
X042603Y025129D02*
X043001Y025129D01*
X042865Y024971D02*
X042444Y024971D01*
X042286Y024812D02*
X042799Y024812D01*
X042015Y024812D02*
X042015Y024812D01*
X042015Y024971D02*
X042015Y024971D01*
X042015Y025129D02*
X042015Y025129D01*
X042015Y025288D02*
X042015Y025288D01*
X042015Y025446D02*
X042015Y025446D01*
X042015Y025605D02*
X042015Y025605D01*
X042015Y025763D02*
X042015Y025763D01*
X042015Y025922D02*
X042015Y025922D01*
X042332Y025922D02*
X046231Y025922D01*
X046765Y025890D02*
X045390Y024515D01*
X045390Y024390D01*
X045831Y023703D02*
X045949Y023703D01*
X045990Y023544D02*
X045592Y023544D01*
X045188Y023544D02*
X044592Y023544D01*
X044831Y023703D02*
X044949Y023703D01*
X044188Y023544D02*
X043592Y023544D01*
X043831Y023703D02*
X043949Y023703D01*
X044001Y025129D02*
X043779Y025129D01*
X044779Y025129D02*
X045001Y025129D01*
X046390Y024390D02*
X046390Y022015D01*
X046918Y021801D02*
X049790Y021801D01*
X049790Y021890D02*
X049790Y021641D01*
X050141Y021290D01*
X050390Y021290D01*
X050639Y021290D01*
X050990Y021641D01*
X050990Y021890D01*
X050990Y022139D01*
X050639Y022490D01*
X050390Y022490D01*
X050390Y021890D01*
X050990Y021890D01*
X050390Y021890D01*
X050390Y021890D01*
X050390Y021890D01*
X050390Y021290D01*
X050390Y021890D01*
X050390Y021890D01*
X050390Y021890D01*
X049790Y021890D01*
X049790Y022139D01*
X050141Y022490D01*
X050390Y022490D01*
X050390Y021890D01*
X049790Y021890D01*
X049790Y021959D02*
X046960Y021959D01*
X046960Y022118D02*
X049790Y022118D01*
X049928Y022276D02*
X046899Y022276D01*
X046790Y022435D02*
X050086Y022435D01*
X050390Y022435D02*
X050390Y022435D01*
X050390Y022276D02*
X050390Y022276D01*
X050390Y022118D02*
X050390Y022118D01*
X050390Y021959D02*
X050390Y021959D01*
X050390Y021801D02*
X050390Y021801D01*
X050390Y021642D02*
X050390Y021642D01*
X050390Y021484D02*
X050390Y021484D01*
X050390Y021325D02*
X050390Y021325D01*
X050674Y021325D02*
X052106Y021325D01*
X051948Y021484D02*
X050832Y021484D01*
X050990Y021642D02*
X051790Y021642D01*
X051790Y021801D02*
X050990Y021801D01*
X050990Y021959D02*
X051642Y021959D01*
X051484Y022118D02*
X050990Y022118D01*
X050852Y022276D02*
X051325Y022276D01*
X051206Y022435D02*
X050694Y022435D01*
X051160Y022593D02*
X046790Y022593D01*
X046790Y022752D02*
X051160Y022752D01*
X051160Y022910D02*
X046790Y022910D01*
X046790Y023069D02*
X051160Y023069D01*
X051160Y023227D02*
X046790Y023227D01*
X046790Y023386D02*
X051160Y023386D01*
X053015Y023640D02*
X053015Y027765D01*
X050640Y030140D01*
X046890Y030140D01*
X046390Y030640D01*
X047264Y029726D02*
X048510Y029726D01*
X048510Y029567D02*
X047266Y029567D01*
X047270Y029593D02*
X047270Y029640D01*
X046390Y029640D01*
X046390Y029640D01*
X046390Y029040D01*
X046717Y029040D01*
X046810Y029055D01*
X046900Y029084D01*
X046984Y029127D01*
X047061Y029182D01*
X047128Y029249D01*
X047183Y029326D01*
X047226Y029410D01*
X047255Y029499D01*
X047270Y029593D01*
X047225Y029409D02*
X048556Y029409D01*
X048651Y029250D02*
X047128Y029250D01*
X046915Y029092D02*
X048866Y029092D01*
X049914Y029092D02*
X051123Y029092D01*
X050964Y029250D02*
X050129Y029250D01*
X050224Y029409D02*
X050806Y029409D01*
X050647Y029567D02*
X050270Y029567D01*
X050270Y029726D02*
X050489Y029726D01*
X051281Y028933D02*
X042796Y028933D01*
X042835Y029092D02*
X045865Y029092D01*
X045880Y029084D02*
X045969Y029055D01*
X046063Y029040D01*
X046390Y029040D01*
X046390Y029640D01*
X046390Y029640D01*
X046390Y029640D01*
X045510Y029640D01*
X045510Y029593D01*
X045525Y029499D01*
X045554Y029410D01*
X045597Y029326D01*
X045652Y029249D01*
X045719Y029182D01*
X045796Y029127D01*
X045880Y029084D01*
X045652Y029250D02*
X042835Y029250D01*
X042771Y029409D02*
X045555Y029409D01*
X045514Y029567D02*
X042644Y029567D01*
X042706Y028775D02*
X051440Y028775D01*
X054790Y028775D02*
X054990Y028775D01*
X054990Y028933D02*
X054790Y028933D01*
X054790Y029092D02*
X054990Y029092D01*
X054990Y029250D02*
X054790Y029250D01*
X054790Y029409D02*
X054990Y029409D01*
X054990Y029567D02*
X054790Y029567D01*
X054790Y029726D02*
X054990Y029726D01*
X054990Y029884D02*
X054790Y029884D01*
X054790Y030043D02*
X054990Y030043D01*
X054990Y030201D02*
X054790Y030201D01*
X054790Y030360D02*
X054990Y030360D01*
X054990Y030518D02*
X054790Y030518D01*
X054790Y030677D02*
X054990Y030677D01*
X054990Y030835D02*
X054790Y030835D01*
X054790Y030994D02*
X054846Y030994D01*
X054790Y031049D02*
X054990Y030849D01*
X054990Y028262D01*
X054937Y028270D01*
X054890Y028270D01*
X054890Y027390D01*
X054890Y027390D01*
X054890Y028270D01*
X054843Y028270D01*
X054790Y028262D01*
X054790Y031049D01*
X055790Y031049D02*
X055990Y030849D01*
X055990Y028262D01*
X055937Y028270D01*
X055890Y028270D01*
X055890Y027390D01*
X055890Y027390D01*
X055890Y028270D01*
X055843Y028270D01*
X055790Y028262D01*
X055790Y031049D01*
X055790Y030994D02*
X055846Y030994D01*
X055790Y030835D02*
X055990Y030835D01*
X055990Y030677D02*
X055790Y030677D01*
X055790Y030518D02*
X055990Y030518D01*
X055990Y030360D02*
X055790Y030360D01*
X055790Y030201D02*
X055990Y030201D01*
X055990Y030043D02*
X055790Y030043D01*
X055790Y029884D02*
X055990Y029884D01*
X055990Y029726D02*
X055790Y029726D01*
X055790Y029567D02*
X055990Y029567D01*
X055990Y029409D02*
X055790Y029409D01*
X055790Y029250D02*
X055990Y029250D01*
X055990Y029092D02*
X055790Y029092D01*
X055790Y028933D02*
X055990Y028933D01*
X055990Y028775D02*
X055790Y028775D01*
X055790Y028616D02*
X055990Y028616D01*
X055990Y028458D02*
X055790Y028458D01*
X055790Y028299D02*
X055990Y028299D01*
X055890Y028141D02*
X055890Y028141D01*
X055890Y027982D02*
X055890Y027982D01*
X055890Y027824D02*
X055890Y027824D01*
X055890Y027665D02*
X055890Y027665D01*
X055890Y027507D02*
X055890Y027507D01*
X054890Y027507D02*
X054890Y027507D01*
X054890Y027665D02*
X054890Y027665D01*
X054890Y027824D02*
X054890Y027824D01*
X054890Y027982D02*
X054890Y027982D01*
X054890Y028141D02*
X054890Y028141D01*
X054790Y028299D02*
X054990Y028299D01*
X054990Y028458D02*
X054790Y028458D01*
X054790Y028616D02*
X054990Y028616D01*
X056890Y027390D02*
X056890Y031515D01*
X058765Y032640D02*
X051765Y039640D01*
X052140Y041265D02*
X043640Y041265D01*
X039890Y037515D01*
X039890Y037390D01*
X038890Y037390D02*
X038890Y037515D01*
X043015Y041640D01*
X052765Y041640D01*
X058765Y035640D01*
X059765Y035640D01*
X060265Y035140D01*
X060720Y035590D02*
X062212Y035590D01*
X062153Y035749D02*
X060779Y035749D01*
X060905Y035907D02*
X062057Y035907D01*
X062010Y036066D02*
X060905Y036066D01*
X060905Y036224D02*
X062010Y036224D01*
X062061Y036383D02*
X060905Y036383D01*
X060769Y036541D02*
X062163Y036541D01*
X062202Y036700D02*
X060730Y036700D01*
X060888Y036858D02*
X062077Y036858D01*
X062012Y037017D02*
X060905Y037017D01*
X060905Y037175D02*
X062010Y037175D01*
X062041Y037334D02*
X060905Y037334D01*
X060818Y037492D02*
X062114Y037492D01*
X062275Y037651D02*
X060660Y037651D01*
X060162Y037809D02*
X066502Y037809D01*
X066502Y037651D02*
X063505Y037651D01*
X063666Y037492D02*
X066502Y037492D01*
X066502Y037334D02*
X063739Y037334D01*
X063770Y037175D02*
X066502Y037175D01*
X066502Y037017D02*
X063768Y037017D01*
X063703Y036858D02*
X066502Y036858D01*
X066502Y036700D02*
X063578Y036700D01*
X063617Y036541D02*
X066502Y036541D01*
X066502Y036383D02*
X063719Y036383D01*
X063770Y036224D02*
X066502Y036224D01*
X066502Y036066D02*
X063770Y036066D01*
X063723Y035907D02*
X066502Y035907D01*
X066502Y035749D02*
X063627Y035749D01*
X063568Y035590D02*
X066502Y035590D01*
X066502Y035432D02*
X063699Y035432D01*
X063764Y035273D02*
X066502Y035273D01*
X066502Y035115D02*
X063770Y035115D01*
X063743Y034956D02*
X066502Y034956D01*
X066502Y034798D02*
X063676Y034798D01*
X063519Y034639D02*
X066502Y034639D01*
X066502Y034481D02*
X063678Y034481D01*
X063744Y034322D02*
X066502Y034322D01*
X066502Y034164D02*
X063770Y034164D01*
X063764Y034005D02*
X066502Y034005D01*
X066502Y033847D02*
X063698Y033847D01*
X063567Y033688D02*
X066502Y033688D01*
X066502Y033530D02*
X063629Y033530D01*
X063724Y033371D02*
X066502Y033371D01*
X066502Y033213D02*
X063770Y033213D01*
X063770Y033054D02*
X066502Y033054D01*
X066502Y032896D02*
X063718Y032896D01*
X063616Y032737D02*
X066502Y032737D01*
X066502Y032579D02*
X063580Y032579D01*
X063703Y032420D02*
X066502Y032420D01*
X066502Y032262D02*
X063769Y032262D01*
X063770Y032103D02*
X066502Y032103D01*
X066502Y031945D02*
X063738Y031945D01*
X063665Y031786D02*
X066502Y031786D01*
X066502Y031628D02*
X063531Y031628D01*
X063683Y031469D02*
X066502Y031469D01*
X066502Y031311D02*
X063749Y031311D01*
X063770Y031152D02*
X066502Y031152D01*
X066502Y030994D02*
X063759Y030994D01*
X063693Y030835D02*
X066502Y030835D01*
X066502Y030677D02*
X063555Y030677D01*
X063640Y030518D02*
X066502Y030518D01*
X066502Y030360D02*
X063728Y030360D01*
X063770Y030201D02*
X066502Y030201D01*
X066502Y030043D02*
X063770Y030043D01*
X063713Y029884D02*
X066502Y029884D01*
X066502Y029726D02*
X063604Y029726D01*
X063591Y029567D02*
X066502Y029567D01*
X062062Y032896D02*
X060905Y032896D01*
X060905Y033054D02*
X062010Y033054D01*
X062010Y033213D02*
X060905Y033213D01*
X060905Y033371D02*
X062056Y033371D01*
X062151Y033530D02*
X060781Y033530D01*
X060718Y033688D02*
X062213Y033688D01*
X062082Y033847D02*
X060877Y033847D01*
X060905Y034005D02*
X062016Y034005D01*
X062010Y034164D02*
X060905Y034164D01*
X060905Y034322D02*
X062036Y034322D01*
X062102Y034481D02*
X060830Y034481D01*
X060671Y034639D02*
X062261Y034639D01*
X062104Y034798D02*
X060828Y034798D01*
X060905Y034956D02*
X062037Y034956D01*
X062010Y035115D02*
X060905Y035115D01*
X060905Y035273D02*
X062016Y035273D01*
X062081Y035432D02*
X060879Y035432D01*
X060265Y036140D02*
X059765Y036640D01*
X058765Y036640D01*
X053390Y042015D01*
X040390Y042015D01*
X035890Y037515D01*
X035890Y037390D01*
X036045Y039236D02*
X032240Y039236D01*
X032240Y039394D02*
X036203Y039394D01*
X036362Y039553D02*
X032240Y039553D01*
X032167Y039711D02*
X036520Y039711D01*
X036679Y039870D02*
X032009Y039870D01*
X031640Y039870D02*
X031640Y039870D01*
X031640Y039711D02*
X031640Y039711D01*
X031640Y039553D02*
X031640Y039553D01*
X031640Y039394D02*
X031640Y039394D01*
X031040Y039394D02*
X013190Y039394D01*
X013348Y039236D02*
X031040Y039236D01*
X031040Y039553D02*
X013031Y039553D01*
X012873Y039711D02*
X031113Y039711D01*
X031271Y039870D02*
X012714Y039870D01*
X012556Y040028D02*
X036837Y040028D01*
X036996Y040187D02*
X012397Y040187D01*
X012239Y040345D02*
X037154Y040345D01*
X037313Y040504D02*
X012080Y040504D01*
X009030Y040979D02*
X037788Y040979D01*
X037630Y040821D02*
X008976Y040821D01*
X008817Y040662D02*
X037471Y040662D01*
X037947Y041138D02*
X009030Y041138D01*
X009030Y041296D02*
X038105Y041296D01*
X038264Y041455D02*
X008981Y041455D01*
X008822Y041613D02*
X038422Y041613D01*
X038581Y041772D02*
X008664Y041772D01*
X008116Y041772D02*
X007664Y041772D01*
X007822Y041613D02*
X007958Y041613D01*
X007116Y041772D02*
X006309Y041772D01*
X006401Y041613D02*
X006958Y041613D01*
X006200Y041930D02*
X038739Y041930D01*
X038898Y042089D02*
X006042Y042089D01*
X005788Y042247D02*
X039056Y042247D01*
X039765Y042390D02*
X055015Y042390D01*
X060265Y037140D01*
X060003Y037968D02*
X066502Y037968D01*
X066502Y038126D02*
X059845Y038126D01*
X059686Y038285D02*
X066502Y038285D01*
X066502Y038443D02*
X059528Y038443D01*
X059369Y038602D02*
X066502Y038602D01*
X066502Y038760D02*
X059211Y038760D01*
X059052Y038919D02*
X066502Y038919D01*
X066502Y039077D02*
X058894Y039077D01*
X058735Y039236D02*
X066502Y039236D01*
X066502Y039394D02*
X058577Y039394D01*
X058418Y039553D02*
X058947Y039553D01*
X059000Y039500D02*
X059245Y039500D01*
X059245Y040120D01*
X059285Y040120D01*
X059285Y040160D01*
X060245Y040160D01*
X060245Y041120D01*
X059625Y041120D01*
X059285Y041120D01*
X059285Y040500D01*
X059285Y040160D01*
X059245Y040160D01*
X059245Y040120D01*
X058625Y040120D01*
X058625Y039875D01*
X059000Y039500D01*
X059245Y039553D02*
X059285Y039553D01*
X059285Y039500D02*
X059530Y039500D01*
X059765Y039735D01*
X060000Y039500D01*
X060245Y039500D01*
X060245Y040120D01*
X060285Y040120D01*
X060285Y040160D01*
X060245Y040160D01*
X060245Y040120D01*
X059625Y040120D01*
X059285Y040120D01*
X059285Y039500D01*
X059285Y039711D02*
X059245Y039711D01*
X059245Y039870D02*
X059285Y039870D01*
X059285Y040028D02*
X059245Y040028D01*
X059245Y040187D02*
X059285Y040187D01*
X059285Y040345D02*
X059245Y040345D01*
X059245Y040504D02*
X059285Y040504D01*
X059285Y040662D02*
X059245Y040662D01*
X059245Y040821D02*
X059285Y040821D01*
X059285Y040979D02*
X059245Y040979D01*
X059245Y041138D02*
X056833Y041138D01*
X056675Y041296D02*
X058625Y041296D01*
X058674Y041455D02*
X056516Y041455D01*
X056358Y041613D02*
X058833Y041613D01*
X058991Y041772D02*
X056199Y041772D01*
X056041Y041930D02*
X064830Y041930D01*
X064721Y041772D02*
X060539Y041772D01*
X060697Y041613D02*
X064629Y041613D01*
X064586Y041455D02*
X060856Y041455D01*
X060905Y041296D02*
X064545Y041296D01*
X064545Y041138D02*
X060285Y041138D01*
X060245Y041138D02*
X059285Y041138D01*
X059285Y041296D02*
X059245Y041296D01*
X059245Y041455D02*
X059285Y041455D01*
X059285Y041613D02*
X059245Y041613D01*
X059245Y041772D02*
X059285Y041772D01*
X059539Y041772D02*
X059991Y041772D01*
X059833Y041613D02*
X059697Y041613D01*
X060245Y041613D02*
X060285Y041613D01*
X060285Y041455D02*
X060245Y041455D01*
X060245Y041296D02*
X060285Y041296D01*
X060285Y040979D02*
X060245Y040979D01*
X060245Y040821D02*
X060285Y040821D01*
X060285Y040662D02*
X060245Y040662D01*
X060245Y040504D02*
X060285Y040504D01*
X060285Y040345D02*
X060245Y040345D01*
X060245Y040187D02*
X060285Y040187D01*
X060285Y040120D02*
X060905Y040120D01*
X060905Y039875D01*
X060530Y039500D01*
X060285Y039500D01*
X060285Y040120D01*
X060285Y040028D02*
X060245Y040028D01*
X060245Y039870D02*
X060285Y039870D01*
X060285Y039711D02*
X060245Y039711D01*
X060245Y039553D02*
X060285Y039553D01*
X060583Y039553D02*
X066502Y039553D01*
X066502Y039711D02*
X060741Y039711D01*
X060900Y039870D02*
X066502Y039870D01*
X066502Y040028D02*
X066279Y040028D01*
X065251Y040028D02*
X060905Y040028D01*
X060905Y040187D02*
X064993Y040187D01*
X064835Y040345D02*
X060905Y040345D01*
X060807Y040504D02*
X064724Y040504D01*
X064632Y040662D02*
X060692Y040662D01*
X060285Y041772D02*
X060245Y041772D01*
X058838Y040662D02*
X057309Y040662D01*
X057467Y040504D02*
X058723Y040504D01*
X058625Y040345D02*
X057626Y040345D01*
X057784Y040187D02*
X058625Y040187D01*
X058625Y040028D02*
X057943Y040028D01*
X058101Y039870D02*
X058630Y039870D01*
X058789Y039711D02*
X058260Y039711D01*
X058679Y040821D02*
X057150Y040821D01*
X056992Y040979D02*
X058625Y040979D01*
X059741Y039711D02*
X059789Y039711D01*
X059947Y039553D02*
X059583Y039553D01*
X055882Y042089D02*
X064988Y042089D01*
X065242Y042247D02*
X055724Y042247D01*
X055565Y042406D02*
X066502Y042406D01*
X066502Y042564D02*
X055407Y042564D01*
X055248Y042723D02*
X066502Y042723D01*
X066502Y042247D02*
X066288Y042247D01*
X059765Y034640D02*
X058765Y034640D01*
X052140Y041265D01*
X048790Y040490D02*
X048790Y040040D01*
X047990Y040040D01*
X047990Y040265D01*
X047990Y040490D01*
X048790Y040490D01*
X048790Y040345D02*
X047990Y040345D01*
X047990Y040265D02*
X047390Y040265D01*
X047390Y040265D01*
X047390Y040265D01*
X046790Y040265D01*
X046790Y040490D01*
X046431Y040490D01*
X045981Y040040D01*
X046790Y040040D01*
X046790Y040265D01*
X047390Y040265D01*
X047990Y040265D01*
X047990Y040187D02*
X048790Y040187D01*
X046790Y040187D02*
X046127Y040187D01*
X046286Y040345D02*
X046790Y040345D01*
X045510Y037651D02*
X045091Y037651D01*
X044933Y037492D02*
X045522Y037492D01*
X045587Y037334D02*
X044774Y037334D01*
X044616Y037175D02*
X045726Y037175D01*
X045638Y037017D02*
X044457Y037017D01*
X044299Y036858D02*
X045551Y036858D01*
X046390Y029567D02*
X046390Y029567D01*
X046390Y029409D02*
X046390Y029409D01*
X046390Y029250D02*
X046390Y029250D01*
X046390Y029092D02*
X046390Y029092D01*
X046390Y027348D02*
X046390Y027348D01*
X046390Y027190D02*
X046390Y027190D01*
X046390Y027031D02*
X046390Y027031D01*
X046390Y026873D02*
X046390Y026873D01*
X046390Y026714D02*
X046390Y026714D01*
X046390Y026556D02*
X046390Y026556D01*
X046623Y026556D02*
X047157Y026556D01*
X047390Y026556D02*
X047390Y026556D01*
X047390Y026714D02*
X047390Y026714D01*
X047390Y026873D02*
X047390Y026873D01*
X047390Y027031D02*
X047390Y027031D01*
X047390Y027190D02*
X047390Y027190D01*
X047390Y027348D02*
X047390Y027348D01*
X047843Y026714D02*
X047937Y026714D01*
X048161Y026556D02*
X047623Y026556D01*
X046937Y026714D02*
X046843Y026714D01*
X046157Y026556D02*
X045623Y026556D01*
X045390Y026556D02*
X045390Y026556D01*
X045390Y026714D02*
X045390Y026714D01*
X045390Y026873D02*
X045390Y026873D01*
X045390Y027031D02*
X045390Y027031D01*
X045390Y027190D02*
X045390Y027190D01*
X045390Y027348D02*
X045390Y027348D01*
X045843Y026714D02*
X045937Y026714D01*
X046831Y023703D02*
X046949Y023703D01*
X046790Y023544D02*
X047188Y023544D01*
X047592Y023544D02*
X048188Y023544D01*
X047949Y023703D02*
X047831Y023703D01*
X048592Y023544D02*
X049190Y023544D01*
X048949Y023703D02*
X048831Y023703D01*
X045990Y023386D02*
X038290Y023386D01*
X038369Y023227D02*
X045990Y023227D01*
X045990Y023069D02*
X038527Y023069D01*
X038686Y022910D02*
X045990Y022910D01*
X045990Y022752D02*
X038844Y022752D01*
X039003Y022593D02*
X045990Y022593D01*
X045990Y022435D02*
X039161Y022435D01*
X039320Y022276D02*
X045881Y022276D01*
X045820Y022118D02*
X039478Y022118D01*
X039637Y021959D02*
X045820Y021959D01*
X045862Y021801D02*
X039795Y021801D01*
X039954Y021642D02*
X045957Y021642D01*
X046184Y021484D02*
X040112Y021484D01*
X040271Y021325D02*
X050106Y021325D01*
X049948Y021484D02*
X046596Y021484D01*
X046823Y021642D02*
X049790Y021642D01*
X053015Y023640D02*
X054015Y022640D01*
X056140Y022640D01*
X058090Y023544D02*
X058688Y023544D01*
X058449Y023703D02*
X058331Y023703D01*
X053688Y023544D02*
X053677Y023544D01*
X057890Y018890D02*
X057890Y018765D01*
X056515Y017390D01*
X055730Y016729D02*
X058771Y016729D01*
X058790Y016570D02*
X055889Y016570D01*
X053890Y016390D02*
X053890Y014390D01*
X052890Y014390D01*
X053346Y013717D02*
X053434Y013717D01*
X053654Y013559D02*
X053126Y013559D01*
X052654Y013559D02*
X052126Y013559D01*
X052346Y013717D02*
X052434Y013717D01*
X051654Y013559D02*
X051126Y013559D01*
X051346Y013717D02*
X051434Y013717D01*
X050654Y013559D02*
X050126Y013559D01*
X050346Y013717D02*
X050434Y013717D01*
X049654Y013559D02*
X049126Y013559D01*
X049346Y013717D02*
X049434Y013717D01*
X048654Y013559D02*
X048129Y013559D01*
X047890Y013559D02*
X047890Y013559D01*
X047890Y013510D02*
X047890Y014390D01*
X047890Y014390D01*
X047890Y014390D01*
X047290Y014390D01*
X047290Y014717D01*
X047305Y014810D01*
X047334Y014900D01*
X047377Y014984D01*
X047432Y015061D01*
X047499Y015128D01*
X047576Y015183D01*
X047660Y015226D01*
X047749Y015255D01*
X047843Y015270D01*
X047890Y015270D01*
X047890Y014390D01*
X047290Y014390D01*
X047290Y014063D01*
X047305Y013969D01*
X047334Y013880D01*
X047377Y013796D01*
X047432Y013719D01*
X047499Y013652D01*
X047576Y013597D01*
X047660Y013554D01*
X047749Y013525D01*
X047843Y013510D01*
X047890Y013510D01*
X047890Y013717D02*
X047890Y013717D01*
X047890Y013876D02*
X047890Y013876D01*
X047890Y014034D02*
X047890Y014034D01*
X047890Y014193D02*
X047890Y014193D01*
X047890Y014351D02*
X047890Y014351D01*
X047890Y014510D02*
X047890Y014510D01*
X047890Y014668D02*
X047890Y014668D01*
X047890Y014827D02*
X047890Y014827D01*
X047890Y014985D02*
X047890Y014985D01*
X047890Y015144D02*
X047890Y015144D01*
X047521Y015144D02*
X043765Y015144D01*
X043909Y014985D02*
X047377Y014985D01*
X047310Y014827D02*
X043975Y014827D01*
X043990Y014668D02*
X047290Y014668D01*
X047290Y014510D02*
X046686Y014510D01*
X046860Y014351D02*
X047290Y014351D01*
X047290Y014193D02*
X046933Y014193D01*
X046960Y014034D02*
X047295Y014034D01*
X047336Y013876D02*
X046949Y013876D01*
X046884Y013717D02*
X047434Y013717D01*
X047651Y013559D02*
X046790Y013559D01*
X046790Y013400D02*
X054790Y013400D01*
X054790Y013242D02*
X046790Y013242D01*
X046790Y013083D02*
X054848Y013083D01*
X054790Y013559D02*
X054126Y013559D01*
X054346Y013717D02*
X054868Y013717D01*
X055027Y013876D02*
X054442Y013876D01*
X055912Y013717D02*
X056035Y013717D01*
X056035Y013559D02*
X055990Y013559D01*
X055990Y013400D02*
X056035Y013400D01*
X056035Y013242D02*
X055990Y013242D01*
X056035Y013083D02*
X055932Y013083D01*
X056035Y012925D02*
X055773Y012925D01*
X056035Y012132D02*
X054277Y012132D01*
X054414Y011974D02*
X055125Y011974D01*
X055655Y011974D02*
X056035Y011974D01*
X056035Y010864D02*
X055713Y010864D01*
X056035Y010706D02*
X054334Y010706D01*
X054438Y010864D02*
X055067Y010864D01*
X054099Y010547D02*
X056035Y010547D01*
X053681Y010547D02*
X053099Y010547D01*
X053334Y010706D02*
X053446Y010706D01*
X052681Y010547D02*
X052099Y010547D01*
X052334Y010706D02*
X052446Y010706D01*
X051681Y010547D02*
X051099Y010547D01*
X051334Y010706D02*
X051446Y010706D01*
X050681Y010547D02*
X050099Y010547D01*
X050334Y010706D02*
X050446Y010706D01*
X049681Y010547D02*
X049099Y010547D01*
X049334Y010706D02*
X049446Y010706D01*
X048681Y010547D02*
X048099Y010547D01*
X048334Y010706D02*
X048446Y010706D01*
X048503Y012132D02*
X048277Y012132D01*
X049277Y012132D02*
X049503Y012132D01*
X050277Y012132D02*
X050503Y012132D01*
X051277Y012132D02*
X051503Y012132D01*
X052277Y012132D02*
X052503Y012132D01*
X053277Y012132D02*
X053503Y012132D01*
X050890Y014390D02*
X049890Y014390D01*
X050890Y014390D02*
X050890Y016390D01*
X052385Y017204D02*
X048960Y017204D01*
X048960Y017046D02*
X052551Y017046D01*
X049515Y015144D02*
X049265Y015144D01*
X048515Y015144D02*
X048259Y015144D01*
X048346Y013717D02*
X048434Y013717D01*
X046390Y014015D02*
X046390Y010640D01*
X049890Y007140D01*
X050241Y007694D02*
X050539Y007694D01*
X051241Y007694D02*
X051539Y007694D01*
X052241Y007694D02*
X052539Y007694D01*
X053241Y007694D02*
X053539Y007694D01*
X053491Y005634D02*
X053289Y005634D01*
X052491Y005634D02*
X052289Y005634D01*
X051491Y005634D02*
X051289Y005634D01*
X050491Y005634D02*
X050289Y005634D01*
X049491Y005634D02*
X049289Y005634D01*
X048491Y005634D02*
X048289Y005634D01*
X047491Y005634D02*
X047289Y005634D01*
X046491Y005634D02*
X046289Y005634D01*
X045491Y005634D02*
X045289Y005634D01*
X044491Y005634D02*
X044289Y005634D01*
X043491Y005634D02*
X043289Y005634D01*
X041632Y005317D02*
X064863Y005317D01*
X065026Y005158D02*
X041474Y005158D01*
X041243Y005000D02*
X065308Y005000D01*
X066222Y005000D02*
X066502Y005000D01*
X058625Y016887D02*
X048902Y016887D01*
X046094Y014510D02*
X043990Y014510D01*
X043990Y014351D02*
X045920Y014351D01*
X045847Y014193D02*
X043990Y014193D01*
X043990Y014034D02*
X045820Y014034D01*
X045831Y013876D02*
X043942Y013876D01*
X043846Y013717D02*
X045896Y013717D01*
X045990Y013559D02*
X043626Y013559D01*
X043321Y013400D02*
X045990Y013400D01*
X045990Y013242D02*
X043479Y013242D01*
X043638Y013083D02*
X045990Y013083D01*
X045990Y012925D02*
X043796Y012925D01*
X043955Y012766D02*
X045990Y012766D01*
X045990Y012608D02*
X044113Y012608D01*
X044272Y012449D02*
X045990Y012449D01*
X045990Y012291D02*
X044430Y012291D01*
X044589Y012132D02*
X045990Y012132D01*
X045990Y011974D02*
X044747Y011974D01*
X044906Y011815D02*
X045990Y011815D01*
X045990Y011657D02*
X045064Y011657D01*
X045223Y011498D02*
X045990Y011498D01*
X045990Y011340D02*
X045381Y011340D01*
X045540Y011181D02*
X045990Y011181D01*
X045990Y011023D02*
X045698Y011023D01*
X045857Y010864D02*
X045990Y010864D01*
X045201Y010389D02*
X043290Y010389D01*
X043290Y010518D02*
X043343Y010510D01*
X043390Y010510D01*
X043437Y010510D01*
X043530Y010525D01*
X043620Y010554D01*
X043704Y010597D01*
X043781Y010652D01*
X043848Y010719D01*
X043903Y010796D01*
X043946Y010880D01*
X043975Y010969D01*
X043990Y011063D01*
X043990Y011390D01*
X043990Y011599D01*
X045379Y010210D01*
X045277Y010210D01*
X045067Y010123D01*
X044907Y009963D01*
X044820Y009753D01*
X044820Y009527D01*
X044907Y009317D01*
X045067Y009157D01*
X045277Y009070D01*
X045394Y009070D01*
X046684Y007780D01*
X046625Y007780D01*
X046390Y007545D01*
X046155Y007780D01*
X045625Y007780D01*
X045390Y007545D01*
X045155Y007780D01*
X044625Y007780D01*
X044390Y007545D01*
X044155Y007780D01*
X043625Y007780D01*
X043390Y007545D01*
X043290Y007645D01*
X043290Y010518D01*
X043390Y010510D02*
X043390Y011390D01*
X043990Y011390D01*
X043390Y011390D01*
X043390Y011390D01*
X043390Y010510D01*
X043390Y010547D02*
X043390Y010547D01*
X043390Y010706D02*
X043390Y010706D01*
X043390Y010864D02*
X043390Y010864D01*
X043390Y011023D02*
X043390Y011023D01*
X043390Y011181D02*
X043390Y011181D01*
X043390Y011340D02*
X043390Y011340D01*
X043390Y011390D02*
X043390Y011390D01*
X043990Y011340D02*
X044250Y011340D01*
X044091Y011498D02*
X043990Y011498D01*
X043990Y011181D02*
X044408Y011181D01*
X044567Y011023D02*
X043984Y011023D01*
X043938Y010864D02*
X044725Y010864D01*
X044884Y010706D02*
X043834Y010706D01*
X043599Y010547D02*
X045042Y010547D01*
X045359Y010230D02*
X043290Y010230D01*
X043290Y010072D02*
X045015Y010072D01*
X044886Y009913D02*
X043290Y009913D01*
X043290Y009755D02*
X044820Y009755D01*
X044820Y009596D02*
X043290Y009596D01*
X043290Y009438D02*
X044857Y009438D01*
X044945Y009279D02*
X043290Y009279D01*
X043290Y009121D02*
X045155Y009121D01*
X045502Y008962D02*
X043290Y008962D01*
X043290Y008804D02*
X045661Y008804D01*
X045819Y008645D02*
X043290Y008645D01*
X043290Y008487D02*
X045978Y008487D01*
X046136Y008328D02*
X043290Y008328D01*
X043290Y008170D02*
X046295Y008170D01*
X046453Y008011D02*
X043290Y008011D01*
X043290Y007853D02*
X046612Y007853D01*
X046539Y007694D02*
X046241Y007694D01*
X045539Y007694D02*
X045241Y007694D01*
X044539Y007694D02*
X044241Y007694D01*
X043539Y007694D02*
X043290Y007694D01*
X042890Y007140D02*
X042890Y011890D01*
X041890Y012890D01*
X039640Y012890D01*
X038390Y014140D01*
X038390Y014390D01*
X040390Y014390D02*
X040390Y014140D01*
X041265Y013265D01*
X042890Y013265D01*
X048890Y007265D01*
X048890Y007140D01*
X047890Y007140D02*
X045390Y009640D01*
X041390Y011015D02*
X040390Y010015D01*
X040390Y006640D01*
X040890Y006140D01*
X038890Y006140D02*
X038015Y007015D01*
X038015Y008640D01*
X040390Y011015D01*
X040390Y011390D01*
X041390Y011390D02*
X041390Y011015D01*
X036946Y010706D02*
X030790Y010706D01*
X030790Y010864D02*
X031067Y010864D01*
X030909Y011023D02*
X030790Y011023D01*
X030790Y011181D02*
X030790Y011181D01*
X030790Y011340D02*
X030790Y011340D01*
X030790Y011498D02*
X030790Y011498D01*
X030790Y011657D02*
X030808Y011657D01*
X030790Y011815D02*
X030966Y011815D01*
X031125Y011974D02*
X030790Y011974D01*
X030790Y012132D02*
X031453Y012132D01*
X031535Y012291D02*
X030790Y012291D01*
X030790Y012449D02*
X031535Y012449D01*
X031535Y012608D02*
X030790Y012608D01*
X030790Y012766D02*
X031535Y012766D01*
X031390Y012790D02*
X031390Y013390D01*
X031390Y013390D01*
X031390Y013390D01*
X030790Y013390D01*
X030790Y013639D01*
X031141Y013990D01*
X031390Y013990D01*
X031390Y013390D01*
X030790Y013390D01*
X030790Y013141D01*
X031141Y012790D01*
X031390Y012790D01*
X031390Y012925D02*
X031390Y012925D01*
X031390Y013083D02*
X031390Y013083D01*
X031390Y013242D02*
X031390Y013242D01*
X031390Y013400D02*
X031390Y013400D01*
X031390Y013559D02*
X031390Y013559D01*
X031390Y013717D02*
X031390Y013717D01*
X031390Y013876D02*
X031390Y013876D01*
X031535Y014034D02*
X030763Y014034D01*
X030790Y013876D02*
X031027Y013876D01*
X030868Y013717D02*
X030790Y013717D01*
X030790Y013559D02*
X030790Y013559D01*
X030790Y013400D02*
X030790Y013400D01*
X030790Y013083D02*
X030848Y013083D01*
X030790Y012925D02*
X031007Y012925D01*
X030390Y013890D02*
X030390Y009765D01*
X032140Y008015D01*
X031371Y007219D02*
X009030Y007219D01*
X009030Y007377D02*
X031212Y007377D01*
X031054Y007536D02*
X008900Y007536D01*
X008741Y007694D02*
X030895Y007694D01*
X031529Y007060D02*
X009030Y007060D01*
X009030Y006902D02*
X031688Y006902D01*
X031846Y006743D02*
X008898Y006743D01*
X008851Y006585D02*
X032005Y006585D01*
X032163Y006426D02*
X009009Y006426D01*
X009030Y006268D02*
X032322Y006268D01*
X032480Y006109D02*
X009030Y006109D01*
X009030Y006120D02*
X008410Y006120D01*
X008410Y005500D01*
X008655Y005500D01*
X009030Y005875D01*
X009030Y006120D01*
X009030Y005951D02*
X032639Y005951D01*
X032797Y005792D02*
X008947Y005792D01*
X008789Y005634D02*
X032956Y005634D01*
X033765Y005390D02*
X029390Y009765D01*
X029390Y013890D01*
X028890Y014390D01*
X028434Y013717D02*
X028346Y013717D01*
X028126Y013559D02*
X028654Y013559D01*
X027654Y013559D02*
X027126Y013559D01*
X027346Y013717D02*
X027434Y013717D01*
X026654Y013559D02*
X026126Y013559D01*
X026346Y013717D02*
X026434Y013717D01*
X025654Y013559D02*
X025126Y013559D01*
X025346Y013717D02*
X025434Y013717D01*
X024654Y013559D02*
X024129Y013559D01*
X024346Y013717D02*
X024434Y013717D01*
X024503Y012132D02*
X024277Y012132D01*
X025277Y012132D02*
X025503Y012132D01*
X026277Y012132D02*
X026503Y012132D01*
X027277Y012132D02*
X027503Y012132D01*
X028277Y012132D02*
X028503Y012132D01*
X030390Y013890D02*
X029890Y014390D01*
X030495Y014351D02*
X031535Y014351D01*
X031535Y014193D02*
X030653Y014193D01*
X030490Y014510D02*
X031535Y014510D01*
X031535Y014668D02*
X030490Y014668D01*
X030475Y014827D02*
X031535Y014827D01*
X031535Y014985D02*
X030409Y014985D01*
X032495Y013083D02*
X036990Y013083D01*
X036990Y012925D02*
X032495Y012925D01*
X032495Y012766D02*
X036990Y012766D01*
X036990Y012608D02*
X032495Y012608D01*
X032495Y012449D02*
X035600Y012449D01*
X035641Y012490D02*
X035290Y012139D01*
X035290Y011890D01*
X035890Y011890D01*
X035890Y011890D01*
X035890Y012490D01*
X036139Y012490D01*
X036490Y012139D01*
X036490Y011890D01*
X035890Y011890D01*
X035890Y011890D01*
X035890Y011890D01*
X035890Y012490D01*
X035641Y012490D01*
X035890Y012449D02*
X035890Y012449D01*
X035890Y012291D02*
X035890Y012291D01*
X035890Y012132D02*
X035890Y012132D01*
X035890Y011974D02*
X035890Y011974D01*
X035890Y011890D02*
X035290Y011890D01*
X035290Y011641D01*
X035641Y011290D01*
X035890Y011290D01*
X036139Y011290D01*
X036490Y011641D01*
X036490Y011890D01*
X035890Y011890D01*
X035890Y011290D01*
X035890Y011890D01*
X035890Y011890D01*
X035890Y011815D02*
X035890Y011815D01*
X035890Y011657D02*
X035890Y011657D01*
X035890Y011498D02*
X035890Y011498D01*
X035890Y011340D02*
X035890Y011340D01*
X036188Y011340D02*
X036790Y011340D01*
X036790Y011498D02*
X036347Y011498D01*
X036490Y011657D02*
X036790Y011657D01*
X036801Y011815D02*
X036490Y011815D01*
X036490Y011974D02*
X036866Y011974D01*
X036990Y012132D02*
X036490Y012132D01*
X036338Y012291D02*
X036990Y012291D01*
X036990Y012449D02*
X036180Y012449D01*
X035442Y012291D02*
X032495Y012291D01*
X032495Y012132D02*
X035290Y012132D01*
X035290Y011974D02*
X032495Y011974D01*
X032452Y011815D02*
X035290Y011815D01*
X035290Y011657D02*
X032335Y011657D01*
X032177Y011498D02*
X035433Y011498D01*
X035592Y011340D02*
X032018Y011340D01*
X031990Y011181D02*
X036790Y011181D01*
X036790Y011023D02*
X031871Y011023D01*
X031713Y010864D02*
X036842Y010864D01*
X042765Y015144D02*
X043015Y015144D01*
X041761Y017838D02*
X037894Y017838D01*
X037739Y018789D02*
X041916Y018789D01*
X039224Y019740D02*
X032606Y019740D01*
X032447Y019899D02*
X039066Y019899D01*
X038907Y020057D02*
X032289Y020057D01*
X032130Y020216D02*
X038749Y020216D01*
X038590Y020374D02*
X031972Y020374D01*
X031813Y020533D02*
X038432Y020533D01*
X031956Y026397D02*
X005245Y026397D01*
X005245Y026239D02*
X031798Y026239D01*
X031639Y026080D02*
X005379Y026080D01*
X005537Y025922D02*
X008573Y025922D01*
X008415Y025763D02*
X005696Y025763D01*
X005854Y025605D02*
X008290Y025605D01*
X008290Y025446D02*
X006013Y025446D01*
X006171Y025288D02*
X008290Y025288D01*
X008302Y025129D02*
X006330Y025129D01*
X006488Y024971D02*
X008461Y024971D01*
X009161Y024812D02*
X009799Y024812D01*
X009865Y024971D02*
X009319Y024971D01*
X009478Y025129D02*
X010001Y025129D01*
X010779Y025129D02*
X011001Y025129D01*
X011779Y025129D02*
X012001Y025129D01*
X012390Y025129D02*
X012390Y025129D01*
X012390Y024971D02*
X012390Y024971D01*
X012390Y024812D02*
X012390Y024812D01*
X012390Y024654D02*
X012390Y024654D01*
X012390Y024495D02*
X012390Y024495D01*
X013390Y024495D02*
X013390Y024495D01*
X013390Y024654D02*
X013390Y024654D01*
X013390Y024812D02*
X013390Y024812D01*
X013390Y024971D02*
X013390Y024971D01*
X013390Y025129D02*
X013390Y025129D01*
X013001Y025129D02*
X012779Y025129D01*
X013779Y025129D02*
X014001Y025129D01*
X014390Y025129D02*
X014390Y025129D01*
X014390Y024971D02*
X014390Y024971D01*
X014390Y024812D02*
X014390Y024812D01*
X014390Y024654D02*
X014390Y024654D01*
X014390Y024495D02*
X014390Y024495D01*
X015390Y024495D02*
X015390Y024495D01*
X015390Y024654D02*
X015390Y024654D01*
X015390Y024812D02*
X015390Y024812D01*
X015390Y024971D02*
X015390Y024971D01*
X015390Y025129D02*
X015390Y025129D01*
X015001Y025129D02*
X014779Y025129D01*
X015779Y025129D02*
X016001Y025129D01*
X016779Y025129D02*
X017001Y025129D01*
X017390Y025129D02*
X017390Y025129D01*
X017390Y024971D02*
X017390Y024971D01*
X017390Y024812D02*
X017390Y024812D01*
X017390Y024654D02*
X017390Y024654D01*
X017390Y024495D02*
X017390Y024495D01*
X017161Y026556D02*
X016619Y026556D01*
X016843Y026714D02*
X016937Y026714D01*
X016161Y026556D02*
X015619Y026556D01*
X015843Y026714D02*
X015937Y026714D01*
X015161Y026556D02*
X014619Y026556D01*
X014843Y026714D02*
X014937Y026714D01*
X014161Y026556D02*
X013619Y026556D01*
X013843Y026714D02*
X013937Y026714D01*
X013161Y026556D02*
X012619Y026556D01*
X012843Y026714D02*
X012937Y026714D01*
X012161Y026556D02*
X011619Y026556D01*
X011843Y026714D02*
X011937Y026714D01*
X011161Y026556D02*
X010619Y026556D01*
X010843Y026714D02*
X010937Y026714D01*
X010161Y026556D02*
X005245Y026556D01*
X005245Y026714D02*
X009937Y026714D01*
X009839Y026873D02*
X009221Y026873D01*
X008559Y026873D02*
X005245Y026873D01*
X008370Y021959D02*
X008611Y021959D01*
X007410Y018789D02*
X004270Y018789D01*
X004270Y018631D02*
X007410Y018631D01*
X007410Y018472D02*
X004270Y018472D01*
X004270Y018314D02*
X007410Y018314D01*
X007410Y018155D02*
X004270Y018155D01*
X004270Y017997D02*
X007410Y017997D01*
X007410Y017838D02*
X004270Y017838D01*
X004270Y017680D02*
X005399Y017680D01*
X005241Y017521D02*
X004270Y017521D01*
X004270Y017363D02*
X005125Y017363D01*
X005125Y017204D02*
X004270Y017204D01*
X004270Y017046D02*
X005125Y017046D01*
X005125Y016887D02*
X004270Y016887D01*
X004270Y016729D02*
X005271Y016729D01*
X005290Y016570D02*
X004270Y016570D01*
X004270Y016412D02*
X005131Y016412D01*
X005125Y016253D02*
X004270Y016253D01*
X004270Y016095D02*
X005125Y016095D01*
X005125Y015936D02*
X004270Y015936D01*
X004270Y015778D02*
X005222Y015778D01*
X005339Y015619D02*
X004270Y015619D01*
X004270Y015461D02*
X005180Y015461D01*
X005125Y015302D02*
X004270Y015302D01*
X004270Y015144D02*
X005125Y015144D01*
X005125Y014985D02*
X004270Y014985D01*
X004270Y014827D02*
X005173Y014827D01*
X005332Y014668D02*
X004270Y014668D01*
X004270Y014510D02*
X005229Y014510D01*
X005125Y014351D02*
X004270Y014351D01*
X004270Y014193D02*
X005125Y014193D01*
X005125Y014034D02*
X004270Y014034D01*
X004270Y013876D02*
X005125Y013876D01*
X005283Y013717D02*
X004270Y013717D01*
X004270Y013559D02*
X005278Y013559D01*
X005125Y013400D02*
X004270Y013400D01*
X004270Y013242D02*
X005125Y013242D01*
X005125Y013083D02*
X004270Y013083D01*
X004270Y012925D02*
X005125Y012925D01*
X005234Y012766D02*
X004270Y012766D01*
X004270Y012608D02*
X005327Y012608D01*
X005169Y012449D02*
X004270Y012449D01*
X004270Y012291D02*
X005125Y012291D01*
X005125Y012132D02*
X004270Y012132D01*
X004270Y011974D02*
X005125Y011974D01*
X005185Y011815D02*
X004270Y011815D01*
X004270Y011657D02*
X005343Y011657D01*
X005218Y011498D02*
X004270Y011498D01*
X004270Y011340D02*
X005125Y011340D01*
X005125Y011181D02*
X004270Y011181D01*
X004270Y011023D02*
X005125Y011023D01*
X005136Y010864D02*
X004270Y010864D01*
X004270Y010706D02*
X005294Y010706D01*
X005267Y010547D02*
X004270Y010547D01*
X004270Y010389D02*
X005125Y010389D01*
X005125Y010230D02*
X004270Y010230D01*
X004270Y010072D02*
X005125Y010072D01*
X005125Y009913D02*
X004270Y009913D01*
X004270Y009755D02*
X005245Y009755D01*
X005404Y009596D02*
X004270Y009596D01*
X006126Y009596D02*
X006404Y009596D01*
X007741Y007694D02*
X008039Y007694D01*
X008370Y007694D02*
X008410Y007694D01*
X008410Y007536D02*
X008370Y007536D01*
X008370Y007377D02*
X008410Y007377D01*
X008410Y007219D02*
X008370Y007219D01*
X008370Y007060D02*
X008410Y007060D01*
X008410Y006902D02*
X008370Y006902D01*
X008370Y006743D02*
X008410Y006743D01*
X008410Y006585D02*
X008370Y006585D01*
X008370Y006426D02*
X008410Y006426D01*
X008410Y006268D02*
X008370Y006268D01*
X008370Y006109D02*
X008410Y006109D01*
X008410Y005951D02*
X008370Y005951D01*
X008370Y005792D02*
X008410Y005792D01*
X008410Y005634D02*
X008370Y005634D01*
X007991Y005634D02*
X007789Y005634D01*
X006833Y005792D02*
X006435Y005792D01*
X006477Y005951D02*
X006750Y005951D01*
X006750Y006109D02*
X006485Y006109D01*
X006485Y006268D02*
X006750Y006268D01*
X006771Y006426D02*
X006451Y006426D01*
X006409Y006585D02*
X006929Y006585D01*
X006882Y006743D02*
X006326Y006743D01*
X006229Y006902D02*
X006750Y006902D01*
X006750Y007060D02*
X006070Y007060D01*
X005837Y007219D02*
X006750Y007219D01*
X007240Y016570D02*
X008210Y016570D01*
X007998Y016729D02*
X007259Y016729D01*
X007405Y016887D02*
X007839Y016887D01*
X007681Y017046D02*
X007405Y017046D01*
X007405Y017204D02*
X007522Y017204D01*
X007434Y017363D02*
X007405Y017363D01*
X007410Y017521D02*
X007289Y017521D01*
X007410Y017680D02*
X007131Y017680D01*
X006399Y017680D02*
X006131Y017680D01*
X010808Y017680D02*
X010972Y017680D01*
X032221Y026873D02*
X032339Y026873D01*
X027774Y036066D02*
X016518Y036066D01*
X016360Y036224D02*
X027615Y036224D01*
X058765Y032640D02*
X059765Y032640D01*
X060265Y032140D01*
X059765Y030640D02*
X060265Y030140D01*
X059774Y029726D02*
X059756Y029726D01*
X059597Y029567D02*
X059933Y029567D01*
X060268Y028141D02*
X060512Y028141D01*
X060265Y034140D02*
X059765Y034640D01*
X064887Y018948D02*
X064990Y018948D01*
X058496Y018155D02*
X058284Y018155D01*
D17*
X056515Y015265D02*
X055390Y016390D01*
X053890Y016390D01*
X050890Y016390D01*
X035890Y016390D01*
X035890Y013890D01*
X036390Y014390D01*
X037390Y014390D01*
X035890Y016390D02*
X032015Y016390D01*
X032015Y012015D01*
X031390Y011390D01*
X032015Y016390D02*
X019515Y016390D01*
X019515Y020515D01*
X020390Y021390D01*
X021890Y021390D01*
X019515Y016390D02*
X014640Y016390D01*
X014140Y017015D01*
X008390Y017015D01*
X007890Y017515D01*
X007890Y021390D01*
X008890Y021390D01*
X007890Y021390D02*
X007890Y022890D01*
X004765Y026015D01*
X004765Y027390D01*
X008890Y027390D01*
X010390Y027390D01*
X004765Y027390D02*
X004765Y038390D01*
X006515Y040140D01*
X007390Y040140D01*
X007390Y041140D01*
X007390Y040140D02*
X008390Y040140D01*
X011765Y040140D01*
X016515Y035390D01*
X028265Y035390D01*
X029265Y034390D01*
X028015Y034390D01*
X031640Y037390D02*
X032890Y037390D01*
X031890Y028265D02*
X020390Y028265D01*
X020390Y027390D01*
X021890Y027390D01*
X020390Y028265D02*
X016515Y032140D01*
X016515Y035390D01*
X031890Y028265D02*
X031890Y027390D01*
X032890Y027390D01*
X031890Y028265D02*
X042140Y028265D01*
X042015Y028140D01*
X042015Y027390D01*
X043390Y027390D01*
X042140Y028265D02*
X051640Y028265D01*
X052390Y027515D01*
X052390Y027390D01*
X051640Y026640D01*
X051640Y022640D01*
X052390Y021890D01*
X056515Y015265D02*
X056515Y011390D01*
X055390Y011390D01*
X053890Y011390D01*
X056515Y011390D02*
X056515Y009890D01*
X059265Y007140D01*
X060265Y007140D01*
X060265Y006140D01*
X061640Y006140D01*
X059265Y006140D02*
X059265Y007140D01*
D18*
X046390Y014015D03*
X048390Y017140D03*
X048390Y019265D03*
X046390Y022015D03*
X042140Y018265D03*
X037515Y018265D03*
X045390Y009640D03*
X032140Y008015D03*
X013015Y015515D03*
X022390Y022890D03*
X024890Y029140D03*
X023890Y029890D03*
X026265Y029890D03*
X042265Y029140D03*
X043015Y031015D03*
X050515Y027390D03*
M02*
