%
M48
M72
T01C0.0240
T02C0.0320
T03C0.0400
T04C0.1100
%
T01
X13015Y15515
X22390Y22890
X24890Y29140
X23890Y29890
X26265Y29890
X42265Y29140
X43015Y31015
X50515Y27390
X46390Y22015
X48390Y19265
X48390Y17140
X46390Y14015
X45390Y9640
X42140Y18265
X37515Y18265
X32140Y8015
T02
X31390Y11390
X29890Y11390
X28890Y11390
X27890Y11390
X26890Y11390
X25890Y11390
X24890Y11390
X23890Y11390
X23890Y14390
X24890Y14390
X25890Y14390
X26890Y14390
X27890Y14390
X28890Y14390
X29890Y14390
X31390Y13390
X35890Y13890
X37390Y14390
X38390Y14390
X39390Y14390
X40390Y14390
X41390Y14390
X42390Y14390
X43390Y14390
X43390Y11390
X42390Y11390
X41390Y11390
X40390Y11390
X39390Y11390
X38390Y11390
X37390Y11390
X35890Y11890
X28890Y18390
X27890Y18390
X26890Y18390
X25890Y18390
X24890Y18390
X23890Y18390
X22890Y18390
X21890Y18390
X20390Y19390
X20390Y21390
X21890Y21390
X22890Y21390
X23890Y21390
X24890Y21390
X25890Y21390
X26890Y21390
X27890Y21390
X28890Y21390
X27890Y24390
X26890Y24390
X25890Y24390
X24890Y24390
X23890Y24390
X22890Y24390
X21890Y24390
X20390Y25390
X17390Y24390
X16390Y24390
X15390Y24390
X14390Y24390
X13390Y24390
X12390Y24390
X11390Y24390
X10390Y24390
X8890Y25390
X8890Y27390
X10390Y27390
X11390Y27390
X12390Y27390
X13390Y27390
X14390Y27390
X15390Y27390
X16390Y27390
X17390Y27390
X20390Y27390
X21890Y27390
X22890Y27390
X23890Y27390
X24890Y27390
X25890Y27390
X26890Y27390
X27890Y27390
X29890Y27390
X31890Y27390
X32890Y27390
X33890Y27390
X34890Y27390
X35890Y27390
X36890Y27390
X37890Y27390
X38890Y27390
X39890Y27390
X42015Y27390
X43390Y27390
X44390Y27390
X45390Y27390
X46390Y27390
X47390Y27390
X48390Y27390
X49390Y27390
X49390Y29640
X49390Y30640
X49390Y31640
X49390Y32640
X49390Y33640
X49390Y34640
X49390Y35640
X49390Y36640
X49390Y37640
X49390Y38640
X49390Y40265
X47390Y40265
X46390Y38640
X46390Y37640
X46390Y36640
X46390Y35640
X46390Y34640
X46390Y33640
X46390Y32640
X46390Y31640
X46390Y30640
X46390Y29640
X52390Y27390
X53890Y27390
X54890Y27390
X55890Y27390
X56890Y27390
X57890Y27390
X58890Y27390
X59890Y27390
X60890Y27390
X62890Y29140
X62890Y30140
X62890Y31140
X62890Y32140
X62890Y33140
X62890Y34140
X62890Y35140
X62890Y36140
X62890Y37140
X52390Y25390
X53890Y24390
X54890Y24390
X55890Y24390
X56890Y24390
X57890Y24390
X58890Y24390
X59890Y24390
X60890Y24390
X60890Y21890
X59890Y21890
X58890Y21890
X57890Y21890
X56890Y21890
X55890Y21890
X54890Y21890
X53890Y21890
X52390Y21890
X50390Y21890
X49390Y24390
X48390Y24390
X47390Y24390
X46390Y24390
X45390Y24390
X44390Y24390
X43390Y24390
X42015Y25390
X39890Y24390
X38890Y24390
X37890Y24390
X36890Y24390
X35890Y24390
X34890Y24390
X33890Y24390
X32890Y24390
X29265Y32390
X29265Y34390
X28015Y34390
X27015Y34390
X26015Y34390
X25015Y34390
X24015Y34390
X23015Y34390
X22015Y34390
X21015Y34390
X21015Y37390
X22015Y37390
X23015Y37390
X24015Y37390
X25015Y37390
X26015Y37390
X27015Y37390
X28015Y37390
X31640Y37390
X32890Y37390
X33890Y37390
X34890Y37390
X35890Y37390
X36890Y37390
X37890Y37390
X38890Y37390
X39890Y37390
X40890Y37390
X41890Y37390
X41890Y34390
X40890Y34390
X39890Y34390
X38890Y34390
X37890Y34390
X36890Y34390
X35890Y34390
X34890Y34390
X33890Y34390
X32890Y34390
X31640Y39390
X17390Y21390
X16390Y21390
X15390Y21390
X14390Y21390
X13390Y21390
X12390Y21390
X11390Y21390
X10390Y21390
X8890Y21390
X8890Y19390
X10390Y18390
X11390Y18390
X12390Y18390
X13390Y18390
X14390Y18390
X15390Y18390
X16390Y18390
X17390Y18390
X47890Y14390
X48890Y14390
X49890Y14390
X50890Y14390
X51890Y14390
X52890Y14390
X53890Y14390
X55390Y13390
X55390Y11390
X53890Y11390
X52890Y11390
X51890Y11390
X50890Y11390
X49890Y11390
X48890Y11390
X47890Y11390
X53890Y18890
X54890Y18890
X55890Y18890
X56890Y18890
X57890Y18890
X58890Y18890
X59890Y18890
X60890Y18890
X61640Y6140
X63640Y6140
T03
X60265Y6140
X59265Y6140
X59265Y7140
X60265Y7140
X60265Y10140
X59265Y10140
X59265Y11140
X60265Y11140
X60265Y12140
X59265Y12140
X59265Y13140
X60265Y13140
X60265Y14140
X59265Y14140
X59265Y15140
X60265Y15140
X60265Y16140
X59265Y16140
X59265Y17140
X60265Y17140
X64265Y19515
X64265Y20515
X64265Y21515
X64265Y22515
X64265Y23515
X64265Y24515
X64265Y25515
X64265Y26515
X64265Y27515
X60265Y30140
X59265Y30140
X59265Y31140
X60265Y31140
X60265Y32140
X59265Y32140
X59265Y33140
X60265Y33140
X60265Y34140
X59265Y34140
X59265Y35140
X60265Y35140
X60265Y36140
X59265Y36140
X59265Y37140
X60265Y37140
X60265Y40140
X59265Y40140
X59265Y41140
X60265Y41140
X53890Y7140
X53890Y6140
X52890Y6140
X51890Y6140
X51890Y7140
X52890Y7140
X50890Y7140
X49890Y7140
X49890Y6140
X50890Y6140
X48890Y6140
X47890Y6140
X46890Y6140
X46890Y7140
X47890Y7140
X48890Y7140
X45890Y7140
X44890Y7140
X44890Y6140
X45890Y6140
X43890Y6140
X42890Y6140
X41890Y6140
X41890Y7140
X42890Y7140
X43890Y7140
X40890Y7140
X39890Y7140
X39890Y6140
X40890Y6140
X38890Y6140
X38890Y7140
X8390Y7140
X7390Y7140
X7390Y6140
X8390Y6140
X6765Y10140
X5765Y10140
X5765Y11140
X6765Y11140
X6765Y12140
X5765Y12140
X5765Y13140
X6765Y13140
X6765Y14140
X5765Y14140
X5765Y15140
X6765Y15140
X6765Y16140
X5765Y16140
X5765Y17140
X6765Y17140
X6765Y30140
X5765Y30140
X5765Y31140
X6765Y31140
X6765Y32140
X5765Y32140
X5765Y33140
X6765Y33140
X6765Y34140
X5765Y34140
X5765Y35140
X6765Y35140
X6765Y36140
X5765Y36140
X5765Y37140
X6765Y37140
X9015Y37140
X9015Y36140
X9015Y35140
X9015Y34140
X9015Y33140
X8390Y40140
X7390Y40140
X7390Y41140
X8390Y41140
T04
X5265Y6140
X5265Y41140
X65765Y41140
X65765Y6140
M30
