G75*
%MOIN*%
%OFA0B0*%
%FSLAX24Y24*%
%IPPOS*%
%LPD*%
%AMOC8*
5,1,8,0,0,1.08239X$1,22.5*
%
%ADD10C,0.0100*%
%ADD11C,0.0120*%
%ADD12R,0.0200X0.0800*%
D10*
X006890Y005890D02*
X007140Y005640D01*
X007640Y005640D01*
X007890Y005890D01*
X007890Y007390D01*
X008140Y007640D01*
X008640Y007640D01*
X008890Y007390D01*
X008890Y005890D01*
X008640Y005640D01*
X008140Y005640D01*
X007890Y005890D01*
X006890Y005890D02*
X006890Y007390D01*
X007140Y007640D01*
X007640Y007640D01*
X007890Y007390D01*
X007861Y007940D02*
X008061Y007940D01*
X008128Y008007D01*
X008128Y008274D01*
X008061Y008340D01*
X007861Y008340D01*
X007861Y007940D01*
X007667Y007940D02*
X007667Y008340D01*
X007400Y008340D02*
X007667Y007940D01*
X007400Y007940D02*
X007400Y008340D01*
X007207Y008274D02*
X007140Y008340D01*
X007007Y008340D01*
X006940Y008274D01*
X006940Y008007D01*
X007007Y007940D01*
X007140Y007940D01*
X007207Y008007D01*
X007207Y008140D01*
X007073Y008140D01*
X008321Y008274D02*
X008388Y008340D01*
X008521Y008340D01*
X008588Y008274D01*
X008588Y008207D01*
X008321Y007940D01*
X008588Y007940D01*
X007015Y009640D02*
X005515Y009640D01*
X005265Y009890D01*
X005265Y010390D01*
X005515Y010640D01*
X007015Y010640D01*
X007265Y010390D01*
X007265Y009890D01*
X007015Y009640D01*
X007015Y010640D02*
X007265Y010890D01*
X007265Y011390D01*
X007015Y011640D01*
X005515Y011640D01*
X005265Y011390D01*
X005265Y010890D01*
X005515Y010640D01*
X005515Y011640D02*
X005265Y011890D01*
X005265Y012390D01*
X005515Y012640D01*
X007015Y012640D01*
X007265Y012390D01*
X007265Y011890D01*
X007015Y011640D01*
X007015Y012640D02*
X007265Y012890D01*
X007265Y013390D01*
X007015Y013640D01*
X005515Y013640D01*
X005265Y013390D01*
X005265Y012890D01*
X005515Y012640D01*
X005515Y013640D02*
X005265Y013890D01*
X005265Y014390D01*
X005515Y014640D01*
X007015Y014640D01*
X007265Y014390D01*
X007265Y013890D01*
X007015Y013640D01*
X007015Y014640D02*
X007265Y014890D01*
X007265Y015390D01*
X007015Y015640D01*
X005515Y015640D01*
X005265Y015390D01*
X005265Y014890D01*
X005515Y014640D01*
X005515Y015640D02*
X005265Y015890D01*
X005265Y016390D01*
X005515Y016640D01*
X007015Y016640D01*
X007265Y016390D01*
X007265Y015890D01*
X007015Y015640D01*
X007565Y016442D02*
X007565Y016576D01*
X007565Y016509D02*
X007898Y016509D01*
X007965Y016442D01*
X007965Y016376D01*
X007898Y016309D01*
X007832Y016769D02*
X007832Y016969D01*
X007765Y017036D01*
X007631Y017036D01*
X007565Y016969D01*
X007565Y016769D01*
X007965Y016769D01*
X007765Y017230D02*
X007765Y017496D01*
X007965Y017430D02*
X007565Y017430D01*
X007765Y017230D01*
X007265Y017390D02*
X007265Y016890D01*
X007015Y016640D01*
X007265Y017390D02*
X007015Y017640D01*
X005515Y017640D01*
X005265Y017390D01*
X005265Y016890D01*
X005515Y016640D01*
X009290Y018165D02*
X009290Y018298D01*
X009290Y018232D02*
X009690Y018232D01*
X009690Y018298D02*
X009690Y018165D01*
X009623Y018472D02*
X009690Y018539D01*
X009690Y018672D01*
X009623Y018739D01*
X009623Y018932D02*
X009690Y018999D01*
X009690Y019132D01*
X009623Y019199D01*
X009557Y019199D01*
X009490Y019132D01*
X009490Y019066D01*
X009490Y019132D02*
X009423Y019199D01*
X009356Y019199D01*
X009290Y019132D01*
X009290Y018999D01*
X009356Y018932D01*
X009356Y018739D02*
X009290Y018672D01*
X009290Y018539D01*
X009356Y018472D01*
X009623Y018472D01*
X009890Y018740D02*
X009890Y019490D01*
X009929Y019492D01*
X009968Y019498D01*
X010006Y019507D01*
X010043Y019520D01*
X010079Y019537D01*
X010112Y019557D01*
X010144Y019581D01*
X010173Y019607D01*
X010199Y019636D01*
X010223Y019668D01*
X010243Y019701D01*
X010260Y019737D01*
X010273Y019774D01*
X010282Y019812D01*
X010288Y019851D01*
X010290Y019890D01*
X010288Y019929D01*
X010282Y019968D01*
X010273Y020006D01*
X010260Y020043D01*
X010243Y020079D01*
X010223Y020112D01*
X010199Y020144D01*
X010173Y020173D01*
X010144Y020199D01*
X010112Y020223D01*
X010079Y020243D01*
X010043Y020260D01*
X010006Y020273D01*
X009968Y020282D01*
X009929Y020288D01*
X009890Y020290D01*
X009890Y021040D01*
X017890Y021040D01*
X017890Y018740D01*
X009890Y018740D01*
X009340Y019740D02*
X009340Y021040D01*
X009338Y021066D01*
X009333Y021092D01*
X009325Y021117D01*
X009313Y021140D01*
X009299Y021162D01*
X009281Y021181D01*
X009262Y021199D01*
X009240Y021213D01*
X009217Y021225D01*
X009192Y021233D01*
X009166Y021238D01*
X009140Y021240D01*
X008890Y020890D02*
X008890Y020510D01*
X008890Y020260D02*
X008890Y019890D01*
X008640Y019540D02*
X008614Y019542D01*
X008588Y019547D01*
X008563Y019555D01*
X008540Y019567D01*
X008518Y019581D01*
X008499Y019599D01*
X008481Y019618D01*
X008467Y019640D01*
X008455Y019663D01*
X008447Y019688D01*
X008442Y019714D01*
X008440Y019740D01*
X008440Y021040D01*
X008442Y021066D01*
X008447Y021092D01*
X008455Y021117D01*
X008467Y021140D01*
X008481Y021162D01*
X008499Y021181D01*
X008518Y021199D01*
X008540Y021213D01*
X008563Y021225D01*
X008588Y021233D01*
X008614Y021238D01*
X008640Y021240D01*
X010990Y020090D02*
X011257Y020090D01*
X011257Y020024D01*
X010990Y019757D01*
X010990Y019690D01*
X011450Y019890D02*
X011717Y019890D01*
X011651Y019690D02*
X011651Y020090D01*
X011450Y019890D01*
X011911Y020090D02*
X011911Y019690D01*
X012178Y019690D01*
X012371Y019757D02*
X012438Y019690D01*
X012571Y019690D01*
X012638Y019757D01*
X012638Y019823D01*
X012571Y019890D01*
X012438Y019890D01*
X012371Y019957D01*
X012371Y020024D01*
X012438Y020090D01*
X012571Y020090D01*
X012638Y020024D01*
X012832Y019957D02*
X012965Y020090D01*
X012965Y019690D01*
X012832Y019690D02*
X013098Y019690D01*
X013292Y019757D02*
X013359Y019690D01*
X013492Y019690D01*
X013559Y019757D01*
X013559Y019823D01*
X013492Y019890D01*
X013292Y019890D01*
X013292Y019757D01*
X013292Y019890D02*
X013425Y020024D01*
X013559Y020090D01*
X013752Y020024D02*
X013819Y020090D01*
X013953Y020090D01*
X014019Y020024D01*
X014019Y019957D01*
X013953Y019890D01*
X014019Y019823D01*
X014019Y019757D01*
X013953Y019690D01*
X013819Y019690D01*
X013752Y019757D01*
X013886Y019890D02*
X013953Y019890D01*
X009340Y019740D02*
X009338Y019714D01*
X009333Y019688D01*
X009325Y019663D01*
X009313Y019640D01*
X009299Y019618D01*
X009281Y019599D01*
X009262Y019581D01*
X009240Y019567D01*
X009217Y019555D01*
X009192Y019547D01*
X009166Y019542D01*
X009140Y019540D01*
X009290Y024165D02*
X009290Y024298D01*
X009290Y024232D02*
X009690Y024232D01*
X009690Y024298D02*
X009690Y024165D01*
X009623Y024472D02*
X009690Y024539D01*
X009690Y024672D01*
X009623Y024739D01*
X009690Y024932D02*
X009423Y025199D01*
X009356Y025199D01*
X009290Y025132D01*
X009290Y024999D01*
X009356Y024932D01*
X009356Y024739D02*
X009290Y024672D01*
X009290Y024539D01*
X009356Y024472D01*
X009623Y024472D01*
X009890Y024740D02*
X009890Y025490D01*
X009690Y025199D02*
X009690Y024932D01*
X009890Y024740D02*
X017890Y024740D01*
X017890Y027040D01*
X009890Y027040D01*
X009890Y026290D01*
X009929Y026288D01*
X009968Y026282D01*
X010006Y026273D01*
X010043Y026260D01*
X010079Y026243D01*
X010112Y026223D01*
X010144Y026199D01*
X010173Y026173D01*
X010199Y026144D01*
X010223Y026112D01*
X010243Y026079D01*
X010260Y026043D01*
X010273Y026006D01*
X010282Y025968D01*
X010288Y025929D01*
X010290Y025890D01*
X010288Y025851D01*
X010282Y025812D01*
X010273Y025774D01*
X010260Y025737D01*
X010243Y025701D01*
X010223Y025668D01*
X010199Y025636D01*
X010173Y025607D01*
X010144Y025581D01*
X010112Y025557D01*
X010079Y025537D01*
X010043Y025520D01*
X010006Y025507D01*
X009968Y025498D01*
X009929Y025492D01*
X009890Y025490D01*
X009340Y025740D02*
X009340Y027040D01*
X009338Y027066D01*
X009333Y027092D01*
X009325Y027117D01*
X009313Y027140D01*
X009299Y027162D01*
X009281Y027181D01*
X009262Y027199D01*
X009240Y027213D01*
X009217Y027225D01*
X009192Y027233D01*
X009166Y027238D01*
X009140Y027240D01*
X008890Y026890D02*
X008890Y026510D01*
X008890Y026260D02*
X008890Y025890D01*
X008640Y025540D02*
X008614Y025542D01*
X008588Y025547D01*
X008563Y025555D01*
X008540Y025567D01*
X008518Y025581D01*
X008499Y025599D01*
X008481Y025618D01*
X008467Y025640D01*
X008455Y025663D01*
X008447Y025688D01*
X008442Y025714D01*
X008440Y025740D01*
X008440Y027040D01*
X008442Y027066D01*
X008447Y027092D01*
X008455Y027117D01*
X008467Y027140D01*
X008481Y027162D01*
X008499Y027181D01*
X008518Y027199D01*
X008540Y027213D01*
X008563Y027225D01*
X008588Y027233D01*
X008614Y027238D01*
X008640Y027240D01*
X009340Y025740D02*
X009338Y025714D01*
X009333Y025688D01*
X009325Y025663D01*
X009313Y025640D01*
X009299Y025618D01*
X009281Y025599D01*
X009262Y025581D01*
X009240Y025567D01*
X009217Y025555D01*
X009192Y025547D01*
X009166Y025542D01*
X009140Y025540D01*
X010990Y025690D02*
X010990Y025757D01*
X011257Y026024D01*
X011257Y026090D01*
X010990Y026090D01*
X011450Y025890D02*
X011717Y025890D01*
X011651Y025690D02*
X011651Y026090D01*
X011450Y025890D01*
X011911Y025690D02*
X012178Y025690D01*
X012371Y025757D02*
X012438Y025690D01*
X012571Y025690D01*
X012638Y025757D01*
X012638Y025823D01*
X012571Y025890D01*
X012438Y025890D01*
X012371Y025957D01*
X012371Y026024D01*
X012438Y026090D01*
X012571Y026090D01*
X012638Y026024D01*
X012832Y025957D02*
X012965Y026090D01*
X012965Y025690D01*
X012832Y025690D02*
X013098Y025690D01*
X013292Y025757D02*
X013359Y025690D01*
X013492Y025690D01*
X013559Y025757D01*
X013559Y025823D01*
X013492Y025890D01*
X013292Y025890D01*
X013292Y025757D01*
X013292Y025890D02*
X013425Y026024D01*
X013559Y026090D01*
X013752Y026024D02*
X013819Y026090D01*
X013953Y026090D01*
X014019Y026024D01*
X014019Y025957D01*
X013953Y025890D01*
X014019Y025823D01*
X014019Y025757D01*
X013953Y025690D01*
X013819Y025690D01*
X013752Y025757D01*
X013886Y025890D02*
X013953Y025890D01*
X011911Y026090D02*
X011911Y025690D01*
X007265Y029890D02*
X007015Y029640D01*
X005515Y029640D01*
X005265Y029890D01*
X005265Y030390D01*
X005515Y030640D01*
X007015Y030640D01*
X007265Y030390D01*
X007265Y029890D01*
X007015Y030640D02*
X007265Y030890D01*
X007265Y031390D01*
X007015Y031640D01*
X005515Y031640D01*
X005265Y031390D01*
X005265Y030890D01*
X005515Y030640D01*
X005515Y031640D02*
X005265Y031890D01*
X005265Y032390D01*
X005515Y032640D01*
X007015Y032640D01*
X007265Y032390D01*
X007265Y031890D01*
X007015Y031640D01*
X007015Y032640D02*
X007265Y032890D01*
X007265Y033390D01*
X007015Y033640D01*
X005515Y033640D01*
X005265Y033390D01*
X005265Y032890D01*
X005515Y032640D01*
X005515Y033640D02*
X005265Y033890D01*
X005265Y034390D01*
X005515Y034640D01*
X007015Y034640D01*
X007265Y034390D01*
X007265Y033890D01*
X007015Y033640D01*
X007845Y033648D02*
X007845Y033781D01*
X007911Y033848D01*
X007978Y033848D01*
X008045Y033781D01*
X008045Y033648D01*
X007978Y033581D01*
X007911Y033581D01*
X007845Y033648D01*
X008045Y033648D02*
X008112Y033581D01*
X008178Y033581D01*
X008245Y033648D01*
X008245Y033781D01*
X008178Y033848D01*
X008112Y033848D01*
X008045Y033781D01*
X008045Y033387D02*
X008112Y033321D01*
X008112Y033120D01*
X008245Y033120D02*
X007845Y033120D01*
X007845Y033321D01*
X007911Y033387D01*
X008045Y033387D01*
X008515Y033390D02*
X008515Y032890D01*
X008765Y032640D01*
X009265Y032640D01*
X009515Y032890D01*
X009515Y033390D01*
X009265Y033640D01*
X009515Y033890D01*
X009515Y034390D01*
X009265Y034640D01*
X008765Y034640D01*
X008515Y034390D01*
X008515Y033890D01*
X008765Y033640D01*
X009265Y033640D01*
X008765Y033640D02*
X008515Y033390D01*
X008178Y032860D02*
X007845Y032860D01*
X007845Y032793D02*
X007845Y032927D01*
X008178Y032860D02*
X008245Y032793D01*
X008245Y032727D01*
X008178Y032660D01*
X008765Y034640D02*
X008515Y034890D01*
X008515Y035390D01*
X008765Y035640D01*
X008515Y035890D01*
X008515Y036390D01*
X008765Y036640D01*
X008515Y036890D01*
X008515Y037390D01*
X008765Y037640D01*
X009265Y037640D01*
X009515Y037390D01*
X009515Y036890D01*
X009265Y036640D01*
X009515Y036390D01*
X009515Y035890D01*
X009265Y035640D01*
X009515Y035390D01*
X009515Y034890D01*
X009265Y034640D01*
X009265Y035640D02*
X008765Y035640D01*
X007965Y036376D02*
X007898Y036309D01*
X007965Y036376D02*
X007965Y036442D01*
X007898Y036509D01*
X007565Y036509D01*
X007565Y036442D02*
X007565Y036576D01*
X007565Y036769D02*
X007565Y036969D01*
X007631Y037036D01*
X007765Y037036D01*
X007832Y036969D01*
X007832Y036769D01*
X007965Y036769D02*
X007565Y036769D01*
X007265Y036890D02*
X007015Y036640D01*
X005515Y036640D01*
X005265Y036390D01*
X005265Y035890D01*
X005515Y035640D01*
X007015Y035640D01*
X007265Y035390D01*
X007265Y034890D01*
X007015Y034640D01*
X007015Y035640D02*
X007265Y035890D01*
X007265Y036390D01*
X007015Y036640D01*
X007265Y036890D02*
X007265Y037390D01*
X007015Y037640D01*
X005515Y037640D01*
X005265Y037390D01*
X005265Y036890D01*
X005515Y036640D01*
X005515Y035640D02*
X005265Y035390D01*
X005265Y034890D01*
X005515Y034640D01*
X007631Y037230D02*
X007565Y037296D01*
X007565Y037430D01*
X007631Y037496D01*
X007698Y037496D01*
X007765Y037430D01*
X007832Y037496D01*
X007898Y037496D01*
X007965Y037430D01*
X007965Y037296D01*
X007898Y037230D01*
X007765Y037363D02*
X007765Y037430D01*
X008765Y036640D02*
X009265Y036640D01*
X008640Y039640D02*
X008140Y039640D01*
X007890Y039890D01*
X007890Y041390D01*
X008140Y041640D01*
X008640Y041640D01*
X008890Y041390D01*
X008890Y039890D01*
X008640Y039640D01*
X007890Y039890D02*
X007640Y039640D01*
X007140Y039640D01*
X006890Y039890D01*
X006890Y041390D01*
X007140Y041640D01*
X007640Y041640D01*
X007890Y041390D01*
X007928Y041940D02*
X008061Y041940D01*
X008128Y042007D01*
X008321Y041940D02*
X008588Y042207D01*
X008588Y042274D01*
X008521Y042340D01*
X008388Y042340D01*
X008321Y042274D01*
X008128Y042274D02*
X008061Y042340D01*
X007928Y042340D01*
X007861Y042274D01*
X007861Y042007D01*
X007928Y041940D01*
X007667Y042007D02*
X007601Y041940D01*
X007467Y041940D01*
X007400Y042007D01*
X007400Y042274D01*
X007467Y042340D01*
X007601Y042340D01*
X007667Y042274D01*
X007207Y042340D02*
X007207Y042073D01*
X007073Y041940D01*
X006940Y042073D01*
X006940Y042340D01*
X008321Y041940D02*
X008588Y041940D01*
X020515Y037040D02*
X020515Y034740D01*
X028515Y034740D01*
X028515Y035490D01*
X028476Y035492D01*
X028437Y035498D01*
X028399Y035507D01*
X028362Y035520D01*
X028326Y035537D01*
X028293Y035557D01*
X028261Y035581D01*
X028232Y035607D01*
X028206Y035636D01*
X028182Y035668D01*
X028162Y035701D01*
X028145Y035737D01*
X028132Y035774D01*
X028123Y035812D01*
X028117Y035851D01*
X028115Y035890D01*
X028117Y035929D01*
X028123Y035968D01*
X028132Y036006D01*
X028145Y036043D01*
X028162Y036079D01*
X028182Y036112D01*
X028206Y036144D01*
X028232Y036173D01*
X028261Y036199D01*
X028293Y036223D01*
X028326Y036243D01*
X028362Y036260D01*
X028399Y036273D01*
X028437Y036282D01*
X028476Y036288D01*
X028515Y036290D01*
X028515Y037040D01*
X020515Y037040D01*
X023832Y036090D02*
X024099Y036090D01*
X024099Y036024D01*
X023832Y035757D01*
X023832Y035690D01*
X024292Y035890D02*
X024559Y035890D01*
X024492Y035690D02*
X024492Y036090D01*
X024292Y035890D01*
X024753Y036090D02*
X024753Y035690D01*
X025020Y035690D01*
X025213Y035757D02*
X025280Y035690D01*
X025413Y035690D01*
X025480Y035757D01*
X025480Y035823D01*
X025413Y035890D01*
X025280Y035890D01*
X025213Y035957D01*
X025213Y036024D01*
X025280Y036090D01*
X025413Y036090D01*
X025480Y036024D01*
X025673Y035957D02*
X025807Y036090D01*
X025807Y035690D01*
X025940Y035690D02*
X025673Y035690D01*
X026134Y035890D02*
X026401Y035890D01*
X026594Y035823D02*
X026661Y035890D01*
X026794Y035890D01*
X026861Y035823D01*
X026861Y035757D01*
X026794Y035690D01*
X026661Y035690D01*
X026594Y035757D01*
X026594Y035823D01*
X026661Y035890D02*
X026594Y035957D01*
X026594Y036024D01*
X026661Y036090D01*
X026794Y036090D01*
X026861Y036024D01*
X026861Y035957D01*
X026794Y035890D01*
X027055Y035690D02*
X027055Y036090D01*
X027321Y035690D01*
X027321Y036090D01*
X026334Y036090D02*
X026334Y035690D01*
X026134Y035890D02*
X026334Y036090D01*
X028715Y035996D02*
X028715Y035862D01*
X028715Y035929D02*
X029115Y035929D01*
X029115Y035862D02*
X029115Y035996D01*
X029048Y036169D02*
X029115Y036236D01*
X029115Y036369D01*
X029048Y036436D01*
X029048Y036630D02*
X029115Y036696D01*
X029115Y036830D01*
X029048Y036896D01*
X028982Y036896D01*
X028915Y036830D01*
X028915Y036630D01*
X029048Y036630D01*
X028915Y036630D02*
X028781Y036763D01*
X028715Y036896D01*
X028781Y036436D02*
X028715Y036369D01*
X028715Y036236D01*
X028781Y036169D01*
X029048Y036169D01*
X029015Y034240D02*
X028989Y034238D01*
X028963Y034233D01*
X028938Y034225D01*
X028915Y034213D01*
X028893Y034199D01*
X028874Y034181D01*
X028856Y034162D01*
X028842Y034140D01*
X028830Y034117D01*
X028822Y034092D01*
X028817Y034066D01*
X028815Y034040D01*
X028815Y032740D01*
X028817Y032714D01*
X028822Y032688D01*
X028830Y032663D01*
X028842Y032640D01*
X028856Y032618D01*
X028874Y032599D01*
X028893Y032581D01*
X028915Y032567D01*
X028938Y032555D01*
X028963Y032547D01*
X028989Y032542D01*
X029015Y032540D01*
X029265Y032890D02*
X029265Y033260D01*
X029265Y033510D02*
X029265Y033890D01*
X029515Y034240D02*
X029541Y034238D01*
X029567Y034233D01*
X029592Y034225D01*
X029615Y034213D01*
X029637Y034199D01*
X029656Y034181D01*
X029674Y034162D01*
X029688Y034140D01*
X029700Y034117D01*
X029708Y034092D01*
X029713Y034066D01*
X029715Y034040D01*
X029715Y032740D01*
X029713Y032714D01*
X029708Y032688D01*
X029700Y032663D01*
X029688Y032640D01*
X029674Y032618D01*
X029656Y032599D01*
X029637Y032581D01*
X029615Y032567D01*
X029592Y032555D01*
X029567Y032547D01*
X029541Y032542D01*
X029515Y032540D01*
X031790Y034865D02*
X031790Y034998D01*
X031790Y034932D02*
X032190Y034932D01*
X032190Y034998D02*
X032190Y034865D01*
X032390Y034740D02*
X032390Y035490D01*
X032190Y035372D02*
X032123Y035439D01*
X032190Y035372D02*
X032190Y035239D01*
X032123Y035172D01*
X031856Y035172D01*
X031790Y035239D01*
X031790Y035372D01*
X031856Y035439D01*
X031790Y035632D02*
X031990Y035632D01*
X031923Y035766D01*
X031923Y035832D01*
X031990Y035899D01*
X032123Y035899D01*
X032190Y035832D01*
X032190Y035699D01*
X032123Y035632D01*
X031790Y035632D02*
X031790Y035899D01*
X032390Y036290D02*
X032429Y036288D01*
X032468Y036282D01*
X032506Y036273D01*
X032543Y036260D01*
X032579Y036243D01*
X032612Y036223D01*
X032644Y036199D01*
X032673Y036173D01*
X032699Y036144D01*
X032723Y036112D01*
X032743Y036079D01*
X032760Y036043D01*
X032773Y036006D01*
X032782Y035968D01*
X032788Y035929D01*
X032790Y035890D01*
X032788Y035851D01*
X032782Y035812D01*
X032773Y035774D01*
X032760Y035737D01*
X032743Y035701D01*
X032723Y035668D01*
X032699Y035636D01*
X032673Y035607D01*
X032644Y035581D01*
X032612Y035557D01*
X032579Y035537D01*
X032543Y035520D01*
X032506Y035507D01*
X032468Y035498D01*
X032429Y035492D01*
X032390Y035490D01*
X032390Y036290D02*
X032390Y037040D01*
X042390Y037040D01*
X042390Y034740D01*
X032390Y034740D01*
X033590Y035790D02*
X033590Y035857D01*
X033857Y036124D01*
X033857Y036190D01*
X033590Y036190D01*
X034050Y035990D02*
X034317Y035990D01*
X034251Y035790D02*
X034251Y036190D01*
X034050Y035990D01*
X034511Y036190D02*
X034511Y035790D01*
X034778Y035790D01*
X034971Y035857D02*
X035038Y035790D01*
X035171Y035790D01*
X035238Y035857D01*
X035238Y035923D01*
X035171Y035990D01*
X035038Y035990D01*
X034971Y036057D01*
X034971Y036124D01*
X035038Y036190D01*
X035171Y036190D01*
X035238Y036124D01*
X035432Y036124D02*
X035498Y036190D01*
X035632Y036190D01*
X035698Y036124D01*
X035698Y036057D01*
X035432Y035790D01*
X035698Y035790D01*
X035892Y035790D02*
X035892Y035857D01*
X036159Y036124D01*
X036159Y036190D01*
X035892Y036190D01*
X036352Y036124D02*
X036419Y036190D01*
X036553Y036190D01*
X036619Y036124D01*
X036619Y036057D01*
X036553Y035990D01*
X036619Y035923D01*
X036619Y035857D01*
X036553Y035790D01*
X036419Y035790D01*
X036352Y035857D01*
X036486Y035990D02*
X036553Y035990D01*
X036813Y035790D02*
X036813Y036190D01*
X037080Y035790D01*
X037080Y036190D01*
X032090Y037740D02*
X032090Y039040D01*
X032088Y039066D01*
X032083Y039092D01*
X032075Y039117D01*
X032063Y039140D01*
X032049Y039162D01*
X032031Y039181D01*
X032012Y039199D01*
X031990Y039213D01*
X031967Y039225D01*
X031942Y039233D01*
X031916Y039238D01*
X031890Y039240D01*
X031640Y038890D02*
X031640Y038520D01*
X031640Y038270D02*
X031640Y037890D01*
X031890Y037540D02*
X031916Y037542D01*
X031942Y037547D01*
X031967Y037555D01*
X031990Y037567D01*
X032012Y037581D01*
X032031Y037599D01*
X032049Y037618D01*
X032063Y037640D01*
X032075Y037663D01*
X032083Y037688D01*
X032088Y037714D01*
X032090Y037740D01*
X031390Y037540D02*
X031364Y037542D01*
X031338Y037547D01*
X031313Y037555D01*
X031290Y037567D01*
X031268Y037581D01*
X031249Y037599D01*
X031231Y037618D01*
X031217Y037640D01*
X031205Y037663D01*
X031197Y037688D01*
X031192Y037714D01*
X031190Y037740D01*
X031190Y039040D01*
X031192Y039066D01*
X031197Y039092D01*
X031205Y039117D01*
X031217Y039140D01*
X031231Y039162D01*
X031249Y039181D01*
X031268Y039199D01*
X031290Y039213D01*
X031313Y039225D01*
X031338Y039233D01*
X031364Y039238D01*
X031390Y039240D01*
X045990Y039340D02*
X046123Y039340D01*
X046057Y039340D02*
X046057Y039740D01*
X046123Y039740D02*
X045990Y039740D01*
X046297Y039674D02*
X046297Y039407D01*
X046364Y039340D01*
X046497Y039340D01*
X046564Y039407D01*
X046757Y039340D02*
X047024Y039340D01*
X046891Y039340D02*
X046891Y039740D01*
X046757Y039607D01*
X046564Y039674D02*
X046497Y039740D01*
X046364Y039740D01*
X046297Y039674D01*
X046740Y039140D02*
X047490Y039140D01*
X047485Y039340D02*
X047218Y039340D01*
X047351Y039340D02*
X047351Y039740D01*
X047218Y039607D01*
X047740Y039815D02*
X049040Y039815D01*
X049066Y039817D01*
X049092Y039822D01*
X049117Y039830D01*
X049140Y039842D01*
X049162Y039856D01*
X049181Y039874D01*
X049199Y039893D01*
X049213Y039915D01*
X049225Y039938D01*
X049233Y039963D01*
X049238Y039989D01*
X049240Y040015D01*
X048890Y040265D02*
X048510Y040265D01*
X048260Y040265D02*
X047890Y040265D01*
X047540Y040515D02*
X047542Y040541D01*
X047547Y040567D01*
X047555Y040592D01*
X047567Y040615D01*
X047581Y040637D01*
X047599Y040656D01*
X047618Y040674D01*
X047640Y040688D01*
X047663Y040700D01*
X047688Y040708D01*
X047714Y040713D01*
X047740Y040715D01*
X049040Y040715D01*
X049066Y040713D01*
X049092Y040708D01*
X049117Y040700D01*
X049140Y040688D01*
X049162Y040674D01*
X049181Y040656D01*
X049199Y040637D01*
X049213Y040615D01*
X049225Y040592D01*
X049233Y040567D01*
X049238Y040541D01*
X049240Y040515D01*
X049040Y039140D02*
X048290Y039140D01*
X048288Y039101D01*
X048282Y039062D01*
X048273Y039024D01*
X048260Y038987D01*
X048243Y038951D01*
X048223Y038918D01*
X048199Y038886D01*
X048173Y038857D01*
X048144Y038831D01*
X048112Y038807D01*
X048079Y038787D01*
X048043Y038770D01*
X048006Y038757D01*
X047968Y038748D01*
X047929Y038742D01*
X047890Y038740D01*
X047851Y038742D01*
X047812Y038748D01*
X047774Y038757D01*
X047737Y038770D01*
X047701Y038787D01*
X047668Y038807D01*
X047636Y038831D01*
X047607Y038857D01*
X047581Y038886D01*
X047557Y038918D01*
X047537Y038951D01*
X047520Y038987D01*
X047507Y039024D01*
X047498Y039062D01*
X047492Y039101D01*
X047490Y039140D01*
X046740Y039140D02*
X046740Y029140D01*
X049040Y029140D01*
X049040Y039140D01*
X047740Y039815D02*
X047714Y039817D01*
X047688Y039822D01*
X047663Y039830D01*
X047640Y039842D01*
X047618Y039856D01*
X047599Y039874D01*
X047581Y039893D01*
X047567Y039915D01*
X047555Y039938D01*
X047547Y039963D01*
X047542Y039989D01*
X047540Y040015D01*
X047790Y037846D02*
X048190Y037846D01*
X047790Y037580D01*
X048190Y037580D01*
X048123Y037386D02*
X048190Y037319D01*
X048190Y037186D01*
X048123Y037119D01*
X047990Y037253D02*
X047990Y037319D01*
X048057Y037386D01*
X048123Y037386D01*
X047990Y037319D02*
X047923Y037386D01*
X047856Y037386D01*
X047790Y037319D01*
X047790Y037186D01*
X047856Y037119D01*
X047856Y036926D02*
X048123Y036659D01*
X048190Y036659D01*
X048190Y036465D02*
X048190Y036198D01*
X047923Y036465D01*
X047856Y036465D01*
X047790Y036399D01*
X047790Y036265D01*
X047856Y036198D01*
X047856Y036005D02*
X047790Y035938D01*
X047790Y035805D01*
X047856Y035738D01*
X047923Y035738D01*
X047990Y035805D01*
X047990Y035938D01*
X048057Y036005D01*
X048123Y036005D01*
X048190Y035938D01*
X048190Y035805D01*
X048123Y035738D01*
X048190Y035545D02*
X048190Y035278D01*
X047790Y035278D01*
X047790Y035017D02*
X047990Y034817D01*
X047990Y035084D01*
X048190Y035017D02*
X047790Y035017D01*
X047790Y034624D02*
X047856Y034624D01*
X048123Y034357D01*
X048190Y034357D01*
X047790Y034357D02*
X047790Y034624D01*
X047790Y036659D02*
X047790Y036926D01*
X047856Y036926D01*
X058765Y036890D02*
X058765Y037390D01*
X059015Y037640D01*
X060515Y037640D01*
X060765Y037390D01*
X060765Y036890D01*
X060515Y036640D01*
X059015Y036640D01*
X058765Y036390D01*
X058765Y035890D01*
X059015Y035640D01*
X060515Y035640D01*
X060765Y035390D01*
X060765Y034890D01*
X060515Y034640D01*
X059015Y034640D01*
X058765Y034390D01*
X058765Y033890D01*
X059015Y033640D01*
X060515Y033640D01*
X060765Y033390D01*
X060765Y032890D01*
X060515Y032640D01*
X059015Y032640D01*
X058765Y032390D01*
X058765Y031890D01*
X059015Y031640D01*
X060515Y031640D01*
X060765Y031390D01*
X060765Y030890D01*
X060515Y030640D01*
X060765Y030390D01*
X060765Y029890D01*
X060515Y029640D01*
X059015Y029640D01*
X058765Y029890D01*
X058765Y030390D01*
X059015Y030640D01*
X060515Y030640D01*
X059015Y030640D02*
X058765Y030890D01*
X058765Y031390D01*
X059015Y031640D01*
X059015Y032640D02*
X058765Y032890D01*
X058765Y033390D01*
X059015Y033640D01*
X059015Y034640D02*
X058765Y034890D01*
X058765Y035390D01*
X059015Y035640D01*
X059015Y036640D02*
X058765Y036890D01*
X060515Y036640D02*
X060765Y036390D01*
X060765Y035890D01*
X060515Y035640D01*
X061398Y036309D02*
X061465Y036376D01*
X061465Y036442D01*
X061398Y036509D01*
X061065Y036509D01*
X061065Y036442D02*
X061065Y036576D01*
X061065Y036769D02*
X061065Y036969D01*
X061131Y037036D01*
X061265Y037036D01*
X061332Y036969D01*
X061332Y036769D01*
X061465Y036769D02*
X061065Y036769D01*
X061198Y037230D02*
X061065Y037363D01*
X061465Y037363D01*
X061465Y037230D02*
X061465Y037496D01*
X062490Y037440D02*
X062490Y028840D01*
X062540Y028790D02*
X062540Y029490D01*
X063240Y029490D01*
X063240Y028790D01*
X062540Y028790D01*
X062490Y028840D02*
X062492Y028814D01*
X062497Y028788D01*
X062505Y028763D01*
X062517Y028740D01*
X062531Y028718D01*
X062549Y028699D01*
X062568Y028681D01*
X062590Y028667D01*
X062613Y028655D01*
X062638Y028647D01*
X062664Y028642D01*
X062690Y028640D01*
X063090Y028640D01*
X063040Y028483D02*
X063040Y028290D01*
X063040Y028387D02*
X062750Y028387D01*
X062847Y028290D01*
X062340Y028690D02*
X061940Y028690D01*
X061940Y028890D01*
X062006Y028957D01*
X062140Y028957D01*
X062207Y028890D01*
X062207Y028690D01*
X062207Y028823D02*
X062340Y028957D01*
X062340Y029150D02*
X061940Y029150D01*
X062340Y029417D01*
X061940Y029417D01*
X062073Y029611D02*
X061940Y029744D01*
X062340Y029744D01*
X062340Y029611D02*
X062340Y029878D01*
X063290Y028840D02*
X063288Y028814D01*
X063283Y028788D01*
X063275Y028763D01*
X063263Y028740D01*
X063249Y028718D01*
X063231Y028699D01*
X063212Y028681D01*
X063190Y028667D01*
X063167Y028655D01*
X063142Y028647D01*
X063116Y028642D01*
X063090Y028640D01*
X063290Y028840D02*
X063290Y037440D01*
X063288Y037466D01*
X063283Y037492D01*
X063275Y037517D01*
X063263Y037540D01*
X063249Y037562D01*
X063231Y037581D01*
X063212Y037599D01*
X063190Y037613D01*
X063167Y037625D01*
X063142Y037633D01*
X063116Y037638D01*
X063090Y037640D01*
X062690Y037640D01*
X062664Y037638D01*
X062638Y037633D01*
X062613Y037625D01*
X062590Y037613D01*
X062568Y037599D01*
X062549Y037581D01*
X062531Y037562D01*
X062517Y037540D01*
X062505Y037517D01*
X062497Y037492D01*
X062492Y037466D01*
X062490Y037440D01*
X060515Y039640D02*
X060015Y039640D01*
X059765Y039890D01*
X059765Y041390D01*
X060015Y041640D01*
X060515Y041640D01*
X060765Y041390D01*
X060765Y039890D01*
X060515Y039640D01*
X059765Y039890D02*
X059515Y039640D01*
X059015Y039640D01*
X058765Y039890D01*
X058765Y041390D01*
X059015Y041640D01*
X059515Y041640D01*
X059765Y041390D01*
X059736Y041940D02*
X059936Y041940D01*
X060003Y042007D01*
X060003Y042274D01*
X059936Y042340D01*
X059736Y042340D01*
X059736Y041940D01*
X059542Y041940D02*
X059542Y042340D01*
X059275Y042340D02*
X059542Y041940D01*
X059275Y041940D02*
X059275Y042340D01*
X059082Y042274D02*
X059015Y042340D01*
X058882Y042340D01*
X058815Y042274D01*
X058815Y042007D01*
X058882Y041940D01*
X059015Y041940D01*
X059082Y042007D01*
X059082Y042140D01*
X058948Y042140D01*
X060196Y042207D02*
X060330Y042340D01*
X060330Y041940D01*
X060463Y041940D02*
X060196Y041940D01*
X060515Y034640D02*
X060765Y034390D01*
X060765Y033890D01*
X060515Y033640D01*
X060515Y032640D02*
X060765Y032390D01*
X060765Y031890D01*
X060515Y031640D01*
X064015Y028015D02*
X063765Y027765D01*
X063765Y027265D01*
X064015Y027015D01*
X063765Y026765D01*
X063765Y026265D01*
X064015Y026015D01*
X064515Y026015D01*
X064765Y026265D01*
X064765Y026765D01*
X064515Y027015D01*
X064015Y027015D01*
X064515Y027015D02*
X064765Y027265D01*
X064765Y027765D01*
X064515Y028015D01*
X064015Y028015D01*
X065035Y027901D02*
X065035Y027635D01*
X065101Y027441D02*
X065235Y027441D01*
X065302Y027374D01*
X065302Y027174D01*
X065435Y027174D02*
X065035Y027174D01*
X065035Y027374D01*
X065101Y027441D01*
X065368Y027635D02*
X065101Y027901D01*
X065035Y027901D01*
X065368Y027635D02*
X065435Y027635D01*
X065368Y026914D02*
X065035Y026914D01*
X065035Y026847D02*
X065035Y026981D01*
X065368Y026914D02*
X065435Y026847D01*
X065435Y026781D01*
X065368Y026714D01*
X064515Y026015D02*
X064765Y025765D01*
X064765Y025265D01*
X064515Y025015D01*
X064765Y024765D01*
X064765Y024265D01*
X064515Y024015D01*
X064765Y023765D01*
X064765Y023265D01*
X064515Y023015D01*
X064015Y023015D01*
X063765Y023265D01*
X063765Y023765D01*
X064015Y024015D01*
X063765Y024265D01*
X063765Y024765D01*
X064015Y025015D01*
X063765Y025265D01*
X063765Y025765D01*
X064015Y026015D01*
X064015Y025015D02*
X064515Y025015D01*
X064515Y024015D02*
X064015Y024015D01*
X064015Y023015D02*
X063765Y022765D01*
X063765Y022265D01*
X064015Y022015D01*
X063765Y021765D01*
X063765Y021265D01*
X064015Y021015D01*
X063765Y020765D01*
X063765Y020265D01*
X064015Y020015D01*
X063765Y019765D01*
X063765Y019265D01*
X064015Y019015D01*
X064515Y019015D01*
X064765Y019265D01*
X064765Y019765D01*
X064515Y020015D01*
X064015Y020015D01*
X064515Y020015D02*
X064765Y020265D01*
X064765Y020765D01*
X064515Y021015D01*
X064015Y021015D01*
X064515Y021015D02*
X064765Y021265D01*
X064765Y021765D01*
X064515Y022015D01*
X064015Y022015D01*
X064515Y022015D02*
X064765Y022265D01*
X064765Y022765D01*
X064515Y023015D01*
X061390Y021540D02*
X061390Y019240D01*
X053390Y019240D01*
X053390Y019990D01*
X053190Y020057D02*
X053190Y020324D01*
X053190Y020191D02*
X052790Y020191D01*
X052923Y020057D01*
X052856Y019864D02*
X052790Y019797D01*
X052790Y019664D01*
X052856Y019597D01*
X053123Y019597D01*
X053190Y019664D01*
X053190Y019797D01*
X053123Y019864D01*
X053190Y019423D02*
X053190Y019290D01*
X053190Y019357D02*
X052790Y019357D01*
X052790Y019423D02*
X052790Y019290D01*
X054490Y020190D02*
X054490Y020257D01*
X054757Y020524D01*
X054757Y020590D01*
X054490Y020590D01*
X054950Y020390D02*
X055217Y020390D01*
X055151Y020190D02*
X055151Y020590D01*
X054950Y020390D01*
X055411Y020190D02*
X055678Y020190D01*
X055871Y020257D02*
X055938Y020190D01*
X056071Y020190D01*
X056138Y020257D01*
X056138Y020323D01*
X056071Y020390D01*
X055938Y020390D01*
X055871Y020457D01*
X055871Y020524D01*
X055938Y020590D01*
X056071Y020590D01*
X056138Y020524D01*
X056332Y020457D02*
X056465Y020590D01*
X056465Y020190D01*
X056332Y020190D02*
X056598Y020190D01*
X056792Y020257D02*
X056859Y020190D01*
X056992Y020190D01*
X057059Y020257D01*
X057059Y020390D01*
X056992Y020457D01*
X056925Y020457D01*
X056792Y020390D01*
X056792Y020590D01*
X057059Y020590D01*
X057252Y020590D02*
X057519Y020590D01*
X057519Y020524D01*
X057252Y020257D01*
X057252Y020190D01*
X057713Y020190D02*
X057713Y020590D01*
X057980Y020190D01*
X057980Y020590D01*
X055411Y020590D02*
X055411Y020190D01*
X053390Y019990D02*
X053429Y019992D01*
X053468Y019998D01*
X053506Y020007D01*
X053543Y020020D01*
X053579Y020037D01*
X053612Y020057D01*
X053644Y020081D01*
X053673Y020107D01*
X053699Y020136D01*
X053723Y020168D01*
X053743Y020201D01*
X053760Y020237D01*
X053773Y020274D01*
X053782Y020312D01*
X053788Y020351D01*
X053790Y020390D01*
X053788Y020429D01*
X053782Y020468D01*
X053773Y020506D01*
X053760Y020543D01*
X053743Y020579D01*
X053723Y020612D01*
X053699Y020644D01*
X053673Y020673D01*
X053644Y020699D01*
X053612Y020723D01*
X053579Y020743D01*
X053543Y020760D01*
X053506Y020773D01*
X053468Y020782D01*
X053429Y020788D01*
X053390Y020790D01*
X053390Y021540D01*
X061390Y021540D01*
X061390Y024740D02*
X061390Y027040D01*
X053390Y027040D01*
X053390Y026290D01*
X053429Y026288D01*
X053468Y026282D01*
X053506Y026273D01*
X053543Y026260D01*
X053579Y026243D01*
X053612Y026223D01*
X053644Y026199D01*
X053673Y026173D01*
X053699Y026144D01*
X053723Y026112D01*
X053743Y026079D01*
X053760Y026043D01*
X053773Y026006D01*
X053782Y025968D01*
X053788Y025929D01*
X053790Y025890D01*
X053788Y025851D01*
X053782Y025812D01*
X053773Y025774D01*
X053760Y025737D01*
X053743Y025701D01*
X053723Y025668D01*
X053699Y025636D01*
X053673Y025607D01*
X053644Y025581D01*
X053612Y025557D01*
X053579Y025537D01*
X053543Y025520D01*
X053506Y025507D01*
X053468Y025498D01*
X053429Y025492D01*
X053390Y025490D01*
X053390Y024740D01*
X061390Y024740D01*
X057980Y025690D02*
X057980Y026090D01*
X057713Y026090D02*
X057980Y025690D01*
X057713Y025690D02*
X057713Y026090D01*
X057519Y026090D02*
X057519Y026024D01*
X057252Y025757D01*
X057252Y025690D01*
X057059Y025757D02*
X056992Y025690D01*
X056859Y025690D01*
X056792Y025757D01*
X056792Y025890D02*
X056925Y025957D01*
X056992Y025957D01*
X057059Y025890D01*
X057059Y025757D01*
X056792Y025890D02*
X056792Y026090D01*
X057059Y026090D01*
X057252Y026090D02*
X057519Y026090D01*
X056598Y025690D02*
X056332Y025690D01*
X056465Y025690D02*
X056465Y026090D01*
X056332Y025957D01*
X056138Y026024D02*
X056071Y026090D01*
X055938Y026090D01*
X055871Y026024D01*
X055871Y025957D01*
X055938Y025890D01*
X056071Y025890D01*
X056138Y025823D01*
X056138Y025757D01*
X056071Y025690D01*
X055938Y025690D01*
X055871Y025757D01*
X055678Y025690D02*
X055411Y025690D01*
X055411Y026090D01*
X055151Y026090D02*
X054950Y025890D01*
X055217Y025890D01*
X055151Y025690D02*
X055151Y026090D01*
X054757Y026090D02*
X054757Y026024D01*
X054490Y025757D01*
X054490Y025690D01*
X054490Y026090D02*
X054757Y026090D01*
X053190Y025093D02*
X052790Y025093D01*
X052990Y024893D01*
X052990Y025160D01*
X053190Y024699D02*
X053190Y024432D01*
X053190Y024566D02*
X052790Y024566D01*
X052923Y024432D01*
X052856Y024239D02*
X052790Y024172D01*
X052790Y024039D01*
X052856Y023972D01*
X053123Y023972D01*
X053190Y024039D01*
X053190Y024172D01*
X053123Y024239D01*
X053190Y023798D02*
X053190Y023665D01*
X053190Y023732D02*
X052790Y023732D01*
X052790Y023798D02*
X052790Y023665D01*
X052040Y022340D02*
X050740Y022340D01*
X050714Y022338D01*
X050688Y022333D01*
X050663Y022325D01*
X050640Y022313D01*
X050618Y022299D01*
X050599Y022281D01*
X050581Y022262D01*
X050567Y022240D01*
X050555Y022217D01*
X050547Y022192D01*
X050542Y022166D01*
X050540Y022140D01*
X050890Y021890D02*
X051260Y021890D01*
X051510Y021890D02*
X051890Y021890D01*
X052240Y022140D02*
X052238Y022166D01*
X052233Y022192D01*
X052225Y022217D01*
X052213Y022240D01*
X052199Y022262D01*
X052181Y022281D01*
X052162Y022299D01*
X052140Y022313D01*
X052117Y022325D01*
X052092Y022333D01*
X052066Y022338D01*
X052040Y022340D01*
X052240Y021640D02*
X052238Y021614D01*
X052233Y021588D01*
X052225Y021563D01*
X052213Y021540D01*
X052199Y021518D01*
X052181Y021499D01*
X052162Y021481D01*
X052140Y021467D01*
X052117Y021455D01*
X052092Y021447D01*
X052066Y021442D01*
X052040Y021440D01*
X050740Y021440D01*
X050714Y021442D01*
X050688Y021447D01*
X050663Y021455D01*
X050640Y021467D01*
X050618Y021481D01*
X050599Y021499D01*
X050581Y021518D01*
X050567Y021540D01*
X050555Y021563D01*
X050547Y021588D01*
X050542Y021614D01*
X050540Y021640D01*
X052790Y020718D02*
X052856Y020785D01*
X052923Y020785D01*
X052990Y020718D01*
X053057Y020785D01*
X053123Y020785D01*
X053190Y020718D01*
X053190Y020584D01*
X053123Y020518D01*
X052990Y020651D02*
X052990Y020718D01*
X052790Y020718D02*
X052790Y020584D01*
X052856Y020518D01*
X058765Y017390D02*
X058765Y016890D01*
X059015Y016640D01*
X060515Y016640D01*
X060765Y016390D01*
X060765Y015890D01*
X060515Y015640D01*
X059015Y015640D01*
X058765Y015390D01*
X058765Y014890D01*
X059015Y014640D01*
X060515Y014640D01*
X060765Y014390D01*
X060765Y013890D01*
X060515Y013640D01*
X059015Y013640D01*
X058765Y013390D01*
X058765Y012890D01*
X059015Y012640D01*
X060515Y012640D01*
X060765Y012390D01*
X060765Y011890D01*
X060515Y011640D01*
X059015Y011640D01*
X058765Y011390D01*
X058765Y010890D01*
X059015Y010640D01*
X058765Y010390D01*
X058765Y009890D01*
X059015Y009640D01*
X060515Y009640D01*
X060765Y009890D01*
X060765Y010390D01*
X060515Y010640D01*
X059015Y010640D01*
X059015Y011640D02*
X058765Y011890D01*
X058765Y012390D01*
X059015Y012640D01*
X059015Y013640D02*
X058765Y013890D01*
X058765Y014390D01*
X059015Y014640D01*
X059015Y015640D02*
X058765Y015890D01*
X058765Y016390D01*
X059015Y016640D01*
X058765Y017390D02*
X059015Y017640D01*
X060515Y017640D01*
X060765Y017390D01*
X060765Y016890D01*
X060515Y016640D01*
X061065Y016576D02*
X061065Y016442D01*
X061065Y016509D02*
X061398Y016509D01*
X061465Y016442D01*
X061465Y016376D01*
X061398Y016309D01*
X061332Y016769D02*
X061332Y016969D01*
X061265Y017036D01*
X061131Y017036D01*
X061065Y016969D01*
X061065Y016769D01*
X061465Y016769D01*
X061465Y017230D02*
X061198Y017496D01*
X061131Y017496D01*
X061065Y017430D01*
X061065Y017296D01*
X061131Y017230D01*
X061465Y017230D02*
X061465Y017496D01*
X060515Y015640D02*
X060765Y015390D01*
X060765Y014890D01*
X060515Y014640D01*
X060515Y013640D02*
X060765Y013390D01*
X060765Y012890D01*
X060515Y012640D01*
X060515Y011640D02*
X060765Y011390D01*
X060765Y010890D01*
X060515Y010640D01*
X060330Y008340D02*
X060196Y008207D01*
X060330Y008340D02*
X060330Y007940D01*
X060463Y007940D02*
X060196Y007940D01*
X060003Y008007D02*
X059936Y007940D01*
X059803Y007940D01*
X059736Y008007D01*
X059736Y008274D01*
X059803Y008340D01*
X059936Y008340D01*
X060003Y008274D01*
X059542Y008274D02*
X059476Y008340D01*
X059342Y008340D01*
X059275Y008274D01*
X059275Y008007D01*
X059342Y007940D01*
X059476Y007940D01*
X059542Y008007D01*
X059515Y007640D02*
X059765Y007390D01*
X059765Y005890D01*
X060015Y005640D01*
X060515Y005640D01*
X060765Y005890D01*
X060765Y007390D01*
X060515Y007640D01*
X060015Y007640D01*
X059765Y007390D01*
X059515Y007640D02*
X059015Y007640D01*
X058765Y007390D01*
X058765Y005890D01*
X059015Y005640D01*
X059515Y005640D01*
X059765Y005890D01*
X062040Y006390D02*
X062240Y006390D01*
X062140Y006290D02*
X062140Y006490D01*
X062340Y006540D02*
X062340Y006140D01*
X062340Y005740D01*
X062540Y005740D01*
X062540Y006540D01*
X062340Y006540D01*
X062340Y006140D02*
X062090Y006140D01*
X061510Y005606D02*
X061541Y005544D01*
X061576Y005485D01*
X061613Y005427D01*
X061654Y005372D01*
X061698Y005318D01*
X061745Y005268D01*
X061794Y005220D01*
X061846Y005175D01*
X061900Y005132D01*
X061957Y005093D01*
X062015Y005057D01*
X062076Y005024D01*
X062138Y004995D01*
X062202Y004969D01*
X062267Y004947D01*
X062333Y004928D01*
X062401Y004913D01*
X062468Y004902D01*
X062537Y004894D01*
X062606Y004890D01*
X062674Y004890D01*
X062743Y004894D01*
X062812Y004902D01*
X062879Y004913D01*
X062947Y004928D01*
X063013Y004947D01*
X063078Y004969D01*
X063142Y004995D01*
X063204Y005024D01*
X063265Y005057D01*
X063323Y005093D01*
X063380Y005132D01*
X063434Y005175D01*
X063486Y005220D01*
X063535Y005268D01*
X063582Y005318D01*
X063626Y005372D01*
X063667Y005427D01*
X063704Y005485D01*
X063739Y005544D01*
X063770Y005606D01*
X064023Y005440D02*
X064023Y005040D01*
X063890Y005040D02*
X064157Y005040D01*
X064350Y005107D02*
X064617Y005374D01*
X064617Y005107D01*
X064551Y005040D01*
X064417Y005040D01*
X064350Y005107D01*
X064350Y005374D01*
X064417Y005440D01*
X064551Y005440D01*
X064617Y005374D01*
X064811Y005307D02*
X064811Y005107D01*
X064878Y005040D01*
X065078Y005040D01*
X065078Y005307D01*
X064023Y005440D02*
X063890Y005307D01*
X063190Y006140D02*
X062890Y006140D01*
X063770Y006674D02*
X063739Y006736D01*
X063704Y006795D01*
X063667Y006853D01*
X063626Y006908D01*
X063582Y006962D01*
X063535Y007012D01*
X063486Y007060D01*
X063434Y007105D01*
X063380Y007148D01*
X063323Y007187D01*
X063265Y007223D01*
X063204Y007256D01*
X063142Y007285D01*
X063078Y007311D01*
X063013Y007333D01*
X062947Y007352D01*
X062879Y007367D01*
X062812Y007378D01*
X062743Y007386D01*
X062674Y007390D01*
X062606Y007390D01*
X062537Y007386D01*
X062468Y007378D01*
X062401Y007367D01*
X062333Y007352D01*
X062267Y007333D01*
X062202Y007311D01*
X062138Y007285D01*
X062076Y007256D01*
X062015Y007223D01*
X061957Y007187D01*
X061900Y007148D01*
X061846Y007105D01*
X061794Y007060D01*
X061745Y007012D01*
X061698Y006962D01*
X061654Y006908D01*
X061613Y006853D01*
X061576Y006795D01*
X061541Y006736D01*
X061510Y006674D01*
X059082Y008073D02*
X059082Y008340D01*
X059082Y008073D02*
X058948Y007940D01*
X058815Y008073D01*
X058815Y008340D01*
X054390Y007390D02*
X054390Y005890D01*
X054140Y005640D01*
X053640Y005640D01*
X053390Y005890D01*
X053390Y007390D01*
X053140Y007640D01*
X052640Y007640D01*
X052390Y007390D01*
X052390Y005890D01*
X052140Y005640D01*
X051640Y005640D01*
X051390Y005890D01*
X051390Y007390D01*
X051140Y007640D01*
X050640Y007640D01*
X050390Y007390D01*
X050390Y005890D01*
X050140Y005640D01*
X049640Y005640D01*
X049390Y005890D01*
X049390Y007390D01*
X049140Y007640D01*
X048640Y007640D01*
X048390Y007390D01*
X048390Y005890D01*
X048140Y005640D01*
X047640Y005640D01*
X047390Y005890D01*
X047390Y007390D01*
X047640Y007640D01*
X048140Y007640D01*
X048390Y007390D01*
X049390Y007390D02*
X049640Y007640D01*
X050140Y007640D01*
X050390Y007390D01*
X051390Y007390D02*
X051640Y007640D01*
X052140Y007640D01*
X052390Y007390D01*
X053390Y007390D02*
X053640Y007640D01*
X054140Y007640D01*
X054390Y007390D01*
X053390Y005890D02*
X053140Y005640D01*
X052640Y005640D01*
X052390Y005890D01*
X052732Y005340D02*
X052865Y005340D01*
X052799Y005340D02*
X052799Y005007D01*
X052732Y004940D01*
X052665Y004940D01*
X052598Y005007D01*
X053059Y005073D02*
X053259Y005073D01*
X053326Y005140D01*
X053326Y005274D01*
X053259Y005340D01*
X053059Y005340D01*
X053059Y004940D01*
X053519Y004940D02*
X053786Y004940D01*
X053653Y004940D02*
X053653Y005340D01*
X053519Y005207D01*
X053980Y005274D02*
X053980Y005007D01*
X054246Y005274D01*
X054246Y005007D01*
X054180Y004940D01*
X054046Y004940D01*
X053980Y005007D01*
X053980Y005274D02*
X054046Y005340D01*
X054180Y005340D01*
X054246Y005274D01*
X051390Y005890D02*
X051140Y005640D01*
X050640Y005640D01*
X050390Y005890D01*
X049390Y005890D02*
X049140Y005640D01*
X048640Y005640D01*
X048390Y005890D01*
X047390Y005890D02*
X047140Y005640D01*
X046640Y005640D01*
X046390Y005890D01*
X046390Y007390D01*
X046640Y007640D01*
X047140Y007640D01*
X047390Y007390D01*
X046390Y007390D02*
X046140Y007640D01*
X045640Y007640D01*
X045390Y007390D01*
X045390Y005890D01*
X045140Y005640D01*
X044640Y005640D01*
X044390Y005890D01*
X044390Y007390D01*
X044640Y007640D01*
X045140Y007640D01*
X045390Y007390D01*
X044390Y007390D02*
X044140Y007640D01*
X043640Y007640D01*
X043390Y007390D01*
X043390Y005890D01*
X043140Y005640D01*
X042640Y005640D01*
X042390Y005890D01*
X042390Y007390D01*
X042640Y007640D01*
X043140Y007640D01*
X043390Y007390D01*
X042390Y007390D02*
X042140Y007640D01*
X041640Y007640D01*
X041390Y007390D01*
X041390Y005890D01*
X041140Y005640D01*
X040640Y005640D01*
X040390Y005890D01*
X040390Y007390D01*
X040640Y007640D01*
X041140Y007640D01*
X041390Y007390D01*
X040390Y007390D02*
X040140Y007640D01*
X039640Y007640D01*
X039390Y007390D01*
X039390Y005890D01*
X039140Y005640D01*
X038640Y005640D01*
X038390Y005890D01*
X038390Y007390D01*
X038640Y007640D01*
X039140Y007640D01*
X039390Y007390D01*
X039390Y005890D02*
X039640Y005640D01*
X040140Y005640D01*
X040390Y005890D01*
X041390Y005890D02*
X041640Y005640D01*
X042140Y005640D01*
X042390Y005890D01*
X043390Y005890D02*
X043640Y005640D01*
X044140Y005640D01*
X044390Y005890D01*
X045390Y005890D02*
X045640Y005640D01*
X046140Y005640D01*
X046390Y005890D01*
X047390Y011740D02*
X047390Y014040D01*
X054390Y014040D01*
X054390Y013290D01*
X054590Y013537D02*
X054590Y013671D01*
X054590Y013604D02*
X054990Y013604D01*
X054990Y013537D02*
X054990Y013671D01*
X054923Y013844D02*
X054990Y013911D01*
X054990Y014044D01*
X054923Y014111D01*
X054790Y014305D02*
X054590Y014505D01*
X054990Y014505D01*
X054790Y014571D02*
X054790Y014305D01*
X054656Y014111D02*
X054590Y014044D01*
X054590Y013911D01*
X054656Y013844D01*
X054923Y013844D01*
X054940Y013040D02*
X054940Y011740D01*
X054942Y011714D01*
X054947Y011688D01*
X054955Y011663D01*
X054967Y011640D01*
X054981Y011618D01*
X054999Y011599D01*
X055018Y011581D01*
X055040Y011567D01*
X055063Y011555D01*
X055088Y011547D01*
X055114Y011542D01*
X055140Y011540D01*
X055390Y011890D02*
X055390Y012270D01*
X055390Y012520D02*
X055390Y012890D01*
X055640Y013240D02*
X055666Y013238D01*
X055692Y013233D01*
X055717Y013225D01*
X055740Y013213D01*
X055762Y013199D01*
X055781Y013181D01*
X055799Y013162D01*
X055813Y013140D01*
X055825Y013117D01*
X055833Y013092D01*
X055838Y013066D01*
X055840Y013040D01*
X055840Y011740D01*
X055838Y011714D01*
X055833Y011688D01*
X055825Y011663D01*
X055813Y011640D01*
X055799Y011618D01*
X055781Y011599D01*
X055762Y011581D01*
X055740Y011567D01*
X055717Y011555D01*
X055692Y011547D01*
X055666Y011542D01*
X055640Y011540D01*
X054390Y011740D02*
X054390Y012490D01*
X054351Y012492D01*
X054312Y012498D01*
X054274Y012507D01*
X054237Y012520D01*
X054201Y012537D01*
X054168Y012557D01*
X054136Y012581D01*
X054107Y012607D01*
X054081Y012636D01*
X054057Y012668D01*
X054037Y012701D01*
X054020Y012737D01*
X054007Y012774D01*
X053998Y012812D01*
X053992Y012851D01*
X053990Y012890D01*
X053992Y012929D01*
X053998Y012968D01*
X054007Y013006D01*
X054020Y013043D01*
X054037Y013079D01*
X054057Y013112D01*
X054081Y013144D01*
X054107Y013173D01*
X054136Y013199D01*
X054168Y013223D01*
X054201Y013243D01*
X054237Y013260D01*
X054274Y013273D01*
X054312Y013282D01*
X054351Y013288D01*
X054390Y013290D01*
X054940Y013040D02*
X054942Y013066D01*
X054947Y013092D01*
X054955Y013117D01*
X054967Y013140D01*
X054981Y013162D01*
X054999Y013181D01*
X055018Y013199D01*
X055040Y013213D01*
X055063Y013225D01*
X055088Y013233D01*
X055114Y013238D01*
X055140Y013240D01*
X053396Y013090D02*
X053396Y012690D01*
X053130Y013090D01*
X053130Y012690D01*
X052936Y012757D02*
X052869Y012690D01*
X052736Y012690D01*
X052669Y012757D01*
X052936Y013024D01*
X052936Y012757D01*
X052936Y013024D02*
X052869Y013090D01*
X052736Y013090D01*
X052669Y013024D01*
X052669Y012757D01*
X052476Y012757D02*
X052409Y012690D01*
X052276Y012690D01*
X052209Y012757D01*
X052476Y013024D01*
X052476Y012757D01*
X052476Y013024D02*
X052409Y013090D01*
X052276Y013090D01*
X052209Y013024D01*
X052209Y012757D01*
X052015Y012757D02*
X051949Y012690D01*
X051815Y012690D01*
X051748Y012757D01*
X051815Y012890D02*
X051748Y012957D01*
X051748Y013024D01*
X051815Y013090D01*
X051949Y013090D01*
X052015Y013024D01*
X051949Y012890D02*
X052015Y012823D01*
X052015Y012757D01*
X051949Y012890D02*
X051815Y012890D01*
X051555Y012690D02*
X051288Y012690D01*
X051288Y013090D01*
X051028Y013090D02*
X051028Y012690D01*
X051095Y012890D02*
X050828Y012890D01*
X051028Y013090D01*
X050634Y013090D02*
X050634Y013024D01*
X050367Y012757D01*
X050367Y012690D01*
X050367Y013090D02*
X050634Y013090D01*
X047390Y011740D02*
X054390Y011740D01*
X043890Y011740D02*
X043890Y014040D01*
X036890Y014040D01*
X036890Y013290D01*
X036929Y013288D01*
X036968Y013282D01*
X037006Y013273D01*
X037043Y013260D01*
X037079Y013243D01*
X037112Y013223D01*
X037144Y013199D01*
X037173Y013173D01*
X037199Y013144D01*
X037223Y013112D01*
X037243Y013079D01*
X037260Y013043D01*
X037273Y013006D01*
X037282Y012968D01*
X037288Y012929D01*
X037290Y012890D01*
X037288Y012851D01*
X037282Y012812D01*
X037273Y012774D01*
X037260Y012737D01*
X037243Y012701D01*
X037223Y012668D01*
X037199Y012636D01*
X037173Y012607D01*
X037144Y012581D01*
X037112Y012557D01*
X037079Y012537D01*
X037043Y012520D01*
X037006Y012507D01*
X036968Y012498D01*
X036929Y012492D01*
X036890Y012490D01*
X036890Y011740D01*
X043890Y011740D01*
X040359Y012690D02*
X040359Y013090D01*
X040092Y013090D02*
X040359Y012690D01*
X040092Y012690D02*
X040092Y013090D01*
X039898Y013024D02*
X039832Y013090D01*
X039698Y013090D01*
X039632Y013024D01*
X039438Y013024D02*
X039438Y012957D01*
X039371Y012890D01*
X039438Y012823D01*
X039438Y012757D01*
X039371Y012690D01*
X039238Y012690D01*
X039171Y012757D01*
X039305Y012890D02*
X039371Y012890D01*
X039438Y013024D02*
X039371Y013090D01*
X039238Y013090D01*
X039171Y013024D01*
X038978Y013024D02*
X038911Y013090D01*
X038778Y013090D01*
X038711Y013024D01*
X038711Y012957D01*
X038778Y012890D01*
X038911Y012890D01*
X038978Y012823D01*
X038978Y012757D01*
X038911Y012690D01*
X038778Y012690D01*
X038711Y012757D01*
X038517Y012890D02*
X038250Y012890D01*
X038451Y013090D01*
X038451Y012690D01*
X038057Y013024D02*
X037790Y012757D01*
X037790Y012690D01*
X037790Y013090D02*
X038057Y013090D01*
X038057Y013024D01*
X039632Y012690D02*
X039898Y012957D01*
X039898Y013024D01*
X039898Y012690D02*
X039632Y012690D01*
X036690Y011707D02*
X036623Y011774D01*
X036356Y011774D01*
X036290Y011707D01*
X036290Y011574D01*
X036356Y011507D01*
X036423Y011507D01*
X036490Y011574D01*
X036490Y011774D01*
X036690Y011707D02*
X036690Y011574D01*
X036623Y011507D01*
X036623Y011314D02*
X036690Y011247D01*
X036690Y011114D01*
X036623Y011047D01*
X036356Y011047D01*
X036290Y011114D01*
X036290Y011247D01*
X036356Y011314D01*
X036290Y010873D02*
X036290Y010740D01*
X036290Y010807D02*
X036690Y010807D01*
X036690Y010873D02*
X036690Y010740D01*
X036340Y012240D02*
X036340Y013540D01*
X036338Y013566D01*
X036333Y013592D01*
X036325Y013617D01*
X036313Y013640D01*
X036299Y013662D01*
X036281Y013681D01*
X036262Y013699D01*
X036240Y013713D01*
X036217Y013725D01*
X036192Y013733D01*
X036166Y013738D01*
X036140Y013740D01*
X035890Y013390D02*
X035890Y013010D01*
X035890Y012760D02*
X035890Y012390D01*
X035640Y012040D02*
X035614Y012042D01*
X035588Y012047D01*
X035563Y012055D01*
X035540Y012067D01*
X035518Y012081D01*
X035499Y012099D01*
X035481Y012118D01*
X035467Y012140D01*
X035455Y012163D01*
X035447Y012188D01*
X035442Y012214D01*
X035440Y012240D01*
X035440Y013540D01*
X035442Y013566D01*
X035447Y013592D01*
X035455Y013617D01*
X035467Y013640D01*
X035481Y013662D01*
X035499Y013681D01*
X035518Y013699D01*
X035540Y013713D01*
X035563Y013725D01*
X035588Y013733D01*
X035614Y013738D01*
X035640Y013740D01*
X036340Y012240D02*
X036338Y012214D01*
X036333Y012188D01*
X036325Y012163D01*
X036313Y012140D01*
X036299Y012118D01*
X036281Y012099D01*
X036262Y012081D01*
X036240Y012067D01*
X036217Y012055D01*
X036192Y012047D01*
X036166Y012042D01*
X036140Y012040D01*
X031840Y011740D02*
X031840Y013040D01*
X031838Y013066D01*
X031833Y013092D01*
X031825Y013117D01*
X031813Y013140D01*
X031799Y013162D01*
X031781Y013181D01*
X031762Y013199D01*
X031740Y013213D01*
X031717Y013225D01*
X031692Y013233D01*
X031666Y013238D01*
X031640Y013240D01*
X031390Y012890D02*
X031390Y012520D01*
X031390Y012270D02*
X031390Y011890D01*
X031140Y011540D02*
X031114Y011542D01*
X031088Y011547D01*
X031063Y011555D01*
X031040Y011567D01*
X031018Y011581D01*
X030999Y011599D01*
X030981Y011618D01*
X030967Y011640D01*
X030955Y011663D01*
X030947Y011688D01*
X030942Y011714D01*
X030940Y011740D01*
X030940Y013040D01*
X030942Y013066D01*
X030947Y013092D01*
X030955Y013117D01*
X030967Y013140D01*
X030981Y013162D01*
X030999Y013181D01*
X031018Y013199D01*
X031040Y013213D01*
X031063Y013225D01*
X031088Y013233D01*
X031114Y013238D01*
X031140Y013240D01*
X030990Y013537D02*
X030990Y013671D01*
X030990Y013604D02*
X030590Y013604D01*
X030590Y013537D02*
X030590Y013671D01*
X030656Y013844D02*
X030923Y013844D01*
X030990Y013911D01*
X030990Y014044D01*
X030923Y014111D01*
X030990Y014305D02*
X030990Y014571D01*
X030990Y014438D02*
X030590Y014438D01*
X030723Y014305D01*
X030656Y014111D02*
X030590Y014044D01*
X030590Y013911D01*
X030656Y013844D01*
X030390Y014040D02*
X030390Y013290D01*
X030351Y013288D01*
X030312Y013282D01*
X030274Y013273D01*
X030237Y013260D01*
X030201Y013243D01*
X030168Y013223D01*
X030136Y013199D01*
X030107Y013173D01*
X030081Y013144D01*
X030057Y013112D01*
X030037Y013079D01*
X030020Y013043D01*
X030007Y013006D01*
X029998Y012968D01*
X029992Y012929D01*
X029990Y012890D01*
X029992Y012851D01*
X029998Y012812D01*
X030007Y012774D01*
X030020Y012737D01*
X030037Y012701D01*
X030057Y012668D01*
X030081Y012636D01*
X030107Y012607D01*
X030136Y012581D01*
X030168Y012557D01*
X030201Y012537D01*
X030237Y012520D01*
X030274Y012507D01*
X030312Y012498D01*
X030351Y012492D01*
X030390Y012490D01*
X030390Y011740D01*
X023390Y011740D01*
X023390Y014040D01*
X030390Y014040D01*
X029396Y013090D02*
X029396Y012690D01*
X029130Y013090D01*
X029130Y012690D01*
X028936Y012757D02*
X028869Y012690D01*
X028736Y012690D01*
X028669Y012757D01*
X028669Y012823D01*
X028736Y012890D01*
X028869Y012890D01*
X028936Y012823D01*
X028936Y012757D01*
X028869Y012890D02*
X028936Y012957D01*
X028936Y013024D01*
X028869Y013090D01*
X028736Y013090D01*
X028669Y013024D01*
X028669Y012957D01*
X028736Y012890D01*
X028476Y012757D02*
X028409Y012690D01*
X028276Y012690D01*
X028209Y012757D01*
X028476Y013024D01*
X028476Y012757D01*
X028476Y013024D02*
X028409Y013090D01*
X028276Y013090D01*
X028209Y013024D01*
X028209Y012757D01*
X028015Y012757D02*
X027949Y012690D01*
X027815Y012690D01*
X027748Y012757D01*
X027815Y012890D02*
X027949Y012890D01*
X028015Y012823D01*
X028015Y012757D01*
X027815Y012890D02*
X027748Y012957D01*
X027748Y013024D01*
X027815Y013090D01*
X027949Y013090D01*
X028015Y013024D01*
X027555Y012690D02*
X027288Y012690D01*
X027288Y013090D01*
X027028Y013090D02*
X026828Y012890D01*
X027095Y012890D01*
X027028Y012690D02*
X027028Y013090D01*
X026634Y013090D02*
X026634Y013024D01*
X026367Y012757D01*
X026367Y012690D01*
X026367Y013090D02*
X026634Y013090D01*
X031640Y011540D02*
X031666Y011542D01*
X031692Y011547D01*
X031717Y011555D01*
X031740Y011567D01*
X031762Y011581D01*
X031781Y011599D01*
X031799Y011618D01*
X031813Y011640D01*
X031825Y011663D01*
X031833Y011688D01*
X031838Y011714D01*
X031840Y011740D01*
X029390Y018740D02*
X021390Y018740D01*
X021390Y019490D01*
X021429Y019492D01*
X021468Y019498D01*
X021506Y019507D01*
X021543Y019520D01*
X021579Y019537D01*
X021612Y019557D01*
X021644Y019581D01*
X021673Y019607D01*
X021699Y019636D01*
X021723Y019668D01*
X021743Y019701D01*
X021760Y019737D01*
X021773Y019774D01*
X021782Y019812D01*
X021788Y019851D01*
X021790Y019890D01*
X021788Y019929D01*
X021782Y019968D01*
X021773Y020006D01*
X021760Y020043D01*
X021743Y020079D01*
X021723Y020112D01*
X021699Y020144D01*
X021673Y020173D01*
X021644Y020199D01*
X021612Y020223D01*
X021579Y020243D01*
X021543Y020260D01*
X021506Y020273D01*
X021468Y020282D01*
X021429Y020288D01*
X021390Y020290D01*
X021390Y021040D01*
X029390Y021040D01*
X029390Y018740D01*
X025980Y019690D02*
X025980Y020090D01*
X025713Y020090D02*
X025980Y019690D01*
X025713Y019690D02*
X025713Y020090D01*
X025519Y020024D02*
X025519Y019957D01*
X025453Y019890D01*
X025319Y019890D01*
X025252Y019957D01*
X025252Y020024D01*
X025319Y020090D01*
X025453Y020090D01*
X025519Y020024D01*
X025453Y019890D02*
X025519Y019823D01*
X025519Y019757D01*
X025453Y019690D01*
X025319Y019690D01*
X025252Y019757D01*
X025252Y019823D01*
X025319Y019890D01*
X025059Y019890D02*
X024792Y019890D01*
X024992Y020090D01*
X024992Y019690D01*
X024598Y019690D02*
X024332Y019690D01*
X024465Y019690D02*
X024465Y020090D01*
X024332Y019957D01*
X024138Y020024D02*
X024071Y020090D01*
X023938Y020090D01*
X023871Y020024D01*
X023871Y019957D01*
X023938Y019890D01*
X024071Y019890D01*
X024138Y019823D01*
X024138Y019757D01*
X024071Y019690D01*
X023938Y019690D01*
X023871Y019757D01*
X023678Y019690D02*
X023411Y019690D01*
X023411Y020090D01*
X023151Y020090D02*
X023151Y019690D01*
X023217Y019890D02*
X022950Y019890D01*
X023151Y020090D01*
X022757Y020090D02*
X022757Y020024D01*
X022490Y019757D01*
X022490Y019690D01*
X022490Y020090D02*
X022757Y020090D01*
X020840Y019740D02*
X020840Y021040D01*
X020838Y021066D01*
X020833Y021092D01*
X020825Y021117D01*
X020813Y021140D01*
X020799Y021162D01*
X020781Y021181D01*
X020762Y021199D01*
X020740Y021213D01*
X020717Y021225D01*
X020692Y021233D01*
X020666Y021238D01*
X020640Y021240D01*
X020390Y020890D02*
X020390Y020510D01*
X020390Y020260D02*
X020390Y019890D01*
X020140Y019540D02*
X020114Y019542D01*
X020088Y019547D01*
X020063Y019555D01*
X020040Y019567D01*
X020018Y019581D01*
X019999Y019599D01*
X019981Y019618D01*
X019967Y019640D01*
X019955Y019663D01*
X019947Y019688D01*
X019942Y019714D01*
X019940Y019740D01*
X019940Y021040D01*
X019942Y021066D01*
X019947Y021092D01*
X019955Y021117D01*
X019967Y021140D01*
X019981Y021162D01*
X019999Y021181D01*
X020018Y021199D01*
X020040Y021213D01*
X020063Y021225D01*
X020088Y021233D01*
X020114Y021238D01*
X020140Y021240D01*
X020840Y019740D02*
X020838Y019714D01*
X020833Y019688D01*
X020825Y019663D01*
X020813Y019640D01*
X020799Y019618D01*
X020781Y019599D01*
X020762Y019581D01*
X020740Y019567D01*
X020717Y019555D01*
X020692Y019547D01*
X020666Y019542D01*
X020640Y019540D01*
X020790Y019074D02*
X020856Y019074D01*
X021123Y018807D01*
X021190Y018807D01*
X021123Y018614D02*
X021190Y018547D01*
X021190Y018414D01*
X021123Y018347D01*
X020856Y018347D01*
X020790Y018414D01*
X020790Y018547D01*
X020856Y018614D01*
X020790Y018807D02*
X020790Y019074D01*
X020790Y018173D02*
X020790Y018040D01*
X020790Y018107D02*
X021190Y018107D01*
X021190Y018173D02*
X021190Y018040D01*
X021190Y024115D02*
X021190Y024248D01*
X021190Y024182D02*
X020790Y024182D01*
X020790Y024248D02*
X020790Y024115D01*
X020856Y024422D02*
X021123Y024422D01*
X021190Y024489D01*
X021190Y024622D01*
X021123Y024689D01*
X021123Y024882D02*
X021057Y024882D01*
X020990Y024949D01*
X020990Y025082D01*
X021057Y025149D01*
X021123Y025149D01*
X021190Y025082D01*
X021190Y024949D01*
X021123Y024882D01*
X020990Y024949D02*
X020923Y024882D01*
X020856Y024882D01*
X020790Y024949D01*
X020790Y025082D01*
X020856Y025149D01*
X020923Y025149D01*
X020990Y025082D01*
X020856Y024689D02*
X020790Y024622D01*
X020790Y024489D01*
X020856Y024422D01*
X021390Y024740D02*
X021390Y025490D01*
X021429Y025492D01*
X021468Y025498D01*
X021506Y025507D01*
X021543Y025520D01*
X021579Y025537D01*
X021612Y025557D01*
X021644Y025581D01*
X021673Y025607D01*
X021699Y025636D01*
X021723Y025668D01*
X021743Y025701D01*
X021760Y025737D01*
X021773Y025774D01*
X021782Y025812D01*
X021788Y025851D01*
X021790Y025890D01*
X021788Y025929D01*
X021782Y025968D01*
X021773Y026006D01*
X021760Y026043D01*
X021743Y026079D01*
X021723Y026112D01*
X021699Y026144D01*
X021673Y026173D01*
X021644Y026199D01*
X021612Y026223D01*
X021579Y026243D01*
X021543Y026260D01*
X021506Y026273D01*
X021468Y026282D01*
X021429Y026288D01*
X021390Y026290D01*
X021390Y027040D01*
X028390Y027040D01*
X028390Y024740D01*
X021390Y024740D01*
X020840Y025740D02*
X020840Y027040D01*
X020838Y027066D01*
X020833Y027092D01*
X020825Y027117D01*
X020813Y027140D01*
X020799Y027162D01*
X020781Y027181D01*
X020762Y027199D01*
X020740Y027213D01*
X020717Y027225D01*
X020692Y027233D01*
X020666Y027238D01*
X020640Y027240D01*
X020390Y026890D02*
X020390Y026510D01*
X020390Y026260D02*
X020390Y025890D01*
X020140Y025540D02*
X020114Y025542D01*
X020088Y025547D01*
X020063Y025555D01*
X020040Y025567D01*
X020018Y025581D01*
X019999Y025599D01*
X019981Y025618D01*
X019967Y025640D01*
X019955Y025663D01*
X019947Y025688D01*
X019942Y025714D01*
X019940Y025740D01*
X019940Y027040D01*
X019942Y027066D01*
X019947Y027092D01*
X019955Y027117D01*
X019967Y027140D01*
X019981Y027162D01*
X019999Y027181D01*
X020018Y027199D01*
X020040Y027213D01*
X020063Y027225D01*
X020088Y027233D01*
X020114Y027238D01*
X020140Y027240D01*
X020840Y025740D02*
X020838Y025714D01*
X020833Y025688D01*
X020825Y025663D01*
X020813Y025640D01*
X020799Y025618D01*
X020781Y025599D01*
X020762Y025581D01*
X020740Y025567D01*
X020717Y025555D01*
X020692Y025547D01*
X020666Y025542D01*
X020640Y025540D01*
X022290Y025690D02*
X022290Y025757D01*
X022557Y026024D01*
X022557Y026090D01*
X022290Y026090D01*
X022750Y025890D02*
X023017Y025890D01*
X022951Y025690D02*
X022951Y026090D01*
X022750Y025890D01*
X023211Y025690D02*
X023478Y025690D01*
X023671Y025757D02*
X023738Y025690D01*
X023871Y025690D01*
X023938Y025757D01*
X023938Y025823D01*
X023871Y025890D01*
X023738Y025890D01*
X023671Y025957D01*
X023671Y026024D01*
X023738Y026090D01*
X023871Y026090D01*
X023938Y026024D01*
X024132Y026024D02*
X024132Y025757D01*
X024398Y026024D01*
X024398Y025757D01*
X024332Y025690D01*
X024198Y025690D01*
X024132Y025757D01*
X024132Y026024D02*
X024198Y026090D01*
X024332Y026090D01*
X024398Y026024D01*
X024592Y026024D02*
X024592Y025957D01*
X024659Y025890D01*
X024792Y025890D01*
X024859Y025823D01*
X024859Y025757D01*
X024792Y025690D01*
X024659Y025690D01*
X024592Y025757D01*
X024592Y025823D01*
X024659Y025890D01*
X024792Y025890D02*
X024859Y025957D01*
X024859Y026024D01*
X024792Y026090D01*
X024659Y026090D01*
X024592Y026024D01*
X025052Y026090D02*
X025319Y025690D01*
X025319Y026090D01*
X025052Y026090D02*
X025052Y025690D01*
X023211Y025690D02*
X023211Y026090D01*
X030240Y026940D02*
X031540Y026940D01*
X031566Y026942D01*
X031592Y026947D01*
X031617Y026955D01*
X031640Y026967D01*
X031662Y026981D01*
X031681Y026999D01*
X031699Y027018D01*
X031713Y027040D01*
X031725Y027063D01*
X031733Y027088D01*
X031738Y027114D01*
X031740Y027140D01*
X031390Y027390D02*
X031010Y027390D01*
X030760Y027390D02*
X030390Y027390D01*
X030040Y027640D02*
X030042Y027666D01*
X030047Y027692D01*
X030055Y027717D01*
X030067Y027740D01*
X030081Y027762D01*
X030099Y027781D01*
X030118Y027799D01*
X030140Y027813D01*
X030163Y027825D01*
X030188Y027833D01*
X030214Y027838D01*
X030240Y027840D01*
X031540Y027840D01*
X031566Y027838D01*
X031592Y027833D01*
X031617Y027825D01*
X031640Y027813D01*
X031662Y027799D01*
X031681Y027781D01*
X031699Y027762D01*
X031713Y027740D01*
X031725Y027717D01*
X031733Y027692D01*
X031738Y027666D01*
X031740Y027640D01*
X032390Y027040D02*
X032390Y026290D01*
X032190Y026218D02*
X032190Y026084D01*
X032123Y026018D01*
X031856Y026285D01*
X032123Y026285D01*
X032190Y026218D01*
X032123Y026018D02*
X031856Y026018D01*
X031790Y026084D01*
X031790Y026218D01*
X031856Y026285D01*
X032190Y025824D02*
X032190Y025557D01*
X032190Y025691D02*
X031790Y025691D01*
X031923Y025557D01*
X031856Y025364D02*
X031790Y025297D01*
X031790Y025164D01*
X031856Y025097D01*
X032123Y025097D01*
X032190Y025164D01*
X032190Y025297D01*
X032123Y025364D01*
X032390Y025490D02*
X032390Y024740D01*
X040390Y024740D01*
X040390Y027040D01*
X032390Y027040D01*
X033490Y026090D02*
X033757Y026090D01*
X033757Y026024D01*
X033490Y025757D01*
X033490Y025690D01*
X033950Y025890D02*
X034217Y025890D01*
X034151Y025690D02*
X034151Y026090D01*
X033950Y025890D01*
X034411Y026090D02*
X034411Y025690D01*
X034678Y025690D01*
X034871Y025757D02*
X034938Y025690D01*
X035071Y025690D01*
X035138Y025757D01*
X035138Y025823D01*
X035071Y025890D01*
X034938Y025890D01*
X034871Y025957D01*
X034871Y026024D01*
X034938Y026090D01*
X035071Y026090D01*
X035138Y026024D01*
X035332Y025957D02*
X035465Y026090D01*
X035465Y025690D01*
X035332Y025690D02*
X035598Y025690D01*
X035792Y025690D02*
X035792Y025757D01*
X036059Y026024D01*
X036059Y026090D01*
X035792Y026090D01*
X036252Y026024D02*
X036319Y026090D01*
X036453Y026090D01*
X036519Y026024D01*
X036519Y025957D01*
X036453Y025890D01*
X036519Y025823D01*
X036519Y025757D01*
X036453Y025690D01*
X036319Y025690D01*
X036252Y025757D01*
X036386Y025890D02*
X036453Y025890D01*
X036713Y025690D02*
X036713Y026090D01*
X036980Y025690D01*
X036980Y026090D01*
X041565Y025740D02*
X041565Y027040D01*
X041567Y027066D01*
X041572Y027092D01*
X041580Y027117D01*
X041592Y027140D01*
X041606Y027162D01*
X041624Y027181D01*
X041643Y027199D01*
X041665Y027213D01*
X041688Y027225D01*
X041713Y027233D01*
X041739Y027238D01*
X041765Y027240D01*
X042015Y026890D02*
X042015Y026510D01*
X042015Y026260D02*
X042015Y025890D01*
X042265Y025540D02*
X042291Y025542D01*
X042317Y025547D01*
X042342Y025555D01*
X042365Y025567D01*
X042387Y025581D01*
X042406Y025599D01*
X042424Y025618D01*
X042438Y025640D01*
X042450Y025663D01*
X042458Y025688D01*
X042463Y025714D01*
X042465Y025740D01*
X042465Y027040D01*
X042463Y027066D01*
X042458Y027092D01*
X042450Y027117D01*
X042438Y027140D01*
X042424Y027162D01*
X042406Y027181D01*
X042387Y027199D01*
X042365Y027213D01*
X042342Y027225D01*
X042317Y027233D01*
X042291Y027238D01*
X042265Y027240D01*
X042890Y027040D02*
X042890Y026290D01*
X042929Y026288D01*
X042968Y026282D01*
X043006Y026273D01*
X043043Y026260D01*
X043079Y026243D01*
X043112Y026223D01*
X043144Y026199D01*
X043173Y026173D01*
X043199Y026144D01*
X043223Y026112D01*
X043243Y026079D01*
X043260Y026043D01*
X043273Y026006D01*
X043282Y025968D01*
X043288Y025929D01*
X043290Y025890D01*
X043288Y025851D01*
X043282Y025812D01*
X043273Y025774D01*
X043260Y025737D01*
X043243Y025701D01*
X043223Y025668D01*
X043199Y025636D01*
X043173Y025607D01*
X043144Y025581D01*
X043112Y025557D01*
X043079Y025537D01*
X043043Y025520D01*
X043006Y025507D01*
X042968Y025498D01*
X042929Y025492D01*
X042890Y025490D01*
X042890Y024740D01*
X049890Y024740D01*
X049890Y027040D01*
X042890Y027040D01*
X043790Y026090D02*
X044057Y026090D01*
X044057Y026024D01*
X043790Y025757D01*
X043790Y025690D01*
X044250Y025890D02*
X044451Y026090D01*
X044451Y025690D01*
X044517Y025890D02*
X044250Y025890D01*
X044711Y026090D02*
X044711Y025690D01*
X044978Y025690D01*
X045171Y025757D02*
X045238Y025690D01*
X045371Y025690D01*
X045438Y025757D01*
X045438Y025823D01*
X045371Y025890D01*
X045238Y025890D01*
X045171Y025957D01*
X045171Y026024D01*
X045238Y026090D01*
X045371Y026090D01*
X045438Y026024D01*
X045632Y026090D02*
X045898Y026090D01*
X045898Y026024D01*
X045632Y025757D01*
X045632Y025690D01*
X046092Y025890D02*
X046292Y026090D01*
X046292Y025690D01*
X046359Y025890D02*
X046092Y025890D01*
X046552Y025690D02*
X046552Y026090D01*
X046819Y025690D01*
X046819Y026090D01*
X042690Y024985D02*
X042690Y024718D01*
X042423Y024985D01*
X042356Y024985D01*
X042290Y024918D01*
X042290Y024784D01*
X042356Y024718D01*
X042290Y024391D02*
X042690Y024391D01*
X042690Y024524D02*
X042690Y024257D01*
X042623Y024064D02*
X042690Y023997D01*
X042690Y023864D01*
X042623Y023797D01*
X042356Y023797D01*
X042290Y023864D01*
X042290Y023997D01*
X042356Y024064D01*
X042423Y024257D02*
X042290Y024391D01*
X042290Y023623D02*
X042290Y023490D01*
X042290Y023557D02*
X042690Y023557D01*
X042690Y023623D02*
X042690Y023490D01*
X041765Y025540D02*
X041739Y025542D01*
X041713Y025547D01*
X041688Y025555D01*
X041665Y025567D01*
X041643Y025581D01*
X041624Y025599D01*
X041606Y025618D01*
X041592Y025640D01*
X041580Y025663D01*
X041572Y025688D01*
X041567Y025714D01*
X041565Y025740D01*
X032390Y025490D02*
X032429Y025492D01*
X032468Y025498D01*
X032506Y025507D01*
X032543Y025520D01*
X032579Y025537D01*
X032612Y025557D01*
X032644Y025581D01*
X032673Y025607D01*
X032699Y025636D01*
X032723Y025668D01*
X032743Y025701D01*
X032760Y025737D01*
X032773Y025774D01*
X032782Y025812D01*
X032788Y025851D01*
X032790Y025890D01*
X032788Y025929D01*
X032782Y025968D01*
X032773Y026006D01*
X032760Y026043D01*
X032743Y026079D01*
X032723Y026112D01*
X032699Y026144D01*
X032673Y026173D01*
X032644Y026199D01*
X032612Y026223D01*
X032579Y026243D01*
X032543Y026260D01*
X032506Y026273D01*
X032468Y026282D01*
X032429Y026288D01*
X032390Y026290D01*
X032190Y024923D02*
X032190Y024790D01*
X032190Y024857D02*
X031790Y024857D01*
X031790Y024923D02*
X031790Y024790D01*
X030240Y026940D02*
X030214Y026942D01*
X030188Y026947D01*
X030163Y026955D01*
X030140Y026967D01*
X030118Y026981D01*
X030099Y026999D01*
X030081Y027018D01*
X030067Y027040D01*
X030055Y027063D01*
X030047Y027088D01*
X030042Y027114D01*
X030040Y027140D01*
X051940Y027040D02*
X051940Y025740D01*
X051942Y025714D01*
X051947Y025688D01*
X051955Y025663D01*
X051967Y025640D01*
X051981Y025618D01*
X051999Y025599D01*
X052018Y025581D01*
X052040Y025567D01*
X052063Y025555D01*
X052088Y025547D01*
X052114Y025542D01*
X052140Y025540D01*
X052390Y025890D02*
X052390Y026260D01*
X052390Y026510D02*
X052390Y026890D01*
X052140Y027240D02*
X052114Y027238D01*
X052088Y027233D01*
X052063Y027225D01*
X052040Y027213D01*
X052018Y027199D01*
X051999Y027181D01*
X051981Y027162D01*
X051967Y027140D01*
X051955Y027117D01*
X051947Y027092D01*
X051942Y027066D01*
X051940Y027040D01*
X052640Y027240D02*
X052666Y027238D01*
X052692Y027233D01*
X052717Y027225D01*
X052740Y027213D01*
X052762Y027199D01*
X052781Y027181D01*
X052799Y027162D01*
X052813Y027140D01*
X052825Y027117D01*
X052833Y027092D01*
X052838Y027066D01*
X052840Y027040D01*
X052840Y025740D01*
X052838Y025714D01*
X052833Y025688D01*
X052825Y025663D01*
X052813Y025640D01*
X052799Y025618D01*
X052781Y025599D01*
X052762Y025581D01*
X052740Y025567D01*
X052717Y025555D01*
X052692Y025547D01*
X052666Y025542D01*
X052640Y025540D01*
D11*
X052690Y026260D02*
X052390Y026260D01*
X052090Y026260D01*
X052090Y026510D02*
X052390Y026510D01*
X052690Y026510D01*
X051510Y022190D02*
X051510Y021890D01*
X051510Y021590D01*
X051260Y021590D02*
X051260Y021890D01*
X051260Y022190D01*
X042315Y026260D02*
X042015Y026260D01*
X041715Y026260D01*
X041715Y026510D02*
X042015Y026510D01*
X042315Y026510D01*
X031010Y027090D02*
X031010Y027390D01*
X031010Y027690D01*
X030760Y027690D02*
X030760Y027390D01*
X030760Y027090D01*
X029565Y033260D02*
X029265Y033260D01*
X028965Y033260D01*
X028965Y033510D02*
X029265Y033510D01*
X029565Y033510D01*
X031340Y038270D02*
X031640Y038270D01*
X031940Y038270D01*
X031940Y038520D02*
X031640Y038520D01*
X031340Y038520D01*
X048260Y039965D02*
X048260Y040265D01*
X048260Y040565D01*
X048510Y040565D02*
X048510Y040265D01*
X048510Y039965D01*
X020690Y026510D02*
X020390Y026510D01*
X020090Y026510D01*
X020090Y026260D02*
X020390Y026260D01*
X020690Y026260D01*
X020690Y020510D02*
X020390Y020510D01*
X020090Y020510D01*
X020090Y020260D02*
X020390Y020260D01*
X020690Y020260D01*
X031090Y012520D02*
X031390Y012520D01*
X031690Y012520D01*
X031690Y012270D02*
X031390Y012270D01*
X031090Y012270D01*
X035590Y012760D02*
X035890Y012760D01*
X036190Y012760D01*
X036190Y013010D02*
X035890Y013010D01*
X035590Y013010D01*
X055090Y012520D02*
X055390Y012520D01*
X055690Y012520D01*
X055690Y012270D02*
X055390Y012270D01*
X055090Y012270D01*
X009190Y020260D02*
X008890Y020260D01*
X008590Y020260D01*
X008590Y020510D02*
X008890Y020510D01*
X009190Y020510D01*
X009190Y026260D02*
X008890Y026260D01*
X008590Y026260D01*
X008590Y026510D02*
X008890Y026510D01*
X009190Y026510D01*
D12*
X062840Y006140D03*
M02*
