G75*
%MOIN*%
%OFA0B0*%
%FSLAX24Y24*%
%IPPOS*%
%LPD*%
%AMOC8*
5,1,8,0,0,1.08239X$1,22.5*
%
%ADD10C,0.0230*%
%ADD11C,0.0560*%
%ADD12OC8,0.0560*%
%ADD13OC8,0.0640*%
%ADD14C,0.0640*%
%ADD15C,0.0750*%
%ADD16OC8,0.0750*%
%ADD17C,0.0160*%
%ADD18C,0.0320*%
%ADD19C,0.0500*%
D10*
X061842Y040630D02*
X061842Y041901D01*
X062266Y041901D02*
X062266Y040630D01*
X062477Y041054D02*
X061630Y041054D01*
X061630Y041477D02*
X062266Y041477D01*
X062477Y041477D01*
X063011Y041477D02*
X063435Y041901D01*
X063435Y040630D01*
X063011Y040630D02*
X063859Y040630D01*
D11*
X063170Y037140D02*
X062610Y037140D01*
X062610Y036140D02*
X063170Y036140D01*
X063170Y035140D02*
X062610Y035140D01*
X062610Y034140D02*
X063170Y034140D01*
X063170Y033140D02*
X062610Y033140D01*
X062610Y032140D02*
X063170Y032140D01*
X063170Y031140D02*
X062610Y031140D01*
X062610Y030140D02*
X063170Y030140D01*
X063170Y029140D02*
X062610Y029140D01*
X060890Y027670D02*
X060890Y027110D01*
X059890Y027110D02*
X059890Y027670D01*
X058890Y027670D02*
X058890Y027110D01*
X057890Y027110D02*
X057890Y027670D01*
X056890Y027670D02*
X056890Y027110D01*
X055890Y027110D02*
X055890Y027670D01*
X054890Y027670D02*
X054890Y027110D01*
X053890Y027110D02*
X053890Y027670D01*
X053890Y024670D02*
X053890Y024110D01*
X054890Y024110D02*
X054890Y024670D01*
X055890Y024670D02*
X055890Y024110D01*
X056890Y024110D02*
X056890Y024670D01*
X057890Y024670D02*
X057890Y024110D01*
X058890Y024110D02*
X058890Y024670D01*
X059890Y024670D02*
X059890Y024110D01*
X060890Y024110D02*
X060890Y024670D01*
X060890Y022170D02*
X060890Y021610D01*
X059890Y021610D02*
X059890Y022170D01*
X058890Y022170D02*
X058890Y021610D01*
X057890Y021610D02*
X057890Y022170D01*
X056890Y022170D02*
X056890Y021610D01*
X055890Y021610D02*
X055890Y022170D01*
X054890Y022170D02*
X054890Y021610D01*
X053890Y021610D02*
X053890Y022170D01*
X053890Y019170D02*
X053890Y018610D01*
X054890Y018610D02*
X054890Y019170D01*
X055890Y019170D02*
X055890Y018610D01*
X056890Y018610D02*
X056890Y019170D01*
X057890Y019170D02*
X057890Y018610D01*
X058890Y018610D02*
X058890Y019170D01*
X059890Y019170D02*
X059890Y018610D01*
X060890Y018610D02*
X060890Y019170D01*
X053890Y014670D02*
X053890Y014110D01*
X052890Y014110D02*
X052890Y014670D01*
X051890Y014670D02*
X051890Y014110D01*
X050890Y014110D02*
X050890Y014670D01*
X049890Y014670D02*
X049890Y014110D01*
X048890Y014110D02*
X048890Y014670D01*
X047890Y014670D02*
X047890Y014110D01*
X047890Y011670D02*
X047890Y011110D01*
X048890Y011110D02*
X048890Y011670D01*
X049890Y011670D02*
X049890Y011110D01*
X050890Y011110D02*
X050890Y011670D01*
X051890Y011670D02*
X051890Y011110D01*
X052890Y011110D02*
X052890Y011670D01*
X053890Y011670D02*
X053890Y011110D01*
X043390Y011110D02*
X043390Y011670D01*
X042390Y011670D02*
X042390Y011110D01*
X041390Y011110D02*
X041390Y011670D01*
X040390Y011670D02*
X040390Y011110D01*
X039390Y011110D02*
X039390Y011670D01*
X038390Y011670D02*
X038390Y011110D01*
X037390Y011110D02*
X037390Y011670D01*
X037390Y014110D02*
X037390Y014670D01*
X038390Y014670D02*
X038390Y014110D01*
X039390Y014110D02*
X039390Y014670D01*
X040390Y014670D02*
X040390Y014110D01*
X041390Y014110D02*
X041390Y014670D01*
X042390Y014670D02*
X042390Y014110D01*
X043390Y014110D02*
X043390Y014670D01*
X029890Y014670D02*
X029890Y014110D01*
X028890Y014110D02*
X028890Y014670D01*
X027890Y014670D02*
X027890Y014110D01*
X026890Y014110D02*
X026890Y014670D01*
X025890Y014670D02*
X025890Y014110D01*
X024890Y014110D02*
X024890Y014670D01*
X023890Y014670D02*
X023890Y014110D01*
X023890Y011670D02*
X023890Y011110D01*
X024890Y011110D02*
X024890Y011670D01*
X025890Y011670D02*
X025890Y011110D01*
X026890Y011110D02*
X026890Y011670D01*
X027890Y011670D02*
X027890Y011110D01*
X028890Y011110D02*
X028890Y011670D01*
X029890Y011670D02*
X029890Y011110D01*
X028890Y018110D02*
X028890Y018670D01*
X027890Y018670D02*
X027890Y018110D01*
X026890Y018110D02*
X026890Y018670D01*
X025890Y018670D02*
X025890Y018110D01*
X024890Y018110D02*
X024890Y018670D01*
X023890Y018670D02*
X023890Y018110D01*
X022890Y018110D02*
X022890Y018670D01*
X021890Y018670D02*
X021890Y018110D01*
X021890Y021110D02*
X021890Y021670D01*
X022890Y021670D02*
X022890Y021110D01*
X023890Y021110D02*
X023890Y021670D01*
X024890Y021670D02*
X024890Y021110D01*
X025890Y021110D02*
X025890Y021670D01*
X026890Y021670D02*
X026890Y021110D01*
X027890Y021110D02*
X027890Y021670D01*
X028890Y021670D02*
X028890Y021110D01*
X027890Y024110D02*
X027890Y024670D01*
X026890Y024670D02*
X026890Y024110D01*
X025890Y024110D02*
X025890Y024670D01*
X024890Y024670D02*
X024890Y024110D01*
X023890Y024110D02*
X023890Y024670D01*
X022890Y024670D02*
X022890Y024110D01*
X021890Y024110D02*
X021890Y024670D01*
X021890Y027110D02*
X021890Y027670D01*
X022890Y027670D02*
X022890Y027110D01*
X023890Y027110D02*
X023890Y027670D01*
X024890Y027670D02*
X024890Y027110D01*
X025890Y027110D02*
X025890Y027670D01*
X026890Y027670D02*
X026890Y027110D01*
X027890Y027110D02*
X027890Y027670D01*
X032890Y027670D02*
X032890Y027110D01*
X033890Y027110D02*
X033890Y027670D01*
X034890Y027670D02*
X034890Y027110D01*
X035890Y027110D02*
X035890Y027670D01*
X036890Y027670D02*
X036890Y027110D01*
X037890Y027110D02*
X037890Y027670D01*
X038890Y027670D02*
X038890Y027110D01*
X039890Y027110D02*
X039890Y027670D01*
X043390Y027670D02*
X043390Y027110D01*
X044390Y027110D02*
X044390Y027670D01*
X045390Y027670D02*
X045390Y027110D01*
X046390Y027110D02*
X046390Y027670D01*
X047390Y027670D02*
X047390Y027110D01*
X048390Y027110D02*
X048390Y027670D01*
X049390Y027670D02*
X049390Y027110D01*
X049390Y024670D02*
X049390Y024110D01*
X048390Y024110D02*
X048390Y024670D01*
X047390Y024670D02*
X047390Y024110D01*
X046390Y024110D02*
X046390Y024670D01*
X045390Y024670D02*
X045390Y024110D01*
X044390Y024110D02*
X044390Y024670D01*
X043390Y024670D02*
X043390Y024110D01*
X039890Y024110D02*
X039890Y024670D01*
X038890Y024670D02*
X038890Y024110D01*
X037890Y024110D02*
X037890Y024670D01*
X036890Y024670D02*
X036890Y024110D01*
X035890Y024110D02*
X035890Y024670D01*
X034890Y024670D02*
X034890Y024110D01*
X033890Y024110D02*
X033890Y024670D01*
X032890Y024670D02*
X032890Y024110D01*
X046110Y029640D02*
X046670Y029640D01*
X046670Y030640D02*
X046110Y030640D01*
X046110Y031640D02*
X046670Y031640D01*
X046670Y032640D02*
X046110Y032640D01*
X046110Y033640D02*
X046670Y033640D01*
X046670Y034640D02*
X046110Y034640D01*
X046110Y035640D02*
X046670Y035640D01*
X046670Y036640D02*
X046110Y036640D01*
X046110Y037640D02*
X046670Y037640D01*
X046670Y038640D02*
X046110Y038640D01*
X049110Y038640D02*
X049670Y038640D01*
X049670Y037640D02*
X049110Y037640D01*
X049110Y036640D02*
X049670Y036640D01*
X049670Y035640D02*
X049110Y035640D01*
X049110Y034640D02*
X049670Y034640D01*
X049670Y033640D02*
X049110Y033640D01*
X049110Y032640D02*
X049670Y032640D01*
X049670Y031640D02*
X049110Y031640D01*
X049110Y030640D02*
X049670Y030640D01*
X049670Y029640D02*
X049110Y029640D01*
X041890Y034110D02*
X041890Y034670D01*
X040890Y034670D02*
X040890Y034110D01*
X039890Y034110D02*
X039890Y034670D01*
X038890Y034670D02*
X038890Y034110D01*
X037890Y034110D02*
X037890Y034670D01*
X036890Y034670D02*
X036890Y034110D01*
X035890Y034110D02*
X035890Y034670D01*
X034890Y034670D02*
X034890Y034110D01*
X033890Y034110D02*
X033890Y034670D01*
X032890Y034670D02*
X032890Y034110D01*
X032890Y037110D02*
X032890Y037670D01*
X033890Y037670D02*
X033890Y037110D01*
X034890Y037110D02*
X034890Y037670D01*
X035890Y037670D02*
X035890Y037110D01*
X036890Y037110D02*
X036890Y037670D01*
X037890Y037670D02*
X037890Y037110D01*
X038890Y037110D02*
X038890Y037670D01*
X039890Y037670D02*
X039890Y037110D01*
X040890Y037110D02*
X040890Y037670D01*
X041890Y037670D02*
X041890Y037110D01*
X028015Y037110D02*
X028015Y037670D01*
X027015Y037670D02*
X027015Y037110D01*
X026015Y037110D02*
X026015Y037670D01*
X025015Y037670D02*
X025015Y037110D01*
X024015Y037110D02*
X024015Y037670D01*
X023015Y037670D02*
X023015Y037110D01*
X022015Y037110D02*
X022015Y037670D01*
X021015Y037670D02*
X021015Y037110D01*
X021015Y034670D02*
X021015Y034110D01*
X022015Y034110D02*
X022015Y034670D01*
X023015Y034670D02*
X023015Y034110D01*
X024015Y034110D02*
X024015Y034670D01*
X025015Y034670D02*
X025015Y034110D01*
X026015Y034110D02*
X026015Y034670D01*
X027015Y034670D02*
X027015Y034110D01*
X028015Y034110D02*
X028015Y034670D01*
X017390Y027670D02*
X017390Y027110D01*
X016390Y027110D02*
X016390Y027670D01*
X015390Y027670D02*
X015390Y027110D01*
X014390Y027110D02*
X014390Y027670D01*
X013390Y027670D02*
X013390Y027110D01*
X012390Y027110D02*
X012390Y027670D01*
X011390Y027670D02*
X011390Y027110D01*
X010390Y027110D02*
X010390Y027670D01*
X010390Y024670D02*
X010390Y024110D01*
X011390Y024110D02*
X011390Y024670D01*
X012390Y024670D02*
X012390Y024110D01*
X013390Y024110D02*
X013390Y024670D01*
X014390Y024670D02*
X014390Y024110D01*
X015390Y024110D02*
X015390Y024670D01*
X016390Y024670D02*
X016390Y024110D01*
X017390Y024110D02*
X017390Y024670D01*
X017390Y021670D02*
X017390Y021110D01*
X016390Y021110D02*
X016390Y021670D01*
X015390Y021670D02*
X015390Y021110D01*
X014390Y021110D02*
X014390Y021670D01*
X013390Y021670D02*
X013390Y021110D01*
X012390Y021110D02*
X012390Y021670D01*
X011390Y021670D02*
X011390Y021110D01*
X010390Y021110D02*
X010390Y021670D01*
X010390Y018670D02*
X010390Y018110D01*
X011390Y018110D02*
X011390Y018670D01*
X012390Y018670D02*
X012390Y018110D01*
X013390Y018110D02*
X013390Y018670D01*
X014390Y018670D02*
X014390Y018110D01*
X015390Y018110D02*
X015390Y018670D01*
X016390Y018670D02*
X016390Y018110D01*
X017390Y018110D02*
X017390Y018670D01*
D12*
X020390Y019390D03*
X020390Y021390D03*
X020390Y025390D03*
X020390Y027390D03*
X029265Y032390D03*
X029265Y034390D03*
X031640Y037390D03*
X031640Y039390D03*
X047390Y040265D03*
X049390Y040265D03*
X052390Y027390D03*
X052390Y025390D03*
X052390Y021890D03*
X050390Y021890D03*
X042015Y025390D03*
X042015Y027390D03*
X031890Y027390D03*
X029890Y027390D03*
X035890Y013890D03*
X035890Y011890D03*
X031390Y011390D03*
X031390Y013390D03*
X008890Y019390D03*
X008890Y021390D03*
X008890Y025390D03*
X008890Y027390D03*
X055390Y013390D03*
X055390Y011390D03*
D13*
X059265Y011140D03*
X060265Y011140D03*
X060265Y010140D03*
X059265Y010140D03*
X059265Y012140D03*
X060265Y012140D03*
X060265Y013140D03*
X059265Y013140D03*
X059265Y014140D03*
X060265Y014140D03*
X060265Y015140D03*
X059265Y015140D03*
X059265Y016140D03*
X060265Y016140D03*
X060265Y017140D03*
X059265Y017140D03*
X059265Y007140D03*
X060265Y007140D03*
X060265Y006140D03*
X059265Y006140D03*
X053890Y006140D03*
X053890Y007140D03*
X052890Y007140D03*
X051890Y007140D03*
X051890Y006140D03*
X052890Y006140D03*
X050890Y006140D03*
X049890Y006140D03*
X049890Y007140D03*
X050890Y007140D03*
X048890Y007140D03*
X047890Y007140D03*
X046890Y007140D03*
X046890Y006140D03*
X047890Y006140D03*
X048890Y006140D03*
X045890Y006140D03*
X044890Y006140D03*
X044890Y007140D03*
X045890Y007140D03*
X043890Y007140D03*
X042890Y007140D03*
X041890Y007140D03*
X041890Y006140D03*
X042890Y006140D03*
X043890Y006140D03*
X040890Y006140D03*
X039890Y006140D03*
X039890Y007140D03*
X040890Y007140D03*
X038890Y007140D03*
X038890Y006140D03*
X008390Y006140D03*
X007390Y006140D03*
X007390Y007140D03*
X008390Y007140D03*
X006765Y010140D03*
X005765Y010140D03*
X005765Y011140D03*
X006765Y011140D03*
X006765Y012140D03*
X005765Y012140D03*
X005765Y013140D03*
X006765Y013140D03*
X006765Y014140D03*
X005765Y014140D03*
X005765Y015140D03*
X006765Y015140D03*
X006765Y016140D03*
X005765Y016140D03*
X005765Y017140D03*
X006765Y017140D03*
X006765Y030140D03*
X005765Y030140D03*
X005765Y031140D03*
X006765Y031140D03*
X006765Y032140D03*
X005765Y032140D03*
X005765Y033140D03*
X006765Y033140D03*
X006765Y034140D03*
X005765Y034140D03*
X005765Y035140D03*
X006765Y035140D03*
X006765Y036140D03*
X005765Y036140D03*
X005765Y037140D03*
X006765Y037140D03*
X007390Y040140D03*
X008390Y040140D03*
X008390Y041140D03*
X007390Y041140D03*
X059265Y041140D03*
X060265Y041140D03*
X060265Y040140D03*
X059265Y040140D03*
X059265Y037140D03*
X060265Y037140D03*
X060265Y036140D03*
X059265Y036140D03*
X059265Y035140D03*
X060265Y035140D03*
X060265Y034140D03*
X059265Y034140D03*
X059265Y033140D03*
X060265Y033140D03*
X060265Y032140D03*
X059265Y032140D03*
X059265Y031140D03*
X060265Y031140D03*
X060265Y030140D03*
X059265Y030140D03*
D14*
X063945Y027515D02*
X064585Y027515D01*
X064585Y026515D02*
X063945Y026515D01*
X063945Y025515D02*
X064585Y025515D01*
X064585Y024515D02*
X063945Y024515D01*
X063945Y023515D02*
X064585Y023515D01*
X064585Y022515D02*
X063945Y022515D01*
X063945Y021515D02*
X064585Y021515D01*
X064585Y020515D02*
X063945Y020515D01*
X063945Y019515D02*
X064585Y019515D01*
X009335Y033140D02*
X008695Y033140D01*
X008695Y034140D02*
X009335Y034140D01*
X009335Y035140D02*
X008695Y035140D01*
X008695Y036140D02*
X009335Y036140D01*
X009335Y037140D02*
X008695Y037140D01*
D15*
X061640Y006140D03*
D16*
X063640Y006140D03*
D17*
X004270Y004270D02*
X004270Y042880D01*
X066502Y042880D01*
X066502Y041718D01*
X066292Y041928D01*
X065950Y042070D01*
X065580Y042070D01*
X065238Y041928D01*
X064977Y041667D01*
X064835Y041325D01*
X064835Y040955D01*
X064977Y040613D01*
X065238Y040352D01*
X065580Y040210D01*
X065950Y040210D01*
X066292Y040352D01*
X066502Y040562D01*
X066502Y006718D01*
X066292Y006928D01*
X065950Y007070D01*
X065580Y007070D01*
X065238Y006928D01*
X064977Y006667D01*
X064835Y006325D01*
X064835Y005955D01*
X064977Y005613D01*
X065238Y005352D01*
X065580Y005210D01*
X065950Y005210D01*
X066292Y005352D01*
X066502Y005562D01*
X066502Y004270D01*
X004270Y004270D01*
X004270Y004366D02*
X066502Y004366D01*
X066502Y004524D02*
X004270Y004524D01*
X004270Y004683D02*
X066502Y004683D01*
X066502Y004841D02*
X004270Y004841D01*
X004270Y005000D02*
X034662Y005000D01*
X034685Y004990D02*
X050095Y004990D01*
X050242Y005051D01*
X050617Y005426D01*
X050691Y005500D01*
X051155Y005500D01*
X051390Y005735D01*
X051625Y005500D01*
X052155Y005500D01*
X052390Y005735D01*
X052625Y005500D01*
X053155Y005500D01*
X053390Y005735D01*
X053625Y005500D01*
X054155Y005500D01*
X054530Y005875D01*
X054530Y006405D01*
X054295Y006640D01*
X054530Y006875D01*
X054530Y007405D01*
X054155Y007780D01*
X053625Y007780D01*
X053390Y007545D01*
X053155Y007780D01*
X053096Y007780D01*
X053117Y007801D01*
X053229Y007913D01*
X053290Y008060D01*
X053290Y010661D01*
X053390Y010761D01*
X053550Y010601D01*
X053771Y010510D01*
X054009Y010510D01*
X054230Y010601D01*
X054399Y010770D01*
X054490Y010991D01*
X054490Y011789D01*
X054399Y012010D01*
X054230Y012179D01*
X054009Y012270D01*
X053771Y012270D01*
X053550Y012179D01*
X053390Y012019D01*
X053230Y012179D01*
X053009Y012270D01*
X052771Y012270D01*
X052550Y012179D01*
X052390Y012019D01*
X052290Y012119D01*
X052290Y013220D01*
X052229Y013367D01*
X052117Y013479D01*
X052063Y013532D01*
X052230Y013601D01*
X052390Y013761D01*
X052550Y013601D01*
X052771Y013510D01*
X053009Y013510D01*
X053230Y013601D01*
X053390Y013761D01*
X053550Y013601D01*
X053771Y013510D01*
X054009Y013510D01*
X054230Y013601D01*
X054399Y013770D01*
X054490Y013991D01*
X054490Y014789D01*
X054399Y015010D01*
X054230Y015179D01*
X054009Y015270D01*
X053771Y015270D01*
X053550Y015179D01*
X053390Y015019D01*
X053230Y015179D01*
X053009Y015270D01*
X052771Y015270D01*
X052550Y015179D01*
X052390Y015019D01*
X052230Y015179D01*
X052009Y015270D01*
X051790Y015270D01*
X051790Y016345D01*
X051729Y016492D01*
X051617Y016604D01*
X048960Y019261D01*
X048960Y019378D01*
X048873Y019588D01*
X048713Y019748D01*
X048503Y019835D01*
X048277Y019835D01*
X048067Y019748D01*
X047907Y019588D01*
X047863Y019483D01*
X046790Y020556D01*
X046790Y021609D01*
X046873Y021692D01*
X046880Y021709D01*
X051426Y017163D01*
X051538Y017051D01*
X051685Y016990D01*
X055970Y016990D01*
X056117Y017051D01*
X056617Y017551D01*
X056729Y017663D01*
X056790Y017810D01*
X056790Y018010D01*
X057009Y018010D01*
X057059Y018030D01*
X057413Y017676D01*
X057560Y017615D01*
X058835Y017615D01*
X058625Y017405D01*
X058625Y016875D01*
X058860Y016640D01*
X058625Y016405D01*
X058625Y015875D01*
X058860Y015640D01*
X058625Y015405D01*
X058625Y014875D01*
X058860Y014640D01*
X058625Y014405D01*
X058625Y013875D01*
X058860Y013640D01*
X058625Y013405D01*
X058625Y012875D01*
X058860Y012640D01*
X058625Y012405D01*
X058625Y011875D01*
X058860Y011640D01*
X058625Y011405D01*
X058625Y010875D01*
X058860Y010640D01*
X058625Y010405D01*
X058625Y009875D01*
X059000Y009500D01*
X059530Y009500D01*
X059765Y009735D01*
X060000Y009500D01*
X060530Y009500D01*
X060905Y009875D01*
X060905Y010405D01*
X060670Y010640D01*
X060905Y010875D01*
X060905Y011405D01*
X060670Y011640D01*
X060905Y011875D01*
X060905Y012405D01*
X060670Y012640D01*
X060905Y012875D01*
X060905Y013405D01*
X060670Y013640D01*
X060905Y013875D01*
X060905Y014405D01*
X060670Y014640D01*
X060905Y014875D01*
X060905Y015405D01*
X060670Y015640D01*
X060905Y015875D01*
X060905Y016405D01*
X060670Y016640D01*
X060905Y016875D01*
X060905Y017405D01*
X060695Y017615D01*
X062845Y017615D01*
X062992Y017676D01*
X063104Y017788D01*
X064191Y018875D01*
X064712Y018875D01*
X064948Y018972D01*
X065128Y019152D01*
X065225Y019388D01*
X065225Y019642D01*
X065128Y019878D01*
X064990Y020015D01*
X065128Y020152D01*
X065225Y020388D01*
X065225Y020642D01*
X065128Y020878D01*
X064990Y021015D01*
X065128Y021152D01*
X065225Y021388D01*
X065225Y021642D01*
X066502Y021642D01*
X066502Y021484D02*
X065225Y021484D01*
X065225Y021642D02*
X065128Y021878D01*
X064990Y022015D01*
X065128Y022152D01*
X065225Y022388D01*
X065225Y022642D01*
X065128Y022878D01*
X064990Y023015D01*
X065128Y023152D01*
X065225Y023388D01*
X065225Y023642D01*
X065128Y023878D01*
X064990Y024015D01*
X065128Y024152D01*
X065225Y024388D01*
X065225Y024642D01*
X065128Y024878D01*
X064990Y025015D01*
X065128Y025152D01*
X065225Y025388D01*
X065225Y025642D01*
X065128Y025878D01*
X064990Y026015D01*
X065128Y026152D01*
X065225Y026388D01*
X065225Y026642D01*
X065128Y026878D01*
X064990Y027015D01*
X065128Y027152D01*
X065225Y027388D01*
X065225Y027642D01*
X065128Y027878D01*
X064948Y028058D01*
X064712Y028155D01*
X063818Y028155D01*
X063582Y028058D01*
X063440Y027915D01*
X062931Y027915D01*
X061979Y028867D01*
X061867Y028979D01*
X061720Y029040D01*
X052560Y029040D01*
X052413Y028979D01*
X051042Y027608D01*
X050998Y027713D01*
X050915Y027796D01*
X050915Y028845D01*
X050854Y028992D01*
X050270Y029576D01*
X050270Y029740D01*
X058760Y029740D01*
X059000Y029500D01*
X059530Y029500D01*
X059765Y029735D01*
X060000Y029500D01*
X060530Y029500D01*
X060770Y029740D01*
X062161Y029740D01*
X062261Y029640D01*
X062101Y029480D01*
X062010Y029259D01*
X062010Y029021D01*
X062101Y028800D01*
X062270Y028631D01*
X062491Y028540D01*
X063289Y028540D01*
X063510Y028631D01*
X063679Y028800D01*
X063770Y029021D01*
X063770Y029259D01*
X063679Y029480D01*
X063519Y029640D01*
X063679Y029800D01*
X063770Y030021D01*
X063770Y030259D01*
X063679Y030480D01*
X063519Y030640D01*
X063679Y030800D01*
X063770Y031021D01*
X063770Y031259D01*
X063679Y031480D01*
X063519Y031640D01*
X063679Y031800D01*
X063770Y032021D01*
X063770Y032259D01*
X063679Y032480D01*
X063519Y032640D01*
X063679Y032800D01*
X063770Y033021D01*
X063770Y033259D01*
X063679Y033480D01*
X063519Y033640D01*
X063679Y033800D01*
X063770Y034021D01*
X063770Y034259D01*
X063679Y034480D01*
X063519Y034640D01*
X063679Y034800D01*
X063770Y035021D01*
X063770Y035259D01*
X063679Y035480D01*
X063519Y035640D01*
X063679Y035800D01*
X063770Y036021D01*
X063770Y036259D01*
X063679Y036480D01*
X063519Y036640D01*
X063679Y036800D01*
X063770Y037021D01*
X063770Y037259D01*
X063679Y037480D01*
X063510Y037649D01*
X063289Y037740D01*
X062491Y037740D01*
X062270Y037649D01*
X062161Y037540D01*
X060770Y037540D01*
X060530Y037780D01*
X060000Y037780D01*
X059765Y037545D01*
X059530Y037780D01*
X059000Y037780D01*
X058760Y037540D01*
X050270Y037540D01*
X050270Y037759D01*
X050179Y037980D01*
X050019Y038140D01*
X050179Y038300D01*
X050270Y038521D01*
X050270Y038759D01*
X050179Y038980D01*
X050010Y039149D01*
X049870Y039207D01*
X049870Y039896D01*
X049990Y040016D01*
X049990Y040514D01*
X049639Y040865D01*
X049469Y040865D01*
X048162Y042172D01*
X047985Y042245D01*
X008920Y042245D01*
X008743Y042172D01*
X008608Y042037D01*
X008351Y041780D01*
X008125Y041780D01*
X007890Y041545D01*
X007655Y041780D01*
X007125Y041780D01*
X006750Y041405D01*
X006750Y040875D01*
X006985Y040640D01*
X006750Y040405D01*
X006750Y039875D01*
X007125Y039500D01*
X007655Y039500D01*
X007890Y039735D01*
X008125Y039500D01*
X008655Y039500D01*
X009030Y039875D01*
X009030Y040405D01*
X008870Y040565D01*
X008870Y040715D01*
X009030Y040875D01*
X009030Y041101D01*
X009214Y041285D01*
X030285Y041285D01*
X030285Y038170D01*
X030358Y037993D01*
X030493Y037858D01*
X031040Y037311D01*
X031040Y037141D01*
X031391Y036790D01*
X031889Y036790D01*
X032240Y037141D01*
X032240Y037639D01*
X031889Y037990D01*
X031719Y037990D01*
X031245Y038464D01*
X031245Y038936D01*
X031391Y038790D01*
X031640Y038790D01*
X031889Y038790D01*
X032240Y039141D01*
X032240Y039390D01*
X032240Y039639D01*
X031889Y039990D01*
X031640Y039990D01*
X031640Y039390D01*
X031640Y039390D01*
X032240Y039390D01*
X031640Y039390D01*
X031640Y039390D01*
X031640Y039990D01*
X031391Y039990D01*
X031245Y039844D01*
X031245Y041285D01*
X047691Y041285D01*
X048790Y040186D01*
X048790Y040016D01*
X048910Y039896D01*
X048910Y039207D01*
X048770Y039149D01*
X048601Y038980D01*
X048510Y038759D01*
X048510Y038521D01*
X048601Y038300D01*
X048761Y038140D01*
X048601Y037980D01*
X048510Y037759D01*
X048510Y037540D01*
X047935Y037540D01*
X047788Y037479D01*
X047349Y037040D01*
X047119Y037040D01*
X047019Y037140D01*
X047179Y037300D01*
X047270Y037521D01*
X047270Y037759D01*
X047179Y037980D01*
X047019Y038140D01*
X047179Y038300D01*
X047270Y038521D01*
X047270Y038759D01*
X047179Y038980D01*
X047010Y039149D01*
X046789Y039240D01*
X045991Y039240D01*
X045770Y039149D01*
X045601Y038980D01*
X045510Y038759D01*
X045510Y038521D01*
X045567Y038383D01*
X043663Y036479D01*
X043551Y036367D01*
X043490Y036220D01*
X043490Y031346D01*
X043338Y031498D01*
X043128Y031585D01*
X042902Y031585D01*
X042692Y031498D01*
X042532Y031338D01*
X042445Y031128D01*
X042445Y030902D01*
X042532Y030692D01*
X042615Y030609D01*
X042615Y030310D01*
X042676Y030163D01*
X042788Y030051D01*
X042788Y030051D01*
X044490Y028349D01*
X044490Y028262D01*
X044437Y028270D01*
X044390Y028270D01*
X044390Y027390D01*
X044390Y027390D01*
X044390Y028270D01*
X044343Y028270D01*
X044290Y028262D01*
X044290Y028345D01*
X044229Y028492D01*
X043354Y029367D01*
X043242Y029479D01*
X043095Y029540D01*
X042671Y029540D01*
X042588Y029623D01*
X042378Y029710D01*
X042152Y029710D01*
X041942Y029623D01*
X041790Y029471D01*
X041790Y030724D01*
X042742Y031676D01*
X042854Y031788D01*
X042915Y031935D01*
X042915Y036845D01*
X042854Y036992D01*
X042490Y037356D01*
X042490Y037789D01*
X042399Y038010D01*
X042230Y038179D01*
X042009Y038270D01*
X041771Y038270D01*
X041550Y038179D01*
X041390Y038019D01*
X041230Y038179D01*
X041009Y038270D01*
X040771Y038270D01*
X040550Y038179D01*
X040390Y038019D01*
X040230Y038179D01*
X040009Y038270D01*
X039771Y038270D01*
X039550Y038179D01*
X039390Y038019D01*
X039230Y038179D01*
X039009Y038270D01*
X038771Y038270D01*
X038550Y038179D01*
X038390Y038019D01*
X038230Y038179D01*
X038009Y038270D01*
X037771Y038270D01*
X037550Y038179D01*
X037390Y038019D01*
X037230Y038179D01*
X037009Y038270D01*
X036771Y038270D01*
X036550Y038179D01*
X036390Y038019D01*
X036230Y038179D01*
X036009Y038270D01*
X035771Y038270D01*
X035550Y038179D01*
X035390Y038019D01*
X035230Y038179D01*
X035009Y038270D01*
X034771Y038270D01*
X034550Y038179D01*
X034390Y038019D01*
X034230Y038179D01*
X034009Y038270D01*
X033771Y038270D01*
X033550Y038179D01*
X033390Y038019D01*
X033230Y038179D01*
X033009Y038270D01*
X032771Y038270D01*
X032550Y038179D01*
X032381Y038010D01*
X032290Y037789D01*
X032290Y036991D01*
X032373Y036790D01*
X029181Y036790D01*
X028615Y037356D01*
X028615Y037789D01*
X028524Y038010D01*
X028355Y038179D01*
X028134Y038270D01*
X027896Y038270D01*
X027675Y038179D01*
X027515Y038019D01*
X027355Y038179D01*
X027134Y038270D01*
X026896Y038270D01*
X026675Y038179D01*
X026515Y038019D01*
X026355Y038179D01*
X026134Y038270D01*
X025896Y038270D01*
X025675Y038179D01*
X025515Y038019D01*
X025355Y038179D01*
X025134Y038270D01*
X024896Y038270D01*
X024675Y038179D01*
X024515Y038019D01*
X024355Y038179D01*
X024248Y038223D01*
X023604Y038867D01*
X023492Y038979D01*
X023345Y039040D01*
X020685Y039040D01*
X020538Y038979D01*
X018663Y037104D01*
X018551Y036992D01*
X018490Y036845D01*
X018490Y012060D01*
X018551Y011913D01*
X020551Y009913D01*
X007405Y009913D01*
X007405Y009875D02*
X007030Y009500D01*
X006500Y009500D01*
X006265Y009735D01*
X006030Y009500D01*
X005500Y009500D01*
X005125Y009875D01*
X005125Y010405D01*
X005360Y010640D01*
X005125Y010875D01*
X005125Y011405D01*
X005360Y011640D01*
X005125Y011875D01*
X005125Y012405D01*
X005360Y012640D01*
X005125Y012875D01*
X005125Y013405D01*
X005360Y013640D01*
X005125Y013875D01*
X005125Y014405D01*
X005360Y014640D01*
X005125Y014875D01*
X005125Y015405D01*
X005360Y015640D01*
X005125Y015875D01*
X005125Y016405D01*
X005360Y016640D01*
X005125Y016875D01*
X005125Y017405D01*
X005500Y017780D01*
X006030Y017780D01*
X006265Y017545D01*
X006500Y017780D01*
X007030Y017780D01*
X007405Y017405D01*
X007405Y016875D01*
X007170Y016640D01*
X007405Y016405D01*
X007405Y015875D01*
X007170Y015640D01*
X007405Y015405D01*
X007405Y014875D01*
X007170Y014640D01*
X007405Y014405D01*
X007405Y013875D01*
X007170Y013640D01*
X007405Y013405D01*
X007405Y012875D01*
X007170Y012640D01*
X007405Y012405D01*
X007405Y011875D01*
X007170Y011640D01*
X007405Y011405D01*
X007405Y010875D01*
X007170Y010640D01*
X007405Y010405D01*
X007405Y009875D01*
X007285Y009755D02*
X020775Y009755D01*
X020810Y009740D02*
X041720Y009740D01*
X041867Y009801D01*
X042617Y010551D01*
X042623Y010557D01*
X042730Y010601D01*
X042897Y010768D01*
X042932Y010719D01*
X042999Y010652D01*
X043076Y010597D01*
X043160Y010554D01*
X043249Y010525D01*
X043343Y010510D01*
X043390Y010510D01*
X043437Y010510D01*
X043530Y010525D01*
X043620Y010554D01*
X043704Y010597D01*
X043781Y010652D01*
X043848Y010719D01*
X043903Y010796D01*
X043946Y010880D01*
X043975Y010969D01*
X043990Y011063D01*
X043990Y011390D01*
X043990Y011717D01*
X043975Y011810D01*
X043946Y011900D01*
X043903Y011984D01*
X043848Y012061D01*
X043781Y012128D01*
X043704Y012183D01*
X043620Y012226D01*
X043530Y012255D01*
X043437Y012270D01*
X043390Y012270D01*
X043390Y011390D01*
X043390Y011390D01*
X043990Y011390D01*
X043390Y011390D01*
X043390Y011390D01*
X043390Y012270D01*
X043343Y012270D01*
X043249Y012255D01*
X043160Y012226D01*
X043076Y012183D01*
X042999Y012128D01*
X042932Y012061D01*
X042897Y012012D01*
X042730Y012179D01*
X042509Y012270D01*
X042271Y012270D01*
X042050Y012179D01*
X041890Y012019D01*
X041730Y012179D01*
X041509Y012270D01*
X041271Y012270D01*
X041050Y012179D01*
X040890Y012019D01*
X040730Y012179D01*
X040509Y012270D01*
X040271Y012270D01*
X040221Y012250D01*
X039729Y012742D01*
X039617Y012854D01*
X039470Y012915D01*
X031764Y012915D01*
X031990Y013141D01*
X031990Y013390D01*
X031990Y013639D01*
X031639Y013990D01*
X031390Y013990D01*
X031390Y013390D01*
X031390Y013390D01*
X031990Y013390D01*
X031390Y013390D01*
X031390Y013390D01*
X031390Y013390D01*
X030790Y013390D01*
X030790Y013639D01*
X031141Y013990D01*
X031390Y013990D01*
X031390Y013390D01*
X030790Y013390D01*
X030790Y013141D01*
X031016Y012915D01*
X028681Y012915D01*
X028063Y013532D01*
X028230Y013601D01*
X028390Y013761D01*
X028550Y013601D01*
X028771Y013510D01*
X029009Y013510D01*
X029230Y013601D01*
X029390Y013761D01*
X029550Y013601D01*
X029771Y013510D01*
X030009Y013510D01*
X030230Y013601D01*
X030399Y013770D01*
X030490Y013991D01*
X030490Y014789D01*
X030399Y015010D01*
X030294Y015115D01*
X036986Y015115D01*
X036881Y015010D01*
X036790Y014789D01*
X036790Y013991D01*
X036881Y013770D01*
X037050Y013601D01*
X037271Y013510D01*
X037509Y013510D01*
X037730Y013601D01*
X037890Y013761D01*
X038050Y013601D01*
X038271Y013510D01*
X038509Y013510D01*
X038730Y013601D01*
X038890Y013761D01*
X039050Y013601D01*
X039271Y013510D01*
X039509Y013510D01*
X039559Y013530D01*
X040051Y013038D01*
X040163Y012926D01*
X040310Y012865D01*
X044087Y012865D01*
X044990Y011862D01*
X044990Y010046D01*
X044907Y009963D01*
X044820Y009753D01*
X044820Y009527D01*
X044907Y009317D01*
X045067Y009157D01*
X045277Y009070D01*
X045503Y009070D01*
X045713Y009157D01*
X045873Y009317D01*
X045960Y009527D01*
X045960Y009753D01*
X045873Y009963D01*
X045790Y010046D01*
X045790Y012004D01*
X045794Y012073D01*
X045790Y012084D01*
X045790Y012095D01*
X045764Y012158D01*
X045741Y012223D01*
X045733Y012232D01*
X045729Y012242D01*
X045680Y012290D01*
X044608Y013482D01*
X044604Y013492D01*
X044555Y013540D01*
X044509Y013592D01*
X044499Y013596D01*
X044492Y013604D01*
X044428Y013631D01*
X044365Y013660D01*
X044355Y013661D01*
X044345Y013665D01*
X044276Y013665D01*
X044207Y013669D01*
X044196Y013665D01*
X043794Y013665D01*
X043899Y013770D01*
X043990Y013991D01*
X043990Y014789D01*
X043899Y015010D01*
X043730Y015179D01*
X043509Y015270D01*
X043271Y015270D01*
X043050Y015179D01*
X042890Y015019D01*
X042730Y015179D01*
X042509Y015270D01*
X042271Y015270D01*
X042050Y015179D01*
X041890Y015019D01*
X041730Y015179D01*
X041509Y015270D01*
X041271Y015270D01*
X041050Y015179D01*
X040890Y015019D01*
X040790Y015119D01*
X040790Y019099D01*
X045221Y023530D01*
X045271Y023510D01*
X045490Y023510D01*
X045490Y023185D01*
X045551Y023038D01*
X046084Y022505D01*
X046067Y022498D01*
X045907Y022338D01*
X045820Y022128D01*
X045820Y021902D01*
X045907Y021692D01*
X045990Y021609D01*
X045990Y020310D01*
X046051Y020163D01*
X046163Y020051D01*
X048505Y017709D01*
X048503Y017710D01*
X048277Y017710D01*
X048067Y017623D01*
X047907Y017463D01*
X047820Y017253D01*
X047820Y017027D01*
X047907Y016817D01*
X047990Y016734D01*
X047990Y015262D01*
X047937Y015270D01*
X047890Y015270D01*
X047890Y014390D01*
X047890Y014390D01*
X047890Y014390D01*
X047290Y014390D01*
X047290Y014717D01*
X047305Y014810D01*
X047334Y014900D01*
X047377Y014984D01*
X047432Y015061D01*
X047499Y015128D01*
X047576Y015183D01*
X047660Y015226D01*
X047749Y015255D01*
X047843Y015270D01*
X047890Y015270D01*
X047890Y014390D01*
X047290Y014390D01*
X047290Y014063D01*
X047305Y013969D01*
X047334Y013880D01*
X047377Y013796D01*
X047432Y013719D01*
X047499Y013652D01*
X047576Y013597D01*
X047660Y013554D01*
X047749Y013525D01*
X047823Y013513D01*
X047663Y013354D01*
X047551Y013242D01*
X047490Y013095D01*
X047490Y012119D01*
X047381Y012010D01*
X047290Y011789D01*
X047290Y010991D01*
X047381Y010770D01*
X047543Y010609D01*
X045724Y008790D01*
X041060Y008790D01*
X040913Y008729D01*
X040163Y007979D01*
X040051Y007867D01*
X040015Y007780D01*
X039625Y007780D01*
X039390Y007545D01*
X039155Y007780D01*
X038625Y007780D01*
X038250Y007405D01*
X038250Y006875D01*
X038485Y006640D01*
X038250Y006405D01*
X038250Y005875D01*
X038335Y005790D01*
X034931Y005790D01*
X032710Y008011D01*
X040195Y008011D01*
X040045Y007853D02*
X032868Y007853D01*
X032710Y008011D02*
X032710Y008128D01*
X032623Y008338D01*
X032463Y008498D01*
X032253Y008585D01*
X032027Y008585D01*
X031817Y008498D01*
X031657Y008338D01*
X031570Y008128D01*
X031570Y007902D01*
X031657Y007692D01*
X031817Y007532D01*
X032027Y007445D01*
X032144Y007445D01*
X034426Y005163D01*
X034538Y005051D01*
X034685Y004990D01*
X034431Y005158D02*
X004270Y005158D01*
X004270Y005317D02*
X004823Y005317D01*
X004738Y005352D02*
X005080Y005210D01*
X005450Y005210D01*
X005792Y005352D01*
X006053Y005613D01*
X006195Y005955D01*
X006195Y006325D01*
X006053Y006667D01*
X005792Y006928D01*
X005450Y007070D01*
X005080Y007070D01*
X004738Y006928D01*
X004477Y006667D01*
X004335Y006325D01*
X004335Y005955D01*
X004477Y005613D01*
X004738Y005352D01*
X004615Y005475D02*
X004270Y005475D01*
X004270Y005634D02*
X004468Y005634D01*
X004403Y005792D02*
X004270Y005792D01*
X004270Y005951D02*
X004337Y005951D01*
X004335Y006109D02*
X004270Y006109D01*
X004270Y006268D02*
X004335Y006268D01*
X004377Y006426D02*
X004270Y006426D01*
X004270Y006585D02*
X004442Y006585D01*
X004553Y006743D02*
X004270Y006743D01*
X004270Y006902D02*
X004711Y006902D01*
X005056Y007060D02*
X004270Y007060D01*
X004270Y007219D02*
X006750Y007219D01*
X006750Y007160D02*
X007370Y007160D01*
X007370Y007780D01*
X007125Y007780D01*
X006750Y007405D01*
X006750Y007160D01*
X006750Y007120D02*
X006750Y006875D01*
X006985Y006640D01*
X006750Y006405D01*
X006750Y006160D01*
X007370Y006160D01*
X007370Y007120D01*
X006750Y007120D01*
X006750Y007060D02*
X005474Y007060D01*
X005819Y006902D02*
X006750Y006902D01*
X006882Y006743D02*
X005977Y006743D01*
X006088Y006585D02*
X006929Y006585D01*
X006771Y006426D02*
X006153Y006426D01*
X006195Y006268D02*
X006750Y006268D01*
X006750Y006120D02*
X006750Y005875D01*
X007125Y005500D01*
X007370Y005500D01*
X007370Y006120D01*
X007410Y006120D01*
X007410Y006160D01*
X007370Y006160D01*
X007370Y006120D01*
X006750Y006120D01*
X006750Y006109D02*
X006195Y006109D01*
X006193Y005951D02*
X006750Y005951D01*
X006833Y005792D02*
X006127Y005792D01*
X006062Y005634D02*
X006991Y005634D01*
X007370Y005634D02*
X007410Y005634D01*
X007410Y005500D02*
X007655Y005500D01*
X007890Y005735D01*
X008125Y005500D01*
X008370Y005500D01*
X008370Y006120D01*
X008410Y006120D01*
X008410Y006160D01*
X009030Y006160D01*
X009030Y006405D01*
X008795Y006640D01*
X009030Y006875D01*
X009030Y007120D01*
X008410Y007120D01*
X008410Y007160D01*
X009030Y007160D01*
X009030Y007405D01*
X008655Y007780D01*
X008410Y007780D01*
X008410Y007160D01*
X008370Y007160D01*
X008370Y007780D01*
X008125Y007780D01*
X007890Y007545D01*
X007655Y007780D01*
X007410Y007780D01*
X007410Y007160D01*
X007370Y007160D01*
X007370Y007120D01*
X007410Y007120D01*
X007410Y007160D01*
X008370Y007160D01*
X008370Y007120D01*
X007750Y007120D01*
X007410Y007120D01*
X007410Y006780D01*
X007410Y006160D01*
X008370Y006160D01*
X008370Y007120D01*
X008410Y007120D01*
X008410Y006500D01*
X008410Y006160D01*
X008370Y006160D01*
X008370Y006120D01*
X008030Y006120D01*
X007410Y006120D01*
X007410Y005500D01*
X007410Y005792D02*
X007370Y005792D01*
X007370Y005951D02*
X007410Y005951D01*
X007410Y006109D02*
X007370Y006109D01*
X007370Y006268D02*
X007410Y006268D01*
X007410Y006426D02*
X007370Y006426D01*
X007370Y006585D02*
X007410Y006585D01*
X007410Y006743D02*
X007370Y006743D01*
X007370Y006902D02*
X007410Y006902D01*
X007410Y007060D02*
X007370Y007060D01*
X007370Y007219D02*
X007410Y007219D01*
X007410Y007377D02*
X007370Y007377D01*
X007370Y007536D02*
X007410Y007536D01*
X007410Y007694D02*
X007370Y007694D01*
X007039Y007694D02*
X004270Y007694D01*
X004270Y007536D02*
X006880Y007536D01*
X006750Y007377D02*
X004270Y007377D01*
X004270Y007853D02*
X031590Y007853D01*
X031570Y008011D02*
X004270Y008011D01*
X004270Y008170D02*
X031587Y008170D01*
X031653Y008328D02*
X004270Y008328D01*
X004270Y008487D02*
X031805Y008487D01*
X032140Y008015D02*
X034765Y005390D01*
X050015Y005390D01*
X050390Y005765D01*
X050390Y006640D01*
X050890Y007140D01*
X051390Y007640D01*
X051390Y012515D01*
X050390Y013515D01*
X050390Y016390D01*
X046390Y020390D01*
X046390Y022015D01*
X045862Y021801D02*
X043491Y021801D01*
X043650Y021959D02*
X045820Y021959D01*
X045820Y022118D02*
X043808Y022118D01*
X043967Y022276D02*
X045881Y022276D01*
X046003Y022435D02*
X044125Y022435D01*
X044284Y022593D02*
X045996Y022593D01*
X045838Y022752D02*
X044442Y022752D01*
X044601Y022910D02*
X045679Y022910D01*
X045538Y023069D02*
X044759Y023069D01*
X044918Y023227D02*
X045490Y023227D01*
X045490Y023386D02*
X045076Y023386D01*
X045890Y023265D02*
X051765Y017390D01*
X055890Y017390D01*
X056390Y017890D01*
X056390Y019515D01*
X056890Y020015D01*
X058265Y020015D01*
X059890Y021640D01*
X059890Y021890D01*
X060890Y021890D02*
X061265Y021515D01*
X064265Y021515D01*
X064997Y021008D02*
X066502Y021008D01*
X066502Y020850D02*
X065139Y020850D01*
X065205Y020691D02*
X066502Y020691D01*
X066502Y020533D02*
X065225Y020533D01*
X065219Y020374D02*
X066502Y020374D01*
X066502Y020216D02*
X065154Y020216D01*
X065032Y020057D02*
X066502Y020057D01*
X066502Y019899D02*
X065107Y019899D01*
X065185Y019740D02*
X066502Y019740D01*
X066502Y019582D02*
X065225Y019582D01*
X065225Y019423D02*
X066502Y019423D01*
X066502Y019265D02*
X065174Y019265D01*
X065081Y019106D02*
X066502Y019106D01*
X066502Y018948D02*
X064887Y018948D01*
X064105Y018789D02*
X066502Y018789D01*
X066502Y018631D02*
X063946Y018631D01*
X063788Y018472D02*
X066502Y018472D01*
X066502Y018314D02*
X063629Y018314D01*
X063471Y018155D02*
X066502Y018155D01*
X066502Y017997D02*
X063312Y017997D01*
X063154Y017838D02*
X066502Y017838D01*
X066502Y017680D02*
X062995Y017680D01*
X062765Y018015D02*
X057640Y018015D01*
X056890Y018765D01*
X056890Y018890D01*
X056059Y019750D02*
X056009Y019770D01*
X055771Y019770D01*
X055550Y019679D01*
X055390Y019519D01*
X055230Y019679D01*
X055009Y019770D01*
X054790Y019770D01*
X054790Y021018D01*
X054843Y021010D01*
X054890Y021010D01*
X054937Y021010D01*
X055030Y021025D01*
X055120Y021054D01*
X055204Y021097D01*
X055281Y021152D01*
X055348Y021219D01*
X055383Y021268D01*
X055550Y021101D01*
X055771Y021010D01*
X056009Y021010D01*
X056230Y021101D01*
X056390Y021261D01*
X056550Y021101D01*
X056771Y021010D01*
X057009Y021010D01*
X057230Y021101D01*
X057390Y021261D01*
X057550Y021101D01*
X057771Y021010D01*
X058009Y021010D01*
X058230Y021101D01*
X058390Y021261D01*
X058550Y021101D01*
X058717Y021032D01*
X058099Y020415D01*
X056810Y020415D01*
X056663Y020354D01*
X056551Y020242D01*
X056059Y019750D01*
X056208Y019899D02*
X054790Y019899D01*
X054790Y020057D02*
X056366Y020057D01*
X056525Y020216D02*
X054790Y020216D01*
X054790Y020374D02*
X056712Y020374D01*
X056485Y021167D02*
X056295Y021167D01*
X055485Y021167D02*
X055295Y021167D01*
X054890Y021167D02*
X054890Y021167D01*
X054890Y021010D02*
X054890Y021890D01*
X054890Y021890D01*
X054890Y022770D01*
X054937Y022770D01*
X055030Y022755D01*
X055120Y022726D01*
X055204Y022683D01*
X055281Y022628D01*
X055348Y022561D01*
X055383Y022512D01*
X055550Y022679D01*
X055771Y022770D01*
X056009Y022770D01*
X056230Y022679D01*
X056390Y022519D01*
X056550Y022679D01*
X056771Y022770D01*
X057009Y022770D01*
X057230Y022679D01*
X057390Y022519D01*
X057550Y022679D01*
X057771Y022770D01*
X058009Y022770D01*
X058147Y022713D01*
X058538Y023104D01*
X058565Y023115D01*
X057685Y023115D01*
X057538Y023176D01*
X057147Y023567D01*
X057009Y023510D01*
X056771Y023510D01*
X056550Y023601D01*
X056390Y023761D01*
X056230Y023601D01*
X056009Y023510D01*
X055771Y023510D01*
X055550Y023601D01*
X055383Y023768D01*
X055348Y023719D01*
X055281Y023652D01*
X055204Y023597D01*
X055120Y023554D01*
X055030Y023525D01*
X054937Y023510D01*
X054890Y023510D01*
X054890Y024390D01*
X054890Y024390D01*
X054890Y025270D01*
X054937Y025270D01*
X055030Y025255D01*
X055120Y025226D01*
X055204Y025183D01*
X055281Y025128D01*
X055348Y025061D01*
X055383Y025012D01*
X055550Y025179D01*
X055771Y025270D01*
X056009Y025270D01*
X056230Y025179D01*
X056390Y025019D01*
X056550Y025179D01*
X056771Y025270D01*
X057009Y025270D01*
X057230Y025179D01*
X057397Y025012D01*
X057432Y025061D01*
X057499Y025128D01*
X057576Y025183D01*
X057660Y025226D01*
X057749Y025255D01*
X057843Y025270D01*
X057890Y025270D01*
X057890Y024390D01*
X057890Y024390D01*
X057890Y025270D01*
X057937Y025270D01*
X058030Y025255D01*
X058120Y025226D01*
X058204Y025183D01*
X058281Y025128D01*
X058348Y025061D01*
X058383Y025012D01*
X058550Y025179D01*
X058771Y025270D01*
X059009Y025270D01*
X059230Y025179D01*
X059390Y025019D01*
X059550Y025179D01*
X059771Y025270D01*
X060009Y025270D01*
X060147Y025213D01*
X060538Y025604D01*
X060685Y025665D01*
X063049Y025665D01*
X061724Y026990D01*
X061490Y026990D01*
X061399Y026770D01*
X061230Y026601D01*
X061009Y026510D01*
X060771Y026510D01*
X060550Y026601D01*
X060390Y026761D01*
X060230Y026601D01*
X060009Y026510D01*
X059771Y026510D01*
X059550Y026601D01*
X059383Y026768D01*
X059348Y026719D01*
X059281Y026652D01*
X059204Y026597D01*
X059120Y026554D01*
X059030Y026525D01*
X058937Y026510D01*
X058890Y026510D01*
X058890Y027390D01*
X058890Y027390D01*
X058890Y026510D01*
X058843Y026510D01*
X058749Y026525D01*
X058660Y026554D01*
X058576Y026597D01*
X058499Y026652D01*
X058432Y026719D01*
X058397Y026768D01*
X058230Y026601D01*
X058009Y026510D01*
X057771Y026510D01*
X057550Y026601D01*
X057390Y026761D01*
X057230Y026601D01*
X057009Y026510D01*
X056771Y026510D01*
X056550Y026601D01*
X056383Y026768D01*
X056348Y026719D01*
X056281Y026652D01*
X056204Y026597D01*
X056120Y026554D01*
X056030Y026525D01*
X055937Y026510D01*
X055890Y026510D01*
X055890Y027390D01*
X055890Y027390D01*
X055490Y027390D01*
X054890Y027390D01*
X054890Y027390D01*
X055890Y027390D01*
X055890Y027390D01*
X055890Y026510D01*
X055843Y026510D01*
X055749Y026525D01*
X055660Y026554D01*
X055576Y026597D01*
X055499Y026652D01*
X055432Y026719D01*
X055390Y026777D01*
X055348Y026719D01*
X055281Y026652D01*
X055204Y026597D01*
X055120Y026554D01*
X055030Y026525D01*
X054937Y026510D01*
X054890Y026510D01*
X054890Y027390D01*
X054890Y027390D01*
X054890Y026510D01*
X054843Y026510D01*
X054749Y026525D01*
X054660Y026554D01*
X054576Y026597D01*
X054499Y026652D01*
X054432Y026719D01*
X054397Y026768D01*
X054230Y026601D01*
X054009Y026510D01*
X053771Y026510D01*
X053550Y026601D01*
X053381Y026770D01*
X053323Y026910D01*
X052759Y026910D01*
X052639Y026790D01*
X052141Y026790D01*
X051790Y027141D01*
X051790Y027224D01*
X050540Y025974D01*
X050540Y023935D01*
X050479Y023788D01*
X050356Y023665D01*
X052599Y023665D01*
X053290Y024356D01*
X053290Y024789D01*
X053381Y025010D01*
X053550Y025179D01*
X053771Y025270D01*
X054009Y025270D01*
X054230Y025179D01*
X054397Y025012D01*
X054432Y025061D01*
X054499Y025128D01*
X054576Y025183D01*
X054660Y025226D01*
X054749Y025255D01*
X054843Y025270D01*
X054890Y025270D01*
X054890Y024390D01*
X054890Y024390D01*
X054890Y023510D01*
X054843Y023510D01*
X054790Y023518D01*
X054790Y022762D01*
X054843Y022770D01*
X054890Y022770D01*
X054890Y021890D01*
X054890Y021890D01*
X054890Y021010D01*
X054790Y021008D02*
X058692Y021008D01*
X058534Y020850D02*
X054790Y020850D01*
X054790Y020691D02*
X058375Y020691D01*
X058217Y020533D02*
X054790Y020533D01*
X053990Y020533D02*
X050688Y020533D01*
X050530Y020691D02*
X053990Y020691D01*
X053990Y020850D02*
X050371Y020850D01*
X050213Y021008D02*
X053990Y021008D01*
X053990Y021010D02*
X053990Y019770D01*
X053771Y019770D01*
X053550Y019679D01*
X053381Y019510D01*
X053290Y019289D01*
X053290Y018491D01*
X053381Y018270D01*
X053486Y018165D01*
X053056Y018165D01*
X048299Y022921D01*
X048435Y022865D01*
X052845Y022865D01*
X052992Y022926D01*
X053633Y023567D01*
X053771Y023510D01*
X053990Y023510D01*
X053990Y022770D01*
X053771Y022770D01*
X053550Y022679D01*
X053381Y022510D01*
X053323Y022370D01*
X052759Y022370D01*
X052639Y022490D01*
X052141Y022490D01*
X051790Y022139D01*
X051790Y021641D01*
X052141Y021290D01*
X052639Y021290D01*
X052759Y021410D01*
X053323Y021410D01*
X053381Y021270D01*
X053550Y021101D01*
X053771Y021010D01*
X053990Y021010D01*
X053485Y021167D02*
X050054Y021167D01*
X050141Y021290D02*
X050390Y021290D01*
X050639Y021290D01*
X050990Y021641D01*
X050990Y021890D01*
X050990Y022139D01*
X050639Y022490D01*
X050390Y022490D01*
X050390Y021890D01*
X050990Y021890D01*
X050390Y021890D01*
X050390Y021890D01*
X050390Y021890D01*
X050390Y021290D01*
X050390Y021890D01*
X050390Y021890D01*
X050390Y021890D01*
X049790Y021890D01*
X049790Y022139D01*
X050141Y022490D01*
X050390Y022490D01*
X050390Y021890D01*
X049790Y021890D01*
X049790Y021641D01*
X050141Y021290D01*
X050106Y021325D02*
X049896Y021325D01*
X049948Y021484D02*
X049737Y021484D01*
X049790Y021642D02*
X049579Y021642D01*
X049420Y021801D02*
X049790Y021801D01*
X049790Y021959D02*
X049262Y021959D01*
X049103Y022118D02*
X049790Y022118D01*
X049928Y022276D02*
X048945Y022276D01*
X048786Y022435D02*
X050086Y022435D01*
X050390Y022435D02*
X050390Y022435D01*
X050390Y022276D02*
X050390Y022276D01*
X050390Y022118D02*
X050390Y022118D01*
X050390Y021959D02*
X050390Y021959D01*
X050390Y021801D02*
X050390Y021801D01*
X050390Y021642D02*
X050390Y021642D01*
X050390Y021484D02*
X050390Y021484D01*
X050390Y021325D02*
X050390Y021325D01*
X050674Y021325D02*
X052106Y021325D01*
X051948Y021484D02*
X050832Y021484D01*
X050990Y021642D02*
X051790Y021642D01*
X051790Y021801D02*
X050990Y021801D01*
X050990Y021959D02*
X051790Y021959D01*
X051790Y022118D02*
X050990Y022118D01*
X050852Y022276D02*
X051928Y022276D01*
X052086Y022435D02*
X050694Y022435D01*
X050393Y023703D02*
X052637Y023703D01*
X052795Y023861D02*
X050509Y023861D01*
X050540Y024020D02*
X052954Y024020D01*
X053112Y024178D02*
X050540Y024178D01*
X050540Y024337D02*
X053271Y024337D01*
X053290Y024495D02*
X050540Y024495D01*
X050540Y024654D02*
X053290Y024654D01*
X053299Y024812D02*
X052661Y024812D01*
X052639Y024790D02*
X052990Y025141D01*
X052990Y025390D01*
X052990Y025639D01*
X052639Y025990D01*
X052390Y025990D01*
X052390Y025390D01*
X052390Y025390D01*
X052990Y025390D01*
X052390Y025390D01*
X052390Y025390D01*
X052390Y025390D01*
X051790Y025390D01*
X051790Y025639D01*
X052141Y025990D01*
X052390Y025990D01*
X052390Y025390D01*
X052390Y024790D01*
X052639Y024790D01*
X052390Y024790D02*
X052390Y025390D01*
X052390Y025390D01*
X051790Y025390D01*
X051790Y025141D01*
X052141Y024790D01*
X052390Y024790D01*
X052390Y024812D02*
X052390Y024812D01*
X052390Y024971D02*
X052390Y024971D01*
X052390Y025129D02*
X052390Y025129D01*
X052390Y025288D02*
X052390Y025288D01*
X052390Y025446D02*
X052390Y025446D01*
X052390Y025605D02*
X052390Y025605D01*
X052390Y025763D02*
X052390Y025763D01*
X052390Y025922D02*
X052390Y025922D01*
X052707Y025922D02*
X062793Y025922D01*
X062634Y026080D02*
X050646Y026080D01*
X050540Y025922D02*
X052073Y025922D01*
X051915Y025763D02*
X050540Y025763D01*
X050540Y025605D02*
X051790Y025605D01*
X051790Y025446D02*
X050540Y025446D01*
X050540Y025288D02*
X051790Y025288D01*
X051802Y025129D02*
X050540Y025129D01*
X050540Y024971D02*
X051961Y024971D01*
X052119Y024812D02*
X050540Y024812D01*
X049740Y025157D02*
X049704Y025183D01*
X049620Y025226D01*
X049530Y025255D01*
X049437Y025270D01*
X049390Y025270D01*
X049390Y024390D01*
X047890Y025890D01*
X047890Y028140D01*
X046390Y029640D01*
X047270Y029640D01*
X047270Y029687D01*
X047262Y029740D01*
X048510Y029740D01*
X048510Y029521D01*
X048601Y029300D01*
X048770Y029131D01*
X048991Y029040D01*
X049674Y029040D01*
X050115Y028599D01*
X050115Y027796D01*
X050032Y027713D01*
X049990Y027612D01*
X049990Y027789D01*
X049899Y028010D01*
X049730Y028179D01*
X049509Y028270D01*
X049271Y028270D01*
X049050Y028179D01*
X048890Y028019D01*
X048730Y028179D01*
X048509Y028270D01*
X048271Y028270D01*
X048050Y028179D01*
X047883Y028012D01*
X047848Y028061D01*
X047781Y028128D01*
X047704Y028183D01*
X047620Y028226D01*
X047530Y028255D01*
X047437Y028270D01*
X047390Y028270D01*
X047390Y027390D01*
X047390Y027390D01*
X047390Y028270D01*
X047343Y028270D01*
X047249Y028255D01*
X047160Y028226D01*
X047133Y028213D01*
X047117Y028229D01*
X046306Y029040D01*
X046390Y029040D01*
X046717Y029040D01*
X046810Y029055D01*
X046900Y029084D01*
X046984Y029127D01*
X047061Y029182D01*
X047128Y029249D01*
X047183Y029326D01*
X047226Y029410D01*
X047255Y029499D01*
X047270Y029593D01*
X047270Y029640D01*
X046390Y029640D01*
X046390Y029640D01*
X046390Y029040D01*
X046390Y029640D01*
X046390Y029640D01*
X046390Y029567D02*
X046390Y029567D01*
X046390Y029409D02*
X046390Y029409D01*
X046390Y029250D02*
X046390Y029250D01*
X046390Y029092D02*
X046390Y029092D01*
X046413Y028933D02*
X049781Y028933D01*
X049940Y028775D02*
X046571Y028775D01*
X046730Y028616D02*
X050098Y028616D01*
X050115Y028458D02*
X046888Y028458D01*
X047047Y028299D02*
X050115Y028299D01*
X050115Y028141D02*
X049768Y028141D01*
X049910Y027982D02*
X050115Y027982D01*
X050115Y027824D02*
X049976Y027824D01*
X049990Y027665D02*
X050012Y027665D01*
X049990Y027168D02*
X050032Y027067D01*
X050192Y026907D01*
X050297Y026863D01*
X049913Y026479D01*
X049801Y026367D01*
X049740Y026220D01*
X049740Y025157D01*
X049740Y025288D02*
X047290Y025288D01*
X047290Y025270D02*
X047290Y026518D01*
X047343Y026510D01*
X047390Y026510D01*
X047437Y026510D01*
X047530Y026525D01*
X047620Y026554D01*
X047704Y026597D01*
X047781Y026652D01*
X047848Y026719D01*
X047883Y026768D01*
X048050Y026601D01*
X048271Y026510D01*
X048509Y026510D01*
X048730Y026601D01*
X048890Y026761D01*
X049050Y026601D01*
X049271Y026510D01*
X049509Y026510D01*
X049730Y026601D01*
X049899Y026770D01*
X049990Y026991D01*
X049990Y027168D01*
X049990Y027031D02*
X050068Y027031D01*
X049941Y026873D02*
X050275Y026873D01*
X050148Y026714D02*
X049843Y026714D01*
X049990Y026556D02*
X049619Y026556D01*
X049831Y026397D02*
X047290Y026397D01*
X047390Y026510D02*
X047390Y027390D01*
X047390Y026510D01*
X047390Y026556D02*
X047390Y026556D01*
X047390Y026714D02*
X047390Y026714D01*
X047390Y026873D02*
X047390Y026873D01*
X047390Y027031D02*
X047390Y027031D01*
X047390Y027190D02*
X047390Y027190D01*
X047390Y027348D02*
X047390Y027348D01*
X047390Y027390D02*
X047390Y027390D01*
X047390Y027507D02*
X047390Y027507D01*
X047390Y027665D02*
X047390Y027665D01*
X047390Y027824D02*
X047390Y027824D01*
X047390Y027982D02*
X047390Y027982D01*
X047390Y028141D02*
X047390Y028141D01*
X047763Y028141D02*
X048012Y028141D01*
X048768Y028141D02*
X049012Y028141D01*
X048866Y029092D02*
X046915Y029092D01*
X047128Y029250D02*
X048651Y029250D01*
X048556Y029409D02*
X047225Y029409D01*
X047266Y029567D02*
X048510Y029567D01*
X048510Y029726D02*
X047264Y029726D01*
X045765Y030140D02*
X044890Y031015D01*
X044890Y035390D01*
X045640Y036140D01*
X047515Y036140D01*
X048015Y036640D01*
X049390Y036640D01*
X049390Y035640D02*
X048015Y035640D01*
X047515Y035140D01*
X045765Y035140D01*
X045390Y034765D01*
X045390Y031515D01*
X045765Y031140D01*
X059265Y031140D01*
X060265Y031140D02*
X062890Y031140D01*
X063531Y031628D02*
X066502Y031628D01*
X066502Y031786D02*
X063665Y031786D01*
X063738Y031945D02*
X066502Y031945D01*
X066502Y032103D02*
X063770Y032103D01*
X063769Y032262D02*
X066502Y032262D01*
X066502Y032420D02*
X063703Y032420D01*
X063580Y032579D02*
X066502Y032579D01*
X066502Y032737D02*
X063616Y032737D01*
X063718Y032896D02*
X066502Y032896D01*
X066502Y033054D02*
X063770Y033054D01*
X063770Y033213D02*
X066502Y033213D01*
X066502Y033371D02*
X063724Y033371D01*
X063629Y033530D02*
X066502Y033530D01*
X066502Y033688D02*
X063567Y033688D01*
X063698Y033847D02*
X066502Y033847D01*
X066502Y034005D02*
X063764Y034005D01*
X063770Y034164D02*
X066502Y034164D01*
X066502Y034322D02*
X063744Y034322D01*
X063678Y034481D02*
X066502Y034481D01*
X066502Y034639D02*
X063519Y034639D01*
X063676Y034798D02*
X066502Y034798D01*
X066502Y034956D02*
X063743Y034956D01*
X063770Y035115D02*
X066502Y035115D01*
X066502Y035273D02*
X063764Y035273D01*
X063699Y035432D02*
X066502Y035432D01*
X066502Y035590D02*
X063568Y035590D01*
X063627Y035749D02*
X066502Y035749D01*
X066502Y035907D02*
X063723Y035907D01*
X063770Y036066D02*
X066502Y036066D01*
X066502Y036224D02*
X063770Y036224D01*
X063719Y036383D02*
X066502Y036383D01*
X066502Y036541D02*
X063617Y036541D01*
X063578Y036700D02*
X066502Y036700D01*
X066502Y036858D02*
X063703Y036858D01*
X063768Y037017D02*
X066502Y037017D01*
X066502Y037175D02*
X063770Y037175D01*
X063739Y037334D02*
X066502Y037334D01*
X066502Y037492D02*
X063666Y037492D01*
X063505Y037651D02*
X066502Y037651D01*
X066502Y037809D02*
X050249Y037809D01*
X050270Y037651D02*
X058870Y037651D01*
X059265Y037140D02*
X048015Y037140D01*
X047515Y036640D01*
X046390Y036640D01*
X047054Y037175D02*
X047484Y037175D01*
X047643Y037334D02*
X047192Y037334D01*
X047258Y037492D02*
X047820Y037492D01*
X047270Y037651D02*
X048510Y037651D01*
X048531Y037809D02*
X047249Y037809D01*
X047184Y037968D02*
X048596Y037968D01*
X048748Y038126D02*
X047032Y038126D01*
X047163Y038285D02*
X048617Y038285D01*
X048542Y038443D02*
X047238Y038443D01*
X047270Y038602D02*
X048510Y038602D01*
X048510Y038760D02*
X047270Y038760D01*
X047204Y038919D02*
X048576Y038919D01*
X048699Y039077D02*
X047081Y039077D01*
X046800Y039236D02*
X048910Y039236D01*
X048910Y039394D02*
X032240Y039394D01*
X032240Y039236D02*
X045980Y039236D01*
X045699Y039077D02*
X032176Y039077D01*
X032017Y038919D02*
X045576Y038919D01*
X045510Y038760D02*
X031245Y038760D01*
X031245Y038602D02*
X045510Y038602D01*
X045542Y038443D02*
X031266Y038443D01*
X031424Y038285D02*
X045469Y038285D01*
X045310Y038126D02*
X042282Y038126D01*
X042416Y037968D02*
X045152Y037968D01*
X044993Y037809D02*
X042482Y037809D01*
X042490Y037651D02*
X044835Y037651D01*
X044676Y037492D02*
X042490Y037492D01*
X042512Y037334D02*
X044518Y037334D01*
X044359Y037175D02*
X042671Y037175D01*
X042829Y037017D02*
X044201Y037017D01*
X044042Y036858D02*
X042909Y036858D01*
X042915Y036700D02*
X043884Y036700D01*
X043725Y036541D02*
X042915Y036541D01*
X042915Y036383D02*
X043567Y036383D01*
X043492Y036224D02*
X042915Y036224D01*
X042915Y036066D02*
X043490Y036066D01*
X043490Y035907D02*
X042915Y035907D01*
X042915Y035749D02*
X043490Y035749D01*
X043490Y035590D02*
X042915Y035590D01*
X042915Y035432D02*
X043490Y035432D01*
X043490Y035273D02*
X042915Y035273D01*
X042915Y035115D02*
X043490Y035115D01*
X043490Y034956D02*
X042915Y034956D01*
X042915Y034798D02*
X043490Y034798D01*
X043490Y034639D02*
X042915Y034639D01*
X042915Y034481D02*
X043490Y034481D01*
X043490Y034322D02*
X042915Y034322D01*
X042915Y034164D02*
X043490Y034164D01*
X043490Y034005D02*
X042915Y034005D01*
X042915Y033847D02*
X043490Y033847D01*
X043490Y033688D02*
X042915Y033688D01*
X042915Y033530D02*
X043490Y033530D01*
X043490Y033371D02*
X042915Y033371D01*
X042915Y033213D02*
X043490Y033213D01*
X043490Y033054D02*
X042915Y033054D01*
X042915Y032896D02*
X043490Y032896D01*
X043490Y032737D02*
X042915Y032737D01*
X042915Y032579D02*
X043490Y032579D01*
X043490Y032420D02*
X042915Y032420D01*
X042915Y032262D02*
X043490Y032262D01*
X043490Y032103D02*
X042915Y032103D01*
X042915Y031945D02*
X043490Y031945D01*
X043490Y031786D02*
X042852Y031786D01*
X042693Y031628D02*
X043490Y031628D01*
X043490Y031469D02*
X043367Y031469D01*
X043015Y031015D02*
X043015Y030390D01*
X044890Y028515D01*
X044890Y026140D01*
X045890Y025140D01*
X045890Y023265D01*
X045390Y024265D02*
X045390Y024390D01*
X045390Y024265D02*
X040390Y019265D01*
X040390Y014390D01*
X039890Y013765D02*
X040390Y013265D01*
X044265Y013265D01*
X045390Y012015D01*
X045390Y009640D01*
X045923Y009438D02*
X046372Y009438D01*
X046530Y009596D02*
X045960Y009596D01*
X045960Y009755D02*
X046689Y009755D01*
X046847Y009913D02*
X045894Y009913D01*
X045790Y010072D02*
X047006Y010072D01*
X047164Y010230D02*
X045790Y010230D01*
X045790Y010389D02*
X047323Y010389D01*
X047481Y010547D02*
X045790Y010547D01*
X045790Y010706D02*
X047446Y010706D01*
X047342Y010864D02*
X045790Y010864D01*
X045790Y011023D02*
X047290Y011023D01*
X047290Y011181D02*
X045790Y011181D01*
X045790Y011340D02*
X047290Y011340D01*
X047290Y011498D02*
X045790Y011498D01*
X045790Y011657D02*
X047290Y011657D01*
X047301Y011815D02*
X045790Y011815D01*
X045790Y011974D02*
X047366Y011974D01*
X047490Y012132D02*
X045774Y012132D01*
X045680Y012291D02*
X047490Y012291D01*
X047490Y012449D02*
X045538Y012449D01*
X045395Y012608D02*
X047490Y012608D01*
X047490Y012766D02*
X045252Y012766D01*
X045110Y012925D02*
X047490Y012925D01*
X047490Y013083D02*
X044967Y013083D01*
X044824Y013242D02*
X047551Y013242D01*
X047709Y013400D02*
X044682Y013400D01*
X044539Y013559D02*
X046040Y013559D01*
X046067Y013532D02*
X046277Y013445D01*
X046503Y013445D01*
X046713Y013532D01*
X046873Y013692D01*
X046960Y013902D01*
X046960Y014128D01*
X046873Y014338D01*
X046713Y014498D01*
X046503Y014585D01*
X046386Y014585D01*
X042710Y018261D01*
X042710Y018378D01*
X042623Y018588D01*
X042463Y018748D01*
X042253Y018835D01*
X042027Y018835D01*
X041817Y018748D01*
X041657Y018588D01*
X041570Y018378D01*
X041570Y018152D01*
X041657Y017942D01*
X041817Y017782D01*
X042027Y017695D01*
X042144Y017695D01*
X045820Y014019D01*
X045820Y013902D01*
X045907Y013692D01*
X046067Y013532D01*
X045896Y013717D02*
X043846Y013717D01*
X043942Y013876D02*
X045831Y013876D01*
X045805Y014034D02*
X043990Y014034D01*
X043990Y014193D02*
X045647Y014193D01*
X045488Y014351D02*
X043990Y014351D01*
X043990Y014510D02*
X045330Y014510D01*
X045171Y014668D02*
X043990Y014668D01*
X043975Y014827D02*
X045013Y014827D01*
X044854Y014985D02*
X043909Y014985D01*
X043765Y015144D02*
X044696Y015144D01*
X044537Y015302D02*
X040790Y015302D01*
X040790Y015144D02*
X041015Y015144D01*
X040790Y015461D02*
X044379Y015461D01*
X044220Y015619D02*
X040790Y015619D01*
X040790Y015778D02*
X044062Y015778D01*
X043903Y015936D02*
X040790Y015936D01*
X040790Y016095D02*
X043745Y016095D01*
X043586Y016253D02*
X040790Y016253D01*
X040790Y016412D02*
X043428Y016412D01*
X043269Y016570D02*
X040790Y016570D01*
X040790Y016729D02*
X043111Y016729D01*
X042952Y016887D02*
X040790Y016887D01*
X040790Y017046D02*
X042794Y017046D01*
X042635Y017204D02*
X040790Y017204D01*
X040790Y017363D02*
X042477Y017363D01*
X042318Y017521D02*
X040790Y017521D01*
X040790Y017680D02*
X042160Y017680D01*
X041761Y017838D02*
X040790Y017838D01*
X040790Y017997D02*
X041634Y017997D01*
X041570Y018155D02*
X040790Y018155D01*
X040790Y018314D02*
X041570Y018314D01*
X041609Y018472D02*
X040790Y018472D01*
X040790Y018631D02*
X041699Y018631D01*
X041916Y018789D02*
X040790Y018789D01*
X040790Y018948D02*
X047267Y018948D01*
X047108Y019106D02*
X040797Y019106D01*
X040955Y019265D02*
X046950Y019265D01*
X046791Y019423D02*
X041114Y019423D01*
X041272Y019582D02*
X046633Y019582D01*
X046474Y019740D02*
X041431Y019740D01*
X041589Y019899D02*
X046316Y019899D01*
X046157Y020057D02*
X041748Y020057D01*
X041906Y020216D02*
X046029Y020216D01*
X045990Y020374D02*
X042065Y020374D01*
X042223Y020533D02*
X045990Y020533D01*
X045990Y020691D02*
X042382Y020691D01*
X042540Y020850D02*
X045990Y020850D01*
X045990Y021008D02*
X042699Y021008D01*
X042857Y021167D02*
X045990Y021167D01*
X045990Y021325D02*
X043016Y021325D01*
X043174Y021484D02*
X045990Y021484D01*
X045957Y021642D02*
X043333Y021642D01*
X042677Y022118D02*
X040290Y022118D01*
X040290Y022276D02*
X042835Y022276D01*
X042994Y022435D02*
X040290Y022435D01*
X040290Y022593D02*
X043152Y022593D01*
X043311Y022752D02*
X040290Y022752D01*
X040290Y022910D02*
X043469Y022910D01*
X043628Y023069D02*
X040290Y023069D01*
X040290Y023220D02*
X040229Y023367D01*
X040117Y023479D01*
X040061Y023535D01*
X040120Y023554D01*
X040204Y023597D01*
X040281Y023652D01*
X040348Y023719D01*
X040403Y023796D01*
X040446Y023880D01*
X040475Y023969D01*
X040490Y024063D01*
X040490Y024390D01*
X040490Y024717D01*
X040475Y024810D01*
X040446Y024900D01*
X040403Y024984D01*
X040348Y025061D01*
X040281Y025128D01*
X040204Y025183D01*
X040120Y025226D01*
X040061Y025245D01*
X041617Y026801D01*
X041686Y026870D01*
X041766Y026790D01*
X042264Y026790D01*
X042615Y027141D01*
X042615Y027639D01*
X042264Y027990D01*
X041790Y027990D01*
X041790Y028809D01*
X041942Y028657D01*
X042152Y028570D01*
X042378Y028570D01*
X042588Y028657D01*
X042671Y028740D01*
X042849Y028740D01*
X043319Y028270D01*
X043271Y028270D01*
X043050Y028179D01*
X042881Y028010D01*
X042790Y027789D01*
X042790Y026991D01*
X042881Y026770D01*
X042990Y026661D01*
X042990Y025119D01*
X042881Y025010D01*
X042790Y024789D01*
X042790Y023991D01*
X042881Y023770D01*
X043050Y023601D01*
X043271Y023510D01*
X043509Y023510D01*
X043730Y023601D01*
X043890Y023761D01*
X044050Y023601D01*
X044128Y023569D01*
X040290Y019731D01*
X040290Y023220D01*
X040287Y023227D02*
X043786Y023227D01*
X043945Y023386D02*
X040210Y023386D01*
X040090Y023544D02*
X043188Y023544D01*
X042949Y023703D02*
X040331Y023703D01*
X040437Y023861D02*
X042844Y023861D01*
X042790Y024020D02*
X040483Y024020D01*
X040490Y024178D02*
X042790Y024178D01*
X042790Y024337D02*
X040490Y024337D01*
X040490Y024390D02*
X039890Y024390D01*
X040490Y024390D01*
X040490Y024495D02*
X042790Y024495D01*
X042790Y024654D02*
X040490Y024654D01*
X040475Y024812D02*
X041744Y024812D01*
X041766Y024790D02*
X041415Y025141D01*
X041415Y025390D01*
X042015Y025390D01*
X042015Y025390D01*
X042015Y025990D01*
X042264Y025990D01*
X042615Y025639D01*
X042615Y025390D01*
X042015Y025390D01*
X042015Y025390D01*
X042015Y025390D01*
X042015Y025990D01*
X041766Y025990D01*
X041415Y025639D01*
X041415Y025390D01*
X042015Y025390D01*
X042615Y025390D01*
X042615Y025141D01*
X042264Y024790D01*
X042015Y024790D01*
X042015Y025390D01*
X042015Y025390D01*
X042015Y024790D01*
X041766Y024790D01*
X042015Y024812D02*
X042015Y024812D01*
X042015Y024971D02*
X042015Y024971D01*
X042015Y025129D02*
X042015Y025129D01*
X042015Y025288D02*
X042015Y025288D01*
X042015Y025446D02*
X042015Y025446D01*
X042015Y025605D02*
X042015Y025605D01*
X042015Y025763D02*
X042015Y025763D01*
X042015Y025922D02*
X042015Y025922D01*
X042332Y025922D02*
X042990Y025922D01*
X042990Y026080D02*
X040896Y026080D01*
X041054Y026239D02*
X042990Y026239D01*
X042990Y026397D02*
X041213Y026397D01*
X041371Y026556D02*
X042990Y026556D01*
X042937Y026714D02*
X041530Y026714D01*
X041617Y026801D02*
X041617Y026801D01*
X041390Y027140D02*
X041390Y030890D01*
X042515Y032015D01*
X042515Y036765D01*
X041890Y037390D01*
X041498Y038126D02*
X041282Y038126D01*
X040498Y038126D02*
X040282Y038126D01*
X039498Y038126D02*
X039282Y038126D01*
X038498Y038126D02*
X038282Y038126D01*
X037498Y038126D02*
X037282Y038126D01*
X036498Y038126D02*
X036282Y038126D01*
X035498Y038126D02*
X035282Y038126D01*
X034498Y038126D02*
X034282Y038126D01*
X033498Y038126D02*
X033282Y038126D01*
X032498Y038126D02*
X031583Y038126D01*
X031911Y037968D02*
X032364Y037968D01*
X032298Y037809D02*
X032069Y037809D01*
X032228Y037651D02*
X032290Y037651D01*
X032290Y037492D02*
X032240Y037492D01*
X032240Y037334D02*
X032290Y037334D01*
X032290Y037175D02*
X032240Y037175D01*
X032290Y037017D02*
X032115Y037017D01*
X031957Y036858D02*
X032345Y036858D01*
X031323Y036858D02*
X029113Y036858D01*
X028954Y037017D02*
X031165Y037017D01*
X031040Y037175D02*
X028796Y037175D01*
X028637Y037334D02*
X031018Y037334D01*
X030859Y037492D02*
X028615Y037492D01*
X028615Y037651D02*
X030701Y037651D01*
X030542Y037809D02*
X028607Y037809D01*
X028541Y037968D02*
X030384Y037968D01*
X030303Y038126D02*
X028407Y038126D01*
X028015Y037390D02*
X029015Y036390D01*
X039890Y036390D01*
X040890Y037390D01*
X041390Y036761D02*
X041550Y036601D01*
X041771Y036510D01*
X042009Y036510D01*
X042115Y036554D01*
X042115Y035228D01*
X042030Y035255D01*
X041937Y035270D01*
X041890Y035270D01*
X041890Y034390D01*
X041890Y034390D01*
X041890Y035270D01*
X041843Y035270D01*
X041749Y035255D01*
X041660Y035226D01*
X041576Y035183D01*
X041499Y035128D01*
X041432Y035061D01*
X041397Y035012D01*
X041230Y035179D01*
X041009Y035270D01*
X040771Y035270D01*
X040633Y035213D01*
X039856Y035990D01*
X039970Y035990D01*
X040117Y036051D01*
X040229Y036163D01*
X040633Y036567D01*
X040771Y036510D01*
X041009Y036510D01*
X041230Y036601D01*
X041390Y036761D01*
X041328Y036700D02*
X041452Y036700D01*
X041696Y036541D02*
X041084Y036541D01*
X040696Y036541D02*
X040607Y036541D01*
X040448Y036383D02*
X042115Y036383D01*
X042115Y036541D02*
X042084Y036541D01*
X042115Y036224D02*
X040290Y036224D01*
X040131Y036066D02*
X042115Y036066D01*
X042115Y035907D02*
X039939Y035907D01*
X040097Y035749D02*
X042115Y035749D01*
X042115Y035590D02*
X040256Y035590D01*
X040414Y035432D02*
X042115Y035432D01*
X042115Y035273D02*
X040573Y035273D01*
X041294Y035115D02*
X041486Y035115D01*
X041890Y035115D02*
X041890Y035115D01*
X041890Y034956D02*
X041890Y034956D01*
X041890Y034798D02*
X041890Y034798D01*
X041890Y034639D02*
X041890Y034639D01*
X041890Y034481D02*
X041890Y034481D01*
X041890Y034390D02*
X041890Y033510D01*
X041937Y033510D01*
X042030Y033525D01*
X042115Y033552D01*
X042115Y032181D01*
X041051Y031117D01*
X040990Y030970D01*
X040990Y027306D01*
X038954Y025270D01*
X038790Y025270D01*
X038790Y025724D01*
X039633Y026567D01*
X039771Y026510D01*
X040009Y026510D01*
X040230Y026601D01*
X040399Y026770D01*
X040490Y026991D01*
X040490Y027789D01*
X040399Y028010D01*
X040230Y028179D01*
X040009Y028270D01*
X039771Y028270D01*
X039550Y028179D01*
X039390Y028019D01*
X039230Y028179D01*
X039009Y028270D01*
X038771Y028270D01*
X038550Y028179D01*
X038390Y028019D01*
X038230Y028179D01*
X038009Y028270D01*
X037951Y028270D01*
X036104Y030117D01*
X035992Y030229D01*
X035845Y030290D01*
X026671Y030290D01*
X026665Y030296D01*
X026665Y033611D01*
X026675Y033601D01*
X026896Y033510D01*
X027134Y033510D01*
X027355Y033601D01*
X027515Y033761D01*
X027675Y033601D01*
X027896Y033510D01*
X028134Y033510D01*
X028355Y033601D01*
X028524Y033770D01*
X028615Y033991D01*
X028615Y034789D01*
X028524Y035010D01*
X028355Y035179D01*
X028207Y035240D01*
X032698Y035240D01*
X032550Y035179D01*
X032381Y035010D01*
X032290Y034789D01*
X032290Y033991D01*
X032381Y033770D01*
X032550Y033601D01*
X032771Y033510D01*
X033009Y033510D01*
X033230Y033601D01*
X033390Y033761D01*
X033550Y033601D01*
X033771Y033510D01*
X034009Y033510D01*
X034230Y033601D01*
X034390Y033761D01*
X034550Y033601D01*
X034771Y033510D01*
X035009Y033510D01*
X035230Y033601D01*
X035390Y033761D01*
X035550Y033601D01*
X035771Y033510D01*
X036009Y033510D01*
X036230Y033601D01*
X036390Y033761D01*
X036550Y033601D01*
X036771Y033510D01*
X037009Y033510D01*
X037230Y033601D01*
X037390Y033761D01*
X037550Y033601D01*
X037771Y033510D01*
X038009Y033510D01*
X038230Y033601D01*
X038390Y033761D01*
X038550Y033601D01*
X038771Y033510D01*
X039009Y033510D01*
X039230Y033601D01*
X039390Y033761D01*
X039550Y033601D01*
X039771Y033510D01*
X040009Y033510D01*
X040230Y033601D01*
X040390Y033761D01*
X040550Y033601D01*
X040771Y033510D01*
X041009Y033510D01*
X041230Y033601D01*
X041397Y033768D01*
X041432Y033719D01*
X041499Y033652D01*
X041576Y033597D01*
X041660Y033554D01*
X041749Y033525D01*
X041843Y033510D01*
X041890Y033510D01*
X041890Y034390D01*
X041890Y034390D01*
X041890Y034322D02*
X041890Y034322D01*
X041890Y034164D02*
X041890Y034164D01*
X041890Y034005D02*
X041890Y034005D01*
X041890Y033847D02*
X041890Y033847D01*
X041890Y033688D02*
X041890Y033688D01*
X041890Y033530D02*
X041890Y033530D01*
X042045Y033530D02*
X042115Y033530D01*
X042115Y033371D02*
X026665Y033371D01*
X026665Y033213D02*
X042115Y033213D01*
X042115Y033054D02*
X026665Y033054D01*
X026665Y032896D02*
X028922Y032896D01*
X029016Y032990D02*
X028665Y032639D01*
X028665Y032390D01*
X029265Y032390D01*
X029265Y032390D01*
X029265Y032990D01*
X029514Y032990D01*
X029865Y032639D01*
X029865Y032390D01*
X029265Y032390D01*
X029265Y032390D01*
X029265Y032390D01*
X029265Y032990D01*
X029016Y032990D01*
X029265Y032896D02*
X029265Y032896D01*
X029265Y032737D02*
X029265Y032737D01*
X029265Y032579D02*
X029265Y032579D01*
X029265Y032420D02*
X029265Y032420D01*
X029265Y032390D02*
X028665Y032390D01*
X028665Y032141D01*
X029016Y031790D01*
X029265Y031790D01*
X029514Y031790D01*
X029865Y032141D01*
X029865Y032390D01*
X029265Y032390D01*
X029265Y031790D01*
X029265Y032390D01*
X029265Y032390D01*
X029265Y032262D02*
X029265Y032262D01*
X029265Y032103D02*
X029265Y032103D01*
X029265Y031945D02*
X029265Y031945D01*
X029668Y031945D02*
X041879Y031945D01*
X042037Y032103D02*
X029827Y032103D01*
X029865Y032262D02*
X042115Y032262D01*
X042115Y032420D02*
X029865Y032420D01*
X029865Y032579D02*
X042115Y032579D01*
X042115Y032737D02*
X029766Y032737D01*
X029608Y032896D02*
X042115Y032896D01*
X041735Y033530D02*
X041057Y033530D01*
X041317Y033688D02*
X041463Y033688D01*
X040723Y033530D02*
X040057Y033530D01*
X040317Y033688D02*
X040463Y033688D01*
X039723Y033530D02*
X039057Y033530D01*
X039317Y033688D02*
X039463Y033688D01*
X038723Y033530D02*
X038057Y033530D01*
X038317Y033688D02*
X038463Y033688D01*
X037723Y033530D02*
X037057Y033530D01*
X037317Y033688D02*
X037463Y033688D01*
X036723Y033530D02*
X036057Y033530D01*
X036317Y033688D02*
X036463Y033688D01*
X035723Y033530D02*
X035057Y033530D01*
X035317Y033688D02*
X035463Y033688D01*
X034723Y033530D02*
X034057Y033530D01*
X034317Y033688D02*
X034463Y033688D01*
X033723Y033530D02*
X033057Y033530D01*
X033317Y033688D02*
X033463Y033688D01*
X032723Y033530D02*
X028182Y033530D01*
X028442Y033688D02*
X032463Y033688D01*
X032350Y033847D02*
X029570Y033847D01*
X029514Y033790D02*
X029865Y034141D01*
X029865Y034639D01*
X029514Y034990D01*
X029016Y034990D01*
X028665Y034639D01*
X028665Y034141D01*
X029016Y033790D01*
X029514Y033790D01*
X029729Y034005D02*
X032290Y034005D01*
X032290Y034164D02*
X029865Y034164D01*
X029865Y034322D02*
X032290Y034322D01*
X032290Y034481D02*
X029865Y034481D01*
X029864Y034639D02*
X032290Y034639D01*
X032293Y034798D02*
X029706Y034798D01*
X029547Y034956D02*
X032359Y034956D01*
X032486Y035115D02*
X028419Y035115D01*
X028546Y034956D02*
X028983Y034956D01*
X028824Y034798D02*
X028612Y034798D01*
X028615Y034639D02*
X028666Y034639D01*
X028665Y034481D02*
X028615Y034481D01*
X028615Y034322D02*
X028665Y034322D01*
X028665Y034164D02*
X028615Y034164D01*
X028615Y034005D02*
X028801Y034005D01*
X028960Y033847D02*
X028555Y033847D01*
X027848Y033530D02*
X027182Y033530D01*
X027442Y033688D02*
X027588Y033688D01*
X026848Y033530D02*
X026665Y033530D01*
X026265Y034140D02*
X026015Y034390D01*
X026265Y034140D02*
X026265Y029890D01*
X035765Y029890D01*
X037890Y027765D01*
X037890Y027390D01*
X038268Y028141D02*
X038512Y028141D01*
X037922Y028299D02*
X040990Y028299D01*
X040990Y028141D02*
X040268Y028141D01*
X040410Y027982D02*
X040990Y027982D01*
X040990Y027824D02*
X040476Y027824D01*
X040490Y027665D02*
X040990Y027665D01*
X040990Y027507D02*
X040490Y027507D01*
X040490Y027348D02*
X040990Y027348D01*
X040874Y027190D02*
X040490Y027190D01*
X040490Y027031D02*
X040715Y027031D01*
X040557Y026873D02*
X040441Y026873D01*
X040398Y026714D02*
X040343Y026714D01*
X040240Y026556D02*
X040119Y026556D01*
X040081Y026397D02*
X039463Y026397D01*
X039621Y026556D02*
X039661Y026556D01*
X039923Y026239D02*
X039304Y026239D01*
X039146Y026080D02*
X039764Y026080D01*
X039606Y025922D02*
X038987Y025922D01*
X038829Y025763D02*
X039447Y025763D01*
X039289Y025605D02*
X038790Y025605D01*
X038790Y025446D02*
X039130Y025446D01*
X038972Y025288D02*
X038790Y025288D01*
X038890Y024640D02*
X038890Y024390D01*
X038890Y024140D01*
X039890Y023140D01*
X039890Y013765D01*
X039689Y013400D02*
X036249Y013400D01*
X036139Y013290D02*
X036490Y013641D01*
X036490Y014139D01*
X036139Y014490D01*
X035641Y014490D01*
X035290Y014139D01*
X035290Y013641D01*
X035641Y013290D01*
X036139Y013290D01*
X036407Y013559D02*
X037154Y013559D01*
X036934Y013717D02*
X036490Y013717D01*
X036490Y013876D02*
X036838Y013876D01*
X036790Y014034D02*
X036490Y014034D01*
X036436Y014193D02*
X036790Y014193D01*
X036790Y014351D02*
X036278Y014351D01*
X036790Y014510D02*
X030490Y014510D01*
X030490Y014668D02*
X036790Y014668D01*
X036805Y014827D02*
X030475Y014827D01*
X030409Y014985D02*
X036871Y014985D01*
X038265Y015515D02*
X039390Y014390D01*
X039390Y017265D01*
X038390Y018265D01*
X038390Y025890D01*
X039890Y027390D01*
X038890Y027390D01*
X039268Y028141D02*
X039512Y028141D01*
X040990Y028458D02*
X037763Y028458D01*
X037605Y028616D02*
X040990Y028616D01*
X040990Y028775D02*
X037446Y028775D01*
X037288Y028933D02*
X040990Y028933D01*
X040990Y029092D02*
X037129Y029092D01*
X036971Y029250D02*
X040990Y029250D01*
X040990Y029409D02*
X036812Y029409D01*
X036654Y029567D02*
X040990Y029567D01*
X040990Y029726D02*
X036495Y029726D01*
X036337Y029884D02*
X040990Y029884D01*
X040990Y030043D02*
X036178Y030043D01*
X036020Y030201D02*
X040990Y030201D01*
X040990Y030360D02*
X026665Y030360D01*
X026665Y030518D02*
X040990Y030518D01*
X040990Y030677D02*
X026665Y030677D01*
X026665Y030835D02*
X040990Y030835D01*
X041000Y030994D02*
X026665Y030994D01*
X026665Y031152D02*
X041086Y031152D01*
X041245Y031311D02*
X026665Y031311D01*
X026665Y031469D02*
X041403Y031469D01*
X041562Y031628D02*
X026665Y031628D01*
X026665Y031786D02*
X041720Y031786D01*
X042218Y031152D02*
X042455Y031152D01*
X042445Y030994D02*
X042059Y030994D01*
X041901Y030835D02*
X042473Y030835D01*
X042547Y030677D02*
X041790Y030677D01*
X041790Y030518D02*
X042615Y030518D01*
X042615Y030360D02*
X041790Y030360D01*
X041790Y030201D02*
X042660Y030201D01*
X042797Y030043D02*
X041790Y030043D01*
X041790Y029884D02*
X042955Y029884D01*
X043114Y029726D02*
X041790Y029726D01*
X041790Y029567D02*
X041886Y029567D01*
X042265Y029140D02*
X043015Y029140D01*
X043890Y028265D01*
X043890Y024890D01*
X044390Y024390D01*
X043949Y023703D02*
X043831Y023703D01*
X043592Y023544D02*
X044103Y023544D01*
X043390Y024390D02*
X043390Y027390D01*
X042790Y027348D02*
X042615Y027348D01*
X042615Y027190D02*
X042790Y027190D01*
X042790Y027031D02*
X042505Y027031D01*
X042346Y026873D02*
X042839Y026873D01*
X042790Y027507D02*
X042615Y027507D01*
X042588Y027665D02*
X042790Y027665D01*
X042804Y027824D02*
X042430Y027824D01*
X042271Y027982D02*
X042870Y027982D01*
X043012Y028141D02*
X041790Y028141D01*
X041790Y028299D02*
X043290Y028299D01*
X043132Y028458D02*
X041790Y028458D01*
X041790Y028616D02*
X042040Y028616D01*
X041824Y028775D02*
X041790Y028775D01*
X042490Y028616D02*
X042973Y028616D01*
X043629Y029092D02*
X043748Y029092D01*
X043788Y028933D02*
X043906Y028933D01*
X043946Y028775D02*
X044065Y028775D01*
X044105Y028616D02*
X044223Y028616D01*
X044243Y028458D02*
X044382Y028458D01*
X044290Y028299D02*
X044490Y028299D01*
X044390Y028141D02*
X044390Y028141D01*
X044390Y027982D02*
X044390Y027982D01*
X044390Y027824D02*
X044390Y027824D01*
X044390Y027665D02*
X044390Y027665D01*
X044390Y027507D02*
X044390Y027507D01*
X044390Y027390D02*
X044390Y026510D01*
X044437Y026510D01*
X044490Y026518D01*
X044490Y026060D01*
X044551Y025913D01*
X045217Y025248D01*
X045050Y025179D01*
X044890Y025019D01*
X044730Y025179D01*
X044509Y025270D01*
X044290Y025270D01*
X044290Y026518D01*
X044343Y026510D01*
X044390Y026510D01*
X044390Y027390D01*
X044390Y027390D01*
X044390Y027348D02*
X044390Y027348D01*
X044390Y027190D02*
X044390Y027190D01*
X044390Y027031D02*
X044390Y027031D01*
X044390Y026873D02*
X044390Y026873D01*
X044390Y026714D02*
X044390Y026714D01*
X044390Y026556D02*
X044390Y026556D01*
X044290Y026397D02*
X044490Y026397D01*
X044490Y026239D02*
X044290Y026239D01*
X044290Y026080D02*
X044490Y026080D01*
X044548Y025922D02*
X044290Y025922D01*
X044290Y025763D02*
X044701Y025763D01*
X044860Y025605D02*
X044290Y025605D01*
X044290Y025446D02*
X045018Y025446D01*
X045177Y025288D02*
X044290Y025288D01*
X044779Y025129D02*
X045001Y025129D01*
X045490Y026106D02*
X045290Y026306D01*
X045290Y026518D01*
X045343Y026510D01*
X045390Y026510D01*
X045437Y026510D01*
X045490Y026518D01*
X045490Y026106D01*
X045490Y026239D02*
X045357Y026239D01*
X045290Y026397D02*
X045490Y026397D01*
X045390Y026510D02*
X045390Y027390D01*
X045390Y027390D01*
X045390Y026510D01*
X045390Y026556D02*
X045390Y026556D01*
X045390Y026714D02*
X045390Y026714D01*
X045390Y026873D02*
X045390Y026873D01*
X045390Y027031D02*
X045390Y027031D01*
X045390Y027190D02*
X045390Y027190D01*
X045390Y027348D02*
X045390Y027348D01*
X046390Y027348D02*
X046390Y027348D01*
X046390Y027390D02*
X046390Y026510D01*
X046437Y026510D01*
X046490Y026518D01*
X046490Y026106D01*
X046290Y026306D01*
X046290Y026518D01*
X046343Y026510D01*
X046390Y026510D01*
X046390Y027390D01*
X046390Y027390D01*
X046390Y027190D02*
X046390Y027190D01*
X046390Y027031D02*
X046390Y027031D01*
X046390Y026873D02*
X046390Y026873D01*
X046390Y026714D02*
X046390Y026714D01*
X046390Y026556D02*
X046390Y026556D01*
X046290Y026397D02*
X046490Y026397D01*
X046490Y026239D02*
X046357Y026239D01*
X045890Y026140D02*
X046390Y025640D01*
X046390Y024390D01*
X046890Y023765D02*
X052890Y017765D01*
X055140Y017765D01*
X055890Y018515D01*
X055890Y018890D01*
X055453Y019582D02*
X055327Y019582D01*
X055082Y019740D02*
X055698Y019740D01*
X054390Y019390D02*
X053890Y018890D01*
X053290Y018948D02*
X052273Y018948D01*
X052115Y019106D02*
X053290Y019106D01*
X053290Y019265D02*
X051956Y019265D01*
X051798Y019423D02*
X053345Y019423D01*
X053453Y019582D02*
X051639Y019582D01*
X051481Y019740D02*
X053698Y019740D01*
X053990Y019899D02*
X051322Y019899D01*
X051164Y020057D02*
X053990Y020057D01*
X053990Y020216D02*
X051005Y020216D01*
X050847Y020374D02*
X053990Y020374D01*
X054390Y019390D02*
X054390Y023890D01*
X053890Y024390D01*
X052765Y023265D01*
X048515Y023265D01*
X047390Y024390D01*
X046890Y023765D02*
X046890Y027890D01*
X044390Y030390D01*
X044390Y035640D01*
X046390Y037640D01*
X046390Y038640D02*
X043890Y036140D01*
X043890Y030265D01*
X045890Y028265D01*
X045890Y026140D01*
X047290Y026080D02*
X049740Y026080D01*
X049740Y025922D02*
X047290Y025922D01*
X047290Y025763D02*
X049740Y025763D01*
X049740Y025605D02*
X047290Y025605D01*
X047290Y025446D02*
X049740Y025446D01*
X049390Y025270D02*
X049343Y025270D01*
X049249Y025255D01*
X049160Y025226D01*
X049076Y025183D01*
X048999Y025128D01*
X048932Y025061D01*
X048897Y025012D01*
X048730Y025179D01*
X048509Y025270D01*
X048271Y025270D01*
X048050Y025179D01*
X047890Y025019D01*
X047730Y025179D01*
X047509Y025270D01*
X047290Y025270D01*
X047779Y025129D02*
X048001Y025129D01*
X048779Y025129D02*
X049001Y025129D01*
X049390Y025129D02*
X049390Y025129D01*
X049390Y025270D02*
X049390Y024390D01*
X049390Y024390D01*
X049390Y024495D02*
X049390Y024495D01*
X049390Y024654D02*
X049390Y024654D01*
X049390Y024812D02*
X049390Y024812D01*
X049390Y024971D02*
X049390Y024971D01*
X048390Y024390D02*
X048390Y024265D01*
X049015Y023640D01*
X049765Y023640D01*
X050140Y024015D01*
X050140Y026140D01*
X052640Y028640D01*
X061640Y028640D01*
X062765Y027515D01*
X064265Y027515D01*
X063783Y028141D02*
X062705Y028141D01*
X062547Y028299D02*
X066502Y028299D01*
X066502Y028141D02*
X064747Y028141D01*
X065023Y027982D02*
X066502Y027982D01*
X066502Y027824D02*
X065150Y027824D01*
X065216Y027665D02*
X066502Y027665D01*
X066502Y027507D02*
X065225Y027507D01*
X065209Y027348D02*
X066502Y027348D01*
X066502Y027190D02*
X065143Y027190D01*
X065006Y027031D02*
X066502Y027031D01*
X066502Y026873D02*
X065130Y026873D01*
X065195Y026714D02*
X066502Y026714D01*
X066502Y026556D02*
X065225Y026556D01*
X065225Y026397D02*
X066502Y026397D01*
X066502Y026239D02*
X065163Y026239D01*
X065055Y026080D02*
X066502Y026080D01*
X066502Y025922D02*
X065084Y025922D01*
X065175Y025763D02*
X066502Y025763D01*
X066502Y025605D02*
X065225Y025605D01*
X065225Y025446D02*
X066502Y025446D01*
X066502Y025288D02*
X065184Y025288D01*
X065104Y025129D02*
X066502Y025129D01*
X066502Y024971D02*
X065035Y024971D01*
X065155Y024812D02*
X066502Y024812D01*
X066502Y024654D02*
X065220Y024654D01*
X065225Y024495D02*
X066502Y024495D01*
X066502Y024337D02*
X065204Y024337D01*
X065138Y024178D02*
X066502Y024178D01*
X066502Y024020D02*
X064995Y024020D01*
X065134Y023861D02*
X066502Y023861D01*
X066502Y023703D02*
X065200Y023703D01*
X065225Y023544D02*
X066502Y023544D01*
X066502Y023386D02*
X065224Y023386D01*
X065158Y023227D02*
X066502Y023227D01*
X066502Y023069D02*
X065044Y023069D01*
X065095Y022910D02*
X066502Y022910D01*
X066502Y022752D02*
X065180Y022752D01*
X065225Y022593D02*
X066502Y022593D01*
X066502Y022435D02*
X065225Y022435D01*
X065179Y022276D02*
X066502Y022276D01*
X066502Y022118D02*
X065093Y022118D01*
X065046Y021959D02*
X066502Y021959D01*
X066502Y021801D02*
X065159Y021801D01*
X065199Y021325D02*
X066502Y021325D01*
X066502Y021167D02*
X065133Y021167D01*
X064265Y020515D02*
X061390Y020515D01*
X059890Y019015D01*
X059890Y018890D01*
X060890Y018890D02*
X061490Y018890D01*
X061490Y019217D01*
X061475Y019310D01*
X061446Y019400D01*
X061403Y019484D01*
X061348Y019561D01*
X061281Y019628D01*
X061204Y019683D01*
X061151Y019710D01*
X061556Y020115D01*
X063440Y020115D01*
X063540Y020015D01*
X063402Y019878D01*
X063305Y019642D01*
X063305Y019388D01*
X063383Y019199D01*
X062599Y018415D01*
X061458Y018415D01*
X061475Y018469D01*
X061490Y018563D01*
X061490Y018890D01*
X060890Y018890D01*
X060890Y018890D01*
X061490Y018948D02*
X063132Y018948D01*
X063290Y019106D02*
X061490Y019106D01*
X061483Y019265D02*
X063356Y019265D01*
X063305Y019423D02*
X061434Y019423D01*
X061327Y019582D02*
X063305Y019582D01*
X063345Y019740D02*
X061181Y019740D01*
X061339Y019899D02*
X063423Y019899D01*
X063498Y020057D02*
X061498Y020057D01*
X061490Y018789D02*
X062973Y018789D01*
X062815Y018631D02*
X061490Y018631D01*
X061476Y018472D02*
X062656Y018472D01*
X062765Y018015D02*
X064265Y019515D01*
X066502Y017521D02*
X060789Y017521D01*
X060905Y017363D02*
X066502Y017363D01*
X066502Y017204D02*
X060905Y017204D01*
X060905Y017046D02*
X066502Y017046D01*
X066502Y016887D02*
X060905Y016887D01*
X060759Y016729D02*
X066502Y016729D01*
X066502Y016570D02*
X060740Y016570D01*
X060899Y016412D02*
X066502Y016412D01*
X066502Y016253D02*
X060905Y016253D01*
X060905Y016095D02*
X066502Y016095D01*
X066502Y015936D02*
X060905Y015936D01*
X060808Y015778D02*
X066502Y015778D01*
X066502Y015619D02*
X060691Y015619D01*
X060850Y015461D02*
X066502Y015461D01*
X066502Y015302D02*
X060905Y015302D01*
X060905Y015144D02*
X066502Y015144D01*
X066502Y014985D02*
X060905Y014985D01*
X060857Y014827D02*
X066502Y014827D01*
X066502Y014668D02*
X060698Y014668D01*
X060801Y014510D02*
X066502Y014510D01*
X066502Y014351D02*
X060905Y014351D01*
X060905Y014193D02*
X066502Y014193D01*
X066502Y014034D02*
X060905Y014034D01*
X060905Y013876D02*
X066502Y013876D01*
X066502Y013717D02*
X060747Y013717D01*
X060752Y013559D02*
X066502Y013559D01*
X066502Y013400D02*
X060905Y013400D01*
X060905Y013242D02*
X066502Y013242D01*
X066502Y013083D02*
X060905Y013083D01*
X060905Y012925D02*
X066502Y012925D01*
X066502Y012766D02*
X060796Y012766D01*
X060703Y012608D02*
X066502Y012608D01*
X066502Y012449D02*
X060861Y012449D01*
X060905Y012291D02*
X066502Y012291D01*
X066502Y012132D02*
X060905Y012132D01*
X060905Y011974D02*
X066502Y011974D01*
X066502Y011815D02*
X060845Y011815D01*
X060687Y011657D02*
X066502Y011657D01*
X066502Y011498D02*
X060812Y011498D01*
X060905Y011340D02*
X066502Y011340D01*
X066502Y011181D02*
X060905Y011181D01*
X060905Y011023D02*
X066502Y011023D01*
X066502Y010864D02*
X060894Y010864D01*
X060736Y010706D02*
X066502Y010706D01*
X066502Y010547D02*
X060763Y010547D01*
X060905Y010389D02*
X066502Y010389D01*
X066502Y010230D02*
X060905Y010230D01*
X060905Y010072D02*
X066502Y010072D01*
X066502Y009913D02*
X060905Y009913D01*
X060785Y009755D02*
X066502Y009755D01*
X066502Y009596D02*
X060626Y009596D01*
X059904Y009596D02*
X059626Y009596D01*
X058904Y009596D02*
X053290Y009596D01*
X053290Y009438D02*
X066502Y009438D01*
X066502Y009279D02*
X053290Y009279D01*
X053290Y009121D02*
X066502Y009121D01*
X066502Y008962D02*
X053290Y008962D01*
X053290Y008804D02*
X066502Y008804D01*
X066502Y008645D02*
X053290Y008645D01*
X053290Y008487D02*
X066502Y008487D01*
X066502Y008328D02*
X053290Y008328D01*
X053290Y008170D02*
X066502Y008170D01*
X066502Y008011D02*
X053270Y008011D01*
X053168Y007853D02*
X066502Y007853D01*
X066502Y007694D02*
X060616Y007694D01*
X060530Y007780D02*
X060000Y007780D01*
X059765Y007545D01*
X059530Y007780D01*
X059000Y007780D01*
X058625Y007405D01*
X058625Y006875D01*
X058860Y006640D01*
X058625Y006405D01*
X058625Y005875D01*
X059000Y005500D01*
X059530Y005500D01*
X059765Y005735D01*
X060000Y005500D01*
X060530Y005500D01*
X060905Y005875D01*
X060905Y006405D01*
X060670Y006640D01*
X060905Y006875D01*
X060905Y007405D01*
X060530Y007780D01*
X060775Y007536D02*
X066502Y007536D01*
X066502Y007377D02*
X060905Y007377D01*
X060905Y007219D02*
X066502Y007219D01*
X066502Y007060D02*
X065974Y007060D01*
X066319Y006902D02*
X066502Y006902D01*
X066502Y006743D02*
X066477Y006743D01*
X065556Y007060D02*
X060905Y007060D01*
X060905Y006902D02*
X065211Y006902D01*
X065053Y006743D02*
X064020Y006743D01*
X063928Y006835D02*
X063640Y006835D01*
X063640Y006140D01*
X064335Y006140D01*
X064335Y006428D01*
X063928Y006835D01*
X063640Y006835D02*
X063640Y006140D01*
X063640Y006140D01*
X063640Y006140D01*
X064335Y006140D01*
X064335Y005852D01*
X063928Y005445D01*
X063640Y005445D01*
X063640Y006140D01*
X063640Y006140D01*
X063640Y006140D01*
X062945Y006140D01*
X062945Y006428D01*
X063352Y006835D01*
X063640Y006835D01*
X063640Y006743D02*
X063640Y006743D01*
X063640Y006585D02*
X063640Y006585D01*
X063640Y006426D02*
X063640Y006426D01*
X063640Y006268D02*
X063640Y006268D01*
X063640Y006140D02*
X062945Y006140D01*
X062945Y005852D01*
X063352Y005445D01*
X063640Y005445D01*
X063640Y006140D01*
X063640Y006109D02*
X063640Y006109D01*
X063640Y005951D02*
X063640Y005951D01*
X063640Y005792D02*
X063640Y005792D01*
X063640Y005634D02*
X063640Y005634D01*
X063640Y005475D02*
X063640Y005475D01*
X063958Y005475D02*
X065115Y005475D01*
X064968Y005634D02*
X064116Y005634D01*
X064275Y005792D02*
X064903Y005792D01*
X064837Y005951D02*
X064335Y005951D01*
X064335Y006109D02*
X064835Y006109D01*
X064835Y006268D02*
X064335Y006268D01*
X064335Y006426D02*
X064877Y006426D01*
X064942Y006585D02*
X064178Y006585D01*
X063260Y006743D02*
X062000Y006743D01*
X062034Y006729D02*
X061778Y006835D01*
X061502Y006835D01*
X061246Y006729D01*
X061051Y006534D01*
X060945Y006278D01*
X060945Y006002D01*
X061051Y005746D01*
X061246Y005551D01*
X061502Y005445D01*
X061778Y005445D01*
X062034Y005551D01*
X062229Y005746D01*
X062335Y006002D01*
X062335Y006278D01*
X062229Y006534D01*
X062034Y006729D01*
X062178Y006585D02*
X063102Y006585D01*
X062945Y006426D02*
X062274Y006426D01*
X062335Y006268D02*
X062945Y006268D01*
X062945Y006109D02*
X062335Y006109D01*
X062314Y005951D02*
X062945Y005951D01*
X063005Y005792D02*
X062248Y005792D01*
X062116Y005634D02*
X063164Y005634D01*
X063322Y005475D02*
X061851Y005475D01*
X061429Y005475D02*
X050666Y005475D01*
X050507Y005317D02*
X065323Y005317D01*
X066207Y005317D02*
X066502Y005317D01*
X066502Y005475D02*
X066415Y005475D01*
X066502Y005158D02*
X050349Y005158D01*
X050118Y005000D02*
X066502Y005000D01*
X061164Y005634D02*
X060664Y005634D01*
X060822Y005792D02*
X061032Y005792D01*
X060966Y005951D02*
X060905Y005951D01*
X060905Y006109D02*
X060945Y006109D01*
X060945Y006268D02*
X060905Y006268D01*
X060884Y006426D02*
X061006Y006426D01*
X061102Y006585D02*
X060726Y006585D01*
X060773Y006743D02*
X061280Y006743D01*
X059914Y007694D02*
X059616Y007694D01*
X058914Y007694D02*
X054241Y007694D01*
X054400Y007536D02*
X058755Y007536D01*
X058625Y007377D02*
X054530Y007377D01*
X054530Y007219D02*
X058625Y007219D01*
X058625Y007060D02*
X054530Y007060D01*
X054530Y006902D02*
X058625Y006902D01*
X058757Y006743D02*
X054398Y006743D01*
X054351Y006585D02*
X058804Y006585D01*
X058646Y006426D02*
X054509Y006426D01*
X054530Y006268D02*
X058625Y006268D01*
X058625Y006109D02*
X054530Y006109D01*
X054530Y005951D02*
X058625Y005951D01*
X058708Y005792D02*
X054447Y005792D01*
X054289Y005634D02*
X058866Y005634D01*
X059664Y005634D02*
X059866Y005634D01*
X058745Y009755D02*
X053290Y009755D01*
X053290Y009913D02*
X058625Y009913D01*
X058625Y010072D02*
X053290Y010072D01*
X053290Y010230D02*
X058625Y010230D01*
X058625Y010389D02*
X053290Y010389D01*
X053290Y010547D02*
X053681Y010547D01*
X053446Y010706D02*
X053334Y010706D01*
X054099Y010547D02*
X058767Y010547D01*
X058794Y010706D02*
X054334Y010706D01*
X054438Y010864D02*
X055067Y010864D01*
X055141Y010790D02*
X054790Y011141D01*
X054790Y011639D01*
X055141Y011990D01*
X055639Y011990D01*
X055990Y011639D01*
X055990Y011141D01*
X055639Y010790D01*
X055141Y010790D01*
X054909Y011023D02*
X054490Y011023D01*
X054490Y011181D02*
X054790Y011181D01*
X054790Y011340D02*
X054490Y011340D01*
X054490Y011498D02*
X054790Y011498D01*
X054808Y011657D02*
X054490Y011657D01*
X054479Y011815D02*
X054966Y011815D01*
X055125Y011974D02*
X054414Y011974D01*
X054277Y012132D02*
X058625Y012132D01*
X058625Y011974D02*
X055655Y011974D01*
X055814Y011815D02*
X058685Y011815D01*
X058843Y011657D02*
X055972Y011657D01*
X055990Y011498D02*
X058718Y011498D01*
X058625Y011340D02*
X055990Y011340D01*
X055990Y011181D02*
X058625Y011181D01*
X058625Y011023D02*
X055871Y011023D01*
X055713Y010864D02*
X058636Y010864D01*
X058625Y012291D02*
X052290Y012291D01*
X052290Y012449D02*
X058669Y012449D01*
X058827Y012608D02*
X052290Y012608D01*
X052290Y012766D02*
X058734Y012766D01*
X058625Y012925D02*
X055773Y012925D01*
X055639Y012790D02*
X055990Y013141D01*
X055990Y013390D01*
X055990Y013639D01*
X055639Y013990D01*
X055390Y013990D01*
X055390Y013390D01*
X055390Y013390D01*
X055990Y013390D01*
X055390Y013390D01*
X055390Y013390D01*
X055390Y013390D01*
X054790Y013390D01*
X054790Y013639D01*
X055141Y013990D01*
X055390Y013990D01*
X055390Y013390D01*
X055390Y012790D01*
X055639Y012790D01*
X055390Y012790D02*
X055390Y013390D01*
X055390Y013390D01*
X054790Y013390D01*
X054790Y013141D01*
X055141Y012790D01*
X055390Y012790D01*
X055390Y012925D02*
X055390Y012925D01*
X055390Y013083D02*
X055390Y013083D01*
X055390Y013242D02*
X055390Y013242D01*
X055390Y013400D02*
X055390Y013400D01*
X055390Y013559D02*
X055390Y013559D01*
X055390Y013717D02*
X055390Y013717D01*
X055390Y013876D02*
X055390Y013876D01*
X055753Y013876D02*
X058625Y013876D01*
X058625Y014034D02*
X054490Y014034D01*
X054490Y014193D02*
X058625Y014193D01*
X058625Y014351D02*
X054490Y014351D01*
X054490Y014510D02*
X058729Y014510D01*
X058832Y014668D02*
X054490Y014668D01*
X054475Y014827D02*
X058673Y014827D01*
X058625Y014985D02*
X054409Y014985D01*
X054265Y015144D02*
X058625Y015144D01*
X058625Y015302D02*
X051790Y015302D01*
X051790Y015461D02*
X058680Y015461D01*
X058839Y015619D02*
X051790Y015619D01*
X051790Y015778D02*
X058722Y015778D01*
X058625Y015936D02*
X051790Y015936D01*
X051790Y016095D02*
X058625Y016095D01*
X058625Y016253D02*
X051790Y016253D01*
X051762Y016412D02*
X058631Y016412D01*
X058790Y016570D02*
X051651Y016570D01*
X051492Y016729D02*
X058771Y016729D01*
X058625Y016887D02*
X051334Y016887D01*
X051175Y017046D02*
X051551Y017046D01*
X051385Y017204D02*
X051017Y017204D01*
X050858Y017363D02*
X051227Y017363D01*
X051068Y017521D02*
X050700Y017521D01*
X050541Y017680D02*
X050910Y017680D01*
X050751Y017838D02*
X050383Y017838D01*
X050224Y017997D02*
X050593Y017997D01*
X050434Y018155D02*
X050066Y018155D01*
X049907Y018314D02*
X050276Y018314D01*
X050117Y018472D02*
X049749Y018472D01*
X049590Y018631D02*
X049959Y018631D01*
X049800Y018789D02*
X049432Y018789D01*
X049273Y018948D02*
X049642Y018948D01*
X049483Y019106D02*
X049115Y019106D01*
X048960Y019265D02*
X049325Y019265D01*
X049166Y019423D02*
X048942Y019423D01*
X048876Y019582D02*
X049008Y019582D01*
X048849Y019740D02*
X048721Y019740D01*
X048691Y019899D02*
X047447Y019899D01*
X047289Y020057D02*
X048532Y020057D01*
X048374Y020216D02*
X047130Y020216D01*
X046972Y020374D02*
X048215Y020374D01*
X048057Y020533D02*
X046813Y020533D01*
X046790Y020691D02*
X047898Y020691D01*
X047740Y020850D02*
X046790Y020850D01*
X046790Y021008D02*
X047581Y021008D01*
X047423Y021167D02*
X046790Y021167D01*
X046790Y021325D02*
X047264Y021325D01*
X047106Y021484D02*
X046790Y021484D01*
X046823Y021642D02*
X046947Y021642D01*
X048628Y022593D02*
X053465Y022593D01*
X053350Y022435D02*
X052694Y022435D01*
X052953Y022910D02*
X053990Y022910D01*
X053990Y023069D02*
X053134Y023069D01*
X053293Y023227D02*
X053990Y023227D01*
X053990Y023386D02*
X053451Y023386D01*
X053610Y023544D02*
X053688Y023544D01*
X053726Y022752D02*
X048469Y022752D01*
X048327Y022910D02*
X048311Y022910D01*
X052674Y021325D02*
X053359Y021325D01*
X054890Y021325D02*
X054890Y021325D01*
X054890Y021484D02*
X054890Y021484D01*
X054890Y021642D02*
X054890Y021642D01*
X054890Y021801D02*
X054890Y021801D01*
X054890Y021959D02*
X054890Y021959D01*
X054890Y022118D02*
X054890Y022118D01*
X054890Y022276D02*
X054890Y022276D01*
X054890Y022435D02*
X054890Y022435D01*
X054890Y022593D02*
X054890Y022593D01*
X054890Y022752D02*
X054890Y022752D01*
X055042Y022752D02*
X055726Y022752D01*
X055465Y022593D02*
X055315Y022593D01*
X054790Y022910D02*
X058344Y022910D01*
X058186Y022752D02*
X058054Y022752D01*
X057726Y022752D02*
X057054Y022752D01*
X057315Y022593D02*
X057465Y022593D01*
X056726Y022752D02*
X056054Y022752D01*
X056315Y022593D02*
X056465Y022593D01*
X056688Y023544D02*
X056092Y023544D01*
X056331Y023703D02*
X056449Y023703D01*
X057092Y023544D02*
X057170Y023544D01*
X057329Y023386D02*
X054790Y023386D01*
X054790Y023227D02*
X057487Y023227D01*
X057765Y023515D02*
X056890Y024390D01*
X057890Y024495D02*
X057890Y024495D01*
X057890Y024654D02*
X057890Y024654D01*
X057890Y024812D02*
X057890Y024812D01*
X057890Y024971D02*
X057890Y024971D01*
X057890Y025129D02*
X057890Y025129D01*
X057501Y025129D02*
X057279Y025129D01*
X056501Y025129D02*
X056279Y025129D01*
X055501Y025129D02*
X055279Y025129D01*
X054890Y025129D02*
X054890Y025129D01*
X054890Y024971D02*
X054890Y024971D01*
X054890Y024812D02*
X054890Y024812D01*
X054890Y024654D02*
X054890Y024654D01*
X054890Y024495D02*
X054890Y024495D01*
X054890Y024337D02*
X054890Y024337D01*
X054890Y024178D02*
X054890Y024178D01*
X054890Y024020D02*
X054890Y024020D01*
X054890Y023861D02*
X054890Y023861D01*
X054890Y023703D02*
X054890Y023703D01*
X054890Y023544D02*
X054890Y023544D01*
X055090Y023544D02*
X055688Y023544D01*
X055449Y023703D02*
X055331Y023703D01*
X054790Y023069D02*
X058503Y023069D01*
X058765Y022765D02*
X057890Y021890D01*
X057485Y021167D02*
X057295Y021167D01*
X058295Y021167D02*
X058485Y021167D01*
X058765Y022765D02*
X063515Y022765D01*
X063765Y022515D01*
X064265Y022515D01*
X064265Y023515D02*
X057765Y023515D01*
X059890Y024390D02*
X060765Y025265D01*
X063015Y025265D01*
X063765Y024515D01*
X064265Y024515D01*
X063540Y024015D02*
X063440Y023915D01*
X061458Y023915D01*
X061475Y023969D01*
X061490Y024063D01*
X061490Y024390D01*
X061490Y024717D01*
X061475Y024810D01*
X061458Y024865D01*
X062849Y024865D01*
X063305Y024409D01*
X063305Y024388D01*
X063402Y024152D01*
X063540Y024015D01*
X063535Y024020D02*
X061483Y024020D01*
X061490Y024178D02*
X063392Y024178D01*
X063326Y024337D02*
X061490Y024337D01*
X061490Y024390D02*
X060890Y024390D01*
X061490Y024390D01*
X061490Y024495D02*
X063219Y024495D01*
X063061Y024654D02*
X061490Y024654D01*
X061475Y024812D02*
X062902Y024812D01*
X062951Y025763D02*
X052865Y025763D01*
X052990Y025605D02*
X060539Y025605D01*
X060380Y025446D02*
X052990Y025446D01*
X052990Y025288D02*
X060222Y025288D01*
X059501Y025129D02*
X059279Y025129D01*
X058501Y025129D02*
X058279Y025129D01*
X058119Y026556D02*
X058657Y026556D01*
X058890Y026556D02*
X058890Y026556D01*
X058890Y026714D02*
X058890Y026714D01*
X058890Y026873D02*
X058890Y026873D01*
X058890Y027031D02*
X058890Y027031D01*
X058890Y027190D02*
X058890Y027190D01*
X058890Y027348D02*
X058890Y027348D01*
X059343Y026714D02*
X059437Y026714D01*
X059661Y026556D02*
X059123Y026556D01*
X058437Y026714D02*
X058343Y026714D01*
X057661Y026556D02*
X057119Y026556D01*
X057343Y026714D02*
X057437Y026714D01*
X056661Y026556D02*
X056123Y026556D01*
X055890Y026556D02*
X055890Y026556D01*
X055890Y026714D02*
X055890Y026714D01*
X055890Y026873D02*
X055890Y026873D01*
X055890Y027031D02*
X055890Y027031D01*
X055890Y027190D02*
X055890Y027190D01*
X055890Y027348D02*
X055890Y027348D01*
X056343Y026714D02*
X056437Y026714D01*
X055657Y026556D02*
X055123Y026556D01*
X054890Y026556D02*
X054890Y026556D01*
X054890Y026714D02*
X054890Y026714D01*
X054890Y026873D02*
X054890Y026873D01*
X054890Y027031D02*
X054890Y027031D01*
X054890Y027190D02*
X054890Y027190D01*
X054890Y027348D02*
X054890Y027348D01*
X055343Y026714D02*
X055437Y026714D01*
X054657Y026556D02*
X054119Y026556D01*
X054343Y026714D02*
X054437Y026714D01*
X053661Y026556D02*
X051121Y026556D01*
X051280Y026714D02*
X053437Y026714D01*
X053339Y026873D02*
X052721Y026873D01*
X052059Y026873D02*
X051438Y026873D01*
X051597Y027031D02*
X051900Y027031D01*
X051790Y027190D02*
X051755Y027190D01*
X051099Y027665D02*
X051018Y027665D01*
X050915Y027824D02*
X051258Y027824D01*
X051416Y027982D02*
X050915Y027982D01*
X050915Y028141D02*
X051575Y028141D01*
X051733Y028299D02*
X050915Y028299D01*
X050915Y028458D02*
X051892Y028458D01*
X052050Y028616D02*
X050915Y028616D01*
X050915Y028775D02*
X052209Y028775D01*
X052367Y028933D02*
X050878Y028933D01*
X050754Y029092D02*
X062010Y029092D01*
X062010Y029250D02*
X050596Y029250D01*
X050437Y029409D02*
X062072Y029409D01*
X062189Y029567D02*
X060597Y029567D01*
X060756Y029726D02*
X062176Y029726D01*
X062890Y030140D02*
X060265Y030140D01*
X059774Y029726D02*
X059756Y029726D01*
X059597Y029567D02*
X059933Y029567D01*
X059265Y030140D02*
X045765Y030140D01*
X043589Y029250D02*
X043471Y029250D01*
X043431Y029409D02*
X043312Y029409D01*
X043272Y029567D02*
X042644Y029567D01*
X042520Y031311D02*
X042376Y031311D01*
X042535Y031469D02*
X042663Y031469D01*
X046390Y031640D02*
X047015Y031640D01*
X047640Y032265D01*
X047640Y033765D01*
X048015Y034140D01*
X059265Y034140D01*
X060265Y034140D02*
X062890Y034140D01*
X062890Y033140D02*
X060265Y033140D01*
X059265Y033140D02*
X048890Y033140D01*
X048515Y032765D01*
X048515Y032015D01*
X048890Y031640D01*
X049390Y031640D01*
X049390Y032640D02*
X058765Y032640D01*
X059265Y032140D01*
X060265Y032140D02*
X062890Y032140D01*
X063683Y031469D02*
X066502Y031469D01*
X066502Y031311D02*
X063749Y031311D01*
X063770Y031152D02*
X066502Y031152D01*
X066502Y030994D02*
X063759Y030994D01*
X063693Y030835D02*
X066502Y030835D01*
X066502Y030677D02*
X063555Y030677D01*
X063640Y030518D02*
X066502Y030518D01*
X066502Y030360D02*
X063728Y030360D01*
X063770Y030201D02*
X066502Y030201D01*
X066502Y030043D02*
X063770Y030043D01*
X063713Y029884D02*
X066502Y029884D01*
X066502Y029726D02*
X063604Y029726D01*
X063591Y029567D02*
X066502Y029567D01*
X066502Y029409D02*
X063708Y029409D01*
X063770Y029250D02*
X066502Y029250D01*
X066502Y029092D02*
X063770Y029092D01*
X063734Y028933D02*
X066502Y028933D01*
X066502Y028775D02*
X063653Y028775D01*
X063473Y028616D02*
X066502Y028616D01*
X066502Y028458D02*
X062388Y028458D01*
X062307Y028616D02*
X062230Y028616D01*
X062127Y028775D02*
X062071Y028775D01*
X062046Y028933D02*
X061913Y028933D01*
X061515Y028265D02*
X058765Y028265D01*
X057890Y027390D01*
X060119Y026556D02*
X060661Y026556D01*
X060437Y026714D02*
X060343Y026714D01*
X061119Y026556D02*
X062159Y026556D01*
X062000Y026714D02*
X061343Y026714D01*
X061441Y026873D02*
X061842Y026873D01*
X062317Y026397D02*
X050963Y026397D01*
X050804Y026239D02*
X062476Y026239D01*
X063265Y026515D02*
X061515Y028265D01*
X061890Y027390D02*
X060890Y027390D01*
X061890Y027390D02*
X063765Y025515D01*
X064265Y025515D01*
X064265Y026515D02*
X063265Y026515D01*
X063507Y027982D02*
X062864Y027982D01*
X058933Y029567D02*
X050279Y029567D01*
X050270Y029726D02*
X058774Y029726D01*
X054501Y025129D02*
X054279Y025129D01*
X053501Y025129D02*
X052978Y025129D01*
X052819Y024971D02*
X053365Y024971D01*
X049748Y026239D02*
X047290Y026239D01*
X047623Y026556D02*
X048161Y026556D01*
X047937Y026714D02*
X047843Y026714D01*
X048619Y026556D02*
X049161Y026556D01*
X048937Y026714D02*
X048843Y026714D01*
X050515Y027390D02*
X050515Y028765D01*
X049640Y029640D01*
X049390Y029640D01*
X046765Y032640D02*
X046390Y032640D01*
X046765Y032640D02*
X047265Y033140D01*
X047265Y034390D01*
X048015Y035140D01*
X059265Y035140D01*
X060265Y035140D02*
X062890Y035140D01*
X062890Y036140D02*
X060265Y036140D01*
X059265Y036140D02*
X048015Y036140D01*
X047515Y035640D01*
X046390Y035640D01*
X050032Y038126D02*
X066502Y038126D01*
X066502Y037968D02*
X050184Y037968D01*
X050163Y038285D02*
X066502Y038285D01*
X066502Y038443D02*
X050238Y038443D01*
X050270Y038602D02*
X066502Y038602D01*
X066502Y038760D02*
X050270Y038760D01*
X050204Y038919D02*
X066502Y038919D01*
X066502Y039077D02*
X050081Y039077D01*
X049870Y039236D02*
X066502Y039236D01*
X066502Y039394D02*
X049870Y039394D01*
X049870Y039553D02*
X058947Y039553D01*
X059000Y039500D02*
X059245Y039500D01*
X059245Y040120D01*
X059285Y040120D01*
X059285Y040160D01*
X060245Y040160D01*
X060245Y041120D01*
X060285Y041120D01*
X060285Y041160D01*
X060905Y041160D01*
X060905Y041405D01*
X060530Y041780D01*
X060285Y041780D01*
X060285Y041160D01*
X060245Y041160D01*
X060245Y041780D01*
X060000Y041780D01*
X059765Y041545D01*
X059530Y041780D01*
X059285Y041780D01*
X059285Y041160D01*
X059245Y041160D01*
X059245Y041780D01*
X059000Y041780D01*
X058625Y041405D01*
X058625Y041160D01*
X059245Y041160D01*
X059245Y041120D01*
X058625Y041120D01*
X058625Y040875D01*
X058860Y040640D01*
X058625Y040405D01*
X058625Y040160D01*
X059245Y040160D01*
X059245Y041120D01*
X059285Y041120D01*
X059285Y041160D01*
X060245Y041160D01*
X060245Y041120D01*
X059625Y041120D01*
X059285Y041120D01*
X059285Y040500D01*
X059285Y040160D01*
X059245Y040160D01*
X059245Y040120D01*
X058625Y040120D01*
X058625Y039875D01*
X059000Y039500D01*
X059245Y039553D02*
X059285Y039553D01*
X059285Y039500D02*
X059530Y039500D01*
X059765Y039735D01*
X060000Y039500D01*
X060245Y039500D01*
X060245Y040120D01*
X060285Y040120D01*
X060285Y040160D01*
X060905Y040160D01*
X060905Y040405D01*
X060670Y040640D01*
X060905Y040875D01*
X060905Y041120D01*
X060285Y041120D01*
X060285Y040500D01*
X060285Y040160D01*
X060245Y040160D01*
X060245Y040120D01*
X059625Y040120D01*
X059285Y040120D01*
X059285Y039500D01*
X059285Y039711D02*
X059245Y039711D01*
X059245Y039870D02*
X059285Y039870D01*
X059285Y040028D02*
X059245Y040028D01*
X059245Y040187D02*
X059285Y040187D01*
X059285Y040345D02*
X059245Y040345D01*
X059245Y040504D02*
X059285Y040504D01*
X059285Y040662D02*
X059245Y040662D01*
X059245Y040821D02*
X059285Y040821D01*
X059285Y040979D02*
X059245Y040979D01*
X059245Y041138D02*
X049196Y041138D01*
X049038Y041296D02*
X058625Y041296D01*
X058674Y041455D02*
X048879Y041455D01*
X048721Y041613D02*
X058833Y041613D01*
X058991Y041772D02*
X048562Y041772D01*
X048404Y041930D02*
X061407Y041930D01*
X061407Y041988D02*
X061407Y041856D01*
X061384Y041846D01*
X061261Y041724D01*
X061195Y041564D01*
X061195Y041391D01*
X061247Y041266D01*
X061195Y041140D01*
X061195Y040967D01*
X061261Y040807D01*
X061384Y040685D01*
X061407Y040675D01*
X061407Y040543D01*
X061473Y040384D01*
X061595Y040261D01*
X061755Y040195D01*
X061928Y040195D01*
X062054Y040247D01*
X062179Y040195D01*
X062352Y040195D01*
X062512Y040261D01*
X062634Y040384D01*
X062638Y040393D01*
X062642Y040384D01*
X062765Y040261D01*
X062925Y040195D01*
X063945Y040195D01*
X064105Y040261D01*
X064227Y040384D01*
X064294Y040543D01*
X064294Y040717D01*
X064227Y040876D01*
X064105Y040999D01*
X063945Y041065D01*
X063870Y041065D01*
X063870Y041988D01*
X063804Y042147D01*
X063681Y042270D01*
X063521Y042336D01*
X063348Y042336D01*
X063188Y042270D01*
X063066Y042147D01*
X062744Y041826D01*
X062724Y041846D01*
X062701Y041856D01*
X062701Y041988D01*
X062634Y042147D01*
X062512Y042270D01*
X062352Y042336D01*
X062179Y042336D01*
X062054Y042284D01*
X061928Y042336D01*
X061755Y042336D01*
X061595Y042270D01*
X061473Y042147D01*
X061407Y041988D01*
X061449Y042089D02*
X048245Y042089D01*
X047839Y041138D02*
X031245Y041138D01*
X031245Y040979D02*
X047997Y040979D01*
X048156Y040821D02*
X047683Y040821D01*
X047639Y040865D02*
X047390Y040865D01*
X047390Y040265D01*
X047990Y040265D01*
X047990Y040514D01*
X047639Y040865D01*
X047390Y040865D02*
X047390Y040265D01*
X047390Y040265D01*
X047390Y040265D01*
X047990Y040265D01*
X047990Y040016D01*
X047639Y039665D01*
X047390Y039665D01*
X047390Y040265D01*
X047390Y040265D01*
X047390Y040265D01*
X046790Y040265D01*
X046790Y040514D01*
X047141Y040865D01*
X047390Y040865D01*
X047390Y040821D02*
X047390Y040821D01*
X047390Y040662D02*
X047390Y040662D01*
X047390Y040504D02*
X047390Y040504D01*
X047390Y040345D02*
X047390Y040345D01*
X047390Y040265D02*
X046790Y040265D01*
X046790Y040016D01*
X047141Y039665D01*
X047390Y039665D01*
X047390Y040265D01*
X047390Y040187D02*
X047390Y040187D01*
X047390Y040028D02*
X047390Y040028D01*
X047390Y039870D02*
X047390Y039870D01*
X047390Y039711D02*
X047390Y039711D01*
X047685Y039711D02*
X048910Y039711D01*
X048910Y039553D02*
X032240Y039553D01*
X032167Y039711D02*
X047095Y039711D01*
X046937Y039870D02*
X032009Y039870D01*
X031640Y039870D02*
X031640Y039870D01*
X031640Y039711D02*
X031640Y039711D01*
X031640Y039553D02*
X031640Y039553D01*
X031640Y039394D02*
X031640Y039394D01*
X031640Y039390D02*
X031640Y038790D01*
X031640Y039390D01*
X031640Y039390D01*
X031640Y039236D02*
X031640Y039236D01*
X031640Y039077D02*
X031640Y039077D01*
X031640Y038919D02*
X031640Y038919D01*
X031263Y038919D02*
X031245Y038919D01*
X031245Y039870D02*
X031271Y039870D01*
X031245Y040028D02*
X046790Y040028D01*
X046790Y040187D02*
X031245Y040187D01*
X031245Y040345D02*
X046790Y040345D01*
X046790Y040504D02*
X031245Y040504D01*
X031245Y040662D02*
X046939Y040662D01*
X047097Y040821D02*
X031245Y040821D01*
X030285Y040821D02*
X008976Y040821D01*
X009030Y040979D02*
X030285Y040979D01*
X030285Y041138D02*
X009066Y041138D01*
X008870Y040662D02*
X030285Y040662D01*
X030285Y040504D02*
X008932Y040504D01*
X009030Y040345D02*
X030285Y040345D01*
X030285Y040187D02*
X009030Y040187D01*
X009030Y040028D02*
X030285Y040028D01*
X030285Y039870D02*
X009025Y039870D01*
X008866Y039711D02*
X030285Y039711D01*
X030285Y039553D02*
X008708Y039553D01*
X008072Y039553D02*
X007708Y039553D01*
X007866Y039711D02*
X007914Y039711D01*
X007072Y039553D02*
X004270Y039553D01*
X004270Y039711D02*
X006914Y039711D01*
X006755Y039870D02*
X004270Y039870D01*
X004270Y040028D02*
X006750Y040028D01*
X006750Y040187D02*
X004270Y040187D01*
X004270Y040345D02*
X004754Y040345D01*
X004738Y040352D02*
X005080Y040210D01*
X005450Y040210D01*
X005792Y040352D01*
X006053Y040613D01*
X006195Y040955D01*
X006195Y041325D01*
X006053Y041667D01*
X005792Y041928D01*
X005450Y042070D01*
X005080Y042070D01*
X004738Y041928D01*
X004477Y041667D01*
X004335Y041325D01*
X004335Y040955D01*
X004477Y040613D01*
X004738Y040352D01*
X004586Y040504D02*
X004270Y040504D01*
X004270Y040662D02*
X004456Y040662D01*
X004391Y040821D02*
X004270Y040821D01*
X004270Y040979D02*
X004335Y040979D01*
X004335Y041138D02*
X004270Y041138D01*
X004270Y041296D02*
X004335Y041296D01*
X004389Y041455D02*
X004270Y041455D01*
X004270Y041613D02*
X004454Y041613D01*
X004581Y041772D02*
X004270Y041772D01*
X004270Y041930D02*
X004742Y041930D01*
X004270Y042089D02*
X008660Y042089D01*
X008501Y041930D02*
X005788Y041930D01*
X005949Y041772D02*
X007116Y041772D01*
X006958Y041613D02*
X006076Y041613D01*
X006141Y041455D02*
X006799Y041455D01*
X006750Y041296D02*
X006195Y041296D01*
X006195Y041138D02*
X006750Y041138D01*
X006750Y040979D02*
X006195Y040979D01*
X006139Y040821D02*
X006804Y040821D01*
X006963Y040662D02*
X006074Y040662D01*
X005944Y040504D02*
X006848Y040504D01*
X006750Y040345D02*
X005776Y040345D01*
X004270Y039394D02*
X030285Y039394D01*
X030285Y039236D02*
X004270Y039236D01*
X004270Y039077D02*
X030285Y039077D01*
X030285Y038919D02*
X023552Y038919D01*
X023711Y038760D02*
X030285Y038760D01*
X030285Y038602D02*
X023869Y038602D01*
X024028Y038443D02*
X030285Y038443D01*
X030285Y038285D02*
X024186Y038285D01*
X024407Y038126D02*
X024623Y038126D01*
X024015Y037890D02*
X024015Y037390D01*
X024015Y037890D02*
X023265Y038640D01*
X020765Y038640D01*
X018890Y036765D01*
X018890Y012140D01*
X020890Y010140D01*
X041640Y010140D01*
X042390Y010890D01*
X042390Y011390D01*
X042003Y012132D02*
X041777Y012132D01*
X041003Y012132D02*
X040777Y012132D01*
X040180Y012291D02*
X044604Y012291D01*
X044461Y012449D02*
X040022Y012449D01*
X039863Y012608D02*
X044319Y012608D01*
X044176Y012766D02*
X039705Y012766D01*
X039390Y012515D02*
X028515Y012515D01*
X027390Y013640D01*
X027390Y015515D01*
X025390Y017515D01*
X025390Y018890D01*
X022890Y021390D01*
X023390Y021890D02*
X023890Y021390D01*
X023390Y021890D02*
X023390Y025140D01*
X022890Y025640D01*
X022890Y027390D01*
X023890Y027390D02*
X023890Y029890D01*
X023390Y029390D02*
X023390Y026265D01*
X024890Y024765D01*
X024890Y024390D01*
X025890Y024390D02*
X026390Y023890D01*
X026390Y020265D01*
X027890Y018765D01*
X027890Y018390D01*
X028397Y017768D02*
X028230Y017601D01*
X028009Y017510D01*
X027771Y017510D01*
X027550Y017601D01*
X027390Y017761D01*
X027230Y017601D01*
X027009Y017510D01*
X026771Y017510D01*
X026550Y017601D01*
X026383Y017768D01*
X026348Y017719D01*
X026281Y017652D01*
X026204Y017597D01*
X026120Y017554D01*
X026030Y017525D01*
X025957Y017513D01*
X027617Y015854D01*
X027729Y015742D01*
X027790Y015595D01*
X027790Y015270D01*
X028009Y015270D01*
X028147Y015213D01*
X028676Y015742D01*
X028788Y015854D01*
X028935Y015915D01*
X038345Y015915D01*
X038492Y015854D01*
X038990Y015356D01*
X038990Y017099D01*
X038051Y018038D01*
X038045Y018054D01*
X037998Y017942D01*
X037838Y017782D01*
X037628Y017695D01*
X037402Y017695D01*
X037192Y017782D01*
X037032Y017942D01*
X036945Y018152D01*
X036945Y018269D01*
X034051Y021163D01*
X033990Y021310D01*
X033990Y023518D01*
X033937Y023510D01*
X033890Y023510D01*
X033890Y024390D01*
X033890Y024390D01*
X033890Y025270D01*
X033937Y025270D01*
X033990Y025262D01*
X033990Y026510D01*
X033771Y026510D01*
X033550Y026601D01*
X033390Y026761D01*
X033230Y026601D01*
X033009Y026510D01*
X032771Y026510D01*
X032550Y026601D01*
X032381Y026770D01*
X032304Y026956D01*
X032139Y026790D01*
X031641Y026790D01*
X031290Y027141D01*
X031290Y027639D01*
X031641Y027990D01*
X032139Y027990D01*
X032304Y027824D01*
X032381Y028010D01*
X032550Y028179D01*
X032771Y028270D01*
X033009Y028270D01*
X033230Y028179D01*
X033390Y028019D01*
X033550Y028179D01*
X033771Y028270D01*
X034009Y028270D01*
X034230Y028179D01*
X034390Y028019D01*
X034550Y028179D01*
X034771Y028270D01*
X035009Y028270D01*
X035230Y028179D01*
X035390Y028019D01*
X035550Y028179D01*
X035771Y028270D01*
X036009Y028270D01*
X036230Y028179D01*
X036390Y028019D01*
X036480Y028109D01*
X035724Y028865D01*
X029056Y028865D01*
X028300Y028109D01*
X028399Y028010D01*
X028490Y027789D01*
X028490Y026991D01*
X028399Y026770D01*
X028230Y026601D01*
X028009Y026510D01*
X027771Y026510D01*
X027550Y026601D01*
X027390Y026761D01*
X027230Y026601D01*
X027009Y026510D01*
X026771Y026510D01*
X026550Y026601D01*
X026390Y026761D01*
X026230Y026601D01*
X026009Y026510D01*
X025790Y026510D01*
X025790Y025270D01*
X026009Y025270D01*
X026230Y025179D01*
X026390Y025019D01*
X026550Y025179D01*
X026771Y025270D01*
X027009Y025270D01*
X027230Y025179D01*
X027397Y025012D01*
X027432Y025061D01*
X027499Y025128D01*
X027576Y025183D01*
X027660Y025226D01*
X027749Y025255D01*
X027843Y025270D01*
X027890Y025270D01*
X027890Y024390D01*
X027890Y024390D01*
X028490Y024390D01*
X028490Y024717D01*
X028475Y024810D01*
X028446Y024900D01*
X028403Y024984D01*
X028348Y025061D01*
X028281Y025128D01*
X028204Y025183D01*
X028120Y025226D01*
X028030Y025255D01*
X027937Y025270D01*
X027890Y025270D01*
X027890Y024390D01*
X027890Y024390D01*
X028490Y024390D01*
X028490Y024063D01*
X028475Y023969D01*
X028446Y023880D01*
X028403Y023796D01*
X028348Y023719D01*
X028281Y023652D01*
X028204Y023597D01*
X028120Y023554D01*
X028030Y023525D01*
X027937Y023510D01*
X027890Y023510D01*
X027890Y024390D01*
X027890Y024390D01*
X027890Y023510D01*
X027843Y023510D01*
X027749Y023525D01*
X027660Y023554D01*
X027576Y023597D01*
X027499Y023652D01*
X027432Y023719D01*
X027397Y023768D01*
X027230Y023601D01*
X027009Y023510D01*
X026790Y023510D01*
X026790Y022270D01*
X027009Y022270D01*
X027230Y022179D01*
X027390Y022019D01*
X027550Y022179D01*
X027771Y022270D01*
X028009Y022270D01*
X028230Y022179D01*
X028390Y022019D01*
X028550Y022179D01*
X028771Y022270D01*
X029009Y022270D01*
X029230Y022179D01*
X029399Y022010D01*
X029490Y021789D01*
X029490Y020991D01*
X029399Y020770D01*
X029230Y020601D01*
X029009Y020510D01*
X028771Y020510D01*
X028550Y020601D01*
X028390Y020761D01*
X028230Y020601D01*
X028009Y020510D01*
X027771Y020510D01*
X027550Y020601D01*
X027390Y020761D01*
X027230Y020601D01*
X027009Y020510D01*
X026790Y020510D01*
X026790Y020431D01*
X027951Y019270D01*
X028009Y019270D01*
X028230Y019179D01*
X028397Y019012D01*
X028432Y019061D01*
X028499Y019128D01*
X028576Y019183D01*
X028660Y019226D01*
X028749Y019255D01*
X028843Y019270D01*
X028890Y019270D01*
X028890Y018390D01*
X028890Y018390D01*
X029490Y018390D01*
X029490Y018717D01*
X029475Y018810D01*
X029446Y018900D01*
X029403Y018984D01*
X029348Y019061D01*
X029281Y019128D01*
X029204Y019183D01*
X029120Y019226D01*
X029030Y019255D01*
X028937Y019270D01*
X028890Y019270D01*
X028890Y018390D01*
X028890Y018390D01*
X029490Y018390D01*
X029490Y018063D01*
X029475Y017969D01*
X029446Y017880D01*
X029403Y017796D01*
X029348Y017719D01*
X029281Y017652D01*
X029204Y017597D01*
X029120Y017554D01*
X029030Y017525D01*
X028937Y017510D01*
X028890Y017510D01*
X028890Y018390D01*
X028890Y018390D01*
X028890Y017510D01*
X028843Y017510D01*
X028749Y017525D01*
X028660Y017554D01*
X028576Y017597D01*
X028499Y017652D01*
X028432Y017719D01*
X028397Y017768D01*
X028472Y017680D02*
X028308Y017680D01*
X028036Y017521D02*
X028773Y017521D01*
X028890Y017521D02*
X028890Y017521D01*
X029007Y017521D02*
X038568Y017521D01*
X038410Y017680D02*
X029308Y017680D01*
X029425Y017838D02*
X037136Y017838D01*
X037009Y017997D02*
X029480Y017997D01*
X029490Y018155D02*
X036945Y018155D01*
X036901Y018314D02*
X029490Y018314D01*
X029490Y018472D02*
X036742Y018472D01*
X036584Y018631D02*
X029490Y018631D01*
X029479Y018789D02*
X036425Y018789D01*
X036267Y018948D02*
X029422Y018948D01*
X029303Y019106D02*
X036108Y019106D01*
X035950Y019265D02*
X028972Y019265D01*
X028890Y019265D02*
X028890Y019265D01*
X028808Y019265D02*
X028023Y019265D01*
X027798Y019423D02*
X035791Y019423D01*
X035633Y019582D02*
X027639Y019582D01*
X027481Y019740D02*
X035474Y019740D01*
X035316Y019899D02*
X027322Y019899D01*
X027164Y020057D02*
X035157Y020057D01*
X034999Y020216D02*
X027005Y020216D01*
X026847Y020374D02*
X034840Y020374D01*
X034682Y020533D02*
X029064Y020533D01*
X029320Y020691D02*
X034523Y020691D01*
X034365Y020850D02*
X029432Y020850D01*
X029490Y021008D02*
X034206Y021008D01*
X034050Y021167D02*
X029490Y021167D01*
X029490Y021325D02*
X033990Y021325D01*
X033990Y021484D02*
X029490Y021484D01*
X029490Y021642D02*
X033990Y021642D01*
X033990Y021801D02*
X029485Y021801D01*
X029420Y021959D02*
X033990Y021959D01*
X033990Y022118D02*
X029291Y022118D01*
X028489Y022118D02*
X028291Y022118D01*
X027489Y022118D02*
X027291Y022118D01*
X026790Y022276D02*
X033990Y022276D01*
X033990Y022435D02*
X026790Y022435D01*
X026790Y022593D02*
X033990Y022593D01*
X033990Y022752D02*
X026790Y022752D01*
X026790Y022910D02*
X033990Y022910D01*
X033990Y023069D02*
X026790Y023069D01*
X026790Y023227D02*
X033990Y023227D01*
X033990Y023386D02*
X026790Y023386D01*
X027092Y023544D02*
X027690Y023544D01*
X027890Y023544D02*
X027890Y023544D01*
X027890Y023703D02*
X027890Y023703D01*
X027890Y023861D02*
X027890Y023861D01*
X027890Y024020D02*
X027890Y024020D01*
X027890Y024178D02*
X027890Y024178D01*
X027890Y024337D02*
X027890Y024337D01*
X027890Y024495D02*
X027890Y024495D01*
X027890Y024654D02*
X027890Y024654D01*
X027890Y024812D02*
X027890Y024812D01*
X027890Y024971D02*
X027890Y024971D01*
X027890Y025129D02*
X027890Y025129D01*
X028279Y025129D02*
X032501Y025129D01*
X032499Y025128D02*
X032432Y025061D01*
X032377Y024984D01*
X032334Y024900D01*
X032305Y024810D01*
X032290Y024717D01*
X032290Y024390D01*
X032890Y024390D01*
X033890Y024390D01*
X033890Y024390D01*
X033890Y024390D01*
X033890Y025270D01*
X033843Y025270D01*
X033749Y025255D01*
X033660Y025226D01*
X033576Y025183D01*
X033499Y025128D01*
X033432Y025061D01*
X033390Y025003D01*
X033348Y025061D01*
X033281Y025128D01*
X033204Y025183D01*
X033120Y025226D01*
X033030Y025255D01*
X032937Y025270D01*
X032890Y025270D01*
X032890Y024390D01*
X032890Y024390D01*
X032890Y024390D01*
X033290Y024390D01*
X033890Y024390D01*
X033890Y023510D01*
X033843Y023510D01*
X033749Y023525D01*
X033660Y023554D01*
X033576Y023597D01*
X033499Y023652D01*
X033432Y023719D01*
X033390Y023777D01*
X033348Y023719D01*
X033281Y023652D01*
X033204Y023597D01*
X033120Y023554D01*
X033030Y023525D01*
X032937Y023510D01*
X032890Y023510D01*
X032890Y024390D01*
X032890Y024390D01*
X032890Y024390D01*
X032890Y025270D01*
X032843Y025270D01*
X032749Y025255D01*
X032660Y025226D01*
X032576Y025183D01*
X032499Y025128D01*
X032370Y024971D02*
X028410Y024971D01*
X028475Y024812D02*
X032305Y024812D01*
X032290Y024654D02*
X028490Y024654D01*
X028490Y024495D02*
X032290Y024495D01*
X032290Y024390D02*
X032290Y024063D01*
X032305Y023969D01*
X032334Y023880D01*
X032377Y023796D01*
X032432Y023719D01*
X032499Y023652D01*
X032576Y023597D01*
X032660Y023554D01*
X032749Y023525D01*
X032843Y023510D01*
X032890Y023510D01*
X032890Y024390D01*
X032290Y024390D01*
X032290Y024337D02*
X028490Y024337D01*
X028490Y024178D02*
X032290Y024178D01*
X032297Y024020D02*
X028483Y024020D01*
X028437Y023861D02*
X032343Y023861D01*
X032449Y023703D02*
X028331Y023703D01*
X028090Y023544D02*
X032690Y023544D01*
X032890Y023544D02*
X032890Y023544D01*
X032890Y023703D02*
X032890Y023703D01*
X032890Y023861D02*
X032890Y023861D01*
X032890Y024020D02*
X032890Y024020D01*
X032890Y024178D02*
X032890Y024178D01*
X032890Y024337D02*
X032890Y024337D01*
X032890Y024495D02*
X032890Y024495D01*
X032890Y024654D02*
X032890Y024654D01*
X032890Y024812D02*
X032890Y024812D01*
X032890Y024971D02*
X032890Y024971D01*
X032890Y025129D02*
X032890Y025129D01*
X033279Y025129D02*
X033501Y025129D01*
X033890Y025129D02*
X033890Y025129D01*
X033890Y024971D02*
X033890Y024971D01*
X033890Y024812D02*
X033890Y024812D01*
X033890Y024654D02*
X033890Y024654D01*
X033890Y024495D02*
X033890Y024495D01*
X033890Y024337D02*
X033890Y024337D01*
X033890Y024178D02*
X033890Y024178D01*
X033890Y024020D02*
X033890Y024020D01*
X033890Y023861D02*
X033890Y023861D01*
X033890Y023703D02*
X033890Y023703D01*
X033890Y023544D02*
X033890Y023544D01*
X033690Y023544D02*
X033090Y023544D01*
X033331Y023703D02*
X033449Y023703D01*
X033990Y025288D02*
X025790Y025288D01*
X025790Y025446D02*
X033990Y025446D01*
X033990Y025605D02*
X025790Y025605D01*
X025790Y025763D02*
X033990Y025763D01*
X033990Y025922D02*
X025790Y025922D01*
X025790Y026080D02*
X033990Y026080D01*
X033990Y026239D02*
X025790Y026239D01*
X025790Y026397D02*
X033990Y026397D01*
X033661Y026556D02*
X033119Y026556D01*
X033343Y026714D02*
X033437Y026714D01*
X032661Y026556D02*
X028119Y026556D01*
X028343Y026714D02*
X032437Y026714D01*
X032339Y026873D02*
X032221Y026873D01*
X031559Y026873D02*
X030221Y026873D01*
X030139Y026790D02*
X030490Y027141D01*
X030490Y027390D01*
X030490Y027639D01*
X030139Y027990D01*
X029890Y027990D01*
X029890Y027390D01*
X030490Y027390D01*
X029890Y027390D01*
X029890Y027390D01*
X029890Y027390D01*
X029890Y026790D01*
X030139Y026790D01*
X029890Y026790D02*
X029890Y027390D01*
X029890Y027390D01*
X029890Y027390D01*
X029290Y027390D01*
X029290Y027639D01*
X029641Y027990D01*
X029890Y027990D01*
X029890Y027390D01*
X029290Y027390D01*
X029290Y027141D01*
X029641Y026790D01*
X029890Y026790D01*
X029890Y026873D02*
X029890Y026873D01*
X029890Y027031D02*
X029890Y027031D01*
X029890Y027190D02*
X029890Y027190D01*
X029890Y027348D02*
X029890Y027348D01*
X029890Y027507D02*
X029890Y027507D01*
X029890Y027665D02*
X029890Y027665D01*
X029890Y027824D02*
X029890Y027824D01*
X029890Y027982D02*
X029890Y027982D01*
X030146Y027982D02*
X031634Y027982D01*
X031475Y027824D02*
X030305Y027824D01*
X030463Y027665D02*
X031317Y027665D01*
X031290Y027507D02*
X030490Y027507D01*
X030490Y027348D02*
X031290Y027348D01*
X031290Y027190D02*
X030490Y027190D01*
X030380Y027031D02*
X031400Y027031D01*
X032146Y027982D02*
X032370Y027982D01*
X032512Y028141D02*
X028331Y028141D01*
X028410Y027982D02*
X029634Y027982D01*
X029475Y027824D02*
X028476Y027824D01*
X028490Y027665D02*
X029317Y027665D01*
X029290Y027507D02*
X028490Y027507D01*
X028490Y027348D02*
X029290Y027348D01*
X029290Y027190D02*
X028490Y027190D01*
X028490Y027031D02*
X029400Y027031D01*
X029559Y026873D02*
X028441Y026873D01*
X027661Y026556D02*
X027119Y026556D01*
X027343Y026714D02*
X027437Y026714D01*
X026661Y026556D02*
X026119Y026556D01*
X026343Y026714D02*
X026437Y026714D01*
X026890Y027390D02*
X026890Y028015D01*
X022515Y032390D01*
X022515Y036890D01*
X023015Y037390D01*
X022015Y037390D02*
X021515Y036890D01*
X021515Y031265D01*
X023390Y029390D01*
X024890Y029140D02*
X024890Y027390D01*
X025390Y026890D02*
X025390Y020265D01*
X026890Y018765D01*
X026890Y018390D01*
X027308Y017680D02*
X027472Y017680D01*
X027744Y017521D02*
X027036Y017521D01*
X026744Y017521D02*
X026007Y017521D01*
X026108Y017363D02*
X038727Y017363D01*
X038885Y017204D02*
X026267Y017204D01*
X026425Y017046D02*
X038990Y017046D01*
X038990Y016887D02*
X026584Y016887D01*
X026742Y016729D02*
X038990Y016729D01*
X038990Y016570D02*
X026901Y016570D01*
X027059Y016412D02*
X038990Y016412D01*
X038990Y016253D02*
X027218Y016253D01*
X027376Y016095D02*
X038990Y016095D01*
X038990Y015936D02*
X027535Y015936D01*
X027693Y015778D02*
X028712Y015778D01*
X028553Y015619D02*
X027780Y015619D01*
X027790Y015461D02*
X028395Y015461D01*
X028236Y015302D02*
X027790Y015302D01*
X026990Y015302D02*
X019290Y015302D01*
X019290Y015144D02*
X023521Y015144D01*
X023499Y015128D02*
X023432Y015061D01*
X023377Y014984D01*
X023334Y014900D01*
X023305Y014810D01*
X023290Y014717D01*
X023290Y014390D01*
X023890Y014390D01*
X023890Y014390D01*
X023890Y015270D01*
X023937Y015270D01*
X024030Y015255D01*
X024120Y015226D01*
X024204Y015183D01*
X024281Y015128D01*
X024348Y015061D01*
X024383Y015012D01*
X024550Y015179D01*
X024771Y015270D01*
X025009Y015270D01*
X025230Y015179D01*
X025390Y015019D01*
X025550Y015179D01*
X025771Y015270D01*
X026009Y015270D01*
X026230Y015179D01*
X026390Y015019D01*
X026550Y015179D01*
X026771Y015270D01*
X026990Y015270D01*
X026990Y015349D01*
X025051Y017288D01*
X024990Y017435D01*
X024990Y017510D01*
X024771Y017510D01*
X024550Y017601D01*
X024390Y017761D01*
X024230Y017601D01*
X024009Y017510D01*
X023771Y017510D01*
X023550Y017601D01*
X023390Y017761D01*
X023230Y017601D01*
X023009Y017510D01*
X022771Y017510D01*
X022550Y017601D01*
X022390Y017761D01*
X022230Y017601D01*
X022009Y017510D01*
X021771Y017510D01*
X021550Y017601D01*
X021381Y017770D01*
X021290Y017991D01*
X021290Y018789D01*
X019290Y018789D01*
X019290Y018631D02*
X021290Y018631D01*
X021290Y018789D02*
X021381Y019010D01*
X021550Y019179D01*
X021771Y019270D01*
X022009Y019270D01*
X022230Y019179D01*
X022390Y019019D01*
X022550Y019179D01*
X022771Y019270D01*
X023009Y019270D01*
X023230Y019179D01*
X023390Y019019D01*
X023550Y019179D01*
X023771Y019270D01*
X024009Y019270D01*
X024230Y019179D01*
X024390Y019019D01*
X024543Y019171D01*
X023147Y020567D01*
X023009Y020510D01*
X022771Y020510D01*
X022550Y020601D01*
X022390Y020761D01*
X022230Y020601D01*
X022009Y020510D01*
X021771Y020510D01*
X021550Y020601D01*
X021381Y020770D01*
X021290Y020991D01*
X021290Y021789D01*
X021381Y022010D01*
X021550Y022179D01*
X021771Y022270D01*
X022009Y022270D01*
X022230Y022179D01*
X022390Y022019D01*
X022550Y022179D01*
X022771Y022270D01*
X022990Y022270D01*
X022990Y023510D01*
X022790Y023510D01*
X022790Y023296D01*
X022873Y023213D01*
X022960Y023003D01*
X022960Y022777D01*
X022873Y022567D01*
X022713Y022407D01*
X022503Y022320D01*
X022277Y022320D01*
X022067Y022407D01*
X021907Y022567D01*
X021820Y022777D01*
X021820Y023003D01*
X021907Y023213D01*
X021990Y023296D01*
X021990Y023510D01*
X021771Y023510D01*
X021550Y023601D01*
X021381Y023770D01*
X021290Y023991D01*
X021290Y024424D01*
X020781Y024933D01*
X020639Y024790D01*
X020390Y024790D01*
X020390Y025390D01*
X020390Y025390D01*
X020390Y025990D01*
X020615Y025990D01*
X020615Y026790D01*
X020141Y026790D01*
X019790Y027141D01*
X019790Y027639D01*
X020141Y027990D01*
X020615Y027990D01*
X020615Y033661D01*
X020506Y033770D01*
X020415Y033991D01*
X020415Y034789D01*
X020506Y035010D01*
X020675Y035179D01*
X020896Y035270D01*
X021115Y035270D01*
X021115Y036518D01*
X021062Y036510D01*
X021015Y036510D01*
X021015Y037390D01*
X021015Y037390D01*
X021015Y037390D01*
X020415Y037390D01*
X020415Y037717D01*
X020416Y037726D01*
X019290Y036599D01*
X019290Y012306D01*
X021056Y010540D01*
X023698Y010540D01*
X023550Y010601D01*
X023381Y010770D01*
X023290Y010991D01*
X023290Y011789D01*
X023381Y012010D01*
X023550Y012179D01*
X023771Y012270D01*
X024009Y012270D01*
X024230Y012179D01*
X024390Y012019D01*
X024550Y012179D01*
X024771Y012270D01*
X025009Y012270D01*
X025230Y012179D01*
X025390Y012019D01*
X025490Y012119D01*
X025490Y013661D01*
X025390Y013761D01*
X025230Y013601D01*
X025009Y013510D01*
X024771Y013510D01*
X024550Y013601D01*
X024383Y013768D01*
X024348Y013719D01*
X024281Y013652D01*
X024204Y013597D01*
X024120Y013554D01*
X024030Y013525D01*
X023937Y013510D01*
X023890Y013510D01*
X023890Y014390D01*
X023890Y014390D01*
X023890Y014390D01*
X023890Y015270D01*
X023843Y015270D01*
X023749Y015255D01*
X023660Y015226D01*
X023576Y015183D01*
X023499Y015128D01*
X023377Y014985D02*
X019290Y014985D01*
X019290Y014827D02*
X023310Y014827D01*
X023290Y014668D02*
X019290Y014668D01*
X019290Y014510D02*
X023290Y014510D01*
X023290Y014390D02*
X023290Y014063D01*
X023305Y013969D01*
X023334Y013880D01*
X023377Y013796D01*
X023432Y013719D01*
X023499Y013652D01*
X023576Y013597D01*
X023660Y013554D01*
X023749Y013525D01*
X023843Y013510D01*
X023890Y013510D01*
X023890Y014390D01*
X023290Y014390D01*
X023290Y014351D02*
X019290Y014351D01*
X019290Y014193D02*
X023290Y014193D01*
X023295Y014034D02*
X019290Y014034D01*
X019290Y013876D02*
X023336Y013876D01*
X023434Y013717D02*
X019290Y013717D01*
X019290Y013559D02*
X023651Y013559D01*
X023890Y013559D02*
X023890Y013559D01*
X023890Y013717D02*
X023890Y013717D01*
X023890Y013876D02*
X023890Y013876D01*
X023890Y014034D02*
X023890Y014034D01*
X023890Y014193D02*
X023890Y014193D01*
X023890Y014351D02*
X023890Y014351D01*
X023890Y014510D02*
X023890Y014510D01*
X023890Y014668D02*
X023890Y014668D01*
X023890Y014827D02*
X023890Y014827D01*
X023890Y014985D02*
X023890Y014985D01*
X023890Y015144D02*
X023890Y015144D01*
X024259Y015144D02*
X024515Y015144D01*
X025265Y015144D02*
X025515Y015144D01*
X026265Y015144D02*
X026515Y015144D01*
X026879Y015461D02*
X019290Y015461D01*
X019290Y015619D02*
X026720Y015619D01*
X026562Y015778D02*
X019290Y015778D01*
X019290Y015936D02*
X026403Y015936D01*
X026245Y016095D02*
X019290Y016095D01*
X019290Y016253D02*
X026086Y016253D01*
X025928Y016412D02*
X019290Y016412D01*
X019290Y016570D02*
X025769Y016570D01*
X025611Y016729D02*
X019290Y016729D01*
X019290Y016887D02*
X025452Y016887D01*
X025294Y017046D02*
X019290Y017046D01*
X019290Y017204D02*
X025135Y017204D01*
X025020Y017363D02*
X019290Y017363D01*
X019290Y017521D02*
X021744Y017521D01*
X022036Y017521D02*
X022744Y017521D01*
X023036Y017521D02*
X023744Y017521D01*
X024036Y017521D02*
X024744Y017521D01*
X024472Y017680D02*
X024308Y017680D01*
X023472Y017680D02*
X023308Y017680D01*
X022472Y017680D02*
X022308Y017680D01*
X021472Y017680D02*
X019290Y017680D01*
X019290Y017838D02*
X021353Y017838D01*
X021290Y017997D02*
X019290Y017997D01*
X019290Y018155D02*
X021290Y018155D01*
X021290Y018314D02*
X019290Y018314D01*
X019290Y018472D02*
X021290Y018472D01*
X021356Y018948D02*
X020796Y018948D01*
X020639Y018790D02*
X020990Y019141D01*
X020990Y019390D01*
X020990Y019639D01*
X020639Y019990D01*
X020390Y019990D01*
X020390Y019390D01*
X020390Y019390D01*
X020990Y019390D01*
X020390Y019390D01*
X020390Y019390D01*
X020390Y019390D01*
X019790Y019390D01*
X019790Y019639D01*
X020141Y019990D01*
X020390Y019990D01*
X020390Y019390D01*
X020390Y018790D01*
X020639Y018790D01*
X020390Y018790D02*
X020390Y019390D01*
X020390Y019390D01*
X019790Y019390D01*
X019790Y019141D01*
X020141Y018790D01*
X020390Y018790D01*
X020390Y018948D02*
X020390Y018948D01*
X020390Y019106D02*
X020390Y019106D01*
X020390Y019265D02*
X020390Y019265D01*
X020390Y019423D02*
X020390Y019423D01*
X020390Y019582D02*
X020390Y019582D01*
X020390Y019740D02*
X020390Y019740D01*
X020390Y019899D02*
X020390Y019899D01*
X020730Y019899D02*
X023816Y019899D01*
X023657Y020057D02*
X019290Y020057D01*
X019290Y019899D02*
X020050Y019899D01*
X019891Y019740D02*
X019290Y019740D01*
X019290Y019582D02*
X019790Y019582D01*
X019790Y019423D02*
X019290Y019423D01*
X019290Y019265D02*
X019790Y019265D01*
X019825Y019106D02*
X019290Y019106D01*
X019290Y018948D02*
X019984Y018948D01*
X020955Y019106D02*
X021477Y019106D01*
X021757Y019265D02*
X020990Y019265D01*
X020990Y019423D02*
X024291Y019423D01*
X024133Y019582D02*
X020990Y019582D01*
X020889Y019740D02*
X023974Y019740D01*
X024023Y019265D02*
X024450Y019265D01*
X024477Y019106D02*
X024303Y019106D01*
X023757Y019265D02*
X023023Y019265D01*
X022757Y019265D02*
X022023Y019265D01*
X022303Y019106D02*
X022477Y019106D01*
X023303Y019106D02*
X023477Y019106D01*
X023499Y020216D02*
X019290Y020216D01*
X019290Y020374D02*
X023340Y020374D01*
X023182Y020533D02*
X023064Y020533D01*
X022716Y020533D02*
X022064Y020533D01*
X022320Y020691D02*
X022460Y020691D01*
X021716Y020533D02*
X019290Y020533D01*
X019290Y020691D02*
X021460Y020691D01*
X021348Y020850D02*
X020698Y020850D01*
X020639Y020790D02*
X020990Y021141D01*
X020990Y021639D01*
X020639Y021990D01*
X020141Y021990D01*
X019790Y021639D01*
X019790Y021141D01*
X020141Y020790D01*
X020639Y020790D01*
X020857Y021008D02*
X021290Y021008D01*
X021290Y021167D02*
X020990Y021167D01*
X020990Y021325D02*
X021290Y021325D01*
X021290Y021484D02*
X020990Y021484D01*
X020986Y021642D02*
X021290Y021642D01*
X021295Y021801D02*
X020828Y021801D01*
X020669Y021959D02*
X021360Y021959D01*
X021489Y022118D02*
X019290Y022118D01*
X019290Y022276D02*
X022990Y022276D01*
X022990Y022435D02*
X022741Y022435D01*
X022884Y022593D02*
X022990Y022593D01*
X022990Y022752D02*
X022950Y022752D01*
X022960Y022910D02*
X022990Y022910D01*
X022990Y023069D02*
X022933Y023069D01*
X022990Y023227D02*
X022859Y023227D01*
X022790Y023386D02*
X022990Y023386D01*
X022390Y022890D02*
X022390Y023890D01*
X022890Y024390D01*
X021890Y024390D02*
X021015Y025265D01*
X021015Y034390D01*
X020415Y034322D02*
X019290Y034322D01*
X019290Y034164D02*
X020415Y034164D01*
X020415Y034005D02*
X019290Y034005D01*
X019290Y033847D02*
X020475Y033847D01*
X020588Y033688D02*
X019290Y033688D01*
X019290Y033530D02*
X020615Y033530D01*
X020615Y033371D02*
X019290Y033371D01*
X019290Y033213D02*
X020615Y033213D01*
X020615Y033054D02*
X019290Y033054D01*
X019290Y032896D02*
X020615Y032896D01*
X020615Y032737D02*
X019290Y032737D01*
X019290Y032579D02*
X020615Y032579D01*
X020615Y032420D02*
X019290Y032420D01*
X019290Y032262D02*
X020615Y032262D01*
X020615Y032103D02*
X019290Y032103D01*
X019290Y031945D02*
X020615Y031945D01*
X020615Y031786D02*
X019290Y031786D01*
X019290Y031628D02*
X020615Y031628D01*
X020615Y031469D02*
X019290Y031469D01*
X019290Y031311D02*
X020615Y031311D01*
X020615Y031152D02*
X019290Y031152D01*
X019290Y030994D02*
X020615Y030994D01*
X020615Y030835D02*
X019290Y030835D01*
X019290Y030677D02*
X020615Y030677D01*
X020615Y030518D02*
X019290Y030518D01*
X019290Y030360D02*
X020615Y030360D01*
X020615Y030201D02*
X019290Y030201D01*
X019290Y030043D02*
X020615Y030043D01*
X020615Y029884D02*
X019290Y029884D01*
X019290Y029726D02*
X020615Y029726D01*
X020615Y029567D02*
X019290Y029567D01*
X019290Y029409D02*
X020615Y029409D01*
X020615Y029250D02*
X019290Y029250D01*
X019290Y029092D02*
X020615Y029092D01*
X020615Y028933D02*
X019290Y028933D01*
X019290Y028775D02*
X020615Y028775D01*
X020615Y028616D02*
X019290Y028616D01*
X019290Y028458D02*
X020615Y028458D01*
X020615Y028299D02*
X019290Y028299D01*
X019290Y028141D02*
X020615Y028141D01*
X020134Y027982D02*
X019290Y027982D01*
X019290Y027824D02*
X019975Y027824D01*
X019817Y027665D02*
X019290Y027665D01*
X019290Y027507D02*
X019790Y027507D01*
X019790Y027348D02*
X019290Y027348D01*
X019290Y027190D02*
X019790Y027190D01*
X019900Y027031D02*
X019290Y027031D01*
X019290Y026873D02*
X020059Y026873D01*
X020615Y026714D02*
X019290Y026714D01*
X019290Y026556D02*
X020615Y026556D01*
X020615Y026397D02*
X019290Y026397D01*
X019290Y026239D02*
X020615Y026239D01*
X020615Y026080D02*
X019290Y026080D01*
X019290Y025922D02*
X020073Y025922D01*
X020141Y025990D02*
X019790Y025639D01*
X019790Y025390D01*
X020390Y025390D01*
X020390Y025390D01*
X020390Y025390D01*
X020390Y025990D01*
X020141Y025990D01*
X020390Y025922D02*
X020390Y025922D01*
X020390Y025763D02*
X020390Y025763D01*
X020390Y025605D02*
X020390Y025605D01*
X020390Y025446D02*
X020390Y025446D01*
X020390Y025390D02*
X019790Y025390D01*
X019790Y025141D01*
X020141Y024790D01*
X020390Y024790D01*
X020390Y025390D01*
X020390Y025288D02*
X020390Y025288D01*
X020390Y025129D02*
X020390Y025129D01*
X020390Y024971D02*
X020390Y024971D01*
X020390Y024812D02*
X020390Y024812D01*
X020661Y024812D02*
X020902Y024812D01*
X021061Y024654D02*
X019290Y024654D01*
X019290Y024812D02*
X020119Y024812D01*
X019961Y024971D02*
X019290Y024971D01*
X019290Y025129D02*
X019802Y025129D01*
X019790Y025288D02*
X019290Y025288D01*
X019290Y025446D02*
X019790Y025446D01*
X019790Y025605D02*
X019290Y025605D01*
X019290Y025763D02*
X019915Y025763D01*
X018490Y025763D02*
X016790Y025763D01*
X016790Y025605D02*
X018490Y025605D01*
X018490Y025446D02*
X016790Y025446D01*
X016790Y025288D02*
X018490Y025288D01*
X018490Y025129D02*
X017779Y025129D01*
X017781Y025128D02*
X017704Y025183D01*
X017620Y025226D01*
X017530Y025255D01*
X017437Y025270D01*
X017390Y025270D01*
X017390Y024390D01*
X017390Y024390D01*
X017990Y024390D01*
X017990Y024717D01*
X017975Y024810D01*
X017946Y024900D01*
X017903Y024984D01*
X017848Y025061D01*
X017781Y025128D01*
X017910Y024971D02*
X018490Y024971D01*
X018490Y024812D02*
X017975Y024812D01*
X017990Y024654D02*
X018490Y024654D01*
X018490Y024495D02*
X017990Y024495D01*
X017990Y024390D02*
X017390Y024390D01*
X017390Y024390D01*
X017390Y025270D01*
X017343Y025270D01*
X017249Y025255D01*
X017160Y025226D01*
X017076Y025183D01*
X016999Y025128D01*
X016932Y025061D01*
X016897Y025012D01*
X016790Y025119D01*
X016790Y026661D01*
X016890Y026761D01*
X017050Y026601D01*
X017271Y026510D01*
X017509Y026510D01*
X017730Y026601D01*
X017899Y026770D01*
X017990Y026991D01*
X017990Y027789D01*
X017899Y028010D01*
X017730Y028179D01*
X017509Y028270D01*
X017271Y028270D01*
X017050Y028179D01*
X016890Y028019D01*
X016730Y028179D01*
X016509Y028270D01*
X016271Y028270D01*
X016050Y028179D01*
X015890Y028019D01*
X015730Y028179D01*
X015509Y028270D01*
X015271Y028270D01*
X015050Y028179D01*
X014890Y028019D01*
X014730Y028179D01*
X014509Y028270D01*
X014271Y028270D01*
X014050Y028179D01*
X013890Y028019D01*
X013730Y028179D01*
X013509Y028270D01*
X013271Y028270D01*
X013050Y028179D01*
X012890Y028019D01*
X012730Y028179D01*
X012509Y028270D01*
X012271Y028270D01*
X012050Y028179D01*
X011890Y028019D01*
X011730Y028179D01*
X011509Y028270D01*
X011290Y028270D01*
X011290Y029970D01*
X011229Y030117D01*
X011117Y030229D01*
X008846Y032500D01*
X009462Y032500D01*
X009698Y032597D01*
X009878Y032777D01*
X009975Y033013D01*
X009975Y033267D01*
X009878Y033503D01*
X009740Y033640D01*
X009878Y033777D01*
X009975Y034013D01*
X009975Y034267D01*
X009878Y034503D01*
X009740Y034640D01*
X009878Y034777D01*
X009975Y035013D01*
X009975Y035267D01*
X009878Y035503D01*
X009740Y035640D01*
X009878Y035777D01*
X009975Y036013D01*
X009975Y036267D01*
X009878Y036503D01*
X009740Y036640D01*
X009878Y036777D01*
X009975Y037013D01*
X009975Y037267D01*
X009878Y037503D01*
X009698Y037683D01*
X009462Y037780D01*
X008568Y037780D01*
X008332Y037683D01*
X008152Y037503D01*
X008055Y037267D01*
X008055Y037013D01*
X008097Y036912D01*
X007676Y036492D01*
X007615Y036345D01*
X007615Y032685D01*
X007676Y032538D01*
X007788Y032426D01*
X010490Y029724D01*
X010490Y028270D01*
X010271Y028270D01*
X010050Y028179D01*
X009881Y028010D01*
X009790Y027789D01*
X009790Y026991D01*
X009881Y026770D01*
X010050Y026601D01*
X010271Y026510D01*
X010490Y026510D01*
X010490Y025270D01*
X010271Y025270D01*
X010050Y025179D01*
X009881Y025010D01*
X009790Y024789D01*
X009790Y023991D01*
X009881Y023770D01*
X010050Y023601D01*
X010271Y023510D01*
X010490Y023510D01*
X010490Y022810D01*
X010551Y022663D01*
X011043Y022171D01*
X010890Y022019D01*
X010730Y022179D01*
X010509Y022270D01*
X010271Y022270D01*
X010050Y022179D01*
X009881Y022010D01*
X009823Y021870D01*
X009259Y021870D01*
X009139Y021990D01*
X008641Y021990D01*
X008290Y021639D01*
X008290Y021141D01*
X008641Y020790D01*
X009139Y020790D01*
X009259Y020910D01*
X009823Y020910D01*
X009881Y020770D01*
X010050Y020601D01*
X010271Y020510D01*
X010509Y020510D01*
X010730Y020601D01*
X010890Y020761D01*
X011050Y020601D01*
X011271Y020510D01*
X011509Y020510D01*
X011730Y020601D01*
X011890Y020761D01*
X012050Y020601D01*
X012271Y020510D01*
X012509Y020510D01*
X012730Y020601D01*
X012890Y020761D01*
X013050Y020601D01*
X013271Y020510D01*
X013509Y020510D01*
X013730Y020601D01*
X013890Y020761D01*
X014050Y020601D01*
X014271Y020510D01*
X014509Y020510D01*
X014730Y020601D01*
X014890Y020761D01*
X015050Y020601D01*
X015271Y020510D01*
X015509Y020510D01*
X015730Y020601D01*
X015890Y020761D01*
X016050Y020601D01*
X016271Y020510D01*
X016509Y020510D01*
X016730Y020601D01*
X016890Y020761D01*
X017050Y020601D01*
X017271Y020510D01*
X017509Y020510D01*
X017730Y020601D01*
X017899Y020770D01*
X017990Y020991D01*
X017990Y021789D01*
X017899Y022010D01*
X017730Y022179D01*
X017509Y022270D01*
X017271Y022270D01*
X017221Y022250D01*
X016790Y022681D01*
X016790Y023661D01*
X016897Y023768D01*
X016932Y023719D01*
X016999Y023652D01*
X017076Y023597D01*
X017160Y023554D01*
X017249Y023525D01*
X017343Y023510D01*
X017390Y023510D01*
X017437Y023510D01*
X017530Y023525D01*
X017620Y023554D01*
X017704Y023597D01*
X017781Y023652D01*
X017848Y023719D01*
X017903Y023796D01*
X017946Y023880D01*
X017975Y023969D01*
X017990Y024063D01*
X017990Y024390D01*
X017990Y024337D02*
X018490Y024337D01*
X018490Y024178D02*
X017990Y024178D01*
X017983Y024020D02*
X018490Y024020D01*
X018490Y023861D02*
X017937Y023861D01*
X017831Y023703D02*
X018490Y023703D01*
X018490Y023544D02*
X017590Y023544D01*
X017390Y023544D02*
X017390Y023544D01*
X017390Y023510D02*
X017390Y024390D01*
X017390Y024390D01*
X017390Y023510D01*
X017390Y023703D02*
X017390Y023703D01*
X017390Y023861D02*
X017390Y023861D01*
X017390Y024020D02*
X017390Y024020D01*
X017390Y024178D02*
X017390Y024178D01*
X017390Y024337D02*
X017390Y024337D01*
X017390Y024495D02*
X017390Y024495D01*
X017390Y024654D02*
X017390Y024654D01*
X017390Y024812D02*
X017390Y024812D01*
X017390Y024971D02*
X017390Y024971D01*
X017390Y025129D02*
X017390Y025129D01*
X017001Y025129D02*
X016790Y025129D01*
X016790Y025922D02*
X018490Y025922D01*
X018490Y026080D02*
X016790Y026080D01*
X016790Y026239D02*
X018490Y026239D01*
X018490Y026397D02*
X016790Y026397D01*
X016790Y026556D02*
X017161Y026556D01*
X016937Y026714D02*
X016843Y026714D01*
X017619Y026556D02*
X018490Y026556D01*
X018490Y026714D02*
X017843Y026714D01*
X017941Y026873D02*
X018490Y026873D01*
X018490Y027031D02*
X017990Y027031D01*
X017990Y027190D02*
X018490Y027190D01*
X018490Y027348D02*
X017990Y027348D01*
X017990Y027507D02*
X018490Y027507D01*
X018490Y027665D02*
X017990Y027665D01*
X017976Y027824D02*
X018490Y027824D01*
X018490Y027982D02*
X017910Y027982D01*
X017768Y028141D02*
X018490Y028141D01*
X018490Y028299D02*
X011290Y028299D01*
X011290Y028458D02*
X018490Y028458D01*
X018490Y028616D02*
X011290Y028616D01*
X011290Y028775D02*
X018490Y028775D01*
X018490Y028933D02*
X011290Y028933D01*
X011290Y029092D02*
X018490Y029092D01*
X018490Y029250D02*
X011290Y029250D01*
X011290Y029409D02*
X018490Y029409D01*
X018490Y029567D02*
X011290Y029567D01*
X011290Y029726D02*
X018490Y029726D01*
X018490Y029884D02*
X011290Y029884D01*
X011260Y030043D02*
X018490Y030043D01*
X018490Y030201D02*
X011145Y030201D01*
X010986Y030360D02*
X018490Y030360D01*
X018490Y030518D02*
X010828Y030518D01*
X010669Y030677D02*
X018490Y030677D01*
X018490Y030835D02*
X010511Y030835D01*
X010352Y030994D02*
X018490Y030994D01*
X018490Y031152D02*
X010194Y031152D01*
X010035Y031311D02*
X018490Y031311D01*
X018490Y031469D02*
X009877Y031469D01*
X009718Y031628D02*
X018490Y031628D01*
X018490Y031786D02*
X009560Y031786D01*
X009401Y031945D02*
X018490Y031945D01*
X018490Y032103D02*
X009243Y032103D01*
X009084Y032262D02*
X018490Y032262D01*
X018490Y032420D02*
X008926Y032420D01*
X009652Y032579D02*
X018490Y032579D01*
X018490Y032737D02*
X009837Y032737D01*
X009926Y032896D02*
X018490Y032896D01*
X018490Y033054D02*
X009975Y033054D01*
X009975Y033213D02*
X018490Y033213D01*
X018490Y033371D02*
X009932Y033371D01*
X009851Y033530D02*
X018490Y033530D01*
X018490Y033688D02*
X009788Y033688D01*
X009906Y033847D02*
X018490Y033847D01*
X018490Y034005D02*
X009972Y034005D01*
X009975Y034164D02*
X018490Y034164D01*
X018490Y034322D02*
X009952Y034322D01*
X009887Y034481D02*
X018490Y034481D01*
X018490Y034639D02*
X009741Y034639D01*
X009886Y034798D02*
X018490Y034798D01*
X018490Y034956D02*
X009952Y034956D01*
X009975Y035115D02*
X018490Y035115D01*
X018490Y035273D02*
X009973Y035273D01*
X009907Y035432D02*
X018490Y035432D01*
X018490Y035590D02*
X009790Y035590D01*
X009849Y035749D02*
X018490Y035749D01*
X018490Y035907D02*
X009931Y035907D01*
X009975Y036066D02*
X018490Y036066D01*
X018490Y036224D02*
X009975Y036224D01*
X009927Y036383D02*
X018490Y036383D01*
X018490Y036541D02*
X009839Y036541D01*
X009800Y036700D02*
X018490Y036700D01*
X018496Y036858D02*
X009911Y036858D01*
X009975Y037017D02*
X018576Y037017D01*
X018734Y037175D02*
X009975Y037175D01*
X009948Y037334D02*
X018893Y037334D01*
X019051Y037492D02*
X009882Y037492D01*
X009730Y037651D02*
X019210Y037651D01*
X019368Y037809D02*
X004270Y037809D01*
X004270Y037651D02*
X005370Y037651D01*
X005500Y037780D02*
X005125Y037405D01*
X005125Y036875D01*
X005360Y036640D01*
X005125Y036405D01*
X005125Y035875D01*
X005360Y035640D01*
X005125Y035405D01*
X005125Y034875D01*
X005360Y034640D01*
X005125Y034405D01*
X005125Y033875D01*
X005360Y033640D01*
X005125Y033405D01*
X005125Y032875D01*
X005360Y032640D01*
X005125Y032405D01*
X005125Y031875D01*
X005360Y031640D01*
X005125Y031405D01*
X005125Y030875D01*
X005360Y030640D01*
X005125Y030405D01*
X005125Y029875D01*
X005500Y029500D01*
X006030Y029500D01*
X006265Y029735D01*
X006500Y029500D01*
X007030Y029500D01*
X007405Y029875D01*
X007405Y030405D01*
X007170Y030640D01*
X007405Y030875D01*
X007405Y031405D01*
X007170Y031640D01*
X007405Y031875D01*
X007405Y032405D01*
X007170Y032640D01*
X007405Y032875D01*
X007405Y033405D01*
X007170Y033640D01*
X007405Y033875D01*
X007405Y034405D01*
X007170Y034640D01*
X007405Y034875D01*
X007405Y035405D01*
X007170Y035640D01*
X007405Y035875D01*
X007405Y036405D01*
X007170Y036640D01*
X007405Y036875D01*
X007405Y037405D01*
X007030Y037780D01*
X006500Y037780D01*
X006265Y037545D01*
X006030Y037780D01*
X005500Y037780D01*
X005212Y037492D02*
X004270Y037492D01*
X004270Y037334D02*
X005125Y037334D01*
X005125Y037175D02*
X004270Y037175D01*
X004270Y037017D02*
X005125Y037017D01*
X005142Y036858D02*
X004270Y036858D01*
X004270Y036700D02*
X005300Y036700D01*
X005261Y036541D02*
X004270Y036541D01*
X004270Y036383D02*
X005125Y036383D01*
X005125Y036224D02*
X004270Y036224D01*
X004270Y036066D02*
X005125Y036066D01*
X005125Y035907D02*
X004270Y035907D01*
X004270Y035749D02*
X005251Y035749D01*
X005310Y035590D02*
X004270Y035590D01*
X004270Y035432D02*
X005151Y035432D01*
X005125Y035273D02*
X004270Y035273D01*
X004270Y035115D02*
X005125Y035115D01*
X005125Y034956D02*
X004270Y034956D01*
X004270Y034798D02*
X005202Y034798D01*
X005359Y034639D02*
X004270Y034639D01*
X004270Y034481D02*
X005200Y034481D01*
X005125Y034322D02*
X004270Y034322D01*
X004270Y034164D02*
X005125Y034164D01*
X005125Y034005D02*
X004270Y034005D01*
X004270Y033847D02*
X005153Y033847D01*
X005312Y033688D02*
X004270Y033688D01*
X004270Y033530D02*
X005249Y033530D01*
X005125Y033371D02*
X004270Y033371D01*
X004270Y033213D02*
X005125Y033213D01*
X005125Y033054D02*
X004270Y033054D01*
X004270Y032896D02*
X005125Y032896D01*
X005263Y032737D02*
X004270Y032737D01*
X004270Y032579D02*
X005298Y032579D01*
X005140Y032420D02*
X004270Y032420D01*
X004270Y032262D02*
X005125Y032262D01*
X005125Y032103D02*
X004270Y032103D01*
X004270Y031945D02*
X005125Y031945D01*
X005214Y031786D02*
X004270Y031786D01*
X004270Y031628D02*
X005347Y031628D01*
X005189Y031469D02*
X004270Y031469D01*
X004270Y031311D02*
X005125Y031311D01*
X005125Y031152D02*
X004270Y031152D01*
X004270Y030994D02*
X005125Y030994D01*
X005165Y030835D02*
X004270Y030835D01*
X004270Y030677D02*
X005323Y030677D01*
X005238Y030518D02*
X004270Y030518D01*
X004270Y030360D02*
X005125Y030360D01*
X005125Y030201D02*
X004270Y030201D01*
X004270Y030043D02*
X005125Y030043D01*
X005125Y029884D02*
X004270Y029884D01*
X004270Y029726D02*
X005274Y029726D01*
X005433Y029567D02*
X004270Y029567D01*
X004270Y029409D02*
X010490Y029409D01*
X010490Y029567D02*
X007097Y029567D01*
X007256Y029726D02*
X010489Y029726D01*
X010330Y029884D02*
X007405Y029884D01*
X007405Y030043D02*
X010172Y030043D01*
X010013Y030201D02*
X007405Y030201D01*
X007405Y030360D02*
X009855Y030360D01*
X009696Y030518D02*
X007292Y030518D01*
X007207Y030677D02*
X009538Y030677D01*
X009379Y030835D02*
X007365Y030835D01*
X007405Y030994D02*
X009221Y030994D01*
X009062Y031152D02*
X007405Y031152D01*
X007405Y031311D02*
X008904Y031311D01*
X008745Y031469D02*
X007341Y031469D01*
X007183Y031628D02*
X008587Y031628D01*
X008428Y031786D02*
X007316Y031786D01*
X007405Y031945D02*
X008270Y031945D01*
X008111Y032103D02*
X007405Y032103D01*
X007405Y032262D02*
X007953Y032262D01*
X007794Y032420D02*
X007390Y032420D01*
X007232Y032579D02*
X007659Y032579D01*
X007615Y032737D02*
X007267Y032737D01*
X007405Y032896D02*
X007615Y032896D01*
X007615Y033054D02*
X007405Y033054D01*
X007405Y033213D02*
X007615Y033213D01*
X007615Y033371D02*
X007405Y033371D01*
X007281Y033530D02*
X007615Y033530D01*
X007615Y033688D02*
X007218Y033688D01*
X007377Y033847D02*
X007615Y033847D01*
X007615Y034005D02*
X007405Y034005D01*
X007405Y034164D02*
X007615Y034164D01*
X007615Y034322D02*
X007405Y034322D01*
X007330Y034481D02*
X007615Y034481D01*
X007615Y034639D02*
X007171Y034639D01*
X007328Y034798D02*
X007615Y034798D01*
X007615Y034956D02*
X007405Y034956D01*
X007405Y035115D02*
X007615Y035115D01*
X007615Y035273D02*
X007405Y035273D01*
X007379Y035432D02*
X007615Y035432D01*
X007615Y035590D02*
X007220Y035590D01*
X007279Y035749D02*
X007615Y035749D01*
X007615Y035907D02*
X007405Y035907D01*
X007405Y036066D02*
X007615Y036066D01*
X007615Y036224D02*
X007405Y036224D01*
X007405Y036383D02*
X007631Y036383D01*
X007725Y036541D02*
X007269Y036541D01*
X007230Y036700D02*
X007884Y036700D01*
X008042Y036858D02*
X007388Y036858D01*
X007405Y037017D02*
X008055Y037017D01*
X008055Y037175D02*
X007405Y037175D01*
X007405Y037334D02*
X008082Y037334D01*
X008148Y037492D02*
X007318Y037492D01*
X007160Y037651D02*
X008300Y037651D01*
X008890Y037140D02*
X009015Y037140D01*
X008890Y037140D02*
X008015Y036265D01*
X008015Y032765D01*
X010890Y029890D01*
X010890Y022890D01*
X011890Y021890D01*
X012078Y021703D01*
X012390Y021390D01*
X012890Y022019D02*
X012730Y022179D01*
X012509Y022270D01*
X012271Y022270D01*
X012133Y022213D01*
X011290Y023056D01*
X011290Y023510D01*
X011509Y023510D01*
X011730Y023601D01*
X011897Y023768D01*
X011932Y023719D01*
X011999Y023652D01*
X012076Y023597D01*
X012160Y023554D01*
X012249Y023525D01*
X012343Y023510D01*
X012390Y023510D01*
X012437Y023510D01*
X012530Y023525D01*
X012620Y023554D01*
X012704Y023597D01*
X012781Y023652D01*
X012848Y023719D01*
X012890Y023777D01*
X012932Y023719D01*
X012999Y023652D01*
X013076Y023597D01*
X013160Y023554D01*
X013249Y023525D01*
X013343Y023510D01*
X013390Y023510D01*
X013437Y023510D01*
X013530Y023525D01*
X013620Y023554D01*
X013704Y023597D01*
X013781Y023652D01*
X013848Y023719D01*
X013890Y023777D01*
X013932Y023719D01*
X013999Y023652D01*
X014076Y023597D01*
X014160Y023554D01*
X014249Y023525D01*
X014343Y023510D01*
X014390Y023510D01*
X014437Y023510D01*
X014530Y023525D01*
X014620Y023554D01*
X014704Y023597D01*
X014781Y023652D01*
X014848Y023719D01*
X014890Y023777D01*
X014932Y023719D01*
X014999Y023652D01*
X015076Y023597D01*
X015160Y023554D01*
X015249Y023525D01*
X015343Y023510D01*
X015390Y023510D01*
X015437Y023510D01*
X015490Y023518D01*
X015490Y022270D01*
X015271Y022270D01*
X015050Y022179D01*
X014890Y022019D01*
X014730Y022179D01*
X014509Y022270D01*
X014271Y022270D01*
X014050Y022179D01*
X013890Y022019D01*
X013730Y022179D01*
X013509Y022270D01*
X013271Y022270D01*
X013050Y022179D01*
X012890Y022019D01*
X012791Y022118D02*
X012989Y022118D01*
X013791Y022118D02*
X013989Y022118D01*
X014791Y022118D02*
X014989Y022118D01*
X015490Y022276D02*
X012070Y022276D01*
X011911Y022435D02*
X015490Y022435D01*
X015490Y022593D02*
X011753Y022593D01*
X011594Y022752D02*
X015490Y022752D01*
X015490Y022910D02*
X011436Y022910D01*
X011290Y023069D02*
X015490Y023069D01*
X015490Y023227D02*
X011290Y023227D01*
X011290Y023386D02*
X015490Y023386D01*
X015390Y023510D02*
X015390Y024390D01*
X015390Y024390D01*
X014990Y024390D01*
X014390Y024390D01*
X014390Y024390D01*
X014390Y024390D01*
X014390Y025270D01*
X014437Y025270D01*
X014530Y025255D01*
X014620Y025226D01*
X014704Y025183D01*
X014781Y025128D01*
X014848Y025061D01*
X014890Y025003D01*
X014932Y025061D01*
X014999Y025128D01*
X015076Y025183D01*
X015129Y025210D01*
X014849Y025490D01*
X012560Y025490D01*
X012413Y025551D01*
X012301Y025663D01*
X011454Y026510D01*
X011290Y026510D01*
X011290Y025270D01*
X011509Y025270D01*
X011730Y025179D01*
X011897Y025012D01*
X011932Y025061D01*
X011999Y025128D01*
X012076Y025183D01*
X012160Y025226D01*
X012249Y025255D01*
X012343Y025270D01*
X012390Y025270D01*
X012390Y024390D01*
X013390Y024390D01*
X014390Y024390D01*
X015390Y024390D01*
X015390Y024390D01*
X015390Y023510D01*
X015390Y023544D02*
X015390Y023544D01*
X015390Y023703D02*
X015390Y023703D01*
X015390Y023861D02*
X015390Y023861D01*
X015390Y024020D02*
X015390Y024020D01*
X015390Y024178D02*
X015390Y024178D01*
X015390Y024337D02*
X015390Y024337D01*
X014949Y023703D02*
X014831Y023703D01*
X014590Y023544D02*
X015190Y023544D01*
X014390Y023544D02*
X014390Y023544D01*
X014390Y023510D02*
X014390Y024390D01*
X014390Y024390D01*
X014390Y025270D01*
X014343Y025270D01*
X014249Y025255D01*
X014160Y025226D01*
X014076Y025183D01*
X013999Y025128D01*
X013932Y025061D01*
X013890Y025003D01*
X013848Y025061D01*
X013781Y025128D01*
X013704Y025183D01*
X013620Y025226D01*
X013530Y025255D01*
X013437Y025270D01*
X013390Y025270D01*
X013390Y024390D01*
X013390Y024390D01*
X013390Y024390D01*
X013790Y024390D01*
X014390Y024390D01*
X014390Y024390D01*
X014390Y023510D01*
X014390Y023703D02*
X014390Y023703D01*
X014390Y023861D02*
X014390Y023861D01*
X014390Y024020D02*
X014390Y024020D01*
X014390Y024178D02*
X014390Y024178D01*
X014390Y024337D02*
X014390Y024337D01*
X014390Y024495D02*
X014390Y024495D01*
X014390Y024654D02*
X014390Y024654D01*
X014390Y024812D02*
X014390Y024812D01*
X014390Y024971D02*
X014390Y024971D01*
X014390Y025129D02*
X014390Y025129D01*
X014779Y025129D02*
X015001Y025129D01*
X015052Y025288D02*
X011290Y025288D01*
X011290Y025446D02*
X014893Y025446D01*
X015015Y025890D02*
X015890Y025015D01*
X015890Y021890D01*
X016390Y021390D01*
X017390Y021390D02*
X017390Y021515D01*
X016390Y022515D01*
X016390Y024390D01*
X016390Y027390D01*
X017390Y027390D01*
X017012Y028141D02*
X016768Y028141D01*
X016012Y028141D02*
X015768Y028141D01*
X015012Y028141D02*
X014768Y028141D01*
X014012Y028141D02*
X013768Y028141D01*
X013012Y028141D02*
X012768Y028141D01*
X012012Y028141D02*
X011768Y028141D01*
X011390Y027390D02*
X011390Y027140D01*
X012640Y025890D01*
X015015Y025890D01*
X014001Y025129D02*
X013779Y025129D01*
X013390Y025129D02*
X013390Y025129D01*
X013390Y025270D02*
X013343Y025270D01*
X013249Y025255D01*
X013160Y025226D01*
X013076Y025183D01*
X012999Y025128D01*
X012932Y025061D01*
X012890Y025003D01*
X012848Y025061D01*
X012781Y025128D01*
X012704Y025183D01*
X012620Y025226D01*
X012530Y025255D01*
X012437Y025270D01*
X012390Y025270D01*
X012390Y024390D01*
X012390Y024390D01*
X012390Y024390D01*
X012990Y024390D01*
X013390Y024390D01*
X013390Y024390D01*
X013390Y025270D01*
X013390Y024971D02*
X013390Y024971D01*
X013390Y024812D02*
X013390Y024812D01*
X013390Y024654D02*
X013390Y024654D01*
X013390Y024495D02*
X013390Y024495D01*
X013390Y024390D02*
X013390Y023510D01*
X013390Y024390D01*
X013390Y024390D01*
X013390Y024337D02*
X013390Y024337D01*
X013390Y024178D02*
X013390Y024178D01*
X013390Y024020D02*
X013390Y024020D01*
X013390Y023861D02*
X013390Y023861D01*
X013390Y023703D02*
X013390Y023703D01*
X013390Y023544D02*
X013390Y023544D01*
X013590Y023544D02*
X014190Y023544D01*
X013949Y023703D02*
X013831Y023703D01*
X013190Y023544D02*
X012590Y023544D01*
X012390Y023544D02*
X012390Y023544D01*
X012390Y023510D02*
X012390Y024390D01*
X012390Y024390D01*
X012390Y023510D01*
X012390Y023703D02*
X012390Y023703D01*
X012390Y023861D02*
X012390Y023861D01*
X012390Y024020D02*
X012390Y024020D01*
X012390Y024178D02*
X012390Y024178D01*
X012390Y024337D02*
X012390Y024337D01*
X012390Y024495D02*
X012390Y024495D01*
X012390Y024654D02*
X012390Y024654D01*
X012390Y024812D02*
X012390Y024812D01*
X012390Y024971D02*
X012390Y024971D01*
X012390Y025129D02*
X012390Y025129D01*
X012001Y025129D02*
X011779Y025129D01*
X011290Y025605D02*
X012360Y025605D01*
X012201Y025763D02*
X011290Y025763D01*
X011290Y025922D02*
X012043Y025922D01*
X011884Y026080D02*
X011290Y026080D01*
X011290Y026239D02*
X011726Y026239D01*
X011567Y026397D02*
X011290Y026397D01*
X010490Y026397D02*
X004270Y026397D01*
X004270Y026239D02*
X010490Y026239D01*
X010490Y026080D02*
X004270Y026080D01*
X004270Y025922D02*
X008573Y025922D01*
X008641Y025990D02*
X008290Y025639D01*
X008290Y025390D01*
X008890Y025390D01*
X008890Y025390D01*
X008890Y025990D01*
X009139Y025990D01*
X009490Y025639D01*
X009490Y025390D01*
X008890Y025390D01*
X008890Y025390D01*
X008890Y025390D01*
X008890Y025990D01*
X008641Y025990D01*
X008890Y025922D02*
X008890Y025922D01*
X008890Y025763D02*
X008890Y025763D01*
X008890Y025605D02*
X008890Y025605D01*
X008890Y025446D02*
X008890Y025446D01*
X008890Y025390D02*
X008290Y025390D01*
X008290Y025141D01*
X008641Y024790D01*
X008890Y024790D01*
X009139Y024790D01*
X009490Y025141D01*
X009490Y025390D01*
X008890Y025390D01*
X008890Y024790D01*
X008890Y025390D01*
X008890Y025390D01*
X008890Y025288D02*
X008890Y025288D01*
X008890Y025129D02*
X008890Y025129D01*
X008890Y024971D02*
X008890Y024971D01*
X008890Y024812D02*
X008890Y024812D01*
X009161Y024812D02*
X009799Y024812D01*
X009790Y024654D02*
X004270Y024654D01*
X004270Y024812D02*
X008619Y024812D01*
X008461Y024971D02*
X004270Y024971D01*
X004270Y025129D02*
X008302Y025129D01*
X008290Y025288D02*
X004270Y025288D01*
X004270Y025446D02*
X008290Y025446D01*
X008290Y025605D02*
X004270Y025605D01*
X004270Y025763D02*
X008415Y025763D01*
X009207Y025922D02*
X010490Y025922D01*
X010490Y025763D02*
X009365Y025763D01*
X009490Y025605D02*
X010490Y025605D01*
X010490Y025446D02*
X009490Y025446D01*
X009490Y025288D02*
X010490Y025288D01*
X010001Y025129D02*
X009478Y025129D01*
X009319Y024971D02*
X009865Y024971D01*
X009790Y024495D02*
X004270Y024495D01*
X004270Y024337D02*
X009790Y024337D01*
X009790Y024178D02*
X004270Y024178D01*
X004270Y024020D02*
X009790Y024020D01*
X009844Y023861D02*
X004270Y023861D01*
X004270Y023703D02*
X009949Y023703D01*
X010188Y023544D02*
X004270Y023544D01*
X004270Y023386D02*
X010490Y023386D01*
X010490Y023227D02*
X004270Y023227D01*
X004270Y023069D02*
X010490Y023069D01*
X010490Y022910D02*
X004270Y022910D01*
X004270Y022752D02*
X010514Y022752D01*
X010621Y022593D02*
X004270Y022593D01*
X004270Y022435D02*
X010780Y022435D01*
X010938Y022276D02*
X004270Y022276D01*
X004270Y022118D02*
X009989Y022118D01*
X009860Y021959D02*
X009169Y021959D01*
X008611Y021959D02*
X004270Y021959D01*
X004270Y021801D02*
X008452Y021801D01*
X008294Y021642D02*
X004270Y021642D01*
X004270Y021484D02*
X008290Y021484D01*
X008290Y021325D02*
X004270Y021325D01*
X004270Y021167D02*
X008290Y021167D01*
X008423Y021008D02*
X004270Y021008D01*
X004270Y020850D02*
X008582Y020850D01*
X009198Y020850D02*
X009848Y020850D01*
X009960Y020691D02*
X004270Y020691D01*
X004270Y020533D02*
X010216Y020533D01*
X010564Y020533D02*
X011216Y020533D01*
X010960Y020691D02*
X010820Y020691D01*
X011564Y020533D02*
X012216Y020533D01*
X011960Y020691D02*
X011820Y020691D01*
X012564Y020533D02*
X013216Y020533D01*
X012960Y020691D02*
X012820Y020691D01*
X013564Y020533D02*
X014216Y020533D01*
X013960Y020691D02*
X013820Y020691D01*
X014564Y020533D02*
X015216Y020533D01*
X014960Y020691D02*
X014820Y020691D01*
X015564Y020533D02*
X016216Y020533D01*
X015960Y020691D02*
X015820Y020691D01*
X016564Y020533D02*
X017216Y020533D01*
X016960Y020691D02*
X016820Y020691D01*
X017564Y020533D02*
X018490Y020533D01*
X018490Y020691D02*
X017820Y020691D01*
X017932Y020850D02*
X018490Y020850D01*
X018490Y021008D02*
X017990Y021008D01*
X017990Y021167D02*
X018490Y021167D01*
X018490Y021325D02*
X017990Y021325D01*
X017990Y021484D02*
X018490Y021484D01*
X018490Y021642D02*
X017990Y021642D01*
X017985Y021801D02*
X018490Y021801D01*
X018490Y021959D02*
X017920Y021959D01*
X017791Y022118D02*
X018490Y022118D01*
X018490Y022276D02*
X017195Y022276D01*
X017036Y022435D02*
X018490Y022435D01*
X018490Y022593D02*
X016878Y022593D01*
X016790Y022752D02*
X018490Y022752D01*
X018490Y022910D02*
X016790Y022910D01*
X016790Y023069D02*
X018490Y023069D01*
X018490Y023227D02*
X016790Y023227D01*
X016790Y023386D02*
X018490Y023386D01*
X019290Y023386D02*
X021990Y023386D01*
X021921Y023227D02*
X019290Y023227D01*
X019290Y023069D02*
X021847Y023069D01*
X021820Y022910D02*
X019290Y022910D01*
X019290Y022752D02*
X021830Y022752D01*
X021896Y022593D02*
X019290Y022593D01*
X019290Y022435D02*
X022039Y022435D01*
X022291Y022118D02*
X022489Y022118D01*
X021688Y023544D02*
X019290Y023544D01*
X019290Y023703D02*
X021449Y023703D01*
X021344Y023861D02*
X019290Y023861D01*
X019290Y024020D02*
X021290Y024020D01*
X021290Y024178D02*
X019290Y024178D01*
X019290Y024337D02*
X021290Y024337D01*
X021219Y024495D02*
X019290Y024495D01*
X017190Y023544D02*
X016790Y023544D01*
X016831Y023703D02*
X016949Y023703D01*
X019290Y021959D02*
X020111Y021959D01*
X019952Y021801D02*
X019290Y021801D01*
X019290Y021642D02*
X019794Y021642D01*
X019790Y021484D02*
X019290Y021484D01*
X019290Y021325D02*
X019790Y021325D01*
X019790Y021167D02*
X019290Y021167D01*
X019290Y021008D02*
X019923Y021008D01*
X020082Y020850D02*
X019290Y020850D01*
X018490Y020374D02*
X004270Y020374D01*
X004270Y020216D02*
X018490Y020216D01*
X018490Y020057D02*
X004270Y020057D01*
X004270Y019899D02*
X008550Y019899D01*
X008641Y019990D02*
X008290Y019639D01*
X008290Y019390D01*
X008890Y019390D01*
X008890Y019390D01*
X008890Y019990D01*
X009139Y019990D01*
X009490Y019639D01*
X009490Y019390D01*
X008890Y019390D01*
X008890Y019390D01*
X008890Y019390D01*
X008890Y019990D01*
X008641Y019990D01*
X008890Y019899D02*
X008890Y019899D01*
X008890Y019740D02*
X008890Y019740D01*
X008890Y019582D02*
X008890Y019582D01*
X008890Y019423D02*
X008890Y019423D01*
X008890Y019390D02*
X008290Y019390D01*
X008290Y019141D01*
X008641Y018790D01*
X008890Y018790D01*
X009139Y018790D01*
X009490Y019141D01*
X009490Y019390D01*
X008890Y019390D01*
X008890Y018790D01*
X008890Y019390D01*
X008890Y019390D01*
X008890Y019265D02*
X008890Y019265D01*
X008890Y019106D02*
X008890Y019106D01*
X008890Y018948D02*
X008890Y018948D01*
X009296Y018948D02*
X009856Y018948D01*
X009881Y019010D02*
X009790Y018789D01*
X004270Y018789D01*
X004270Y018631D02*
X009790Y018631D01*
X009790Y018789D02*
X009790Y017991D01*
X009881Y017770D01*
X010050Y017601D01*
X010271Y017510D01*
X010454Y017510D01*
X012445Y015519D01*
X012445Y015402D01*
X012532Y015192D01*
X012692Y015032D01*
X012902Y014945D01*
X013128Y014945D01*
X013338Y015032D01*
X013498Y015192D01*
X013585Y015402D01*
X013585Y015628D01*
X013498Y015838D01*
X013338Y015998D01*
X013128Y016085D01*
X013011Y016085D01*
X011563Y017532D01*
X011730Y017601D01*
X011897Y017768D01*
X011932Y017719D01*
X011999Y017652D01*
X012076Y017597D01*
X012160Y017554D01*
X012249Y017525D01*
X012343Y017510D01*
X012390Y017510D01*
X012437Y017510D01*
X012530Y017525D01*
X012620Y017554D01*
X012704Y017597D01*
X012781Y017652D01*
X012848Y017719D01*
X012890Y017777D01*
X012932Y017719D01*
X012999Y017652D01*
X013076Y017597D01*
X013160Y017554D01*
X013249Y017525D01*
X013343Y017510D01*
X013390Y017510D01*
X013437Y017510D01*
X013530Y017525D01*
X013620Y017554D01*
X013704Y017597D01*
X013781Y017652D01*
X013848Y017719D01*
X013890Y017777D01*
X013932Y017719D01*
X013999Y017652D01*
X014076Y017597D01*
X014160Y017554D01*
X014249Y017525D01*
X014343Y017510D01*
X014390Y017510D01*
X014437Y017510D01*
X014530Y017525D01*
X014620Y017554D01*
X014704Y017597D01*
X014781Y017652D01*
X014848Y017719D01*
X014890Y017777D01*
X014932Y017719D01*
X014999Y017652D01*
X015076Y017597D01*
X015160Y017554D01*
X015249Y017525D01*
X015343Y017510D01*
X015390Y017510D01*
X015437Y017510D01*
X015530Y017525D01*
X015620Y017554D01*
X015704Y017597D01*
X015781Y017652D01*
X015848Y017719D01*
X015883Y017768D01*
X016050Y017601D01*
X016271Y017510D01*
X016509Y017510D01*
X016730Y017601D01*
X016897Y017768D01*
X016932Y017719D01*
X016999Y017652D01*
X017076Y017597D01*
X017160Y017554D01*
X017249Y017525D01*
X017343Y017510D01*
X017390Y017510D01*
X017437Y017510D01*
X017530Y017525D01*
X017620Y017554D01*
X017704Y017597D01*
X017781Y017652D01*
X017848Y017719D01*
X017903Y017796D01*
X017946Y017880D01*
X017975Y017969D01*
X017990Y018063D01*
X017990Y018390D01*
X017990Y018717D01*
X017975Y018810D01*
X017946Y018900D01*
X017903Y018984D01*
X017848Y019061D01*
X017781Y019128D01*
X017704Y019183D01*
X017620Y019226D01*
X017530Y019255D01*
X017437Y019270D01*
X017390Y019270D01*
X017390Y018390D01*
X017390Y018390D01*
X017990Y018390D01*
X017390Y018390D01*
X017390Y018390D01*
X017390Y019270D01*
X017343Y019270D01*
X017249Y019255D01*
X017160Y019226D01*
X017076Y019183D01*
X016999Y019128D01*
X016932Y019061D01*
X016897Y019012D01*
X016730Y019179D01*
X016509Y019270D01*
X016271Y019270D01*
X016050Y019179D01*
X015883Y019012D01*
X015848Y019061D01*
X015781Y019128D01*
X015704Y019183D01*
X015620Y019226D01*
X015530Y019255D01*
X015437Y019270D01*
X015390Y019270D01*
X015390Y018390D01*
X015390Y018390D01*
X015390Y019270D01*
X015343Y019270D01*
X015249Y019255D01*
X015160Y019226D01*
X015076Y019183D01*
X014999Y019128D01*
X014932Y019061D01*
X014890Y019003D01*
X014848Y019061D01*
X014781Y019128D01*
X014704Y019183D01*
X014620Y019226D01*
X014530Y019255D01*
X014437Y019270D01*
X014390Y019270D01*
X014390Y018390D01*
X014390Y018390D01*
X014990Y018390D01*
X015390Y018390D01*
X015390Y017510D01*
X015390Y018390D01*
X015390Y018390D01*
X015390Y018390D01*
X014390Y018390D01*
X014390Y018390D01*
X014390Y019270D01*
X014343Y019270D01*
X014249Y019255D01*
X014160Y019226D01*
X014076Y019183D01*
X013999Y019128D01*
X013932Y019061D01*
X013890Y019003D01*
X013848Y019061D01*
X013781Y019128D01*
X013704Y019183D01*
X013620Y019226D01*
X013530Y019255D01*
X013437Y019270D01*
X013390Y019270D01*
X013390Y018390D01*
X013390Y018390D01*
X014390Y018390D01*
X014390Y017510D01*
X014390Y018390D01*
X014390Y018390D01*
X014390Y018390D01*
X013790Y018390D01*
X013390Y018390D01*
X013390Y018390D01*
X013390Y017510D01*
X013390Y018390D01*
X013390Y018390D01*
X013390Y019270D01*
X013343Y019270D01*
X013249Y019255D01*
X013160Y019226D01*
X013076Y019183D01*
X012999Y019128D01*
X012932Y019061D01*
X012890Y019003D01*
X012848Y019061D01*
X012781Y019128D01*
X012704Y019183D01*
X012620Y019226D01*
X012530Y019255D01*
X012437Y019270D01*
X012390Y019270D01*
X012390Y018390D01*
X012390Y018390D01*
X013390Y018390D01*
X013390Y018390D01*
X012990Y018390D01*
X012390Y018390D01*
X012390Y018390D01*
X012390Y017510D01*
X012390Y018390D01*
X012390Y018390D01*
X012390Y019270D01*
X012343Y019270D01*
X012249Y019255D01*
X012160Y019226D01*
X012076Y019183D01*
X011999Y019128D01*
X011932Y019061D01*
X011897Y019012D01*
X011730Y019179D01*
X011509Y019270D01*
X011271Y019270D01*
X011050Y019179D01*
X010890Y019019D01*
X010730Y019179D01*
X010509Y019270D01*
X010271Y019270D01*
X010050Y019179D01*
X009881Y019010D01*
X009977Y019106D02*
X009455Y019106D01*
X009490Y019265D02*
X010257Y019265D01*
X010523Y019265D02*
X011257Y019265D01*
X011523Y019265D02*
X012308Y019265D01*
X012390Y019265D02*
X012390Y019265D01*
X012472Y019265D02*
X013308Y019265D01*
X013390Y019265D02*
X013390Y019265D01*
X013472Y019265D02*
X014308Y019265D01*
X014390Y019265D02*
X014390Y019265D01*
X014472Y019265D02*
X015308Y019265D01*
X015390Y019265D02*
X015390Y019265D01*
X015472Y019265D02*
X016257Y019265D01*
X016523Y019265D02*
X017308Y019265D01*
X017390Y019265D02*
X017390Y019265D01*
X017472Y019265D02*
X018490Y019265D01*
X018490Y019423D02*
X009490Y019423D01*
X009490Y019582D02*
X018490Y019582D01*
X018490Y019740D02*
X009389Y019740D01*
X009230Y019899D02*
X018490Y019899D01*
X018490Y019106D02*
X017803Y019106D01*
X017922Y018948D02*
X018490Y018948D01*
X018490Y018789D02*
X017979Y018789D01*
X017990Y018631D02*
X018490Y018631D01*
X018490Y018472D02*
X017990Y018472D01*
X017990Y018314D02*
X018490Y018314D01*
X018490Y018155D02*
X017990Y018155D01*
X017980Y017997D02*
X018490Y017997D01*
X018490Y017838D02*
X017925Y017838D01*
X017808Y017680D02*
X018490Y017680D01*
X018490Y017521D02*
X017507Y017521D01*
X017390Y017521D02*
X017390Y017521D01*
X017390Y017510D02*
X017390Y018390D01*
X017390Y017510D01*
X017273Y017521D02*
X016536Y017521D01*
X016244Y017521D02*
X015507Y017521D01*
X015390Y017521D02*
X015390Y017521D01*
X015273Y017521D02*
X014507Y017521D01*
X014390Y017521D02*
X014390Y017521D01*
X014273Y017521D02*
X013507Y017521D01*
X013390Y017521D02*
X013390Y017521D01*
X013273Y017521D02*
X012507Y017521D01*
X012390Y017521D02*
X012390Y017521D01*
X012273Y017521D02*
X011575Y017521D01*
X011733Y017363D02*
X018490Y017363D01*
X018490Y017204D02*
X011892Y017204D01*
X012050Y017046D02*
X018490Y017046D01*
X018490Y016887D02*
X012209Y016887D01*
X012367Y016729D02*
X018490Y016729D01*
X018490Y016570D02*
X012526Y016570D01*
X012684Y016412D02*
X018490Y016412D01*
X018490Y016253D02*
X012843Y016253D01*
X013001Y016095D02*
X018490Y016095D01*
X018490Y015936D02*
X013400Y015936D01*
X013523Y015778D02*
X018490Y015778D01*
X018490Y015619D02*
X013585Y015619D01*
X013585Y015461D02*
X018490Y015461D01*
X018490Y015302D02*
X013544Y015302D01*
X013450Y015144D02*
X018490Y015144D01*
X018490Y014985D02*
X013225Y014985D01*
X012805Y014985D02*
X007405Y014985D01*
X007405Y015144D02*
X012580Y015144D01*
X012486Y015302D02*
X007405Y015302D01*
X007350Y015461D02*
X012445Y015461D01*
X012345Y015619D02*
X007191Y015619D01*
X007308Y015778D02*
X012187Y015778D01*
X012028Y015936D02*
X007405Y015936D01*
X007405Y016095D02*
X011870Y016095D01*
X011711Y016253D02*
X007405Y016253D01*
X007399Y016412D02*
X011553Y016412D01*
X011394Y016570D02*
X007240Y016570D01*
X007259Y016729D02*
X011236Y016729D01*
X011077Y016887D02*
X007405Y016887D01*
X007405Y017046D02*
X010919Y017046D01*
X010760Y017204D02*
X007405Y017204D01*
X007405Y017363D02*
X010602Y017363D01*
X010244Y017521D02*
X007289Y017521D01*
X007131Y017680D02*
X009972Y017680D01*
X009853Y017838D02*
X004270Y017838D01*
X004270Y017680D02*
X005399Y017680D01*
X005241Y017521D02*
X004270Y017521D01*
X004270Y017363D02*
X005125Y017363D01*
X005125Y017204D02*
X004270Y017204D01*
X004270Y017046D02*
X005125Y017046D01*
X005125Y016887D02*
X004270Y016887D01*
X004270Y016729D02*
X005271Y016729D01*
X005290Y016570D02*
X004270Y016570D01*
X004270Y016412D02*
X005131Y016412D01*
X005125Y016253D02*
X004270Y016253D01*
X004270Y016095D02*
X005125Y016095D01*
X005125Y015936D02*
X004270Y015936D01*
X004270Y015778D02*
X005222Y015778D01*
X005339Y015619D02*
X004270Y015619D01*
X004270Y015461D02*
X005180Y015461D01*
X005125Y015302D02*
X004270Y015302D01*
X004270Y015144D02*
X005125Y015144D01*
X005125Y014985D02*
X004270Y014985D01*
X004270Y014827D02*
X005173Y014827D01*
X005332Y014668D02*
X004270Y014668D01*
X004270Y014510D02*
X005229Y014510D01*
X005125Y014351D02*
X004270Y014351D01*
X004270Y014193D02*
X005125Y014193D01*
X005125Y014034D02*
X004270Y014034D01*
X004270Y013876D02*
X005125Y013876D01*
X005283Y013717D02*
X004270Y013717D01*
X004270Y013559D02*
X005278Y013559D01*
X005125Y013400D02*
X004270Y013400D01*
X004270Y013242D02*
X005125Y013242D01*
X005125Y013083D02*
X004270Y013083D01*
X004270Y012925D02*
X005125Y012925D01*
X005234Y012766D02*
X004270Y012766D01*
X004270Y012608D02*
X005327Y012608D01*
X005169Y012449D02*
X004270Y012449D01*
X004270Y012291D02*
X005125Y012291D01*
X005125Y012132D02*
X004270Y012132D01*
X004270Y011974D02*
X005125Y011974D01*
X005185Y011815D02*
X004270Y011815D01*
X004270Y011657D02*
X005343Y011657D01*
X005218Y011498D02*
X004270Y011498D01*
X004270Y011340D02*
X005125Y011340D01*
X005125Y011181D02*
X004270Y011181D01*
X004270Y011023D02*
X005125Y011023D01*
X005136Y010864D02*
X004270Y010864D01*
X004270Y010706D02*
X005294Y010706D01*
X005267Y010547D02*
X004270Y010547D01*
X004270Y010389D02*
X005125Y010389D01*
X005125Y010230D02*
X004270Y010230D01*
X004270Y010072D02*
X005125Y010072D01*
X005125Y009913D02*
X004270Y009913D01*
X004270Y009755D02*
X005245Y009755D01*
X005404Y009596D02*
X004270Y009596D01*
X004270Y009438D02*
X044857Y009438D01*
X044820Y009596D02*
X007126Y009596D01*
X007405Y010072D02*
X020393Y010072D01*
X020551Y009913D02*
X020663Y009801D01*
X020810Y009740D01*
X020234Y010230D02*
X007405Y010230D01*
X007405Y010389D02*
X020076Y010389D01*
X019917Y010547D02*
X007263Y010547D01*
X007236Y010706D02*
X019759Y010706D01*
X019600Y010864D02*
X007394Y010864D01*
X007405Y011023D02*
X019442Y011023D01*
X019283Y011181D02*
X007405Y011181D01*
X007405Y011340D02*
X019125Y011340D01*
X018966Y011498D02*
X007312Y011498D01*
X007187Y011657D02*
X018808Y011657D01*
X018649Y011815D02*
X007345Y011815D01*
X007405Y011974D02*
X018526Y011974D01*
X018490Y012132D02*
X007405Y012132D01*
X007405Y012291D02*
X018490Y012291D01*
X018490Y012449D02*
X007361Y012449D01*
X007203Y012608D02*
X018490Y012608D01*
X018490Y012766D02*
X007296Y012766D01*
X007405Y012925D02*
X018490Y012925D01*
X018490Y013083D02*
X007405Y013083D01*
X007405Y013242D02*
X018490Y013242D01*
X018490Y013400D02*
X007405Y013400D01*
X007252Y013559D02*
X018490Y013559D01*
X018490Y013717D02*
X007247Y013717D01*
X007405Y013876D02*
X018490Y013876D01*
X018490Y014034D02*
X007405Y014034D01*
X007405Y014193D02*
X018490Y014193D01*
X018490Y014351D02*
X007405Y014351D01*
X007301Y014510D02*
X018490Y014510D01*
X018490Y014668D02*
X007198Y014668D01*
X007357Y014827D02*
X018490Y014827D01*
X019290Y013400D02*
X025490Y013400D01*
X025490Y013242D02*
X019290Y013242D01*
X019290Y013083D02*
X025490Y013083D01*
X025490Y012925D02*
X019290Y012925D01*
X019290Y012766D02*
X025490Y012766D01*
X025490Y012608D02*
X019290Y012608D01*
X019290Y012449D02*
X025490Y012449D01*
X025490Y012291D02*
X019305Y012291D01*
X019464Y012132D02*
X023503Y012132D01*
X023366Y011974D02*
X019622Y011974D01*
X019781Y011815D02*
X023301Y011815D01*
X023290Y011657D02*
X019939Y011657D01*
X020098Y011498D02*
X023290Y011498D01*
X023290Y011340D02*
X020256Y011340D01*
X020415Y011181D02*
X023290Y011181D01*
X023290Y011023D02*
X020573Y011023D01*
X020732Y010864D02*
X023342Y010864D01*
X023446Y010706D02*
X020890Y010706D01*
X021049Y010547D02*
X023681Y010547D01*
X024890Y011390D02*
X025890Y011390D01*
X025890Y011265D01*
X026515Y010640D01*
X027265Y010640D01*
X027890Y011265D01*
X027890Y011390D01*
X028890Y011390D01*
X029890Y011390D01*
X030457Y011870D02*
X030399Y012010D01*
X030294Y012115D01*
X035290Y012115D01*
X035290Y011890D01*
X035890Y011890D01*
X036490Y011890D01*
X036490Y012115D01*
X036986Y012115D01*
X036881Y012010D01*
X036790Y011789D01*
X036790Y010991D01*
X036881Y010770D01*
X037050Y010601D01*
X037198Y010540D01*
X030082Y010540D01*
X030230Y010601D01*
X030399Y010770D01*
X030457Y010910D01*
X031021Y010910D01*
X031141Y010790D01*
X031639Y010790D01*
X031990Y011141D01*
X031990Y011639D01*
X031639Y011990D01*
X031141Y011990D01*
X031021Y011870D01*
X030457Y011870D01*
X030414Y011974D02*
X031125Y011974D01*
X031655Y011974D02*
X035290Y011974D01*
X035290Y011890D02*
X035290Y011641D01*
X035641Y011290D01*
X035890Y011290D01*
X036139Y011290D01*
X036490Y011641D01*
X036490Y011890D01*
X035890Y011890D01*
X035890Y011890D01*
X035890Y011290D01*
X035890Y011890D01*
X035890Y011890D01*
X035890Y011890D01*
X035290Y011890D01*
X035290Y011815D02*
X031814Y011815D01*
X031972Y011657D02*
X035290Y011657D01*
X035433Y011498D02*
X031990Y011498D01*
X031990Y011340D02*
X035592Y011340D01*
X035890Y011340D02*
X035890Y011340D01*
X035890Y011498D02*
X035890Y011498D01*
X035890Y011657D02*
X035890Y011657D01*
X035890Y011815D02*
X035890Y011815D01*
X036347Y011498D02*
X036790Y011498D01*
X036790Y011340D02*
X036188Y011340D01*
X036490Y011657D02*
X036790Y011657D01*
X036801Y011815D02*
X036490Y011815D01*
X036490Y011974D02*
X036866Y011974D01*
X036790Y011181D02*
X031990Y011181D01*
X031871Y011023D02*
X036790Y011023D01*
X036842Y010864D02*
X031713Y010864D01*
X031067Y010864D02*
X030438Y010864D01*
X030334Y010706D02*
X036946Y010706D01*
X037181Y010547D02*
X030099Y010547D01*
X031007Y012925D02*
X028671Y012925D01*
X028513Y013083D02*
X030848Y013083D01*
X030790Y013242D02*
X028354Y013242D01*
X028196Y013400D02*
X030790Y013400D01*
X030790Y013559D02*
X030126Y013559D01*
X030346Y013717D02*
X030868Y013717D01*
X031027Y013876D02*
X030442Y013876D01*
X030490Y014034D02*
X035290Y014034D01*
X035290Y013876D02*
X031753Y013876D01*
X031912Y013717D02*
X035290Y013717D01*
X035373Y013559D02*
X031990Y013559D01*
X031990Y013400D02*
X035531Y013400D01*
X035344Y014193D02*
X030490Y014193D01*
X030490Y014351D02*
X035502Y014351D01*
X037626Y013559D02*
X038154Y013559D01*
X037934Y013717D02*
X037846Y013717D01*
X038626Y013559D02*
X039154Y013559D01*
X038934Y013717D02*
X038846Y013717D01*
X039848Y013242D02*
X031990Y013242D01*
X031932Y013083D02*
X040006Y013083D01*
X040167Y012925D02*
X031773Y012925D01*
X031390Y013400D02*
X031390Y013400D01*
X031390Y013559D02*
X031390Y013559D01*
X031390Y013717D02*
X031390Y013717D01*
X031390Y013876D02*
X031390Y013876D01*
X029654Y013559D02*
X029126Y013559D01*
X029346Y013717D02*
X029434Y013717D01*
X028654Y013559D02*
X028126Y013559D01*
X028346Y013717D02*
X028434Y013717D01*
X027890Y014390D02*
X029015Y015515D01*
X038265Y015515D01*
X038568Y015778D02*
X038990Y015778D01*
X038990Y015619D02*
X038727Y015619D01*
X038885Y015461D02*
X038990Y015461D01*
X041765Y015144D02*
X042015Y015144D01*
X042765Y015144D02*
X043015Y015144D01*
X044559Y016412D02*
X047990Y016412D01*
X047990Y016570D02*
X044401Y016570D01*
X044242Y016729D02*
X047990Y016729D01*
X047878Y016887D02*
X044084Y016887D01*
X043925Y017046D02*
X047820Y017046D01*
X047820Y017204D02*
X043767Y017204D01*
X043608Y017363D02*
X047865Y017363D01*
X047965Y017521D02*
X043450Y017521D01*
X043291Y017680D02*
X048203Y017680D01*
X048376Y017838D02*
X043133Y017838D01*
X042974Y017997D02*
X048218Y017997D01*
X048059Y018155D02*
X042816Y018155D01*
X042710Y018314D02*
X047901Y018314D01*
X047742Y018472D02*
X042671Y018472D01*
X042581Y018631D02*
X047584Y018631D01*
X047425Y018789D02*
X042364Y018789D01*
X042140Y018265D02*
X046390Y014015D01*
X046960Y014034D02*
X047295Y014034D01*
X047290Y014193D02*
X046933Y014193D01*
X046860Y014351D02*
X047290Y014351D01*
X047290Y014510D02*
X046686Y014510D01*
X046303Y014668D02*
X047290Y014668D01*
X047310Y014827D02*
X046144Y014827D01*
X045986Y014985D02*
X047377Y014985D01*
X047521Y015144D02*
X045827Y015144D01*
X045669Y015302D02*
X047990Y015302D01*
X047990Y015461D02*
X045510Y015461D01*
X045352Y015619D02*
X047990Y015619D01*
X047990Y015778D02*
X045193Y015778D01*
X045035Y015936D02*
X047990Y015936D01*
X047990Y016095D02*
X044876Y016095D01*
X044718Y016253D02*
X047990Y016253D01*
X048390Y017140D02*
X048390Y013515D01*
X047890Y013015D01*
X047890Y011390D01*
X048890Y011390D02*
X045890Y008390D01*
X041140Y008390D01*
X040390Y007640D01*
X040390Y006640D01*
X039890Y006140D01*
X038429Y006585D02*
X034136Y006585D01*
X033978Y006743D02*
X038382Y006743D01*
X038250Y006902D02*
X033819Y006902D01*
X033661Y007060D02*
X038250Y007060D01*
X038250Y007219D02*
X033502Y007219D01*
X033344Y007377D02*
X038250Y007377D01*
X038380Y007536D02*
X033185Y007536D01*
X033027Y007694D02*
X038539Y007694D01*
X039241Y007694D02*
X039539Y007694D01*
X040354Y008170D02*
X032693Y008170D01*
X032627Y008328D02*
X040512Y008328D01*
X040671Y008487D02*
X032475Y008487D01*
X031656Y007694D02*
X008741Y007694D01*
X008900Y007536D02*
X031813Y007536D01*
X032212Y007377D02*
X009030Y007377D01*
X009030Y007219D02*
X032371Y007219D01*
X032529Y007060D02*
X009030Y007060D01*
X009030Y006902D02*
X032688Y006902D01*
X032846Y006743D02*
X008898Y006743D01*
X008851Y006585D02*
X033005Y006585D01*
X033163Y006426D02*
X009009Y006426D01*
X009030Y006268D02*
X033322Y006268D01*
X033480Y006109D02*
X009030Y006109D01*
X009030Y006120D02*
X008410Y006120D01*
X008410Y005500D01*
X008655Y005500D01*
X009030Y005875D01*
X009030Y006120D01*
X009030Y005951D02*
X033639Y005951D01*
X033797Y005792D02*
X008947Y005792D01*
X008789Y005634D02*
X033956Y005634D01*
X034114Y005475D02*
X005915Y005475D01*
X005707Y005317D02*
X034273Y005317D01*
X034770Y005951D02*
X038250Y005951D01*
X038250Y006109D02*
X034612Y006109D01*
X034453Y006268D02*
X038250Y006268D01*
X038271Y006426D02*
X034295Y006426D01*
X034929Y005792D02*
X038333Y005792D01*
X040829Y008645D02*
X004270Y008645D01*
X004270Y008804D02*
X045738Y008804D01*
X045896Y008962D02*
X004270Y008962D01*
X004270Y009121D02*
X045155Y009121D01*
X044945Y009279D02*
X004270Y009279D01*
X006126Y009596D02*
X006404Y009596D01*
X007741Y007694D02*
X008039Y007694D01*
X008370Y007694D02*
X008410Y007694D01*
X008410Y007536D02*
X008370Y007536D01*
X008370Y007377D02*
X008410Y007377D01*
X008410Y007219D02*
X008370Y007219D01*
X008370Y007060D02*
X008410Y007060D01*
X008410Y006902D02*
X008370Y006902D01*
X008370Y006743D02*
X008410Y006743D01*
X008410Y006585D02*
X008370Y006585D01*
X008370Y006426D02*
X008410Y006426D01*
X008410Y006268D02*
X008370Y006268D01*
X008370Y006109D02*
X008410Y006109D01*
X008410Y005951D02*
X008370Y005951D01*
X008370Y005792D02*
X008410Y005792D01*
X008410Y005634D02*
X008370Y005634D01*
X007991Y005634D02*
X007789Y005634D01*
X013015Y015515D02*
X010390Y018140D01*
X010390Y018390D01*
X009790Y018314D02*
X004270Y018314D01*
X004270Y018472D02*
X009790Y018472D01*
X009790Y018155D02*
X004270Y018155D01*
X004270Y017997D02*
X009790Y017997D01*
X010803Y019106D02*
X010977Y019106D01*
X011803Y019106D02*
X011977Y019106D01*
X012390Y019106D02*
X012390Y019106D01*
X012390Y018948D02*
X012390Y018948D01*
X012390Y018789D02*
X012390Y018789D01*
X012390Y018631D02*
X012390Y018631D01*
X012390Y018472D02*
X012390Y018472D01*
X012390Y018314D02*
X012390Y018314D01*
X012390Y018155D02*
X012390Y018155D01*
X012390Y017997D02*
X012390Y017997D01*
X012390Y017838D02*
X012390Y017838D01*
X012390Y017680D02*
X012390Y017680D01*
X012808Y017680D02*
X012972Y017680D01*
X013390Y017680D02*
X013390Y017680D01*
X013390Y017838D02*
X013390Y017838D01*
X013390Y017997D02*
X013390Y017997D01*
X013390Y018155D02*
X013390Y018155D01*
X013390Y018314D02*
X013390Y018314D01*
X013390Y018472D02*
X013390Y018472D01*
X013390Y018631D02*
X013390Y018631D01*
X013390Y018789D02*
X013390Y018789D01*
X013390Y018948D02*
X013390Y018948D01*
X013390Y019106D02*
X013390Y019106D01*
X013803Y019106D02*
X013977Y019106D01*
X014390Y019106D02*
X014390Y019106D01*
X014390Y018948D02*
X014390Y018948D01*
X014390Y018789D02*
X014390Y018789D01*
X014390Y018631D02*
X014390Y018631D01*
X014390Y018472D02*
X014390Y018472D01*
X014390Y018314D02*
X014390Y018314D01*
X014390Y018155D02*
X014390Y018155D01*
X014390Y017997D02*
X014390Y017997D01*
X014390Y017838D02*
X014390Y017838D01*
X014390Y017680D02*
X014390Y017680D01*
X014808Y017680D02*
X014972Y017680D01*
X015390Y017680D02*
X015390Y017680D01*
X015390Y017838D02*
X015390Y017838D01*
X015390Y017997D02*
X015390Y017997D01*
X015390Y018155D02*
X015390Y018155D01*
X015390Y018314D02*
X015390Y018314D01*
X015390Y018472D02*
X015390Y018472D01*
X015390Y018631D02*
X015390Y018631D01*
X015390Y018789D02*
X015390Y018789D01*
X015390Y018948D02*
X015390Y018948D01*
X015390Y019106D02*
X015390Y019106D01*
X015803Y019106D02*
X015977Y019106D01*
X016803Y019106D02*
X016977Y019106D01*
X017390Y019106D02*
X017390Y019106D01*
X017390Y018948D02*
X017390Y018948D01*
X017390Y018789D02*
X017390Y018789D01*
X017390Y018631D02*
X017390Y018631D01*
X017390Y018472D02*
X017390Y018472D01*
X017390Y018390D02*
X017390Y018390D01*
X017390Y018314D02*
X017390Y018314D01*
X017390Y018155D02*
X017390Y018155D01*
X017390Y017997D02*
X017390Y017997D01*
X017390Y017838D02*
X017390Y017838D01*
X017390Y017680D02*
X017390Y017680D01*
X016972Y017680D02*
X016808Y017680D01*
X015972Y017680D02*
X015808Y017680D01*
X014977Y019106D02*
X014803Y019106D01*
X012977Y019106D02*
X012803Y019106D01*
X011972Y017680D02*
X011808Y017680D01*
X013808Y017680D02*
X013972Y017680D01*
X008484Y018948D02*
X004270Y018948D01*
X004270Y019106D02*
X008325Y019106D01*
X008290Y019265D02*
X004270Y019265D01*
X004270Y019423D02*
X008290Y019423D01*
X008290Y019582D02*
X004270Y019582D01*
X004270Y019740D02*
X008391Y019740D01*
X006399Y017680D02*
X006131Y017680D01*
X010791Y022118D02*
X010989Y022118D01*
X011592Y023544D02*
X012190Y023544D01*
X011949Y023703D02*
X011831Y023703D01*
X012831Y023703D02*
X012949Y023703D01*
X013001Y025129D02*
X012779Y025129D01*
X010161Y026556D02*
X004270Y026556D01*
X004270Y026714D02*
X009937Y026714D01*
X009839Y026873D02*
X009221Y026873D01*
X009139Y026790D02*
X009490Y027141D01*
X009490Y027639D01*
X009139Y027990D01*
X008641Y027990D01*
X008290Y027639D01*
X008290Y027141D01*
X008641Y026790D01*
X009139Y026790D01*
X009380Y027031D02*
X009790Y027031D01*
X009790Y027190D02*
X009490Y027190D01*
X009490Y027348D02*
X009790Y027348D01*
X009790Y027507D02*
X009490Y027507D01*
X009463Y027665D02*
X009790Y027665D01*
X009804Y027824D02*
X009305Y027824D01*
X009146Y027982D02*
X009870Y027982D01*
X010012Y028141D02*
X004270Y028141D01*
X004270Y028299D02*
X010490Y028299D01*
X010490Y028458D02*
X004270Y028458D01*
X004270Y028616D02*
X010490Y028616D01*
X010490Y028775D02*
X004270Y028775D01*
X004270Y028933D02*
X010490Y028933D01*
X010490Y029092D02*
X004270Y029092D01*
X004270Y029250D02*
X010490Y029250D01*
X008634Y027982D02*
X004270Y027982D01*
X004270Y027824D02*
X008475Y027824D01*
X008317Y027665D02*
X004270Y027665D01*
X004270Y027507D02*
X008290Y027507D01*
X008290Y027348D02*
X004270Y027348D01*
X004270Y027190D02*
X008290Y027190D01*
X008400Y027031D02*
X004270Y027031D01*
X004270Y026873D02*
X008559Y026873D01*
X006433Y029567D02*
X006097Y029567D01*
X006256Y029726D02*
X006274Y029726D01*
X006160Y037651D02*
X006370Y037651D01*
X004270Y037968D02*
X019527Y037968D01*
X019685Y038126D02*
X004270Y038126D01*
X004270Y038285D02*
X019844Y038285D01*
X020002Y038443D02*
X004270Y038443D01*
X004270Y038602D02*
X020161Y038602D01*
X020319Y038760D02*
X004270Y038760D01*
X004270Y038919D02*
X020478Y038919D01*
X020415Y037651D02*
X020341Y037651D01*
X020415Y037492D02*
X020183Y037492D01*
X020024Y037334D02*
X020415Y037334D01*
X020415Y037390D02*
X020415Y037063D01*
X020430Y036969D01*
X020459Y036880D01*
X020502Y036796D01*
X020557Y036719D01*
X020624Y036652D01*
X020701Y036597D01*
X020785Y036554D01*
X020874Y036525D01*
X020968Y036510D01*
X021015Y036510D01*
X021015Y037390D01*
X020415Y037390D01*
X020415Y037175D02*
X019866Y037175D01*
X019707Y037017D02*
X020422Y037017D01*
X020470Y036858D02*
X019549Y036858D01*
X019390Y036700D02*
X020577Y036700D01*
X020824Y036541D02*
X019290Y036541D01*
X019290Y036383D02*
X021115Y036383D01*
X021115Y036224D02*
X019290Y036224D01*
X019290Y036066D02*
X021115Y036066D01*
X021115Y035907D02*
X019290Y035907D01*
X019290Y035749D02*
X021115Y035749D01*
X021115Y035590D02*
X019290Y035590D01*
X019290Y035432D02*
X021115Y035432D01*
X021115Y035273D02*
X019290Y035273D01*
X019290Y035115D02*
X020611Y035115D01*
X020484Y034956D02*
X019290Y034956D01*
X019290Y034798D02*
X020418Y034798D01*
X020415Y034639D02*
X019290Y034639D01*
X019290Y034481D02*
X020415Y034481D01*
X021015Y036541D02*
X021015Y036541D01*
X021015Y036700D02*
X021015Y036700D01*
X021015Y036858D02*
X021015Y036858D01*
X021015Y037017D02*
X021015Y037017D01*
X021015Y037175D02*
X021015Y037175D01*
X021015Y037334D02*
X021015Y037334D01*
X025407Y038126D02*
X025623Y038126D01*
X026407Y038126D02*
X026623Y038126D01*
X027407Y038126D02*
X027623Y038126D01*
X026015Y036015D02*
X025015Y035015D01*
X025015Y034390D01*
X025515Y033765D02*
X025515Y035015D01*
X026140Y035640D01*
X036890Y035640D01*
X037890Y034640D01*
X037890Y034390D01*
X039265Y036015D02*
X026015Y036015D01*
X024015Y034390D02*
X024015Y034140D01*
X024640Y033515D01*
X025265Y033515D01*
X025515Y033765D01*
X026665Y032737D02*
X028764Y032737D01*
X028665Y032579D02*
X026665Y032579D01*
X026665Y032420D02*
X028665Y032420D01*
X028665Y032262D02*
X026665Y032262D01*
X026665Y032103D02*
X028703Y032103D01*
X028862Y031945D02*
X026665Y031945D01*
X028890Y029265D02*
X035890Y029265D01*
X036890Y028265D01*
X036890Y027390D01*
X036449Y028141D02*
X036268Y028141D01*
X036290Y028299D02*
X028490Y028299D01*
X028648Y028458D02*
X036132Y028458D01*
X035973Y028616D02*
X028807Y028616D01*
X028965Y028775D02*
X035815Y028775D01*
X035512Y028141D02*
X035268Y028141D01*
X034512Y028141D02*
X034268Y028141D01*
X033512Y028141D02*
X033268Y028141D01*
X033890Y027390D02*
X034390Y026890D01*
X034390Y021390D01*
X037515Y018265D01*
X037894Y017838D02*
X038251Y017838D01*
X038093Y017997D02*
X038021Y017997D01*
X040290Y019740D02*
X040299Y019740D01*
X040290Y019899D02*
X040458Y019899D01*
X040616Y020057D02*
X040290Y020057D01*
X040290Y020216D02*
X040775Y020216D01*
X040933Y020374D02*
X040290Y020374D01*
X040290Y020533D02*
X041092Y020533D01*
X041250Y020691D02*
X040290Y020691D01*
X040290Y020850D02*
X041409Y020850D01*
X041567Y021008D02*
X040290Y021008D01*
X040290Y021167D02*
X041726Y021167D01*
X041884Y021325D02*
X040290Y021325D01*
X040290Y021484D02*
X042043Y021484D01*
X042201Y021642D02*
X040290Y021642D01*
X040290Y021801D02*
X042360Y021801D01*
X042518Y021959D02*
X040290Y021959D01*
X039890Y024390D02*
X039890Y024390D01*
X040410Y024971D02*
X041586Y024971D01*
X041427Y025129D02*
X040279Y025129D01*
X040103Y025288D02*
X041415Y025288D01*
X041415Y025446D02*
X040262Y025446D01*
X040420Y025605D02*
X041415Y025605D01*
X041540Y025763D02*
X040579Y025763D01*
X040737Y025922D02*
X041698Y025922D01*
X042490Y025763D02*
X042990Y025763D01*
X042990Y025605D02*
X042615Y025605D01*
X042615Y025446D02*
X042990Y025446D01*
X042990Y025288D02*
X042615Y025288D01*
X042603Y025129D02*
X042990Y025129D01*
X042865Y024971D02*
X042444Y024971D01*
X042286Y024812D02*
X042799Y024812D01*
X041390Y027140D02*
X038890Y024640D01*
X047606Y019740D02*
X048059Y019740D01*
X047904Y019582D02*
X047764Y019582D01*
X048390Y019265D02*
X051390Y016265D01*
X051390Y013640D01*
X051890Y013140D01*
X051890Y011390D01*
X052290Y012132D02*
X052503Y012132D01*
X053277Y012132D02*
X053503Y012132D01*
X052890Y011390D02*
X052890Y008140D01*
X051890Y007140D01*
X053241Y007694D02*
X053539Y007694D01*
X053491Y005634D02*
X053289Y005634D01*
X052491Y005634D02*
X052289Y005634D01*
X051491Y005634D02*
X051289Y005634D01*
X049390Y006640D02*
X048890Y006140D01*
X049390Y006640D02*
X049390Y009765D01*
X050890Y011265D01*
X050890Y011390D01*
X049890Y011390D02*
X049890Y011140D01*
X046765Y008015D01*
X044765Y008015D01*
X043890Y007140D01*
X045625Y009121D02*
X046055Y009121D01*
X046213Y009279D02*
X045835Y009279D01*
X044820Y009755D02*
X041755Y009755D01*
X041979Y009913D02*
X044886Y009913D01*
X044990Y010072D02*
X042137Y010072D01*
X042296Y010230D02*
X044990Y010230D01*
X044990Y010389D02*
X042454Y010389D01*
X042613Y010547D02*
X043181Y010547D01*
X043390Y010547D02*
X043390Y010547D01*
X043390Y010510D02*
X043390Y011390D01*
X043390Y010510D01*
X043390Y010706D02*
X043390Y010706D01*
X043390Y010864D02*
X043390Y010864D01*
X043390Y011023D02*
X043390Y011023D01*
X043390Y011181D02*
X043390Y011181D01*
X043390Y011340D02*
X043390Y011340D01*
X043390Y011390D02*
X043390Y011390D01*
X043390Y011498D02*
X043390Y011498D01*
X043390Y011657D02*
X043390Y011657D01*
X043390Y011815D02*
X043390Y011815D01*
X043390Y011974D02*
X043390Y011974D01*
X043390Y012132D02*
X043390Y012132D01*
X043775Y012132D02*
X044747Y012132D01*
X044889Y011974D02*
X043909Y011974D01*
X043974Y011815D02*
X044990Y011815D01*
X044990Y011657D02*
X043990Y011657D01*
X043990Y011498D02*
X044990Y011498D01*
X044990Y011340D02*
X043990Y011340D01*
X043990Y011181D02*
X044990Y011181D01*
X044990Y011023D02*
X043984Y011023D01*
X043938Y010864D02*
X044990Y010864D01*
X044990Y010706D02*
X043834Y010706D01*
X043599Y010547D02*
X044990Y010547D01*
X042946Y010706D02*
X042834Y010706D01*
X041390Y010765D02*
X041390Y011390D01*
X041390Y010765D02*
X041140Y010515D01*
X040140Y010515D01*
X039890Y010765D01*
X039890Y012015D01*
X039390Y012515D01*
X042777Y012132D02*
X043005Y012132D01*
X046740Y013559D02*
X047651Y013559D01*
X047434Y013717D02*
X046884Y013717D01*
X046949Y013876D02*
X047336Y013876D01*
X047890Y014510D02*
X047890Y014510D01*
X047890Y014668D02*
X047890Y014668D01*
X047890Y014827D02*
X047890Y014827D01*
X047890Y014985D02*
X047890Y014985D01*
X047890Y015144D02*
X047890Y015144D01*
X052265Y015144D02*
X052515Y015144D01*
X053265Y015144D02*
X053515Y015144D01*
X053434Y013717D02*
X053346Y013717D01*
X053126Y013559D02*
X053654Y013559D01*
X054126Y013559D02*
X054790Y013559D01*
X054790Y013400D02*
X052196Y013400D01*
X052126Y013559D02*
X052654Y013559D01*
X052434Y013717D02*
X052346Y013717D01*
X052281Y013242D02*
X054790Y013242D01*
X054848Y013083D02*
X052290Y013083D01*
X052290Y012925D02*
X055007Y012925D01*
X055932Y013083D02*
X058625Y013083D01*
X058625Y013242D02*
X055990Y013242D01*
X055990Y013400D02*
X058625Y013400D01*
X058778Y013559D02*
X055990Y013559D01*
X055912Y013717D02*
X058783Y013717D01*
X055027Y013876D02*
X054442Y013876D01*
X054346Y013717D02*
X054868Y013717D01*
X056104Y017046D02*
X058625Y017046D01*
X058625Y017204D02*
X056270Y017204D01*
X056428Y017363D02*
X058625Y017363D01*
X058741Y017521D02*
X056587Y017521D01*
X056736Y017680D02*
X057410Y017680D01*
X057251Y017838D02*
X056790Y017838D01*
X056790Y017997D02*
X057093Y017997D01*
X053363Y018314D02*
X052907Y018314D01*
X052749Y018472D02*
X053298Y018472D01*
X053290Y018631D02*
X052590Y018631D01*
X052432Y018789D02*
X053290Y018789D01*
X060890Y024390D02*
X060890Y024390D01*
X060265Y037140D02*
X062890Y037140D01*
X062275Y037651D02*
X060660Y037651D01*
X059870Y037651D02*
X059660Y037651D01*
X059583Y039553D02*
X059947Y039553D01*
X059789Y039711D02*
X059741Y039711D01*
X060245Y039711D02*
X060285Y039711D01*
X060285Y039553D02*
X060245Y039553D01*
X060285Y039500D02*
X060530Y039500D01*
X060905Y039875D01*
X060905Y040120D01*
X060285Y040120D01*
X060285Y039500D01*
X060583Y039553D02*
X066502Y039553D01*
X066502Y039711D02*
X060741Y039711D01*
X060900Y039870D02*
X066502Y039870D01*
X066502Y040028D02*
X060905Y040028D01*
X060905Y040187D02*
X066502Y040187D01*
X066502Y040345D02*
X066276Y040345D01*
X066444Y040504D02*
X066502Y040504D01*
X065254Y040345D02*
X064189Y040345D01*
X064277Y040504D02*
X065086Y040504D01*
X064956Y040662D02*
X064294Y040662D01*
X064250Y040821D02*
X064891Y040821D01*
X064835Y040979D02*
X064125Y040979D01*
X063870Y041138D02*
X064835Y041138D01*
X064835Y041296D02*
X063870Y041296D01*
X063870Y041455D02*
X064889Y041455D01*
X064954Y041613D02*
X063870Y041613D01*
X063870Y041772D02*
X065081Y041772D01*
X065242Y041930D02*
X063870Y041930D01*
X063828Y042089D02*
X066502Y042089D01*
X066502Y042247D02*
X063704Y042247D01*
X063166Y042247D02*
X062535Y042247D01*
X062659Y042089D02*
X063007Y042089D01*
X063066Y042147D02*
X063066Y042147D01*
X062849Y041930D02*
X062701Y041930D01*
X061573Y042247D02*
X004270Y042247D01*
X004270Y042406D02*
X066502Y042406D01*
X066502Y042564D02*
X004270Y042564D01*
X004270Y042723D02*
X066502Y042723D01*
X066502Y041930D02*
X066288Y041930D01*
X066449Y041772D02*
X066502Y041772D01*
X062681Y040345D02*
X062596Y040345D01*
X061512Y040345D02*
X060905Y040345D01*
X060807Y040504D02*
X061423Y040504D01*
X061407Y040662D02*
X060692Y040662D01*
X060851Y040821D02*
X061256Y040821D01*
X061195Y040979D02*
X060905Y040979D01*
X060905Y041296D02*
X061234Y041296D01*
X061195Y041138D02*
X060285Y041138D01*
X060245Y041138D02*
X059285Y041138D01*
X059285Y041296D02*
X059245Y041296D01*
X059245Y041455D02*
X059285Y041455D01*
X059285Y041613D02*
X059245Y041613D01*
X059245Y041772D02*
X059285Y041772D01*
X059539Y041772D02*
X059991Y041772D01*
X059833Y041613D02*
X059697Y041613D01*
X060245Y041613D02*
X060285Y041613D01*
X060285Y041455D02*
X060245Y041455D01*
X060245Y041296D02*
X060285Y041296D01*
X060285Y040979D02*
X060245Y040979D01*
X060245Y040821D02*
X060285Y040821D01*
X060285Y040662D02*
X060245Y040662D01*
X060245Y040504D02*
X060285Y040504D01*
X060285Y040345D02*
X060245Y040345D01*
X060245Y040187D02*
X060285Y040187D01*
X060285Y040028D02*
X060245Y040028D01*
X060245Y039870D02*
X060285Y039870D01*
X058789Y039711D02*
X049870Y039711D01*
X049870Y039870D02*
X058630Y039870D01*
X058625Y040028D02*
X049990Y040028D01*
X049990Y040187D02*
X058625Y040187D01*
X058625Y040345D02*
X049990Y040345D01*
X049990Y040504D02*
X058723Y040504D01*
X058838Y040662D02*
X049841Y040662D01*
X049683Y040821D02*
X058679Y040821D01*
X058625Y040979D02*
X049355Y040979D01*
X048631Y040345D02*
X047990Y040345D01*
X047990Y040187D02*
X048790Y040187D01*
X048790Y040028D02*
X047990Y040028D01*
X047843Y039870D02*
X048910Y039870D01*
X048473Y040504D02*
X047990Y040504D01*
X047841Y040662D02*
X048314Y040662D01*
X040890Y034390D02*
X039265Y036015D01*
X028890Y029265D02*
X027890Y028265D01*
X027890Y027390D01*
X025890Y027390D02*
X025390Y026890D01*
X026279Y025129D02*
X026501Y025129D01*
X027279Y025129D02*
X027501Y025129D01*
X027449Y023703D02*
X027331Y023703D01*
X027320Y020691D02*
X027460Y020691D01*
X027716Y020533D02*
X027064Y020533D01*
X028064Y020533D02*
X028716Y020533D01*
X028460Y020691D02*
X028320Y020691D01*
X028303Y019106D02*
X028477Y019106D01*
X028890Y019106D02*
X028890Y019106D01*
X028890Y018948D02*
X028890Y018948D01*
X028890Y018789D02*
X028890Y018789D01*
X028890Y018631D02*
X028890Y018631D01*
X028890Y018472D02*
X028890Y018472D01*
X028890Y018314D02*
X028890Y018314D01*
X028890Y018155D02*
X028890Y018155D01*
X028890Y017997D02*
X028890Y017997D01*
X028890Y017838D02*
X028890Y017838D01*
X028890Y017680D02*
X028890Y017680D01*
X026472Y017680D02*
X026308Y017680D01*
X025890Y014390D02*
X026890Y014390D01*
X025890Y014390D02*
X025890Y011390D01*
X025490Y012132D02*
X025277Y012132D01*
X024503Y012132D02*
X024277Y012132D01*
X024129Y013559D02*
X024654Y013559D01*
X024434Y013717D02*
X024346Y013717D01*
X025126Y013559D02*
X025490Y013559D01*
X025434Y013717D02*
X025346Y013717D01*
X060856Y041455D02*
X061195Y041455D01*
X061215Y041613D02*
X060697Y041613D01*
X060539Y041772D02*
X061309Y041772D01*
X060285Y041772D02*
X060245Y041772D01*
X008116Y041772D02*
X007664Y041772D01*
X007822Y041613D02*
X007958Y041613D01*
D18*
X008390Y041140D02*
X008390Y040140D01*
X008390Y041140D02*
X009015Y041765D01*
X030765Y041765D01*
X030765Y038265D01*
X031640Y037390D01*
X030765Y041765D02*
X047890Y041765D01*
X049390Y040265D01*
X049390Y038640D01*
X052390Y027390D02*
X053890Y027390D01*
X053890Y021890D02*
X052390Y021890D01*
X031390Y011390D02*
X029890Y011390D01*
X010390Y021390D02*
X008890Y021390D01*
D19*
X013015Y015515D03*
X022390Y022890D03*
X024890Y029140D03*
X023890Y029890D03*
X026265Y029890D03*
X042265Y029140D03*
X043015Y031015D03*
X050515Y027390D03*
X046390Y022015D03*
X048390Y019265D03*
X048390Y017140D03*
X046390Y014015D03*
X045390Y009640D03*
X042140Y018265D03*
X037515Y018265D03*
X032140Y008015D03*
M02*
