%
M48
M72
T01C0.0200
T02C0.0320
T03C0.0360
T04C0.0400
T05C0.1100
%
T01
X12069Y10488
X11169Y13688
X15169Y17788
X15169Y18288
X12169Y19688
X12569Y20688
X14569Y20988
X17269Y22188
X17669Y21888
X19269Y23988
X16869Y24788
X16469Y24388
X10169Y27588
X9969Y28588
X9569Y31188
X6769Y30288
X6969Y28788
X7869Y33688
X9369Y33888
X6169Y33988
X6169Y34588
X9769Y37788
X9369Y39388
X11769Y44388
X17169Y44788
X17269Y33188
X16769Y33188
X14569Y30788
X24669Y31188
X25069Y32388
X26869Y29088
X27969Y28188
X27769Y27688
X30269Y29288
X32669Y26688
X34169Y27488
X33969Y30388
X33169Y33388
X38969Y32588
X39469Y32588
X38469Y30388
X45869Y32188
X48169Y30388
X50969Y29288
X51969Y29688
X52969Y30088
X55169Y29488
X52869Y27788
X53269Y24988
X55769Y23988
X57569Y25988
X59469Y24088
X59069Y20788
X63269Y23088
X64769Y22688
X66569Y23788
X66769Y25688
X59869Y30488
X59369Y30688
X58669Y32888
X60069Y33488
X60969Y33288
X61969Y33788
X64469Y33388
X64869Y34788
X67369Y32288
X66969Y38088
X66469Y40088
X58969Y43688
X58869Y43088
X56769Y43488
X54869Y41788
X54269Y40788
X55669Y39988
X55969Y38388
X54969Y34988
X55769Y34588
X54069Y34188
X49669Y33588
X58569Y28188
X59369Y14988
X43369Y10588
X33169Y15588
X31569Y13888
X29369Y13488
X28969Y13188
X29169Y12488
X28969Y10488
X28969Y15288
X29369Y15688
X29069Y16288
X27769Y16488
X30769Y18188
X31169Y17388
X27969Y20588
X25669Y21788
X24669Y22488
X24669Y23088
X28969Y25988
X39869Y21088
X52569Y41788
X52169Y42088
X38869Y43788
X8869Y19188
T02
X8469Y21388
X8469Y22388
X8469Y23388
X8469Y24388
X8469Y25388
X8469Y26388
X8469Y27388
X8469Y28388
X8469Y29388
X8469Y30388
X8969Y31888
X10969Y31888
X11469Y30388
X11469Y29388
X11469Y28388
X11469Y27388
X11469Y26388
X11469Y25388
X11469Y24388
X11469Y23388
X11469Y22388
X11469Y21388
X13469Y19388
X12969Y17888
X12969Y16888
X12969Y15888
X12969Y14888
X12969Y13888
X12969Y12888
X12969Y11888
X12969Y10888
X15969Y10888
X15969Y11888
X15969Y12888
X15969Y13888
X15969Y14888
X15969Y15888
X15969Y16888
X15969Y17888
X15469Y19388
X15469Y21388
X15469Y22388
X15469Y23388
X15469Y24388
X15469Y25388
X15469Y26388
X15469Y27388
X15469Y28388
X15469Y29388
X15469Y30388
X15969Y31888
X17969Y31888
X18469Y30388
X18469Y29388
X18469Y28388
X18469Y27388
X18469Y26388
X18469Y25388
X18469Y24388
X18469Y23388
X18469Y22388
X18469Y21388
X19469Y18388
X18969Y16888
X18969Y15888
X18969Y14888
X18969Y13888
X18969Y12888
X18969Y11888
X18969Y10888
X21969Y10888
X21969Y11888
X21969Y12888
X21969Y13888
X21969Y14888
X21969Y15888
X21969Y16888
X21469Y18388
X26969Y17888
X26969Y16888
X26969Y15888
X26969Y14888
X26969Y13888
X26969Y12888
X26969Y11888
X26969Y10888
X29969Y10888
X29969Y11888
X29969Y12888
X29969Y13888
X29969Y14888
X29969Y15888
X29969Y16888
X29969Y17888
X29469Y19388
X27469Y19388
X26969Y21388
X26969Y22388
X26969Y23388
X26969Y24388
X26969Y25388
X26969Y26388
X26969Y27388
X27469Y28888
X29469Y28888
X29969Y27388
X29969Y26388
X29969Y25388
X29969Y24388
X29969Y23388
X29969Y22388
X29969Y21388
X34469Y21888
X34469Y22888
X34469Y23888
X34469Y24888
X34469Y25888
X34469Y26888
X35969Y28388
X36969Y28388
X37969Y28388
X38969Y28388
X39969Y28388
X40969Y28388
X41969Y28388
X42969Y28388
X43469Y26888
X43469Y25888
X43469Y24888
X43469Y23888
X43469Y22888
X43469Y21888
X43469Y20888
X43469Y19888
X43469Y18888
X43469Y17888
X43469Y16888
X43469Y15888
X43469Y14888
X43469Y13888
X43469Y12888
X43469Y11888
X43969Y10388
X45969Y10388
X49469Y11888
X49469Y12888
X49469Y13888
X49469Y14888
X49469Y15888
X49469Y16888
X49469Y17888
X49469Y18888
X49469Y19888
X49469Y20888
X49469Y21888
X49469Y22888
X49469Y23888
X49469Y24888
X49469Y25888
X49469Y26888
X50969Y28388
X51969Y28388
X52969Y28388
X53969Y28388
X54969Y28388
X55969Y28388
X56969Y28388
X57969Y28388
X58469Y26888
X58469Y25888
X58469Y24888
X58469Y23888
X58469Y22888
X58469Y21888
X58469Y20888
X58469Y19888
X58469Y18888
X58469Y17888
X58469Y16888
X58469Y15888
X58469Y14888
X58469Y13888
X58469Y12888
X58469Y11888
X61329Y11268
X61329Y9268
X54969Y10388
X52969Y10388
X52469Y11888
X52469Y12888
X52469Y13888
X52469Y14888
X52469Y15888
X52469Y16888
X52469Y17888
X52469Y18888
X52469Y19888
X52469Y20888
X52469Y21888
X52469Y22888
X52469Y23888
X52469Y24888
X52469Y25888
X52469Y26888
X49469Y28888
X49469Y30888
X50969Y31388
X51969Y31388
X52969Y31388
X53969Y31388
X54969Y31388
X55969Y31388
X56969Y31388
X57969Y31388
X59469Y33888
X59469Y34888
X59469Y35888
X59469Y36888
X59469Y37888
X59469Y38888
X59469Y39888
X59469Y40888
X59469Y41888
X59469Y42888
X58969Y44388
X56969Y44388
X56469Y42888
X56469Y41888
X56469Y40888
X56469Y39888
X56469Y38888
X56469Y37888
X56469Y36888
X56469Y35888
X56469Y34888
X56469Y33888
X53469Y33888
X53469Y34888
X53469Y35888
X53469Y36888
X53469Y37888
X53469Y38888
X53469Y39888
X53469Y40888
X53469Y41888
X53469Y42888
X52969Y44388
X50969Y44388
X50469Y42888
X50469Y41888
X50469Y40888
X50469Y39888
X50469Y38888
X50469Y37888
X50469Y36888
X50469Y35888
X50469Y34888
X50469Y33888
X46469Y33888
X46469Y34888
X46469Y35888
X46469Y36888
X46469Y37888
X46469Y38888
X46469Y39888
X46469Y40888
X46469Y41888
X46469Y42888
X45969Y44388
X43969Y44388
X43469Y42888
X43469Y41888
X43469Y40888
X43469Y39888
X43469Y38888
X43469Y37888
X43469Y36888
X43469Y35888
X43469Y34888
X43469Y33888
X42969Y31388
X41969Y31388
X40969Y31388
X39969Y31388
X38969Y31388
X37969Y31388
X36969Y31388
X35969Y31388
X34469Y30888
X34469Y28888
X36469Y33888
X36469Y34888
X36469Y35888
X36469Y36888
X36469Y37888
X36469Y38888
X36469Y39888
X36469Y40888
X36469Y41888
X36469Y42888
X36969Y44388
X38969Y44388
X39469Y42888
X39469Y41888
X39469Y40888
X39469Y39888
X39469Y38888
X39469Y37888
X39469Y36888
X39469Y35888
X39469Y34888
X39469Y33888
X32469Y33888
X32469Y34888
X32469Y35888
X32469Y36888
X32469Y37888
X32469Y38888
X32469Y39888
X32469Y40888
X32469Y41888
X32469Y42888
X31969Y44388
X29969Y44388
X29469Y42888
X29469Y41888
X29469Y40888
X29469Y39888
X29469Y38888
X29469Y37888
X29469Y36888
X29469Y35888
X29469Y34888
X29469Y33888
X25469Y33888
X25469Y34888
X25469Y35888
X25469Y36888
X25469Y37888
X25469Y38888
X25469Y39888
X25469Y40888
X25469Y41888
X25469Y42888
X24969Y44388
X22969Y44388
X22469Y42888
X22469Y41888
X22469Y40888
X22469Y39888
X22469Y38888
X22469Y37888
X22469Y36888
X22469Y35888
X22469Y34888
X22469Y33888
X18469Y33888
X18469Y34888
X18469Y35888
X18469Y36888
X18469Y37888
X18469Y38888
X18469Y39888
X18469Y40888
X18469Y41888
X18469Y42888
X17969Y44388
X15969Y44388
X15469Y42888
X15469Y41888
X15469Y40888
X15469Y39888
X15469Y38888
X15469Y37888
X15469Y36888
X15469Y35888
X15469Y34888
X15469Y33888
X11469Y33888
X11469Y34888
X11469Y35888
X11469Y36888
X11469Y37888
X11469Y38888
X11469Y39888
X11469Y40888
X11469Y41888
X11469Y42888
X10969Y44388
X8969Y44388
X8469Y42888
X8469Y41888
X8469Y40888
X8469Y39888
X8469Y38888
X8469Y37888
X8469Y36888
X8469Y35888
X8469Y34888
X8469Y33888
X34469Y20888
X34469Y19888
X34469Y18888
X34469Y17888
X34469Y16888
X34469Y15888
X34469Y14888
X34469Y13888
X34469Y12888
X34469Y11888
X34969Y10388
X36969Y10388
X40469Y11888
X40469Y12888
X40469Y13888
X40469Y14888
X40469Y15888
X40469Y16888
X40469Y17888
X40469Y18888
X40469Y19888
X40469Y20888
X40469Y21888
X40469Y22888
X40469Y23888
X40469Y24888
X40469Y25888
X40469Y26888
X60969Y33888
X60969Y34888
X60969Y35888
X60969Y36888
X60969Y37888
X60969Y38888
X60969Y39888
X60969Y40888
X60969Y41888
T03
X63851Y41612
X63851Y40612
X63851Y39612
X63851Y38612
X63851Y37612
X63851Y36612
X63851Y35612
X63851Y34612
X63851Y33612
X63851Y32612
X63851Y31612
X63851Y30612
X63851Y29612
X63851Y28612
X63851Y27612
X63851Y26612
X63851Y25612
X63851Y24612
X63851Y23612
X63851Y22612
X63851Y21612
X63851Y20612
X63851Y19612
X63851Y18612
X63851Y17612
X63851Y16612
X63851Y15612
X63851Y14612
X63851Y13612
X63851Y12612
X63851Y11612
X65851Y11612
X65851Y12612
X65851Y13612
X65851Y14612
X65851Y15612
X65851Y16612
X65851Y17612
X65851Y18612
X65851Y19612
X65851Y20612
X65851Y21612
X65851Y22612
X65851Y23612
X65851Y24612
X65851Y25612
X65851Y26612
X65851Y27612
X65851Y28612
X65851Y29612
X65851Y30612
X65851Y31612
X65851Y32612
X65851Y33612
X65851Y34612
X65851Y35612
X65851Y36612
X65851Y37612
X65851Y38612
X65851Y39612
X65851Y40612
X65851Y41612
X65851Y42612
X63851Y42612
T04
X8969Y17988
X7969Y17988
X7969Y16988
X8969Y16988
X8969Y15988
X7969Y15988
X7969Y14988
X8969Y14988
X8969Y13988
X7969Y13988
X7969Y12988
X8969Y12988
X8969Y11988
X7969Y11988
T05
X6351Y9612
X6351Y44612
X66851Y44612
X66851Y9612
M30
