G75*
G70*
%OFA0B0*%
%FSLAX24Y24*%
%IPPOS*%
%LPD*%
%AMOC8*
5,1,8,0,0,1.08239X$1,22.5*
%
%ADD10R,0.0640X0.0640*%
%ADD11C,0.0060*%
%ADD12R,0.0710X0.0710*%
%ADD13C,0.1180*%
%ADD14R,0.0720X0.0720*%
%ADD15R,0.0830X0.0830*%
D10*
X012969Y010888D03*
X012969Y011888D03*
X012969Y012888D03*
X012969Y013888D03*
X012969Y014888D03*
X012969Y015888D03*
X012969Y016888D03*
X012969Y017888D03*
X013469Y019388D03*
X015469Y019388D03*
X015969Y017888D03*
X015969Y016888D03*
X015969Y015888D03*
X015969Y014888D03*
X015969Y013888D03*
X015969Y012888D03*
X015969Y011888D03*
X015969Y010888D03*
X018969Y010888D03*
X018969Y011888D03*
X018969Y012888D03*
X018969Y013888D03*
X018969Y014888D03*
X018969Y015888D03*
X018969Y016888D03*
X019469Y018388D03*
X021469Y018388D03*
X021969Y016888D03*
X021969Y015888D03*
X021969Y014888D03*
X021969Y013888D03*
X021969Y012888D03*
X021969Y011888D03*
X021969Y010888D03*
X026969Y010888D03*
X026969Y011888D03*
X026969Y012888D03*
X026969Y013888D03*
X026969Y014888D03*
X026969Y015888D03*
X026969Y016888D03*
X026969Y017888D03*
X027469Y019388D03*
X029469Y019388D03*
X029969Y017888D03*
X029969Y016888D03*
X029969Y015888D03*
X029969Y014888D03*
X029969Y013888D03*
X029969Y012888D03*
X029969Y011888D03*
X029969Y010888D03*
X034469Y011888D03*
X034469Y012888D03*
X034469Y013888D03*
X034469Y014888D03*
X034469Y015888D03*
X034469Y016888D03*
X034469Y017888D03*
X034469Y018888D03*
X034469Y019888D03*
X034469Y020888D03*
X034469Y021888D03*
X034469Y022888D03*
X034469Y023888D03*
X034469Y024888D03*
X034469Y025888D03*
X034469Y026888D03*
X035969Y028388D03*
X036969Y028388D03*
X037969Y028388D03*
X038969Y028388D03*
X039969Y028388D03*
X040969Y028388D03*
X041969Y028388D03*
X042969Y028388D03*
X043469Y026888D03*
X043469Y025888D03*
X043469Y024888D03*
X043469Y023888D03*
X043469Y022888D03*
X043469Y021888D03*
X043469Y020888D03*
X043469Y019888D03*
X043469Y018888D03*
X043469Y017888D03*
X043469Y016888D03*
X043469Y015888D03*
X043469Y014888D03*
X043469Y013888D03*
X043469Y012888D03*
X043469Y011888D03*
X043969Y010388D03*
X045969Y010388D03*
X049469Y011888D03*
X049469Y012888D03*
X049469Y013888D03*
X049469Y014888D03*
X049469Y015888D03*
X049469Y016888D03*
X049469Y017888D03*
X049469Y018888D03*
X049469Y019888D03*
X049469Y020888D03*
X049469Y021888D03*
X049469Y022888D03*
X049469Y023888D03*
X049469Y024888D03*
X049469Y025888D03*
X049469Y026888D03*
X050969Y028388D03*
X051969Y028388D03*
X052969Y028388D03*
X053969Y028388D03*
X054969Y028388D03*
X055969Y028388D03*
X056969Y028388D03*
X057969Y028388D03*
X058469Y026888D03*
X058469Y025888D03*
X058469Y024888D03*
X058469Y023888D03*
X058469Y022888D03*
X058469Y021888D03*
X058469Y020888D03*
X058469Y019888D03*
X058469Y018888D03*
X058469Y017888D03*
X058469Y016888D03*
X058469Y015888D03*
X058469Y014888D03*
X058469Y013888D03*
X058469Y012888D03*
X058469Y011888D03*
X054969Y010388D03*
X052969Y010388D03*
X052469Y011888D03*
X052469Y012888D03*
X052469Y013888D03*
X052469Y014888D03*
X052469Y015888D03*
X052469Y016888D03*
X052469Y017888D03*
X052469Y018888D03*
X052469Y019888D03*
X052469Y020888D03*
X052469Y021888D03*
X052469Y022888D03*
X052469Y023888D03*
X052469Y024888D03*
X052469Y025888D03*
X052469Y026888D03*
X049469Y028888D03*
X049469Y030888D03*
X050969Y031388D03*
X051969Y031388D03*
X052969Y031388D03*
X053969Y031388D03*
X054969Y031388D03*
X055969Y031388D03*
X056969Y031388D03*
X057969Y031388D03*
X059469Y033888D03*
X059469Y034888D03*
X059469Y035888D03*
X059469Y036888D03*
X059469Y037888D03*
X059469Y038888D03*
X059469Y039888D03*
X059469Y040888D03*
X059469Y041888D03*
X059469Y042888D03*
X058969Y044388D03*
X056969Y044388D03*
X056469Y042888D03*
X056469Y041888D03*
X056469Y040888D03*
X056469Y039888D03*
X056469Y038888D03*
X056469Y037888D03*
X056469Y036888D03*
X056469Y035888D03*
X056469Y034888D03*
X056469Y033888D03*
X053469Y033888D03*
X053469Y034888D03*
X053469Y035888D03*
X053469Y036888D03*
X053469Y037888D03*
X053469Y038888D03*
X053469Y039888D03*
X053469Y040888D03*
X053469Y041888D03*
X053469Y042888D03*
X052969Y044388D03*
X050969Y044388D03*
X050469Y042888D03*
X050469Y041888D03*
X050469Y040888D03*
X050469Y039888D03*
X050469Y038888D03*
X050469Y037888D03*
X050469Y036888D03*
X050469Y035888D03*
X050469Y034888D03*
X050469Y033888D03*
X046469Y033888D03*
X046469Y034888D03*
X046469Y035888D03*
X046469Y036888D03*
X046469Y037888D03*
X046469Y038888D03*
X046469Y039888D03*
X046469Y040888D03*
X046469Y041888D03*
X046469Y042888D03*
X045969Y044388D03*
X043969Y044388D03*
X043469Y042888D03*
X043469Y041888D03*
X043469Y040888D03*
X043469Y039888D03*
X043469Y038888D03*
X043469Y037888D03*
X043469Y036888D03*
X043469Y035888D03*
X043469Y034888D03*
X043469Y033888D03*
X042969Y031388D03*
X041969Y031388D03*
X040969Y031388D03*
X039969Y031388D03*
X038969Y031388D03*
X037969Y031388D03*
X036969Y031388D03*
X035969Y031388D03*
X034469Y030888D03*
X034469Y028888D03*
X029969Y027388D03*
X029969Y026388D03*
X029969Y025388D03*
X029969Y024388D03*
X029969Y023388D03*
X029969Y022388D03*
X029969Y021388D03*
X026969Y021388D03*
X026969Y022388D03*
X026969Y023388D03*
X026969Y024388D03*
X026969Y025388D03*
X026969Y026388D03*
X026969Y027388D03*
X027469Y028888D03*
X029469Y028888D03*
X029469Y033888D03*
X029469Y034888D03*
X029469Y035888D03*
X029469Y036888D03*
X029469Y037888D03*
X029469Y038888D03*
X029469Y039888D03*
X029469Y040888D03*
X029469Y041888D03*
X029469Y042888D03*
X029969Y044388D03*
X031969Y044388D03*
X032469Y042888D03*
X032469Y041888D03*
X032469Y040888D03*
X032469Y039888D03*
X032469Y038888D03*
X032469Y037888D03*
X032469Y036888D03*
X032469Y035888D03*
X032469Y034888D03*
X032469Y033888D03*
X036469Y033888D03*
X036469Y034888D03*
X036469Y035888D03*
X036469Y036888D03*
X036469Y037888D03*
X036469Y038888D03*
X036469Y039888D03*
X036469Y040888D03*
X036469Y041888D03*
X036469Y042888D03*
X036969Y044388D03*
X038969Y044388D03*
X039469Y042888D03*
X039469Y041888D03*
X039469Y040888D03*
X039469Y039888D03*
X039469Y038888D03*
X039469Y037888D03*
X039469Y036888D03*
X039469Y035888D03*
X039469Y034888D03*
X039469Y033888D03*
X040469Y026888D03*
X040469Y025888D03*
X040469Y024888D03*
X040469Y023888D03*
X040469Y022888D03*
X040469Y021888D03*
X040469Y020888D03*
X040469Y019888D03*
X040469Y018888D03*
X040469Y017888D03*
X040469Y016888D03*
X040469Y015888D03*
X040469Y014888D03*
X040469Y013888D03*
X040469Y012888D03*
X040469Y011888D03*
X036969Y010388D03*
X034969Y010388D03*
X018469Y021388D03*
X018469Y022388D03*
X018469Y023388D03*
X018469Y024388D03*
X018469Y025388D03*
X018469Y026388D03*
X018469Y027388D03*
X018469Y028388D03*
X018469Y029388D03*
X018469Y030388D03*
X017969Y031888D03*
X015969Y031888D03*
X015469Y030388D03*
X015469Y029388D03*
X015469Y028388D03*
X015469Y027388D03*
X015469Y026388D03*
X015469Y025388D03*
X015469Y024388D03*
X015469Y023388D03*
X015469Y022388D03*
X015469Y021388D03*
X011469Y021388D03*
X011469Y022388D03*
X011469Y023388D03*
X011469Y024388D03*
X011469Y025388D03*
X011469Y026388D03*
X011469Y027388D03*
X011469Y028388D03*
X011469Y029388D03*
X011469Y030388D03*
X010969Y031888D03*
X008969Y031888D03*
X008469Y030388D03*
X008469Y029388D03*
X008469Y028388D03*
X008469Y027388D03*
X008469Y026388D03*
X008469Y025388D03*
X008469Y024388D03*
X008469Y023388D03*
X008469Y022388D03*
X008469Y021388D03*
X008469Y033888D03*
X008469Y034888D03*
X008469Y035888D03*
X008469Y036888D03*
X008469Y037888D03*
X008469Y038888D03*
X008469Y039888D03*
X008469Y040888D03*
X008469Y041888D03*
X008469Y042888D03*
X008969Y044388D03*
X010969Y044388D03*
X011469Y042888D03*
X011469Y041888D03*
X011469Y040888D03*
X011469Y039888D03*
X011469Y038888D03*
X011469Y037888D03*
X011469Y036888D03*
X011469Y035888D03*
X011469Y034888D03*
X011469Y033888D03*
X015469Y033888D03*
X015469Y034888D03*
X015469Y035888D03*
X015469Y036888D03*
X015469Y037888D03*
X015469Y038888D03*
X015469Y039888D03*
X015469Y040888D03*
X015469Y041888D03*
X015469Y042888D03*
X015969Y044388D03*
X017969Y044388D03*
X018469Y042888D03*
X018469Y041888D03*
X018469Y040888D03*
X018469Y039888D03*
X018469Y038888D03*
X018469Y037888D03*
X018469Y036888D03*
X018469Y035888D03*
X018469Y034888D03*
X018469Y033888D03*
X022469Y033888D03*
X022469Y034888D03*
X022469Y035888D03*
X022469Y036888D03*
X022469Y037888D03*
X022469Y038888D03*
X022469Y039888D03*
X022469Y040888D03*
X022469Y041888D03*
X022469Y042888D03*
X022969Y044388D03*
X024969Y044388D03*
X025469Y042888D03*
X025469Y041888D03*
X025469Y040888D03*
X025469Y039888D03*
X025469Y038888D03*
X025469Y037888D03*
X025469Y036888D03*
X025469Y035888D03*
X025469Y034888D03*
X025469Y033888D03*
X060969Y033888D03*
X060969Y034888D03*
X060969Y035888D03*
X060969Y036888D03*
X060969Y037888D03*
X060969Y038888D03*
X060969Y039888D03*
X060969Y040888D03*
X060969Y041888D03*
D11*
X004951Y010422D02*
X004951Y007422D01*
X007951Y007422D01*
X004951Y043802D02*
X004951Y046802D01*
X007951Y046802D01*
X064951Y046802D02*
X067951Y046802D01*
X067951Y043802D01*
X067951Y010422D02*
X067951Y007422D01*
X064951Y007422D01*
D12*
X065851Y011612D03*
X065851Y012612D03*
X065851Y013612D03*
X065851Y014612D03*
X065851Y015612D03*
X065851Y016612D03*
X065851Y017612D03*
X065851Y018612D03*
X065851Y019612D03*
X065851Y020612D03*
X065851Y021612D03*
X065851Y022612D03*
X065851Y023612D03*
X065851Y024612D03*
X065851Y025612D03*
X065851Y026612D03*
X065851Y027612D03*
X065851Y028612D03*
X065851Y029612D03*
X065851Y030612D03*
X065851Y031612D03*
X065851Y032612D03*
X065851Y033612D03*
X065851Y034612D03*
X065851Y035612D03*
X065851Y036612D03*
X065851Y037612D03*
X065851Y038612D03*
X065851Y039612D03*
X065851Y040612D03*
X065851Y041612D03*
X065851Y042612D03*
X063851Y042612D03*
X063851Y041612D03*
X063851Y040612D03*
X063851Y039612D03*
X063851Y038612D03*
X063851Y037612D03*
X063851Y036612D03*
X063851Y035612D03*
X063851Y034612D03*
X063851Y033612D03*
X063851Y032612D03*
X063851Y031612D03*
X063851Y030612D03*
X063851Y029612D03*
X063851Y028612D03*
X063851Y027612D03*
X063851Y026612D03*
X063851Y025612D03*
X063851Y024612D03*
X063851Y023612D03*
X063851Y022612D03*
X063851Y021612D03*
X063851Y020612D03*
X063851Y019612D03*
X063851Y018612D03*
X063851Y017612D03*
X063851Y016612D03*
X063851Y015612D03*
X063851Y014612D03*
X063851Y013612D03*
X063851Y012612D03*
X063851Y011612D03*
D13*
X066851Y009612D03*
X066851Y044612D03*
X006351Y044612D03*
X006351Y009612D03*
D14*
X007969Y011988D03*
X007969Y012988D03*
X008969Y012988D03*
X008969Y011988D03*
X008969Y013988D03*
X007969Y013988D03*
X007969Y014988D03*
X008969Y014988D03*
X008969Y015988D03*
X007969Y015988D03*
X007969Y016988D03*
X008969Y016988D03*
X008969Y017988D03*
X007969Y017988D03*
D15*
X061329Y011268D03*
X061329Y009268D03*
M02*
