%
M48
M72
T01C0.0200
T02C0.0320
T03C0.0360
T04C0.0400
T05C0.1100
T06C0.1300
%
T01
X32088Y25428
X30528Y25908
X27048Y27588
X24768Y29988
X23208Y35388
X33048Y43908
X43008Y34548
X37728Y33348
X48648Y28908
X52728Y24948
X52128Y24348
X50448Y23388
X51648Y20508
X48288Y20508
X56088Y24948
X60888Y25428
X59328Y29748
X55848Y31188
X60528Y33228
X59328Y20988
X60288Y20628
T02
X59354Y20167
X59585Y18549
X59585Y17549
X59585Y16549
X59585Y15549
X59585Y14549
X59585Y13549
X59585Y12549
X59585Y11549
X61722Y9987
X63722Y9987
X56585Y11549
X56585Y12549
X56585Y13549
X56585Y14549
X56585Y15549
X56585Y16549
X56585Y17549
X56585Y18549
X57354Y20167
X54174Y19127
X54247Y17485
X54247Y16485
X54247Y15485
X54247Y14485
X54247Y13485
X54247Y12485
X54247Y11485
X51247Y11485
X51247Y12485
X51247Y13485
X51247Y14485
X51247Y15485
X51247Y16485
X51247Y17485
X52174Y19127
X53395Y23075
X54395Y23075
X55395Y23075
X56395Y23075
X57395Y23075
X58395Y23075
X59395Y23075
X59395Y26075
X58395Y26075
X57395Y26075
X56395Y26075
X55395Y26075
X54395Y26075
X53395Y26075
X53395Y27621
X54395Y27621
X55395Y27621
X56395Y27621
X57395Y27621
X58395Y27621
X59395Y27621
X59395Y30621
X58395Y30621
X57395Y30621
X56395Y30621
X55395Y30621
X54395Y30621
X53395Y30621
X51680Y30475
X51680Y28475
X51668Y25804
X51668Y23804
X44439Y23462
X44439Y24462
X44439Y25462
X44439Y26462
X44439Y27462
X44439Y28462
X44439Y29462
X44439Y30462
X44439Y31462
X44439Y32462
X44439Y33462
X44439Y34462
X44439Y35462
X44439Y36462
X44439Y37462
X44439Y38462
X44177Y40004
X42177Y40004
X38439Y38462
X38439Y37462
X38439Y36462
X38439Y35462
X38439Y34462
X38439Y33462
X38439Y32462
X38439Y31462
X38439Y30462
X38439Y29462
X38439Y28462
X38439Y27462
X38439Y26462
X38439Y25462
X38439Y24462
X38439Y23462
X38439Y22462
X38439Y21462
X38439Y20462
X38439Y19462
X33925Y19461
X33925Y20461
X33925Y21461
X33925Y22461
X33925Y23461
X33925Y24461
X33925Y25461
X33925Y26461
X33925Y27461
X33925Y28461
X33925Y29461
X33925Y30461
X33925Y31461
X33925Y32461
X33925Y33461
X33925Y34461
X33925Y35461
X33925Y36461
X33925Y37461
X33925Y38461
X33662Y40004
X31662Y40004
X27925Y38461
X27925Y37461
X27925Y36461
X27925Y35461
X27925Y34461
X27925Y33461
X27925Y32461
X27925Y31461
X27925Y30461
X27925Y29461
X27925Y28461
X27925Y27461
X27925Y26461
X27925Y25461
X27925Y24461
X27925Y23461
X27925Y22461
X27925Y21461
X27925Y20461
X27925Y19461
X23564Y20220
X21564Y20220
X19627Y20220
X17627Y20220
X16084Y20220
X14084Y20220
X12541Y20220
X10541Y20220
X12722Y23157
X14734Y22264
X15734Y22264
X16734Y22264
X17734Y22264
X18734Y22264
X19734Y22264
X20734Y22264
X21734Y22264
X21734Y25264
X20734Y25264
X19734Y25264
X18734Y25264
X17734Y25264
X16734Y25264
X15734Y25264
X14734Y25264
X12722Y25157
X12934Y29869
X14478Y29869
X16478Y29869
X18021Y29869
X20021Y29869
X21564Y29869
X23564Y29869
X21734Y31912
X20734Y31912
X19734Y31912
X18734Y31912
X17734Y31912
X16734Y31912
X15734Y31912
X14734Y31912
X12722Y32806
X12722Y34806
X14734Y34912
X15734Y34912
X16734Y34912
X17734Y34912
X18734Y34912
X19734Y34912
X20734Y34912
X21734Y34912
X21564Y38331
X19627Y38331
X17627Y38331
X16084Y38331
X14084Y38331
X12541Y38331
X10541Y38331
X12722Y41268
X12722Y43268
X14734Y43374
X15734Y43374
X16734Y43374
X17734Y43374
X18734Y43374
X19734Y43374
X20734Y43374
X21734Y43374
X21734Y40374
X20734Y40374
X19734Y40374
X18734Y40374
X17734Y40374
X16734Y40374
X15734Y40374
X14734Y40374
X23564Y38331
X10934Y29869
X12722Y16696
X12722Y14696
X14734Y13802
X15734Y13802
X16734Y13802
X17734Y13802
X18734Y13802
X19734Y13802
X20734Y13802
X21734Y13802
X21564Y11759
X20021Y11759
X18021Y11759
X16478Y11759
X14478Y11759
X12934Y11759
X10934Y11759
X14734Y16802
X15734Y16802
X16734Y16802
X17734Y16802
X18734Y16802
X19734Y16802
X20734Y16802
X21734Y16802
X23564Y11759
X37612Y11944
X37612Y14944
X43612Y14944
X43612Y11944
X44439Y19462
X44439Y20462
X44439Y21462
X44439Y22462
X56473Y33678
X56473Y34678
X56473Y35678
X56473Y36678
X56473Y37678
X56473Y38678
X56473Y39678
X56473Y40678
X56473Y41678
X56473Y42678
X57473Y44303
X59473Y44303
X59473Y42678
X59473Y41678
X59473Y40678
X59473Y39678
X59473Y38678
X59473Y37678
X59473Y36678
X59473Y35678
X59473Y34678
X59473Y33678
X54598Y34178
X54598Y35178
X54598Y36178
X54598Y37178
X54598Y38178
X54598Y39178
X54598Y40178
X54598Y41178
X54598Y42178
T03
X63848Y42613
X63848Y41613
X63848Y40613
X63848Y39613
X63848Y38613
X63848Y37613
X63848Y36613
X63848Y35613
X63848Y34613
X63848Y33613
X63848Y32613
X63848Y31613
X63848Y30613
X63848Y29613
X63848Y28613
X63848Y27613
X63848Y26613
X63848Y25613
X63848Y24613
X63848Y23613
X63848Y22613
X63848Y21613
X63848Y20613
X63848Y19613
X63848Y18613
X63848Y17613
X63848Y16613
X63848Y15613
X63848Y14613
X63848Y13613
X63848Y12613
X63848Y11613
X65848Y11613
X65848Y12613
X65848Y13613
X65848Y14613
X65848Y15613
X65848Y16613
X65848Y17613
X65848Y18613
X65848Y19613
X65848Y20613
X65848Y21613
X65848Y22613
X65848Y23613
X65848Y24613
X65848Y25613
X65848Y26613
X65848Y27613
X65848Y28613
X65848Y29613
X65848Y30613
X65848Y31613
X65848Y32613
X65848Y33613
X65848Y34613
X65848Y35613
X65848Y36613
X65848Y37613
X65848Y38613
X65848Y39613
X65848Y40613
X65848Y41613
X65848Y42613
T04
X8248Y38288
X7248Y37748
X8248Y37208
X7248Y36668
X8248Y36128
X7248Y35588
X8248Y35048
X7248Y34508
X8248Y33968
X8248Y20188
X7248Y19648
X8248Y19108
X7248Y18568
X8248Y18028
X7248Y17488
X8248Y16948
X7248Y16408
X8248Y15868
T05
X6348Y9613
X6348Y44613
X66848Y44613
X66848Y9613
T06
X7748Y13098
X7748Y22958
X7748Y31198
X7748Y41058
M30
