%
M48
M72
T01C0.0240
T02C0.0320
T03C0.0400
T04C0.1100
%
T01
X10015Y11640
X10015Y13140
X8640Y15265
X10765Y16015
X11140Y17140
X14140Y16140
X18515Y17265
X19015Y16640
X19515Y17265
X20515Y17140
X21390Y17140
X19515Y9515
X17640Y9015
X22640Y8515
X36015Y17515
X44640Y20265
X44640Y21265
X45890Y20765
X51390Y23765
X51390Y28140
X52765Y31765
X53640Y32765
X52015Y35765
X54515Y37765
X60265Y34765
X59765Y33765
X60890Y30765
X63140Y30265
X63640Y28140
X45890Y32765
X44640Y32265
X44640Y33265
X16890Y28640
X16265Y28140
X15765Y29140
X13890Y29140
X13265Y29140
X12765Y29890
X11765Y29640
X12265Y27140
X9765Y24265
X8765Y23765
X13015Y35765
X13015Y36765
T02
X14640Y36265
X14640Y35265
X14640Y34265
X14640Y33265
X14640Y32265
X14640Y31265
X14640Y30265
X17640Y30265
X17640Y31265
X17640Y32265
X17640Y33265
X17640Y34265
X17640Y35265
X17640Y36265
X17640Y37265
X17640Y38265
X17640Y39265
X17640Y40640
X15640Y40640
X14640Y39265
X14640Y38265
X14640Y37265
X19640Y37265
X19640Y36265
X19640Y35265
X19640Y34265
X19640Y33265
X19640Y32265
X19640Y31265
X19640Y30265
X19640Y28640
X20890Y28640
X19640Y27265
X19640Y26265
X19640Y25265
X19640Y24265
X19640Y23265
X19640Y22265
X19640Y21265
X19640Y20265
X19640Y19265
X19640Y18265
X17640Y18265
X17640Y19265
X17640Y20265
X17640Y21265
X17640Y22265
X17640Y23265
X17640Y24265
X17640Y25265
X17640Y26265
X17640Y27265
X17640Y28640
X14640Y27265
X14640Y26265
X14640Y25265
X14640Y24265
X14640Y23265
X14640Y22265
X14640Y21265
X14640Y20265
X14640Y19265
X14640Y18265
X22640Y18265
X22640Y19265
X22640Y20265
X22640Y21265
X22640Y22265
X22640Y23265
X22640Y24265
X22640Y25265
X22640Y26265
X22640Y27265
X22890Y28640
X24640Y27265
X24640Y26265
X24640Y25265
X24640Y24265
X24640Y23265
X24640Y22265
X24640Y21265
X24640Y20265
X24640Y19265
X24640Y18265
X27640Y18265
X27640Y19265
X27640Y20265
X27640Y21265
X27640Y22265
X27640Y23265
X27640Y24265
X27640Y25265
X27640Y26265
X27640Y27265
X27640Y28640
X25640Y28640
X24640Y30265
X24640Y31265
X24640Y32265
X24640Y33265
X24640Y34265
X24640Y35265
X24640Y36265
X24640Y37265
X24640Y38265
X24640Y39265
X25640Y40640
X27640Y40640
X27640Y39265
X27640Y38265
X27640Y37265
X27640Y36265
X27640Y35265
X27640Y34265
X27640Y33265
X27640Y32265
X27640Y31265
X27640Y30265
X29640Y30265
X29640Y31265
X29640Y32265
X29640Y33265
X29640Y34265
X29640Y35265
X29640Y36265
X29640Y37265
X29640Y38265
X29640Y39265
X30640Y40640
X32640Y40640
X32640Y39265
X34640Y39265
X35640Y40640
X37640Y40640
X37640Y39265
X37640Y38265
X37640Y37265
X37640Y36265
X37640Y35265
X37640Y34265
X37640Y33265
X37640Y32265
X37640Y31265
X37640Y30265
X37640Y28640
X37640Y27265
X37640Y26265
X37640Y25265
X37640Y24265
X37640Y23265
X37640Y22265
X37640Y21265
X37640Y20265
X37640Y19265
X37640Y18265
X34640Y18265
X34640Y19265
X34640Y20265
X34640Y21265
X32640Y21265
X32640Y20265
X32640Y19265
X32640Y18265
X29640Y18265
X29640Y19265
X29640Y20265
X29640Y21265
X29640Y22265
X29640Y23265
X29640Y24265
X29640Y25265
X29640Y26265
X29640Y27265
X30640Y28640
X32640Y28640
X32640Y27265
X32640Y26265
X32640Y25265
X32640Y24265
X32640Y23265
X32640Y22265
X34640Y22265
X34640Y23265
X34640Y24265
X34640Y25265
X34640Y26265
X34640Y27265
X35640Y28640
X34640Y30265
X34640Y31265
X34640Y32265
X34640Y33265
X34640Y34265
X34640Y35265
X34640Y36265
X34640Y37265
X34640Y38265
X32640Y38265
X32640Y37265
X32640Y36265
X32640Y35265
X32640Y34265
X32640Y33265
X32640Y32265
X32640Y31265
X32640Y30265
X22640Y30265
X22640Y31265
X22640Y32265
X22640Y33265
X22640Y34265
X22640Y35265
X22640Y36265
X22640Y37265
X22640Y38265
X22640Y39265
X22640Y40640
X20640Y40640
X19640Y39265
X19640Y38265
X47140Y38265
X47140Y37265
X47140Y36265
X47140Y35265
X47140Y34265
X47140Y33265
X47140Y32265
X47140Y31265
X47140Y30265
X48140Y28640
X47140Y27265
X47140Y26265
X47140Y25265
X47140Y24265
X47140Y23265
X47140Y22265
X47140Y21265
X47140Y20265
X47140Y19265
X47140Y18265
X50140Y18265
X50140Y19265
X50140Y20265
X50140Y21265
X50140Y22265
X50140Y23265
X50140Y24265
X50140Y25265
X50140Y26265
X50140Y27265
X50140Y28640
X50140Y30265
X50140Y31265
X50140Y32265
X50140Y33265
X50140Y34265
X50140Y35265
X50140Y36265
X50140Y37265
X50140Y38265
X50140Y39265
X50140Y40640
X48140Y40640
X47140Y39265
X47015Y12015
X48015Y12015
X49015Y12015
X46015Y12015
X45015Y12015
X44015Y12015
X43015Y12015
X41640Y12015
X41640Y10015
X43015Y9015
X44015Y9015
X45015Y9015
X46015Y9015
X47015Y9015
X48015Y9015
X49015Y9015
X61640Y6265
X62640Y6265
X35390Y6890
X35390Y8890
X34390Y8890
X33390Y8890
X32390Y8890
X31390Y8890
X30390Y8890
X29390Y8890
X28390Y8890
X28390Y11890
X29390Y11890
X30390Y11890
X31390Y11890
X32390Y11890
X33390Y11890
X34390Y11890
T03
X33890Y7265
X32890Y7265
X32890Y6265
X33890Y6265
X31890Y6265
X30890Y6265
X29890Y6265
X29890Y7265
X30890Y7265
X31890Y7265
X28890Y7265
X27890Y7265
X27890Y6265
X28890Y6265
X26890Y6265
X25890Y6265
X24890Y6265
X24890Y7265
X25890Y7265
X26890Y7265
X23890Y7265
X22890Y7265
X22890Y6265
X23890Y6265
X21890Y6265
X20890Y6265
X19890Y6265
X19890Y7265
X20890Y7265
X21890Y7265
X18890Y7265
X17890Y7265
X17890Y6265
X18890Y6265
X16890Y6265
X15890Y6265
X15890Y7265
X16890Y7265
X14890Y7265
X13890Y7265
X12890Y7265
X12890Y6265
X13890Y6265
X14890Y6265
X11890Y6265
X10890Y6265
X10890Y7265
X11890Y7265
X8390Y7265
X7390Y7265
X7390Y6265
X8390Y6265
X6765Y10265
X5765Y10265
X5765Y11265
X6765Y11265
X6765Y12265
X5765Y12265
X5765Y13265
X6765Y13265
X6765Y14265
X5765Y14265
X5765Y15265
X6765Y15265
X6765Y16265
X5765Y16265
X5765Y17265
X6765Y17265
X6765Y20265
X5765Y20265
X5765Y21265
X6765Y21265
X6765Y22265
X5765Y22265
X5765Y23265
X6765Y23265
X6765Y24265
X5765Y24265
X5765Y25265
X6765Y25265
X6765Y26265
X5765Y26265
X5765Y27265
X6765Y27265
X6765Y30265
X5765Y30265
X5765Y31265
X6765Y31265
X6765Y32265
X5765Y32265
X5765Y33265
X6765Y33265
X6765Y34265
X5765Y34265
X5765Y35265
X6765Y35265
X6765Y36265
X5765Y36265
X5765Y37265
X6765Y37265
X7390Y40265
X8390Y40265
X8390Y41265
X7390Y41265
X36890Y7265
X37890Y7265
X38890Y7265
X38890Y6265
X37890Y6265
X36890Y6265
X39890Y6265
X40890Y6265
X40890Y7265
X39890Y7265
X41890Y7265
X42890Y7265
X43890Y7265
X43890Y6265
X42890Y6265
X41890Y6265
X44890Y6265
X45890Y6265
X45890Y7265
X44890Y7265
X46890Y7265
X47890Y7265
X48890Y7265
X48890Y6265
X47890Y6265
X46890Y6265
X49890Y6265
X50890Y6265
X50890Y7265
X49890Y7265
X51890Y7265
X52890Y7265
X52890Y6265
X51890Y6265
X53890Y6265
X53890Y7265
X59265Y7265
X60265Y7265
X60265Y6265
X59265Y6265
X59265Y10265
X60265Y10265
X60265Y11265
X59265Y11265
X59265Y12265
X60265Y12265
X60265Y13265
X59265Y13265
X59265Y14265
X60265Y14265
X60265Y15265
X59265Y15265
X59265Y16265
X60265Y16265
X60265Y17265
X59265Y17265
X59265Y40265
X60265Y40265
X60265Y41265
X59265Y41265
T04
X5265Y6265
X5265Y41265
X65765Y41265
X65765Y6265
M30
