G75*
%MOIN*%
%OFA0B0*%
%FSLAX24Y24*%
%IPPOS*%
%LPD*%
%AMOC8*
5,1,8,0,0,1.08239X$1,22.5*
%
%ADD10C,0.0560*%
%ADD11OC8,0.0560*%
%ADD12OC8,0.0640*%
%ADD13OC8,0.0630*%
%ADD14C,0.0630*%
%ADD15C,0.0160*%
%ADD16C,0.0500*%
%ADD17C,0.0320*%
D10*
X014360Y018265D02*
X014920Y018265D01*
X014920Y019265D02*
X014360Y019265D01*
X014360Y020265D02*
X014920Y020265D01*
X014920Y021265D02*
X014360Y021265D01*
X014360Y022265D02*
X014920Y022265D01*
X014920Y023265D02*
X014360Y023265D01*
X014360Y024265D02*
X014920Y024265D01*
X014920Y025265D02*
X014360Y025265D01*
X014360Y026265D02*
X014920Y026265D01*
X014920Y027265D02*
X014360Y027265D01*
X017360Y027265D02*
X017920Y027265D01*
X017920Y026265D02*
X017360Y026265D01*
X017360Y025265D02*
X017920Y025265D01*
X017920Y024265D02*
X017360Y024265D01*
X017360Y023265D02*
X017920Y023265D01*
X017920Y022265D02*
X017360Y022265D01*
X017360Y021265D02*
X017920Y021265D01*
X017920Y020265D02*
X017360Y020265D01*
X017360Y019265D02*
X017920Y019265D01*
X017920Y018265D02*
X017360Y018265D01*
X019360Y018265D02*
X019920Y018265D01*
X019920Y019265D02*
X019360Y019265D01*
X019360Y020265D02*
X019920Y020265D01*
X019920Y021265D02*
X019360Y021265D01*
X019360Y022265D02*
X019920Y022265D01*
X019920Y023265D02*
X019360Y023265D01*
X019360Y024265D02*
X019920Y024265D01*
X019920Y025265D02*
X019360Y025265D01*
X019360Y026265D02*
X019920Y026265D01*
X019920Y027265D02*
X019360Y027265D01*
X022360Y027265D02*
X022920Y027265D01*
X022920Y026265D02*
X022360Y026265D01*
X022360Y025265D02*
X022920Y025265D01*
X022920Y024265D02*
X022360Y024265D01*
X022360Y023265D02*
X022920Y023265D01*
X022920Y022265D02*
X022360Y022265D01*
X022360Y021265D02*
X022920Y021265D01*
X022920Y020265D02*
X022360Y020265D01*
X022360Y019265D02*
X022920Y019265D01*
X022920Y018265D02*
X022360Y018265D01*
X024360Y018265D02*
X024920Y018265D01*
X024920Y019265D02*
X024360Y019265D01*
X024360Y020265D02*
X024920Y020265D01*
X024920Y021265D02*
X024360Y021265D01*
X024360Y022265D02*
X024920Y022265D01*
X024920Y023265D02*
X024360Y023265D01*
X024360Y024265D02*
X024920Y024265D01*
X024920Y025265D02*
X024360Y025265D01*
X024360Y026265D02*
X024920Y026265D01*
X024920Y027265D02*
X024360Y027265D01*
X027360Y027265D02*
X027920Y027265D01*
X027920Y026265D02*
X027360Y026265D01*
X027360Y025265D02*
X027920Y025265D01*
X027920Y024265D02*
X027360Y024265D01*
X027360Y023265D02*
X027920Y023265D01*
X027920Y022265D02*
X027360Y022265D01*
X027360Y021265D02*
X027920Y021265D01*
X027920Y020265D02*
X027360Y020265D01*
X027360Y019265D02*
X027920Y019265D01*
X027920Y018265D02*
X027360Y018265D01*
X029360Y018265D02*
X029920Y018265D01*
X029920Y019265D02*
X029360Y019265D01*
X029360Y020265D02*
X029920Y020265D01*
X029920Y021265D02*
X029360Y021265D01*
X029360Y022265D02*
X029920Y022265D01*
X029920Y023265D02*
X029360Y023265D01*
X029360Y024265D02*
X029920Y024265D01*
X029920Y025265D02*
X029360Y025265D01*
X029360Y026265D02*
X029920Y026265D01*
X029920Y027265D02*
X029360Y027265D01*
X032360Y027265D02*
X032920Y027265D01*
X032920Y026265D02*
X032360Y026265D01*
X032360Y025265D02*
X032920Y025265D01*
X032920Y024265D02*
X032360Y024265D01*
X032360Y023265D02*
X032920Y023265D01*
X032920Y022265D02*
X032360Y022265D01*
X032360Y021265D02*
X032920Y021265D01*
X032920Y020265D02*
X032360Y020265D01*
X032360Y019265D02*
X032920Y019265D01*
X032920Y018265D02*
X032360Y018265D01*
X034360Y018265D02*
X034920Y018265D01*
X034920Y019265D02*
X034360Y019265D01*
X034360Y020265D02*
X034920Y020265D01*
X034920Y021265D02*
X034360Y021265D01*
X034360Y022265D02*
X034920Y022265D01*
X034920Y023265D02*
X034360Y023265D01*
X034360Y024265D02*
X034920Y024265D01*
X034920Y025265D02*
X034360Y025265D01*
X034360Y026265D02*
X034920Y026265D01*
X034920Y027265D02*
X034360Y027265D01*
X037360Y027265D02*
X037920Y027265D01*
X037920Y026265D02*
X037360Y026265D01*
X037360Y025265D02*
X037920Y025265D01*
X037920Y024265D02*
X037360Y024265D01*
X037360Y023265D02*
X037920Y023265D01*
X037920Y022265D02*
X037360Y022265D01*
X037360Y021265D02*
X037920Y021265D01*
X037920Y020265D02*
X037360Y020265D01*
X037360Y019265D02*
X037920Y019265D01*
X037920Y018265D02*
X037360Y018265D01*
X043015Y012295D02*
X043015Y011735D01*
X044015Y011735D02*
X044015Y012295D01*
X045015Y012295D02*
X045015Y011735D01*
X046015Y011735D02*
X046015Y012295D01*
X047015Y012295D02*
X047015Y011735D01*
X048015Y011735D02*
X048015Y012295D01*
X049015Y012295D02*
X049015Y011735D01*
X049015Y009295D02*
X049015Y008735D01*
X048015Y008735D02*
X048015Y009295D01*
X047015Y009295D02*
X047015Y008735D01*
X046015Y008735D02*
X046015Y009295D01*
X045015Y009295D02*
X045015Y008735D01*
X044015Y008735D02*
X044015Y009295D01*
X043015Y009295D02*
X043015Y008735D01*
X034390Y008610D02*
X034390Y009170D01*
X033390Y009170D02*
X033390Y008610D01*
X032390Y008610D02*
X032390Y009170D01*
X031390Y009170D02*
X031390Y008610D01*
X030390Y008610D02*
X030390Y009170D01*
X029390Y009170D02*
X029390Y008610D01*
X028390Y008610D02*
X028390Y009170D01*
X028390Y011610D02*
X028390Y012170D01*
X029390Y012170D02*
X029390Y011610D01*
X030390Y011610D02*
X030390Y012170D01*
X031390Y012170D02*
X031390Y011610D01*
X032390Y011610D02*
X032390Y012170D01*
X033390Y012170D02*
X033390Y011610D01*
X034390Y011610D02*
X034390Y012170D01*
X046860Y018265D02*
X047420Y018265D01*
X047420Y019265D02*
X046860Y019265D01*
X046860Y020265D02*
X047420Y020265D01*
X047420Y021265D02*
X046860Y021265D01*
X046860Y022265D02*
X047420Y022265D01*
X047420Y023265D02*
X046860Y023265D01*
X046860Y024265D02*
X047420Y024265D01*
X047420Y025265D02*
X046860Y025265D01*
X046860Y026265D02*
X047420Y026265D01*
X047420Y027265D02*
X046860Y027265D01*
X049860Y027265D02*
X050420Y027265D01*
X050420Y026265D02*
X049860Y026265D01*
X049860Y025265D02*
X050420Y025265D01*
X050420Y024265D02*
X049860Y024265D01*
X049860Y023265D02*
X050420Y023265D01*
X050420Y022265D02*
X049860Y022265D01*
X049860Y021265D02*
X050420Y021265D01*
X050420Y020265D02*
X049860Y020265D01*
X049860Y019265D02*
X050420Y019265D01*
X050420Y018265D02*
X049860Y018265D01*
X049860Y030265D02*
X050420Y030265D01*
X050420Y031265D02*
X049860Y031265D01*
X049860Y032265D02*
X050420Y032265D01*
X050420Y033265D02*
X049860Y033265D01*
X049860Y034265D02*
X050420Y034265D01*
X050420Y035265D02*
X049860Y035265D01*
X049860Y036265D02*
X050420Y036265D01*
X050420Y037265D02*
X049860Y037265D01*
X049860Y038265D02*
X050420Y038265D01*
X050420Y039265D02*
X049860Y039265D01*
X047420Y039265D02*
X046860Y039265D01*
X046860Y038265D02*
X047420Y038265D01*
X047420Y037265D02*
X046860Y037265D01*
X046860Y036265D02*
X047420Y036265D01*
X047420Y035265D02*
X046860Y035265D01*
X046860Y034265D02*
X047420Y034265D01*
X047420Y033265D02*
X046860Y033265D01*
X046860Y032265D02*
X047420Y032265D01*
X047420Y031265D02*
X046860Y031265D01*
X046860Y030265D02*
X047420Y030265D01*
X037920Y030265D02*
X037360Y030265D01*
X037360Y031265D02*
X037920Y031265D01*
X037920Y032265D02*
X037360Y032265D01*
X037360Y033265D02*
X037920Y033265D01*
X037920Y034265D02*
X037360Y034265D01*
X037360Y035265D02*
X037920Y035265D01*
X037920Y036265D02*
X037360Y036265D01*
X037360Y037265D02*
X037920Y037265D01*
X037920Y038265D02*
X037360Y038265D01*
X037360Y039265D02*
X037920Y039265D01*
X034920Y039265D02*
X034360Y039265D01*
X032920Y039265D02*
X032360Y039265D01*
X032360Y038265D02*
X032920Y038265D01*
X032920Y037265D02*
X032360Y037265D01*
X032360Y036265D02*
X032920Y036265D01*
X032920Y035265D02*
X032360Y035265D01*
X032360Y034265D02*
X032920Y034265D01*
X032920Y033265D02*
X032360Y033265D01*
X032360Y032265D02*
X032920Y032265D01*
X032920Y031265D02*
X032360Y031265D01*
X032360Y030265D02*
X032920Y030265D01*
X034360Y030265D02*
X034920Y030265D01*
X034920Y031265D02*
X034360Y031265D01*
X034360Y032265D02*
X034920Y032265D01*
X034920Y033265D02*
X034360Y033265D01*
X034360Y034265D02*
X034920Y034265D01*
X034920Y035265D02*
X034360Y035265D01*
X034360Y036265D02*
X034920Y036265D01*
X034920Y037265D02*
X034360Y037265D01*
X034360Y038265D02*
X034920Y038265D01*
X029920Y038265D02*
X029360Y038265D01*
X029360Y037265D02*
X029920Y037265D01*
X029920Y036265D02*
X029360Y036265D01*
X029360Y035265D02*
X029920Y035265D01*
X029920Y034265D02*
X029360Y034265D01*
X029360Y033265D02*
X029920Y033265D01*
X029920Y032265D02*
X029360Y032265D01*
X029360Y031265D02*
X029920Y031265D01*
X029920Y030265D02*
X029360Y030265D01*
X027920Y030265D02*
X027360Y030265D01*
X027360Y031265D02*
X027920Y031265D01*
X027920Y032265D02*
X027360Y032265D01*
X027360Y033265D02*
X027920Y033265D01*
X027920Y034265D02*
X027360Y034265D01*
X027360Y035265D02*
X027920Y035265D01*
X027920Y036265D02*
X027360Y036265D01*
X027360Y037265D02*
X027920Y037265D01*
X027920Y038265D02*
X027360Y038265D01*
X027360Y039265D02*
X027920Y039265D01*
X029360Y039265D02*
X029920Y039265D01*
X024920Y039265D02*
X024360Y039265D01*
X022920Y039265D02*
X022360Y039265D01*
X022360Y038265D02*
X022920Y038265D01*
X022920Y037265D02*
X022360Y037265D01*
X022360Y036265D02*
X022920Y036265D01*
X022920Y035265D02*
X022360Y035265D01*
X022360Y034265D02*
X022920Y034265D01*
X022920Y033265D02*
X022360Y033265D01*
X022360Y032265D02*
X022920Y032265D01*
X022920Y031265D02*
X022360Y031265D01*
X022360Y030265D02*
X022920Y030265D01*
X024360Y030265D02*
X024920Y030265D01*
X024920Y031265D02*
X024360Y031265D01*
X024360Y032265D02*
X024920Y032265D01*
X024920Y033265D02*
X024360Y033265D01*
X024360Y034265D02*
X024920Y034265D01*
X024920Y035265D02*
X024360Y035265D01*
X024360Y036265D02*
X024920Y036265D01*
X024920Y037265D02*
X024360Y037265D01*
X024360Y038265D02*
X024920Y038265D01*
X019920Y038265D02*
X019360Y038265D01*
X019360Y037265D02*
X019920Y037265D01*
X019920Y036265D02*
X019360Y036265D01*
X019360Y035265D02*
X019920Y035265D01*
X019920Y034265D02*
X019360Y034265D01*
X019360Y033265D02*
X019920Y033265D01*
X019920Y032265D02*
X019360Y032265D01*
X019360Y031265D02*
X019920Y031265D01*
X019920Y030265D02*
X019360Y030265D01*
X017920Y030265D02*
X017360Y030265D01*
X017360Y031265D02*
X017920Y031265D01*
X017920Y032265D02*
X017360Y032265D01*
X017360Y033265D02*
X017920Y033265D01*
X017920Y034265D02*
X017360Y034265D01*
X017360Y035265D02*
X017920Y035265D01*
X017920Y036265D02*
X017360Y036265D01*
X017360Y037265D02*
X017920Y037265D01*
X017920Y038265D02*
X017360Y038265D01*
X017360Y039265D02*
X017920Y039265D01*
X019360Y039265D02*
X019920Y039265D01*
X014920Y039265D02*
X014360Y039265D01*
X014360Y038265D02*
X014920Y038265D01*
X014920Y037265D02*
X014360Y037265D01*
X014360Y036265D02*
X014920Y036265D01*
X014920Y035265D02*
X014360Y035265D01*
X014360Y034265D02*
X014920Y034265D01*
X014920Y033265D02*
X014360Y033265D01*
X014360Y032265D02*
X014920Y032265D01*
X014920Y031265D02*
X014360Y031265D01*
X014360Y030265D02*
X014920Y030265D01*
D11*
X017640Y028640D03*
X019640Y028640D03*
X020890Y028640D03*
X022890Y028640D03*
X025640Y028640D03*
X027640Y028640D03*
X030640Y028640D03*
X032640Y028640D03*
X035640Y028640D03*
X037640Y028640D03*
X048140Y028640D03*
X050140Y028640D03*
X050140Y040640D03*
X048140Y040640D03*
X037640Y040640D03*
X035640Y040640D03*
X032640Y040640D03*
X030640Y040640D03*
X027640Y040640D03*
X025640Y040640D03*
X022640Y040640D03*
X020640Y040640D03*
X017640Y040640D03*
X015640Y040640D03*
X041640Y012015D03*
X041640Y010015D03*
X035390Y008890D03*
X035390Y006890D03*
D12*
X033890Y007265D03*
X032890Y007265D03*
X032890Y006265D03*
X033890Y006265D03*
X031890Y006265D03*
X030890Y006265D03*
X029890Y006265D03*
X029890Y007265D03*
X030890Y007265D03*
X031890Y007265D03*
X028890Y007265D03*
X027890Y007265D03*
X027890Y006265D03*
X028890Y006265D03*
X026890Y006265D03*
X025890Y006265D03*
X024890Y006265D03*
X024890Y007265D03*
X025890Y007265D03*
X026890Y007265D03*
X023890Y007265D03*
X022890Y007265D03*
X022890Y006265D03*
X023890Y006265D03*
X021890Y006265D03*
X020890Y006265D03*
X019890Y006265D03*
X019890Y007265D03*
X020890Y007265D03*
X021890Y007265D03*
X018890Y007265D03*
X017890Y007265D03*
X017890Y006265D03*
X018890Y006265D03*
X016890Y006265D03*
X015890Y006265D03*
X015890Y007265D03*
X016890Y007265D03*
X014890Y007265D03*
X013890Y007265D03*
X012890Y007265D03*
X012890Y006265D03*
X013890Y006265D03*
X014890Y006265D03*
X011890Y006265D03*
X010890Y006265D03*
X010890Y007265D03*
X011890Y007265D03*
X008390Y007265D03*
X007390Y007265D03*
X007390Y006265D03*
X008390Y006265D03*
X006765Y010265D03*
X005765Y010265D03*
X005765Y011265D03*
X006765Y011265D03*
X006765Y012265D03*
X005765Y012265D03*
X005765Y013265D03*
X006765Y013265D03*
X006765Y014265D03*
X005765Y014265D03*
X005765Y015265D03*
X006765Y015265D03*
X006765Y016265D03*
X005765Y016265D03*
X005765Y017265D03*
X006765Y017265D03*
X006765Y020265D03*
X005765Y020265D03*
X005765Y021265D03*
X006765Y021265D03*
X006765Y022265D03*
X005765Y022265D03*
X005765Y023265D03*
X006765Y023265D03*
X006765Y024265D03*
X005765Y024265D03*
X005765Y025265D03*
X006765Y025265D03*
X006765Y026265D03*
X005765Y026265D03*
X005765Y027265D03*
X006765Y027265D03*
X006765Y030265D03*
X005765Y030265D03*
X005765Y031265D03*
X006765Y031265D03*
X006765Y032265D03*
X005765Y032265D03*
X005765Y033265D03*
X006765Y033265D03*
X006765Y034265D03*
X005765Y034265D03*
X005765Y035265D03*
X006765Y035265D03*
X006765Y036265D03*
X005765Y036265D03*
X005765Y037265D03*
X006765Y037265D03*
X007390Y040265D03*
X008390Y040265D03*
X008390Y041265D03*
X007390Y041265D03*
X036890Y007265D03*
X037890Y007265D03*
X038890Y007265D03*
X038890Y006265D03*
X037890Y006265D03*
X036890Y006265D03*
X039890Y006265D03*
X040890Y006265D03*
X040890Y007265D03*
X039890Y007265D03*
X041890Y007265D03*
X042890Y007265D03*
X043890Y007265D03*
X043890Y006265D03*
X042890Y006265D03*
X041890Y006265D03*
X044890Y006265D03*
X045890Y006265D03*
X045890Y007265D03*
X044890Y007265D03*
X046890Y007265D03*
X047890Y007265D03*
X048890Y007265D03*
X048890Y006265D03*
X047890Y006265D03*
X046890Y006265D03*
X049890Y006265D03*
X050890Y006265D03*
X050890Y007265D03*
X049890Y007265D03*
X051890Y007265D03*
X052890Y007265D03*
X052890Y006265D03*
X051890Y006265D03*
X053890Y006265D03*
X053890Y007265D03*
X059265Y007265D03*
X060265Y007265D03*
X060265Y006265D03*
X059265Y006265D03*
X059265Y010265D03*
X060265Y010265D03*
X060265Y011265D03*
X059265Y011265D03*
X059265Y012265D03*
X060265Y012265D03*
X060265Y013265D03*
X059265Y013265D03*
X059265Y014265D03*
X060265Y014265D03*
X060265Y015265D03*
X059265Y015265D03*
X059265Y016265D03*
X060265Y016265D03*
X060265Y017265D03*
X059265Y017265D03*
X059265Y040265D03*
X060265Y040265D03*
X060265Y041265D03*
X059265Y041265D03*
D13*
X062640Y006265D03*
D14*
X061640Y006265D03*
D15*
X004270Y005548D02*
X004270Y004395D01*
X066502Y004395D01*
X066502Y005282D01*
X066236Y005128D01*
X065926Y005045D01*
X065604Y005045D01*
X065294Y005128D01*
X065016Y005289D01*
X064789Y005516D01*
X064628Y005794D01*
X064545Y006104D01*
X064545Y006426D01*
X064628Y006736D01*
X064789Y007014D01*
X065016Y007241D01*
X065294Y007402D01*
X065604Y007485D01*
X065926Y007485D01*
X066236Y007402D01*
X066502Y007248D01*
X066502Y040282D01*
X066236Y040128D01*
X065926Y040045D01*
X065604Y040045D01*
X065294Y040128D01*
X065016Y040289D01*
X064789Y040516D01*
X064628Y040794D01*
X064545Y041104D01*
X060905Y041104D01*
X060905Y041000D02*
X060905Y041245D01*
X060285Y041245D01*
X060285Y041285D01*
X060905Y041285D01*
X060905Y041530D01*
X060530Y041905D01*
X060285Y041905D01*
X060285Y041285D01*
X060245Y041285D01*
X060245Y041905D01*
X060000Y041905D01*
X059765Y041670D01*
X059530Y041905D01*
X059285Y041905D01*
X059285Y041285D01*
X060245Y041285D01*
X060245Y041245D01*
X059905Y041245D01*
X059285Y041245D01*
X059285Y041285D01*
X059245Y041285D01*
X059245Y041905D01*
X059000Y041905D01*
X058625Y041530D01*
X058625Y041285D01*
X059245Y041285D01*
X059245Y041245D01*
X059285Y041245D01*
X059285Y040625D01*
X059285Y040285D01*
X059245Y040285D01*
X059245Y041245D01*
X058625Y041245D01*
X058625Y041000D01*
X058860Y040765D01*
X058625Y040530D01*
X058625Y040285D01*
X059245Y040285D01*
X059245Y040245D01*
X059285Y040245D01*
X059285Y040285D01*
X060245Y040285D01*
X060245Y041245D01*
X060285Y041245D01*
X060285Y040625D01*
X060285Y040285D01*
X060245Y040285D01*
X060245Y040245D01*
X059905Y040245D01*
X059285Y040245D01*
X059285Y039625D01*
X059530Y039625D01*
X059765Y039860D01*
X060000Y039625D01*
X060245Y039625D01*
X060245Y040245D01*
X060285Y040245D01*
X060285Y040285D01*
X060905Y040285D01*
X060905Y040530D01*
X060670Y040765D01*
X060905Y041000D01*
X060851Y040946D02*
X064588Y040946D01*
X064545Y041104D02*
X064545Y041426D01*
X064628Y041736D01*
X064789Y042014D01*
X065016Y042241D01*
X065294Y042402D01*
X065604Y042485D01*
X065926Y042485D01*
X066236Y042402D01*
X066502Y042248D01*
X066502Y043005D01*
X004270Y043005D01*
X004270Y041982D01*
X004289Y042014D01*
X004516Y042241D01*
X004794Y042402D01*
X005104Y042485D01*
X005426Y042485D01*
X005736Y042402D01*
X006014Y042241D01*
X006241Y042014D01*
X006402Y041736D01*
X006485Y041426D01*
X006485Y041104D01*
X006750Y041104D01*
X006750Y041000D02*
X006985Y040765D01*
X006750Y040530D01*
X006750Y040000D01*
X007125Y039625D01*
X007655Y039625D01*
X007815Y039785D01*
X007965Y039785D01*
X008125Y039625D01*
X008655Y039625D01*
X009030Y040000D01*
X009030Y040530D01*
X008870Y040690D01*
X008870Y040840D01*
X009030Y041000D01*
X009030Y041226D01*
X009214Y041410D01*
X017160Y041410D01*
X017160Y041009D01*
X017040Y040889D01*
X017040Y040391D01*
X017160Y040271D01*
X017160Y039832D01*
X017020Y039774D01*
X016851Y039605D01*
X016760Y039384D01*
X016760Y039165D01*
X016560Y039165D01*
X016413Y039104D01*
X016301Y038992D01*
X015974Y038665D01*
X015369Y038665D01*
X015269Y038765D01*
X015429Y038925D01*
X015520Y039146D01*
X015520Y039384D01*
X015429Y039605D01*
X015260Y039774D01*
X015039Y039865D01*
X014241Y039865D01*
X014020Y039774D01*
X013851Y039605D01*
X013760Y039384D01*
X013760Y039146D01*
X013851Y038925D01*
X014011Y038765D01*
X013911Y038665D01*
X013806Y038665D01*
X013354Y039117D01*
X013242Y039229D01*
X013095Y039290D01*
X005185Y039290D01*
X005038Y039229D01*
X004288Y038479D01*
X004270Y038461D01*
X004270Y040548D01*
X004289Y040516D01*
X004516Y040289D01*
X004794Y040128D01*
X005104Y040045D01*
X005426Y040045D01*
X005736Y040128D01*
X006014Y040289D01*
X006241Y040516D01*
X006402Y040794D01*
X006485Y041104D01*
X006485Y041263D02*
X006750Y041263D01*
X006750Y041421D02*
X006485Y041421D01*
X006444Y041580D02*
X006799Y041580D01*
X006750Y041530D02*
X006750Y041000D01*
X006804Y040946D02*
X006442Y040946D01*
X006398Y040787D02*
X006963Y040787D01*
X006848Y040629D02*
X006306Y040629D01*
X006195Y040470D02*
X006750Y040470D01*
X006750Y040312D02*
X006037Y040312D01*
X005779Y040153D02*
X006750Y040153D01*
X006755Y039995D02*
X004270Y039995D01*
X004270Y040153D02*
X004751Y040153D01*
X004493Y040312D02*
X004270Y040312D01*
X004270Y040470D02*
X004335Y040470D01*
X004270Y039836D02*
X006914Y039836D01*
X007072Y039678D02*
X004270Y039678D01*
X004270Y039519D02*
X013816Y039519D01*
X013760Y039361D02*
X004270Y039361D01*
X004270Y039202D02*
X005011Y039202D01*
X004853Y039044D02*
X004270Y039044D01*
X004270Y038885D02*
X004694Y038885D01*
X004536Y038727D02*
X004270Y038727D01*
X004270Y038568D02*
X004377Y038568D01*
X004515Y038140D02*
X004515Y020890D01*
X005140Y020265D01*
X005765Y020265D01*
X006265Y019860D02*
X006500Y019625D01*
X007030Y019625D01*
X007405Y020000D01*
X007405Y020530D01*
X007170Y020765D01*
X007405Y021000D01*
X007405Y021530D01*
X007170Y021765D01*
X007405Y022000D01*
X007405Y022530D01*
X007170Y022765D01*
X007310Y022905D01*
X011676Y018538D01*
X011788Y018426D01*
X011935Y018365D01*
X013768Y018365D01*
X013760Y018312D01*
X013760Y018265D01*
X014640Y018265D01*
X015520Y018265D01*
X015520Y018312D01*
X015512Y018365D01*
X016220Y018365D01*
X016367Y018426D01*
X016806Y018865D01*
X016911Y018865D01*
X017011Y018765D01*
X016851Y018605D01*
X016760Y018384D01*
X016760Y018146D01*
X016851Y017925D01*
X017020Y017756D01*
X017240Y017665D01*
X017240Y009421D01*
X017157Y009338D01*
X017070Y009128D01*
X017070Y008902D01*
X017157Y008692D01*
X017317Y008532D01*
X017527Y008445D01*
X017753Y008445D01*
X017963Y008532D01*
X018115Y008684D01*
X018115Y008556D01*
X017663Y008104D01*
X017551Y007992D01*
X017490Y007845D01*
X017490Y007770D01*
X017390Y007670D01*
X017155Y007905D01*
X016625Y007905D01*
X016390Y007670D01*
X016155Y007905D01*
X015625Y007905D01*
X015390Y007670D01*
X015155Y007905D01*
X014625Y007905D01*
X014390Y007670D01*
X014155Y007905D01*
X013790Y007905D01*
X013790Y014474D01*
X014367Y015051D01*
X014479Y015163D01*
X014540Y015310D01*
X014540Y015734D01*
X014623Y015817D01*
X014710Y016027D01*
X014710Y016253D01*
X014623Y016463D01*
X014463Y016623D01*
X014253Y016710D01*
X014027Y016710D01*
X013817Y016623D01*
X013657Y016463D01*
X013570Y016253D01*
X013570Y016027D01*
X013657Y015817D01*
X013740Y015734D01*
X013740Y015556D01*
X013051Y014867D01*
X012990Y014720D01*
X012990Y007905D01*
X012625Y007905D01*
X012390Y007670D01*
X012155Y007905D01*
X011625Y007905D01*
X011390Y007670D01*
X011155Y007905D01*
X010625Y007905D01*
X010250Y007530D01*
X010250Y007000D01*
X010485Y006765D01*
X010250Y006530D01*
X010250Y006000D01*
X010625Y005625D01*
X011155Y005625D01*
X011390Y005860D01*
X011625Y005625D01*
X012155Y005625D01*
X012390Y005860D01*
X012625Y005625D01*
X013155Y005625D01*
X013390Y005860D01*
X013625Y005625D01*
X014155Y005625D01*
X014390Y005860D01*
X014625Y005625D01*
X015155Y005625D01*
X015390Y005860D01*
X015625Y005625D01*
X015990Y005625D01*
X015990Y005560D01*
X016051Y005413D01*
X016163Y005301D01*
X016538Y004926D01*
X016685Y004865D01*
X020720Y004865D01*
X020867Y004926D01*
X020979Y005038D01*
X021595Y005655D01*
X021625Y005625D01*
X022155Y005625D01*
X022390Y005860D01*
X022625Y005625D01*
X023155Y005625D01*
X023390Y005860D01*
X023625Y005625D01*
X023964Y005625D01*
X024288Y005301D01*
X024435Y005240D01*
X027220Y005240D01*
X027367Y005301D01*
X027479Y005413D01*
X027691Y005625D01*
X027964Y005625D01*
X028301Y005288D01*
X028413Y005176D01*
X028560Y005115D01*
X034220Y005115D01*
X034367Y005176D01*
X034742Y005551D01*
X034854Y005663D01*
X034915Y005810D01*
X034915Y006516D01*
X035141Y006290D01*
X035390Y006290D01*
X035639Y006290D01*
X035660Y006311D01*
X035660Y005795D01*
X035733Y005618D01*
X035868Y005483D01*
X035868Y005483D01*
X036368Y004983D01*
X036545Y004910D01*
X058485Y004910D01*
X058662Y004983D01*
X059304Y005625D01*
X059530Y005625D01*
X059690Y005785D01*
X059840Y005785D01*
X060000Y005625D01*
X060530Y005625D01*
X060690Y005785D01*
X061222Y005785D01*
X061280Y005727D01*
X061514Y005630D01*
X061766Y005630D01*
X062000Y005727D01*
X062140Y005867D01*
X062377Y005630D01*
X062640Y005630D01*
X062903Y005630D01*
X063275Y006002D01*
X063275Y006265D01*
X063275Y006528D01*
X062903Y006900D01*
X062640Y006900D01*
X062640Y006265D01*
X062640Y006265D01*
X063275Y006265D01*
X062640Y006265D01*
X062640Y006265D01*
X062640Y006900D01*
X062377Y006900D01*
X062140Y006663D01*
X062120Y006683D01*
X062120Y008441D01*
X065547Y011868D01*
X065620Y012045D01*
X065620Y033110D01*
X065547Y033287D01*
X059209Y039625D01*
X059245Y039625D01*
X059245Y040245D01*
X058625Y040245D01*
X058625Y040209D01*
X056537Y042297D01*
X056360Y042370D01*
X008920Y042370D01*
X008743Y042297D01*
X008351Y041905D01*
X008125Y041905D01*
X007965Y041745D01*
X007815Y041745D01*
X007655Y041905D01*
X007125Y041905D01*
X006750Y041530D01*
X006958Y041738D02*
X006401Y041738D01*
X006309Y041897D02*
X007116Y041897D01*
X007664Y041897D02*
X008116Y041897D01*
X008501Y042055D02*
X006200Y042055D01*
X006042Y042214D02*
X008660Y042214D01*
X009066Y041263D02*
X017160Y041263D01*
X017160Y041104D02*
X016024Y041104D01*
X015889Y041240D02*
X016240Y040889D01*
X016240Y040640D01*
X015640Y040640D01*
X015640Y040640D01*
X015640Y040640D01*
X015640Y041240D01*
X015889Y041240D01*
X015640Y041240D02*
X015391Y041240D01*
X015040Y040889D01*
X015040Y040640D01*
X015640Y040640D01*
X016240Y040640D01*
X016240Y040391D01*
X015889Y040040D01*
X015640Y040040D01*
X015640Y040640D01*
X015640Y040640D01*
X015640Y040640D01*
X015640Y041240D01*
X015640Y041104D02*
X015640Y041104D01*
X015640Y040946D02*
X015640Y040946D01*
X015640Y040787D02*
X015640Y040787D01*
X015640Y040640D02*
X015040Y040640D01*
X015040Y040391D01*
X015391Y040040D01*
X015640Y040040D01*
X015640Y040640D01*
X015640Y040629D02*
X015640Y040629D01*
X015640Y040470D02*
X015640Y040470D01*
X015640Y040312D02*
X015640Y040312D01*
X015640Y040153D02*
X015640Y040153D01*
X016002Y040153D02*
X017160Y040153D01*
X017160Y039995D02*
X009025Y039995D01*
X009030Y040153D02*
X015278Y040153D01*
X015120Y040312D02*
X009030Y040312D01*
X009030Y040470D02*
X015040Y040470D01*
X015040Y040629D02*
X008932Y040629D01*
X008870Y040787D02*
X015040Y040787D01*
X015097Y040946D02*
X008976Y040946D01*
X009030Y041104D02*
X015256Y041104D01*
X016183Y040946D02*
X017097Y040946D01*
X017040Y040787D02*
X016240Y040787D01*
X016240Y040629D02*
X017040Y040629D01*
X017040Y040470D02*
X016240Y040470D01*
X016160Y040312D02*
X017120Y040312D01*
X017160Y039836D02*
X015109Y039836D01*
X015356Y039678D02*
X016924Y039678D01*
X016816Y039519D02*
X015464Y039519D01*
X015520Y039361D02*
X016760Y039361D01*
X016760Y039202D02*
X015520Y039202D01*
X015478Y039044D02*
X016353Y039044D01*
X016194Y038885D02*
X015389Y038885D01*
X015307Y038727D02*
X016036Y038727D01*
X016140Y038265D02*
X016640Y038765D01*
X018640Y038765D01*
X019140Y038265D01*
X019640Y038265D01*
X021140Y038265D01*
X021640Y038765D01*
X023640Y038765D01*
X024140Y038265D01*
X024640Y038265D01*
X026140Y038265D01*
X026640Y038765D01*
X028640Y038765D01*
X029140Y038265D01*
X029640Y038265D01*
X029140Y037765D02*
X031140Y037765D01*
X031640Y038265D01*
X032640Y038265D01*
X033269Y038765D02*
X033429Y038925D01*
X033520Y039146D01*
X033520Y039384D01*
X033429Y039605D01*
X033260Y039774D01*
X033120Y039832D01*
X033120Y040271D01*
X033240Y040391D01*
X033240Y040889D01*
X033120Y041009D01*
X033120Y041410D01*
X037160Y041410D01*
X037160Y041009D01*
X037040Y040889D01*
X037040Y040391D01*
X037160Y040271D01*
X037160Y039832D01*
X037020Y039774D01*
X036851Y039605D01*
X036760Y039384D01*
X036760Y039146D01*
X036851Y038925D01*
X037011Y038765D01*
X036851Y038605D01*
X036760Y038384D01*
X036760Y038211D01*
X036367Y038604D01*
X036220Y038665D01*
X035369Y038665D01*
X035269Y038765D01*
X035429Y038925D01*
X035520Y039146D01*
X035520Y039384D01*
X035429Y039605D01*
X035260Y039774D01*
X035039Y039865D01*
X034241Y039865D01*
X034020Y039774D01*
X033851Y039605D01*
X033760Y039384D01*
X033760Y039146D01*
X033851Y038925D01*
X034011Y038765D01*
X033851Y038605D01*
X033760Y038384D01*
X033760Y038146D01*
X033817Y038008D01*
X033801Y037992D01*
X033474Y037665D01*
X033369Y037665D01*
X033269Y037765D01*
X033429Y037925D01*
X033520Y038146D01*
X033520Y038384D01*
X033429Y038605D01*
X033269Y038765D01*
X033307Y038727D02*
X033973Y038727D01*
X033891Y038885D02*
X033389Y038885D01*
X033478Y039044D02*
X033802Y039044D01*
X033760Y039202D02*
X033520Y039202D01*
X033520Y039361D02*
X033760Y039361D01*
X033816Y039519D02*
X033464Y039519D01*
X033356Y039678D02*
X033924Y039678D01*
X034171Y039836D02*
X033120Y039836D01*
X033120Y039995D02*
X037160Y039995D01*
X037160Y040153D02*
X036002Y040153D01*
X035889Y040040D02*
X036240Y040391D01*
X036240Y040640D01*
X036240Y040889D01*
X035889Y041240D01*
X035640Y041240D01*
X035640Y040640D01*
X036240Y040640D01*
X035640Y040640D01*
X035640Y040640D01*
X035640Y040640D01*
X035640Y040040D01*
X035889Y040040D01*
X035640Y040040D02*
X035640Y040640D01*
X035640Y040640D01*
X035640Y040640D01*
X035040Y040640D01*
X035040Y040889D01*
X035391Y041240D01*
X035640Y041240D01*
X035640Y040640D01*
X035040Y040640D01*
X035040Y040391D01*
X035391Y040040D01*
X035640Y040040D01*
X035640Y040153D02*
X035640Y040153D01*
X035640Y040312D02*
X035640Y040312D01*
X035640Y040470D02*
X035640Y040470D01*
X035640Y040629D02*
X035640Y040629D01*
X035640Y040787D02*
X035640Y040787D01*
X035640Y040946D02*
X035640Y040946D01*
X035640Y041104D02*
X035640Y041104D01*
X036024Y041104D02*
X037160Y041104D01*
X037160Y041263D02*
X033120Y041263D01*
X033120Y041104D02*
X035256Y041104D01*
X035097Y040946D02*
X033183Y040946D01*
X033240Y040787D02*
X035040Y040787D01*
X035040Y040629D02*
X033240Y040629D01*
X033240Y040470D02*
X035040Y040470D01*
X035120Y040312D02*
X033160Y040312D01*
X033120Y040153D02*
X035278Y040153D01*
X035109Y039836D02*
X037160Y039836D01*
X036924Y039678D02*
X035356Y039678D01*
X035464Y039519D02*
X036816Y039519D01*
X036760Y039361D02*
X035520Y039361D01*
X035520Y039202D02*
X036760Y039202D01*
X036802Y039044D02*
X035478Y039044D01*
X035389Y038885D02*
X036891Y038885D01*
X036973Y038727D02*
X035307Y038727D01*
X034640Y038265D02*
X036140Y038265D01*
X036640Y037765D01*
X045140Y037765D01*
X046140Y038765D01*
X048640Y038765D01*
X049640Y037765D01*
X054515Y037765D01*
X052015Y035765D02*
X050765Y035765D01*
X050265Y035765D01*
X045640Y035765D01*
X045140Y035265D01*
X037640Y035265D01*
X037640Y036265D02*
X036640Y036265D01*
X036140Y036765D01*
X034140Y036765D01*
X033640Y036265D01*
X032640Y036265D01*
X031640Y036265D01*
X031140Y035765D01*
X029140Y035765D01*
X028640Y036265D01*
X027640Y036265D01*
X026640Y036265D01*
X026140Y035765D01*
X024140Y035765D01*
X023640Y036265D01*
X022640Y036265D01*
X021640Y036265D01*
X021140Y035765D01*
X019140Y035765D01*
X018640Y036265D01*
X017640Y036265D01*
X016640Y036265D01*
X016140Y035765D01*
X013015Y035765D01*
X013015Y036765D02*
X016140Y036765D01*
X016640Y037265D01*
X017640Y037265D01*
X018640Y037265D01*
X019140Y036765D01*
X021140Y036765D01*
X021640Y037265D01*
X022640Y037265D01*
X023640Y037265D01*
X024140Y036765D01*
X026140Y036765D01*
X026640Y037265D01*
X027640Y037265D01*
X028640Y037265D01*
X029140Y036765D01*
X031140Y036765D01*
X031640Y037265D01*
X032640Y037265D01*
X033640Y037265D01*
X034140Y037765D01*
X036140Y037765D01*
X036640Y037265D01*
X037640Y037265D01*
X045140Y037265D01*
X045640Y037765D01*
X048640Y037765D01*
X049140Y037265D01*
X050140Y037265D01*
X050140Y036265D02*
X049140Y036265D01*
X048640Y036765D01*
X045640Y036765D01*
X045140Y036265D01*
X037640Y036265D01*
X036640Y036765D02*
X045140Y036765D01*
X045640Y037265D01*
X047140Y037265D01*
X047140Y036265D02*
X045640Y036265D01*
X045140Y035765D01*
X036515Y035765D01*
X036140Y036140D01*
X034765Y036140D01*
X034640Y036265D01*
X034640Y035265D02*
X036140Y035265D01*
X036640Y034765D01*
X057515Y034765D01*
X058640Y034765D01*
X060265Y034765D01*
X059765Y033765D02*
X050765Y033765D01*
X050515Y033765D01*
X046140Y033765D01*
X045640Y034265D01*
X037640Y034265D01*
X037640Y033265D02*
X036640Y033265D01*
X036140Y033765D01*
X034140Y033765D01*
X033640Y033265D01*
X032640Y033265D01*
X031640Y033265D01*
X031140Y032765D01*
X029140Y032765D01*
X028640Y033265D01*
X027640Y033265D01*
X026640Y033265D01*
X026140Y032765D01*
X024140Y032765D01*
X023640Y033265D01*
X022640Y033265D01*
X021640Y033265D01*
X021140Y032765D01*
X019140Y032765D01*
X018640Y033265D01*
X017640Y033265D01*
X016640Y032765D02*
X018640Y032765D01*
X019140Y032265D01*
X019640Y032265D01*
X021140Y032265D01*
X021640Y032765D01*
X023640Y032765D01*
X024140Y032265D01*
X024640Y032265D01*
X026140Y032265D01*
X026640Y032765D01*
X028640Y032765D01*
X029140Y032265D01*
X029640Y032265D01*
X029140Y031765D02*
X031140Y031765D01*
X031640Y032265D01*
X032640Y032265D01*
X033640Y032265D01*
X034140Y032765D01*
X036140Y032765D01*
X036640Y032265D01*
X037640Y032265D01*
X044640Y032265D01*
X044640Y033265D02*
X037640Y033265D01*
X036640Y032765D02*
X045890Y032765D01*
X046140Y032265D02*
X047140Y032265D01*
X046640Y032765D02*
X050640Y032765D01*
X051140Y032765D01*
X053640Y032765D01*
X052765Y031765D02*
X050765Y031765D01*
X050515Y031765D01*
X046140Y031765D01*
X045640Y031265D01*
X037640Y031265D01*
X036640Y030765D02*
X060890Y030765D01*
X063140Y030265D02*
X050140Y030265D01*
X049265Y030265D01*
X048765Y029765D01*
X037015Y029765D01*
X036015Y030765D01*
X034140Y030765D01*
X033640Y030265D01*
X032640Y030265D01*
X032011Y030765D02*
X031851Y030605D01*
X031760Y030384D01*
X031760Y030146D01*
X031851Y029925D01*
X032020Y029756D01*
X032048Y029745D01*
X030221Y029745D01*
X030234Y029752D01*
X030311Y029807D01*
X030378Y029874D01*
X030433Y029951D01*
X030476Y030035D01*
X030505Y030124D01*
X030520Y030218D01*
X030520Y030265D01*
X030520Y030312D01*
X030512Y030365D01*
X031220Y030365D01*
X031367Y030426D01*
X031806Y030865D01*
X031911Y030865D01*
X032011Y030765D01*
X031975Y030802D02*
X031742Y030802D01*
X031890Y030643D02*
X031584Y030643D01*
X031425Y030485D02*
X031802Y030485D01*
X031760Y030326D02*
X030518Y030326D01*
X030520Y030265D02*
X029640Y030265D01*
X029640Y030265D01*
X029640Y030265D01*
X028760Y030265D01*
X028760Y030312D01*
X028775Y030405D01*
X028804Y030495D01*
X028817Y030522D01*
X028801Y030538D01*
X028474Y030865D01*
X028369Y030865D01*
X028269Y030765D01*
X028429Y030605D01*
X028520Y030384D01*
X028520Y030146D01*
X028429Y029925D01*
X028260Y029756D01*
X028232Y029745D01*
X029059Y029745D01*
X029046Y029752D01*
X028969Y029807D01*
X028902Y029874D01*
X028847Y029951D01*
X028804Y030035D01*
X028775Y030124D01*
X028760Y030218D01*
X028760Y030265D01*
X029640Y030265D01*
X030520Y030265D01*
X030512Y030168D02*
X031760Y030168D01*
X031817Y030009D02*
X030463Y030009D01*
X030354Y029851D02*
X031926Y029851D01*
X031140Y030765D02*
X031640Y031265D01*
X032640Y031265D01*
X034640Y031265D02*
X036140Y031265D01*
X036640Y030765D01*
X035888Y030326D02*
X035518Y030326D01*
X035520Y030312D02*
X035512Y030365D01*
X035849Y030365D01*
X036469Y029745D01*
X035221Y029745D01*
X035234Y029752D01*
X035311Y029807D01*
X035378Y029874D01*
X035433Y029951D01*
X035476Y030035D01*
X035505Y030124D01*
X035520Y030218D01*
X035520Y030265D01*
X035520Y030312D01*
X035520Y030265D02*
X034640Y030265D01*
X034640Y030265D01*
X035520Y030265D01*
X035512Y030168D02*
X036047Y030168D01*
X036205Y030009D02*
X035463Y030009D01*
X035354Y029851D02*
X036364Y029851D01*
X036240Y028785D02*
X037040Y028785D01*
X037040Y028391D01*
X037160Y028271D01*
X037160Y027832D01*
X037020Y027774D01*
X036851Y027605D01*
X036760Y027384D01*
X036760Y027146D01*
X036851Y026925D01*
X037011Y026765D01*
X036851Y026605D01*
X036760Y026384D01*
X036760Y026211D01*
X036367Y026604D01*
X036220Y026665D01*
X035369Y026665D01*
X035269Y026765D01*
X035429Y026925D01*
X035520Y027146D01*
X035520Y027384D01*
X035429Y027605D01*
X035260Y027774D01*
X035039Y027865D01*
X034241Y027865D01*
X034020Y027774D01*
X033851Y027605D01*
X033760Y027384D01*
X033760Y027146D01*
X033851Y026925D01*
X034011Y026765D01*
X033851Y026605D01*
X033760Y026384D01*
X033760Y026148D01*
X033720Y026165D01*
X033520Y026165D01*
X033520Y026384D01*
X033429Y026605D01*
X033269Y026765D01*
X033429Y026925D01*
X033520Y027146D01*
X033520Y027384D01*
X033429Y027605D01*
X033260Y027774D01*
X033120Y027832D01*
X033120Y028271D01*
X033240Y028391D01*
X033240Y028785D01*
X035040Y028785D01*
X035040Y028640D01*
X035640Y028640D01*
X036240Y028640D01*
X036240Y028785D01*
X036240Y028741D02*
X037040Y028741D01*
X037040Y028583D02*
X036240Y028583D01*
X036240Y028640D02*
X035640Y028640D01*
X035640Y028640D01*
X035640Y028040D01*
X035889Y028040D01*
X036240Y028391D01*
X036240Y028640D01*
X036240Y028424D02*
X037040Y028424D01*
X037160Y028266D02*
X036114Y028266D01*
X035956Y028107D02*
X037160Y028107D01*
X037160Y027949D02*
X033120Y027949D01*
X033120Y028107D02*
X035324Y028107D01*
X035391Y028040D02*
X035640Y028040D01*
X035640Y028640D01*
X035640Y028640D01*
X035640Y028640D01*
X035040Y028640D01*
X035040Y028391D01*
X035391Y028040D01*
X035640Y028107D02*
X035640Y028107D01*
X035640Y028266D02*
X035640Y028266D01*
X035640Y028424D02*
X035640Y028424D01*
X035640Y028583D02*
X035640Y028583D01*
X035166Y028266D02*
X033120Y028266D01*
X033240Y028424D02*
X035040Y028424D01*
X035040Y028583D02*
X033240Y028583D01*
X033240Y028741D02*
X035040Y028741D01*
X035220Y027790D02*
X037060Y027790D01*
X036878Y027632D02*
X035402Y027632D01*
X035483Y027473D02*
X036797Y027473D01*
X036760Y027315D02*
X035520Y027315D01*
X035520Y027156D02*
X036760Y027156D01*
X036821Y026998D02*
X035459Y026998D01*
X035343Y026839D02*
X036937Y026839D01*
X036927Y026681D02*
X035353Y026681D01*
X034640Y026265D02*
X036140Y026265D01*
X036640Y025765D01*
X045140Y025765D01*
X046140Y026765D01*
X048640Y026765D01*
X049640Y025765D01*
X052890Y025765D01*
X060890Y017765D01*
X060890Y013015D01*
X060640Y012765D01*
X060015Y012765D01*
X059515Y013265D01*
X059265Y013265D01*
X059765Y013765D02*
X058265Y013765D01*
X053140Y018890D01*
X053140Y020390D01*
X050765Y022765D01*
X036640Y022765D01*
X036140Y023265D01*
X034640Y023265D01*
X034640Y022265D02*
X036140Y022265D01*
X036640Y021765D01*
X045640Y021765D01*
X046640Y020765D01*
X050765Y020765D01*
X052390Y019140D01*
X052390Y018640D01*
X058765Y012265D01*
X059265Y012265D01*
X059515Y012765D02*
X058765Y012765D01*
X052765Y018765D01*
X052765Y019765D01*
X050765Y021765D01*
X046140Y021765D01*
X045640Y022265D01*
X037640Y022265D01*
X037640Y023265D02*
X045140Y023265D01*
X045640Y023765D01*
X051390Y023765D01*
X050140Y024265D02*
X049140Y024265D01*
X048640Y024765D01*
X045640Y024765D01*
X045140Y024265D01*
X037640Y024265D01*
X037640Y025265D02*
X045140Y025265D01*
X045640Y025765D01*
X048640Y025765D01*
X049140Y025265D01*
X050140Y025265D01*
X049640Y026765D02*
X050890Y026765D01*
X051140Y026765D01*
X052390Y026765D01*
X061390Y017765D01*
X061390Y010890D01*
X060765Y010265D01*
X060265Y010265D01*
X059765Y009860D02*
X059530Y009625D01*
X059000Y009625D01*
X058625Y010000D01*
X058625Y010390D01*
X058538Y010426D01*
X050961Y018003D01*
X050929Y017925D01*
X050760Y017756D01*
X050540Y017665D01*
X050540Y016435D01*
X050479Y016288D01*
X050367Y016176D01*
X050367Y016176D01*
X048915Y014724D01*
X048915Y012895D01*
X049134Y012895D01*
X049355Y012804D01*
X049524Y012635D01*
X049615Y012414D01*
X049615Y011616D01*
X049524Y011395D01*
X049355Y011226D01*
X049134Y011135D01*
X048915Y011135D01*
X048915Y009887D01*
X048968Y009895D01*
X049015Y009895D01*
X049015Y009015D01*
X049015Y009015D01*
X049615Y009015D01*
X049615Y009342D01*
X049600Y009435D01*
X049571Y009525D01*
X049528Y009609D01*
X049473Y009686D01*
X049406Y009753D01*
X049329Y009808D01*
X049245Y009851D01*
X049155Y009880D01*
X049062Y009895D01*
X049015Y009895D01*
X049015Y009015D01*
X049015Y009015D01*
X049615Y009015D01*
X049615Y008688D01*
X049600Y008594D01*
X049571Y008505D01*
X049528Y008421D01*
X049473Y008344D01*
X049406Y008277D01*
X049329Y008222D01*
X049245Y008179D01*
X049155Y008150D01*
X049062Y008135D01*
X049015Y008135D01*
X049015Y009015D01*
X049015Y009015D01*
X049015Y008135D01*
X048968Y008135D01*
X048874Y008150D01*
X048785Y008179D01*
X048701Y008222D01*
X048624Y008277D01*
X048557Y008344D01*
X048522Y008393D01*
X048355Y008226D01*
X048134Y008135D01*
X047896Y008135D01*
X047675Y008226D01*
X047515Y008386D01*
X047355Y008226D01*
X047134Y008135D01*
X047076Y008135D01*
X046867Y007926D01*
X046816Y007905D01*
X047155Y007905D01*
X047390Y007670D01*
X047625Y007905D01*
X048155Y007905D01*
X048390Y007670D01*
X048625Y007905D01*
X049155Y007905D01*
X049390Y007670D01*
X049625Y007905D01*
X050155Y007905D01*
X050390Y007670D01*
X050625Y007905D01*
X051155Y007905D01*
X051390Y007670D01*
X051625Y007905D01*
X052155Y007905D01*
X052390Y007670D01*
X052625Y007905D01*
X053155Y007905D01*
X053390Y007670D01*
X053625Y007905D01*
X054155Y007905D01*
X054530Y007530D01*
X054530Y007000D01*
X054295Y006765D01*
X054530Y006530D01*
X054530Y006000D01*
X054400Y005870D01*
X058191Y005870D01*
X058625Y006304D01*
X058625Y006530D01*
X058785Y006690D01*
X058785Y006840D01*
X058625Y007000D01*
X058625Y007530D01*
X059000Y007905D01*
X059530Y007905D01*
X059765Y007670D01*
X060000Y007905D01*
X060530Y007905D01*
X060905Y007530D01*
X060905Y007000D01*
X060745Y006840D01*
X060745Y006745D01*
X061160Y006745D01*
X061160Y008735D01*
X061233Y008912D01*
X061368Y009047D01*
X064660Y012339D01*
X064660Y028785D01*
X050740Y028785D01*
X050740Y028391D01*
X050389Y028040D01*
X049891Y028040D01*
X049540Y028391D01*
X049540Y028785D01*
X048740Y028785D01*
X048740Y028640D01*
X048140Y028640D01*
X048140Y028640D01*
X048140Y028640D01*
X047540Y028640D01*
X047540Y028785D01*
X038240Y028785D01*
X038240Y028391D01*
X038120Y028271D01*
X038120Y027832D01*
X038260Y027774D01*
X038429Y027605D01*
X038520Y027384D01*
X038520Y027146D01*
X038429Y026925D01*
X038269Y026765D01*
X038369Y026665D01*
X044974Y026665D01*
X046301Y027992D01*
X046413Y028104D01*
X046560Y028165D01*
X047766Y028165D01*
X047540Y028391D01*
X047540Y028640D01*
X048140Y028640D01*
X048740Y028640D01*
X048740Y028391D01*
X048514Y028165D01*
X048720Y028165D01*
X048867Y028104D01*
X049359Y027612D01*
X049520Y027774D01*
X049741Y027865D01*
X050539Y027865D01*
X050760Y027774D01*
X050929Y027605D01*
X051020Y027384D01*
X051020Y027165D01*
X052470Y027165D01*
X052617Y027104D01*
X052729Y026992D01*
X061729Y017992D01*
X061790Y017845D01*
X061790Y010810D01*
X061729Y010663D01*
X061617Y010551D01*
X060992Y009926D01*
X060845Y009865D01*
X060770Y009865D01*
X060530Y009625D01*
X060000Y009625D01*
X059765Y009860D01*
X059626Y009721D02*
X059904Y009721D01*
X060626Y009721D02*
X062042Y009721D01*
X061884Y009563D02*
X049552Y009563D01*
X049605Y009404D02*
X061725Y009404D01*
X061567Y009246D02*
X049615Y009246D01*
X049615Y009087D02*
X061408Y009087D01*
X061250Y008929D02*
X049615Y008929D01*
X049615Y008770D02*
X061174Y008770D01*
X061160Y008612D02*
X049603Y008612D01*
X049545Y008453D02*
X061160Y008453D01*
X061160Y008295D02*
X049423Y008295D01*
X049069Y008136D02*
X061160Y008136D01*
X061160Y007978D02*
X046918Y007978D01*
X047137Y008136D02*
X047893Y008136D01*
X048137Y008136D02*
X048961Y008136D01*
X049015Y008136D02*
X049015Y008136D01*
X049015Y008295D02*
X049015Y008295D01*
X049015Y008453D02*
X049015Y008453D01*
X049015Y008612D02*
X049015Y008612D01*
X049015Y008770D02*
X049015Y008770D01*
X049015Y008929D02*
X049015Y008929D01*
X049015Y009087D02*
X049015Y009087D01*
X049015Y009246D02*
X049015Y009246D01*
X049015Y009404D02*
X049015Y009404D01*
X049015Y009563D02*
X049015Y009563D01*
X049015Y009721D02*
X049015Y009721D01*
X049015Y009880D02*
X049015Y009880D01*
X049158Y009880D02*
X058745Y009880D01*
X058625Y010038D02*
X048915Y010038D01*
X048915Y010197D02*
X058625Y010197D01*
X058625Y010355D02*
X048915Y010355D01*
X048915Y010514D02*
X058451Y010514D01*
X058292Y010672D02*
X048915Y010672D01*
X048915Y010831D02*
X058134Y010831D01*
X057975Y010989D02*
X048915Y010989D01*
X049165Y011148D02*
X057817Y011148D01*
X057658Y011306D02*
X049435Y011306D01*
X049552Y011465D02*
X057500Y011465D01*
X057341Y011623D02*
X049615Y011623D01*
X049615Y011782D02*
X057183Y011782D01*
X057024Y011940D02*
X049615Y011940D01*
X049615Y012099D02*
X056866Y012099D01*
X056707Y012257D02*
X049615Y012257D01*
X049615Y012416D02*
X056549Y012416D01*
X056390Y012574D02*
X049549Y012574D01*
X049426Y012733D02*
X056232Y012733D01*
X056073Y012891D02*
X049144Y012891D01*
X048915Y013050D02*
X055915Y013050D01*
X055756Y013208D02*
X048915Y013208D01*
X048915Y013367D02*
X055598Y013367D01*
X055439Y013525D02*
X048915Y013525D01*
X048915Y013684D02*
X055281Y013684D01*
X055122Y013842D02*
X048915Y013842D01*
X048915Y014001D02*
X054964Y014001D01*
X054805Y014159D02*
X048915Y014159D01*
X048915Y014318D02*
X054647Y014318D01*
X054488Y014476D02*
X048915Y014476D01*
X048915Y014635D02*
X054330Y014635D01*
X054171Y014793D02*
X048984Y014793D01*
X049142Y014952D02*
X054013Y014952D01*
X053854Y015110D02*
X049301Y015110D01*
X049459Y015269D02*
X053696Y015269D01*
X053537Y015427D02*
X049618Y015427D01*
X049776Y015586D02*
X053379Y015586D01*
X053220Y015744D02*
X049935Y015744D01*
X050093Y015903D02*
X053062Y015903D01*
X052903Y016061D02*
X050252Y016061D01*
X050410Y016220D02*
X052745Y016220D01*
X052586Y016378D02*
X050516Y016378D01*
X050540Y016537D02*
X052428Y016537D01*
X052269Y016695D02*
X050540Y016695D01*
X050540Y016854D02*
X052111Y016854D01*
X051952Y017012D02*
X050540Y017012D01*
X050540Y017171D02*
X051794Y017171D01*
X051635Y017329D02*
X050540Y017329D01*
X050540Y017488D02*
X051477Y017488D01*
X051318Y017646D02*
X050540Y017646D01*
X050808Y017805D02*
X051160Y017805D01*
X051001Y017963D02*
X050944Y017963D01*
X050140Y018265D02*
X049265Y018265D01*
X048765Y017765D01*
X037015Y017765D01*
X036015Y018765D01*
X034140Y018765D01*
X033640Y018265D01*
X032640Y018265D01*
X032241Y017665D02*
X033039Y017665D01*
X033260Y017756D01*
X033369Y017865D01*
X033720Y017865D01*
X033865Y017925D01*
X033887Y017895D01*
X033788Y017854D01*
X033676Y017742D01*
X028647Y012713D01*
X028620Y012726D01*
X028530Y012755D01*
X028437Y012770D01*
X028390Y012770D01*
X028390Y011890D01*
X028390Y011890D01*
X028390Y011010D01*
X028437Y011010D01*
X028490Y011018D01*
X028490Y009770D01*
X028271Y009770D01*
X028050Y009679D01*
X027881Y009510D01*
X027790Y009289D01*
X027790Y008491D01*
X027881Y008270D01*
X027980Y008171D01*
X027974Y008165D01*
X027560Y008165D01*
X027413Y008104D01*
X027185Y007875D01*
X027155Y007905D01*
X026790Y007905D01*
X026790Y016224D01*
X027979Y017413D01*
X028040Y017560D01*
X028040Y017665D01*
X028260Y017756D01*
X028429Y017925D01*
X028520Y018146D01*
X028520Y018384D01*
X028429Y018605D01*
X028269Y018765D01*
X028369Y018865D01*
X028474Y018865D01*
X028801Y018538D01*
X028817Y018522D01*
X028804Y018495D01*
X028775Y018405D01*
X028760Y018312D01*
X028760Y018265D01*
X029640Y018265D01*
X031140Y018265D01*
X031765Y017640D01*
X033515Y017640D01*
X034140Y018265D01*
X034640Y018265D01*
X035520Y018265D01*
X035520Y018312D01*
X035512Y018365D01*
X035849Y018365D01*
X036130Y018084D01*
X036128Y018085D01*
X035902Y018085D01*
X035692Y017998D01*
X035609Y017915D01*
X035407Y017915D01*
X035433Y017951D01*
X035476Y018035D01*
X035505Y018124D01*
X035520Y018218D01*
X035520Y018265D01*
X034640Y018265D01*
X034640Y018265D01*
X035440Y017963D02*
X035657Y017963D01*
X035504Y018122D02*
X036093Y018122D01*
X035934Y018280D02*
X035520Y018280D01*
X036015Y017515D02*
X034015Y017515D01*
X028890Y012390D01*
X028890Y008265D01*
X028765Y008140D01*
X028515Y008140D01*
X028140Y007765D01*
X027640Y007765D01*
X027390Y007515D01*
X027390Y005890D01*
X027140Y005640D01*
X024515Y005640D01*
X023890Y006265D01*
X023491Y005759D02*
X023289Y005759D01*
X023989Y005600D02*
X021541Y005600D01*
X021382Y005442D02*
X024148Y005442D01*
X024332Y005283D02*
X021224Y005283D01*
X021065Y005125D02*
X028537Y005125D01*
X028306Y005283D02*
X027323Y005283D01*
X027507Y005442D02*
X028148Y005442D01*
X027989Y005600D02*
X027666Y005600D01*
X027890Y006265D02*
X028640Y005515D01*
X034140Y005515D01*
X034515Y005890D01*
X034515Y007515D01*
X033390Y008640D01*
X033390Y008890D01*
X034563Y008032D02*
X034730Y008101D01*
X034899Y008270D01*
X034957Y008410D01*
X035021Y008410D01*
X035141Y008290D01*
X035639Y008290D01*
X035660Y008311D01*
X035660Y007469D01*
X035639Y007490D01*
X035390Y007490D01*
X035390Y006890D01*
X035390Y006890D01*
X035390Y007490D01*
X035141Y007490D01*
X034915Y007264D01*
X034915Y007595D01*
X034854Y007742D01*
X034563Y008032D01*
X034618Y007978D02*
X035660Y007978D01*
X035660Y008136D02*
X034765Y008136D01*
X034909Y008295D02*
X035137Y008295D01*
X035643Y008295D02*
X035660Y008295D01*
X035660Y007819D02*
X034777Y007819D01*
X034888Y007661D02*
X035660Y007661D01*
X035660Y007502D02*
X034915Y007502D01*
X034915Y007344D02*
X034995Y007344D01*
X035390Y007344D02*
X035390Y007344D01*
X035390Y007185D02*
X035390Y007185D01*
X035390Y007027D02*
X035390Y007027D01*
X035390Y006890D02*
X035390Y006290D01*
X035390Y006890D01*
X035390Y006890D01*
X035390Y006868D02*
X035390Y006868D01*
X035390Y006710D02*
X035390Y006710D01*
X035390Y006551D02*
X035390Y006551D01*
X035390Y006393D02*
X035390Y006393D01*
X035660Y006234D02*
X034915Y006234D01*
X034915Y006076D02*
X035660Y006076D01*
X035660Y005917D02*
X034915Y005917D01*
X034893Y005759D02*
X035675Y005759D01*
X035751Y005600D02*
X034791Y005600D01*
X034632Y005442D02*
X035910Y005442D01*
X036068Y005283D02*
X034474Y005283D01*
X034243Y005125D02*
X036227Y005125D01*
X036409Y004966D02*
X020907Y004966D01*
X020640Y005265D02*
X016765Y005265D01*
X016390Y005640D01*
X016390Y006765D01*
X016890Y007265D01*
X016539Y007819D02*
X016241Y007819D01*
X015539Y007819D02*
X015241Y007819D01*
X014539Y007819D02*
X014241Y007819D01*
X013790Y007978D02*
X017545Y007978D01*
X017490Y007819D02*
X017241Y007819D01*
X017695Y008136D02*
X013790Y008136D01*
X013790Y008295D02*
X017854Y008295D01*
X017773Y008453D02*
X018012Y008453D01*
X018043Y008612D02*
X018115Y008612D01*
X018515Y008390D02*
X017890Y007765D01*
X017890Y007265D01*
X018390Y006765D02*
X017890Y006265D01*
X018390Y006765D02*
X018390Y007765D01*
X019015Y008390D01*
X019015Y016640D01*
X018515Y017265D02*
X018515Y008390D01*
X019390Y007890D02*
X020515Y009015D01*
X020515Y017140D01*
X020952Y017509D02*
X020838Y017623D01*
X020628Y017710D01*
X020402Y017710D01*
X020192Y017623D01*
X020045Y017476D01*
X019998Y017588D01*
X019921Y017665D01*
X019967Y017665D01*
X020060Y017680D01*
X020150Y017709D01*
X020234Y017752D01*
X020311Y017807D01*
X020378Y017874D01*
X020433Y017951D01*
X020476Y018035D01*
X020505Y018124D01*
X020520Y018218D01*
X020520Y018265D01*
X020520Y018312D01*
X020512Y018365D01*
X021220Y018365D01*
X021367Y018426D01*
X021806Y018865D01*
X021911Y018865D01*
X022011Y018765D01*
X021851Y018605D01*
X021760Y018384D01*
X021760Y018146D01*
X021851Y017925D01*
X022020Y017756D01*
X022240Y017665D01*
X022240Y008921D01*
X022157Y008838D01*
X022070Y008628D01*
X022070Y008402D01*
X022157Y008192D01*
X022317Y008032D01*
X022527Y007945D01*
X022753Y007945D01*
X022963Y008032D01*
X023123Y008192D01*
X023210Y008402D01*
X023210Y008628D01*
X023123Y008838D01*
X023040Y008921D01*
X023040Y017665D01*
X023260Y017756D01*
X023429Y017925D01*
X023520Y018146D01*
X023520Y018384D01*
X023429Y018605D01*
X023269Y018765D01*
X023369Y018865D01*
X023474Y018865D01*
X023801Y018538D01*
X023817Y018522D01*
X023804Y018495D01*
X023775Y018405D01*
X023760Y018312D01*
X023760Y018265D01*
X024640Y018265D01*
X026140Y018265D01*
X026640Y018765D01*
X028640Y018765D01*
X029140Y018265D01*
X029640Y018265D01*
X030520Y018265D01*
X030520Y018312D01*
X030512Y018365D01*
X031220Y018365D01*
X031367Y018426D01*
X031806Y018865D01*
X031911Y018865D01*
X032011Y018765D01*
X031851Y018605D01*
X031760Y018384D01*
X031760Y018146D01*
X031851Y017925D01*
X032020Y017756D01*
X032241Y017665D01*
X031972Y017805D02*
X030307Y017805D01*
X030311Y017807D02*
X030378Y017874D01*
X030433Y017951D01*
X030476Y018035D01*
X030505Y018124D01*
X030520Y018218D01*
X030520Y018265D01*
X029640Y018265D01*
X029640Y018265D01*
X029640Y017665D01*
X029967Y017665D01*
X030060Y017680D01*
X030150Y017709D01*
X030234Y017752D01*
X030311Y017807D01*
X030440Y017963D02*
X031836Y017963D01*
X031770Y018122D02*
X030504Y018122D01*
X030520Y018280D02*
X031760Y018280D01*
X031782Y018439D02*
X031379Y018439D01*
X031538Y018597D02*
X031848Y018597D01*
X031696Y018756D02*
X032002Y018756D01*
X031640Y019265D02*
X032640Y019265D01*
X032640Y020265D02*
X031640Y020265D01*
X031140Y019765D01*
X029140Y019765D01*
X028640Y020265D01*
X027640Y020265D01*
X026640Y020265D01*
X026140Y019765D01*
X024140Y019765D01*
X023640Y020265D01*
X022640Y020265D01*
X021640Y020265D01*
X021140Y019765D01*
X019140Y019765D01*
X018640Y020265D01*
X017640Y020265D01*
X016640Y019765D02*
X018640Y019765D01*
X019140Y019265D01*
X019640Y019265D01*
X021140Y019265D01*
X021640Y019765D01*
X023640Y019765D01*
X024140Y019265D01*
X024640Y019265D01*
X026140Y019265D01*
X026640Y019765D01*
X028640Y019765D01*
X029140Y019265D01*
X029640Y019265D01*
X029140Y018765D02*
X031140Y018765D01*
X031640Y019265D01*
X031140Y020265D02*
X031640Y020765D01*
X033640Y020765D01*
X034140Y020265D01*
X034640Y020265D01*
X036140Y020265D01*
X036640Y019765D01*
X045640Y019765D01*
X046140Y020265D01*
X047140Y020265D01*
X046140Y019765D02*
X050765Y019765D01*
X059265Y011265D01*
X058765Y010765D02*
X050765Y018765D01*
X036640Y018765D01*
X036140Y019265D01*
X034640Y019265D01*
X033739Y017805D02*
X033308Y017805D01*
X033580Y017646D02*
X028040Y017646D01*
X028010Y017488D02*
X033422Y017488D01*
X033263Y017329D02*
X027895Y017329D01*
X027736Y017171D02*
X033105Y017171D01*
X032946Y017012D02*
X027578Y017012D01*
X027419Y016854D02*
X032788Y016854D01*
X032629Y016695D02*
X027261Y016695D01*
X027102Y016537D02*
X032471Y016537D01*
X032312Y016378D02*
X026944Y016378D01*
X026790Y016220D02*
X032154Y016220D01*
X031995Y016061D02*
X026790Y016061D01*
X026790Y015903D02*
X031837Y015903D01*
X031678Y015744D02*
X026790Y015744D01*
X026790Y015586D02*
X031520Y015586D01*
X031361Y015427D02*
X026790Y015427D01*
X026790Y015269D02*
X031203Y015269D01*
X031044Y015110D02*
X026790Y015110D01*
X026790Y014952D02*
X030886Y014952D01*
X030727Y014793D02*
X026790Y014793D01*
X026790Y014635D02*
X030569Y014635D01*
X030410Y014476D02*
X026790Y014476D01*
X026790Y014318D02*
X030252Y014318D01*
X030093Y014159D02*
X026790Y014159D01*
X026790Y014001D02*
X029935Y014001D01*
X029776Y013842D02*
X026790Y013842D01*
X026790Y013684D02*
X029618Y013684D01*
X029459Y013525D02*
X026790Y013525D01*
X026790Y013367D02*
X029301Y013367D01*
X029142Y013208D02*
X026790Y013208D01*
X026790Y013050D02*
X028984Y013050D01*
X028825Y012891D02*
X026790Y012891D01*
X026790Y012733D02*
X028180Y012733D01*
X028160Y012726D02*
X028076Y012683D01*
X027999Y012628D01*
X027932Y012561D01*
X027877Y012484D01*
X027834Y012400D01*
X027805Y012310D01*
X027790Y012217D01*
X027790Y011890D01*
X028390Y011890D01*
X028390Y011890D01*
X028390Y011890D01*
X028390Y012770D01*
X028343Y012770D01*
X028249Y012755D01*
X028160Y012726D01*
X028390Y012733D02*
X028390Y012733D01*
X028390Y012574D02*
X028390Y012574D01*
X028390Y012416D02*
X028390Y012416D01*
X028390Y012257D02*
X028390Y012257D01*
X028390Y012099D02*
X028390Y012099D01*
X028390Y011940D02*
X028390Y011940D01*
X028390Y011890D02*
X027790Y011890D01*
X027790Y011563D01*
X027805Y011469D01*
X027834Y011380D01*
X027877Y011296D01*
X027932Y011219D01*
X027999Y011152D01*
X028076Y011097D01*
X028160Y011054D01*
X028249Y011025D01*
X028343Y011010D01*
X028390Y011010D01*
X028390Y011890D01*
X028390Y011782D02*
X028390Y011782D01*
X028390Y011623D02*
X028390Y011623D01*
X028390Y011465D02*
X028390Y011465D01*
X028390Y011306D02*
X028390Y011306D01*
X028390Y011148D02*
X028390Y011148D01*
X028490Y010989D02*
X026790Y010989D01*
X026790Y010831D02*
X028490Y010831D01*
X028490Y010672D02*
X026790Y010672D01*
X026790Y010514D02*
X028490Y010514D01*
X028490Y010355D02*
X026790Y010355D01*
X026790Y010197D02*
X028490Y010197D01*
X028490Y010038D02*
X026790Y010038D01*
X026790Y009880D02*
X028490Y009880D01*
X028152Y009721D02*
X026790Y009721D01*
X026790Y009563D02*
X027934Y009563D01*
X027837Y009404D02*
X026790Y009404D01*
X026790Y009246D02*
X027790Y009246D01*
X027790Y009087D02*
X026790Y009087D01*
X026790Y008929D02*
X027790Y008929D01*
X027790Y008770D02*
X026790Y008770D01*
X026790Y008612D02*
X027790Y008612D01*
X027806Y008453D02*
X026790Y008453D01*
X026790Y008295D02*
X027871Y008295D01*
X027490Y008136D02*
X026790Y008136D01*
X026790Y007978D02*
X027287Y007978D01*
X028390Y007515D02*
X028390Y006765D01*
X028890Y006265D01*
X029390Y006765D02*
X029390Y007640D01*
X029890Y008140D01*
X029890Y009640D01*
X030390Y010140D01*
X030390Y011890D01*
X029390Y011890D02*
X029390Y012265D01*
X030515Y013390D01*
X044765Y013390D01*
X045515Y012640D01*
X045515Y010515D01*
X046015Y010015D01*
X046015Y009015D01*
X046515Y009644D02*
X046415Y009744D01*
X046415Y010095D01*
X046354Y010242D01*
X046242Y010354D01*
X045915Y010681D01*
X045915Y011135D01*
X046134Y011135D01*
X046355Y011226D01*
X046522Y011393D01*
X046557Y011344D01*
X046624Y011277D01*
X046701Y011222D01*
X046785Y011179D01*
X046874Y011150D01*
X046968Y011135D01*
X047015Y011135D01*
X047062Y011135D01*
X047155Y011150D01*
X047245Y011179D01*
X047329Y011222D01*
X047406Y011277D01*
X047473Y011344D01*
X047515Y011402D01*
X047557Y011344D01*
X047624Y011277D01*
X047701Y011222D01*
X047785Y011179D01*
X047874Y011150D01*
X047968Y011135D01*
X048015Y011135D01*
X048062Y011135D01*
X048115Y011143D01*
X048115Y009895D01*
X047896Y009895D01*
X047675Y009804D01*
X047515Y009644D01*
X047355Y009804D01*
X047134Y009895D01*
X046896Y009895D01*
X046675Y009804D01*
X046515Y009644D01*
X046438Y009721D02*
X046592Y009721D01*
X046415Y009880D02*
X046858Y009880D01*
X047172Y009880D02*
X047858Y009880D01*
X048115Y010038D02*
X046415Y010038D01*
X046373Y010197D02*
X048115Y010197D01*
X048115Y010355D02*
X046241Y010355D01*
X046082Y010514D02*
X048115Y010514D01*
X048115Y010672D02*
X045924Y010672D01*
X045915Y010831D02*
X048115Y010831D01*
X048115Y010989D02*
X045915Y010989D01*
X046165Y011148D02*
X046889Y011148D01*
X047015Y011148D02*
X047015Y011148D01*
X047015Y011135D02*
X047015Y012015D01*
X047615Y012015D01*
X048015Y012015D01*
X048015Y012015D01*
X048015Y012895D01*
X048062Y012895D01*
X048115Y012887D01*
X048115Y014970D01*
X048176Y015117D01*
X048288Y015229D01*
X048288Y015229D01*
X049740Y016681D01*
X049740Y017665D01*
X049520Y017756D01*
X049421Y017855D01*
X048992Y017426D01*
X048845Y017365D01*
X036935Y017365D01*
X036788Y017426D01*
X036676Y017538D01*
X036584Y017630D01*
X036585Y017628D01*
X036585Y017402D01*
X036498Y017192D01*
X036338Y017032D01*
X036128Y016945D01*
X035902Y016945D01*
X035692Y017032D01*
X035609Y017115D01*
X034181Y017115D01*
X030856Y013790D01*
X044845Y013790D01*
X044992Y013729D01*
X045742Y012979D01*
X045846Y012875D01*
X045896Y012895D01*
X046134Y012895D01*
X046355Y012804D01*
X046522Y012637D01*
X046557Y012686D01*
X046624Y012753D01*
X046701Y012808D01*
X046785Y012851D01*
X046874Y012880D01*
X046968Y012895D01*
X047015Y012895D01*
X047015Y012015D01*
X047015Y012015D01*
X047015Y012015D01*
X048015Y012015D01*
X048015Y012015D01*
X048015Y011135D01*
X048015Y012015D01*
X048015Y012015D01*
X048015Y012895D01*
X047968Y012895D01*
X047874Y012880D01*
X047785Y012851D01*
X047701Y012808D01*
X047624Y012753D01*
X047557Y012686D01*
X047515Y012628D01*
X047473Y012686D01*
X047406Y012753D01*
X047329Y012808D01*
X047245Y012851D01*
X047155Y012880D01*
X047062Y012895D01*
X047015Y012895D01*
X047015Y012015D01*
X047015Y011135D01*
X047141Y011148D02*
X047889Y011148D01*
X048015Y011148D02*
X048015Y011148D01*
X048015Y011306D02*
X048015Y011306D01*
X048015Y011465D02*
X048015Y011465D01*
X048015Y011623D02*
X048015Y011623D01*
X048015Y011782D02*
X048015Y011782D01*
X048015Y011940D02*
X048015Y011940D01*
X048015Y012099D02*
X048015Y012099D01*
X048015Y012257D02*
X048015Y012257D01*
X048015Y012416D02*
X048015Y012416D01*
X048015Y012574D02*
X048015Y012574D01*
X048015Y012733D02*
X048015Y012733D01*
X048015Y012891D02*
X048015Y012891D01*
X048087Y012891D02*
X048115Y012891D01*
X048115Y013050D02*
X045671Y013050D01*
X045513Y013208D02*
X048115Y013208D01*
X048115Y013367D02*
X045354Y013367D01*
X045196Y013525D02*
X048115Y013525D01*
X048115Y013684D02*
X045037Y013684D01*
X044599Y012990D02*
X044754Y012835D01*
X044701Y012808D01*
X044624Y012753D01*
X044557Y012686D01*
X044515Y012628D01*
X044473Y012686D01*
X044406Y012753D01*
X044329Y012808D01*
X044245Y012851D01*
X044155Y012880D01*
X044062Y012895D01*
X044015Y012895D01*
X044015Y012015D01*
X044415Y012015D01*
X045015Y012015D01*
X045015Y012015D01*
X045015Y011135D01*
X045062Y011135D01*
X045115Y011143D01*
X045115Y010435D01*
X045176Y010288D01*
X045615Y009849D01*
X045615Y009744D01*
X045515Y009644D01*
X045355Y009804D01*
X045134Y009895D01*
X044896Y009895D01*
X044675Y009804D01*
X044515Y009644D01*
X044355Y009804D01*
X044134Y009895D01*
X043896Y009895D01*
X043675Y009804D01*
X043515Y009644D01*
X043415Y009744D01*
X043415Y009849D01*
X043854Y010288D01*
X043915Y010435D01*
X043915Y011143D01*
X043968Y011135D01*
X044015Y011135D01*
X044062Y011135D01*
X044155Y011150D01*
X044245Y011179D01*
X044329Y011222D01*
X044406Y011277D01*
X044473Y011344D01*
X044515Y011402D01*
X044557Y011344D01*
X044624Y011277D01*
X044701Y011222D01*
X044785Y011179D01*
X044874Y011150D01*
X044968Y011135D01*
X045015Y011135D01*
X045015Y012015D01*
X045015Y012015D01*
X044015Y012015D01*
X044015Y012015D01*
X044015Y012015D01*
X044015Y012895D01*
X043968Y012895D01*
X043874Y012880D01*
X043849Y012872D01*
X043742Y012979D01*
X043731Y012990D01*
X044599Y012990D01*
X044698Y012891D02*
X044087Y012891D01*
X044015Y012891D02*
X044015Y012891D01*
X043943Y012891D02*
X043830Y012891D01*
X044015Y012733D02*
X044015Y012733D01*
X044015Y012574D02*
X044015Y012574D01*
X044015Y012416D02*
X044015Y012416D01*
X044015Y012257D02*
X044015Y012257D01*
X044015Y012099D02*
X044015Y012099D01*
X044015Y012015D02*
X044015Y011135D01*
X044015Y012015D01*
X044015Y012015D01*
X044015Y011940D02*
X044015Y011940D01*
X044015Y011782D02*
X044015Y011782D01*
X044015Y011623D02*
X044015Y011623D01*
X044015Y011465D02*
X044015Y011465D01*
X044015Y011306D02*
X044015Y011306D01*
X044015Y011148D02*
X044015Y011148D01*
X044141Y011148D02*
X044889Y011148D01*
X045015Y011148D02*
X045015Y011148D01*
X045015Y011306D02*
X045015Y011306D01*
X045015Y011465D02*
X045015Y011465D01*
X045015Y011623D02*
X045015Y011623D01*
X045015Y011782D02*
X045015Y011782D01*
X045015Y011940D02*
X045015Y011940D01*
X044604Y012733D02*
X044426Y012733D01*
X043515Y012640D02*
X043515Y010515D01*
X043015Y010015D01*
X043015Y009015D01*
X042415Y009087D02*
X038266Y009087D01*
X038424Y009246D02*
X042415Y009246D01*
X042415Y009404D02*
X038583Y009404D01*
X038741Y009563D02*
X041244Y009563D01*
X041391Y009415D02*
X041040Y009766D01*
X041040Y010015D01*
X041640Y010015D01*
X041640Y010015D01*
X041640Y010615D01*
X041889Y010615D01*
X042240Y010264D01*
X042240Y010015D01*
X041640Y010015D01*
X041640Y010015D01*
X041640Y010015D01*
X041640Y010615D01*
X041391Y010615D01*
X041040Y010264D01*
X041040Y010015D01*
X041640Y010015D01*
X042240Y010015D01*
X042240Y009766D01*
X041889Y009415D01*
X041640Y009415D01*
X041640Y010015D01*
X041640Y010015D01*
X041640Y009415D01*
X041391Y009415D01*
X041640Y009563D02*
X041640Y009563D01*
X041640Y009721D02*
X041640Y009721D01*
X041640Y009880D02*
X041640Y009880D01*
X041640Y010038D02*
X041640Y010038D01*
X041640Y010197D02*
X041640Y010197D01*
X041640Y010355D02*
X041640Y010355D01*
X041640Y010514D02*
X041640Y010514D01*
X041990Y010514D02*
X042948Y010514D01*
X043106Y010672D02*
X039851Y010672D01*
X040009Y010831D02*
X043115Y010831D01*
X043115Y010681D02*
X042788Y010354D01*
X042676Y010242D01*
X042615Y010095D01*
X042615Y009744D01*
X042506Y009635D01*
X042415Y009414D01*
X042415Y008616D01*
X042506Y008395D01*
X042675Y008226D01*
X042896Y008135D01*
X043134Y008135D01*
X043355Y008226D01*
X043515Y008386D01*
X043675Y008226D01*
X043896Y008135D01*
X044079Y008135D01*
X044176Y008038D01*
X044288Y007926D01*
X044435Y007865D01*
X044585Y007865D01*
X044390Y007670D01*
X044155Y007905D01*
X043625Y007905D01*
X043390Y007670D01*
X043155Y007905D01*
X042625Y007905D01*
X042390Y007670D01*
X042155Y007905D01*
X041625Y007905D01*
X041390Y007670D01*
X041155Y007905D01*
X040625Y007905D01*
X040390Y007670D01*
X040155Y007905D01*
X039625Y007905D01*
X039390Y007670D01*
X039155Y007905D01*
X038625Y007905D01*
X038390Y007670D01*
X038155Y007905D01*
X037625Y007905D01*
X037390Y007670D01*
X037155Y007905D01*
X036625Y007905D01*
X036620Y007900D01*
X036620Y008410D01*
X037485Y008410D01*
X037662Y008483D01*
X037797Y008618D01*
X040714Y011535D01*
X041271Y011535D01*
X041391Y011415D01*
X041889Y011415D01*
X042009Y011535D01*
X042448Y011535D01*
X042506Y011395D01*
X042675Y011226D01*
X042896Y011135D01*
X043115Y011135D01*
X043115Y010681D01*
X043115Y010989D02*
X040168Y010989D01*
X040326Y011148D02*
X042865Y011148D01*
X042595Y011306D02*
X040485Y011306D01*
X040643Y011465D02*
X041342Y011465D01*
X041938Y011465D02*
X042478Y011465D01*
X043915Y010989D02*
X045115Y010989D01*
X045115Y010831D02*
X043915Y010831D01*
X043915Y010672D02*
X045115Y010672D01*
X045115Y010514D02*
X043915Y010514D01*
X043882Y010355D02*
X045148Y010355D01*
X045268Y010197D02*
X043762Y010197D01*
X043604Y010038D02*
X045426Y010038D01*
X045585Y009880D02*
X045172Y009880D01*
X045438Y009721D02*
X045592Y009721D01*
X044858Y009880D02*
X044172Y009880D01*
X044438Y009721D02*
X044592Y009721D01*
X043858Y009880D02*
X043445Y009880D01*
X043438Y009721D02*
X043592Y009721D01*
X044015Y009015D02*
X044015Y008765D01*
X044515Y008265D01*
X046640Y008265D01*
X047015Y008640D01*
X047015Y009015D01*
X047438Y009721D02*
X047592Y009721D01*
X048015Y009015D02*
X048515Y009515D01*
X048515Y014890D01*
X050140Y016515D01*
X050140Y018265D01*
X049740Y017646D02*
X049212Y017646D01*
X049370Y017805D02*
X049472Y017805D01*
X049740Y017488D02*
X049053Y017488D01*
X049740Y017329D02*
X036555Y017329D01*
X036585Y017488D02*
X036727Y017488D01*
X036477Y017171D02*
X049740Y017171D01*
X049740Y017012D02*
X036290Y017012D01*
X035740Y017012D02*
X034078Y017012D01*
X033919Y016854D02*
X049740Y016854D01*
X049740Y016695D02*
X033761Y016695D01*
X033602Y016537D02*
X049596Y016537D01*
X049437Y016378D02*
X033444Y016378D01*
X033285Y016220D02*
X049279Y016220D01*
X049120Y016061D02*
X033127Y016061D01*
X032968Y015903D02*
X048962Y015903D01*
X048803Y015744D02*
X032810Y015744D01*
X032651Y015586D02*
X048645Y015586D01*
X048486Y015427D02*
X032493Y015427D01*
X032334Y015269D02*
X048328Y015269D01*
X048173Y015110D02*
X032176Y015110D01*
X032017Y014952D02*
X048115Y014952D01*
X048115Y014793D02*
X031859Y014793D01*
X031700Y014635D02*
X048115Y014635D01*
X048115Y014476D02*
X031542Y014476D01*
X031383Y014318D02*
X048115Y014318D01*
X048115Y014159D02*
X031225Y014159D01*
X031066Y014001D02*
X048115Y014001D01*
X048115Y013842D02*
X030908Y013842D01*
X032390Y012515D02*
X032890Y013015D01*
X043140Y013015D01*
X043515Y012640D01*
X044435Y011306D02*
X044595Y011306D01*
X042789Y010355D02*
X042149Y010355D01*
X042240Y010197D02*
X042657Y010197D01*
X042615Y010038D02*
X042240Y010038D01*
X042240Y009880D02*
X042615Y009880D01*
X042592Y009721D02*
X042195Y009721D01*
X042036Y009563D02*
X042476Y009563D01*
X041131Y010355D02*
X039534Y010355D01*
X039692Y010514D02*
X041290Y010514D01*
X041040Y010197D02*
X039375Y010197D01*
X039217Y010038D02*
X041040Y010038D01*
X041040Y009880D02*
X039058Y009880D01*
X038900Y009721D02*
X041085Y009721D01*
X042415Y008929D02*
X038107Y008929D01*
X037949Y008770D02*
X042415Y008770D01*
X042417Y008612D02*
X037790Y008612D01*
X037589Y008453D02*
X042482Y008453D01*
X042607Y008295D02*
X036620Y008295D01*
X036620Y008136D02*
X042893Y008136D01*
X043137Y008136D02*
X043893Y008136D01*
X043607Y008295D02*
X043423Y008295D01*
X043539Y007819D02*
X043241Y007819D01*
X042539Y007819D02*
X042241Y007819D01*
X041539Y007819D02*
X041241Y007819D01*
X040539Y007819D02*
X040241Y007819D01*
X039539Y007819D02*
X039241Y007819D01*
X038539Y007819D02*
X038241Y007819D01*
X037539Y007819D02*
X037241Y007819D01*
X036620Y007978D02*
X044237Y007978D01*
X044241Y007819D02*
X044539Y007819D01*
X047241Y007819D02*
X047539Y007819D01*
X047607Y008295D02*
X047423Y008295D01*
X048241Y007819D02*
X048539Y007819D01*
X048607Y008295D02*
X048423Y008295D01*
X049241Y007819D02*
X049539Y007819D01*
X050241Y007819D02*
X050539Y007819D01*
X051241Y007819D02*
X051539Y007819D01*
X052241Y007819D02*
X052539Y007819D01*
X053241Y007819D02*
X053539Y007819D01*
X054241Y007819D02*
X058914Y007819D01*
X058755Y007661D02*
X054400Y007661D01*
X054530Y007502D02*
X058625Y007502D01*
X058625Y007344D02*
X054530Y007344D01*
X054530Y007185D02*
X058625Y007185D01*
X058625Y007027D02*
X054530Y007027D01*
X054398Y006868D02*
X058757Y006868D01*
X058785Y006710D02*
X054351Y006710D01*
X054509Y006551D02*
X058646Y006551D01*
X058625Y006393D02*
X054530Y006393D01*
X054530Y006234D02*
X058555Y006234D01*
X058397Y006076D02*
X054530Y006076D01*
X054447Y005917D02*
X058238Y005917D01*
X058962Y005283D02*
X065026Y005283D01*
X064863Y005442D02*
X059120Y005442D01*
X059279Y005600D02*
X064740Y005600D01*
X064649Y005759D02*
X063032Y005759D01*
X063190Y005917D02*
X064595Y005917D01*
X064553Y006076D02*
X063275Y006076D01*
X063275Y006234D02*
X064545Y006234D01*
X064545Y006393D02*
X063275Y006393D01*
X063252Y006551D02*
X064579Y006551D01*
X064621Y006710D02*
X063094Y006710D01*
X062935Y006868D02*
X064704Y006868D01*
X064801Y007027D02*
X062120Y007027D01*
X062120Y007185D02*
X064960Y007185D01*
X065193Y007344D02*
X062120Y007344D01*
X062120Y007502D02*
X066502Y007502D01*
X066502Y007344D02*
X066337Y007344D01*
X066502Y007661D02*
X062120Y007661D01*
X062120Y007819D02*
X066502Y007819D01*
X066502Y007978D02*
X062120Y007978D01*
X062120Y008136D02*
X066502Y008136D01*
X066502Y008295D02*
X062120Y008295D01*
X062132Y008453D02*
X066502Y008453D01*
X066502Y008612D02*
X062290Y008612D01*
X062449Y008770D02*
X066502Y008770D01*
X066502Y008929D02*
X062607Y008929D01*
X062766Y009087D02*
X066502Y009087D01*
X066502Y009246D02*
X062924Y009246D01*
X063083Y009404D02*
X066502Y009404D01*
X066502Y009563D02*
X063241Y009563D01*
X063400Y009721D02*
X066502Y009721D01*
X066502Y009880D02*
X063558Y009880D01*
X063717Y010038D02*
X066502Y010038D01*
X066502Y010197D02*
X063875Y010197D01*
X064034Y010355D02*
X066502Y010355D01*
X066502Y010514D02*
X064192Y010514D01*
X064351Y010672D02*
X066502Y010672D01*
X066502Y010831D02*
X064509Y010831D01*
X064668Y010989D02*
X066502Y010989D01*
X066502Y011148D02*
X064826Y011148D01*
X064985Y011306D02*
X066502Y011306D01*
X066502Y011465D02*
X065143Y011465D01*
X065302Y011623D02*
X066502Y011623D01*
X066502Y011782D02*
X065460Y011782D01*
X065577Y011940D02*
X066502Y011940D01*
X066502Y012099D02*
X065620Y012099D01*
X065620Y012257D02*
X066502Y012257D01*
X066502Y012416D02*
X065620Y012416D01*
X065620Y012574D02*
X066502Y012574D01*
X066502Y012733D02*
X065620Y012733D01*
X065620Y012891D02*
X066502Y012891D01*
X066502Y013050D02*
X065620Y013050D01*
X065620Y013208D02*
X066502Y013208D01*
X066502Y013367D02*
X065620Y013367D01*
X065620Y013525D02*
X066502Y013525D01*
X066502Y013684D02*
X065620Y013684D01*
X065620Y013842D02*
X066502Y013842D01*
X066502Y014001D02*
X065620Y014001D01*
X065620Y014159D02*
X066502Y014159D01*
X066502Y014318D02*
X065620Y014318D01*
X065620Y014476D02*
X066502Y014476D01*
X066502Y014635D02*
X065620Y014635D01*
X065620Y014793D02*
X066502Y014793D01*
X066502Y014952D02*
X065620Y014952D01*
X065620Y015110D02*
X066502Y015110D01*
X066502Y015269D02*
X065620Y015269D01*
X065620Y015427D02*
X066502Y015427D01*
X066502Y015586D02*
X065620Y015586D01*
X065620Y015744D02*
X066502Y015744D01*
X066502Y015903D02*
X065620Y015903D01*
X065620Y016061D02*
X066502Y016061D01*
X066502Y016220D02*
X065620Y016220D01*
X065620Y016378D02*
X066502Y016378D01*
X066502Y016537D02*
X065620Y016537D01*
X065620Y016695D02*
X066502Y016695D01*
X066502Y016854D02*
X065620Y016854D01*
X065620Y017012D02*
X066502Y017012D01*
X066502Y017171D02*
X065620Y017171D01*
X065620Y017329D02*
X066502Y017329D01*
X066502Y017488D02*
X065620Y017488D01*
X065620Y017646D02*
X066502Y017646D01*
X066502Y017805D02*
X065620Y017805D01*
X065620Y017963D02*
X066502Y017963D01*
X066502Y018122D02*
X065620Y018122D01*
X065620Y018280D02*
X066502Y018280D01*
X066502Y018439D02*
X065620Y018439D01*
X065620Y018597D02*
X066502Y018597D01*
X066502Y018756D02*
X065620Y018756D01*
X065620Y018914D02*
X066502Y018914D01*
X066502Y019073D02*
X065620Y019073D01*
X065620Y019231D02*
X066502Y019231D01*
X066502Y019390D02*
X065620Y019390D01*
X065620Y019548D02*
X066502Y019548D01*
X066502Y019707D02*
X065620Y019707D01*
X065620Y019865D02*
X066502Y019865D01*
X066502Y020024D02*
X065620Y020024D01*
X065620Y020182D02*
X066502Y020182D01*
X066502Y020341D02*
X065620Y020341D01*
X065620Y020499D02*
X066502Y020499D01*
X066502Y020658D02*
X065620Y020658D01*
X065620Y020816D02*
X066502Y020816D01*
X066502Y020975D02*
X065620Y020975D01*
X065620Y021133D02*
X066502Y021133D01*
X066502Y021292D02*
X065620Y021292D01*
X065620Y021450D02*
X066502Y021450D01*
X066502Y021609D02*
X065620Y021609D01*
X065620Y021767D02*
X066502Y021767D01*
X066502Y021926D02*
X065620Y021926D01*
X065620Y022084D02*
X066502Y022084D01*
X066502Y022243D02*
X065620Y022243D01*
X065620Y022401D02*
X066502Y022401D01*
X066502Y022560D02*
X065620Y022560D01*
X065620Y022718D02*
X066502Y022718D01*
X066502Y022877D02*
X065620Y022877D01*
X065620Y023035D02*
X066502Y023035D01*
X066502Y023194D02*
X065620Y023194D01*
X065620Y023352D02*
X066502Y023352D01*
X066502Y023511D02*
X065620Y023511D01*
X065620Y023669D02*
X066502Y023669D01*
X066502Y023828D02*
X065620Y023828D01*
X065620Y023986D02*
X066502Y023986D01*
X066502Y024145D02*
X065620Y024145D01*
X065620Y024303D02*
X066502Y024303D01*
X066502Y024462D02*
X065620Y024462D01*
X065620Y024620D02*
X066502Y024620D01*
X066502Y024779D02*
X065620Y024779D01*
X065620Y024937D02*
X066502Y024937D01*
X066502Y025096D02*
X065620Y025096D01*
X065620Y025254D02*
X066502Y025254D01*
X066502Y025413D02*
X065620Y025413D01*
X065620Y025571D02*
X066502Y025571D01*
X066502Y025730D02*
X065620Y025730D01*
X065620Y025888D02*
X066502Y025888D01*
X066502Y026047D02*
X065620Y026047D01*
X065620Y026205D02*
X066502Y026205D01*
X066502Y026364D02*
X065620Y026364D01*
X065620Y026522D02*
X066502Y026522D01*
X066502Y026681D02*
X065620Y026681D01*
X065620Y026839D02*
X066502Y026839D01*
X066502Y026998D02*
X065620Y026998D01*
X065620Y027156D02*
X066502Y027156D01*
X066502Y027315D02*
X065620Y027315D01*
X065620Y027473D02*
X066502Y027473D01*
X066502Y027632D02*
X065620Y027632D01*
X065620Y027790D02*
X066502Y027790D01*
X066502Y027949D02*
X065620Y027949D01*
X065620Y028107D02*
X066502Y028107D01*
X066502Y028266D02*
X065620Y028266D01*
X065620Y028424D02*
X066502Y028424D01*
X066502Y028583D02*
X065620Y028583D01*
X065620Y028741D02*
X066502Y028741D01*
X066502Y028900D02*
X065620Y028900D01*
X065620Y029058D02*
X066502Y029058D01*
X066502Y029217D02*
X065620Y029217D01*
X065620Y029375D02*
X066502Y029375D01*
X066502Y029534D02*
X065620Y029534D01*
X065620Y029692D02*
X066502Y029692D01*
X066502Y029851D02*
X065620Y029851D01*
X065620Y030009D02*
X066502Y030009D01*
X066502Y030168D02*
X065620Y030168D01*
X065620Y030326D02*
X066502Y030326D01*
X066502Y030485D02*
X065620Y030485D01*
X065620Y030643D02*
X066502Y030643D01*
X066502Y030802D02*
X065620Y030802D01*
X065620Y030960D02*
X066502Y030960D01*
X066502Y031119D02*
X065620Y031119D01*
X065620Y031277D02*
X066502Y031277D01*
X066502Y031436D02*
X065620Y031436D01*
X065620Y031594D02*
X066502Y031594D01*
X066502Y031753D02*
X065620Y031753D01*
X065620Y031911D02*
X066502Y031911D01*
X066502Y032070D02*
X065620Y032070D01*
X065620Y032228D02*
X066502Y032228D01*
X066502Y032387D02*
X065620Y032387D01*
X065620Y032545D02*
X066502Y032545D01*
X066502Y032704D02*
X065620Y032704D01*
X065620Y032862D02*
X066502Y032862D01*
X066502Y033021D02*
X065620Y033021D01*
X065592Y033179D02*
X066502Y033179D01*
X066502Y033338D02*
X065496Y033338D01*
X065338Y033496D02*
X066502Y033496D01*
X066502Y033655D02*
X065179Y033655D01*
X065021Y033813D02*
X066502Y033813D01*
X066502Y033972D02*
X064862Y033972D01*
X064704Y034130D02*
X066502Y034130D01*
X066502Y034289D02*
X064545Y034289D01*
X064387Y034447D02*
X066502Y034447D01*
X066502Y034606D02*
X064228Y034606D01*
X064070Y034764D02*
X066502Y034764D01*
X066502Y034923D02*
X063911Y034923D01*
X063753Y035081D02*
X066502Y035081D01*
X066502Y035240D02*
X063594Y035240D01*
X063436Y035398D02*
X066502Y035398D01*
X066502Y035557D02*
X063277Y035557D01*
X063119Y035715D02*
X066502Y035715D01*
X066502Y035874D02*
X062960Y035874D01*
X062802Y036032D02*
X066502Y036032D01*
X066502Y036191D02*
X062643Y036191D01*
X062485Y036349D02*
X066502Y036349D01*
X066502Y036508D02*
X062326Y036508D01*
X062168Y036666D02*
X066502Y036666D01*
X066502Y036825D02*
X062009Y036825D01*
X061851Y036983D02*
X066502Y036983D01*
X066502Y037142D02*
X061692Y037142D01*
X061534Y037300D02*
X066502Y037300D01*
X066502Y037459D02*
X061375Y037459D01*
X061217Y037617D02*
X066502Y037617D01*
X066502Y037776D02*
X061058Y037776D01*
X060900Y037934D02*
X066502Y037934D01*
X066502Y038093D02*
X060741Y038093D01*
X060583Y038251D02*
X066502Y038251D01*
X066502Y038410D02*
X060424Y038410D01*
X060266Y038568D02*
X066502Y038568D01*
X066502Y038727D02*
X060107Y038727D01*
X059949Y038885D02*
X066502Y038885D01*
X066502Y039044D02*
X059790Y039044D01*
X059632Y039202D02*
X066502Y039202D01*
X066502Y039361D02*
X059473Y039361D01*
X059315Y039519D02*
X066502Y039519D01*
X066502Y039678D02*
X060583Y039678D01*
X060530Y039625D02*
X060905Y040000D01*
X060905Y040245D01*
X060285Y040245D01*
X060285Y039625D01*
X060530Y039625D01*
X060285Y039678D02*
X060245Y039678D01*
X060245Y039836D02*
X060285Y039836D01*
X060285Y039995D02*
X060245Y039995D01*
X060245Y040153D02*
X060285Y040153D01*
X060285Y040312D02*
X060245Y040312D01*
X060245Y040470D02*
X060285Y040470D01*
X060285Y040629D02*
X060245Y040629D01*
X060245Y040787D02*
X060285Y040787D01*
X060285Y040946D02*
X060245Y040946D01*
X060245Y041104D02*
X060285Y041104D01*
X060285Y041263D02*
X064545Y041263D01*
X064545Y041421D02*
X060905Y041421D01*
X060856Y041580D02*
X064586Y041580D01*
X064629Y041738D02*
X060697Y041738D01*
X060539Y041897D02*
X064721Y041897D01*
X064830Y042055D02*
X056779Y042055D01*
X056937Y041897D02*
X058991Y041897D01*
X058833Y041738D02*
X057096Y041738D01*
X057254Y041580D02*
X058674Y041580D01*
X058625Y041421D02*
X057413Y041421D01*
X057571Y041263D02*
X059245Y041263D01*
X059285Y041263D02*
X060245Y041263D01*
X060245Y041421D02*
X060285Y041421D01*
X060285Y041580D02*
X060245Y041580D01*
X060245Y041738D02*
X060285Y041738D01*
X060285Y041897D02*
X060245Y041897D01*
X059991Y041897D02*
X059539Y041897D01*
X059697Y041738D02*
X059833Y041738D01*
X059285Y041738D02*
X059245Y041738D01*
X059245Y041580D02*
X059285Y041580D01*
X059285Y041421D02*
X059245Y041421D01*
X059245Y041104D02*
X059285Y041104D01*
X059285Y040946D02*
X059245Y040946D01*
X059245Y040787D02*
X059285Y040787D01*
X059285Y040629D02*
X059245Y040629D01*
X059245Y040470D02*
X059285Y040470D01*
X059285Y040312D02*
X059245Y040312D01*
X059245Y040153D02*
X059285Y040153D01*
X059285Y039995D02*
X059245Y039995D01*
X059245Y039836D02*
X059285Y039836D01*
X059285Y039678D02*
X059245Y039678D01*
X059583Y039678D02*
X059947Y039678D01*
X059789Y039836D02*
X059741Y039836D01*
X060741Y039836D02*
X066502Y039836D01*
X066502Y039995D02*
X060900Y039995D01*
X060905Y040153D02*
X065251Y040153D01*
X064993Y040312D02*
X060905Y040312D01*
X060905Y040470D02*
X064835Y040470D01*
X064724Y040629D02*
X060807Y040629D01*
X060692Y040787D02*
X064632Y040787D01*
X066279Y040153D02*
X066502Y040153D01*
X066502Y042372D02*
X066288Y042372D01*
X066502Y042531D02*
X004270Y042531D01*
X004270Y042689D02*
X066502Y042689D01*
X066502Y042848D02*
X004270Y042848D01*
X004270Y042372D02*
X004742Y042372D01*
X004488Y042214D02*
X004270Y042214D01*
X004270Y042055D02*
X004330Y042055D01*
X005788Y042372D02*
X065242Y042372D01*
X064988Y042214D02*
X056620Y042214D01*
X057730Y041104D02*
X058625Y041104D01*
X058679Y040946D02*
X057888Y040946D01*
X058047Y040787D02*
X058838Y040787D01*
X058723Y040629D02*
X058205Y040629D01*
X058364Y040470D02*
X058625Y040470D01*
X058625Y040312D02*
X058522Y040312D01*
X059245Y041897D02*
X059285Y041897D01*
X049660Y041410D02*
X049660Y041009D01*
X049540Y040889D01*
X049540Y040391D01*
X049660Y040271D01*
X049660Y039832D01*
X049520Y039774D01*
X049351Y039605D01*
X049260Y039384D01*
X049260Y039146D01*
X049351Y038925D01*
X049511Y038765D01*
X049359Y038612D01*
X048867Y039104D01*
X048720Y039165D01*
X048020Y039165D01*
X048020Y039384D01*
X047929Y039605D01*
X047760Y039774D01*
X047539Y039865D01*
X046741Y039865D01*
X046520Y039774D01*
X046351Y039605D01*
X046260Y039384D01*
X046260Y039165D01*
X046060Y039165D01*
X045913Y039104D01*
X045801Y038992D01*
X044974Y038165D01*
X038520Y038165D01*
X038520Y038384D01*
X038429Y038605D01*
X038269Y038765D01*
X038429Y038925D01*
X038520Y039146D01*
X038520Y039384D01*
X038429Y039605D01*
X038260Y039774D01*
X038120Y039832D01*
X038120Y040271D01*
X038240Y040391D01*
X038240Y040889D01*
X038120Y041009D01*
X038120Y041410D01*
X049660Y041410D01*
X049660Y041263D02*
X038120Y041263D01*
X038120Y041104D02*
X047756Y041104D01*
X047891Y041240D02*
X047540Y040889D01*
X047540Y040640D01*
X048140Y040640D01*
X048740Y040640D01*
X048740Y040889D01*
X048389Y041240D01*
X048140Y041240D01*
X048140Y040640D01*
X048140Y040640D01*
X048140Y040640D01*
X048740Y040640D01*
X048740Y040391D01*
X048389Y040040D01*
X048140Y040040D01*
X048140Y040640D01*
X048140Y040640D01*
X048140Y040640D01*
X048140Y041240D01*
X047891Y041240D01*
X048140Y041104D02*
X048140Y041104D01*
X048140Y040946D02*
X048140Y040946D01*
X048140Y040787D02*
X048140Y040787D01*
X048140Y040640D02*
X047540Y040640D01*
X047540Y040391D01*
X047891Y040040D01*
X048140Y040040D01*
X048140Y040640D01*
X048140Y040629D02*
X048140Y040629D01*
X048140Y040470D02*
X048140Y040470D01*
X048140Y040312D02*
X048140Y040312D01*
X048140Y040153D02*
X048140Y040153D01*
X048502Y040153D02*
X049660Y040153D01*
X049660Y039995D02*
X038120Y039995D01*
X038120Y040153D02*
X047778Y040153D01*
X047620Y040312D02*
X038160Y040312D01*
X038240Y040470D02*
X047540Y040470D01*
X047540Y040629D02*
X038240Y040629D01*
X038240Y040787D02*
X047540Y040787D01*
X047597Y040946D02*
X038183Y040946D01*
X037097Y040946D02*
X036183Y040946D01*
X036240Y040787D02*
X037040Y040787D01*
X037040Y040629D02*
X036240Y040629D01*
X036240Y040470D02*
X037040Y040470D01*
X037120Y040312D02*
X036160Y040312D01*
X038120Y039836D02*
X046671Y039836D01*
X046424Y039678D02*
X038356Y039678D01*
X038464Y039519D02*
X046316Y039519D01*
X046260Y039361D02*
X038520Y039361D01*
X038520Y039202D02*
X046260Y039202D01*
X045853Y039044D02*
X038478Y039044D01*
X038389Y038885D02*
X045694Y038885D01*
X045536Y038727D02*
X038307Y038727D01*
X038444Y038568D02*
X045377Y038568D01*
X045219Y038410D02*
X038510Y038410D01*
X038520Y038251D02*
X045060Y038251D01*
X047609Y039836D02*
X049660Y039836D01*
X049424Y039678D02*
X047856Y039678D01*
X047964Y039519D02*
X049316Y039519D01*
X049260Y039361D02*
X048020Y039361D01*
X048020Y039202D02*
X049260Y039202D01*
X049302Y039044D02*
X048927Y039044D01*
X049086Y038885D02*
X049391Y038885D01*
X049473Y038727D02*
X049244Y038727D01*
X049620Y040312D02*
X048660Y040312D01*
X048740Y040470D02*
X049540Y040470D01*
X049540Y040629D02*
X048740Y040629D01*
X048740Y040787D02*
X049540Y040787D01*
X049597Y040946D02*
X048683Y040946D01*
X048524Y041104D02*
X049660Y041104D01*
X045640Y033765D02*
X046640Y032765D01*
X046140Y032265D02*
X045640Y031765D01*
X036640Y031765D01*
X036140Y032265D01*
X034640Y032265D01*
X034640Y033265D02*
X036140Y033265D01*
X036640Y032765D01*
X036640Y033765D02*
X045640Y033765D01*
X046268Y030365D02*
X046260Y030312D01*
X046260Y030265D01*
X047140Y030265D01*
X048020Y030265D01*
X048020Y030312D01*
X048012Y030365D01*
X048799Y030365D01*
X048599Y030165D01*
X048012Y030165D01*
X048020Y030218D01*
X048020Y030265D01*
X047140Y030265D01*
X047140Y030265D01*
X047140Y030265D01*
X046260Y030265D01*
X046260Y030218D01*
X046268Y030165D01*
X038520Y030165D01*
X038520Y030365D01*
X046268Y030365D01*
X046262Y030326D02*
X038520Y030326D01*
X038520Y030168D02*
X046268Y030168D01*
X048012Y030168D02*
X048602Y030168D01*
X048760Y030326D02*
X048018Y030326D01*
X047540Y028741D02*
X038240Y028741D01*
X038240Y028583D02*
X047540Y028583D01*
X047540Y028424D02*
X038240Y028424D01*
X038120Y028266D02*
X047666Y028266D01*
X048614Y028266D02*
X049666Y028266D01*
X049540Y028424D02*
X048740Y028424D01*
X048740Y028583D02*
X049540Y028583D01*
X049540Y028741D02*
X048740Y028741D01*
X048859Y028107D02*
X049824Y028107D01*
X049560Y027790D02*
X049181Y027790D01*
X049339Y027632D02*
X049378Y027632D01*
X049022Y027949D02*
X050852Y027949D01*
X050820Y028027D02*
X050907Y027817D01*
X051067Y027657D01*
X051277Y027570D01*
X051503Y027570D01*
X051713Y027657D01*
X051796Y027740D01*
X063234Y027740D01*
X063317Y027657D01*
X063527Y027570D01*
X063753Y027570D01*
X063963Y027657D01*
X064123Y027817D01*
X064210Y028027D01*
X064210Y028253D01*
X064123Y028463D01*
X063963Y028623D01*
X063753Y028710D01*
X063527Y028710D01*
X063317Y028623D01*
X063234Y028540D01*
X051796Y028540D01*
X051713Y028623D01*
X051503Y028710D01*
X051277Y028710D01*
X051067Y028623D01*
X050907Y028463D01*
X050820Y028253D01*
X050820Y028027D01*
X050820Y028107D02*
X050456Y028107D01*
X050614Y028266D02*
X050825Y028266D01*
X050891Y028424D02*
X050740Y028424D01*
X050740Y028583D02*
X051026Y028583D01*
X050740Y028741D02*
X064660Y028741D01*
X064660Y028583D02*
X064004Y028583D01*
X064139Y028424D02*
X064660Y028424D01*
X064660Y028266D02*
X064205Y028266D01*
X064210Y028107D02*
X064660Y028107D01*
X064660Y027949D02*
X064178Y027949D01*
X064096Y027790D02*
X064660Y027790D01*
X064660Y027632D02*
X063902Y027632D01*
X063378Y027632D02*
X051652Y027632D01*
X051128Y027632D02*
X050902Y027632D01*
X050934Y027790D02*
X050720Y027790D01*
X050983Y027473D02*
X064660Y027473D01*
X064660Y027315D02*
X051020Y027315D01*
X049640Y026765D02*
X048640Y027765D01*
X046640Y027765D01*
X045140Y026265D01*
X037640Y026265D01*
X038353Y026681D02*
X044990Y026681D01*
X045148Y026839D02*
X038343Y026839D01*
X038459Y026998D02*
X045307Y026998D01*
X045465Y027156D02*
X038520Y027156D01*
X038520Y027315D02*
X045624Y027315D01*
X045782Y027473D02*
X038483Y027473D01*
X038402Y027632D02*
X045941Y027632D01*
X046099Y027790D02*
X038220Y027790D01*
X038120Y027949D02*
X046258Y027949D01*
X046421Y028107D02*
X038120Y028107D01*
X036817Y026522D02*
X036449Y026522D01*
X036607Y026364D02*
X036760Y026364D01*
X036140Y025265D02*
X036640Y024765D01*
X045140Y024765D01*
X045640Y025265D01*
X047140Y025265D01*
X047140Y024265D02*
X045640Y024265D01*
X045140Y023765D01*
X036640Y023765D01*
X036140Y024265D01*
X034640Y024265D01*
X034140Y024265D01*
X033640Y024765D01*
X031640Y024765D01*
X031140Y024265D01*
X029640Y024265D01*
X029140Y024265D01*
X028640Y024765D01*
X026640Y024765D01*
X026140Y024265D01*
X024640Y024265D01*
X024140Y024265D01*
X023640Y024765D01*
X021640Y024765D01*
X021140Y024265D01*
X019640Y024265D01*
X019140Y024265D01*
X018640Y024765D01*
X016640Y024765D01*
X016140Y024265D01*
X014640Y024265D01*
X014640Y023265D02*
X010765Y023265D01*
X009765Y024265D01*
X008765Y023765D02*
X010265Y022265D01*
X014640Y022265D01*
X016140Y022265D01*
X016640Y022765D01*
X018640Y022765D01*
X019140Y022265D01*
X019640Y022265D01*
X021140Y022265D01*
X021640Y022765D01*
X023640Y022765D01*
X024140Y022265D01*
X024640Y022265D01*
X026140Y022265D01*
X026640Y022765D01*
X028640Y022765D01*
X029140Y022265D01*
X029640Y022265D01*
X029140Y021765D02*
X031140Y021765D01*
X031640Y022265D01*
X032640Y022265D01*
X033640Y021765D02*
X034140Y021265D01*
X034640Y021265D01*
X036140Y021265D01*
X036640Y020765D01*
X045890Y020765D01*
X046140Y019765D02*
X045640Y019265D01*
X037640Y019265D01*
X037640Y020265D02*
X044640Y020265D01*
X044640Y021265D02*
X037640Y021265D01*
X038520Y018365D02*
X046268Y018365D01*
X046260Y018312D01*
X046260Y018265D01*
X047140Y018265D01*
X048020Y018265D01*
X048020Y018312D01*
X048012Y018365D01*
X048799Y018365D01*
X048599Y018165D01*
X048012Y018165D01*
X048020Y018218D01*
X048020Y018265D01*
X047140Y018265D01*
X047140Y018265D01*
X047140Y018265D01*
X046260Y018265D01*
X046260Y018218D01*
X046268Y018165D01*
X038520Y018165D01*
X038520Y018365D01*
X038520Y018280D02*
X046260Y018280D01*
X048020Y018280D02*
X048714Y018280D01*
X047943Y012891D02*
X047087Y012891D01*
X047015Y012891D02*
X047015Y012891D01*
X046943Y012891D02*
X046144Y012891D01*
X045886Y012891D02*
X045830Y012891D01*
X046426Y012733D02*
X046604Y012733D01*
X047015Y012733D02*
X047015Y012733D01*
X047015Y012574D02*
X047015Y012574D01*
X047015Y012416D02*
X047015Y012416D01*
X047015Y012257D02*
X047015Y012257D01*
X047015Y012099D02*
X047015Y012099D01*
X047015Y012015D02*
X047015Y012015D01*
X047015Y011940D02*
X047015Y011940D01*
X047015Y011782D02*
X047015Y011782D01*
X047015Y011623D02*
X047015Y011623D01*
X047015Y011465D02*
X047015Y011465D01*
X047015Y011306D02*
X047015Y011306D01*
X047435Y011306D02*
X047595Y011306D01*
X046595Y011306D02*
X046435Y011306D01*
X047426Y012733D02*
X047604Y012733D01*
X049438Y009721D02*
X058904Y009721D01*
X058765Y010765D02*
X060765Y010765D01*
X061015Y011015D01*
X061015Y012015D01*
X060765Y012265D01*
X060265Y012265D01*
X059765Y012515D02*
X059515Y012765D01*
X059765Y012515D02*
X059765Y011765D01*
X060265Y011265D01*
X061262Y010197D02*
X062518Y010197D01*
X062676Y010355D02*
X061421Y010355D01*
X061579Y010514D02*
X062835Y010514D01*
X062993Y010672D02*
X061733Y010672D01*
X061790Y010831D02*
X063152Y010831D01*
X063310Y010989D02*
X061790Y010989D01*
X061790Y011148D02*
X063469Y011148D01*
X063627Y011306D02*
X061790Y011306D01*
X061790Y011465D02*
X063786Y011465D01*
X063944Y011623D02*
X061790Y011623D01*
X061790Y011782D02*
X064103Y011782D01*
X064261Y011940D02*
X061790Y011940D01*
X061790Y012099D02*
X064420Y012099D01*
X064578Y012257D02*
X061790Y012257D01*
X061790Y012416D02*
X064660Y012416D01*
X064660Y012574D02*
X061790Y012574D01*
X061790Y012733D02*
X064660Y012733D01*
X064660Y012891D02*
X061790Y012891D01*
X061790Y013050D02*
X064660Y013050D01*
X064660Y013208D02*
X061790Y013208D01*
X061790Y013367D02*
X064660Y013367D01*
X064660Y013525D02*
X061790Y013525D01*
X061790Y013684D02*
X064660Y013684D01*
X064660Y013842D02*
X061790Y013842D01*
X061790Y014001D02*
X064660Y014001D01*
X064660Y014159D02*
X061790Y014159D01*
X061790Y014318D02*
X064660Y014318D01*
X064660Y014476D02*
X061790Y014476D01*
X061790Y014635D02*
X064660Y014635D01*
X064660Y014793D02*
X061790Y014793D01*
X061790Y014952D02*
X064660Y014952D01*
X064660Y015110D02*
X061790Y015110D01*
X061790Y015269D02*
X064660Y015269D01*
X064660Y015427D02*
X061790Y015427D01*
X061790Y015586D02*
X064660Y015586D01*
X064660Y015744D02*
X061790Y015744D01*
X061790Y015903D02*
X064660Y015903D01*
X064660Y016061D02*
X061790Y016061D01*
X061790Y016220D02*
X064660Y016220D01*
X064660Y016378D02*
X061790Y016378D01*
X061790Y016537D02*
X064660Y016537D01*
X064660Y016695D02*
X061790Y016695D01*
X061790Y016854D02*
X064660Y016854D01*
X064660Y017012D02*
X061790Y017012D01*
X061790Y017171D02*
X064660Y017171D01*
X064660Y017329D02*
X061790Y017329D01*
X061790Y017488D02*
X064660Y017488D01*
X064660Y017646D02*
X061790Y017646D01*
X061790Y017805D02*
X064660Y017805D01*
X064660Y017963D02*
X061741Y017963D01*
X061599Y018122D02*
X064660Y018122D01*
X064660Y018280D02*
X061441Y018280D01*
X061282Y018439D02*
X064660Y018439D01*
X064660Y018597D02*
X061124Y018597D01*
X060965Y018756D02*
X064660Y018756D01*
X064660Y018914D02*
X060807Y018914D01*
X060648Y019073D02*
X064660Y019073D01*
X064660Y019231D02*
X060490Y019231D01*
X060331Y019390D02*
X064660Y019390D01*
X064660Y019548D02*
X060173Y019548D01*
X060014Y019707D02*
X064660Y019707D01*
X064660Y019865D02*
X059856Y019865D01*
X059697Y020024D02*
X064660Y020024D01*
X064660Y020182D02*
X059539Y020182D01*
X059380Y020341D02*
X064660Y020341D01*
X064660Y020499D02*
X059222Y020499D01*
X059063Y020658D02*
X064660Y020658D01*
X064660Y020816D02*
X058905Y020816D01*
X058746Y020975D02*
X064660Y020975D01*
X064660Y021133D02*
X058588Y021133D01*
X058429Y021292D02*
X064660Y021292D01*
X064660Y021450D02*
X058271Y021450D01*
X058112Y021609D02*
X064660Y021609D01*
X064660Y021767D02*
X057954Y021767D01*
X057795Y021926D02*
X064660Y021926D01*
X064660Y022084D02*
X057637Y022084D01*
X057478Y022243D02*
X064660Y022243D01*
X064660Y022401D02*
X057320Y022401D01*
X057161Y022560D02*
X064660Y022560D01*
X064660Y022718D02*
X057003Y022718D01*
X056844Y022877D02*
X064660Y022877D01*
X064660Y023035D02*
X056686Y023035D01*
X056527Y023194D02*
X064660Y023194D01*
X064660Y023352D02*
X056369Y023352D01*
X056210Y023511D02*
X064660Y023511D01*
X064660Y023669D02*
X056052Y023669D01*
X055893Y023828D02*
X064660Y023828D01*
X064660Y023986D02*
X055735Y023986D01*
X055576Y024145D02*
X064660Y024145D01*
X064660Y024303D02*
X055418Y024303D01*
X055259Y024462D02*
X064660Y024462D01*
X064660Y024620D02*
X055101Y024620D01*
X054942Y024779D02*
X064660Y024779D01*
X064660Y024937D02*
X054784Y024937D01*
X054625Y025096D02*
X064660Y025096D01*
X064660Y025254D02*
X054467Y025254D01*
X054308Y025413D02*
X064660Y025413D01*
X064660Y025571D02*
X054150Y025571D01*
X053991Y025730D02*
X064660Y025730D01*
X064660Y025888D02*
X053833Y025888D01*
X053674Y026047D02*
X064660Y026047D01*
X064660Y026205D02*
X053516Y026205D01*
X053357Y026364D02*
X064660Y026364D01*
X064660Y026522D02*
X053199Y026522D01*
X053040Y026681D02*
X064660Y026681D01*
X064660Y026839D02*
X052882Y026839D01*
X052723Y026998D02*
X064660Y026998D01*
X064660Y027156D02*
X052491Y027156D01*
X051390Y028140D02*
X063640Y028140D01*
X063276Y028583D02*
X051754Y028583D01*
X036640Y033765D02*
X036140Y034265D01*
X034640Y034265D01*
X032640Y034265D02*
X031640Y034265D01*
X031140Y033765D01*
X029140Y033765D01*
X028640Y034265D01*
X027640Y034265D01*
X026640Y034265D01*
X026140Y033765D01*
X024140Y033765D01*
X023640Y034265D01*
X022640Y034265D01*
X021640Y034265D01*
X021140Y033765D01*
X019140Y033765D01*
X018640Y034265D01*
X017640Y034265D01*
X016640Y033765D02*
X018640Y033765D01*
X019140Y033265D01*
X019640Y033265D01*
X021140Y033265D01*
X021640Y033765D01*
X023640Y033765D01*
X024140Y033265D01*
X024640Y033265D01*
X026140Y033265D01*
X026640Y033765D01*
X028640Y033765D01*
X029140Y033265D01*
X029640Y033265D01*
X029640Y034265D02*
X029140Y034265D01*
X028640Y034765D01*
X026640Y034765D01*
X026140Y034265D01*
X024640Y034265D01*
X024140Y034265D01*
X023640Y034765D01*
X021640Y034765D01*
X021140Y034265D01*
X019640Y034265D01*
X019140Y034265D01*
X018640Y034765D01*
X016640Y034765D01*
X016140Y034265D01*
X014640Y034265D01*
X014640Y033265D02*
X013265Y033265D01*
X009765Y036765D01*
X006265Y036765D01*
X005765Y036265D01*
X006265Y035765D02*
X005765Y035265D01*
X006265Y035765D02*
X009765Y035765D01*
X013765Y031765D01*
X016140Y031765D01*
X016640Y032265D01*
X017640Y032265D01*
X018640Y032265D01*
X019140Y031765D01*
X021140Y031765D01*
X021640Y032265D01*
X022640Y032265D01*
X023640Y032265D01*
X024140Y031765D01*
X026140Y031765D01*
X026640Y032265D01*
X027640Y032265D01*
X028640Y032265D01*
X029140Y031765D01*
X029140Y031265D02*
X029640Y031265D01*
X029140Y031265D02*
X028640Y031765D01*
X026640Y031765D01*
X026140Y031265D01*
X024640Y031265D01*
X024140Y031265D01*
X023640Y031765D01*
X021640Y031765D01*
X021140Y031265D01*
X019640Y031265D01*
X019140Y031265D01*
X018640Y031765D01*
X016640Y031765D01*
X016140Y031265D01*
X014640Y031265D01*
X015262Y030758D02*
X015369Y030865D01*
X016220Y030865D01*
X016367Y030926D01*
X016760Y031319D01*
X016760Y031146D01*
X016851Y030925D01*
X017011Y030765D01*
X016851Y030605D01*
X016760Y030384D01*
X016760Y030146D01*
X016851Y029925D01*
X017020Y029756D01*
X017241Y029665D01*
X018039Y029665D01*
X018260Y029756D01*
X018429Y029925D01*
X018520Y030146D01*
X018520Y030384D01*
X018429Y030605D01*
X018269Y030765D01*
X018369Y030865D01*
X018474Y030865D01*
X018801Y030538D01*
X018817Y030522D01*
X018804Y030495D01*
X018775Y030405D01*
X018760Y030312D01*
X018760Y030265D01*
X019640Y030265D01*
X020520Y030265D01*
X020520Y030312D01*
X020512Y030365D01*
X021220Y030365D01*
X021367Y030426D01*
X021806Y030865D01*
X021911Y030865D01*
X022011Y030765D01*
X021851Y030605D01*
X021760Y030384D01*
X021760Y030146D01*
X021851Y029925D01*
X022020Y029756D01*
X022048Y029745D01*
X020221Y029745D01*
X020234Y029752D01*
X020311Y029807D01*
X020378Y029874D01*
X020433Y029951D01*
X020476Y030035D01*
X020505Y030124D01*
X020520Y030218D01*
X020520Y030265D01*
X019640Y030265D01*
X019640Y030265D01*
X019640Y030265D01*
X018760Y030265D01*
X018760Y030218D01*
X018775Y030124D01*
X018804Y030035D01*
X018847Y029951D01*
X018902Y029874D01*
X018969Y029807D01*
X019046Y029752D01*
X019059Y029745D01*
X018795Y029745D01*
X018618Y029672D01*
X018066Y029120D01*
X018009Y029120D01*
X017889Y029240D01*
X017391Y029240D01*
X017244Y029092D01*
X017213Y029123D01*
X017003Y029210D01*
X016777Y029210D01*
X016567Y029123D01*
X016484Y029040D01*
X016335Y029040D01*
X016335Y029253D01*
X016248Y029463D01*
X016088Y029623D01*
X015878Y029710D01*
X015652Y029710D01*
X015442Y029623D01*
X015359Y029540D01*
X014931Y029540D01*
X014806Y029665D01*
X014967Y029665D01*
X015060Y029680D01*
X015150Y029709D01*
X015234Y029752D01*
X015311Y029807D01*
X015378Y029874D01*
X015433Y029951D01*
X015476Y030035D01*
X015505Y030124D01*
X015520Y030218D01*
X015520Y030265D01*
X015520Y030312D01*
X015505Y030405D01*
X015476Y030495D01*
X015433Y030579D01*
X015378Y030656D01*
X015311Y030723D01*
X015262Y030758D01*
X015305Y030802D02*
X016975Y030802D01*
X016890Y030643D02*
X015387Y030643D01*
X015480Y030485D02*
X016802Y030485D01*
X016760Y030326D02*
X015518Y030326D01*
X015520Y030265D02*
X014640Y030265D01*
X014640Y030265D01*
X015520Y030265D01*
X015512Y030168D02*
X016760Y030168D01*
X016817Y030009D02*
X015463Y030009D01*
X015354Y029851D02*
X016926Y029851D01*
X017175Y029692D02*
X015922Y029692D01*
X016178Y029534D02*
X018480Y029534D01*
X018321Y029375D02*
X016285Y029375D01*
X016335Y029217D02*
X017368Y029217D01*
X017912Y029217D02*
X018163Y029217D01*
X018105Y029692D02*
X018667Y029692D01*
X018926Y029851D02*
X018354Y029851D01*
X018463Y030009D02*
X018817Y030009D01*
X018768Y030168D02*
X018520Y030168D01*
X018520Y030326D02*
X018762Y030326D01*
X018800Y030485D02*
X018478Y030485D01*
X018390Y030643D02*
X018696Y030643D01*
X018538Y030802D02*
X018305Y030802D01*
X018640Y031265D02*
X017640Y031265D01*
X016837Y030960D02*
X016401Y030960D01*
X016559Y031119D02*
X016771Y031119D01*
X016760Y031277D02*
X016718Y031277D01*
X016140Y032265D02*
X016640Y032765D01*
X016140Y032265D02*
X014640Y032265D01*
X013765Y032265D01*
X009765Y036265D01*
X006765Y036265D01*
X006765Y037265D02*
X009765Y037265D01*
X010765Y036265D01*
X014640Y036265D01*
X016140Y036265D01*
X016640Y036765D01*
X018640Y036765D01*
X019140Y036265D01*
X019640Y036265D01*
X021140Y036265D01*
X021640Y036765D01*
X023640Y036765D01*
X024140Y036265D01*
X024640Y036265D01*
X026140Y036265D01*
X026640Y036765D01*
X028640Y036765D01*
X029140Y036265D01*
X029640Y036265D01*
X028640Y035765D02*
X029140Y035265D01*
X029640Y035265D01*
X029140Y034765D02*
X031140Y034765D01*
X031640Y035265D01*
X032640Y035265D01*
X034640Y037265D02*
X036140Y037265D01*
X036640Y036765D01*
X036720Y038251D02*
X036760Y038251D01*
X036770Y038410D02*
X036561Y038410D01*
X036403Y038568D02*
X036836Y038568D01*
X033836Y038568D02*
X033444Y038568D01*
X033510Y038410D02*
X033770Y038410D01*
X033760Y038251D02*
X033520Y038251D01*
X033498Y038093D02*
X033782Y038093D01*
X033743Y037934D02*
X033432Y037934D01*
X033279Y037776D02*
X033585Y037776D01*
X032011Y038765D02*
X031911Y038665D01*
X031560Y038665D01*
X031413Y038604D01*
X031301Y038492D01*
X030974Y038165D01*
X030520Y038165D01*
X030520Y038384D01*
X030429Y038605D01*
X030269Y038765D01*
X030429Y038925D01*
X030520Y039146D01*
X030520Y039384D01*
X030429Y039605D01*
X030260Y039774D01*
X030039Y039865D01*
X029241Y039865D01*
X029020Y039774D01*
X028851Y039605D01*
X028760Y039384D01*
X028760Y039148D01*
X028720Y039165D01*
X028520Y039165D01*
X028520Y039384D01*
X028429Y039605D01*
X028260Y039774D01*
X028120Y039832D01*
X028120Y040271D01*
X028240Y040391D01*
X028240Y040889D01*
X028120Y041009D01*
X028120Y041410D01*
X032160Y041410D01*
X032160Y041009D01*
X032040Y040889D01*
X032040Y040391D01*
X032160Y040271D01*
X032160Y039832D01*
X032020Y039774D01*
X031851Y039605D01*
X031760Y039384D01*
X031760Y039146D01*
X031851Y038925D01*
X032011Y038765D01*
X031973Y038727D02*
X030307Y038727D01*
X030389Y038885D02*
X031891Y038885D01*
X031802Y039044D02*
X030478Y039044D01*
X030520Y039202D02*
X031760Y039202D01*
X031760Y039361D02*
X030520Y039361D01*
X030464Y039519D02*
X031816Y039519D01*
X031924Y039678D02*
X030356Y039678D01*
X030109Y039836D02*
X032160Y039836D01*
X032160Y039995D02*
X028120Y039995D01*
X028120Y040153D02*
X030278Y040153D01*
X030391Y040040D02*
X030640Y040040D01*
X030889Y040040D01*
X031240Y040391D01*
X031240Y040640D01*
X031240Y040889D01*
X030889Y041240D01*
X030640Y041240D01*
X030640Y040640D01*
X031240Y040640D01*
X030640Y040640D01*
X030640Y040640D01*
X030640Y040640D01*
X030640Y040040D01*
X030640Y040640D01*
X030640Y040640D01*
X030640Y040640D01*
X030040Y040640D01*
X030040Y040889D01*
X030391Y041240D01*
X030640Y041240D01*
X030640Y040640D01*
X030040Y040640D01*
X030040Y040391D01*
X030391Y040040D01*
X030640Y040153D02*
X030640Y040153D01*
X030640Y040312D02*
X030640Y040312D01*
X030640Y040470D02*
X030640Y040470D01*
X030640Y040629D02*
X030640Y040629D01*
X030640Y040787D02*
X030640Y040787D01*
X030640Y040946D02*
X030640Y040946D01*
X030640Y041104D02*
X030640Y041104D01*
X031024Y041104D02*
X032160Y041104D01*
X032160Y041263D02*
X028120Y041263D01*
X028120Y041104D02*
X030256Y041104D01*
X030097Y040946D02*
X028183Y040946D01*
X028240Y040787D02*
X030040Y040787D01*
X030040Y040629D02*
X028240Y040629D01*
X028240Y040470D02*
X030040Y040470D01*
X030120Y040312D02*
X028160Y040312D01*
X028120Y039836D02*
X029171Y039836D01*
X028924Y039678D02*
X028356Y039678D01*
X028464Y039519D02*
X028816Y039519D01*
X028760Y039361D02*
X028520Y039361D01*
X028520Y039202D02*
X028760Y039202D01*
X028640Y038265D02*
X027640Y038265D01*
X026640Y038265D01*
X026140Y037765D01*
X024140Y037765D01*
X023640Y038265D01*
X022640Y038265D01*
X021640Y038265D01*
X021140Y037765D01*
X019140Y037765D01*
X018640Y038265D01*
X017640Y038265D01*
X016640Y038265D01*
X016140Y037765D01*
X013515Y037765D01*
X012765Y038515D01*
X005390Y038515D01*
X004890Y038015D01*
X004890Y023265D01*
X005390Y022765D01*
X006265Y022765D01*
X006765Y023265D01*
X006515Y023765D02*
X006265Y024015D01*
X006265Y025765D01*
X005765Y026265D01*
X006265Y026765D02*
X007015Y026765D01*
X008015Y025765D01*
X008015Y025265D01*
X010515Y022765D01*
X016140Y022765D01*
X016640Y023265D01*
X017640Y023265D01*
X018640Y023265D01*
X019140Y022765D01*
X021140Y022765D01*
X021640Y023265D01*
X022640Y023265D01*
X023640Y023265D01*
X024140Y022765D01*
X026140Y022765D01*
X026640Y023265D01*
X027640Y023265D01*
X028640Y023265D01*
X029140Y022765D01*
X031140Y022765D01*
X031640Y023265D01*
X032640Y023265D01*
X032640Y024265D02*
X031640Y024265D01*
X031140Y023765D01*
X029140Y023765D01*
X028640Y024265D01*
X027640Y024265D01*
X026640Y024265D01*
X026140Y023765D01*
X024140Y023765D01*
X023640Y024265D01*
X022640Y024265D01*
X021640Y024265D01*
X021140Y023765D01*
X019140Y023765D01*
X018640Y024265D01*
X017640Y024265D01*
X016640Y023765D02*
X018640Y023765D01*
X019140Y023265D01*
X019640Y023265D01*
X021140Y023265D01*
X021640Y023765D01*
X023640Y023765D01*
X024140Y023265D01*
X024640Y023265D01*
X026140Y023265D01*
X026640Y023765D01*
X028640Y023765D01*
X029140Y023265D01*
X029640Y023265D01*
X028640Y022265D02*
X029140Y021765D01*
X028640Y021765D02*
X029140Y021265D01*
X029640Y021265D01*
X031140Y021265D01*
X031640Y021765D01*
X033640Y021765D01*
X032640Y021265D02*
X031640Y021265D01*
X031140Y020765D01*
X029140Y020765D01*
X028640Y021265D01*
X027640Y021265D01*
X026640Y021265D01*
X026140Y020765D01*
X024140Y020765D01*
X023640Y021265D01*
X022640Y021265D01*
X021640Y021265D01*
X021140Y020765D01*
X019140Y020765D01*
X018640Y021265D01*
X017640Y021265D01*
X016640Y020765D02*
X018640Y020765D01*
X019140Y020265D01*
X019640Y020265D01*
X021140Y020265D01*
X021640Y020765D01*
X023640Y020765D01*
X024140Y020265D01*
X024640Y020265D01*
X026140Y020265D01*
X026640Y020765D01*
X028640Y020765D01*
X029140Y020265D01*
X029640Y020265D01*
X031140Y020265D01*
X029140Y018765D02*
X028640Y019265D01*
X027640Y019265D01*
X026640Y019265D01*
X026140Y018765D01*
X024140Y018765D01*
X023640Y019265D01*
X022640Y019265D01*
X021640Y019265D01*
X021140Y018765D01*
X019140Y018765D01*
X018640Y019265D01*
X017640Y019265D01*
X016640Y019265D01*
X016140Y018765D01*
X013390Y018765D01*
X013015Y018765D01*
X012015Y018765D01*
X007015Y023765D01*
X006515Y023765D01*
X007265Y024015D02*
X012015Y019265D01*
X013015Y019265D01*
X013515Y019265D01*
X014640Y019265D01*
X016140Y019265D01*
X016640Y019765D01*
X016140Y020265D02*
X016640Y020765D01*
X016140Y020265D02*
X014640Y020265D01*
X014640Y021265D02*
X016140Y021265D01*
X016640Y021765D01*
X018640Y021765D01*
X019140Y021265D01*
X019640Y021265D01*
X021140Y021265D01*
X021640Y021765D01*
X023640Y021765D01*
X024140Y021265D01*
X024640Y021265D01*
X026140Y021265D01*
X026640Y021765D01*
X028640Y021765D01*
X028640Y022265D02*
X027640Y022265D01*
X026640Y022265D01*
X026140Y021765D01*
X024140Y021765D01*
X023640Y022265D01*
X022640Y022265D01*
X021640Y022265D01*
X021140Y021765D01*
X019140Y021765D01*
X018640Y022265D01*
X017640Y022265D01*
X016640Y022265D01*
X016140Y021765D01*
X010015Y021765D01*
X007640Y024140D01*
X007640Y025640D01*
X007015Y026265D01*
X006765Y026265D01*
X006265Y026765D02*
X005765Y027265D01*
X005265Y027515D02*
X005640Y027890D01*
X006890Y027890D01*
X008515Y026265D01*
X014640Y026265D01*
X016140Y026265D01*
X016640Y026765D01*
X018640Y026765D01*
X019140Y026265D01*
X019640Y026265D01*
X021140Y026265D01*
X021640Y026765D01*
X023640Y026765D01*
X024140Y026265D01*
X024640Y026265D01*
X026140Y026265D01*
X026640Y026765D01*
X028640Y026765D01*
X029140Y026265D01*
X029640Y026265D01*
X029140Y025765D02*
X031140Y025765D01*
X031640Y026265D01*
X032640Y026265D01*
X032011Y026765D02*
X031911Y026665D01*
X031560Y026665D01*
X031413Y026604D01*
X031301Y026492D01*
X030974Y026165D01*
X030520Y026165D01*
X030520Y026384D01*
X030429Y026605D01*
X030269Y026765D01*
X030429Y026925D01*
X030520Y027146D01*
X030520Y027384D01*
X030429Y027605D01*
X030260Y027774D01*
X030039Y027865D01*
X029241Y027865D01*
X029020Y027774D01*
X028851Y027605D01*
X028760Y027384D01*
X028760Y027148D01*
X028720Y027165D01*
X028520Y027165D01*
X028520Y027384D01*
X028429Y027605D01*
X028260Y027774D01*
X028039Y027865D01*
X027241Y027865D01*
X027020Y027774D01*
X026851Y027605D01*
X026760Y027384D01*
X026760Y027165D01*
X026560Y027165D01*
X026413Y027104D01*
X026301Y026992D01*
X025974Y026665D01*
X025369Y026665D01*
X025269Y026765D01*
X025429Y026925D01*
X025520Y027146D01*
X025520Y027384D01*
X025429Y027605D01*
X025260Y027774D01*
X025039Y027865D01*
X024241Y027865D01*
X024020Y027774D01*
X023851Y027605D01*
X023760Y027384D01*
X023760Y027148D01*
X023720Y027165D01*
X023520Y027165D01*
X023520Y027384D01*
X023429Y027605D01*
X023260Y027774D01*
X023039Y027865D01*
X022241Y027865D01*
X022020Y027774D01*
X021851Y027605D01*
X021760Y027384D01*
X021760Y027165D01*
X021560Y027165D01*
X021413Y027104D01*
X021301Y026992D01*
X020974Y026665D01*
X020369Y026665D01*
X020269Y026765D01*
X020429Y026925D01*
X020520Y027146D01*
X020520Y027384D01*
X020429Y027605D01*
X020260Y027774D01*
X020039Y027865D01*
X019241Y027865D01*
X019020Y027774D01*
X018851Y027605D01*
X018760Y027384D01*
X018760Y027148D01*
X018720Y027165D01*
X018520Y027165D01*
X018520Y027384D01*
X018429Y027605D01*
X018260Y027774D01*
X018120Y027832D01*
X018120Y028160D01*
X018360Y028160D01*
X018537Y028233D01*
X019040Y028736D01*
X019040Y028640D01*
X019640Y028640D01*
X020240Y028640D01*
X020240Y028785D01*
X020290Y028785D01*
X020290Y028640D01*
X020890Y028640D01*
X021490Y028640D01*
X021490Y028785D01*
X022290Y028785D01*
X022290Y028391D01*
X022641Y028040D01*
X023139Y028040D01*
X023490Y028391D01*
X023490Y028785D01*
X025040Y028785D01*
X025040Y028640D01*
X025640Y028640D01*
X026240Y028640D01*
X026240Y028785D01*
X027040Y028785D01*
X027040Y028391D01*
X027391Y028040D01*
X027889Y028040D01*
X028240Y028391D01*
X028240Y028785D01*
X030040Y028785D01*
X030040Y028640D01*
X030640Y028640D01*
X031240Y028640D01*
X031240Y028785D01*
X032040Y028785D01*
X032040Y028391D01*
X032160Y028271D01*
X032160Y027832D01*
X032020Y027774D01*
X031851Y027605D01*
X031760Y027384D01*
X031760Y027146D01*
X031851Y026925D01*
X032011Y026765D01*
X031937Y026839D02*
X030343Y026839D01*
X030353Y026681D02*
X031927Y026681D01*
X031821Y026998D02*
X030459Y026998D01*
X030520Y027156D02*
X031760Y027156D01*
X031760Y027315D02*
X030520Y027315D01*
X030483Y027473D02*
X031797Y027473D01*
X031878Y027632D02*
X030402Y027632D01*
X030220Y027790D02*
X032060Y027790D01*
X032160Y027949D02*
X018120Y027949D01*
X018120Y028107D02*
X019324Y028107D01*
X019391Y028040D02*
X019640Y028040D01*
X019889Y028040D01*
X020240Y028391D01*
X020240Y028640D01*
X019640Y028640D01*
X019640Y028640D01*
X019640Y028040D01*
X019640Y028640D01*
X019640Y028640D01*
X019640Y028640D01*
X019040Y028640D01*
X019040Y028391D01*
X019391Y028040D01*
X019640Y028107D02*
X019640Y028107D01*
X019640Y028266D02*
X019640Y028266D01*
X019640Y028424D02*
X019640Y028424D01*
X019640Y028583D02*
X019640Y028583D01*
X020114Y028266D02*
X020416Y028266D01*
X020290Y028391D02*
X020641Y028040D01*
X020890Y028040D01*
X021139Y028040D01*
X021490Y028391D01*
X021490Y028640D01*
X020890Y028640D01*
X020890Y028640D01*
X020890Y028040D01*
X020890Y028640D01*
X020890Y028640D01*
X020890Y028640D01*
X020290Y028640D01*
X020290Y028391D01*
X020290Y028424D02*
X020240Y028424D01*
X020240Y028583D02*
X020290Y028583D01*
X020290Y028741D02*
X020240Y028741D01*
X020890Y028583D02*
X020890Y028583D01*
X020890Y028424D02*
X020890Y028424D01*
X020890Y028266D02*
X020890Y028266D01*
X020890Y028107D02*
X020890Y028107D01*
X021206Y028107D02*
X022574Y028107D01*
X022416Y028266D02*
X021364Y028266D01*
X021490Y028424D02*
X022290Y028424D01*
X022290Y028583D02*
X021490Y028583D01*
X021490Y028741D02*
X022290Y028741D01*
X023206Y028107D02*
X025324Y028107D01*
X025391Y028040D02*
X025640Y028040D01*
X025889Y028040D01*
X026240Y028391D01*
X026240Y028640D01*
X025640Y028640D01*
X025640Y028640D01*
X025640Y028040D01*
X025640Y028640D01*
X025640Y028640D01*
X025640Y028640D01*
X025040Y028640D01*
X025040Y028391D01*
X025391Y028040D01*
X025640Y028107D02*
X025640Y028107D01*
X025640Y028266D02*
X025640Y028266D01*
X025640Y028424D02*
X025640Y028424D01*
X025640Y028583D02*
X025640Y028583D01*
X026114Y028266D02*
X027166Y028266D01*
X027040Y028424D02*
X026240Y028424D01*
X026240Y028583D02*
X027040Y028583D01*
X027040Y028741D02*
X026240Y028741D01*
X025956Y028107D02*
X027324Y028107D01*
X027060Y027790D02*
X025220Y027790D01*
X025402Y027632D02*
X026878Y027632D01*
X026797Y027473D02*
X025483Y027473D01*
X025520Y027315D02*
X026760Y027315D01*
X026539Y027156D02*
X025520Y027156D01*
X025459Y026998D02*
X026307Y026998D01*
X026148Y026839D02*
X025343Y026839D01*
X025353Y026681D02*
X025990Y026681D01*
X026640Y026265D02*
X027640Y026265D01*
X028640Y026265D01*
X029140Y025765D01*
X029140Y025265D02*
X029640Y025265D01*
X031140Y025265D01*
X031640Y025765D01*
X033640Y025765D01*
X034140Y025265D01*
X034640Y025265D01*
X036140Y025265D01*
X033760Y026205D02*
X033520Y026205D01*
X033520Y026364D02*
X033760Y026364D01*
X033817Y026522D02*
X033463Y026522D01*
X033353Y026681D02*
X033927Y026681D01*
X033937Y026839D02*
X033343Y026839D01*
X033459Y026998D02*
X033821Y026998D01*
X033760Y027156D02*
X033520Y027156D01*
X033520Y027315D02*
X033760Y027315D01*
X033797Y027473D02*
X033483Y027473D01*
X033402Y027632D02*
X033878Y027632D01*
X034060Y027790D02*
X033220Y027790D01*
X032160Y028107D02*
X030956Y028107D01*
X030889Y028040D02*
X031240Y028391D01*
X031240Y028640D01*
X030640Y028640D01*
X030640Y028640D01*
X030640Y028040D01*
X030889Y028040D01*
X030640Y028040D02*
X030640Y028640D01*
X030640Y028640D01*
X030640Y028640D01*
X030040Y028640D01*
X030040Y028391D01*
X030391Y028040D01*
X030640Y028040D01*
X030640Y028107D02*
X030640Y028107D01*
X030640Y028266D02*
X030640Y028266D01*
X030640Y028424D02*
X030640Y028424D01*
X030640Y028583D02*
X030640Y028583D01*
X031114Y028266D02*
X032160Y028266D01*
X032040Y028424D02*
X031240Y028424D01*
X031240Y028583D02*
X032040Y028583D01*
X032040Y028741D02*
X031240Y028741D01*
X030324Y028107D02*
X027956Y028107D01*
X028114Y028266D02*
X030166Y028266D01*
X030040Y028424D02*
X028240Y028424D01*
X028240Y028583D02*
X030040Y028583D01*
X030040Y028741D02*
X028240Y028741D01*
X028220Y027790D02*
X029060Y027790D01*
X028878Y027632D02*
X028402Y027632D01*
X028483Y027473D02*
X028797Y027473D01*
X028760Y027315D02*
X028520Y027315D01*
X028741Y027156D02*
X028760Y027156D01*
X030463Y026522D02*
X031331Y026522D01*
X031173Y026364D02*
X030520Y026364D01*
X030520Y026205D02*
X031014Y026205D01*
X031640Y025265D02*
X032640Y025265D01*
X031640Y025265D02*
X031140Y024765D01*
X029140Y024765D01*
X028640Y025265D01*
X027640Y025265D01*
X026640Y025265D01*
X026140Y024765D01*
X024140Y024765D01*
X023640Y025265D01*
X022640Y025265D01*
X021640Y025265D01*
X021140Y024765D01*
X019140Y024765D01*
X018640Y025265D01*
X017640Y025265D01*
X016640Y025765D02*
X018640Y025765D01*
X019140Y025265D01*
X019640Y025265D01*
X021140Y025265D01*
X021640Y025765D01*
X023640Y025765D01*
X024140Y025265D01*
X024640Y025265D01*
X026140Y025265D01*
X026640Y025765D01*
X028640Y025765D01*
X029140Y025265D01*
X026640Y026265D02*
X026140Y025765D01*
X024140Y025765D01*
X023640Y026265D01*
X022640Y026265D01*
X021640Y026265D01*
X021140Y025765D01*
X019140Y025765D01*
X018640Y026265D01*
X017640Y026265D01*
X016640Y026265D01*
X016140Y025765D01*
X008515Y025765D01*
X007015Y027265D01*
X006765Y027265D01*
X008140Y027140D02*
X005265Y030015D01*
X005265Y030765D01*
X005765Y031265D01*
X006765Y031265D02*
X007015Y031265D01*
X009140Y029140D01*
X013265Y029140D01*
X013890Y029140D02*
X013890Y029515D01*
X010140Y033265D01*
X006765Y033265D01*
X006265Y032765D02*
X005765Y032265D01*
X006265Y032765D02*
X009890Y032765D01*
X012765Y029890D01*
X011765Y029640D02*
X009140Y032265D01*
X006765Y032265D01*
X005765Y033265D02*
X006265Y033765D01*
X010140Y033765D01*
X014765Y029140D01*
X015765Y029140D01*
X015608Y029692D02*
X015098Y029692D01*
X016335Y029058D02*
X016502Y029058D01*
X016890Y028640D02*
X008390Y028640D01*
X006765Y030265D01*
X005765Y030265D02*
X007890Y028140D01*
X016265Y028140D01*
X018220Y027790D02*
X019060Y027790D01*
X018878Y027632D02*
X018402Y027632D01*
X018483Y027473D02*
X018797Y027473D01*
X018760Y027315D02*
X018520Y027315D01*
X018741Y027156D02*
X018760Y027156D01*
X018569Y028266D02*
X019166Y028266D01*
X019040Y028424D02*
X018728Y028424D01*
X018886Y028583D02*
X019040Y028583D01*
X019956Y028107D02*
X020574Y028107D01*
X020220Y027790D02*
X022060Y027790D01*
X021878Y027632D02*
X020402Y027632D01*
X020483Y027473D02*
X021797Y027473D01*
X021760Y027315D02*
X020520Y027315D01*
X020520Y027156D02*
X021539Y027156D01*
X021307Y026998D02*
X020459Y026998D01*
X020343Y026839D02*
X021148Y026839D01*
X020990Y026681D02*
X020353Y026681D01*
X023220Y027790D02*
X024060Y027790D01*
X023878Y027632D02*
X023402Y027632D01*
X023483Y027473D02*
X023797Y027473D01*
X023760Y027315D02*
X023520Y027315D01*
X023741Y027156D02*
X023760Y027156D01*
X023364Y028266D02*
X025166Y028266D01*
X025040Y028424D02*
X023490Y028424D01*
X023490Y028583D02*
X025040Y028583D01*
X025040Y028741D02*
X023490Y028741D01*
X023232Y029745D02*
X023260Y029756D01*
X023429Y029925D01*
X023520Y030146D01*
X023520Y030384D01*
X023429Y030605D01*
X023269Y030765D01*
X023369Y030865D01*
X023474Y030865D01*
X023801Y030538D01*
X023817Y030522D01*
X023804Y030495D01*
X023775Y030405D01*
X023760Y030312D01*
X023760Y030265D01*
X024640Y030265D01*
X025520Y030265D01*
X025520Y030312D01*
X025512Y030365D01*
X026220Y030365D01*
X026367Y030426D01*
X026806Y030865D01*
X026911Y030865D01*
X027011Y030765D01*
X026851Y030605D01*
X026760Y030384D01*
X026760Y030146D01*
X026851Y029925D01*
X027020Y029756D01*
X027048Y029745D01*
X025221Y029745D01*
X025234Y029752D01*
X025311Y029807D01*
X025378Y029874D01*
X025433Y029951D01*
X025476Y030035D01*
X025505Y030124D01*
X025520Y030218D01*
X025520Y030265D01*
X024640Y030265D01*
X024640Y030265D01*
X024640Y030265D01*
X023760Y030265D01*
X023760Y030218D01*
X023775Y030124D01*
X023804Y030035D01*
X023847Y029951D01*
X023902Y029874D01*
X023969Y029807D01*
X024046Y029752D01*
X024059Y029745D01*
X023232Y029745D01*
X023354Y029851D02*
X023926Y029851D01*
X023817Y030009D02*
X023463Y030009D01*
X023520Y030168D02*
X023768Y030168D01*
X023762Y030326D02*
X023520Y030326D01*
X023478Y030485D02*
X023800Y030485D01*
X023696Y030643D02*
X023390Y030643D01*
X023305Y030802D02*
X023538Y030802D01*
X023640Y031265D02*
X024140Y030765D01*
X026140Y030765D01*
X026640Y031265D01*
X027640Y031265D01*
X028640Y031265D01*
X029140Y030765D01*
X031140Y030765D01*
X028800Y030485D02*
X028478Y030485D01*
X028520Y030326D02*
X028762Y030326D01*
X028768Y030168D02*
X028520Y030168D01*
X028463Y030009D02*
X028817Y030009D01*
X028926Y029851D02*
X028354Y029851D01*
X028390Y030643D02*
X028696Y030643D01*
X028538Y030802D02*
X028305Y030802D01*
X026975Y030802D02*
X026742Y030802D01*
X026890Y030643D02*
X026584Y030643D01*
X026425Y030485D02*
X026802Y030485D01*
X026760Y030326D02*
X025518Y030326D01*
X025512Y030168D02*
X026760Y030168D01*
X026817Y030009D02*
X025463Y030009D01*
X025354Y029851D02*
X026926Y029851D01*
X023640Y031265D02*
X022640Y031265D01*
X021640Y031265D01*
X021140Y030765D01*
X019140Y030765D01*
X018640Y031265D01*
X020518Y030326D02*
X021760Y030326D01*
X021760Y030168D02*
X020512Y030168D01*
X020463Y030009D02*
X021817Y030009D01*
X021926Y029851D02*
X020354Y029851D01*
X021425Y030485D02*
X021802Y030485D01*
X021890Y030643D02*
X021584Y030643D01*
X021742Y030802D02*
X021975Y030802D01*
X016640Y033765D02*
X016140Y033265D01*
X014640Y033265D01*
X014640Y035265D02*
X016140Y035265D01*
X016640Y035765D01*
X018640Y035765D01*
X019140Y035265D01*
X019640Y035265D01*
X021140Y035265D01*
X021640Y035765D01*
X023640Y035765D01*
X024140Y035265D01*
X024640Y035265D01*
X026140Y035265D01*
X026640Y035765D01*
X028640Y035765D01*
X028640Y035265D02*
X029140Y034765D01*
X028640Y035265D02*
X027640Y035265D01*
X026640Y035265D01*
X026140Y034765D01*
X024140Y034765D01*
X023640Y035265D01*
X022640Y035265D01*
X021640Y035265D01*
X021140Y034765D01*
X019140Y034765D01*
X018640Y035265D01*
X017640Y035265D01*
X016140Y037265D02*
X014640Y037265D01*
X013515Y037265D01*
X012640Y038140D01*
X006640Y038140D01*
X005765Y037265D01*
X004515Y038140D02*
X005265Y038890D01*
X013015Y038890D01*
X013640Y038265D01*
X014640Y038265D01*
X016140Y038265D01*
X016640Y037765D02*
X018640Y037765D01*
X019140Y037265D01*
X019640Y037265D01*
X021140Y037265D01*
X021640Y037765D01*
X023640Y037765D01*
X024140Y037265D01*
X024640Y037265D01*
X026140Y037265D01*
X026640Y037765D01*
X028640Y037765D01*
X029140Y037265D01*
X029640Y037265D01*
X029140Y037765D02*
X028640Y038265D01*
X030444Y038568D02*
X031377Y038568D01*
X031219Y038410D02*
X030510Y038410D01*
X030520Y038251D02*
X031060Y038251D01*
X031002Y040153D02*
X032160Y040153D01*
X032120Y040312D02*
X031160Y040312D01*
X031240Y040470D02*
X032040Y040470D01*
X032040Y040629D02*
X031240Y040629D01*
X031240Y040787D02*
X032040Y040787D01*
X032097Y040946D02*
X031183Y040946D01*
X027160Y041009D02*
X027040Y040889D01*
X027040Y040391D01*
X027160Y040271D01*
X027160Y039832D01*
X027020Y039774D01*
X026851Y039605D01*
X026760Y039384D01*
X026760Y039165D01*
X026560Y039165D01*
X026413Y039104D01*
X026301Y038992D01*
X026301Y038992D01*
X025974Y038665D01*
X025369Y038665D01*
X025269Y038765D01*
X025429Y038925D01*
X025520Y039146D01*
X025520Y039384D01*
X025429Y039605D01*
X025260Y039774D01*
X025039Y039865D01*
X024241Y039865D01*
X024020Y039774D01*
X023851Y039605D01*
X023760Y039384D01*
X023760Y039148D01*
X023720Y039165D01*
X023520Y039165D01*
X023520Y039384D01*
X023429Y039605D01*
X023260Y039774D01*
X023120Y039832D01*
X023120Y040271D01*
X023240Y040391D01*
X023240Y040889D01*
X023120Y041009D01*
X023120Y041410D01*
X027160Y041410D01*
X027160Y041009D01*
X027097Y040946D02*
X026183Y040946D01*
X026240Y040889D02*
X025889Y041240D01*
X025640Y041240D01*
X025640Y040640D01*
X026240Y040640D01*
X026240Y040889D01*
X026240Y040787D02*
X027040Y040787D01*
X027040Y040629D02*
X026240Y040629D01*
X026240Y040640D02*
X025640Y040640D01*
X025640Y040640D01*
X025640Y040640D01*
X025640Y040040D01*
X025889Y040040D01*
X026240Y040391D01*
X026240Y040640D01*
X026240Y040470D02*
X027040Y040470D01*
X027120Y040312D02*
X026160Y040312D01*
X026002Y040153D02*
X027160Y040153D01*
X027160Y039995D02*
X023120Y039995D01*
X023120Y040153D02*
X025278Y040153D01*
X025391Y040040D02*
X025640Y040040D01*
X025640Y040640D01*
X025640Y040640D01*
X025640Y040640D01*
X025040Y040640D01*
X025040Y040889D01*
X025391Y041240D01*
X025640Y041240D01*
X025640Y040640D01*
X025040Y040640D01*
X025040Y040391D01*
X025391Y040040D01*
X025640Y040153D02*
X025640Y040153D01*
X025640Y040312D02*
X025640Y040312D01*
X025640Y040470D02*
X025640Y040470D01*
X025640Y040629D02*
X025640Y040629D01*
X025640Y040787D02*
X025640Y040787D01*
X025640Y040946D02*
X025640Y040946D01*
X025640Y041104D02*
X025640Y041104D01*
X026024Y041104D02*
X027160Y041104D01*
X027160Y041263D02*
X023120Y041263D01*
X023120Y041104D02*
X025256Y041104D01*
X025097Y040946D02*
X023183Y040946D01*
X023240Y040787D02*
X025040Y040787D01*
X025040Y040629D02*
X023240Y040629D01*
X023240Y040470D02*
X025040Y040470D01*
X025120Y040312D02*
X023160Y040312D01*
X023120Y039836D02*
X024171Y039836D01*
X023924Y039678D02*
X023356Y039678D01*
X023464Y039519D02*
X023816Y039519D01*
X023760Y039361D02*
X023520Y039361D01*
X023520Y039202D02*
X023760Y039202D01*
X025109Y039836D02*
X027160Y039836D01*
X026924Y039678D02*
X025356Y039678D01*
X025464Y039519D02*
X026816Y039519D01*
X026760Y039361D02*
X025520Y039361D01*
X025520Y039202D02*
X026760Y039202D01*
X026353Y039044D02*
X025478Y039044D01*
X025389Y038885D02*
X026194Y038885D01*
X026036Y038727D02*
X025307Y038727D01*
X022160Y039832D02*
X022160Y040271D01*
X022040Y040391D01*
X022040Y040889D01*
X022160Y041009D01*
X022160Y041410D01*
X018120Y041410D01*
X018120Y041009D01*
X018240Y040889D01*
X018240Y040391D01*
X018120Y040271D01*
X018120Y039832D01*
X018260Y039774D01*
X018429Y039605D01*
X018520Y039384D01*
X018520Y039165D01*
X018720Y039165D01*
X018760Y039148D01*
X018760Y039384D01*
X018851Y039605D01*
X019020Y039774D01*
X019241Y039865D01*
X020039Y039865D01*
X020260Y039774D01*
X020429Y039605D01*
X020520Y039384D01*
X020520Y039146D01*
X020429Y038925D01*
X020269Y038765D01*
X020369Y038665D01*
X020974Y038665D01*
X021301Y038992D01*
X021413Y039104D01*
X021560Y039165D01*
X021760Y039165D01*
X021760Y039384D01*
X021851Y039605D01*
X022020Y039774D01*
X022160Y039832D01*
X022160Y039836D02*
X020109Y039836D01*
X020356Y039678D02*
X021924Y039678D01*
X021816Y039519D02*
X020464Y039519D01*
X020520Y039361D02*
X021760Y039361D01*
X021760Y039202D02*
X020520Y039202D01*
X020478Y039044D02*
X021353Y039044D01*
X021194Y038885D02*
X020389Y038885D01*
X020307Y038727D02*
X021036Y038727D01*
X020889Y040040D02*
X021240Y040391D01*
X021240Y040640D01*
X021240Y040889D01*
X020889Y041240D01*
X020640Y041240D01*
X020640Y040640D01*
X021240Y040640D01*
X020640Y040640D01*
X020640Y040640D01*
X020640Y040640D01*
X020640Y040040D01*
X020889Y040040D01*
X021002Y040153D02*
X022160Y040153D01*
X022160Y039995D02*
X018120Y039995D01*
X018120Y040153D02*
X020278Y040153D01*
X020391Y040040D02*
X020640Y040040D01*
X020640Y040640D01*
X020640Y040640D01*
X020640Y040640D01*
X020040Y040640D01*
X020040Y040889D01*
X020391Y041240D01*
X020640Y041240D01*
X020640Y040640D01*
X020040Y040640D01*
X020040Y040391D01*
X020391Y040040D01*
X020640Y040153D02*
X020640Y040153D01*
X020640Y040312D02*
X020640Y040312D01*
X020640Y040470D02*
X020640Y040470D01*
X020640Y040629D02*
X020640Y040629D01*
X020640Y040787D02*
X020640Y040787D01*
X020640Y040946D02*
X020640Y040946D01*
X020640Y041104D02*
X020640Y041104D01*
X021024Y041104D02*
X022160Y041104D01*
X022160Y041263D02*
X018120Y041263D01*
X018120Y041104D02*
X020256Y041104D01*
X020097Y040946D02*
X018183Y040946D01*
X018240Y040787D02*
X020040Y040787D01*
X020040Y040629D02*
X018240Y040629D01*
X018240Y040470D02*
X020040Y040470D01*
X020120Y040312D02*
X018160Y040312D01*
X018120Y039836D02*
X019171Y039836D01*
X018924Y039678D02*
X018356Y039678D01*
X018464Y039519D02*
X018816Y039519D01*
X018760Y039361D02*
X018520Y039361D01*
X018520Y039202D02*
X018760Y039202D01*
X016640Y037765D02*
X016140Y037265D01*
X013973Y038727D02*
X013744Y038727D01*
X013891Y038885D02*
X013586Y038885D01*
X013427Y039044D02*
X013802Y039044D01*
X013760Y039202D02*
X013269Y039202D01*
X013924Y039678D02*
X008708Y039678D01*
X008866Y039836D02*
X014171Y039836D01*
X008072Y039678D02*
X007708Y039678D01*
X021160Y040312D02*
X022120Y040312D01*
X022040Y040470D02*
X021240Y040470D01*
X021240Y040629D02*
X022040Y040629D01*
X022040Y040787D02*
X021240Y040787D01*
X021183Y040946D02*
X022097Y040946D01*
X005265Y027515D02*
X005265Y024515D01*
X005515Y024265D01*
X005765Y024265D01*
X006765Y025265D02*
X007015Y025265D01*
X007265Y025015D01*
X007265Y024015D01*
X007282Y022877D02*
X007338Y022877D01*
X007217Y022718D02*
X007496Y022718D01*
X007376Y022560D02*
X007655Y022560D01*
X007813Y022401D02*
X007405Y022401D01*
X007405Y022243D02*
X007972Y022243D01*
X008130Y022084D02*
X007405Y022084D01*
X007331Y021926D02*
X008289Y021926D01*
X008447Y021767D02*
X007172Y021767D01*
X007327Y021609D02*
X008606Y021609D01*
X008764Y021450D02*
X007405Y021450D01*
X007405Y021292D02*
X008923Y021292D01*
X009081Y021133D02*
X007405Y021133D01*
X007380Y020975D02*
X009240Y020975D01*
X009398Y020816D02*
X007221Y020816D01*
X007278Y020658D02*
X009557Y020658D01*
X009715Y020499D02*
X007405Y020499D01*
X007405Y020341D02*
X009874Y020341D01*
X010032Y020182D02*
X007405Y020182D01*
X007405Y020024D02*
X010191Y020024D01*
X010349Y019865D02*
X007270Y019865D01*
X007112Y019707D02*
X010508Y019707D01*
X010666Y019548D02*
X004270Y019548D01*
X004270Y019390D02*
X010825Y019390D01*
X010983Y019231D02*
X004270Y019231D01*
X004270Y019073D02*
X011142Y019073D01*
X011300Y018914D02*
X004270Y018914D01*
X004270Y018756D02*
X011459Y018756D01*
X011617Y018597D02*
X004270Y018597D01*
X004270Y018439D02*
X011776Y018439D01*
X011463Y017623D02*
X011253Y017710D01*
X011027Y017710D01*
X010817Y017623D01*
X010657Y017463D01*
X010570Y017253D01*
X010570Y017136D01*
X009073Y015638D01*
X008963Y015748D01*
X008753Y015835D01*
X008527Y015835D01*
X008317Y015748D01*
X008234Y015665D01*
X007270Y015665D01*
X007170Y015765D01*
X007405Y016000D01*
X007405Y016530D01*
X007170Y016765D01*
X007405Y017000D01*
X007405Y017530D01*
X007030Y017905D01*
X006500Y017905D01*
X006265Y017670D01*
X006030Y017905D01*
X005500Y017905D01*
X005125Y017530D01*
X005125Y017000D01*
X005360Y016765D01*
X005125Y016530D01*
X005125Y016000D01*
X005360Y015765D01*
X005125Y015530D01*
X005125Y015000D01*
X005360Y014765D01*
X005125Y014530D01*
X005125Y014000D01*
X005360Y013765D01*
X005125Y013530D01*
X005125Y013000D01*
X005360Y012765D01*
X005125Y012530D01*
X005125Y012000D01*
X005360Y011765D01*
X005125Y011530D01*
X005125Y011000D01*
X005360Y010765D01*
X005125Y010530D01*
X005125Y010000D01*
X005500Y009625D01*
X005839Y009625D01*
X005926Y009538D01*
X006038Y009426D01*
X006185Y009365D01*
X008220Y009365D01*
X008367Y009426D01*
X010011Y011070D01*
X010128Y011070D01*
X010338Y011157D01*
X010498Y011317D01*
X010585Y011527D01*
X010585Y011753D01*
X010498Y011963D01*
X010338Y012123D01*
X010128Y012210D01*
X009902Y012210D01*
X009692Y012123D01*
X009532Y011963D01*
X009445Y011753D01*
X009445Y011636D01*
X007974Y010165D01*
X007606Y010165D01*
X010011Y012570D01*
X010128Y012570D01*
X010338Y012657D01*
X010498Y012817D01*
X010585Y013027D01*
X010585Y013253D01*
X010498Y013463D01*
X010338Y013623D01*
X010128Y013710D01*
X009902Y013710D01*
X009692Y013623D01*
X009532Y013463D01*
X009445Y013253D01*
X009445Y013136D01*
X007405Y011096D01*
X007405Y011530D01*
X007170Y011765D01*
X007405Y012000D01*
X007405Y012530D01*
X007170Y012765D01*
X007405Y013000D01*
X007405Y013365D01*
X008595Y013365D01*
X008742Y013426D01*
X010761Y015445D01*
X010878Y015445D01*
X011088Y015532D01*
X011248Y015692D01*
X011335Y015902D01*
X011335Y016128D01*
X011248Y016338D01*
X011088Y016498D01*
X011071Y016505D01*
X011136Y016570D01*
X011253Y016570D01*
X011463Y016657D01*
X011623Y016817D01*
X011710Y017027D01*
X011710Y017253D01*
X011623Y017463D01*
X011463Y017623D01*
X011408Y017646D02*
X017240Y017646D01*
X017240Y017488D02*
X011599Y017488D01*
X011679Y017329D02*
X017240Y017329D01*
X017240Y017171D02*
X011710Y017171D01*
X011704Y017012D02*
X017240Y017012D01*
X017240Y016854D02*
X011638Y016854D01*
X011501Y016695D02*
X013990Y016695D01*
X014290Y016695D02*
X017240Y016695D01*
X017240Y016537D02*
X014550Y016537D01*
X014658Y016378D02*
X017240Y016378D01*
X017240Y016220D02*
X014710Y016220D01*
X014710Y016061D02*
X017240Y016061D01*
X017240Y015903D02*
X014659Y015903D01*
X014550Y015744D02*
X017240Y015744D01*
X017240Y015586D02*
X014540Y015586D01*
X014540Y015427D02*
X017240Y015427D01*
X017240Y015269D02*
X014523Y015269D01*
X014426Y015110D02*
X017240Y015110D01*
X017240Y014952D02*
X014267Y014952D01*
X014109Y014793D02*
X017240Y014793D01*
X017240Y014635D02*
X013950Y014635D01*
X013792Y014476D02*
X017240Y014476D01*
X017240Y014318D02*
X013790Y014318D01*
X013790Y014159D02*
X017240Y014159D01*
X017240Y014001D02*
X013790Y014001D01*
X013790Y013842D02*
X017240Y013842D01*
X017240Y013684D02*
X013790Y013684D01*
X013790Y013525D02*
X017240Y013525D01*
X017240Y013367D02*
X013790Y013367D01*
X013790Y013208D02*
X017240Y013208D01*
X017240Y013050D02*
X013790Y013050D01*
X013790Y012891D02*
X017240Y012891D01*
X017240Y012733D02*
X013790Y012733D01*
X013790Y012574D02*
X017240Y012574D01*
X017240Y012416D02*
X013790Y012416D01*
X013790Y012257D02*
X017240Y012257D01*
X017240Y012099D02*
X013790Y012099D01*
X013790Y011940D02*
X017240Y011940D01*
X017240Y011782D02*
X013790Y011782D01*
X013790Y011623D02*
X017240Y011623D01*
X017240Y011465D02*
X013790Y011465D01*
X013790Y011306D02*
X017240Y011306D01*
X017240Y011148D02*
X013790Y011148D01*
X013790Y010989D02*
X017240Y010989D01*
X017240Y010831D02*
X013790Y010831D01*
X013790Y010672D02*
X017240Y010672D01*
X017240Y010514D02*
X013790Y010514D01*
X013790Y010355D02*
X017240Y010355D01*
X017240Y010197D02*
X013790Y010197D01*
X013790Y010038D02*
X017240Y010038D01*
X017240Y009880D02*
X013790Y009880D01*
X013790Y009721D02*
X017240Y009721D01*
X017240Y009563D02*
X013790Y009563D01*
X013790Y009404D02*
X017223Y009404D01*
X017119Y009246D02*
X013790Y009246D01*
X013790Y009087D02*
X017070Y009087D01*
X017070Y008929D02*
X013790Y008929D01*
X013790Y008770D02*
X017125Y008770D01*
X017237Y008612D02*
X013790Y008612D01*
X013790Y008453D02*
X017507Y008453D01*
X017640Y009015D02*
X017640Y018265D01*
X018269Y018765D02*
X018369Y018865D01*
X018474Y018865D01*
X018801Y018538D01*
X018817Y018522D01*
X018804Y018495D01*
X018775Y018405D01*
X018760Y018312D01*
X018760Y018265D01*
X019640Y018265D01*
X020520Y018265D01*
X019640Y018265D01*
X019640Y018265D01*
X019640Y018265D01*
X018760Y018265D01*
X018760Y018218D01*
X018775Y018124D01*
X018804Y018035D01*
X018847Y017951D01*
X018902Y017874D01*
X018969Y017807D01*
X019046Y017752D01*
X019130Y017709D01*
X019147Y017703D01*
X019032Y017588D01*
X019015Y017547D01*
X018998Y017588D01*
X018838Y017748D01*
X018628Y017835D01*
X018402Y017835D01*
X018294Y017790D01*
X018429Y017925D01*
X018520Y018146D01*
X018520Y018384D01*
X018429Y018605D01*
X018269Y018765D01*
X018278Y018756D02*
X018584Y018756D01*
X018432Y018597D02*
X018742Y018597D01*
X018786Y018439D02*
X018498Y018439D01*
X018520Y018280D02*
X018760Y018280D01*
X018776Y018122D02*
X018510Y018122D01*
X018444Y017963D02*
X018840Y017963D01*
X018973Y017805D02*
X018702Y017805D01*
X018940Y017646D02*
X019090Y017646D01*
X019515Y017265D02*
X019515Y009515D01*
X021790Y009563D02*
X022240Y009563D01*
X022240Y009721D02*
X021790Y009721D01*
X021790Y009880D02*
X022240Y009880D01*
X022240Y010038D02*
X021790Y010038D01*
X021790Y010197D02*
X022240Y010197D01*
X022240Y010355D02*
X021790Y010355D01*
X021790Y010514D02*
X022240Y010514D01*
X022240Y010672D02*
X021790Y010672D01*
X021790Y010831D02*
X022240Y010831D01*
X022240Y010989D02*
X021790Y010989D01*
X021790Y011148D02*
X022240Y011148D01*
X022240Y011306D02*
X021790Y011306D01*
X021790Y011465D02*
X022240Y011465D01*
X022240Y011623D02*
X021790Y011623D01*
X021790Y011782D02*
X022240Y011782D01*
X022240Y011940D02*
X021790Y011940D01*
X021790Y012099D02*
X022240Y012099D01*
X022240Y012257D02*
X021790Y012257D01*
X021790Y012416D02*
X022240Y012416D01*
X022240Y012574D02*
X021790Y012574D01*
X021790Y012733D02*
X022240Y012733D01*
X022240Y012891D02*
X021790Y012891D01*
X021790Y013050D02*
X022240Y013050D01*
X022240Y013208D02*
X021790Y013208D01*
X021790Y013367D02*
X022240Y013367D01*
X022240Y013525D02*
X021790Y013525D01*
X021790Y013684D02*
X022240Y013684D01*
X022240Y013842D02*
X021790Y013842D01*
X021790Y014001D02*
X022240Y014001D01*
X022240Y014159D02*
X021790Y014159D01*
X021790Y014318D02*
X022240Y014318D01*
X022240Y014476D02*
X021790Y014476D01*
X021790Y014635D02*
X022240Y014635D01*
X022240Y014793D02*
X021790Y014793D01*
X021790Y014952D02*
X022240Y014952D01*
X022240Y015110D02*
X021790Y015110D01*
X021790Y015269D02*
X022240Y015269D01*
X022240Y015427D02*
X021790Y015427D01*
X021790Y015586D02*
X022240Y015586D01*
X022240Y015744D02*
X021790Y015744D01*
X021790Y015903D02*
X022240Y015903D01*
X022240Y016061D02*
X021790Y016061D01*
X021790Y016220D02*
X022240Y016220D01*
X022240Y016378D02*
X021790Y016378D01*
X021790Y016537D02*
X022240Y016537D01*
X022240Y016695D02*
X021790Y016695D01*
X021790Y016734D02*
X021873Y016817D01*
X021960Y017027D01*
X021960Y017253D01*
X021873Y017463D01*
X021713Y017623D01*
X021503Y017710D01*
X021277Y017710D01*
X021067Y017623D01*
X020952Y017509D01*
X020783Y017646D02*
X021122Y017646D01*
X021658Y017646D02*
X022240Y017646D01*
X022240Y017488D02*
X021849Y017488D01*
X021929Y017329D02*
X022240Y017329D01*
X022240Y017171D02*
X021960Y017171D01*
X021954Y017012D02*
X022240Y017012D01*
X022240Y016854D02*
X021888Y016854D01*
X021790Y016734D02*
X021790Y007905D01*
X022155Y007905D01*
X022390Y007670D01*
X022625Y007905D01*
X023155Y007905D01*
X023390Y007670D01*
X023625Y007905D01*
X024155Y007905D01*
X024390Y007670D01*
X024625Y007905D01*
X025155Y007905D01*
X025390Y007670D01*
X025625Y007905D01*
X025990Y007905D01*
X025990Y016470D01*
X026051Y016617D01*
X026163Y016729D01*
X027141Y017706D01*
X027020Y017756D01*
X026851Y017925D01*
X026760Y018146D01*
X026760Y018384D01*
X026851Y018605D01*
X027011Y018765D01*
X026911Y018865D01*
X026806Y018865D01*
X026367Y018426D01*
X026220Y018365D01*
X025512Y018365D01*
X025520Y018312D01*
X025520Y018265D01*
X024640Y018265D01*
X024640Y018265D01*
X025520Y018265D01*
X025520Y018218D01*
X025505Y018124D01*
X025476Y018035D01*
X025433Y017951D01*
X025378Y017874D01*
X025311Y017807D01*
X025234Y017752D01*
X025150Y017709D01*
X025060Y017680D01*
X024967Y017665D01*
X024640Y017665D01*
X024640Y018265D01*
X024640Y018265D01*
X024640Y018265D01*
X024640Y017665D01*
X024313Y017665D01*
X024219Y017680D01*
X024130Y017709D01*
X024046Y017752D01*
X023969Y017807D01*
X023902Y017874D01*
X023847Y017951D01*
X023804Y018035D01*
X023775Y018124D01*
X023760Y018218D01*
X023760Y018265D01*
X024640Y018265D01*
X024640Y018122D02*
X024640Y018122D01*
X024640Y017963D02*
X024640Y017963D01*
X024640Y017805D02*
X024640Y017805D01*
X025307Y017805D02*
X026972Y017805D01*
X027080Y017646D02*
X023040Y017646D01*
X023040Y017488D02*
X026922Y017488D01*
X026763Y017329D02*
X023040Y017329D01*
X023040Y017171D02*
X026605Y017171D01*
X026446Y017012D02*
X023040Y017012D01*
X023040Y016854D02*
X026288Y016854D01*
X026129Y016695D02*
X023040Y016695D01*
X023040Y016537D02*
X026018Y016537D01*
X025990Y016378D02*
X023040Y016378D01*
X023040Y016220D02*
X025990Y016220D01*
X025990Y016061D02*
X023040Y016061D01*
X023040Y015903D02*
X025990Y015903D01*
X025990Y015744D02*
X023040Y015744D01*
X023040Y015586D02*
X025990Y015586D01*
X025990Y015427D02*
X023040Y015427D01*
X023040Y015269D02*
X025990Y015269D01*
X025990Y015110D02*
X023040Y015110D01*
X023040Y014952D02*
X025990Y014952D01*
X025990Y014793D02*
X023040Y014793D01*
X023040Y014635D02*
X025990Y014635D01*
X025990Y014476D02*
X023040Y014476D01*
X023040Y014318D02*
X025990Y014318D01*
X025990Y014159D02*
X023040Y014159D01*
X023040Y014001D02*
X025990Y014001D01*
X025990Y013842D02*
X023040Y013842D01*
X023040Y013684D02*
X025990Y013684D01*
X025990Y013525D02*
X023040Y013525D01*
X023040Y013367D02*
X025990Y013367D01*
X025990Y013208D02*
X023040Y013208D01*
X023040Y013050D02*
X025990Y013050D01*
X025990Y012891D02*
X023040Y012891D01*
X023040Y012733D02*
X025990Y012733D01*
X025990Y012574D02*
X023040Y012574D01*
X023040Y012416D02*
X025990Y012416D01*
X025990Y012257D02*
X023040Y012257D01*
X023040Y012099D02*
X025990Y012099D01*
X025990Y011940D02*
X023040Y011940D01*
X023040Y011782D02*
X025990Y011782D01*
X025990Y011623D02*
X023040Y011623D01*
X023040Y011465D02*
X025990Y011465D01*
X025990Y011306D02*
X023040Y011306D01*
X023040Y011148D02*
X025990Y011148D01*
X025990Y010989D02*
X023040Y010989D01*
X023040Y010831D02*
X025990Y010831D01*
X025990Y010672D02*
X023040Y010672D01*
X023040Y010514D02*
X025990Y010514D01*
X025990Y010355D02*
X023040Y010355D01*
X023040Y010197D02*
X025990Y010197D01*
X025990Y010038D02*
X023040Y010038D01*
X023040Y009880D02*
X025990Y009880D01*
X025990Y009721D02*
X023040Y009721D01*
X023040Y009563D02*
X025990Y009563D01*
X025990Y009404D02*
X023040Y009404D01*
X023040Y009246D02*
X025990Y009246D01*
X025990Y009087D02*
X023040Y009087D01*
X023040Y008929D02*
X025990Y008929D01*
X025990Y008770D02*
X023151Y008770D01*
X023210Y008612D02*
X025990Y008612D01*
X025990Y008453D02*
X023210Y008453D01*
X023166Y008295D02*
X025990Y008295D01*
X025990Y008136D02*
X023067Y008136D01*
X022832Y007978D02*
X025990Y007978D01*
X025539Y007819D02*
X025241Y007819D01*
X024539Y007819D02*
X024241Y007819D01*
X023539Y007819D02*
X023241Y007819D01*
X022539Y007819D02*
X022241Y007819D01*
X022448Y007978D02*
X021790Y007978D01*
X021790Y008136D02*
X022213Y008136D01*
X022114Y008295D02*
X021790Y008295D01*
X021790Y008453D02*
X022070Y008453D01*
X022070Y008612D02*
X021790Y008612D01*
X021790Y008770D02*
X022129Y008770D01*
X022240Y008929D02*
X021790Y008929D01*
X021790Y009087D02*
X022240Y009087D01*
X022240Y009246D02*
X021790Y009246D01*
X021790Y009404D02*
X022240Y009404D01*
X022640Y008515D02*
X022640Y018265D01*
X022002Y018756D02*
X021696Y018756D01*
X021848Y018597D02*
X021538Y018597D01*
X021379Y018439D02*
X021782Y018439D01*
X021760Y018280D02*
X020520Y018280D01*
X020504Y018122D02*
X021770Y018122D01*
X021836Y017963D02*
X020440Y017963D01*
X020307Y017805D02*
X021972Y017805D01*
X021390Y017140D02*
X021390Y006015D01*
X020640Y005265D01*
X019390Y005890D02*
X019390Y007890D01*
X019390Y005890D02*
X019140Y005640D01*
X017265Y005640D01*
X016890Y006015D01*
X016890Y006265D01*
X015990Y005600D02*
X006290Y005600D01*
X006241Y005516D02*
X006402Y005794D01*
X006485Y006104D01*
X006485Y006426D01*
X006402Y006736D01*
X006241Y007014D01*
X006014Y007241D01*
X005736Y007402D01*
X005426Y007485D01*
X005104Y007485D01*
X004794Y007402D01*
X004516Y007241D01*
X004289Y007014D01*
X004270Y006982D01*
X004270Y020569D01*
X004801Y020038D01*
X004913Y019926D01*
X005060Y019865D01*
X004270Y019865D01*
X004270Y019707D02*
X005418Y019707D01*
X005500Y019625D02*
X006030Y019625D01*
X006265Y019860D01*
X006112Y019707D02*
X006418Y019707D01*
X005500Y019625D02*
X005260Y019865D01*
X005060Y019865D01*
X004816Y020024D02*
X004270Y020024D01*
X004270Y020182D02*
X004657Y020182D01*
X004499Y020341D02*
X004270Y020341D01*
X004270Y020499D02*
X004340Y020499D01*
X004270Y018280D02*
X013760Y018280D01*
X013760Y018265D02*
X013760Y018218D01*
X013775Y018124D01*
X013804Y018035D01*
X013847Y017951D01*
X013902Y017874D01*
X013969Y017807D01*
X014046Y017752D01*
X014130Y017709D01*
X014219Y017680D01*
X014313Y017665D01*
X014640Y017665D01*
X014967Y017665D01*
X015060Y017680D01*
X015150Y017709D01*
X015234Y017752D01*
X015311Y017807D01*
X015378Y017874D01*
X015433Y017951D01*
X015476Y018035D01*
X015505Y018124D01*
X015520Y018218D01*
X015520Y018265D01*
X014640Y018265D01*
X014640Y018265D01*
X014640Y017665D01*
X014640Y018265D01*
X014640Y018265D01*
X014640Y018265D01*
X013760Y018265D01*
X013776Y018122D02*
X004270Y018122D01*
X004270Y017963D02*
X013840Y017963D01*
X013973Y017805D02*
X007131Y017805D01*
X007289Y017646D02*
X010872Y017646D01*
X010681Y017488D02*
X007405Y017488D01*
X007405Y017329D02*
X010601Y017329D01*
X010570Y017171D02*
X007405Y017171D01*
X007405Y017012D02*
X010446Y017012D01*
X010288Y016854D02*
X007259Y016854D01*
X007240Y016695D02*
X010129Y016695D01*
X009971Y016537D02*
X007399Y016537D01*
X007405Y016378D02*
X009812Y016378D01*
X009654Y016220D02*
X007405Y016220D01*
X007405Y016061D02*
X009495Y016061D01*
X009337Y015903D02*
X007308Y015903D01*
X007191Y015744D02*
X008313Y015744D01*
X008640Y015265D02*
X006765Y015265D01*
X006765Y014265D02*
X008265Y014265D01*
X011140Y017140D01*
X011102Y016537D02*
X013730Y016537D01*
X013622Y016378D02*
X011208Y016378D01*
X011297Y016220D02*
X013570Y016220D01*
X013570Y016061D02*
X011335Y016061D01*
X011335Y015903D02*
X013621Y015903D01*
X013730Y015744D02*
X011270Y015744D01*
X011142Y015586D02*
X013740Y015586D01*
X013611Y015427D02*
X010743Y015427D01*
X010584Y015269D02*
X013453Y015269D01*
X013294Y015110D02*
X010426Y015110D01*
X010267Y014952D02*
X013136Y014952D01*
X013020Y014793D02*
X010109Y014793D01*
X009950Y014635D02*
X012990Y014635D01*
X012990Y014476D02*
X009792Y014476D01*
X009633Y014318D02*
X012990Y014318D01*
X012990Y014159D02*
X009475Y014159D01*
X009316Y014001D02*
X012990Y014001D01*
X012990Y013842D02*
X009158Y013842D01*
X008999Y013684D02*
X009838Y013684D01*
X009594Y013525D02*
X008841Y013525D01*
X008598Y013367D02*
X009492Y013367D01*
X009445Y013208D02*
X007405Y013208D01*
X007405Y013050D02*
X009359Y013050D01*
X009200Y012891D02*
X007296Y012891D01*
X007203Y012733D02*
X009042Y012733D01*
X008883Y012574D02*
X007361Y012574D01*
X007405Y012416D02*
X008725Y012416D01*
X008566Y012257D02*
X007405Y012257D01*
X007405Y012099D02*
X008408Y012099D01*
X008249Y011940D02*
X007345Y011940D01*
X007187Y011782D02*
X008091Y011782D01*
X007932Y011623D02*
X007312Y011623D01*
X007405Y011465D02*
X007774Y011465D01*
X007615Y011306D02*
X007405Y011306D01*
X007405Y011148D02*
X007457Y011148D01*
X007954Y010514D02*
X008323Y010514D01*
X008481Y010672D02*
X008113Y010672D01*
X008271Y010831D02*
X008640Y010831D01*
X008798Y010989D02*
X008430Y010989D01*
X008588Y011148D02*
X008957Y011148D01*
X009115Y011306D02*
X008747Y011306D01*
X008905Y011465D02*
X009274Y011465D01*
X009432Y011623D02*
X009064Y011623D01*
X009222Y011782D02*
X009457Y011782D01*
X009522Y011940D02*
X009381Y011940D01*
X009539Y012099D02*
X009667Y012099D01*
X009698Y012257D02*
X012990Y012257D01*
X012990Y012099D02*
X010363Y012099D01*
X010508Y011940D02*
X012990Y011940D01*
X012990Y011782D02*
X010573Y011782D01*
X010585Y011623D02*
X012990Y011623D01*
X012990Y011465D02*
X010559Y011465D01*
X010487Y011306D02*
X012990Y011306D01*
X012990Y011148D02*
X010316Y011148D01*
X009930Y010989D02*
X012990Y010989D01*
X012990Y010831D02*
X009771Y010831D01*
X009613Y010672D02*
X012990Y010672D01*
X012990Y010514D02*
X009454Y010514D01*
X009296Y010355D02*
X012990Y010355D01*
X012990Y010197D02*
X009137Y010197D01*
X008979Y010038D02*
X012990Y010038D01*
X012990Y009880D02*
X008820Y009880D01*
X008662Y009721D02*
X012990Y009721D01*
X012990Y009563D02*
X008503Y009563D01*
X008314Y009404D02*
X012990Y009404D01*
X012990Y009246D02*
X004270Y009246D01*
X004270Y009404D02*
X006091Y009404D01*
X005902Y009563D02*
X004270Y009563D01*
X004270Y009721D02*
X005404Y009721D01*
X005245Y009880D02*
X004270Y009880D01*
X004270Y010038D02*
X005125Y010038D01*
X005125Y010197D02*
X004270Y010197D01*
X004270Y010355D02*
X005125Y010355D01*
X005125Y010514D02*
X004270Y010514D01*
X004270Y010672D02*
X005267Y010672D01*
X005294Y010831D02*
X004270Y010831D01*
X004270Y010989D02*
X005136Y010989D01*
X005125Y011148D02*
X004270Y011148D01*
X004270Y011306D02*
X005125Y011306D01*
X005125Y011465D02*
X004270Y011465D01*
X004270Y011623D02*
X005218Y011623D01*
X005343Y011782D02*
X004270Y011782D01*
X004270Y011940D02*
X005185Y011940D01*
X005125Y012099D02*
X004270Y012099D01*
X004270Y012257D02*
X005125Y012257D01*
X005125Y012416D02*
X004270Y012416D01*
X004270Y012574D02*
X005169Y012574D01*
X005327Y012733D02*
X004270Y012733D01*
X004270Y012891D02*
X005234Y012891D01*
X005125Y013050D02*
X004270Y013050D01*
X004270Y013208D02*
X005125Y013208D01*
X005125Y013367D02*
X004270Y013367D01*
X004270Y013525D02*
X005125Y013525D01*
X005278Y013684D02*
X004270Y013684D01*
X004270Y013842D02*
X005283Y013842D01*
X005125Y014001D02*
X004270Y014001D01*
X004270Y014159D02*
X005125Y014159D01*
X005125Y014318D02*
X004270Y014318D01*
X004270Y014476D02*
X005125Y014476D01*
X005229Y014635D02*
X004270Y014635D01*
X004270Y014793D02*
X005332Y014793D01*
X005173Y014952D02*
X004270Y014952D01*
X004270Y015110D02*
X005125Y015110D01*
X005125Y015269D02*
X004270Y015269D01*
X004270Y015427D02*
X005125Y015427D01*
X005180Y015586D02*
X004270Y015586D01*
X004270Y015744D02*
X005339Y015744D01*
X005222Y015903D02*
X004270Y015903D01*
X004270Y016061D02*
X005125Y016061D01*
X005125Y016220D02*
X004270Y016220D01*
X004270Y016378D02*
X005125Y016378D01*
X005131Y016537D02*
X004270Y016537D01*
X004270Y016695D02*
X005290Y016695D01*
X005271Y016854D02*
X004270Y016854D01*
X004270Y017012D02*
X005125Y017012D01*
X005125Y017171D02*
X004270Y017171D01*
X004270Y017329D02*
X005125Y017329D01*
X005125Y017488D02*
X004270Y017488D01*
X004270Y017646D02*
X005241Y017646D01*
X005399Y017805D02*
X004270Y017805D01*
X006131Y017805D02*
X006399Y017805D01*
X008967Y015744D02*
X009178Y015744D01*
X010765Y016015D02*
X008515Y013765D01*
X006265Y013765D01*
X005765Y014265D01*
X009856Y012416D02*
X012990Y012416D01*
X012990Y012574D02*
X010138Y012574D01*
X010414Y012733D02*
X012990Y012733D01*
X012990Y012891D02*
X010529Y012891D01*
X010585Y013050D02*
X012990Y013050D01*
X012990Y013208D02*
X010585Y013208D01*
X010538Y013367D02*
X012990Y013367D01*
X012990Y013525D02*
X010436Y013525D01*
X010192Y013684D02*
X012990Y013684D01*
X013390Y014640D02*
X014140Y015390D01*
X014140Y016140D01*
X014640Y017805D02*
X014640Y017805D01*
X014640Y017963D02*
X014640Y017963D01*
X014640Y018122D02*
X014640Y018122D01*
X015307Y017805D02*
X016972Y017805D01*
X016836Y017963D02*
X015440Y017963D01*
X015504Y018122D02*
X016770Y018122D01*
X016760Y018280D02*
X015520Y018280D01*
X016379Y018439D02*
X016782Y018439D01*
X016848Y018597D02*
X016538Y018597D01*
X016696Y018756D02*
X017002Y018756D01*
X018308Y017805D02*
X018328Y017805D01*
X019940Y017646D02*
X020247Y017646D01*
X020056Y017488D02*
X020040Y017488D01*
X023308Y017805D02*
X023973Y017805D01*
X023840Y017963D02*
X023444Y017963D01*
X023510Y018122D02*
X023776Y018122D01*
X023760Y018280D02*
X023520Y018280D01*
X023498Y018439D02*
X023786Y018439D01*
X023742Y018597D02*
X023432Y018597D01*
X023584Y018756D02*
X023278Y018756D01*
X025520Y018280D02*
X026760Y018280D01*
X026770Y018122D02*
X025504Y018122D01*
X025440Y017963D02*
X026836Y017963D01*
X026782Y018439D02*
X026379Y018439D01*
X026538Y018597D02*
X026848Y018597D01*
X026696Y018756D02*
X027002Y018756D01*
X027640Y018265D02*
X027640Y017640D01*
X026390Y016390D01*
X026390Y006765D01*
X026890Y006265D01*
X028390Y007515D02*
X028640Y007765D01*
X029015Y007765D01*
X029390Y008140D01*
X029390Y008515D01*
X029390Y008890D01*
X030890Y008265D02*
X030890Y009640D01*
X031390Y010140D01*
X031390Y011390D01*
X031390Y011890D01*
X031390Y011390D02*
X031640Y011140D01*
X032640Y011140D01*
X032890Y011390D01*
X032890Y012390D01*
X033140Y012640D01*
X034140Y012640D01*
X034390Y012390D01*
X034390Y011890D01*
X033390Y011890D02*
X033390Y011140D01*
X031890Y009640D01*
X031890Y008265D01*
X030890Y007265D01*
X029890Y007265D02*
X030890Y008265D01*
X029390Y006765D02*
X029890Y006265D01*
X034915Y006393D02*
X035039Y006393D01*
X028006Y011148D02*
X026790Y011148D01*
X026790Y011306D02*
X027871Y011306D01*
X027806Y011465D02*
X026790Y011465D01*
X026790Y011623D02*
X027790Y011623D01*
X027790Y011782D02*
X026790Y011782D01*
X026790Y011940D02*
X027790Y011940D01*
X027790Y012099D02*
X026790Y012099D01*
X026790Y012257D02*
X027796Y012257D01*
X027842Y012416D02*
X026790Y012416D01*
X026790Y012574D02*
X027945Y012574D01*
X028600Y012733D02*
X028667Y012733D01*
X032390Y012515D02*
X032390Y011890D01*
X029640Y017665D02*
X029640Y018265D01*
X029640Y018265D01*
X029640Y018265D01*
X028760Y018265D01*
X028760Y018218D01*
X028775Y018124D01*
X028804Y018035D01*
X028847Y017951D01*
X028902Y017874D01*
X028969Y017807D01*
X029046Y017752D01*
X029130Y017709D01*
X029219Y017680D01*
X029313Y017665D01*
X029640Y017665D01*
X029640Y017805D02*
X029640Y017805D01*
X029640Y017963D02*
X029640Y017963D01*
X029640Y018122D02*
X029640Y018122D01*
X028973Y017805D02*
X028308Y017805D01*
X028444Y017963D02*
X028840Y017963D01*
X028776Y018122D02*
X028510Y018122D01*
X028520Y018280D02*
X028760Y018280D01*
X028786Y018439D02*
X028498Y018439D01*
X028432Y018597D02*
X028742Y018597D01*
X028584Y018756D02*
X028278Y018756D01*
X016640Y023765D02*
X016140Y023265D01*
X014640Y023265D01*
X014640Y025265D02*
X016140Y025265D01*
X016640Y025765D01*
X012265Y027140D02*
X008140Y027140D01*
X013390Y014640D02*
X013390Y006765D01*
X012890Y006265D01*
X013289Y005759D02*
X013491Y005759D01*
X014289Y005759D02*
X014491Y005759D01*
X015289Y005759D02*
X015491Y005759D01*
X016039Y005442D02*
X006167Y005442D01*
X006241Y005516D02*
X006014Y005289D01*
X005736Y005128D01*
X005426Y005045D01*
X005104Y005045D01*
X004794Y005128D01*
X004516Y005289D01*
X004289Y005516D01*
X004270Y005548D01*
X004270Y005442D02*
X004363Y005442D01*
X004270Y005283D02*
X004526Y005283D01*
X004270Y005125D02*
X004808Y005125D01*
X004270Y004966D02*
X016498Y004966D01*
X016340Y005125D02*
X005722Y005125D01*
X006004Y005283D02*
X016181Y005283D01*
X012491Y005759D02*
X012289Y005759D01*
X011491Y005759D02*
X011289Y005759D01*
X010491Y005759D02*
X008789Y005759D01*
X008655Y005625D02*
X009030Y006000D01*
X009030Y006245D01*
X008410Y006245D01*
X008410Y006285D01*
X009030Y006285D01*
X009030Y006530D01*
X008795Y006765D01*
X009030Y007000D01*
X009030Y007245D01*
X008410Y007245D01*
X008410Y007285D01*
X009030Y007285D01*
X009030Y007530D01*
X008655Y007905D01*
X008410Y007905D01*
X008410Y007285D01*
X008370Y007285D01*
X008370Y007905D01*
X008125Y007905D01*
X007890Y007670D01*
X007655Y007905D01*
X007410Y007905D01*
X007410Y007285D01*
X007370Y007285D01*
X007370Y007905D01*
X007125Y007905D01*
X006750Y007530D01*
X006750Y007285D01*
X007370Y007285D01*
X007370Y007245D01*
X006750Y007245D01*
X006750Y007000D01*
X006985Y006765D01*
X006750Y006530D01*
X006750Y006285D01*
X007370Y006285D01*
X007370Y007245D01*
X007410Y007245D01*
X007410Y007285D01*
X008370Y007285D01*
X008370Y007245D01*
X008410Y007245D01*
X008410Y006625D01*
X008410Y006285D01*
X008370Y006285D01*
X008370Y007245D01*
X007750Y007245D01*
X007410Y007245D01*
X007410Y006625D01*
X007410Y006285D01*
X008370Y006285D01*
X008370Y006245D01*
X008410Y006245D01*
X008410Y005625D01*
X008655Y005625D01*
X008410Y005759D02*
X008370Y005759D01*
X008370Y005625D02*
X008370Y006245D01*
X007750Y006245D01*
X007410Y006245D01*
X007410Y006285D01*
X007370Y006285D01*
X007370Y006245D01*
X007410Y006245D01*
X007410Y005625D01*
X007655Y005625D01*
X007890Y005860D01*
X008125Y005625D01*
X008370Y005625D01*
X008370Y005917D02*
X008410Y005917D01*
X008410Y006076D02*
X008370Y006076D01*
X008370Y006234D02*
X008410Y006234D01*
X008410Y006393D02*
X008370Y006393D01*
X008370Y006551D02*
X008410Y006551D01*
X008410Y006710D02*
X008370Y006710D01*
X008370Y006868D02*
X008410Y006868D01*
X008410Y007027D02*
X008370Y007027D01*
X008370Y007185D02*
X008410Y007185D01*
X008410Y007344D02*
X008370Y007344D01*
X008370Y007502D02*
X008410Y007502D01*
X008410Y007661D02*
X008370Y007661D01*
X008370Y007819D02*
X008410Y007819D01*
X008741Y007819D02*
X010539Y007819D01*
X010380Y007661D02*
X008900Y007661D01*
X009030Y007502D02*
X010250Y007502D01*
X010250Y007344D02*
X009030Y007344D01*
X009030Y007185D02*
X010250Y007185D01*
X010250Y007027D02*
X009030Y007027D01*
X008898Y006868D02*
X010382Y006868D01*
X010429Y006710D02*
X008851Y006710D01*
X009009Y006551D02*
X010271Y006551D01*
X010250Y006393D02*
X009030Y006393D01*
X009030Y006234D02*
X010250Y006234D01*
X010250Y006076D02*
X009030Y006076D01*
X008947Y005917D02*
X010333Y005917D01*
X007991Y005759D02*
X007789Y005759D01*
X007410Y005759D02*
X007370Y005759D01*
X007370Y005625D02*
X007370Y006245D01*
X006750Y006245D01*
X006750Y006000D01*
X007125Y005625D01*
X007370Y005625D01*
X007370Y005917D02*
X007410Y005917D01*
X007410Y006076D02*
X007370Y006076D01*
X007370Y006234D02*
X007410Y006234D01*
X007410Y006393D02*
X007370Y006393D01*
X007370Y006551D02*
X007410Y006551D01*
X007410Y006710D02*
X007370Y006710D01*
X007370Y006868D02*
X007410Y006868D01*
X007410Y007027D02*
X007370Y007027D01*
X007370Y007185D02*
X007410Y007185D01*
X007410Y007344D02*
X007370Y007344D01*
X007370Y007502D02*
X007410Y007502D01*
X007410Y007661D02*
X007370Y007661D01*
X007370Y007819D02*
X007410Y007819D01*
X007741Y007819D02*
X008039Y007819D01*
X007039Y007819D02*
X004270Y007819D01*
X004270Y007661D02*
X006880Y007661D01*
X006750Y007502D02*
X004270Y007502D01*
X004270Y007344D02*
X004693Y007344D01*
X004460Y007185D02*
X004270Y007185D01*
X004270Y007027D02*
X004301Y007027D01*
X004270Y007978D02*
X012990Y007978D01*
X012990Y008136D02*
X004270Y008136D01*
X004270Y008295D02*
X012990Y008295D01*
X012990Y008453D02*
X004270Y008453D01*
X004270Y008612D02*
X012990Y008612D01*
X012990Y008770D02*
X004270Y008770D01*
X004270Y008929D02*
X012990Y008929D01*
X012990Y009087D02*
X004270Y009087D01*
X005765Y010265D02*
X006265Y009765D01*
X008140Y009765D01*
X010015Y011640D01*
X010015Y013140D02*
X007140Y010265D01*
X006765Y010265D01*
X007637Y010197D02*
X008006Y010197D01*
X008164Y010355D02*
X007796Y010355D01*
X011241Y007819D02*
X011539Y007819D01*
X012241Y007819D02*
X012539Y007819D01*
X006929Y006710D02*
X006409Y006710D01*
X006451Y006551D02*
X006771Y006551D01*
X006750Y006393D02*
X006485Y006393D01*
X006485Y006234D02*
X006750Y006234D01*
X006750Y006076D02*
X006477Y006076D01*
X006435Y005917D02*
X006833Y005917D01*
X006991Y005759D02*
X006381Y005759D01*
X006326Y006868D02*
X006882Y006868D01*
X006750Y007027D02*
X006229Y007027D01*
X006070Y007185D02*
X006750Y007185D01*
X006750Y007344D02*
X005837Y007344D01*
X004270Y004808D02*
X066502Y004808D01*
X066502Y004966D02*
X058621Y004966D01*
X058803Y005125D02*
X065308Y005125D01*
X066222Y005125D02*
X066502Y005125D01*
X066502Y004649D02*
X004270Y004649D01*
X004270Y004491D02*
X066502Y004491D01*
X062640Y005630D02*
X062640Y006265D01*
X062640Y006265D01*
X062640Y005630D01*
X062640Y005759D02*
X062640Y005759D01*
X062640Y005917D02*
X062640Y005917D01*
X062640Y006076D02*
X062640Y006076D01*
X062640Y006234D02*
X062640Y006234D01*
X062640Y006393D02*
X062640Y006393D01*
X062640Y006551D02*
X062640Y006551D01*
X062640Y006710D02*
X062640Y006710D01*
X062640Y006868D02*
X062640Y006868D01*
X062345Y006868D02*
X062120Y006868D01*
X062120Y006710D02*
X062186Y006710D01*
X061160Y006868D02*
X060773Y006868D01*
X060905Y007027D02*
X061160Y007027D01*
X061160Y007185D02*
X060905Y007185D01*
X060905Y007344D02*
X061160Y007344D01*
X061160Y007502D02*
X060905Y007502D01*
X060775Y007661D02*
X061160Y007661D01*
X061160Y007819D02*
X060616Y007819D01*
X059914Y007819D02*
X059616Y007819D01*
X059664Y005759D02*
X059866Y005759D01*
X060664Y005759D02*
X061248Y005759D01*
X062032Y005759D02*
X062248Y005759D01*
X062201Y009880D02*
X060880Y009880D01*
X061104Y010038D02*
X062359Y010038D01*
X060265Y013265D02*
X059765Y013765D01*
X022491Y005759D02*
X022289Y005759D01*
D16*
X022640Y008515D03*
X019515Y009515D03*
X017640Y009015D03*
X010015Y011640D03*
X010015Y013140D03*
X008640Y015265D03*
X010765Y016015D03*
X011140Y017140D03*
X014140Y016140D03*
X018515Y017265D03*
X019015Y016640D03*
X019515Y017265D03*
X020515Y017140D03*
X021390Y017140D03*
X009765Y024265D03*
X008765Y023765D03*
X012265Y027140D03*
X013265Y029140D03*
X013890Y029140D03*
X012765Y029890D03*
X011765Y029640D03*
X015765Y029140D03*
X016890Y028640D03*
X016265Y028140D03*
X013015Y035765D03*
X013015Y036765D03*
X036015Y017515D03*
X044640Y020265D03*
X044640Y021265D03*
X045890Y020765D03*
X051390Y023765D03*
X051390Y028140D03*
X052765Y031765D03*
X053640Y032765D03*
X052015Y035765D03*
X054515Y037765D03*
X060265Y034765D03*
X059765Y033765D03*
X060890Y030765D03*
X063140Y030265D03*
X063640Y028140D03*
X045890Y032765D03*
X044640Y032265D03*
X044640Y033265D03*
D17*
X050140Y029265D02*
X037640Y029265D01*
X037640Y028640D01*
X037640Y027265D01*
X037640Y029265D02*
X032640Y029265D01*
X032640Y028640D01*
X032640Y027265D01*
X032640Y029265D02*
X027640Y029265D01*
X027640Y028640D01*
X027640Y029265D02*
X022890Y029265D01*
X022890Y028640D01*
X022890Y029265D02*
X018890Y029265D01*
X018265Y028640D01*
X017640Y028640D01*
X017640Y027265D01*
X017640Y039265D02*
X017640Y040640D01*
X017640Y041890D01*
X009015Y041890D01*
X008390Y041265D01*
X008390Y040265D01*
X007390Y040265D01*
X007390Y041265D02*
X008390Y041265D01*
X017640Y041890D02*
X022640Y041890D01*
X022640Y040640D01*
X022640Y039265D01*
X022640Y041890D02*
X027640Y041890D01*
X027640Y040640D01*
X027640Y039265D01*
X027640Y041890D02*
X032640Y041890D01*
X032640Y040640D01*
X032640Y039265D01*
X032640Y041890D02*
X037640Y041890D01*
X037640Y040640D01*
X037640Y039265D01*
X037640Y041890D02*
X050140Y041890D01*
X050140Y040640D01*
X050140Y039265D01*
X050140Y041890D02*
X056265Y041890D01*
X065140Y033015D01*
X065140Y029265D01*
X050140Y029265D01*
X050140Y028640D01*
X065140Y029265D02*
X065140Y012140D01*
X061640Y008640D01*
X061640Y006265D01*
X060265Y006265D01*
X060265Y007265D01*
X059265Y007265D02*
X059265Y006265D01*
X058390Y005390D01*
X036640Y005390D01*
X036140Y005890D01*
X036140Y008890D01*
X035390Y008890D01*
X034390Y008890D01*
X036140Y008890D02*
X037390Y008890D01*
X040515Y012015D01*
X041640Y012015D01*
X043015Y012015D01*
X059265Y006265D02*
X060265Y006265D01*
M02*
