G75*
%MOIN*%
%OFA0B0*%
%FSLAX24Y24*%
%IPPOS*%
%LPD*%
%AMOC8*
5,1,8,0,0,1.08239X$1,22.5*
%
%ADD10C,0.1180*%
%ADD11C,0.0640*%
%ADD12OC8,0.0640*%
%ADD13OC8,0.0720*%
%ADD14OC8,0.0710*%
%ADD15C,0.0710*%
%ADD16C,0.0580*%
D10*
X005265Y006265D03*
X005265Y041265D03*
X065765Y041265D03*
X065765Y006265D03*
D11*
X049015Y008735D02*
X049015Y009295D01*
X048015Y009295D02*
X048015Y008735D01*
X047015Y008735D02*
X047015Y009295D01*
X046015Y009295D02*
X046015Y008735D01*
X045015Y008735D02*
X045015Y009295D01*
X044015Y009295D02*
X044015Y008735D01*
X043015Y008735D02*
X043015Y009295D01*
X043015Y011735D02*
X043015Y012295D01*
X044015Y012295D02*
X044015Y011735D01*
X045015Y011735D02*
X045015Y012295D01*
X046015Y012295D02*
X046015Y011735D01*
X047015Y011735D02*
X047015Y012295D01*
X048015Y012295D02*
X048015Y011735D01*
X049015Y011735D02*
X049015Y012295D01*
X049860Y018265D02*
X050420Y018265D01*
X050420Y019265D02*
X049860Y019265D01*
X049860Y020265D02*
X050420Y020265D01*
X050420Y021265D02*
X049860Y021265D01*
X049860Y022265D02*
X050420Y022265D01*
X050420Y023265D02*
X049860Y023265D01*
X049860Y024265D02*
X050420Y024265D01*
X050420Y025265D02*
X049860Y025265D01*
X049860Y026265D02*
X050420Y026265D01*
X050420Y027265D02*
X049860Y027265D01*
X047420Y027265D02*
X046860Y027265D01*
X046860Y026265D02*
X047420Y026265D01*
X047420Y025265D02*
X046860Y025265D01*
X046860Y024265D02*
X047420Y024265D01*
X047420Y023265D02*
X046860Y023265D01*
X046860Y022265D02*
X047420Y022265D01*
X047420Y021265D02*
X046860Y021265D01*
X046860Y020265D02*
X047420Y020265D01*
X047420Y019265D02*
X046860Y019265D01*
X046860Y018265D02*
X047420Y018265D01*
X037920Y018265D02*
X037360Y018265D01*
X037360Y019265D02*
X037920Y019265D01*
X037920Y020265D02*
X037360Y020265D01*
X037360Y021265D02*
X037920Y021265D01*
X037920Y022265D02*
X037360Y022265D01*
X037360Y023265D02*
X037920Y023265D01*
X037920Y024265D02*
X037360Y024265D01*
X037360Y025265D02*
X037920Y025265D01*
X037920Y026265D02*
X037360Y026265D01*
X037360Y027265D02*
X037920Y027265D01*
X034920Y027265D02*
X034360Y027265D01*
X034360Y026265D02*
X034920Y026265D01*
X034920Y025265D02*
X034360Y025265D01*
X034360Y024265D02*
X034920Y024265D01*
X034920Y023265D02*
X034360Y023265D01*
X034360Y022265D02*
X034920Y022265D01*
X034920Y021265D02*
X034360Y021265D01*
X034360Y020265D02*
X034920Y020265D01*
X034920Y019265D02*
X034360Y019265D01*
X034360Y018265D02*
X034920Y018265D01*
X032920Y018265D02*
X032360Y018265D01*
X032360Y019265D02*
X032920Y019265D01*
X032920Y020265D02*
X032360Y020265D01*
X032360Y021265D02*
X032920Y021265D01*
X032920Y022265D02*
X032360Y022265D01*
X032360Y023265D02*
X032920Y023265D01*
X032920Y024265D02*
X032360Y024265D01*
X032360Y025265D02*
X032920Y025265D01*
X032920Y026265D02*
X032360Y026265D01*
X032360Y027265D02*
X032920Y027265D01*
X029920Y027265D02*
X029360Y027265D01*
X029360Y026265D02*
X029920Y026265D01*
X029920Y025265D02*
X029360Y025265D01*
X029360Y024265D02*
X029920Y024265D01*
X029920Y023265D02*
X029360Y023265D01*
X029360Y022265D02*
X029920Y022265D01*
X029920Y021265D02*
X029360Y021265D01*
X029360Y020265D02*
X029920Y020265D01*
X029920Y019265D02*
X029360Y019265D01*
X029360Y018265D02*
X029920Y018265D01*
X027920Y018265D02*
X027360Y018265D01*
X027360Y019265D02*
X027920Y019265D01*
X027920Y020265D02*
X027360Y020265D01*
X027360Y021265D02*
X027920Y021265D01*
X027920Y022265D02*
X027360Y022265D01*
X027360Y023265D02*
X027920Y023265D01*
X027920Y024265D02*
X027360Y024265D01*
X027360Y025265D02*
X027920Y025265D01*
X027920Y026265D02*
X027360Y026265D01*
X027360Y027265D02*
X027920Y027265D01*
X024920Y027265D02*
X024360Y027265D01*
X024360Y026265D02*
X024920Y026265D01*
X024920Y025265D02*
X024360Y025265D01*
X024360Y024265D02*
X024920Y024265D01*
X024920Y023265D02*
X024360Y023265D01*
X024360Y022265D02*
X024920Y022265D01*
X024920Y021265D02*
X024360Y021265D01*
X024360Y020265D02*
X024920Y020265D01*
X024920Y019265D02*
X024360Y019265D01*
X024360Y018265D02*
X024920Y018265D01*
X022920Y018265D02*
X022360Y018265D01*
X022360Y019265D02*
X022920Y019265D01*
X022920Y020265D02*
X022360Y020265D01*
X022360Y021265D02*
X022920Y021265D01*
X022920Y022265D02*
X022360Y022265D01*
X022360Y023265D02*
X022920Y023265D01*
X022920Y024265D02*
X022360Y024265D01*
X022360Y025265D02*
X022920Y025265D01*
X022920Y026265D02*
X022360Y026265D01*
X022360Y027265D02*
X022920Y027265D01*
X019920Y027265D02*
X019360Y027265D01*
X019360Y026265D02*
X019920Y026265D01*
X019920Y025265D02*
X019360Y025265D01*
X019360Y024265D02*
X019920Y024265D01*
X019920Y023265D02*
X019360Y023265D01*
X019360Y022265D02*
X019920Y022265D01*
X019920Y021265D02*
X019360Y021265D01*
X019360Y020265D02*
X019920Y020265D01*
X019920Y019265D02*
X019360Y019265D01*
X019360Y018265D02*
X019920Y018265D01*
X017920Y018265D02*
X017360Y018265D01*
X017360Y019265D02*
X017920Y019265D01*
X017920Y020265D02*
X017360Y020265D01*
X017360Y021265D02*
X017920Y021265D01*
X017920Y022265D02*
X017360Y022265D01*
X017360Y023265D02*
X017920Y023265D01*
X017920Y024265D02*
X017360Y024265D01*
X017360Y025265D02*
X017920Y025265D01*
X017920Y026265D02*
X017360Y026265D01*
X017360Y027265D02*
X017920Y027265D01*
X014920Y027265D02*
X014360Y027265D01*
X014360Y026265D02*
X014920Y026265D01*
X014920Y025265D02*
X014360Y025265D01*
X014360Y024265D02*
X014920Y024265D01*
X014920Y023265D02*
X014360Y023265D01*
X014360Y022265D02*
X014920Y022265D01*
X014920Y021265D02*
X014360Y021265D01*
X014360Y020265D02*
X014920Y020265D01*
X014920Y019265D02*
X014360Y019265D01*
X014360Y018265D02*
X014920Y018265D01*
X028390Y012170D02*
X028390Y011610D01*
X029390Y011610D02*
X029390Y012170D01*
X030390Y012170D02*
X030390Y011610D01*
X031390Y011610D02*
X031390Y012170D01*
X032390Y012170D02*
X032390Y011610D01*
X033390Y011610D02*
X033390Y012170D01*
X034390Y012170D02*
X034390Y011610D01*
X034390Y009170D02*
X034390Y008610D01*
X033390Y008610D02*
X033390Y009170D01*
X032390Y009170D02*
X032390Y008610D01*
X031390Y008610D02*
X031390Y009170D01*
X030390Y009170D02*
X030390Y008610D01*
X029390Y008610D02*
X029390Y009170D01*
X028390Y009170D02*
X028390Y008610D01*
X027920Y030265D02*
X027360Y030265D01*
X027360Y031265D02*
X027920Y031265D01*
X027920Y032265D02*
X027360Y032265D01*
X027360Y033265D02*
X027920Y033265D01*
X027920Y034265D02*
X027360Y034265D01*
X027360Y035265D02*
X027920Y035265D01*
X027920Y036265D02*
X027360Y036265D01*
X027360Y037265D02*
X027920Y037265D01*
X027920Y038265D02*
X027360Y038265D01*
X027360Y039265D02*
X027920Y039265D01*
X029360Y039265D02*
X029920Y039265D01*
X029920Y038265D02*
X029360Y038265D01*
X029360Y037265D02*
X029920Y037265D01*
X029920Y036265D02*
X029360Y036265D01*
X029360Y035265D02*
X029920Y035265D01*
X029920Y034265D02*
X029360Y034265D01*
X029360Y033265D02*
X029920Y033265D01*
X029920Y032265D02*
X029360Y032265D01*
X029360Y031265D02*
X029920Y031265D01*
X029920Y030265D02*
X029360Y030265D01*
X032360Y030265D02*
X032920Y030265D01*
X032920Y031265D02*
X032360Y031265D01*
X032360Y032265D02*
X032920Y032265D01*
X032920Y033265D02*
X032360Y033265D01*
X032360Y034265D02*
X032920Y034265D01*
X032920Y035265D02*
X032360Y035265D01*
X032360Y036265D02*
X032920Y036265D01*
X032920Y037265D02*
X032360Y037265D01*
X032360Y038265D02*
X032920Y038265D01*
X034360Y038265D02*
X034920Y038265D01*
X034920Y037265D02*
X034360Y037265D01*
X034360Y036265D02*
X034920Y036265D01*
X034920Y035265D02*
X034360Y035265D01*
X034360Y034265D02*
X034920Y034265D01*
X034920Y033265D02*
X034360Y033265D01*
X034360Y032265D02*
X034920Y032265D01*
X034920Y031265D02*
X034360Y031265D01*
X034360Y030265D02*
X034920Y030265D01*
X037360Y030265D02*
X037920Y030265D01*
X037920Y031265D02*
X037360Y031265D01*
X037360Y032265D02*
X037920Y032265D01*
X037920Y033265D02*
X037360Y033265D01*
X037360Y034265D02*
X037920Y034265D01*
X037920Y035265D02*
X037360Y035265D01*
X037360Y036265D02*
X037920Y036265D01*
X037920Y037265D02*
X037360Y037265D01*
X037360Y038265D02*
X037920Y038265D01*
X037920Y039265D02*
X037360Y039265D01*
X034920Y039265D02*
X034360Y039265D01*
X032920Y039265D02*
X032360Y039265D01*
X024920Y039265D02*
X024360Y039265D01*
X022920Y039265D02*
X022360Y039265D01*
X022360Y038265D02*
X022920Y038265D01*
X022920Y037265D02*
X022360Y037265D01*
X022360Y036265D02*
X022920Y036265D01*
X022920Y035265D02*
X022360Y035265D01*
X022360Y034265D02*
X022920Y034265D01*
X022920Y033265D02*
X022360Y033265D01*
X022360Y032265D02*
X022920Y032265D01*
X022920Y031265D02*
X022360Y031265D01*
X022360Y030265D02*
X022920Y030265D01*
X024360Y030265D02*
X024920Y030265D01*
X024920Y031265D02*
X024360Y031265D01*
X024360Y032265D02*
X024920Y032265D01*
X024920Y033265D02*
X024360Y033265D01*
X024360Y034265D02*
X024920Y034265D01*
X024920Y035265D02*
X024360Y035265D01*
X024360Y036265D02*
X024920Y036265D01*
X024920Y037265D02*
X024360Y037265D01*
X024360Y038265D02*
X024920Y038265D01*
X019920Y038265D02*
X019360Y038265D01*
X019360Y037265D02*
X019920Y037265D01*
X019920Y036265D02*
X019360Y036265D01*
X019360Y035265D02*
X019920Y035265D01*
X019920Y034265D02*
X019360Y034265D01*
X019360Y033265D02*
X019920Y033265D01*
X019920Y032265D02*
X019360Y032265D01*
X019360Y031265D02*
X019920Y031265D01*
X019920Y030265D02*
X019360Y030265D01*
X017920Y030265D02*
X017360Y030265D01*
X017360Y031265D02*
X017920Y031265D01*
X017920Y032265D02*
X017360Y032265D01*
X017360Y033265D02*
X017920Y033265D01*
X017920Y034265D02*
X017360Y034265D01*
X017360Y035265D02*
X017920Y035265D01*
X017920Y036265D02*
X017360Y036265D01*
X017360Y037265D02*
X017920Y037265D01*
X017920Y038265D02*
X017360Y038265D01*
X017360Y039265D02*
X017920Y039265D01*
X019360Y039265D02*
X019920Y039265D01*
X014920Y039265D02*
X014360Y039265D01*
X014360Y038265D02*
X014920Y038265D01*
X014920Y037265D02*
X014360Y037265D01*
X014360Y036265D02*
X014920Y036265D01*
X014920Y035265D02*
X014360Y035265D01*
X014360Y034265D02*
X014920Y034265D01*
X014920Y033265D02*
X014360Y033265D01*
X014360Y032265D02*
X014920Y032265D01*
X014920Y031265D02*
X014360Y031265D01*
X014360Y030265D02*
X014920Y030265D01*
X046860Y030265D02*
X047420Y030265D01*
X047420Y031265D02*
X046860Y031265D01*
X046860Y032265D02*
X047420Y032265D01*
X047420Y033265D02*
X046860Y033265D01*
X046860Y034265D02*
X047420Y034265D01*
X047420Y035265D02*
X046860Y035265D01*
X046860Y036265D02*
X047420Y036265D01*
X047420Y037265D02*
X046860Y037265D01*
X046860Y038265D02*
X047420Y038265D01*
X047420Y039265D02*
X046860Y039265D01*
X049860Y039265D02*
X050420Y039265D01*
X050420Y038265D02*
X049860Y038265D01*
X049860Y037265D02*
X050420Y037265D01*
X050420Y036265D02*
X049860Y036265D01*
X049860Y035265D02*
X050420Y035265D01*
X050420Y034265D02*
X049860Y034265D01*
X049860Y033265D02*
X050420Y033265D01*
X050420Y032265D02*
X049860Y032265D01*
X049860Y031265D02*
X050420Y031265D01*
X050420Y030265D02*
X049860Y030265D01*
D12*
X050140Y028640D03*
X048140Y028640D03*
X037640Y028640D03*
X035640Y028640D03*
X032640Y028640D03*
X030640Y028640D03*
X027640Y028640D03*
X025640Y028640D03*
X022890Y028640D03*
X020890Y028640D03*
X019640Y028640D03*
X017640Y028640D03*
X017640Y040640D03*
X015640Y040640D03*
X020640Y040640D03*
X022640Y040640D03*
X025640Y040640D03*
X027640Y040640D03*
X030640Y040640D03*
X032640Y040640D03*
X035640Y040640D03*
X037640Y040640D03*
X048140Y040640D03*
X050140Y040640D03*
X041640Y012015D03*
X041640Y010015D03*
X035390Y008890D03*
X035390Y006890D03*
D13*
X033890Y007265D03*
X032890Y007265D03*
X032890Y006265D03*
X033890Y006265D03*
X031890Y006265D03*
X030890Y006265D03*
X029890Y006265D03*
X029890Y007265D03*
X030890Y007265D03*
X031890Y007265D03*
X028890Y007265D03*
X027890Y007265D03*
X027890Y006265D03*
X028890Y006265D03*
X026890Y006265D03*
X025890Y006265D03*
X024890Y006265D03*
X024890Y007265D03*
X025890Y007265D03*
X026890Y007265D03*
X023890Y007265D03*
X022890Y007265D03*
X022890Y006265D03*
X023890Y006265D03*
X021890Y006265D03*
X020890Y006265D03*
X019890Y006265D03*
X019890Y007265D03*
X020890Y007265D03*
X021890Y007265D03*
X018890Y007265D03*
X017890Y007265D03*
X017890Y006265D03*
X018890Y006265D03*
X016890Y006265D03*
X015890Y006265D03*
X015890Y007265D03*
X016890Y007265D03*
X014890Y007265D03*
X013890Y007265D03*
X012890Y007265D03*
X012890Y006265D03*
X013890Y006265D03*
X014890Y006265D03*
X011890Y006265D03*
X010890Y006265D03*
X010890Y007265D03*
X011890Y007265D03*
X008390Y007265D03*
X007390Y007265D03*
X007390Y006265D03*
X008390Y006265D03*
X006765Y010265D03*
X005765Y010265D03*
X005765Y011265D03*
X006765Y011265D03*
X006765Y012265D03*
X005765Y012265D03*
X005765Y013265D03*
X006765Y013265D03*
X006765Y014265D03*
X005765Y014265D03*
X005765Y015265D03*
X006765Y015265D03*
X006765Y016265D03*
X005765Y016265D03*
X005765Y017265D03*
X006765Y017265D03*
X006765Y020265D03*
X005765Y020265D03*
X005765Y021265D03*
X006765Y021265D03*
X006765Y022265D03*
X005765Y022265D03*
X005765Y023265D03*
X006765Y023265D03*
X006765Y024265D03*
X005765Y024265D03*
X005765Y025265D03*
X006765Y025265D03*
X006765Y026265D03*
X005765Y026265D03*
X005765Y027265D03*
X006765Y027265D03*
X006765Y030265D03*
X005765Y030265D03*
X005765Y031265D03*
X006765Y031265D03*
X006765Y032265D03*
X005765Y032265D03*
X005765Y033265D03*
X006765Y033265D03*
X006765Y034265D03*
X005765Y034265D03*
X005765Y035265D03*
X006765Y035265D03*
X006765Y036265D03*
X005765Y036265D03*
X005765Y037265D03*
X006765Y037265D03*
X007390Y040265D03*
X008390Y040265D03*
X008390Y041265D03*
X007390Y041265D03*
X036890Y007265D03*
X037890Y007265D03*
X038890Y007265D03*
X038890Y006265D03*
X037890Y006265D03*
X036890Y006265D03*
X039890Y006265D03*
X040890Y006265D03*
X040890Y007265D03*
X039890Y007265D03*
X041890Y007265D03*
X042890Y007265D03*
X043890Y007265D03*
X043890Y006265D03*
X042890Y006265D03*
X041890Y006265D03*
X044890Y006265D03*
X045890Y006265D03*
X045890Y007265D03*
X044890Y007265D03*
X046890Y007265D03*
X047890Y007265D03*
X048890Y007265D03*
X048890Y006265D03*
X047890Y006265D03*
X046890Y006265D03*
X049890Y006265D03*
X050890Y006265D03*
X050890Y007265D03*
X049890Y007265D03*
X051890Y007265D03*
X052890Y007265D03*
X052890Y006265D03*
X051890Y006265D03*
X053890Y006265D03*
X053890Y007265D03*
X059265Y007265D03*
X060265Y007265D03*
X060265Y006265D03*
X059265Y006265D03*
X059265Y010265D03*
X060265Y010265D03*
X060265Y011265D03*
X059265Y011265D03*
X059265Y012265D03*
X060265Y012265D03*
X060265Y013265D03*
X059265Y013265D03*
X059265Y014265D03*
X060265Y014265D03*
X060265Y015265D03*
X059265Y015265D03*
X059265Y016265D03*
X060265Y016265D03*
X060265Y017265D03*
X059265Y017265D03*
X059265Y040265D03*
X060265Y040265D03*
X060265Y041265D03*
X059265Y041265D03*
D14*
X062640Y006265D03*
D15*
X061640Y006265D03*
D16*
X044640Y020265D03*
X044640Y021265D03*
X045890Y020765D03*
X051390Y023765D03*
X051390Y028140D03*
X052765Y031765D03*
X053640Y032765D03*
X052015Y035765D03*
X054515Y037765D03*
X060265Y034765D03*
X059765Y033765D03*
X060890Y030765D03*
X063140Y030265D03*
X063640Y028140D03*
X045890Y032765D03*
X044640Y032265D03*
X044640Y033265D03*
X036015Y017515D03*
X022640Y008515D03*
X019515Y009515D03*
X017640Y009015D03*
X010015Y011640D03*
X010015Y013140D03*
X008640Y015265D03*
X010765Y016015D03*
X011140Y017140D03*
X014140Y016140D03*
X018515Y017265D03*
X019015Y016640D03*
X019515Y017265D03*
X020515Y017140D03*
X021390Y017140D03*
X009765Y024265D03*
X008765Y023765D03*
X012265Y027140D03*
X013265Y029140D03*
X013890Y029140D03*
X012765Y029890D03*
X011765Y029640D03*
X015765Y029140D03*
X016890Y028640D03*
X016265Y028140D03*
X013015Y035765D03*
X013015Y036765D03*
M02*
