G75*
G70*
%OFA0B0*%
%FSLAX24Y24*%
%IPPOS*%
%LPD*%
%AMOC8*
5,1,8,0,0,1.08239X$1,22.5*
%
%ADD10R,0.0640X0.0640*%
%ADD11C,0.0060*%
%ADD12R,0.0710X0.0710*%
%ADD13C,0.1180*%
%ADD14R,0.0830X0.0830*%
%ADD15R,0.0720X0.0720*%
%ADD16R,0.2080X0.2080*%
D10*
X014734Y013802D03*
X015734Y013802D03*
X016734Y013802D03*
X017734Y013802D03*
X018734Y013802D03*
X019734Y013802D03*
X020734Y013802D03*
X021734Y013802D03*
X021734Y016802D03*
X020734Y016802D03*
X019734Y016802D03*
X018734Y016802D03*
X017734Y016802D03*
X016734Y016802D03*
X015734Y016802D03*
X014734Y016802D03*
X012722Y016696D03*
X012722Y014696D03*
X014734Y022264D03*
X015734Y022264D03*
X016734Y022264D03*
X017734Y022264D03*
X018734Y022264D03*
X019734Y022264D03*
X020734Y022264D03*
X021734Y022264D03*
X021734Y025264D03*
X020734Y025264D03*
X019734Y025264D03*
X018734Y025264D03*
X017734Y025264D03*
X016734Y025264D03*
X015734Y025264D03*
X014734Y025264D03*
X012722Y025157D03*
X012722Y023157D03*
X014734Y031912D03*
X015734Y031912D03*
X016734Y031912D03*
X017734Y031912D03*
X018734Y031912D03*
X019734Y031912D03*
X020734Y031912D03*
X021734Y031912D03*
X021734Y034912D03*
X020734Y034912D03*
X019734Y034912D03*
X018734Y034912D03*
X017734Y034912D03*
X016734Y034912D03*
X015734Y034912D03*
X014734Y034912D03*
X012722Y034806D03*
X012722Y032806D03*
X014734Y040374D03*
X015734Y040374D03*
X016734Y040374D03*
X017734Y040374D03*
X018734Y040374D03*
X019734Y040374D03*
X020734Y040374D03*
X021734Y040374D03*
X021734Y043374D03*
X020734Y043374D03*
X019734Y043374D03*
X018734Y043374D03*
X017734Y043374D03*
X016734Y043374D03*
X015734Y043374D03*
X014734Y043374D03*
X012722Y043268D03*
X012722Y041268D03*
X027925Y038461D03*
X027925Y037461D03*
X027925Y036461D03*
X027925Y035461D03*
X027925Y034461D03*
X027925Y033461D03*
X027925Y032461D03*
X027925Y031461D03*
X027925Y030461D03*
X027925Y029461D03*
X027925Y028461D03*
X027925Y027461D03*
X027925Y026461D03*
X027925Y025461D03*
X027925Y024461D03*
X027925Y023461D03*
X027925Y022461D03*
X027925Y021461D03*
X027925Y020461D03*
X027925Y019461D03*
X033925Y019461D03*
X033925Y020461D03*
X033925Y021461D03*
X033925Y022461D03*
X033925Y023461D03*
X033925Y024461D03*
X033925Y025461D03*
X033925Y026461D03*
X033925Y027461D03*
X033925Y028461D03*
X033925Y029461D03*
X033925Y030461D03*
X033925Y031461D03*
X033925Y032461D03*
X033925Y033461D03*
X033925Y034461D03*
X033925Y035461D03*
X033925Y036461D03*
X033925Y037461D03*
X033925Y038461D03*
X033662Y040004D03*
X031662Y040004D03*
X038439Y038462D03*
X038439Y037462D03*
X038439Y036462D03*
X038439Y035462D03*
X038439Y034462D03*
X038439Y033462D03*
X038439Y032462D03*
X038439Y031462D03*
X038439Y030462D03*
X038439Y029462D03*
X038439Y028462D03*
X038439Y027462D03*
X038439Y026462D03*
X038439Y025462D03*
X038439Y024462D03*
X038439Y023462D03*
X038439Y022462D03*
X038439Y021462D03*
X038439Y020462D03*
X038439Y019462D03*
X037612Y014944D03*
X037612Y011944D03*
X043612Y011944D03*
X043612Y014944D03*
X044439Y019462D03*
X044439Y020462D03*
X044439Y021462D03*
X044439Y022462D03*
X044439Y023462D03*
X044439Y024462D03*
X044439Y025462D03*
X044439Y026462D03*
X044439Y027462D03*
X044439Y028462D03*
X044439Y029462D03*
X044439Y030462D03*
X044439Y031462D03*
X044439Y032462D03*
X044439Y033462D03*
X044439Y034462D03*
X044439Y035462D03*
X044439Y036462D03*
X044439Y037462D03*
X044439Y038462D03*
X044177Y040004D03*
X042177Y040004D03*
X054598Y040178D03*
X054598Y041178D03*
X054598Y042178D03*
X056473Y041678D03*
X056473Y040678D03*
X056473Y039678D03*
X056473Y038678D03*
X056473Y037678D03*
X056473Y036678D03*
X056473Y035678D03*
X056473Y034678D03*
X056473Y033678D03*
X054598Y034178D03*
X054598Y035178D03*
X054598Y036178D03*
X054598Y037178D03*
X054598Y038178D03*
X054598Y039178D03*
X056473Y042678D03*
X057473Y044303D03*
X059473Y044303D03*
X059473Y042678D03*
X059473Y041678D03*
X059473Y040678D03*
X059473Y039678D03*
X059473Y038678D03*
X059473Y037678D03*
X059473Y036678D03*
X059473Y035678D03*
X059473Y034678D03*
X059473Y033678D03*
X059395Y030621D03*
X058395Y030621D03*
X057395Y030621D03*
X056395Y030621D03*
X055395Y030621D03*
X054395Y030621D03*
X053395Y030621D03*
X051680Y030475D03*
X051680Y028475D03*
X053395Y027621D03*
X054395Y027621D03*
X055395Y027621D03*
X056395Y027621D03*
X057395Y027621D03*
X058395Y027621D03*
X059395Y027621D03*
X059395Y026075D03*
X058395Y026075D03*
X057395Y026075D03*
X056395Y026075D03*
X055395Y026075D03*
X054395Y026075D03*
X053395Y026075D03*
X051668Y025804D03*
X051668Y023804D03*
X053395Y023075D03*
X054395Y023075D03*
X055395Y023075D03*
X056395Y023075D03*
X057395Y023075D03*
X058395Y023075D03*
X059395Y023075D03*
X059354Y020167D03*
X059585Y018549D03*
X059585Y017549D03*
X059585Y016549D03*
X059585Y015549D03*
X059585Y014549D03*
X059585Y013549D03*
X059585Y012549D03*
X059585Y011549D03*
X056585Y011549D03*
X056585Y012549D03*
X056585Y013549D03*
X056585Y014549D03*
X056585Y015549D03*
X056585Y016549D03*
X056585Y017549D03*
X056585Y018549D03*
X057354Y020167D03*
X054174Y019127D03*
X054247Y017485D03*
X054247Y016485D03*
X054247Y015485D03*
X054247Y014485D03*
X054247Y013485D03*
X054247Y012485D03*
X054247Y011485D03*
X051247Y011485D03*
X051247Y012485D03*
X051247Y013485D03*
X051247Y014485D03*
X051247Y015485D03*
X051247Y016485D03*
X051247Y017485D03*
X052174Y019127D03*
D11*
X004948Y010423D02*
X004948Y007423D01*
X007948Y007423D01*
X004948Y043803D02*
X004948Y046803D01*
X007948Y046803D01*
X064948Y046803D02*
X067948Y046803D01*
X067948Y043803D01*
X067948Y010423D02*
X067948Y007423D01*
X064948Y007423D01*
D12*
X065848Y011613D03*
X065848Y012613D03*
X065848Y013613D03*
X065848Y014613D03*
X065848Y015613D03*
X065848Y016613D03*
X065848Y017613D03*
X065848Y018613D03*
X065848Y019613D03*
X065848Y020613D03*
X065848Y021613D03*
X065848Y022613D03*
X065848Y023613D03*
X065848Y024613D03*
X065848Y025613D03*
X065848Y026613D03*
X065848Y027613D03*
X065848Y028613D03*
X065848Y029613D03*
X065848Y030613D03*
X065848Y031613D03*
X065848Y032613D03*
X065848Y033613D03*
X065848Y034613D03*
X065848Y035613D03*
X065848Y036613D03*
X065848Y037613D03*
X065848Y038613D03*
X065848Y039613D03*
X065848Y040613D03*
X065848Y041613D03*
X065848Y042613D03*
X063848Y042613D03*
X063848Y041613D03*
X063848Y040613D03*
X063848Y039613D03*
X063848Y038613D03*
X063848Y037613D03*
X063848Y036613D03*
X063848Y035613D03*
X063848Y034613D03*
X063848Y033613D03*
X063848Y032613D03*
X063848Y031613D03*
X063848Y030613D03*
X063848Y029613D03*
X063848Y028613D03*
X063848Y027613D03*
X063848Y026613D03*
X063848Y025613D03*
X063848Y024613D03*
X063848Y023613D03*
X063848Y022613D03*
X063848Y021613D03*
X063848Y020613D03*
X063848Y019613D03*
X063848Y018613D03*
X063848Y017613D03*
X063848Y016613D03*
X063848Y015613D03*
X063848Y014613D03*
X063848Y013613D03*
X063848Y012613D03*
X063848Y011613D03*
D13*
X066848Y009613D03*
X066848Y044613D03*
X006348Y044613D03*
X006348Y009613D03*
D14*
X010934Y011759D03*
X012934Y011759D03*
X014478Y011759D03*
X016478Y011759D03*
X018021Y011759D03*
X020021Y011759D03*
X021564Y011759D03*
X023564Y011759D03*
X023564Y020220D03*
X021564Y020220D03*
X019627Y020220D03*
X017627Y020220D03*
X016084Y020220D03*
X014084Y020220D03*
X012541Y020220D03*
X010541Y020220D03*
X010934Y029869D03*
X012934Y029869D03*
X014478Y029869D03*
X016478Y029869D03*
X018021Y029869D03*
X020021Y029869D03*
X021564Y029869D03*
X023564Y029869D03*
X023564Y038331D03*
X021564Y038331D03*
X019627Y038331D03*
X017627Y038331D03*
X016084Y038331D03*
X014084Y038331D03*
X012541Y038331D03*
X010541Y038331D03*
X061722Y009987D03*
X063722Y009987D03*
D15*
X008104Y015898D03*
X007104Y016438D03*
X008104Y016978D03*
X007104Y017518D03*
X008104Y018058D03*
X007104Y018598D03*
X008104Y019138D03*
X007104Y019678D03*
X008104Y020218D03*
X008104Y034008D03*
X007104Y034548D03*
X008104Y035088D03*
X007104Y035628D03*
X008104Y036168D03*
X007104Y036708D03*
X008104Y037248D03*
X007104Y037788D03*
X008104Y038328D03*
D16*
X007604Y041098D03*
X007604Y031238D03*
X007604Y022988D03*
X007604Y013128D03*
M02*
