G75*
G70*
%OFA0B0*%
%FSLAX24Y24*%
%IPPOS*%
%LPD*%
%AMOC8*
5,1,8,0,0,1.08239X$1,22.5*
%
%ADD10C,0.0100*%
%ADD11C,0.0560*%
%ADD12OC8,0.0560*%
%ADD13OC8,0.0640*%
%ADD14OC8,0.0630*%
%ADD15C,0.0080*%
%ADD16C,0.0400*%
%ADD17C,0.0500*%
D10*
X000361Y000361D02*
X000361Y039311D01*
X062933Y039311D01*
X062933Y000361D01*
X000361Y000361D01*
X000361Y000447D02*
X062933Y000447D01*
X062933Y000545D02*
X000361Y000545D01*
X000361Y000644D02*
X062933Y000644D01*
X062933Y000742D02*
X000361Y000742D01*
X000361Y000841D02*
X062933Y000841D01*
X062933Y000940D02*
X059564Y000940D01*
X059423Y000888D02*
X059831Y001037D01*
X059831Y001037D01*
X060164Y001316D01*
X060381Y001692D01*
X060457Y002120D01*
X060381Y002547D01*
X060381Y002547D01*
X060164Y002923D01*
X060164Y002923D01*
X059831Y003202D01*
X059423Y003351D01*
X058989Y003351D01*
X058581Y003202D01*
X058249Y002923D01*
X058031Y002547D01*
X057956Y002120D01*
X057956Y002120D01*
X058031Y001692D01*
X058249Y001316D01*
X058581Y001037D01*
X058581Y001037D01*
X058989Y000888D01*
X059423Y000888D01*
X059423Y000888D01*
X058989Y000888D02*
X058989Y000888D01*
X058849Y000940D02*
X002477Y000940D01*
X002337Y000888D02*
X002745Y001037D01*
X003077Y001316D01*
X003295Y001692D01*
X003370Y002120D01*
X003295Y002547D01*
X003077Y002923D01*
X002745Y003202D01*
X002745Y003202D01*
X002337Y003351D01*
X002337Y003351D01*
X001903Y003351D01*
X001903Y003351D01*
X001495Y003202D01*
X001495Y003202D01*
X001162Y002923D01*
X000945Y002547D01*
X000869Y002120D01*
X000945Y001692D01*
X001162Y001316D01*
X001494Y001037D01*
X001495Y001037D01*
X001903Y000888D01*
X002337Y000888D01*
X002337Y000888D01*
X002745Y001037D02*
X002745Y001037D01*
X002746Y001038D02*
X058580Y001038D01*
X058462Y001137D02*
X002864Y001137D01*
X002981Y001235D02*
X058345Y001235D01*
X058249Y001316D02*
X058249Y001316D01*
X058249Y001316D01*
X058238Y001334D02*
X003088Y001334D01*
X003077Y001316D02*
X003077Y001316D01*
X003145Y001432D02*
X058181Y001432D01*
X058124Y001531D02*
X003201Y001531D01*
X003258Y001629D02*
X058068Y001629D01*
X058031Y001692D02*
X058031Y001692D01*
X058025Y001728D02*
X051133Y001728D01*
X051035Y001630D02*
X051322Y001917D01*
X051322Y002323D01*
X051035Y002610D01*
X050629Y002610D01*
X050342Y002323D01*
X050342Y001917D01*
X050629Y001630D01*
X051035Y001630D01*
X051232Y001826D02*
X058008Y001826D01*
X057990Y001925D02*
X051322Y001925D01*
X051322Y002024D02*
X057973Y002024D01*
X057956Y002122D02*
X051322Y002122D01*
X051322Y002221D02*
X057974Y002221D01*
X057991Y002319D02*
X051322Y002319D01*
X051227Y002418D02*
X058009Y002418D01*
X058026Y002516D02*
X051129Y002516D01*
X050536Y002516D02*
X040892Y002516D01*
X040799Y002610D02*
X041086Y002323D01*
X041086Y001917D01*
X040799Y001630D01*
X040393Y001630D01*
X040106Y001917D01*
X040106Y002323D01*
X040393Y002610D01*
X040799Y002610D01*
X040991Y002418D02*
X050437Y002418D01*
X050342Y002319D02*
X041086Y002319D01*
X041086Y002221D02*
X050342Y002221D01*
X050342Y002122D02*
X041086Y002122D01*
X041086Y002024D02*
X050342Y002024D01*
X050342Y001925D02*
X041086Y001925D01*
X040996Y001826D02*
X050433Y001826D01*
X050531Y001728D02*
X040897Y001728D01*
X040295Y001728D02*
X030661Y001728D01*
X030563Y001630D02*
X030850Y001917D01*
X030850Y002323D01*
X030563Y002610D01*
X030157Y002610D01*
X029870Y002323D01*
X029870Y001917D01*
X030157Y001630D01*
X030563Y001630D01*
X030759Y001826D02*
X040196Y001826D01*
X040106Y001925D02*
X030850Y001925D01*
X030850Y002024D02*
X040106Y002024D01*
X040106Y002122D02*
X030850Y002122D01*
X030850Y002221D02*
X040106Y002221D01*
X040106Y002319D02*
X030850Y002319D01*
X030755Y002418D02*
X040201Y002418D01*
X040300Y002516D02*
X030656Y002516D01*
X030063Y002516D02*
X020814Y002516D01*
X020720Y002610D02*
X020314Y002610D01*
X020027Y002323D01*
X020027Y001917D01*
X020314Y001630D01*
X020720Y001630D01*
X021007Y001917D01*
X021007Y002323D01*
X020720Y002610D01*
X020912Y002418D02*
X029965Y002418D01*
X029870Y002319D02*
X021007Y002319D01*
X021007Y002221D02*
X029870Y002221D01*
X029870Y002122D02*
X021007Y002122D01*
X021007Y002024D02*
X029870Y002024D01*
X029870Y001925D02*
X021007Y001925D01*
X020917Y001826D02*
X029960Y001826D01*
X030059Y001728D02*
X020818Y001728D01*
X020216Y001728D02*
X013732Y001728D01*
X013634Y001630D02*
X013921Y001917D01*
X013921Y002323D01*
X013634Y002610D01*
X013228Y002610D01*
X012941Y002323D01*
X012941Y001917D01*
X013228Y001630D01*
X013634Y001630D01*
X013830Y001826D02*
X020118Y001826D01*
X020027Y001925D02*
X013921Y001925D01*
X013921Y002024D02*
X020027Y002024D01*
X020027Y002122D02*
X013921Y002122D01*
X013921Y002221D02*
X020027Y002221D01*
X020027Y002319D02*
X013921Y002319D01*
X013826Y002418D02*
X020122Y002418D01*
X020221Y002516D02*
X013727Y002516D01*
X013134Y002516D02*
X003300Y002516D01*
X003295Y002547D02*
X003295Y002547D01*
X003256Y002615D02*
X058070Y002615D01*
X058031Y002547D02*
X058031Y002547D01*
X058127Y002713D02*
X003199Y002713D01*
X003142Y002812D02*
X014976Y002812D01*
X015001Y002801D02*
X036501Y002801D01*
X036601Y002801D01*
X036693Y002839D01*
X037195Y003341D01*
X037333Y003341D01*
X037483Y003404D01*
X037599Y003519D01*
X037661Y003670D01*
X037661Y003833D01*
X037633Y003901D01*
X038123Y003901D01*
X038113Y003879D01*
X038113Y003684D01*
X038188Y003504D01*
X038326Y003366D01*
X038506Y003291D01*
X039261Y003291D01*
X039441Y003366D01*
X039579Y003504D01*
X039653Y003684D01*
X039653Y003879D01*
X039603Y004001D01*
X044148Y004001D01*
X044159Y003989D01*
X044113Y003879D01*
X044113Y003684D01*
X044188Y003504D01*
X044326Y003366D01*
X044506Y003291D01*
X045261Y003291D01*
X045441Y003366D01*
X045579Y003504D01*
X045653Y003684D01*
X045653Y003879D01*
X045579Y004059D01*
X045536Y004101D01*
X055001Y004101D01*
X055093Y004139D01*
X055163Y004210D01*
X055795Y004841D01*
X055933Y004841D01*
X056083Y004904D01*
X056199Y005019D01*
X056261Y005170D01*
X056261Y005333D01*
X056199Y005483D01*
X056083Y005599D01*
X055933Y005661D01*
X055890Y005661D01*
X055890Y005699D01*
X055847Y005801D01*
X059610Y005801D01*
X059362Y005554D01*
X059362Y005119D01*
X059645Y004836D01*
X059362Y004554D01*
X059362Y004119D01*
X059670Y003811D01*
X060105Y003811D01*
X060387Y004094D01*
X060670Y003811D01*
X061105Y003811D01*
X061412Y004119D01*
X061412Y004554D01*
X061130Y004836D01*
X061412Y005119D01*
X061412Y005554D01*
X061130Y005836D01*
X061412Y006119D01*
X061412Y006459D01*
X061693Y006739D01*
X061763Y006810D01*
X061801Y006901D01*
X061801Y021801D01*
X061801Y021901D01*
X061763Y021993D01*
X061693Y022063D01*
X061601Y022101D01*
X061395Y022101D01*
X061412Y022119D01*
X061412Y022554D01*
X061130Y022836D01*
X061412Y023119D01*
X061412Y023554D01*
X061130Y023836D01*
X061412Y024119D01*
X061412Y024554D01*
X061130Y024836D01*
X061412Y025119D01*
X061412Y025554D01*
X061130Y025836D01*
X061412Y026119D01*
X061412Y026554D01*
X061130Y026836D01*
X061412Y027119D01*
X061412Y027554D01*
X061130Y027836D01*
X061412Y028119D01*
X061412Y028554D01*
X061130Y028836D01*
X061412Y029119D01*
X061412Y029554D01*
X061130Y029836D01*
X061412Y030119D01*
X061412Y030554D01*
X061260Y030706D01*
X061493Y030939D01*
X061563Y031010D01*
X061601Y031101D01*
X061601Y033801D01*
X061601Y033901D01*
X061563Y033993D01*
X061493Y034063D01*
X061401Y034101D01*
X054555Y034101D01*
X053963Y034693D01*
X053893Y034763D01*
X053838Y034786D01*
X053921Y034870D01*
X053996Y035050D01*
X053996Y035245D01*
X053921Y035425D01*
X053784Y035563D01*
X053603Y035637D01*
X052849Y035637D01*
X052668Y035563D01*
X052531Y035425D01*
X052456Y035245D01*
X052456Y035050D01*
X052476Y035001D01*
X050976Y035001D01*
X050996Y035050D01*
X050996Y035245D01*
X050921Y035425D01*
X050784Y035563D01*
X050603Y035637D01*
X050019Y035637D01*
X049999Y035657D01*
X050603Y035657D01*
X050784Y035732D01*
X050921Y035870D01*
X050996Y036050D01*
X050996Y036245D01*
X050921Y036425D01*
X050784Y036563D01*
X050603Y036637D01*
X050019Y036637D01*
X049893Y036763D01*
X049801Y036801D01*
X049701Y036801D01*
X045201Y036801D01*
X045110Y036763D01*
X045039Y036693D01*
X044248Y035901D01*
X043454Y035901D01*
X043516Y036050D01*
X043516Y036245D01*
X043441Y036425D01*
X043303Y036563D01*
X043123Y036637D01*
X042519Y036637D01*
X042193Y036963D01*
X042101Y037001D01*
X042001Y037001D01*
X034633Y037001D01*
X034661Y037070D01*
X034661Y037233D01*
X034599Y037383D01*
X034483Y037499D01*
X036413Y037499D01*
X036456Y037456D02*
X036862Y037456D01*
X037149Y037744D01*
X037149Y038149D01*
X036862Y038436D01*
X036456Y038436D01*
X036169Y038149D01*
X036169Y037744D01*
X036456Y037456D01*
X036315Y037598D02*
X029523Y037598D01*
X029621Y037696D02*
X036216Y037696D01*
X036169Y037795D02*
X029669Y037795D01*
X029669Y037744D02*
X029382Y037456D01*
X028976Y037456D01*
X028689Y037744D01*
X028689Y038149D01*
X028976Y038436D01*
X029382Y038436D01*
X029669Y038149D01*
X029669Y037744D01*
X029669Y037893D02*
X036169Y037893D01*
X036169Y037992D02*
X029669Y037992D01*
X029669Y038090D02*
X036169Y038090D01*
X036209Y038189D02*
X029629Y038189D01*
X029531Y038287D02*
X036307Y038287D01*
X036406Y038386D02*
X029432Y038386D01*
X028925Y038386D02*
X021164Y038386D01*
X021114Y038436D02*
X020708Y038436D01*
X020421Y038149D01*
X020421Y037744D01*
X020708Y037456D01*
X021114Y037456D01*
X021401Y037744D01*
X021401Y038149D01*
X021114Y038436D01*
X021263Y038287D02*
X028827Y038287D01*
X028728Y038189D02*
X021361Y038189D01*
X021401Y038090D02*
X028689Y038090D01*
X028689Y037992D02*
X021401Y037992D01*
X021401Y037893D02*
X028689Y037893D01*
X028689Y037795D02*
X021401Y037795D01*
X021354Y037696D02*
X028736Y037696D01*
X028835Y037598D02*
X021255Y037598D01*
X021157Y037499D02*
X028933Y037499D01*
X029424Y037499D02*
X034020Y037499D01*
X034019Y037499D02*
X033921Y037401D01*
X020201Y037401D01*
X020110Y037363D01*
X020108Y037361D01*
X019970Y037361D01*
X019819Y037299D01*
X019704Y037183D01*
X019641Y037033D01*
X019641Y036870D01*
X019662Y036818D01*
X019140Y036818D01*
X018960Y036744D01*
X018822Y036606D01*
X018747Y036426D01*
X018747Y036231D01*
X018816Y036066D01*
X018810Y036063D01*
X018808Y036061D01*
X018670Y036061D01*
X018519Y035999D01*
X018404Y035883D01*
X018341Y035733D01*
X018341Y035570D01*
X018404Y035419D01*
X018519Y035304D01*
X018670Y035241D01*
X018747Y035241D01*
X018747Y035231D01*
X018822Y035051D01*
X018960Y034913D01*
X019140Y034838D01*
X019895Y034838D01*
X020075Y034913D01*
X020213Y035051D01*
X020287Y035231D01*
X020287Y035426D01*
X020215Y035601D01*
X021101Y035601D01*
X021201Y035601D01*
X021293Y035639D01*
X022155Y036501D01*
X026848Y036501D01*
X026448Y036101D01*
X022001Y036101D01*
X021910Y036063D01*
X021839Y035993D01*
X020283Y034436D01*
X020213Y034606D01*
X020075Y034744D01*
X019895Y034818D01*
X019140Y034818D01*
X018960Y034744D01*
X018822Y034606D01*
X018747Y034426D01*
X018747Y034231D01*
X018822Y034051D01*
X018960Y033913D01*
X019140Y033838D01*
X019685Y033838D01*
X019665Y033818D01*
X019140Y033818D01*
X018960Y033744D01*
X018822Y033606D01*
X018747Y033426D01*
X018747Y033231D01*
X018822Y033051D01*
X018872Y033001D01*
X016076Y033001D01*
X016126Y033051D01*
X016201Y033231D01*
X016201Y033426D01*
X016126Y033606D01*
X015988Y033744D01*
X015808Y033818D01*
X015238Y033818D01*
X015217Y033838D01*
X015808Y033838D01*
X015988Y033913D01*
X016126Y034051D01*
X016201Y034231D01*
X016201Y034426D01*
X016126Y034606D01*
X015988Y034744D01*
X015808Y034818D01*
X015053Y034818D01*
X014873Y034744D01*
X014735Y034606D01*
X014661Y034426D01*
X014661Y034231D01*
X014735Y034051D01*
X014785Y034001D01*
X013076Y034001D01*
X013126Y034051D01*
X013201Y034231D01*
X013201Y034426D01*
X013126Y034606D01*
X012988Y034744D01*
X012808Y034818D01*
X012053Y034818D01*
X011873Y034744D01*
X011735Y034606D01*
X011661Y034426D01*
X011661Y034231D01*
X011735Y034051D01*
X011785Y034001D01*
X010701Y034001D01*
X010610Y033963D01*
X010539Y033893D01*
X009102Y032455D01*
X009039Y032606D01*
X008902Y032744D01*
X008722Y032818D01*
X008137Y032818D01*
X008117Y032838D01*
X008722Y032838D01*
X008902Y032913D01*
X009039Y033051D01*
X009114Y033231D01*
X009114Y033426D01*
X009039Y033606D01*
X008902Y033744D01*
X008722Y033818D01*
X007967Y033818D01*
X007786Y033744D01*
X007649Y033606D01*
X007574Y033426D01*
X007574Y033382D01*
X007063Y033893D01*
X006993Y033963D01*
X006901Y034001D01*
X005990Y034001D01*
X006039Y034051D01*
X006114Y034231D01*
X006114Y034426D01*
X006039Y034606D01*
X005902Y034744D01*
X005722Y034818D01*
X004967Y034818D01*
X004786Y034744D01*
X004649Y034606D01*
X004574Y034426D01*
X004574Y034231D01*
X004649Y034051D01*
X004729Y033971D01*
X004710Y033963D01*
X004310Y033563D01*
X004310Y033563D01*
X004239Y033493D01*
X004201Y033401D01*
X004201Y019501D01*
X004201Y019401D01*
X004239Y019310D01*
X004310Y019239D01*
X004401Y019201D01*
X004610Y019201D01*
X004574Y019115D01*
X004574Y018920D01*
X004649Y018740D01*
X004786Y018602D01*
X004967Y018527D01*
X005722Y018527D01*
X005902Y018602D01*
X006039Y018740D01*
X006114Y018920D01*
X006114Y019115D01*
X006078Y019201D01*
X007610Y019201D01*
X007574Y019115D01*
X007574Y018920D01*
X007649Y018740D01*
X007786Y018602D01*
X007967Y018527D01*
X008722Y018527D01*
X008902Y018602D01*
X009039Y018740D01*
X009114Y018920D01*
X009114Y019115D01*
X009078Y019201D01*
X011697Y019201D01*
X011661Y019115D01*
X011661Y018920D01*
X011735Y018740D01*
X011873Y018602D01*
X012053Y018527D01*
X012808Y018527D01*
X012988Y018602D01*
X013126Y018740D01*
X013201Y018920D01*
X013201Y019115D01*
X013165Y019201D01*
X014697Y019201D01*
X014661Y019115D01*
X014661Y018920D01*
X014735Y018740D01*
X014873Y018602D01*
X015053Y018527D01*
X015521Y018527D01*
X015542Y018507D01*
X015053Y018507D01*
X014873Y018433D01*
X014735Y018295D01*
X014661Y018115D01*
X014661Y017920D01*
X014710Y017801D01*
X013151Y017801D01*
X013201Y017920D01*
X013201Y018115D01*
X013126Y018295D01*
X012988Y018433D01*
X012808Y018507D01*
X012053Y018507D01*
X011873Y018433D01*
X011735Y018295D01*
X011661Y018115D01*
X011661Y017920D01*
X011710Y017801D01*
X009065Y017801D01*
X009114Y017920D01*
X009114Y018115D01*
X009039Y018295D01*
X008902Y018433D01*
X008722Y018507D01*
X007967Y018507D01*
X007786Y018433D01*
X007649Y018295D01*
X007574Y018115D01*
X007574Y017920D01*
X007649Y017740D01*
X007786Y017602D01*
X007967Y017527D01*
X008422Y017527D01*
X008610Y017339D01*
X008701Y017301D01*
X008801Y017301D01*
X023001Y017301D01*
X023093Y017339D01*
X023163Y017410D01*
X023395Y017641D01*
X023533Y017641D01*
X023683Y017704D01*
X023799Y017819D01*
X023861Y017970D01*
X023861Y018133D01*
X023822Y018227D01*
X027971Y014078D01*
X027952Y014059D01*
X027877Y013879D01*
X027877Y013684D01*
X027952Y013504D01*
X028090Y013366D01*
X028270Y013291D01*
X029025Y013291D01*
X029205Y013366D01*
X029343Y013504D01*
X029417Y013684D01*
X029417Y013879D01*
X029343Y014059D01*
X029300Y014101D01*
X033994Y014101D01*
X033952Y014059D01*
X033877Y013879D01*
X033877Y013684D01*
X033952Y013504D01*
X034090Y013366D01*
X034270Y013291D01*
X034758Y013291D01*
X034778Y013271D01*
X034270Y013271D01*
X034090Y013196D01*
X033952Y013059D01*
X033877Y012879D01*
X033877Y012684D01*
X033911Y012601D01*
X029383Y012601D01*
X029417Y012684D01*
X029417Y012879D01*
X029343Y013059D01*
X029205Y013196D01*
X029025Y013271D01*
X028270Y013271D01*
X028090Y013196D01*
X027952Y013059D01*
X027877Y012879D01*
X027877Y012684D01*
X027952Y012504D01*
X028090Y012366D01*
X028270Y012291D01*
X028758Y012291D01*
X028778Y012271D01*
X028270Y012271D01*
X028090Y012196D01*
X027952Y012059D01*
X027877Y011879D01*
X027877Y011684D01*
X027952Y011504D01*
X028090Y011366D01*
X028270Y011291D01*
X028758Y011291D01*
X028778Y011271D01*
X028270Y011271D01*
X028090Y011196D01*
X027952Y011059D01*
X027877Y010879D01*
X027877Y010684D01*
X027952Y010504D01*
X028090Y010366D01*
X028270Y010291D01*
X028758Y010291D01*
X028778Y010271D01*
X028270Y010271D01*
X028090Y010196D01*
X027952Y010059D01*
X027907Y009949D01*
X025993Y011863D01*
X025901Y011901D01*
X025801Y011901D01*
X025601Y011901D01*
X025510Y011863D01*
X025439Y011793D01*
X025348Y011701D01*
X023237Y011701D01*
X023287Y011821D01*
X023287Y012016D01*
X023213Y012196D01*
X023075Y012334D01*
X022895Y012409D01*
X022140Y012409D01*
X021960Y012334D01*
X021822Y012196D01*
X021747Y012016D01*
X021747Y011821D01*
X021797Y011701D01*
X020237Y011701D01*
X020287Y011821D01*
X020287Y012016D01*
X020213Y012196D01*
X020075Y012334D01*
X019895Y012409D01*
X019140Y012409D01*
X018960Y012334D01*
X018827Y012201D01*
X007355Y012201D01*
X005061Y014495D01*
X005061Y014633D01*
X004999Y014783D01*
X004883Y014899D01*
X004733Y014961D01*
X004570Y014961D01*
X004419Y014899D01*
X004304Y014783D01*
X004241Y014633D01*
X004241Y014470D01*
X004304Y014319D01*
X004419Y014204D01*
X004570Y014141D01*
X004708Y014141D01*
X007039Y011810D01*
X007110Y011739D01*
X007201Y011701D01*
X015570Y011701D01*
X015541Y011633D01*
X015541Y011470D01*
X015604Y011319D01*
X015719Y011204D01*
X015870Y011141D01*
X016008Y011141D01*
X018010Y009139D01*
X018101Y009101D01*
X018201Y009101D01*
X019848Y009101D01*
X019939Y009010D01*
X019939Y009010D01*
X020010Y008939D01*
X020101Y008901D01*
X021747Y008901D01*
X021747Y008821D01*
X021822Y008641D01*
X021960Y008504D01*
X022140Y008429D01*
X022675Y008429D01*
X016095Y008429D01*
X016126Y008460D02*
X016201Y008640D01*
X016201Y008835D01*
X016126Y009015D01*
X015988Y009153D01*
X015808Y009228D01*
X015228Y009228D01*
X015208Y009248D01*
X015808Y009248D01*
X015988Y009322D01*
X016126Y009460D01*
X016201Y009640D01*
X016201Y009835D01*
X016126Y010015D01*
X015988Y010153D01*
X015808Y010228D01*
X015228Y010228D01*
X014163Y011293D01*
X014093Y011363D01*
X014001Y011401D01*
X005501Y011401D01*
X005401Y011401D01*
X005310Y011363D01*
X004789Y010843D01*
X004369Y010843D01*
X004058Y010532D01*
X004058Y010093D01*
X004065Y010086D01*
X004010Y010063D01*
X003789Y009843D01*
X003369Y009843D01*
X003058Y009532D01*
X003058Y009093D01*
X003339Y008813D01*
X003058Y008532D01*
X003058Y008093D01*
X003339Y007813D01*
X003058Y007532D01*
X003058Y007093D01*
X003369Y006783D01*
X003766Y006783D01*
X003910Y006639D01*
X004001Y006601D01*
X004101Y006601D01*
X011677Y006601D01*
X011735Y006460D01*
X011873Y006322D01*
X012053Y006248D01*
X012808Y006248D01*
X012988Y006322D01*
X013126Y006460D01*
X013201Y006640D01*
X013201Y006835D01*
X013126Y007015D01*
X012988Y007153D01*
X012808Y007228D01*
X012053Y007228D01*
X011873Y007153D01*
X011821Y007101D01*
X005118Y007101D01*
X005118Y007532D01*
X004838Y007813D01*
X005026Y008001D01*
X011729Y008001D01*
X011661Y007835D01*
X011661Y007640D01*
X011735Y007460D01*
X011873Y007322D01*
X012053Y007248D01*
X012808Y007248D01*
X012988Y007322D01*
X013126Y007460D01*
X013201Y007640D01*
X013201Y007835D01*
X013126Y008015D01*
X012988Y008153D01*
X012808Y008228D01*
X012228Y008228D01*
X012208Y008248D01*
X012808Y008248D01*
X012988Y008322D01*
X013126Y008460D01*
X013201Y008640D01*
X013201Y008835D01*
X013173Y008901D01*
X014688Y008901D01*
X014661Y008835D01*
X014661Y008640D01*
X014735Y008460D01*
X014873Y008322D01*
X015053Y008248D01*
X015808Y008248D01*
X015988Y008322D01*
X016126Y008460D01*
X016154Y008527D02*
X021936Y008527D01*
X021837Y008626D02*
X016195Y008626D01*
X016201Y008724D02*
X021787Y008724D01*
X021747Y008823D02*
X016201Y008823D01*
X016165Y008922D02*
X020052Y008922D01*
X019929Y009020D02*
X016121Y009020D01*
X016023Y009119D02*
X018059Y009119D01*
X017932Y009217D02*
X015834Y009217D01*
X015972Y009316D02*
X017833Y009316D01*
X017735Y009414D02*
X016080Y009414D01*
X016148Y009513D02*
X017636Y009513D01*
X017537Y009611D02*
X016189Y009611D01*
X016201Y009710D02*
X017439Y009710D01*
X017340Y009808D02*
X016201Y009808D01*
X016171Y009907D02*
X017242Y009907D01*
X017143Y010006D02*
X016130Y010006D01*
X016037Y010104D02*
X017045Y010104D01*
X016946Y010203D02*
X015869Y010203D01*
X015155Y010301D02*
X016848Y010301D01*
X016749Y010400D02*
X015056Y010400D01*
X014958Y010498D02*
X016651Y010498D01*
X016552Y010597D02*
X014859Y010597D01*
X014761Y010695D02*
X016454Y010695D01*
X016355Y010794D02*
X014662Y010794D01*
X014563Y010892D02*
X016256Y010892D01*
X016158Y010991D02*
X014465Y010991D01*
X014366Y011089D02*
X016059Y011089D01*
X015756Y011188D02*
X014268Y011188D01*
X014169Y011287D02*
X015636Y011287D01*
X015576Y011385D02*
X014040Y011385D01*
X015541Y011484D02*
X000361Y011484D01*
X000361Y011582D02*
X015541Y011582D01*
X015561Y011681D02*
X000361Y011681D01*
X000361Y011779D02*
X007070Y011779D01*
X006971Y011878D02*
X000361Y011878D01*
X000361Y011976D02*
X006872Y011976D01*
X006774Y012075D02*
X000361Y012075D01*
X000361Y012173D02*
X006675Y012173D01*
X006577Y012272D02*
X000361Y012272D01*
X000361Y012371D02*
X006478Y012371D01*
X006380Y012469D02*
X000361Y012469D01*
X000361Y012568D02*
X006281Y012568D01*
X006183Y012666D02*
X000361Y012666D01*
X000361Y012765D02*
X006084Y012765D01*
X005986Y012863D02*
X000361Y012863D01*
X000361Y012962D02*
X005887Y012962D01*
X005788Y013060D02*
X000361Y013060D01*
X000361Y013159D02*
X005690Y013159D01*
X005591Y013257D02*
X000361Y013257D01*
X000361Y013356D02*
X005493Y013356D01*
X005394Y013455D02*
X000361Y013455D01*
X000361Y013553D02*
X005296Y013553D01*
X005197Y013652D02*
X000361Y013652D01*
X000361Y013750D02*
X005099Y013750D01*
X005000Y013849D02*
X000361Y013849D01*
X000361Y013947D02*
X004902Y013947D01*
X004803Y014046D02*
X000361Y014046D01*
X000361Y014144D02*
X004562Y014144D01*
X004380Y014243D02*
X000361Y014243D01*
X000361Y014341D02*
X004294Y014341D01*
X004253Y014440D02*
X000361Y014440D01*
X000361Y014539D02*
X004241Y014539D01*
X004243Y014637D02*
X000361Y014637D01*
X000361Y014736D02*
X004284Y014736D01*
X004354Y014834D02*
X000361Y014834D01*
X000361Y014933D02*
X004501Y014933D01*
X004801Y014933D02*
X027116Y014933D01*
X027018Y015031D02*
X000361Y015031D01*
X000361Y015130D02*
X026919Y015130D01*
X026821Y015228D02*
X000361Y015228D01*
X000361Y015327D02*
X026722Y015327D01*
X026623Y015425D02*
X000361Y015425D01*
X000361Y015524D02*
X026525Y015524D01*
X026426Y015622D02*
X000361Y015622D01*
X000361Y015721D02*
X026328Y015721D01*
X026229Y015820D02*
X020343Y015820D01*
X020327Y015803D02*
X020614Y016090D01*
X020614Y016496D01*
X020327Y016783D01*
X019921Y016783D01*
X019634Y016496D01*
X019634Y016090D01*
X019921Y015803D01*
X020327Y015803D01*
X020442Y015918D02*
X026131Y015918D01*
X026032Y016017D02*
X020540Y016017D01*
X020614Y016115D02*
X025934Y016115D01*
X025835Y016214D02*
X020614Y016214D01*
X020614Y016312D02*
X025737Y016312D01*
X025638Y016411D02*
X020614Y016411D01*
X020600Y016509D02*
X025539Y016509D01*
X025441Y016608D02*
X020501Y016608D01*
X020403Y016706D02*
X025342Y016706D01*
X025244Y016805D02*
X000361Y016805D01*
X000361Y016904D02*
X025145Y016904D01*
X025047Y017002D02*
X000361Y017002D01*
X000361Y017101D02*
X024948Y017101D01*
X024850Y017199D02*
X000361Y017199D01*
X000361Y017298D02*
X024751Y017298D01*
X024653Y017396D02*
X023150Y017396D01*
X023248Y017495D02*
X024554Y017495D01*
X024456Y017593D02*
X023347Y017593D01*
X023655Y017692D02*
X024357Y017692D01*
X024258Y017790D02*
X023770Y017790D01*
X023828Y017889D02*
X024160Y017889D01*
X024061Y017988D02*
X023861Y017988D01*
X023861Y018086D02*
X023963Y018086D01*
X023864Y018185D02*
X023840Y018185D01*
X024177Y018579D02*
X027921Y018579D01*
X027952Y018504D02*
X028090Y018366D01*
X028270Y018291D01*
X029025Y018291D01*
X029205Y018366D01*
X029343Y018504D01*
X029417Y018684D01*
X029417Y018879D01*
X029366Y019001D01*
X038164Y019001D01*
X038113Y018879D01*
X038113Y018684D01*
X038188Y018504D01*
X038190Y018501D01*
X035001Y018501D01*
X034910Y018463D01*
X034839Y018393D01*
X034718Y018271D01*
X034270Y018271D01*
X034090Y018196D01*
X033952Y018059D01*
X033877Y017879D01*
X033877Y017684D01*
X033911Y017601D01*
X029383Y017601D01*
X029417Y017684D01*
X029417Y017879D01*
X029343Y018059D01*
X029205Y018196D01*
X029025Y018271D01*
X028270Y018271D01*
X028090Y018196D01*
X027952Y018059D01*
X027877Y017879D01*
X027877Y017684D01*
X027952Y017504D01*
X028090Y017366D01*
X028270Y017291D01*
X028758Y017291D01*
X028778Y017271D01*
X028270Y017271D01*
X028090Y017196D01*
X027952Y017059D01*
X027877Y016879D01*
X027877Y016684D01*
X027952Y016504D01*
X028090Y016366D01*
X028270Y016291D01*
X028758Y016291D01*
X028778Y016271D01*
X028270Y016271D01*
X028090Y016196D01*
X027952Y016059D01*
X027877Y015879D01*
X027877Y015684D01*
X027952Y015504D01*
X028090Y015366D01*
X028270Y015291D01*
X028758Y015291D01*
X028778Y015271D01*
X028270Y015271D01*
X028090Y015196D01*
X027952Y015059D01*
X027877Y014879D01*
X023114Y019641D01*
X023213Y019740D01*
X023287Y019920D01*
X023287Y020115D01*
X023213Y020295D01*
X023181Y020327D01*
X023655Y020801D01*
X030021Y020801D01*
X030119Y020704D01*
X030270Y020641D01*
X030433Y020641D01*
X030583Y020704D01*
X030699Y020819D01*
X030761Y020970D01*
X030761Y021133D01*
X030733Y021201D01*
X045648Y021201D01*
X046441Y020408D01*
X046441Y020270D01*
X046504Y020119D01*
X046619Y020004D01*
X046770Y019941D01*
X046933Y019941D01*
X047083Y020004D01*
X047199Y020119D01*
X047261Y020270D01*
X047261Y020433D01*
X047199Y020583D01*
X047083Y020699D01*
X046933Y020761D01*
X046795Y020761D01*
X045955Y021601D01*
X059410Y021601D01*
X059362Y021554D01*
X059362Y021119D01*
X059645Y020836D01*
X059362Y020554D01*
X059362Y020119D01*
X059645Y019836D01*
X059362Y019554D01*
X059362Y019119D01*
X059645Y018836D01*
X059362Y018554D01*
X059362Y018119D01*
X059645Y017836D01*
X059362Y017554D01*
X059362Y017119D01*
X059645Y016836D01*
X059362Y016554D01*
X059362Y016119D01*
X059645Y015836D01*
X059362Y015554D01*
X059362Y015119D01*
X059380Y015101D01*
X056955Y015101D01*
X055774Y016282D01*
X055815Y016324D01*
X055890Y016504D01*
X055890Y016699D01*
X055815Y016879D01*
X055677Y017016D01*
X055497Y017091D01*
X054945Y017091D01*
X054965Y017111D01*
X055497Y017111D01*
X055677Y017186D01*
X055815Y017324D01*
X055890Y017504D01*
X055890Y017699D01*
X055815Y017879D01*
X055677Y018016D01*
X055497Y018091D01*
X054742Y018091D01*
X054562Y018016D01*
X054424Y017879D01*
X054350Y017699D01*
X054350Y017504D01*
X054424Y017324D01*
X054447Y017301D01*
X053448Y016301D01*
X049793Y016301D01*
X049815Y016324D01*
X049890Y016504D01*
X049890Y016699D01*
X049815Y016879D01*
X049677Y017016D01*
X049497Y017091D01*
X048945Y017091D01*
X048963Y017110D01*
X048965Y017111D01*
X049497Y017111D01*
X049677Y017186D01*
X049815Y017324D01*
X049890Y017504D01*
X049890Y017699D01*
X049847Y017801D01*
X053601Y017801D01*
X053693Y017839D01*
X053763Y017910D01*
X054352Y018498D01*
X054424Y018324D01*
X054562Y018186D01*
X054742Y018111D01*
X055497Y018111D01*
X055677Y018186D01*
X055815Y018324D01*
X055890Y018504D01*
X055890Y018699D01*
X055815Y018879D01*
X055677Y019016D01*
X055497Y019091D01*
X054945Y019091D01*
X054965Y019111D01*
X055497Y019111D01*
X055677Y019186D01*
X055815Y019324D01*
X055890Y019504D01*
X055890Y019699D01*
X055815Y019879D01*
X055677Y020016D01*
X055497Y020091D01*
X054742Y020091D01*
X054562Y020016D01*
X054424Y019879D01*
X054350Y019699D01*
X054350Y019504D01*
X054424Y019324D01*
X054447Y019301D01*
X053448Y018301D01*
X049793Y018301D01*
X049815Y018324D01*
X049890Y018504D01*
X049890Y018699D01*
X049815Y018879D01*
X049677Y019016D01*
X049497Y019091D01*
X048945Y019091D01*
X048963Y019110D01*
X048965Y019111D01*
X049497Y019111D01*
X049677Y019186D01*
X049815Y019324D01*
X049890Y019504D01*
X049890Y019699D01*
X049815Y019879D01*
X049677Y020016D01*
X049497Y020091D01*
X048945Y020091D01*
X048965Y020111D01*
X049497Y020111D01*
X049677Y020186D01*
X049815Y020324D01*
X049890Y020504D01*
X049890Y020699D01*
X049815Y020879D01*
X049677Y021016D01*
X049497Y021091D01*
X048742Y021091D01*
X048562Y021016D01*
X048424Y020879D01*
X048350Y020699D01*
X048350Y020504D01*
X048424Y020324D01*
X048447Y020301D01*
X048048Y019901D01*
X039801Y019901D01*
X039701Y019901D01*
X039610Y019863D01*
X039018Y019271D01*
X038785Y019271D01*
X038593Y019463D01*
X038501Y019501D01*
X038401Y019501D01*
X029001Y019501D01*
X028910Y019463D01*
X028839Y019393D01*
X028718Y019271D01*
X028270Y019271D01*
X028090Y019196D01*
X027952Y019059D01*
X027877Y018879D01*
X027877Y018684D01*
X027952Y018504D01*
X027975Y018480D02*
X024276Y018480D01*
X024374Y018382D02*
X028074Y018382D01*
X028078Y018185D02*
X024571Y018185D01*
X024473Y018283D02*
X034730Y018283D01*
X034828Y018382D02*
X029221Y018382D01*
X029319Y018480D02*
X034951Y018480D01*
X034078Y018185D02*
X029217Y018185D01*
X029315Y018086D02*
X033979Y018086D01*
X033922Y017988D02*
X029372Y017988D01*
X029413Y017889D02*
X033882Y017889D01*
X033877Y017790D02*
X029417Y017790D01*
X029417Y017692D02*
X033877Y017692D01*
X038116Y018677D02*
X029415Y018677D01*
X029417Y018776D02*
X038113Y018776D01*
X038113Y018874D02*
X029417Y018874D01*
X029378Y018973D02*
X038153Y018973D01*
X038157Y018579D02*
X029374Y018579D01*
X028814Y019367D02*
X023389Y019367D01*
X023487Y019269D02*
X028264Y019269D01*
X028063Y019170D02*
X023586Y019170D01*
X023684Y019071D02*
X027965Y019071D01*
X027916Y018973D02*
X023783Y018973D01*
X023881Y018874D02*
X027877Y018874D01*
X027877Y018776D02*
X023980Y018776D01*
X024079Y018677D02*
X027880Y018677D01*
X027979Y018086D02*
X024670Y018086D01*
X024768Y017988D02*
X027922Y017988D01*
X027882Y017889D02*
X024867Y017889D01*
X024965Y017790D02*
X027877Y017790D01*
X027877Y017692D02*
X025064Y017692D01*
X025162Y017593D02*
X027915Y017593D01*
X027961Y017495D02*
X025261Y017495D01*
X025360Y017396D02*
X028059Y017396D01*
X028096Y017199D02*
X025557Y017199D01*
X025655Y017101D02*
X027994Y017101D01*
X027928Y017002D02*
X025754Y017002D01*
X025852Y016904D02*
X027888Y016904D01*
X027877Y016805D02*
X025951Y016805D01*
X026049Y016706D02*
X027877Y016706D01*
X027909Y016608D02*
X026148Y016608D01*
X026246Y016509D02*
X027949Y016509D01*
X028045Y016411D02*
X026345Y016411D01*
X026444Y016312D02*
X028219Y016312D01*
X028131Y016214D02*
X026542Y016214D01*
X026641Y016115D02*
X028008Y016115D01*
X027934Y016017D02*
X026739Y016017D01*
X026838Y015918D02*
X027894Y015918D01*
X027877Y015820D02*
X026936Y015820D01*
X027035Y015721D02*
X027877Y015721D01*
X027903Y015622D02*
X027133Y015622D01*
X027232Y015524D02*
X027943Y015524D01*
X028030Y015425D02*
X027330Y015425D01*
X027429Y015327D02*
X028183Y015327D01*
X028167Y015228D02*
X027528Y015228D01*
X027626Y015130D02*
X028023Y015130D01*
X027941Y015031D02*
X027725Y015031D01*
X027823Y014933D02*
X027900Y014933D01*
X027510Y014539D02*
X005061Y014539D01*
X005059Y014637D02*
X027412Y014637D01*
X027313Y014736D02*
X005019Y014736D01*
X004948Y014834D02*
X027215Y014834D01*
X027609Y014440D02*
X005116Y014440D01*
X005214Y014341D02*
X027707Y014341D01*
X027806Y014243D02*
X005313Y014243D01*
X005411Y014144D02*
X027905Y014144D01*
X027947Y014046D02*
X005510Y014046D01*
X005609Y013947D02*
X027906Y013947D01*
X027877Y013849D02*
X005707Y013849D01*
X005806Y013750D02*
X027877Y013750D01*
X027890Y013652D02*
X005904Y013652D01*
X006003Y013553D02*
X027931Y013553D01*
X028001Y013455D02*
X006101Y013455D01*
X006200Y013356D02*
X028113Y013356D01*
X028237Y013257D02*
X006298Y013257D01*
X006397Y013159D02*
X028052Y013159D01*
X027954Y013060D02*
X006495Y013060D01*
X006594Y012962D02*
X027912Y012962D01*
X027877Y012863D02*
X006693Y012863D01*
X006791Y012765D02*
X027877Y012765D01*
X027884Y012666D02*
X006890Y012666D01*
X006988Y012568D02*
X027925Y012568D01*
X027986Y012469D02*
X007087Y012469D01*
X007185Y012371D02*
X019047Y012371D01*
X018897Y012272D02*
X007284Y012272D01*
X005363Y011385D02*
X000361Y011385D01*
X000361Y011287D02*
X005233Y011287D01*
X005135Y011188D02*
X000361Y011188D01*
X000361Y011089D02*
X005036Y011089D01*
X004937Y010991D02*
X000361Y010991D01*
X000361Y010892D02*
X004839Y010892D01*
X004320Y010794D02*
X000361Y010794D01*
X000361Y010695D02*
X004221Y010695D01*
X004123Y010597D02*
X000361Y010597D01*
X000361Y010498D02*
X004058Y010498D01*
X004058Y010400D02*
X000361Y010400D01*
X000361Y010301D02*
X004058Y010301D01*
X004058Y010203D02*
X000361Y010203D01*
X000361Y010104D02*
X004058Y010104D01*
X003952Y010006D02*
X000361Y010006D01*
X000361Y009907D02*
X003854Y009907D01*
X003335Y009808D02*
X000361Y009808D01*
X000361Y009710D02*
X003236Y009710D01*
X003137Y009611D02*
X000361Y009611D01*
X000361Y009513D02*
X003058Y009513D01*
X003058Y009414D02*
X000361Y009414D01*
X000361Y009316D02*
X003058Y009316D01*
X003058Y009217D02*
X000361Y009217D01*
X000361Y009119D02*
X003058Y009119D01*
X003131Y009020D02*
X000361Y009020D01*
X000361Y008922D02*
X003230Y008922D01*
X003328Y008823D02*
X000361Y008823D01*
X000361Y008724D02*
X003251Y008724D01*
X003152Y008626D02*
X000361Y008626D01*
X000361Y008527D02*
X003058Y008527D01*
X003058Y008429D02*
X000361Y008429D01*
X000361Y008330D02*
X003058Y008330D01*
X003058Y008232D02*
X000361Y008232D01*
X000361Y008133D02*
X003058Y008133D01*
X003117Y008035D02*
X000361Y008035D01*
X000361Y007936D02*
X003215Y007936D01*
X003314Y007838D02*
X000361Y007838D01*
X000361Y007739D02*
X003265Y007739D01*
X003167Y007640D02*
X000361Y007640D01*
X000361Y007542D02*
X003068Y007542D01*
X003058Y007443D02*
X000361Y007443D01*
X000361Y007345D02*
X003058Y007345D01*
X003058Y007246D02*
X000361Y007246D01*
X000361Y007148D02*
X003058Y007148D01*
X003102Y007049D02*
X000361Y007049D01*
X000361Y006951D02*
X003201Y006951D01*
X003299Y006852D02*
X000361Y006852D01*
X000361Y006754D02*
X003795Y006754D01*
X003894Y006655D02*
X000361Y006655D01*
X000361Y006556D02*
X011695Y006556D01*
X011738Y006458D02*
X000361Y006458D01*
X000361Y006359D02*
X011836Y006359D01*
X011895Y006162D02*
X000361Y006162D01*
X000361Y006064D02*
X011784Y006064D01*
X011735Y006015D02*
X011661Y005835D01*
X011661Y005640D01*
X011735Y005460D01*
X011873Y005322D01*
X012053Y005248D01*
X012501Y005248D01*
X012521Y005228D01*
X012053Y005228D01*
X011873Y005153D01*
X011735Y005015D01*
X011661Y004835D01*
X011661Y004640D01*
X011735Y004460D01*
X011873Y004322D01*
X012053Y004248D01*
X012808Y004248D01*
X012988Y004322D01*
X013126Y004460D01*
X013174Y004575D01*
X014839Y002910D01*
X014910Y002839D01*
X015001Y002801D01*
X014838Y002910D02*
X003085Y002910D01*
X003077Y002923D02*
X003077Y002923D01*
X003077Y002923D01*
X002975Y003009D02*
X014740Y003009D01*
X014641Y003107D02*
X002858Y003107D01*
X002735Y003206D02*
X014543Y003206D01*
X014444Y003305D02*
X012945Y003305D01*
X012988Y003322D02*
X013126Y003460D01*
X013201Y003640D01*
X013201Y003835D01*
X013126Y004015D01*
X012988Y004153D01*
X012808Y004228D01*
X012053Y004228D01*
X011873Y004153D01*
X011735Y004015D01*
X011661Y003835D01*
X011661Y003640D01*
X011735Y003460D01*
X011873Y003322D01*
X012053Y003248D01*
X012808Y003248D01*
X012988Y003322D01*
X013069Y003403D02*
X014346Y003403D01*
X014247Y003502D02*
X013143Y003502D01*
X013184Y003600D02*
X014149Y003600D01*
X014050Y003699D02*
X013201Y003699D01*
X013201Y003797D02*
X013952Y003797D01*
X013853Y003896D02*
X013176Y003896D01*
X013135Y003994D02*
X013754Y003994D01*
X013656Y004093D02*
X013049Y004093D01*
X012896Y004191D02*
X013557Y004191D01*
X013459Y004290D02*
X012910Y004290D01*
X013054Y004389D02*
X013360Y004389D01*
X013262Y004487D02*
X013137Y004487D01*
X013575Y004881D02*
X014680Y004881D01*
X014661Y004835D02*
X014661Y004640D01*
X014735Y004460D01*
X014873Y004322D01*
X015053Y004248D01*
X015808Y004248D01*
X015988Y004322D01*
X016126Y004460D01*
X016201Y004640D01*
X016201Y004835D01*
X016126Y005015D01*
X015988Y005153D01*
X015808Y005228D01*
X015053Y005228D01*
X014873Y005153D01*
X014735Y005015D01*
X014661Y004835D01*
X014661Y004783D02*
X013673Y004783D01*
X013772Y004684D02*
X014661Y004684D01*
X014683Y004586D02*
X013870Y004586D01*
X013969Y004487D02*
X014724Y004487D01*
X014807Y004389D02*
X014067Y004389D01*
X014166Y004290D02*
X014951Y004290D01*
X014966Y004191D02*
X014264Y004191D01*
X014363Y004093D02*
X014813Y004093D01*
X014873Y004153D02*
X014735Y004015D01*
X014661Y003835D01*
X014661Y003795D01*
X013061Y005395D01*
X013126Y005460D01*
X013201Y005640D01*
X013201Y005835D01*
X013126Y006015D01*
X012988Y006153D01*
X012808Y006228D01*
X012053Y006228D01*
X011873Y006153D01*
X011735Y006015D01*
X011715Y005965D02*
X000361Y005965D01*
X000361Y005867D02*
X011674Y005867D01*
X011661Y005768D02*
X000361Y005768D01*
X000361Y005670D02*
X011661Y005670D01*
X011689Y005571D02*
X000361Y005571D01*
X000361Y005473D02*
X011730Y005473D01*
X011822Y005374D02*
X000361Y005374D01*
X000361Y005275D02*
X011986Y005275D01*
X011930Y005177D02*
X000361Y005177D01*
X000361Y005078D02*
X011798Y005078D01*
X011721Y004980D02*
X000361Y004980D01*
X000361Y004881D02*
X011680Y004881D01*
X011661Y004783D02*
X000361Y004783D01*
X000361Y004684D02*
X011661Y004684D01*
X011683Y004586D02*
X000361Y004586D01*
X000361Y004487D02*
X011724Y004487D01*
X011807Y004389D02*
X000361Y004389D01*
X000361Y004290D02*
X011951Y004290D01*
X011966Y004191D02*
X000361Y004191D01*
X000361Y004093D02*
X011813Y004093D01*
X011727Y003994D02*
X000361Y003994D01*
X000361Y003896D02*
X011686Y003896D01*
X011661Y003797D02*
X000361Y003797D01*
X000361Y003699D02*
X011661Y003699D01*
X011677Y003600D02*
X000361Y003600D01*
X000361Y003502D02*
X011718Y003502D01*
X011792Y003403D02*
X000361Y003403D01*
X000361Y003305D02*
X001775Y003305D01*
X001504Y003206D02*
X000361Y003206D01*
X000361Y003107D02*
X001381Y003107D01*
X001264Y003009D02*
X000361Y003009D01*
X000361Y002910D02*
X001154Y002910D01*
X001162Y002923D02*
X001162Y002923D01*
X001098Y002812D02*
X000361Y002812D01*
X000361Y002713D02*
X001041Y002713D01*
X000984Y002615D02*
X000361Y002615D01*
X000361Y002516D02*
X000939Y002516D01*
X000945Y002547D02*
X000945Y002547D01*
X000922Y002418D02*
X000361Y002418D01*
X000361Y002319D02*
X000905Y002319D01*
X000887Y002221D02*
X000361Y002221D01*
X000361Y002122D02*
X000870Y002122D01*
X000869Y002120D02*
X000869Y002120D01*
X000886Y002024D02*
X000361Y002024D01*
X000361Y001925D02*
X000904Y001925D01*
X000921Y001826D02*
X000361Y001826D01*
X000361Y001728D02*
X000938Y001728D01*
X000945Y001692D02*
X000945Y001692D01*
X000981Y001629D02*
X000361Y001629D01*
X000361Y001531D02*
X001038Y001531D01*
X001095Y001432D02*
X000361Y001432D01*
X000361Y001334D02*
X001152Y001334D01*
X001162Y001316D02*
X001162Y001316D01*
X001162Y001316D01*
X001258Y001235D02*
X000361Y001235D01*
X000361Y001137D02*
X001376Y001137D01*
X001493Y001038D02*
X000361Y001038D01*
X000361Y000940D02*
X001762Y000940D01*
X001903Y000888D02*
X001903Y000888D01*
X003295Y001692D02*
X003295Y001692D01*
X003301Y001728D02*
X013130Y001728D01*
X013031Y001826D02*
X003318Y001826D01*
X003336Y001925D02*
X012941Y001925D01*
X012941Y002024D02*
X003353Y002024D01*
X003370Y002122D02*
X012941Y002122D01*
X012941Y002221D02*
X003352Y002221D01*
X003335Y002319D02*
X012941Y002319D01*
X013036Y002418D02*
X003317Y002418D01*
X002464Y003305D02*
X011916Y003305D01*
X014461Y003994D02*
X014727Y003994D01*
X014686Y003896D02*
X014560Y003896D01*
X014659Y003797D02*
X014661Y003797D01*
X014873Y004153D02*
X015053Y004228D01*
X015808Y004228D01*
X015988Y004153D01*
X016126Y004015D01*
X016201Y003835D01*
X016201Y003701D01*
X018797Y003701D01*
X018747Y003821D01*
X018747Y004016D01*
X018822Y004196D01*
X018960Y004334D01*
X019140Y004409D01*
X019640Y004409D01*
X019620Y004429D01*
X019140Y004429D01*
X018960Y004504D01*
X018822Y004641D01*
X018747Y004821D01*
X018747Y005016D01*
X018822Y005196D01*
X018960Y005334D01*
X019140Y005409D01*
X019640Y005409D01*
X019620Y005429D01*
X019140Y005429D01*
X018960Y005504D01*
X018822Y005641D01*
X018747Y005821D01*
X018747Y006016D01*
X018822Y006196D01*
X018960Y006334D01*
X019140Y006409D01*
X019866Y006409D01*
X019841Y006470D01*
X019841Y006633D01*
X019904Y006783D01*
X020019Y006899D01*
X020170Y006961D01*
X020333Y006961D01*
X020483Y006899D01*
X020599Y006783D01*
X020661Y006633D01*
X020661Y006601D01*
X027101Y006601D01*
X027201Y006601D01*
X027293Y006563D01*
X027701Y006155D01*
X027701Y007048D01*
X026108Y008641D01*
X026099Y008619D01*
X025983Y008504D01*
X025833Y008441D01*
X025670Y008441D01*
X025519Y008504D01*
X025421Y008601D01*
X023555Y008601D01*
X023181Y008228D01*
X023213Y008196D01*
X023287Y008016D01*
X023287Y007821D01*
X023213Y007641D01*
X023075Y007504D01*
X022895Y007429D01*
X022382Y007429D01*
X022193Y007239D01*
X022101Y007201D01*
X022001Y007201D01*
X017255Y007201D01*
X016097Y006044D01*
X016126Y006015D01*
X016201Y005835D01*
X016201Y005640D01*
X016126Y005460D01*
X015988Y005322D01*
X015808Y005248D01*
X015053Y005248D01*
X014873Y005322D01*
X014735Y005460D01*
X014661Y005640D01*
X014661Y005835D01*
X014735Y006015D01*
X014873Y006153D01*
X015053Y006228D01*
X015574Y006228D01*
X016939Y007593D01*
X017010Y007663D01*
X017101Y007701D01*
X018797Y007701D01*
X018747Y007821D01*
X018747Y008016D01*
X018822Y008196D01*
X018960Y008334D01*
X019140Y008409D01*
X019895Y008409D01*
X020075Y008334D01*
X020213Y008196D01*
X020287Y008016D01*
X020287Y007821D01*
X020237Y007701D01*
X021797Y007701D01*
X021747Y007821D01*
X021747Y008016D01*
X021822Y008196D01*
X021960Y008334D01*
X022140Y008409D01*
X022655Y008409D01*
X022675Y008429D01*
X023185Y008232D02*
X026517Y008232D01*
X026419Y008330D02*
X023284Y008330D01*
X023382Y008429D02*
X026320Y008429D01*
X026221Y008527D02*
X026007Y008527D01*
X026102Y008626D02*
X026123Y008626D01*
X025495Y008527D02*
X023481Y008527D01*
X023239Y008133D02*
X026616Y008133D01*
X026714Y008035D02*
X023280Y008035D01*
X023287Y007936D02*
X026813Y007936D01*
X026911Y007838D02*
X023287Y007838D01*
X023253Y007739D02*
X027010Y007739D01*
X027108Y007640D02*
X023212Y007640D01*
X023113Y007542D02*
X027207Y007542D01*
X027305Y007443D02*
X022930Y007443D01*
X022298Y007345D02*
X027404Y007345D01*
X027503Y007246D02*
X022200Y007246D01*
X021781Y007739D02*
X020253Y007739D01*
X020287Y007838D02*
X021747Y007838D01*
X021747Y007936D02*
X020287Y007936D01*
X020280Y008035D02*
X021755Y008035D01*
X021796Y008133D02*
X020239Y008133D01*
X020177Y008232D02*
X021857Y008232D01*
X021956Y008330D02*
X020079Y008330D01*
X018956Y008330D02*
X015996Y008330D01*
X016888Y007542D02*
X013160Y007542D01*
X013201Y007640D02*
X016987Y007640D01*
X016790Y007443D02*
X013109Y007443D01*
X013011Y007345D02*
X016691Y007345D01*
X016593Y007246D02*
X005118Y007246D01*
X005118Y007148D02*
X011868Y007148D01*
X011851Y007345D02*
X005118Y007345D01*
X005118Y007443D02*
X011752Y007443D01*
X011701Y007542D02*
X005108Y007542D01*
X005010Y007640D02*
X011661Y007640D01*
X011661Y007739D02*
X004911Y007739D01*
X004863Y007838D02*
X011662Y007838D01*
X011703Y007936D02*
X004961Y007936D01*
X000361Y006261D02*
X012022Y006261D01*
X012840Y006261D02*
X015607Y006261D01*
X015706Y006359D02*
X013025Y006359D01*
X013124Y006458D02*
X015804Y006458D01*
X015903Y006556D02*
X013166Y006556D01*
X013201Y006655D02*
X016002Y006655D01*
X016100Y006754D02*
X013201Y006754D01*
X013194Y006852D02*
X016199Y006852D01*
X016297Y006951D02*
X013153Y006951D01*
X013092Y007049D02*
X016396Y007049D01*
X016494Y007148D02*
X012994Y007148D01*
X013201Y007739D02*
X018781Y007739D01*
X018747Y007838D02*
X013200Y007838D01*
X013159Y007936D02*
X018747Y007936D01*
X018755Y008035D02*
X013107Y008035D01*
X013008Y008133D02*
X018796Y008133D01*
X018857Y008232D02*
X012224Y008232D01*
X012996Y008330D02*
X014865Y008330D01*
X014767Y008429D02*
X013095Y008429D01*
X013154Y008527D02*
X014707Y008527D01*
X014667Y008626D02*
X013195Y008626D01*
X013201Y008724D02*
X014661Y008724D01*
X014661Y008823D02*
X013201Y008823D01*
X016807Y006754D02*
X019891Y006754D01*
X019850Y006655D02*
X016709Y006655D01*
X016610Y006556D02*
X019841Y006556D01*
X019846Y006458D02*
X016511Y006458D01*
X016413Y006359D02*
X019020Y006359D01*
X018886Y006261D02*
X016314Y006261D01*
X016216Y006162D02*
X018808Y006162D01*
X018767Y006064D02*
X016117Y006064D01*
X016147Y005965D02*
X018747Y005965D01*
X018747Y005867D02*
X016188Y005867D01*
X016201Y005768D02*
X018769Y005768D01*
X018810Y005670D02*
X016201Y005670D01*
X016172Y005571D02*
X018892Y005571D01*
X019035Y005473D02*
X016131Y005473D01*
X016040Y005374D02*
X019056Y005374D01*
X018901Y005275D02*
X015875Y005275D01*
X015931Y005177D02*
X018814Y005177D01*
X018773Y005078D02*
X016063Y005078D01*
X016141Y004980D02*
X018747Y004980D01*
X018747Y004881D02*
X016182Y004881D01*
X016201Y004783D02*
X018763Y004783D01*
X018804Y004684D02*
X016201Y004684D01*
X016178Y004586D02*
X018878Y004586D01*
X018999Y004487D02*
X016137Y004487D01*
X016054Y004389D02*
X019091Y004389D01*
X018915Y004290D02*
X015910Y004290D01*
X015896Y004191D02*
X018820Y004191D01*
X018779Y004093D02*
X016049Y004093D01*
X016135Y003994D02*
X018747Y003994D01*
X018747Y003896D02*
X016176Y003896D01*
X016201Y003797D02*
X018757Y003797D01*
X020164Y005592D02*
X021055Y004701D01*
X027877Y004701D01*
X027877Y004879D01*
X027952Y005059D01*
X028021Y005128D01*
X027048Y006101D01*
X023252Y006101D01*
X023287Y006016D01*
X023287Y005821D01*
X023213Y005641D01*
X023075Y005504D01*
X022895Y005429D01*
X022140Y005429D01*
X021960Y005504D01*
X021822Y005641D01*
X021747Y005821D01*
X021747Y006016D01*
X021782Y006101D01*
X020401Y006101D01*
X020310Y006139D01*
X020308Y006141D01*
X020236Y006141D01*
X020287Y006016D01*
X020287Y005821D01*
X020213Y005641D01*
X020164Y005592D01*
X020185Y005571D02*
X021892Y005571D01*
X021810Y005670D02*
X020224Y005670D01*
X020265Y005768D02*
X021769Y005768D01*
X021747Y005867D02*
X020287Y005867D01*
X020287Y005965D02*
X021747Y005965D01*
X021767Y006064D02*
X020268Y006064D01*
X020652Y006655D02*
X027701Y006655D01*
X027701Y006556D02*
X027299Y006556D01*
X027398Y006458D02*
X027701Y006458D01*
X027701Y006359D02*
X027496Y006359D01*
X027595Y006261D02*
X027701Y006261D01*
X027694Y006162D02*
X027701Y006162D01*
X027381Y005768D02*
X023265Y005768D01*
X023287Y005867D02*
X027282Y005867D01*
X027184Y005965D02*
X023287Y005965D01*
X023268Y006064D02*
X027085Y006064D01*
X027479Y005670D02*
X023224Y005670D01*
X023142Y005571D02*
X027578Y005571D01*
X027676Y005473D02*
X023000Y005473D01*
X022035Y005473D02*
X020283Y005473D01*
X020382Y005374D02*
X027775Y005374D01*
X027873Y005275D02*
X020480Y005275D01*
X020579Y005177D02*
X027972Y005177D01*
X027972Y005078D02*
X020677Y005078D01*
X020776Y004980D02*
X027919Y004980D01*
X027878Y004881D02*
X020875Y004881D01*
X020973Y004783D02*
X027877Y004783D01*
X027701Y006754D02*
X020611Y006754D01*
X020530Y006852D02*
X027701Y006852D01*
X027701Y006951D02*
X020358Y006951D01*
X020144Y006951D02*
X017004Y006951D01*
X017103Y007049D02*
X027700Y007049D01*
X027601Y007148D02*
X017201Y007148D01*
X016906Y006852D02*
X019972Y006852D01*
X014895Y006162D02*
X012966Y006162D01*
X013078Y006064D02*
X014784Y006064D01*
X014715Y005965D02*
X013147Y005965D01*
X013188Y005867D02*
X014674Y005867D01*
X014661Y005768D02*
X013201Y005768D01*
X013201Y005670D02*
X014661Y005670D01*
X014689Y005571D02*
X013172Y005571D01*
X013131Y005473D02*
X014730Y005473D01*
X014822Y005374D02*
X013082Y005374D01*
X013180Y005275D02*
X014986Y005275D01*
X014930Y005177D02*
X013279Y005177D01*
X013377Y005078D02*
X014798Y005078D01*
X014721Y004980D02*
X013476Y004980D01*
X017294Y010561D02*
X016361Y011495D01*
X016361Y011633D01*
X016333Y011701D01*
X018797Y011701D01*
X018822Y011641D01*
X018960Y011504D01*
X019140Y011429D01*
X019620Y011429D01*
X019739Y011310D01*
X019739Y011310D01*
X019810Y011239D01*
X019901Y011201D01*
X023448Y011201D01*
X022655Y010409D01*
X022347Y010409D01*
X022193Y010563D01*
X022101Y010601D01*
X022001Y010601D01*
X017981Y010601D01*
X017883Y010699D01*
X017733Y010761D01*
X017570Y010761D01*
X017419Y010699D01*
X017304Y010583D01*
X017294Y010561D01*
X017317Y010597D02*
X017259Y010597D01*
X017160Y010695D02*
X017416Y010695D01*
X017062Y010794D02*
X023040Y010794D01*
X022942Y010695D02*
X017887Y010695D01*
X016963Y010892D02*
X023139Y010892D01*
X023237Y010991D02*
X016865Y010991D01*
X016766Y011089D02*
X023336Y011089D01*
X023435Y011188D02*
X016668Y011188D01*
X016569Y011287D02*
X019762Y011287D01*
X019664Y011385D02*
X016471Y011385D01*
X016372Y011484D02*
X019008Y011484D01*
X018881Y011582D02*
X016361Y011582D01*
X016341Y011681D02*
X018806Y011681D01*
X019987Y012371D02*
X022047Y012371D01*
X021897Y012272D02*
X020137Y012272D01*
X020222Y012173D02*
X021812Y012173D01*
X021772Y012075D02*
X020263Y012075D01*
X020287Y011976D02*
X021747Y011976D01*
X021747Y011878D02*
X020287Y011878D01*
X020270Y011779D02*
X021765Y011779D01*
X022987Y012371D02*
X028085Y012371D01*
X028067Y012173D02*
X023222Y012173D01*
X023263Y012075D02*
X027968Y012075D01*
X027918Y011976D02*
X023287Y011976D01*
X023287Y011878D02*
X025545Y011878D01*
X025426Y011779D02*
X023270Y011779D01*
X023137Y012272D02*
X028777Y012272D01*
X029410Y012666D02*
X033884Y012666D01*
X033877Y012765D02*
X029417Y012765D01*
X029417Y012863D02*
X033877Y012863D01*
X033912Y012962D02*
X029383Y012962D01*
X029341Y013060D02*
X033954Y013060D01*
X034052Y013159D02*
X029242Y013159D01*
X029181Y013356D02*
X034113Y013356D01*
X034001Y013455D02*
X029294Y013455D01*
X029363Y013553D02*
X033931Y013553D01*
X033890Y013652D02*
X029404Y013652D01*
X029417Y013750D02*
X033877Y013750D01*
X033877Y013849D02*
X029417Y013849D01*
X029389Y013947D02*
X033906Y013947D01*
X033947Y014046D02*
X029348Y014046D01*
X029058Y013257D02*
X034237Y013257D01*
X028762Y011287D02*
X026569Y011287D01*
X026471Y011385D02*
X028070Y011385D01*
X027972Y011484D02*
X026372Y011484D01*
X026274Y011582D02*
X027919Y011582D01*
X027878Y011681D02*
X026175Y011681D01*
X026077Y011779D02*
X027877Y011779D01*
X027877Y011878D02*
X025957Y011878D01*
X026668Y011188D02*
X028081Y011188D01*
X027983Y011089D02*
X026766Y011089D01*
X026865Y010991D02*
X027924Y010991D01*
X027883Y010892D02*
X026963Y010892D01*
X027062Y010794D02*
X027877Y010794D01*
X027877Y010695D02*
X027161Y010695D01*
X027259Y010597D02*
X027913Y010597D01*
X027957Y010498D02*
X027358Y010498D01*
X027456Y010400D02*
X028056Y010400D01*
X028104Y010203D02*
X027653Y010203D01*
X027555Y010301D02*
X028246Y010301D01*
X027997Y010104D02*
X027752Y010104D01*
X027850Y010006D02*
X027930Y010006D01*
X022843Y010597D02*
X022111Y010597D01*
X022258Y010498D02*
X022745Y010498D01*
X019904Y015820D02*
X013257Y015820D01*
X013240Y015803D02*
X013527Y016090D01*
X013527Y016496D01*
X013240Y016783D01*
X012834Y016783D01*
X012547Y016496D01*
X012547Y016090D01*
X012834Y015803D01*
X013240Y015803D01*
X013355Y015918D02*
X019805Y015918D01*
X019707Y016017D02*
X013454Y016017D01*
X013527Y016115D02*
X019634Y016115D01*
X019634Y016214D02*
X013527Y016214D01*
X013527Y016312D02*
X019634Y016312D01*
X019634Y016411D02*
X013527Y016411D01*
X013513Y016509D02*
X019647Y016509D01*
X019746Y016608D02*
X013415Y016608D01*
X013316Y016706D02*
X019844Y016706D01*
X023192Y019564D02*
X039311Y019564D01*
X039409Y019663D02*
X023136Y019663D01*
X023222Y019761D02*
X039508Y019761D01*
X039606Y019860D02*
X023262Y019860D01*
X023287Y019958D02*
X046728Y019958D01*
X046566Y020057D02*
X023287Y020057D01*
X023270Y020155D02*
X046488Y020155D01*
X046448Y020254D02*
X023230Y020254D01*
X023206Y020353D02*
X046441Y020353D01*
X046398Y020451D02*
X023305Y020451D01*
X023403Y020550D02*
X046299Y020550D01*
X046201Y020648D02*
X030450Y020648D01*
X030253Y020648D02*
X023502Y020648D01*
X023600Y020747D02*
X030076Y020747D01*
X030627Y020747D02*
X046102Y020747D01*
X046004Y020845D02*
X030710Y020845D01*
X030750Y020944D02*
X045905Y020944D01*
X045806Y021042D02*
X030761Y021042D01*
X030758Y021141D02*
X045708Y021141D01*
X046021Y021535D02*
X059362Y021535D01*
X059362Y021437D02*
X046119Y021437D01*
X046218Y021338D02*
X059362Y021338D01*
X059362Y021239D02*
X046316Y021239D01*
X046415Y021141D02*
X059362Y021141D01*
X059439Y021042D02*
X049615Y021042D01*
X049750Y020944D02*
X059537Y020944D01*
X059636Y020845D02*
X049829Y020845D01*
X049870Y020747D02*
X059555Y020747D01*
X059457Y020648D02*
X049890Y020648D01*
X049890Y020550D02*
X059362Y020550D01*
X059362Y020451D02*
X049868Y020451D01*
X049827Y020353D02*
X059362Y020353D01*
X059362Y020254D02*
X049746Y020254D01*
X049604Y020155D02*
X059362Y020155D01*
X059424Y020057D02*
X055580Y020057D01*
X055735Y019958D02*
X059523Y019958D01*
X059621Y019860D02*
X055823Y019860D01*
X055864Y019761D02*
X059570Y019761D01*
X059471Y019663D02*
X055890Y019663D01*
X055890Y019564D02*
X059373Y019564D01*
X059362Y019466D02*
X055874Y019466D01*
X055833Y019367D02*
X059362Y019367D01*
X059362Y019269D02*
X055760Y019269D01*
X055639Y019170D02*
X059362Y019170D01*
X059410Y019071D02*
X055544Y019071D01*
X055721Y018973D02*
X059508Y018973D01*
X059607Y018874D02*
X055817Y018874D01*
X055858Y018776D02*
X059585Y018776D01*
X059486Y018677D02*
X055890Y018677D01*
X055890Y018579D02*
X059388Y018579D01*
X059362Y018480D02*
X055880Y018480D01*
X055839Y018382D02*
X059362Y018382D01*
X059362Y018283D02*
X055775Y018283D01*
X055675Y018185D02*
X059362Y018185D01*
X059395Y018086D02*
X055509Y018086D01*
X055706Y017988D02*
X059494Y017988D01*
X059592Y017889D02*
X055805Y017889D01*
X055852Y017790D02*
X059599Y017790D01*
X059501Y017692D02*
X055890Y017692D01*
X055890Y017593D02*
X059402Y017593D01*
X059362Y017495D02*
X055886Y017495D01*
X055845Y017396D02*
X059362Y017396D01*
X059362Y017298D02*
X055789Y017298D01*
X055691Y017199D02*
X059362Y017199D01*
X059381Y017101D02*
X054954Y017101D01*
X054444Y017298D02*
X049789Y017298D01*
X049845Y017396D02*
X054394Y017396D01*
X054353Y017495D02*
X049886Y017495D01*
X049890Y017593D02*
X054350Y017593D01*
X054350Y017692D02*
X049890Y017692D01*
X049852Y017790D02*
X054388Y017790D01*
X054435Y017889D02*
X053742Y017889D01*
X053841Y017988D02*
X054533Y017988D01*
X054565Y018185D02*
X054038Y018185D01*
X054137Y018283D02*
X054465Y018283D01*
X054400Y018382D02*
X054235Y018382D01*
X054334Y018480D02*
X054359Y018480D01*
X054021Y018874D02*
X049817Y018874D01*
X049858Y018776D02*
X053922Y018776D01*
X053824Y018677D02*
X049890Y018677D01*
X049890Y018579D02*
X053725Y018579D01*
X053627Y018480D02*
X049880Y018480D01*
X049839Y018382D02*
X053528Y018382D01*
X053940Y018086D02*
X054730Y018086D01*
X054346Y017199D02*
X049691Y017199D01*
X049692Y017002D02*
X054149Y017002D01*
X054247Y017101D02*
X048954Y017101D01*
X049790Y016904D02*
X054050Y016904D01*
X053952Y016805D02*
X049846Y016805D01*
X049886Y016706D02*
X053853Y016706D01*
X053754Y016608D02*
X049890Y016608D01*
X049890Y016509D02*
X053656Y016509D01*
X053557Y016411D02*
X049851Y016411D01*
X049804Y016312D02*
X053459Y016312D01*
X055692Y017002D02*
X059479Y017002D01*
X059578Y016904D02*
X055790Y016904D01*
X055846Y016805D02*
X059614Y016805D01*
X059515Y016706D02*
X055886Y016706D01*
X055890Y016608D02*
X059417Y016608D01*
X059362Y016509D02*
X055890Y016509D01*
X055851Y016411D02*
X059362Y016411D01*
X059362Y016312D02*
X055804Y016312D01*
X055842Y016214D02*
X059362Y016214D01*
X059366Y016115D02*
X055941Y016115D01*
X056039Y016017D02*
X059464Y016017D01*
X059563Y015918D02*
X056138Y015918D01*
X056236Y015820D02*
X059628Y015820D01*
X059530Y015721D02*
X056335Y015721D01*
X056433Y015622D02*
X059431Y015622D01*
X059362Y015524D02*
X056532Y015524D01*
X056630Y015425D02*
X059362Y015425D01*
X059362Y015327D02*
X056729Y015327D01*
X056828Y015228D02*
X059362Y015228D01*
X059362Y015130D02*
X056926Y015130D01*
X061801Y015130D02*
X062933Y015130D01*
X062933Y015228D02*
X061801Y015228D01*
X061801Y015327D02*
X062933Y015327D01*
X062933Y015425D02*
X061801Y015425D01*
X061801Y015524D02*
X062933Y015524D01*
X062933Y015622D02*
X061801Y015622D01*
X061801Y015721D02*
X062933Y015721D01*
X062933Y015820D02*
X061801Y015820D01*
X061801Y015918D02*
X062933Y015918D01*
X062933Y016017D02*
X061801Y016017D01*
X061801Y016115D02*
X062933Y016115D01*
X062933Y016214D02*
X061801Y016214D01*
X061801Y016312D02*
X062933Y016312D01*
X062933Y016411D02*
X061801Y016411D01*
X061801Y016509D02*
X062933Y016509D01*
X062933Y016608D02*
X061801Y016608D01*
X061801Y016706D02*
X062933Y016706D01*
X062933Y016805D02*
X061801Y016805D01*
X061801Y016904D02*
X062933Y016904D01*
X062933Y017002D02*
X061801Y017002D01*
X061801Y017101D02*
X062933Y017101D01*
X062933Y017199D02*
X061801Y017199D01*
X061801Y017298D02*
X062933Y017298D01*
X062933Y017396D02*
X061801Y017396D01*
X061801Y017495D02*
X062933Y017495D01*
X062933Y017593D02*
X061801Y017593D01*
X061801Y017692D02*
X062933Y017692D01*
X062933Y017790D02*
X061801Y017790D01*
X061801Y017889D02*
X062933Y017889D01*
X062933Y017988D02*
X061801Y017988D01*
X061801Y018086D02*
X062933Y018086D01*
X062933Y018185D02*
X061801Y018185D01*
X061801Y018283D02*
X062933Y018283D01*
X062933Y018382D02*
X061801Y018382D01*
X061801Y018480D02*
X062933Y018480D01*
X062933Y018579D02*
X061801Y018579D01*
X061801Y018677D02*
X062933Y018677D01*
X062933Y018776D02*
X061801Y018776D01*
X061801Y018874D02*
X062933Y018874D01*
X062933Y018973D02*
X061801Y018973D01*
X061801Y019071D02*
X062933Y019071D01*
X062933Y019170D02*
X061801Y019170D01*
X061801Y019269D02*
X062933Y019269D01*
X062933Y019367D02*
X061801Y019367D01*
X061801Y019466D02*
X062933Y019466D01*
X062933Y019564D02*
X061801Y019564D01*
X061801Y019663D02*
X062933Y019663D01*
X062933Y019761D02*
X061801Y019761D01*
X061801Y019860D02*
X062933Y019860D01*
X062933Y019958D02*
X061801Y019958D01*
X061801Y020057D02*
X062933Y020057D01*
X062933Y020155D02*
X061801Y020155D01*
X061801Y020254D02*
X062933Y020254D01*
X062933Y020353D02*
X061801Y020353D01*
X061801Y020451D02*
X062933Y020451D01*
X062933Y020550D02*
X061801Y020550D01*
X061801Y020648D02*
X062933Y020648D01*
X062933Y020747D02*
X061801Y020747D01*
X061801Y020845D02*
X062933Y020845D01*
X062933Y020944D02*
X061801Y020944D01*
X061801Y021042D02*
X062933Y021042D01*
X062933Y021141D02*
X061801Y021141D01*
X061801Y021239D02*
X062933Y021239D01*
X062933Y021338D02*
X061801Y021338D01*
X061801Y021437D02*
X062933Y021437D01*
X062933Y021535D02*
X061801Y021535D01*
X061801Y021634D02*
X062933Y021634D01*
X062933Y021732D02*
X061801Y021732D01*
X061801Y021831D02*
X062933Y021831D01*
X062933Y021929D02*
X061789Y021929D01*
X061728Y022028D02*
X062933Y022028D01*
X062933Y022126D02*
X061412Y022126D01*
X061412Y022225D02*
X062933Y022225D01*
X062933Y022323D02*
X061412Y022323D01*
X061412Y022422D02*
X062933Y022422D01*
X062933Y022521D02*
X061412Y022521D01*
X061347Y022619D02*
X062933Y022619D01*
X062933Y022718D02*
X061248Y022718D01*
X061150Y022816D02*
X062933Y022816D01*
X062933Y022915D02*
X061208Y022915D01*
X061307Y023013D02*
X062933Y023013D01*
X062933Y023112D02*
X061405Y023112D01*
X061412Y023210D02*
X062933Y023210D01*
X062933Y023309D02*
X061412Y023309D01*
X061412Y023407D02*
X062933Y023407D01*
X062933Y023506D02*
X061412Y023506D01*
X061362Y023604D02*
X062933Y023604D01*
X062933Y023703D02*
X061263Y023703D01*
X061164Y023802D02*
X062933Y023802D01*
X062933Y023900D02*
X061194Y023900D01*
X061292Y023999D02*
X062933Y023999D01*
X062933Y024097D02*
X061391Y024097D01*
X061412Y024196D02*
X062933Y024196D01*
X062933Y024294D02*
X061412Y024294D01*
X061412Y024393D02*
X062933Y024393D01*
X062933Y024491D02*
X061412Y024491D01*
X061376Y024590D02*
X062933Y024590D01*
X062933Y024688D02*
X061278Y024688D01*
X061179Y024787D02*
X062933Y024787D01*
X062933Y024886D02*
X061179Y024886D01*
X061278Y024984D02*
X062933Y024984D01*
X062933Y025083D02*
X061376Y025083D01*
X061412Y025181D02*
X062933Y025181D01*
X062933Y025280D02*
X061412Y025280D01*
X061412Y025378D02*
X062933Y025378D01*
X062933Y025477D02*
X061412Y025477D01*
X061391Y025575D02*
X062933Y025575D01*
X062933Y025674D02*
X061292Y025674D01*
X061194Y025772D02*
X062933Y025772D01*
X062933Y025871D02*
X061165Y025871D01*
X061263Y025970D02*
X062933Y025970D01*
X062933Y026068D02*
X061362Y026068D01*
X061412Y026167D02*
X062933Y026167D01*
X062933Y026265D02*
X061412Y026265D01*
X061412Y026364D02*
X062933Y026364D01*
X062933Y026462D02*
X061412Y026462D01*
X061405Y026561D02*
X062933Y026561D01*
X062933Y026659D02*
X061307Y026659D01*
X061208Y026758D02*
X062933Y026758D01*
X062933Y026856D02*
X061150Y026856D01*
X061249Y026955D02*
X062933Y026955D01*
X062933Y027054D02*
X061347Y027054D01*
X061412Y027152D02*
X062933Y027152D01*
X062933Y027251D02*
X061412Y027251D01*
X061412Y027349D02*
X062933Y027349D01*
X062933Y027448D02*
X061412Y027448D01*
X061412Y027546D02*
X062933Y027546D01*
X062933Y027645D02*
X061321Y027645D01*
X061223Y027743D02*
X062933Y027743D01*
X062933Y027842D02*
X061135Y027842D01*
X061234Y027940D02*
X062933Y027940D01*
X062933Y028039D02*
X061333Y028039D01*
X061412Y028137D02*
X062933Y028137D01*
X062933Y028236D02*
X061412Y028236D01*
X061412Y028335D02*
X062933Y028335D01*
X062933Y028433D02*
X061412Y028433D01*
X061412Y028532D02*
X062933Y028532D01*
X062933Y028630D02*
X061336Y028630D01*
X061237Y028729D02*
X062933Y028729D01*
X062933Y028827D02*
X061139Y028827D01*
X061219Y028926D02*
X062933Y028926D01*
X062933Y029024D02*
X061318Y029024D01*
X061412Y029123D02*
X062933Y029123D01*
X062933Y029221D02*
X061412Y029221D01*
X061412Y029320D02*
X062933Y029320D01*
X062933Y029419D02*
X061412Y029419D01*
X061412Y029517D02*
X062933Y029517D01*
X062933Y029616D02*
X061350Y029616D01*
X061252Y029714D02*
X062933Y029714D01*
X062933Y029813D02*
X061153Y029813D01*
X061205Y029911D02*
X062933Y029911D01*
X062933Y030010D02*
X061303Y030010D01*
X061402Y030108D02*
X062933Y030108D01*
X062933Y030207D02*
X061412Y030207D01*
X061412Y030305D02*
X062933Y030305D01*
X062933Y030404D02*
X061412Y030404D01*
X061412Y030503D02*
X062933Y030503D01*
X062933Y030601D02*
X061365Y030601D01*
X061266Y030700D02*
X062933Y030700D01*
X062933Y030798D02*
X061352Y030798D01*
X061450Y030897D02*
X062933Y030897D01*
X062933Y030995D02*
X061549Y030995D01*
X061598Y031094D02*
X062933Y031094D01*
X062933Y031192D02*
X061601Y031192D01*
X061601Y031291D02*
X062933Y031291D01*
X062933Y031389D02*
X061601Y031389D01*
X061601Y031488D02*
X062933Y031488D01*
X062933Y031586D02*
X061601Y031586D01*
X061601Y031685D02*
X062933Y031685D01*
X062933Y031784D02*
X061601Y031784D01*
X061601Y031882D02*
X062933Y031882D01*
X062933Y031981D02*
X061601Y031981D01*
X061601Y032079D02*
X062933Y032079D01*
X062933Y032178D02*
X061601Y032178D01*
X061601Y032276D02*
X062933Y032276D01*
X062933Y032375D02*
X061601Y032375D01*
X061601Y032473D02*
X062933Y032473D01*
X062933Y032572D02*
X061601Y032572D01*
X061601Y032670D02*
X062933Y032670D01*
X062933Y032769D02*
X061601Y032769D01*
X061601Y032868D02*
X062933Y032868D01*
X062933Y032966D02*
X061601Y032966D01*
X061601Y033065D02*
X062933Y033065D01*
X062933Y033163D02*
X061601Y033163D01*
X061601Y033262D02*
X062933Y033262D01*
X062933Y033360D02*
X061601Y033360D01*
X061601Y033459D02*
X062933Y033459D01*
X062933Y033557D02*
X061601Y033557D01*
X061601Y033656D02*
X062933Y033656D01*
X062933Y033754D02*
X061601Y033754D01*
X061601Y033853D02*
X062933Y033853D01*
X062933Y033952D02*
X061580Y033952D01*
X061506Y034050D02*
X062933Y034050D01*
X062933Y034149D02*
X054507Y034149D01*
X054409Y034247D02*
X062933Y034247D01*
X062933Y034346D02*
X054310Y034346D01*
X054212Y034444D02*
X062933Y034444D01*
X062933Y034543D02*
X054113Y034543D01*
X054014Y034641D02*
X062933Y034641D01*
X062933Y034740D02*
X053916Y034740D01*
X053890Y034838D02*
X054983Y034838D01*
X054943Y034855D02*
X055038Y034815D01*
X055142Y034815D01*
X055876Y034815D01*
X055971Y034855D01*
X056045Y034928D01*
X056228Y035112D01*
X056268Y035207D01*
X056268Y035311D01*
X056268Y035677D01*
X056228Y035773D01*
X056224Y035777D01*
X056074Y035927D01*
X056084Y035930D01*
X056109Y035935D01*
X056131Y035950D01*
X056155Y035960D01*
X056173Y035978D01*
X056195Y035993D01*
X056210Y036015D01*
X056228Y036033D01*
X056238Y036057D01*
X056253Y036079D01*
X056258Y036105D01*
X056268Y036129D01*
X056268Y036155D01*
X056273Y036181D01*
X056268Y036206D01*
X056268Y036232D01*
X056257Y036256D01*
X056252Y036282D01*
X056238Y036304D01*
X056228Y036328D01*
X056209Y036346D01*
X056195Y036368D01*
X056173Y036382D01*
X056155Y036401D01*
X056131Y036411D01*
X055765Y036654D01*
X056059Y036654D01*
X056155Y036694D01*
X056228Y036767D01*
X056268Y036862D01*
X056268Y036966D01*
X056228Y037061D01*
X056190Y037100D01*
X056228Y037138D01*
X056268Y037233D01*
X056268Y037887D01*
X056228Y037983D01*
X056224Y037987D01*
X056045Y038166D01*
X055975Y038236D01*
X055971Y038239D01*
X055971Y038240D02*
X055917Y038262D01*
X055876Y038279D01*
X055772Y038279D01*
X055038Y038279D01*
X055000Y038263D01*
X054943Y038240D01*
X054870Y038166D01*
X054686Y037983D01*
X054647Y037887D01*
X054647Y037784D01*
X054647Y037233D01*
X054686Y037138D01*
X054721Y037103D01*
X054719Y037101D01*
X054705Y037080D01*
X054686Y037061D01*
X054676Y037037D01*
X054662Y037015D01*
X054657Y036990D01*
X054647Y036966D01*
X054647Y036940D01*
X054642Y036914D01*
X054647Y036889D01*
X054647Y036862D01*
X054657Y036838D01*
X054662Y036812D01*
X054676Y036791D01*
X054686Y036767D01*
X054705Y036748D01*
X054719Y036727D01*
X054741Y036712D01*
X054759Y036694D01*
X054784Y036684D01*
X055149Y036440D01*
X054855Y036440D01*
X054759Y036401D01*
X054686Y036328D01*
X054647Y036232D01*
X054647Y036129D01*
X054686Y036033D01*
X054759Y035960D01*
X054840Y035927D01*
X054686Y035773D01*
X054647Y035677D01*
X054647Y035574D01*
X054647Y035207D01*
X054686Y035112D01*
X054759Y035038D01*
X054943Y034855D01*
X054861Y034937D02*
X053949Y034937D01*
X053990Y035036D02*
X054762Y035036D01*
X054677Y035134D02*
X053996Y035134D01*
X053996Y035233D02*
X054647Y035233D01*
X054647Y035331D02*
X053960Y035331D01*
X053916Y035430D02*
X054647Y035430D01*
X054647Y035528D02*
X053818Y035528D01*
X053629Y035627D02*
X054647Y035627D01*
X054667Y035725D02*
X050768Y035725D01*
X050876Y035824D02*
X054737Y035824D01*
X054836Y035922D02*
X050943Y035922D01*
X050984Y036021D02*
X054698Y036021D01*
X054650Y036119D02*
X050996Y036119D01*
X050996Y036218D02*
X054647Y036218D01*
X054682Y036317D02*
X050966Y036317D01*
X050925Y036415D02*
X054794Y036415D01*
X054891Y036612D02*
X050664Y036612D01*
X050832Y036514D02*
X055039Y036514D01*
X054742Y036711D02*
X049945Y036711D01*
X049479Y036301D02*
X049456Y036245D01*
X049456Y036050D01*
X049531Y035870D01*
X049599Y035801D01*
X044855Y035801D01*
X045355Y036301D01*
X049479Y036301D01*
X049456Y036218D02*
X045271Y036218D01*
X045173Y036119D02*
X049456Y036119D01*
X049468Y036021D02*
X045074Y036021D01*
X044976Y035922D02*
X049509Y035922D01*
X049576Y035824D02*
X044877Y035824D01*
X044565Y036218D02*
X043516Y036218D01*
X043516Y036119D02*
X044466Y036119D01*
X044367Y036021D02*
X043504Y036021D01*
X043463Y035922D02*
X044269Y035922D01*
X044663Y036317D02*
X043486Y036317D01*
X043445Y036415D02*
X044762Y036415D01*
X044860Y036514D02*
X043352Y036514D01*
X043184Y036612D02*
X044959Y036612D01*
X045057Y036711D02*
X042445Y036711D01*
X042347Y036809D02*
X054664Y036809D01*
X054643Y036908D02*
X042248Y036908D01*
X041529Y036119D02*
X036035Y036119D01*
X036035Y036050D02*
X036035Y036245D01*
X036012Y036301D01*
X041348Y036301D01*
X041948Y035701D01*
X038955Y035701D01*
X038893Y035763D01*
X038801Y035801D01*
X035892Y035801D01*
X035961Y035870D01*
X036035Y036050D01*
X036023Y036021D02*
X041628Y036021D01*
X041726Y035922D02*
X035983Y035922D01*
X035915Y035824D02*
X041825Y035824D01*
X041924Y035725D02*
X038931Y035725D01*
X041431Y036218D02*
X036035Y036218D01*
X034639Y035801D02*
X028412Y035801D01*
X028480Y035870D01*
X028555Y036050D01*
X028555Y036245D01*
X028532Y036301D01*
X034519Y036301D01*
X034495Y036245D01*
X034495Y036050D01*
X034570Y035870D01*
X034639Y035801D01*
X034616Y035824D02*
X028435Y035824D01*
X028502Y035922D02*
X034548Y035922D01*
X034507Y036021D02*
X028543Y036021D01*
X028555Y036119D02*
X034495Y036119D01*
X034495Y036218D02*
X028555Y036218D01*
X026762Y036415D02*
X022069Y036415D01*
X021970Y036317D02*
X026663Y036317D01*
X026565Y036218D02*
X021872Y036218D01*
X021773Y036119D02*
X026466Y036119D01*
X021867Y036021D02*
X021674Y036021D01*
X021769Y035922D02*
X021576Y035922D01*
X021670Y035824D02*
X021477Y035824D01*
X021572Y035725D02*
X021379Y035725D01*
X021473Y035627D02*
X021263Y035627D01*
X021375Y035528D02*
X020245Y035528D01*
X020286Y035430D02*
X021276Y035430D01*
X021178Y035331D02*
X020287Y035331D01*
X020287Y035233D02*
X021079Y035233D01*
X020981Y035134D02*
X020247Y035134D01*
X020197Y035036D02*
X020882Y035036D01*
X020783Y034937D02*
X020099Y034937D01*
X020079Y034740D02*
X020586Y034740D01*
X020488Y034641D02*
X020177Y034641D01*
X020239Y034543D02*
X020389Y034543D01*
X020291Y034444D02*
X020280Y034444D01*
X019895Y034838D02*
X020685Y034838D01*
X019140Y034838D02*
X015808Y034838D01*
X015988Y034913D01*
X016126Y035051D01*
X016201Y035231D01*
X016201Y035426D01*
X016126Y035606D01*
X015988Y035744D01*
X015808Y035818D01*
X015053Y035818D01*
X014873Y035744D01*
X014735Y035606D01*
X014661Y035426D01*
X014661Y035231D01*
X014735Y035051D01*
X014873Y034913D01*
X015053Y034838D01*
X015808Y034838D01*
X015992Y034740D02*
X018956Y034740D01*
X018857Y034641D02*
X016091Y034641D01*
X016152Y034543D02*
X018796Y034543D01*
X018755Y034444D02*
X016193Y034444D01*
X016201Y034346D02*
X018747Y034346D01*
X018747Y034247D02*
X016201Y034247D01*
X016167Y034149D02*
X018781Y034149D01*
X018823Y034050D02*
X016125Y034050D01*
X016027Y033952D02*
X018921Y033952D01*
X018986Y033754D02*
X015962Y033754D01*
X016076Y033656D02*
X018872Y033656D01*
X018802Y033557D02*
X016146Y033557D01*
X016187Y033459D02*
X018761Y033459D01*
X018747Y033360D02*
X016201Y033360D01*
X016201Y033262D02*
X018747Y033262D01*
X018775Y033163D02*
X016173Y033163D01*
X016132Y033065D02*
X018816Y033065D01*
X019104Y033853D02*
X015844Y033853D01*
X014736Y034050D02*
X013125Y034050D01*
X013167Y034149D02*
X014695Y034149D01*
X014661Y034247D02*
X013201Y034247D01*
X013201Y034346D02*
X014661Y034346D01*
X014668Y034444D02*
X013193Y034444D01*
X013152Y034543D02*
X014709Y034543D01*
X014771Y034641D02*
X013091Y034641D01*
X012992Y034740D02*
X014869Y034740D01*
X014849Y034937D02*
X013012Y034937D01*
X012988Y034913D02*
X013126Y035051D01*
X013201Y035231D01*
X013201Y035426D01*
X013126Y035606D01*
X012988Y035744D01*
X012808Y035818D01*
X012053Y035818D01*
X011873Y035744D01*
X011735Y035606D01*
X011661Y035426D01*
X011661Y035231D01*
X011735Y035051D01*
X011873Y034913D01*
X012053Y034838D01*
X012808Y034838D01*
X012988Y034913D01*
X013111Y035036D02*
X014751Y035036D01*
X014701Y035134D02*
X013161Y035134D01*
X013201Y035233D02*
X014661Y035233D01*
X014661Y035331D02*
X013201Y035331D01*
X013199Y035430D02*
X014662Y035430D01*
X014703Y035528D02*
X013158Y035528D01*
X013105Y035627D02*
X014756Y035627D01*
X014855Y035725D02*
X013007Y035725D01*
X012988Y035913D02*
X013126Y036051D01*
X013201Y036231D01*
X013201Y036426D01*
X013126Y036606D01*
X012988Y036744D01*
X012808Y036818D01*
X012053Y036818D01*
X011873Y036744D01*
X011735Y036606D01*
X011661Y036426D01*
X011661Y036231D01*
X011735Y036051D01*
X011873Y035913D01*
X012053Y035838D01*
X012808Y035838D01*
X012988Y035913D01*
X012998Y035922D02*
X018443Y035922D01*
X018379Y035824D02*
X000361Y035824D01*
X000361Y035922D02*
X004777Y035922D01*
X004786Y035913D02*
X004967Y035838D01*
X005722Y035838D01*
X005902Y035913D01*
X006039Y036051D01*
X006114Y036231D01*
X006114Y036426D01*
X006039Y036606D01*
X005902Y036744D01*
X005722Y036818D01*
X004967Y036818D01*
X004786Y036744D01*
X004649Y036606D01*
X004574Y036426D01*
X004574Y036231D01*
X004649Y036051D01*
X004786Y035913D01*
X004679Y036021D02*
X000361Y036021D01*
X000361Y036119D02*
X004620Y036119D01*
X004579Y036218D02*
X000361Y036218D01*
X000361Y036317D02*
X004574Y036317D01*
X004574Y036415D02*
X002594Y036415D01*
X002745Y036470D02*
X002337Y036321D01*
X002337Y036321D01*
X001903Y036321D01*
X001903Y036321D01*
X001495Y036470D01*
X001494Y036470D01*
X001162Y036749D01*
X001162Y036749D01*
X001162Y036749D01*
X000945Y037125D01*
X000945Y037125D01*
X000869Y037553D01*
X000869Y037553D01*
X000945Y037980D01*
X000945Y037980D01*
X001162Y038356D01*
X001162Y038356D01*
X001495Y038635D01*
X001495Y038636D01*
X001903Y038784D01*
X002337Y038784D01*
X002337Y038784D01*
X002745Y038636D01*
X002745Y038636D01*
X003077Y038356D01*
X003077Y038356D01*
X003077Y038356D01*
X003295Y037980D01*
X003370Y037553D01*
X003295Y037125D01*
X003295Y037125D01*
X003077Y036749D01*
X003077Y036749D01*
X002745Y036470D01*
X002745Y036470D01*
X002797Y036514D02*
X004611Y036514D01*
X004655Y036612D02*
X002914Y036612D01*
X003032Y036711D02*
X004754Y036711D01*
X004945Y036809D02*
X003112Y036809D01*
X003169Y036908D02*
X019641Y036908D01*
X019641Y037006D02*
X003226Y037006D01*
X003283Y037105D02*
X019671Y037105D01*
X019724Y037203D02*
X003308Y037203D01*
X003326Y037302D02*
X019827Y037302D01*
X020200Y037401D02*
X003343Y037401D01*
X003360Y037499D02*
X006492Y037499D01*
X006535Y037456D02*
X006941Y037456D01*
X007228Y037744D01*
X007228Y038149D01*
X006941Y038436D01*
X006535Y038436D01*
X006248Y038149D01*
X006248Y037744D01*
X006535Y037456D01*
X006394Y037598D02*
X003362Y037598D01*
X003345Y037696D02*
X006295Y037696D01*
X006248Y037795D02*
X003327Y037795D01*
X003310Y037893D02*
X006248Y037893D01*
X006248Y037992D02*
X003288Y037992D01*
X003295Y037980D02*
X003295Y037980D01*
X003231Y038090D02*
X006248Y038090D01*
X006287Y038189D02*
X003174Y038189D01*
X003117Y038287D02*
X006386Y038287D01*
X006484Y038386D02*
X003042Y038386D01*
X002925Y038485D02*
X058401Y038485D01*
X058519Y038583D02*
X002807Y038583D01*
X002618Y038682D02*
X058708Y038682D01*
X058581Y038636D02*
X058989Y038784D01*
X058989Y038784D01*
X059423Y038784D01*
X059423Y038784D01*
X059831Y038636D01*
X059831Y038636D01*
X060164Y038356D01*
X060164Y038356D01*
X060381Y037980D01*
X060457Y037553D01*
X060381Y037125D01*
X060381Y037125D01*
X060164Y036749D01*
X060164Y036749D01*
X059831Y036470D01*
X059831Y036470D01*
X059423Y036321D01*
X059423Y036321D01*
X058989Y036321D01*
X058989Y036321D01*
X058581Y036470D01*
X058581Y036470D01*
X058249Y036749D01*
X058249Y036749D01*
X058249Y036749D01*
X058031Y037125D01*
X058031Y037125D01*
X057956Y037553D01*
X057956Y037553D01*
X058031Y037980D01*
X058031Y037980D01*
X058249Y038356D01*
X058249Y038356D01*
X058581Y038636D01*
X058581Y038636D01*
X058284Y038386D02*
X051873Y038386D01*
X051823Y038436D02*
X051417Y038436D01*
X051130Y038149D01*
X051130Y037744D01*
X051417Y037456D01*
X051823Y037456D01*
X052110Y037744D01*
X052110Y038149D01*
X051823Y038436D01*
X051972Y038287D02*
X058209Y038287D01*
X058152Y038189D02*
X056022Y038189D01*
X056045Y038166D02*
X056045Y038166D01*
X055971Y038239D02*
X055971Y038240D01*
X056121Y038090D02*
X058095Y038090D01*
X058038Y037992D02*
X056219Y037992D01*
X056265Y037893D02*
X058016Y037893D01*
X057999Y037795D02*
X056268Y037795D01*
X056268Y037696D02*
X057981Y037696D01*
X057964Y037598D02*
X056268Y037598D01*
X056268Y037499D02*
X057965Y037499D01*
X057983Y037401D02*
X056268Y037401D01*
X056268Y037302D02*
X058000Y037302D01*
X058018Y037203D02*
X056255Y037203D01*
X056195Y037105D02*
X058043Y037105D01*
X058100Y037006D02*
X056251Y037006D01*
X056268Y036908D02*
X058157Y036908D01*
X058214Y036809D02*
X056246Y036809D01*
X056172Y036711D02*
X058294Y036711D01*
X058412Y036612D02*
X055828Y036612D01*
X055976Y036514D02*
X058529Y036514D01*
X058732Y036415D02*
X056124Y036415D01*
X056233Y036317D02*
X062933Y036317D01*
X062933Y036415D02*
X059681Y036415D01*
X059883Y036514D02*
X062933Y036514D01*
X062933Y036612D02*
X060001Y036612D01*
X060118Y036711D02*
X062933Y036711D01*
X062933Y036809D02*
X060199Y036809D01*
X060256Y036908D02*
X062933Y036908D01*
X062933Y037006D02*
X060313Y037006D01*
X060370Y037105D02*
X062933Y037105D01*
X062933Y037203D02*
X060395Y037203D01*
X060412Y037302D02*
X062933Y037302D01*
X062933Y037401D02*
X060430Y037401D01*
X060447Y037499D02*
X062933Y037499D01*
X062933Y037598D02*
X060449Y037598D01*
X060431Y037696D02*
X062933Y037696D01*
X062933Y037795D02*
X060414Y037795D01*
X060397Y037893D02*
X062933Y037893D01*
X062933Y037992D02*
X060375Y037992D01*
X060381Y037980D02*
X060381Y037980D01*
X060318Y038090D02*
X062933Y038090D01*
X062933Y038189D02*
X060261Y038189D01*
X060204Y038287D02*
X062933Y038287D01*
X062933Y038386D02*
X060129Y038386D01*
X060164Y038356D02*
X060164Y038356D01*
X060011Y038485D02*
X062933Y038485D01*
X062933Y038583D02*
X059894Y038583D01*
X059705Y038682D02*
X062933Y038682D01*
X062933Y038780D02*
X059434Y038780D01*
X058978Y038780D02*
X002348Y038780D01*
X001892Y038780D02*
X000361Y038780D01*
X000361Y038682D02*
X001621Y038682D01*
X001432Y038583D02*
X000361Y038583D01*
X000361Y038485D02*
X001315Y038485D01*
X001197Y038386D02*
X000361Y038386D01*
X000361Y038287D02*
X001122Y038287D01*
X001065Y038189D02*
X000361Y038189D01*
X000361Y038090D02*
X001008Y038090D01*
X000951Y037992D02*
X000361Y037992D01*
X000361Y037893D02*
X000929Y037893D01*
X000912Y037795D02*
X000361Y037795D01*
X000361Y037696D02*
X000895Y037696D01*
X000877Y037598D02*
X000361Y037598D01*
X000361Y037499D02*
X000879Y037499D01*
X000896Y037401D02*
X000361Y037401D01*
X000361Y037302D02*
X000914Y037302D01*
X000931Y037203D02*
X000361Y037203D01*
X000361Y037105D02*
X000956Y037105D01*
X001013Y037006D02*
X000361Y037006D01*
X000361Y036908D02*
X001070Y036908D01*
X001127Y036809D02*
X000361Y036809D01*
X000361Y036711D02*
X001208Y036711D01*
X001325Y036612D02*
X000361Y036612D01*
X000361Y036514D02*
X001442Y036514D01*
X001645Y036415D02*
X000361Y036415D01*
X000361Y035725D02*
X004768Y035725D01*
X004786Y035744D02*
X004649Y035606D01*
X004574Y035426D01*
X004574Y035231D01*
X004649Y035051D01*
X004786Y034913D01*
X004967Y034838D01*
X005722Y034838D01*
X007966Y034838D01*
X007967Y034838D02*
X007786Y034913D01*
X007649Y035051D01*
X007574Y035231D01*
X007574Y035426D01*
X007649Y035606D01*
X007786Y035744D01*
X007967Y035818D01*
X008722Y035818D01*
X008902Y035744D01*
X009039Y035606D01*
X009114Y035426D01*
X009114Y035231D01*
X009039Y035051D01*
X008902Y034913D01*
X008722Y034838D01*
X012053Y034838D01*
X011869Y034740D02*
X008905Y034740D01*
X008902Y034744D02*
X008722Y034818D01*
X007967Y034818D01*
X007786Y034744D01*
X007649Y034606D01*
X007574Y034426D01*
X007574Y034231D01*
X007649Y034051D01*
X007786Y033913D01*
X007967Y033838D01*
X008722Y033838D01*
X008902Y033913D01*
X009039Y034051D01*
X009114Y034231D01*
X009114Y034426D01*
X009039Y034606D01*
X008902Y034744D01*
X009004Y034641D02*
X011771Y034641D01*
X011709Y034543D02*
X009066Y034543D01*
X009106Y034444D02*
X011668Y034444D01*
X011661Y034346D02*
X009114Y034346D01*
X009114Y034247D02*
X011661Y034247D01*
X011695Y034149D02*
X009080Y034149D01*
X009039Y034050D02*
X011736Y034050D01*
X010598Y033952D02*
X008940Y033952D01*
X008876Y033754D02*
X010401Y033754D01*
X010302Y033656D02*
X008989Y033656D01*
X009060Y033557D02*
X010204Y033557D01*
X010105Y033459D02*
X009100Y033459D01*
X009114Y033360D02*
X010007Y033360D01*
X009908Y033262D02*
X009114Y033262D01*
X009086Y033163D02*
X009810Y033163D01*
X009711Y033065D02*
X009045Y033065D01*
X008955Y032966D02*
X009613Y032966D01*
X009514Y032868D02*
X008792Y032868D01*
X008841Y032769D02*
X009416Y032769D01*
X009317Y032670D02*
X008975Y032670D01*
X009054Y032572D02*
X009218Y032572D01*
X009120Y032473D02*
X009094Y032473D01*
X007588Y033459D02*
X007497Y033459D01*
X007398Y033557D02*
X007629Y033557D01*
X007699Y033656D02*
X007300Y033656D01*
X007201Y033754D02*
X007812Y033754D01*
X007931Y033853D02*
X007103Y033853D01*
X007063Y033893D02*
X007063Y033893D01*
X007004Y033952D02*
X007748Y033952D01*
X007649Y034050D02*
X006039Y034050D01*
X006080Y034149D02*
X007608Y034149D01*
X007574Y034247D02*
X006114Y034247D01*
X006114Y034346D02*
X007574Y034346D01*
X007582Y034444D02*
X006106Y034444D01*
X006066Y034543D02*
X007623Y034543D01*
X007684Y034641D02*
X006004Y034641D01*
X005905Y034740D02*
X007783Y034740D01*
X007762Y034937D02*
X005926Y034937D01*
X005902Y034913D02*
X006039Y035051D01*
X006114Y035231D01*
X006114Y035426D01*
X006039Y035606D01*
X005902Y035744D01*
X005722Y035818D01*
X004967Y035818D01*
X004786Y035744D01*
X004670Y035627D02*
X000361Y035627D01*
X000361Y035528D02*
X004617Y035528D01*
X004576Y035430D02*
X000361Y035430D01*
X000361Y035331D02*
X004574Y035331D01*
X004574Y035233D02*
X000361Y035233D01*
X000361Y035134D02*
X004614Y035134D01*
X004664Y035036D02*
X000361Y035036D01*
X000361Y034937D02*
X004762Y034937D01*
X004783Y034740D02*
X000361Y034740D01*
X000361Y034838D02*
X004966Y034838D01*
X004684Y034641D02*
X000361Y034641D01*
X000361Y034543D02*
X004623Y034543D01*
X004582Y034444D02*
X000361Y034444D01*
X000361Y034346D02*
X004574Y034346D01*
X004574Y034247D02*
X000361Y034247D01*
X000361Y034149D02*
X004608Y034149D01*
X004649Y034050D02*
X000361Y034050D01*
X000361Y033952D02*
X004698Y033952D01*
X004600Y033853D02*
X000361Y033853D01*
X000361Y033754D02*
X004501Y033754D01*
X004402Y033656D02*
X000361Y033656D01*
X000361Y033557D02*
X004304Y033557D01*
X004225Y033459D02*
X000361Y033459D01*
X000361Y033360D02*
X004201Y033360D01*
X004201Y033262D02*
X000361Y033262D01*
X000361Y033163D02*
X004201Y033163D01*
X004201Y033065D02*
X000361Y033065D01*
X000361Y032966D02*
X004201Y032966D01*
X004201Y032868D02*
X000361Y032868D01*
X000361Y032769D02*
X004201Y032769D01*
X004201Y032670D02*
X000361Y032670D01*
X000361Y032572D02*
X004201Y032572D01*
X004201Y032473D02*
X000361Y032473D01*
X000361Y032375D02*
X004201Y032375D01*
X004201Y032276D02*
X000361Y032276D01*
X000361Y032178D02*
X004201Y032178D01*
X004201Y032079D02*
X000361Y032079D01*
X000361Y031981D02*
X004201Y031981D01*
X004201Y031882D02*
X000361Y031882D01*
X000361Y031784D02*
X004201Y031784D01*
X004201Y031685D02*
X000361Y031685D01*
X000361Y031586D02*
X004201Y031586D01*
X004201Y031488D02*
X000361Y031488D01*
X000361Y031389D02*
X004201Y031389D01*
X004201Y031291D02*
X000361Y031291D01*
X000361Y031192D02*
X004201Y031192D01*
X004201Y031094D02*
X000361Y031094D01*
X000361Y030995D02*
X004201Y030995D01*
X004201Y030897D02*
X000361Y030897D01*
X000361Y030798D02*
X004201Y030798D01*
X004201Y030700D02*
X000361Y030700D01*
X000361Y030601D02*
X004201Y030601D01*
X004201Y030503D02*
X000361Y030503D01*
X000361Y030404D02*
X004201Y030404D01*
X004201Y030305D02*
X000361Y030305D01*
X000361Y030207D02*
X004201Y030207D01*
X004201Y030108D02*
X000361Y030108D01*
X000361Y030010D02*
X004201Y030010D01*
X004201Y029911D02*
X000361Y029911D01*
X000361Y029813D02*
X004201Y029813D01*
X004201Y029714D02*
X000361Y029714D01*
X000361Y029616D02*
X004201Y029616D01*
X004201Y029517D02*
X000361Y029517D01*
X000361Y029419D02*
X004201Y029419D01*
X004201Y029320D02*
X000361Y029320D01*
X000361Y029221D02*
X004201Y029221D01*
X004201Y029123D02*
X000361Y029123D01*
X000361Y029024D02*
X004201Y029024D01*
X004201Y028926D02*
X000361Y028926D01*
X000361Y028827D02*
X004201Y028827D01*
X004201Y028729D02*
X000361Y028729D01*
X000361Y028630D02*
X004201Y028630D01*
X004201Y028532D02*
X000361Y028532D01*
X000361Y028433D02*
X004201Y028433D01*
X004201Y028335D02*
X000361Y028335D01*
X000361Y028236D02*
X004201Y028236D01*
X004201Y028137D02*
X000361Y028137D01*
X000361Y028039D02*
X004201Y028039D01*
X004201Y027940D02*
X000361Y027940D01*
X000361Y027842D02*
X004201Y027842D01*
X004201Y027743D02*
X000361Y027743D01*
X000361Y027645D02*
X004201Y027645D01*
X004201Y027546D02*
X000361Y027546D01*
X000361Y027448D02*
X004201Y027448D01*
X004201Y027349D02*
X000361Y027349D01*
X000361Y027251D02*
X004201Y027251D01*
X004201Y027152D02*
X000361Y027152D01*
X000361Y027054D02*
X004201Y027054D01*
X004201Y026955D02*
X000361Y026955D01*
X000361Y026856D02*
X004201Y026856D01*
X004201Y026758D02*
X000361Y026758D01*
X000361Y026659D02*
X004201Y026659D01*
X004201Y026561D02*
X000361Y026561D01*
X000361Y026462D02*
X004201Y026462D01*
X004201Y026364D02*
X000361Y026364D01*
X000361Y026265D02*
X004201Y026265D01*
X004201Y026167D02*
X000361Y026167D01*
X000361Y026068D02*
X004201Y026068D01*
X004201Y025970D02*
X000361Y025970D01*
X000361Y025871D02*
X004201Y025871D01*
X004201Y025772D02*
X000361Y025772D01*
X000361Y025674D02*
X004201Y025674D01*
X004201Y025575D02*
X000361Y025575D01*
X000361Y025477D02*
X004201Y025477D01*
X004201Y025378D02*
X000361Y025378D01*
X000361Y025280D02*
X004201Y025280D01*
X004201Y025181D02*
X000361Y025181D01*
X000361Y025083D02*
X004201Y025083D01*
X004201Y024984D02*
X000361Y024984D01*
X000361Y024886D02*
X004201Y024886D01*
X004201Y024787D02*
X000361Y024787D01*
X000361Y024688D02*
X004201Y024688D01*
X004201Y024590D02*
X000361Y024590D01*
X000361Y024491D02*
X004201Y024491D01*
X004201Y024393D02*
X000361Y024393D01*
X000361Y024294D02*
X004201Y024294D01*
X004201Y024196D02*
X000361Y024196D01*
X000361Y024097D02*
X004201Y024097D01*
X004201Y023999D02*
X000361Y023999D01*
X000361Y023900D02*
X004201Y023900D01*
X004201Y023802D02*
X000361Y023802D01*
X000361Y023703D02*
X004201Y023703D01*
X004201Y023604D02*
X000361Y023604D01*
X000361Y023506D02*
X004201Y023506D01*
X004201Y023407D02*
X000361Y023407D01*
X000361Y023309D02*
X004201Y023309D01*
X004201Y023210D02*
X000361Y023210D01*
X000361Y023112D02*
X004201Y023112D01*
X004201Y023013D02*
X000361Y023013D01*
X000361Y022915D02*
X004201Y022915D01*
X004201Y022816D02*
X000361Y022816D01*
X000361Y022718D02*
X004201Y022718D01*
X004201Y022619D02*
X000361Y022619D01*
X000361Y022521D02*
X004201Y022521D01*
X004201Y022422D02*
X000361Y022422D01*
X000361Y022323D02*
X004201Y022323D01*
X004201Y022225D02*
X000361Y022225D01*
X000361Y022126D02*
X004201Y022126D01*
X004201Y022028D02*
X000361Y022028D01*
X000361Y021929D02*
X004201Y021929D01*
X004201Y021831D02*
X000361Y021831D01*
X000361Y021732D02*
X004201Y021732D01*
X004201Y021634D02*
X000361Y021634D01*
X000361Y021535D02*
X004201Y021535D01*
X004201Y021437D02*
X000361Y021437D01*
X000361Y021338D02*
X004201Y021338D01*
X004201Y021239D02*
X000361Y021239D01*
X000361Y021141D02*
X004201Y021141D01*
X004201Y021042D02*
X000361Y021042D01*
X000361Y020944D02*
X004201Y020944D01*
X004201Y020845D02*
X000361Y020845D01*
X000361Y020747D02*
X004201Y020747D01*
X004201Y020648D02*
X000361Y020648D01*
X000361Y020550D02*
X004201Y020550D01*
X004201Y020451D02*
X000361Y020451D01*
X000361Y020353D02*
X004201Y020353D01*
X004201Y020254D02*
X000361Y020254D01*
X000361Y020155D02*
X004201Y020155D01*
X004201Y020057D02*
X000361Y020057D01*
X000361Y019958D02*
X004201Y019958D01*
X004201Y019860D02*
X000361Y019860D01*
X000361Y019761D02*
X004201Y019761D01*
X004201Y019663D02*
X000361Y019663D01*
X000361Y019564D02*
X004201Y019564D01*
X004201Y019466D02*
X000361Y019466D01*
X000361Y019367D02*
X004215Y019367D01*
X004280Y019269D02*
X000361Y019269D01*
X000361Y019170D02*
X004597Y019170D01*
X004574Y019071D02*
X000361Y019071D01*
X000361Y018973D02*
X004574Y018973D01*
X004593Y018874D02*
X000361Y018874D01*
X000361Y018776D02*
X004634Y018776D01*
X004711Y018677D02*
X000361Y018677D01*
X000361Y018579D02*
X004842Y018579D01*
X004901Y018480D02*
X000361Y018480D01*
X000361Y018382D02*
X004736Y018382D01*
X004786Y018433D02*
X004649Y018295D01*
X004574Y018115D01*
X004574Y017920D01*
X004649Y017740D01*
X004786Y017602D01*
X004967Y017527D01*
X005722Y017527D01*
X005902Y017602D01*
X006039Y017740D01*
X006114Y017920D01*
X006114Y018115D01*
X006039Y018295D01*
X005902Y018433D01*
X005722Y018507D01*
X004967Y018507D01*
X004786Y018433D01*
X004644Y018283D02*
X000361Y018283D01*
X000361Y018185D02*
X004603Y018185D01*
X004574Y018086D02*
X000361Y018086D01*
X000361Y017988D02*
X004574Y017988D01*
X004587Y017889D02*
X000361Y017889D01*
X000361Y017790D02*
X004628Y017790D01*
X004697Y017692D02*
X000361Y017692D01*
X000361Y017593D02*
X004807Y017593D01*
X005881Y017593D02*
X007807Y017593D01*
X007697Y017692D02*
X005992Y017692D01*
X006060Y017790D02*
X007628Y017790D01*
X007587Y017889D02*
X006101Y017889D01*
X006114Y017988D02*
X007574Y017988D01*
X007574Y018086D02*
X006114Y018086D01*
X006085Y018185D02*
X007603Y018185D01*
X007644Y018283D02*
X006044Y018283D01*
X005953Y018382D02*
X007736Y018382D01*
X007901Y018480D02*
X005787Y018480D01*
X005846Y018579D02*
X007842Y018579D01*
X007711Y018677D02*
X005977Y018677D01*
X006054Y018776D02*
X007634Y018776D01*
X007593Y018874D02*
X006095Y018874D01*
X006114Y018973D02*
X007574Y018973D01*
X007574Y019071D02*
X006114Y019071D01*
X006091Y019170D02*
X007597Y019170D01*
X007687Y019701D02*
X006001Y019701D01*
X006039Y019740D01*
X006114Y019920D01*
X006114Y020115D01*
X006039Y020295D01*
X005902Y020433D01*
X005722Y020507D01*
X004967Y020507D01*
X004786Y020433D01*
X004701Y020347D01*
X004701Y020687D01*
X004786Y020602D01*
X004967Y020527D01*
X005722Y020527D01*
X005902Y020602D01*
X006039Y020740D01*
X006114Y020920D01*
X006114Y021115D01*
X006039Y021295D01*
X005902Y021433D01*
X005722Y021507D01*
X004967Y021507D01*
X004786Y021433D01*
X004701Y021347D01*
X004701Y021687D01*
X004786Y021602D01*
X004967Y021527D01*
X005722Y021527D01*
X005902Y021602D01*
X006039Y021740D01*
X006114Y021920D01*
X006114Y022115D01*
X006039Y022295D01*
X005902Y022433D01*
X005722Y022507D01*
X004967Y022507D01*
X004786Y022433D01*
X004701Y022347D01*
X004701Y022687D01*
X004786Y022602D01*
X004967Y022527D01*
X005722Y022527D01*
X005902Y022602D01*
X006039Y022740D01*
X006114Y022920D01*
X006114Y023115D01*
X006039Y023295D01*
X005902Y023433D01*
X005722Y023507D01*
X004967Y023507D01*
X004786Y023433D01*
X004701Y023347D01*
X004701Y023687D01*
X004786Y023602D01*
X004967Y023527D01*
X005722Y023527D01*
X005902Y023602D01*
X006039Y023740D01*
X006114Y023920D01*
X006114Y024115D01*
X006039Y024295D01*
X005902Y024433D01*
X005722Y024507D01*
X004967Y024507D01*
X004786Y024433D01*
X004701Y024347D01*
X004701Y028998D01*
X004786Y028913D01*
X004967Y028838D01*
X005722Y028838D01*
X005902Y028913D01*
X006039Y029051D01*
X006086Y029163D01*
X010439Y024810D01*
X010510Y024739D01*
X010601Y024701D01*
X011648Y024701D01*
X010808Y023861D01*
X010716Y023861D01*
X010761Y023970D01*
X010761Y024133D01*
X010699Y024283D01*
X010583Y024399D01*
X010433Y024461D01*
X010270Y024461D01*
X010119Y024399D01*
X010004Y024283D01*
X009941Y024133D01*
X009941Y023995D01*
X009099Y023152D01*
X009039Y023295D01*
X008902Y023433D01*
X008722Y023507D01*
X007967Y023507D01*
X007786Y023433D01*
X007649Y023295D01*
X007574Y023115D01*
X007574Y022920D01*
X007649Y022740D01*
X007786Y022602D01*
X007967Y022527D01*
X008474Y022527D01*
X008454Y022507D01*
X007967Y022507D01*
X007786Y022433D01*
X007649Y022295D01*
X007574Y022115D01*
X007574Y021920D01*
X007649Y021740D01*
X007786Y021602D01*
X007967Y021527D01*
X008474Y021527D01*
X008454Y021507D01*
X007967Y021507D01*
X007786Y021433D01*
X007649Y021295D01*
X007574Y021115D01*
X007574Y020920D01*
X007649Y020740D01*
X007786Y020602D01*
X007967Y020527D01*
X008474Y020527D01*
X008454Y020507D01*
X007967Y020507D01*
X007786Y020433D01*
X007649Y020295D01*
X007574Y020115D01*
X007574Y019920D01*
X007649Y019740D01*
X007687Y019701D01*
X007640Y019761D02*
X006048Y019761D01*
X006089Y019860D02*
X007599Y019860D01*
X007574Y019958D02*
X006114Y019958D01*
X006114Y020057D02*
X007574Y020057D01*
X007591Y020155D02*
X006097Y020155D01*
X006056Y020254D02*
X007632Y020254D01*
X007706Y020353D02*
X005982Y020353D01*
X005857Y020451D02*
X007831Y020451D01*
X007913Y020550D02*
X005775Y020550D01*
X005948Y020648D02*
X007740Y020648D01*
X007646Y020747D02*
X006042Y020747D01*
X006083Y020845D02*
X007605Y020845D01*
X007574Y020944D02*
X006114Y020944D01*
X006114Y021042D02*
X007574Y021042D01*
X007585Y021141D02*
X006103Y021141D01*
X006062Y021239D02*
X007626Y021239D01*
X007692Y021338D02*
X005996Y021338D01*
X005892Y021437D02*
X007796Y021437D01*
X007948Y021535D02*
X005740Y021535D01*
X005933Y021634D02*
X007755Y021634D01*
X007656Y021732D02*
X006032Y021732D01*
X006077Y021831D02*
X007611Y021831D01*
X007574Y021929D02*
X006114Y021929D01*
X006114Y022028D02*
X007574Y022028D01*
X007579Y022126D02*
X006109Y022126D01*
X006068Y022225D02*
X007620Y022225D01*
X007677Y022323D02*
X006011Y022323D01*
X005912Y022422D02*
X007776Y022422D01*
X007769Y022619D02*
X005919Y022619D01*
X006017Y022718D02*
X007671Y022718D01*
X007617Y022816D02*
X006071Y022816D01*
X006112Y022915D02*
X007576Y022915D01*
X007574Y023013D02*
X006114Y023013D01*
X006114Y023112D02*
X007574Y023112D01*
X007614Y023210D02*
X006074Y023210D01*
X006025Y023309D02*
X007663Y023309D01*
X007761Y023407D02*
X005927Y023407D01*
X005904Y023604D02*
X009551Y023604D01*
X009452Y023506D02*
X008725Y023506D01*
X008927Y023407D02*
X009354Y023407D01*
X009255Y023309D02*
X009025Y023309D01*
X009074Y023210D02*
X009157Y023210D01*
X009650Y023703D02*
X006003Y023703D01*
X006065Y023802D02*
X009748Y023802D01*
X009847Y023900D02*
X006106Y023900D01*
X006114Y023999D02*
X009941Y023999D01*
X009941Y024097D02*
X006114Y024097D01*
X006081Y024196D02*
X009967Y024196D01*
X010014Y024294D02*
X006040Y024294D01*
X005941Y024393D02*
X010113Y024393D01*
X010589Y024393D02*
X011339Y024393D01*
X011241Y024294D02*
X010688Y024294D01*
X010735Y024196D02*
X011142Y024196D01*
X011044Y024097D02*
X010761Y024097D01*
X010761Y023999D02*
X010945Y023999D01*
X010847Y023900D02*
X010732Y023900D01*
X011161Y023508D02*
X011661Y024007D01*
X011661Y023920D01*
X011735Y023740D01*
X011873Y023602D01*
X012053Y023527D01*
X012808Y023527D01*
X012988Y023602D01*
X013126Y023740D01*
X013201Y023920D01*
X013201Y024115D01*
X013126Y024295D01*
X013120Y024301D01*
X018828Y024301D01*
X018822Y024295D01*
X018747Y024115D01*
X018747Y023920D01*
X018822Y023740D01*
X018960Y023602D01*
X019140Y023527D01*
X019895Y023527D01*
X020075Y023602D01*
X020213Y023740D01*
X020287Y023920D01*
X020287Y024115D01*
X020213Y024295D01*
X020206Y024301D01*
X023448Y024301D01*
X022654Y023507D01*
X022140Y023507D01*
X021960Y023433D01*
X021822Y023295D01*
X021747Y023115D01*
X021747Y022920D01*
X021822Y022740D01*
X021861Y022701D01*
X020174Y022701D01*
X020213Y022740D01*
X020287Y022920D01*
X020287Y023115D01*
X020213Y023295D01*
X020075Y023433D01*
X019895Y023507D01*
X019140Y023507D01*
X018960Y023433D01*
X018822Y023295D01*
X018747Y023115D01*
X018747Y022920D01*
X018797Y022801D01*
X016151Y022801D01*
X016201Y022920D01*
X016201Y023115D01*
X016126Y023295D01*
X015988Y023433D01*
X015808Y023507D01*
X015053Y023507D01*
X014873Y023433D01*
X014735Y023295D01*
X014661Y023115D01*
X014661Y022920D01*
X014710Y022801D01*
X013151Y022801D01*
X013201Y022920D01*
X013201Y023115D01*
X013126Y023295D01*
X012988Y023433D01*
X012808Y023507D01*
X012053Y023507D01*
X011873Y023433D01*
X011735Y023295D01*
X011661Y023115D01*
X011661Y022920D01*
X011710Y022801D01*
X010801Y022801D01*
X010710Y022763D01*
X010639Y022693D01*
X009099Y021152D01*
X009039Y021295D01*
X008994Y021340D01*
X010695Y023041D01*
X010833Y023041D01*
X010983Y023104D01*
X011099Y023219D01*
X011161Y023370D01*
X011161Y023508D01*
X011161Y023506D02*
X012050Y023506D01*
X011871Y023604D02*
X011258Y023604D01*
X011356Y023703D02*
X011772Y023703D01*
X011710Y023802D02*
X011455Y023802D01*
X011554Y023900D02*
X011669Y023900D01*
X011661Y023999D02*
X011652Y023999D01*
X011438Y024491D02*
X005760Y024491D01*
X004928Y024491D02*
X004701Y024491D01*
X004701Y024393D02*
X004747Y024393D01*
X004701Y024590D02*
X011536Y024590D01*
X011635Y024688D02*
X004701Y024688D01*
X004701Y024787D02*
X010462Y024787D01*
X010363Y024886D02*
X004701Y024886D01*
X004701Y024984D02*
X010265Y024984D01*
X010166Y025083D02*
X004701Y025083D01*
X004701Y025181D02*
X010068Y025181D01*
X009969Y025280D02*
X004701Y025280D01*
X004701Y025378D02*
X009871Y025378D01*
X009772Y025477D02*
X004701Y025477D01*
X004701Y025575D02*
X009673Y025575D01*
X009575Y025674D02*
X004701Y025674D01*
X004701Y025772D02*
X009476Y025772D01*
X009378Y025871D02*
X004701Y025871D01*
X004701Y025970D02*
X009279Y025970D01*
X009181Y026068D02*
X004701Y026068D01*
X004701Y026167D02*
X009082Y026167D01*
X008984Y026265D02*
X004701Y026265D01*
X004701Y026364D02*
X008885Y026364D01*
X008787Y026462D02*
X004701Y026462D01*
X004701Y026561D02*
X008688Y026561D01*
X008589Y026659D02*
X004701Y026659D01*
X004701Y026758D02*
X008491Y026758D01*
X008392Y026856D02*
X004701Y026856D01*
X004701Y026955D02*
X008294Y026955D01*
X008195Y027054D02*
X004701Y027054D01*
X004701Y027152D02*
X008097Y027152D01*
X007998Y027251D02*
X004701Y027251D01*
X004701Y027349D02*
X007900Y027349D01*
X007801Y027448D02*
X004701Y027448D01*
X004701Y027546D02*
X007703Y027546D01*
X007604Y027645D02*
X004701Y027645D01*
X004701Y027743D02*
X007506Y027743D01*
X007407Y027842D02*
X004701Y027842D01*
X004701Y027940D02*
X007308Y027940D01*
X007210Y028039D02*
X004701Y028039D01*
X004701Y028137D02*
X007111Y028137D01*
X007013Y028236D02*
X004701Y028236D01*
X004701Y028335D02*
X006914Y028335D01*
X006816Y028433D02*
X004701Y028433D01*
X004701Y028532D02*
X006717Y028532D01*
X006619Y028630D02*
X004701Y028630D01*
X004701Y028729D02*
X006520Y028729D01*
X006422Y028827D02*
X004701Y028827D01*
X004701Y028926D02*
X004774Y028926D01*
X005915Y028926D02*
X006323Y028926D01*
X006224Y029024D02*
X006013Y029024D01*
X006069Y029123D02*
X006126Y029123D01*
X007242Y029714D02*
X008535Y029714D01*
X008633Y029616D02*
X007340Y029616D01*
X007439Y029517D02*
X008732Y029517D01*
X008830Y029419D02*
X007537Y029419D01*
X007636Y029320D02*
X008929Y029320D01*
X009027Y029221D02*
X007734Y029221D01*
X007833Y029123D02*
X009126Y029123D01*
X009224Y029024D02*
X007931Y029024D01*
X008030Y028926D02*
X009323Y028926D01*
X009348Y028901D02*
X008055Y028901D01*
X006255Y030701D01*
X007744Y030701D01*
X007649Y030606D01*
X007574Y030426D01*
X007574Y030231D01*
X007649Y030051D01*
X007786Y029913D01*
X007967Y029838D01*
X008411Y029838D01*
X009348Y028901D01*
X008436Y029813D02*
X007143Y029813D01*
X007045Y029911D02*
X007791Y029911D01*
X007690Y030010D02*
X006946Y030010D01*
X006847Y030108D02*
X007625Y030108D01*
X007584Y030207D02*
X006749Y030207D01*
X006650Y030305D02*
X007574Y030305D01*
X007574Y030404D02*
X006552Y030404D01*
X006453Y030503D02*
X007606Y030503D01*
X007647Y030601D02*
X006355Y030601D01*
X006256Y030700D02*
X007742Y030700D01*
X008757Y033853D02*
X010499Y033853D01*
X008722Y034838D02*
X007967Y034838D01*
X007664Y035036D02*
X006024Y035036D01*
X006074Y035134D02*
X007614Y035134D01*
X007574Y035233D02*
X006114Y035233D01*
X006114Y035331D02*
X007574Y035331D01*
X007576Y035430D02*
X006112Y035430D01*
X006072Y035528D02*
X007617Y035528D01*
X007670Y035627D02*
X006019Y035627D01*
X005920Y035725D02*
X007768Y035725D01*
X008920Y035725D02*
X011855Y035725D01*
X011756Y035627D02*
X009019Y035627D01*
X009072Y035528D02*
X011703Y035528D01*
X011662Y035430D02*
X009112Y035430D01*
X009114Y035331D02*
X011661Y035331D01*
X011661Y035233D02*
X009114Y035233D01*
X009074Y035134D02*
X011701Y035134D01*
X011751Y035036D02*
X009024Y035036D01*
X008926Y034937D02*
X011849Y034937D01*
X012808Y034838D02*
X015053Y034838D01*
X016012Y034937D02*
X018936Y034937D01*
X018837Y035036D02*
X016111Y035036D01*
X016161Y035134D02*
X018787Y035134D01*
X018747Y035233D02*
X016201Y035233D01*
X016201Y035331D02*
X018491Y035331D01*
X018399Y035430D02*
X016199Y035430D01*
X016158Y035528D02*
X018358Y035528D01*
X018341Y035627D02*
X016105Y035627D01*
X016007Y035725D02*
X018341Y035725D01*
X018573Y036021D02*
X013096Y036021D01*
X013155Y036119D02*
X018793Y036119D01*
X018753Y036218D02*
X013195Y036218D01*
X013201Y036317D02*
X018747Y036317D01*
X018747Y036415D02*
X013201Y036415D01*
X013164Y036514D02*
X018784Y036514D01*
X018828Y036612D02*
X013120Y036612D01*
X013021Y036711D02*
X018927Y036711D01*
X019118Y036809D02*
X012830Y036809D01*
X012031Y036809D02*
X005743Y036809D01*
X005935Y036711D02*
X011840Y036711D01*
X011742Y036612D02*
X006033Y036612D01*
X006078Y036514D02*
X011697Y036514D01*
X011661Y036415D02*
X006114Y036415D01*
X006114Y036317D02*
X011661Y036317D01*
X011666Y036218D02*
X006109Y036218D01*
X006068Y036119D02*
X011707Y036119D01*
X011765Y036021D02*
X006010Y036021D01*
X005911Y035922D02*
X011864Y035922D01*
X013480Y037598D02*
X007082Y037598D01*
X007180Y037696D02*
X013382Y037696D01*
X013334Y037744D02*
X013621Y037456D01*
X014027Y037456D01*
X014314Y037744D01*
X014314Y038149D01*
X014027Y038436D01*
X013621Y038436D01*
X013334Y038149D01*
X013334Y037744D01*
X013334Y037795D02*
X007228Y037795D01*
X007228Y037893D02*
X013334Y037893D01*
X013334Y037992D02*
X007228Y037992D01*
X007228Y038090D02*
X013334Y038090D01*
X013374Y038189D02*
X007188Y038189D01*
X007090Y038287D02*
X013472Y038287D01*
X013571Y038386D02*
X006991Y038386D01*
X006983Y037499D02*
X013579Y037499D01*
X014070Y037499D02*
X020665Y037499D01*
X020567Y037598D02*
X014169Y037598D01*
X014267Y037696D02*
X020468Y037696D01*
X020421Y037795D02*
X014314Y037795D01*
X014314Y037893D02*
X020421Y037893D01*
X020421Y037992D02*
X014314Y037992D01*
X014314Y038090D02*
X020421Y038090D01*
X020461Y038189D02*
X014275Y038189D01*
X014176Y038287D02*
X020559Y038287D01*
X020658Y038386D02*
X014078Y038386D01*
X005902Y034913D02*
X005722Y034838D01*
X000361Y038879D02*
X062933Y038879D01*
X062933Y038977D02*
X000361Y038977D01*
X000361Y039076D02*
X062933Y039076D01*
X062933Y039174D02*
X000361Y039174D01*
X000361Y039273D02*
X062933Y039273D01*
X062933Y036218D02*
X056268Y036218D01*
X056264Y036119D02*
X062933Y036119D01*
X062933Y036021D02*
X056216Y036021D01*
X056079Y035922D02*
X062933Y035922D01*
X062933Y035824D02*
X056177Y035824D01*
X056248Y035725D02*
X062933Y035725D01*
X062933Y035627D02*
X056268Y035627D01*
X056268Y035528D02*
X062933Y035528D01*
X062933Y035430D02*
X056268Y035430D01*
X056268Y035331D02*
X062933Y035331D01*
X062933Y035233D02*
X056268Y035233D01*
X056237Y035134D02*
X062933Y035134D01*
X062933Y035036D02*
X056152Y035036D01*
X056053Y034937D02*
X062933Y034937D01*
X062933Y034838D02*
X055932Y034838D01*
X055824Y035075D02*
X055090Y035075D01*
X054907Y035259D01*
X054907Y035626D01*
X055090Y035809D01*
X055457Y035809D01*
X055457Y035442D01*
X055824Y035075D02*
X056008Y035259D01*
X056008Y035626D01*
X055824Y035809D01*
X056008Y036180D02*
X054907Y036180D01*
X054907Y036914D02*
X056008Y036180D01*
X056008Y036914D02*
X054907Y036914D01*
X054660Y037006D02*
X034635Y037006D01*
X034661Y037105D02*
X054719Y037105D01*
X054659Y037203D02*
X034661Y037203D01*
X034632Y037302D02*
X054647Y037302D01*
X054647Y037401D02*
X034582Y037401D01*
X034483Y037499D02*
X034333Y037561D01*
X034170Y037561D01*
X034019Y037499D01*
X036905Y037499D02*
X043894Y037499D01*
X043936Y037456D02*
X044342Y037456D01*
X044629Y037744D01*
X044629Y038149D01*
X044342Y038436D01*
X043936Y038436D01*
X043649Y038149D01*
X043649Y037744D01*
X043936Y037456D01*
X043795Y037598D02*
X037003Y037598D01*
X037102Y037696D02*
X043697Y037696D01*
X043649Y037795D02*
X037149Y037795D01*
X037149Y037893D02*
X043649Y037893D01*
X043649Y037992D02*
X037149Y037992D01*
X037149Y038090D02*
X043649Y038090D01*
X043689Y038189D02*
X037109Y038189D01*
X037011Y038287D02*
X043787Y038287D01*
X043886Y038386D02*
X036912Y038386D01*
X044393Y038386D02*
X051366Y038386D01*
X051268Y038287D02*
X044491Y038287D01*
X044590Y038189D02*
X051169Y038189D01*
X051130Y038090D02*
X044629Y038090D01*
X044629Y037992D02*
X051130Y037992D01*
X051130Y037893D02*
X044629Y037893D01*
X044629Y037795D02*
X051130Y037795D01*
X051177Y037696D02*
X044582Y037696D01*
X044483Y037598D02*
X051276Y037598D01*
X051374Y037499D02*
X044385Y037499D01*
X050629Y035627D02*
X052823Y035627D01*
X052634Y035528D02*
X050818Y035528D01*
X050916Y035430D02*
X052535Y035430D01*
X052492Y035331D02*
X050960Y035331D01*
X050996Y035233D02*
X052456Y035233D01*
X052456Y035134D02*
X050996Y035134D01*
X050990Y035036D02*
X052462Y035036D01*
X054907Y037285D02*
X054907Y037836D01*
X055090Y038019D01*
X055824Y038019D01*
X056008Y037836D01*
X056008Y037285D01*
X054907Y037285D01*
X054647Y037499D02*
X051865Y037499D01*
X051964Y037598D02*
X054647Y037598D01*
X054647Y037696D02*
X052062Y037696D01*
X052110Y037795D02*
X054647Y037795D01*
X054649Y037893D02*
X052110Y037893D01*
X052110Y037992D02*
X054695Y037992D01*
X054794Y038090D02*
X052110Y038090D01*
X052070Y038189D02*
X054892Y038189D01*
X054870Y038166D02*
X054870Y038166D01*
X055038Y038279D02*
X055038Y038279D01*
X048625Y021042D02*
X046513Y021042D01*
X046612Y020944D02*
X048489Y020944D01*
X048410Y020845D02*
X046711Y020845D01*
X046968Y020747D02*
X048370Y020747D01*
X048350Y020648D02*
X047134Y020648D01*
X047213Y020550D02*
X048350Y020550D01*
X048371Y020451D02*
X047254Y020451D01*
X047261Y020353D02*
X048412Y020353D01*
X048401Y020254D02*
X047255Y020254D01*
X047214Y020155D02*
X048302Y020155D01*
X048203Y020057D02*
X047137Y020057D01*
X046974Y019958D02*
X048105Y019958D01*
X048547Y019001D02*
X048424Y018879D01*
X048350Y018699D01*
X048350Y018504D01*
X048424Y018324D01*
X048447Y018301D01*
X044755Y018301D01*
X044593Y018463D01*
X044501Y018501D01*
X044401Y018501D01*
X039576Y018501D01*
X039579Y018504D01*
X039653Y018684D01*
X039653Y018879D01*
X039579Y019059D01*
X039545Y019092D01*
X039855Y019401D01*
X039970Y019401D01*
X039941Y019333D01*
X039941Y019170D01*
X039624Y019170D01*
X039566Y019071D02*
X039982Y019071D01*
X040004Y019019D02*
X039941Y019170D01*
X039941Y019269D02*
X039722Y019269D01*
X039821Y019367D02*
X039955Y019367D01*
X040004Y019019D02*
X040119Y018904D01*
X040270Y018841D01*
X040433Y018841D01*
X040583Y018904D01*
X040681Y019001D01*
X048547Y019001D01*
X048519Y018973D02*
X040653Y018973D01*
X040513Y018874D02*
X048423Y018874D01*
X048382Y018776D02*
X039653Y018776D01*
X039653Y018874D02*
X040189Y018874D01*
X040050Y018973D02*
X039614Y018973D01*
X039651Y018677D02*
X048350Y018677D01*
X048350Y018579D02*
X039610Y018579D01*
X039114Y019367D02*
X038689Y019367D01*
X038586Y019466D02*
X039212Y019466D01*
X044551Y018480D02*
X048359Y018480D01*
X048400Y018382D02*
X044674Y018382D01*
X049544Y019071D02*
X054218Y019071D01*
X054119Y018973D02*
X049721Y018973D01*
X049639Y019170D02*
X054317Y019170D01*
X054415Y019269D02*
X049760Y019269D01*
X049833Y019367D02*
X054406Y019367D01*
X054365Y019466D02*
X049874Y019466D01*
X049890Y019564D02*
X054350Y019564D01*
X054350Y019663D02*
X049890Y019663D01*
X049864Y019761D02*
X054376Y019761D01*
X054417Y019860D02*
X049823Y019860D01*
X049735Y019958D02*
X054504Y019958D01*
X054660Y020057D02*
X049580Y020057D01*
X061801Y015031D02*
X062933Y015031D01*
X062933Y014933D02*
X061801Y014933D01*
X061801Y014834D02*
X062933Y014834D01*
X062933Y014736D02*
X061801Y014736D01*
X061801Y014637D02*
X062933Y014637D01*
X062933Y014539D02*
X061801Y014539D01*
X061801Y014440D02*
X062933Y014440D01*
X062933Y014341D02*
X061801Y014341D01*
X061801Y014243D02*
X062933Y014243D01*
X062933Y014144D02*
X061801Y014144D01*
X061801Y014046D02*
X062933Y014046D01*
X062933Y013947D02*
X061801Y013947D01*
X061801Y013849D02*
X062933Y013849D01*
X062933Y013750D02*
X061801Y013750D01*
X061801Y013652D02*
X062933Y013652D01*
X062933Y013553D02*
X061801Y013553D01*
X061801Y013455D02*
X062933Y013455D01*
X062933Y013356D02*
X061801Y013356D01*
X061801Y013257D02*
X062933Y013257D01*
X062933Y013159D02*
X061801Y013159D01*
X061801Y013060D02*
X062933Y013060D01*
X062933Y012962D02*
X061801Y012962D01*
X061801Y012863D02*
X062933Y012863D01*
X062933Y012765D02*
X061801Y012765D01*
X061801Y012666D02*
X062933Y012666D01*
X062933Y012568D02*
X061801Y012568D01*
X061801Y012469D02*
X062933Y012469D01*
X062933Y012371D02*
X061801Y012371D01*
X061801Y012272D02*
X062933Y012272D01*
X062933Y012173D02*
X061801Y012173D01*
X061801Y012075D02*
X062933Y012075D01*
X062933Y011976D02*
X061801Y011976D01*
X061801Y011878D02*
X062933Y011878D01*
X062933Y011779D02*
X061801Y011779D01*
X061801Y011681D02*
X062933Y011681D01*
X062933Y011582D02*
X061801Y011582D01*
X061801Y011484D02*
X062933Y011484D01*
X062933Y011385D02*
X061801Y011385D01*
X061801Y011287D02*
X062933Y011287D01*
X062933Y011188D02*
X061801Y011188D01*
X061801Y011089D02*
X062933Y011089D01*
X062933Y010991D02*
X061801Y010991D01*
X061801Y010892D02*
X062933Y010892D01*
X062933Y010794D02*
X061801Y010794D01*
X061801Y010695D02*
X062933Y010695D01*
X062933Y010597D02*
X061801Y010597D01*
X061801Y010498D02*
X062933Y010498D01*
X062933Y010400D02*
X061801Y010400D01*
X061801Y010301D02*
X062933Y010301D01*
X062933Y010203D02*
X061801Y010203D01*
X061801Y010104D02*
X062933Y010104D01*
X062933Y010006D02*
X061801Y010006D01*
X061801Y009907D02*
X062933Y009907D01*
X062933Y009808D02*
X061801Y009808D01*
X061801Y009710D02*
X062933Y009710D01*
X062933Y009611D02*
X061801Y009611D01*
X061801Y009513D02*
X062933Y009513D01*
X062933Y009414D02*
X061801Y009414D01*
X061801Y009316D02*
X062933Y009316D01*
X062933Y009217D02*
X061801Y009217D01*
X061801Y009119D02*
X062933Y009119D01*
X062933Y009020D02*
X061801Y009020D01*
X061801Y008922D02*
X062933Y008922D01*
X062933Y008823D02*
X061801Y008823D01*
X061801Y008724D02*
X062933Y008724D01*
X062933Y008626D02*
X061801Y008626D01*
X061801Y008527D02*
X062933Y008527D01*
X062933Y008429D02*
X061801Y008429D01*
X061801Y008330D02*
X062933Y008330D01*
X062933Y008232D02*
X061801Y008232D01*
X061801Y008133D02*
X062933Y008133D01*
X062933Y008035D02*
X061801Y008035D01*
X061801Y007936D02*
X062933Y007936D01*
X062933Y007838D02*
X061801Y007838D01*
X061801Y007739D02*
X062933Y007739D01*
X062933Y007640D02*
X061801Y007640D01*
X061801Y007542D02*
X062933Y007542D01*
X062933Y007443D02*
X061801Y007443D01*
X061801Y007345D02*
X062933Y007345D01*
X062933Y007246D02*
X061801Y007246D01*
X061801Y007148D02*
X062933Y007148D01*
X062933Y007049D02*
X061801Y007049D01*
X061801Y006951D02*
X062933Y006951D01*
X062933Y006852D02*
X061781Y006852D01*
X061707Y006754D02*
X062933Y006754D01*
X062933Y006655D02*
X061609Y006655D01*
X061510Y006556D02*
X062933Y006556D01*
X062933Y006458D02*
X061412Y006458D01*
X061412Y006359D02*
X062933Y006359D01*
X062933Y006261D02*
X061412Y006261D01*
X061412Y006162D02*
X062933Y006162D01*
X062933Y006064D02*
X061357Y006064D01*
X061259Y005965D02*
X062933Y005965D01*
X062933Y005867D02*
X061160Y005867D01*
X061198Y005768D02*
X062933Y005768D01*
X062933Y005670D02*
X061296Y005670D01*
X061395Y005571D02*
X062933Y005571D01*
X062933Y005473D02*
X061412Y005473D01*
X061412Y005374D02*
X062933Y005374D01*
X062933Y005275D02*
X061412Y005275D01*
X061412Y005177D02*
X062933Y005177D01*
X062933Y005078D02*
X061372Y005078D01*
X061273Y004980D02*
X062933Y004980D01*
X062933Y004881D02*
X061175Y004881D01*
X061183Y004783D02*
X062933Y004783D01*
X062933Y004684D02*
X061282Y004684D01*
X061380Y004586D02*
X062933Y004586D01*
X062933Y004487D02*
X061412Y004487D01*
X061412Y004389D02*
X062933Y004389D01*
X062933Y004290D02*
X061412Y004290D01*
X061412Y004191D02*
X062933Y004191D01*
X062933Y004093D02*
X061387Y004093D01*
X061288Y003994D02*
X062933Y003994D01*
X062933Y003896D02*
X061189Y003896D01*
X060585Y003896D02*
X060189Y003896D01*
X060288Y003994D02*
X060487Y003994D01*
X060388Y004093D02*
X060386Y004093D01*
X059585Y003896D02*
X045646Y003896D01*
X045653Y003797D02*
X062933Y003797D01*
X062933Y003699D02*
X045653Y003699D01*
X045619Y003600D02*
X062933Y003600D01*
X062933Y003502D02*
X045577Y003502D01*
X045478Y003403D02*
X062933Y003403D01*
X062933Y003305D02*
X059551Y003305D01*
X059423Y003351D02*
X059423Y003351D01*
X059822Y003206D02*
X062933Y003206D01*
X062933Y003107D02*
X059945Y003107D01*
X059831Y003202D02*
X059831Y003202D01*
X060062Y003009D02*
X062933Y003009D01*
X062933Y002910D02*
X060172Y002910D01*
X060164Y002923D02*
X060164Y002923D01*
X060228Y002812D02*
X062933Y002812D01*
X062933Y002713D02*
X060285Y002713D01*
X060342Y002615D02*
X062933Y002615D01*
X062933Y002516D02*
X060387Y002516D01*
X060404Y002418D02*
X062933Y002418D01*
X062933Y002319D02*
X060421Y002319D01*
X060439Y002221D02*
X062933Y002221D01*
X062933Y002122D02*
X060456Y002122D01*
X060440Y002024D02*
X062933Y002024D01*
X062933Y001925D02*
X060422Y001925D01*
X060405Y001826D02*
X062933Y001826D01*
X062933Y001728D02*
X060387Y001728D01*
X060381Y001692D02*
X060381Y001692D01*
X060345Y001629D02*
X062933Y001629D01*
X062933Y001531D02*
X060288Y001531D01*
X060231Y001432D02*
X062933Y001432D01*
X062933Y001334D02*
X060174Y001334D01*
X060164Y001316D02*
X060164Y001316D01*
X060068Y001235D02*
X062933Y001235D01*
X062933Y001137D02*
X059950Y001137D01*
X059833Y001038D02*
X062933Y001038D01*
X058862Y003305D02*
X045293Y003305D01*
X044473Y003305D02*
X039293Y003305D01*
X039478Y003403D02*
X044288Y003403D01*
X044190Y003502D02*
X039577Y003502D01*
X039619Y003600D02*
X044148Y003600D01*
X044113Y003699D02*
X039653Y003699D01*
X039653Y003797D02*
X044113Y003797D01*
X044121Y003896D02*
X039646Y003896D01*
X039605Y003994D02*
X044154Y003994D01*
X045545Y004093D02*
X059388Y004093D01*
X059362Y004191D02*
X055145Y004191D01*
X055244Y004290D02*
X059362Y004290D01*
X059362Y004389D02*
X055342Y004389D01*
X055441Y004487D02*
X059362Y004487D01*
X059394Y004586D02*
X055539Y004586D01*
X055638Y004684D02*
X059493Y004684D01*
X059591Y004783D02*
X055736Y004783D01*
X056029Y004881D02*
X059600Y004881D01*
X059501Y004980D02*
X056160Y004980D01*
X056223Y005078D02*
X059403Y005078D01*
X059362Y005177D02*
X056261Y005177D01*
X056261Y005275D02*
X059362Y005275D01*
X059362Y005374D02*
X056244Y005374D01*
X056203Y005473D02*
X059362Y005473D01*
X059380Y005571D02*
X056111Y005571D01*
X055890Y005670D02*
X059478Y005670D01*
X059577Y005768D02*
X055861Y005768D01*
X058581Y003202D02*
X058581Y003202D01*
X058591Y003206D02*
X037060Y003206D01*
X037158Y003305D02*
X038473Y003305D01*
X038288Y003403D02*
X037482Y003403D01*
X037581Y003502D02*
X038190Y003502D01*
X038148Y003600D02*
X037632Y003600D01*
X037661Y003699D02*
X038113Y003699D01*
X038113Y003797D02*
X037661Y003797D01*
X037635Y003896D02*
X038121Y003896D01*
X036961Y003107D02*
X058468Y003107D01*
X058351Y003009D02*
X036862Y003009D01*
X036764Y002910D02*
X058241Y002910D01*
X058249Y002923D02*
X058249Y002923D01*
X058184Y002812D02*
X036627Y002812D01*
X045605Y003994D02*
X059487Y003994D01*
X028916Y019466D02*
X023290Y019466D01*
X025458Y017298D02*
X028254Y017298D01*
X021844Y022718D02*
X020191Y022718D01*
X020244Y022816D02*
X021790Y022816D01*
X021749Y022915D02*
X020285Y022915D01*
X020287Y023013D02*
X021747Y023013D01*
X021747Y023112D02*
X020287Y023112D01*
X020248Y023210D02*
X021787Y023210D01*
X021836Y023309D02*
X020199Y023309D01*
X020100Y023407D02*
X021934Y023407D01*
X022137Y023506D02*
X019898Y023506D01*
X020077Y023604D02*
X022751Y023604D01*
X022850Y023703D02*
X020176Y023703D01*
X020238Y023802D02*
X022948Y023802D01*
X023047Y023900D02*
X020279Y023900D01*
X020287Y023999D02*
X023145Y023999D01*
X023244Y024097D02*
X020287Y024097D01*
X020254Y024196D02*
X023342Y024196D01*
X023441Y024294D02*
X020213Y024294D01*
X019137Y023506D02*
X015811Y023506D01*
X016014Y023407D02*
X018934Y023407D01*
X018836Y023309D02*
X016112Y023309D01*
X016161Y023210D02*
X018787Y023210D01*
X018747Y023112D02*
X016201Y023112D01*
X016201Y023013D02*
X018747Y023013D01*
X018749Y022915D02*
X016199Y022915D01*
X016158Y022816D02*
X018790Y022816D01*
X018957Y023604D02*
X012991Y023604D01*
X013089Y023703D02*
X018859Y023703D01*
X018796Y023802D02*
X013152Y023802D01*
X013192Y023900D02*
X018755Y023900D01*
X018747Y023999D02*
X013201Y023999D01*
X013201Y024097D02*
X018747Y024097D01*
X018781Y024196D02*
X013167Y024196D01*
X013126Y024294D02*
X018822Y024294D01*
X015050Y023506D02*
X012811Y023506D01*
X013014Y023407D02*
X014848Y023407D01*
X014749Y023309D02*
X013112Y023309D01*
X013161Y023210D02*
X014700Y023210D01*
X014661Y023112D02*
X013201Y023112D01*
X013201Y023013D02*
X014661Y023013D01*
X014663Y022915D02*
X013199Y022915D01*
X013158Y022816D02*
X014704Y022816D01*
X011848Y023407D02*
X011161Y023407D01*
X011136Y023309D02*
X011749Y023309D01*
X011700Y023210D02*
X011090Y023210D01*
X010992Y023112D02*
X011661Y023112D01*
X011661Y023013D02*
X010667Y023013D01*
X010568Y022915D02*
X011663Y022915D01*
X011704Y022816D02*
X010470Y022816D01*
X010371Y022718D02*
X010664Y022718D01*
X010566Y022619D02*
X010273Y022619D01*
X010174Y022521D02*
X010467Y022521D01*
X010369Y022422D02*
X010075Y022422D01*
X009977Y022323D02*
X010270Y022323D01*
X010171Y022225D02*
X009878Y022225D01*
X009780Y022126D02*
X010073Y022126D01*
X009974Y022028D02*
X009681Y022028D01*
X009583Y021929D02*
X009876Y021929D01*
X009777Y021831D02*
X009484Y021831D01*
X009386Y021732D02*
X009679Y021732D01*
X009580Y021634D02*
X009287Y021634D01*
X009189Y021535D02*
X009482Y021535D01*
X009383Y021437D02*
X009090Y021437D01*
X008996Y021338D02*
X009285Y021338D01*
X009186Y021239D02*
X009062Y021239D01*
X008467Y022521D02*
X004701Y022521D01*
X004701Y022619D02*
X004769Y022619D01*
X004776Y022422D02*
X004701Y022422D01*
X004701Y021634D02*
X004755Y021634D01*
X004701Y021535D02*
X004948Y021535D01*
X004796Y021437D02*
X004701Y021437D01*
X004701Y020648D02*
X004740Y020648D01*
X004701Y020550D02*
X004913Y020550D01*
X004831Y020451D02*
X004701Y020451D01*
X004701Y020353D02*
X004706Y020353D01*
X008787Y018480D02*
X011988Y018480D01*
X011929Y018579D02*
X008846Y018579D01*
X008977Y018677D02*
X011798Y018677D01*
X011720Y018776D02*
X009054Y018776D01*
X009095Y018874D02*
X011679Y018874D01*
X011661Y018973D02*
X009114Y018973D01*
X009114Y019071D02*
X011661Y019071D01*
X011684Y019170D02*
X009091Y019170D01*
X008953Y018382D02*
X011822Y018382D01*
X011730Y018283D02*
X009044Y018283D01*
X009085Y018185D02*
X011690Y018185D01*
X011661Y018086D02*
X009114Y018086D01*
X009114Y017988D02*
X011661Y017988D01*
X011674Y017889D02*
X009101Y017889D01*
X008454Y017495D02*
X000361Y017495D01*
X000361Y017396D02*
X008553Y017396D01*
X006440Y016496D02*
X006440Y016090D01*
X006153Y015803D01*
X005747Y015803D01*
X005460Y016090D01*
X005460Y016496D01*
X005747Y016783D01*
X006153Y016783D01*
X006440Y016496D01*
X006427Y016509D02*
X012561Y016509D01*
X012547Y016411D02*
X006440Y016411D01*
X006440Y016312D02*
X012547Y016312D01*
X012547Y016214D02*
X006440Y016214D01*
X006440Y016115D02*
X012547Y016115D01*
X012620Y016017D02*
X006367Y016017D01*
X006269Y015918D02*
X012719Y015918D01*
X012817Y015820D02*
X006170Y015820D01*
X005731Y015820D02*
X000361Y015820D01*
X000361Y015918D02*
X005632Y015918D01*
X005534Y016017D02*
X000361Y016017D01*
X000361Y016115D02*
X005460Y016115D01*
X005460Y016214D02*
X000361Y016214D01*
X000361Y016312D02*
X005460Y016312D01*
X005460Y016411D02*
X000361Y016411D01*
X000361Y016509D02*
X005474Y016509D01*
X005572Y016608D02*
X000361Y016608D01*
X000361Y016706D02*
X005671Y016706D01*
X006230Y016706D02*
X012758Y016706D01*
X012659Y016608D02*
X006328Y016608D01*
X012873Y018480D02*
X014988Y018480D01*
X014929Y018579D02*
X012932Y018579D01*
X013064Y018677D02*
X014798Y018677D01*
X014720Y018776D02*
X013141Y018776D01*
X013182Y018874D02*
X014679Y018874D01*
X014661Y018973D02*
X013201Y018973D01*
X013201Y019071D02*
X014661Y019071D01*
X014684Y019170D02*
X013178Y019170D01*
X013039Y018382D02*
X014822Y018382D01*
X014730Y018283D02*
X013131Y018283D01*
X013172Y018185D02*
X014690Y018185D01*
X014661Y018086D02*
X013201Y018086D01*
X013201Y017988D02*
X014661Y017988D01*
X014673Y017889D02*
X013188Y017889D01*
X004761Y023407D02*
X004701Y023407D01*
X004701Y023506D02*
X004963Y023506D01*
X004784Y023604D02*
X004701Y023604D01*
X005725Y023506D02*
X007963Y023506D01*
D11*
X008064Y023017D02*
X008624Y023017D01*
X008624Y024017D02*
X008064Y024017D01*
X005624Y024017D02*
X005064Y024017D01*
X005064Y023017D02*
X005624Y023017D01*
X005624Y022017D02*
X005064Y022017D01*
X005064Y021017D02*
X005624Y021017D01*
X005624Y020017D02*
X005064Y020017D01*
X005064Y019017D02*
X005624Y019017D01*
X005624Y018017D02*
X005064Y018017D01*
X008064Y018017D02*
X008624Y018017D01*
X008624Y019017D02*
X008064Y019017D01*
X008064Y020017D02*
X008624Y020017D01*
X008624Y021017D02*
X008064Y021017D01*
X008064Y022017D02*
X008624Y022017D01*
X012151Y022017D02*
X012711Y022017D01*
X012711Y021017D02*
X012151Y021017D01*
X012151Y020017D02*
X012711Y020017D01*
X012711Y019017D02*
X012151Y019017D01*
X012151Y018017D02*
X012711Y018017D01*
X015151Y018017D02*
X015711Y018017D01*
X015711Y019017D02*
X015151Y019017D01*
X015151Y020017D02*
X015711Y020017D01*
X015711Y021017D02*
X015151Y021017D01*
X015151Y022017D02*
X015711Y022017D01*
X015711Y023017D02*
X015151Y023017D01*
X015151Y024017D02*
X015711Y024017D01*
X012711Y024017D02*
X012151Y024017D01*
X012151Y023017D02*
X012711Y023017D01*
X019237Y023017D02*
X019797Y023017D01*
X019797Y024017D02*
X019237Y024017D01*
X022237Y024017D02*
X022797Y024017D01*
X022797Y023017D02*
X022237Y023017D01*
X022237Y022017D02*
X022797Y022017D01*
X022797Y021017D02*
X022237Y021017D01*
X022237Y020017D02*
X022797Y020017D01*
X022797Y019017D02*
X022237Y019017D01*
X022237Y018017D02*
X022797Y018017D01*
X019797Y018017D02*
X019237Y018017D01*
X019237Y019017D02*
X019797Y019017D01*
X019797Y020017D02*
X019237Y020017D01*
X019237Y021017D02*
X019797Y021017D01*
X019797Y022017D02*
X019237Y022017D01*
X027505Y027147D02*
X028065Y027147D01*
X028065Y028147D02*
X027505Y028147D01*
X027505Y029147D02*
X028065Y029147D01*
X028065Y030147D02*
X027505Y030147D01*
X027505Y031147D02*
X028065Y031147D01*
X028065Y032147D02*
X027505Y032147D01*
X027505Y033147D02*
X028065Y033147D01*
X028065Y034147D02*
X027505Y034147D01*
X027505Y035147D02*
X028065Y035147D01*
X028065Y036147D02*
X027505Y036147D01*
X030505Y036147D02*
X031065Y036147D01*
X031065Y035147D02*
X030505Y035147D01*
X030505Y034147D02*
X031065Y034147D01*
X031065Y033147D02*
X030505Y033147D01*
X030505Y032147D02*
X031065Y032147D01*
X031065Y031147D02*
X030505Y031147D01*
X030505Y030147D02*
X031065Y030147D01*
X031065Y029147D02*
X030505Y029147D01*
X030505Y028147D02*
X031065Y028147D01*
X031065Y027147D02*
X030505Y027147D01*
X034985Y027147D02*
X035545Y027147D01*
X035545Y028147D02*
X034985Y028147D01*
X034985Y029147D02*
X035545Y029147D01*
X035545Y030147D02*
X034985Y030147D01*
X034985Y031147D02*
X035545Y031147D01*
X035545Y032147D02*
X034985Y032147D01*
X034985Y033147D02*
X035545Y033147D01*
X035545Y034147D02*
X034985Y034147D01*
X034985Y035147D02*
X035545Y035147D01*
X035545Y036147D02*
X034985Y036147D01*
X037985Y036147D02*
X038545Y036147D01*
X038545Y035147D02*
X037985Y035147D01*
X037985Y034147D02*
X038545Y034147D01*
X038545Y033147D02*
X037985Y033147D01*
X037985Y032147D02*
X038545Y032147D01*
X038545Y031147D02*
X037985Y031147D01*
X037985Y030147D02*
X038545Y030147D01*
X038545Y029147D02*
X037985Y029147D01*
X037985Y028147D02*
X038545Y028147D01*
X038545Y027147D02*
X037985Y027147D01*
X042466Y027147D02*
X043026Y027147D01*
X043026Y028147D02*
X042466Y028147D01*
X042466Y029147D02*
X043026Y029147D01*
X043026Y030147D02*
X042466Y030147D01*
X042466Y031147D02*
X043026Y031147D01*
X043026Y032147D02*
X042466Y032147D01*
X042466Y033147D02*
X043026Y033147D01*
X043026Y034147D02*
X042466Y034147D01*
X042466Y035147D02*
X043026Y035147D01*
X043026Y036147D02*
X042466Y036147D01*
X045466Y036147D02*
X046026Y036147D01*
X046026Y035147D02*
X045466Y035147D01*
X045466Y034147D02*
X046026Y034147D01*
X046026Y033147D02*
X045466Y033147D01*
X045466Y032147D02*
X046026Y032147D01*
X046026Y031147D02*
X045466Y031147D01*
X045466Y030147D02*
X046026Y030147D01*
X046026Y029147D02*
X045466Y029147D01*
X045466Y028147D02*
X046026Y028147D01*
X046026Y027147D02*
X045466Y027147D01*
X049946Y027147D02*
X050506Y027147D01*
X050506Y028147D02*
X049946Y028147D01*
X049946Y029147D02*
X050506Y029147D01*
X050506Y030147D02*
X049946Y030147D01*
X049946Y031147D02*
X050506Y031147D01*
X050506Y032147D02*
X049946Y032147D01*
X049946Y033147D02*
X050506Y033147D01*
X050506Y034147D02*
X049946Y034147D01*
X049946Y035147D02*
X050506Y035147D01*
X050506Y036147D02*
X049946Y036147D01*
X052946Y036147D02*
X053506Y036147D01*
X053506Y035147D02*
X052946Y035147D01*
X052946Y034147D02*
X053506Y034147D01*
X053506Y033147D02*
X052946Y033147D01*
X052946Y032147D02*
X053506Y032147D01*
X053506Y031147D02*
X052946Y031147D01*
X052946Y030147D02*
X053506Y030147D01*
X053506Y029147D02*
X052946Y029147D01*
X052946Y028147D02*
X053506Y028147D01*
X053506Y027147D02*
X052946Y027147D01*
X054840Y020601D02*
X055400Y020601D01*
X055400Y019601D02*
X054840Y019601D01*
X054840Y018601D02*
X055400Y018601D01*
X055400Y017601D02*
X054840Y017601D01*
X054840Y016601D02*
X055400Y016601D01*
X055400Y015601D02*
X054840Y015601D01*
X054840Y014601D02*
X055400Y014601D01*
X055400Y013601D02*
X054840Y013601D01*
X054840Y012601D02*
X055400Y012601D01*
X055400Y011601D02*
X054840Y011601D01*
X054840Y010601D02*
X055400Y010601D01*
X055400Y009601D02*
X054840Y009601D01*
X054840Y008601D02*
X055400Y008601D01*
X055400Y007601D02*
X054840Y007601D01*
X054840Y006601D02*
X055400Y006601D01*
X055400Y005601D02*
X054840Y005601D01*
X049400Y005601D02*
X048840Y005601D01*
X048840Y006601D02*
X049400Y006601D01*
X049400Y007601D02*
X048840Y007601D01*
X048840Y008601D02*
X049400Y008601D01*
X049400Y009601D02*
X048840Y009601D01*
X048840Y010601D02*
X049400Y010601D01*
X049400Y011601D02*
X048840Y011601D01*
X048840Y012601D02*
X049400Y012601D01*
X049400Y013601D02*
X048840Y013601D01*
X048840Y014601D02*
X049400Y014601D01*
X049400Y015601D02*
X048840Y015601D01*
X048840Y016601D02*
X049400Y016601D01*
X049400Y017601D02*
X048840Y017601D01*
X048840Y018601D02*
X049400Y018601D01*
X049400Y019601D02*
X048840Y019601D01*
X048840Y020601D02*
X049400Y020601D01*
X045163Y018781D02*
X044603Y018781D01*
X044603Y017781D02*
X045163Y017781D01*
X045163Y016781D02*
X044603Y016781D01*
X044603Y015781D02*
X045163Y015781D01*
X045163Y014781D02*
X044603Y014781D01*
X044603Y013781D02*
X045163Y013781D01*
X045163Y012781D02*
X044603Y012781D01*
X044603Y011781D02*
X045163Y011781D01*
X045163Y010781D02*
X044603Y010781D01*
X044603Y009781D02*
X045163Y009781D01*
X045163Y008781D02*
X044603Y008781D01*
X044603Y007781D02*
X045163Y007781D01*
X045163Y006781D02*
X044603Y006781D01*
X044603Y005781D02*
X045163Y005781D01*
X045163Y004781D02*
X044603Y004781D01*
X044603Y003781D02*
X045163Y003781D01*
X039163Y003781D02*
X038603Y003781D01*
X038603Y004781D02*
X039163Y004781D01*
X039163Y005781D02*
X038603Y005781D01*
X038603Y006781D02*
X039163Y006781D01*
X039163Y007781D02*
X038603Y007781D01*
X038603Y008781D02*
X039163Y008781D01*
X039163Y009781D02*
X038603Y009781D01*
X038603Y010781D02*
X039163Y010781D01*
X039163Y011781D02*
X038603Y011781D01*
X038603Y012781D02*
X039163Y012781D01*
X039163Y013781D02*
X038603Y013781D01*
X038603Y014781D02*
X039163Y014781D01*
X039163Y015781D02*
X038603Y015781D01*
X038603Y016781D02*
X039163Y016781D01*
X039163Y017781D02*
X038603Y017781D01*
X038603Y018781D02*
X039163Y018781D01*
X034927Y018781D02*
X034367Y018781D01*
X034367Y017781D02*
X034927Y017781D01*
X034927Y016781D02*
X034367Y016781D01*
X034367Y015781D02*
X034927Y015781D01*
X034927Y014781D02*
X034367Y014781D01*
X034367Y013781D02*
X034927Y013781D01*
X034927Y012781D02*
X034367Y012781D01*
X034367Y011781D02*
X034927Y011781D01*
X034927Y010781D02*
X034367Y010781D01*
X034367Y009781D02*
X034927Y009781D01*
X034927Y008781D02*
X034367Y008781D01*
X034367Y007781D02*
X034927Y007781D01*
X034927Y006781D02*
X034367Y006781D01*
X034367Y005781D02*
X034927Y005781D01*
X034927Y004781D02*
X034367Y004781D01*
X034367Y003781D02*
X034927Y003781D01*
X028927Y003781D02*
X028367Y003781D01*
X028367Y004781D02*
X028927Y004781D01*
X028927Y005781D02*
X028367Y005781D01*
X028367Y006781D02*
X028927Y006781D01*
X028927Y007781D02*
X028367Y007781D01*
X028367Y008781D02*
X028927Y008781D01*
X028927Y009781D02*
X028367Y009781D01*
X028367Y010781D02*
X028927Y010781D01*
X028927Y011781D02*
X028367Y011781D01*
X028367Y012781D02*
X028927Y012781D01*
X028927Y013781D02*
X028367Y013781D01*
X028367Y014781D02*
X028927Y014781D01*
X028927Y015781D02*
X028367Y015781D01*
X028367Y016781D02*
X028927Y016781D01*
X028927Y017781D02*
X028367Y017781D01*
X028367Y018781D02*
X028927Y018781D01*
X022797Y012919D02*
X022237Y012919D01*
X022237Y011919D02*
X022797Y011919D01*
X022797Y010919D02*
X022237Y010919D01*
X022237Y009919D02*
X022797Y009919D01*
X022797Y008919D02*
X022237Y008919D01*
X022237Y007919D02*
X022797Y007919D01*
X022797Y006919D02*
X022237Y006919D01*
X022237Y005919D02*
X022797Y005919D01*
X022797Y004919D02*
X022237Y004919D01*
X022237Y003919D02*
X022797Y003919D01*
X019797Y003919D02*
X019237Y003919D01*
X019237Y004919D02*
X019797Y004919D01*
X019797Y005919D02*
X019237Y005919D01*
X019237Y006919D02*
X019797Y006919D01*
X019797Y007919D02*
X019237Y007919D01*
X019237Y008919D02*
X019797Y008919D01*
X019797Y009919D02*
X019237Y009919D01*
X019237Y010919D02*
X019797Y010919D01*
X019797Y011919D02*
X019237Y011919D01*
X019237Y012919D02*
X019797Y012919D01*
X015711Y010738D02*
X015151Y010738D01*
X015151Y009738D02*
X015711Y009738D01*
X015711Y008738D02*
X015151Y008738D01*
X015151Y007738D02*
X015711Y007738D01*
X015711Y006738D02*
X015151Y006738D01*
X015151Y005738D02*
X015711Y005738D01*
X015711Y004738D02*
X015151Y004738D01*
X015151Y003738D02*
X015711Y003738D01*
X012711Y003738D02*
X012151Y003738D01*
X012151Y004738D02*
X012711Y004738D01*
X012711Y005738D02*
X012151Y005738D01*
X012151Y006738D02*
X012711Y006738D01*
X012711Y007738D02*
X012151Y007738D01*
X012151Y008738D02*
X012711Y008738D01*
X012711Y009738D02*
X012151Y009738D01*
X012151Y010738D02*
X012711Y010738D01*
X012711Y029328D02*
X012151Y029328D01*
X012151Y030328D02*
X012711Y030328D01*
X012711Y031328D02*
X012151Y031328D01*
X012151Y032328D02*
X012711Y032328D01*
X012711Y033328D02*
X012151Y033328D01*
X012151Y034328D02*
X012711Y034328D01*
X012711Y035328D02*
X012151Y035328D01*
X012151Y036328D02*
X012711Y036328D01*
X015151Y036328D02*
X015711Y036328D01*
X015711Y035328D02*
X015151Y035328D01*
X015151Y034328D02*
X015711Y034328D01*
X015711Y033328D02*
X015151Y033328D01*
X015151Y032328D02*
X015711Y032328D01*
X015711Y031328D02*
X015151Y031328D01*
X015151Y030328D02*
X015711Y030328D01*
X015711Y029328D02*
X015151Y029328D01*
X019237Y029328D02*
X019797Y029328D01*
X019797Y030328D02*
X019237Y030328D01*
X019237Y031328D02*
X019797Y031328D01*
X019797Y032328D02*
X019237Y032328D01*
X019237Y033328D02*
X019797Y033328D01*
X019797Y034328D02*
X019237Y034328D01*
X019237Y035328D02*
X019797Y035328D01*
X019797Y036328D02*
X019237Y036328D01*
X022237Y036328D02*
X022797Y036328D01*
X022797Y035328D02*
X022237Y035328D01*
X022237Y034328D02*
X022797Y034328D01*
X022797Y033328D02*
X022237Y033328D01*
X022237Y032328D02*
X022797Y032328D01*
X022797Y031328D02*
X022237Y031328D01*
X022237Y030328D02*
X022797Y030328D01*
X022797Y029328D02*
X022237Y029328D01*
X008624Y029328D02*
X008064Y029328D01*
X008064Y030328D02*
X008624Y030328D01*
X008624Y031328D02*
X008064Y031328D01*
X008064Y032328D02*
X008624Y032328D01*
X008624Y033328D02*
X008064Y033328D01*
X008064Y034328D02*
X008624Y034328D01*
X008624Y035328D02*
X008064Y035328D01*
X008064Y036328D02*
X008624Y036328D01*
X005624Y036328D02*
X005064Y036328D01*
X005064Y035328D02*
X005624Y035328D01*
X005624Y034328D02*
X005064Y034328D01*
X005064Y033328D02*
X005624Y033328D01*
X005624Y032328D02*
X005064Y032328D01*
X005064Y031328D02*
X005624Y031328D01*
X005624Y030328D02*
X005064Y030328D01*
X005064Y029328D02*
X005624Y029328D01*
D12*
X006738Y037946D03*
X007738Y037946D03*
X013824Y037946D03*
X014824Y037946D03*
X020911Y037946D03*
X021911Y037946D03*
X029179Y037946D03*
X030179Y037946D03*
X036659Y037946D03*
X037659Y037946D03*
X044139Y037946D03*
X045139Y037946D03*
X051620Y037946D03*
X052620Y037946D03*
X021124Y016293D03*
X020124Y016293D03*
X014037Y016293D03*
X013037Y016293D03*
X006950Y016293D03*
X005950Y016293D03*
X013431Y002120D03*
X014431Y002120D03*
X020517Y002120D03*
X021517Y002120D03*
X030360Y002120D03*
X031360Y002120D03*
X040596Y002120D03*
X041596Y002120D03*
X050832Y002120D03*
X051832Y002120D03*
D13*
X004588Y007313D03*
X003588Y007313D03*
X003588Y008313D03*
X004588Y008313D03*
X004588Y009313D03*
X003588Y009313D03*
X003588Y010313D03*
X004588Y010313D03*
D14*
X059887Y010336D03*
X059887Y011336D03*
X060887Y011336D03*
X060887Y010336D03*
X060887Y009336D03*
X059887Y009336D03*
X059887Y008336D03*
X060887Y008336D03*
X060887Y007336D03*
X059887Y007336D03*
X059887Y006336D03*
X059887Y005336D03*
X060887Y005336D03*
X060887Y006336D03*
X060887Y004336D03*
X059887Y004336D03*
X059887Y012336D03*
X059887Y013336D03*
X060887Y013336D03*
X060887Y012336D03*
X060887Y014336D03*
X059887Y014336D03*
X059887Y015336D03*
X060887Y015336D03*
X060887Y016336D03*
X059887Y016336D03*
X059887Y017336D03*
X060887Y017336D03*
X060887Y018336D03*
X059887Y018336D03*
X059887Y019336D03*
X060887Y019336D03*
X060887Y020336D03*
X059887Y020336D03*
X059887Y021336D03*
X060887Y021336D03*
X060887Y022336D03*
X059887Y022336D03*
X059887Y023336D03*
X060887Y023336D03*
X060887Y024336D03*
X059887Y024336D03*
X059887Y025336D03*
X060887Y025336D03*
X060887Y026336D03*
X059887Y026336D03*
X059887Y027336D03*
X060887Y027336D03*
X060887Y028336D03*
X059887Y028336D03*
X059887Y029336D03*
X060887Y029336D03*
X060887Y030336D03*
X059887Y030336D03*
X059887Y031336D03*
X060887Y031336D03*
X060887Y032336D03*
X059887Y032336D03*
X059887Y033336D03*
X059887Y034336D03*
X060887Y034336D03*
X060887Y033336D03*
X060887Y035336D03*
X059887Y035336D03*
D15*
X061351Y033851D02*
X054451Y033851D01*
X053751Y034551D01*
X050851Y034551D01*
X050451Y034151D01*
X050251Y034151D01*
X050226Y034147D01*
X050151Y034151D01*
X049851Y034451D01*
X046351Y034451D01*
X046251Y034551D01*
X043351Y034551D01*
X042951Y034151D01*
X042751Y034151D01*
X042746Y034147D01*
X042651Y034151D01*
X042351Y034451D01*
X038851Y034451D01*
X038751Y034551D01*
X036051Y034551D01*
X035651Y034151D01*
X035351Y034151D01*
X035265Y034147D01*
X035251Y034151D01*
X035051Y034151D01*
X034651Y034551D01*
X028251Y034551D01*
X027851Y034151D01*
X027785Y034147D01*
X028251Y033551D02*
X034651Y033551D01*
X035051Y033151D01*
X035251Y033151D01*
X035265Y033147D01*
X035351Y033151D01*
X035651Y033151D01*
X036051Y033551D01*
X038751Y033551D01*
X038851Y033451D01*
X042351Y033451D01*
X042651Y033151D01*
X042746Y033147D01*
X042751Y033151D01*
X042951Y033151D01*
X043351Y033551D01*
X046251Y033551D01*
X046351Y033451D01*
X049851Y033451D01*
X050151Y033151D01*
X050226Y033147D01*
X049851Y032451D02*
X046351Y032451D01*
X046251Y032551D01*
X043351Y032551D01*
X042951Y032151D01*
X042751Y032151D01*
X042746Y032147D01*
X042651Y032151D01*
X042351Y032451D01*
X038851Y032451D01*
X038751Y032551D01*
X035851Y032551D01*
X035451Y032151D01*
X035351Y032151D01*
X035265Y032147D01*
X035251Y032151D01*
X035051Y032151D01*
X034651Y032551D01*
X028251Y032551D01*
X027851Y032151D01*
X027785Y032147D01*
X027351Y031651D02*
X027251Y031751D01*
X011151Y031751D01*
X010251Y030851D01*
X007951Y030851D01*
X007851Y030951D01*
X005651Y030951D01*
X005351Y031251D01*
X005344Y031328D01*
X005051Y030751D02*
X004651Y031151D01*
X004651Y033251D01*
X005251Y033251D01*
X005344Y033328D01*
X004851Y033751D02*
X004451Y033351D01*
X004451Y019451D01*
X008751Y019451D01*
X020751Y019451D01*
X021151Y019051D01*
X022451Y019051D01*
X022517Y019017D01*
X022051Y018451D02*
X022451Y018051D01*
X022517Y018017D01*
X022051Y018451D02*
X015951Y018451D01*
X015451Y018951D01*
X015431Y019017D01*
X015431Y020017D02*
X015351Y020051D01*
X014651Y020051D01*
X014651Y021151D01*
X014951Y021451D01*
X045751Y021451D01*
X046851Y020351D01*
X048151Y019651D02*
X039751Y019651D01*
X038951Y018851D01*
X038883Y018781D01*
X038851Y018851D01*
X038451Y019251D01*
X029051Y019251D01*
X028651Y018851D01*
X028647Y018781D01*
X028647Y017781D02*
X028651Y017751D01*
X029051Y017351D01*
X038251Y017351D01*
X038651Y017751D01*
X038851Y017751D01*
X038883Y017781D01*
X038451Y017251D02*
X039851Y017251D01*
X040251Y016851D01*
X044851Y016851D01*
X044883Y016781D01*
X044451Y016251D02*
X044651Y016051D01*
X044883Y015781D01*
X044851Y015851D01*
X044651Y016051D01*
X053551Y016051D01*
X055051Y017551D01*
X055120Y017601D01*
X053551Y018051D02*
X044651Y018051D01*
X044883Y017781D01*
X044851Y017851D01*
X044651Y018051D01*
X044451Y018251D01*
X035051Y018251D01*
X034651Y017851D01*
X034647Y017781D01*
X034951Y017151D02*
X038351Y017151D01*
X038451Y017251D01*
X038651Y016751D02*
X038851Y016751D01*
X038883Y016781D01*
X038651Y016751D02*
X038251Y016351D01*
X029051Y016351D01*
X028651Y016751D01*
X028647Y016781D01*
X028647Y015781D02*
X028651Y015751D01*
X029051Y015351D01*
X038251Y015351D01*
X038651Y015751D01*
X038851Y015751D01*
X038883Y015781D01*
X038451Y016251D02*
X044451Y016251D01*
X044451Y015251D02*
X044651Y015051D01*
X044883Y014781D01*
X044851Y014851D01*
X044651Y015051D01*
X053551Y015051D01*
X055051Y016551D01*
X055120Y016601D01*
X055151Y016551D01*
X056851Y014851D01*
X060051Y014851D01*
X060351Y014551D01*
X060351Y013351D01*
X059951Y013351D01*
X059887Y013336D01*
X060351Y012851D02*
X060851Y012351D01*
X060887Y012336D01*
X060351Y012851D02*
X055851Y012851D01*
X055151Y013551D01*
X055120Y013601D01*
X055051Y013551D01*
X050051Y013551D01*
X050251Y014151D02*
X059751Y014151D01*
X059851Y014251D01*
X059887Y014336D01*
X055851Y012051D02*
X055751Y012151D01*
X053951Y012151D01*
X053551Y012551D01*
X049151Y012551D01*
X049120Y012601D01*
X048951Y013451D02*
X045451Y013451D01*
X045251Y013251D01*
X040351Y013251D01*
X039951Y013351D02*
X040351Y013751D01*
X044851Y013751D01*
X044883Y013781D01*
X044951Y013851D01*
X045151Y014051D01*
X049451Y014051D01*
X049951Y014551D01*
X054051Y014551D01*
X055051Y015551D01*
X055120Y015601D01*
X053551Y018051D02*
X055051Y019551D01*
X055120Y019601D01*
X057351Y022451D02*
X019951Y022451D01*
X019517Y022017D01*
X019051Y022551D02*
X019517Y023017D01*
X019051Y022551D02*
X010851Y022551D01*
X008351Y020051D01*
X008344Y020017D01*
X008751Y019451D02*
X008351Y019051D01*
X008344Y019017D01*
X008344Y018017D02*
X008351Y017951D01*
X008751Y017551D01*
X022951Y017551D01*
X023451Y018051D01*
X022951Y019451D02*
X021051Y019451D01*
X019551Y020951D01*
X019517Y021017D01*
X018651Y019851D02*
X016551Y019851D01*
X015451Y020951D01*
X015431Y021017D01*
X011851Y024551D02*
X010751Y023451D01*
X008351Y021051D01*
X008344Y021017D01*
X008344Y022017D02*
X008351Y022051D01*
X010351Y024051D01*
X010651Y024951D02*
X016851Y024951D01*
X018051Y025851D02*
X044451Y025851D01*
X045651Y027051D01*
X045746Y027147D01*
X045251Y027651D02*
X052751Y027651D01*
X053151Y028051D01*
X053226Y028147D01*
X052751Y028651D02*
X045251Y028651D01*
X037851Y028651D01*
X038251Y029051D01*
X038265Y029147D01*
X038751Y029551D02*
X035851Y029551D01*
X035451Y029151D01*
X035351Y029151D01*
X035265Y029147D01*
X035251Y029151D01*
X035051Y029151D01*
X034651Y029551D01*
X028251Y029551D01*
X027851Y029151D01*
X027785Y029147D01*
X027051Y029651D02*
X023151Y029651D01*
X022551Y030251D01*
X022517Y030328D01*
X022551Y031251D02*
X023651Y030151D01*
X026351Y030151D01*
X026451Y029251D02*
X022551Y029251D01*
X022517Y029328D01*
X022551Y031251D02*
X022517Y031328D01*
X022517Y032328D02*
X022451Y032351D01*
X022051Y032751D01*
X012851Y032751D01*
X012451Y032351D01*
X012431Y032328D01*
X012351Y032251D01*
X011151Y032251D01*
X010351Y031451D01*
X010751Y030151D02*
X011851Y031251D01*
X012351Y031251D01*
X012431Y031328D01*
X011251Y030151D02*
X011651Y029751D01*
X014151Y029751D01*
X018051Y025851D01*
X018451Y026251D02*
X031151Y026251D01*
X029951Y026651D02*
X020051Y026651D01*
X015451Y031251D01*
X015431Y031328D01*
X015431Y030328D02*
X015451Y030251D01*
X019051Y026651D01*
X019551Y026651D01*
X018451Y026251D02*
X015451Y029251D01*
X015431Y029328D01*
X013551Y028851D02*
X009751Y028851D01*
X008351Y030251D01*
X008344Y030328D01*
X008344Y031328D02*
X008351Y031351D01*
X010751Y033751D01*
X014951Y033751D01*
X015351Y033351D01*
X015431Y033328D01*
X018751Y035651D02*
X018951Y035851D01*
X021151Y035851D01*
X022051Y036751D01*
X042051Y036751D01*
X042651Y036151D01*
X042746Y036147D01*
X042351Y035651D02*
X044351Y035651D01*
X045251Y036551D01*
X049751Y036551D01*
X050151Y036151D01*
X050226Y036147D01*
X049751Y035551D02*
X044551Y035551D01*
X044151Y035151D01*
X042751Y035151D01*
X042746Y035147D01*
X042651Y035151D01*
X042351Y035451D01*
X038851Y035451D01*
X038751Y035551D01*
X034851Y035551D01*
X035251Y035151D01*
X035265Y035147D01*
X034851Y035551D02*
X028251Y035551D01*
X027851Y035151D01*
X027785Y035147D01*
X026551Y035851D02*
X027251Y036551D01*
X041451Y036551D01*
X042351Y035651D01*
X043251Y034751D02*
X043151Y034651D01*
X038951Y034651D01*
X038551Y035051D01*
X038351Y035051D01*
X038265Y035147D01*
X038251Y035051D01*
X036251Y035051D01*
X035851Y034651D01*
X034851Y034651D01*
X034751Y034751D01*
X031151Y034751D01*
X030851Y035051D01*
X030785Y035147D01*
X030785Y034147D02*
X030851Y034051D01*
X031151Y033751D01*
X034751Y033751D01*
X034851Y033651D01*
X035851Y033651D01*
X036251Y034051D01*
X038251Y034051D01*
X038265Y034147D01*
X038351Y034051D01*
X038551Y034051D01*
X038951Y033651D01*
X043151Y033651D01*
X043251Y033751D01*
X045351Y033751D01*
X045651Y034051D01*
X045746Y034147D01*
X045751Y034051D01*
X046051Y034051D01*
X046451Y033651D01*
X052751Y033651D01*
X053151Y034051D01*
X053226Y034147D01*
X052851Y034751D02*
X050751Y034751D01*
X050651Y034651D01*
X046451Y034651D01*
X046051Y035051D01*
X045751Y035051D01*
X045746Y035147D01*
X045651Y035051D01*
X045351Y034751D01*
X043251Y034751D01*
X045351Y032751D02*
X045651Y033051D01*
X045746Y033147D01*
X045751Y033051D01*
X046051Y033051D01*
X046451Y032651D01*
X052751Y032651D01*
X053151Y033051D01*
X053226Y033147D01*
X053251Y033051D01*
X054951Y031351D01*
X059851Y031351D01*
X059887Y031336D01*
X060451Y030851D02*
X061051Y030851D01*
X061351Y031151D01*
X061351Y033851D01*
X060451Y030851D02*
X060451Y029851D01*
X059951Y029351D01*
X059887Y029336D01*
X060451Y028851D02*
X054451Y028851D01*
X053751Y029551D01*
X050851Y029551D01*
X050451Y029151D01*
X050251Y029151D01*
X050226Y029147D01*
X050151Y029151D01*
X049851Y029451D01*
X046351Y029451D01*
X046251Y029551D01*
X043351Y029551D01*
X042951Y029151D01*
X042751Y029151D01*
X042746Y029147D01*
X042651Y029151D01*
X042351Y029451D01*
X038851Y029451D01*
X038751Y029551D01*
X038951Y029651D02*
X038551Y030051D01*
X038351Y030051D01*
X038265Y030147D01*
X038251Y030051D01*
X036051Y030051D01*
X035651Y029651D01*
X034851Y029651D01*
X034751Y029751D01*
X031151Y029751D01*
X030851Y030051D01*
X030785Y030147D01*
X031151Y030751D02*
X034751Y030751D01*
X034851Y030651D01*
X035851Y030651D01*
X036251Y031051D01*
X038251Y031051D01*
X038265Y031147D01*
X038351Y031051D01*
X038551Y031051D01*
X038951Y030651D01*
X043151Y030651D01*
X043251Y030751D01*
X045351Y030751D01*
X045651Y031051D01*
X045746Y031147D01*
X045751Y031051D01*
X046051Y031051D01*
X046451Y030651D01*
X050651Y030651D01*
X050751Y030751D01*
X052851Y030751D01*
X053151Y031051D01*
X053226Y031147D01*
X052751Y031651D02*
X046451Y031651D01*
X046051Y032051D01*
X045751Y032051D01*
X045746Y032147D01*
X045651Y032051D01*
X043551Y032051D01*
X043151Y031651D01*
X042351Y031651D01*
X042251Y031751D01*
X038651Y031751D01*
X038351Y032051D01*
X038265Y032147D01*
X038251Y032051D01*
X037951Y031751D01*
X035751Y031751D01*
X035651Y031651D01*
X034851Y031651D01*
X034451Y032051D01*
X030851Y032051D01*
X030785Y032147D01*
X030751Y032051D01*
X030451Y032051D01*
X030051Y031651D01*
X027351Y031651D01*
X027785Y031147D02*
X027851Y031151D01*
X028151Y031451D01*
X030151Y031451D01*
X030251Y031551D01*
X034651Y031551D01*
X035051Y031151D01*
X035251Y031151D01*
X035265Y031147D01*
X035351Y031151D01*
X035451Y031151D01*
X035851Y031551D01*
X038751Y031551D01*
X038851Y031451D01*
X042351Y031451D01*
X042651Y031151D01*
X042746Y031147D01*
X042751Y031151D01*
X042951Y031151D01*
X043351Y031551D01*
X046251Y031551D01*
X046351Y031451D01*
X049851Y031451D01*
X050151Y031151D01*
X050226Y031147D01*
X049851Y030451D02*
X046351Y030451D01*
X046251Y030551D01*
X043351Y030551D01*
X042951Y030151D01*
X042751Y030151D01*
X042746Y030147D01*
X042651Y030151D01*
X042351Y030451D01*
X038851Y030451D01*
X038751Y030551D01*
X036051Y030551D01*
X035651Y030151D01*
X035351Y030151D01*
X035265Y030147D01*
X035251Y030151D01*
X035051Y030151D01*
X034651Y030551D01*
X028251Y030551D01*
X027851Y030151D01*
X027785Y030147D01*
X030785Y029147D02*
X030851Y029051D01*
X031251Y028651D01*
X037851Y028651D01*
X038265Y028147D02*
X038251Y028051D01*
X037851Y027651D01*
X045251Y027651D01*
X045651Y028051D01*
X045746Y028147D01*
X045251Y028651D02*
X045651Y029051D01*
X045746Y029147D01*
X045351Y029751D02*
X043251Y029751D01*
X043151Y029651D01*
X038951Y029651D01*
X037851Y027651D02*
X031251Y027651D01*
X030851Y028051D01*
X030785Y028147D01*
X031151Y030751D02*
X030851Y031051D01*
X030785Y031147D01*
X031151Y032751D02*
X034751Y032751D01*
X034851Y032651D01*
X035651Y032651D01*
X036051Y033051D01*
X038251Y033051D01*
X038265Y033147D01*
X038351Y033051D01*
X038551Y033051D01*
X038951Y032651D01*
X043151Y032651D01*
X043251Y032751D01*
X045351Y032751D01*
X045746Y030147D02*
X045751Y030051D01*
X046051Y030051D01*
X046451Y029651D01*
X050651Y029651D01*
X050751Y029751D01*
X052851Y029751D01*
X053151Y030051D01*
X053226Y030147D01*
X053226Y029147D02*
X053151Y029051D01*
X052751Y028651D01*
X053226Y027147D02*
X053151Y027051D01*
X051751Y025651D01*
X014251Y025651D01*
X011651Y028251D01*
X012051Y028651D02*
X007951Y028651D01*
X005851Y030751D01*
X005051Y030751D01*
X005344Y030328D02*
X005351Y030251D01*
X010651Y024951D01*
X011851Y024551D02*
X059151Y024551D01*
X059851Y025251D01*
X059887Y025336D01*
X059751Y024851D02*
X057351Y022451D01*
X056251Y024951D02*
X055851Y025351D01*
X013551Y025351D01*
X013951Y026751D02*
X012051Y028651D01*
X008344Y032328D02*
X008251Y032351D01*
X006851Y033751D01*
X004851Y033751D01*
X019517Y033328D02*
X019551Y033351D01*
X022051Y035851D01*
X026551Y035851D01*
X028251Y033551D02*
X027851Y033151D01*
X027785Y033147D01*
X025351Y032151D02*
X023651Y032151D01*
X022551Y033251D01*
X022517Y033328D01*
X020051Y036951D02*
X020251Y037151D01*
X034251Y037151D01*
X030785Y033147D02*
X030851Y033051D01*
X031151Y032751D01*
X027451Y024951D02*
X021251Y024951D01*
X022517Y023017D02*
X023651Y024151D01*
X037751Y024151D01*
X030351Y021051D02*
X023551Y021051D01*
X022517Y020017D01*
X022951Y019451D02*
X028551Y013851D01*
X028647Y013781D01*
X029051Y014351D02*
X035651Y014351D01*
X036051Y014751D01*
X038851Y014751D01*
X038883Y014781D01*
X038451Y015251D02*
X044451Y015251D01*
X043551Y014651D02*
X040751Y014651D01*
X039951Y013351D02*
X035051Y013351D01*
X034651Y013751D01*
X034647Y013781D01*
X036051Y014251D02*
X043451Y014251D01*
X043551Y014651D02*
X043851Y014351D01*
X048851Y014351D01*
X049051Y014551D01*
X049120Y014601D01*
X049120Y013601D02*
X049051Y013551D01*
X048951Y013451D01*
X047151Y013051D02*
X054651Y013051D01*
X055051Y012651D01*
X055120Y012601D01*
X055151Y011651D02*
X055120Y011601D01*
X055151Y011651D02*
X059551Y011651D01*
X059751Y011851D01*
X060351Y011851D01*
X060851Y011351D01*
X060887Y011336D01*
X061051Y010851D02*
X061351Y010551D01*
X061351Y009351D01*
X060951Y009351D01*
X060887Y009336D01*
X060451Y009851D02*
X060851Y010251D01*
X060887Y010336D01*
X061051Y010851D02*
X059751Y010851D01*
X059551Y011051D01*
X054751Y011051D01*
X054551Y011251D01*
X049451Y011251D01*
X049151Y011551D01*
X049120Y011601D01*
X049051Y011551D01*
X048851Y011351D01*
X040451Y011351D01*
X040051Y011251D02*
X040451Y010851D01*
X044851Y010851D01*
X044883Y010781D01*
X044451Y010351D02*
X044151Y010651D01*
X038551Y010651D01*
X038883Y010781D01*
X038851Y010751D01*
X038651Y010751D01*
X038551Y010651D01*
X038251Y010351D01*
X029051Y010351D01*
X028651Y010751D01*
X028647Y010781D01*
X029051Y011351D02*
X038251Y011351D01*
X038651Y011751D01*
X038851Y011751D01*
X038883Y011781D01*
X038451Y012251D02*
X044451Y012251D01*
X044851Y011851D01*
X044883Y011781D01*
X045551Y012151D02*
X044951Y012751D01*
X044883Y012781D01*
X045551Y012151D02*
X053451Y012151D01*
X054851Y010851D02*
X050251Y010851D01*
X049251Y010451D02*
X053651Y010451D01*
X054351Y009751D01*
X054351Y009151D01*
X048751Y009151D01*
X047951Y008351D01*
X044451Y008351D01*
X044351Y008451D01*
X039251Y008451D01*
X038951Y008751D01*
X038883Y008781D01*
X038851Y008751D01*
X038651Y008751D01*
X038251Y008351D01*
X029051Y008351D01*
X028651Y008751D01*
X028647Y008781D01*
X028251Y009251D02*
X032251Y009251D01*
X033851Y009651D02*
X034151Y009351D01*
X038251Y009351D01*
X038651Y009751D01*
X038851Y009751D01*
X038883Y009781D01*
X038451Y010251D02*
X044251Y010251D01*
X044451Y010051D01*
X053551Y010051D01*
X054351Y009151D02*
X059751Y009151D01*
X059851Y009251D01*
X059887Y009336D01*
X060451Y009851D02*
X055351Y009851D01*
X055151Y009651D01*
X055120Y009601D01*
X055351Y010351D02*
X059851Y010351D01*
X059887Y010336D01*
X059887Y008336D02*
X059851Y008251D01*
X059751Y008151D01*
X052351Y008151D01*
X053351Y007751D02*
X050951Y007751D01*
X049951Y008551D02*
X049451Y008051D01*
X044451Y008051D01*
X044251Y008251D01*
X038451Y008251D01*
X038351Y008151D01*
X034951Y008151D01*
X034651Y007851D01*
X034647Y007781D01*
X034151Y007351D02*
X038251Y007351D01*
X038651Y007751D01*
X038851Y007751D01*
X038883Y007781D01*
X038451Y007251D02*
X044451Y007251D01*
X044651Y007051D01*
X044883Y006781D01*
X044851Y006851D01*
X044651Y007051D01*
X053551Y007051D01*
X053951Y007151D02*
X053351Y007751D01*
X053951Y007151D02*
X055451Y007151D01*
X055751Y006851D01*
X060451Y006851D01*
X060851Y007251D01*
X060887Y007336D01*
X061551Y006951D02*
X061551Y021851D01*
X024551Y021851D01*
X034651Y016851D02*
X034647Y016781D01*
X034651Y016851D02*
X034951Y017151D01*
X034951Y016151D02*
X038351Y016151D01*
X038451Y016251D01*
X038451Y015251D02*
X038351Y015151D01*
X034951Y015151D01*
X034651Y014851D01*
X034647Y014781D01*
X034647Y015781D02*
X034651Y015851D01*
X034951Y016151D01*
X038651Y012751D02*
X038851Y012751D01*
X038883Y012781D01*
X038651Y012751D02*
X038251Y012351D01*
X029051Y012351D01*
X028651Y012751D01*
X028647Y012781D01*
X028647Y011781D02*
X028651Y011751D01*
X029051Y011351D01*
X028647Y009781D02*
X028651Y009751D01*
X028751Y009651D01*
X033851Y009651D01*
X034647Y009781D02*
X034651Y009851D01*
X034951Y010151D01*
X038351Y010151D01*
X038451Y010251D01*
X038451Y009251D02*
X040051Y009251D01*
X040451Y008851D01*
X044851Y008851D01*
X044883Y008781D01*
X044451Y008051D02*
X044651Y007851D01*
X044851Y007851D01*
X044883Y007781D01*
X044451Y006251D02*
X044651Y006051D01*
X044883Y005781D01*
X044851Y005851D01*
X044651Y006051D01*
X059651Y006051D01*
X059851Y006251D01*
X059887Y006336D01*
X060887Y006336D02*
X060951Y006351D01*
X061551Y006951D01*
X055851Y005251D02*
X054951Y004351D01*
X044451Y004351D01*
X044051Y004751D01*
X038951Y004751D01*
X038883Y004781D01*
X038851Y004751D01*
X038651Y004751D01*
X038251Y004351D01*
X029051Y004351D01*
X028951Y004451D01*
X020951Y004451D01*
X019551Y005851D01*
X019517Y005919D01*
X020251Y006551D02*
X020451Y006351D01*
X027151Y006351D01*
X028251Y005251D01*
X033951Y005251D01*
X034351Y004851D01*
X034551Y004851D01*
X034647Y004781D01*
X034651Y004851D01*
X034951Y005151D01*
X038351Y005151D01*
X038451Y005251D01*
X044451Y005251D01*
X044851Y004851D01*
X044883Y004781D01*
X044951Y004851D01*
X053351Y004851D01*
X053451Y004951D01*
X054051Y008551D02*
X049951Y008551D01*
X049051Y009551D02*
X048851Y009351D01*
X040451Y009351D01*
X038451Y009251D02*
X038351Y009151D01*
X034951Y009151D01*
X034651Y008851D01*
X034647Y008781D01*
X033751Y007751D02*
X034151Y007351D01*
X033751Y007751D02*
X028651Y007751D01*
X028647Y007781D01*
X027951Y007151D02*
X027951Y005851D01*
X028551Y005851D01*
X028647Y005781D01*
X028651Y005751D01*
X028951Y005451D01*
X034051Y005451D01*
X034151Y005351D01*
X038251Y005351D01*
X038651Y005751D01*
X038851Y005751D01*
X038883Y005781D01*
X038451Y006251D02*
X044451Y006251D01*
X044251Y004251D02*
X044651Y003851D01*
X044851Y003851D01*
X044883Y003781D01*
X044251Y004251D02*
X038451Y004251D01*
X038351Y004151D01*
X034951Y004151D01*
X034651Y003851D01*
X034647Y003781D01*
X036551Y003051D02*
X037251Y003751D01*
X036551Y003051D02*
X015051Y003051D01*
X012451Y005651D01*
X012431Y005738D01*
X012431Y006738D02*
X012351Y006751D01*
X012251Y006851D01*
X004051Y006851D01*
X003651Y007251D01*
X003588Y007313D01*
X003588Y008313D02*
X003651Y008351D01*
X004151Y008851D01*
X004751Y008851D01*
X004851Y008751D01*
X012351Y008751D01*
X012431Y008738D01*
X011851Y008251D02*
X004651Y008251D01*
X004588Y008313D01*
X004588Y009313D02*
X004651Y009351D01*
X004851Y009551D01*
X012251Y009551D01*
X012351Y009651D01*
X012431Y009738D01*
X011551Y009851D02*
X004151Y009851D01*
X003651Y009351D01*
X003588Y009313D01*
X004588Y010313D02*
X004651Y010351D01*
X005451Y011151D01*
X013951Y011151D01*
X015351Y009751D01*
X015431Y009738D01*
X014951Y009151D02*
X010551Y009151D01*
X011551Y009851D02*
X012351Y010651D01*
X012431Y010738D01*
X014951Y009151D02*
X015351Y008751D01*
X015431Y008738D01*
X017151Y007451D02*
X022051Y007451D01*
X022451Y007851D01*
X022517Y007919D01*
X022551Y007951D01*
X023451Y008851D01*
X025751Y008851D01*
X025751Y009351D02*
X027951Y007151D01*
X028647Y006781D02*
X028651Y006751D01*
X033751Y006751D01*
X034151Y006351D01*
X038251Y006351D01*
X038651Y006751D01*
X038851Y006751D01*
X038883Y006781D01*
X038451Y007251D02*
X038351Y007151D01*
X034951Y007151D01*
X034751Y006951D01*
X034647Y006781D01*
X034651Y006851D01*
X034751Y006951D01*
X031451Y006951D01*
X031051Y007351D01*
X029951Y006351D02*
X030451Y005851D01*
X034551Y005851D01*
X034647Y005781D01*
X034651Y005851D01*
X034951Y006151D01*
X038351Y006151D01*
X038451Y006251D01*
X044451Y010051D02*
X044651Y009851D01*
X044851Y009851D01*
X044883Y009781D01*
X044451Y010351D02*
X046851Y010351D01*
X046951Y010451D01*
X049120Y010601D02*
X049151Y010551D01*
X049251Y010451D01*
X049120Y009601D02*
X049051Y009551D01*
X054851Y010851D02*
X055051Y010651D01*
X055120Y010601D01*
X055151Y010551D01*
X055351Y010351D01*
X048751Y017251D02*
X040351Y017251D01*
X040351Y019251D02*
X048751Y019251D01*
X049051Y019551D01*
X049120Y019601D01*
X049051Y020551D02*
X048151Y019651D01*
X049051Y020551D02*
X049120Y020601D01*
X049120Y017601D02*
X049051Y017551D01*
X048751Y017251D01*
X040051Y011251D02*
X038451Y011251D01*
X038351Y011151D01*
X034951Y011151D01*
X034651Y010851D01*
X034647Y010781D01*
X034647Y011781D02*
X034651Y011851D01*
X034951Y012151D01*
X038351Y012151D01*
X038451Y012251D01*
X029051Y014351D02*
X028651Y014751D01*
X028647Y014781D01*
X025851Y011651D02*
X025651Y011651D01*
X025451Y011451D01*
X019951Y011451D01*
X019551Y011851D01*
X019517Y011919D01*
X019451Y011951D01*
X007251Y011951D01*
X004651Y014551D01*
X011851Y008251D02*
X012351Y007751D01*
X012431Y007738D01*
X015431Y005738D02*
X015451Y005751D01*
X017151Y007451D01*
X019517Y006919D02*
X019551Y006951D01*
X022451Y006951D01*
X022517Y006919D01*
X022517Y008919D02*
X022451Y008951D01*
X022251Y009151D01*
X020151Y009151D01*
X019951Y009351D01*
X018151Y009351D01*
X015951Y011551D01*
X017651Y010351D02*
X022051Y010351D01*
X022451Y009951D01*
X022517Y009919D01*
X022551Y009951D01*
X023851Y011251D01*
X025751Y011251D01*
X025851Y011651D02*
X028251Y009251D01*
X025751Y009351D02*
X022151Y009351D01*
X021951Y009551D01*
X019851Y009551D01*
X019551Y009851D01*
X019517Y009919D01*
X019517Y010919D02*
X019551Y010951D01*
X022451Y010951D01*
X022517Y010919D01*
X019551Y012951D02*
X019551Y015112D01*
X019551Y012951D02*
X019517Y012919D01*
X019517Y004919D02*
X019551Y004851D01*
X020451Y003951D01*
X022451Y003951D01*
X022517Y003919D01*
X023151Y003451D02*
X015651Y003451D01*
X015451Y003651D01*
X015431Y003738D01*
X028647Y004781D02*
X028651Y004751D01*
X028951Y004451D01*
X059751Y024851D02*
X060451Y024851D01*
X060851Y025251D01*
X060887Y025336D01*
X059951Y026351D02*
X059887Y026336D01*
X059951Y026351D02*
X060451Y026851D01*
X060451Y028851D01*
X059887Y028336D02*
X059851Y028251D01*
X058151Y026551D01*
X053151Y026551D01*
X050451Y030151D02*
X050251Y030151D01*
X050226Y030147D01*
X050151Y030151D01*
X049851Y030451D01*
X050451Y030151D02*
X050851Y030551D01*
X056651Y030551D01*
X053226Y032147D02*
X053151Y032051D01*
X052751Y031651D01*
X050226Y032147D02*
X050151Y032151D01*
X049851Y032451D01*
X052851Y034751D02*
X053151Y035051D01*
X053226Y035147D01*
X050226Y035147D02*
X050151Y035151D01*
X049751Y035551D01*
X045746Y030147D02*
X045651Y030051D01*
X045351Y029751D01*
D16*
X053151Y026551D03*
X056251Y024951D03*
X056651Y030551D03*
X046851Y020351D03*
X040351Y019251D03*
X040351Y017251D03*
X040751Y014651D03*
X040351Y013251D03*
X043451Y014251D03*
X047151Y013051D03*
X050051Y013551D03*
X050251Y014151D03*
X053451Y012151D03*
X055851Y012051D03*
X053551Y010051D03*
X054051Y008551D03*
X052351Y008151D03*
X050951Y007751D03*
X053551Y007051D03*
X055851Y005251D03*
X053451Y004951D03*
X046951Y010451D03*
X050251Y010851D03*
X040451Y011351D03*
X040451Y009351D03*
X036051Y014251D03*
X032251Y009251D03*
X031051Y007351D03*
X029951Y006351D03*
X025751Y008851D03*
X025751Y011251D03*
X020251Y006551D03*
X023151Y003451D03*
X017651Y010351D03*
X015951Y011551D03*
X010551Y009151D03*
X004651Y014551D03*
X018651Y019851D03*
X023451Y018051D03*
X024551Y021851D03*
X027451Y024951D03*
X029951Y026651D03*
X031151Y026251D03*
X026451Y029251D03*
X027051Y029651D03*
X026351Y030151D03*
X025351Y032151D03*
X018751Y035651D03*
X020051Y036951D03*
X010351Y031451D03*
X010751Y030151D03*
X011251Y030151D03*
X013551Y028851D03*
X011651Y028251D03*
X013951Y026751D03*
X013551Y025351D03*
X010751Y023451D03*
X010351Y024051D03*
X016851Y024951D03*
X019551Y026651D03*
X021251Y024951D03*
X030351Y021051D03*
X037751Y024151D03*
X034251Y037151D03*
X037251Y003751D03*
D17*
X041596Y002120D02*
X041596Y001045D01*
X041490Y000939D01*
X052513Y000939D01*
X052513Y001439D01*
X051832Y002120D01*
X041490Y000939D02*
X031254Y000939D01*
X031360Y001045D01*
X031360Y002120D01*
X031254Y000939D02*
X021411Y000939D01*
X021517Y001045D01*
X021517Y002120D01*
X021411Y000939D02*
X014324Y000939D01*
X014431Y001045D01*
X014431Y002120D01*
X014324Y000939D02*
X008025Y000939D01*
X006844Y002120D01*
X006844Y003694D01*
X005663Y004876D01*
X003301Y004876D01*
X002120Y006057D01*
X002120Y010387D01*
X002194Y010313D01*
X003588Y010313D01*
X002120Y010387D02*
X002120Y015112D01*
X006844Y015112D01*
X006950Y015218D01*
X006950Y016293D01*
X006844Y015112D02*
X013931Y015112D01*
X014037Y015218D01*
X014037Y016293D01*
X013931Y015112D02*
X019551Y015112D01*
X020624Y015112D01*
X021124Y015612D01*
X021124Y016293D01*
X002120Y015112D02*
X002120Y034797D01*
X004088Y036372D01*
X004088Y037946D01*
X005269Y038928D01*
X007631Y038928D01*
X007738Y038821D01*
X007738Y037946D01*
X007631Y038928D02*
X014718Y038928D01*
X014824Y038821D01*
X014824Y037946D01*
X014718Y038928D02*
X021805Y038928D01*
X021911Y038821D01*
X021911Y037946D01*
X021805Y038928D02*
X030072Y038928D01*
X030179Y038821D01*
X030179Y037946D01*
X030072Y038928D02*
X037553Y038928D01*
X037659Y038821D01*
X037659Y037946D01*
X037553Y038928D02*
X045033Y038928D01*
X045139Y038821D01*
X045139Y037946D01*
X045033Y038928D02*
X052513Y038928D01*
X052620Y038821D01*
X052620Y037946D01*
X052513Y038928D02*
X056450Y038928D01*
X057238Y038340D01*
X057238Y036372D01*
X058273Y035336D01*
X059887Y035336D01*
X060887Y035336D01*
X060887Y034336D01*
X059887Y034336D02*
X059887Y035336D01*
M02*
