G75*
G70*
%OFA0B0*%
%FSLAX24Y24*%
%IPPOS*%
%LPD*%
%AMOC8*
5,1,8,0,0,1.08239X$1,22.5*
%
%ADD10C,0.0080*%
%ADD11C,0.0070*%
D10*
X002728Y006853D02*
X002798Y006923D01*
X002798Y006993D01*
X002728Y007063D01*
X002378Y007063D01*
X002378Y006993D02*
X002378Y007133D01*
X002378Y007313D02*
X002378Y007523D01*
X002448Y007593D01*
X002588Y007593D01*
X002658Y007523D01*
X002658Y007313D01*
X002798Y007313D02*
X002378Y007313D01*
X002518Y007773D02*
X002378Y007913D01*
X002798Y007913D01*
X002798Y007773D02*
X002798Y008054D01*
X003088Y008063D02*
X003088Y008563D01*
X003338Y008813D01*
X004838Y008813D01*
X005088Y009063D01*
X005088Y009563D01*
X004838Y009813D01*
X005088Y010063D01*
X005088Y010563D01*
X004838Y010813D01*
X003338Y010813D01*
X003088Y010563D01*
X003088Y010063D01*
X003338Y009813D01*
X004838Y009813D01*
X004838Y008813D02*
X005088Y008563D01*
X005088Y008063D01*
X004838Y007813D01*
X003338Y007813D01*
X003088Y008063D01*
X003338Y007813D02*
X003088Y007563D01*
X003088Y007063D01*
X003338Y006813D01*
X004838Y006813D01*
X005088Y007063D01*
X005088Y007563D01*
X004838Y007813D01*
X003338Y008813D02*
X003088Y009063D01*
X003088Y009563D01*
X003338Y009813D01*
X012781Y011238D02*
X015081Y011238D01*
X015081Y003238D01*
X014331Y003238D01*
X014329Y003277D01*
X014323Y003316D01*
X014314Y003354D01*
X014301Y003391D01*
X014284Y003427D01*
X014264Y003460D01*
X014240Y003492D01*
X014214Y003521D01*
X014185Y003547D01*
X014153Y003571D01*
X014120Y003591D01*
X014084Y003608D01*
X014047Y003621D01*
X014009Y003630D01*
X013970Y003636D01*
X013931Y003638D01*
X013892Y003636D01*
X013853Y003630D01*
X013815Y003621D01*
X013778Y003608D01*
X013742Y003591D01*
X013709Y003571D01*
X013677Y003547D01*
X013648Y003521D01*
X013622Y003492D01*
X013598Y003460D01*
X013578Y003427D01*
X013561Y003391D01*
X013548Y003354D01*
X013539Y003316D01*
X013533Y003277D01*
X013531Y003238D01*
X012781Y003238D01*
X012781Y011238D01*
X013464Y011699D02*
X013604Y011699D01*
X013534Y011699D02*
X013534Y012119D01*
X013464Y012119D02*
X013604Y012119D01*
X013771Y012049D02*
X013771Y011769D01*
X013841Y011699D01*
X013981Y011699D01*
X014051Y011769D01*
X014231Y011699D02*
X014511Y011699D01*
X014371Y011699D02*
X014371Y012119D01*
X014231Y011979D01*
X014051Y012049D02*
X013981Y012119D01*
X013841Y012119D01*
X013771Y012049D01*
X014691Y012049D02*
X014761Y012119D01*
X014901Y012119D01*
X014972Y012049D01*
X014972Y011979D01*
X014691Y011699D01*
X014972Y011699D01*
X019867Y013419D02*
X022167Y013419D01*
X022167Y003419D01*
X021417Y003419D01*
X021415Y003458D01*
X021409Y003497D01*
X021400Y003535D01*
X021387Y003572D01*
X021370Y003608D01*
X021350Y003641D01*
X021326Y003673D01*
X021300Y003702D01*
X021271Y003728D01*
X021239Y003752D01*
X021206Y003772D01*
X021170Y003789D01*
X021133Y003802D01*
X021095Y003811D01*
X021056Y003817D01*
X021017Y003819D01*
X020978Y003817D01*
X020939Y003811D01*
X020901Y003802D01*
X020864Y003789D01*
X020828Y003772D01*
X020795Y003752D01*
X020763Y003728D01*
X020734Y003702D01*
X020708Y003673D01*
X020684Y003641D01*
X020664Y003608D01*
X020647Y003572D01*
X020634Y003535D01*
X020625Y003497D01*
X020619Y003458D01*
X020617Y003419D01*
X019867Y003419D01*
X019867Y013419D01*
X020550Y013864D02*
X020690Y013864D01*
X020620Y013864D02*
X020620Y014285D01*
X020550Y014285D02*
X020690Y014285D01*
X020857Y014215D02*
X020927Y014285D01*
X021067Y014285D01*
X021137Y014215D01*
X021318Y014145D02*
X021458Y014285D01*
X021458Y013864D01*
X021318Y013864D02*
X021598Y013864D01*
X021778Y013934D02*
X021778Y014005D01*
X021848Y014075D01*
X021988Y014075D01*
X022058Y014005D01*
X022058Y013934D01*
X021988Y013864D01*
X021848Y013864D01*
X021778Y013934D01*
X021848Y014075D02*
X021778Y014145D01*
X021778Y014215D01*
X021848Y014285D01*
X021988Y014285D01*
X022058Y014215D01*
X022058Y014145D01*
X021988Y014075D01*
X021137Y013934D02*
X021067Y013864D01*
X020927Y013864D01*
X020857Y013934D01*
X020857Y014215D01*
X021474Y015793D02*
X019774Y015793D01*
X019757Y015795D01*
X019740Y015799D01*
X019724Y015806D01*
X019710Y015816D01*
X019697Y015829D01*
X019687Y015843D01*
X019680Y015859D01*
X019676Y015876D01*
X019674Y015893D01*
X019674Y016693D01*
X019676Y016710D01*
X019680Y016727D01*
X019687Y016743D01*
X019697Y016757D01*
X019710Y016770D01*
X019724Y016780D01*
X019740Y016787D01*
X019757Y016791D01*
X019774Y016793D01*
X021474Y016793D01*
X021491Y016791D01*
X021508Y016787D01*
X021524Y016780D01*
X021538Y016770D01*
X021551Y016757D01*
X021561Y016743D01*
X021568Y016727D01*
X021572Y016710D01*
X021574Y016693D01*
X021574Y015893D01*
X021572Y015876D01*
X021568Y015859D01*
X021561Y015843D01*
X021551Y015829D01*
X021538Y015816D01*
X021524Y015806D01*
X021508Y015799D01*
X021491Y015795D01*
X021474Y015793D01*
X020724Y015993D02*
X020724Y016293D01*
X020724Y016593D01*
X020524Y016593D02*
X020524Y016293D01*
X020474Y016293D01*
X020524Y016293D02*
X020524Y015993D01*
X020724Y016293D02*
X020774Y016293D01*
X020617Y017517D02*
X019867Y017517D01*
X019867Y024517D01*
X022167Y024517D01*
X022167Y017517D01*
X021417Y017517D01*
X021415Y017556D01*
X021409Y017595D01*
X021400Y017633D01*
X021387Y017670D01*
X021370Y017706D01*
X021350Y017739D01*
X021326Y017771D01*
X021300Y017800D01*
X021271Y017826D01*
X021239Y017850D01*
X021206Y017870D01*
X021170Y017887D01*
X021133Y017900D01*
X021095Y017909D01*
X021056Y017915D01*
X021017Y017917D01*
X020978Y017915D01*
X020939Y017909D01*
X020901Y017900D01*
X020864Y017887D01*
X020828Y017870D01*
X020795Y017850D01*
X020763Y017826D01*
X020734Y017800D01*
X020708Y017771D01*
X020684Y017739D01*
X020664Y017706D01*
X020647Y017670D01*
X020634Y017633D01*
X020625Y017595D01*
X020619Y017556D01*
X020617Y017517D01*
X020807Y018407D02*
X020807Y018688D01*
X020877Y018688D01*
X021157Y018407D01*
X021227Y018407D01*
X021017Y018868D02*
X021017Y019148D01*
X020807Y019078D02*
X021017Y018868D01*
X021227Y019078D02*
X020807Y019078D01*
X020807Y019328D02*
X021227Y019328D01*
X021227Y019608D01*
X021157Y019788D02*
X021227Y019858D01*
X021227Y019999D01*
X021157Y020069D01*
X021087Y020069D01*
X021017Y019999D01*
X021017Y019858D01*
X020947Y019788D01*
X020877Y019788D01*
X020807Y019858D01*
X020807Y019999D01*
X020877Y020069D01*
X020877Y020249D02*
X020807Y020319D01*
X020807Y020459D01*
X020877Y020529D01*
X020947Y020529D01*
X021017Y020459D01*
X021087Y020529D01*
X021157Y020529D01*
X021227Y020459D01*
X021227Y020319D01*
X021157Y020249D01*
X021017Y020389D02*
X021017Y020459D01*
X020877Y020709D02*
X020807Y020779D01*
X020807Y020919D01*
X020877Y020989D01*
X020947Y020989D01*
X021227Y020709D01*
X021227Y020989D01*
X021227Y021169D02*
X020807Y021169D01*
X021227Y021450D01*
X020807Y021450D01*
X020690Y024888D02*
X020550Y024888D01*
X020620Y024888D02*
X020620Y025308D01*
X020550Y025308D02*
X020690Y025308D01*
X020857Y025238D02*
X020857Y024958D01*
X020927Y024888D01*
X021067Y024888D01*
X021137Y024958D01*
X021318Y024888D02*
X021598Y025168D01*
X021598Y025238D01*
X021528Y025308D01*
X021388Y025308D01*
X021318Y025238D01*
X021137Y025238D02*
X021067Y025308D01*
X020927Y025308D01*
X020857Y025238D01*
X021318Y024888D02*
X021598Y024888D01*
X021778Y024958D02*
X022058Y025238D01*
X022058Y024958D01*
X021988Y024888D01*
X021848Y024888D01*
X021778Y024958D01*
X021778Y025238D01*
X021848Y025308D01*
X021988Y025308D01*
X022058Y025238D01*
X022058Y028038D02*
X021778Y028038D01*
X021918Y028038D02*
X021918Y028458D01*
X021778Y028318D01*
X021598Y028038D02*
X021318Y028038D01*
X021458Y028038D02*
X021458Y028458D01*
X021318Y028318D01*
X021137Y028388D02*
X021067Y028458D01*
X020927Y028458D01*
X020857Y028388D01*
X020857Y028108D01*
X020927Y028038D01*
X021067Y028038D01*
X021137Y028108D01*
X020690Y028038D02*
X020550Y028038D01*
X020620Y028038D02*
X020620Y028458D01*
X020550Y028458D02*
X020690Y028458D01*
X020617Y028828D02*
X019867Y028828D01*
X019867Y036828D01*
X022167Y036828D01*
X022167Y028828D01*
X021417Y028828D01*
X021415Y028867D01*
X021409Y028906D01*
X021400Y028944D01*
X021387Y028981D01*
X021370Y029017D01*
X021350Y029050D01*
X021326Y029082D01*
X021300Y029111D01*
X021271Y029137D01*
X021239Y029161D01*
X021206Y029181D01*
X021170Y029198D01*
X021133Y029211D01*
X021095Y029220D01*
X021056Y029226D01*
X021017Y029228D01*
X020978Y029226D01*
X020939Y029220D01*
X020901Y029211D01*
X020864Y029198D01*
X020828Y029181D01*
X020795Y029161D01*
X020763Y029137D01*
X020734Y029111D01*
X020708Y029082D01*
X020684Y029050D01*
X020664Y029017D01*
X020647Y028981D01*
X020634Y028944D01*
X020625Y028906D01*
X020619Y028867D01*
X020617Y028828D01*
X020807Y029918D02*
X020807Y030199D01*
X020877Y030199D01*
X021157Y029918D01*
X021227Y029918D01*
X021017Y030379D02*
X021017Y030659D01*
X020807Y030589D02*
X021017Y030379D01*
X021227Y030589D02*
X020807Y030589D01*
X020807Y030839D02*
X021227Y030839D01*
X021227Y031119D01*
X021157Y031299D02*
X021227Y031369D01*
X021227Y031510D01*
X021157Y031580D01*
X021087Y031580D01*
X021017Y031510D01*
X021017Y031369D01*
X020947Y031299D01*
X020877Y031299D01*
X020807Y031369D01*
X020807Y031510D01*
X020877Y031580D01*
X020947Y031760D02*
X020807Y031900D01*
X021227Y031900D01*
X021227Y031760D02*
X021227Y032040D01*
X021157Y032220D02*
X021227Y032290D01*
X021227Y032430D01*
X021157Y032500D01*
X021087Y032500D01*
X021017Y032430D01*
X021017Y032360D01*
X021017Y032430D02*
X020947Y032500D01*
X020877Y032500D01*
X020807Y032430D01*
X020807Y032290D01*
X020877Y032220D01*
X020877Y032680D02*
X020947Y032680D01*
X021017Y032751D01*
X021017Y032891D01*
X021087Y032961D01*
X021157Y032961D01*
X021227Y032891D01*
X021227Y032751D01*
X021157Y032680D01*
X021087Y032680D01*
X021017Y032751D01*
X021017Y032891D02*
X020947Y032961D01*
X020877Y032961D01*
X020807Y032891D01*
X020807Y032751D01*
X020877Y032680D01*
X020807Y033141D02*
X021227Y033421D01*
X020807Y033421D01*
X020807Y033141D02*
X021227Y033141D01*
X015081Y036828D02*
X012781Y036828D01*
X012781Y028828D01*
X013531Y028828D01*
X013524Y028458D02*
X013594Y028388D01*
X013313Y028108D01*
X013383Y028038D01*
X013524Y028038D01*
X013594Y028108D01*
X013594Y028388D01*
X013524Y028458D02*
X013383Y028458D01*
X013313Y028388D01*
X013313Y028108D01*
X013133Y028038D02*
X012853Y028038D01*
X012993Y028038D02*
X012993Y028458D01*
X012853Y028318D01*
X012673Y028388D02*
X012603Y028458D01*
X012463Y028458D01*
X012393Y028388D01*
X012393Y028108D01*
X012463Y028038D01*
X012603Y028038D01*
X012673Y028108D01*
X012226Y028038D02*
X012086Y028038D01*
X012156Y028038D02*
X012156Y028458D01*
X012086Y028458D02*
X012226Y028458D01*
X013531Y028828D02*
X013533Y028867D01*
X013539Y028906D01*
X013548Y028944D01*
X013561Y028981D01*
X013578Y029017D01*
X013598Y029050D01*
X013622Y029082D01*
X013648Y029111D01*
X013677Y029137D01*
X013709Y029161D01*
X013742Y029181D01*
X013778Y029198D01*
X013815Y029211D01*
X013853Y029220D01*
X013892Y029226D01*
X013931Y029228D01*
X013970Y029226D01*
X014009Y029220D01*
X014047Y029211D01*
X014084Y029198D01*
X014120Y029181D01*
X014153Y029161D01*
X014185Y029137D01*
X014214Y029111D01*
X014240Y029082D01*
X014264Y029050D01*
X014284Y029017D01*
X014301Y028981D01*
X014314Y028944D01*
X014323Y028906D01*
X014329Y028867D01*
X014331Y028828D01*
X015081Y028828D01*
X015081Y036828D01*
X015174Y037446D02*
X013474Y037446D01*
X013457Y037448D01*
X013440Y037452D01*
X013424Y037459D01*
X013410Y037469D01*
X013397Y037482D01*
X013387Y037496D01*
X013380Y037512D01*
X013376Y037529D01*
X013374Y037546D01*
X013374Y038346D01*
X013376Y038363D01*
X013380Y038380D01*
X013387Y038396D01*
X013397Y038410D01*
X013410Y038423D01*
X013424Y038433D01*
X013440Y038440D01*
X013457Y038444D01*
X013474Y038446D01*
X015174Y038446D01*
X015191Y038444D01*
X015208Y038440D01*
X015224Y038433D01*
X015238Y038423D01*
X015251Y038410D01*
X015261Y038396D01*
X015268Y038380D01*
X015272Y038363D01*
X015274Y038346D01*
X015274Y037546D01*
X015272Y037529D01*
X015268Y037512D01*
X015261Y037496D01*
X015251Y037482D01*
X015238Y037469D01*
X015224Y037459D01*
X015208Y037452D01*
X015191Y037448D01*
X015174Y037446D01*
X014424Y037646D02*
X014424Y037946D01*
X014424Y038246D01*
X014224Y038246D02*
X014224Y037946D01*
X014174Y037946D01*
X014224Y037946D02*
X014224Y037646D01*
X014424Y037946D02*
X014474Y037946D01*
X008188Y038346D02*
X008188Y037546D01*
X008186Y037529D01*
X008182Y037512D01*
X008175Y037496D01*
X008165Y037482D01*
X008152Y037469D01*
X008138Y037459D01*
X008122Y037452D01*
X008105Y037448D01*
X008088Y037446D01*
X006388Y037446D01*
X006371Y037448D01*
X006354Y037452D01*
X006338Y037459D01*
X006324Y037469D01*
X006311Y037482D01*
X006301Y037496D01*
X006294Y037512D01*
X006290Y037529D01*
X006288Y037546D01*
X006288Y038346D01*
X006290Y038363D01*
X006294Y038380D01*
X006301Y038396D01*
X006311Y038410D01*
X006324Y038423D01*
X006338Y038433D01*
X006354Y038440D01*
X006371Y038444D01*
X006388Y038446D01*
X008088Y038446D01*
X008105Y038444D01*
X008122Y038440D01*
X008138Y038433D01*
X008152Y038423D01*
X008165Y038410D01*
X008175Y038396D01*
X008182Y038380D01*
X008186Y038363D01*
X008188Y038346D01*
X007338Y038246D02*
X007338Y037946D01*
X007338Y037646D01*
X007138Y037646D02*
X007138Y037946D01*
X007088Y037946D01*
X007138Y037946D02*
X007138Y038246D01*
X007338Y037946D02*
X007388Y037946D01*
X007994Y036828D02*
X005694Y036828D01*
X005694Y028828D01*
X006444Y028828D01*
X006447Y028458D02*
X006447Y028038D01*
X006377Y028038D02*
X006517Y028038D01*
X006684Y028108D02*
X006684Y028388D01*
X006754Y028458D01*
X006894Y028458D01*
X006964Y028388D01*
X007144Y028318D02*
X007284Y028458D01*
X007284Y028038D01*
X007144Y028038D02*
X007425Y028038D01*
X007605Y028108D02*
X007675Y028038D01*
X007815Y028038D01*
X007885Y028108D01*
X007885Y028178D01*
X007815Y028248D01*
X007745Y028248D01*
X007815Y028248D02*
X007885Y028318D01*
X007885Y028388D01*
X007815Y028458D01*
X007675Y028458D01*
X007605Y028388D01*
X007244Y028828D02*
X007994Y028828D01*
X007994Y036828D01*
X007054Y033421D02*
X006634Y033421D01*
X006634Y033141D02*
X007054Y033421D01*
X007054Y033141D02*
X006634Y033141D01*
X006704Y032961D02*
X006634Y032891D01*
X006634Y032751D01*
X006704Y032680D01*
X006774Y032680D01*
X006844Y032751D01*
X006844Y032961D01*
X006984Y032961D02*
X006704Y032961D01*
X006984Y032961D02*
X007054Y032891D01*
X007054Y032751D01*
X006984Y032680D01*
X006984Y032500D02*
X007054Y032430D01*
X007054Y032290D01*
X006984Y032220D01*
X007054Y032040D02*
X007054Y031760D01*
X007054Y031900D02*
X006634Y031900D01*
X006774Y031760D01*
X006704Y031580D02*
X006634Y031510D01*
X006634Y031369D01*
X006704Y031299D01*
X006774Y031299D01*
X006844Y031369D01*
X006844Y031510D01*
X006914Y031580D01*
X006984Y031580D01*
X007054Y031510D01*
X007054Y031369D01*
X006984Y031299D01*
X007054Y031119D02*
X007054Y030839D01*
X006634Y030839D01*
X006634Y030589D02*
X006844Y030379D01*
X006844Y030659D01*
X007054Y030589D02*
X006634Y030589D01*
X006634Y030199D02*
X006704Y030199D01*
X006984Y029918D01*
X007054Y029918D01*
X006634Y029918D02*
X006634Y030199D01*
X006444Y028828D02*
X006446Y028867D01*
X006452Y028906D01*
X006461Y028944D01*
X006474Y028981D01*
X006491Y029017D01*
X006511Y029050D01*
X006535Y029082D01*
X006561Y029111D01*
X006590Y029137D01*
X006622Y029161D01*
X006655Y029181D01*
X006691Y029198D01*
X006728Y029211D01*
X006766Y029220D01*
X006805Y029226D01*
X006844Y029228D01*
X006883Y029226D01*
X006922Y029220D01*
X006960Y029211D01*
X006997Y029198D01*
X007033Y029181D01*
X007066Y029161D01*
X007098Y029137D01*
X007127Y029111D01*
X007153Y029082D01*
X007177Y029050D01*
X007197Y029017D01*
X007214Y028981D01*
X007227Y028944D01*
X007236Y028906D01*
X007242Y028867D01*
X007244Y028828D01*
X006517Y028458D02*
X006377Y028458D01*
X006684Y028108D02*
X006754Y028038D01*
X006894Y028038D01*
X006964Y028108D01*
X006894Y025308D02*
X006754Y025308D01*
X006684Y025238D01*
X006684Y024958D01*
X006754Y024888D01*
X006894Y024888D01*
X006964Y024958D01*
X007144Y024888D02*
X007425Y025168D01*
X007425Y025238D01*
X007355Y025308D01*
X007214Y025308D01*
X007144Y025238D01*
X006964Y025238D02*
X006894Y025308D01*
X006517Y025308D02*
X006377Y025308D01*
X006447Y025308D02*
X006447Y024888D01*
X006377Y024888D02*
X006517Y024888D01*
X007144Y024888D02*
X007425Y024888D01*
X007605Y024888D02*
X007885Y024888D01*
X007745Y024888D02*
X007745Y025308D01*
X007605Y025168D01*
X007994Y024517D02*
X005694Y024517D01*
X005694Y017517D01*
X006444Y017517D01*
X006446Y017556D01*
X006452Y017595D01*
X006461Y017633D01*
X006474Y017670D01*
X006491Y017706D01*
X006511Y017739D01*
X006535Y017771D01*
X006561Y017800D01*
X006590Y017826D01*
X006622Y017850D01*
X006655Y017870D01*
X006691Y017887D01*
X006728Y017900D01*
X006766Y017909D01*
X006805Y017915D01*
X006844Y017917D01*
X006883Y017915D01*
X006922Y017909D01*
X006960Y017900D01*
X006997Y017887D01*
X007033Y017870D01*
X007066Y017850D01*
X007098Y017826D01*
X007127Y017800D01*
X007153Y017771D01*
X007177Y017739D01*
X007197Y017706D01*
X007214Y017670D01*
X007227Y017633D01*
X007236Y017595D01*
X007242Y017556D01*
X007244Y017517D01*
X007994Y017517D01*
X007994Y024517D01*
X007054Y021450D02*
X006634Y021450D01*
X006634Y021169D02*
X007054Y021450D01*
X007054Y021169D02*
X006634Y021169D01*
X006704Y020989D02*
X006774Y020989D01*
X006844Y020919D01*
X006844Y020779D01*
X006774Y020709D01*
X006704Y020709D01*
X006634Y020779D01*
X006634Y020919D01*
X006704Y020989D01*
X006844Y020919D02*
X006914Y020989D01*
X006984Y020989D01*
X007054Y020919D01*
X007054Y020779D01*
X006984Y020709D01*
X006914Y020709D01*
X006844Y020779D01*
X006984Y020529D02*
X007054Y020459D01*
X007054Y020319D01*
X006984Y020249D01*
X006704Y020529D01*
X006984Y020529D01*
X006704Y020529D02*
X006634Y020459D01*
X006634Y020319D01*
X006704Y020249D01*
X006984Y020249D01*
X006984Y020069D02*
X007054Y019999D01*
X007054Y019858D01*
X006984Y019788D01*
X006844Y019858D02*
X006774Y019788D01*
X006704Y019788D01*
X006634Y019858D01*
X006634Y019999D01*
X006704Y020069D01*
X006844Y019999D02*
X006914Y020069D01*
X006984Y020069D01*
X006844Y019999D02*
X006844Y019858D01*
X007054Y019608D02*
X007054Y019328D01*
X006634Y019328D01*
X006634Y019078D02*
X006844Y018868D01*
X006844Y019148D01*
X007054Y019078D02*
X006634Y019078D01*
X006634Y018688D02*
X006704Y018688D01*
X006984Y018407D01*
X007054Y018407D01*
X006634Y018407D02*
X006634Y018688D01*
X007300Y016793D02*
X005600Y016793D01*
X005583Y016791D01*
X005566Y016787D01*
X005550Y016780D01*
X005536Y016770D01*
X005523Y016757D01*
X005513Y016743D01*
X005506Y016727D01*
X005502Y016710D01*
X005500Y016693D01*
X005500Y015893D01*
X005502Y015876D01*
X005506Y015859D01*
X005513Y015843D01*
X005523Y015829D01*
X005536Y015816D01*
X005550Y015806D01*
X005566Y015799D01*
X005583Y015795D01*
X005600Y015793D01*
X007300Y015793D01*
X007317Y015795D01*
X007334Y015799D01*
X007350Y015806D01*
X007364Y015816D01*
X007377Y015829D01*
X007387Y015843D01*
X007394Y015859D01*
X007398Y015876D01*
X007400Y015893D01*
X007400Y016693D01*
X007398Y016710D01*
X007394Y016727D01*
X007387Y016743D01*
X007377Y016757D01*
X007364Y016770D01*
X007350Y016780D01*
X007334Y016787D01*
X007317Y016791D01*
X007300Y016793D01*
X006600Y016293D02*
X006550Y016293D01*
X006550Y015993D01*
X006350Y015993D02*
X006350Y016293D01*
X006300Y016293D01*
X006350Y016293D02*
X006350Y016593D01*
X006550Y016593D02*
X006550Y016293D01*
X012587Y016693D02*
X012587Y015893D01*
X012589Y015876D01*
X012593Y015859D01*
X012600Y015843D01*
X012610Y015829D01*
X012623Y015816D01*
X012637Y015806D01*
X012653Y015799D01*
X012670Y015795D01*
X012687Y015793D01*
X014387Y015793D01*
X014404Y015795D01*
X014421Y015799D01*
X014437Y015806D01*
X014451Y015816D01*
X014464Y015829D01*
X014474Y015843D01*
X014481Y015859D01*
X014485Y015876D01*
X014487Y015893D01*
X014487Y016693D01*
X014485Y016710D01*
X014481Y016727D01*
X014474Y016743D01*
X014464Y016757D01*
X014451Y016770D01*
X014437Y016780D01*
X014421Y016787D01*
X014404Y016791D01*
X014387Y016793D01*
X012687Y016793D01*
X012670Y016791D01*
X012653Y016787D01*
X012637Y016780D01*
X012623Y016770D01*
X012610Y016757D01*
X012600Y016743D01*
X012593Y016727D01*
X012589Y016710D01*
X012587Y016693D01*
X013437Y016593D02*
X013437Y016293D01*
X013387Y016293D01*
X013437Y016293D02*
X013437Y015993D01*
X013637Y015993D02*
X013637Y016293D01*
X013637Y016593D01*
X013637Y016293D02*
X013687Y016293D01*
X013531Y017517D02*
X012781Y017517D01*
X012781Y024517D01*
X015081Y024517D01*
X015081Y017517D01*
X014331Y017517D01*
X014329Y017556D01*
X014323Y017595D01*
X014314Y017633D01*
X014301Y017670D01*
X014284Y017706D01*
X014264Y017739D01*
X014240Y017771D01*
X014214Y017800D01*
X014185Y017826D01*
X014153Y017850D01*
X014120Y017870D01*
X014084Y017887D01*
X014047Y017900D01*
X014009Y017909D01*
X013970Y017915D01*
X013931Y017917D01*
X013892Y017915D01*
X013853Y017909D01*
X013815Y017900D01*
X013778Y017887D01*
X013742Y017870D01*
X013709Y017850D01*
X013677Y017826D01*
X013648Y017800D01*
X013622Y017771D01*
X013598Y017739D01*
X013578Y017706D01*
X013561Y017670D01*
X013548Y017633D01*
X013539Y017595D01*
X013533Y017556D01*
X013531Y017517D01*
X013720Y018407D02*
X013720Y018688D01*
X013790Y018688D01*
X014071Y018407D01*
X014141Y018407D01*
X013931Y018868D02*
X013931Y019148D01*
X014141Y019078D02*
X013720Y019078D01*
X013931Y018868D01*
X014141Y019328D02*
X013720Y019328D01*
X014141Y019328D02*
X014141Y019608D01*
X014071Y019788D02*
X014141Y019858D01*
X014141Y019999D01*
X014071Y020069D01*
X014001Y020069D01*
X013931Y019999D01*
X013931Y019858D01*
X013860Y019788D01*
X013790Y019788D01*
X013720Y019858D01*
X013720Y019999D01*
X013790Y020069D01*
X013790Y020249D02*
X013720Y020319D01*
X013720Y020459D01*
X013790Y020529D01*
X014071Y020249D01*
X014141Y020319D01*
X014141Y020459D01*
X014071Y020529D01*
X013790Y020529D01*
X013931Y020709D02*
X013720Y020919D01*
X014141Y020919D01*
X013931Y020989D02*
X013931Y020709D01*
X014071Y020249D02*
X013790Y020249D01*
X013720Y021169D02*
X014141Y021450D01*
X013720Y021450D01*
X013720Y021169D02*
X014141Y021169D01*
X014231Y024888D02*
X014511Y024888D01*
X014371Y024888D02*
X014371Y025308D01*
X014231Y025168D01*
X014051Y025238D02*
X013981Y025308D01*
X013841Y025308D01*
X013771Y025238D01*
X013771Y024958D01*
X013841Y024888D01*
X013981Y024888D01*
X014051Y024958D01*
X013604Y024888D02*
X013464Y024888D01*
X013534Y024888D02*
X013534Y025308D01*
X013464Y025308D02*
X013604Y025308D01*
X014691Y025238D02*
X014691Y025168D01*
X014761Y025098D01*
X014972Y025098D01*
X014972Y024958D02*
X014972Y025238D01*
X014901Y025308D01*
X014761Y025308D01*
X014691Y025238D01*
X014691Y024958D02*
X014761Y024888D01*
X014901Y024888D01*
X014972Y024958D01*
X014141Y029918D02*
X014071Y029918D01*
X013790Y030199D01*
X013720Y030199D01*
X013720Y029918D01*
X013931Y030379D02*
X013931Y030659D01*
X014141Y030589D02*
X013720Y030589D01*
X013931Y030379D01*
X014141Y030839D02*
X013720Y030839D01*
X014141Y030839D02*
X014141Y031119D01*
X014071Y031299D02*
X014141Y031369D01*
X014141Y031510D01*
X014071Y031580D01*
X014001Y031580D01*
X013931Y031510D01*
X013931Y031369D01*
X013860Y031299D01*
X013790Y031299D01*
X013720Y031369D01*
X013720Y031510D01*
X013790Y031580D01*
X013860Y031760D02*
X013720Y031900D01*
X014141Y031900D01*
X014141Y031760D02*
X014141Y032040D01*
X014071Y032220D02*
X014141Y032290D01*
X014141Y032430D01*
X014071Y032500D01*
X014001Y032500D01*
X013931Y032430D01*
X013931Y032360D01*
X013931Y032430D02*
X013860Y032500D01*
X013790Y032500D01*
X013720Y032430D01*
X013720Y032290D01*
X013790Y032220D01*
X013790Y032680D02*
X013860Y032680D01*
X013931Y032751D01*
X013931Y032891D01*
X014001Y032961D01*
X014071Y032961D01*
X014141Y032891D01*
X014141Y032751D01*
X014071Y032680D01*
X014001Y032680D01*
X013931Y032751D01*
X013931Y032891D02*
X013860Y032961D01*
X013790Y032961D01*
X013720Y032891D01*
X013720Y032751D01*
X013790Y032680D01*
X013720Y033141D02*
X014141Y033421D01*
X013720Y033421D01*
X013720Y033141D02*
X014141Y033141D01*
X006984Y032500D02*
X006914Y032500D01*
X006844Y032430D01*
X006844Y032360D01*
X006844Y032430D02*
X006774Y032500D01*
X006704Y032500D01*
X006634Y032430D01*
X006634Y032290D01*
X006704Y032220D01*
X020461Y037546D02*
X020461Y038346D01*
X020463Y038363D01*
X020467Y038380D01*
X020474Y038396D01*
X020484Y038410D01*
X020497Y038423D01*
X020511Y038433D01*
X020527Y038440D01*
X020544Y038444D01*
X020561Y038446D01*
X022261Y038446D01*
X022278Y038444D01*
X022295Y038440D01*
X022311Y038433D01*
X022325Y038423D01*
X022338Y038410D01*
X022348Y038396D01*
X022355Y038380D01*
X022359Y038363D01*
X022361Y038346D01*
X022361Y037546D01*
X022359Y037529D01*
X022355Y037512D01*
X022348Y037496D01*
X022338Y037482D01*
X022325Y037469D01*
X022311Y037459D01*
X022295Y037452D01*
X022278Y037448D01*
X022261Y037446D01*
X020561Y037446D01*
X020544Y037448D01*
X020527Y037452D01*
X020511Y037459D01*
X020497Y037469D01*
X020484Y037482D01*
X020474Y037496D01*
X020467Y037512D01*
X020463Y037529D01*
X020461Y037546D01*
X021311Y037646D02*
X021311Y037946D01*
X021261Y037946D01*
X021311Y037946D02*
X021311Y038246D01*
X021511Y038246D02*
X021511Y037946D01*
X021511Y037646D01*
X021511Y037946D02*
X021561Y037946D01*
X028135Y036647D02*
X030435Y036647D01*
X030435Y026647D01*
X029685Y026647D01*
X029725Y026293D02*
X029725Y025872D01*
X029585Y025872D02*
X029866Y025872D01*
X030046Y026082D02*
X030326Y026082D01*
X030256Y025872D02*
X030256Y026293D01*
X030046Y026082D01*
X029725Y026293D02*
X029585Y026153D01*
X029405Y026223D02*
X029335Y026293D01*
X029195Y026293D01*
X029125Y026223D01*
X029125Y025942D01*
X029195Y025872D01*
X029335Y025872D01*
X029405Y025942D01*
X028958Y025872D02*
X028818Y025872D01*
X028888Y025872D02*
X028888Y026293D01*
X028818Y026293D02*
X028958Y026293D01*
X028885Y026647D02*
X028135Y026647D01*
X028135Y036647D01*
X028829Y037446D02*
X030529Y037446D01*
X030546Y037448D01*
X030563Y037452D01*
X030579Y037459D01*
X030593Y037469D01*
X030606Y037482D01*
X030616Y037496D01*
X030623Y037512D01*
X030627Y037529D01*
X030629Y037546D01*
X030629Y038346D01*
X030627Y038363D01*
X030623Y038380D01*
X030616Y038396D01*
X030606Y038410D01*
X030593Y038423D01*
X030579Y038433D01*
X030563Y038440D01*
X030546Y038444D01*
X030529Y038446D01*
X028829Y038446D01*
X028812Y038444D01*
X028795Y038440D01*
X028779Y038433D01*
X028765Y038423D01*
X028752Y038410D01*
X028742Y038396D01*
X028735Y038380D01*
X028731Y038363D01*
X028729Y038346D01*
X028729Y037546D01*
X028731Y037529D01*
X028735Y037512D01*
X028742Y037496D01*
X028752Y037482D01*
X028765Y037469D01*
X028779Y037459D01*
X028795Y037452D01*
X028812Y037448D01*
X028829Y037446D01*
X029579Y037646D02*
X029579Y037946D01*
X029529Y037946D01*
X029579Y037946D02*
X029579Y038246D01*
X029779Y038246D02*
X029779Y037946D01*
X029779Y037646D01*
X029779Y037946D02*
X029829Y037946D01*
X035615Y036647D02*
X037915Y036647D01*
X037915Y026647D01*
X037165Y026647D01*
X037206Y026293D02*
X037206Y025872D01*
X037066Y025872D02*
X037346Y025872D01*
X037526Y025942D02*
X037596Y025872D01*
X037736Y025872D01*
X037806Y025942D01*
X037806Y026082D01*
X037736Y026153D01*
X037666Y026153D01*
X037526Y026082D01*
X037526Y026293D01*
X037806Y026293D01*
X037206Y026293D02*
X037066Y026153D01*
X036886Y026223D02*
X036815Y026293D01*
X036675Y026293D01*
X036605Y026223D01*
X036605Y025942D01*
X036675Y025872D01*
X036815Y025872D01*
X036886Y025942D01*
X036439Y025872D02*
X036298Y025872D01*
X036368Y025872D02*
X036368Y026293D01*
X036298Y026293D02*
X036439Y026293D01*
X036365Y026647D02*
X035615Y026647D01*
X035615Y036647D01*
X036309Y037446D02*
X038009Y037446D01*
X038026Y037448D01*
X038043Y037452D01*
X038059Y037459D01*
X038073Y037469D01*
X038086Y037482D01*
X038096Y037496D01*
X038103Y037512D01*
X038107Y037529D01*
X038109Y037546D01*
X038109Y038346D01*
X038107Y038363D01*
X038103Y038380D01*
X038096Y038396D01*
X038086Y038410D01*
X038073Y038423D01*
X038059Y038433D01*
X038043Y038440D01*
X038026Y038444D01*
X038009Y038446D01*
X036309Y038446D01*
X036292Y038444D01*
X036275Y038440D01*
X036259Y038433D01*
X036245Y038423D01*
X036232Y038410D01*
X036222Y038396D01*
X036215Y038380D01*
X036211Y038363D01*
X036209Y038346D01*
X036209Y037546D01*
X036211Y037529D01*
X036215Y037512D01*
X036222Y037496D01*
X036232Y037482D01*
X036245Y037469D01*
X036259Y037459D01*
X036275Y037452D01*
X036292Y037448D01*
X036309Y037446D01*
X037059Y037646D02*
X037059Y037946D01*
X037009Y037946D01*
X037059Y037946D02*
X037059Y038246D01*
X037259Y038246D02*
X037259Y037946D01*
X037259Y037646D01*
X037259Y037946D02*
X037309Y037946D01*
X043096Y036647D02*
X045396Y036647D01*
X045396Y026647D01*
X044646Y026647D01*
X044686Y026293D02*
X044686Y025872D01*
X044546Y025872D02*
X044826Y025872D01*
X045006Y025942D02*
X045076Y025872D01*
X045216Y025872D01*
X045287Y025942D01*
X045287Y026012D01*
X045216Y026082D01*
X045006Y026082D01*
X045006Y025942D01*
X045006Y026082D02*
X045146Y026223D01*
X045287Y026293D01*
X044686Y026293D02*
X044546Y026153D01*
X044366Y026223D02*
X044296Y026293D01*
X044156Y026293D01*
X044086Y026223D01*
X044086Y025942D01*
X044156Y025872D01*
X044296Y025872D01*
X044366Y025942D01*
X043919Y025872D02*
X043779Y025872D01*
X043849Y025872D02*
X043849Y026293D01*
X043779Y026293D02*
X043919Y026293D01*
X043846Y026647D02*
X043096Y026647D01*
X043096Y036647D01*
X043789Y037446D02*
X045489Y037446D01*
X045506Y037448D01*
X045523Y037452D01*
X045539Y037459D01*
X045553Y037469D01*
X045566Y037482D01*
X045576Y037496D01*
X045583Y037512D01*
X045587Y037529D01*
X045589Y037546D01*
X045589Y038346D01*
X045587Y038363D01*
X045583Y038380D01*
X045576Y038396D01*
X045566Y038410D01*
X045553Y038423D01*
X045539Y038433D01*
X045523Y038440D01*
X045506Y038444D01*
X045489Y038446D01*
X043789Y038446D01*
X043772Y038444D01*
X043755Y038440D01*
X043739Y038433D01*
X043725Y038423D01*
X043712Y038410D01*
X043702Y038396D01*
X043695Y038380D01*
X043691Y038363D01*
X043689Y038346D01*
X043689Y037546D01*
X043691Y037529D01*
X043695Y037512D01*
X043702Y037496D01*
X043712Y037482D01*
X043725Y037469D01*
X043739Y037459D01*
X043755Y037452D01*
X043772Y037448D01*
X043789Y037446D01*
X044539Y037646D02*
X044539Y037946D01*
X044489Y037946D01*
X044539Y037946D02*
X044539Y038246D01*
X044739Y038246D02*
X044739Y037946D01*
X044739Y037646D01*
X044739Y037946D02*
X044789Y037946D01*
X050576Y036647D02*
X052876Y036647D01*
X052876Y026647D01*
X052126Y026647D01*
X052166Y026293D02*
X052166Y025872D01*
X052026Y025872D02*
X052306Y025872D01*
X052487Y025872D02*
X052487Y025942D01*
X052767Y026223D01*
X052767Y026293D01*
X052487Y026293D01*
X052166Y026293D02*
X052026Y026153D01*
X051846Y026223D02*
X051776Y026293D01*
X051636Y026293D01*
X051566Y026223D01*
X051566Y025942D01*
X051636Y025872D01*
X051776Y025872D01*
X051846Y025942D01*
X051399Y025872D02*
X051259Y025872D01*
X051329Y025872D02*
X051329Y026293D01*
X051259Y026293D02*
X051399Y026293D01*
X051326Y026647D02*
X050576Y026647D01*
X050576Y036647D01*
X051270Y037446D02*
X052970Y037446D01*
X052987Y037448D01*
X053004Y037452D01*
X053020Y037459D01*
X053034Y037469D01*
X053047Y037482D01*
X053057Y037496D01*
X053064Y037512D01*
X053068Y037529D01*
X053070Y037546D01*
X053070Y038346D01*
X053068Y038363D01*
X053064Y038380D01*
X053057Y038396D01*
X053047Y038410D01*
X053034Y038423D01*
X053020Y038433D01*
X053004Y038440D01*
X052987Y038444D01*
X052970Y038446D01*
X051270Y038446D01*
X051253Y038444D01*
X051236Y038440D01*
X051220Y038433D01*
X051206Y038423D01*
X051193Y038410D01*
X051183Y038396D01*
X051176Y038380D01*
X051172Y038363D01*
X051170Y038346D01*
X051170Y037546D01*
X051172Y037529D01*
X051176Y037512D01*
X051183Y037496D01*
X051193Y037482D01*
X051206Y037469D01*
X051220Y037459D01*
X051236Y037452D01*
X051253Y037448D01*
X051270Y037446D01*
X052020Y037646D02*
X052020Y037946D01*
X051970Y037946D01*
X052020Y037946D02*
X052020Y038246D01*
X052220Y038246D02*
X052220Y037946D01*
X052220Y037646D01*
X052220Y037946D02*
X052270Y037946D01*
X051836Y031340D02*
X051416Y031340D01*
X051416Y031060D02*
X051836Y031340D01*
X051836Y031060D02*
X051416Y031060D01*
X051416Y030810D02*
X051626Y030599D01*
X051626Y030880D01*
X051836Y030810D02*
X051416Y030810D01*
X051416Y030419D02*
X051486Y030419D01*
X051766Y030139D01*
X051836Y030139D01*
X051766Y029959D02*
X051836Y029889D01*
X051836Y029749D01*
X051766Y029679D01*
X051766Y029499D02*
X051836Y029428D01*
X051836Y029288D01*
X051766Y029218D01*
X051626Y029288D02*
X051626Y029428D01*
X051696Y029499D01*
X051766Y029499D01*
X051626Y029288D02*
X051556Y029218D01*
X051486Y029218D01*
X051416Y029288D01*
X051416Y029428D01*
X051486Y029499D01*
X051486Y029679D02*
X051416Y029749D01*
X051416Y029889D01*
X051486Y029959D01*
X051556Y029959D01*
X051626Y029889D01*
X051696Y029959D01*
X051766Y029959D01*
X051626Y029889D02*
X051626Y029819D01*
X051416Y030139D02*
X051416Y030419D01*
X051836Y029038D02*
X051836Y028758D01*
X051416Y028758D01*
X051416Y028508D02*
X051626Y028298D01*
X051626Y028578D01*
X051836Y028508D02*
X051416Y028508D01*
X051416Y028117D02*
X051486Y028117D01*
X051766Y027837D01*
X051836Y027837D01*
X051416Y027837D02*
X051416Y028117D01*
X051326Y026647D02*
X051328Y026686D01*
X051334Y026725D01*
X051343Y026763D01*
X051356Y026800D01*
X051373Y026836D01*
X051393Y026869D01*
X051417Y026901D01*
X051443Y026930D01*
X051472Y026956D01*
X051504Y026980D01*
X051537Y027000D01*
X051573Y027017D01*
X051610Y027030D01*
X051648Y027039D01*
X051687Y027045D01*
X051726Y027047D01*
X051765Y027045D01*
X051804Y027039D01*
X051842Y027030D01*
X051879Y027017D01*
X051915Y027000D01*
X051948Y026980D01*
X051980Y026956D01*
X052009Y026930D01*
X052035Y026901D01*
X052059Y026869D01*
X052079Y026836D01*
X052096Y026800D01*
X052109Y026763D01*
X052118Y026725D01*
X052124Y026686D01*
X052126Y026647D01*
X044356Y027837D02*
X044286Y027837D01*
X044005Y028117D01*
X043935Y028117D01*
X043935Y027837D01*
X044146Y028298D02*
X044146Y028578D01*
X044356Y028508D02*
X043935Y028508D01*
X044146Y028298D01*
X044356Y028758D02*
X043935Y028758D01*
X044356Y028758D02*
X044356Y029038D01*
X044286Y029218D02*
X044356Y029288D01*
X044356Y029428D01*
X044286Y029499D01*
X044216Y029499D01*
X044146Y029428D01*
X044146Y029288D01*
X044075Y029218D01*
X044005Y029218D01*
X043935Y029288D01*
X043935Y029428D01*
X044005Y029499D01*
X044005Y029679D02*
X043935Y029749D01*
X043935Y029889D01*
X044005Y029959D01*
X044075Y029959D01*
X044146Y029889D01*
X044216Y029959D01*
X044286Y029959D01*
X044356Y029889D01*
X044356Y029749D01*
X044286Y029679D01*
X044146Y029819D02*
X044146Y029889D01*
X044286Y030139D02*
X044005Y030419D01*
X043935Y030419D01*
X043935Y030139D01*
X044286Y030139D02*
X044356Y030139D01*
X044146Y030599D02*
X044146Y030880D01*
X044356Y030810D02*
X043935Y030810D01*
X044146Y030599D01*
X044356Y031060D02*
X043935Y031060D01*
X044356Y031340D01*
X043935Y031340D01*
X043846Y026647D02*
X043848Y026686D01*
X043854Y026725D01*
X043863Y026763D01*
X043876Y026800D01*
X043893Y026836D01*
X043913Y026869D01*
X043937Y026901D01*
X043963Y026930D01*
X043992Y026956D01*
X044024Y026980D01*
X044057Y027000D01*
X044093Y027017D01*
X044130Y027030D01*
X044168Y027039D01*
X044207Y027045D01*
X044246Y027047D01*
X044285Y027045D01*
X044324Y027039D01*
X044362Y027030D01*
X044399Y027017D01*
X044435Y027000D01*
X044468Y026980D01*
X044500Y026956D01*
X044529Y026930D01*
X044555Y026901D01*
X044579Y026869D01*
X044599Y026836D01*
X044616Y026800D01*
X044629Y026763D01*
X044638Y026725D01*
X044644Y026686D01*
X044646Y026647D01*
X036875Y027837D02*
X036805Y027837D01*
X036525Y028117D01*
X036455Y028117D01*
X036455Y027837D01*
X036665Y028298D02*
X036665Y028578D01*
X036455Y028508D02*
X036665Y028298D01*
X036875Y028508D02*
X036455Y028508D01*
X036455Y028758D02*
X036875Y028758D01*
X036875Y029038D01*
X036805Y029218D02*
X036875Y029288D01*
X036875Y029428D01*
X036805Y029499D01*
X036735Y029499D01*
X036665Y029428D01*
X036665Y029288D01*
X036595Y029218D01*
X036525Y029218D01*
X036455Y029288D01*
X036455Y029428D01*
X036525Y029499D01*
X036525Y029679D02*
X036455Y029749D01*
X036455Y029889D01*
X036525Y029959D01*
X036595Y029959D01*
X036665Y029889D01*
X036735Y029959D01*
X036805Y029959D01*
X036875Y029889D01*
X036875Y029749D01*
X036805Y029679D01*
X036665Y029819D02*
X036665Y029889D01*
X036805Y030139D02*
X036875Y030139D01*
X036805Y030139D02*
X036525Y030419D01*
X036455Y030419D01*
X036455Y030139D01*
X036665Y030599D02*
X036665Y030880D01*
X036455Y030810D02*
X036665Y030599D01*
X036875Y030810D02*
X036455Y030810D01*
X036455Y031060D02*
X036875Y031340D01*
X036455Y031340D01*
X036455Y031060D02*
X036875Y031060D01*
X037165Y026647D02*
X037163Y026686D01*
X037157Y026725D01*
X037148Y026763D01*
X037135Y026800D01*
X037118Y026836D01*
X037098Y026869D01*
X037074Y026901D01*
X037048Y026930D01*
X037019Y026956D01*
X036987Y026980D01*
X036954Y027000D01*
X036918Y027017D01*
X036881Y027030D01*
X036843Y027039D01*
X036804Y027045D01*
X036765Y027047D01*
X036726Y027045D01*
X036687Y027039D01*
X036649Y027030D01*
X036612Y027017D01*
X036576Y027000D01*
X036543Y026980D01*
X036511Y026956D01*
X036482Y026930D01*
X036456Y026901D01*
X036432Y026869D01*
X036412Y026836D01*
X036395Y026800D01*
X036382Y026763D01*
X036373Y026725D01*
X036367Y026686D01*
X036365Y026647D01*
X029395Y027837D02*
X029325Y027837D01*
X029045Y028117D01*
X028975Y028117D01*
X028975Y027837D01*
X029185Y028298D02*
X028975Y028508D01*
X029395Y028508D01*
X029185Y028578D02*
X029185Y028298D01*
X028975Y028758D02*
X029395Y028758D01*
X029395Y029038D01*
X029325Y029218D02*
X029395Y029288D01*
X029395Y029428D01*
X029325Y029499D01*
X029255Y029499D01*
X029185Y029428D01*
X029185Y029288D01*
X029115Y029218D01*
X029045Y029218D01*
X028975Y029288D01*
X028975Y029428D01*
X029045Y029499D01*
X029045Y029679D02*
X028975Y029749D01*
X028975Y029889D01*
X029045Y029959D01*
X029115Y029959D01*
X029185Y029889D01*
X029255Y029959D01*
X029325Y029959D01*
X029395Y029889D01*
X029395Y029749D01*
X029325Y029679D01*
X029185Y029819D02*
X029185Y029889D01*
X029325Y030139D02*
X029395Y030139D01*
X029325Y030139D02*
X029045Y030419D01*
X028975Y030419D01*
X028975Y030139D01*
X029185Y030599D02*
X028975Y030810D01*
X029395Y030810D01*
X029185Y030880D02*
X029185Y030599D01*
X029395Y031060D02*
X028975Y031060D01*
X029395Y031340D01*
X028975Y031340D01*
X028885Y026647D02*
X028887Y026686D01*
X028893Y026725D01*
X028902Y026763D01*
X028915Y026800D01*
X028932Y026836D01*
X028952Y026869D01*
X028976Y026901D01*
X029002Y026930D01*
X029031Y026956D01*
X029063Y026980D01*
X029096Y027000D01*
X029132Y027017D01*
X029169Y027030D01*
X029207Y027039D01*
X029246Y027045D01*
X029285Y027047D01*
X029324Y027045D01*
X029363Y027039D01*
X029401Y027030D01*
X029438Y027017D01*
X029474Y027000D01*
X029507Y026980D01*
X029539Y026956D01*
X029568Y026930D01*
X029594Y026901D01*
X029618Y026869D01*
X029638Y026836D01*
X029655Y026800D01*
X029668Y026763D01*
X029677Y026725D01*
X029683Y026686D01*
X029685Y026647D01*
X028997Y019281D02*
X034297Y019281D01*
X034297Y003281D01*
X032047Y003281D01*
X032045Y003320D01*
X032039Y003359D01*
X032030Y003397D01*
X032017Y003434D01*
X032000Y003470D01*
X031980Y003503D01*
X031956Y003535D01*
X031930Y003564D01*
X031901Y003590D01*
X031869Y003614D01*
X031836Y003634D01*
X031800Y003651D01*
X031763Y003664D01*
X031725Y003673D01*
X031686Y003679D01*
X031647Y003681D01*
X031608Y003679D01*
X031569Y003673D01*
X031531Y003664D01*
X031494Y003651D01*
X031458Y003634D01*
X031425Y003614D01*
X031393Y003590D01*
X031364Y003564D01*
X031338Y003535D01*
X031314Y003503D01*
X031294Y003470D01*
X031277Y003434D01*
X031264Y003397D01*
X031255Y003359D01*
X031249Y003320D01*
X031247Y003281D01*
X028997Y003281D01*
X028997Y019281D01*
X039233Y019281D02*
X044533Y019281D01*
X044533Y003281D01*
X042283Y003281D01*
X042281Y003320D01*
X042275Y003359D01*
X042266Y003397D01*
X042253Y003434D01*
X042236Y003470D01*
X042216Y003503D01*
X042192Y003535D01*
X042166Y003564D01*
X042137Y003590D01*
X042105Y003614D01*
X042072Y003634D01*
X042036Y003651D01*
X041999Y003664D01*
X041961Y003673D01*
X041922Y003679D01*
X041883Y003681D01*
X041844Y003679D01*
X041805Y003673D01*
X041767Y003664D01*
X041730Y003651D01*
X041694Y003634D01*
X041661Y003614D01*
X041629Y003590D01*
X041600Y003564D01*
X041574Y003535D01*
X041550Y003503D01*
X041530Y003470D01*
X041513Y003434D01*
X041500Y003397D01*
X041491Y003359D01*
X041485Y003320D01*
X041483Y003281D01*
X039233Y003281D01*
X039233Y019281D01*
X049470Y021101D02*
X054770Y021101D01*
X054770Y005101D01*
X052520Y005101D01*
X052518Y005140D01*
X052512Y005179D01*
X052503Y005217D01*
X052490Y005254D01*
X052473Y005290D01*
X052453Y005323D01*
X052429Y005355D01*
X052403Y005384D01*
X052374Y005410D01*
X052342Y005434D01*
X052309Y005454D01*
X052273Y005471D01*
X052236Y005484D01*
X052198Y005493D01*
X052159Y005499D01*
X052120Y005501D01*
X052081Y005499D01*
X052042Y005493D01*
X052004Y005484D01*
X051967Y005471D01*
X051931Y005454D01*
X051898Y005434D01*
X051866Y005410D01*
X051837Y005384D01*
X051811Y005355D01*
X051787Y005323D01*
X051767Y005290D01*
X051750Y005254D01*
X051737Y005217D01*
X051728Y005179D01*
X051722Y005140D01*
X051720Y005101D01*
X049470Y005101D01*
X049470Y021101D01*
X051913Y011416D02*
X052326Y011003D01*
X052430Y011106D01*
X052430Y011313D01*
X052326Y011416D01*
X051913Y011416D01*
X051809Y011313D01*
X051809Y011106D01*
X051913Y011003D01*
X052326Y011003D01*
X052430Y010772D02*
X052430Y010358D01*
X052430Y010565D02*
X051809Y010565D01*
X052016Y010358D01*
X051913Y010127D02*
X052326Y009714D01*
X052430Y009817D01*
X052430Y010024D01*
X052326Y010127D01*
X051913Y010127D01*
X051809Y010024D01*
X051809Y009817D01*
X051913Y009714D01*
X052326Y009714D01*
X052119Y009276D02*
X052119Y009069D01*
X052119Y008838D02*
X052119Y008528D01*
X052016Y008425D01*
X051913Y008425D01*
X051809Y008528D01*
X051809Y008735D01*
X051913Y008838D01*
X052326Y008838D01*
X052430Y008735D01*
X052430Y008528D01*
X052326Y008425D01*
X052430Y008194D02*
X052430Y007780D01*
X052016Y008194D01*
X051913Y008194D01*
X051809Y008090D01*
X051809Y007884D01*
X051913Y007780D01*
X051809Y007549D02*
X052430Y007549D01*
X052016Y007342D02*
X051809Y007549D01*
X052016Y007342D02*
X051809Y007136D01*
X052430Y007136D01*
X052430Y006905D02*
X052016Y006905D01*
X051809Y006698D01*
X052016Y006491D01*
X052430Y006491D01*
X052119Y006491D02*
X052119Y006905D01*
X051809Y009069D02*
X051809Y009483D01*
X051809Y009069D02*
X052430Y009069D01*
X053000Y002671D02*
X053207Y002671D01*
X053103Y002671D02*
X053103Y002050D01*
X053000Y002050D02*
X053207Y002050D01*
X053430Y002154D02*
X053430Y002567D01*
X053533Y002671D01*
X053740Y002671D01*
X053843Y002567D01*
X054074Y002567D02*
X054074Y002464D01*
X054178Y002360D01*
X054488Y002360D01*
X054488Y002154D02*
X054488Y002567D01*
X054384Y002671D01*
X054178Y002671D01*
X054074Y002567D01*
X054074Y002154D02*
X054178Y002050D01*
X054384Y002050D01*
X054488Y002154D01*
X053843Y002154D02*
X053740Y002050D01*
X053533Y002050D01*
X053430Y002154D01*
X052282Y002520D02*
X052282Y001720D01*
X052280Y001703D01*
X052276Y001686D01*
X052269Y001670D01*
X052259Y001656D01*
X052246Y001643D01*
X052232Y001633D01*
X052216Y001626D01*
X052199Y001622D01*
X052182Y001620D01*
X050482Y001620D01*
X050465Y001622D01*
X050448Y001626D01*
X050432Y001633D01*
X050418Y001643D01*
X050405Y001656D01*
X050395Y001670D01*
X050388Y001686D01*
X050384Y001703D01*
X050382Y001720D01*
X050382Y002520D01*
X050384Y002537D01*
X050388Y002554D01*
X050395Y002570D01*
X050405Y002584D01*
X050418Y002597D01*
X050432Y002607D01*
X050448Y002614D01*
X050465Y002618D01*
X050482Y002620D01*
X052182Y002620D01*
X052199Y002618D01*
X052216Y002614D01*
X052232Y002607D01*
X052246Y002597D01*
X052259Y002584D01*
X052269Y002570D01*
X052276Y002554D01*
X052280Y002537D01*
X052282Y002520D01*
X051432Y002420D02*
X051432Y002120D01*
X051432Y001820D01*
X051232Y001820D02*
X051232Y002120D01*
X051182Y002120D01*
X051232Y002120D02*
X051232Y002420D01*
X051432Y002120D02*
X051482Y002120D01*
X044252Y002050D02*
X043838Y002050D01*
X044252Y002464D01*
X044252Y002567D01*
X044148Y002671D01*
X043941Y002671D01*
X043838Y002567D01*
X043607Y002567D02*
X043504Y002671D01*
X043297Y002671D01*
X043193Y002567D01*
X043193Y002154D01*
X043297Y002050D01*
X043504Y002050D01*
X043607Y002154D01*
X042971Y002050D02*
X042764Y002050D01*
X042867Y002050D02*
X042867Y002671D01*
X042764Y002671D02*
X042971Y002671D01*
X042046Y002520D02*
X042046Y001720D01*
X042044Y001703D01*
X042040Y001686D01*
X042033Y001670D01*
X042023Y001656D01*
X042010Y001643D01*
X041996Y001633D01*
X041980Y001626D01*
X041963Y001622D01*
X041946Y001620D01*
X040246Y001620D01*
X040229Y001622D01*
X040212Y001626D01*
X040196Y001633D01*
X040182Y001643D01*
X040169Y001656D01*
X040159Y001670D01*
X040152Y001686D01*
X040148Y001703D01*
X040146Y001720D01*
X040146Y002520D01*
X040148Y002537D01*
X040152Y002554D01*
X040159Y002570D01*
X040169Y002584D01*
X040182Y002597D01*
X040196Y002607D01*
X040212Y002614D01*
X040229Y002618D01*
X040246Y002620D01*
X041946Y002620D01*
X041963Y002618D01*
X041980Y002614D01*
X041996Y002607D01*
X042010Y002597D01*
X042023Y002584D01*
X042033Y002570D01*
X042040Y002554D01*
X042044Y002537D01*
X042046Y002520D01*
X041196Y002420D02*
X041196Y002120D01*
X041196Y001820D01*
X040996Y001820D02*
X040996Y002120D01*
X040946Y002120D01*
X040996Y002120D02*
X040996Y002420D01*
X041196Y002120D02*
X041246Y002120D01*
X041883Y004671D02*
X041883Y004981D01*
X041987Y005085D01*
X042090Y005085D01*
X042193Y004981D01*
X042193Y004774D01*
X042090Y004671D01*
X041883Y004671D01*
X041676Y004878D01*
X041573Y005085D01*
X041676Y005316D02*
X041573Y005419D01*
X041573Y005626D01*
X041676Y005729D01*
X041780Y005729D01*
X042193Y005316D01*
X042193Y005729D01*
X042090Y005960D02*
X041987Y005960D01*
X041883Y006064D01*
X041883Y006270D01*
X041987Y006374D01*
X042090Y006374D01*
X042193Y006270D01*
X042193Y006064D01*
X042090Y005960D01*
X041883Y006064D02*
X041780Y005960D01*
X041676Y005960D01*
X041573Y006064D01*
X041573Y006270D01*
X041676Y006374D01*
X041780Y006374D01*
X041883Y006270D01*
X041883Y006605D02*
X041780Y006811D01*
X041780Y006915D01*
X041883Y007018D01*
X042090Y007018D01*
X042193Y006915D01*
X042193Y006708D01*
X042090Y006605D01*
X041883Y006605D02*
X041573Y006605D01*
X041573Y007018D01*
X041780Y007249D02*
X041573Y007456D01*
X042193Y007456D01*
X042193Y007249D02*
X042193Y007663D01*
X042193Y007894D02*
X041780Y008307D01*
X041676Y008307D01*
X041573Y008204D01*
X041573Y007997D01*
X041676Y007894D01*
X042193Y007894D02*
X042193Y008307D01*
X033809Y002671D02*
X033602Y002464D01*
X033371Y002567D02*
X033267Y002671D01*
X033061Y002671D01*
X032957Y002567D01*
X032957Y002154D01*
X033061Y002050D01*
X033267Y002050D01*
X033371Y002154D01*
X033602Y002050D02*
X034015Y002050D01*
X033809Y002050D02*
X033809Y002671D01*
X032734Y002671D02*
X032528Y002671D01*
X032631Y002671D02*
X032631Y002050D01*
X032528Y002050D02*
X032734Y002050D01*
X031810Y001720D02*
X031810Y002520D01*
X031808Y002537D01*
X031804Y002554D01*
X031797Y002570D01*
X031787Y002584D01*
X031774Y002597D01*
X031760Y002607D01*
X031744Y002614D01*
X031727Y002618D01*
X031710Y002620D01*
X030010Y002620D01*
X029993Y002618D01*
X029976Y002614D01*
X029960Y002607D01*
X029946Y002597D01*
X029933Y002584D01*
X029923Y002570D01*
X029916Y002554D01*
X029912Y002537D01*
X029910Y002520D01*
X029910Y001720D01*
X029912Y001703D01*
X029916Y001686D01*
X029923Y001670D01*
X029933Y001656D01*
X029946Y001643D01*
X029960Y001633D01*
X029976Y001626D01*
X029993Y001622D01*
X030010Y001620D01*
X031710Y001620D01*
X031727Y001622D01*
X031744Y001626D01*
X031760Y001633D01*
X031774Y001643D01*
X031787Y001656D01*
X031797Y001670D01*
X031804Y001686D01*
X031808Y001703D01*
X031810Y001720D01*
X031010Y002120D02*
X030960Y002120D01*
X030960Y001820D01*
X030760Y001820D02*
X030760Y002120D01*
X030710Y002120D01*
X030760Y002120D02*
X030760Y002420D01*
X030960Y002420D02*
X030960Y002120D01*
X031647Y004671D02*
X031647Y004981D01*
X031750Y005085D01*
X031854Y005085D01*
X031957Y004981D01*
X031957Y004774D01*
X031854Y004671D01*
X031647Y004671D01*
X031440Y004878D01*
X031337Y005085D01*
X031440Y005316D02*
X031337Y005419D01*
X031337Y005626D01*
X031440Y005729D01*
X031544Y005729D01*
X031957Y005316D01*
X031957Y005729D01*
X031854Y005960D02*
X031750Y005960D01*
X031647Y006064D01*
X031647Y006270D01*
X031750Y006374D01*
X031854Y006374D01*
X031957Y006270D01*
X031957Y006064D01*
X031854Y005960D01*
X031647Y006064D02*
X031544Y005960D01*
X031440Y005960D01*
X031337Y006064D01*
X031337Y006270D01*
X031440Y006374D01*
X031544Y006374D01*
X031647Y006270D01*
X031647Y006605D02*
X031544Y006811D01*
X031544Y006915D01*
X031647Y007018D01*
X031854Y007018D01*
X031957Y006915D01*
X031957Y006708D01*
X031854Y006605D01*
X031647Y006605D02*
X031337Y006605D01*
X031337Y007018D01*
X031544Y007249D02*
X031337Y007456D01*
X031957Y007456D01*
X031957Y007249D02*
X031957Y007663D01*
X031957Y007894D02*
X031544Y008307D01*
X031440Y008307D01*
X031337Y008204D01*
X031337Y007997D01*
X031440Y007894D01*
X031957Y007894D02*
X031957Y008307D01*
X021967Y002520D02*
X021967Y001720D01*
X021965Y001703D01*
X021961Y001686D01*
X021954Y001670D01*
X021944Y001656D01*
X021931Y001643D01*
X021917Y001633D01*
X021901Y001626D01*
X021884Y001622D01*
X021867Y001620D01*
X020167Y001620D01*
X020150Y001622D01*
X020133Y001626D01*
X020117Y001633D01*
X020103Y001643D01*
X020090Y001656D01*
X020080Y001670D01*
X020073Y001686D01*
X020069Y001703D01*
X020067Y001720D01*
X020067Y002520D01*
X020069Y002537D01*
X020073Y002554D01*
X020080Y002570D01*
X020090Y002584D01*
X020103Y002597D01*
X020117Y002607D01*
X020133Y002614D01*
X020150Y002618D01*
X020167Y002620D01*
X021867Y002620D01*
X021884Y002618D01*
X021901Y002614D01*
X021917Y002607D01*
X021931Y002597D01*
X021944Y002584D01*
X021954Y002570D01*
X021961Y002554D01*
X021965Y002537D01*
X021967Y002520D01*
X021117Y002420D02*
X021117Y002120D01*
X021117Y001820D01*
X020917Y001820D02*
X020917Y002120D01*
X020867Y002120D01*
X020917Y002120D02*
X020917Y002420D01*
X021117Y002120D02*
X021167Y002120D01*
X021127Y004609D02*
X021057Y004609D01*
X020777Y004889D01*
X020707Y004889D01*
X020707Y004609D01*
X020917Y005069D02*
X020917Y005349D01*
X020707Y005279D02*
X020917Y005069D01*
X021127Y005279D02*
X020707Y005279D01*
X020707Y005530D02*
X021127Y005530D01*
X021127Y005810D01*
X021057Y005990D02*
X021127Y006060D01*
X021127Y006200D01*
X021057Y006270D01*
X020987Y006270D01*
X020917Y006200D01*
X020917Y006060D01*
X020847Y005990D01*
X020777Y005990D01*
X020707Y006060D01*
X020707Y006200D01*
X020777Y006270D01*
X020777Y006450D02*
X020707Y006520D01*
X020707Y006660D01*
X020777Y006731D01*
X020847Y006731D01*
X021127Y006450D01*
X021127Y006731D01*
X020917Y006911D02*
X020917Y007191D01*
X020917Y007371D02*
X020917Y007651D01*
X020707Y007581D02*
X020917Y007371D01*
X021127Y007581D02*
X020707Y007581D01*
X020707Y007831D02*
X021127Y008112D01*
X020707Y008112D01*
X020707Y007831D02*
X021127Y007831D01*
X021127Y007121D02*
X020707Y007121D01*
X020917Y006911D01*
X014141Y006840D02*
X014141Y006700D01*
X014071Y006630D01*
X014141Y006449D02*
X014141Y006169D01*
X014141Y006309D02*
X013720Y006309D01*
X013860Y006169D01*
X013790Y005989D02*
X013720Y005919D01*
X013720Y005779D01*
X013790Y005709D01*
X013860Y005709D01*
X013931Y005779D01*
X013931Y005919D01*
X014001Y005989D01*
X014071Y005989D01*
X014141Y005919D01*
X014141Y005779D01*
X014071Y005709D01*
X014141Y005529D02*
X014141Y005249D01*
X013720Y005249D01*
X013720Y004998D02*
X013931Y004788D01*
X013931Y005068D01*
X014141Y004998D02*
X013720Y004998D01*
X013720Y004608D02*
X013790Y004608D01*
X014071Y004328D01*
X014141Y004328D01*
X013720Y004328D02*
X013720Y004608D01*
X013790Y006630D02*
X013720Y006700D01*
X013720Y006840D01*
X013790Y006910D01*
X013860Y006910D01*
X013931Y006840D01*
X014001Y006910D01*
X014071Y006910D01*
X014141Y006840D01*
X013931Y006840D02*
X013931Y006770D01*
X014001Y007090D02*
X013931Y007160D01*
X013931Y007300D01*
X014001Y007370D01*
X014071Y007370D01*
X014141Y007300D01*
X014141Y007160D01*
X014071Y007090D01*
X014001Y007090D01*
X013931Y007160D02*
X013860Y007090D01*
X013790Y007090D01*
X013720Y007160D01*
X013720Y007300D01*
X013790Y007370D01*
X013860Y007370D01*
X013931Y007300D01*
X014141Y007550D02*
X013720Y007550D01*
X014141Y007831D01*
X013720Y007831D01*
X013081Y002620D02*
X014781Y002620D01*
X014798Y002618D01*
X014815Y002614D01*
X014831Y002607D01*
X014845Y002597D01*
X014858Y002584D01*
X014868Y002570D01*
X014875Y002554D01*
X014879Y002537D01*
X014881Y002520D01*
X014881Y001720D01*
X014879Y001703D01*
X014875Y001686D01*
X014868Y001670D01*
X014858Y001656D01*
X014845Y001643D01*
X014831Y001633D01*
X014815Y001626D01*
X014798Y001622D01*
X014781Y001620D01*
X013081Y001620D01*
X013064Y001622D01*
X013047Y001626D01*
X013031Y001633D01*
X013017Y001643D01*
X013004Y001656D01*
X012994Y001670D01*
X012987Y001686D01*
X012983Y001703D01*
X012981Y001720D01*
X012981Y002520D01*
X012983Y002537D01*
X012987Y002554D01*
X012994Y002570D01*
X013004Y002584D01*
X013017Y002597D01*
X013031Y002607D01*
X013047Y002614D01*
X013064Y002618D01*
X013081Y002620D01*
X013831Y002420D02*
X013831Y002120D01*
X013781Y002120D01*
X013831Y002120D02*
X013831Y001820D01*
X014031Y001820D02*
X014031Y002120D01*
X014031Y002420D01*
X014031Y002120D02*
X014081Y002120D01*
D11*
X040914Y021379D02*
X041177Y021643D01*
X041046Y021643D01*
X041046Y021775D01*
X041177Y021775D01*
X041177Y021643D01*
X040649Y021643D02*
X040649Y022038D01*
X040517Y022170D01*
X040254Y022170D01*
X040254Y021906D02*
X040649Y021906D01*
X040649Y021643D02*
X040254Y021643D01*
X040122Y021775D01*
X040254Y021906D01*
X039857Y021775D02*
X039857Y022170D01*
X039857Y021775D02*
X039725Y021643D01*
X039594Y021775D01*
X039462Y021643D01*
X039330Y021775D01*
X039330Y022170D01*
X039065Y022038D02*
X039065Y021643D01*
X038670Y021643D01*
X038538Y021775D01*
X038670Y021906D01*
X039065Y021906D01*
X039065Y022038D02*
X038934Y022170D01*
X038670Y022170D01*
X038142Y022434D02*
X038142Y021643D01*
X038010Y021643D02*
X038274Y021643D01*
X037746Y021643D02*
X037482Y021643D01*
X037614Y021643D02*
X037614Y022170D01*
X037482Y022170D01*
X037614Y022434D02*
X037614Y022565D01*
X038010Y022434D02*
X038142Y022434D01*
X037218Y022302D02*
X037218Y022038D01*
X037086Y021906D01*
X036691Y021906D01*
X036691Y021643D02*
X036691Y022434D01*
X037086Y022434D01*
X037218Y022302D01*
X036426Y021775D02*
X036426Y021643D01*
X036295Y021643D01*
X036295Y021775D01*
X036426Y021775D01*
X036030Y021775D02*
X036030Y022302D01*
X035898Y022434D01*
X035503Y022434D01*
X035503Y021643D01*
X035898Y021643D01*
X036030Y021775D01*
X034447Y021906D02*
X034447Y022170D01*
X034183Y022434D01*
X033918Y022302D02*
X033787Y022434D01*
X033523Y022434D01*
X033391Y022302D01*
X033391Y021775D01*
X033523Y021643D01*
X033787Y021643D01*
X033918Y021775D01*
X034183Y021643D02*
X034447Y021906D01*
X033127Y021643D02*
X032863Y021906D01*
X032863Y022170D01*
X033127Y022434D01*
X033390Y023415D02*
X033390Y024205D01*
X033127Y023942D01*
X032863Y024205D01*
X032863Y023415D01*
X033655Y023546D02*
X033787Y023678D01*
X034182Y023678D01*
X034182Y023810D02*
X034182Y023415D01*
X033787Y023415D01*
X033655Y023546D01*
X033787Y023942D02*
X034051Y023942D01*
X034182Y023810D01*
X034447Y023942D02*
X034579Y023942D01*
X034579Y023415D01*
X034447Y023415D02*
X034711Y023415D01*
X034975Y023415D02*
X034975Y023942D01*
X035370Y023942D01*
X035502Y023810D01*
X035502Y023415D01*
X036559Y023415D02*
X036559Y024205D01*
X036822Y023942D01*
X037086Y024205D01*
X037086Y023415D01*
X037351Y023546D02*
X037351Y023810D01*
X037482Y023942D01*
X037746Y023942D01*
X037878Y023810D01*
X037878Y023678D01*
X037351Y023678D01*
X037351Y023546D02*
X037482Y023415D01*
X037746Y023415D01*
X038142Y023415D02*
X038142Y023942D01*
X038274Y023942D01*
X038406Y023810D01*
X038538Y023942D01*
X038669Y023810D01*
X038669Y023415D01*
X038406Y023415D02*
X038406Y023810D01*
X038934Y023810D02*
X038934Y023546D01*
X039066Y023415D01*
X039330Y023415D01*
X039461Y023546D01*
X039461Y023810D01*
X039330Y023942D01*
X039066Y023942D01*
X038934Y023810D01*
X039726Y023942D02*
X039726Y023415D01*
X039726Y023678D02*
X039990Y023942D01*
X040121Y023942D01*
X040386Y023942D02*
X040386Y023546D01*
X040518Y023415D01*
X040913Y023415D01*
X040913Y023283D02*
X040781Y023151D01*
X040649Y023151D01*
X040913Y023283D02*
X040913Y023942D01*
X041970Y023942D02*
X042233Y023415D01*
X042497Y023942D01*
X042761Y023942D02*
X043025Y024205D01*
X043025Y023415D01*
X042761Y023415D02*
X043289Y023415D01*
X043553Y023415D02*
X043685Y023415D01*
X043685Y023546D01*
X043553Y023546D01*
X043553Y023415D01*
X043949Y023546D02*
X044476Y024073D01*
X044476Y023546D01*
X044345Y023415D01*
X044081Y023415D01*
X043949Y023546D01*
X043949Y024073D01*
X044081Y024205D01*
X044345Y024205D01*
X044476Y024073D01*
X044345Y022434D02*
X044213Y022302D01*
X044345Y022434D02*
X044609Y022434D01*
X044740Y022302D01*
X044740Y022170D01*
X044213Y021643D01*
X044740Y021643D01*
X045005Y021775D02*
X045532Y022302D01*
X045532Y021775D01*
X045400Y021643D01*
X045137Y021643D01*
X045005Y021775D01*
X045005Y022302D01*
X045137Y022434D01*
X045400Y022434D01*
X045532Y022302D01*
X045797Y022170D02*
X046060Y022434D01*
X046060Y021643D01*
X045797Y021643D02*
X046324Y021643D01*
X046589Y021775D02*
X047116Y022302D01*
X047116Y021775D01*
X046984Y021643D01*
X046721Y021643D01*
X046589Y021775D01*
X046589Y022302D01*
X046721Y022434D01*
X046984Y022434D01*
X047116Y022302D01*
X043949Y021775D02*
X043949Y021643D01*
X043817Y021643D01*
X043817Y021775D01*
X043949Y021775D01*
X043553Y022302D02*
X043025Y021775D01*
X043025Y021643D01*
X042761Y021775D02*
X042629Y021643D01*
X042365Y021643D01*
X042234Y021775D01*
X042761Y022302D01*
X042761Y021775D01*
X042234Y021775D02*
X042234Y022302D01*
X042365Y022434D01*
X042629Y022434D01*
X042761Y022302D01*
X043025Y022434D02*
X043553Y022434D01*
X043553Y022302D01*
X034579Y024205D02*
X034579Y024337D01*
M02*
