G75*
G70*
%OFA0B0*%
%FSLAX24Y24*%
%IPPOS*%
%LPD*%
%AMOC8*
5,1,8,0,0,1.08239X$1,22.5*
%
%ADD10C,0.1261*%
%ADD11C,0.0640*%
%ADD12OC8,0.0640*%
%ADD13OC8,0.0720*%
%ADD14OC8,0.0710*%
D10*
X002120Y002120D03*
X059206Y002120D03*
X059206Y037553D03*
X002120Y037553D03*
D11*
X005064Y036328D02*
X005624Y036328D01*
X005624Y035328D02*
X005064Y035328D01*
X005064Y034328D02*
X005624Y034328D01*
X005624Y033328D02*
X005064Y033328D01*
X005064Y032328D02*
X005624Y032328D01*
X005624Y031328D02*
X005064Y031328D01*
X005064Y030328D02*
X005624Y030328D01*
X005624Y029328D02*
X005064Y029328D01*
X008064Y029328D02*
X008624Y029328D01*
X008624Y030328D02*
X008064Y030328D01*
X008064Y031328D02*
X008624Y031328D01*
X008624Y032328D02*
X008064Y032328D01*
X008064Y033328D02*
X008624Y033328D01*
X008624Y034328D02*
X008064Y034328D01*
X008064Y035328D02*
X008624Y035328D01*
X008624Y036328D02*
X008064Y036328D01*
X012151Y036328D02*
X012711Y036328D01*
X012711Y035328D02*
X012151Y035328D01*
X012151Y034328D02*
X012711Y034328D01*
X012711Y033328D02*
X012151Y033328D01*
X012151Y032328D02*
X012711Y032328D01*
X012711Y031328D02*
X012151Y031328D01*
X012151Y030328D02*
X012711Y030328D01*
X012711Y029328D02*
X012151Y029328D01*
X015151Y029328D02*
X015711Y029328D01*
X015711Y030328D02*
X015151Y030328D01*
X015151Y031328D02*
X015711Y031328D01*
X015711Y032328D02*
X015151Y032328D01*
X015151Y033328D02*
X015711Y033328D01*
X015711Y034328D02*
X015151Y034328D01*
X015151Y035328D02*
X015711Y035328D01*
X015711Y036328D02*
X015151Y036328D01*
X019237Y036328D02*
X019797Y036328D01*
X019797Y035328D02*
X019237Y035328D01*
X019237Y034328D02*
X019797Y034328D01*
X019797Y033328D02*
X019237Y033328D01*
X019237Y032328D02*
X019797Y032328D01*
X019797Y031328D02*
X019237Y031328D01*
X019237Y030328D02*
X019797Y030328D01*
X019797Y029328D02*
X019237Y029328D01*
X022237Y029328D02*
X022797Y029328D01*
X022797Y030328D02*
X022237Y030328D01*
X022237Y031328D02*
X022797Y031328D01*
X022797Y032328D02*
X022237Y032328D01*
X022237Y033328D02*
X022797Y033328D01*
X022797Y034328D02*
X022237Y034328D01*
X022237Y035328D02*
X022797Y035328D01*
X022797Y036328D02*
X022237Y036328D01*
X027505Y036147D02*
X028065Y036147D01*
X028065Y035147D02*
X027505Y035147D01*
X027505Y034147D02*
X028065Y034147D01*
X028065Y033147D02*
X027505Y033147D01*
X027505Y032147D02*
X028065Y032147D01*
X028065Y031147D02*
X027505Y031147D01*
X027505Y030147D02*
X028065Y030147D01*
X028065Y029147D02*
X027505Y029147D01*
X027505Y028147D02*
X028065Y028147D01*
X028065Y027147D02*
X027505Y027147D01*
X030505Y027147D02*
X031065Y027147D01*
X031065Y028147D02*
X030505Y028147D01*
X030505Y029147D02*
X031065Y029147D01*
X031065Y030147D02*
X030505Y030147D01*
X030505Y031147D02*
X031065Y031147D01*
X031065Y032147D02*
X030505Y032147D01*
X030505Y033147D02*
X031065Y033147D01*
X031065Y034147D02*
X030505Y034147D01*
X030505Y035147D02*
X031065Y035147D01*
X031065Y036147D02*
X030505Y036147D01*
X034985Y036147D02*
X035545Y036147D01*
X035545Y035147D02*
X034985Y035147D01*
X034985Y034147D02*
X035545Y034147D01*
X035545Y033147D02*
X034985Y033147D01*
X034985Y032147D02*
X035545Y032147D01*
X035545Y031147D02*
X034985Y031147D01*
X034985Y030147D02*
X035545Y030147D01*
X035545Y029147D02*
X034985Y029147D01*
X034985Y028147D02*
X035545Y028147D01*
X035545Y027147D02*
X034985Y027147D01*
X037985Y027147D02*
X038545Y027147D01*
X038545Y028147D02*
X037985Y028147D01*
X037985Y029147D02*
X038545Y029147D01*
X038545Y030147D02*
X037985Y030147D01*
X037985Y031147D02*
X038545Y031147D01*
X038545Y032147D02*
X037985Y032147D01*
X037985Y033147D02*
X038545Y033147D01*
X038545Y034147D02*
X037985Y034147D01*
X037985Y035147D02*
X038545Y035147D01*
X038545Y036147D02*
X037985Y036147D01*
X042466Y036147D02*
X043026Y036147D01*
X043026Y035147D02*
X042466Y035147D01*
X042466Y034147D02*
X043026Y034147D01*
X043026Y033147D02*
X042466Y033147D01*
X042466Y032147D02*
X043026Y032147D01*
X043026Y031147D02*
X042466Y031147D01*
X042466Y030147D02*
X043026Y030147D01*
X043026Y029147D02*
X042466Y029147D01*
X042466Y028147D02*
X043026Y028147D01*
X043026Y027147D02*
X042466Y027147D01*
X045466Y027147D02*
X046026Y027147D01*
X046026Y028147D02*
X045466Y028147D01*
X045466Y029147D02*
X046026Y029147D01*
X046026Y030147D02*
X045466Y030147D01*
X045466Y031147D02*
X046026Y031147D01*
X046026Y032147D02*
X045466Y032147D01*
X045466Y033147D02*
X046026Y033147D01*
X046026Y034147D02*
X045466Y034147D01*
X045466Y035147D02*
X046026Y035147D01*
X046026Y036147D02*
X045466Y036147D01*
X049946Y036147D02*
X050506Y036147D01*
X050506Y035147D02*
X049946Y035147D01*
X049946Y034147D02*
X050506Y034147D01*
X050506Y033147D02*
X049946Y033147D01*
X049946Y032147D02*
X050506Y032147D01*
X050506Y031147D02*
X049946Y031147D01*
X049946Y030147D02*
X050506Y030147D01*
X050506Y029147D02*
X049946Y029147D01*
X049946Y028147D02*
X050506Y028147D01*
X050506Y027147D02*
X049946Y027147D01*
X052946Y027147D02*
X053506Y027147D01*
X053506Y028147D02*
X052946Y028147D01*
X052946Y029147D02*
X053506Y029147D01*
X053506Y030147D02*
X052946Y030147D01*
X052946Y031147D02*
X053506Y031147D01*
X053506Y032147D02*
X052946Y032147D01*
X052946Y033147D02*
X053506Y033147D01*
X053506Y034147D02*
X052946Y034147D01*
X052946Y035147D02*
X053506Y035147D01*
X053506Y036147D02*
X052946Y036147D01*
X054840Y020601D02*
X055400Y020601D01*
X055400Y019601D02*
X054840Y019601D01*
X054840Y018601D02*
X055400Y018601D01*
X055400Y017601D02*
X054840Y017601D01*
X054840Y016601D02*
X055400Y016601D01*
X055400Y015601D02*
X054840Y015601D01*
X054840Y014601D02*
X055400Y014601D01*
X055400Y013601D02*
X054840Y013601D01*
X054840Y012601D02*
X055400Y012601D01*
X055400Y011601D02*
X054840Y011601D01*
X054840Y010601D02*
X055400Y010601D01*
X055400Y009601D02*
X054840Y009601D01*
X054840Y008601D02*
X055400Y008601D01*
X055400Y007601D02*
X054840Y007601D01*
X054840Y006601D02*
X055400Y006601D01*
X055400Y005601D02*
X054840Y005601D01*
X049400Y005601D02*
X048840Y005601D01*
X048840Y006601D02*
X049400Y006601D01*
X049400Y007601D02*
X048840Y007601D01*
X048840Y008601D02*
X049400Y008601D01*
X049400Y009601D02*
X048840Y009601D01*
X048840Y010601D02*
X049400Y010601D01*
X049400Y011601D02*
X048840Y011601D01*
X048840Y012601D02*
X049400Y012601D01*
X049400Y013601D02*
X048840Y013601D01*
X048840Y014601D02*
X049400Y014601D01*
X049400Y015601D02*
X048840Y015601D01*
X048840Y016601D02*
X049400Y016601D01*
X049400Y017601D02*
X048840Y017601D01*
X048840Y018601D02*
X049400Y018601D01*
X049400Y019601D02*
X048840Y019601D01*
X048840Y020601D02*
X049400Y020601D01*
X045163Y018781D02*
X044603Y018781D01*
X044603Y017781D02*
X045163Y017781D01*
X045163Y016781D02*
X044603Y016781D01*
X044603Y015781D02*
X045163Y015781D01*
X045163Y014781D02*
X044603Y014781D01*
X044603Y013781D02*
X045163Y013781D01*
X045163Y012781D02*
X044603Y012781D01*
X044603Y011781D02*
X045163Y011781D01*
X045163Y010781D02*
X044603Y010781D01*
X044603Y009781D02*
X045163Y009781D01*
X045163Y008781D02*
X044603Y008781D01*
X044603Y007781D02*
X045163Y007781D01*
X045163Y006781D02*
X044603Y006781D01*
X044603Y005781D02*
X045163Y005781D01*
X045163Y004781D02*
X044603Y004781D01*
X044603Y003781D02*
X045163Y003781D01*
X039163Y003781D02*
X038603Y003781D01*
X038603Y004781D02*
X039163Y004781D01*
X039163Y005781D02*
X038603Y005781D01*
X038603Y006781D02*
X039163Y006781D01*
X039163Y007781D02*
X038603Y007781D01*
X038603Y008781D02*
X039163Y008781D01*
X039163Y009781D02*
X038603Y009781D01*
X038603Y010781D02*
X039163Y010781D01*
X039163Y011781D02*
X038603Y011781D01*
X038603Y012781D02*
X039163Y012781D01*
X039163Y013781D02*
X038603Y013781D01*
X038603Y014781D02*
X039163Y014781D01*
X039163Y015781D02*
X038603Y015781D01*
X038603Y016781D02*
X039163Y016781D01*
X039163Y017781D02*
X038603Y017781D01*
X038603Y018781D02*
X039163Y018781D01*
X034927Y018781D02*
X034367Y018781D01*
X034367Y017781D02*
X034927Y017781D01*
X034927Y016781D02*
X034367Y016781D01*
X034367Y015781D02*
X034927Y015781D01*
X034927Y014781D02*
X034367Y014781D01*
X034367Y013781D02*
X034927Y013781D01*
X034927Y012781D02*
X034367Y012781D01*
X034367Y011781D02*
X034927Y011781D01*
X034927Y010781D02*
X034367Y010781D01*
X034367Y009781D02*
X034927Y009781D01*
X034927Y008781D02*
X034367Y008781D01*
X034367Y007781D02*
X034927Y007781D01*
X034927Y006781D02*
X034367Y006781D01*
X034367Y005781D02*
X034927Y005781D01*
X034927Y004781D02*
X034367Y004781D01*
X034367Y003781D02*
X034927Y003781D01*
X028927Y003781D02*
X028367Y003781D01*
X028367Y004781D02*
X028927Y004781D01*
X028927Y005781D02*
X028367Y005781D01*
X028367Y006781D02*
X028927Y006781D01*
X028927Y007781D02*
X028367Y007781D01*
X028367Y008781D02*
X028927Y008781D01*
X028927Y009781D02*
X028367Y009781D01*
X028367Y010781D02*
X028927Y010781D01*
X028927Y011781D02*
X028367Y011781D01*
X028367Y012781D02*
X028927Y012781D01*
X028927Y013781D02*
X028367Y013781D01*
X028367Y014781D02*
X028927Y014781D01*
X028927Y015781D02*
X028367Y015781D01*
X028367Y016781D02*
X028927Y016781D01*
X028927Y017781D02*
X028367Y017781D01*
X028367Y018781D02*
X028927Y018781D01*
X022797Y019017D02*
X022237Y019017D01*
X022237Y018017D02*
X022797Y018017D01*
X019797Y018017D02*
X019237Y018017D01*
X019237Y019017D02*
X019797Y019017D01*
X019797Y020017D02*
X019237Y020017D01*
X019237Y021017D02*
X019797Y021017D01*
X019797Y022017D02*
X019237Y022017D01*
X019237Y023017D02*
X019797Y023017D01*
X019797Y024017D02*
X019237Y024017D01*
X022237Y024017D02*
X022797Y024017D01*
X022797Y023017D02*
X022237Y023017D01*
X022237Y022017D02*
X022797Y022017D01*
X022797Y021017D02*
X022237Y021017D01*
X022237Y020017D02*
X022797Y020017D01*
X015711Y020017D02*
X015151Y020017D01*
X015151Y021017D02*
X015711Y021017D01*
X015711Y022017D02*
X015151Y022017D01*
X015151Y023017D02*
X015711Y023017D01*
X015711Y024017D02*
X015151Y024017D01*
X012711Y024017D02*
X012151Y024017D01*
X012151Y023017D02*
X012711Y023017D01*
X012711Y022017D02*
X012151Y022017D01*
X012151Y021017D02*
X012711Y021017D01*
X012711Y020017D02*
X012151Y020017D01*
X012151Y019017D02*
X012711Y019017D01*
X012711Y018017D02*
X012151Y018017D01*
X015151Y018017D02*
X015711Y018017D01*
X015711Y019017D02*
X015151Y019017D01*
X008624Y019017D02*
X008064Y019017D01*
X008064Y018017D02*
X008624Y018017D01*
X008624Y020017D02*
X008064Y020017D01*
X008064Y021017D02*
X008624Y021017D01*
X008624Y022017D02*
X008064Y022017D01*
X008064Y023017D02*
X008624Y023017D01*
X008624Y024017D02*
X008064Y024017D01*
X005624Y024017D02*
X005064Y024017D01*
X005064Y023017D02*
X005624Y023017D01*
X005624Y022017D02*
X005064Y022017D01*
X005064Y021017D02*
X005624Y021017D01*
X005624Y020017D02*
X005064Y020017D01*
X005064Y019017D02*
X005624Y019017D01*
X005624Y018017D02*
X005064Y018017D01*
X012151Y010738D02*
X012711Y010738D01*
X012711Y009738D02*
X012151Y009738D01*
X012151Y008738D02*
X012711Y008738D01*
X012711Y007738D02*
X012151Y007738D01*
X012151Y006738D02*
X012711Y006738D01*
X012711Y005738D02*
X012151Y005738D01*
X012151Y004738D02*
X012711Y004738D01*
X012711Y003738D02*
X012151Y003738D01*
X015151Y003738D02*
X015711Y003738D01*
X015711Y004738D02*
X015151Y004738D01*
X015151Y005738D02*
X015711Y005738D01*
X015711Y006738D02*
X015151Y006738D01*
X015151Y007738D02*
X015711Y007738D01*
X015711Y008738D02*
X015151Y008738D01*
X015151Y009738D02*
X015711Y009738D01*
X015711Y010738D02*
X015151Y010738D01*
X019237Y010919D02*
X019797Y010919D01*
X019797Y011919D02*
X019237Y011919D01*
X019237Y012919D02*
X019797Y012919D01*
X022237Y012919D02*
X022797Y012919D01*
X022797Y011919D02*
X022237Y011919D01*
X022237Y010919D02*
X022797Y010919D01*
X022797Y009919D02*
X022237Y009919D01*
X022237Y008919D02*
X022797Y008919D01*
X022797Y007919D02*
X022237Y007919D01*
X022237Y006919D02*
X022797Y006919D01*
X022797Y005919D02*
X022237Y005919D01*
X022237Y004919D02*
X022797Y004919D01*
X022797Y003919D02*
X022237Y003919D01*
X019797Y003919D02*
X019237Y003919D01*
X019237Y004919D02*
X019797Y004919D01*
X019797Y005919D02*
X019237Y005919D01*
X019237Y006919D02*
X019797Y006919D01*
X019797Y007919D02*
X019237Y007919D01*
X019237Y008919D02*
X019797Y008919D01*
X019797Y009919D02*
X019237Y009919D01*
D12*
X020124Y016293D03*
X021124Y016293D03*
X014037Y016293D03*
X013037Y016293D03*
X006950Y016293D03*
X005950Y016293D03*
X013431Y002120D03*
X014431Y002120D03*
X020517Y002120D03*
X021517Y002120D03*
X030360Y002120D03*
X031360Y002120D03*
X040596Y002120D03*
X041596Y002120D03*
X050832Y002120D03*
X051832Y002120D03*
X051620Y037946D03*
X052620Y037946D03*
X045139Y037946D03*
X044139Y037946D03*
X037659Y037946D03*
X036659Y037946D03*
X030179Y037946D03*
X029179Y037946D03*
X021911Y037946D03*
X020911Y037946D03*
X014824Y037946D03*
X013824Y037946D03*
X007738Y037946D03*
X006738Y037946D03*
D13*
X004588Y010313D03*
X003588Y010313D03*
X003588Y009313D03*
X004588Y009313D03*
X004588Y008313D03*
X003588Y008313D03*
X003588Y007313D03*
X004588Y007313D03*
D14*
X059887Y007336D03*
X060887Y007336D03*
X060887Y006336D03*
X059887Y006336D03*
X059887Y005336D03*
X060887Y005336D03*
X060887Y004336D03*
X059887Y004336D03*
X059887Y008336D03*
X059887Y009336D03*
X060887Y009336D03*
X060887Y008336D03*
X060887Y010336D03*
X059887Y010336D03*
X059887Y011336D03*
X060887Y011336D03*
X060887Y012336D03*
X059887Y012336D03*
X059887Y013336D03*
X060887Y013336D03*
X060887Y014336D03*
X059887Y014336D03*
X059887Y015336D03*
X060887Y015336D03*
X060887Y016336D03*
X059887Y016336D03*
X059887Y017336D03*
X060887Y017336D03*
X060887Y018336D03*
X059887Y018336D03*
X059887Y019336D03*
X060887Y019336D03*
X060887Y020336D03*
X059887Y020336D03*
X059887Y021336D03*
X060887Y021336D03*
X060887Y022336D03*
X059887Y022336D03*
X059887Y023336D03*
X060887Y023336D03*
X060887Y024336D03*
X059887Y024336D03*
X059887Y025336D03*
X060887Y025336D03*
X060887Y026336D03*
X059887Y026336D03*
X059887Y027336D03*
X060887Y027336D03*
X060887Y028336D03*
X059887Y028336D03*
X059887Y029336D03*
X060887Y029336D03*
X060887Y030336D03*
X059887Y030336D03*
X059887Y031336D03*
X060887Y031336D03*
X060887Y032336D03*
X059887Y032336D03*
X059887Y033336D03*
X059887Y034336D03*
X060887Y034336D03*
X060887Y033336D03*
X060887Y035336D03*
X059887Y035336D03*
M02*
