%
M48
M72
T01C0.0200
T02C0.0320
T03C0.0360
T04C0.0400
T05C0.1181
%
T01
X10551Y9151
X15951Y11551
X17651Y10351
X20251Y6551
X23151Y3451
X29951Y6351
X31051Y7351
X32251Y9251
X25751Y8851
X25751Y11251
X36051Y14251
X40351Y13251
X40751Y14651
X43451Y14251
X47151Y13051
X50051Y13551
X50251Y14151
X53451Y12151
X55851Y12051
X53551Y10051
X54051Y8551
X52351Y8151
X50951Y7751
X53551Y7051
X55851Y5251
X53451Y4951
X46951Y10451
X50251Y10851
X40451Y11351
X40451Y9351
X37251Y3751
X40351Y17251
X40351Y19251
X46851Y20351
X37751Y24151
X31151Y26251
X29951Y26651
X27451Y24951
X24551Y21851
X21251Y24951
X19551Y26651
X16851Y24951
X13551Y25351
X13951Y26751
X11651Y28251
X13551Y28851
X11251Y30151
X10751Y30151
X10351Y31451
X18751Y35651
X20051Y36951
X25351Y32151
X26351Y30151
X27051Y29651
X26451Y29251
X30351Y21051
X23451Y18051
X18651Y19851
X10751Y23451
X10351Y24051
X4651Y14551
X34251Y37151
X53151Y26551
X56251Y24951
X56651Y30551
T02
X53226Y30147
X53226Y29147
X53226Y28147
X53226Y27147
X50226Y27147
X50226Y28147
X50226Y29147
X50226Y30147
X50226Y31147
X50226Y32147
X50226Y33147
X50226Y34147
X50226Y35147
X50226Y36147
X51620Y37946
X52620Y37946
X53226Y36147
X53226Y35147
X53226Y34147
X53226Y33147
X53226Y32147
X53226Y31147
X45746Y31147
X45746Y30147
X45746Y29147
X45746Y28147
X45746Y27147
X42746Y27147
X42746Y28147
X42746Y29147
X42746Y30147
X42746Y31147
X42746Y32147
X42746Y33147
X42746Y34147
X42746Y35147
X42746Y36147
X44139Y37946
X45139Y37946
X45746Y36147
X45746Y35147
X45746Y34147
X45746Y33147
X45746Y32147
X38265Y32147
X38265Y33147
X38265Y34147
X38265Y35147
X38265Y36147
X37659Y37946
X36659Y37946
X35265Y36147
X35265Y35147
X35265Y34147
X35265Y33147
X35265Y32147
X35265Y31147
X35265Y30147
X35265Y29147
X35265Y28147
X35265Y27147
X38265Y27147
X38265Y28147
X38265Y29147
X38265Y30147
X38265Y31147
X30785Y31147
X30785Y30147
X30785Y29147
X30785Y28147
X30785Y27147
X27785Y27147
X27785Y28147
X27785Y29147
X27785Y30147
X27785Y31147
X27785Y32147
X27785Y33147
X27785Y34147
X27785Y35147
X27785Y36147
X29179Y37946
X30179Y37946
X30785Y36147
X30785Y35147
X30785Y34147
X30785Y33147
X30785Y32147
X22517Y32328
X22517Y33328
X22517Y34328
X22517Y35328
X22517Y36328
X21911Y37946
X20911Y37946
X19517Y36328
X19517Y35328
X19517Y34328
X19517Y33328
X19517Y32328
X19517Y31328
X19517Y30328
X19517Y29328
X22517Y29328
X22517Y30328
X22517Y31328
X15431Y31328
X15431Y30328
X15431Y29328
X12431Y29328
X12431Y30328
X12431Y31328
X12431Y32328
X12431Y33328
X12431Y34328
X12431Y35328
X12431Y36328
X13824Y37946
X14824Y37946
X15431Y36328
X15431Y35328
X15431Y34328
X15431Y33328
X15431Y32328
X8344Y32328
X8344Y33328
X8344Y34328
X8344Y35328
X8344Y36328
X7738Y37946
X6738Y37946
X5344Y36328
X5344Y35328
X5344Y34328
X5344Y33328
X5344Y32328
X5344Y31328
X5344Y30328
X5344Y29328
X8344Y29328
X8344Y30328
X8344Y31328
X8344Y24017
X8344Y23017
X8344Y22017
X8344Y21017
X8344Y20017
X8344Y19017
X8344Y18017
X6950Y16293
X5950Y16293
X5344Y18017
X5344Y19017
X5344Y20017
X5344Y21017
X5344Y22017
X5344Y23017
X5344Y24017
X12431Y24017
X12431Y23017
X12431Y22017
X12431Y21017
X12431Y20017
X12431Y19017
X12431Y18017
X13037Y16293
X14037Y16293
X15431Y18017
X15431Y19017
X15431Y20017
X15431Y21017
X15431Y22017
X15431Y23017
X15431Y24017
X19517Y24017
X19517Y23017
X19517Y22017
X19517Y21017
X19517Y20017
X19517Y19017
X19517Y18017
X20124Y16293
X21124Y16293
X22517Y18017
X22517Y19017
X22517Y20017
X22517Y21017
X22517Y22017
X22517Y23017
X22517Y24017
X28647Y18781
X28647Y17781
X28647Y16781
X28647Y15781
X28647Y14781
X28647Y13781
X28647Y12781
X28647Y11781
X28647Y10781
X28647Y9781
X28647Y8781
X28647Y7781
X28647Y6781
X28647Y5781
X28647Y4781
X28647Y3781
X30360Y2120
X31360Y2120
X34647Y3781
X34647Y4781
X34647Y5781
X34647Y6781
X34647Y7781
X34647Y8781
X34647Y9781
X34647Y10781
X34647Y11781
X34647Y12781
X34647Y13781
X34647Y14781
X34647Y15781
X34647Y16781
X34647Y17781
X34647Y18781
X38883Y18781
X38883Y17781
X38883Y16781
X38883Y15781
X38883Y14781
X38883Y13781
X38883Y12781
X38883Y11781
X38883Y10781
X38883Y9781
X38883Y8781
X38883Y7781
X38883Y6781
X38883Y5781
X38883Y4781
X38883Y3781
X40596Y2120
X41596Y2120
X44883Y3781
X44883Y4781
X44883Y5781
X44883Y6781
X44883Y7781
X44883Y8781
X44883Y9781
X44883Y10781
X44883Y11781
X44883Y12781
X44883Y13781
X44883Y14781
X44883Y15781
X44883Y16781
X44883Y17781
X44883Y18781
X49120Y18601
X49120Y17601
X49120Y16601
X49120Y15601
X49120Y14601
X49120Y13601
X49120Y12601
X49120Y11601
X49120Y10601
X49120Y9601
X49120Y8601
X49120Y7601
X49120Y6601
X49120Y5601
X50832Y2120
X51832Y2120
X55120Y5601
X55120Y6601
X55120Y7601
X55120Y8601
X55120Y9601
X55120Y10601
X55120Y11601
X55120Y12601
X55120Y13601
X55120Y14601
X55120Y15601
X55120Y16601
X55120Y17601
X55120Y18601
X55120Y19601
X55120Y20601
X49120Y20601
X49120Y19601
X22517Y12919
X22517Y11919
X22517Y10919
X22517Y9919
X22517Y8919
X22517Y7919
X22517Y6919
X22517Y5919
X22517Y4919
X22517Y3919
X21517Y2120
X20517Y2120
X19517Y3919
X19517Y4919
X19517Y5919
X19517Y6919
X19517Y7919
X19517Y8919
X19517Y9919
X19517Y10919
X19517Y11919
X19517Y12919
X15431Y10738
X15431Y9738
X15431Y8738
X15431Y7738
X15431Y6738
X15431Y5738
X15431Y4738
X15431Y3738
X14431Y2120
X13431Y2120
X12431Y3738
X12431Y4738
X12431Y5738
X12431Y6738
X12431Y7738
X12431Y8738
X12431Y9738
X12431Y10738
T03
X59887Y10336
X59887Y11336
X60887Y11336
X60887Y10336
X60887Y9336
X59887Y9336
X59887Y8336
X60887Y8336
X60887Y7336
X59887Y7336
X59887Y6336
X59887Y5336
X60887Y5336
X60887Y6336
X60887Y4336
X59887Y4336
X59887Y12336
X59887Y13336
X60887Y13336
X60887Y12336
X60887Y14336
X59887Y14336
X59887Y15336
X60887Y15336
X60887Y16336
X59887Y16336
X59887Y17336
X60887Y17336
X60887Y18336
X59887Y18336
X59887Y19336
X60887Y19336
X60887Y20336
X59887Y20336
X59887Y21336
X60887Y21336
X60887Y22336
X59887Y22336
X59887Y23336
X60887Y23336
X60887Y24336
X59887Y24336
X59887Y25336
X60887Y25336
X60887Y26336
X59887Y26336
X59887Y27336
X60887Y27336
X60887Y28336
X59887Y28336
X59887Y29336
X60887Y29336
X60887Y30336
X59887Y30336
X59887Y31336
X60887Y31336
X60887Y32336
X59887Y32336
X59887Y33336
X59887Y34336
X60887Y34336
X60887Y33336
X60887Y35336
X59887Y35336
T04
X4588Y10313
X3588Y10313
X3588Y9313
X4588Y9313
X4588Y8313
X3588Y8313
X3588Y7313
X4588Y7313
T05
X2120Y2120
X59206Y2120
X59206Y37553
X2120Y37553
M30
